<?xml version="1.0" encoding="utf-8"?>
<!-- Generator: Adobe Illustrator 21.1.0, SVG Export Plug-In . SVG Version: 6.00 Build 0)  -->
<svg version="1.1" id="Layer_1" xmlns="http://www.w3.org/2000/svg" xmlns:xlink="http://www.w3.org/1999/xlink" x="0px" y="0px"
	 viewBox="0 0 595.28 841.89" style="enable-background:new 0 0 595.28 841.89;" xml:space="preserve">
<style type="text/css">
	.st0{fill:#E82125;}
</style>
<g>
	<path class="st0" d="M122.909,264.19l-0.309-1.565l-0.078,0.006c-0.62,1.041-1.896,2.031-3.685,2.177
		c-2.54,0.205-3.98-1.478-4.127-3.292c-0.246-3.032,2.315-4.909,7.164-5.275l-0.021-0.26c-0.084-1.036-0.521-2.88-3.086-2.672
		c-1.166,0.095-2.354,0.557-3.19,1.198l-0.639-1.462c0.982-0.758,2.449-1.32,4.03-1.448c3.835-0.311,4.98,2.232,5.184,4.746
		l0.38,4.69c0.088,1.089,0.227,2.147,0.451,2.989L122.909,264.19z M122.053,257.816c-2.493,0.15-5.282,0.819-5.084,3.256
		c0.12,1.477,1.161,2.097,2.328,2.002c1.632-0.132,2.585-1.253,2.862-2.345c0.059-0.239,0.09-0.503,0.071-0.736L122.053,257.816z"/>
	<path class="st0" d="M137.797,244.464l1.228,15.161c0.09,1.114,0.219,2.382,0.366,3.23l-2.047,0.166l-0.28-2.168l-0.051,0.004
		c-0.587,1.456-2.03,2.643-4.078,2.809c-3.032,0.245-5.573-2.132-5.881-5.941c-0.363-4.17,2.021-6.946,5.079-7.193
		c1.917-0.155,3.287,0.646,3.938,1.611l0.052-0.004l-0.606-7.49L137.797,244.464z M136.404,255.611
		c-0.023-0.285-0.081-0.672-0.181-0.95c-0.455-1.425-1.795-2.516-3.505-2.377c-2.358,0.19-3.59,2.377-3.366,5.15
		c0.206,2.54,1.62,4.538,4.082,4.339c1.529-0.124,2.847-1.248,3.124-2.992c0.052-0.317,0.053-0.63,0.023-0.993L136.404,255.611z"/>
	<path class="st0" d="M152.413,243.28l1.228,15.161c0.09,1.114,0.219,2.382,0.366,3.23l-2.047,0.166l-0.28-2.168l-0.051,0.004
		c-0.587,1.456-2.03,2.643-4.078,2.809c-3.032,0.245-5.573-2.132-5.881-5.941c-0.363-4.17,2.021-6.946,5.079-7.193
		c1.917-0.155,3.287,0.646,3.938,1.611l0.052-0.005l-0.606-7.489L152.413,243.28z M151.02,254.427
		c-0.023-0.284-0.081-0.671-0.181-0.949c-0.455-1.425-1.795-2.516-3.505-2.377c-2.358,0.19-3.59,2.377-3.366,5.15
		c0.206,2.54,1.62,4.538,4.082,4.339c1.529-0.124,2.847-1.248,3.124-2.992c0.052-0.317,0.053-0.631,0.023-0.993L151.02,254.427z"/>
	<path class="st0" d="M162.993,248.318l3.348,7.19c0.352,0.806,0.743,1.766,1.011,2.5l0.052-0.004
		c0.172-0.771,0.354-1.75,0.591-2.683l1.893-7.562l2.41-0.195l-2.697,9.218c-1.285,4.435-2.22,6.728-3.667,8.201
		c-1.034,1.075-2.117,1.555-2.679,1.704l-0.726-1.871c0.556-0.229,1.278-0.652,1.906-1.276c0.582-0.543,1.288-1.487,1.712-2.695
		c0.085-0.242,0.148-0.429,0.138-0.559s-0.078-0.308-0.204-0.584l-5.575-11.183L162.993,248.318z"/>
	<path class="st0" d="M185.962,252.667c0.375,4.64-2.675,6.921-5.707,7.167c-3.395,0.274-6.213-2.001-6.534-5.967
		c-0.34-4.198,2.207-6.883,5.681-7.164C183.003,246.411,185.651,248.832,185.962,252.667z M176.021,253.603
		c0.223,2.747,1.971,4.692,4.2,4.512c2.177-0.176,3.644-2.355,3.415-5.18c-0.173-2.125-1.453-4.734-4.148-4.517
		C176.792,248.637,175.827,251.219,176.021,253.603z"/>
	<path class="st0" d="M199.573,254.539c0.104,1.296,0.224,2.434,0.381,3.412l-2.021,0.164l-0.296-2.037l-0.052,0.004
		c-0.515,1.06-1.729,2.488-3.958,2.669c-1.97,0.159-4.416-0.738-4.772-5.144l-0.594-7.335l2.28-0.185l0.563,6.945
		c0.192,2.385,1.049,3.933,3.123,3.765c1.528-0.124,2.504-1.272,2.837-2.316c0.103-0.348,0.146-0.769,0.113-1.184l-0.623-7.697
		l2.28-0.185L199.573,254.539z"/>
	<path class="st0" d="M202.934,249.023c-0.119-1.478-0.248-2.745-0.42-3.905l1.995-0.161l0.277,2.456l0.104-0.009
		c0.435-1.731,1.721-2.905,3.25-3.028c0.26-0.021,0.443-0.01,0.654,0.025l0.175,2.15c-0.237-0.032-0.473-0.039-0.784-0.015
		c-1.606,0.131-2.648,1.441-2.82,3.177c-0.027,0.314-0.05,0.683-0.019,1.071l0.542,6.686l-2.255,0.183L202.934,249.023z"/>
	<path class="st0" d="M132.867,286.182c-0.13-1.606-0.287-2.897-0.435-4.086l2.047-0.165l0.278,2.143l0.052-0.005
		c0.81-1.604,2.213-2.631,4.261-2.797c3.032-0.245,5.52,2.136,5.829,5.945c0.365,4.51-2.202,6.961-5.156,7.2
		c-1.658,0.134-3.168-0.474-4.021-1.657l-0.052,0.004l0.552,6.816l-2.255,0.183L132.867,286.182z M135.393,289.343
		c0.027,0.337,0.104,0.645,0.179,0.925c0.542,1.547,2.004,2.525,3.637,2.393c2.41-0.195,3.65-2.278,3.417-5.155
		c-0.204-2.514-1.699-4.558-4.109-4.362c-1.556,0.126-2.917,1.357-3.218,3.104c-0.055,0.292-0.105,0.635-0.08,0.945L135.393,289.343
		z"/>
	<path class="st0" d="M146.806,275.036l2.281-0.185l0.634,7.827l0.052-0.004c0.31-0.678,0.834-1.294,1.503-1.74
		c0.642-0.442,1.425-0.767,2.28-0.836c1.685-0.137,4.463,0.682,4.814,5.01l0.604,7.464l-2.281,0.185l-0.583-7.205
		c-0.164-2.021-1.054-3.671-3.205-3.496c-1.477,0.119-2.559,1.25-2.873,2.528c-0.104,0.321-0.104,0.661-0.068,1.102l0.613,7.567
		l-2.281,0.185L146.806,275.036z"/>
	<path class="st0" d="M173.515,284.978c0.376,4.639-2.675,6.921-5.706,7.167c-3.396,0.274-6.214-2.001-6.536-5.967
		c-0.34-4.198,2.208-6.883,5.681-7.164C170.556,278.722,173.204,281.143,173.515,284.978z M163.573,285.913
		c0.223,2.747,1.972,4.692,4.2,4.512c2.177-0.177,3.644-2.355,3.415-5.181c-0.172-2.125-1.452-4.734-4.147-4.516
		C164.345,280.946,163.38,283.529,163.573,285.913z"/>
	<path class="st0" d="M178.346,274.752l0.292,3.603l3.265-0.265l0.141,1.736l-3.265,0.265l0.548,6.764
		c0.126,1.555,0.638,2.4,1.907,2.298c0.597-0.048,1.03-0.161,1.31-0.263l0.242,1.702c-0.426,0.217-1.115,0.403-1.996,0.475
		c-1.063,0.086-1.945-0.182-2.54-0.759c-0.702-0.622-1.026-1.718-1.146-3.194l-0.555-6.842l-1.943,0.157l-0.141-1.736l1.943-0.157
		l-0.243-3.007L178.346,274.752z"/>
	<path class="st0" d="M196.164,283.144c0.376,4.639-2.675,6.921-5.706,7.166c-3.396,0.275-6.215-2.001-6.535-5.967
		c-0.34-4.198,2.207-6.882,5.68-7.163C193.205,276.888,195.854,279.308,196.164,283.144z M186.223,284.079
		c0.223,2.747,1.971,4.692,4.199,4.512c2.178-0.177,3.645-2.356,3.415-5.181c-0.172-2.125-1.452-4.734-4.147-4.517
		C186.994,279.112,186.029,281.695,186.223,284.079z"/>
</g>
<g>
	<path class="st0" d="M397.26,563.708l-0.368-1.553l-0.078,0.009c-0.58,1.063-1.818,2.103-3.6,2.315
		c-2.53,0.302-4.033-1.325-4.249-3.133c-0.36-3.021,2.128-4.994,6.959-5.545l-0.031-0.258c-0.123-1.033-0.629-2.857-3.186-2.553
		c-1.161,0.139-2.332,0.646-3.142,1.318l-0.694-1.437c0.952-0.795,2.396-1.412,3.972-1.6c3.821-0.456,5.062,2.041,5.36,4.545
		l0.558,4.673c0.13,1.085,0.308,2.137,0.564,2.971L397.26,563.708z M396.163,557.371c-2.484,0.244-5.246,1.019-4.957,3.446
		c0.176,1.471,1.24,2.051,2.402,1.912c1.626-0.194,2.535-1.35,2.771-2.451c0.05-0.242,0.07-0.506,0.043-0.738L396.163,557.371z"/>
	<path class="st0" d="M411.389,543.43l1.802,15.104c0.133,1.11,0.31,2.372,0.488,3.215l-2.039,0.243l-0.362-2.157l-0.052,0.007
		c-0.53,1.477-1.928,2.718-3.968,2.961c-3.021,0.361-5.648-1.918-6.102-5.714c-0.522-4.153,1.755-7.017,4.801-7.381
		c1.911-0.228,3.31,0.521,3.998,1.461l0.052-0.006l-0.891-7.462L411.389,543.43z M410.42,554.622
		c-0.034-0.283-0.106-0.668-0.218-0.943c-0.508-1.405-1.889-2.444-3.593-2.241c-2.35,0.28-3.497,2.513-3.168,5.274
		c0.302,2.53,1.791,4.474,4.243,4.181c1.523-0.182,2.798-1.355,3.008-3.108c0.04-0.319,0.029-0.632-0.014-0.993L410.42,554.622z"/>
	<path class="st0" d="M425.949,541.692l1.802,15.104c0.133,1.11,0.31,2.372,0.489,3.215l-2.04,0.243l-0.362-2.156l-0.051,0.006
		c-0.531,1.478-1.929,2.719-3.968,2.962c-3.021,0.36-5.649-1.918-6.103-5.714c-0.521-4.153,1.755-7.018,4.802-7.381
		c1.91-0.229,3.309,0.521,3.997,1.461l0.052-0.007l-0.891-7.462L425.949,541.692z M424.98,552.885
		c-0.034-0.284-0.105-0.668-0.217-0.943c-0.509-1.405-1.89-2.445-3.594-2.241c-2.35,0.28-3.497,2.512-3.167,5.274
		c0.302,2.53,1.79,4.473,4.242,4.181c1.523-0.183,2.798-1.355,3.008-3.108c0.041-0.319,0.029-0.632-0.014-0.994L424.98,552.885z"/>
	<path class="st0" d="M436.713,546.325l3.618,7.058c0.382,0.792,0.81,1.736,1.105,2.461l0.052-0.007
		c0.143-0.776,0.287-1.762,0.489-2.702l1.604-7.629l2.4-0.286l-2.345,9.313c-1.115,4.48-1.963,6.808-3.353,8.335
		c-0.992,1.113-2.057,1.633-2.612,1.804l-0.796-1.842c0.547-0.249,1.252-0.699,1.855-1.348c0.561-0.565,1.231-1.535,1.608-2.758
		c0.076-0.245,0.132-0.435,0.116-0.564c-0.015-0.129-0.089-0.304-0.226-0.575l-5.996-10.964L436.713,546.325z"/>
	<path class="st0" d="M459.83,549.799c0.552,4.622-2.41,7.018-5.431,7.378c-3.382,0.404-6.285-1.764-6.757-5.714
		c-0.499-4.183,1.944-6.962,5.404-7.374C456.636,543.66,459.374,545.979,459.83,549.799z M449.932,551.111
		c0.326,2.737,2.147,4.614,4.368,4.349c2.169-0.259,3.551-2.492,3.216-5.306c-0.253-2.117-1.632-4.676-4.316-4.355
		C450.514,546.119,449.648,548.736,449.932,551.111z"/>
	<path class="st0" d="M473.502,551.152c0.154,1.292,0.316,2.424,0.511,3.396l-2.014,0.241l-0.372-2.024l-0.053,0.006
		c-0.474,1.078-1.633,2.552-3.854,2.816c-1.962,0.234-4.441-0.57-4.965-4.959l-0.872-7.307l2.272-0.271l0.825,6.919
		c0.284,2.375,1.198,3.89,3.264,3.643c1.523-0.182,2.455-1.366,2.748-2.422c0.089-0.352,0.117-0.773,0.067-1.187l-0.915-7.668
		l2.272-0.271L473.502,551.152z"/>
	<path class="st0" d="M476.651,545.514c-0.176-1.472-0.352-2.733-0.568-3.887l1.988-0.237l0.37,2.444l0.103-0.013
		c0.368-1.746,1.61-2.968,3.134-3.149c0.258-0.031,0.442-0.027,0.654,0l0.256,2.143c-0.238-0.023-0.474-0.021-0.784,0.016
		c-1.601,0.19-2.591,1.54-2.698,3.28c-0.015,0.316-0.022,0.685,0.023,1.072l0.795,6.66l-2.246,0.269L476.651,545.514z"/>
	<path class="st0" d="M408.046,585.306c-0.191-1.601-0.396-2.886-0.59-4.066l2.039-0.244l0.359,2.131l0.052-0.006
		c0.748-1.635,2.111-2.714,4.15-2.957c3.021-0.36,5.599,1.925,6.052,5.72c0.536,4.492-1.937,7.039-4.88,7.391
		c-1.652,0.197-3.184-0.354-4.081-1.503l-0.051,0.006l0.81,6.79l-2.246,0.269L408.046,585.306z M410.689,588.369
		c0.04,0.335,0.129,0.639,0.214,0.916c0.602,1.525,2.099,2.447,3.726,2.253c2.401-0.286,3.562-2.415,3.22-5.28
		c-0.299-2.505-1.872-4.49-4.272-4.204c-1.55,0.185-2.863,1.467-3.098,3.224c-0.044,0.294-0.082,0.639-0.045,0.948L410.689,588.369z
		"/>
	<path class="st0" d="M421.552,573.639l2.272-0.271l0.93,7.798l0.052-0.007c0.285-0.688,0.785-1.324,1.437-1.795
		c0.625-0.467,1.394-0.821,2.246-0.923c1.678-0.2,4.486,0.513,5.001,4.824l0.887,7.436l-2.271,0.271l-0.856-7.178
		c-0.24-2.014-1.192-3.629-3.336-3.373c-1.471,0.176-2.51,1.347-2.774,2.636c-0.092,0.325-0.078,0.664-0.026,1.103l0.9,7.539
		l-2.272,0.271L421.552,573.639z"/>
	<path class="st0" d="M448.618,582.559c0.552,4.621-2.409,7.018-5.43,7.378c-3.383,0.403-6.285-1.764-6.757-5.714
		c-0.499-4.183,1.944-6.962,5.404-7.375C445.424,576.42,448.162,578.737,448.618,582.559z M438.72,583.871
		c0.326,2.736,2.148,4.614,4.368,4.349c2.169-0.259,3.552-2.492,3.216-5.307c-0.253-2.116-1.631-4.675-4.316-4.354
		C439.303,578.879,438.437,581.496,438.72,583.871z"/>
	<path class="st0" d="M453.059,572.156l0.428,3.589l3.253-0.388l0.207,1.729l-3.253,0.389l0.804,6.738
		c0.185,1.549,0.729,2.374,1.993,2.224c0.595-0.071,1.023-0.2,1.299-0.313l0.307,1.692c-0.418,0.232-1.1,0.445-1.977,0.55
		c-1.06,0.126-1.951-0.107-2.567-0.662c-0.726-0.595-1.091-1.677-1.267-3.148l-0.813-6.816l-1.937,0.231l-0.207-1.73l1.937-0.23
		l-0.357-2.995L453.059,572.156z"/>
	<path class="st0" d="M471.182,579.866c0.552,4.621-2.409,7.017-5.43,7.377c-3.383,0.404-6.285-1.763-6.757-5.714
		c-0.499-4.182,1.944-6.961,5.404-7.374C467.987,573.727,470.726,576.045,471.182,579.866z M461.283,581.179
		c0.327,2.736,2.148,4.613,4.368,4.349c2.169-0.259,3.552-2.492,3.216-5.307c-0.253-2.116-1.631-4.676-4.316-4.354
		C461.866,576.187,461,578.804,461.283,581.179z"/>
</g>
</svg>
