<?xml version="1.0" encoding="utf-8"?>
<!-- Generator: Adobe Illustrator 21.1.0, SVG Export Plug-In . SVG Version: 6.00 Build 0)  -->
<svg version="1.1" id="Layer_1" xmlns="http://www.w3.org/2000/svg" xmlns:xlink="http://www.w3.org/1999/xlink" x="0px" y="0px"
	 viewBox="0 0 595.28 841.89" style="enable-background:new 0 0 595.28 841.89;" xml:space="preserve">
<style type="text/css">
	.st0{fill:#58595B;stroke:#58595B;stroke-width:1.4173;stroke-miterlimit:10;}
	.st1{fill:#FFFFFF;}
</style>
<g>
	<g>
		<path class="st0" d="M237.191,385.061c1.237,6.058,2.715,12.275,4.462,18.662c10.137,36.703,17.458,64.95,21.964,84.743
			c27.685-6.767,53.441-14.268,77.25-22.509c7.642-2.423,13.961-4.336,18.981-5.748c0.037-0.33,0.073-0.653,0.115-1.004
			c1.181-15.196,1.367-33.96,0.559-56.284c-0.423-20.249-1.499-35.032-3.227-44.344c-0.906-4.885-6.155-6.443-15.744-4.663
			c-6.491,1.204-23.943,6.229-52.363,15.066C264,376.837,246.672,382.196,237.191,385.061z"/>
	</g>
	<g>
		<path class="st1" d="M270.792,409.947l-1.469,4.451h-1.891l4.809-14.151h2.205l4.828,14.151h-1.952l-1.512-4.451H270.792z
			 M275.433,408.52l-1.386-4.073c-0.315-0.924-0.524-1.764-0.735-2.583h-0.041c-0.211,0.84-0.441,1.701-0.715,2.563l-1.385,4.094
			H275.433z"/>
		<path class="st1" d="M289.817,399.491v12.282c0,0.903,0.021,1.932,0.084,2.625h-1.658l-0.084-1.764h-0.042
			c-0.567,1.134-1.806,1.994-3.464,1.994c-2.457,0-4.347-2.078-4.347-5.164c-0.021-3.381,2.079-5.459,4.556-5.459
			c1.555,0,2.604,0.734,3.066,1.553h0.041v-6.067H289.817z M287.97,408.373c0-0.231-0.021-0.547-0.084-0.777
			c-0.272-1.176-1.28-2.142-2.666-2.142c-1.91,0-3.045,1.68-3.045,3.927c0,2.057,1.008,3.758,3.003,3.758
			c1.239,0,2.372-0.818,2.708-2.205c0.063-0.252,0.084-0.504,0.084-0.797V408.373z"/>
		<path class="st1" d="M301.661,399.491v12.282c0,0.903,0.021,1.932,0.084,2.625h-1.658l-0.084-1.764h-0.042
			c-0.567,1.134-1.806,1.994-3.464,1.994c-2.457,0-4.347-2.078-4.347-5.164c-0.021-3.381,2.079-5.459,4.556-5.459
			c1.555,0,2.604,0.734,3.066,1.553h0.041v-6.067H301.661z M299.814,408.373c0-0.231-0.021-0.547-0.084-0.777
			c-0.272-1.176-1.28-2.142-2.666-2.142c-1.91,0-3.045,1.68-3.045,3.927c0,2.057,1.008,3.758,3.003,3.758
			c1.239,0,2.372-0.818,2.708-2.205c0.063-0.252,0.084-0.504,0.084-0.797V408.373z"/>
		<path class="st1" d="M309.853,404.236l2.225,6.005c0.231,0.672,0.483,1.47,0.651,2.079h0.042c0.189-0.609,0.398-1.387,0.65-2.121
			l2.016-5.963h1.953l-2.771,7.244c-1.322,3.484-2.226,5.27-3.485,6.361c-0.903,0.798-1.806,1.113-2.268,1.197l-0.462-1.555
			c0.462-0.146,1.07-0.44,1.617-0.902c0.504-0.398,1.133-1.113,1.553-2.058c0.084-0.188,0.147-0.336,0.147-0.44
			c0-0.105-0.042-0.252-0.126-0.483l-3.758-9.364H309.853z"/>
		<path class="st1" d="M328.058,409.233c0,3.759-2.604,5.396-5.06,5.396c-2.751,0-4.871-2.016-4.871-5.228
			c0-3.401,2.226-5.396,5.039-5.396C326.085,404.006,328.058,406.126,328.058,409.233z M319.995,409.338
			c0,2.227,1.281,3.906,3.087,3.906c1.764,0,3.087-1.659,3.087-3.947c0-1.723-0.861-3.906-3.045-3.906
			S319.995,407.406,319.995,409.338z"/>
		<path class="st1" d="M338.894,411.627c0,1.05,0.021,1.974,0.084,2.771h-1.638l-0.104-1.658h-0.043
			c-0.482,0.818-1.553,1.889-3.359,1.889c-1.596,0-3.506-0.881-3.506-4.451v-5.941h1.848v5.627c0,1.932,0.588,3.233,2.268,3.233
			c1.238,0,2.1-0.86,2.436-1.68c0.105-0.272,0.168-0.608,0.168-0.944v-6.236h1.848V411.627z"/>
		<path class="st1" d="M341.962,407.406c0-1.196-0.021-2.225-0.084-3.17h1.616l0.063,1.994h0.084
			c0.461-1.364,1.574-2.225,2.813-2.225c0.211,0,0.357,0.021,0.525,0.063v1.742c-0.189-0.041-0.378-0.063-0.63-0.063
			c-1.302,0-2.226,0.986-2.478,2.373c-0.042,0.252-0.084,0.545-0.084,0.86v5.417h-1.826V407.406z"/>
		<path class="st1" d="M259.989,432.754c0-1.302-0.043-2.352-0.084-3.317h1.658l0.084,1.743h0.042
			c0.756-1.239,1.952-1.975,3.611-1.975c2.456,0,4.304,2.079,4.304,5.166c0,3.652-2.225,5.459-4.619,5.459
			c-1.344,0-2.52-0.588-3.128-1.596h-0.042v5.521h-1.826V432.754z M261.816,435.463c0,0.272,0.042,0.524,0.084,0.756
			c0.336,1.28,1.449,2.162,2.771,2.162c1.953,0,3.086-1.596,3.086-3.926c0-2.037-1.07-3.779-3.023-3.779
			c-1.26,0-2.436,0.902-2.792,2.288c-0.063,0.231-0.126,0.504-0.126,0.756V435.463z"/>
		<path class="st1" d="M271.937,424.691h1.848v6.341h0.043c0.293-0.524,0.756-0.987,1.322-1.302c0.546-0.314,1.197-0.525,1.89-0.525
			c1.364,0,3.548,0.84,3.548,4.347v6.047h-1.848v-5.837c0-1.638-0.608-3.023-2.352-3.023c-1.196,0-2.141,0.84-2.477,1.848
			c-0.105,0.252-0.127,0.525-0.127,0.882v6.131h-1.848V424.691z"/>
		<path class="st1" d="M292.788,434.434c0,3.758-2.604,5.396-5.06,5.396c-2.751,0-4.871-2.016-4.871-5.229
			c0-3.401,2.226-5.396,5.039-5.396C290.816,429.205,292.788,431.326,292.788,434.434z M284.726,434.539
			c0,2.225,1.281,3.904,3.087,3.904c1.764,0,3.087-1.658,3.087-3.947c0-1.721-0.861-3.904-3.045-3.904
			S284.726,432.607,284.726,434.539z"/>
		<path class="st1" d="M297.347,426.518v2.919h2.646v1.407h-2.646v5.479c0,1.26,0.357,1.974,1.387,1.974
			c0.482,0,0.84-0.063,1.07-0.126l0.084,1.386c-0.357,0.146-0.924,0.252-1.638,0.252c-0.86,0-1.554-0.273-1.995-0.777
			c-0.524-0.545-0.713-1.448-0.713-2.645v-5.543h-1.575v-1.407h1.575v-2.436L297.347,426.518z"/>
		<path class="st1" d="M311.142,434.434c0,3.758-2.604,5.396-5.06,5.396c-2.751,0-4.871-2.016-4.871-5.229
			c0-3.401,2.226-5.396,5.039-5.396C309.169,429.205,311.142,431.326,311.142,434.434z M303.079,434.539
			c0,2.225,1.281,3.904,3.087,3.904c1.764,0,3.087-1.658,3.087-3.947c0-1.721-0.861-3.904-3.045-3.904
			S303.079,432.607,303.079,434.539z"/>
		<path class="st1" d="M317.927,424.691h1.848v6.341h0.043c0.293-0.524,0.756-0.987,1.322-1.302c0.546-0.314,1.197-0.525,1.89-0.525
			c1.364,0,3.548,0.84,3.548,4.347v6.047h-1.848v-5.837c0-1.638-0.608-3.023-2.352-3.023c-1.196,0-2.141,0.84-2.477,1.848
			c-0.105,0.252-0.127,0.525-0.127,0.882v6.131h-1.848V424.691z"/>
		<path class="st1" d="M330.61,434.854c0.042,2.498,1.638,3.527,3.485,3.527c1.323,0,2.12-0.23,2.813-0.525l0.314,1.323
			c-0.65,0.294-1.764,0.63-3.38,0.63c-3.128,0-4.997-2.058-4.997-5.123s1.806-5.48,4.766-5.48c3.318,0,4.199,2.919,4.199,4.787
			c0,0.379-0.041,0.672-0.063,0.861H330.61z M336.027,433.531c0.021-1.176-0.483-3.003-2.562-3.003
			c-1.869,0-2.688,1.722-2.834,3.003H336.027z"/>
		<path class="st1" d="M340.103,432.607c0-1.197-0.021-2.227-0.084-3.171h1.616l0.063,1.995h0.084
			c0.461-1.365,1.574-2.227,2.813-2.227c0.211,0,0.357,0.021,0.525,0.063v1.743c-0.189-0.043-0.378-0.063-0.63-0.063
			c-1.302,0-2.226,0.987-2.478,2.372c-0.042,0.252-0.084,0.547-0.084,0.861v5.417h-1.826V432.607z"/>
		<path class="st1" d="M347.788,434.854c0.042,2.498,1.638,3.527,3.485,3.527c1.323,0,2.12-0.23,2.813-0.525l0.314,1.323
			c-0.65,0.294-1.764,0.63-3.38,0.63c-3.128,0-4.997-2.058-4.997-5.123s1.806-5.48,4.766-5.48c3.318,0,4.199,2.919,4.199,4.787
			c0,0.379-0.041,0.672-0.063,0.861H347.788z M353.205,433.531c0.021-1.176-0.483-3.003-2.562-3.003
			c-1.869,0-2.688,1.722-2.834,3.003H353.205z"/>
	</g>
</g>
</svg>
