<?xml version="1.0" encoding="utf-8"?>
<!-- Generator: Adobe Illustrator 21.1.0, SVG Export Plug-In . SVG Version: 6.00 Build 0)  -->
<svg version="1.1" id="line" xmlns="http://www.w3.org/2000/svg" xmlns:xlink="http://www.w3.org/1999/xlink" x="0px" y="0px"
	 viewBox="0 0 595.28 841.89" enable-background="new 0 0 595.28 841.89" xml:space="preserve">
<g>
	<path fill="#B23570" d="M96.484,304.143c1.091,0.757,1.687,1.872,1.786,3.346l0.452,6.693c0.088,1.315,0.211,2.252,0.369,2.812
		c0.158,0.56,0.238,0.87,0.243,0.93c0.016,0.239-0.162,0.426-0.532,0.561c-0.371,0.135-0.717,0.213-1.035,0.235
		c-0.279,0.019-0.494-0.122-0.644-0.422c-0.151-0.3-0.272-0.617-0.364-0.951c-0.093-0.334-0.152-0.55-0.18-0.648
		c-1.254,1.586-2.877,2.445-4.868,2.58c-1.534,0.104-2.795-0.191-3.782-0.886c-0.987-0.693-1.53-1.777-1.63-3.252
		c-0.106-1.573,0.287-2.786,1.181-3.637c0.893-0.85,2.019-1.437,3.378-1.758c1.359-0.321,3.024-0.559,4.995-0.712l-0.095-1.404
		c-0.05-0.737-0.35-1.322-0.899-1.756c-0.55-0.433-1.402-0.611-2.557-0.533c-0.877,0.059-1.637,0.216-2.28,0.469
		c-0.643,0.254-1.177,0.5-1.601,0.738c-0.425,0.239-0.657,0.36-0.696,0.362c-0.2,0.014-0.438-0.17-0.712-0.552
		c-0.276-0.382-0.422-0.672-0.435-0.871c-0.018-0.259,0.228-0.556,0.735-0.891c0.507-0.334,1.192-0.636,2.056-0.904
		c0.861-0.268,1.762-0.434,2.697-0.498C93.921,303.069,95.393,303.386,96.484,304.143z M92.35,311.61
		c-0.939,0.164-1.752,0.499-2.438,1.005c-0.686,0.506-0.997,1.238-0.933,2.194c0.055,0.797,0.309,1.39,0.766,1.779
		c0.456,0.39,1.104,0.556,1.939,0.5c0.977-0.066,1.806-0.302,2.489-0.708c0.683-0.406,1.371-0.962,2.063-1.67l-0.238-3.526
		C94.506,311.305,93.289,311.447,92.35,311.61z"/>
	<path fill="#B23570" d="M114.343,295.658l1.173,17.391c0.089,1.315,0.212,2.252,0.37,2.812c0.157,0.56,0.238,0.87,0.242,0.93
		c0.017,0.239-0.161,0.426-0.532,0.561s-0.716,0.213-1.035,0.235c-0.278,0.019-0.493-0.122-0.644-0.422
		c-0.15-0.3-0.272-0.617-0.364-0.951c-0.093-0.334-0.152-0.55-0.179-0.648c-1.334,1.591-2.867,2.445-4.601,2.562
		c-1.175,0.08-2.224-0.189-3.146-0.808c-0.923-0.618-1.659-1.52-2.209-2.703c-0.55-1.183-0.877-2.542-0.98-4.077
		c-0.114-1.693,0.042-3.159,0.469-4.399c0.427-1.239,1.077-2.199,1.952-2.878c0.875-0.679,1.91-1.06,3.105-1.141
		c0.876-0.059,1.657,0.02,2.341,0.232c0.686,0.214,1.363,0.549,2.034,1.003l-0.508-7.53c-0.029-0.438,0.354-0.684,1.151-0.738
		l0.119-0.008C113.899,295.027,114.313,295.22,114.343,295.658z M105.791,305.946c-0.613,0.992-0.86,2.384-0.739,4.177
		c0.131,1.932,0.55,3.4,1.258,4.403s1.649,1.464,2.825,1.385c0.677-0.045,1.357-0.271,2.04-0.678s1.302-0.958,1.854-1.656
		l-0.552-8.188c-1.137-0.824-2.392-1.189-3.767-1.097C107.378,304.403,106.404,304.954,105.791,305.946z"/>
	<path fill="#B23570" d="M131.225,294.519l1.174,17.391c0.088,1.315,0.212,2.252,0.369,2.812c0.158,0.56,0.238,0.869,0.243,0.929
		c0.016,0.239-0.162,0.426-0.532,0.562c-0.371,0.135-0.717,0.213-1.035,0.234c-0.279,0.019-0.494-0.122-0.644-0.421
		c-0.151-0.3-0.272-0.617-0.364-0.952c-0.094-0.333-0.152-0.549-0.179-0.648c-1.334,1.591-2.867,2.445-4.601,2.562
		c-1.176,0.079-2.225-0.19-3.146-0.808c-0.923-0.618-1.658-1.52-2.208-2.703s-0.877-2.542-0.98-4.077
		c-0.114-1.693,0.042-3.159,0.469-4.399c0.427-1.239,1.077-2.199,1.952-2.878c0.874-0.679,1.909-1.06,3.105-1.141
		c0.876-0.059,1.656,0.019,2.341,0.232c0.686,0.214,1.363,0.549,2.034,1.003l-0.508-7.53c-0.029-0.438,0.354-0.684,1.15-0.738
		l0.12-0.008C130.782,293.889,131.195,294.082,131.225,294.519z M122.674,304.807c-0.614,0.992-0.86,2.385-0.739,4.178
		c0.131,1.932,0.55,3.4,1.258,4.403s1.649,1.464,2.824,1.385c0.678-0.046,1.357-0.271,2.041-0.678
		c0.683-0.407,1.301-0.958,1.854-1.656l-0.552-8.188c-1.137-0.824-2.393-1.19-3.767-1.097
		C124.26,303.264,123.287,303.815,122.674,304.807z"/>
	<path fill="#B23570" d="M155.095,299.063c0,0,0.012,0.169,0.034,0.508c0.007,0.1-0.014,0.241-0.062,0.425l-6.307,20.867
		c-0.132,0.429-0.585,0.669-1.362,0.722l-0.448,0.03c-0.657,0.044-0.997-0.093-1.019-0.412c-0.005-0.08,0.033-0.253,0.116-0.518
		l2.101-6.235l-6.171-13.602c-0.072-0.175-0.11-0.303-0.116-0.383c-0.022-0.339,0.395-0.537,1.251-0.595l0.239-0.016
		c0.657-0.044,1.066,0.088,1.228,0.397l3.594,7.893c0.378,0.855,0.765,1.839,1.16,2.953l0.06-0.004l0.21-0.885l0.572-2.2
		l2.442-8.299c0.077-0.326,0.476-0.513,1.192-0.561l0.09-0.006C154.696,299.089,155.095,299.063,155.095,299.063z"/>
	<path fill="#B23570" d="M169.405,300.064c1.259,1.306,1.977,3.264,2.152,5.873c0.175,2.59-0.266,4.596-1.32,6.017
		c-1.056,1.422-2.698,2.208-4.929,2.359c-2.252,0.152-4.016-0.409-5.292-1.684c-1.276-1.274-2.002-3.197-2.175-5.767
		c-0.175-2.589,0.288-4.623,1.39-6.097c1.102-1.475,2.768-2.289,4.999-2.439C166.421,298.178,168.146,298.757,169.405,300.064z
		 M161.185,302.119c-0.614,0.992-0.854,2.495-0.718,4.506c0.135,1.993,0.572,3.439,1.314,4.339c0.74,0.901,1.838,1.302,3.293,1.204
		c1.453-0.098,2.497-0.644,3.131-1.637c0.633-0.993,0.883-2.486,0.749-4.479c-0.135-1.992-0.583-3.443-1.345-4.352
		c-0.762-0.909-1.87-1.315-3.323-1.217C162.831,300.582,161.797,301.127,161.185,302.119z"/>
	<path fill="#B23570" d="M186.782,297.586l0.716,10.607c0.089,1.315,0.212,2.252,0.37,2.812c0.157,0.56,0.238,0.869,0.242,0.929
		c0.017,0.239-0.161,0.426-0.532,0.562c-0.371,0.135-0.716,0.213-1.035,0.234c-0.278,0.019-0.493-0.122-0.644-0.421
		c-0.15-0.3-0.272-0.617-0.364-0.952c-0.093-0.333-0.152-0.549-0.179-0.648c-0.591,0.741-1.28,1.337-2.07,1.791
		c-0.79,0.454-1.604,0.708-2.44,0.765c-1.514,0.102-2.732-0.246-3.657-1.044c-0.924-0.798-1.438-1.954-1.54-3.468l-0.699-10.369
		c-0.029-0.438,0.354-0.685,1.151-0.739l0.119-0.008c0.797-0.054,1.21,0.139,1.239,0.577l0.684,10.13
		c0.062,0.916,0.374,1.61,0.937,2.083c0.562,0.472,1.331,0.676,2.308,0.61c0.677-0.046,1.336-0.28,1.979-0.704
		c0.642-0.423,1.19-0.971,1.645-1.642l-0.737-10.937c-0.03-0.438,0.354-0.685,1.151-0.739l0.119-0.008
		C186.339,296.955,186.753,297.148,186.782,297.586z"/>
	<path fill="#B23570" d="M199.063,296.307c0.313,0.199,0.481,0.468,0.505,0.806c0.022,0.339-0.014,0.696-0.108,1.073
		c-0.095,0.376-0.222,0.57-0.381,0.581c-0.1,0.006-0.298-0.035-0.594-0.125c-0.296-0.089-0.653-0.121-1.072-0.092
		c-0.458,0.031-0.882,0.194-1.272,0.491c-0.39,0.297-0.714,0.614-0.972,0.951c-0.257,0.338-0.384,0.526-0.382,0.566l0.738,10.937
		c0.029,0.438-0.354,0.685-1.151,0.739l-0.119,0.008c-0.797,0.054-1.21-0.139-1.24-0.577l-0.707-10.488
		c-0.089-1.315-0.212-2.252-0.37-2.812s-0.238-0.869-0.242-0.929c-0.017-0.239,0.161-0.426,0.532-0.562
		c0.37-0.134,0.716-0.213,1.034-0.234c0.279-0.019,0.493,0.112,0.643,0.392c0.148,0.281,0.269,0.578,0.36,0.892
		c0.091,0.314,0.149,0.521,0.176,0.618c0.955-1.565,2.061-2.39,3.315-2.475C198.313,296.027,198.75,296.108,199.063,296.307z"/>
	<path fill="#B23570" d="M118.267,338.484c0.913,0.629,1.639,1.531,2.179,2.705c0.539,1.175,0.861,2.539,0.966,4.092
		c0.114,1.693-0.042,3.156-0.47,4.385c-0.428,1.229-1.078,2.184-1.953,2.863c-0.875,0.68-1.909,1.059-3.104,1.14
		c-0.877,0.06-1.658-0.018-2.343-0.232c-0.685-0.213-1.362-0.548-2.033-1.003l0.465,6.903c0.03,0.438-0.354,0.684-1.15,0.738
		l-0.119,0.008c-0.798,0.054-1.21-0.138-1.24-0.577l-1.122-16.644c-0.089-1.315-0.213-2.252-0.37-2.812s-0.238-0.869-0.242-0.929
		c-0.017-0.239,0.161-0.426,0.531-0.561c0.371-0.135,0.717-0.214,1.035-0.235c0.279-0.019,0.493,0.112,0.642,0.392
		c0.149,0.281,0.269,0.578,0.36,0.891c0.092,0.315,0.15,0.521,0.177,0.619c1.334-1.591,2.867-2.444,4.601-2.562
		C116.289,337.582,117.354,337.855,118.267,338.484z M112.673,340.557c-0.683,0.406-1.301,0.958-1.854,1.656l0.552,8.188
		c1.137,0.824,2.402,1.188,3.797,1.094c1.313-0.108,2.276-0.658,2.89-1.651c0.613-0.991,0.86-2.384,0.739-4.177
		c-0.13-1.932-0.55-3.4-1.258-4.403s-1.649-1.465-2.824-1.386C114.036,339.925,113.355,340.151,112.673,340.557z"/>
	<path fill="#B23570" d="M127.429,330.796l0.544,8.068c0.558-0.638,1.216-1.178,1.977-1.619s1.58-0.692,2.457-0.751
		c1.254-0.085,2.384,0.195,3.388,0.837c1.004,0.642,1.567,1.87,1.689,3.683l0.699,10.368c0.029,0.438-0.354,0.685-1.15,0.739
		l-0.12,0.008c-0.797,0.054-1.21-0.139-1.239-0.577l-0.684-10.13c-0.061-0.896-0.367-1.586-0.92-2.069
		c-0.554-0.483-1.327-0.691-2.323-0.624c-0.658,0.044-1.256,0.24-1.792,0.586c-0.536,0.347-0.978,0.717-1.321,1.11
		s-0.514,0.61-0.511,0.649l0.737,10.937c0.029,0.438-0.354,0.685-1.15,0.739l-0.12,0.008c-0.797,0.054-1.21-0.139-1.239-0.577
		l-1.431-21.216c-0.03-0.438,0.354-0.684,1.15-0.738l0.12-0.008C126.985,330.167,127.398,330.359,127.429,330.796z"/>
	<path fill="#B23570" d="M153.208,337.177c1.259,1.306,1.977,3.264,2.152,5.874c0.175,2.59-0.266,4.596-1.32,6.018
		c-1.055,1.421-2.697,2.208-4.929,2.358c-2.252,0.152-4.016-0.41-5.292-1.684s-2.002-3.197-2.175-5.767
		c-0.175-2.589,0.288-4.623,1.391-6.097c1.101-1.475,2.766-2.288,4.998-2.438C150.225,335.292,151.949,335.871,153.208,337.177z
		 M144.987,339.233c-0.614,0.992-0.853,2.494-0.717,4.505c0.134,1.993,0.571,3.439,1.313,4.339c0.74,0.9,1.838,1.302,3.293,1.204
		c1.454-0.098,2.498-0.644,3.131-1.637c0.634-0.993,0.883-2.485,0.749-4.478c-0.135-1.991-0.583-3.443-1.345-4.352
		c-0.762-0.909-1.869-1.314-3.323-1.216C146.634,337.696,145.6,338.241,144.987,339.233z"/>
	<path fill="#B23570" d="M161.967,331.529l0.211,3.138l2.51-0.169c0.22-0.015,0.379,0.044,0.478,0.178
		c0.1,0.133,0.16,0.36,0.182,0.678l0.024,0.358c0.021,0.319-0.009,0.551-0.089,0.697c-0.08,0.146-0.229,0.225-0.449,0.24
		l-2.51,0.169l0.627,9.293c0.057,0.837,0.239,1.405,0.551,1.703c0.31,0.3,0.714,0.433,1.212,0.399
		c0.379-0.026,0.66-0.07,0.847-0.132c0.187-0.062,0.328-0.097,0.429-0.104c0.179-0.012,0.341,0.162,0.485,0.522
		c0.144,0.361,0.224,0.641,0.236,0.839c0.041,0.598-0.667,0.946-2.121,1.044c-0.996,0.067-1.907-0.176-2.735-0.731
		c-0.828-0.554-1.294-1.598-1.397-3.132l-0.643-9.532l-1.494,0.101c-0.199,0.013-0.354-0.046-0.462-0.179
		c-0.11-0.133-0.175-0.358-0.196-0.677l-0.024-0.358c-0.021-0.318,0.013-0.551,0.104-0.698c0.09-0.146,0.234-0.226,0.434-0.239
		l1.494-0.101l0.147-3.162c0.01-0.441,0.314-0.682,0.912-0.722l0.298-0.021C161.624,330.891,161.937,331.09,161.967,331.529z"/>
	<path fill="#B23570" d="M180.43,335.341c1.259,1.306,1.977,3.264,2.152,5.873c0.175,2.59-0.266,4.596-1.32,6.018
		c-1.056,1.421-2.698,2.208-4.929,2.358c-2.252,0.152-4.016-0.409-5.292-1.684c-1.276-1.274-2.002-3.197-2.175-5.767
		c-0.175-2.589,0.288-4.623,1.39-6.097c1.102-1.475,2.768-2.288,4.998-2.438C177.445,333.457,179.171,334.035,180.43,335.341z
		 M172.209,337.396c-0.614,0.992-0.854,2.495-0.718,4.506c0.135,1.993,0.572,3.439,1.314,4.339c0.739,0.901,1.838,1.302,3.293,1.204
		c1.453-0.098,2.497-0.644,3.131-1.637c0.633-0.993,0.883-2.486,0.749-4.479c-0.135-1.991-0.583-3.442-1.345-4.352
		s-1.87-1.314-3.323-1.216C173.855,335.86,172.821,336.405,172.209,337.396z"/>
</g>
<g>
	<path fill="#258C84" d="M424.348,306.418c0.915,0.819,1.336,1.911,1.259,3.275l-0.348,6.195c-0.067,1.217-0.063,2.092,0.019,2.623
		c0.082,0.532,0.12,0.825,0.117,0.881c-0.012,0.221-0.197,0.373-0.553,0.454c-0.355,0.082-0.681,0.115-0.976,0.098
		c-0.259-0.015-0.439-0.168-0.544-0.461c-0.103-0.292-0.179-0.597-0.226-0.914s-0.077-0.522-0.09-0.615
		c-1.332,1.313-2.919,1.917-4.764,1.813c-1.419-0.08-2.542-0.494-3.37-1.243c-0.828-0.749-1.202-1.806-1.126-3.17
		c0.082-1.456,0.58-2.524,1.497-3.204c0.917-0.679,2.018-1.089,3.302-1.229c1.284-0.14,2.839-0.169,4.665-0.085l0.073-1.3
		c0.038-0.682-0.17-1.253-0.625-1.713s-1.219-0.72-2.287-0.78c-0.811-0.045-1.525,0.012-2.145,0.171
		c-0.62,0.159-1.139,0.325-1.555,0.495s-0.644,0.255-0.681,0.253c-0.185-0.011-0.381-0.206-0.591-0.588
		c-0.21-0.381-0.31-0.665-0.299-0.85c0.014-0.239,0.271-0.484,0.776-0.732c0.504-0.25,1.167-0.448,1.989-0.596
		s1.667-0.198,2.533-0.149C422.117,305.143,423.431,305.6,424.348,306.418z M419.702,312.803c-0.881,0.043-1.665,0.259-2.353,0.645
		c-0.688,0.387-1.056,1.023-1.105,1.908c-0.041,0.738,0.125,1.311,0.5,1.721c0.374,0.41,0.95,0.636,1.724,0.679
		c0.903,0.051,1.691-0.071,2.365-0.367c0.672-0.295,1.366-0.728,2.083-1.298l0.184-3.264
		C421.717,312.769,420.583,312.76,419.702,312.803z"/>
	<path fill="#258C84" d="M441.705,300.665l-0.903,16.096c-0.067,1.217-0.063,2.091,0.019,2.623c0.082,0.532,0.12,0.825,0.117,0.88
		c-0.012,0.221-0.196,0.373-0.552,0.455c-0.356,0.082-0.682,0.114-0.977,0.098c-0.258-0.014-0.439-0.168-0.544-0.461
		c-0.103-0.292-0.178-0.597-0.225-0.914c-0.048-0.317-0.077-0.522-0.091-0.615c-1.406,1.309-2.91,1.917-4.514,1.828
		c-1.088-0.061-2.021-0.427-2.796-1.1c-0.776-0.672-1.35-1.584-1.719-2.733c-0.372-1.148-0.517-2.433-0.437-3.853
		c0.088-1.567,0.397-2.895,0.931-3.984c0.533-1.089,1.239-1.896,2.118-2.42c0.881-0.524,1.875-0.754,2.981-0.692
		c0.811,0.045,1.519,0.206,2.122,0.479c0.604,0.274,1.188,0.659,1.753,1.153l0.391-6.97c0.022-0.406,0.403-0.588,1.142-0.546
		l0.109,0.006C441.37,300.035,441.728,300.259,441.705,300.665z M432.685,309.133c-0.677,0.841-1.061,2.091-1.153,3.75
		c-0.101,1.789,0.116,3.184,0.652,4.185c0.536,1.001,1.348,1.532,2.436,1.593c0.627,0.035,1.276-0.094,1.949-0.39
		s1.304-0.732,1.891-1.309l0.426-7.578c-0.949-0.885-2.06-1.364-3.332-1.435C434.316,307.898,433.359,308.293,432.685,309.133z"/>
	<path fill="#258C84" d="M457.33,301.541l-0.903,16.096c-0.067,1.217-0.062,2.092,0.02,2.624c0.082,0.531,0.12,0.825,0.117,0.88
		c-0.012,0.221-0.196,0.373-0.552,0.454c-0.356,0.082-0.682,0.115-0.977,0.098c-0.258-0.015-0.439-0.168-0.544-0.461
		c-0.104-0.292-0.178-0.597-0.225-0.914c-0.048-0.317-0.077-0.522-0.091-0.615c-1.405,1.308-2.91,1.917-4.514,1.828
		c-1.088-0.061-2.021-0.427-2.797-1.1c-0.775-0.673-1.349-1.584-1.718-2.733c-0.372-1.148-0.517-2.433-0.437-3.853
		c0.088-1.567,0.397-2.895,0.93-3.984c0.534-1.089,1.239-1.896,2.119-2.42c0.881-0.524,1.875-0.755,2.981-0.693
		c0.811,0.046,1.519,0.206,2.122,0.48c0.604,0.274,1.188,0.659,1.753,1.153l0.391-6.97c0.022-0.406,0.403-0.588,1.141-0.546
		l0.11,0.006C456.996,300.912,457.353,301.135,457.33,301.541z M448.311,310.01c-0.677,0.841-1.061,2.091-1.153,3.75
		c-0.101,1.789,0.116,3.184,0.652,4.185c0.536,1,1.348,1.532,2.436,1.593c0.627,0.035,1.276-0.095,1.949-0.39
		c0.673-0.295,1.304-0.732,1.891-1.309l0.426-7.578c-0.949-0.886-2.06-1.364-3.332-1.435
		C449.942,308.774,448.985,309.169,448.311,310.01z"/>
	<path fill="#258C84" d="M478.722,308.428c0,0-0.009,0.157-0.026,0.47c-0.005,0.093-0.04,0.22-0.104,0.383l-8.165,18.436
		c-0.17,0.379-0.613,0.548-1.332,0.508l-0.415-0.023c-0.608-0.034-0.905-0.199-0.889-0.494c0.005-0.074,0.06-0.228,0.165-0.462
		l2.639-5.483l-4.115-13.188c-0.047-0.168-0.067-0.29-0.063-0.364c0.018-0.313,0.423-0.448,1.215-0.404l0.222,0.013
		c0.608,0.034,0.969,0.203,1.082,0.504l2.4,7.653c0.249,0.829,0.492,1.776,0.729,2.843l0.056,0.003l0.294-0.788l0.775-1.954
		l3.186-7.34c0.108-0.289,0.494-0.416,1.158-0.378l0.083,0.004C478.353,308.407,478.722,308.428,478.722,308.428z"/>
	<path fill="#258C84" d="M491.743,310.975c1.009,1.342,1.443,3.221,1.309,5.636c-0.135,2.397-0.768,4.188-1.897,5.374
		c-1.13,1.185-2.728,1.719-4.792,1.604c-2.084-0.117-3.639-0.833-4.665-2.148c-1.027-1.315-1.475-3.163-1.341-5.541
		c0.134-2.396,0.79-4.209,1.97-5.438c1.179-1.229,2.801-1.785,4.866-1.669C489.221,308.906,490.737,309.634,491.743,310.975z
		 M483.965,311.926c-0.677,0.841-1.067,2.192-1.172,4.054c-0.104,1.844,0.135,3.222,0.713,4.132c0.576,0.911,1.538,1.404,2.885,1.48
		c1.346,0.075,2.365-0.307,3.061-1.146c0.694-0.839,1.094-2.181,1.197-4.025c0.104-1.843-0.144-3.226-0.739-4.147
		c-0.596-0.921-1.566-1.419-2.912-1.495C485.65,310.703,484.64,311.086,483.965,311.926z"/>
	<path fill="#258C84" d="M507.976,310.679l-0.551,9.818c-0.067,1.217-0.062,2.092,0.02,2.623c0.082,0.532,0.12,0.825,0.117,0.88
		c-0.012,0.221-0.196,0.373-0.552,0.455c-0.356,0.082-0.682,0.115-0.977,0.098c-0.258-0.015-0.439-0.168-0.544-0.461
		c-0.104-0.292-0.179-0.597-0.225-0.914c-0.048-0.317-0.077-0.522-0.091-0.615c-0.626,0.612-1.328,1.081-2.104,1.408
		c-0.777,0.327-1.553,0.468-2.326,0.424c-1.401-0.079-2.48-0.537-3.239-1.375c-0.757-0.837-1.097-1.957-1.019-3.358l0.538-9.597
		c0.023-0.405,0.402-0.588,1.141-0.546l0.11,0.006c0.738,0.042,1.096,0.265,1.072,0.67l-0.525,9.376
		c-0.048,0.848,0.159,1.521,0.622,2.018c0.462,0.498,1.146,0.772,2.049,0.823c0.627,0.035,1.259-0.105,1.896-0.421
		c0.637-0.315,1.202-0.755,1.696-1.32l0.567-10.123c0.023-0.405,0.402-0.587,1.141-0.546l0.11,0.006
		C507.642,310.05,507.999,310.273,507.976,310.679z"/>
	<path fill="#258C84" d="M519.394,310.903c0.266,0.219,0.39,0.484,0.372,0.798c-0.018,0.314-0.092,0.638-0.222,0.972
		c-0.129,0.335-0.269,0.498-0.416,0.49c-0.093-0.005-0.269-0.065-0.53-0.183c-0.262-0.116-0.587-0.185-0.974-0.207
		c-0.425-0.023-0.832,0.078-1.224,0.306c-0.393,0.228-0.726,0.482-1,0.762c-0.274,0.281-0.412,0.44-0.415,0.476l-0.567,10.123
		c-0.022,0.406-0.404,0.588-1.141,0.546l-0.111-0.006c-0.737-0.041-1.094-0.264-1.071-0.67l0.545-9.708
		c0.067-1.217,0.062-2.091-0.02-2.623c-0.082-0.532-0.121-0.825-0.118-0.88c0.012-0.221,0.197-0.373,0.553-0.455
		c0.355-0.081,0.682-0.114,0.977-0.098c0.258,0.014,0.439,0.159,0.545,0.433c0.104,0.273,0.181,0.56,0.229,0.858
		c0.048,0.299,0.079,0.495,0.092,0.588c1.056-1.328,2.164-1.959,3.325-1.894C518.738,310.562,519.128,310.685,519.394,310.903z"/>
	<path fill="#258C84" d="M440.433,340.42c0.766,0.681,1.33,1.591,1.691,2.73s0.501,2.428,0.421,3.865
		c-0.088,1.567-0.398,2.892-0.93,3.972c-0.532,1.079-1.238,1.882-2.119,2.405c-0.88,0.524-1.873,0.755-2.979,0.693
		c-0.812-0.046-1.519-0.206-2.123-0.479c-0.604-0.274-1.189-0.658-1.753-1.153l-0.358,6.39c-0.022,0.404-0.402,0.588-1.141,0.546
		l-0.11-0.006c-0.737-0.042-1.095-0.266-1.072-0.671l0.864-15.405c0.067-1.217,0.063-2.091-0.02-2.622
		c-0.08-0.532-0.119-0.826-0.116-0.881c0.012-0.222,0.196-0.373,0.553-0.455c0.354-0.081,0.681-0.113,0.976-0.097
		c0.258,0.014,0.44,0.158,0.544,0.433c0.105,0.273,0.182,0.56,0.23,0.859c0.048,0.298,0.078,0.494,0.092,0.587
		c1.405-1.309,2.909-1.917,4.515-1.827C438.721,339.366,439.665,339.738,440.433,340.42z M435.063,341.686
		c-0.673,0.296-1.304,0.731-1.892,1.31l-0.425,7.577c0.949,0.886,2.069,1.365,3.359,1.438c1.218,0.05,2.165-0.345,2.841-1.186
		c0.677-0.841,1.061-2.091,1.154-3.751c0.1-1.788-0.117-3.183-0.653-4.185c-0.536-1.001-1.347-1.531-2.436-1.593
		C436.385,341.261,435.734,341.391,435.063,341.686z"/>
	<path fill="#258C84" d="M449.717,334.406l-0.419,7.468c0.585-0.522,1.25-0.943,2-1.261c0.746-0.319,1.527-0.456,2.339-0.41
		c1.162,0.065,2.166,0.449,3.015,1.153c0.848,0.705,1.226,1.896,1.131,3.573l-0.538,9.597c-0.022,0.406-0.403,0.588-1.14,0.547
		l-0.111-0.006c-0.737-0.042-1.094-0.265-1.071-0.671l0.526-9.375c0.046-0.83-0.157-1.498-0.61-2.004
		c-0.453-0.507-1.139-0.786-2.062-0.837c-0.608-0.034-1.18,0.076-1.711,0.333c-0.532,0.258-0.979,0.547-1.339,0.868
		c-0.361,0.322-0.542,0.502-0.544,0.539l-0.567,10.122c-0.022,0.406-0.403,0.588-1.141,0.546l-0.11-0.006
		c-0.737-0.041-1.095-0.264-1.072-0.67l1.102-19.637c0.022-0.405,0.403-0.588,1.141-0.547l0.11,0.007
		C449.382,333.777,449.739,334.001,449.717,334.406z"/>
	<path fill="#258C84" d="M472.652,343.197c1.008,1.343,1.442,3.222,1.308,5.637c-0.135,2.397-0.768,4.188-1.896,5.373
		c-1.13,1.185-2.729,1.72-4.792,1.604c-2.084-0.117-3.64-0.832-4.666-2.147s-1.474-3.162-1.34-5.541
		c0.134-2.396,0.79-4.21,1.969-5.438s2.802-1.785,4.867-1.669C470.129,341.128,471.646,341.855,472.652,343.197z M464.873,344.148
		c-0.677,0.841-1.066,2.192-1.171,4.054c-0.104,1.845,0.134,3.222,0.712,4.133c0.576,0.911,1.539,1.404,2.886,1.479
		c1.346,0.076,2.365-0.306,3.061-1.146c0.694-0.839,1.093-2.181,1.196-4.025c0.104-1.843-0.143-3.226-0.738-4.146
		c-0.596-0.922-1.566-1.42-2.912-1.495C466.56,342.925,465.548,343.309,464.873,344.148z"/>
	<path fill="#258C84" d="M481.337,339.01l-0.163,2.904l2.322,0.13c0.202,0.012,0.342,0.085,0.418,0.218
		c0.075,0.134,0.105,0.349,0.089,0.644l-0.019,0.332c-0.017,0.295-0.07,0.504-0.16,0.628c-0.091,0.125-0.237,0.181-0.439,0.17
		l-2.322-0.131l-0.482,8.603c-0.044,0.773,0.059,1.316,0.311,1.626c0.25,0.311,0.606,0.479,1.067,0.504
		c0.35,0.02,0.613,0.012,0.792-0.025c0.178-0.036,0.312-0.051,0.404-0.046c0.166,0.009,0.295,0.188,0.388,0.535
		c0.09,0.348,0.131,0.613,0.12,0.797c-0.03,0.554-0.72,0.792-2.064,0.717c-0.923-0.052-1.732-0.379-2.428-0.982
		c-0.698-0.604-1.007-1.615-0.927-3.034l0.495-8.823l-1.383-0.077c-0.184-0.011-0.319-0.082-0.404-0.217
		c-0.086-0.135-0.119-0.349-0.103-0.644l0.019-0.332c0.017-0.295,0.073-0.505,0.174-0.629c0.1-0.123,0.242-0.181,0.426-0.17
		l1.383,0.077l0.495-2.886c0.06-0.402,0.366-0.589,0.919-0.559l0.277,0.016C481.094,338.386,481.359,338.604,481.337,339.01z"/>
	<path fill="#258C84" d="M497.849,344.61c1.008,1.343,1.442,3.222,1.308,5.637c-0.135,2.397-0.768,4.188-1.897,5.373
		c-1.13,1.185-2.728,1.72-4.792,1.604c-2.084-0.117-3.639-0.832-4.665-2.147c-1.027-1.315-1.475-3.162-1.341-5.541
		c0.134-2.396,0.79-4.21,1.97-5.438c1.179-1.229,2.801-1.785,4.866-1.669C495.325,342.541,496.842,343.269,497.849,344.61z
		 M490.069,345.562c-0.677,0.841-1.067,2.192-1.172,4.054c-0.104,1.845,0.135,3.222,0.713,4.133
		c0.576,0.911,1.538,1.404,2.885,1.479c1.346,0.076,2.365-0.306,3.061-1.146c0.694-0.839,1.094-2.181,1.197-4.025
		c0.104-1.843-0.144-3.226-0.739-4.146c-0.596-0.922-1.566-1.42-2.912-1.495C491.755,344.339,490.744,344.722,490.069,345.562z"/>
</g>
</svg>
