<?xml version="1.0" encoding="utf-8"?>
<!-- Generator: Adobe Illustrator 21.1.0, SVG Export Plug-In . SVG Version: 6.00 Build 0)  -->
<svg version="1.1" id="Layer_5" xmlns="http://www.w3.org/2000/svg" xmlns:xlink="http://www.w3.org/1999/xlink" x="0px" y="0px"
	 viewBox="0 0 255.1 153.1" style="enable-background:new 0 0 255.1 153.1;" xml:space="preserve">
<style type="text/css">
	.st0{fill:none;stroke:#FFFFFF;stroke-width:0.5669;stroke-linecap:round;stroke-linejoin:round;}
	.st1{fill-rule:evenodd;clip-rule:evenodd;fill:#FFFFFF;}
</style>
<g>
	<line class="st0" x1="11.5" y1="31.1" x2="11.5" y2="122"/>
	<line class="st0" x1="224.7" y1="12.9" x2="30.4" y2="12.9"/>
	<path class="st0" d="M11.5,31.1c10.4,0,18.9-8.1,18.9-18.1"/>
	<path class="st0" d="M224.7,12.9c0,10,8.5,18.1,18.9,18.1"/>
	<line class="st0" x1="243.6" y1="122" x2="243.6" y2="31.1"/>
	<line class="st0" x1="30.4" y1="140.1" x2="224.7" y2="140.1"/>
	<path class="st0" d="M243.6,122c-10.4,0-18.9,8.1-18.9,18.1"/>
	<path class="st0" d="M30.4,140.1c0-10-8.5-18.1-18.9-18.1"/>
</g>
<g>
	<line class="st0" x1="6" y1="26.9" x2="6" y2="126.2"/>
	<line class="st0" x1="229.3" y1="7.1" x2="25.8" y2="7.1"/>
	<path class="st0" d="M6,26.9c10.9,0,19.8-8.9,19.8-19.8"/>
	<path class="st0" d="M229.3,7.1c0,10.9,8.9,19.8,19.8,19.8"/>
	<line class="st0" x1="249.1" y1="126.2" x2="249.1" y2="26.9"/>
	<line class="st0" x1="25.8" y1="146" x2="229.3" y2="146"/>
	<path class="st0" d="M249.1,126.2c-10.9,0-19.8,8.9-19.8,19.8"/>
	<path class="st0" d="M25.8,146c0-10.9-8.9-19.8-19.8-19.8"/>
</g>
<g>
	<path class="st1" d="M15.6,5C14,3.4,11.5,3.4,9.9,5c-1,1-1.4,2.5-1.1,3.8C7.5,8.5,6,8.8,5,9.9c-1.6,1.6-1.6,4.2,0,5.8
		c0.9,0.9,2,1.3,3.2,1.2l8.2,0c0.1,0,0.3-0.1,0.4-0.2c0.1-0.1,0.2-0.2,0.2-0.4l0-8.2C16.9,7,16.5,5.8,15.6,5z"/>
</g>
<g>
	<path class="st1" d="M250.1,15.6c1.6-1.6,1.6-4.2,0-5.8c-1-1-2.5-1.4-3.8-1.1c0.3-1.3,0-2.8-1.1-3.8c-1.6-1.6-4.2-1.6-5.8,0
		c-0.9,0.9-1.3,2-1.2,3.2l0,8.2c0,0.1,0.1,0.3,0.2,0.4c0.1,0.1,0.2,0.2,0.4,0.2l8.2,0C248.1,16.9,249.3,16.5,250.1,15.6z"/>
</g>
<g>
	<path class="st1" d="M239.5,148.1c1.6,1.6,4.2,1.6,5.8,0c1-1,1.4-2.5,1.1-3.8c1.3,0.3,2.8,0,3.8-1.1c1.6-1.6,1.6-4.2,0-5.8
		c-0.9-0.9-2-1.3-3.2-1.2l-8.2,0c-0.1,0-0.3,0.1-0.4,0.2c-0.1,0.1-0.2,0.2-0.2,0.4l0,8.2C238.2,146.1,238.6,147.2,239.5,148.1z"/>
</g>
<g>
	<path class="st1" d="M5,137.4c-1.6,1.6-1.6,4.2,0,5.8c1,1,2.5,1.4,3.8,1.1c-0.3,1.3,0,2.8,1.1,3.8c1.6,1.6,4.2,1.6,5.8,0
		c0.9-0.9,1.3-2,1.2-3.2l0-8.2c0-0.1-0.1-0.3-0.2-0.4c-0.1-0.1-0.2-0.2-0.4-0.2l-8.2,0C7,136.2,5.8,136.6,5,137.4z"/>
</g>
</svg>
