<?xml version="1.0" encoding="utf-8"?>
<!-- Generator: Adobe Illustrator 22.0.1, SVG Export Plug-In . SVG Version: 6.00 Build 0)  -->
<svg version="1.1" baseProfile="tiny" id="Layer_1" xmlns="http://www.w3.org/2000/svg" xmlns:xlink="http://www.w3.org/1999/xlink"
	 x="0px" y="0px" viewBox="0 0 496.7 59.5" xml:space="preserve">
<g>
	<path fill="#FFFFFF" d="M263.5,21.9c3.6,0.2,7-2.6,5.3-5.4c-1.7-2.8-6.4-2.2-9.8-0.9c-4.2,1.7-10.2,7.2-10.2,14.4
		C248.9,30,253.4,21.3,263.5,21.9z"/>
	<path fill="#FFFFFF" d="M234.2,21.9c10.2-0.6,14.7,8.1,14.7,8.1c0-7.3-6-12.8-10.2-14.4c-3.3-1.3-8-1.9-9.8,0.9
		C227.2,19.2,230.6,22.1,234.2,21.9z"/>
	<path fill="#FFFFFF" d="M248.9,23.2c0,0,2.2-6.1,9.5-9.4c5.1-2.3,1.1-8.7-3.6-5.2C250.1,12,248.7,19.2,248.9,23.2z"/>
	<path fill="#FFFFFF" d="M239.3,13.8c7.4,3.3,9.5,9.4,9.5,9.4c0.1-4-1.2-11.2-5.9-14.6C238.2,5.1,234.2,11.5,239.3,13.8z"/>
	<path fill="#FFFFFF" d="M248.9,16.4c0,0,1-5,3.5-8.3c2.3-3-0.6-6.2-3.5-7c-3,0.8-5.8,4-3.5,7C247.9,11.5,248.9,16.4,248.9,16.4z"/>
	<path fill="#FFFFFF" d="M486.9,34.4c-2.9,0-5.2,1.9-6,4.5H272.7c-0.1,0.4-0.7,1.3-1,1.8l0,0c-2.3,3.4-7.5,1.8-4.2-2.1
		c3.9-4.4,4.6-9.7,0.9-12.7c-6.3-5.2-18.2,0.3-19.5,7c-1.3-6.6-13.2-12.2-19.5-7c-3.7,3.1-3,8.3,0.9,12.7c3.4,3.9-2,5.5-4.2,2
		c0,0,0,0,0,0c-0.4-0.5-0.9-1.4-1-1.8H16.8c-0.8-2.6-3.2-4.5-6-4.5c-3.5,0-6.3,2.8-6.3,6.3c0,3.5,2.8,6.3,6.3,6.3
		c2.9,0,5.2-1.9,6-4.5l208.2-0.1c1.2,1.5,3.1,2.7,4.2,3.2l0,0c1,0.5,2.4,0.7,4.3,0.6c4.5-0.4,5-6.5,1.1-9.7
		c-2.2-1.9-1.5-5.3,2.3-4.7c8.2,1.3,11.5,9.7,7.1,14.2c-1.9,2-2.5,4.9-1.4,7.4c1.1,2.5,3.5,4.2,6.3,4.2h0c0,0,0,0,0,0
		c2.7,0,5.2-1.7,6.3-4.2c1-2.5,0.4-5.5-1.5-7.4c-4.6-4.6-0.7-13,7.2-14.2c3.8-0.6,4.5,2.9,2.3,4.7c-3.8,3.2-3.4,9.3,1.1,9.7
		c1.9,0.2,3.2-0.1,4.3-0.5l0,0c0,0,0,0,0,0c0,0,0,0,0,0c1.1-0.5,2.9-1.7,4.1-3.2l208.2,0.1c0.8,2.6,3.2,4.5,6,4.5
		c3.5,0,6.3-2.8,6.3-6.3C493.2,37.2,490.4,34.4,486.9,34.4z"/>
</g>
</svg>
