<?xml version="1.0" encoding="utf-8"?>
<!-- Generator: Adobe Illustrator 21.1.0, SVG Export Plug-In . SVG Version: 6.00 Build 0)  -->
<svg version="1.1" id="Layer_1" xmlns="http://www.w3.org/2000/svg" xmlns:xlink="http://www.w3.org/1999/xlink" x="0px" y="0px"
	 viewBox="0 0 530.6 61.1" style="enable-background:new 0 0 530.6 61.1;" xml:space="preserve">
<style type="text/css">
	.st0{fill:#FFFFFF;}
</style>
<g>
	<path class="st0" d="M281.2,22.6c3.9,0.3,7.6-2.9,5.8-5.9c-1.9-3-7-2.4-10.6-0.9c-4.6,1.8-11.1,7.8-11.1,15.7
		C265.3,31.5,270.2,21.9,281.2,22.6z"/>
	<path class="st0" d="M249.4,22.6c11-0.7,15.9,8.8,15.9,8.8c0-7.9-6.5-13.8-11.1-15.7c-3.6-1.5-8.7-2.1-10.6,0.9
		C241.8,19.7,245.5,22.9,249.4,22.6z"/>
	<path class="st0" d="M265.3,24.1c0,0,2.3-6.7,10.4-10.2c5.5-2.5,1.2-9.4-3.9-5.7C266.6,11.9,265.2,19.7,265.3,24.1z"/>
	<path class="st0" d="M254.9,13.8c8,3.6,10.4,10.2,10.4,10.2c0.1-4.4-1.3-12.2-6.4-15.9C253.7,4.4,249.4,11.4,254.9,13.8z"/>
	<path class="st0" d="M265.3,16.7c0,0,1-5.4,3.8-9.1c2.5-3.3-0.6-6.7-3.8-7.6c-3.2,0.9-6.3,4.3-3.8,7.6
		C264.3,11.3,265.3,16.7,265.3,16.7z"/>
	<path class="st0" d="M523.8,36.1c-3.1,0-5.7,2.1-6.5,4.9H291.1c-0.2,0.4-0.7,1.4-1.1,1.9l0,0c-2.5,3.7-8.1,1.9-4.5-2.2
		c4.2-4.8,5-10.5,1-13.8c-6.9-5.7-19.7,0.3-21.1,7.6c-1.4-7.2-14.3-13.2-21.2-7.6c-4,3.3-3.2,9,1,13.8c3.7,4.2-2.1,6-4.6,2.2l0,0
		c-0.4-0.6-0.9-1.5-1.1-1.9H13.3c-0.8-2.8-3.4-4.9-6.5-4.9C3,36.1,0,39.2,0,42.9c0,3.8,3.1,6.8,6.8,6.8c3.1,0,5.7-2.1,6.5-4.9
		l226.1-0.1c1.3,1.7,3.4,3,4.5,3.5l0,0c1.1,0.5,2.7,0.8,4.7,0.6c4.9-0.5,5.4-7,1.2-10.5c-2.4-2-1.6-5.8,2.5-5.1
		c8.9,1.4,12.5,10.5,7.7,15.4c-2.1,2.1-2.7,5.3-1.5,8c1.1,2.7,3.8,4.5,6.8,4.5l0,0l0,0c3,0,5.7-1.8,6.8-4.6c1.1-2.8,0.5-5.9-1.6-8
		c-5-5-0.7-14.1,7.8-15.4c4.1-0.6,4.9,3.1,2.5,5.1c-4.2,3.5-3.7,10.1,1.2,10.5c2,0.2,3.5-0.1,4.7-0.6l0,0l0,0l0,0
		c1.2-0.5,3.2-1.8,4.5-3.4l226.1,0.1c0.8,2.8,3.4,4.9,6.5,4.9c3.8,0,6.8-3.1,6.8-6.8C530.6,39.2,527.6,36.1,523.8,36.1z"/>
</g>
</svg>
