<?xml version="1.0" encoding="utf-8"?>
<!-- Generator: Adobe Illustrator 22.0.1, SVG Export Plug-In . SVG Version: 6.00 Build 0)  -->
<svg version="1.1" baseProfile="tiny" id="Layer_1" xmlns="http://www.w3.org/2000/svg" xmlns:xlink="http://www.w3.org/1999/xlink"
	 x="0px" y="0px" viewBox="0 0 595.3 841.9" xml:space="preserve">
<g>
	<path fill="#FFFFFF" d="M314.3,390.7c3.9,0.3,7.6-2.9,5.8-5.9c-1.9-3-7-2.4-10.6-0.9c-4.6,1.8-11.1,7.8-11.1,15.7
		C298.4,399.6,303.3,390,314.3,390.7z"/>
	<path fill="#FFFFFF" d="M282.5,390.7c11-0.7,15.9,8.8,15.9,8.8c0-7.9-6.5-13.8-11.1-15.7c-3.6-1.5-8.7-2.1-10.6,0.9
		C274.9,387.8,278.6,391,282.5,390.7z"/>
	<path fill="#FFFFFF" d="M298.4,392.2c0,0,2.3-6.7,10.4-10.2c5.5-2.5,1.2-9.4-3.9-5.7C299.7,380,298.3,387.8,298.4,392.2z"/>
	<path fill="#FFFFFF" d="M288,381.9c8,3.6,10.4,10.2,10.4,10.2c0.1-4.4-1.3-12.2-6.4-15.9C286.8,372.5,282.5,379.5,288,381.9z"/>
	<path fill="#FFFFFF" d="M298.4,384.8c0,0,1-5.4,3.8-9.1c2.5-3.3-0.6-6.7-3.8-7.6c-3.2,0.9-6.3,4.3-3.8,7.6
		C297.4,379.4,298.4,384.8,298.4,384.8z"/>
	<path fill="#FFFFFF" d="M556.9,404.2c-3.1,0-5.7,2.1-6.5,4.9H324.2c-0.2,0.4-0.7,1.4-1.1,1.9l0,0c-2.5,3.7-8.1,1.9-4.5-2.2
		c4.2-4.8,5-10.5,1-13.8c-6.9-5.7-19.7,0.3-21.1,7.6c-1.4-7.2-14.3-13.2-21.2-7.6c-4,3.3-3.2,9,1,13.8c3.7,4.2-2.1,6-4.6,2.2
		c0,0,0,0,0,0c-0.4-0.6-0.9-1.5-1.1-1.9H46.4c-0.8-2.8-3.4-4.9-6.5-4.9c-3.8,0-6.8,3.1-6.8,6.8c0,3.8,3.1,6.8,6.8,6.8
		c3.1,0,5.7-2.1,6.5-4.9l226.1-0.1c1.3,1.7,3.4,3,4.5,3.5l0,0c1.1,0.5,2.7,0.8,4.7,0.6c4.9-0.5,5.4-7,1.2-10.5
		c-2.4-2-1.6-5.8,2.5-5.1c8.9,1.4,12.5,10.5,7.7,15.4c-2.1,2.1-2.7,5.3-1.5,8c1.1,2.7,3.8,4.5,6.8,4.5h0c0,0,0,0,0,0
		c3,0,5.7-1.8,6.8-4.6c1.1-2.8,0.5-5.9-1.6-8c-5-5-0.7-14.1,7.8-15.4c4.1-0.6,4.9,3.1,2.5,5.1c-4.2,3.5-3.7,10.1,1.2,10.5
		c2,0.2,3.5-0.1,4.7-0.6l0,0c0,0,0,0,0,0c0,0,0,0,0,0c1.2-0.5,3.2-1.8,4.5-3.4l226.1,0.1c0.8,2.8,3.4,4.9,6.5,4.9
		c3.8,0,6.8-3.1,6.8-6.8C563.7,407.3,560.7,404.2,556.9,404.2z"/>
</g>
</svg>
