<?xml version="1.0" encoding="utf-8"?>
<!-- Generator: Adobe Illustrator 21.1.0, SVG Export Plug-In . SVG Version: 6.00 Build 0)  -->
<svg version="1.1" id="Layer_1" xmlns="http://www.w3.org/2000/svg" xmlns:xlink="http://www.w3.org/1999/xlink" x="0px" y="0px"
	 viewBox="0 0 595.28 841.89" style="enable-background:new 0 0 595.28 841.89;" xml:space="preserve">
<style type="text/css">
	.st0{fill:#D9B927;stroke:#414042;stroke-width:1.4173;stroke-miterlimit:10;}
</style>
<g>
	<path class="st0" d="M304.946,96.132c0,0.418,0.415,0.626,1.251,0.626c1.026,0,3.143-1.225,6.355-3.681
		c4.75-3.567,8.988-7.805,12.712-12.711c2.198-2.863,4.396-6.091,6.593-9.661c1.629,0.215,3.228,0.334,4.788,0.334
		c3.144,0,6.395-0.332,9.752-1.004c6.711-1.338,13.32-2.566,19.823-3.684c4.613-1.339,6.921-3.013,6.921-5.023
		c0-1.183-1.606-2.533-4.818-4.053c-2.857-0.844-4.551-1.267-5.085-1.267c-0.426,0-2.652,0.645-6.68,1.935
		c-2.74,0.929-9.74,3.056-20.975,6.378c1.182-2.135,2.364-4.368,3.546-6.707c1.026-2.006,1.989-3.678,2.887-5.017
		c1.027-0.892,1.541-1.671,1.541-2.342c0-2.334-2.419-5.085-7.254-8.255c-2.337-1.333-4.17-2.001-5.503-2.001
		c-1.501,0-2.251,1.126-2.251,3.377c0,4.099-0.856,8.521-2.567,13.268c-2.737,7.771-5.759,14.676-9.065,20.716
		c-3.649,6.691-7.296,12.408-10.946,17.154C305.287,95.163,304.946,95.7,304.946,96.132z"/>
	<path class="st0" d="M285.118,80.829c-1.836-0.537-3.542-0.807-5.117-0.807c-0.921,0-1.512,0.546-1.773,1.638
		c0,0.335,0.273,0.833,0.819,1.498c4.235,6.444,7.515,10.665,9.841,12.663c1.228,1.111,2.391,1.666,3.485,1.666
		c3.82,0,5.73-2.32,5.73-6.959c0-2.587-0.983-4.633-2.951-6.143C292.92,83.094,289.574,81.909,285.118,80.829z"/>
	<path class="st0" d="M239.98,198.631c10.44,0,21.563-2.754,33.367-8.26c11.802-5.912,21.111-14.781,27.921-26.611
		c3.156-5.316,5.919-11.022,8.314-17.092c1.341,1.136,2.695,2.41,4.062,3.832c4.019,4.224,8.24,9.317,12.663,15.281
		c14.673,19.129,23.519,29.814,26.537,32.051c3.013,1.987,5.929,2.981,8.743,2.981c4.423,0,12.362-1.376,23.82-4.124
		c2.009-0.523,3.016-1.31,3.016-2.356c0-0.793-1.035-1.586-3.104-2.376c-15.523-6.339-26.802-11.751-33.836-16.239
		c-6.83-4.486-17.282-13.991-31.352-28.516c-1.995-1.871-3.844-3.467-5.556-4.808c10.762-0.831,19.787-1.249,27.061-1.249
		c8.916,0,17.236,0.122,24.956,0.364c6.791,0,10.187-0.961,10.187-2.885c0-2.177-2.458-4.613-7.373-7.308
		c-5.821-2.177-9.187-3.269-10.091-3.269c-0.802,0-2.732,0.315-5.796,0.941c-7.328,1.728-17.853,3.297-31.574,4.71
		c-2.767,0.18-5.477,0.378-8.157,0.587c0.137-0.475,0.285-0.941,0.418-1.419c0.455-3.672,1.134-6.222,2.043-7.649
		c0.907-1.427,1.362-2.445,1.362-3.058c0-2.294-2.547-4.693-7.64-7.2c-0.722-0.262-1.383-0.491-2.017-0.706
		c11.652-3.402,20.367-5.54,26.12-6.403c3.971-1,5.958-2.393,5.958-4.178c0-1.307-1.631-3.055-4.889-5.238
		c-3.559-3.056-6.52-4.585-8.891-4.585c-0.537,0-1.697,0.364-3.482,1.089c-5.176,4.23-12.404,8.581-21.688,13.052
		c-10.889,5.077-19.993,8.704-27.31,10.878c-3.036,0.848-4.551,1.512-4.551,1.996c0,0.909,1.41,1.364,4.23,1.364
		c4.835,0,12.694-1.56,23.575-4.681c0.762-0.236,1.502-0.462,2.244-0.69c0.151,0.986,0.445,2.233,0.911,3.788
		c0.688,1.89,1.035,4.306,1.035,7.245c0,2.522-0.213,5.043-0.591,7.564c-6.501,0.656-12.72,1.405-18.647,2.248
		c-6.395,1.413-16.455,2.197-30.175,2.353c-3.033,0.256-4.548,1.151-4.548,2.686c0,1.279,2.334,2.942,7.001,4.989
		c4.406,1.918,7.711,2.876,9.917,2.876c0.796,0,2.928-0.512,6.39-1.535c9.863-2.607,19.241-4.37,28.154-5.32
		c-1.016,3.226-2.338,6.452-3.973,9.677c-4.315,8.718-11.091,16.523-20.335,23.413c-8.013,6.89-18.797,12.87-32.355,17.938
		c-3.081,0.81-4.621,1.723-4.621,2.737C237.433,198.258,238.28,198.631,239.98,198.631z"/>
	<path class="st0" d="M345.292,77.472c-2.28-0.725-4.397-1.089-6.35-1.089c-0.921,0-1.512,0.546-1.773,1.637
		c0,0.409,0.358,1.026,1.075,1.845c5.542,7.925,9.835,13.115,12.876,15.571c1.609,1.367,3.127,2.05,4.559,2.05
		c3.82,0,5.73-2.32,5.73-6.959c0-3.479-1.222-6.236-3.664-8.269C354.976,80.519,350.826,78.922,345.292,77.472z"/>
	<path class="st0" d="M243.618,102.579c1.186,0,3.633-1.265,7.345-3.795c5.492-3.678,10.389-8.05,14.693-13.112
		c3.043-3.537,6.086-7.616,9.129-12.2c1.994,0.316,3.938,0.478,5.83,0.478c2.831,0,5.759-0.259,8.781-0.779
		c6.043-1.038,11.992-1.99,17.847-2.854c4.153-1.038,6.231-2.337,6.231-3.894c0-1.183-1.606-2.533-4.818-4.053
		c-2.857-0.844-4.551-1.267-5.085-1.267c-0.378,0-2.362,0.506-5.952,1.515c-2.482,0.737-8.878,2.443-19.188,5.114
		c1.083-1.78,2.167-3.608,3.25-5.521c1.186-2.069,2.3-3.792,3.34-5.173c1.185-0.921,1.779-1.725,1.779-2.416
		c0-2.334-2.419-5.085-7.254-8.255c-2.337-1.333-4.17-2.001-5.503-2.001c-1.501,0-2.251,1.126-2.251,3.377
		c0,4.213-1.066,8.757-3.198,13.635c-3.414,7.981-7.18,15.079-11.301,21.287c-4.548,6.873-9.098,12.748-13.647,17.626
		c-0.852,0.665-1.279,1.219-1.279,1.663C242.368,102.371,242.782,102.579,243.618,102.579z"/>
</g>
<g>
	<path class="st0" d="M385.476,474.753c-5.574-4.697-8.361-7.049-8.361-7.049s-1.025,0-3.068,0c-1.52,0-4.656,0.406-9.405,1.22
		c-18.063,2.313-35.052,4.158-50.991,5.544l1.704-28.708c0-1.768,0.287-3.982,0.863-6.64c0.432-1.326,0.65-2.582,0.65-3.761
		c0-1.772-1.45-3.395-4.348-4.871c-4.206-1.62-7.683-2.435-10.439-2.435c-2.756,0-4.13,1.318-4.13,3.951
		c0,0.587,0.498,1.463,1.495,2.633c1.28,2.342,1.992,4.537,2.137,6.583l1.234,34.135c-14.967,1.137-28.941,1.841-41.917,2.109h-3.42
		c-1.684-3.878-3.279-5.826-4.777-5.826c-1.05,0-1.785,0.942-2.201,2.828c-4.405,12.785-8.074,21.272-11.006,25.462
		c-1.05,1.469-1.573,3.354-1.573,5.659c0,2.207,0.485,4.14,1.46,5.791c1.747,2.025,3.497,3.037,5.249,3.037
		c1.242,0,2.692-0.64,4.351-1.924c2.068-2.348,4.347-6.405,6.835-12.176c2.276-5.555,3.417-9.934,3.417-13.14
		c0-0.399-0.038-0.824-0.06-1.238c1.69,0.583,3.728,0.885,6.139,0.885c0.577,0,2.503-0.164,5.782-0.498
		c40.274-5.136,71.59-7.869,93.946-8.204c2.705,0,4.061,0.589,4.061,1.765c0,1.552-3.97,6.464-11.905,14.73
		c0,0.826,0.41,1.236,1.236,1.236c11.167-2.756,20.742-4.572,28.721-5.455c5.385-0.327,8.077-1.595,8.077-3.803
		C395.234,484.151,391.98,480.204,385.476,474.753z"/>
	<path class="st0" d="M342.031,460.064c5.397-3.033,10.259-5.309,14.581-6.829c2.374-1.01,3.563-2.359,3.563-4.046
		c0-2.488-1.923-5.208-5.766-8.166c-4.165-3.267-7.129-4.899-8.888-4.899c-0.854,0-1.566,0.741-2.134,2.215
		c-2.844,6.735-5.549,11.829-8.109,15.279c-3.131,4.436-6.829,8.541-11.095,12.318c-0.59,0.152-0.883,0.524-0.883,1.122
		c0,0.902,0.41,1.349,1.236,1.349C326.479,468.409,332.311,465.628,342.031,460.064z"/>
	<path class="st0" d="M284.988,472.445c3.884,0,5.826-2.359,5.826-7.075c0-4.219-1.15-7.556-3.449-10.02
		c-2.61-2.109-6.52-4.042-11.731-5.801c-2.15-0.876-4.143-1.318-5.981-1.318c-0.936,0-1.539,0.555-1.803,1.665
		c0,0.475,0.331,1.189,0.993,2.137c5.133,9.178,9.106,15.19,11.924,18.037C282.254,471.653,283.664,472.445,284.988,472.445z"/>
	<path class="st0" d="M268.029,571.47c-0.397,0.701-0.596,1.195-0.596,1.485c0,3.181,0.981,6.734,2.942,10.662
		c1.374,3.367,2.746,5.052,4.12,5.052c1.217,0,2.554-2.002,4.017-6c1.948-5.29,3.165-14.702,3.651-28.233
		c0-2.902,0.222-4.945,0.661-6.152c1.142-0.226,2.424-0.519,3.847-0.882c3.711-0.917,9.324-1.835,16.823-2.754v48.06
		c0,7.712,0.136,13.913,0.407,18.611c0.807,4.808,1.955,7.214,3.44,7.214c1.214,0,2.63-3.377,4.25-10.127
		c1.753-6.204,2.695-13.471,2.831-21.798l0.804-43.283c10.405-1.12,18.227-1.682,23.459-1.682c1.529,0,2.623,0.319,3.279,0.949
		c0.873,1.267,1.311,3.9,1.311,7.904c0,10.897-0.227,18.265-0.678,22.111c-0.182,2.244-0.633,3.364-1.352,3.364
		c-1.154,0-4.329-0.303-9.525-0.915c-2.311-0.608-3.9-0.914-4.764-0.914c-0.766,0-1.147,0.274-1.147,0.82
		c0,0.933,1.072,2.099,3.219,3.499c4.291,3.033,8.449,7.233,12.473,12.601c1.072,1.633,2.68,2.45,4.827,2.45
		c2.188,0,4.739-2.192,7.655-6.567c2.188-3.348,3.282-8.885,3.282-16.612l0.546-14.679c0-3.859,0.454-6.823,1.368-8.885
		c1.091-2.059,1.64-3.603,1.64-4.635c0-1.507-1.548-3.442-4.638-5.814c-5.302-3.446-7.954-5.17-7.954-5.17s-0.996,0-2.983,0
		c-0.927,0-2.875,0.347-5.839,1.041c-3.645,0.983-11.401,2.325-23.265,4.026c0.258-1.106,0.549-2.195,0.915-3.244
		c0.807-1.63,1.214-2.529,1.214-2.693c0-2.184-1.899-4.182-5.658-5.995l8.908-0.834c4.032-0.517,8.468-0.779,13.308-0.779
		c1.211,0,1.816-0.388,1.816-1.17c0-1.096-1.226-2.468-3.676-4.118c-0.285-0.137-0.543-0.261-0.802-0.386
		c0.159-0.238,0.309-0.491,0.443-0.767l3.922-9.566c1.305-3.001,2.777-5.345,4.413-7.034c1.469-1.126,2.207-2.251,2.207-3.377
		c0-1.787-1.233-3.414-3.698-4.878c-5.423-2.597-8.134-3.9-8.134-3.9s-1.15,0-3.452,0c-1.223,0-3.055,0.495-5.495,1.479
		c-5.905,2.137-12.012,3.698-18.321,4.681c-5.63,1.061-12.395,1.84-20.269,2.34c-1.627-0.619-2.449-0.933-2.449-0.933
		s-1.268,0-3.803,0c-1.57,0-2.352,0.927-2.352,2.774c0,0.167,0.403,0.442,1.21,0.826c2.119,1.438,3.43,3.008,3.935,4.716
		c0.807,1.656,1.564,4.551,2.27,8.686l1.817,7.942c0.12,2.315,0.917,4.509,2.387,6.581c0.977,1.582,1.957,2.373,2.941,2.373
		c0.855,0,1.589-0.656,2.204-1.97c0.203-0.397,0.36-0.858,0.496-1.347c0.732,0.106,1.547,0.165,2.465,0.165
		c1.528,0,3.637-0.139,6.315-0.417c0.13,0.563,0.343,1.331,0.662,2.358c0.833,2.807,1.341,6.224,1.53,10.238
		c-7.195,0.958-15.394,2.004-24.61,3.138c-2.295-1.111-4.873-1.673-7.736-1.673c-2.118,0-3.175,0.94-3.175,2.816
		c0,1.128,0.309,2.348,0.927,3.66c1.854,3.193,2.781,8.449,2.781,15.77c0,2.157-0.397,3.935-1.188,5.332
		C270.009,568.818,269.215,570.304,268.029,571.47z M292.708,519.069c-0.261-3.247-0.87-7.825-1.834-13.766
		c-0.179-1.142-0.265-2.239-0.29-3.305c4.106-0.299,10.332-1.024,18.69-2.179c5.526-0.863,10.06-1.296,13.598-1.296
		c1.513,0,2.27,0.606,2.27,1.816c0,1.574-0.177,3.635-0.526,6.19c-0.353,2.358-0.88,5.11-1.58,8.25
		c-0.029,0.197-0.053,0.366-0.077,0.541c-1.611,0.17-3.691,0.446-6.279,0.838C309.227,517.529,301.219,518.486,292.708,519.069z"/>
</g>
<g>
	<path class="st0" d="M376.757,638.893c-4.655-2.846-7.544-4.271-8.668-4.271c-0.227,0-1.474,0.383-3.746,1.142
		c-3.407,1.217-8.062,2.587-13.961,4.107c-6.792,1.318-12.868,2.301-18.249,2.957c-0.001,0-0.002-0.001-0.003-0.001
		c-3.198-0.945-5.197-1.42-5.996-1.42c-1.281,0-1.92,0.847-1.92,2.544c0,0.732,0.109,1.523,0.33,2.377
		c0.769,3.416,1.263,6.953,1.481,10.612c0.439,6.953,0.66,13.785,0.66,20.493c0,2.277-0.07,4.715-0.203,7.314
		c-0.269,1.629-0.402,2.686-0.402,3.17c0,1.14,0.551,2.684,1.653,4.634c1.257,2.602,2.359,3.901,3.304,3.901
		c1.009,0,1.814-0.742,2.427-2.207c0.765,0.11,1.615,0.172,2.573,0.172c1.714,0,4.191-0.36,7.432-1.084l17.72-3.249
		c2.038-0.515,4.195-0.882,6.453-1.122c0.121,10.275,0.182,19.337,0.182,27.185c0,34.548-0.645,55.439-1.935,62.667
		c-0.86,3.213-1.935,4.822-3.225,4.822c-0.897,0-5.291-1.003-13.18-3.001c-1.435-0.303-2.332-0.452-2.689-0.452
		c-0.624,0-0.932,0.31-0.932,0.934c0,0.429,0.966,1.369,2.898,2.813c4.918,4.469,10.009,9.59,15.279,15.363
		c1.405,1.732,2.635,2.598,3.688,2.598c2.126,0,4.631-2.359,7.513-7.077c2.429-4.406,3.643-10.621,3.643-18.64
		c0-13.907-0.158-26.609-0.466-38.098c-0.312-15.118-0.467-38.098-0.467-68.94c0-10.07,0.806-16.992,2.417-20.772
		c0.963-1.571,1.448-2.91,1.448-4.012C381.815,642.927,380.128,641.11,376.757,638.893z M353.632,645.098
		c5.173-0.588,8.304-0.881,9.395-0.881c1.278,0,2.32,0.666,3.119,1.998c0.479,1,0.796,3.831,0.957,8.493
		c0.039,2.068,0.076,4.092,0.112,6.096c-0.478-0.194-0.986-0.391-1.56-0.595c-3.81-0.872-6.35-1.31-7.619-1.31
		c-0.188,0-1.221,0.245-3.098,0.736c-6.153,1.889-12.482,3.428-18.984,4.633l0.444-15.826
		C340.003,647.583,345.73,646.47,353.632,645.098z M366.709,679.783c0,0-0.857,0-2.568,0c-1.418,0-4.246,0.651-8.486,1.95
		c-6.363,2.371-13.146,4.107-20.337,5.226l0.459-16.382c1.161,0.149,2.437,0.228,3.846,0.228c1.493,0,3.922-0.299,7.286-0.899
		c6.166-1.199,9.994-1.947,11.49-2.246c1.681-0.301,3.737-0.6,6.166-0.899c1.045-0.218,1.958-0.453,2.742-0.705
		c0.084,4.911,0.157,9.62,0.221,14.121C366.991,679.919,366.709,679.783,366.709,679.783z"/>
	<path class="st0" d="M348.441,741.175c3.937-0.126,5.973-0.902,6.106-2.325c0-1.421-2.166-3.489-6.493-6.203
		c-3.543-1.29-5.645-1.938-6.299-1.938c-1.451,0-4.942,0.5-10.478,1.496c-0.617,0.095-1.253,0.191-1.883,0.286
		c0.138-3.276,0.522-5.623,1.163-7.016c0.488-1.129,0.733-2.098,0.733-2.908c0-1.613-1.293-3.067-3.877-4.361
		c-0.76-0.449-1.421-0.839-2.019-1.192c6.741-0.934,11.286-1.726,13.615-2.375c2.604-0.478,3.91-1.138,3.91-1.981
		c0-1.281-0.984-2.35-2.953-3.206c-2.956-1.496-5.363-2.244-7.223-2.244c-0.542,0-1.626,0.236-3.252,0.703
		c-4.607,1.168-10.636,2.281-18.086,3.331c-10.706,1.638-20.53,2.807-29.469,3.509c-3.795,0.115-5.691,0.524-5.691,1.227
		c0,0.878,0.857,1.916,2.574,3.122c1.317,0.757,3.432,1.222,6.329,1.398c0.186,0.714,0.784,1.482,1.848,2.309
		c1.287,1.338,1.932,3.677,1.932,7.019c0,2.721-0.114,5.42-0.338,8.097c-5.718,0.685-11.721,1.381-18.015,2.088
		c-2.422,0.521-3.634,1.042-3.634,1.56c0,1.172,1.608,2.407,4.827,3.707c2.701,1.432,5.406,2.146,8.11,2.146
		c0.527,0,1.981-0.205,4.361-0.624c1.116-0.163,2.191-0.315,3.267-0.469c-0.902,5.513-2.48,10.556-4.752,15.123
		c-2.059,4.386-4.854,8.604-8.379,12.651c-0.587,0.672-0.881,1.095-0.881,1.265c0,0.622,0.4,0.934,1.199,0.934
		c0.939,0,3.05-1.018,6.333-3.047c3.752-2.538,6.92-5.842,9.5-9.906c2.814-4.401,4.924-9.31,6.333-14.731
		c0.351-1.195,0.657-2.427,0.932-3.684c6.094-0.779,11.366-1.36,15.776-1.732c1.903-0.167,3.766-0.32,5.607-0.467
		c-0.01,8.104-0.102,14.534-0.28,19.25c-0.379,3.954-0.566,7.913-0.566,11.869c0,3.525,0.406,7.371,1.223,11.538
		c0.651,2.725,1.385,4.088,2.202,4.088c1.793,0,3.095-1.586,3.913-4.757c1.139-4.174,1.793-9.095,1.956-14.77l1.383-27.925
		C335.979,741.588,342.468,741.298,348.441,741.175z M299.03,736.645c0.189-2.197,0.291-4.465,0.291-6.817
		c0-2.126,0.442-3.601,1.333-4.421c0.533-0.491,0.799-0.899,0.799-1.227c0-1.581-1.419-2.945-4.225-4.097
		c5.001-0.407,11.523-1.063,19.554-1.968c0.07,0.951,0.371,2.249,0.939,3.936c0.676,2.803,1.11,6.804,1.315,11.949
		C312.887,734.863,306.214,735.744,299.03,736.645z"/>
	<path class="st0" d="M276.716,700.761c1.402-0.368,2.876-0.643,4.411-0.837c0.806,1.811,1.716,2.73,2.736,2.73
		c2.717,0,4.579-1.613,5.585-4.846l5.312-32.052c0.836-5.654,1.814-9.549,2.935-11.688c0.557-1.381,0.839-2.513,0.839-3.394
		c0-1.675-1.796-3.795-5.382-6.363c-4.885-2.792-7.326-4.188-7.326-4.188s-0.448,0-1.345,0c-1.166,0-3.41,0.708-6.735,2.122
		c-7.735,3.29-16.132,5.386-25.172,6.315c-1.781-0.615-3.78-0.951-6.042-0.951c-2.304,0-3.455,0.841-3.455,2.52
		c0,0.814,0.472,2.102,1.417,3.861c2.52,4.877,3.78,13.135,3.78,24.779c0,26.947-0.833,46.108-2.499,57.484
		c-1.481,11.916-3.425,20.99-5.83,27.217c-1.111,2.168-1.666,4.605-1.666,7.313c0,3.997,1.148,7.92,3.446,11.766
		c1.684,3.073,3.371,4.612,5.058,4.612c2.665,0,4.53-2.735,5.597-8.201c1.868-7.601,3.487-32.5,4.855-74.689
		c1.332-0.019,3.204-0.303,5.647-0.87L276.716,700.761z M281.453,649.256c1.614,0,2.422,1.259,2.422,3.779
		c0,5.022-0.244,10.867-0.728,17.52c-0.642-0.294-1.399-0.6-2.3-0.92c-3.465-0.794-5.775-1.19-6.929-1.19
		c-0.133,0-0.857,0.218-2.174,0.648c-4.415,1.706-8.96,3.094-13.627,4.169c0.134-5.318,0.265-10.81,0.393-16.519
		c0-1.179-0.16-2.243-0.474-3.195c2.832-0.289,5.677-0.782,8.538-1.536C275.153,650.176,280.114,649.256,281.453,649.256z
		 M257.973,678.853c1.168,0.177,2.466,0.276,3.928,0.276c1.075,0,2.823-0.261,5.245-0.788c4.437-1.047,7.193-1.702,8.271-1.963
		c1.208-0.26,2.686-0.524,4.436-0.787c1.185-0.248,2.163-0.522,2.978-0.816c-0.618,8.188-1.207,14.023-1.767,17.522
		c-0.815-0.393-1.232-0.595-1.232-0.595s-0.784,0-2.353,0c-1.069,0-3.207,0.527-6.414,1.578c-4.285,1.709-8.824,3.013-13.609,3.919
		C257.632,691.386,257.805,685.269,257.973,678.853z"/>
</g>
<g>
	<path class="st0" d="M398.797,358.262c-0.503-2.71-4.157-5.532-10.956-8.48c-0.726-0.198-1.409-0.384-2.073-0.564
		c0.401-0.837,0.698-1.682,0.877-2.538c0.13-32.427,1.198-57.475,3.199-75.131c0.611-10.918,2.551-19.379,5.833-25.39
		c2.196-4.726,3.106-8.135,2.718-10.225c-0.666-3.591-6.879-8.012-18.638-13.27c-9.344-3.84-14.014-5.761-14.014-5.761
		s-2.085,0.387-6.255,1.161c-3.122,0.579-8.463,2.597-16.033,6.049c-17.41,7.33-37.273,14.855-59.595,22.581
		c-20.893,6.77-39.693,12.28-56.409,16.533c-2.375-0.901-5.283-1.622-8.75-2.152c-4.626-0.84-6.935-1.265-6.935-1.265
		s-2.835,0.526-8.5,1.577c-3.51,0.651-4.879,3.046-4.111,7.181c0.179,0.967,1.481,2.398,3.909,4.281
		c6.825,7.418,11.796,16.013,14.911,25.786c3.802,9.313,8.83,25.91,15.081,49.798l13.142,45.645
		c1.233,5.127,3.926,9.702,8.068,13.72c2.849,3.139,5.367,4.501,7.559,4.094c1.913-0.355,3.289-2.126,4.113-5.322
		c0.874-2.924,0.889-6.662,0.046-11.204c-0.036-0.193-0.075-0.396-0.112-0.592c0.87-0.115,1.773-0.258,2.714-0.432
		c5.751-1.067,13.969-3.134,24.642-6.198l58.587-15.747c12.527-3.768,26.463-7.077,41.808-9.925
		C397.462,361.761,399.186,360.357,398.797,358.262z M358.751,349.08c-0.042,0.351-0.078,0.674-0.115,1.004
		c-5.02,1.413-11.339,3.325-18.981,5.748c-23.809,8.241-49.565,15.742-77.25,22.509c-4.506-19.793-11.827-48.04-21.964-84.743
		c-1.746-6.387-3.225-12.604-4.462-18.662c9.481-2.866,26.809-8.224,51.996-16.081c28.42-8.837,45.871-13.861,52.363-15.066
		c9.589-1.779,14.837-0.222,15.744,4.663c1.728,9.312,2.804,24.095,3.227,44.344C360.118,315.12,359.932,333.884,358.751,349.08z"/>
</g>
</svg>
