<?xml version="1.0" encoding="utf-8"?>
<!-- Generator: Adobe Illustrator 21.1.0, SVG Export Plug-In . SVG Version: 6.00 Build 0)  -->
<svg version="1.1" id="Layer_4" xmlns="http://www.w3.org/2000/svg" xmlns:xlink="http://www.w3.org/1999/xlink" x="0px" y="0px"
	 viewBox="0 0 255.1 153.1" style="enable-background:new 0 0 255.1 153.1;" xml:space="preserve">
<style type="text/css">
	.st0{fill:none;stroke:#ED2024;stroke-miterlimit:10;}
	.st1{fill:none;stroke:#37C6F4;stroke-miterlimit:10;}
	.st2{fill:none;stroke:#333333;stroke-miterlimit:10;}
	.st3{fill:#333333;}
</style>
<rect x="-8.5" y="-8.5" class="st0" width="272.1" height="170.1"/>
<rect y="0" class="st1" width="255.1" height="153.1"/>
<line class="st2" x1="0" y1="-18" x2="255.1" y2="-18"/>
<polygon class="st3" points="6.4,-11.6 6.4,-11.6 0,-18 6.4,-24.4 "/>
<polygon class="st3" points="248.7,-24.4 248.7,-24.4 255.1,-18 248.7,-11.6 "/>
<line class="st2" x1="274" y1="0" x2="274" y2="153.1"/>
<polygon class="st3" points="267.6,6.4 267.6,6.4 274,0 280.4,6.4 "/>
<polygon class="st3" points="280.4,146.7 280.4,146.7 274,153.1 267.6,146.7 "/>
<text transform="matrix(1 0 0 1 104.2666 -30.7117)" style="font-family:'MyriadPro-Regular'; font-size:17.2855px;">90mm</text>
<text transform="matrix(1 0 0 1 285.3403 82.362)" style="font-family:'MyriadPro-Regular'; font-size:17.2855px;">54mm</text>
</svg>
