<?xml version="1.0" encoding="utf-8"?>
<!-- Generator: Adobe Illustrator 19.1.0, SVG Export Plug-In . SVG Version: 6.00 Build 0)  -->
<svg version="1.0" id="Layer_1" xmlns="http://www.w3.org/2000/svg" xmlns:xlink="http://www.w3.org/1999/xlink" x="0px" y="0px"
	 viewBox="0 0 212 253.1" style="enable-background:new 0 0 212 253.1;" xml:space="preserve">
<style type="text/css">
	.st0{fill:#E1F4FD;}
	.st1{fill:#F2D8E0;}
	.st2{fill:#DFF0E3;}
	.st3{opacity:0.85;}
	.st4{opacity:0.3;fill:#FFFFFF;}
	.st5{opacity:0.3;fill:#F2D8E0;}
	.st6{fill:#FFFFFF;}
	.st7{opacity:0.3;fill:#DFF0E3;}
	.st8{opacity:0.4;fill:#FFFFFF;}
	.st9{opacity:0.3;fill:#E1F4FD;}
	.st10{fill:#F8DE8D;}
	.st11{fill:#BADAF3;}
	.st12{fill:#231F20;}
	.st13{fill:#010101;}
	.st14{fill:none;stroke:#010101;stroke-width:6.518;stroke-miterlimit:10;}
	.st15{fill:none;stroke:#FFFFFF;stroke-width:6.0438;stroke-miterlimit:10;}
	.st16{fill:#FAD6D7;}
	.st17{fill:#FFFEFE;}
	.st18{fill:#C2DE9F;}
	.st19{fill:#FCD6D6;}
	.st20{fill:#FEE777;}
	.st21{fill:#FAA958;}
	.st22{fill:#BADB93;}
	.st23{fill:#F9DE8C;}
	.st24{fill:#B0DAF4;}
	.st25{fill:#9C6026;}
	.st26{fill:#CB8F62;}
	.st27{fill:#714C1E;}
	.st28{fill:#9C9DCE;}
	.st29{fill:#FFC214;}
	.st30{fill:#DEE682;}
	.st31{fill:#F3DAB1;}
	.st32{fill:#F6B4C9;}
	.st33{fill:#FEC470;}
	.st34{fill:#FDC17E;}
	.st35{fill:#724F1F;}
	.st36{fill:#D22030;}
	.st37{fill:#00AFAC;}
	.st38{fill:#18A6DF;}
	.st39{fill:#FEDD10;}
	.st40{fill:#E74782;}
	.st41{fill:#FBD0D8;}
	.st42{fill:none;stroke:#000000;stroke-width:1.7659;stroke-miterlimit:10;}
	.st43{fill:#672F12;}
	.st44{fill:#F58C8E;}
	.st45{fill:#E8B674;}
	.st46{fill:#FFD89F;}
	.st47{fill:#FFEDB3;}
	.st48{fill:#5EB2E3;}
	.st49{fill:#7DB2E0;}
	.st50{fill:#F19C9D;}
	.st51{fill:#593712;}
	.st52{fill:none;stroke:#E7EFD6;stroke-width:0.4253;stroke-miterlimit:10;}
	.st53{fill:#D86464;}
	.st54{fill:#FEEBB1;}
	.st55{fill:#F8A95A;}
	.st56{fill:none;stroke:#010101;stroke-width:8.0507;stroke-linecap:round;stroke-linejoin:round;stroke-miterlimit:10;}
	.st57{fill:#95D4D1;}
	.st58{fill:#F6DD8C;}
	.st59{fill:#B0D9F4;}
	.st60{fill:#FFC118;}
</style>
<g>
	<path class="st2" d="M58.4,119.5c0,0-59.3,38.6-41,77.8c18.3,39.2,74.7,77.1,115.4,41.6c15.9-13.8,19.2-55.3,19.2-55.3
		s3.8-14.4,5.8-15.1c50.3-17.6,63-58.4,48.5-69.9c-25.6-20.4-57.1,9.5-64.3,22.7c-7.3,13.1,33.3-73.3-0.2-93.2
		c-41-24.3-55.4,82-55.4,82S74.7,11.8,50,26.2c-36.4,21.2,2.6,83.7,7.8,86C62.9,114.6,58.4,119.5,58.4,119.5z"/>
	<g>
		<g>
			<g>
				<g>
					<g>
						<g>
							<path d="M55.7,109l1.2-0.1c0,0-0.1-0.3-0.1-0.7c-0.1-0.3-0.1-0.7-0.1-0.7s-0.3,0.4-0.5,0.7C55.9,108.6,55.7,109,55.7,109z"/>
							<path d="M61.8,111.7c0,0,0.3-0.2,0.7-0.4c0.3-0.2,0.7-0.4,0.7-0.4c-0.8-1.9-0.8-2.6-1-3.1c-0.2-0.5-0.6-0.9-2.5-1.9
								c-0.5,0.5-1.2,1.2-1.6,2c-0.4,0.8-0.5,1.7-0.1,2.3c0.1-0.1,0.3-0.3,0.4-0.5c0.1-0.2,0.3-0.5,0.4-0.7c0.3-0.5,0.8-0.9,1.4-0.8
								c-0.1,1.2-1.2,1.5-1.1,3c0.9,0.3,1,0,1.2-0.4c0.1-0.4,0.3-0.9,1.2-0.8L61.8,111.7z"/>
							<path d="M63.1,107.5c-0.1,0.7-0.1,1.4,0,1.9C63.1,108.8,63.9,107.8,63.1,107.5z"/>
							<path d="M64.2,107c1.2,0,0.1,1.4,0.2,1.6c0,0,0.3-0.7,0.6-1.3c0.3-0.6,0.6-1.3,0.6-1.3s-0.4,0.2-0.7,0.5
								C64.5,106.7,64.2,107,64.2,107z"/>
							<path d="M69.1,107.2c0.2-0.1,0.4-0.1,0.6-0.2C69.6,106.6,69.3,106.9,69.1,107.2z"/>
							<path d="M71.6,107.2c-0.3-0.9-1.1-0.5-1.9-0.2c0,0,0,0.1,0.1,0.2c0.6,0.8-0.3,2.5-1.2,1.9c-1.1,0.3-0.9-1.5-1.9-0.3
								c0,0,0.3,0.4,0.6,0.8c0.3,0.4,0.6,0.8,0.6,0.8c0.8-0.1,1.5-0.7,2.2-1.4C70.6,108.3,71.2,107.5,71.6,107.2z"/>
							<path d="M69.1,107.2c-0.2,0.1-0.4,0.1-0.7,0.1C68.7,107.6,68.9,107.4,69.1,107.2z"/>
							<polygon points="66.6,106.9 66,107.3 66.2,108 							"/>
							<path d="M75.6,108c-0.5,1.1-1.1,0.9-1.8,0.6c-0.7-0.3-1.4-0.6-1.7,0.3c1.6,0.2,2.3,2.3,1.6,3.5l1.8-0.3
								C76.3,111.3,76.2,109.4,75.6,108z"/>
							<path d="M76.9,114.9c0.2-0.2,0.3-0.3,0.5-0.3C77.2,114.7,77,114.8,76.9,114.9z"/>
							<path d="M86.3,114.5c0,0-1.2,0.1-2.3,0.2c-1.2,0.1-2.3,0.3-2.3,0.3c0.7-0.6,0.8-1.3,1.8-1.2c-1.5-1.1-2.3,0.3-3.5-0.5
								c0.4-2.3,2.4,0.8,2.5-1.4c-1-0.3-2.5-0.9-3.9,0.7c0,0-0.2-0.5-0.5-1c-0.3-0.5-0.5-1-0.5-1l-0.3,2.6c0.3,0.9,1.9-1.4,1.7,0.3
								c-0.2,1.1-0.9,1-1.4,1.1c0.6-0.1,1,0.6,1.6,1.4c0.6,0.8,1.2,1.6,2.1,1.9C83.1,118.6,84.4,114.8,86.3,114.5z"/>
							<polygon points="85.2,117 84.9,118 85.4,116.7 							"/>
							<path d="M90.6,116.2l-2.6,0.3c-0.1-0.3,0.1-0.8,0.1-1.3c-0.2,0.5-1.2,1.1-1.3,1.6c-0.3,2.5,2.5,0.6,3.7,0.9
								c2,2.4-0.7,1-0.9,3.4c-0.7-0.5-0.4-1-1.3-1.7c0.2,3.1,3.3,2.2,4.6,2.4c-0.2-0.4,0.2-1-0.5-1.2l1.4,0
								C93.8,118.5,93.1,117.5,90.6,116.2z"/>
							<path d="M87.2,114.4c0.8,0.2,1,0.5,0.9,0.8C88.2,114.6,88.2,114.1,87.2,114.4z"/>
							<path d="M93.5,122.1c0-0.2-0.2-0.3-0.6-0.3C93,122,93.1,122.1,93.5,122.1z"/>
							<path d="M94,119.2l1.1,1l0.1-1.2C95,119,94.3,118.8,94,119.2z"/>
							<path d="M129.3,162.3c0.8-0.5,0.9-1.2,0.2-2.1c1.1-0.5,1.7,0.9,2.6,1.1c0-1.7,1.3-0.7,2.1-1.5c-0.8-1.6-2.5-1.4-3.2-3.2
								c0.3-0.1,0.8-0.4,1-0.8c-1.8-1.5-4.8-4-5.2-6.3c-0.8-2-2.2-2.9-4.1-4.3c-2.1-3.1-4.7-5.9-7.4-8.7c-2.7-2.8-5.6-5.5-8.2-8.6
								l-2.4,1.1c0.5-1.1-1.4-1.2-0.3-2.3c0.1,0.5,0.6,0.6,1,0.9c0-1.4-0.9-2.1-1.9-2.7c-1-0.6-2.2-1.1-2.8-2
								c-0.1,0.5-1.1,2.3-1.8,2.2c1.7-2-1.9-1.4-0.6-4.2c-1.2-1.8-1.4,1.8-2.9,0.3c-1.1,1.2,1.2,1.8,0.8,3c-1.3,0.6-1.2-1.5-2.1-0.1
								c0.6,0.6,1.4,1.2,2.4,1.7c1,0.5,2.2,1,3.5,1.5c2.5,1,5.4,2.1,7.6,3.5l-1.4,0.7c2.7,1,5.8,4,5.5,7.2c0.7-1.3,2.1,3.3,4.2,0.9
								c-0.1,1,0.2,1,0.6,2l0.9-0.5c0.9,1.1-0.5,1.9,0.6,3c0.4-1.6,1.4-1.1,2.6-1.4c0,2.4,0.2,4.8,0.2,6.8c0.3-0.4,0.6-0.8,0.7-1.6
								c0.3,1.2,1.2,0.2,1.7,0.2c0.7,0.8-0.8,1.8-1.5,2.3c0.7,1.8,3.9,0.6,3.8,2.4l0.9-1.2c1.4,1.5,1.1,3.7,2.6,5.3
								c-1.1,1.9-2.3-0.6-3.5-0.9c-0.1,0.6,0.3,1.4-0.1,2c1.3,0.2,3.3,0.8,4.6,1.3C127.7,159.4,129.1,161.7,129.3,162.3z"/>
							<path d="M125.5,157.9c-0.4-0.1-0.7-0.1-1-0.1c0.2,0.1,0.4,0.2,0.5,0.5C125.3,158.2,125.4,158,125.5,157.9z"/>
							<path d="M129.3,162.3c-0.1,0-0.1,0.1-0.2,0.1C129.4,162.6,129.4,162.5,129.3,162.3z"/>
							<path d="M126.8,149.2c0,0.1,0.1,0.2,0.1,0.3c0,0.1,0.1,0.2,0.2,0.3L126.8,149.2z"/>
							<path d="M120.7,151.7c0.2-0.6,0.2-1.4,0.2-2.2C120.5,150,120.2,150.4,120.7,151.7z"/>
							<path d="M113.7,140.7c-0.5-0.1-0.6,0.3-1.1,0.4C113,141.7,113.6,141.6,113.7,140.7z"/>
							<path d="M126.4,160c0,0,0.3,0.3,0.6,0.6c0.3,0.3,0.6,0.6,0.6,0.6l0.6,0.3c0,0-0.4-0.4-0.9-0.7
								C126.9,160.4,126.4,160,126.4,160z"/>
							<path d="M142.8,188.9c0.9-0.7,1.1-1.7,1.1-2.7c-0.1-1-0.2-2.1-0.2-3c-0.6-1.7-1.5-1.7-2.4-1.7c-0.8,0-1.6,0.1-1.9-1.4
								c0,0,0.9,0,1.8,0c0.9,0,1.8,0,1.8,0c-0.4-1.6-0.7-3.6-1.4-5.4c-0.4-0.9-0.8-1.7-1.5-2.4c-0.6-0.7-1.4-1.3-2.3-1.6
								c0.3-0.4,0.6-1.1,1.4-0.5c-0.9-2-5,0.8-5-2.1c3,1.5,1.5-1.6,3.8-1.8l0.4,0.3c-1-1.6-3-3.2-3.5-4.3c-0.8,0.4-1.5,1.9-2.4,0.6
								c0.1,0.7-0.9,0.9-1.7,1.3c0.4,0.3,0.7,0.5,1,0.8c0.1,0.1,0.2,0.2,0.3,0.4l0.1,0.2l0,0l0,0l0,0l0,0l0,0c0,0.1,0-0.1,0-0.1l0,0
								l0,0l0.1,0.1c0.3,0.4,0.7,0.8,1.4,1c-0.7,1.3-0.6-0.4-1.3,0.9l1.5,0.7c0.1,1-1.5-0.4-1.1,1c0.7-0.1,1.8,0.7,2.1,1.8l-0.5-0.1
								c0.8,0.6,0.6,2,2.3,0.9l-1.5,1.6l1.2-0.6c0.2,1.2-0.5,2.3-0.8,3.3c-0.2,0.5-0.3,1-0.2,1.5c0,0.5,0.3,1.1,0.9,1.7
								c0.2-0.8,1.1-0.3,1.4,0c0.6-1.4-1.3-1.3-1.8-2.3c1.2-0.6,3.2,1.1,3.6-0.6c-0.6,1-0.3,1.7-0.3,2.4c0,0.7-0.3,1.3-1.8,1.9
								c0.1,0.9,0.5,1.5,0.8,2.1c0.3,0.6,0.7,1.2,0.3,2.2l-0.5,0c1.1,0.1,0.8,0.5,0.6,1c-0.2,0.5-0.4,1.1,0.6,1.9l0.5-1
								c0.9,0.1,0.9,0.6,1,1.3c-0.3-0.1-0.3-0.1-0.8,0.1c1.6,0.3,1.6,2.6,2,3c0.4-1-0.7-2.3-1.1-3.4
								C141.8,188,143.1,188,142.8,188.9z"/>
							<path d="M133.5,170.3l0.9,0.3C134.2,170.4,133.9,170.3,133.5,170.3z"/>
							<path d="M138,197c-0.8,0.9-1.1-0.8-2.2-0.1c0.2,0.7,0.9,0.7,1.6,0.6c0.7-0.1,1.5-0.1,2,0.8c-1.2,0.3-0.3,2.2-0.6,2.7
								c-0.5-1-2.5-1.7-3-1.7c0.3,0.7-1.1,1.1-1.6,1.6c2.2-0.9-0.3,1.8,1.9,1.1c0.5,0.4,0.6,1.1,0.5,1.8c-0.1,0.7-0.6,1.2-1.2,1.2
								c-0.7-0.6-0.1-1,0.2-1.4c-1.1-1.3-1.5,0.5-2.9-0.3c0.3,1.5-0.6,3.3-1.3,5c-0.6,1.6-1,3.1,1,3.9c1,0.1,0.9-1,1.3-1.7
								c-2.1,1-1.4-1.4-1.7-2c0.5-0.1,0.9-0.6,1.1-1c0.3-0.4,0.5-0.6,0.9,0c0,0,0,0.5,0,1c0,0.5,0,1,0,1c1.9-1.4,3.9-3.5,5.5-6.1
								c1.6-2.5,2.7-5.5,3.2-8.2c0,0-0.2,0.6-0.4,1.1c-0.2,0.6-0.5,1.1-0.5,1.1c-0.9-0.6-0.5-1.7-0.8-2.6c0,0-0.7,0.1-1.3,0.1
								c-0.7,0.1-1.3,0.1-1.3,0.1c0.4-0.5,0.2-1.2,1-0.9c-0.8-1-1.5-0.8-2.4-0.7c0-1.5,0.9-1.5-0.4-2.9c-1.2,0.9-0.9,1.4-0.6,2.1
								c0.3,0.6,0.6,1.4-0.7,2.3c0,0,0.7,0.5,1.4,1C137.3,196.5,138,197,138,197z"/>
							<path d="M138.3,191.3c0,0,0.3,0.2,0.6,0.4c0.3,0.2,0.6,0.4,0.6,0.4l-0.4-1L138.3,191.3z"/>
							<path d="M143.5,193.5c-0.5-0.1-0.7-0.6-1.2-0.6C141.6,194.1,142.4,194.1,143.5,193.5z"/>
							<path d="M131.6,204.5c0,0-0.2,0.4-0.4,0.7c-0.2,0.4-0.4,0.7-0.4,0.7s0.3-0.1,0.5-0.2c0.3-0.1,0.5-0.2,0.5-0.2
								C131.5,205.2,131.6,204.7,131.6,204.5z"/>
							<path d="M126.9,217c0.9-0.8,1.4-1.6,2.1-2.3c0.6-0.7,1.4-1.2,2.9-1.7c0-2.1-2.4-1.9-3-3.4c-1.2,0.5,0.6,2.6-0.1,3.8
								c-1.2-0.8-1.5,1.4-2.7,2C126.4,215.8,126.8,216.4,126.9,217z"/>
							<path d="M117.1,216.6c-0.9,0.5-1.4,1.9-2.4,1.7c-0.3-0.8,0.1-1.4,0.8-1.5c-1.3-1.6-0.9,0.8-2.5,0.1c0.2,0.2,0.7,0.3,0.6,0.8
								c-2.7,0.8-0.7,2.2-4.6,2.7c-0.3,0.7-0.8,0.9-0.2,2.1c-2.6-0.7-1.6-1.1-4.5-1.5c0.4,0.7,1.8,2,2.4,3.6
								c-4.2-0.8-3.3,1.7-6.1,0.8c0.2-0.2,0.4-0.7,1-0.7c-1.1-2.1-1.6,1.1-3,1.1l-0.5-1.9c-1,0.7-2.5,2.6-4.3,1.6l0-1
								c-0.6,0.6-1.2,1-1.9,1.4c-0.7,0.3-1.4,0.6-2.1,0.8c-1.4,0.5-2.8,0.6-4,1.2c0,0-0.4-0.2-0.7-0.5c-0.3-0.3-0.7-0.6-0.7-0.6
								c-1.6,0.9-0.8,1,0.2,1.3c1,0.3,2.1,0.6,1,2.3c-0.4-1.8-0.8-1.5-1.4-0.9c-0.6,0.6-1.4,1.6-2.5,0.8c-0.5-0.7,0-0.9,0.5-1.1
								c0.5-0.2,0.9-0.5,0.4-1.3c-0.4,1.9-1,0.6-2,1.1c0.2-1.8-2.1-0.3-1.4-2.2c0,0-0.2,0.2-0.6,0.5c-0.4,0.3-0.8,0.6-1.3,1
								c-0.5,0.4-1,0.7-1.4,1c-0.4,0.3-0.6,0.4-0.6,0.4c-0.5-1.1-1.5-1.1-2.4-0.9c1,0.2,0.8,0.8,0.5,1.5c-0.2,0.7-0.5,1.6,0.7,2.1
								c0.9-0.1,1.9-0.2,3-0.2c0.5,0,1.1-0.1,1.7-0.1c0.6-0.1,1.2-0.1,1.8-0.1c0.6,0,1.2,0,1.8-0.1c0.6,0,1.2-0.1,1.8-0.1
								c0.6,0,1.2,0,1.8,0c0.6,0,1.1,0,1.7,0c0.1-1.2,0.7-1.3,1.4-1.4c0.7-0.1,1.4-0.1,1.6-1.2c0.3,0.7,0.7,1.3,1,2
								c2.6-1.1-0.9-1.2-0.5-2.2c1.1-0.5,2.3,0.6,2.5,1.4c1.9-0.4,0-0.7,0.6-2.2c0,0,0.5,0.5,1,1.1c0.5,0.5,1,1.1,1,1.1
								c1.4-0.7,2.8-1.5,4.4-2.3c1.5-0.8,3.1-1.7,4.7-2.5c3.2-1.7,6.6-3.2,10-4.1l-1.2-1.3c1.6-0.3,2.3-1.7,3.1-2.8
								c0.8-1.1,1.7-1.9,3.8-1.1l0.1-1.7c0,1,1.8,1.9,1.7,3.2c0.4-0.9,1.5-0.9,2-1.8l-1.7,0.2c0.2-1.8,1.6-1.7,2.6-0.9
								c0.5-1.4-0.2-1.8-1.2-1.9c-1-0.2-2.2-0.2-2.8-0.6c-0.5,2.2-1.6,1.9-2.8,1.5c-1.1-0.4-2.4-1.2-3.4,0.1
								C114.7,216.2,116.8,215.8,117.1,216.6z"/>
							<path d="M122.9,218.6c0.1-0.2,0.2-0.4,0.2-0.6C123,218.1,122.9,218.3,122.9,218.6z"/>
							<path d="M73.1,228.5c-0.2,0-0.5,0-0.9-0.1C71.8,228.8,72.3,228.7,73.1,228.5z"/>
							<path d="M126,215.5C126,215.5,126,215.5,126,215.5C126,215.5,126,215.5,126,215.5C126,215.5,126,215.5,126,215.5z"/>
							<polygon points="124.9,211.2 124.2,211.7 124.7,212.2 							"/>
							<path d="M65.2,224.2l-0.3,0.8C65,224.8,65.2,224.6,65.2,224.2z"/>
							<path d="M45.3,211.9l0.4,0.4C45.6,212,45.5,211.9,45.3,211.9z"/>
							<path d="M9.7,166.5c-0.6-0.6-1.2-1.4-1.9-2c-0.7-0.7-1.4-1.2-2.3-1.6l0.9-0.2c-0.3-0.3-1.1-1-1.9-1.4c-0.7-0.4-1.5-0.5-2,0.7
								c0,0,0.2,0.1,0.4,0.1c0.2,0,0.4,0.1,0.4,0.1c2,1.6-0.8,2-0.7,3.8c0.2,0.2,0.3,0.4,0.6,0.6c0.2,0.1,0.4,0.3,0.7,0.4
								c0.5,0.2,1,0.4,1.5,0.5c1,0.3,1.9,0.7,1.9,1.7c0.4,0.6-0.4,0.9-1.1,1c0.6,1.7,3.1,1.2,3.9,2.1c-2.8,1.7-1.8,2.7-0.4,3.8
								c1.4,1.1,3.2,2.1,2,4.3c1.3,1.1,1.9,3.3,4.1,4.4c-2-0.1,0.9,1.7-0.9,2.3c1.8-0.8,2.2,0.7,2.8,2.1c0.5,1.4,1.2,2.7,3.3,1.4
								c0.5,3.1,0.3-0.1,1.3,3.2c-0.4,0.3-0.8-0.1-1-0.2c-0.1,1.6,2.8,0.4,1.7,2.5c1.3,2.3,1.3-0.4,3.3,0c1.2,2.4,0.2,2.3-0.4,4.7
								c1.9-1.3,2.1,0.7,3.9,0.9c-0.1-0.3-0.9-2,0.5-1.7c1.7,2.6,2.8,0.9,5.1,2.5c-0.9,2.8-1.9-2.1-1.8,1.2c-2.1-0.6-2.9-1.7-5-1.2
								c1.5,2,3.9,4,6.5,5.2c0.8,1.3-1.4,0.3-0.7,1.3c1.2,2.7,4.8,1,5.6,3.3l-1.2,0.7c2.1-0.4,3.3,3.5,5.9,4.2
								c0.2-0.7,0.3-1.2,0.8-1.3c-1,1.3-0.1,1.5,1.2,1.8c1.3,0.3,2.9,0.5,3.2,2.2c1-1.8,3.6-1.6,4.9-1c0.1,0.8-0.4,1.4-0.7,1.9
								c-1.4-2.3-3.2,0.7-5.4,0.4c1,0,1.9,0.6,2.8,1.1c0.9,0.5,1.9,1,2.9,0.6l-1.3,1.1c1.9,1.3,3.5-2.2,4.9,0.2l-0.7,1
								c0.5,0.2,1.1,0.5,1.6,0.8c0.5,0.3,1.1,0.6,1.7,0.9l1.7,0.9c0.6,0.3,1.1,0.6,1.7,0.8c1.1,0.5,2.3,0.9,3.5,1
								c1.2,0.2,2.3,0.1,3.4-0.4c0.5-0.9-0.8-3.6-0.6-4.3c-2.2,0.2-4,1.6-5.9,1.8l0.7-1.8c-0.8,1.1-3,1.1-2.3,2.4
								c-1.7,0.4-0.4-2-2.3-1.6c0.9-1.8,1.9-1.6,2.5-3.1l-1.6,0.4c0.7-0.5-0.5-0.9,0.2-1.5c-1.6,0.6-2.3,0-2.9-0.8
								c-0.6-0.7-1.1-1.7-2.4-1.8l1.1,1c-0.5,1-1.2,0.5-1.9,0.4c0.2-1.7-0.3-1.7-1-3c-1.4,0.1-3,1.5-4.3,0.5c1.5-1.5-1.5-2.4-0.7-4
								c-1.5,1.5-2.8-1.2-3.7-0.4c-0.9-0.2-1.7-1.1-0.9-2c0.1,0,0.5,0,0.7,0.1l-0.6-0.6c0.2-0.1,0.3-0.3,0.4-0.3
								c-0.5-0.5-1.5,0.7-1.6-0.8c0.4-0.4,0.8-0.1,1.2,0c-0.6-0.7-1.8-0.7-2.8-0.8c-1-0.1-1.9-0.3-1.8-1.6c-0.9,0.5-2.6-1.1-3.8,0.9
								c0.1-1,1.5-2.1,0.1-3.1c-2,0.6-0.8-1.8-2.6-2c2.6-0.1,0.4-0.3,2.8-0.6c-0.2-1.3-3.2-0.9-4.3-2.6c0.2-0.4,0.6-0.8,0.8-1.2
								c-1-0.1-2.7,0.2-2-1.3l-1,0.9c-0.4-1.4-1.8-2.7-1.6-4.7c0,0-0.8,0-1.5,0.1c-0.8,0-1.5,0.1-1.5,0.1c0.7-3.4-2.9-4.5-5.9-4.8
								c-0.4-0.8-0.7-2.1-0.2-2.4c0.3,0.1,0.8,0.1,1.3,0.3c-0.6-1.1-0.2-3.1-2.4-2.6c-1.2-0.8,0.7-1.6,0.5-2.5
								c-1.9-0.3-2.4-2.3-3-3.9c-0.5-1.6-1.1-3-3.2-2.2c0.5,0.9,0.7,3.2,1.9,4.8c-0.7-0.2-1.3,0.6-1.8,0c-1.2-1.7-0.3-3.4-1.9-4.9
								l2.6-1.1c0.5-2.2-1.2-3.2-2.6-4.2C9.7,169.7,8.4,168.6,9.7,166.5z"/>
							<path d="M22.4,189l0.4-2l-0.9,0.8C22.2,188,22.5,188.4,22.4,189z"/>
							<path d="M21.8,187.8c-0.3-0.2-0.6-0.3-1-0.4c0.2,0.3,0.4,0.5,0.7,0.6L21.8,187.8z"/>
							<path d="M7,161.4c0-0.2,0-0.4-0.1-0.7c0-0.3-0.1-0.6-0.4-0.8C6.3,160.4,6.5,161.3,7,161.4z"/>
							<polygon points="5.7,160.1 5.5,160.9 5.8,160.9 							"/>
							<path d="M21.4,122.5l1.1-2.8c0.8,0.5,2.7-1.8,2.7-0.1c0.2-2.6,4-2.3,1.5-4.4c-3,2.2-6.8,4.3-10.5,7.1
								c-3.7,2.8-7.2,6.4-8.8,10.7c0,0,0-0.5,0-0.9c0-0.5,0-0.9,0-0.9c-0.3,1.2-0.7,2.2-1.3,2.8c-0.3,0.3-0.6,0.6-0.9,0.9
								c-0.3,0.3-0.6,0.6-0.9,0.8c-0.5,0.6-1,1.1-1.2,1.9c-0.1,0.8,0,1.8,0.7,3.1c0,0-0.5-0.4-1-0.7c-0.5-0.4-1-0.7-1-0.7
								c-0.8,0.9-0.4,2.3-0.1,3.5c0.1,0.6,0.2,1.2,0.1,1.7c-0.1,0.5-0.4,1-1.2,1.4l1,0c-0.1,0.6-0.6,0.7-0.8,1.3l0.5-0.2
								c0.3,0.8,0.5,1.5,0.4,2.1c-0.1,0.6-0.3,1.2-0.7,2c-0.8,0.1-0.3-0.7-0.4-1.2c-0.4,0.3-0.3,0.8,0,1.4c0.3,0.6,0.7,1.1,0.8,1.7
								c-0.7,1-1.1,0-1.4-0.1c0.5,1.8,0.4,3.1,0.5,4.3c0.1,1.2,0.7,2.2,2.7,2.9c0.7,0,1-1.1,1.6-0.1c0.1-0.6,0.1-1.1,0-1.6
								c-0.1-0.5-0.3-0.9-0.6-1.3c-0.5-0.9-1.2-1.7-1.8-2.7c0,0,0.1,0.6,0.1,0.6c-1.9-0.6-1.6-1-1.2-1.5c0.4-0.5,1.1-1,0.3-2.4
								c1.4,0.8,1.4,1.8,2.2,2.2c0.7-0.7,0.8-1.3,0.8-1.9c0-0.5-0.2-1-0.3-1.5c-0.2-0.5-0.3-0.9-0.2-1.3c0.1-0.2,0.2-0.4,0.4-0.6
								c0.2-0.2,0.6-0.3,1.1-0.5l0.1,0.2c0.4-0.3-0.1-1.1-0.2-1.8c-0.5,0.1-0.8,0.7-1.3,1c-0.2-0.7-1.6-1.4-2.2-1.8
								c0.8-0.2,0.7-0.5,0.5-0.9c-0.2-0.4-0.4-0.9,0.2-1.4c1.5,0,0.9,1.4,1.5,2c0,0,0-0.1-0.1-0.3c0-0.2-0.1-0.4-0.2-0.6
								c-0.1-0.4-0.2-0.8-0.2-0.8c0.4-1.3,1.9-0.7,2.8-1c-0.5-1.4-1,0.3-2-1.1c1.1-0.3,2.1-1.9,3.2-3.6c0.5-0.9,1-1.8,1.4-2.7
								c0.4-0.9,0.8-1.8,1-2.6c-0.5,0.9,0.9,1.3,0,2c0.5-0.1,0.9-1.7,0.1-2.5c0.3-1.1,1.1-2,2-2.7c0.9-0.7,2.1-1.1,3.1-1.3l-1.1-0.5
								c0-1.2,1-1.7,2.2-2c1.2-0.4,2.5-0.7,3.3-2l-0.1,0c0.6-0.7-0.3-3.4,1.4-3.8C21.4,121.1,20.6,121.5,21.4,122.5z"/>
							<path d="M28.5,115.3l-0.1,1.8c1-0.2,1.2-2.5,0.6-3.3c-0.5,0.6-1.6,0.4-1.3,1.2C28,115.3,28.2,115.7,28.5,115.3z"/>
							<path d="M45.6,107.8c0.2-0.5-0.1-1,0-1.4c-3.7,1.5-8,3.9-9.9,3.4c-1.4,0.1-0.7,2.3-2,3.5l-1.3-1.1c-0.4,1.3-3.6,1-1.6,2.8
								c0.2,0.2,0.2-1.4,1.1-1.4l0.3,0.8l1.5-1l0,1.2c2.8,0.4,0.2-3.7,3.3-4l0.8,2c1.9-0.6,2.5-1.7,4.6-1.1c0,0-0.4-1-0.5-0.5
								c-0.3,0-1.1-0.7-1.1-1.4c2.2-2.7,0,1.4,2.3,1.5c1.8-2.3,6.1-5.1,8-3.8c-1.5-0.9-0.2-2.8,1.2-3.1c0.9,0.6-0.1,1.4-0.1,2.1
								c0.7,0,1.4,0.4,1.9-0.1c-1.1-0.9-1.1-2.7,0.4-3.8C50.3,102.2,48.9,106.9,45.6,107.8z"/>
							<path d="M46,105.7c-0.3,0.2-0.4,0.4-0.4,0.7c0.4-0.2,0.9-0.3,1.3-0.5L46,105.7z"/>
						</g>
					</g>
				</g>
			</g>
		</g>
	</g>
	<g>
		<g>
			<g>
				<g>
					<g>
						<g>
							<polygon points="46.4,100.9 47.1,101.2 46.9,99.9 							"/>
							<path d="M50.3,104.9l0.8-0.8c-1.6-3.6-0.6-2.7-2.8-5c-0.3,0.7-1.1,2.3-0.6,3.8c0.3-0.2,0.5-1.8,1.2-1.5
								c0.1,1.2-0.6,1.2-0.5,2.7c1.2,0.9,0.3-1.1,1.4-0.8L50.3,104.9z"/>
							<path d="M50.4,100.9c0.1,0.7,0.2,1.3,0.3,1.9C50.6,102.1,50.8,101.1,50.4,100.9z"/>
							<path d="M50.8,100.3c0.6,0,0.4,1.4,0.5,1.6l0-2.6L50.8,100.3z"/>
							<path d="M53.3,99.8c0.1-0.1,0.1-0.2,0.2-0.3C53.3,99.1,53.3,99.5,53.3,99.8z"/>
							<path d="M54.4,99.1c-0.5-0.8-0.6-0.2-0.9,0.3c0,0,0,0.1,0.1,0.1c0.5,0.6,0.7,2.4,0,2.1c-0.5,0.6-0.9-1.2-1.1,0.1l1.1,1.2
								C54.5,102.6,54.3,99.9,54.4,99.1z"/>
							<path d="M53.3,99.8c-0.1,0.1-0.2,0.2-0.3,0.2C53.2,100.2,53.3,100,53.3,99.8z"/>
							<polygon points="52,99.9 51.8,100.4 52.1,101.1 							"/>
							<path d="M56.4,98.4c0.6,2.4-1.5,0.2-1.1,2c0.8-0.3,1.9,1.2,2.1,2.5l0.7-1C58.1,101,57.2,99.4,56.4,98.4z"/>
							<path d="M60,103.8c0-0.2,0-0.4,0.1-0.5C60,103.4,59.9,103.6,60,103.8z"/>
							<path d="M63.4,97c0,0,0,0.2,0.1,0.5c0,0.3,0.1,0.8-0.1,1.3c0,0.3-0.1,0.5-0.2,0.8c-0.1,0.1-0.1,0.3-0.2,0.4
								c-0.1,0.1-0.1,0.2-0.3,0.4c-0.5,0.6-1,0.9-0.9,0.8c0-0.1,0-0.1,0-0.2l0,0l0,0c0,0,0,0,0,0l0,0l0,0l0-0.1c0-0.1,0-0.2,0.1-0.3
								c0-0.2,0-0.4,0-0.6c0-0.4,0.2-0.8,0.5-1.1c-0.3,0.2-0.8,0.5-1.1,0.7c-0.1,0.1-0.2,0.3-0.3,0.5c-0.1,0.4-0.2,0.8-0.7,0.8
								c-0.9-2.1,1.3-0.6,0.2-2.4c-0.5,0.2-1.2,0.6-1.1,2.6l-1.3-1.2l1,2.3c0.6,0.6,0.1-2.1,0.9-0.5c0.4,1,0.1,1.3,0,1.6
								c0.2-0.3,0.7,0,1.4,0.3c0.3,0.2,0.6,0.3,0.9,0.4c0.2,0,0.3,0.1,0.4,0.1c0,0,0.2-0.1,0.4-0.1c0.2-0.1,0.4-0.2,0.6-0.2
								c0.2-0.1,0.4-0.2,0.6-0.3c0.2-0.1,0.4-0.2,0.5-0.3c0.4-0.3,0.7-0.7,0.9-1c0.1-0.3,0.1-0.6,0.1-0.8c0-0.5-0.3-1.1-0.7-1.6
								C64.5,98.7,63.6,97.8,63.4,97z"/>
							<polygon points="65.7,98.6 66.6,99.1 65.4,98.4 							"/>
							<path d="M64.5,94.6c0,0,0.2,0.4,0.4,0.9c0.2,0.5,0.3,0.9,0.3,0.9c-0.3,0-0.7-0.2-1.2-0.4c0.5,0.3,1.1,1.1,1.5,1.3
								c2.2,0.7,0.3-1.7,0.2-2.4c1.7-1,1,0.7,3.2,1.2c-0.3,0.4-0.8,0.2-1.3,0.7c2.8,0.3,1.4-2.1,1.2-2.9c-0.3,0.1-0.9-0.2-0.9,0.2
								l-0.3-1C65.7,92.9,65,93.2,64.5,94.6z"/>
							<path d="M63.3,96.4c0.1-0.5,0.3-0.5,0.6-0.3C63.4,95.8,63,95.6,63.3,96.4z"/>
							<path d="M69,93.5c-0.2,0-0.2,0.1-0.1,0.4C69,93.8,69.1,93.7,69,93.5z"/>
							<path d="M66.3,92.9l0.6-0.6L65.8,92C65.8,92.2,65.8,92.6,66.3,92.9z"/>
							<path d="M79.8,65.2c-0.9-0.1-1.4,0.1-1.4,0.7c-1.2-0.4-0.8-1.1-1.4-1.6c-1,0.6-1.4-0.3-2.6-0.4c-0.3,0.8,1.1,1.6,0.6,2.4
								c-0.3-0.1-0.9-0.2-1.3-0.2c0.5,1.3,1.1,3.5-0.2,4.3c-0.7,0.9-0.4,1.8-0.2,3.1c-1.7,3.5-1.9,7.8-4.6,11.3l2,1.5
								c-1.2-0.3-0.4,0.9-1.8,0.2c0.4-0.1,0.2-0.4,0.3-0.7c-2.3,0-0.8,2.3-1.9,3c0.4,0.1,2.4,0.8,2.6,1.2c-2.4-1.2-0.5,1.2-3.4,0.2
								c-1.2,0.6,2.1,1.1,1.2,1.9c1.3,0.8,1.2-0.7,2.3-0.3c1,0.9-0.9,0.7,0.6,1.4c0.8-0.7,0.8-2.2,0.6-3.9c-0.2-1.7-0.5-3.5-0.4-5
								l1.3,0.8c-0.4-1.7,0.3-3.9,3-4.2c-1.4-0.2,1.4-1.8-1.7-2.6c0.8-0.1,0.7-0.3,1.2-0.7l-0.9-0.5c0.3-0.7,1.7-0.1,1.9-0.9
								c-1.5,0.1-1.7-0.6-2.7-1.2c1.7-0.4,3.4-1.1,4.8-1.6c-0.4-0.1-0.9-0.1-1.6,0c0.6-0.4-0.7-0.7-1.1-1c0.1-0.6,1.8,0,2.6,0.3
								c0.8-0.9-2.3-2.2-1-2.7L75,70c-0.1-1.1,1.7-1.6,1.5-2.8c2-0.1,1.4,1.3,2.1,2c0.5-0.1,0.7-0.6,1.3-0.6
								c-0.8-0.7-1.9-1.9-2.7-2.7C79.3,67.1,79.5,65.6,79.8,65.2z"/>
							<path d="M79.9,68.7c0.2,0.2,0.5,0.4,0.7,0.5c-0.1-0.1-0.2-0.3,0-0.4C80.3,68.7,80.1,68.7,79.9,68.7z"/>
							<path d="M79.8,65.2c0.1,0,0.1,0,0.2,0C79.9,65.1,79.8,65.1,79.8,65.2z"/>
							<path d="M73.3,70.5c0.1,0,0.1-0.1,0.2-0.1c0.1-0.1,0.1-0.1,0.1-0.2L73.3,70.5z"/>
							<path d="M79.2,73.1c-0.5,0.1-1.1,0.3-1.7,0.4C78.1,73.6,78.6,73.7,79.2,73.1z"/>
							<path d="M75.5,79.6c0.2,0.3,0.6,0.3,1,0.6C76.7,79.8,76.3,79.5,75.5,79.6z"/>
							<polygon points="80.6,67.5 80.4,66.5 80.1,66.1 							"/>
							<path d="M76.3,48.4c-1.7,0.6-0.8,1.8-1.2,2.7c0.7,1.8,3.6,0.6,3.6,2.3l-3.4-0.7c0,1.7-1,3.8,1.7,5.7c-0.4,0.1-1,0.2-1.4-0.3
								c0,1.1,4.8,1.4,3.3,2.7c-1.8-1.8-2.1,0.1-4.1-0.7l-0.2-0.3c0.1,0.9,0.9,2.4,0.6,3c0.9,0.2,2.3,0,2.2,0.8
								c0.2-0.3,1.2,0.1,2.1,0.3c-0.8-1.1-0.1-1.4-1.1-2.2c1.2-0.3,0.3,0.4,1.5,0.1L79,61c0.4-0.5,1.1,0.8,1.4,0
								c-0.7-0.2-1.2-1-1-1.6l0.4,0.3c-0.4-0.6,0.3-1.1-1.6-1.2l2-0.2l-1.3-0.1c0.7-1.2,3.9-1.3,2.5-3.2c-0.4,0.4-1.1-0.1-1.3-0.4
								c-1,0.6,0.9,1,0.9,1.7c-1.3-0.1-2.7-1.5-3.6-0.8c1.7-0.7,0-1.7,3.3-1.7c0.3-1.1-1.2-1.7-0.3-2.7l0.5,0.1
								c-2.1-0.4,1.1-0.8-1.1-1.8l-0.5,0.5c-0.9-0.1-0.9-0.4-1-0.8c0.3,0.1,0.3,0.1,0.8,0c-1.6-0.2-1.7-1.5-2.2-1.6
								c-0.3,0.5,0.9,1.2,1.3,1.8C77.3,48.9,76,48.9,76.3,48.4z"/>
							<path d="M80.5,60.2l-0.7-0.5C80,59.8,80.2,60,80.5,60.2z"/>
							<path d="M79.2,43.7c0.3-0.7,1.3,0.2,2-0.5c-1.1-0.7-2.2,0.8-3.8,0.2c0.9-0.4-0.7-1.1-0.7-1.3c0.9,0.3,3,0,3.4-0.1
								c-0.6-0.2,0.4-0.9,0.5-1.4c-1.2,1.2-0.8-0.9-2.2,0.2c-1.2,0-2.2-1-1.3-1.4c0.9,0,0.7,0.3,0.8,0.6c1.7,0.1,0.9-0.8,2.4-1.1
								c-2.4-0.9-2.8-4.2-6.3-2.6c-0.7,0.4,0.3,0.6,0.5,0.9c0.6-1.1,2-0.3,2.6-0.3c-0.5,0.5,0.8,1.2-0.6,1.2c0,0-0.4-0.1-0.7-0.3
								c-0.4-0.1-0.7-0.3-0.7-0.3c-0.4,2.3,0,5.3,0.5,7.9l0.1-1.1c1,0.1,1.1,0.7,1.6,1.1l2.5-0.5c-0.2,0.3,0.2,0.7-0.7,0.6
								c1,0.4,1.7,0.3,2.5,0c0.4,0.9-0.6,1,1,1.8c2.1-1.5-1.6-1.4,0.2-3.1L79.2,43.7z"/>
							<polygon points="80.5,47 79.2,46.6 79.8,47.2 							"/>
							<path d="M75,46.2c0.5,0,0.8,0.2,1.3,0.2C76.8,45.8,76,45.9,75,46.2z"/>
							<path d="M80.2,37.8L79.6,37c0,0-0.1,0.2-0.2,0.3c-0.1,0.2-0.2,0.3-0.2,0.3C79.8,37.5,80,37.7,80.2,37.8z"/>
							<path d="M72.7,33.1c0.3,0.5,0.7,0.8,1,1.1c0.3,0.4,0.3,0.8-0.2,1.5c1.7,0.3,2.9-0.9,4.4-0.9c0.2-0.8-2.4-0.1-3.1-0.7
								c1.3-0.6-0.5-0.9-0.4-1.6C73.9,32.9,73.2,33.1,72.7,33.1z"/>
							<path d="M76.3,27.4c-0.3-0.6-1.5-0.6-1.1-1.3c0.8-0.4,1.3-0.2,1.2,0.2c1.7-1.1-0.6-0.5,0.2-1.7c-0.2,0.2-0.3,0.6-0.8,0.6
								c-0.2-0.9-0.7-0.8-1.2-0.9c-0.4-0.1-0.8-0.2-1-1.4c-0.6,0.1-0.8-0.1-1.8,0.7c0.3-1,0.5-1.4,0.6-1.8c0.1-0.4,0.3-0.8,0.2-1.9
								c-0.5,0.6-1.4,2.2-2.6,3.3c0.2-1.4-0.3-1.8-0.7-1.9c-0.4-0.1-0.8-0.1-0.8-1.2c0.2,0,0.6-0.2,0.7,0.2c0.6-1,0.4-1.1-0.1-1
								c-0.5,0.1-1.1,0.3-1.3,0l1.1-1.6c-0.4-0.1-1,0.1-1.5,0c-0.5-0.1-0.9-0.3-1.1-1.2l0.6-0.8c-1.2,0.3-2.1,0.2-3.1,0
								c-0.9-0.1-1.8-0.4-2.6-0.1c0,0-0.1-0.3-0.3-0.7c-0.1-0.3-0.3-0.7-0.3-0.7c-1.2,0.6-0.6,0.8-0.2,1.3c0.5,0.5,1,1.1,0,2.4
								c0.2-1.8-0.1-1.6-0.5-1.1c-0.5,0.5-1,1.3-1.4,0.5c-0.4-1.5,1.2-0.6,0.8-2.3c-0.5,1.8-0.7,0.5-1.3,0.9
								c0.2-1.8-1.1-0.3-0.7-2.3c0,0-0.5,0.8-1.1,1.6c-0.4,0.4-0.6,0.8-0.8,1.1c-0.2,0.3-0.3,0.5-0.3,0.5c-0.3-1-1-0.8-1.4-0.5
								c0.6,0,0.5,0.6,0.5,1.4c0,0.8,0,1.6,0.6,2c0.4-0.2,0.9-0.4,1.3-0.6c0.5-0.1,1.1-0.2,1.7-0.3c0.6,0,1.1,0,1.7,0.2
								c0.5,0.2,1.1,0.4,1.5,0.7c0.4-1.2,0.7-1.1,1-0.9c0.3,0.1,0.6,0.3,1.1-0.5c-0.2,0.8-0.2,1.4-0.5,2.2c1.4-0.1,0.2-1.4,0.7-2.1
								c0.7-0.1,0.6,1.4,0.2,2.2c0.8,0.5,0.3-0.6,1.3-1.6c0,0-0.1,0.7-0.3,1.3c-0.1,0.7-0.3,1.3-0.3,1.3c1.4,0.2,3.1,0.5,4.6,1.4
								c1.5,0.9,2.7,2.4,2.9,4.2l1.3-1.1c0,0.9,1.1,1.1,1.9,1.4c0.8,0.4,1.3,0.9-0.1,2.2l1.5,0c-0.9,0-2.3,1.1-3.5,1.1
								c0.7,0.2,0.2,0.8,0.8,1.1c0,0,0.1-0.2,0.3-0.5c0.1-0.2,0.2-0.5,0.2-0.5c1.5,0.1,0.9,1-0.3,1.5c1,0.3,1.6,0,2.2-0.6
								c0.6-0.5,1-1.3,1.6-1.6c-1.8-0.4-1.2-1-0.5-1.8c0.7-0.8,1.7-1.7,0.7-2.3C77.1,25.7,77.1,27.1,76.3,27.4z"/>
							<path d="M72.9,31c0.2,0,0.3,0.1,0.5,0.1C73.2,31.1,73.1,31,72.9,31z"/>
							<path d="M54,16.3c-0.1,0-0.3,0-0.5,0.1C53.4,16.9,53.6,16.6,54,16.3z"/>
							<path d="M74.4,32.7C74.4,32.7,74.4,32.7,74.4,32.7C74.4,32.6,74.4,32.6,74.4,32.7C74.4,32.6,74.4,32.7,74.4,32.7z"/>
							<polygon points="78.6,32.4 78.5,31.9 77.8,32.2 							"/>
							<path d="M48.4,15.5l0.3,0.8C48.6,16,48.5,15.8,48.4,15.5z"/>
							<path d="M37.4,25.7l0.2-0.3C37.4,25.5,37.3,25.6,37.4,25.7z"/>
							<path d="M35.9,57.6c0.6,0.8,1.2,1.9,2.7,2.3l-0.9,0c0.5,0.4,2,1.7,3.5,0.6l-0.8-0.1c-1.4-0.9,1.4-0.9,1.8-1.7
								c-0.5-0.9-3.8-1.2-3.1-2.1c-0.1-0.4,0.8-0.4,1.4-0.3c0.2-0.9-2.4-1-2.7-1.6c3.3-0.3,2.8-1,2-1.7c-0.8-0.7-1.9-1.7,0.2-2.4
								c-0.6-0.8,0-1.9-1.3-2.9c1.6,0.5,0.1-1,2-0.7c-1.9-0.2-1.5-0.9-1.2-1.6c0.3-0.7,0.5-1.4-1.9-1.6c1.4-1.3-0.3-0.1,0.9-1.6
								c0.5,0,0.5,0.3,0.6,0.4c1-0.6-2-1.1,0.3-1.5c0.5-1.2-1.3-0.3-2.5-1.2c0.7-1.3,1.3-0.9,3.4-1.3c-2.3-0.4-1.1-1.1-2.1-1.9
								c-0.1,0.1-0.7,1-1.5,0.3c0.6-1.6-1.3-1.5-1.6-3.2c2.7-0.3-0.3,1.6,2,0.6c1,1.2,0.7,1.9,2.5,2.7c0.3-1.2,0.2-2.7-0.5-4.3
								c0.5-0.6,1.1,0.7,1.4,0.2c0.7-0.5,0.2-1.1-0.3-1.8c-0.5-0.7-0.9-1.3-0.2-1.6l1.2,0.7c-0.7-0.6-0.4-1.1,0-1.7
								c0.4-0.5,1-1,0.9-1.8c-0.7-0.2-1.1-0.3-1.4-0.6c1.5,0.8,1.3,0.2,1.1-0.6c-0.2-0.8-0.3-1.9,1.1-1.7c-1.8-1.1-1.8-3-1.3-3.9
								c0.6,0.2,1.2,0.8,1.6,1.2c-1.9,0.2,0.8,2.5,1,3.8c-0.2-0.6,0.1-1,0.4-1.4c0.3-0.4,0.6-0.8,0.3-1.6c0,0,0.2,0.3,0.5,0.7
								c0.2,0.3,0.5,0.7,0.5,0.7c0.5-0.2,0-1.1-0.3-1.8c-0.3-0.7-0.4-1.4,0.5-1.1l0.6,1c0.9-0.7,2.2-0.9,3.3-1.1
								c1.1-0.3,2.1-0.6,2.8-2.1c0-0.5-0.3-1.3-0.7-2.1c-0.4-0.7-0.8-1.5-0.9-1.8c-0.6,0.5-1,1.3-1.3,2.1c-0.3,0.7-0.5,1.5-0.7,2.1
								l-0.7-1.8c0.1,0.6,0,1.2,0,1.8c0,0.5,0.1,1,0.5,1.3c-0.2,1.2-1.2-1.3-1.5,0.1c-0.9-1.8-0.5-2.2-1.2-3.7c0,0-0.1,0.3-0.2,0.6
								c-0.1,0.3-0.1,0.6-0.1,0.6c-0.1-0.8-0.8-0.3-1-1.1c-0.1,0.7-0.2,1.1-0.5,1.3c-0.2,0.2-0.6,0.3-0.9,0.3c-0.7,0-1.6,0-1.8,1
								l1-0.4c0.7,0.8,0.3,1.1,0.2,1.6c-1.4-0.8-1.4-0.4-2.6-0.2c0.1,1.2,1.5,2.7,0.9,3.4c-1.6-1.4-1.8,0.6-3.4-0.1
								c1.7,1.2-0.3,2,0.8,2.7c0.2,0.6-0.3,1.1-1.3,0.7c0-0.1-0.2-0.3-0.2-0.5l-0.3,0.4c-0.2-0.1-0.4-0.2-0.4-0.3
								c-0.2,0.4,1.2,1,0,1.1c-0.5-0.2-0.4-0.5-0.5-0.8c-0.4,0.5,0.1,1.3,0.5,2c0.4,0.7,0.6,1.2-0.4,1.4c0.9,0.5,0.6,1.7,2.8,2.1
								c-0.8,0.1-2.5-0.5-2.4,0.5c1.7,1-0.9,0.9,0.1,1.8c-1.7-1.3-0.5-0.1-2.2-1.3c-0.9,0.5,1.3,2,0.8,3c-0.5,0-1-0.1-1.5,0
								c0.6,0.5,2,1.2,0.4,1.4l1.3,0.1c-0.8,0.6-0.5,1.7-2,2.4c0,0,0.6,0.3,1.2,0.6c0.6,0.3,1.2,0.6,1.2,0.6c-2.8,1-0.5,2.9,1.8,3.9
								c-0.1,0.4-0.6,1.1-1.2,1.1c-0.2-0.1-0.6-0.3-0.9-0.5c-0.1,0.6-1.6,1.4,0.5,1.8c0.6,0.7-1.5,0.5-1.8,1
								c1.5,0.7,0.9,1.7,0.6,2.6c-0.3,0.9-0.4,1.7,1.8,1.8c0-0.6,0.9-1.6,0.6-2.7c0.6,0.3,1.4,0,1.5,0.4c0.2,1-1.4,1.6-0.6,2.6
								l-2.9,0c-1.4,1-0.4,1.8,0.5,2.6C37.1,56,37.9,56.7,35.9,57.6z"/>
							<path d="M35.6,43.9l-1.5,0.7l1.2,0C35.1,44.3,35.1,44.1,35.6,43.9z"/>
							<path d="M35.3,44.6c0.1,0.2,0.3,0.3,0.6,0.5c0-0.2,0-0.3-0.3-0.5L35.3,44.6z"/>
							<path d="M36.6,60.6c-0.1,0.2-0.3,0.5,0.1,0.8C37,61.2,37.1,60.7,36.6,60.6z"/>
							<polygon points="37.6,61.4 38,60.9 37.7,60.9 							"/>
							<path d="M43.7,82.8l2,0.8c-0.8,0.4,0.5,1.5-1.1,1.4c2.2,0.2,0.6,2.2,3.4,1c-1.8-3.2-1.1-8.3-4.4-11.8l1.3,0.4
								c-2.7-1.7,2.1-3.3-2.9-4.2l2.4-0.2c0.5-1.1-3.7-1.3-1.4-2.7l-1,0.2c0-0.3,0.4-0.4,0.4-0.7L42,67.3c-1.1-0.6-1-1-0.4-1.8
								c0.8-0.2,0.4,0.3,0.6,0.5c0.7-0.4-1-0.7-1-1.3c0.6-0.5,1.1-0.1,1.4-0.1c-1.3-1.5,1.2-2.5-2.5-3.2c-0.7,0-1.2,0.6-1.6,0
								c-1,1.2,0.5,1.9,1.6,2.8l0-0.3c3.6,0.3-0.7,0.7,1,1.7c-1.5-0.1-1.5-0.7-2.3-0.8c-2.5,1.8,2.3,1.8-1,3.2l-0.1-0.1
								c-0.3,0.3,0.4,0.6,0.8,0.8c0.4-0.2,0.6-0.5,0.9-0.8c0.4,0.3,1.9,0.2,2.6,0.2c-1.5,0.6,0.8,0.4,0.1,1.1
								c-1.4,0.4-1.4-0.3-2.2-0.4l1.1,0.6c0.2,0.6-1.4,0.9-2.2,1.3c1.2,0.4,0.7-0.4,2.3-0.2c-1.6,1-0.7,3.9,1,5
								c-0.3-0.4-1.5,0.1-1.4-0.5c-0.3,0.3,0.6,0.9,1.7,0.7c1.1,0.8,0.7,2.1-0.1,3.3l1-0.5c2,0.4-1,2.2,0.4,3.3l0,0
								c0.3,0.4,3,0.2,2.7,1.1C45,83,45,82.5,43.7,82.8z"/>
							<path d="M47.3,87l-1.6-0.1c-0.2,0.6,1.8,0.7,2.8,0.4c-0.4-0.2,0.2-0.8-0.7-0.7C47.5,86.7,47,86.8,47.3,87z"/>
							<path d="M49.7,95.7c0.4,0.1,0.9-0.1,1.4-0.2c-0.7-1.8-1.9-3.9-0.9-5c0.3-0.7-2-0.3-2.7-1l1.4-0.7c-1.1-0.2,0.3-1.9-2.1-0.8
								c-0.2,0.1,1.3,0.1,0.9,0.6l-0.9,0.1l0.5,0.8l-1.1,0c-1.2,1.5,3.4,0,2.8,1.7l-2.1,0.5c0.1,1,1,1.3-0.1,2.4
								c0,0,1.1-0.3,0.6-0.3c0.1-0.2,0.9-0.6,1.5-0.7c2,1-1.3,0.1-1.9,1.3c1.8,0.8,3.6,2.8,2.1,3.9c1.1-0.9,2.7-0.5,2.8,0.2
								c-0.7,0.5-1.3,0.2-2,0.2c-0.1,0.4-0.6,0.8-0.2,1c1-0.8,2.7-0.9,3.6-0.5C54.2,97.6,49.9,97.4,49.7,95.7z"/>
							<path d="M51.7,95.7c-0.1-0.1-0.3-0.2-0.6-0.1c0.1,0.2,0.2,0.4,0.2,0.6L51.7,95.7z"/>
						</g>
					</g>
				</g>
			</g>
		</g>
	</g>
	<g>
		<g>
			<g>
				<g>
					<g>
						<g>
							<path d="M85.2,102.9c0,0,0.1,0.2,0.2,0.4c0.1,0.2,0.2,0.4,0.2,0.4l0.8-1.1L85.2,102.9z"/>
							<path d="M86.1,108.8c0,0,0.4,0,0.7,0c0.3,0,0.7,0,0.7,0c0.4-1.9,0.7-2.6,0.8-3.1c0.1-0.5,0.1-1-0.2-2.7
								c-0.8,0.3-2.7,0.9-3.2,2.4c0.5,0.1,1.8-1,2.2-0.3c-0.7,0.9-1.4,0.5-2.3,1.6c0.6,1.6,1.1-0.5,2,0.5L86.1,108.8z"/>
							<path d="M89,105.7c-0.3,0.6-0.7,1.2-0.9,1.7C88.4,106.8,89.3,106.3,89,105.7z"/>
							<path d="M89.8,105.6c0.7,0.4-0.5,1.3-0.5,1.6c0,0,0.4-0.5,0.8-1c0.4-0.5,0.8-1.1,0.8-1.1L89.8,105.6z"/>
							<path d="M92.7,106.7c0.1,0,0.3-0.1,0.4-0.1C93.1,106.2,92.9,106.5,92.7,106.7z"/>
							<path d="M94.2,106.8c-0.1-0.9-0.6-0.5-1.1-0.2c0,0,0,0.1,0,0.2c0.2,0.8-0.6,2.5-1.2,1.8c-0.8,0.2-0.3-1.5-1.2-0.6
								c0,0,0.1,0.4,0.2,0.8c0.1,0.4,0.2,0.8,0.2,0.8C92.3,109.8,93.6,107.4,94.2,106.8z"/>
							<path d="M92.7,106.7c-0.1,0-0.3,0-0.4,0C92.3,107.1,92.5,106.9,92.7,106.7z"/>
							<polygon points="91.2,106.1 90.8,106.3 90.6,107.1 							"/>
							<path d="M96.7,107.1c-0.2,1.2-0.7,1.1-1.1,0.9c-0.4-0.2-0.8-0.5-1.1,0.4c1,0.1,1.6,2,1.2,3.3c0,0,0.3-0.1,0.7-0.3
								c0.3-0.1,0.7-0.3,0.7-0.3C97.5,110.2,97.1,108.4,96.7,107.1z"/>
							<path d="M98.6,113.5c0.1-0.2,0.2-0.3,0.3-0.4C98.8,113.2,98.7,113.3,98.6,113.5z"/>
							<path d="M105.1,108.1c0,0,0,0.2-0.2,0.6c-0.1,0.2-0.3,0.4-0.5,0.6c-0.1,0.1-0.2,0.2-0.3,0.4l-0.2,0.2l-0.1,0.1l0,0l0,0
								c0.1,0-0.2,0-0.2,0l0,0l0,0l0,0l0,0c-0.5,0.7-1,1.5-1,1.5c0.1-0.8-0.2-1.6,0.4-1.9c-1.1-0.1-1.2,1.4-2.5,1.3
								c-0.2-1.1,0.3-1.2,0.7-1.3c0.5-0.1,0.9-0.1,0.4-1.1c-0.4,0.1-0.8,0.1-1.2,0.5c-0.4,0.3-0.8,0.8-1.2,1.8c0,0-0.3-0.4-0.6-0.8
								c-0.3-0.4-0.5-0.8-0.5-0.8s0.1,0.6,0.1,1.3c0.1,0.6,0.1,1.3,0.1,1.3c0.5,0.7,1.1-2,1.4-0.2c0.2,1.1-0.4,1.3-0.8,1.5
								c0.2-0.1,0.5-0.1,0.8,0.1c0.1,0.1,0.3,0.2,0.5,0.3c0.2,0.1,0.4,0.2,0.6,0.3c0.9,0.4,2.3,0.8,2.8,0.5c0.3-0.1,0.5-0.5,0.6-0.9
								l0,0l0,0l0,0l0,0c0.7-0.2,0.2,0,0.4-0.1l0,0l0,0l0.1-0.1c0-0.1,0.1-0.1,0.1-0.2c0.1-0.1,0.1-0.3,0.2-0.5
								c0.1-0.3,0.1-0.6,0.1-0.9c0-0.6,0-1.3-0.1-1.9c0-0.3,0-0.6,0-0.8C105,108.5,105,108.3,105.1,108.1z"/>
							<polygon points="106.6,110.4 107.4,111.1 106.5,110 							"/>
							<path d="M107.3,105.7c0,0,0,0.5,0,1.1c0,0.5-0.1,1.1-0.1,1.1c-0.3-0.1-0.7-0.4-1-0.7c0.4,0.4,0.7,1.5,1,1.8
								c1,0.7,1.3,0.2,1.3-0.5c0.1-0.7-0.2-1.7,0-2.1c2.2-0.7,0.8,1,2.9,1.9c-0.5,0.4-0.9,0-1.6,0.5c1.3,0.5,2,0,2.2-0.8
								c0.2-0.7,0.1-1.7,0.2-2.2c-0.3,0-0.9-0.4-1,0l0-1.1C109.2,104.1,108.5,104.3,107.3,105.7z"/>
							<path d="M105.3,107.4c0.4-0.4,0.6-0.4,0.8-0.2C105.7,106.7,105.3,106.5,105.3,107.4z"/>
							<path d="M112.4,105.4c-0.2,0-0.2,0.1-0.3,0.4C112.3,105.8,112.4,105.7,112.4,105.4z"/>
							<path d="M109.9,104.2c0,0,0.2-0.1,0.4-0.3c0.2-0.1,0.4-0.3,0.4-0.3l-1-0.4C109.7,103.4,109.5,103.8,109.9,104.2z"/>
							<path d="M132.8,75c-0.9-0.3-1.4-0.2-1.6,0.6c-1.1-0.6-0.5-1.4-0.9-2.1c-1.1,0.6-1.3-0.6-2.5-0.9c-0.6,0.9,0.7,2-0.1,2.9
								c-0.3-0.2-0.8-0.4-1.2-0.5c0.1,1.6,0.1,4.2-1.5,4.9c-1,0.9-1,2.1-1.2,3.6c-2.9,3.8-4.5,8.6-8.4,12.1l1.5,2
								c-1.1-0.5-0.7,1-1.9-0.1c0.4,0,0.4-0.4,0.5-0.7c-2.3-0.4-1.6,2.4-3,3c0.4,0.2,2.2,1.3,2.2,1.8c-2-1.8-1,1.3-3.6-0.4
								c-1.4,0.5,1.7,1.6,0.5,2.3c1.1,1.2,1.5-0.5,2.5,0.1c0.7,1.2-1.3,0.6,0,1.7c1.1-0.6,1.7-2.3,2.1-4.2c0.2-1,0.4-1.9,0.6-2.9
								c0.2-1,0.4-1.9,0.7-2.7l1,1.1c0.2-2,1.7-4.3,4.4-4.2c-1.4-0.5,2-1.8-0.8-3.3c0.8,0,0.8-0.2,1.4-0.6l-0.8-0.7
								c0.5-0.7,1.7,0.2,2.2-0.7c-1.5-0.1-1.5-1-2.3-1.8c1.9-0.2,3.7-0.7,5.3-1.1c-0.4-0.1-0.9-0.3-1.6-0.3c0.8-0.4-0.4-0.9-0.8-1.3
								c0.3-0.6,1.8,0.3,2.5,0.7c1.1-0.9-1.6-2.9-0.2-3.2l-1.4-0.4c0.3-1.3,2.1-1.5,2.4-3c2,0.2,1,1.8,1.4,2.7
								c0.5-0.1,0.9-0.6,1.5-0.5c-0.6-1-1.4-2.5-1.9-3.6C131.8,77.1,132.4,75.4,132.8,75z"/>
							<path d="M131.9,79c0.2,0.3,0.3,0.5,0.5,0.7c0-0.2-0.1-0.4,0.1-0.5C132.3,79.1,132.1,79.1,131.9,79z"/>
							<path d="M132.8,75c0.1,0,0.1,0,0.2,0.1C132.9,74.9,132.9,74.9,132.8,75z"/>
							<path d="M124.7,80.1c0.1,0,0.1-0.1,0.2-0.1c0.1-0.1,0.1-0.1,0.2-0.2L124.7,80.1z"/>
							<path d="M129.9,84c-0.6,0-1.2,0.1-1.8,0.2C128.6,84.5,129.1,84.6,129.9,84z"/>
							<path d="M124,90.9c0.1,0.4,0.5,0.5,0.8,0.9C125.2,91.3,124.9,90.9,124,90.9z"/>
							<polygon points="133,77.8 133,76.6 132.9,76.1 							"/>
							<path d="M133.8,54.8c-1.8,0.5-1.2,2-1.9,3c0.2,2.2,3.4,1.3,3,3.3l-3.2-1.4c-0.4,1.9-2,4.3,0.2,7c-0.5,0-1.1,0.1-1.3-0.5
								c-0.4,1.3,4.4,2.5,2.6,3.7c-1.3-2.4-2.1-0.3-3.9-1.5l-0.1-0.3c-0.2,1.1,0.2,2.9-0.2,3.6c0.8,0.4,2.3,0.3,2,1.3
								c0.3-0.3,1.2,0.3,2,0.7c-0.5-1.4,0.3-1.7-0.5-2.7c1.3-0.1,0.2,0.5,1.5,0.4l-0.7-1.2c0.5-0.5,0.8,1.1,1.4,0.2
								c-0.6-0.4-1-1.4-0.5-2l0.3,0.4c-0.2-0.7,0.6-1.3-1.3-1.7l2,0l-1.3-0.4c1.1-1.3,4.2-0.8,3.4-3.4c-0.5,0.3-1.1-0.3-1.2-0.6
								c-1.1,0.5,0.6,1.3,0.5,2.2c-1.3-0.3-2.3-2.2-3.4-1.5c1.8-0.5,0.5-2,3.7-1.4c0.6-1.2-0.8-2.2,0.3-3.2l0.4,0.2
								c-2-0.8,1.3-0.8-0.6-2.3l-0.6,0.5c-0.8-0.3-0.8-0.6-0.8-1.1c0.3,0.1,0.3,0.1,0.8,0.1c-1.5-0.6-1.4-2-1.8-2.3
								c-0.4,0.5,0.6,1.6,0.9,2.4C134.7,55.5,133.4,55.3,133.8,54.8z"/>
							<path d="M135,69.3l-0.5-0.7C134.5,68.8,134.6,69,135,69.3z"/>
							<path d="M137.8,49.7c0.5-0.8,1.3,0.5,2.1-0.2c-0.9-1-2.4,0.5-3.8-0.6c1-0.3-0.4-1.4-0.4-1.7c0.9,0.5,2.9,0.7,3.4,0.6
								c-0.5-0.4,0.6-1,0.8-1.5c-1.5,1.2-0.6-1.2-2.2-0.2c-1.2-0.3-1.9-1.6-0.9-2c0.9,0.1,0.6,0.5,0.6,0.9c1.6,0.5,1-0.7,2.6-0.7
								c-1.1-0.8-1.5-2.2-2.1-3.3c-0.6-1.1-1.5-1.8-3.4-1.4c-0.7,0.4,0.2,0.8,0.3,1.2c0.9-1.2,2,0.1,2.6,0.3
								c-0.7,0.5,0.4,1.6-0.9,1.2l-1.3-1c-0.5,1.3-0.7,2.9-1,4.6c-0.2,1.7-0.3,3.4-0.4,5l0.4-1.3c1,0.4,0.9,1,1.3,1.6l2.6-0.2
								c-0.3,0.4,0,0.8-0.8,0.6c0.9,0.7,1.6,0.6,2.5,0.5c0.2,1.2-0.8,1.1,0.6,2.3c2.5-1.3-1.3-1.9,0.9-3.6L137.8,49.7z"/>
							<polygon points="138.3,53.8 137.2,53.1 137.6,53.9 							"/>
							<path d="M133.1,51.9c0.5,0.1,0.7,0.4,1.2,0.5C134.9,51.7,134.2,51.7,133.1,51.9z"/>
							<path d="M140.1,43.1l-0.3-1.1l-0.5,0.7C139.8,42.6,140,42.9,140.1,43.1z"/>
							<path d="M134,35.4c0.2,0.7,0.5,1.2,0.6,1.7c0.1,0.5,0.1,1.1-0.6,1.8c1.6,0.9,3.1-0.2,4.5,0.2c0.4-0.8-2.4-0.8-2.9-1.7
								c1.4-0.3-0.2-1.2,0-2C135.2,35.6,134.6,35.6,134,35.4z"/>
							<path d="M139.1,30.1c-0.1-0.7-1.2-1.3-0.6-1.9c0.9,0,1.2,0.3,1.1,0.8c1.9-0.5-0.4-0.7,0.8-1.7c-0.2,0.1-0.5,0.4-1,0.3
								c0.1-2-1.8-0.8-1.1-3.4c-0.6-0.2-0.7-0.6-2-0.2c1.3-1.7,1.4-1,2.4-3.1c-0.7,0.3-2.3,1.3-3.9,1.7c0.8-1.4,0.6-2,0.3-2.3
								c-0.3-0.4-0.7-0.7-0.1-1.6c0.1,0.1,0.6,0.2,0.5,0.6c2.1-1-0.8-1-0.7-1.9l1.9-0.7c-0.5-0.7-2.4-1.3-1.5-2.9l1-0.2
								c-2.2-1.3-2.8-3.4-4.3-4.4c0,0,0-0.1,0.1-0.2c0-0.1,0.1-0.1,0.1-0.2l0.1-0.1l0,0l0,0l0,0l0,0l0,0c-0.2-0.2,0-0.1-0.1-0.1l0,0
								l0,0l0-0.1c0.1-0.4,0.2-0.7,0.2-0.7c-1.3-0.6-1.1,0.1-1,0.8l0,0.3l0,0.1l0,0.1l0,0v0c0,0-0.1-0.1,0.1,0.1l0,0l0,0l0,0l0,0
								c0,0.2-0.1,0.4-0.2,0.5c-0.2,0.3-0.7,0.6-1.5,0.6c1.5-1.1,1-1.2,0.3-1.2c-0.7,0-1.7,0.1-1.5-0.9c0.4-0.7,0.7-0.6,1.1-0.4
								c0.4,0.1,0.7,0.2,1.2-0.5c-1.6,0.9-0.9-0.2-1.8-0.4c0.7-0.5,0.5-0.9,0.3-1.2c-0.2-0.3-0.4-0.6,0.5-1.2c0,0-1.1,0.1-2.1,0.2
								c-1.1,0.2-2,0.5-2,0.5c0.3-1.1-0.5-1.3-1.1-1.4c0.6,0.4,0.2,0.9-0.3,1.5c-0.4,0.6-0.9,1.4-0.6,2c0.4,0.1,1,0.2,1.5,0.5
								c0.5,0.3,1.1,0.6,1.6,1.1c0.2,0.2,0.5,0.5,0.7,0.7c0.2,0.3,0.4,0.6,0.6,0.9c0.1,0.1,0.2,0.3,0.3,0.4l0.1,0.1l0,0.1l0,0l0,0
								l0,0l0,0c0,0-0.1-0.1,0-0.1l0,0l0.1,0.2c0.1,0.3,0.2,0.7,0.3,1c2.2-1,0.8,1.4,2.7,0.8c-0.6,0.5-1.1,1-1.7,1.4
								c1.2,1.2,1-1,1.9-1.1c0.7,0.5-0.4,1.8-1.2,2.1c0.4,1.1,0.6-0.2,2-0.3c0,0-0.5,0.5-1,1c-0.5,0.5-1,0.9-1,0.9
								c0.3,0.3,0.6,0.7,0.9,1.1c0.3,0.4,0.6,0.8,0.9,1.2c0.3,0.4,0.6,0.9,0.9,1.3l0.4,0.7l0.4,0.7c0.4,1,0.9,2,1.1,3.1
								c0.2,1.1,0.2,2.2,0,3.3l1.6-0.6c-0.3,1,0.7,1.7,1.4,2.4c0.7,0.7,1,1.5-0.7,2.5l1.4,0.5c-0.8-0.3-2.5,0.5-3.6,0
								c0.6,0.5,0,1,0.5,1.6l0.8-1c1.4,0.6,0.6,1.4-0.6,1.6c1.7,1.4,2.9-0.9,4.2-1.3c-1.6-1-0.8-1.5,0.1-2.1
								c0.9-0.6,2.1-1.2,1.3-2.2C140.4,28.6,140,30.1,139.1,30.1z"/>
							<path d="M134.8,33c0.1,0.1,0.3,0.2,0.5,0.3C135.1,33.2,135,33.1,134.8,33z"/>
							<path d="M124.6,3.6c-0.1-0.1-0.4-0.1-0.6-0.2C123.6,3.8,124.1,3.6,124.6,3.6z"/>
							<path d="M135.8,35.5C135.8,35.5,135.8,35.5,135.8,35.5C135.8,35.5,135.8,35.5,135.8,35.5C135.8,35.5,135.8,35.5,135.8,35.5z"
								/>
							<polygon points="139.9,36.4 139.9,35.9 139.2,36 							"/>
							<path d="M117.5,1.2l0.3,0.8C117.8,1.8,117.7,1.5,117.5,1.2z"/>
							<path d="M105.3,13.8l0.2-0.3C105.3,13.5,105.2,13.6,105.3,13.8z"/>
							<path d="M94.3,49.7c0.2,1.1,0.4,2.5,1.6,3.6L95,53c0.3,0.6,1.2,2.7,3,2l-0.7-0.5C96.4,53,99,54,99.8,53.2
								c-0.1-1.2-3.1-2.8-2.1-3.6c0-0.5,0.9-0.2,1.5,0.1c0.5-1-1.8-2-1.9-2.8c6.4,1.5-0.9-3.6,3.6-4c-0.2-1.1,0.7-2.2-0.2-3.8
								c1.4,1.1,0.5-1.1,2.2-0.3c-3.6-1.5,2.7-2.9-1.8-4.6c1.8-1.2-0.3-0.2,1.4-1.7c0.5,0.2,0.4,0.5,0.5,0.6
								c1.2-0.4-1.6-1.8,0.7-1.7c0.9-1.4-1.1-0.7-2-2c1.1-1.4,1.6-0.7,3.8-0.9c-2.1-1-0.7-1.5-1.5-2.7c-0.2,0.1-1,1-1.6,0
								c1.1-1.7-0.9-2-0.7-4c2.7,0.1-0.6,1.7,1.8,1c0.7,1.5,0.2,2.3,1.7,3.5c0.7-1.4,1-3.2,0.7-5.2c0.7-0.7,0.9,0.9,1.4,0.3
								c1.7-1-1.3-3.4,0.3-4.1l1.1,0.8c-1.2-1.5,1.6-2.4,1.5-4.2c-0.7-0.2-1.1-0.3-1.4-0.7c1.4,0.8,1.3,0.2,1.2-0.7
								c-0.1-0.9-0.1-2.1,1.2-2.1c-1.8-1.1-1.9-3-1.4-4c0.7,0.1,1.3,0.7,1.7,1c-2,0.5,0.9,2.6,1,4.1c-0.2-0.7,0.2-1.2,0.5-1.8
								c0.4-0.5,0.7-1,0.4-1.9l1,1.3c0.5-0.4,0-1.2-0.3-2c-0.4-0.8-0.5-1.4,0.6-1.4l0.7,1c1-1,2.5-1.5,3.7-1.7
								c1.3-0.2,2.1-0.3,3.6-1.3c0.3-0.5,0.3-1.3,0.1-2.2c-0.2-0.9-0.5-1.7-0.5-2.1c-0.6,0.2-1.1,0.4-1.5,0.7
								c-0.4,0.3-0.8,0.7-1.1,1c-0.6,0.7-0.9,1.6-1.3,2.1L117.8,2c0.1,0.7-0.1,1.3-0.2,1.9c-0.1,0.6,0,1,0.6,1.3
								c-0.1,0.6-0.4,0.3-0.8,0.1c-0.3-0.3-0.7-0.5-0.9,0.2c-1.1-1.7-0.6-2.2-1.4-3.6c0,0-0.1,0.4-0.2,0.7c-0.1,0.4-0.2,0.7-0.2,0.7
								c-0.2-0.8-0.9-0.1-1.1-1c-0.1,1.6-0.7,1.8-1.5,2c-0.8,0.2-1.7,0.3-1.9,1.4c0,0,0.2-0.2,0.5-0.3c0.2-0.1,0.5-0.3,0.5-0.3
								c0.8,0.8,0.3,1.1,0.3,1.7c-1.5-0.6-1.5-0.2-2.7,0.1c0.2,1.2,1.5,2.7,1,3.5c-1.6-1.3-1.9,0.9-3.5,0.1c1.7,1.3-0.4,2.2,0.6,2.9
								c0.1,0.7-0.5,1.2-1.4,0.7c0-0.1-0.1-0.3-0.1-0.5l-0.3,0.5c-0.2-0.2-0.4-0.2-0.4-0.3c-0.3,0.4,1.1,1.1-0.1,1.2
								c-0.5-0.3-0.3-0.6-0.4-0.9c-1,1.1,1.8,3.5-0.4,3.6c0.8,0.6,0.3,2,2.4,2.6c-0.9,0-2.4-0.8-2.6,0.3c1.5,1.3-1.1,0.9-0.3,2.1
								c-1.4-1.8-0.5-0.2-1.8-1.8c-1,0.4,0.9,2.4,0.1,3.4c-0.5,0-1-0.2-1.4-0.3c0.4,0.7,1.7,1.8,0.1,1.6l1.3,0.4
								c-0.9,0.6-1,1.9-2.7,2.3l2,1.9c-3,0.5-1.4,3.2,0.4,5c-0.3,0.5-0.9,1.1-1.5,0.9c-0.2-0.2-0.5-0.5-0.7-0.8
								c-0.3,0.7-2,1.2-0.1,2.3c0.4,1-1.6,0.1-2.1,0.6c2.3,2.4-3.5,4,0.7,5.7c0.2-0.6,1.4-1.6,1.6-2.9c0.4,0.5,1.3,0.5,1.3,1
								c-0.2,1.3-1.9,1.4-1.6,2.8L96,44.1C92.6,45.4,98.7,49.1,94.3,49.7z"/>
							<path d="M99,34.1l-1.7,0.4l1.2,0.3C98.4,34.4,98.5,34.2,99,34.1z"/>
							<path d="M98.5,34.8c0.1,0.2,0.2,0.5,0.4,0.7c0.1-0.2,0.1-0.4-0.1-0.6L98.5,34.8z"/>
							<path d="M93.8,53.4c-0.2,0.2-0.5,0.5-0.3,1C93.9,54.2,94.2,53.7,93.8,53.4z"/>
							<polygon points="94.3,54.6 94.9,54.3 94.6,54.2 							"/>
							<path d="M90.8,81.4l1.4,1.8c-0.9,0.1-0.2,1.9-1.6,1.1c1.9,1.3-0.5,2.7,2.6,2.6c-0.2-4.4,2.7-9.9,1.2-15.3l1,1
								c-1.8-3,3.3-2.9-0.8-6l2.3,0.8c0.9-1-2.9-3-0.1-3.6l-1-0.1c0.1-0.3,0.5-0.3,0.6-0.7l-0.5,0c-0.8-1.1-0.5-1.6,0.3-2.2
								c0.8,0.1,0.2,0.5,0.4,0.8c0.9-0.2-0.6-1.2-0.4-1.9c0.8-0.3,1.1,0.3,1.4,0.4c-0.6-2.2,2.1-2.4-1-4.7c-0.6-0.3-1.3,0.2-1.4-0.6
								c-1.4,1-0.3,2.4,0.4,3.8l0.1-0.3c3.2,1.8-0.9,0.5,0.2,2.4C94.5,60,94.7,59.4,94,59c-3,1.1,1.4,2.9-2.2,3.3l-0.1-0.2
								c-0.4,0.2,0.1,0.8,0.4,1.3c0.5,0,0.8-0.4,1.2-0.5c0.2,0.5,1.7,1,2.3,1.3c-1.6,0.1,0.6,0.8-0.3,1.3c-1.5-0.1-1.1-0.9-1.8-1.3
								l0.8,1.1c-0.1,0.8-1.7,0.4-2.5,0.6c0.9,0.9,0.8-0.2,2.2,0.7c-1.9,0.4-2.3,4.1-1.3,6.1c-0.1-0.6-1.5-0.5-1.1-1.2
								c-0.4,0.2,0.2,1.3,1.2,1.5c0.7,1.4-0.3,2.7-1.5,3.6l1.2-0.1c1.6,1.3-1.8,2-1.1,3.9l0,0c0.1,0.6,2.7,1.6,1.9,2.4
								C91.9,82.1,92.1,81.6,90.8,81.4z"/>
							<path d="M92.2,87.6l-1.4-0.8c-0.4,0.5,1.3,1.6,2.3,1.7c-0.2-0.5,0.5-0.8-0.3-1.1C92.6,87.5,92,87.3,92.2,87.6z"/>
							<path d="M90.4,98.6c0.3,0.3,0.9,0.3,1.3,0.5c0.2-2.3,0.1-5.3,1.5-6c0.6-0.7-1.7-1.3-2-2.3l1.6-0.2c-0.9-0.7,1.1-2-1.5-1.9
								c-0.2,0,1.1,0.7,0.6,1.1L91,89.5l0.1,1.1l-1-0.5c-1.8,1.1,3.1,1.6,1.7,3.2l-2.2-0.4c-0.3,1.1,0.3,1.9-1.2,2.7
								c0,0,1.1,0.2,0.7-0.1c0.1-0.2,1.1-0.3,1.7,0c1.4,2.1-1.2-0.5-2.4,0.6c1.2,1.8,2,4.9,0.1,5.4c1.4-0.5,2.6,0.8,2.4,1.6
								c-0.8,0.3-1.3-0.5-1.9-0.7c-0.3,0.4-0.9,0.6-0.6,1c1.3-0.3,2.9,0.3,3.5,1.3C93.5,102.9,89.8,100.6,90.4,98.6z"/>
							<path d="M92.2,99.5c0-0.2-0.2-0.3-0.4-0.4c0,0.3-0.1,0.6-0.1,0.8L92.2,99.5z"/>
						</g>
					</g>
				</g>
			</g>
		</g>
	</g>
	<g>
		<g>
			<g>
				<g>
					<g>
						<g>
							<path d="M124.1,133.2c0,0-0.5,0.6-0.5,0.6l1.4,0.2L124.1,133.2z"/>
							<path d="M119.4,136.7c0,0,0.2,0.3,0.4,0.6c0.2,0.3,0.4,0.6,0.4,0.6c1.9-0.7,2.6-0.7,3.1-0.9c0.5-0.2,0.9-0.5,2.2-1.4
								c-0.7-0.5-2.1-1.7-3.6-1.5c0.2,0.5,1.7,1,1.3,1.7c-1.2-0.2-1.1-0.9-2.6-1.2c-1.1,1.2,1,0.7,0.6,1.9L119.4,136.7z"/>
							<path d="M123.5,137.6c-0.7,0-1.4,0-1.9,0.1C122.3,137.7,123.2,138.1,123.5,137.6z"/>
							<path d="M124,138.2c0,0.7-1.4,0.3-1.6,0.4c0,0,0.7,0.1,1.3,0.2c0.7,0.1,1.3,0.1,1.3,0.1s-0.3-0.2-0.5-0.3
								C124.3,138.3,124,138.2,124,138.2z"/>
							<path d="M124.6,141c0.1,0.1,0.2,0.2,0.3,0.2C125.3,141,124.9,141,124.6,141z"/>
							<path d="M125.4,142.2c0.7-0.6,0.1-0.7-0.5-1c0,0-0.1,0-0.1,0.1c-0.5,0.6-2.4,0.9-2.2,0.1c-0.6-0.6,1.1-1-0.2-1.3
								c0,0-0.3,0.3-0.6,0.6c-0.3,0.3-0.6,0.7-0.6,0.7C121.9,142.5,124.6,142.2,125.4,142.2z"/>
							<path d="M124.6,141c-0.1-0.1-0.2-0.2-0.2-0.3C124.2,141,124.4,141,124.6,141z"/>
							<polygon points="124.4,139.6 123.9,139.3 123.2,139.6 							"/>
							<path d="M126.7,144.2c-1,0.7-1.3,0.2-1.4-0.2c-0.1-0.5-0.1-0.9-1-0.6c0.3,0.4,0.1,1-0.2,1.7c-0.3,0.6-0.9,1.2-1.5,1.5
								c0,0,0.3,0.2,0.7,0.4c0.4,0.2,0.7,0.3,0.7,0.3C125.1,146.9,126,145.3,126.7,144.2z"/>
							<path d="M123.9,150.3c0.2-0.1,0.4-0.1,0.6-0.1C124.3,150.2,124.1,150.2,123.9,150.3z"/>
							<path d="M132.5,149.4c0,0-0.2,0.1-0.4,0.4c-0.1,0.1-0.2,0.2-0.4,0.4c-0.2,0.1-0.5,0.2-0.7,0.3c-0.5,0.2-1,0.4-1.4,0.5
								c-0.4,0.1-0.7,0.2-0.7,0.2c0.6-0.6,0.7-1.4,1.5-1.5c-0.6-0.3-1.1-0.2-1.6,0c-0.5,0.2-1,0.3-1.5-0.1c0.4-1.1,0.9-0.9,1.3-0.7
								c0.4,0.2,0.8,0.3,0.9-0.7c-0.7-0.2-1.6-0.6-3.3,0.5c0,0,0-0.5,0-1c0-0.5,0.1-1,0.1-1s-0.4,0.5-0.7,1
								c-0.4,0.5-0.7,1.1-0.7,1.1c0,0.5,0.6,0.3,1,0.2c0.4-0.1,0.7-0.2,0.4,0.6c-0.5,1-1.1,0.8-1.6,0.7c0.6,0.2,0.9,1,1.5,1.9
								c0.6,0.9,1.5,1.9,2.8,2.1c0.3,0.1,0.6,0,0.9,0c0.3-0.1,0.6-0.2,0.8-0.4c0.4-0.4,0.7-0.9,1-1.4
								C131.8,151.3,132,150,132.5,149.4z"/>
							<path d="M132.4,152.2c0,0,0,0.1,0,0.2c0,0,0,0,0,0.1l0,0l0.2,0l0,0l0,0l0,0l0,0l0,0c0,0.1,0,0.1,0,0.2
								c0.1,0.2,0.1,0.5,0.1,0.5l-0.2-1.3l0,0l0,0l0,0l0,0l-0.2,0c0,0,0,0,0,0c0,0,0,0.1,0,0.1C132.4,152.1,132.4,152.2,132.4,152.2
								z"/>
							<path d="M135.6,148.6c0,0-0.2,0.4-0.5,0.9c-0.3,0.4-0.6,0.9-0.6,0.9c-0.2-0.2-0.3-0.7-0.5-1.1c0.1,0.6-0.2,1.6-0.1,2
								c0.6,1.1,1,0.8,1.4,0.2c0.4-0.6,0.7-1.5,1-1.8c2.1,0.5,0.2,1.2,1.5,3.1c-0.6,0.1-0.7-0.4-1.6-0.4c0.9,1.1,1.6,1,2.2,0.5
								c0.5-0.5,0.9-1.4,1.2-1.8c-0.3-0.2-0.5-0.8-0.9-0.5l0.5-0.9C137.9,148.2,137.2,147.9,135.6,148.6z"/>
							<path d="M133.1,148.9c0.5-0.2,0.7,0,0.8,0.3C133.7,148.6,133.6,148.2,133.1,148.9z"/>
							<path d="M139.9,150.9c-0.1-0.1-0.2,0-0.4,0.2C139.7,151.2,139.8,151.2,139.9,150.9z"/>
							<path d="M138.4,148.6l1,0l-0.7-0.9C138.7,147.8,138.3,148.1,138.4,148.6z"/>
							<path d="M171.3,136.3c-0.6-0.7-1.1-0.9-1.6-0.4c-0.6-1.1,0.3-1.4,0.2-2.2c-1.2-0.1-0.8-1.2-1.7-2c-0.9,0.5-0.4,2-1.5,2.4
								c-0.1-0.3-0.5-0.8-0.8-1c-0.7,1.4-2,3.5-3.6,3.3c-1.3,0.3-1.8,1.2-2.7,2.3c-4.2,1.6-7.8,4.8-12.7,5.6l0.3,2.5
								c-0.7-1-1.1,0.4-1.5-1.1c0.4,0.2,0.5-0.1,0.8-0.3c-1.7-1.6-2.5,1.2-3.9,0.9c0.3,0.4,1.2,2.2,1,2.7c-0.8-2.5-1.4,0.6-2.7-2.2
								c-1.4-0.3,0.7,2.2-0.7,2.2c0.3,1.5,1.4,0.3,2.1,1.4c0,1.3-1.3-0.1-0.8,1.4c1.2,0,2.5-1.1,3.7-2.4c1.3-1.4,2.5-3,3.8-4.1
								l0.3,1.5c1.1-1.6,3.4-2.8,5.7-1.2c-0.9-1.1,2.5-0.4,0.9-3.1c0.7,0.5,0.8,0.3,1.4,0.3l-0.3-1c0.7-0.4,1.4,1.1,2.2,0.5
								c-1.2-0.9-0.8-1.6-1.1-2.7c1.7,0.8,3.4,1.4,4.9,2c-0.3-0.3-0.6-0.7-1.2-1.1c0.8,0.1,0.1-1,0-1.5c0.5-0.4,1.4,1.2,1.8,2
								c1.3-0.1,0-3.3,1.4-2.8l-1-1c0.9-0.9,2.5-0.1,3.4-1.3c1.6,1.3,0,2-0.1,3c0.4,0.2,1,0,1.5,0.4c0-1.2,0.1-2.8,0.1-4
								C169.5,137.5,170.9,136.4,171.3,136.3z"/>
							<path d="M168.7,139.2c0,0.3,0,0.6,0.1,0.9c0.1-0.2,0.1-0.3,0.3-0.4C169,139.5,168.8,139.3,168.7,139.2z"/>
							<path d="M171.3,136.3c0,0.1,0.1,0.1,0.1,0.2C171.5,136.3,171.5,136.2,171.3,136.3z"/>
							<path d="M162.2,136.2c0.1,0,0.1,0,0.2,0c0.1,0,0.1-0.1,0.2-0.1L162.2,136.2z"/>
							<path d="M164.6,142.3c-0.5-0.3-1-0.6-1.7-0.8C163.3,142,163.6,142.4,164.6,142.3z"/>
							<path d="M156.5,144.8c-0.1,0.3,0.2,0.6,0.2,1.1C157.2,145.8,157.2,145.3,156.5,144.8z"/>
							<polygon points="170.2,138.7 170.8,137.8 170.9,137.2 							"/>
							<path d="M181.8,120c-1.8-0.6-2,1-3,1.5c-0.9,2,2.3,2.9,1,4.3l-2.1-2.8c-1.2,1.4-3.7,2.5-3.1,5.9c-0.4-0.2-1-0.5-0.9-1.1
								c-0.9,0.9,2.5,4.3,0.4,4.4c0-2.7-1.6-1.3-2.6-3.3l0-0.3c-0.7,0.8-1.2,2.6-1.9,2.8c0.5,0.7,1.8,1.5,1.1,2.1
								c0.4-0.1,0.9,0.8,1.4,1.6c0.3-1.4,1.1-1.2,0.9-2.5c1.1,0.6-0.1,0.5,1,1.1l0-1.4c0.6-0.1,0.2,1.3,1.1,0.9
								c-0.3-0.6-0.2-1.6,0.5-2l0.1,0.4c0.2-0.7,1.1-0.7-0.3-2.1l1.7,1.1l-0.9-1c1.5-0.6,4,1.5,4.4-1c-0.6,0-0.7-0.8-0.7-1.2
								c-1.2-0.1-0.1,1.4-0.6,2.1c-0.9-0.9-0.9-3-2.1-3c1.8,0.5,1.3-1.4,3.8,0.8c1.1-0.7,0.4-2.2,1.8-2.5l0.3,0.4
								c-1.3-1.7,1.4,0,0.6-2.3l-0.8,0.1c-0.6-0.7-0.4-0.9-0.2-1.3c0.2,0.3,0.2,0.3,0.6,0.5c-1-1.2-0.2-2.4-0.4-2.8
								c-0.6,0.2-0.2,1.6-0.4,2.4C182.2,121.1,181.2,120.3,181.8,120z"/>
							<path d="M175.9,132.7l-0.1-0.8C175.7,132,175.8,132.3,175.9,132.7z"/>
							<path d="M187.5,117.8c0.8-0.4,0.9,1,1.9,0.9c-0.3-1.3-2.3-0.7-3.1-2.3c1,0.2,0.3-1.4,0.4-1.6c0.5,0.8,2.3,2,2.7,2.1
								c-0.3-0.6,1-0.5,1.3-0.9c-1.8,0.3,0-1.4-1.8-1.2c-0.9-0.8-1-2.3,0.1-2.1c0.7,0.5,0.3,0.7,0.2,1c1.2,1.2,1.2-0.1,2.6,0.6
								c-0.6-1.2-0.3-2.6-0.5-3.8c-0.1-1.2-0.5-2.2-2.4-2.7c-0.8,0-0.2,0.7-0.3,1.1c1.3-0.6,1.7,1,2.2,1.5c-0.8,0.1-0.3,1.5-1.3,0.6
								l-0.8-1.5c-0.9,0.9-2,2-2.8,3.4c-0.4,0.6-0.9,1.3-1.3,2c-0.4,0.7-0.8,1.4-1.2,2c0,0,0.2-0.2,0.5-0.5c0.2-0.2,0.4-0.5,0.4-0.5
								c0.7,0.8,0.3,1.3,0.4,2l2.3,1.2c-0.4,0.2-0.4,0.7-1,0.1c0.5,1.1,1.1,1.3,1.9,1.7c-0.4,1.1-1.2,0.5-0.6,2.2
								c1.3,0,1.3-0.5,1.2-1.1c-0.1-0.6-0.1-1.2,1.2-1.4L187.5,117.8z"/>
							<polygon points="186,121.5 185.4,120.4 185.4,121.3 							"/>
							<path d="M182.4,117.3c0.4,0.4,0.4,0.7,0.8,1.1C184.1,118.1,183.4,117.6,182.4,117.3z"/>
							<path d="M192.5,113.3l0.2-1.1l-0.8,0.3C192.4,112.8,192.5,113.2,192.5,113.3z"/>
							<path d="M190.3,104.1c-0.4,1.2,0.4,2.3-1.4,3c1,1.4,2.8,1.2,4,2.2c0.7-0.5-1.8-1.8-1.9-2.7c1.4,0.4,0.2-1.2,0.9-1.7
								C191.3,104.8,190.7,104.5,190.3,104.1z"/>
							<path d="M196.9,101.7c0.2-0.7-0.7-1.6,0.1-1.9c0.8,0.3,1,0.8,0.7,1.1c2,0.3-0.1-0.8,1.4-1.2c-0.2,0-0.6,0.2-1-0.1
								c0.5-0.8,0.1-1.2-0.2-1.6c-0.3-0.4-0.4-0.8,0.3-1.9c-0.5-0.4-0.4-0.7-1.7-0.9c0.9-0.5,1.3-0.7,1.7-0.8
								c0.4-0.2,0.8-0.4,1.6-1.1c-0.8,0-2.6,0.4-4.2,0.3c1.2-1,1.2-1.5,1.1-2c-0.1-0.5-0.4-0.8,0.5-1.5c0.1,0.2,0.5,0.3,0.3,0.7
								c2.3-0.2-0.5-1.2-0.1-2l2,0c-0.2-0.4-0.6-0.9-0.8-1.4c-0.2-0.5-0.3-1,0.3-1.6l1,0.1c-0.9-0.9-1.3-1.9-1.6-2.8
								c-0.4-1-0.7-1.9-1.3-2.6c0,0,0.2-0.3,0.5-0.6c0.2-0.3,0.4-0.7,0.4-0.7c-1-0.9-1-0.2-1.2,0.5c-0.1,0.8-0.5,1.6-2.1,1.3
								c1.7-0.7,1.3-0.9,0.7-1.1c-0.6-0.2-1.6-0.3-1.2-1.1c1.1-1.1,1.2,0.8,2.5-0.4c-1.8,0.5-0.7-0.4-1.5-0.8
								c1.7-0.5-0.3-1.3,1.7-1.7c0,0-1-0.2-1.9-0.4c-0.2-0.1-0.5-0.1-0.7-0.2l0,0l0,0l0,0c0,0-0.1-0.1,0-0.1l0,0l0,0l0,0l-0.1,0
								l-0.2,0c-0.1,0-0.2,0-0.3,0c-0.4-0.1-0.6-0.1-0.6-0.1c0.7-0.8,0.3-1.3-0.2-1.6c0.5,1.1-2.4,1-2.6,2.5
								c0.2,0.2,0.4,0.3,0.6,0.5l0.2,0.2l0.1,0.1l0,0l0,0c0,0.1,0-0.1,0-0.1l0,0l0,0l0,0l0,0c0.1,0.1,0.2,0.2,0.3,0.4
								c0.4,0.5,0.8,1.1,1.1,1.7c0.3,0.6,0.6,1.3,0.8,1.9c0.1,0.6,0.2,1.3,0.1,1.9c1.2-0.2,1.3,0.1,1.3,0.5c0,0.4,0.1,0.8,1,0.8
								c-0.7,0.2-1.4,0.5-2.1,0.8c0.8,1.4,1.2-0.6,2.2-0.4c0.4,0.6-0.9,1.4-1.8,1.5c0.1,1.1,0.7,0,2.1,0.4c0,0-0.6,0.3-1.3,0.6
								c-0.6,0.3-1.3,0.5-1.3,0.5c0.1,0.2,0.2,0.4,0.3,0.6c0.1,0.2,0.1,0.4,0.2,0.6c0.1,0.4,0.3,0.9,0.5,1.3
								c0.2,0.5,0.3,0.9,0.5,1.4c0.1,0.5,0.2,1,0.2,1.5c0.1,1,0.2,2.1-0.1,3.1c-0.1,0.5-0.2,1-0.4,1.5c-0.2,0.5-0.4,0.9-0.7,1.3
								l1.7,0.1c-0.7,0.8,0,1.7,0.3,2.6c0.4,0.9,0.3,1.7-1.6,1.9l1.1,1c-0.6-0.6-2.4-0.6-3.3-1.5c0.3,0.6-0.4,0.9-0.1,1.5l1.1-0.5
								c1.1,1.1,0,1.5-1.2,1.1c0.9,1.9,3,0.5,4.4,0.7c-1-1.5-0.2-1.7,0.9-1.8c1.1-0.1,2.5-0.2,2.1-1.4
								C198.7,100.8,197.7,102,196.9,101.7z"/>
							<path d="M191.8,102.4c0.1,0.1,0.2,0.3,0.3,0.4C192.1,102.7,192,102.5,191.8,102.4z"/>
							<path d="M192.8,73.4c-0.1-0.1-0.2-0.3-0.4-0.4C192,73,192.4,73.2,192.8,73.4z"/>
							<path d="M191.8,104.9C191.8,104.9,191.9,104.9,191.8,104.9C191.9,104.9,191.9,104.9,191.8,104.9
								C191.8,104.9,191.8,104.9,191.8,104.9z"/>
							<polygon points="195.1,107.5 195.4,107 194.7,106.8 							"/>
							<path d="M191.2,67.4l-0.6,0.6C190.8,67.9,191,67.7,191.2,67.4z"/>
							<path d="M174.4,62.5l0.4-0.1C174.7,62.3,174.5,62.4,174.4,62.5z"/>
							<path d="M148.6,88c-0.2,1.1-0.5,2.4,0.3,3.8l-0.7-0.6c0,0.7,0.2,2.8,2.1,2.9l-0.5-0.6c-0.4-1.7,1.7,0.2,2.7-0.3
								c0.3-1.1-1.9-3.6-0.7-3.9c0.2-0.4,0.8,0.2,1.3,0.7c0.8-0.6-1-2.5-0.8-3.2c2.7,1.9,2.8,1.1,2.8-0.1c0-1.2-0.2-2.7,1.9-1.9
								c0.2-1,1.4-1.6,1.2-3.4c0.8,1.6,0.8-0.7,2.1,0.7c-1.3-1.4-0.4-1.7,0.4-2.2c0.8-0.4,1.5-0.8-0.2-2.6c2.1-0.2-0.2-0.3,1.9-0.8
								c0.4,0.4,0.2,0.6,0.1,0.8c1.2,0.2-0.7-2.3,1.3-1.1c1.3-0.7-0.7-1.1-1-2.7c1.6-0.6,1.7,0.1,3.6,1.1c-1.4-1.8,0-1.6-0.2-3
								c-0.2,0-1.3,0.4-1.3-0.8c1.7-0.9,0.2-2.1,1.3-3.7c2.2,1.5-1.4,1.1,1.1,1.8c-0.2,1.6-0.9,2-0.2,3.8c1.2-0.8,2.3-2.1,3-3.8
								c0.9-0.2,0.3,1.3,1,1.1c0.9,0.1,1.1-0.7,1.2-1.6c0.2-0.8,0.4-1.6,1.2-1.4l0.3,1.3c0-1,0.6-1.1,1.4-1.2c0.4,0,0.8,0,1.2-0.1
								c0.4-0.1,0.7-0.2,1-0.5c-0.3-0.6-0.5-1-0.4-1.5c0.4,1.6,0.7,1.1,1.3,0.5c0.3-0.3,0.7-0.7,1.1-0.8c0.4-0.1,0.9,0,1.2,0.6
								c0-1.1,0.4-1.8,1-2.4c0.6-0.5,1.4-0.7,2-0.7c0.3,0.7-0.1,1.5-0.2,2c-0.7-0.8-1.2-0.3-1.7,0.5c-0.5,0.8-0.8,1.9-1.3,2.3
								c0.4-0.5,1-0.5,1.6-0.4c0.6,0,1.1,0.1,1.7-0.4c0,0-0.2,0.4-0.4,0.7c-0.2,0.4-0.4,0.7-0.4,0.7c0.5,0.3,1-0.5,1.6-1
								c0.6-0.6,1.2-1,1.4,0.1l-0.7,1c1.2,0.6,1.9,2,2.6,3c0.7,1.1,1.5,2,3.3,2.3c1-0.3,2.3-2.6,2.9-3.1c-0.8-0.4-1.7-0.5-2.5-0.5
								c-0.9,0-1.7,0-2.3-0.1l1.4-1.3c-1.2,0.6-2.6,0.3-2.8,1.5c-1.2,0.2,0.7-1.7-0.7-1.5c1.3-1.5,2-1.2,3.1-2.4c0,0-0.4,0-0.7,0
								c-0.3,0-0.7,0.1-0.7,0.1c0.7-0.4-0.1-0.9,0.7-1.3c-1.5,0.3-1.9-0.1-2.3-0.9c-0.4-0.6-0.9-1.6-2.1-1.4c0,0,0.3,0.2,0.5,0.4
								c0.3,0.2,0.5,0.4,0.5,0.4c-0.2,0.5-0.5,0.7-0.7,0.7c-0.3,0.1-0.5,0-0.8,0.1c0-1.6-0.4-1.6-1.4-2.5c-0.6,0.3-1,1-1.5,1.5
								c-0.4,0.6-0.8,1-1.4,1c0.1-1-0.3-1.3-0.9-1.5c-0.6-0.2-1.2-0.3-1.4-1.2c0,1.1-0.5,1.3-1,1.5c-0.5,0.2-1,0.3-1,0.9
								c-0.4,0.6-1.2,0.6-1.6-0.4c0.1-0.1,0.2-0.3,0.3-0.5l-0.6,0.1c0-0.2-0.1-0.4,0-0.5c-0.6,0.1,0,1.6-1,0.9
								c-0.2-0.5,0.1-0.7,0.4-1c-0.7,0.1-1.1,1.1-1.3,1.9c-0.3,0.8-0.5,1.4-1.5,0.8c0.3,1-1,1.8,0.4,3.5c-0.7-0.5-1.5-2-2.3-1.2
								c0.5,1.9-1.4,0.1-1.4,1.6c-0.3-2.2-0.3-0.4-0.6-2.5c-0.5-0.1-0.7,0.5-0.8,1.2c-0.1,0.7-0.3,1.5-0.9,1.7
								c-0.4-0.3-0.7-0.7-1.1-1c0,0.8,0.6,2.3-0.7,1.4l0.9,1c-1.1,0-1.7,1.1-3.4,0.7c0,0,0.2,0.6,0.5,1.3c0.2,0.6,0.5,1.3,0.5,1.3
								c-2.9-1-2.6,2.1-1.6,4.5c-0.4,0.3-1.3,0.5-1.7,0.2c-0.1-0.2-0.2-0.6-0.3-1c-0.6,0.5-2.3,0.2-1,1.9c0,1-1.5-0.5-2.1-0.3
								c0.6,1.6-0.5,2.1-1.5,2.6c-0.9,0.6-1.6,1.1,0,2.7c0.4-0.5,1.9-0.8,2.5-1.9c0.2,0.6,1,1,0.8,1.4c-0.6,1-2.3,0.5-2.4,1.9
								l-2.1-1.9c-1.8-0.1-1.6,1.3-1.6,2.5C150.7,87.5,150.7,88.6,148.6,88z"/>
							<path d="M158.6,76.1l-1.7-0.3l1,0.8C157.9,76.2,158.1,76,158.6,76.1z"/>
							<path d="M157.9,76.6c0,0.2,0,0.5,0.1,0.8c0.1-0.1,0.2-0.3,0.2-0.6L157.9,76.6z"/>
							<path d="M146.9,91.1c-0.2,0.1-0.6,0.3-0.6,0.8C146.7,91.9,147.1,91.6,146.9,91.1z"/>
							<polygon points="147,92.5 147.6,92.4 147.4,92.1 							"/>
							<path d="M135.4,115.2l0.8,2.1c-0.9-0.2-0.7,1.7-1.8,0.5c1.4,1.7-1.2,2.3,1.7,3.2c1.1-4,5.4-7.9,5.6-13.3l0.6,1.3
								c-0.7-3.3,4-1.4,1.1-5.6l1.9,1.5c1.2-0.6-1.8-3.7,1-3.3l-0.9-0.5c0.2-0.3,0.6-0.1,0.8-0.4l-0.4-0.1c-0.4-1.2,0-1.6,1-1.9
								c0.7,0.4,0.1,0.5,0.1,0.8c0.9,0.1-0.1-1.3,0.2-1.8c0.8,0,0.9,0.6,1.1,0.9c0.2-2.2,2.7-1.4,0.6-4.5c-0.5-0.5-1.3-0.3-1.1-1.1
								c-1.6,0.4-1.1,2-0.9,3.5l0.2-0.3c2.4,2.7-1,0.1-0.6,2.2c-1-1.1-0.6-1.6-1.1-2.3c-3.2-0.1,0.3,3.1-3.1,2.1l0-0.2
								c-0.4,0-0.1,0.8-0.1,1.2c0.4,0.1,0.8,0,1.3-0.1c0.1,0.5,1.2,1.5,1.7,2c-1.5-0.5,0.3,0.9-0.7,1c-1.3-0.6-0.8-1.2-1.3-1.8
								l0.4,1.2c-0.3,0.7-1.7-0.2-2.6-0.3c0.6,1.1,0.9,0.1,1.9,1.4c-1.9-0.3-3.4,2.9-3,5c0.1-0.6-1.2-1-0.6-1.4
								c-0.4,0-0.2,1.2,0.7,1.8c0.2,1.5-1.1,2.3-2.5,2.7l1.1,0.3c1.1,1.7-2.3,1.2-2.2,3.1l0,0c-0.1,0.6,2.1,2.3,1.1,2.8
								C136.2,116.2,136.6,115.8,135.4,115.2z"/>
							<path d="M134.9,121.2l-1.1-1.2c-0.6,0.3,0.8,1.9,1.7,2.3c-0.1-0.5,0.7-0.6,0-1.1C135.3,121.2,134.8,120.9,134.9,121.2z"/>
							<path d="M130.1,130.5c0.2,0.3,0.8,0.6,1.1,0.8c0.8-2,1.6-4.7,3.1-4.9c0.8-0.4-1.2-1.7-1.2-2.7l1.6,0.4
								c-0.6-0.9,1.6-1.4-0.9-2.2c-0.2-0.1,0.8,1,0.2,1.1l-0.7-0.5l-0.2,1l-0.8-0.8c-2,0.4,2.4,2.4,0.7,3.4L131,125
								c-0.6,0.9-0.3,1.8-1.9,2c0,0,1,0.5,0.7,0.2c0.2-0.1,1.1,0.1,1.6,0.5c0.7,2.3-1-0.9-2.4-0.2c0.6,2,0.5,5-1.4,4.9
								c1.5,0,2.3,1.5,1.8,2.2c-0.9,0-1.1-0.8-1.6-1.2c-0.4,0.2-1,0.2-0.9,0.7c1.3,0.1,2.6,1.2,2.9,2.2
								C131.9,135.3,129,132.1,130.1,130.5z"/>
							<path d="M131.5,131.9c0-0.2-0.1-0.4-0.3-0.5c-0.1,0.2-0.2,0.5-0.3,0.7L131.5,131.9z"/>
						</g>
					</g>
				</g>
			</g>
		</g>
	</g>
</g>
</svg>
