<?xml version="1.0" encoding="utf-8"?>
<!-- Generator: Adobe Illustrator 19.1.0, SVG Export Plug-In . SVG Version: 6.00 Build 0)  -->
<svg version="1.0" id="Layer_1" xmlns="http://www.w3.org/2000/svg" xmlns:xlink="http://www.w3.org/1999/xlink" x="0px" y="0px"
	 viewBox="0 0 546 410.9" style="enable-background:new 0 0 546 410.9;" xml:space="preserve">
<style type="text/css">
	.st0{fill:#E1F4FD;}
	.st1{fill:#F2D8E0;}
	.st2{fill:#DFF0E3;}
	.st3{opacity:0.85;}
	.st4{opacity:0.3;fill:#FFFFFF;}
	.st5{opacity:0.3;fill:#F2D8E0;}
	.st6{fill:#FFFFFF;}
	.st7{opacity:0.3;fill:#DFF0E3;}
	.st8{opacity:0.4;fill:#FFFFFF;}
	.st9{opacity:0.3;fill:#E1F4FD;}
	.st10{fill:#F8DE8D;}
	.st11{fill:#BADAF3;}
	.st12{fill:#231F20;}
	.st13{fill:#010101;}
	.st14{fill:none;stroke:#010101;stroke-width:6.518;stroke-miterlimit:10;}
	.st15{fill:none;stroke:#FFFFFF;stroke-width:6.0438;stroke-miterlimit:10;}
	.st16{fill:#FAD6D7;}
	.st17{fill:#FFFEFE;}
	.st18{fill:#C2DE9F;}
	.st19{fill:#FCD6D6;}
	.st20{fill:#FEE777;}
	.st21{fill:#FAA958;}
	.st22{fill:#BADB93;}
	.st23{fill:#F9DE8C;}
	.st24{fill:#B0DAF4;}
	.st25{fill:#9C6026;}
	.st26{fill:#CB8F62;}
	.st27{fill:#714C1E;}
	.st28{fill:#9C9DCE;}
	.st29{fill:#FFC214;}
	.st30{fill:#DEE682;}
	.st31{fill:#F3DAB1;}
	.st32{fill:#F6B4C9;}
	.st33{fill:#FEC470;}
	.st34{fill:#FDC17E;}
	.st35{fill:#724F1F;}
	.st36{fill:#D22030;}
	.st37{fill:#00AFAC;}
	.st38{fill:#18A6DF;}
	.st39{fill:#FEDD10;}
	.st40{fill:#E74782;}
	.st41{fill:#FBD0D8;}
	.st42{fill:none;stroke:#000000;stroke-width:1.7659;stroke-miterlimit:10;}
	.st43{fill:#672F12;}
	.st44{fill:#F58C8E;}
	.st45{fill:#E8B674;}
	.st46{fill:#FFD89F;}
	.st47{fill:#FFEDB3;}
	.st48{fill:#5EB2E3;}
	.st49{fill:#7DB2E0;}
	.st50{fill:#F19C9D;}
	.st51{fill:#593712;}
	.st52{fill:none;stroke:#E7EFD6;stroke-width:0.4253;stroke-miterlimit:10;}
	.st53{fill:#D86464;}
	.st54{fill:#FEEBB1;}
	.st55{fill:#F8A95A;}
	.st56{fill:none;stroke:#010101;stroke-width:8.0507;stroke-linecap:round;stroke-linejoin:round;stroke-miterlimit:10;}
	.st57{fill:#95D4D1;}
	.st58{fill:#F6DD8C;}
	.st59{fill:#B0D9F4;}
	.st60{fill:#FFC118;}
</style>
<g>
	<g>
		<path class="st10" d="M205.7,82.2c-24.2-19.5-56.1,29.1-59.4,49.4c-1.6,10.1-1,33.1,14.7,33.1c17.1,0,27.2-15.4,35.2-28.7
			c6.8-11.2,28.1-59.3-4.7-53.4c-34.3,6.2-76.3,47.3-66.9,84.5c1,4,5.1,6.7,9.2,4.8c25.3-11.7,65.6-60.9,37.2-86.2
			c-27-24.1-49,49.7-55.5,62.9c4.1,1.5,8.1,3.1,12.2,4.6c6.8-21.7,21-40,24.8-62.7c0.8-4.8-5-8.8-9.2-6.5
			c-22.2,11.7-31.7,38.5-43,59.4c-3.9,7.3,5.1,14.2,10.6,7.6c13.7-16.4,23.7-37.1,29.1-57.8c1.8-7-6.6-12.3-11.4-6.1
			c-14.9,19.2-31.9,36.4-39.2,60.1c4.1,1.6,8.1,3.1,12.2,4.6c4.6-17.8,12.1-34.1,21.6-49.9c-3.8-2-7.6-4.1-11.4-6.1
			c-8.4,15.7-13.3,32.9-23.6,47.5c3.9,1.5,7.9,3,11.8,4.4c1.4-17,15.3-34.1,25.9-47.1c4.2-5.1,14.1-13.2,13.1-20.9
			c-2.5-19.3-23.6-32.8-2.4-52.7c14.2-13.4,36.4-3.2,40.7,13.8c2.6,10.3-0.9,23-2.5,33.2c-1.1,7.3,10.4,10,12.6,2.9
			c6.4-20.3,7.4-42.2-8.1-58.5c-5.8-6-15.3,1.6-10.1,8.3c10.1,12.8,14.2,28.6,13.5,44.7c-0.4,8.4,12.3,9.7,13,1.2
			c1.7-21.8,0.6-48-20.5-60c-3.3-1.9-6.6-1.5-9.1,1.5c-8,9.5-30,73.7,1.3,61.9c18.6-7,19.9-67.6-7.2-55c-16.4,7.6-23,60.2-3.6,67.1
			c29.8,10.5,29.1-58.2,1.1-68c-2.6-0.9-6.1-0.2-7.6,2.3c-5.9,9.7-29.2,62.5-7.6,66.5c28.4,5.2,22.8-55.6,10.3-67.5
			c-2.9-2.8-7.8-3.5-10.3,0.3c-10.5,15.9-23.4,47.6-4.7,62.1c2.9,2.3,7,1.2,9.1-1.5c12.8-16.1,12.1-42.3-4.7-55.3
			c-2.7-2.1-7.3-1.5-9.1,1.5c-7,11.3-18,56.7,5.8,56.3c30.3-0.5,6.6-48.1-0.6-59.3c-3.4-5.3-10.7-1.4-11.5,3.5
			c-2.8,15.9-8.3,52.3,16.5,55.4c22.3,2.7,29.4-24.4,27.9-41.9c-0.5-6.5-10.6-7.1-12.5-1.2c-6,18.4-8,37.1-6.5,56.4
			c0.4,4.6,5.5,6,9.2,4.8c15-4.8,18.8-23.7,24-36.6c-4.1-1.5-8.1-3.1-12.2-4.6c-5.8,15.6-11.7,31.1-18.6,46.3
			c4.1,1.5,8.1,3.1,12.2,4.6c5.4-14.1,13.6-26.3,21.6-39c3.8-6-3.9-14.3-9.5-8.8c-13.6,13.2-27.2,26-36.8,42.6
			c-3.5,6.1,3.5,14,9.5,8.8c14.2-12.3,26.6-26.4,40.8-38.7c-3.2-2.9-6.3-5.9-9.5-8.8c-4.6,8.1-9.7,14.5-17.3,20
			c-6.8,4.9,1.5,15,8.3,10.1c8.8-6.3,14.3-13,19.5-22.4c3.4-6.1-3.4-14.1-9.5-8.8c-14.2,12.3-26.6,26.4-40.8,38.7
			c3.2,2.9,6.3,5.9,9.5,8.8c9-15.6,21.7-27.7,34.5-40.2c-3.1-2.9-6.3-5.9-9.5-8.8c-8.6,13.6-17.4,26.9-23.2,42
			c-3.1,7.9,8.8,12.2,12.2,4.6c6.9-15.2,12.8-30.7,18.6-46.3c3-7.9-9-12.4-12.2-4.6c-3.7,9.3-6.5,25.9-17.3,29.4
			c3.1,1.6,6.1,3.2,9.2,4.8c-1.4-16.9,0.5-33.3,5.8-49.5c-4.2-0.4-8.3-0.8-12.5-1.2c0.3,3.2,0.2,6.3-0.3,9.4
			c-0.5,2.2-1.1,4.4-1.6,6.6c-1.8,8.4-8,8.4-18.6,0.2c-2.4-9.6,0.4-21.1,2.1-30.6c-3.8,1.2-7.7,2.4-11.5,3.5
			c6.4,9.9,12.8,22.4,12.6,34.4c-3.4,2.1-4.4,0.5-2.9-4.8c0.1-2.8,0.3-5.5,0.7-8.3c0.7-6.1,1.8-13.7,5.1-19c-3,0.5-6.1,1-9.1,1.5
			c11.5,8.9,9.9,26.8,1.8,37.1c3-0.5,6.1-1,9.1-1.5c-11.3-8.8,1.9-35.2,7.6-43.8c-3.5,0.1-6.9,0.2-10.3,0.3c5,4.8,5.6,12.6,6.6,19.1
			c0.8,5.3,0.5,10.6,0,15.9c0,0.3-2.7,20.1-2,8c0.8-13.4,6.3-31,13.4-42.6c-2.5,0.8-5.1,1.5-7.6,2.3c9.5,3.3,12.2,12.2,14,21.1
			c1,5.3-5.4,31.1-7.8,16.4c-1.8-11.1,0.6-27.2,6.6-36.8c0.2-0.3,1.8,11.8,1.6,13.6c-0.4,3.1-1,6.2-2,9.2c-0.6,2.3-2.1,11.8-2,4.1
			c0.1-11.9,5.7-29,13.4-38.2c-3,0.5-6.1,1-9.1,1.5c16.9,9.7,16.4,31.1,15.1,48.2c4.3,0.4,8.7,0.8,13,1.2
			c0.8-19.7-4.2-38.7-16.4-54.3c-3.4,2.8-6.7,5.5-10.1,8.3c12.4,13,10.9,29.7,6,45.5c4.2,1,8.4,2,12.6,2.9
			c2.9-18.2,8.7-48.6-11.7-60.3c-16-9.1-40.7-9.7-52.8,6.9c-5.8,8.1-9.8,17.7-9.3,27.8c0.3,6.9,12.9,28.7,10.4,32.4
			c-14,20.2-35.3,38.5-37.4,64.4c-0.5,6.4,8,9.8,11.8,4.4c10.9-15.6,16.2-33.8,25.1-50.5c3.5-6.5-7.6-12.4-11.4-6.1
			c-10,16.7-18.3,34-23.2,52.9c-2.1,8,9.7,12.8,12.2,4.6c6.9-22.6,23.4-38.9,37.6-57.1c-3.8-2-7.6-4.1-11.4-6.1
			c-5.1,19.8-14.4,39.1-27.5,54.8c3.5,2.5,7.1,5.1,10.6,7.6c9.8-18.2,18.6-45,37.9-55.2c-3.1-2.2-6.2-4.4-9.2-6.5
			c-3.5,21.4-17.6,38.9-24,59.3c-2.5,8.1,8.5,12.1,12.2,4.6c8.8-17.8,13.4-37.4,25.9-53.3c7.6-9.7,14.7-0.2,14.1,8.8
			c-0.5,7.4-5.3,15.2-9,21.3c-7.1,11.7-17.7,24.3-30.3,30.1c3.1,1.6,6.1,3.2,9.2,4.8c-5.8-23.1,13.8-43.7,30.3-57.1
			c7.3-6,17.7-12,27.4-12.2c5-0.1-0.9,14.8-1.6,16.8c-2.5,6.8-6.1,13.2-9.9,19.3c-1.2,2-2.5,3.9-3.8,5.8c-1.9,2.8-21.9,28-21.5,1.1
			c0.2-9.7,25.3-57.2,39.7-45.6C204.7,98,212.3,87.4,205.7,82.2L205.7,82.2z"/>
	</g>
	<g>
		<path class="st10" d="M55,184.7c-13.4,6.6-25,15.4-36.5,24.9c3.5,1.9,7.1,3.8,10.7,5.7c0.9-8.7,7.1-15.5,11.1-22.9
			c3.3-6-3.6-14.4-9.5-8.8c-10.3,9.7-18.9,18.6-19.3,33.4c-0.1,3.1,1.4,5.4,4.2,6.7C45,237.1,73.6,192.8,94,179
			c6.2-4.2-0.3-14.1-6.9-11c-15.4,7.4-29,18.3-45.5,23.4c1.8,3.8,3.5,7.6,5.3,11.5c15.9-13.9,32.9-26.2,51.3-36.7
			c7.2-4.1,2.3-15.5-5.5-11.8c-20.2,9.5-38,23.2-55.1,37.3c3.1,3,6.3,5.9,9.5,8.8c11.6-15.1,26.9-37.1,46-42.8
			c-1.8-3.8-3.5-7.6-5.3-11.5C72.4,161.9,55.5,176,35.3,185c2.7,3.2,5.4,6.5,8,9.7c10.1-18.4,29.8-30.8,47.5-41.2
			c-2.7-3.2-5.4-6.5-8-9.7c-9.4,15.9-27.1,23.6-41.5,34c2.8,3.4,5.5,6.7,8.3,10.1c6-6.2,13.3-11.3,20.3-16.3
			c4.5-3.2,21.7-17.6,27.8-15.7c8,2.5,12.7-9.7,4.7-12.2c-9.6-3-20.3,4.7-28.1,9.5c-11.5,7-23.5,14.9-32.9,24.6
			c-5.8,6,1.4,15.1,8.3,10.1c15.5-11.2,33.8-19.5,43.8-36.5c3-5-1.8-13.4-8-9.7c-19.5,11.5-41.3,25-52.6,45.4c-3,5.5,1.6,12.6,8,9.7
			c21.2-9.4,39.2-24.1,55.4-40.5c4-4.1,1.7-13.5-5.3-11.5c-23.1,6.9-40.3,29.7-54.4,48.1c-4.6,6,3.8,13.5,9.5,8.9
			c16.3-13.4,33.1-26.5,52.3-35.5c-1.8-4-3.7-7.9-5.5-11.8c-19.3,11-37.4,23.8-54.2,38.5c-4.5,3.9-1.4,13.5,5.3,11.5
			c17.7-5.5,32.1-16.4,48.7-24.4c-2.3-3.7-4.6-7.3-6.9-10.9c-15.4,10.4-44.4,52.1-65.4,42.3c1.4,2.2,2.8,4.5,4.2,6.7
			c0.3-11.1,7.1-17.5,14.6-24.6c-3.2-2.9-6.3-5.9-9.5-8.8c-5.3,9.7-12.3,18-13.5,29.3c-0.6,5.7,6.3,9.3,10.7,5.7
			c10.6-8.8,21.2-17,33.6-23.1C68,192.8,62.5,180.9,55,184.7L55,184.7z"/>
	</g>
	<g>
		<path class="st10" d="M84.3,175.5c-0.5,0.1-1,0.2-1.5,0.2c-7.7,0.5-6.4,11.9,0.5,12.9c-4.1-0.6,9.3,14.4,10.9,15.8
			c9,8.3,18.9,15.4,29.8,21.1c26.1,13.7,53.7,21.6,82.3,28.3c34.6,8.1,69.7,13.2,105.2,13.3c34.9,0.1,68.9-12.7,103.8-9.6
			c-0.2-4.3-0.3-8.6-0.5-12.9c-15.2,0.8-27.8,0.2-40.9,8.7c-4,2.6-2.7,9.9,1.8,11.1c21.2,5.8,42-3.3,62.6-7.6
			c20-4.2,39.5-9.8,51.9-27.1c3.3-4.7-0.8-11.2-6.4-10.2c-4.2,0.7-5.5,1.3-8.7,4.1c-6.3,5.5,2,15.6,8.3,10.1
			c0.9-0.4,1.8-0.9,2.7-1.3c-2.1-3.4-4.3-6.8-6.4-10.2c-11.3,16-30.5,19.2-48.5,22.9c-16.3,3.4-33.9,11.8-50.7,7.2
			c0.6,3.7,1.2,7.4,1.8,11.1c10.5-6.8,23-5.3,34.8-5.9c7.5-0.4,6.6-12.3-0.5-12.9c-32.5-2.9-63.6,8.2-95.9,9.4
			c-34.8,1.3-69.3-3.8-103.3-10.9c-28.7-6-56.8-14-83.2-26.8c-12.9-6.3-24.8-14.8-34.8-25.1c-4.9-5-7-14.3-14.7-15.4
			c0.2,4.3,0.3,8.6,0.5,12.9c1.8-0.1,3.1-0.5,4.8-1.3C97.3,183.7,91.9,171.9,84.3,175.5L84.3,175.5z"/>
	</g>
	<g>
		<path class="st10" d="M477.3,244c11.1,15.9,18.9,34,34.5,46.3c8.2,6.5,31.8,8.5,31.6-7.2c-0.3-17.2-12.5-35.7-20.5-50.3
			c-10.9-19.9-25.8-39.1-47.8-46.9c-5.5-1.9-10.4,3.5-8.2,8.8c8.1,19.5,19,37.6,27.4,57c6,13.9,13.9,25.9,28.1,32.2
			c3.8,1.7,8.6-1.4,8.8-5.5c1.5-24.2-20.3-47.7-33.9-65.8c-4.5-5.9-14.3,0.3-11,6.9c9,17.8,18.8,34.5,32.4,49.2
			c3.4-2.8,6.7-5.5,10.1-8.3c-6.2-5.9-10.4-12.1-19-14.4c-8.1-2.2-12.7,10-4.7,12.2c6.1,1.7,9.4,6.5,13.6,10.5
			c5.9,5.6,15.9-2,10.1-8.3c-12.8-13.9-22.1-29.6-30.6-46.4c-3.7,2.3-7.3,4.6-11,6.9c11.2,14.9,32.2,36.3,30.9,56.2
			c2.9-1.8,5.9-3.7,8.8-5.5c-15.8-7-20.7-25.8-27.5-40.2c-6.7-14.2-14.8-27.7-20.8-42.2c-2.8,3-5.5,5.9-8.3,8.9
			c29.3,10.3,42.2,42.6,54.7,68.4c1.4,3,9.6,15.9,0.2,15.7c-7.7-0.1-14.6-11-18.7-16.4c-7.1-9.5-12.4-20.3-19.2-30
			C482.5,228.8,472.5,237.1,477.3,244L477.3,244z"/>
	</g>
	<g>
		<path class="st10" d="M338.2,266.3c11.1,3.3,24.7,3.5,34.8-2.8c7-4.4,1.7-16.3-5.5-11.8c-7.2,4.5-16.7,4.8-24.7,2.5
			C334.9,251.7,330.2,263.9,338.2,266.3L338.2,266.3z"/>
	</g>
	<g>
		<path class="st10" d="M409,81c7.2-63.1,87.5,9.1,43,30.1c1.8,3.9,3.7,7.9,5.5,11.8c27.3-14.2,28.3-63.8-6.7-67.5
			c-4.3-0.4-7.6,3.5-7,7.6c1.1,7.5,4.2,12.5,9,18.3c11.3,13.7-0.8,19.5-10.7,28.7c3.2,2.9,6.3,5.9,9.5,8.8
			c7.7-9.9,20.4-24,16.5-38.3c-2.5-9.1-8.4-10.5-16-5.7c3.5,1.3,7.1,2.6,10.6,3.9c-3.4-18.1-38.3-42.3-52.7-21.2
			c-18.6,27.3,17.4,48.5,39,57.4c1.6-4.1,3.1-8.1,4.7-12.2c-13.9-5.7-23.1-17-34.1-26.6c-5-4.4-12.6,2.4-9.7,8
			C416.5,98,429,103,441,111.6c2-3.8,4.1-7.6,6.1-11.4c-12.6-3-23.6-8-34.1-15.7c-4.9-3.6-13.3,2.3-9.7,8
			c14.4,23.3,21,52.7,42.6,70.9c5.4,4.5,11.9-2.4,9.7-8c-7.6-19.7-18.3-37.7-29.6-55.5c-3.5-5.5-13-0.8-11.5,5.3
			c5,19.5,12.9,38.5,20.1,57.2c3.7,9.6,10.1,38.8,21.4,43.1c25.4,9.6-5.4-79.8-8.9-88c-3-7-13.3-3.3-12.3,3.9
			c1.3,10.5,6.2,19.3,10.6,28.9c7.4,15.9,8.4,35.3,13.3,52.1c2,6.8,12,7.2,12.9-0.5c3.3-28.5-12.1-54.3-20.5-80.6
			c-4,1.8-7.9,3.7-11.8,5.5c8.8,21.7,16.7,43.6,24.3,65.7c2,6,12.7,4.3,12.4-2.1c-0.7-21.3-10.1-39.6-15.3-60
			c-4.1,1.3-8.2,2.6-12.4,3.9c7.1,16.2,11.2,33.4,16.4,50.3c2.2,7.2,11.3,6.9,12.9-0.5c4.1-18.6-5.9-39.2-13-55.9
			c-4,1.8-7.9,3.6-11.8,5.5c6.7,12.4,10.9,25,13.1,39c4.1-1.3,8.2-2.6,12.4-3.9c-2.8-7.8-3.4-22.6-8.9-29.2
			c-5.4-6.5-15.4,1.8-10.1,8.3c9.3,11.3,9.5,22.3,11,36.1c0.8,7.7,11.8,6.4,12.9-0.5c1.5-9.1,0.7-15.9-2.9-24.3
			c-2.9-6.7-14.1-3.4-12.3,3.9c1.9,7.9,7.9,24.4-0.8,30.4c-3.6,2.5-4.9,4.1-7.6,7.4c-4.5,5.5-3.7,16.1-4.1,22.6
			c-0.5,7.3,10,10,12.6,3c3.5-9.4,6.3-17.3,6.1-27.4c-0.1-5.6-5.8-9.4-10.7-5.6c-12.1,9.4-12.4,30.1-9.1,43.7
			c1.3,5.6,8.1,7.2,11.7,2.7c7-8.7,21.6-57.1-4.2-53.3c-16.8,2.5-15,37.6-11.8,49.1c1.1,3.9,5.1,6.8,9.2,4.8
			c14.5-7.2,17.2-25.2,14.5-39.9c-1.4-7.4-12-6.8-12.9,0.5c-1.7,12.4-4.4,23.3,6.8,31.4c3.6,2.6,8.2,0.8,9.9-3
			c7.1-15.3,3.5-49.1-18.2-50.3c-20.9-1.2-30.5,43.2-35.5,57c-2.7,7.3,6.7,11.5,11.4,6.1c10.6-12,47.9-89.6,11.1-92.2
			c-26.6-1.9-31.3,59.5-31.7,77.1c-0.2,6.5,7.6,9.7,11.8,4.4c16.8-21.3,30.5-55.9,27.2-83.3c-0.6-5.3-6.8-6.4-10.6-3.9
			c-26.8,17.8-28.4,54.8-44.7,80.1c3.8,2,7.6,4.1,11.4,6.1c10.9-29.2,30.2-58.1,27.2-90.5c-0.4-4.5-5.5-6.2-9.2-4.8
			c-14.6,5.5-20.7,20-26,33.6c-2.3,5.7-17.6,45.6-18.6,45.4c-8.3-1.6-9.4,11.4-1.2,13c21.9,4.2,32-72.8,51.4-80.1
			c-3.1-1.6-6.1-3.2-9.2-4.8c2.7,29.1-16.7,57.3-26.5,83.6c-2.6,6.8,7.3,12.5,11.4,6.1c15.4-24,17.6-61.1,42.4-77.6
			c-3.5-1.3-7.1-2.6-10.6-3.9c2.8,23.5-10.6,55.2-24.9,73.4c3.9,1.5,7.9,2.9,11.8,4.4c0.5-19,4.7-39.4,11.6-57
			c2.4-6.1,7.4-10.1,9-0.8c1.6,9-2.4,19.5-5.1,27.9c-4,12.6-9.7,26.1-18.5,36.1c3.8,2.1,7.6,4.1,11.4,6.1c4.2-11.5,8-23,13.1-34.2
			c2.7-5.9,9.2-21.9,16.1-7.7c3.6,7.3,3.5,18.6,0.1,25.9c3.3-1,6.6-2,9.9-3c-5.3-3.9-2.1-14.5-1.4-19.6c-4.3,0.2-8.6,0.3-12.9,0.5
			c1.5,8,1.9,21.3-7.1,25.8c3,1.6,6.1,3.2,9.2,4.8c-2.2-7.8-1.4-16.3-0.6-24.2c0.3-2.8,0.9-5.6,1.7-8.3c-5.1-3.3-5.1-0.1,0,9.6
			c-0.3,7.5-3.9,16-8.5,21.8c3.9,0.9,7.8,1.8,11.7,2.7c-2.1-8.6-3.6-25.1,4.6-31.4c-3.5-1.9-7.1-3.8-10.6-5.6
			c0.1,8.6-2.4,15.9-5.3,24c4.2,1,8.4,2,12.6,2.9c0.5-7.6-0.3-15.7,7.1-21.2c2.3-1.8,6.6-4.2,7.4-7.4c3.3-12.5,1-22.8-2.1-35.4
			c-4.1,1.3-8.2,2.6-12.4,3.9c2.9,5.8,3.5,11.7,1.8,17.6c4.3-0.2,8.6-0.3,12.9-0.5c-1.8-16.8-2.9-29-13.8-42.2
			c-5.4-6.5-15.4,1.8-10.1,8.3c3.7,4.4,4.8,20,7.1,26.4c2.5,7.1,13.5,3.2,12.3-3.9c-2.4-15.2-6.8-28.7-14.1-42.2
			c-4-7.4-15.2-2.3-11.8,5.5c6.3,14.8,15.5,32.7,11.9,49.2c4.3-0.2,8.6-0.3,12.9-0.5c-5.6-18-9.8-36.2-17.4-53.5
			c-2.9-6.7-14.2-3.4-12.3,3.9c4.8,18.9,14.4,36.8,15.1,56.5c4.1-0.7,8.3-1.4,12.4-2.1c-7.6-22.1-15.6-44-24.3-65.7
			c-3.2-8-14.3-2.3-11.8,5.5c7.7,24,22.4,48,19.4,73.9c4.3-0.2,8.6-0.3,12.9-0.5c-4-13.6-6.4-27.5-9.8-41.3
			c-3.4-13.8-12.4-25.6-14.1-39.6c-4.1,1.3-8.2,2.6-12.4,3.9c5.7,13.3,10.1,27.2,14.1,41.1c2.3,7.8,4.1,15.7,5.2,23.8
			c0.1,1.4,0.2,2.8,0.2,4.2c-1.4,4.5,1.3,5.4,8,2.6c-1.3-1.3-2.1-3.8-2.8-5.3c-13.2-26.9-25.2-57.3-32.6-86.3
			c-3.8,1.8-7.6,3.5-11.5,5.3c10.7,16.8,20.6,34,27.8,52.7c3.2-2.7,6.5-5.4,9.7-8c-19.3-16.3-25.4-44.8-38.3-65.8
			c-3.2,2.7-6.5,5.4-9.7,8c11.3,8.3,23.4,14,37.1,17.3c6.8,1.6,12.6-6.8,6.1-11.4c-9.5-6.8-21.6-11.1-27.2-22.1
			c-3.2,2.7-6.5,5.4-9.7,8c12.1,10.6,22,22,37.1,28.2c7.8,3.2,12.4-9,4.7-12.2c-9.1-3.8-17.5-8.5-25.4-14.5
			c-1.9-1.8-3.8-3.5-5.7-5.3c-7.3-6.6-5.1-13.1,6.3-19.4c8.7,0.5,19.3,8.7,20.9,17.4c1,5.3,6.5,6.5,10.6,3.9
			c-4.7-1.8-6.6-0.4-5.7,4.2c-1,8.4-8.7,15.7-13.7,22.1c-4.5,5.8,4,13.9,9.5,8.8c7.8-7.2,22.8-13.1,24-25.3
			c1.4-14.3-15.8-20.7-17.7-34c-2.4,2.5-4.7,5.1-7,7.6c21.8,2.3,18,34.5,2.5,42.6c-7.4,3.9-2.2,15.5,5.5,11.8
			c26-12.3,25-49.9,4.7-67.7C435.3,31.6,400,45.1,396,79.8C395.1,88.1,408,89.3,409,81L409,81z"/>
	</g>
	<g>
		<path class="st10" d="M165,167.6c3,17.2,9.5,30.8,19.2,45.1c3-3.1,5.9-6.3,8.9-9.5c-5.8-4-10.3-9.1-13.7-15.3
			c-4.3-7-15.9-2.1-11.8,5.5c10.9,20.6,19.4,47.2,45.6,51.3c5.4,0.8,9.7-6.6,5.7-10.7c-11.5-11.6-22.7-23-36.5-31.8
			c-6.5-4.2-12.8,3.4-8.8,9.5c11.7,17.8,27.3,28.5,47.6,34.6c6.8,2.1,12.7-7.2,6.1-11.4c-27.7-17.7-53.4-38.4-82.8-53.3
			c-5.8-2.9-11.8,5.7-7.4,10.2c17.9,18.3,33.5,43.5,61.5,44.9c6.9,0.4,9.1-7.5,4.4-11.8c-22.7-20.7-41.9-45.1-68.5-61.1
			c-4.7-2.9-11.3,0.4-10.2,6.4c5.2,29.7,42.8,68.6,73.9,69.8c5.8,0.2,10.6-8.4,4.4-11.8c-29.5-16.1-56.8-35.8-85.6-53
			c-6.1-3.7-13.9,3.5-8.8,9.4c17.2,20.4,40.4,33.7,62.2,48.5c2-3.8,4.1-7.6,6.1-11.4c-25-12.6-48.4-28-73.8-39.8
			c-7.1-3.3-11.4,6.9-6.1,11.4c17.6,15,40,22.3,60.8,31.6c7.8,3.5,11.9-8.4,4.7-12.2c-25-12.9-46.9-30.8-72.4-43
			c-6.9-3.3-11.9,7.1-6.1,11.4c13.5,10.1,26.1,20.5,41.5,27.6c7.1,3.2,11.5-6.9,6.1-11.4c-18.4-15.4-28.3-30.5-6-49.3
			c-3.6-1.9-7.1-3.8-10.7-5.7c-1.4,14.2-20.9,25.4-27.4,38.2c-3,5.9,5.6,11.6,10.2,7.4c14.7-13.4,24.2-30.4,30.4-49.1
			c2.7-8-8.7-12.3-12.2-4.6c-7.4,16-13.4,31.9-15.9,49.4c-0.8,5.5,6.5,9.5,10.7,5.6c17.8-16.3,29.2-39.1,37.1-61.6
			c2.4-6.9-7.1-12.4-11.4-6.1c-13.8,20-20.9,42.7-28.7,65.5c-2.5,7.1,6.8,11.9,11.4,6.1c15.1-19.1,22.7-41.9,31.9-64.1
			c-4.1-1.5-8.1-3.1-12.2-4.6c-6.9,22.1-14.8,43.8-19.7,66.5c-1.2,5.4,6.8,9.6,10.7,5.7c16.6-17.1,19.6-39.8,27.2-61.5
			c-4.2-1-8.4-2-12.6-2.9c-2.9,22.5-10.9,43.9-12.9,66.5c-0.5,6,6.1,8.8,10.7,5.7c24-16.5,27-58.5,29.7-84.8
			c0.8-7.7-9.5-9.3-12.6-2.9c-7.6,15.5-10.3,34.7-13.2,51.5c-1.8,10.5-7.1,31.2,4.9,37.7c23.1,12.4,30.1-68.8,31.1-78.7
			c0.8-8.5-11.6-9.4-13-1.2c-4.2,24.3-13.8,47.3-18.8,71.4c-1.3,6.3,8.5,9.8,11.8,4.4c14-22.8,26-46.1,31.8-72.4
			c1.7-7.6-9.7-9.3-12.6-2.9c-10.3,23-16.3,47.9-31,68.7c3.9,1.5,7.9,3,11.8,4.4c3.3-28.3,24-50.4,35.4-75.7
			c3.5-7.7-8.5-12.1-12.2-4.6c-11.9,24.3-28.1,49.4-27,77.4c0.2,5.2,7.1,6.6,10.6,3.9c25.6-19.9,34.5-52.4,50.1-79.6
			c-3.8-2-7.6-4.1-11.4-6.1c-9.1,24.3-25.7,44.5-38.5,66.9c3.8,2.1,7.6,4.1,11.4,6.1c8.1-24.1,29.5-44.7,47.9-61.4
			c-3.4-2.4-6.8-4.9-10.3-7.4c-10.8,29.3-45.3,39.8-51.9,72.2c-1.1,5.4,5.1,7.9,9.2,6.5c24.7-8.1,36.7-35.6,52.3-54.2
			c-3.5-2.5-7.1-5.1-10.6-7.6c-14.4,18.3-35.6,29.1-48.4,48.9c-3.9,6,3.8,14.1,9.5,8.8c19.7-18.2,35.2-42.3,59.6-54.5
			c-2.3-3.6-4.6-7.3-6.9-11c-15.2,11.3-30.3,22.1-42.8,36.6c-4,4.7,1.2,10.9,6.4,10.2c10.9-1.3,19.6-6.9,28.7-12.8
			c17.7-11.4,37.4-9.6,57-15.1c-1.3-4.1-2.6-8.2-3.9-12.3c-23.4,7.4-47.2,23.2-72.5,22.2c-6.7-0.3,13.4-8.8,13.7-8.9
			c8.7-2.4,17.8-3.6,26.8-4.7c14.8-1.9,30.8-3.6,45.7-1.6c-1.2-3.9-2.4-7.7-3.5-11.5c-11.8,8.8-56.2,29.2-67.2,11.3
			c-1.6,3.1-3.2,6.1-4.8,9.2c17.1-3.6,32.5,7.4,48.9,10c21.3,3.4,43.9-1.4,65.4-1.1c8.3,0.1,9.7-12.5,1.2-13
			c-21.8-1.2-43.8-4.7-63.5-14.6c-1,4.2-2,8.4-2.9,12.6c32.6,2.4,59.7,21.1,90.4,30.3c1-4.2,2-8.4,2.9-12.6
			c-20.1-4.7-37.7-13.3-53.1-27.1c-5.6-5-13.8,4.1-8.8,9.5c17.2,18.6,45.1,25.4,58.9,47.1c2.5-3.4,4.9-6.8,7.4-10.2
			c-18.7-6.8-29.1-25.2-44-37.4c-4.3-3.6-11.6,1-10.2,6.4c6.2,25.4,26.8,45.1,48.8,57.7c2-3.8,4.1-7.6,6.1-11.4
			c-14.7-6.5-22.6-21.2-31-34c-3.4,2.8-6.7,5.5-10.1,8.3c11.3,16.4,29.2,31.5,30.5,52.4c4.1-1.3,8.2-2.6,12.3-3.9
			c-1.7-6.1-3.1-12.2-4.1-18.5c-1.1-6.2-10.4-7.4-12.5-1.2c-3.8,10.8-5.7,21.9-8.6,33c4.1,1.5,8.1,3.1,12.2,4.6
			c2-7.6,6.2-14,9.6-20.9c3.2-6.5-5.4-10.5-10.2-7.4c-14.4,9.4-23.5,23.4-36.1,34.8c-6.4,5.8,1.4,14.6,8.3,10.1
			c13-8.6,26.6-13.6,36.3-26.3c4.1-5.3-2.2-12.4-8-9.7c-16.5,7.4-31.8,17.1-49.1,22.6c-6.5,2-3.9,11.8,2.1,12.4
			c12.5,1.3,23.2-0.8,34.5-6.3c4.7-2.3,5.3-10.4-0.4-12c-20.2-5.5-40,2.2-59.8,6.3c-8.3,1.7-6,13.6,2.3,12.9
			c5.9-0.5,11.7-1,17.6-1.6c7.5-0.7,6.7-12.3-0.5-12.9c-21-2-61.2,12.8-75.6-6.4c-1.3,3.5-2.6,7-3.9,10.6
			c14.7-1.6,29.5,9.5,43.4,12.9c15.2,3.7,31.5,3,47,2.3c19.2-0.9,37.4-8.1,56.8-7.7c14.3,0.3,26.4,1.4,39.8-4.5
			c5.4-2.4,4.6-9.8-0.4-12c-21.2-9.3-50.5-6.1-71,3.7c-6.5,3.1-3.5,14,3.9,12.4c20.4-4.6,40.4-5,61-2c12.2,1.8,23.8,1.1,33.5-7.1
			c3.5-3,3-9.7-1.8-11.1c-20.1-5.9-40.7-3.6-61.2-1.5c-7.5,0.8-6.7,12.2,0.5,12.9c29.7,3,58.3-3,87.6-7.2c6.1-0.9,7.5-10.8,1.2-12.5
			c-19.4-5.2-37,0.9-53.4,11.9c-5.7,3.8-0.7,12.3,5.3,11.5c19.2-2.8,40.1,1.9,53.5-15.4c3.1-4,0.1-9.8-4.7-10.3
			c-11.2-1.2-20.9,1.4-31.2,5.6c-4.9,2-5.1,10.6,0.4,12c9.7,2.4,16.6,2.5,26.4,0.3c8.2-1.9,6.1-14.1-2.3-12.9
			c-8,1.2-15.4,1.9-23.5,0.8c1.6,3.4,3.1,6.9,4.7,10.3c10.5-12.2,17.2-25,12.2-41c-2.2-7-8.9-15-16.9-14.2
			c-18.7,1.7-29.2,30.3-33.7,45.4c-1.5,5.1,3.4,11.1,8.8,8.2c15.6-8,42.4-46,29.2-63.2c-16.5-21.5-44.7,36.4-50.6,44.6
			c-5,7,5.1,13.7,10.6,7.6c17.1-19.1,31.4-40,39.6-64.4c2-5.9-5.1-11.9-10.3-7.3c-21.8,19.2-38.9,45.3-49,72.5
			c-1.8,4.7,2.3,9.5,7.2,8.8c25.5-4.2,43.6-43.6,47.2-66.3c0.9-5.6-6.5-9.4-10.6-5.6c-19.1,17.2-31.8,40.4-36.6,65.6
			c-0.8,4.1,3.7,7.9,7.6,7.1c22.3-5.1,32.1-45.4,11.4-57.9c-2.3-1.4-5.8-1.9-8,0.3c-14.1,14.4-21.5,32.1-29.4,50.3
			c-3,7,7,11.9,11.4,6.1c20-26.2,38.4-55.5,46.2-87.8c1.4-5.9-4.8-12-10.2-7.4c-26.1,22.1-41,54.8-55.7,85
			c-3.1,6.3,5.4,10.9,10.2,7.4c27.9-20.7,57.6-65,57.4-100.7c0-5.8-5.8-9.1-10.7-5.7c-35.9,25-50.9,73.2-64.9,112.5
			c-2.6,7.3,6.7,11.6,11.4,6.1c29.5-34.3,61.7-74.5,70.2-120.1c0.9-4.7-5.1-8.8-9.2-6.5c-31.3,17.3-51.6,54.4-58.7,88.6
			c-0.8,3.9,3.8,8.2,7.6,7c18.6-5.5,31.6-31.4,40.4-46.8c7-12.3,22.1-37.9,9.8-51.3c-21.6-23.7-53.7,70-53.8,83.8
			c0,3.9,3.2,8.2,7.6,7c30.2-8,54.7-56.7,52.1-86.1c-0.5-6-8.5-6.7-11.7-2.7c-12.7,15.8-24,54.9-6.5,70.6
			c22.7,20.3,36.8-33.9,27.8-48.9c-2.6-4.3-10.3-5.6-12,0.4c-4.6,16.3-0.3,37.6,18,42.6c4.5,1.2,9.9-2,8.8-7.2
			c-1.5-6.7-1.5-7-4.9-13c-3.6-6.3-13.5-3.7-12.3,3.9c1.1,7.2,5.1,14.5,5.3,21.7c3.4-1.6,6.9-3.1,10.3-4.7
			c-9.7-5.6-12.9-13.3-15.5-23.8c-3.4,2.1-6.8,4.3-10.2,6.4c1.3,1.2,2.7,2.4,4,3.7c4.1,3.7,9.4-0.5,10.3-4.7
			c6.2-28.3-18.6-47.5-31.4-69.7c-3.3,2.7-6.5,5.4-9.7,8c8.2,5.5,8.9,15.8,11,24.5c1.7,7,12.2,7.1,12.9-0.5
			c1.8-18.3-9.9-32.6-17-48.6c-3.5-7.9-14.3-2.3-11.9,5.5c3.3,10.4,8.7,17.8,16,25.8c4.9,5.3,14.4,0,11-6.9
			c-4.8-9.6-10.9-17.1-18.3-24.9c-3,3.1-5.9,6.3-8.8,9.5c3.3,3,4.7,3.7,8.7,5.9c5.8,3.1,11.6-5.7,7.4-10.3
			c-3.5-3.8-6.6-7.7-9.8-11.9c-1.9,3.5-3.8,7.1-5.7,10.6c0.7,0.1,1.4,0.1,2.2,0.2c-0.2-4.3-0.3-8.6-0.5-12.9c-1.5,0.2-3,0.4-4.4,0.7
			c-8.3,1.3-6.1,14.1,2.3,12.9c1.5-0.2,3-0.4,4.4-0.7c7.4-1.1,6.8-12.2-0.5-12.9c-0.7-0.1-1.4-0.1-2.2-0.2
			c-5.8-0.6-9.1,6.2-5.7,10.7c3.2,4.1,6.2,8.1,9.8,11.9c2.5-3.4,4.9-6.8,7.4-10.2c-1.9-1.4-3.8-2.8-5.7-4.2c-5.5-5-13.9,4.1-8.8,9.4
			c6.7,7.1,12.1,13.1,16.5,22.1c3.7-2.3,7.3-4.6,11-6.9c-6.5-7-11.3-13.7-14.3-23c-4,1.8-7.9,3.7-11.9,5.5
			c5.9,13.1,17.3,26.7,15.9,41.9c4.3-0.2,8.6-0.3,12.9-0.5c-3-12.4-5-25.2-16.3-32.8c-5.1-3.4-13.2,2-9.7,8
			c11.3,19.6,35.6,38.3,30.2,62.9c3.4-1.6,6.9-3.1,10.3-4.7c-1.3-1.2-2.7-2.4-4-3.7c-4.2-3.9-11.5,1.2-10.2,6.4
			c3.3,13.5,8.3,25,20.7,32.1c3.7,2.1,10.5,0.8,10.3-4.7c-0.3-9.2-4.1-16.2-5.5-25.2c-4.1,1.3-8.2,2.6-12.4,3.9
			c1.3,3.2,2.6,6.5,3.9,9.7c2.9-2.4,5.8-4.8,8.8-7.2c-11.5-3.1-13.1-16.4-10.4-25.7c-4,0.1-8,0.3-12,0.4c4.1,6.8,2.9,14.7,1.1,22
			c-0.7,5.9-4.7,7.6-12,5.3c-1-4.3-0.2-9.1,0.2-13.4c1.2-10.8,4.9-24.7,11.8-33.4c-3.9-0.9-7.8-1.8-11.7-2.7
			c1.9,21.6-19.2,65.1-41.5,71c2.5,2.4,5.1,4.7,7.6,7.1c0.2-22.1,16.2-59.6,32.2-74.6c-1.2,1.2-2.3,12.5-3.3,15.1
			c-3.2,9.2-8.2,17.9-13.2,26.2c-5.4,9.1-16.3,30.2-27.4,33.5c2.5,2.3,5.1,4.7,7.6,7c6.1-29.2,24.3-63.1,51.2-77.9
			c-3.1-2.2-6.2-4.4-9.2-6.5c-8.1,42.9-40.1,81.4-67.8,113.7c3.8,2.1,7.6,4.1,11.4,6.1c13.2-37.3,26.9-83.4,61-107.1
			c-3.6-1.9-7.1-3.8-10.7-5.7c0.2,32.5-27.3,73.1-52.7,91.9c3.4,2.5,6.8,4.9,10.2,7.3c13.7-28.1,27.5-58.9,51.8-79.6
			c-3.4-2.4-6.8-4.9-10.2-7.3c-7.6,31.4-25.2,59.4-44.6,84.9c3.8,2,7.6,4.1,11.4,6.1c6.9-15.9,13.1-32.3,25.5-44.9
			c-2.7,0.1-5.3,0.2-8,0.3c10.2,6.2,5.7,31.7-6.1,34.4c2.5,2.3,5.1,4.7,7.6,7c4.1-21.6,15.5-42,31.9-56.8c-3.6-1.9-7.1-3.8-10.6-5.6
			c-2.6,16.5-17.8,51.6-36.5,54.7c2.4,2.9,4.8,5.8,7.2,8.8c9.3-25,25.1-49.4,45.1-67.1c-3.4-2.4-6.8-4.9-10.2-7.4
			c-7.8,23.5-21.6,43.2-38,61.5c3.5,2.5,7.1,5.1,10.6,7.6c8.6-12,15-25.4,24.3-37c11.7-14.5,0.8,10.2-1.4,14
			c-3.9,7-10.2,18.4-17.7,22.2c2.9,2.7,5.9,5.5,8.8,8.2c2-6.6,4.7-12.9,7.7-19.2c2.2-4.5,4.9-8.6,7.8-12.6
			c6.3-8.9,9.8-4.1,10.4,14.1c-2.6,5.7-6,10.7-10.3,15.2c-3.4,4,0.2,9.7,4.7,10.3c9.4,1.3,17.6,0.5,27-0.9
			c-0.8-4.3-1.5-8.6-2.3-12.9c-6.5,0.1-13,0.2-19.5,0.3c0.1,4,0.3,8,0.4,12c8.2-3.3,15.5-5.3,24.4-4.4c-1.6-3.4-3.1-6.9-4.7-10.3
			c-10,13-31,8.1-45.1,10.2c1.8,3.8,3.5,7.6,5.3,11.5c11.9-8,25.7-13.7,40.4-9.7c0.4-4.2,0.8-8.3,1.2-12.5c-28.1,4-55.6,9.9-84.1,7
			c0.2,4.3,0.3,8.6,0.5,12.9c18-1.9,36.6-4.4,54.3,0.8c-0.6-3.7-1.2-7.4-1.8-11.1c-11.9,10-31.6,2.2-45.5,1.9
			c-14.5-0.3-28.8,1.2-42.9,4.4c1.3,4.1,2.6,8.2,3.9,12.3c17.5-8.4,42.7-11.3,60.8-3.4c-0.1-4-0.3-8-0.4-12
			c-14.9,6.5-31.1,2.7-46.8,3.6c-20,1.2-39,7.6-59.1,7.9c-17.3,0.2-32.9-2.9-48.7-9.6c-9.6-4-18.6-7.1-29.1-6
			c-5.1,0.6-6.6,6.9-3.9,10.6c18.7,24.9,58.8,8.7,84.4,11.1c-0.2-4.3-0.3-8.6-0.5-12.9c-5.9,0.5-11.8,1-17.6,1.6
			c0.8,4.3,1.5,8.6,2.3,12.9c16.7-3.5,35.8-11.6,52.9-7c-0.1-4-0.3-8-0.4-12c-9.3,4.5-17.4,6.3-27.8,5.2c0.7,4.1,1.4,8.3,2.1,12.4
			c17.4-5.5,32.6-15.2,49.1-22.6c-2.7-3.2-5.4-6.5-8-9.7c-8.7,11.3-22.4,16.2-34,23.8c2.8,3.4,5.5,6.7,8.3,10.1
			c12.5-11.3,21.8-25.5,36.1-34.8c-3.4-2.5-6.8-4.9-10.3-7.4c-3.6,7.3-7.6,13-9.6,20.9c-2.1,8.1,10.1,12.8,12.2,4.6
			c2.9-11,4.9-22.3,8.6-33c-4.2-0.4-8.3-0.8-12.5-1.2c1.4,7.5,2.7,14.5,5.1,21.7c2.5,7.6,12.8,2.9,12.4-3.9
			c-1.5-23.6-20.6-40.1-33.3-58.5c-4.8-7-14.6,1.4-10.1,8.3c10,15.3,19.2,30.3,36.4,37.9c6.7,3,12.6-7.7,6.1-11.4
			c-18.9-10.8-38.2-27.4-43.6-49.4c-3.4,2.1-6.8,4.3-10.2,6.4c16.2,13.3,26.6,31.6,47,39c6.7,2.4,10.7-5,7.4-10.3
			c-14.1-22.2-41.5-28.3-58.9-47.1c-3,3.1-5.9,6.3-8.8,9.5c17.3,15.5,37.1,24.3,59.5,29.5c7.2,1.7,9.9-10.5,3-12.6
			c-31.9-9.5-59.9-28.6-93.8-31c-7.7-0.6-9.3,9.4-2.9,12.6c20.6,10.3,44.1,14.1,66.9,15.4c0.4-4.3,0.8-8.7,1.2-13
			c-22.6-0.3-47.2,5.6-69.2,0.1c-16.2-4.1-31.5-12.5-48.6-8.9c-3.7,0.8-7.1,5.4-4.8,9.2c17.2,28,67.2,8.3,87.4-6.7
			c4.8-3.6,1.8-10.8-3.5-11.5c-17.4-2.3-109.3-2.3-102.9,29.2c6.6,32.5,77.2-6.2,93.6-11.3c7-2.2,3.2-14.4-3.9-12.4
			c-14.4,4.1-32.5,2-46.1,8.3c-13.3,6.2-24.7,17.8-39.6,19.6c2.1,3.4,4.3,6.8,6.4,10.2c11.6-13.6,26.2-23.5,40.5-34.1
			c6-4.4-0.3-14.2-6.9-10.9c-25.7,12.8-41.8,37.2-62.4,56.2c3.2,2.9,6.3,5.9,9.5,8.8c12.7-19.6,34-30.7,48.4-48.9
			c5.3-6.7-5.2-14-10.6-7.6c-14.1,16.8-25.1,42.7-47.2,50c3.1,2.2,6.2,4.4,9.2,6.5c6-29.2,40.9-41,51.1-68.8
			c2.2-5.9-5.3-11.9-10.3-7.4c-20,18.3-43,40.5-51.7,66.8c-2.2,6.7,7.6,12.8,11.4,6.1c13.4-23.4,30.6-44.4,40.1-69.8
			c2.5-6.7-7.6-12.7-11.4-6.1c-14.9,26-23.4,58.1-47.8,77.1c3.5,1.3,7,2.6,10.6,3.9c-1-24.6,15.9-49.2,26.4-70.5
			c-4.1-1.5-8.1-3.1-12.2-4.6c-12.1,26.8-32.7,49.1-36.2,79.1c-0.7,6.5,8.1,9.7,11.8,4.4c15.4-21.8,21.8-47.6,32.6-71.6
			c-4.2-1-8.4-2-12.6-2.9c-5.3,23.9-16.7,45.3-29.4,66c3.9,1.5,7.9,3,11.8,4.4c5.1-24.2,14.6-47,18.8-71.4c-4.3-0.4-8.7-0.8-13-1.2
			c-0.9,9.3-2.1,18.6-3.5,27.8c-1.2,8-2.8,15.9-5,23.7c-0.7,2.5-1.5,4.9-2.4,7.3c-1.7,4.7-1.8,5.2-1.3,8.2
			c-3.4-20.4,5.6-53.4,14.5-71.7c-4.2-1-8.4-2-12.6-2.9c-2.3,22.8-4.3,61.7-25,76c3.6,1.9,7.1,3.8,10.6,5.7c2-22.6,10-44,12.9-66.5
			c1-7.3-10.2-9.9-12.6-2.9c-6.6,18.8-8.9,41.2-23.3,56.1c3.5,1.9,7.1,3.8,10.6,5.7c4.6-21.5,12.4-42.1,18.9-63.1
			c2.5-8-9-12.5-12.2-4.6c-8.7,21.2-15.9,42.9-30.3,61.1c3.8,2,7.6,4.1,11.4,6.1c7.5-21.7,14-43.4,27.2-62.5
			c-3.8-2-7.6-4.1-11.4-6.1c-7.1,20.4-17.1,41.4-33.2,56.2c3.5,1.9,7.1,3.8,10.7,5.7c2.3-16.4,8.2-31.1,15.1-46
			c-4.1-1.6-8.1-3.1-12.2-4.6c-5.5,16.6-13.5,31.8-26.5,43.7c3.4,2.4,6.8,4.9,10.3,7.3c7.9-15.5,26.4-23.1,28.2-41.7
			c0.6-5.6-6.3-9.3-10.6-5.6C88,162.5,97.5,186,123.8,208c2-3.8,4.1-7.6,6.1-11.4c-14.3-6.5-26-16.6-38.6-26
			c-2,3.8-4.1,7.6-6.1,11.4c25.4,12.1,47.4,30,72.4,43c1.6-4.1,3.1-8.1,4.7-12.2c-19.8-8.9-41.1-15.7-57.8-30
			c-2,3.8-4.1,7.6-6.1,11.4C123.6,206,147,221.4,172,234c6.7,3.4,12.2-7.3,6.1-11.4c-20.9-14.1-43.4-26.7-59.8-46.2
			c-3,3.1-5.9,6.3-8.8,9.4c28.8,17.2,56.1,36.9,85.6,53c1.5-3.9,3-7.9,4.4-11.8c-25.2-0.9-58.1-35-62.3-59
			c-3.4,2.1-6.8,4.3-10.2,6.4c26.5,16,45.8,40.5,68.5,61.2c1.5-3.9,3-7.9,4.4-11.8c-23.8-1.3-37.5-24.8-52.7-40.3
			c-2.5,3.4-4.9,6.8-7.4,10.3c28.4,14.4,53.1,34.6,79.8,51.7c2-3.8,4.1-7.6,6.1-11.4c-18.3-5.6-31.7-14.7-42.2-30.7
			c-3,3.2-5.9,6.3-8.8,9.5c12.9,8.2,23.3,18.8,34.1,29.5c1.9-3.5,3.8-7.1,5.7-10.7c-19.9-3.1-26.8-28.4-35-43.8
			c-3.9,1.8-7.9,3.7-11.8,5.5c4.9,8.2,10.4,14.5,17.9,20.4c6.2,4.9,12.8-3.7,8.8-9.5c-8.5-12.5-13.8-24.2-16.4-39.1
			C176.4,157.1,163.6,159.3,165,167.6L165,167.6z"/>
	</g>
	<g>
		<path class="st10" d="M193.6,79.9c-15.2,10.1-30.8,28-29.1,47.3c0.3,3.9,5.8,6.9,9.2,4.8c15.3-9.6,25.1-24.3,26.9-42.4
			c0.5-4.8-4.8-8.8-9.2-6.5c-15.4,7.7-22,23-24.5,39.4c-0.9,6.2,6.3,8.4,10.6,5.6c14.1-9.1,21.5-24,26.2-39.7
			c2.1-7-6.8-12.2-11.4-6.1c-8.1,10.8-12.6,20.1-12.8,33.8c-0.1,6,5.8,8.8,10.6,5.7c9.4-6.1,14.2-14.9,18.3-25.2
			c2.9-7.3-6.8-11.5-11.4-6.1c-3.4,3.9-6.2,7.7-8.8,12.3c3.8,2,7.6,4.1,11.4,6.1c3.6-7.1,4.8-12.1,4.3-20
			c-0.3-4.5-8.8-19.9,2.7-21.1c5.8-0.6,10.9-0.9,16.6-2.3c8.2-2.1,6.1-13.6-2.3-12.8c-9,0.8-17.7,2.6-26.6,4
			c2.4,2.9,4.8,5.8,7.2,8.8c9.1-27.7,64.5-13.7,83.2-11.3c34.9,4.5,67.1,4.3,96.9,25.8c2-3.8,4.1-7.6,6.1-11.4
			c-1.2-0.6-2.5-1.3-3.7-1.9c-7-4.7-14.6,5.9-7.6,10.6c2.4,1.6,4,2.5,6.7,3.5c7,2.5,12.2-7,6.1-11.4c-35.9-25.9-76-23.4-117.8-30.4
			c-23.7-4-72.2-8.5-82.2,21.8c-1.6,4.7,2.2,9.5,7.2,8.7c8.9-1.4,17.6-3.2,26.6-4c-0.8-4.3-1.5-8.6-2.3-12.8
			c-10.2,2.6-24-0.3-31,9.3c-9.2,12.7,4.7,28.1-2.5,42.3c-3.4,6.6,7.7,12.5,11.4,6.1c2.6-4.5,5.4-8.3,8.8-12.3
			c-3.8-2-7.6-4.1-11.4-6.1c-3.3,8.3-6.6,14.7-14.4,19.8c3.5,1.9,7.1,3.8,10.6,5.6c0.2-10.6,4.1-19,10.5-27.4
			c-3.8-2-7.6-4.1-11.4-6.1c-4.2,13.8-9.9,26.3-22.4,34.3c3.6,1.9,7.1,3.8,10.7,5.6c1.7-11.5,5.8-23.2,17-28.8
			c-3.1-2.2-6.2-4.4-9.2-6.5c-1.4,13.2-8,24.6-19.4,31.8c3.1,1.6,6.1,3.2,9.2,4.8c-1.2-14,14.1-28,24.6-35
			C209,85.3,200.6,75.3,193.6,79.9L193.6,79.9z"/>
	</g>
	<g>
		<path class="st10" d="M247.2,48.1c-21.6,0.2-37.3,14.7-55.8,24c2.3,3.6,4.6,7.3,6.9,11c9.9-7.8,20.1-15.1,29.5-23.4
			c5.6-4.9,0-14.1-6.9-11c-10.8,4.9-19.1,11.1-26.2,20.6c-3.9,5.2,2.2,12.6,8,9.7c10.4-5.1,43.7-9.3,44.2-25.4
			c0.5-16.9-21.4-8.5-30.9-7.1c-8.3,1.2-6.1,13.9,2.3,12.9c11.3-1.4,22.7-2,34.1-2.9c7.2-0.6,10.9,3.1,18.5,1.4
			c8.2-1.8,6-14.6-2.3-12.9c-29.8,6.2-55.5,25-78.1,44.5c-4.6,4-1.3,13.4,5.3,11.5c30.4-8.8,56.6-26.3,85.1-39.5
			c6.8-3.1,3.4-13.5-3.9-12.3c-30,4.7-60.7,26.1-82.7,46.2c-5.1,4.7-1.1,11.9,5.3,11.5c32.9-2.1,58.1-24.9,88-36
			c-1.8-4-3.7-7.9-5.5-11.8C253,73,224.7,88.7,196.9,105.4c-4.9,2.9-5.1,12.5,2.1,12.4c43.7-0.7,70.1-43.2,112.2-47.4
			c-0.8-4.3-1.5-8.6-2.3-12.9c-16.8,5.1-30.4,14.9-44.7,24.8c-16.9,11.7-36.1,19-52.1,32.1c-5.7,4.7,0.2,14.2,6.9,11
			c33.1-15.8,61.9-43,100-45.5c-1.3-4.1-2.6-8.2-3.9-12.3c-33.8,16.9-66.7,35.3-97.5,57.3c-5.4,3.8-0.9,12.8,5.3,11.5
			c43.2-9,77.8-37.4,116.3-57.3c-2.3-3.7-4.6-7.3-6.9-11c-17.2,11.9-34.7,24-53.7,32.8c-15.8,7.3-31.6,12.4-44.6,24.5
			c-5.1,4.8-1.1,11.7,5.3,11.5c43-1.8,71.3-42.3,112.8-49.3c-1.3-4.1-2.6-8.2-3.9-12.3c-30.8,14.4-63.4,25.4-90.9,45.9
			c-5.1,3.8-1.1,13.2,5.3,11.5c36.1-9.8,66.4-32.9,102.4-42.7c-1.8-3.8-3.5-7.6-5.3-11.5c-15.3,15.2-35.5,26.4-56.5,31.1
			c-14.4,3.2-27.8,6.5-37.6,18.1c-4.2,4.9,1.4,10.5,6.4,10.2c37.6-2.1,64.2-34.4,101-39.5c-1.3-4.1-2.6-8.2-3.9-12.3
			c-30.8,13.5-63.9,21.2-93.2,38.1c-5.1,2.9-5,12.4,2.1,12.4c14.7,0.1,27.4-4.6,41-9.9c20.3-8,42.1-11.1,62.4-19.4
			c7-2.9,3.3-13.5-3.9-12.3c-33.9,5.6-59.9,30.8-93.2,38.1c-8.2,1.8-6.1,14,2.3,12.9c35.6-5.1,69-18.9,104.1-26.1
			c-1.3-4.1-2.6-8.2-3.9-12.3c-15.6,9.1-31.1,14.4-49.1,16.6c-12.7,1.5-24.1,0.6-36.1,5.9c-6.4,2.8-3.8,11.2,2.1,12.4
			c32.3,6.5,60.2-19.6,91.9-13.1c-1.6-3.4-3.1-6.9-4.7-10.3c-18,20.3-59.5,20.2-84.6,22.8c-7.4,0.8-6.7,12.3,0.5,12.9
			c28.7,2.4,55.9-9.3,82.6-18.1c7.7-2.5,2.8-12.7-3.9-12.3c-24.1,1.1-55.4,6.2-73.9,23c-3.2,2.9-3.3,9.9,1.8,11.1
			c32.4,7.9,57.9-11.7,88.3-18.9c-1.3-4.1-2.6-8.2-3.9-12.3c-21,12-45.3,14.8-66.9,25.3c-6.3,3.1-3.9,11.1,2.1,12.4
			c22.1,4.8,40.2-8.3,59.6-17.1c7.1-3.2,3.2-13-3.9-12.3c-18.3,1.7-31.6,13.9-44.7,25.8c-4.1,3.8-2.3,10.9,3.5,11.5
			c16.4,1.7,25.3-7.8,36.9-18.1c6.3-5.6-1.9-15.6-8.3-10.1c-11,9.6-19.6,19.4-24.5,33.3c-1.7,4.8,2.3,9.4,7.2,8.8
			c13.6-1.7,19.7-12.7,25.4-24c2.8-5.6-4.1-10-8.8-8.2c-11,4.1-13.7,14.1-18.4,24c-2.4,5,4,11.1,8.8,8.2c8.7-5.2,13-11.2,10.5-21.7
			c-1.9-8.1-14.8-6-12.9,2.3c-1.1,2.5-2.1,5.1-3.2,7.6c2.9,2.7,5.9,5.5,8.8,8.2c2.7-5.7,5.1-14.3,11.7-16.8
			c-2.9-2.8-5.9-5.5-8.8-8.2c-2.7,7.5-7.8,12.7-15.5,15.8c2.4,2.9,4.8,5.8,7.2,8.8c4.2-11.7,11.3-19.8,20.6-27.9
			c-2.8-3.4-5.5-6.7-8.3-10.1c-7.9,6.9-15.1,16.4-27.4,15.1c1.2,3.8,2.4,7.7,3.5,11.5c11.3-10.4,22.6-21.5,38.6-23
			c-1.3-4.1-2.6-8.2-3.9-12.3c-16.9,7.7-33.4,20.1-52.8,15.9c0.7,4.1,1.4,8.3,2.1,12.4c21.6-10.5,45.9-13.2,66.9-25.3
			c6-3.5,3.8-14.2-3.9-12.3c-26.8,6.3-53.1,26.5-81.4,19.6c0.6,3.7,1.2,7.4,1.8,11.1c16.8-15.3,45.9-19.2,67.9-20.2
			c-1.3-4.1-2.6-8.2-3.9-12.3c-24.5,8.1-49.6,19.2-75.9,17c0.2,4.3,0.3,8.6,0.5,12.9c29.6-3,71.6-3.9,92.9-28
			c3.6-4.1-0.4-9.4-4.7-10.3c-32.2-6.6-60,19.5-91.9,13.1c0.7,4.1,1.4,8.3,2.1,12.4c13.9-6.1,30.4-4.4,45.3-6.5
			c14.2-2,27.7-8.8,39.9-16c6.1-3.5,3.8-13.9-3.9-12.3c-35.1,7.3-68.5,21.1-104.1,26.1c0.8,4.3,1.5,8.6,2.3,12.9
			c33.3-7.3,59.6-32.5,93.2-38.1c-1.3-4.1-2.6-8.2-3.9-12.3c-15.9,6.5-32.5,9.8-49,14.3c-16.2,4.5-30.1,13.9-47.6,13.8
			c0.7,4.1,1.4,8.3,2.1,12.4c29.3-16.9,62.4-24.6,93.2-38.1c7-3,3.3-13.4-3.9-12.3c-36.8,5.1-63.8,37.4-101,39.5
			c2.1,3.4,4.3,6.8,6.4,10.2c12-14,31.3-9.9,46.3-17.3c16.4-8.1,32.5-16.5,45.6-29.4c4.2-4.1,1.6-13.3-5.3-11.5
			c-36.1,9.8-66.4,32.9-102.4,42.7c1.8,3.8,3.5,7.6,5.3,11.5c26.6-19.8,58.3-30.2,88.1-44.1c6.7-3.1,3.4-13.6-3.9-12.3
			c-41.5,7-70.5,47.5-112.9,49.3c1.8,3.8,3.5,7.6,5.3,11.5c13.4-12.5,30.6-17.6,46.9-25.1c18.1-8.3,35.1-20.9,51.4-32.2
			c6.1-4.3-0.4-14.3-6.9-11c-37.3,19.3-71.2,47.5-113,56.3c1.8,3.8,3.5,7.6,5.3,11.5c29.9-21.4,61.8-39.1,94.6-55.5
			c7-3.5,3.3-12.8-3.9-12.3c-39.4,2.6-69,30.2-103.2,46.5c2.3,3.7,4.6,7.3,6.9,11c13.7-11.3,29.8-18.4,45-27.5
			c15.3-9.1,28.3-21.4,45.8-26.7c7.9-2.4,6.3-13.7-2.3-12.9c-41,4.1-67.5,46.7-108.7,47.3c0.7,4.1,1.4,8.3,2.1,12.4
			c27.8-16.6,56.1-32.4,85.3-46.5c7.7-3.7,2.3-14.7-5.5-11.8c-28.8,10.6-53.2,32.9-84.8,34.9c1.8,3.8,3.5,7.6,5.3,11.5
			c20.5-18.7,48.7-39,76.6-43.4c-1.3-4.1-2.6-8.2-3.9-12.3c-27.3,12.7-52.7,30.1-81.9,38.5c1.8,3.8,3.5,7.6,5.3,11.5
			c21-18,44.5-36,72.1-41.7c-0.8-4.3-1.5-8.6-2.3-12.9c-4,0.9-13.7-2-18.5-1.4c-11.3,1.4-22.7,1.5-34.1,2.9
			c0.8,4.3,1.5,8.6,2.3,12.9c3.1-0.5,6.2-1.2,9.2-1.8c8.5-1.9,8.3-5.7-0.6-1.4c-9.5,4.6-20.2,6.4-29.7,11.1c2.7,3.2,5.4,6.5,8,9.7
			c5.8-7.8,12.3-12.4,21.1-16.4c-2.3-3.7-4.6-7.3-6.9-11c-9.5,8.3-19.7,15.6-29.5,23.4c-5.8,4.6,0.2,14.3,6.9,11
			c15.5-7.8,30.9-22.6,49.1-22.8C254.3,61,255.6,48,247.2,48.1L247.2,48.1z"/>
	</g>
	<g>
		<path class="st10" d="M286.8,59.2c-2.1-2.9-4-3.9-7.6-3.7c-8.1,0.3-9.8,12.7-1.2,13c32.4,1.2,63.5,4.7,93.9,16.4
			c1-4.2,2-8.4,2.9-12.6c-21.4-1.7-41.2-8.1-61.2-15.4c-1,4.2-2,8.4-2.9,12.6c25.2,0.5,47.1,4,69.4,16.6c0.9-3.9,1.8-7.8,2.7-11.7
			c-12.5,2.8-21.8-0.7-30.9-10c-2.5,3.4-4.9,6.8-7.4,10.3c17.4,9.3,30.1,24.7,48.2,33c1-4.2,2-8.4,2.9-12.6
			c-9.7-2.1-17.5-6.9-23.5-14.5c-2.9,3.1-5.9,6.3-8.8,9.4c12.1,10.8,21.6,23.7,35.1,32.8c6,4.1,13.8-3.7,8.8-9.4
			c-7.4-8.7-15-16.7-20.4-26.8c-2.7,2.9-5.5,5.9-8.3,8.8c6,1,11.5,3.5,16.3,7.4c6.4,4.1,13.2-3.4,8.8-9.4
			c-6.3-8.8-14.2-16.1-20.6-24.9c-1.9,3.6-3.8,7.1-5.7,10.7c1.8,0.2,3.6,0.3,5.4,0.5c6.1,0.6,10.2-8.4,4.4-11.8
			c-2.4-2.6-4.8-5.1-7.2-7.7c-3.4,2.1-6.8,4.3-10.2,6.4c6.5,4.8,12.1,10.6,18.1,15.9c2.5-3.5,5.1-7.1,7.6-10.6
			c-5.7-3.9-10.6-8.6-16.3-12.5c-2.5,3.5-5.1,7.1-7.6,10.6c2.7,1.7,5.5,3.4,8.2,5.2c2-3.8,4.1-7.6,6.1-11.4
			c-13.8-7.3-26.8-14.3-42-18.2c-1,4.2-2,8.4-3,12.6c14.4,2.4,33,4.4,43,16.4c5.4,6.5,15.5-1.9,10.1-8.3c-12.5-15-33.6-18-51.8-21.1
			c-7.2-1.2-10.1,10.7-3,12.6c15.2,3.9,28.2,11,42,18.2c6.6,3.5,12.4-7.5,6.1-11.4c-2.7-1.7-5.5-3.4-8.2-5.1
			c-7.1-4.4-14.6,5.9-7.6,10.6c5.7,3.8,10.6,8.6,16.3,12.5c7.1,4.8,13.8-5.1,7.6-10.6c-6.1-5.4-11.6-11.1-18.1-15.9
			c-4.3-3.2-11.8,0.7-10.2,6.4c2.3,8,5.1,11.7,12.4,16c1.5-3.9,3-7.9,4.4-11.8c-1.8-0.2-3.6-0.3-5.4-0.5c-6-0.6-8.9,6.2-5.7,10.7
			c6.3,8.8,14.3,16.1,20.6,24.9c3-3.1,5.9-6.3,8.8-9.4c-6.3-4.1-11.9-7.1-19.3-9.1c-5-1.3-11.2,3.3-8.3,8.8
			c6,11.1,14,20.1,22.2,29.7c3-3.1,5.9-6.3,8.9-9.5c-13.4-9.1-23.1-22.1-35.1-32.8c-5.6-5-13.8,4.1-8.8,9.4
			c9.4,10.1,18.8,16.3,32.3,19.2c7.6,1.6,9.2-9.7,2.9-12.6c-18-8.2-30.8-23.7-48.2-33c-5.8-3.1-11.8,5.7-7.4,10.3
			C353.7,84.8,368,91,385,87.2c5-1.1,8-8.7,2.7-11.7c-24.4-13.9-47.9-18.4-75.8-19.1c-7.1-0.1-10.2,10-2.9,12.6
			c21.2,7.7,42.1,14.4,64.7,16.2c7.3,0.6,9.9-9.9,2.9-12.6c-31.5-12.1-63.8-16-97.3-17.2c-0.4,4.3-0.8,8.7-1.2,13
			c-0.4-0.3-0.8-0.6-1.3-0.9C281.8,74.3,291.8,66,286.8,59.2L286.8,59.2z"/>
	</g>
	<g>
		<path class="st10" d="M132.1,187c-1.9,0.3-3.5,1.5-5.3,1.7c-2.1,0.2-4.4,2.1-5,4.1c-5,16.6,15.9,28.5,27.2,36.2
			c2.5-3.5,5.1-7.1,7.6-10.6c-7.8-4.5-15.6-9-23.6-13.1c-5.7-3-12,5.8-7.4,10.2c6.1,5.8,14,9.7,22.2,11.8
			c8.1,2.1,12.8-10.1,4.7-12.2c-5.7-1.5-12.4-3.8-16.7-7.9c-2.5,3.4-4.9,6.8-7.4,10.2c7,3.6,13.8,7.6,20.6,11.5
			c7.2,4.1,14.7-5.8,7.6-10.6c-4.5-3-9-6-13.2-9.4c-2.3-1.8-10.6-7.9-9.5-11.6c-1.7,1.4-3.3,2.7-5,4.1c1.9-0.2,3.5-1.4,5.3-1.7
			C142.6,198.5,140.4,185.7,132.1,187L132.1,187z"/>
	</g>
	<g>
		<path class="st10" d="M115.2,354.4c-8.9-2.5-15.3-9.3-24.4-11.8c1.4,2.2,2.8,4.5,4.2,6.7c0.1-1,0.2-1.9,0.3-2.9
			c-2.4,2-4.7,3.9-7.1,5.9c4.1,0.5,7.7,2,10.8,4.5c2-3.8,4.1-7.6,6.1-11.4c-7-2.2-13.4-3.2-20.7-2.7c-3.7,0.2-5.7,4.3-5.3,7.6
			c3.4,25.7,42.9,39.2,64.2,28.5c10.1-5.1,22.8-14.9,21.1-27.4c-1.4-10.1-23-14.6-30.6-17c-2.7-0.8-6-0.3-7.6,2.3
			c-6.4,10.5-31.1,16-17.5,32c9.6,11.2,29.6-3.9,35.7-12c4-5.3-2.2-12.4-8-9.7c-8.1,3.7-15.1,7.7-15.8,17.3
			c-0.3,3.8,2.3,6.4,5.9,7.1c8.9,1.9,31.4-5.9,26.3-18.3c-3.2-7.8-15-2.3-11.8,5.5c0.1,0.3,0.2,0.5,0.3,0.8c0.2-2.2,0.4-4.4,0.6-6.6
			c-2.4,4.3-9.7,6.5-14.2,5.6c2,2.4,3.9,4.7,5.9,7.1c0.3-4.3,5.1-5.2,8.3-6.7c-2.7-3.2-5.4-6.5-8-9.7c-3.5,4.7-12.5,8.2-14.1,9.5
			c6-4.9,12.9-7.5,17.1-14.3c-2.5,0.8-5.1,1.5-7.6,2.3c5.8,1.8,11.5,3.9,17.2,6.2c7.2,2.9,5.4,3.3,0.1,8.1c-3.1,2.9-6.8,5.1-10.6,7
			C122.5,374.6,94,363.2,92,348c-1.8,2.5-3.5,5-5.3,7.6c4.8-0.4,9.4,0.2,13.8,2c6.8,2.1,12.6-7.1,6.1-11.4
			c-5.7-3.7-10.3-6.7-17.2-6.9c-3.6-0.1-6.8,2.2-7.1,5.9c-0.1,1-0.2,1.9-0.3,2.9c-0.3,2.7,1.4,6,4.2,6.7c8.9,2.4,15.4,9.2,24.4,11.8
			C118.6,368.8,123.3,356.7,115.2,354.4L115.2,354.4z"/>
	</g>
	<g>
		<path class="st10" d="M384.7,369.9c-3.3-1.1-6.5-1.5-4.9-0.5c0.9,2,1.8,3.9,2.7,5.9c0-0.2,0-0.5,0.1-0.7c-2.4,2-4.7,3.9-7.1,5.9
			c5,0.5,9.6,0.2,14.4-1.5c6.3-2.2,17-9.6,23.2-3.7c7.7,7.4,14.3,10.1,24.9,7.6c2.9-0.1,5.3-1.3,7.2-3.5c-2.1,2-4.9,3.2-7.5,4.5
			c-4.3,2.2-8.9,3.9-13.4,5.5c-14.6,5.3-29.1-0.5-37.9-13.2c-1.3,3.5-2.6,7.1-3.9,10.6c10.8-0.8,21.2-0.6,30.1,6
			c4.7,3.5,9.8,3.2,14.6,0.5c4.8-2.7,5.2-9.8-0.4-12c-10.7-4.2-23.5-10.6-30.1,2.4c-1.7,3.4,0.9,7,3.8,8.4
			c10.9,5.3,28.6,7.6,33.4-6.5c2.7-8-9.5-12.6-12.2-4.6c-1.9,5.5-13.3,0.6-16.6-1.1c1.2,2.8,2.5,5.6,3.8,8.4
			c0.3-0.5,12,4.6,13.3,5.1c-0.1-4-0.3-8-0.4-12c-1.7,1-12.6-6.1-15.5-6.5c-8.6-1.4-17.2-1.6-25.9-1c-5.3,0.4-6.4,7-3.9,10.6
			c9.6,14,28.3,23.7,45.4,19.3c10.8-2.7,31.3-8.4,36.3-19.7c7.3-16.7-17.8-15.1-26.2-13.1c-6.3,1.5-14.9-10.5-22.6-11.3
			c-11.4-1.1-20.8,9-32.4,7.8c-3.5-0.3-6.8,2.3-7.1,5.9c0,0.2,0,0.5-0.1,0.7c-0.2,2.2,0.8,4.7,2.7,5.9c2.8,1.8,5,1.2,7.9,2.1
			C388,384.6,392.7,372.4,384.7,369.9L384.7,369.9z"/>
	</g>
	<g>
		<path class="st10" d="M410.5,373.3c-1.3-1.6-0.2-0.9-0.3,0.2c-2.4,2-4.7,3.9-7.1,5.9c3,0.4,6.5,3.8,9.2,5.8
			c2.1-3.8,4.1-7.6,6.1-11.4c-2.7-0.9-4.6-3.1-6.7-5.1c-2.5,3.5-5.1,7.1-7.6,10.6c3.4,2,7.1,3.4,11.2,2.5c4.2-0.9,7.3-4.2,8.5-8.2
			c1-3.4-0.2-7.1-3.8-8.4c-3.1-1.2-7.4,0.4-8.4,3.8c-0.7,2.4-0.5,0.5,0.9,0.2c1.5-0.3-0.8-0.3,0.4,0c0.1,0-1.8-0.8-1.1-0.4
			c-3.1-1.8-6.9-1.6-9.1,1.5c-2.3,3.1-1.1,6.7,1.5,9.1c3,2.8,5.7,5.3,9.7,6.7c7,2.4,12.1-6.9,6.1-11.4c-4.8-3.6-9.5-7.3-15.6-8.2
			c-3.4-0.5-6.9,2.4-7.1,5.9c-0.2,3.7,0.9,6.5,3.2,9.3C405.8,388.1,415.8,379.8,410.5,373.3L410.5,373.3z"/>
	</g>
	<g>
		<path class="st6" d="M443.9,69.1c-5.1-5.7-13.7-8.6-18.6-0.8c-4,6.3-2.7,14.3,2,19.9c4,4.7,11,8.2,17.2,6.5
			c7-1.8,10.4-8.7,9.8-15.6c-0.9-9.9-12.8-15-21.2-16.3c-3.7-0.6-8.8-0.3-11.7,2.5c-4.2,4.2-3.1,9.8,0.6,13.9
			c5.6,6.2,15.7-2.1,10.1-8.3c-0.3-0.3-0.5-0.6-0.8-0.9c-1.1-1.3,0.5,1.1,0-0.1c1.1,2.3-0.2,4.7-2.2,5.9c0.6-0.3,0.4-0.2-0.7,0.1
			c0.4-0.1,0.8-0.2,1.2-0.2c1.5-0.2-1.5,0,0.1,0c0.5,0,1.1,0.1,1.6,0.1c0.4,0,3.1,0.6,1.7,0.3c1,0.3,2,0.6,3,1
			c0.4,0.1,2.8,1.3,1.9,0.8c0.5,0.3,2.9,2.1,2.1,1.4c0.3,0.3,0.5,0.5,0.8,0.8c1.2,1.3-0.5-1.1,0.3,0.4c0.6,1.1,0.3,1,0.3,0.3
			c0,1.5,0.3,0.4-0.3,1.4c0.3-0.5,0.9,0.2,0,0c-2.4-0.6-4.2-2.3-5.1-4.4c0.1,0.2,0-1.6,0.1-1.8c0.3-1.3,0.5-0.6-0.8,0.1
			c-1,0-2,0-2.9-0.1c0.6,0.4,1.1,0.8,1.5,1.4C439.4,83.7,449.5,75.4,443.9,69.1L443.9,69.1z"/>
	</g>
	<g>
		<path class="st6" d="M164.7,37.3c-2.3-4.6-6.4-6.9-11.5-6.4c-4.2,0.4-7.8,3.7-10.5,6.7c-6.1,6.9-7.3,18.8,1.4,24.2
			c10.9,6.7,26.1-5.2,25.6-17.1c-0.3-7-5-13.6-12.7-12.4c-6.4,1-11.1,8.3-12.5,14.1c-0.8,3.6,0.2,6.8,3.8,8.4c2.3,1,5,1.6,7.4,0.5
			c0.8-0.4,1.5-0.8,2.2-1.4c-0.4,0.4,2.4-2.9,1.4-1.9c2.5-2.5,3.3-6.2,0.9-9.2c-2.1-2.5-6.7-3.4-9.2-0.9c-0.5,0.5-1.1,1.1-1.6,1.7
			c-1,1.4-1,0.7,0.8-0.2c1.1-0.2,2.2-0.4,3.4-0.6c0.7,0.4,0.5,0.3-0.7-0.2c1.3,2.8,2.5,5.6,3.8,8.4c0.4-1.8,1.5-5.1,2.9-5.9
			c1.4-0.6,0.8-0.7-2-0.3c-1-0.2-1.2-1.2-1-0.4c0.1-0.5,0.1-0.3,0,0.5c0-0.6-0.5,1.4-0.5,1.4c-0.7,1.8-2.7,3.4-4.4,4.2
			c-0.9,0.4-1.4,0-0.4,0.4c-0.8-0.3-0.8-0.4-0.3-0.1c-1.5-0.9,0.6,0.8-0.5-0.4c0.4,0.7,0.4,0.7,0.1,0.1c0.6,1.2,0,0.1,0-0.4
			c0.3,2,0.5-2,0-0.3c0.2-0.9,0.6-1.8,1.1-2.7c-0.5,1.1,0.9-1.2,1.1-1.5c0.4-0.5,1.9-1.7,2.4-2c0.8-0.4-1.1,0-0.4,0.1
			c-0.3,0-2.3-1.1-1.4-0.4c-0.3-0.2-1.3-1.8-0.7-0.6C156.6,50.3,168.4,44.8,164.7,37.3L164.7,37.3z"/>
	</g>
	<g>
		<path class="st6" d="M245.2,153.4c-32.1,3.6-78.7,35.1-44.6,66.8c15.4,14.3,40.1,20,60.1,23.7c12,2.2,25.8,3.8,37.9,3.1
			c15.3-0.9,23.4-9.4,36.7-15.6c-2.3-3.7-4.6-7.3-6.9-11c-1.9,1.7-4,3.2-6.3,4.5c2.8,3.4,5.5,6.7,8.3,10.1
			c12.1-9,20.8-25.2,14.8-40.5c-8.4-21.7-30.9-29.3-51.4-35.8c-29.3-9.3-89.4,2.3-83.6,44.5c3.7,26.5,57.5,38.5,79.1,36.9
			c26-1.9,59.7-21.3,31.2-47.6c-21.8-20.1-75.2-38.9-97-7.7c-21.1,30.3,45.3,48.2,64.4,50.5c15,1.8,29.4-4.7,35.7-18.6
			c6.1-13.5-10-26.5-19.2-32.8c-14.5-9.9-61.3-27.4-72.3-3.6c-17,36.9,61.1,56.5,82.4,35.7c3.3-3.2,2.9-7.3-0.3-10.3
			c-9.5-8.7-71.7-55.3-74.5-17.5c-2.2,29.6,53.2,49.3,70.9,26.1c1.6-2.1,1.8-6-0.3-8c-10-9.5-49.6-40.1-63.3-24.9
			c-19.3,21.4,42.1,33,52.7,34.3c7.7,0.9,9.4-9.6,2.9-12.6c-15.9-7.4-29.2-18.1-47.2-19.3c-3.4-0.2-7,2.2-7.1,5.9
			c-0.8,27.6,44.1,31.2,61.7,20c2.8-1.8,3.2-6.9,0.9-9.2c-6.5-6.4-45-23.2-44.6-30.9c-2.4,2-4.7,3.9-7.1,5.9
			c15.1,0.8,32.7,9.8,47.1,14.5c0.4-4.2,0.8-8.4,1.2-12.5c-13.2,3.4-25.4-8.3-35-15.8c-1.5,3.9-2.9,7.9-4.4,11.8
			c17.7-0.6,41.1,6,51.6,21.2c1.3-3.5,2.6-7.1,3.9-10.6c-7.2,1.1-13-8.9-16.4-13.7c-3.4,2.8-6.7,5.5-10.1,8.3
			c6.6,8.5,15.2,14.2,22.7,21.8c2.5-3.4,4.9-6.8,7.4-10.2c-12.2-6.1-16.2-23.3-29.1-29.7c-15.5-7.7-33.9-7.8-50.7-5.5
			c-20.7,2.9-60.1,27.3-46,54.2c11.7,22.3,47.9,38.8,69.8,20.6c9.2-7.7,21.1-15.2,23.3-27.7c1.9-11.2-11-14.4-18.7-13.2
			c-8.3,1.3-6.1,14.1,2.3,12.8c6.1-0.9-5.9,10.1-7.2,11.3c-10.9,9.2-19.7,13.8-34.1,9.2c-15.1-4.8-28.8-19.4-19.9-35.4
			c6.4-11.4,21.1-16.2,32.9-19c17.2-4.1,39.9-1.3,51.8,12.5c6.7,7.8,11.5,17.2,21.1,21.9c5.8,2.9,11.8-5.7,7.4-10.3
			c-7.4-7.6-16.2-13.4-22.7-21.8c-5.2-6.7-14.9,1.5-10.1,8.3c7.4,10.4,14.9,20.4,28.7,18.3c5.2-0.8,6.6-6.7,3.9-10.6
			c-12.4-17.9-39.4-26.6-60.4-25.9c-6.3,0.2-9.9,7.5-4.4,11.8c12.6,9.9,27.8,22.4,44.9,18c5.8-1.5,7.8-10.4,1.2-12.5
			c-15.6-5-34.1-14.4-50.5-15.3c-3.4-0.2-7,2.2-7.1,5.9c-0.8,20.2,35.8,28.9,47.6,40.5c0.3-3.1,0.6-6.1,0.9-9.2
			c-7.1,4.5-40.8,5-40.4-8.7c-2.4,2-4.7,3.9-7.1,5.9c16.5,1.1,29.3,11.8,43.8,18.5c1-4.2,2-8.4,2.9-12.6
			c-14.6-1.7-27.7-8.1-41.3-11.3c13.8,3.3,30.4,13.4,40.7,23.2c-0.1-2.7-0.2-5.3-0.3-8c-6.6,8.6-21.4,3.5-29.4,0.6
			c-4.6-1.7-8.7-4.4-12.5-7.3c-7.9-5.9-3.3-14.2,5.4-11.7c15.7,4.5,31.2,17,43.1,27.9c-0.1-3.4-0.2-6.9-0.3-10.3
			c-14.1,13.8-43.1,3.2-56.7-6.5c-16-11.4,6.5-17,15.1-16.4c7.7,0.5,14.6,2.7,21.6,5.8c8.6,3.8,16.6,9.1,22.7,16.2
			c-3.6,5.6-7.2,11.3-10.8,16.9c-5,0.7-9.9,0.6-14.8-0.3c-6.9-0.8-13.8-3.6-20.3-6.1c-5.5-2-38.3-14.2-26.9-25.2
			c9.8-9.5,22.5-9.1,35-7.3c19.9,2.9,69.5,32.1,28.6,42.5c-16.7,4.2-33.2-1.5-49.1-6.3c-9.7-3-21.3-7.2-27-16.2
			c-10.3-16.4,24.6-32.6,34.7-35.2c26.2-6.7,105.3,25.9,63.3,57.1c-6.9,5.1,1.4,14.6,8.3,10.1c2.2-1.3,4.3-2.8,6.3-4.5
			c5.8-4.6-0.2-14.1-6.9-10.9c-6.7,3.1-12.2,7.3-18.5,11.2c-9.5,5.9-22.4,2.8-32.8,1.7c-14.6-1.4-28.1-3.7-42-8.3
			c-14.6-4.8-44.8-17.2-31.7-37.2c8.1-12.4,28.7-19.3,42.7-20.9C255.9,165.3,253.6,152.4,245.2,153.4L245.2,153.4z"/>
	</g>
	<g>
		<path class="st19" d="M266.3,162.8c-0.6-1.1-1.1-2.1-1.8-3.1c-1.1-1.7-4.2-2.9-6.2-2.3c-0.1,0.1-0.3,0.1-0.4,0.1
			c1.8,3.8,3.5,7.6,5.3,11.5c0.1,0,0.1-0.1,0.2-0.1c-1.6,0.5-3.2,1-4.8,1.5c-2.3-1.1-2.9-1.3-1.9-0.5c-0.5-0.4-0.4-0.4,0.2,0.2
			c0.8,0.9,1.6,1.8,2.4,2.8c2,2.5,3.6,3.7,6.9,4.4c7,1.4,11.6-1.7,16.5-6.3c3.2-3,3.3-9.8-1.8-11.1c-4.8-1.3-9.6-2.5-14.6-3.1
			c-8.4-1-9.6,12-1.2,13c3.8,0.4,7.5,1.3,11.1,2.3c-0.6-3.7-1.2-7.4-1.8-11.1c-1.4,1.3-3.2,3.2-4.4,3.8c1-0.5-0.9-0.1,0.1-0.1
			c-1.2,0-2.5-0.3-3.7-0.6c1.5,0.8,2.9,1.6,4.4,2.3c-3.5-4.6-9.5-12.5-15.9-7.3c-4.7,3.8-1.2,13.5,5.3,11.5c0.1-0.1,0.3-0.1,0.5-0.2
			c-2.1-0.8-4.1-1.5-6.2-2.3c-0.5-0.6-0.6-0.5,0,0.3C258.5,175.6,270.4,170.2,266.3,162.8L266.3,162.8z"/>
	</g>
	<g>
		<path class="st13" d="M172.5,150.8c-0.9,0.5-1,0.6-0.3,0.3c0.8-0.4,1.5-0.8,2.1-1.4c1.9-1.5,2.6-3.7,3-6
			c-3.8,1.2-7.7,2.4-11.5,3.5c0.7,0.8,1.6,1.5,2.4,2.3c0.3,0.3,0.7,0.6,1,0.9c-0.5-0.4-0.5-0.4-0.1,0c3.4,3.7,9.1,2.8,11.1-1.8
			c0.6-1.3,0.6-3.1,1.1-4.3c0.9-2.1,0.4-4.7-1.1-6.5c-2-2.5-4.9-2.7-7.8-1.8c-0.1,0-0.1,0-0.2,0.1c-2,0.6-3.7,3.3-3.8,5.3
			c-0.1,2.5,0.7,4.3,2.2,6.2c3.6,4.5,11,2.1,11.5-3.5c0.1-0.7,0.1-1.4,0.2-2.2c-2.4,2-4.7,3.9-7.1,5.9c0.5,0.1,1,0.1,1.4,0.1
			c7.4,0.7,9.9-10,2.9-12.6c-2.7-1-5.1-2.4-7.7-3.6c-1.5,4.1-3.1,8.1-4.6,12.2c3.5,1.6,6.1,2.7,8.2,5.6c1.3-3.5,2.6-7,3.9-10.6
			c0.6,0.2,0.5,0.2-0.3,0c1.1,0.1,0.5,0.1,0.1-0.1c-7.8-3.2-12.4,9-4.6,12.2c2.2,0.9,4.8,1.2,7.1,0.7c5-1.2,6.8-6.4,3.9-10.6
			c-3.3-4.7-8.5-7.3-13.6-9.5c-3.2-1.4-7.2,0.6-8.4,3.8c-1.3,3.5,0.6,6.9,3.8,8.4c2.6,1.2,5,2.6,7.7,3.6c1-4.2,2-8.4,2.9-12.6
			c-0.5,0-1-0.1-1.4-0.1c-3.5-0.3-6.8,2.3-7.1,5.9c-0.1,0.7-0.1,1.4-0.2,2.2c3.8-1.2,7.7-2.4,11.5-3.5c-0.8-1,0.6,1.2,0.1,0.2
			c0.2,1.1,0.4,2.2,0.6,3.4c0-0.1,0-0.1,0-0.2c-1.3,1.8-2.5,3.5-3.8,5.3c0.1,0,0.1,0,0.2-0.1c-3-2.7-5.9-5.5-8.8-8.2
			c-0.6,1.3-0.6,3.1-1.1,4.3c3.7-0.6,7.4-1.2,11.1-1.8c-0.7-0.8-1.6-1.5-2.4-2.3c-0.3-0.3-0.7-0.6-1-0.9c0.5,0.4,0.5,0.4,0.1,0
			c-4-4.4-10.5-2.1-11.5,3.5c2.9-2.8,3.5-3.8,2-3c-0.7,0.3-1.4,0.8-2.1,1.3c-3,2-3,6.7-0.9,9.2C165.7,152.9,169.5,152.8,172.5,150.8
			L172.5,150.8z"/>
	</g>
	<g>
		<path class="st13" d="M377.2,167.6c2.2-1.5,2.3-0.9,0.8-0.7c-1.3,0.2-2.5,0.8-3.6,1.5c-2.6,1.9-3,5-2.7,8c0.2,2.3,2.1,4.1,4.1,5
			c0.7,0.3,1.4,0.6,2.1,0.9c2.5,1.1,6.1,0.1,7.6-2.3c0.6-0.9,1.1-1.8,1.7-2.7c2.6-4.1,0.5-9.8-4.7-10.3c-1.4-0.1-2.9-0.3-4.3-0.4
			c2,2.4,3.9,4.7,5.9,7.1c0.1-3.3-0.7-6.4-2.5-9.2c-1.9,3.6-3.8,7.1-5.7,10.7c1.7,0.2,3.4,0.3,5.1,0.5c-2-2.4-3.9-4.7-5.9-7.1
			c-0.1,1.4,0,2.8,0.1,4.2c0,0.6,0,1.2,0.1,1.8c-0.1-1.6,0,0.3-0.1,0.6c1.8-1.9,3.6-3.9,5.4-5.8c-0.5,0.1-1,0.3-1.5,0.4
			c-0.2,0.1-2.3,0.3-0.6,0.2c-0.5,0-1.8-0.5-0.3,0c-1.6-0.5,1.1,0.7-0.6-0.3c0.5,3,1,6.1,1.5,9.1c0.1-0.1,1.2-1.7,0.3-0.8
			c0.3-0.3,0.6-0.5,0.9-0.7c-0.6,0.4-0.6,0.4,0.1,0.1c-1.2,0.5,0.4-0.1,0.7-0.1c0.8-0.1,0.8-0.1,0-0.1c0.4,0,0.8,0,1.2,0.1
			c3.5,0.3,6.8-2.3,7.1-5.9c0.3-3.5-2.3-6.9-5.9-7.1c-5.8-0.4-12,1.6-15.1,6.9c-1.6,2.9-1.8,7.1,1.5,9.1c4.2,2.6,8.1,3.2,12.9,1.9
			c2.8-0.8,5.2-2.7,5.4-5.8c0.1-1.4,0-2.8-0.1-4.1c0-0.6-0.1-1.2-0.1-1.8c0.1,1.6,0-0.3,0.1-0.7c0.2-3.5-2.2-6.8-5.9-7.1
			c-1.7-0.2-3.4-0.3-5.1-0.5c-2.3-0.2-4.6,0.8-5.9,2.7c-1.9,2.6-1.4,5.5,0.3,8c-0.6-0.9-0.9-2.2-0.6-0.5c0.1,0.7,0.1,2.6,0.1,0.2
			c-0.1,3.6,2.2,6.8,5.9,7.1c1.4,0.1,2.9,0.3,4.3,0.4c-1.6-3.4-3.1-6.9-4.7-10.3c-0.6,0.9-1.1,1.8-1.7,2.7c2.5-0.8,5.1-1.5,7.6-2.3
			c-0.7-0.3-1.4-0.6-2.1-0.9c1.4,1.6,2.7,3.3,4.1,5c0.4,4.3-7.1,6.1-3.3,5.5c1.6-0.3,2.8-1,4.2-1.9c2.9-2,3-6.6,0.9-9.2
			C383.9,165.6,380.1,165.6,377.2,167.6L377.2,167.6z"/>
	</g>
	<g>
		<path class="st13" d="M44.7,87.1c-1.3,1.2-2.8,2.9-3.3,4.5c-0.6,2.1-0.6,4.8,1.1,6.5c0,0,0,0,0,0c2,2,5,3.3,7.8,1.8
			c1.6-0.9,2.5-1.9,3.8-3.3c2.4-2.6,1.1-7.2-1.5-9.1c-3.2-2.3-6.7-1.1-9.1,1.5c0.3-0.5,0.8-0.8,1.3-1c2.6,0.6,5.2,1.2,7.8,1.8
			c0,0,0,0,0,0c0.4,2.2,0.7,4.3,1.1,6.5c0.2-0.8-1,1.7-0.3,0.6c0.3-0.5,1.2-1.1-0.3,0.2c2.6-2.4,3.2-6.3,0.9-9.2
			C51.8,85.4,47.3,84.7,44.7,87.1L44.7,87.1z"/>
	</g>
	<g>
		<path class="st20" d="M30.1,95.9c-4.1,3.1-6.3,6.1-7.4,11.2c3.8-1.2,7.7-2.4,11.5-3.5c-0.4-0.5-0.7-1.1-1-1.7
			c-3-5.4-12-4.7-12.4,2.1c-0.3,4.6,0,9.1,1.1,13.5c4.1-1.3,8.2-2.6,12.3-3.9c-2.5-6.5,3.5-13.5,6.1-19.1c-4.2-1-8.4-2-12.6-2.9
			c-1.4,8.9,1.3,16.8,6.2,24.2c3.9,5.8,12.2,0.7,11.5-5.3c-0.7-5.7-3.3-12.1-1.9-17.8c1.7-7.2-6.3-11.9-11.4-6.1
			c-14.3,16.3,7.5,29.9,22.3,31.7c8.4,1,9.6-12,1.2-13c-3.9-0.5-7.8-1.7-11.1-3.7c-4.1-2.4-4.9-3.8-1.8-7.3c-3.8-2-7.6-4.1-11.4-6.1
			c-2.1,8.6,0.2,16.1,1.3,24.7c3.8-1.8,7.6-3.5,11.5-5.3c-3-4.5-4.1-9.3-3.2-14.6c1.2-7.7-9.6-9.3-12.6-2.9
			c-4.7,10.1-10.2,17.9-5.8,29.3c2.7,6.9,14.2,3.3,12.3-3.9c-0.9-3.4-1.2-6.6-1-10c-4.1,0.7-8.3,1.4-12.4,2.1
			c0.8,1.6,1.8,3.1,2.8,4.5c3.6,5.1,10.6,1.5,11.5-3.5c0.2-1.1,1.8-1.8,2.7-2.4C45.1,101,36.8,90.9,30.1,95.9L30.1,95.9z"/>
	</g>
	<g>
		<path class="st20" d="M56,112.3c7-1.7,13.1-5.2,16.1-12.1c2.6-5.9,0.4-13-3.8-17.4c-5.8-6-15.9,2.2-10.1,8.3
			c0.9,0.9,1.4,1.6,1.9,2.8c0.2,0.4,0,0.9-0.2,1.6c-0.7,2-3.9,3.3-6.2,3.9C45.6,101.4,47.8,114.2,56,112.3L56,112.3z"/>
	</g>
	<g>
		<path class="st20" d="M64.9,96.9c2,3,10.7,10.2,9.3,14.2c4-0.1,8-0.3,12-0.4c-3.1-5.3-6.5-10.3-8.7-16.1c-2.7,3-5.5,5.9-8.2,8.8
			c3,1,7.7,2.2,8.7,5.7c2.9-2.4,5.8-4.8,8.8-7.2c-0.8-1-1.6-2-2.3-3c-3.2,2.7-6.5,5.4-9.7,8c9.9,6.8-0.2,25.8-7.7,30.1
			c-9.1,5.2-18.5,7.1-23.9,16.9c-4,7.2,5.9,14.8,10.6,7.6c4.5-6.9,4.6-14.2-0.2-21c-5-7.1-19.4-15.9-17.7-25.5
			c-3.8,1.2-7.7,2.4-11.5,3.5c8.3,11.6,14.2,25.3,28.4,30.6c4.7,1.8,9.5-2.3,8.8-7.2c-1.8-11.1-8-20.5-15.7-28.4
			c-5.3-5.4-13.5-0.2-11,6.9c4,11,12.4,22.8,24,26.4c4.1,1.3,8.2-1.1,8.8-5.5c1.3-10.1-3.6-17.9-7.8-26.6c-3.7,2.3-7.3,4.6-10.9,6.9
			c3.9,4.5,7.1,9.6,11,14.2c3.6,4.1,11.2,2.4,11.5-3.5c0.4-7.1-1.4-12.8-3.5-19.5c-3.4,2.1-6.8,4.3-10.2,6.4
			c3.5,2.3,5.5,5.6,6.2,9.8c1.6,6.8,13,7.2,12.9-0.5c0-5.7-1.8-11.3-1.3-16.9c-3.4,1.6-6.9,3.1-10.3,4.7c5.2,2.8,5.3,7.6,6,12.7
			c1,7.4,12.2,6.7,12.9-0.5c1.3-12.2-3.1-25.6-7.6-36.8c-2.2,3.1-4.4,6.2-6.5,9.2c10.8,1,9.9,12.3,9.7,20.6
			c-0.2,7.2,9.8,10,12.6,2.9c1.6-4.1,2.1-5.9,2.7-10.2c1.2-8.3-11.8-9.5-13-1.2c-0.6,2.3-1.2,4.6-1.9,6.8c4.2,1,8.4,2,12.6,2.9
			c0.4-16.2-2.3-33.1-21.4-34.8c-5.1-0.4-8.4,4.7-6.5,9.2c3.6,8.9,7.5,20.4,6.4,30.1c4.3-0.2,8.6-0.3,12.9-0.5
			c-1.2-8.5-3.2-16.7-11.2-21c-4.2-2.2-9.8-0.7-10.3,4.7c-0.5,5.8,1.3,11.1,1.3,16.9c4.3-0.2,8.6-0.3,12.9-0.5
			c-1.8-7.7-5.3-13.1-11.5-18.1c-4.2-3.4-11.9,0.9-10.2,6.4c1.7,5.4,3.6,10.3,3.3,16.1c3.8-1.2,7.7-2.4,11.5-3.5
			c-3.9-4.5-7.1-9.6-11-14.2c-4.8-5.5-14.2,0.1-11,6.9c3.1,6.4,7.7,12.5,6.7,19.9c2.9-1.8,5.9-3.7,8.8-5.5
			c-8.5-2.7-13.9-11.8-16.8-19.7c-3.7,2.3-7.3,4.6-11,6.9c6.2,6.3,11.5,13.4,12.9,22.4c2.9-2.4,5.8-4.8,8.8-7.2
			c-11.3-4.2-16.4-17.5-23-26.7c-3.6-5-10.6-1.6-11.5,3.5c-1.3,7.2,1.7,13.1,6,18.7c3.5,4.6,18.6,14.9,14.4,21.4
			c3.5,2.5,7.1,5.1,10.6,7.6c4.5-8.1,13.9-9.8,21.4-14.2c5.7-3.3,9.3-8.1,12.1-13.8c5.6-11.5,6.8-29.2-4.9-37.2
			c-5.5-3.8-12.1,2-9.7,8c2,5.1,4.5,7.6,9.5,9.8c4.3,1.9,10.1-2.4,8.8-7.2c-2.3-8.4-8.7-13-16.9-15.7c-5.7-1.8-10.2,3.4-8.2,8.8
			c2.1,5.9,5.5,10.8,8.7,16.1c2.7,4.5,10,5.4,12-0.4c4.2-12-5.4-18-11.5-27.1C70.4,81.5,60.3,89.9,64.9,96.9L64.9,96.9z"/>
	</g>
	<g>
		<path class="st20" d="M45.1,225.5c0.4,1,0.8,2,1.2,3c1.2,3,5.8,5,8.7,3.2c10.8-6.6,19.2-15.9,29.7-23c-3.1-0.3-6.1-0.6-9.2-0.9
			c25.8,30.5,61.1,45.6,99,55.2c42.4,10.8,87.7,18.7,131.3,21.9c35.8,2.6,72.3-0.7,107.9-4.5c18.5-2,56.8-4.5,63.1-27
			c-3.3,1-6.6,2-9.9,3c4.1,4,7,8.7,8.8,14c6.3,14.9-6.5,16.9-16.2,21.4c-14.5,6.7-30.1,10.8-45.6,14.5c-31.2,7.4-61.9,6.2-93.2,0.5
			c-30.5-5.6-59.2-16.6-88.8-25.4c-8.5-2.5-31.9-1.4-37.7-7.4c-4.6-4.8-10.1-5.6-16.4-5.7c-8.4-0.2-9.7,12.8-1.2,13
			c10.9,0.2,14.1,9.8,26,9.1c23-1.5,46.4,10.9,68.1,17.1c37.6,10.9,75,19.1,114.4,16.8c32.7-1.9,71.9-12.8,99.2-31.2
			c16.1-10.8,2.2-38.7-9.6-47.3c-3.2-2.3-8.8-1.1-9.9,3c-5.2,18.7-51.4,18.8-66.8,20.1c-33,2.9-65.9,4.9-99,2.5
			c-36.3-2.7-73.3-10.6-109-18.1c-39.2-8.2-77.9-22.4-104.4-53.8c-2.5-2.9-6.2-2.9-9.2-0.9c-9.5,6.4-17.1,15.1-26.9,21.2
			c2.9,1.1,5.8,2.1,8.7,3.2c-0.4-1-0.8-2-1.2-3C53.9,212.1,42.1,217.6,45.1,225.5L45.1,225.5z"/>
	</g>
	<g>
		<path class="st20" d="M52.5,233.6c8.1,6.6,15.5,13.4,22.1,21.5c3-3.1,5.9-6.3,8.9-9.4c-6.9-5.2-12.3-12-18.7-17.8
			c-3.1-2.8-8.7-0.8-9.9,3c-5,16,18.1,30.7,28.5,38.7c27.1,20.8,59.4,29.7,89.7,44.7c1-4.2,2-8.4,2.9-12.6
			c-23.5-3.7-43.3-18.8-63.8-29.9c-2.6-1.4-5.5-1.8-8,0.3c-0.3,0.2-0.5,0.4-0.8,0.6c-2.5,2.1-3.4,6.7-0.9,9.2
			c10.8,10.7,23.5,16.4,37.8,21.1c21.8,7.2,44.1,13.5,66,20.4c20.7,6.5,43,8.1,64.6,9.8c26.7,2.1,53.3,4.7,80.2,4.5
			c22-0.1,44-2.6,65.6-6.7c14.7-2.8,31.3-5.4,43.7-14.6c10.7-7.9,50.5-34.7,26.6-49.7c-7.1-4.5-14.8,6.1-7.6,10.6
			c6.5,4.1-15,19.2-17.9,21.5c-13.1,10.3-24.8,14.7-41,18c-35.9,7.4-71.7,9.1-108.2,6.5c-36.2-2.5-73.8-3.6-108.6-14.6
			c-15.8-5-31.1-10.7-47.2-14.8c-15.5-4-32.2-8.8-43.9-20.4c-0.3,3.1-0.6,6.1-0.9,9.2c0.3-0.2,0.5-0.4,0.8-0.6
			c-2.7,0.1-5.3,0.2-8,0.3c22.6,12.3,44.1,28.3,70.1,32.3c7.8,1.2,9.1-9.5,2.9-12.6c-23.7-11.7-50.4-18.7-72.6-33.1
			c-6.2-4-40.7-25.1-38.1-33.4c-3.3,1-6.6,2-9.9,3c6.6,6,11.6,12.5,18.7,17.8c6,4.5,13.5-3.8,8.8-9.5c-7.3-8.9-15.6-16.5-24.6-23.7
			C53.5,217.8,46,228.4,52.5,233.6L52.5,233.6z"/>
	</g>
	<g>
		<path class="st20" d="M76.2,233.9c1.1-3.7,2.3-7.4,3.7-11c2.6-7-7-12.1-11.4-6.1c-5.6,7.6-10,20.5-3.1,28.8
			c5.2,6.4,18.2,7.3,23.1-0.2c10.5-16.3-7.8-43.4-20-21.3c-8,14.5,15.1,55.7,33.5,44.6c22.7-13.7,4-48.8-17.6-52.2
			c-2.6-0.4-6.1,1.5-6.7,4.2c-3.7,16,19.2,67.7,40.9,54.3c21.2-13.2-23.4-53.3-32.1-62.1c-4.1-4.2-13.4-1.6-11.5,5.3
			c2.8,10.2,32,85,53,58.5c13.4-16.9-21.1-50.1-33.9-58.2c-4.9-3.1-13.5,2-9.7,8c10,15.8,39.7,77.4,65.5,65.8
			c26.9-12-28.9-55-39.4-62.1c-5.2-3.5-12.8,2-9.7,8c11.5,22.6,53.8,72.2,83.4,59.8c3.4-1.4,4.4-5.4,3.2-8.7
			c-8.9-23.3-35.3-41.9-56.2-53.6c-4.8-2.7-11.3,0.3-10.2,6.4c3.6,21.7,23.3,30.8,39.1,43.1c14.1,10.9,31.1,28.6,50.7,24
			c5.2-1.2,6.6-6.4,3.9-10.6c-6.3-10-16-15.6-25.4-22.4c-14.4-10.4-27.3-21.9-43.1-30.3c-5.3-2.8-10.5,4.1-8.2,8.8
			c6.8,14.1,20,22.5,33.5,29.7c21.4,11.4,41.8,26,66.5,28.3c7.3,0.7,10-10.1,3-12.6c-24.2-8.4-42-27.6-63.8-40.4
			c-7.1-4.2-14.7,5.9-7.6,10.6c10.9,7.2,23,10.8,35.3,14.9c17.8,5.9,33.4,16.1,51.7,21c8.1,2.2,12.4-8.6,4.7-12.2
			c-23.6-10.8-47.4-20.3-72.4-27.3c-0.4,4.2-0.8,8.3-1.2,12.5c17.7-4.3,32.7,4,48.7,10.5c14.5,5.8,29.9,7.3,45.4,8.2
			c8.4,0.5,9.6-11.8,1.2-13c-25.2-3.7-46.9-18.4-72.2-22.2c-5.4-0.8-9.6,6.6-5.7,10.6c12,12.1,27.7,13.6,44,14.7
			c26.4,1.8,48.2,13.7,73.5,20.1c1-4.2,2-8.4,3-12.6c-18-3.9-35.4-10.7-53.2-15.1c-13.9-3.5-33.2-9.3-46.8-1.8
			c-8.9,4.9-8.4,16.8,0.4,21.4c22.6,11.7,50.4,9.9,73.5,22c1-4.2,2-8.4,2.9-12.6c-18.2,0.6-39.8-11.4-57.1-16.5
			c-10.2-3-32.4-11.6-40.1,0.2c-17.9,27.4,73.7,30.7,84,32.5c8.4,1.4,9.4-11.4,1.2-13c-25.7-5.1-49.7-20.8-76.6-16.5
			c-6,0.9-6.7,8.2-2.7,11.7c28.4,24.8,82.5,15.5,116.7,17.8c6.1,0.4,10.3-8.3,4.4-11.8c-18.5-11.1-39.5-18.6-61.1-19.8
			c-6.7-0.4-9.4,7.7-4.4,11.8c19.9,16.4,46.8,21.1,72,21.8c8,0.2,38.4-1.2,30.9-17.4c-5.6-12-30.4-17.8-41.3-21.6
			c-12.6-4.5-37.3-15.1-50.6-7.6c-3.9,2.2-5.6,8.5-1.1,11.2c29.6,17.7,67.5,12.1,99.8,6.5c7.1-1.2,7-13-0.5-12.9
			c-27.5,0.1-54.1-7.8-81.6-7.1c-8.2,0.2-9.7,13-1.2,13c39,0.2,78,1,117,3.1c-0.2-4.3-0.3-8.6-0.5-12.9c-21.8,3.3-43.5,3.9-65.6,3.6
			c-12-0.2-23.2,1.4-31.5,10.5c-2.4,2.7-1.1,7.1,1.5,9.1c12,9.4,27.1,7.9,41.4,6.1c24-3,47.2-9,70.7-14.4c8.2-1.9,6.1-14-2.3-12.9
			c-19.4,2.6-38.3,8.2-57.9,9.7c-12.6,1-26,1.8-35.8,10.7c-3.6,3.3-2.9,9.3,1.8,11.1c19.2,7.4,40.7,2.3,60.4-0.8
			c20.1-3.2,40-4.1,56.9-16.6c4.4-3.3,2.1-11.4-3.5-11.5c-8-0.2-92.3,4.7-82.3,26.1c6.1,13.1,26.6,7,36.8,4.5
			c19.7-4.9,41.2-9.1,59.9-17c5.2-2.2,4.8-10.1-0.4-12c-15.8-5.8-30.5,7.9-45.4,2.2c-0.4,4.2-0.8,8.4-1.2,12.5
			c20.2-2,44.1,2.8,58.5-14.9c3.1-3.8,0.1-10-4.7-10.3c-13-0.7-42.9,11.4-52.2-0.1c-1.3,3.5-2.6,7.1-3.9,10.6
			c18.8-1.4,36.1-1.1,54-7.9c7.9-3,2.3-14.5-5.5-11.8c-15.7,5.4-31.7,7.1-48.2,5.4c-0.4,4.3-0.8,8.7-1.2,13
			c21.9-0.5,42-6.7,61.6-16.1c7.6-3.7,2.1-15.5-5.5-11.8c-12.3,5.9-24.6,9.1-38.3,8.6c0.7,4.1,1.4,8.3,2.1,12.4
			c9.4-5.1,19.5-8.1,29.5-11.7c8-2.9,2.4-14.4-5.5-11.8c-2.2,0.5-4.4,1.1-6.6,1.6c-8.3,1.6-6,13.8,2.3,12.9c6.1-0.7,7.7-1.2,13.5-3
			c7-2.2,3.3-14.2-3.9-12.3c-18.3,4.8-43.3,22.7-61.9,13.8c0.1,4,0.3,8,0.4,12c13.3-7.7,29.5-7.8,44.4-9.9c2-0.3,24.9-4.2,23.5-0.5
			c-2.3,5.7-4.1,8.9-4.7,15.1c-0.5,6.2,8.3,10.1,11.8,4.4c3.9-6.3,6.6-11.7,8.3-19c-4.2-1-8.4-2-12.6-2.9c-1.8,8-2,11.9,2,18.8
			c2.9,5.1,9.5,4.9,12-0.4c3.1-6.3,3-6.2,3.7-13c0.3-2.7-1.4-6-4.2-6.7c-1.4-0.4-2.8-0.8-4.3-1.1c-8.1-2.2-12.8,10-4.7,12.2
			c1.4,0.4,2.8,0.8,4.3,1.1c-1.4-2.2-2.8-4.5-4.2-6.7c-1,3.2-1.9,6.4-2.9,9.6c4-0.1,8-0.3,12-0.4c-2.4-3.9-2.7-8-0.9-12.1
			c1.6-7.2-10.9-10.1-12.6-2.9c-0.9,5.8-3.1,11.2-6.7,16c3.9,1.5,7.9,3,11.8,4.4c0.7-7.8,8.4-15.4,4.7-23.4
			c-3.2-6.9-11.2-8.1-17.9-8.3c-10.2-0.4-21.2,3.2-31.3,4.4c-12.9,1.6-25.9,2.9-37.3,9.5c-5,2.9-4.9,9.5,0.4,12
			c22.4,10.8,47.5-7.4,68.8-13.1c-1.3-4.1-2.6-8.2-3.9-12.4c-3.4,0.7-6.9,1.3-10.3,2c0.8,4.3,1.5,8.6,2.3,12.9
			c3.6-0.7,6.3-1.5,9.8-2.6c-1.8-4-3.7-7.9-5.5-11.8c-10.1,3.6-20.1,6.6-29.5,11.7c-5.3,2.9-4.8,12.2,2.1,12.4
			c15.9,0.6,30.7-2.8,45-9.7c-1.8-4-3.6-7.9-5.5-11.8c-17.4,8.4-35.5,14.5-54.9,15c-8.2,0.2-9.8,12.1-1.2,13
			c18.9,1.9,37-0.4,54.9-6.6c-1.8-3.9-3.7-7.9-5.5-11.8c-16.7,6.3-33.4,5.5-50.8,6.9c-5.1,0.4-6.7,7.1-3.9,10.6
			c14.7,18.3,41.8,3.7,61,4.8c-1.6-3.4-3.1-6.9-4.7-10.3c-10.9,13.3-34.8,8.2-50.2,9.7c-6.6,0.7-7,10.4-1.2,12.5
			c15.9,6,30.1-7.8,45.4-2.2c-0.1-4-0.3-8-0.4-12c-20.7,8.8-48.5,15.4-70.9,19c-3.4,0.6-14.8,5-3.2,1.9c4.4-1.2,9.1-1.5,13.7-2
			c17.1-1.6,32.9-8.1,50.3-7.7c-1.2-3.8-2.4-7.7-3.5-11.5c-14.5,10.7-33.6,11.7-50.9,13.9c-17.5,2.2-36.2,8.1-53.5,1.4
			c0.6,3.7,1.2,7.4,1.8,11.1c10-9,27.1-7.6,39.7-8.8c16.1-1.6,31.8-6.7,47.9-8.8c-0.7-4.3-1.5-8.6-2.3-12.9
			c-18.6,4.3-36.9,9.2-55.8,12.2c-14.3,2.2-33.9,8.3-46.5-1.6c0.5,3,1,6.1,1.5,9.1c8.1-8.9,26.8-4.8,37.8-4.8
			c17-0.1,34.1-1.6,50.9-4.1c7.3-1.1,6.9-12.5-0.5-12.9c-39-2.2-77.9-3-117-3.1c-0.4,4.3-0.8,8.7-1.2,13c27.5-0.8,54.1,7.2,81.6,7
			c-0.2-4.3-0.3-8.6-0.5-12.9c-28.4,4.9-63.8,11.4-89.9-4.3c-0.4,3.7-0.7,7.5-1.1,11.2c7.8-4.4,24.3,2.9,32,5.2
			c12,3.6,23.7,8.1,35,13.5c2.1,1,4.1,2.1,6,3.4c2.8,2.1,2.3,1.6-1.6-1.5c-7.2,2.2-15.5,1.3-22.9,0.9c-20.3-1-41.5-5.9-57.3-19
			c-1.5,3.9-3,7.9-4.4,11.8c19.2,1.1,38.3,7.6,54.7,17.4c1.5-3.9,3-7.9,4.4-11.8c-31.1-2.2-84.5,7-110.3-15.4
			c-0.9,3.9-1.8,7.8-2.7,11.7c24.8-3.9,49.3,11.9,73.1,16.7c0.4-4.3,0.8-8.7,1.2-13c-11.8-2-23.9-2.5-35.8-3.9
			c-8.3-0.9-16.5-2.2-24.6-4.2c-4.4-1.1-18.7-5.1-6.3-3.5c25.7,3.3,51.5,22.2,77.4,21.3c7.5-0.2,9.7-9.1,2.9-12.6
			c-15.2-8-32.5-12.3-49.3-15.5c-7.2-1.4-14.3-2.5-21.2-4.9c0.8,0.3,11-0.7,14.5-0.3c26.2,2.6,50.6,14,76.2,19.6
			c7.2,1.5,10.1-10.8,3-12.6c-19.3-4.8-37.1-15.3-56.8-18.8c-17.1-3.1-42.1,1.3-55.4-12.1c-1.9,3.5-3.8,7.1-5.7,10.7
			c25.2,3.8,46.9,18.4,72.2,22.2c0.4-4.3,0.8-8.7,1.2-13c-19.3-1.1-36.4-4.9-54.2-12.5c-14.4-6.1-28-9.8-43.4-6.1
			c-5.7,1.4-7.9,10.7-1.2,12.5c25,7,48.8,16.5,72.4,27.3c1.6-4.1,3.1-8.1,4.7-12.2c-14-3.7-26.8-9.5-39.7-15.8
			c-14.4-7-30.8-9.6-44.3-18.5c-2.5,3.5-5.1,7.1-7.6,10.6c22.9,13.3,41.4,33.2,66.7,42c1-4.2,2-8.4,2.9-12.6
			c-19.2-1.7-33.1-12.2-49.7-20.6c-14.1-7.2-32.3-14.7-39.6-29.8c-2.7,2.9-5.5,5.9-8.3,8.8c12.6,6.7,23.3,15.5,34.3,24.2
			c9.9,7.8,21.9,13.6,28.8,24.5c1.3-3.5,2.6-7.1,3.9-10.6c-14.9,3.5-30.3-13.2-40.8-21.7c-12.5-10.1-30.9-16.9-33.9-34.7
			c-3.4,2.1-6.8,4.3-10.2,6.4c19.2,10.7,43.9,27.3,52,48.5c1.1-2.9,2.1-5.8,3.2-8.7c-20.2,8.4-58.2-38.1-66-53.5
			c-3.2,2.7-6.5,5.4-9.7,8c6.6,4.5,12.6,10,18.5,15.3c4.9,4.4,9.5,9,13.9,13.8c1.7,1.9,3.3,3.8,4.9,5.8c2.9,3.5,6.6,5.2,2,3.7
			c-20-6.7-35.5-41.8-46-58.5c-3.2,2.7-6.5,5.4-9.7,8c10.4,6.6,18.9,18.1,25.9,28c-1.3-1.9,6.3,11.5,3.6,9.9
			c-4.4-2.5-8.1-8.9-10.9-13c-8-11.6-13.5-24.4-17.2-38c-3.8,1.8-7.6,3.5-11.5,5.3c9.8,10,19.3,20.2,27.7,31.4
			c6.2,8.3,11.1,16.9,0.1,4.3c-5.4-6.2-16.5-22.4-14.4-31.5c-2.2,1.4-4.5,2.8-6.7,4.2c6.1,2,10.5,5.9,13.2,11.6
			c5.8,9.5-3.9,14.3-9.6,7.4c-4.8-5.9-11-19.4-7.6-24.1c-3.8-2-7.6-4.1-11.4-6.1c-1.8,4.9-3.7,9.3-4.5,14.4
			C61.8,240.9,74.8,242.1,76.2,233.9L76.2,233.9z"/>
	</g>
	<g>
		<path class="st21" d="M107.7,226.2c1,25,5.1,62.1,28.6,75.8c4.5,2.6,11.7-0.3,10.2-6.4c-5.1-21.5-4.8-45.6-16.3-65
			c-4.3-7.2-16.1-1.8-11.8,5.5c10.9,18.4,10.4,41.4,15.3,61.8c3.4-2.1,6.8-4.3,10.2-6.4c-19.9-11.6-22.5-46.2-23.3-67.5
			C120.2,215.6,107.4,218,107.7,226.2L107.7,226.2z"/>
	</g>
	<g>
		<path class="st21" d="M114.1,241.1c-0.9,7.6,2,14.6,4.8,21.6c2.2,5.7,1.8,15.5,9.9,16c4.4,0.3,7.6-3.3,7.1-7.6
			c-0.1-1.1-0.2-0.6-0.2,1.5c2.2-8-9.9-12.7-12.2-4.6c-0.5,1.9-0.7,3.5-0.4,5.4c2.3-2.5,4.7-5.1,7-7.6c0.6,0.2,1.1,0.4,1.7,0.5
			c0.9,1.4,1.7,2.8,2.6,4.2c-1-9.5-8.4-18.5-7.3-28.1C128,234,115,232.8,114.1,241.1L114.1,241.1z"/>
	</g>
	<g>
		<path class="st21" d="M194.7,260.8c4.3,22,7.3,59.8,32.2,68.8c4,1.4,8.4-1.2,8.8-5.5c2-21.4-8.6-46.4-18.7-64.8
			c-4-7.3-15.9-1.9-11.8,5.5c9,16.4,19.4,39,17.6,58.1c2.9-1.8,5.9-3.6,8.8-5.5c-18.8-6.8-20.8-42.3-24-58.9
			C206,250.3,193.1,252.5,194.7,260.8L194.7,260.8z"/>
	</g>
	<g>
		<path class="st21" d="M210.1,270.4c-5.4,5-3.8,13-2.2,19.3c1.8,7.5,4.4,14.8,7.5,21.9c2.2,5.1,10.2,4.9,12-0.4
			c0.7-2.2,0.7-4,0.6-6.3c-0.5-8.4-13.4-6.1-12.9,2.3c0-0.2,0-0.4,0.1-0.6c4-0.2,8-0.3,12-0.4c-2-4.7-3.8-9.4-5.2-14.3
			c-0.9-2.8-1.6-5.7-2.1-8.6c-0.2-1-0.4-2-0.4-3c-0.1-2.5,1.1-1.8-1,0.1C224.6,274.8,216.3,264.7,210.1,270.4L210.1,270.4z"/>
	</g>
	<g>
		<path class="st21" d="M282.2,274.9c1.5,14.4,5.7,28.9,10.7,42.4c3.6,9.7,10.9,25.7,23.9,23c3.3-0.7,6.2-4,5.3-7.5
			c-5.2-20.3-8.9-43.1-20.6-60.9c-4.6-7-14.6,1.3-10.1,8.3c10.3,15.7,13.2,36.9,17.8,54.9c1.8-2.5,3.5-5,5.3-7.5
			c-5.6,1.1-12.1-22.1-13.2-25.9c-2.8-9.4-5.3-19.2-6.3-29C294.2,264.3,281.3,266.6,282.2,274.9L282.2,274.9z"/>
	</g>
	<g>
		<path class="st21" d="M354.9,275.4c7.6,12.1,11,27.1,17.1,40c4.2,8.9,12.7,25.5,25.2,21.7c3.7-1.1,5.6-3.7,5.3-7.6
			c-1.7-21.5-17.4-39.4-25.6-58.6c-1.1-2.6-4.2-4.2-7.1-3.7c-0.2,0.1-0.5,0.1-0.8,0.1c-5.4,1-7.5,8.6-2.7,11.7
			c0.7,0.4,1.4,0.9,2.1,1.4c6.8,5,14.4-5.7,7.6-10.6c-0.7-0.5-1.4-1-2.1-1.4c-0.9,3.9-1.8,7.8-2.7,11.7c0.3,0,0.5-0.1,0.8-0.1
			c-2.4-1.2-4.7-2.5-7.1-3.7c7.8,18.1,23,35.2,24.6,55.4c1.8-2.5,3.5-5,5.3-7.6c-9.4,2.9-23.5-46.8-28.2-54.3
			C362.4,262.9,350.5,268.3,354.9,275.4L354.9,275.4z"/>
	</g>
	<g>
		<path class="st21" d="M432.5,266.7c10.6,14.3,16.1,31.9,28.5,45c2.4,2.6,6.3,3.3,9.2,0.9c16-13.5-9.9-43.9-18.8-54.8
			c-5.3-6.5-15.4,1.8-10.1,8.3c4.5,5.5,8.7,11.3,12.5,17.3c1.7,2.8,10.5,17,8,19.1c3.1,0.3,6.1,0.6,9.2,0.9
			c-12.3-13-17.9-30.7-28.5-44.9C437.6,251.6,427.5,259.9,432.5,266.7L432.5,266.7z"/>
	</g>
	<g>
		<path class="st21" d="M14.3,83.9c-0.1,0-0.1,0.1-0.2,0.1c1.1-0.2,2.2-0.4,3.4-0.6c0.2,0,2.8,1.3,1.7,0.5c-0.1-0.1-1.4-1.2-0.5-0.3
			c-1.2-1.1-2.3-2.4-3.4-3.7c-2.3-2.7-6.4-3.1-9.2-0.9c-2.7,2.2-3.2,6.5-0.9,9.2c3.4,4,8.6,10.2,14.5,7.5
			C27.5,92.3,22,80.4,14.3,83.9L14.3,83.9z"/>
	</g>
	<g>
		<path class="st22" d="M113.9,293c-8.7-5-15.7-10.2-21.7-18.5c-4.9-6.9-14.7,1.4-10.1,8.3c8.9,13.1,23.3,23.1,38,28.6
			c6.7,2.5,12.7-7.7,6.1-11.4c-5.5-3.1-10.6-6.6-15.8-10.2c-3.4-2.4-8.4-1-9.9,3c-6.1,16.2,22.9,29,33.1,34.6
			c24,13.2,48.6,24.1,75.4,29.9c50.6,11.1,101.1,14.1,152.6,8.4c17.9-2,35.3-6,51.5-13.9c8.9-4.4,27.2-18.6,37.2-18.1
			c8.4,0.5,9.6-12.5,1.2-13c-16-0.9-36.9,16-51,22.6c-17.1,8.1-38.3,9.5-56.9,11.1c-26.2,2.3-53.2,2.4-79.4-0.7
			c-31.4-3.7-63.7-9.3-92.8-22.2c-7.3-3.2-61.4-27.4-58.8-34.1c-3.3,1-6.6,2-9.9,3c5.2,3.7,10.2,7.1,15.8,10.2
			c2-3.8,4.1-7.6,6.1-11.4c-12.8-4.8-24.9-13.4-32.6-24.7c-3.4,2.8-6.7,5.5-10.1,8.3c6.6,9.3,14.2,15.1,24.1,20.8
			C113.5,307.7,121.2,297.2,113.9,293L113.9,293z"/>
	</g>
	<g>
		<path class="st22" d="M122.1,314.5c26.8,12.2,55,18.5,83.7,24.1c31.8,6.2,62.7,14.3,95.2,15.5c25,0.9,51.1,1.4,76.1-0.4
			c11.8-0.9,30.2,0.5,40.9-5c7.5-3.8,2-15.7-5.5-11.8c-8.4,4.3-24.6,2.9-34,3.7c-25.1,2.2-51.2,0.9-76.3,0.6
			c-29.9-0.4-58.4-8.3-87.5-14c-30.2-5.9-59.9-12-88-24.8C119.1,298.8,114.5,311,122.1,314.5L122.1,314.5z"/>
	</g>
	<g>
		<path class="st22" d="M211.8,346.6c26.9,3.8,53.2,11,80.3,13.5c0.4-4.3,0.8-8.7,1.2-13c-20.3-1.3-40.1-5.7-60.4-7.3
			c-8.9-0.7-21.2,2.6-29.2-1.8c-8.7-4.7-13.9-11.4-23.7-13.8c-7.1-1.8-12,6.4-6.1,11.4c15.3,13,33.1,12.7,51.5,18.7
			c1-4.2,2-8.4,2.9-12.6c-21.5-0.9-41.2-27.4-63.2-13.9c-4.4,2.7-5,7.8-1.1,11.2c17.2,15.1,38,21.3,60.2,25.4
			c26.2,4.9,54.2,9.4,80.8,9.8c29.2,0.5,57.9-7.5,86.2-13.9c9.3-2.1,17.5-4.4,26-8.6c5.4-2.6,16.3-10.8,22.3-10.4
			c8.4,0.6,9.6-12.4,1.2-13c-10.7-0.7-23.3,8.7-32.5,13.2c-23,11.3-55.4,14.8-80.7,18.2c-28,3.7-55.1-2.1-82.7-5.6
			c-26.3-3.3-52.6-7.8-73.1-25.9c-0.4,3.7-0.7,7.5-1.1,11.2c16.1-9.9,39,14.3,56.4,15c7.1,0.3,10.2-10.2,3-12.6
			c-16.7-5.5-34.6-5.2-48.5-17.1c-2,3.8-4.1,7.6-6.1,11.4c14.1,3.5,22.2,18,37.7,16.9c26.8-1.9,52.4,5.1,79,6.8
			c8.4,0.5,9.6-12.2,1.2-13c-27.1-2.5-53.4-9.7-80.3-13.5C204.7,332.4,203.5,345.4,211.8,346.6L211.8,346.6z"/>
	</g>
	<g>
		<path class="st22" d="M295,360.3c6.4,0.6,12.9,1.2,19.1,3c0.4-4.2,0.8-8.4,1.2-12.5c-3.3,0.3-6.6-0.1-9.9-0.4
			c-8.4-0.8-9.6,12.1-1.2,13c6.7,0.7,12.8,1.5,19.4-0.5c3.4-1.1,4.5-5.8,3.2-8.7c-1.6-3.5-5.3-4.2-8.7-3.2
			c-3.8,1.2-8.8-0.2-12.7-0.6c-0.4,4.3-0.8,8.7-1.2,13c4.5,0.4,8.9,0.8,13.4,0.3c6.3-0.7,7.3-10.7,1.2-12.5
			c-7.4-2.2-14.9-3.1-22.5-3.8C287.8,346.6,286.6,359.5,295,360.3L295,360.3z"/>
	</g>
	<g>
		<path class="st6" d="M179,148.3c8.4,0.8,9.6-12.2,1.2-13C171.9,134.5,170.6,147.5,179,148.3L179,148.3z"/>
	</g>
	<g>
		<path class="st6" d="M382.1,180c8.4,0.8,9.6-12.2,1.2-13C374.9,166.2,373.7,179.2,382.1,180L382.1,180z"/>
	</g>
	<g>
		<path class="st6" d="M55.9,95c0-0.2,0-0.5,0.1-0.7c0.8-8.4-12.2-9.6-13-1.2c0,0.2,0,0.5-0.1,0.7C42.1,102.2,55.1,103.4,55.9,95
			L55.9,95z"/>
	</g>
	<g>
		<path class="st12" d="M128.4,76.7c-10.6-13.9-15.9-29.2-8.9-45.9c5.1-12.4,18.2-20.6,30.7-23.7c27.1-6.6,42.2,17.1,45.3,40.7
			c0.5,4.1,6.8,3,6.3-1.1C197.8,16.2,176.4-7.6,144,2.2c-13.5,4.1-24.1,13.9-30.5,26.3c-9.2,17.8-1.1,37.7,10,52.2
			C125.9,84.1,130.8,80,128.4,76.7L128.4,76.7z"/>
	</g>
	<g>
		<path class="st12" d="M199.7,52.3c33.2-13,64.7-13,99.5-9.6c34.1,3.3,68,6.1,96.5,27.1c2,1.4,4.8,0.1,5-2.3
			c2.8-26.3,28.6-28,49-20.5c27.7,10.2,43.4,57,10.8,71.5c-3.7,1.7-1.1,7.4,2.7,5.8c34.3-15.2,23.6-61.7-3-79
			c-24.3-15.9-62.3-11.3-65.8,21.7c1.7-0.8,3.4-1.5,5-2.3c-27.6-20.4-60.4-24.6-93.7-27.7c-38.3-3.5-72.3-4.7-108.8,9.6
			C193.2,48,195.9,53.8,199.7,52.3L199.7,52.3z"/>
	</g>
	<g>
		<path class="st12" d="M87.1,148.4c8.2-23.6,20.5-51.6,40.8-67.2c3.3-2.5-0.8-7.4-4-4.9c-21.2,16.2-34.2,45.3-42.7,69.8
			C79.8,150,85.8,152.3,87.1,148.4L87.1,148.4z"/>
	</g>
	<g>
		<path class="st12" d="M459.5,123.3c16.3,21.1,22.4,41.2,22.4,67.7c0,4.1,6.3,4.7,6.3,0.6c-0.1-28.2-6.6-49.9-23.8-72.4
			C461.9,116,457,120.1,459.5,123.3L459.5,123.3z"/>
	</g>
	<g>
		<path class="st12" d="M82.7,145.3c-22.3,7.9-44.1,24-59.9,41.3c-8.9,9.7-23.2,28.4-12,41.7c8.6,10.1,28.2-1.7,36.3-6.2
			c12.7-7,24.4-19.2,37.8-24.5c3.8-1.5,1.1-7.2-2.7-5.8c-21.2,8.3-37.7,33.3-62.3,33.7c-8.5,0.1-6.9-11.3-5.1-16.6
			c3.4-10,12.7-18.5,20.1-25.5C49.3,170,66.7,157.6,85.4,151C89.2,149.7,86.5,143.9,82.7,145.3L82.7,145.3z"/>
	</g>
	<g>
		<path class="st12" d="M473.3,241.6c10.7,15.3,45.2,88.5,69.8,51.5c8.9-13.4-4.9-41.8-12.2-53.6c-11.5-18.5-27.1-36.9-44-50.8
			c-3.2-2.6-6.9,2.6-3.7,5.2c24.8,20.3,44.8,47.6,54,78.2c3.6,9.8-0.9,17.8-13.5,23.9c-4.9-1.2-9.7-6.4-13-9.7
			c-5.2-5.3-9.3-11.6-13.4-17.7c-6.8-10.1-12.1-21.1-19.1-31C475.8,234.2,470.9,238.3,473.3,241.6L473.3,241.6z"/>
	</g>
	<g>
		<path class="st12" d="M81.1,196.8c18.8,24.8,50.3,37.6,78.6,47.8c31.2,11.2,64.1,18.9,96.9,24.1c44.2,6.9,91.1,4.8,135.4,0.1
			c26.1-2.8,67.2-5.9,86.2-27.2c2.7-3.1-2.4-6.7-5.2-3.7c-20.1,22.4-68.2,23.4-95.5,26c-39.4,3.7-81.1,4.4-120.3-1.5
			c-28.9-4.3-57.5-11.4-85.4-20.3c-30.5-9.7-65.9-22.8-85.9-49.2C83.5,189.4,78.6,193.5,81.1,196.8L81.1,196.8z"/>
	</g>
	<g>
		<path class="st12" d="M38.2,223.1c42.3,81,148.7,105.2,231.5,116.7c52.6,7.3,105.9,8.8,157.3-6.7c29.2-8.8,62.6-25.6,74.7-55.5
			c1.5-3.8-4.4-6.1-5.9-2.3c-12.9,31.9-51,46.6-81.6,54.9c-46.9,12.8-96.1,9.3-143.8,3.3c-79.9-10.1-185.7-35.1-226.4-113
			C42,216.8,36.3,219.4,38.2,223.1L38.2,223.1z"/>
	</g>
	<g>
		<path class="st12" d="M228.5,153.3c-29.9,8.2-61.1,36.3-33.8,65.4c23.3,24.9,71.9,33.5,104.4,31.6c37.2-2.2,70.4-29.3,44.5-66
			c-22.9-32.3-80.1-43.9-115.8-30.8c-3.9,1.4-1.2,7.2,2.7,5.8c28.9-10.6,63.5-2.2,89.3,12.6c22,12.6,39.3,40.4,15.1,60.9
			c-12.9,10.9-31.7,11.6-47.6,11c-21.7-0.8-43-5.5-63.1-13.8c-12.8-5.3-25.1-13.2-32.2-25.4c-13.3-23,21.4-40.6,37.6-45.1
			C233.5,158.5,232.4,152.2,228.5,153.3L228.5,153.3z"/>
	</g>
	<g>
		<path class="st12" d="M176.8,129.7c-8.8-2.5-16.7,5.3-16.1,14.2c0.6,9,8.5,13.5,16.9,12.7c7.1-0.7,12.5-6.2,12.6-13.4
			c0.2-8.2-6.8-12.9-14.2-13.7c-4.1-0.4-4.7,5.9-0.6,6.3c4,0.4,7.8,2,8.5,6.3c0.6,3.5-1.7,6.4-4.8,7.6c-4,1.5-9.3,0.6-11.4-3.4
			c-2.2-4.4,1.2-12.4,6.8-10.7C178.4,136.8,180.7,130.9,176.8,129.7L176.8,129.7z"/>
	</g>
	<g>
		<path class="st12" d="M368,164c-3.7,6.6-5.1,15,1,20.8c4.8,4.6,12.5,6,18.4,2.8c7.6-4.1,8.7-14.3,5.9-21.7
			c-1.7-4.6-6.8-7.1-11.3-8C376.5,156.8,371.3,159.7,368,164c-2.5,3.3,2.7,7,5.1,3.7c4.4-5.9,13.6-4.3,14.9,3.1
			c0.8,4.5-0.1,9.6-4.7,11.5c-3.1,1.3-7.4,0.3-9.8-2c-3.7-3.5-2.6-8.7-0.4-12.7C375.2,164.2,370,160.4,368,164L368,164z"/>
	</g>
	<g>
		<path class="st12" d="M246.3,59.9c-7.5,17.5,1.6,42.6,19.7,49.3c6.1,2.3,13.4,0.4,16.4-5.6c4-7.8,2-17.2-1.9-24.7
			c-1.8-3.6-7.6-1-5.8,2.7c2.7,5.3,4.4,11.3,2.8,17.2c-2.2,8.1-11.3,4.4-16.1,1c-10.4-7.3-14.1-26.5-9.3-37.7
			C253.9,58.3,247.9,56.1,246.3,59.9L246.3,59.9z"/>
	</g>
	<g>
		<path class="st12" d="M274.8,81.5c6.8,12.3,19.4,31.8,36.2,26.8c6-1.8,9.8-7.3,9.3-13.6c-0.7-8.9-6.7-16.1-13.1-21.9
			c-3.1-2.7-6.7,2.4-3.7,5.2c4.9,4.4,9.3,9.7,10.5,16.4c1,5.4-3.9,8.7-8.8,8.5c-11.2-0.4-20-15.8-24.5-24.1
			C278.6,75.3,272.8,77.9,274.8,81.5L274.8,81.5z"/>
	</g>
	<g>
		<path class="st12" d="M303.4,78c12.3,10.4,28.6,28.4,46.1,27.8c6.3-0.2,12.7-6.4,11.4-13.1c-2.1-10.9-12.5-20.3-22.7-24
			c-3.9-1.4-6.1,4.5-2.3,5.9c6.9,2.5,20.8,12.1,18.4,21.1c-2.3,8.4-15.3,1-19.3-1.3c-10.3-5.9-18.9-14.1-27.9-21.7
			C304,70.2,300.3,75.4,303.4,78L303.4,78z"/>
	</g>
	<g>
		<path class="st12" d="M292,164.3c0.9-7.3-13.1-9-17.8-9.9c-6.3-1.2-21.1-3.9-25.1,3.4c-2.5,4.7,2.7,13,5,16.9
			c2.9,4.8,6.9,8,12.4,9.3c11.4,2.6,20.8-10.4,25.2-18.8c1.9-3.6-4.1-5.9-5.9-2.3c-3.3,6.4-8.5,13.5-16,14.9c-3.9,0.7-7-2.2-9.3-5
			c-1.1-1.3-6.5-11.6-5.7-12.1c4.2-2.5,11.6-1,16.1-0.4c3.1,0.4,6.2,1.1,9.2,1.9c1.3,0.4,2.6,0.8,3.9,1.4c1.7,0.7,1.4,1.6,1.6,0.1
			C285.1,167.8,291.5,168.4,292,164.3L292,164.3z"/>
	</g>
	<g>
		<path class="st12" d="M162.3,63.1c10-6.7,17-18.5,9-29.5c-7.3-10-20.7-7.7-29.2-1.1c-8.4,6.5-10.9,18.7-4.6,27.6
			C143.6,68.6,154.4,70.2,162.3,63.1c3-2.7-1-7.7-4-4.9c-5.1,4.6-11,3.9-15.3-1.4c-4.7-5.8-2.8-13.6,2.1-18.5
			c5.6-5.6,14.6-7.6,20.6-1.5c7.5,7.7-0.8,16.9-7.4,21.4C154.9,60.5,158.9,65.3,162.3,63.1L162.3,63.1z"/>
	</g>
	<g>
		<path class="st12" d="M428.6,85.9c-4.2-4.6-9.4-14.3-1.7-18.5c8-4.4,18.6,4.4,23.1,10.3c4.1,5.3,2.8,11.7-3.3,14.6
			C439.9,95.4,432.7,91.3,428.6,85.9c-2.5-3.3-7.4,0.8-4.9,4c6.3,8.3,17.3,12.5,27,7.4c9.4-5,9.7-15.7,4.2-23.7
			c-6.2-9-21.4-18-32-11.2c-10.3,6.7-5.9,20,0.8,27.5C426.5,93,431.4,89,428.6,85.9L428.6,85.9z"/>
	</g>
	<g>
		<path class="st12" d="M264,180.6c-0.8,6.7-2.4,14.5-9.9,16.3c-7.6,1.8-15.3-4.8-16.8-11.9c-0.8-4-7.1-2.9-6.3,1.1
			c2.2,10.1,11.2,17.4,21.6,17.3c12.1-0.2,16.5-12,17.7-22.2C270.8,177.1,264.4,176.5,264,180.6L264,180.6z"/>
	</g>
	<g>
		<path class="st12" d="M263.8,182.3c-1.4,8.3,1.5,17.3,8.8,21.8c11.3,6.8,24.7,3.8,30.4-8.1c1.8-3.7-4.2-5.9-5.9-2.3
			c-4.4,9.3-15.4,9.4-23,3.7c-4.1-3.1-4.7-9.8-3.9-14.4C270.8,178.9,264.5,178.3,263.8,182.3L263.8,182.3z"/>
	</g>
	<g>
		<path class="st12" d="M245.7,200.4c-1.1,6.8-2.1,13.7-3.2,20.5c-0.3,1.8,1.2,3.2,2.9,3.5c12.5,1.7,25,3.3,37.4,5
			c1.7,0.2,3.3-1.2,3.5-2.9c0.7-7.2,1.5-14.5,2.2-21.7c0.4-4.1-5.9-4.7-6.3-0.6c-0.7,7.2-1.5,14.5-2.2,21.7c1.2-1,2.3-1.9,3.5-2.9
			c-12.5-1.6-25-3.3-37.4-5c1,1.2,1.9,2.3,2.9,3.5c1.1-6.8,2.1-13.7,3.2-20.5C252.6,197,246.3,196.4,245.7,200.4L245.7,200.4z"/>
	</g>
	<g>
		<path class="st12" d="M262.9,206.8c-0.5,5.1-1.1,10.2-1.6,15.4c-0.4,4.1,5.9,4.7,6.3,0.6c0.5-5.1,1.1-10.2,1.6-15.4
			C269.6,203.3,263.3,202.7,262.9,206.8L262.9,206.8z"/>
	</g>
	<g>
		<path class="st12" d="M69.4,263.5c23.2,70.2,113.3,98.3,178.4,110.6c43.2,8.2,87.9,5.4,130.6-4.4c30.2-6.9,76.4-21.1,88.2-53.8
			c1.4-3.9-4.5-6.1-5.9-2.3c-12.4,34.2-65.6,46.2-96.4,52.6c-38.2,7.9-77.6,8.4-115.9,1.5c-63-11.2-150.9-39.5-173.2-106.9
			C73.8,257,68.1,259.7,69.4,263.5L69.4,263.5z"/>
	</g>
	<g>
		<path class="st12" d="M126.5,329.8c-12,26.2-21,2-38.3,3.1c-14.6,0.9-11.6,20.8-7.3,29.8c9,18.8,35.3,26.6,54.2,25.9
			c19.8-0.7,29.1-21,37.8-35.7c2.1-3.5-3.1-7.2-5.2-3.7c-10.2,17.4-17.8,34.2-41.5,32.9c-10.5-0.6-20.6-5.2-29.2-11
			c-6.2-4.2-10.7-10.3-12.9-17.5c-2.1-6.8,2.4-16,10.6-12.7c4.6,1.8,13.7,11,19.2,9.6c9.3-2.3,14.7-10,18.5-18.5
			C134.1,328.3,128.2,326.1,126.5,329.8L126.5,329.8z"/>
	</g>
	<g>
		<path class="st12" d="M364.8,369.3c5.3,16.8,18.3,30.6,34.1,38.1c20.7,9.9,46.1-3,60.8-17.9c6.9-7,7.5-16.3-1-21.9
			c-11.8-7.7-31.5,2.3-38.9-10.8c-2-3.5-7.8-0.9-5.8,2.7c4.3,7.6,10.7,13,19.8,11.6c7.5-1.1,20.5-3.1,24.9,5.3
			c3.1,5.9-8.7,13.3-12.3,15.8c-10.6,7.4-22.8,13.1-35.9,11.9c-17.5-1.7-34.3-19.9-39.3-36C369.9,364.4,363.6,365.4,364.8,369.3
			L364.8,369.3z"/>
	</g>
	<g>
		<path class="st12" d="M95.9,126.8c13.8-30.3-25.1-54.7-52-50.2c-17.2,2.9-29.1,19-29.3,35.6c-0.3,24.6,32.8,33.2,24.3,59.9
			c-1.2,3.9,4.7,6.2,5.9,2.3c7.8-24.5-11.9-34.5-22-54.1C8.9,93.2,45.3,78.6,65.3,84.8c16.8,5.3,33.2,21.2,24.7,39.7
			C88.3,128.3,94.3,130.5,95.9,126.8L95.9,126.8z"/>
	</g>
	<g>
		<path class="st12" d="M53.5,96.1C52.4,97,50.9,98,49.7,98c-1,0-1.5-0.3-2.1-1c-1.3-1.5-1.5-4.3-0.6-5.8c0.8-1.5,4.6-3.5,6.1-1.9
			c1.9,1.9,0.5,6.2-0.5,8.2c-1.8,3.7,4.1,5.9,5.9,2.3c2.3-4.6,2.9-11.7-1.4-15.4c-4.4-3.8-12.4-1.5-15.3,3.1
			c-2.6,4.2-2.1,9.8,0.9,13.6c3.9,5.1,10.5,3.4,14.9,0C60.8,98.5,56.7,93.6,53.5,96.1L53.5,96.1z"/>
	</g>
	<g>
		<path class="st12" d="M29.8,83.1c-7.3-3.9-16.7-9.4-25.2-8.9c-5.9,0.3-5,7.6-3.2,11.2C4.4,92,11,97.5,16.8,101.7
			c3.3,2.4,7-2.7,3.7-5.2c-4.5-3.3-8.6-7-11.9-11.5c-0.8-1-1.4-2.2-1.9-3.3c-0.6-1.4,0.3-2.1-1.1-1.3c0.9-0.5,3.6,0.6,4.5,0.9
			c6.1,1.8,12,4.7,17.6,7.7C31.1,90.9,33.4,85,29.8,83.1L29.8,83.1z"/>
	</g>
</g>
</svg>
