<?xml version="1.0" encoding="utf-8"?>
<!-- Generator: Adobe Illustrator 19.1.0, SVG Export Plug-In . SVG Version: 6.00 Build 0)  -->
<svg version="1.0" id="Layer_1" xmlns="http://www.w3.org/2000/svg" xmlns:xlink="http://www.w3.org/1999/xlink" x="0px" y="0px"
	 viewBox="0 0 577.7 326" style="enable-background:new 0 0 577.7 326;" xml:space="preserve">
<style type="text/css">
	.st0{fill:#E1F4FD;}
	.st1{fill:#F2D8E0;}
	.st2{fill:#DFF0E3;}
	.st3{opacity:0.85;}
	.st4{opacity:0.3;fill:#FFFFFF;}
	.st5{opacity:0.3;fill:#F2D8E0;}
	.st6{fill:#FFFFFF;}
	.st7{opacity:0.3;fill:#DFF0E3;}
	.st8{opacity:0.4;fill:#FFFFFF;}
	.st9{opacity:0.3;fill:#E1F4FD;}
	.st10{fill:#F8DE8D;}
	.st11{fill:#BADAF3;}
	.st12{fill:#231F20;}
	.st13{fill:#010101;}
	.st14{fill:none;stroke:#010101;stroke-width:6.518;stroke-miterlimit:10;}
	.st15{fill:none;stroke:#FFFFFF;stroke-width:6.0438;stroke-miterlimit:10;}
	.st16{fill:#FAD6D7;}
	.st17{fill:#FFFEFE;}
	.st18{fill:#C2DE9F;}
	.st19{fill:#FCD6D6;}
	.st20{fill:#FEE777;}
	.st21{fill:#FAA958;}
	.st22{fill:#BADB93;}
	.st23{fill:#F9DE8C;}
	.st24{fill:#B0DAF4;}
	.st25{fill:#9C6026;}
	.st26{fill:#CB8F62;}
	.st27{fill:#714C1E;}
	.st28{fill:#9C9DCE;}
	.st29{fill:#FFC214;}
	.st30{fill:#DEE682;}
	.st31{fill:#F3DAB1;}
	.st32{fill:#F6B4C9;}
	.st33{fill:#FEC470;}
	.st34{fill:#FDC17E;}
	.st35{fill:#724F1F;}
	.st36{fill:#D22030;}
	.st37{fill:#00AFAC;}
	.st38{fill:#18A6DF;}
	.st39{fill:#FEDD10;}
	.st40{fill:#E74782;}
	.st41{fill:#FBD0D8;}
	.st42{fill:none;stroke:#000000;stroke-width:1.7659;stroke-miterlimit:10;}
	.st43{fill:#672F12;}
	.st44{fill:#F58C8E;}
	.st45{fill:#E8B674;}
	.st46{fill:#FFD89F;}
	.st47{fill:#FFEDB3;}
	.st48{fill:#5EB2E3;}
	.st49{fill:#7DB2E0;}
	.st50{fill:#F19C9D;}
	.st51{fill:#593712;}
	.st52{fill:none;stroke:#E7EFD6;stroke-width:0.4253;stroke-miterlimit:10;}
	.st53{fill:#D86464;}
	.st54{fill:#FEEBB1;}
	.st55{fill:#F8A95A;}
	.st56{fill:none;stroke:#010101;stroke-width:8.0507;stroke-linecap:round;stroke-linejoin:round;stroke-miterlimit:10;}
	.st57{fill:#95D4D1;}
	.st58{fill:#F6DD8C;}
	.st59{fill:#B0D9F4;}
	.st60{fill:#FFC118;}
</style>
<g>
	<g>
		<g>
			<g>
				<g class="st3">
					<g>
						<path class="st2" d="M499.5,86.8c4.5,1.4,9.1,2.5,13.6,3.9c4.4,1.4,8.8,3.2,12.1,6.3c0.8,0.9,1.5,1.8,2.2,2.8
							c0.6,1,1.1,2,1.6,3c0.5,1,0.9,2.1,1.3,3.2c0.3,1.1,0.6,2.1,0.9,3.2c0.6,2.2,1.1,4.3,1.6,6.4c0.3,1.1,0.6,2.1,1,3.1
							c0.4,1,0.7,2,1.2,3c-0.2,1.8-6.9-3.6-6.6,1.1c0.2,2.3,3.5,4.8,0.4,5.6c-0.6-1.4-2.7-2.1-3.5-3c-0.4,0.6-1,1-1.6,1.4
							c-0.6,0.4-1.3,0.8-1.8,1.2c-1.1,0.9-1.8,2-1.1,4.2c-0.9-1.3-1.8-2.1-2.9-2.6c-1-0.5-2.1-0.8-3.2-1.1c-2.2-0.5-4.5-0.9-6.5-2.8
							c-1.3,0-1.1,1.1-0.9,2.2c0.2,1.1,0.4,2.3-0.7,2.5c-1.2-1.2-1.4-3.4-2-5.2c-0.3-0.9-0.8-1.8-1.4-2.3c-0.7-0.6-1.5-0.9-2.8-0.9
							c-1.1,0.4-1.1,2.4-2.5,2.1c-1.8-2.6,1.4-4.5-2.6-6.1c-1.7-0.7-2.4,2.7-3.9-0.3c-0.1-2.8-2.4-4.4-4.9-6.5
							c-2.5-2-5.1-4.4-6.5-7.9c-1-0.8-1.7-1-2.4-1.3c-0.7-0.3-1.4-0.6-2.3-1.6c-0.1-0.5-0.1-0.8,0.1-1c0.1-0.2,0.3-0.2,0.6-0.2
							c0.6,0.1,1.3,0.4,1.8,0.5c-3.2-5.7-8.5-11.8-12.7-16.3c0,0,0.7,0.4,1.5,0.8c0.8,0.4,1.5,0.8,1.5,0.8c-0.4-0.7-0.8-1.4-1.3-2.2
							c-0.6-0.8-1.4-1.7-2.4-2.6c-1.2-1.1-1.9-1.6-2.7-2.1c-0.7-0.5-1.6-1.1-2.7-2.3c-1-1,0.3,0.1,1.7,1.1c1.4,1.1,2.8,2,1.7,0.9
							c-1.1-1.1-1.5-1.5-2.1-2.1c-0.6-0.5-1.5-1.2-3.8-2.8c-1.2-0.5,2.8,2.1,4.4,3c-1-0.5-4-2.2-3.9-1.9c1.9,1.1,3.3,2,4.7,2.6
							c1.3,0.7,2.5,1.2,3.7,1.7c1.1,0.5,2.4,1,3.9,1.4c1.4,0.5,3.1,1,5.4,1.5c4.4,1.3,9.3,2.5,13.9,3.3
							C493,85.3,497.2,85.8,499.5,86.8z"/>
						<path class="st2" d="M577.5,147.4c0.6,3.2-0.6,6.1-2.6,8.4c-2,2.2-4.7,3.9-7.1,5.2c-1.5-1.5-4.1-2.3-6.2-3.5
							c-2.1-1.2-3.5-2.6-2.9-5.5c0.6-2.3,1.4-4.5,2.4-6.5c0.9-2,2-3.8,3.3-5.3c1.3-0.5,2.8-0.8,4.2-0.9c1.4-0.1,2.8,0,4.1,0.5
							c1.3,0.5,2.4,1.3,3.3,2.5c0.4,0.6,0.8,1.4,1,2.2C577.4,145.3,577.5,146.3,577.5,147.4z"/>
						<path class="st6" d="M565.6,122.6l0.5,1L565.6,122.6z"/>
						<path class="st6" d="M502.2,79.2C502.2,79.2,502.2,79.2,502.2,79.2c0.1,0.1,0.2,0.3,0.3,0.4c0,0.1,0.1,0.2,0.1,0.3
							c0,0.1,0.1,0.2,0.1,0.1c0-0.1,0-0.2,0-0.2s0,0.1,0.1,0.2c0,0,0,0.1,0,0c0,0,0-0.1,0-0.1c0-0.1,0-0.2,0-0.3c0-0.2,0-0.4,0-0.5
							c0,0,0,0,0,0L502.2,79.2z"/>
						<path class="st6" d="M507.8,78.4c0,0-0.1-0.1-0.1,0.1c0,0.2,0,0.3,0,0.3l1.1-0.2c0,0-0.3-0.1-0.5-0.2
							C508,78.2,507.8,78.4,507.8,78.4z"/>
						<polygon class="st6" points="506,79.4 507,79.2 507.2,79.5 						"/>
						<path class="st2" d="M490.3,173.6c2.9,0.4,3.5,3,4,5.5c0.5,2.5,1,5,4.2,5c-1,3.8,0.2,8.7,1,13.1c0.8,4.4,1.2,8.3-1.5,10.2
							c-0.5-0.5-1.1-1.6-1.7-0.9c-2.5,2,0.4,3.6,0.4,6.3c-3.7-1-5.6,2.9-4.7,6.4c-1.1-0.8-1.5-3.1-2.6-2.7c-4,1.2-0.3,7.4-2.9,9
							c-0.9-1.5-0.5-5.2-2.9-5c-2.4,0-2.8,2.4-3.3,4.8c-0.4,2.4-0.9,4.7-3.3,4.1c-2-0.5,0.9-3.9-1.4-5.6c-1.7-1.5-3.3-1.4-4.7-0.5
							c-1.4,0.8-2.7,2.3-3.9,3.1c-2.3-1,0.1-3.1,0.1-4.2c-3.8-1.3-9.2-3.4-12.6-0.2c-0.5-2.2,2.5-6.5,0.3-8.4
							c-1.6-1.9-2.9-1.7-4.3-1.1c-1.4,0.5-2.8,1.2-4.5,0.5c0.8-2.5,3.4-0.3,2.9-3c-0.3-1.5-1.7,1.1-1.8-0.8c1.2-1.1,3.7-1.9,2.7-4.3
							c-0.7-1.4-1.6-1.2-2.6-1c-0.9,0.2-1.9,0.4-2.3-0.8c1.1-1.3,2.4-1.7,3.9-1.4c1.6-5.6-3-6.3-4.4-7c0.4-1.8,3.8-1.5,2.2-4.2
							c-0.8-1.5-2.4,1.1-3.1-0.8c1-3,8.9,1.1,5-5.8c-0.8,0.2-1.2-1-1.6-2.1c2.8,0.4,5.6-0.9,5.9-5c0.3-4.1-4.8-1.1-3.6-4.9
							c1,0.2,2.2,1.1,3.4,1.6c1.2,0.5,2.3,0.5,3.2-0.8c1.2-1.9-3.5-5.7,0-5.1c4.6,4.2-0.7-8.1,4.7-2.2c1.2-1-1.2-2.6-0.2-3.9
							c1.4,0.8,3.5,3.4,4.5,2.1c1.1-1.4-2.3-4.5,0-4.8c2.3,2.8,4.9,1.2,7.5,3.2c1.7,1.1,0.6-3.2,1.8-2.6c1.3,0.8,2.1,3.9,3.5,3.4
							c1.4-0.8-1-4.5,0.9-4.1c0,4,2.6,4.4,4.1,6.3c0,0,0.5-0.4,0.9-0.7c0.5-0.4,0.9-0.8,0.9-0.8c1.1,3.1,2,6.5,4.3,8l1.7-1.7
							C491,171.1,489.6,172,490.3,173.6z"/>
						<path class="st2" d="M401.7,213.7c3.9,2.7-3.4,4.6,0.3,7.1c-3.6,0.8-4.5,8.9-6.5,10.1c-0.3-0.9-2.1-3.9-3.5-1.3
							c-0.7,1.2-1.3,2.7-2,3.8c-0.4,0.6-0.7,1-1.2,1.2c-0.1,0-0.1,0.1-0.2,0.1l-0.1,0l0,0l0,0l-0.4,0l0,0l0,0l0,0
							c-0.1,0-0.2,0-0.3,0c-0.2,0-0.4-0.1-0.7-0.3c-0.5-1.6-1.9-2.2-3.4-2.3c-0.8,0-1.6,0.1-2.4,0.2c-0.8,0.2-1.5,0.4-2.1,0.6
							c0.6-3.3-1.4-5.4-3.1-5.4c-2.2,0.6-4.5,1.8-6.4,3.4c-2,1.6-3.7,3.8-5,6.3c-0.6-0.8,1.5-3.5-0.3-4.2c-2.6,7.4-4.9-4.5-7.9,2.4
							c0.6-1.2,1.6-2.8,1.3-4.4c-2.2-0.9-5.3,0.6-6.6-3.1l0.4-1.1c-0.7-2.1-2.8-0.7-4.2-0.5c0.2-3.1,4.4-0.5,3.5-4.5
							c-0.6-2.6-3.2-4.6-4.6-3.4c1.1-1.1,2.5-0.7,3.6-1.8c-0.2-2.4-1.6-5.8-3.6-5.2c1.1-0.6,3.8,1.1,4.1-2.2c0.1-2-2.4-0.8-2.6-2.7
							c0.8-0.5,2.1,1.4,2.9-0.6c-0.4-0.9-1.6-2.5-0.7-3.6c2.6-3.6,8.8-0.7,8.1-6.6c3,0.3,6.4,1.7,9.5,3c3.2,1.3,6.1,2.6,8.2,2.8
							c0.3-2.4-2.5-0.7-1.3-3.4c1.7,0,4,1.4,5-1l-1.3-2.3c1.6,0.6,3,0.6,4.4,0.4c0.3-0.1,0.7-0.2,1-0.2l0.5-0.1l0.3-0.1l0,0l0,0
							c0,0-0.1,0,0.1,0l0,0l0,0l0.1,0l0.1,0c0.7-0.2,1.4-0.5,2-0.7c2.7-0.8,5.3-1,8.4,2.6c2.9,2.2,4.6,6.8,7.2,10.2
							C400.5,209.3,404,211.8,401.7,213.7z"/>
						<polygon class="st4" points="351.6,211.2 351.6,211.4 350.8,211.7 350.8,211.4 						"/>
						<path class="st2" d="M330.4,248.6c0.1,3.5,0.4,7.9-1.3,10.6c-3.2,3.2-6,5.5-8.7,7.1c-2.8,1.7-5.5,2.7-8.8,3.5
							c0.8-1,0.8-3.7-0.1-4c-3.4-0.4-7.3,2.3-10.3,1.7c1-1.5,3.4-3.3,2.6-5.3c-0.6-1.8-2.9,0.9-4.1,1.7c-0.6-2.8,3.2-2,1.9-5.4
							c-1-2-2.6,0.8-4-0.1c0.5-1.3,3.3-1.3,2.6-4.3c-0.9-4.3-4-0.1-5.1-2.5c1.7-1.4,3.6,0.2,5.1-1.4c-2.8-4.1,4.4-10.2-0.2-12.3
							c6.1,3,3.4-14.7,8.5-10.5l-2.1-2c4.4,0.1,8.3-2.6,12.7,1.8c5.1,2.7,8.5,9.3,11.7,14.9C329.8,244.3,330.4,246.1,330.4,248.6z"
							/>
						<path class="st2" d="M280,234.9c-2.6,3.5-4.6,8.4-7.6,11.2c-4.6,3.9-5.1-0.2-10.2,3.8l1.2-2c-2.7-0.4-5.2-2.7-8.1-2.6
							c0.2-1.8-2.2-3.3-0.2-4.9c0.2-5-3.7-1-4.9-3.2c1.2-1.4,3.6,1,3.9-2c0.3-2.8-3-2.6-2-5.5c1.7-1.3,2.3-3.4,0.8-4.8
							c2.5-5.4,8.9-4.9,8.3-12c1.2,0,1.7,4.1,3.2,2c-0.2-0.4-0.2-1.2-0.2-1.9c2.5-2.7,5.2,5.6,6.6-0.9c2.5,2.4,6.7,4.7,7.8,7.7
							C279.3,225.4,280.4,229.4,280,234.9z"/>
						<polygon class="st4" points="266.9,219.7 268.1,219.7 267.1,219.9 						"/>
						<path class="st2" d="M255.4,324c0.5,0.2-0.2-1.7,1.1-1.7L255.4,324z"/>
						<path class="st2" d="M252.5,325.5c-0.2-1.7,0.4,0.4,0.4,0.4C252.7,326.2,252.3,325.8,252.5,325.5z"/>
						<path class="st2" d="M235.1,224.1c-0.8,5.8-7,6.8-9.5,9.9c-6.3,7.2-13.1,2.4-19.7,6.8l1.6-5.8c-2.3-1.6-4.2-5-7.2-2.8
							c0.9-1.4,3-3.1,2.1-5.4c-0.6-1.4-2.3-0.2-2.5-1.6c0.7-1.3,2.2-0.1,2.6-1.9c0.3-2.5-2.3-1.1-2.4-3.3c3,1,4.7-4.6,6.1-7.3
							c-0.7-2.1-2.1-0.2-3.3-1c1.3-2.9,3.5,0.2,4.6-2.2c0.9-1.9-1.9-1.4-1-3.2c1.3-3.1,5.1,0.4,4.9-3.7c-0.1-1.2-1.8-0.2-1.4-2
							c1.3,0.5,3.3-0.5,4.4,1c0.9-0.9,0.4-3.7,0.4-5.2c1.5-0.2,2.2,3.5,4,3.5c1.6,0,1.8-4.7,3.8-2.1c2.3,1.1,4.9,6,7.2,2.4
							c0,5.9,3.8,5.4,5.3,7.6C236.2,211.6,236.6,218.4,235.1,224.1z"/>
						<polygon class="st4" points="232.2,221.2 232.2,221.4 231.3,221.6 231.3,221.3 						"/>
						<polygon class="st4" points="211.9,207 212.5,205.9 212.4,206.9 						"/>
						<path class="st4" d="M211.4,208.6c0.2-1.7-1.5-0.5,0.4-1C211.9,208,211.6,208,211.4,208.6z"/>
						<path class="st2" d="M405.4,136.1c-0.2,5-2.4,7.8-5.1,10.1c-2.7,2.3-5.8,4.1-8.1,6.9l0.3-2.4c-1.8-1.2-3.8,1.5-4.8,2.2
							l0.7-4.3c-1.6,0-3.2-0.5-4.7-0.7c-0.8-0.1-1.6-0.1-2.3,0.2c-0.4,0.1-0.8,0.3-1.2,0.5l-0.3,0.2l-0.1,0.1l-0.1,0.1l0,0l0,0l0,0
							c0.1,0-0.2,0,0.2,0l0,0l0,0c-0.2,0.2-0.4,0.3-0.6,0.5c0-0.5,0.1-1,0.2-1.3c0.1-0.2,0.2-0.3,0.3-0.5l0,0l0,0l0,0
							c0.2,0-0.3,0-0.2,0l0,0l0,0l0-0.1l0.1-0.1c0.1-0.1,0.1-0.1,0.2-0.2c0.4-0.5,1-0.8,1.5-1.1c1-0.6,1.8-1.3,0.7-3.5
							c-0.4-0.8-1-0.4-1.5,0.1c-0.3,0.2-0.6,0.5-0.9,0.6c-0.1,0.1-0.3,0.1-0.4,0.1l0,0l0,0h0c0.5,0,0.1,0,0.2,0l0,0l0,0l0,0l-0.1,0
							c0,0-0.1,0-0.1,0c-0.1,0-0.2-0.1-0.2-0.1c-0.1-1.2-0.9-2.9-0.1-4.7c-0.7-0.1-2.2-1.1-2.9-1.4l1.7-1.3
							c-1.3-1.3-3.1-0.2-4.8-0.8c0.4-0.5,1.8-0.3,2.2-1.4l-1.4-1.5c1.5,0.1,2.8-0.5,4-1.5l0.4-0.4l0.1-0.1l0,0c-0.7,0.1-0.2,0-0.3,0
							l0,0l0,0l0,0l0,0l0.1-0.1l0.2-0.2c0.3-0.3,0.5-0.6,0.7-0.9c0.5-0.7,1-1.4,1.4-2c-0.4-1.9-1.7-2.6-2.7-2.4
							c1.8-1.1,3.8,0.8,5.5-1c0.7-0.8-0.4-2.2-0.9-2.4c1.7-0.3,3.5-0.7,5.3-1.1c0.9-0.2,1.8-0.4,2.7-0.5c0.9-0.2,1.7-0.3,2.6-0.4
							c3.6-0.9,7.1,2.2,10.1,5.9C404.6,127.4,405.2,132.9,405.4,136.1z"/>
						<polygon class="st4" points="206.9,217.3 206.9,217.6 206.2,217.7 206.2,217.4 						"/>
						<polygon class="st4" points="403.4,135.1 403.5,135.4 402.8,135.8 402.8,135.6 						"/>
						<path class="st4" d="M400.7,141.7c1.1,0-0.3-1.5,0.7-1.9C401.8,140.8,401.2,141.3,400.7,141.7z"/>
						<polygon class="st4" points="398.8,141.4 399.6,141.2 399,143 						"/>
						<path class="st4" d="M400.1,144.1c-0.8,1.7-0.7-1.7-0.2-1.2C399.9,143.4,400.3,143.7,400.1,144.1z"/>
						<path class="st4" d="M398.1,140.3l0.2,0.7c-0.9-2.4-1.6-0.5-3-1.6l2.2-2.2C397.7,137.5,397.1,140.2,398.1,140.3z"/>
						<path class="st4" d="M393.3,125.8c0-0.6,0.2-1,0.5-0.7L393.3,125.8z"/>
						<path class="st4" d="M398.2,146.7c-1.8-0.1-4.5,2-4.5,4.1c-1-5.4-4-0.5-6.6-4.2c0.8,0.6,0.1-0.9,0.6-1.2
							c-0.9-1.6-0.3,1.1-1.2,0.8l0.2-1c-1.2-1.4-2.3,2.1-3,0.7c0.3-3.7,4.9-1.2,2.4-5.5c2.3,0.9-0.3,5.4,2.6,5
							c0.7-2.1-2.1-1.9-0.7-2.8c1.1-0.7,0.3,3.1,1.7,2.7c-1-1.5,1.4-2.4,0-3l-0.6,1.2c1-4,2.2,1.2,3.1-2.5c-0.3,0-0.7,1.3-0.1,1.2
							c0.9-2.3,0.4-1,1.8-1.5c-0.9,0.1,0.5,3.5-1.1,3.5c1.3,0.2,2.5-2.9,3.5-0.6l-0.5,1.5c2.4,1.6,1.7-5.5,3.7-1.1
							C398.3,143.8,398,145.4,398.2,146.7z"/>
						<path class="st4" d="M391.8,123.4c0.4,0.3,0.4,1.4,1.1,0.6C392.5,123.7,391.5,125.3,391.8,123.4z"/>
						<path class="st4" d="M395.3,136.6c-0.6-0.1,0.3-0.2,0.2-0.4C395.7,136.5,395.4,136.5,395.3,136.6z"/>
						<path class="st4" d="M390.8,124.1l-0.2-0.7l0.6,0.1c0,0-0.2,0.2-0.3,0.4c-0.2,0.2-0.4,0.4-0.4,0.4L390.8,124.1z"/>
						<path class="st4" d="M393,138.3c0.1-0.9,0.8,0,1.2,0.5C394.1,139.4,393.3,138.6,393,138.3z"/>
						<path class="st7" d="M396.1,145.7l-0.8,0.3L396.1,145.7z"/>
						<polygon class="st7" points="394.2,145.5 394.7,143.4 394.7,145.3 						"/>
						<path class="st2" d="M192.7,214.6c-3.3,8.8-9.9,13.1-15.5,18.4c-6.8-3-14-8.5-18.4-16.9c-0.2-1.9,1-2.5,2.3-2.9
							c-0.3-4.3-2.8-7.2-5.3-8.4c3.5,1.8,5.7-2.6,9-4c1.1-3.5-1.6-2.7-2.1-4.8c1.8-0.5,3.3,2.5,5.2,1.3c0.1-1.5-1.4-1-1-2.6
							c3.8-2.4,5.3-3.3,8.8-1.4c0.9-1.8,0.4-4.9,0.4-5.6c1.5,4.2,4.8,3.5,7.6,4.1l0.2-2.9c2.2,6.5,10.7,4.6,9.8,15.4
							C192.1,208.8,194.2,210.4,192.7,214.6z"/>
						<polygon class="st7" points="394.7,146.4 395.5,146.9 395.1,147.6 						"/>
						<path class="st4" d="M387.9,125.4c-3.5,2.5-1.4,2.9-5.2,4.6c0.4-1.4,0.5-2.8-0.5-2.6l0.1,2.7l-0.4-0.3
							c1.2,0.5-0.3,2.9,1.4,3.9l0.1-0.6c0.2,2.6-1.2,0.3-1.7,0.6l0.5-0.4c-0.9-1.6-1.4,1-2.7-0.3c0.1,1.8,0.2,3.9,1.2,3.7
							c-0.5,0-1.3,0.1-2,0c-0.1,0-0.2,0-0.3-0.1l-0.1,0l-0.1,0l0,0c0.1,0-0.3,0,0.3,0l0,0l0,0l0,0l0,0l0,0c-0.2-0.1-0.3-0.1-0.4-0.2
							c-0.2-0.2-0.3-0.4-0.2-0.7c0.2,0.1,0.3,0.2,0.4,0.3l0.1,0l0,0l0,0l0,0l0,0l0,0c-0.6,0.1-0.2,0-0.3,0l0,0l0,0c0,0,0.1,0,0.1,0
							c0.1,0,0.2-0.2,0.3-0.5c0.2-0.6,0.3-1.5,0.9-2.8c-0.3-1.4-1.5-0.6-1.5,0.8c0.5-3.1,1.3-3.6,2.7-5.4l0,0.2
							c0.9-0.1,0.5-2.5-0.2-2c0.9-0.1,0.8,0.8,0.5,1.9c1.1-4.3,6.9-5.2,4.6-6.3c2.4-0.6,1.3,2.1,3.4,2.5
							C388.8,125.3,388.4,124.8,387.9,125.4z"/>
						<path class="st4" d="M389.2,126.7c1.1,0.8-1.1-0.6,0.2-1.5C389.5,125.6,388.7,125.9,389.2,126.7z"/>
						<path class="st4" d="M387.6,129.4c0.6,0.7-0.1,0.6-0.6,0.7c0.3-0.7,1.6-1.7,2.2-2.7C389.9,129.2,388,128.6,387.6,129.4z"/>
						<path class="st7" d="M393.7,148.3c-0.6-0.4,0.2-1,0.3-1.3C394.1,147.5,393,147.1,393.7,148.3z"/>
						<polygon class="st7" points="392.7,145.9 393.4,146.3 392.5,146.6 						"/>
						<path class="st4" d="M386.9,128.6c0.2,0.2,0.2-2.3,1.1-1.1C387.6,128.1,387.6,129.2,386.9,128.6z"/>
						<path class="st7" d="M386.9,126.7c-0.9-0.1,0.1-1.2,0-2.2C387.7,125.6,386.7,125.7,386.9,126.7z"/>
						<polygon class="st4" points="390.6,141.6 391.1,140.7 390.8,140.9 						"/>
						<polygon class="st7" points="384,124.4 384.5,123.4 384.7,123.9 						"/>
						<polygon class="st7" points="384.6,125 385.1,125.5 384.6,125.9 						"/>
						<path class="st4" d="M385.5,132l-0.7,1.9l0.4-2.2C384,131.5,386,129.2,385.5,132z"/>
						<path class="st4" d="M385.5,134.5c-0.4,1.4,0.2-1,0.7-1.3C385.9,133.4,386.3,135,385.5,134.5z"/>
						<path class="st4" d="M388.3,141l-0.5,0L388.3,141z"/>
						<path class="st7" d="M384.1,125.4l-0.7,1L384.1,125.4z"/>
						<path class="st4" d="M384.6,130.2l-1-0.1L384.6,130.2z"/>
						<path class="st4" d="M384.6,137l-0.3,0.2l0.6-2C385.4,135.9,384.7,136.2,384.6,137z"/>
						<path class="st4" d="M383.5,132.4c-0.2,0.4-0.6,0.1-0.6-0.6C383.3,132.3,383.8,130.8,383.5,132.4z"/>
						<path class="st7" d="M381.1,130.3c0-1.1-1,0.2-1.7,0.4c0.8-1.7,1.9,0.1,2.3-1.9C381,128.7,381.2,129.6,381.1,130.3z"/>
						<polygon class="st4" points="382.2,136.6 383.4,136.5 382.6,136.8 						"/>
						<polygon class="st7" points="380.3,132.2 381.2,131.3 381.1,132.7 						"/>
						<polygon class="st4" points="381.4,134.1 381.5,134.4 381,134.7 380.9,134.5 						"/>
						<polygon class="st4" points="381.4,137.4 382.2,137.4 381.8,137.6 						"/>
						<polygon class="st4" points="382.8,144.6 383.4,144.1 383.6,144.6 						"/>
						<path class="st4" d="M181.2,195.8c0.2,0,0.9-1.3,1.2-0.2L181.2,195.8z"/>
						<path class="st4" d="M380.6,139.8c-0.3-0.6,0.2-1.2,0.4-1.4C381,138.8,380.9,139.6,380.6,139.8z"/>
						<polygon class="st4" points="381.2,140 381.6,140.5 381.4,141.2 						"/>
						<path class="st4" d="M378,131.4c0,0,0,0.1-0.1,0.2c0,0,0,0.1,0,0.1l0,0l0,0l0,0l0,0l0,0l0.3,0l0,0l0,0l0,0
							c0,0.1,0,0.1-0.1,0.2c-0.1,0.3-0.2,0.5-0.2,0.5s0.1-0.3,0.2-0.5c0-0.1,0.1-0.1,0.1-0.2l0,0l0,0l0,0l-0.3,0l0,0l0,0l0,0l0,0
							l0,0c0,0,0-0.1,0-0.1C378,131.5,378,131.4,378,131.4z"/>
						<path class="st4" d="M377.3,134.4c-0.3-0.4-0.6-0.4-0.6-1.2C376.8,133.6,378.3,133.3,377.3,134.4z"/>
						<path class="st2" d="M154,165.7l-5.9,7c-4,2.9-5.3-1.2-9.5,2.5c0-4.1-6.5-3-9.8-2.2c1.3-1.6,3.5-2,3.9-4.5
							c-1.1-2.3-3.9-3.3-6.3-2.6c0.4-2.7,3,0.8,3.3-2.7c0.2-1.3-0.3-3.3-1.4-2.7c0-2.2,2.5-1,2.4-3.6c-0.1-1.6-1.8-0.9-2.3-2.2
							c1-1,2.3,1.7,3.1-1c-0.9-1.4-2.6-2.3-2.7-4.9c5.5,5.4,6.6-5.9,11.8-4.7c4-0.3,7.3,1.7,10.7,3.7c2.6,1.5,3.6,6,5.1,6.7
							C156.4,158.9,155.1,161.5,154,165.7z"/>
						<polygon class="st8" points="178.7,165.3 179.4,164.7 178.9,166.9 						"/>
						<path class="st8" d="M177.9,164.7c-0.5-1.6,0.3,0.9,0.5-0.3C178.1,164.6,178.2,165.3,177.9,164.7z"/>
						<path class="st4" d="M152.9,154.3c0-1.4,0-1.2,0.5-0.2L152.9,154.3z"/>
						<polygon class="st8" points="176.3,171.7 177,172.3 176.6,172.1 						"/>
						<path class="st4" d="M174.4,196.9l0.8,0.9C174.8,197.3,174.1,197.7,174.4,196.9z"/>
						<path class="st4" d="M151.4,154.3l-0.8-0.5c-0.2-0.2,1.3,0.1,1.8,1.1l-1.3,0L151.4,154.3z"/>
						<path class="st8" d="M175.7,170.8c0.5-0.3,0.4-1.3,0.8-0.6C176.4,170.4,176,171,175.7,170.8z"/>
						<path class="st8" d="M176.4,172.9l-0.5,0.6L176.4,172.9z"/>
						<path class="st8" d="M175.7,175.9c-0.3-1.9-1.6,0.2-2.5,0.3c1-2.8,1.3-1.6,2.7-0.8L175.7,175.9z"/>
						<path class="st4" d="M150.1,152.1c0.8-0.3,0.3,0.9,1.1,1.1C150.3,153.5,150,153.8,150.1,152.1z"/>
						<path class="st8" d="M173.4,173.3c0.3-1.5,1.2-1.4,1.9-2.2C174.4,171.4,174,173.7,173.4,173.3z"/>
						<polygon class="st8" points="173.7,164.7 173.7,165 172.9,165.1 172.9,164.8 						"/>
						<polygon class="st8" points="171.7,176.9 172.3,177.3 172.1,177.8 						"/>
						<path class="st8" d="M171.1,172.1c-0.8-0.6,0.4-1,0.6-1.5C171.8,171.3,171.6,171.8,171.1,172.1z"/>
						<path class="st8" d="M170.1,176.8c-0.4,0.5,0.4,1.2,0.5,1.6c-0.9-1.1-1.1-2.5-2.5,0.6c1.2-0.6,1-2.6,1.2-2.8l-0.8-0.1
							c1.8,0.5,1.9-1,2.5,1.4C170.7,177.5,170.4,177.1,170.1,176.8z"/>
						<path class="st8" d="M169.1,168.2c1-0.6,0.6-3.2,1.7-1.2C170.3,167.3,169.5,167.2,169.1,168.2z"/>
						<path class="st8" d="M169.6,173c-0.2-1.7-1.6-0.3-2-1.4c-0.1,1,0.2,3.4,1,1.8c-0.9,1.3-1.5-1.3-2.3,0.8
							c1.4-0.7,0.7-3.2,1.8-3.6c-0.4,0.5-0.1,1,0.2,1.2c1.2-0.9,0.5-2.7,1.6-1.9l-0.3,0C170,171.3,170.5,171.2,169.6,173z"/>
						<path class="st4" d="M143.1,148.4c2-3-0.8,2,1.3,0.5C143.8,148.7,143.1,149.4,143.1,148.4z"/>
						<polygon class="st8" points="168.9,165.1 168.9,165.4 168.1,165.5 168.1,165.2 						"/>
						<path class="st4" d="M142.8,147.6c-0.7,0.7,0.5-0.6,0.7-1.2C143.6,147.3,143.1,147.2,142.8,147.6z"/>
						<path class="st8" d="M166.8,178.7c-0.1-1.2-0.8-0.6-0.7,0.3c-0.8-0.6-0.2-1.4,0.1-2C166.1,178.1,167.1,177.9,166.8,178.7z"/>
						<path class="st8" d="M167.2,164.1l-0.2,1.2L167.2,164.1z"/>
						<polygon class="st8" points="166.8,169.7 166.7,170 165.7,170.1 165.8,169.9 						"/>
						<path class="st4" d="M141.6,151.1l-0.8,0L141.6,151.1z"/>
						<path class="st8" d="M164.4,175.1c0.5-0.3,0.7-2,1.1-1.3L164.4,175.1z"/>
						<path class="st4" d="M138.9,150.7c1-1,1.3-2.6,2.3-0.7L138.9,150.7z"/>
						<path class="st4" d="M140.7,148.3c0.3-0.6-0.5-1.1,0.2-1L140.7,148.3z"/>
						<polygon class="st8" points="163.9,173.5 163.8,173.7 163.3,173.8 163.4,173.6 						"/>
						<path class="st4" d="M136,149.5c0.3-0.6,0-1.4,0.5-1.8l2.1,1.5C137.6,150.7,137.1,147,136,149.5z"/>
						<path class="st8" d="M162.3,173.2c-1.7-0.8-1.4,1.4-2.3-1.2C160.3,173.9,162.5,170.8,162.3,173.2z"/>
						<path class="st4" d="M136.3,151.3l0-0.5l1.6,0C137.2,151.5,136.8,150.5,136.3,151.3z"/>
						<path class="st8" d="M160.6,166.4l-0.7,0.3L160.6,166.4z"/>
						<path class="st8" d="M159.2,175l-0.6-0.4L159.2,175z"/>
						<path class="st8" d="M159.2,165.9l-0.6-0.2L159.2,165.9z"/>
						<polygon class="st8" points="156.9,167.6 158,167.9 157,168 						"/>
						<path class="st2" d="M122.5,190.6c-1.8,5.1-4.1,3.1-6.9,7c-5.7,2.6-10.7-2-15.7-1.1c1.2-1.3,2.6,0.5,3.6-1.7
							c-0.8-2.4-3.6,1.2-4.2-1.2c0.9,0,2.7-0.5,2.5-2.5c-1.5-0.3-4.1,0.4-4.9-1.1c1.2,0.2,2.7,1.4,3.9-0.3c-0.8-2.2-1.2-5.1-2-6.1
							c1.6-0.9,2.7,1.7,4.1-0.9c-0.4-2.7-3.6,1-3.5-2.1c3.4-0.4,6.4-1.8,9.7-2.9l-0.4-2.5c5.2-0.3,10.5-1.1,14.3,3
							c1.3,1.5,3.3,4.5,1.6,7.6C123.8,187.6,124.4,189.5,122.5,190.6z"/>
						<polygon class="st8" points="136.4,181.4 137.3,181.1 137.1,181.3 						"/>
						<polygon class="st8" points="135.6,180 135.8,181.5 135.4,181.5 						"/>
						<path class="st2" d="M111.9,110.8c0.9,0.9,1.8-1.2,2-2.3l-0.9,3.4L111.9,110.8z"/>
						<path class="st2" d="M113.7,108.3c-0.3-0.1-0.1-0.7-0.1-1.2C113.4,107.7,113.9,107.8,113.7,108.3z"/>
						<polygon class="st2" points="109.6,114.7 112.6,112.9 110.4,114.5 						"/>
						<polygon class="st8" points="133.5,181.2 134.3,181.6 133.7,182.4 						"/>
						<path class="st2" d="M112.6,105.9l-0.8-0.2L112.6,105.9z"/>
						<polygon class="st2" points="105.7,114 108.9,115 105.9,114.4 						"/>
						<polygon class="st2" points="108.4,104.5 108.4,104.7 107.3,105.1 107.3,104.9 						"/>
						<polygon class="st8" points="129.1,184 129,184.3 128.2,184.4 128.2,184.1 						"/>
						<polygon class="st8" points="127,184.9 127.4,185.9 126.9,185.9 						"/>
						<polygon class="st2" points="105.7,105.3 105.7,105.5 105.4,105.7 105.4,105.4 						"/>
						<polygon class="st2" points="104,113.6 104.3,114.2 103.8,114.3 						"/>
						<polygon class="st2" points="102.7,109.3 103.2,110.3 102.6,110 						"/>
						<path class="st2" d="M91.6,168.1c-1.4,2-2.7,6.4-4.6,8.8c-6.2,4.9-8.8,1-14.3,2.2c1.6-4.4-1.6-2.2-2.9-2.4l1.7-2.7
							c-0.5-3.4-4.2-3.5-5.1-4.9c1-0.2,2.5,0.4,3.3-1.7c-0.6-1.5-2.5-0.4-3.8-1c2.2-0.5,4.5-3.9,4-6.6c-0.6-0.8-1.8,0-1.7-1.2
							c1.4-1.3,3,2.1,3.8-0.2c1.1-3.1-2.8-0.2-2.4-2.9c2.3-0.1,4.4,1.5,6.8-0.3c0.1-1.2-0.7-1.5-0.7-2.7c5.9,0.9,13-0.1,15.4,8.7
							C92.1,163.5,90.9,165.7,91.6,168.1z"/>
						<polygon class="st4" points="85.1,161.4 85.8,161.7 85.1,161.6 						"/>
						<path class="st4" d="M84.8,161.7l-0.5-0.4L84.8,161.7z"/>
						<path class="st4" d="M79.2,169c0.5,0.8,1.7-3.7,2.1-1.2L79.2,169z"/>
						<polygon class="st4" points="76,160.1 76.7,159.5 76.7,160.4 						"/>
						<polygon class="st2" points="74.1,142.3 74.4,142.9 74.4,143.4 						"/>
						<polygon class="st2" points="70.8,141.7 73.5,141.8 71.4,141.6 						"/>
						<polygon class="st2" points="68.4,144.9 67.9,144.5 68.7,143.2 67.9,144.5 						"/>
						<path class="st2" d="M60.3,92.5c0.9-0.9-0.5-1.3,0.7-2C60.8,91.3,60.8,92.2,60.3,92.5z"/>
						<path class="st2" d="M57.9,95.2c0.6-0.2,1.6-0.4,2-1.4C59.5,95.5,58.6,94.6,57.9,95.2z"/>
						<polygon class="st2" points="56.9,87.4 57.7,87 57.3,87.3 						"/>
						<path class="st2" d="M55.3,95.1l-0.8-0.1L55.3,95.1z"/>
						<path class="st2" d="M55.8,87.4l-0.7,0.4L55.8,87.4z"/>
						<polygon class="st4" points="49.4,139.2 49.4,139.4 48.9,139.6 48.9,139.3 						"/>
						<polygon class="st4" points="48.7,135.2 48.8,135.4 48.4,137.6 						"/>
						<polygon class="st2" points="52.5,92.8 53.6,94.1 52.6,93.7 						"/>
						<path class="st4" d="M47.6,135c-0.2-0.9,0.4-1,0.9-1.1L47.6,135z"/>
						<polygon class="st4" points="44,152.4 44.8,151.6 44.4,152.4 						"/>
						<polygon class="st4" points="45.2,135.9 45.2,136.2 44.5,136.3 44.5,136.1 						"/>
						<polygon class="st4" points="43.2,154.2 43.2,154.5 42.1,154.7 42.1,154.5 						"/>
						<path class="st4" d="M41,142.1c-1.2-0.9,0.7-0.8,1-1.1C42.1,141.9,41.6,141.6,41,142.1z"/>
						<polygon class="st4" points="40.6,139.2 41.5,138.3 41.1,139.1 						"/>
						<polygon class="st4" points="38.3,144.1 39.8,145.9 38.5,145.2 						"/>
						<path class="st6" d="M19.1,131.4c-0.6-0.1-1.9-0.1-1.9-1.3c1.1-1.5,1.7,0.4,2.7-0.4C20.6,129.7,19.5,131.5,19.1,131.4z"/>
						<path class="st2" d="M11.4,157.2l-1.2,0.2c1.1-0.1,2.1-2.4,3.4-1.6l-3,2.5L11.4,157.2z"/>
						<path class="st2" d="M7.3,160c0-1.8,1.5-0.6,2.3-1.4C8.9,159.3,8.1,159.5,7.3,160z"/>
						<path class="st4" d="M0,132.8c0.3-0.5,0.6,0.4,0.7,0.6C0.3,133.7,0.2,133.2,0,132.8z"/>
						<polygon class="st4" points="49.9,147.2 50.7,148 49.9,147.4 						"/>
						<polygon class="st4" points="49.2,149.4 49.5,149.4 49.3,150.1 						"/>
						<polygon class="st4" points="46,145.5 46.6,144.4 46.5,144.9 						"/>
						<path class="st4" d="M41.8,161c-0.3-0.6,1.2-1.4,1.5-1.2C42.8,159.8,41.9,160,41.8,161z"/>
						<polygon class="st4" points="40.7,163.3 41.5,163.6 40.6,163.7 						"/>
						<path class="st4" d="M39.6,159.3l0.7-0.1c-1.7,1.5-1.6,1-2.4-0.3c1.2,0.9,1.7-0.3,3.3-0.9C40.7,158.9,40.3,158,39.6,159.3z"/>
						<path class="st4" d="M39.4,158.4l-1-0.3L39.4,158.4z"/>
						<path class="st2" d="M20.2,141.9c-2.8,0.9-4.4-1.6-4.5-4.4c-0.2-3.6-1.7-8,2.1-10.4c2,1.7,4.7,4.1,4.9,7.9
							C22.9,137.1,23,141.2,20.2,141.9z"/>
						<path class="st2" d="M20.6,38.8c-0.2,0.4-0.5,0.8-0.7,1.3c0,0.1-0.1,0.1-0.1,0.2c0,0.1,0.1,0.1,0.1,0.1c0.1,0.1,0.2,0,0.4,0
							c0.2,0,0.6-0.4,1.1-0.9c0.6-0.5,1.2-1.1,1.9-1.7c0.6-0.6,1.2-1.1,1.8-1.4c0.3-0.1,0.5-0.2,0.7-0.2c0.1,0,0.2,0,0.3,0.1
							c0.1,0.1,0.1,0.1,0.3,0.3c-0.2-0.2-0.1-0.3-0.2-0.5c0-0.2-0.1-0.3-0.2-0.5c-0.1-0.3-0.2-0.7-0.4-1c-0.1-0.2-0.2-0.3-0.2-0.5
							c0-0.1-0.1-0.2-0.1-0.2l0-0.2c-0.1-0.2-0.1-0.4-0.2-0.5c-0.6-0.6-0.8-0.1-2.1,1.8C22.2,35.9,21.1,37.9,20.6,38.8z"/>
						<path class="st2" d="M41.3,0L41,0.6L41.3,0z"/>
						<path class="st2" d="M26.4,29.2c0.1-0.2,0.2-0.3,0.2-0.3C26.5,29,26.7,28.7,26.4,29.2z"/>
						<path class="st2" d="M26.5,29.5L26.5,29.5L26.5,29.5z"/>
						<path class="st4" d="M22,36.6C22.1,36.5,22.1,36.6,22,36.6c-0.4,0.7,0.3-0.5,0.3-0.3c0,0,0-0.1,0-0.1c0.2,0.1,0.8-1.3,1.1-1.3
							c-0.4,0.3-0.5,0.3-0.6,0.5C22.4,36,22.3,36.1,22,36.6z"/>
						<path class="st4" d="M23.5,34.5c0.3-0.4,0.3-0.4,0.1-0.3C23.5,34.3,23.5,34.4,23.5,34.5z"/>
						<path class="st4" d="M20.8,38.8c0.5-0.7,0,0.6,0.5,0l0.3-0.8c-0.3,0.4-0.1,0.6-0.6,0.9c0.7-1.3,0.2-0.9,0.4-1.2
							C21.1,38,21.3,37.9,20.8,38.8z"/>
						<polygon class="st4" points="23.4,35.2 23.4,35.1 23.1,35.4 						"/>
						<path class="st4" d="M23,35.9c-0.1,0.2-0.3,0.4-0.3,0.6c0.1-0.2,0.5-0.6,0.5-0.9C23.1,35.8,22.7,36,23,35.9z"/>
						<path class="st4" d="M22.2,37.5c0.1-0.2-0.1,0.1-0.2,0.1C22,37.5,22,37.6,22.2,37.5z"/>
						<path class="st4" d="M23.4,35.7c-0.1,0.4,0.1-0.1,0.1-0.2C23.5,35.6,23.4,35.7,23.4,35.7z"/>
						<path class="st4" d="M24.1,34.9l0.2-0.1L24.1,34.9z"/>
						<path class="st4" d="M23.4,36.2c0.3-0.2,0.1-0.2,0.1-0.3L23.4,36.2z"/>
						<path class="st4" d="M23.2,37.1l0.1,0.1L23.2,37.1z"/>
						<path class="st2" d="M3.3,66.9c-0.1,0.1,0-0.1-0.4,0.3c0.2-0.1-0.7,1.2-1.1,1.9c-0.7,0.7-0.8,0.9-0.6,0.7
							c0.1-0.1,0.2-0.3,0.5-0.5c0.3-0.2,0.7-0.5,1.2-0.9C3,68.2,3,67.9,3,67.6C3.1,67.4,3.3,67.2,3.3,66.9c0.2-0.2,0.3-0.3,0.5-0.5
							c0.1-0.1,0.2-0.3,0.5-0.4c0.4-0.3,1-0.7,1.6-1.3c0.3,0.1,0.5,0.2,0.9,0.2c0.5,0.2,1.1,0.3,1.7,0.5c0.9,0.1,3,1.1,4.7,1.9
							l0.3,0.2l0.2,0.1l0.2,0.2l0.9,0.6c0.6,0.4,1.2,0.9,1.8,1.3c0.6,0.5,1.2,0.9,1.7,1.4c0.2,0.2,0.7,0.6,1,1
							c0.4,0.4,0.7,0.8,1.1,1.2c0.7,0.8,1.4,1.7,2.1,2.6c0.3,0.4,0.7,0.9,1,1.3l0.5,0.7l0.6,1c1.6,2.6,3,5.5,4.1,8.4
							c-0.4-2-1-3.8-1.7-5.6c-0.4-0.9-0.8-1.8-1.2-2.6l-0.7-1.2l-0.6-1c-0.7-1.2-1.3-2.3-2-3.5c-0.3-0.6-0.7-1.2-1-1.8l-0.5-0.9
							l-0.2-0.5c-0.1-0.2-0.1-0.3-0.2-0.4c0.1,0,0.2-0.1,0.3,0c0.1,0.1,0.2,0.2,0.4,0.3c0.3,0.3,0.5,0.7,0.8,1.1
							c0.5,0.9,1.1,1.8,1.8,2.2c-0.4-0.9-1.1-2-1.7-3c-0.7-1.2-0.9-1.7-0.9-2.5c0.5-0.6,1.1-0.6,1.7-0.1c0.2,0.1,0.3,0.2,0.5,0.4
							c0.2,0.2,0.4,0.5,0.6,0.8c0.4,0.6,0.9,1.2,1.3,1.9c0.9,1.4,1.7,3,2.5,4.5c0.2,0.4,0.5,0.9,0.7,1.3c0.3,0.5,0.5,0.9,0.8,1.4
							c0.5,0.9,1,1.6,1.4,2.3c-0.4-1.2-0.8-2.3-1.3-3.5l-0.4-0.9L29,75.3l-0.1-0.3c-0.2-0.4-0.3-0.9-0.5-1.3
							c-0.7-1.7-1.5-3.5-2.4-5.2l-0.7-1.3l-0.2-0.3L25,66.7l-0.2-0.5c-0.3-0.6-0.6-1.2-0.9-1.8c-0.7-1.2-1.4-2.4-2.2-3.6
							c-0.5-0.9-0.9-1.7-1.5-2.5c-0.3-0.4-0.5-0.8-0.8-1.2l-0.4-0.6l-0.2-0.3l-0.1-0.2c-0.3-0.5-0.7-1-1.1-1.5
							c-0.2-0.2-0.4-0.5-0.6-0.7c-0.2-0.2-0.5-0.5-0.6-0.6c-0.4-0.5-1-0.8-1.7-0.9c-0.1,0-0.2,0-0.3,0l-0.2,0
							c-0.1,0-0.2,0.1-0.4,0.1c-0.3,0.1-0.5,0.3-0.8,0.5c-0.3,0.2-0.6,0.5-0.9,0.8c-0.3,0.3-0.5,0.7-0.8,1.1
							c-0.6,0.8-1.2,1.8-1.9,2.9c-0.8,1.3-1.5,2.3-2.4,3.6c-0.1,0.1-0.4,0.9-1.4,2.5C4.7,65.3,3.8,66.4,3.3,66.9z"/>
						<path class="st2" d="M9.1,113c-3.3,1.6-5.9-0.5-7.8-2.5c1.3,0.2,2.3,1.5,3.4,1.7l-0.1,0.2c0.7,0.1,0.9,1.4,1.9,0.1
							c0,0.2-0.2,0.3-0.3,0.5c1.1,0.5,2.3,0.1,3.6-1c1.6-2.4-0.9-0.3-0.3-2.3l1-0.6c-0.5-0.1-0.4-1.3-0.9-0.7l0.1-0.1
							c-1.1-2.5-4.4-1.7-6.9-1.2l-0.1,0.2l-1-0.3c3.5-0.2,8.8-2.4,9.3,3.1C11,111.2,10.2,112.5,9.1,113z"/>
						<path class="st2" d="M9.3,112.1c-0.5,0.2-0.1-0.1,0.1-0.3C9.4,111.8,9.3,112,9.3,112.1z"/>
						<path class="st2" d="M8.8,108.1l-0.6,0.8L8.8,108.1z"/>
						<polygon class="st2" points="2.3,109.6 2.6,109.4 2.5,109.5 						"/>
						<polygon class="st2" points="2.3,108.8 2.7,108.6 2.6,109 						"/>
						<path class="st2" d="M1.9,109.7l-0.7-0.3L1.9,109.7z"/>
						<path class="st2" d="M41.1,0.9l-0.3,0.8L41.1,0.9z"/>
						<path class="st2" d="M38.7,5.5L39,5.1L38.7,5.5z"/>
						<path class="st2" d="M39.8,4.1l0.3-0.8l-0.8,1.4C39.3,4.8,39.6,4.2,39.8,4.1z"/>
					</g>
				</g>
			</g>
		</g>
	</g>
</g>
</svg>
