<?xml version="1.0" encoding="utf-8"?>
<!-- Generator: Adobe Illustrator 19.1.0, SVG Export Plug-In . SVG Version: 6.00 Build 0)  -->
<svg version="1.0" id="Layer_1" xmlns="http://www.w3.org/2000/svg" xmlns:xlink="http://www.w3.org/1999/xlink" x="0px" y="0px"
	 viewBox="0 0 220.8 401.8" style="enable-background:new 0 0 220.8 401.8;" xml:space="preserve">
<style type="text/css">
	.st0{fill:#E1F4FD;}
	.st1{fill:#F2D8E0;}
	.st2{fill:#DFF0E3;}
	.st3{opacity:0.85;}
	.st4{opacity:0.3;fill:#FFFFFF;}
	.st5{opacity:0.3;fill:#F2D8E0;}
	.st6{fill:#FFFFFF;}
	.st7{opacity:0.3;fill:#DFF0E3;}
	.st8{opacity:0.4;fill:#FFFFFF;}
	.st9{opacity:0.3;fill:#E1F4FD;}
	.st10{fill:#F8DE8D;}
	.st11{fill:#BADAF3;}
	.st12{fill:#231F20;}
	.st13{fill:#010101;}
	.st14{fill:none;stroke:#010101;stroke-width:6.518;stroke-miterlimit:10;}
	.st15{fill:none;stroke:#FFFFFF;stroke-width:6.0438;stroke-miterlimit:10;}
	.st16{fill:#FAD6D7;}
	.st17{fill:#FFFEFE;}
	.st18{fill:#C2DE9F;}
	.st19{fill:#FCD6D6;}
	.st20{fill:#FEE777;}
	.st21{fill:#FAA958;}
	.st22{fill:#BADB93;}
	.st23{fill:#F9DE8C;}
	.st24{fill:#B0DAF4;}
	.st25{fill:#9C6026;}
	.st26{fill:#CB8F62;}
	.st27{fill:#714C1E;}
	.st28{fill:#9C9DCE;}
	.st29{fill:#FFC214;}
	.st30{fill:#DEE682;}
	.st31{fill:#F3DAB1;}
	.st32{fill:#F6B4C9;}
	.st33{fill:#FEC470;}
	.st34{fill:#FDC17E;}
	.st35{fill:#724F1F;}
	.st36{fill:#D22030;}
	.st37{fill:#00AFAC;}
	.st38{fill:#18A6DF;}
	.st39{fill:#FEDD10;}
	.st40{fill:#E74782;}
	.st41{fill:#FBD0D8;}
	.st42{fill:none;stroke:#000000;stroke-width:1.7659;stroke-miterlimit:10;}
	.st43{fill:#672F12;}
	.st44{fill:#F58C8E;}
	.st45{fill:#E8B674;}
	.st46{fill:#FFD89F;}
	.st47{fill:#FFEDB3;}
	.st48{fill:#5EB2E3;}
	.st49{fill:#7DB2E0;}
	.st50{fill:#F19C9D;}
	.st51{fill:#593712;}
	.st52{fill:none;stroke:#E7EFD6;stroke-width:0.4253;stroke-miterlimit:10;}
	.st53{fill:#D86464;}
	.st54{fill:#FEEBB1;}
	.st55{fill:#F8A95A;}
	.st56{fill:none;stroke:#010101;stroke-width:8.0507;stroke-linecap:round;stroke-linejoin:round;stroke-miterlimit:10;}
	.st57{fill:#95D4D1;}
	.st58{fill:#F6DD8C;}
	.st59{fill:#B0D9F4;}
	.st60{fill:#FFC118;}
</style>
<g>
	<g>
		<g>
			<g>
				<g class="st3">
					<g>
						<path class="st0" d="M23.7,295.2c0.1,0.9,0.4,1.3,0.6,2.2c0,0,0,0.1,0,0.4c0,0.2,0,0.5,0,0.8c0,0.6,0.2,1.1,0.2,1.1
							c0.1,0.4-0.1-0.6-0.4-1.8c-0.1-0.4-0.2-1.1-0.5-2c0-0.3-0.2-0.6,0-0.9c0.1-0.2,0.2-0.3,0.2-0.4l0.1-0.1c0,0,0.1-0.1,0-0.1
							c-0.1,0-0.1-0.1-0.2-0.1c0.1,0.2,0.3,0.3,0.3,0.5C24,294.9,23.9,295,23.7,295.2C23.7,295.1,23.7,295.2,23.7,295.2
							c-0.1,0.1-0.2,0.1-0.2,0.1c0,0,0,0,0,0C23.4,295.2,23.5,295,23.7,295.2z"/>
						<path class="st0" d="M0.9,4l0.8-0.1L2.1,7C0.5,7.7-1,5.1,0.9,4z"/>
						<path class="st0" d="M6.8,5.6c2.1-3,0,0-0.7,1l1.8,2.1l3.7-3.6l-1-1.3l1,1.3c1.5-1,0.1-3.2,0.3-4.6c-2.6-1.6-5.2,1.5-7.3,4
							L3.7,3.6c3.6-4.1,8.6-3.3,14.4-2.8c1.7,1.2,2.3,3.5,2.5,5.3C15.7,11.5,9.7,9.8,4.2,7.7L6.8,5.6z"/>
						<polygon class="st4" points="12.8,9.1 11.9,8.2 13.6,5.8 						"/>
						<path class="st0" d="M65.5,330.3c1.3,1.9,0.7,7.8,0,11.9c-0.8,0.4-1.4,4-2.2,4.4c0-0.9,0.5-7.7-0.7-5.5c0.8,2.3-0.7,5-1.4,5.4
							l0.8-2.3c-0.4-3.2-1.2-0.9-1.8-3.2l0.8-2.3l-0.9-3.2C61.6,333.3,63.4,328.3,65.5,330.3z"/>
						<path class="st0" d="M75,94c3-0.3,5.9-1.5,8.5-1.5c2.6,0,4.8,1.2,6.4,5.7c0.2,5.1-4.4,7.9-7.1,9c0,0-1.9-0.1-3.9-0.2
							c-1-0.1-1.9-0.1-2.7-0.2c-0.7,0-1.2-0.1-1.2-0.1l0.7-0.9l-2.7-4.7l0.7-0.9l-2.2-2.4C73.8,98,76.6,95.4,75,94z"/>
						<path class="st4" d="M82.9,96.3c-0.9-1.9-3-0.6-3.9-1.2c0.7-1.3,2.1-1.7,3.2-2.1c2.6,2,0.2,6.4,0.4,8.7
							c-2.1,2.6-5.9-0.8-7.3,0.9C80.3,101.1,76.6,95.4,82.9,96.3z"/>
						<path class="st9" d="M82.7,99.9c-0.7,0.4-1.4,0.8-1.1,1.8l-0.1,1.4l-1.6-0.1l0.1-1.4l1,0.1l-1.5-3.3L82.7,99.9z"/>
						<path class="st0" d="M72.1,333.2c0.2,0.9-0.4,3.6-0.6,5.4c-0.6,2-1,2.7-1.5,3c-0.4,0.2-0.9,0-1.4-0.1c0.7-1.8,0.8,0.5,1.7-3
							l0.1-4.6c-0.5,1.8-1.2,3.1-1.3,1.2C70.2,333,71.6,330.4,72.1,333.2z"/>
						<path class="st0" d="M112.7,62.3l1.1,3.4c0,0-1.3,0.6-2.5,1.2c-1.2,0.6-2.5,1.3-2.5,1.3c0.8-0.4,1.6-0.7,1.4-1.7l-0.9-1.5
							l-4,4.1c-0.5-2.4-2.5-1.3-3.6-1.8c0,0,0.7,0.1,1.3,0.2c0.7,0.1,1.3,0.2,1.3,0.2l0.2-1.8l1,1l2.5-4.3c0,0-2.3-0.3-4.6-0.6
							c-2.3-0.2-4.5-0.5-4.5-0.5C103.4,61.5,108.5,58.9,112.7,62.3z"/>
						<path class="st0" d="M107.1,372.9c7.3,0.1,2.6-2.3,5.2-3.3c1.2,0.2,0.6,0.8,0.3,1.4c-0.3,0.6-0.3,1.1,2.3,1.2
							c1.1-0.4,2.2-1,2.7-1.7c0.5-0.7,0.5-1.3-0.8-1.8l0-0.3c1.1,0.3,1.6,0.8,2,1.3c0.3,0.6,0.5,1.3,0.8,1.9
							c0.6,1.3,1.9,2.4,6.5,2.5c-0.1-0.8,3.5-1.9,5.4-1.2c0.7,2.7,7.6,3.3,9.1,6l2.2-1.4c1,1.1,1.2,2.4,1.2,3.8
							c0,1.4-0.2,2.8,0.1,4.2c7.7-2.2,1,4.6,7.9,3.9c-2.5,0.8-4.4,1.7-5.3,2.6c-0.9,0.9-0.8,1.7,0.8,2.3c-4.6,3.2-12.8,7.1-22.9,6.8
							c-2.8,0.8-4.3,0.6-6.1,0.1c-1.8-0.5-3.7-1-7.1-1.2l1.4-0.5c-2.3-0.2-4.6-1.4-6.9-0.5c-0.9-1.3-2.7-2.7-6.4-3.2
							c-4.6,0-9.1-1.5-7.7-2.7c-0.9-0.5-2.3-0.3-3.2-0.3c0-0.8-0.5-1.3-2.3-1.8c-3.3-2.9-3.7-6.3-12.2-8.4l1.9,0.8l3.6-0.7
							c0,0-2-0.5-3.9-0.9c-2-0.4-3.9-0.9-3.9-0.9c4.1,0,7.8,1.5,11.9,0.5c2.7-1.1-0.5-1.9-1.1-2.8c0,0,0.6,0.2,1.2,0.4
							c0.6,0.2,1.2,0.4,1.2,0.4c3.6-1.3-2.9-2.2,0.6-3.8c6.5,1,10-0.5,13.1-2.4c0,0-0.1-0.8-0.1-1.7c-0.1-0.8-0.2-1.6-0.2-1.6
							C98.3,371.6,101.6,373.1,107.1,372.9z"/>
						<path class="st0" d="M147.9,105.7c-1.2,0.1-1.6,1.5-1.9,2.8c0.5,3.4,3.2,3.3,5,4.8l2-2.7c-0.8-3.6-3.7,0.8-3.6-3.5
							c1.6-2.1,3.1-1.7,4.6-0.5c1.5,1.1,3,2.9,4.6,3.4c0,3.4-1.5,4.7-3.3,5c-1.8,0.3-4-0.4-5.3-1c-4.3,0.5-4.8-4.3-7.2-6.4
							C143.6,107.4,146.2,103.8,147.9,105.7z"/>
						<path class="st0" d="M196.3,144.7c2.8,4.2,2.8,11.7-0.1,13.7c-0.8,2.7-3.3,2.8-4.3,3.8c1.6,1.4,2.7,3.9,2.6,6.5
							c0,2.5-1.3,5.1-4.2,7.1c-1.9,0-3.5-0.2-5-0.6c-1.5-0.4-2.8-1-4-1.8c-2.3-1.6-4.2-3.7-5.8-6.2c-0.8-1.2-1.5-2.5-2.1-3.9
							c-0.7-1.3-1.2-2.6-1.8-3.9c-1.1-2.5-2.1-5-3-6.8c0,0,0.9-0.5,1.7-1c0.9-0.5,1.7-0.9,1.7-0.9s-0.5-0.9-1.1-1.8
							c-0.5-0.9-1.1-1.7-1.1-1.7c4.6-3.2,9.2-5.2,13.6-5.8c2.2-0.3,4.4-0.1,6.5,0.4C192.3,142.4,194.3,143.3,196.3,144.7z"/>
						<path class="st0" d="M158.5,208.8c0,0-0.3-0.2-0.5-0.3c-0.3-0.1-0.6-0.3-0.6-0.3c2,0,4.4-2.2,6.9-3.4c0-1.6,0.2-3-1.2-3.3
							l-0.9,0.5c1.3-1.3,3.9,2.3,5.5-3.1l-0.3-1.2c1.1,1.1,2.3,1.4,3.6,1.4c1.2,0,2.5-0.3,3.7-0.7c2.5-0.7,5.1-1.4,7,0.8
							c4.3-2.2,6.4-0.5,7.6,2.2c1.2,2.7,1.7,6,3.4,7.1c-2.5,2.7-1.5,5.4-2.4,8.2l-12.1,14.3c-2.7,0.2-5.7,2.3-9.5,4.6
							c0.2,1.9,0,4.3-0.6,6.8c-0.6,2.5-1.6,5-3.1,7.4c-2.8,4.5-5.3,6.1-7.7,7.3c-2.4,1.2-4.8,1.9-7.5,4.4c0.3-3.2-3-2.4-5.5-1.4
							l-1.8,1c3-2.9,3.1-4.5,2.4-5.7c-0.4-0.6-0.9-1.1-1.5-1.6c-0.5-0.5-1-1-1.2-1.6l-1.1-0.7c1.6-1.2,2.5,0,4.3-2.7l-2.7-1.7
							c0.7-0.1,1.3,0.3,2.8-0.9l0.9-3.2c0.4,0.8,1.6-0.6,2.4-1.2c0.9-1,0.7-2.3,0.9-3.2l2.6-1c0.4-3-0.6-4.2,2.4-7.7
							c0,0-0.2-0.3-0.5-0.7c-0.3-0.4-0.8-1-1.2-1.5c-0.9-1.1-1.9-2.1-1.9-2.1l2.5-1.2c0.3-1.9,0-3.2-1.2-3.4l-0.8,0.6l2.6-2.2
							c0,0-0.7-0.7-1.5-1.4c-0.8-0.7-1.6-1.3-1.6-1.3c1.1-1.5,3-1.9,4.6-2.7C157.3,212.9,158.7,211.8,158.5,208.8z"/>
						<path class="st0" d="M69.2,367.6l1.3-1.9c0.4-0.9,1-2.1,1.7-3.5c0.7-1.4,1.5-2.9,2.3-4.3c0.6-1.1,1.2-2.3,1.9-3.6
							c0.4-0.9,0.6-1.4,0.4-1.3c0-0.2-0.1-0.1-0.4,0.1c-0.3,0.2-0.7,0.6-1.1,1c-0.9,0.9-2.1,2.1-3.4,3.1c-3.8,4.3-6.5,7.6-8.8,10.8
							c-2.2,3.1-4.1,6.1-5.9,9.6c0.5-0.3,0.8-0.2,0.9,0.2c0.1,0.4,0,1.1-0.1,1.7c-0.1,0.7-0.1,1.4-0.1,1.9c0.1,0.5,0.1,0.9,0.5,0.9
							l-0.6,1.3c0,0,0.3-0.7,0.6-1.5c0.3-0.7,0.7-1.5,0.7-1.5s1.1-0.6,2.2-1.3c0.6-0.4,1.1-0.7,1.4-1c0.4-0.3,0.6-0.5,0.6-0.5
							C64.8,375.1,67.5,370.8,69.2,367.6z"/>
						<polygon class="st4" points="153.3,233.9 153.8,233.1 155.1,233.9 154.5,234.7 						"/>
						<path class="st0" d="M197,231.4c-0.7,0.6-1.7,0.9-2.2,1c1.9-0.7,3.5-4.9,0.6-3.9C197,228,199.3,229.1,197,231.4z"/>
						<path class="st0" d="M207.8,251.2l0.8-1.2c-0.5-0.6,3.7,1.2,5.5-1.7c1.2,0.2,2.1,0.5,2.6,1.1c0.5,0.5,0.7,1.3,0.7,2
							c0,1.6-0.8,3.5-1.5,5.2c-0.7,1.8-1.2,3.4-0.8,4.5c0.5,1.1,2,1.7,5.6,1.5c-0.9,1.6-1.3,3-1.4,4.2c-0.2,1.3-0.1,2.5-0.2,3.7
							c-0.2,2.3-0.9,4.6-5.1,7.4c-6.8,3.7-12.2,2.4-15.6,0.8l-4.4-2.9c1.7-0.8,1.9-2.2,1.2-2.5c0,0-0.3-0.5-0.6-0.9
							c-0.3-0.5-0.6-0.9-0.6-0.9c6.2-2.2,0.2-3.8,3-7.1l0.4,0.6c2.7-2.1,2.8-3.5,2.6-4.8c-0.2-1.3-0.6-2.6,1.2-4.8l0-2.4
							C203.6,250.9,205.5,251.9,207.8,251.2z"/>
						<path class="st0" d="M175.2,329c1-1.6,1.9,1.8,4.5-0.9c0.5,2,5.8,0.2,7,1.5l0.8-0.6c-1.2,2,1.7,1.9,4.3,2.3
							c2.5,0.3,4.7,1.1,2,4.4c3.3,0.5,2.2,1.9,0.6,3.3c-1.6,1.4-3.8,2.8-2.5,3.7c-3.7,2.2-6.7,3.5-9.8,4.3
							c-3.2,0.8-6.6,1.1-11.4,1.2c-3.8-0.3-4.4-0.4-5.1-0.7c-0.7-0.3-1.5-0.6-5.5-1.1l-3.4-0.7c3.5-1.1,1.5-1.3-0.5-1.5
							c-1.9-0.2-3.9-0.4-0.3-1.9c-0.7-1.2-3.6-1.3-3-2.9c1,0.2,2.3-0.1,3.2-0.3c2-1.3,0.5-2.2,0.7-3l3.2-0.5l1.7-2.5
							c0.6,0.4,1.9,0,3.2-0.3l0.5-1.5C170.4,328.8,171,332.7,175.2,329z"/>
						<polygon class="st4" points="169.8,339.5 168.2,336.8 169.5,338.3 						"/>
					</g>
				</g>
			</g>
		</g>
	</g>
</g>
</svg>
