<?xml version="1.0" encoding="utf-8"?>
<!-- Generator: Adobe Illustrator 19.1.0, SVG Export Plug-In . SVG Version: 6.00 Build 0)  -->
<svg version="1.0" id="Layer_1" xmlns="http://www.w3.org/2000/svg" xmlns:xlink="http://www.w3.org/1999/xlink" x="0px" y="0px"
	 viewBox="0 0 558.3 461.1" style="enable-background:new 0 0 558.3 461.1;" xml:space="preserve">
<style type="text/css">
	.st0{fill:#E1F4FD;}
	.st1{fill:#F2D8E0;}
	.st2{fill:#DFF0E3;}
	.st3{opacity:0.85;}
	.st4{opacity:0.3;fill:#FFFFFF;}
	.st5{opacity:0.3;fill:#F2D8E0;}
	.st6{fill:#FFFFFF;}
	.st7{opacity:0.3;fill:#DFF0E3;}
	.st8{opacity:0.4;fill:#FFFFFF;}
	.st9{opacity:0.3;fill:#E1F4FD;}
	.st10{fill:#F8DE8D;}
	.st11{fill:#BADAF3;}
	.st12{fill:#231F20;}
	.st13{fill:#010101;}
	.st14{fill:none;stroke:#010101;stroke-width:6.518;stroke-miterlimit:10;}
	.st15{fill:none;stroke:#FFFFFF;stroke-width:6.0438;stroke-miterlimit:10;}
	.st16{fill:#FAD6D7;}
	.st17{fill:#FFFEFE;}
	.st18{fill:#C2DE9F;}
	.st19{fill:#FCD6D6;}
	.st20{fill:#FEE777;}
	.st21{fill:#FAA958;}
	.st22{fill:#BADB93;}
	.st23{fill:#F9DE8C;}
	.st24{fill:#B0DAF4;}
	.st25{fill:#9C6026;}
	.st26{fill:#CB8F62;}
	.st27{fill:#714C1E;}
	.st28{fill:#9C9DCE;}
	.st29{fill:#FFC214;}
	.st30{fill:#DEE682;}
	.st31{fill:#F3DAB1;}
	.st32{fill:#F6B4C9;}
	.st33{fill:#FEC470;}
	.st34{fill:#FDC17E;}
	.st35{fill:#724F1F;}
	.st36{fill:#D22030;}
	.st37{fill:#00AFAC;}
	.st38{fill:#18A6DF;}
	.st39{fill:#FEDD10;}
	.st40{fill:#E74782;}
	.st41{fill:#FBD0D8;}
	.st42{fill:none;stroke:#000000;stroke-width:1.7659;stroke-miterlimit:10;}
	.st43{fill:#672F12;}
	.st44{fill:#F58C8E;}
	.st45{fill:#E8B674;}
	.st46{fill:#FFD89F;}
	.st47{fill:#FFEDB3;}
	.st48{fill:#5EB2E3;}
	.st49{fill:#7DB2E0;}
	.st50{fill:#F19C9D;}
	.st51{fill:#593712;}
	.st52{fill:none;stroke:#E7EFD6;stroke-width:0.4253;stroke-miterlimit:10;}
	.st53{fill:#D86464;}
	.st54{fill:#FEEBB1;}
	.st55{fill:#F8A95A;}
	.st56{fill:none;stroke:#010101;stroke-width:8.0507;stroke-linecap:round;stroke-linejoin:round;stroke-miterlimit:10;}
	.st57{fill:#95D4D1;}
	.st58{fill:#F6DD8C;}
	.st59{fill:#B0D9F4;}
	.st60{fill:#FFC118;}
</style>
<g>
	<g>
		<path class="st58" d="M425.4,386.8c9.9,14.2,18.2,32.6,34.3,30.7c12.1-1.4,31-14.9,35.8-25.7c8.2-17.3-4.3-18.9-19.2-15.1
			c-16.9,4-17.9,4.2-23.7-10.5"/>
		<g>
			<path class="st13" d="M423,388.3c6.9,10.1,13,23.5,24.3,29.6c11,6,23.3,0.4,32.8-6c9.4-6.3,20.5-16.3,21-28.7
				c0.4-10.5-10.5-11.8-18.6-10.6c-6.1,0.9-12.6,3.9-18.9,3.6c-5-0.3-6.6-6.9-8.1-10.7c-1.3-3.4-6.9-1.9-5.5,1.5
				c2.4,6.1,4.9,14.2,12.6,14.9c9.2,0.8,17.9-4.8,27.1-3.9c12.9,1.3,0.4,18-4.2,22.4c-7.4,7-20.1,16.4-31.1,14.2
				c-12.7-2.6-19.8-19.5-26.5-29.1C425.8,382.4,420.9,385.2,423,388.3L423,388.3z"/>
		</g>
	</g>
	<g>
		<path class="st58" d="M181.6,400.3c-2.3,6.4-2.7,20.8-7.3,24.4c-4.6,4.6-14.5-1.4-20.2,2.4c-16.1,11.1,2.9,24.2,14.5,27.9
			c34.3,13.3,48.2-15.9,50.9-44.9"/>
		<g>
			<path class="st13" d="M178.9,399.5c-1.9,5.9-2.1,12.2-3.9,18.1c-0.9,3.1-2,5.6-5.5,6.1c-3,0.4-6.2-0.7-9.2-0.7
				c-11.6-0.3-19.2,12.2-12.1,21.9c7.2,9.7,21.5,15.1,33.1,16.2c11.1,1,21.3-3.6,28.2-12.3c8.6-10.9,11.7-25.1,13.1-38.6
				c0.4-3.7-5.4-3.6-5.7,0c-1.9,18.8-9.6,45.9-33,45.3c-10.4-0.2-24.4-5.3-30.8-13.8c-3.8-5.1-1.2-12.1,5.5-13c5-0.6,10,1.9,14.9,0
				c9.7-3.9,8.3-19.3,11-27.6C185.5,397.5,180,396,178.9,399.5L178.9,399.5z"/>
		</g>
	</g>
	<path class="st58" d="M138.9,322.4c0.4-3.1-38.8-50-38.8-50s-7-44.3,0.1-75.8c4.5-20,28.7-74.7,28.7-74.7s-42.3-1.8-26.1-54.6
		c7.4-24.3,36.9-31.7,58-23.2c14.3,5.8,21.7,24.6,19.7,35.2c0,0,57.7-57.7,145.3-47c51.4,6.3,58.5,13.7,58.5,13.7
		s-0.2-43.7,48.1-43.3c34.8,0.3,42.7,31.4,42.1,43.6c-2.1,45.7-33.1,42.6-33.1,42.6s29.1,26.7,36.4,54c7.3,27.4,15.3,64.4,16.1,74
		c1.8,21.4-0.2,35.4-0.2,35.4L318.5,342L138.9,322.4z"/>
	<path class="st59" d="M99.8,271.4c0,0,39.1,10.4,105.6,18.8C275.7,299,378,279.5,430.9,259c54.4-21.1,65.3-32,65.3-32
		s20.7,66.7-39.1,132c-34.3,37.5-122.3,62-164.5,58.6C224.3,412.2,115.8,407.4,99.8,271.4z"/>
	<path class="st60" d="M502.4,263.3c3,2.2,34.7,56.4,21,87.4c-9.2,20.8-43.2,21.7-47,11.4c-3.8-10.3-8.6-19.7-8.6-19.7
		S359,327.5,291.2,310.1c-57.7-14.8-156.7-70.6-167.6-78.7c-12.3-9.2-26.3-13.8-26.3-13.8c0.6-1.9-9.7-27.4,12.5-13
		c3.8,2.5,38.3,24.4,49,28.9c32.4,13.6,64.5,41.9,126,61.2c68.6,21.6,167.1,29.4,167.1,29.4l30.6,2.6l10.8-23.5c0.9-2,1.6-4,2-6.2
		L502.4,263.3z"/>
	<g>
		<g>
			<g>
				<path class="st13" d="M230.2,83.5c3.2,6.8,8.2,13.2,13.7,18.3c4.7,4.4,11.8,10,18.8,8.5c14.2-2.9,9.2-24.8,4.9-33.6
					c-1.6,1-3.3,1.9-4.9,2.9c6.6,9.4,19.4,22.8,32.5,18.2c12.3-4.3,6.6-19,1.1-26.3c-2.2-2.9-7.1-0.2-4.9,2.9
					c4.2,6.1,10.6,10.8,16.7,14.8c6.1,3.9,14.6,8.6,22.1,6.8c7.6-1.8,9.4-10.3,6.6-16.7c-3.4-8-11.2-14.5-18.8-18.4
					c-3.3-1.7-6.1,3.2-2.9,4.9c5.8,3,11.4,7.5,15,13c3.5,5.5,2.9,12.9-5,11.6c-6-0.9-11.7-4.5-16.6-7.9c-4.4-3-9.1-6.6-12.2-11.1
					c-1.6,1-3.3,1.9-4.9,2.9c3.2,4.3,10.3,16.3,0.9,18.3c-10,2.2-19.7-9-24.7-16c-2.1-3-6.6-0.4-4.9,2.9c2.6,5.3,8.3,27.4-3.8,24.9
					c-5.6-1.2-10.4-6-14.1-10c-3.8-4.1-7.2-8.8-9.6-13.9C233.6,77.2,228.7,80.1,230.2,83.5L230.2,83.5z"/>
			</g>
		</g>
		<g>
			<path class="st6" d="M282.1,147.9c-35.6,5-65.7,18.1-73.3,48c-7.5,29.8,17,53,49.3,56.3c42.1,4.4,149.3-19.2,112.1-81
				C357,149,309.7,145.3,282.1,147.9"/>
			<g>
				<path class="st13" d="M281.4,145.1c-33.4,4.8-76.6,20.7-76.7,61.3c0,16.8,10.3,31.2,24.4,39.5c13.3,7.8,28.7,10,43.9,9.6
					c26.4-0.7,54.4-6.5,77.7-19.2c10.3-5.6,20.5-13.3,26.1-24c5.4-10.5,5.1-22.3,0.8-33.2c-3-7.4-7-14-13.4-18.8
					c-6.9-5.3-15.2-8.6-23.6-10.9c-18.8-5.2-39.1-6.1-58.4-4.4c-3.6,0.3-3.7,6,0,5.7c15.5-1.4,31.4-0.9,46.7,1.9
					c13.5,2.5,30.4,7,38.5,19.2c6.2,9.4,9.9,21.5,6.5,32.5c-3,9.8-10.9,17.4-19.3,22.9c-20.3,13.4-46,19.5-69.9,21.7
					c-26.3,2.5-61.6-1.2-72.1-30.2c-6.3-17.2,1.8-36.4,15.2-47.8c15.2-12.9,35.9-17.7,55.1-20.4C286.5,150.1,285,144.6,281.4,145.1
					L281.4,145.1z"/>
			</g>
		</g>
		<g>
			<path class="st16" d="M286.1,181.4c-9.2,0.1-19.8-7.9-20.6-14.9c-0.8-6.5,33.4-11.3,37.2-5.2C306.5,167.4,295.3,179,286.1,181.4"
				/>
			<g>
				<path class="st13" d="M286.1,178.5c-5.3-0.2-10.4-2.6-14.1-6.3c-1.5-1.5-4.4-4.5-3-6.3c1.2-1.6,5.1-2.2,6.9-2.7
					c3.1-0.8,6.3-1.3,9.5-1.7c3-0.3,12.4-1.8,14.7,1c2,2.4-1.8,6.9-3.3,8.6c-3.1,3.4-7.1,6.1-11.5,7.4c-3.5,1-2,6.5,1.5,5.5
					c8-2.4,22.7-12.6,19-22.9c-2.7-7.5-15.5-5.9-21.4-5.3c-5.8,0.6-18.6,1.7-21.3,8.2c-1.8,4.2,2.1,9.3,4.9,12.1
					c4.8,4.8,11.4,7.7,18.2,7.9C289.8,184.4,289.8,178.7,286.1,178.5L286.1,178.5z"/>
			</g>
		</g>
		<g>
			<g>
				<path class="st13" d="M247.1,201.5c-0.8,14.3,15,18.6,26.5,15.7c17.4-4.3,18.2-21.7,15.3-36.5c-0.6-3.1-5.9-2.5-5.6,0.8
					c1.2,14.9,9.1,32.5,26.8,30.8c13-1.2,22.2-13,19.4-25.9c-0.8-3.6-6.3-2.1-5.5,1.5c2,9.5-5.1,18-14.6,18.7
					c-14,1.1-19.4-13.8-20.4-25.2c-1.9,0.3-3.7,0.5-5.6,0.8c2.2,11.2,2.9,25.3-10.3,29.2c-8,2.4-20.9,0.9-20.3-9.9
					C253,197.8,247.3,197.8,247.1,201.5L247.1,201.5z"/>
			</g>
		</g>
		<g>
			<g>
				<path class="st13" d="M266.7,216.1c0.4,7.6,0.8,15.2,1.2,22.9c0.1,1.4,1.3,3,2.9,2.9c15.4-1.8,30.8-3.6,46.1-5.4
					c1.8-0.2,3.3-1.7,2.8-3.6c-2.1-8.1-4.3-16.1-6.4-24.2c-0.9-3.5-6.5-2-5.5,1.5c2.1,8.1,4.3,16.1,6.4,24.2
					c0.9-1.2,1.8-2.4,2.8-3.6c-15.4,1.8-30.8,3.6-46.1,5.4c1,1,1.9,1.9,2.9,2.9c-0.4-7.6-0.8-15.2-1.2-22.9
					C272.2,212.4,266.5,212.4,266.7,216.1L266.7,216.1z"/>
			</g>
		</g>
		<g>
			<g>
				<path class="st13" d="M287.6,213.6c0.8,7.6,1.6,15.1,2.4,22.7c0.4,3.6,6.1,3.7,5.7,0c-0.8-7.6-1.6-15.1-2.4-22.7
					C293,210,287.3,209.9,287.6,213.6L287.6,213.6z"/>
			</g>
		</g>
		<g>
			<g>
				<path class="st13" d="M128.8,119.1c-21.3-2.2-31.6-22.9-26.5-42.5c6.3-24,35.5-39,58.7-29.3c12.6,5.3,20.4,17.7,16.8,31.3
					c-1,3.6,4.6,5.1,5.5,1.5c3.5-13-1.5-25.9-12.3-33.8c-12.7-9.2-29.9-9.5-44.1-3.8c-23.7,9.5-38.8,36.2-28.4,60.9
					c5.4,12.7,16.8,20,30.3,21.4C132.5,125.2,132.5,119.5,128.8,119.1L128.8,119.1z"/>
			</g>
		</g>
		<g>
			<path class="st6" d="M132.3,95.2c-13-5.9-5.5-35.2,15.4-25.2C168.1,79.8,149.2,103.7,132.3,95.2"/>
			<g>
				<path class="st13" d="M133.8,92.8c-4.9-2.5-5.8-8.5-4.4-13.4c1.8-6,6.9-9.6,13.2-8.2c7.1,1.6,13.8,7.7,9.9,15.3
					C149,93.2,140.5,95.9,133.8,92.8c-3.3-1.5-6.2,3.4-2.9,4.9c9.6,4.5,21.3,1.2,26.5-8.4c5.4-10-1.4-19.6-11.2-23
					c-9-3.2-18.1,0.6-21.7,9.6c-3.1,7.6-1.6,17.8,6.3,21.8C134.1,99.4,137,94.4,133.8,92.8L133.8,92.8z"/>
			</g>
		</g>
		<g>
			<g>
				<path class="st13" d="M388.6,48.7c-2.3-13.3,4.8-25.5,15-33.5c9.1-7.2,18.4-10,29.8-9.4c12.7,0.7,21.5,5.2,28.7,16
					c7.2,10.7,11,25.8,8.7,38.6C468,75.7,457,86.2,441.4,86.2c-3.7,0-3.7,5.7,0,5.7c14.9,0,26.4-7.8,32.2-21.6
					c5.9-14,3.9-32-2.9-45.4c-6.5-12.8-16.7-22.4-31.2-24.3c-13.5-1.7-25.3,0-36.6,8c-13.7,9.6-22.8,24.6-19.9,41.7
					C383.7,53.8,389.2,52.3,388.6,48.7L388.6,48.7z"/>
			</g>
		</g>
		<g>
			<path class="st6" d="M420.1,60.5c-19.8-22.6,12.6-36.5,21.5-21.2C453.4,60.4,432.9,74.3,420.1,60.5"/>
			<g>
				<path class="st13" d="M422.2,58.5c-4.4-5.2-8.2-13.1-2.5-18.8c3.9-3.9,10.8-5.3,15.7-2.6c6.6,3.6,8.9,15,5.1,21.2
					C436,65.4,427.3,63.8,422.2,58.5c-2.6-2.6-6.6,1.4-4,4c5.6,5.8,14.1,8.5,21.4,4.3c7.7-4.4,9.7-13.8,7.5-21.8
					c-2.1-7.8-7.1-14-15.5-14.9c-6.6-0.7-13.8,2.2-17.7,7.6c-5.9,8.2-1.6,17.9,4.3,24.8C420.5,65.3,424.5,61.3,422.2,58.5
					L422.2,58.5z"/>
			</g>
		</g>
		<g>
			<g>
				<path class="st13" d="M183.8,77.7c6.2-7.7,15-13.3,23.5-18.2c12.4-7.2,25.7-13,39.3-17.5c30.5-10.1,62.8-13,94.3-6.4
					c15.2,3.2,30.1,8.4,43.5,16.3c3.2,1.9,6-3.1,2.9-4.9C333,14.9,263.1,22.9,209.4,51.8c-10.6,5.7-22.1,12.4-29.7,21.9
					C177.4,76.5,181.4,80.6,183.8,77.7L183.8,77.7z"/>
			</g>
		</g>
		<g>
			<g>
				<path class="st13" d="M126.4,120.5c-16,23.7-22.6,51-27,79c-0.6,3.6,4.9,5.1,5.5,1.5c4.3-27.5,10.7-54.3,26.4-77.6
					C133.4,120.4,128.4,117.5,126.4,120.5L126.4,120.5z"/>
			</g>
		</g>
		<g>
			<g>
				<path class="st13" d="M439.4,91.1c10.1,11.9,19.6,23.2,26.1,37.6c8.1,17.8,14.8,36.3,17.3,55.7c0.4,3.6,6.2,3.6,5.7,0
					c-2.5-20-9.2-38.8-17.4-57.2c-6.9-15.4-16.8-27.4-27.7-40.2C441,84.2,437,88.3,439.4,91.1L439.4,91.1z"/>
			</g>
		</g>
		<g>
			<g>
				<path class="st13" d="M472,345.9c8-11.4,15.7-22.9,21.1-35.8c6.8-16.1,9.6-33.3,10-50.7c-1.6,0.7-3.3,1.3-4.9,2
					c13.7,14.2,21.9,35.8,25.6,54.8c1.8,9.4,2.8,20.2-1,29.2c-4.6,10.9-18.4,15.7-29.4,16.6c-4.9,0.4-11.8,0.6-16-2.6
					c-4.2-3.2-4.6-10.3-5.2-15.1c-0.4-3.6-6.2-3.6-5.7,0c1.3,10.6,3.4,20.5,15.3,22.8c12.8,2.5,28-1.1,38.3-9.2
					c19.5-15.4,9.5-48.6,1.8-67.6c-4.8-11.8-10.8-23.8-19.7-33.1c-1.8-1.8-4.8-0.4-4.9,2c-0.5,17.2-3.3,34.3-10.3,50.2
					c-5.3,12-12.6,22.8-20.1,33.4C465,346,469.9,348.9,472,345.9L472,345.9z"/>
			</g>
		</g>
		<g>
			<g>
				<path class="st13" d="M276.9,294.2c62.5-3.6,124.4-18.4,181.9-43.3c10.9-4.7,22.9-9.5,32.2-17c2.8-2.3-1.2-6.3-4-4
					c-7.7,6.3-17.8,10.3-26.8,14.3c-14.7,6.6-29.7,12.3-44.9,17.4c-26.5,8.9-53.7,15.8-81.2,20.5c-18.9,3.2-38,5.4-57.2,6.4
					C273.2,288.7,273.2,294.4,276.9,294.2L276.9,294.2z"/>
			</g>
		</g>
		<g>
			<g>
				<path class="st13" d="M98.3,273.8c4.9,3.6,11.7,5.1,17.5,6.5c9.9,2.4,20,4.2,30.1,5.7c22.7,3.5,45.5,5.9,68.3,7.7
					c8.6,0.7,17.3,1.3,25.9,1.3c3.7,0,3.7-5.7,0-5.7c-17.4,0.1-35-1.9-52.3-3.7c-22-2.3-44.2-4.9-65.8-9.7c-6.8-1.5-15.1-2.8-20.9-7
					C98.2,266.7,95.4,271.7,98.3,273.8L98.3,273.8z"/>
			</g>
		</g>
		<g>
			<g>
				<path class="st13" d="M97.3,274.8c2.8,32.3,14.4,63.8,34.1,89.7c7.6,10,16.2,18.7,27,25.4c12.5,7.8,26.3,13.4,40.2,18
					c28.6,9.5,57.8,13.8,88,12.8c33-1,66.1-7,97.4-17.5c33.5-11.3,66.7-28.3,88-57.3c2.2-3-2.8-5.8-4.9-2.9
					c-18.7,25.4-47.4,41-76.5,51.8c-29.5,11-60.8,17.5-92.2,19.6c-28.6,2-56.6-0.1-84.2-7.8c-25.9-7.1-53.7-17.2-71.9-37.9
					c-22.8-25.9-36.2-59.8-39.2-94C102.7,271.2,97,271.1,97.3,274.8L97.3,274.8z"/>
			</g>
		</g>
		<g>
			<g>
				<path class="st13" d="M503.2,259.4c0.1-11.3,0.3-23.4-4.6-33.8c-1.6-3.3-6.5-0.4-4.9,2.9c4.4,9.4,3.9,20.8,3.8,31
					C497.5,263.1,503.2,263.1,503.2,259.4L503.2,259.4z"/>
			</g>
		</g>
		<g>
			<g>
				<path class="st13" d="M99.3,214.5c0-4.4-5.8-11.4,0.3-14.3c3.6-1.7,0.3-3.7-2.3-2.4c-3.1,1.5-6.6,4.6-6.3,8.4
					c0.3,3.4,2.5,6.5,2.6,9.9C93.6,217.9,99.3,216.8,99.3,214.5L99.3,214.5z"/>
			</g>
		</g>
		<g>
			<g>
				<path class="st13" d="M99.8,201.7c35.2,19.7,69.1,41.6,104.5,60.8c16.4,8.9,33.2,17.2,50.6,24.1c16.9,6.8,34.2,11.4,51.9,15.7
					c17.6,4.2,35,9.3,52.8,12.6c1.9,0.4,6.8-2.6,3.5-3.2c-15.6-2.9-30.8-7.1-46.1-11c-17.8-4.5-35.4-8.5-52.7-15.1
					c-35.6-13.6-68.6-32.9-101.2-52.4c-19.5-11.6-38.9-23.3-58.7-34.4C102.7,197.9,97.4,200.3,99.8,201.7L99.8,201.7z"/>
			</g>
		</g>
		<g>
			<g>
				<path class="st13" d="M360.4,315.5c19,4.1,38.1,7.9,57.5,10.1c19.5,2.2,39.1,3.1,58.7,4c2.9,0.1,5.8-4.1,2-4.3
					c-19.6-1-39.2-1.8-58.7-4c-19.3-2.2-38.4-6-57.5-10.1C359.5,310.6,356.6,314.7,360.4,315.5L360.4,315.5z"/>
			</g>
		</g>
		<g>
			<g>
				<path class="st13" d="M94.6,216.5c28.8,16.3,57.3,33,86.4,48.8c29.2,16,59.1,30.8,91,40.5c1.7,0.5,6.8-2,4.6-2.7
					c-31.9-9.6-61.8-24.5-91-40.5c-29-15.9-57.6-32.5-86.4-48.8C97.7,213,92.4,215.3,94.6,216.5L94.6,216.5z"/>
			</g>
		</g>
		<g>
			<g>
				<path class="st13" d="M272,305.8c28.5,10.8,59.3,15.8,89.1,21.6c28.8,5.6,57.5,11.4,86.7,14.6c7.2,0.8,14.5,0.8,21.7,1.4
					c1.7,0.1,6.7-2.7,3.6-2.9c-6-0.5-14.7-1-19.8-1.2c-12.9-0.7-26.1-3.2-38.8-5.3c-28.5-4.7-57-10.5-85.2-16.5
					c-17.7-3.8-35.6-7.8-52.5-14.2C275,302.6,269.8,305,272,305.8L272,305.8z"/>
			</g>
		</g>
	</g>
	<g>
		<path class="st58" d="M482.2,192c4.3-15.8,55.9-79.6,70.1-62.2c16.7,20.5-34.7,81-63.4,102.1"/>
		<g>
			<path class="st13" d="M484.9,192.7c1.3-4.7,4.3-9,6.9-13c4-6.1,8.4-11.8,13-17.4c9.2-11,19.6-22.8,32.2-29.8
				c3.2-1.8,8.3-4.4,11.9-2.1c4,2.7,4.1,9.1,3.5,13.3c-2.4,16.1-13.8,31.4-23.6,43.9c-12,15.3-25.7,30.1-41.3,41.7
				c-2.9,2.2-0.1,7.1,2.9,4.9c15.6-11.5,29.3-25.9,41.3-41c10.9-13.7,23.3-30.1,26.3-47.9c1.8-10.7-3.1-24-16.1-20.9
				c-6.2,1.5-11.7,5.5-16.6,9.4c-6.8,5.4-13,11.6-18.8,18c-6.3,7-12.2,14.4-17.5,22.1c-3.6,5.3-7.7,11-9.5,17.3
				C478.4,194.8,483.9,196.3,484.9,192.7L484.9,192.7z"/>
		</g>
	</g>
	<g>
		<path class="st58" d="M100.8,219.1c-7.1,2.2-121.6,47.6-93.4,74.6c17.7,17.2,75.3-21.4,97.4-28.3"/>
		<g>
			<path class="st13" d="M100,216.3c-10.7,3.4-21.2,8.5-31.3,13.2c-16.6,7.8-33.3,16.3-48.1,27.3c-8.9,6.6-23.2,17.8-20.2,30.8
				c4.2,17.7,26.9,13.7,39.4,9.7c12.2-4,23.9-9.6,35.4-15.2c9.9-4.8,19.7-10.5,30.3-13.9c3.5-1.1,2-6.6-1.5-5.5
				c-18.1,5.8-34.6,16.6-52.1,24c-10.5,4.5-37.6,17-45.1,1.6c-5.1-10.4,10.3-21.7,17.1-26.7c13.7-10.2,29.1-18.1,44.5-25.5
				c10.8-5.1,21.8-10.5,33.2-14.2C105,220.7,103.5,215.2,100,216.3L100,216.3z"/>
		</g>
	</g>
	<g>
		<g>
			<path class="st13" d="M184.1,163.3c-1.7-7.3,1.2-15.2,9.5-16.2c8.8-1.1,13.9,6.5,15.3,14.2c0.7,3.6,6.2,2.1,5.5-1.5
				c-1.9-10.8-10.5-20.2-22.3-18.2c-11.3,1.9-15.8,12.9-13.5,23.3C179.4,168.4,184.9,166.9,184.1,163.3L184.1,163.3z"/>
		</g>
	</g>
	<g>
		<g>
			<path class="st13" d="M367.8,142.7c-1.8-8.8,1.9-17.8,11.9-18c10.1-0.2,15.8,8.6,16.1,17.9c0.1,3.7,5.8,3.7,5.7,0
				c-0.4-12.6-9-24.2-22.5-23.6c-13.6,0.7-19.2,13.1-16.7,25.2C363,147.8,368.5,146.3,367.8,142.7L367.8,142.7z"/>
		</g>
	</g>
</g>
</svg>
