<?xml version="1.0" encoding="utf-8"?>
<!-- Generator: Adobe Illustrator 19.1.0, SVG Export Plug-In . SVG Version: 6.00 Build 0)  -->
<svg version="1.0" id="Layer_1" xmlns="http://www.w3.org/2000/svg" xmlns:xlink="http://www.w3.org/1999/xlink" x="0px" y="0px"
	 viewBox="0 0 229 713.5" style="enable-background:new 0 0 229 713.5;" xml:space="preserve">
<style type="text/css">
	.st0{fill:#E1F4FD;}
	.st1{fill:#F2D8E0;}
	.st2{fill:#DFF0E3;}
	.st3{opacity:0.85;}
	.st4{opacity:0.3;fill:#FFFFFF;}
	.st5{opacity:0.3;fill:#F2D8E0;}
	.st6{fill:#FFFFFF;}
	.st7{opacity:0.3;fill:#DFF0E3;}
	.st8{opacity:0.4;fill:#FFFFFF;}
	.st9{opacity:0.3;fill:#E1F4FD;}
	.st10{fill:#F8DE8D;}
	.st11{fill:#BADAF3;}
	.st12{fill:#231F20;}
	.st13{fill:#010101;}
	.st14{fill:none;stroke:#010101;stroke-width:6.518;stroke-miterlimit:10;}
	.st15{fill:none;stroke:#FFFFFF;stroke-width:6.0438;stroke-miterlimit:10;}
	.st16{fill:#FAD6D7;}
	.st17{fill:#FFFEFE;}
	.st18{fill:#C2DE9F;}
	.st19{fill:#FCD6D6;}
	.st20{fill:#FEE777;}
	.st21{fill:#FAA958;}
	.st22{fill:#BADB93;}
	.st23{fill:#F9DE8C;}
	.st24{fill:#B0DAF4;}
	.st25{fill:#9C6026;}
	.st26{fill:#CB8F62;}
	.st27{fill:#714C1E;}
	.st28{fill:#9C9DCE;}
	.st29{fill:#FFC214;}
	.st30{fill:#DEE682;}
	.st31{fill:#F3DAB1;}
	.st32{fill:#F6B4C9;}
	.st33{fill:#FEC470;}
	.st34{fill:#FDC17E;}
	.st35{fill:#724F1F;}
	.st36{fill:#D22030;}
	.st37{fill:#00AFAC;}
	.st38{fill:#18A6DF;}
	.st39{fill:#FEDD10;}
	.st40{fill:#E74782;}
	.st41{fill:#FBD0D8;}
	.st42{fill:none;stroke:#000000;stroke-width:1.7659;stroke-miterlimit:10;}
	.st43{fill:#672F12;}
	.st44{fill:#F58C8E;}
	.st45{fill:#E8B674;}
	.st46{fill:#FFD89F;}
	.st47{fill:#FFEDB3;}
	.st48{fill:#5EB2E3;}
	.st49{fill:#7DB2E0;}
	.st50{fill:#F19C9D;}
	.st51{fill:#593712;}
	.st52{fill:none;stroke:#E7EFD6;stroke-width:0.4253;stroke-miterlimit:10;}
	.st53{fill:#D86464;}
	.st54{fill:#FEEBB1;}
	.st55{fill:#F8A95A;}
	.st56{fill:none;stroke:#010101;stroke-width:8.0507;stroke-linecap:round;stroke-linejoin:round;stroke-miterlimit:10;}
	.st57{fill:#95D4D1;}
	.st58{fill:#F6DD8C;}
	.st59{fill:#B0D9F4;}
	.st60{fill:#FFC118;}
</style>
<g>
	<g>
		<g>
			<g>
				<path class="st28" d="M148.8,50c8.3,2.8,16,5.8,24.8,6c7,0.2,8.7-9,3.4-12.5c-9.5-6.3-20.8-11-32.4-9.2
					c-8.8,1.4-16.1,6.7-21.2,13.9c-10.4,14.8-12,36.6-6.6,53.5c6,19,22.8,31.4,42.9,24.1c20.8-7.6,27.2-30.7,23.9-50.8
					c-2.8-17.1-15-38.2-35.2-34.5c-9.6,1.7-19.2,9.3-24.9,17.1c-4.9,6.6-6.8,15.1-4.5,23.1c4.5,15.5,21.2,25.5,36.6,26.7
					c8.1,0.7,16.3-1.7,22.6-6.9c7.5-6.4,10.6-16.1,11.5-25.7c1.1-12-0.5-27.1-8.5-36.6c-6.6-7.9-16.5-6.9-23.9-0.8
					c-8.4,6.8-13.5,17.5-17.2,27.4c-4.3,11.6-6.8,24.5-5.6,36.9c0.6,6.1,2,11.8,4.7,17.3c1.7,3.5,6.1,3.8,9.2,2.4
					c30-14,30.7-62.9,13.9-87c-2.6-3.7-7.1-4.4-10.6-1.4c-13,11.6-16.9,30.9-18.4,47.4c-1.5,16.8-0.7,35.3,5.2,51.3
					c1.3,3.6,6.1,6.8,9.9,4c13.6-10.1,18.8-26.9,20.8-43.1c2-16.6,0.5-34.5-6.9-49.7c-2.2-4.6-9.3-4.2-11.6,0
					c-7.1,12.8-10.2,27.5-11.3,41.9c-1.2,14.6-0.2,30.1,4.9,44c2.3,6.4,10.6,6.3,13,0c9.2-25,15.7-58.3,2.2-83
					c-2.3-4.2-9.4-4.6-11.6,0c-12.6,25.8-14,63.1,2.9,87.5c3,4.4,8.6,4.3,11.6,0c10.8-15,8.7-35.3-3.9-48.5
					c-3.4-3.6-10.1-1.9-11.2,3c-5.6,23-7.3,51.5,10.4,69.9c6,6.3,15.5-3.3,9.5-9.5c-14.1-14.6-11.3-38.9-6.9-56.9
					c-3.7,1-7.5,2-11.2,3c8.7,9.1,9.1,22.1,1.8,32.2c3.9,0,7.7,0,11.6,0c-14.1-20.3-13.5-52.2-2.9-73.9c-3.9,0-7.7,0-11.6,0
					c5.8,10.6,6.1,23.4,5.1,35.2c-1.1,12.8-4.3,25.4-8.7,37.4c4.3,0,8.6,0,13,0c-4.5-12.4-5.4-25.8-4.5-38.9
					c0.8-12.5,3.4-25.6,9.6-36.6c-3.9,0-7.7,0-11.6,0c5.9,12.2,6.6,27.1,5.3,40.3c-1.1,11.5-4.6,26.7-14.5,34c3.3,1.3,6.6,2.7,9.9,4
					c-5.2-14.2-6-30.2-4.9-45.2c1-13.8,3.8-30.8,14.7-40.5c-3.5-0.5-7-0.9-10.6-1.4c12.8,18.4,14.4,57.6-9.1,68.6
					c3.1,0.8,6.1,1.6,9.2,2.4c-7.9-16.5-1.1-39.9,7.5-54.8c2-3.5,3.8-6.2,6.6-8.8c1.5-1.5,1-1.1,2.9-2.2c1.4-0.9-0.4,0.1,0.6-0.4
					c0.2-0.1,0.7-0.2,1-0.3c1.6-0.2-1,0.1-0.1,0c1.6-0.2-0.7-0.3,0.4,0c0.6,0.2-0.5-0.6,0.7,0.4c-1.2-0.9,0.5,0.5,0.8,0.8
					c0.5,0.5,0.3,0.3,1,1.4c2.4,4.1,3.7,9,4.1,13.7c0.8,8.2,0.6,17.6-3.2,24c-0.4,0.7-0.9,1.5-1.4,2.1c0.7-0.9-0.4,0.5-0.7,0.8
					c-0.5,0.6-1.1,1.1-1.7,1.6c-1.1,1,0.3-0.1-0.9,0.7c-0.6,0.4-1.3,0.8-1.9,1.1c-1.3,0.7,0.4-0.1-0.7,0.3c-1.4,0.5-2.8,0.9-4.3,1.2
					c-1,0.2,0.8,0-1,0.1c-0.7,0-1.3,0.1-2,0.1c-0.7,0-1.3,0-2-0.1c-1.1,0-1.9-0.2-1.4-0.1c-1.5-0.2-2.9-0.6-4.3-1
					c-0.7-0.2-1.3-0.4-2-0.6c-0.3-0.1-2.7-1.1-1.5-0.5c-2.5-1.1-6-3.2-7.5-4.4c-0.1-0.1-2-1.8-2.8-2.6c-0.5-0.5-0.9-1-1.3-1.5
					c-1-1.1,0.2,0.5-0.8-1.1c-2.1-3.1-2-3-2.9-6.2c-0.1-0.4-0.3-2.5-0.2-0.8c0-0.6-0.1-1.2-0.1-1.8c0-0.6,0-1.2,0.1-1.9
					c-0.2,1.6,0.2-0.7,0.3-1.2c0.7-2.1,2-4.7,3.7-6.6c2.7-2.9,5.8-5.4,9.2-7.5c1.4-0.9,3.3-1.8,4-2.1c0.7-0.2,1.5-0.4,2.2-0.6
					c1.5-0.3-0.2-0.1,1.6-0.1c2.3,0,3.7,0.5,6.1,1.8c1.4,0.8,0.3,0.1,1.1,0.7c0.6,0.5,1.1,1,1.6,1.5c1.6,1.6,1.8,1.8,2.7,3.2
					c2.1,3.2,3.4,5.9,4.4,9c4.5,13.3,4.1,30.6-6.8,39.8c-2.2,1.8-5.4,3.4-8.7,4.3c-3.8,1-7.1,1-9.6,0.3c-2.2-0.6-4.8-2.1-6.2-3.4
					c-2.5-2.4-3.3-3.5-5.2-6.9c-6-11.3-6.2-27.3-1.6-40.1c1.8-5.2,5.6-11.1,9.8-13.7c5.3-3.2,10.6-3.5,17.5-1.3
					c4.5,1.4,8.5,3.8,12.4,6.4c1.1-4.2,2.3-8.4,3.4-12.5c-7.5-0.2-14.3-3.1-21.3-5.5C144.2,34.3,140.6,47.2,148.8,50L148.8,50z"/>
			</g>
		</g>
		<g>
			<g>
				<path class="st28" d="M111.7,38.2c-5.8,5.8-11.6,11.5-17.9,16.7c3.5,2.7,7,5.4,10.6,8.1c3-6.7,3.2-13.7,4.5-20.8
					c1.3-6.9-8.8-12.6-12.3-5.2c-24.8,52.3,11.7,111.3,53.6,142.4c7,5.2,13.7-6.5,6.8-11.6c-35.5-26.3-70.1-79.1-48.8-124
					c-4.1-1.7-8.2-3.5-12.3-5.2c-1,5.6-0.8,12.3-3.2,17.6c-3.1,7,4.5,13.1,10.6,8.1c6.3-5.2,12.2-10.9,17.9-16.7
					C127.3,41.6,117.8,32.1,111.7,38.2L111.7,38.2z"/>
			</g>
		</g>
		<g>
			<g>
				<path class="st28" d="M117.3,43.2c0.3-0.4,0.6-0.7,0.8-1c-3.7-2.2-7.5-4.4-11.2-6.5c0.5-2.3-0.3-0.2-1,0.6
					c3.7,2.2,7.5,4.4,11.2,6.5c0.8-3.8,2.1-6.8,4.4-9.9c-4.1-0.5-8.2-1.1-12.3-1.6c-0.1-0.7-1.8,1.5-2.1,1.8
					c3.8,1.6,7.7,3.2,11.5,4.8c0.2-0.4,0.4-0.9,0.4-1.4c1.6-7.8-7.7-11.1-12.3-5.2c-0.8,1-1.3,2-1.9,3.2c4.1,1.7,8.2,3.5,12.3,5.2
					c3.8-12.3,21.3-18.9,32.6-21.5c15.2-3.5,30.1,3,41.2,13.3c13.4,12.5,22,27.9,21,46.6c-1,17.7-8.8,36.7-19.2,51
					c-11.7,16.1-28.4,28-42.6,41.7c-6.3,6,3.3,15.5,9.5,9.5c14.8-14.2,31.5-26.6,43.8-43.2c12.4-16.6,21-38.9,22-59.7
					c1.7-38.8-36.6-80.3-76.9-72.6c-17.1,3.2-38.8,13.5-44.3,31.4c-2.2,7.2,8.8,12,12.3,5.2c0.6-1.2,1.1-2.2,1.9-3.2
					c-4.1-1.7-8.2-3.5-12.3-5.2c-0.3,1.7-0.7,3.3-0.9,5c-0.8,6.2,7.6,8.2,11.5,4.8c4.5-4.1,6.4-8.8,5.6-14.9
					c-0.9-6.4-9.3-5.6-12.3-1.6c-2.9,3.9-4.8,8.4-5.8,13.1c-1.2,6.1,6.5,11.9,11.2,6.5c1.6-1.7,4-4.2,4.5-6.6
					c1.3-6.1-6.6-12-11.2-6.5c-0.3,0.3-0.6,0.7-0.8,1C102.4,40.4,111.9,50,117.3,43.2L117.3,43.2z"/>
			</g>
		</g>
		<g>
			<g>
				<path class="st28" d="M108,46.6C101.4,59,96,72.6,97.5,86.8c1.5,14.2,8.9,26.8,16.5,38.5c5.3,8.2,9.8,16.8,15.4,24.7
					c5.5,7.7,12.5,17.5,22.9,18.1c4,0.2,6.3-3.3,6.7-6.7c2.4-18.2-15.3-31.5-23.8-45.3c-4.9-8-8.1-17.3-11.4-26.1
					c-3.6-9.7-5.7-19.4-5.8-29.7c-0.1-8.7-13.3-8.7-13.4,0c-0.2,9.4-2.3,18.7-1.3,28.2c0.6,6,9.3,10,12.5,3.4
					c5.3-10.8,5.4-23.4,7.3-35.1c1.5-9.5,3.5-23.9,14.3-27.1c-2.8-2.2-5.7-4.3-8.5-6.5c-0.2,4.1-4.7,7.4-7.3,10.2
					c-3.6,3.9-6.9,8.2-7.9,13.6c-1.1,6.4,6.1,11.5,11.2,6.5c8.2-7.9,11.5-18.9,18.6-27.5c-3.7-2.2-7.5-4.4-11.2-6.5
					c-2.9,7.7-6.3,14.6-6.6,22.9c-0.2,4.6,4.4,7.4,8.5,6.5c11.4-2.6,20.9-15.8,23.9-26.5c1.1-4-2.1-8.8-6.5-8.5
					c-5.9,0.3-12.8,3-16,8.2c-3.2,5.2-1.6,12.2,4,15c8.2,4.1,22.2-2.8,27.7-9.2c3.5-4.1,1.9-9.3-3-11.2c-5.2-2.1-12.4-2.9-17.6-0.3
					c-6.6,3.4-7.9,12.3-3.1,17.9c7.8,8.9,25,7.1,35.4,5c5.3-1.1,6-7.7,3-11.2c-5.4-6.3-12-11.3-20.6-10.1c-5.4,0.8-5.9,7.9-3,11.2
					c7.8,8.9,19.3,13.1,28.9,19.6c2.3-3.9,4.5-7.7,6.8-11.6c-6.4-4.2-12.3-9.5-16.2-16.2c-1.9,3.4-3.9,6.7-5.8,10.1
					c5.3-0.1,11,6.1,14.5,10.1c3.7,4.3,8.1,10.5,7.6,16.5c2.8-2.2,5.7-4.3,8.5-6.5c-3.8-1.1-7-6.8-8.9-10.1
					c-2.3-3.9-4.9-8.8-4.7-13.5c-2.8,2.2-5.7,4.3-8.5,6.5c12.7,1.8,17.4,20.1,18.8,30.7c2.4,18.2-9,34.1-13.9,51.3
					c-2.4,8.4,10.1,11.6,13,3.6c4.9-13.8,11.4-27.2,11.8-42.1c0.2-8.7-13-8.6-13.4,0c-0.8,15.9-4.4,31.5-5.8,47.4c4.5,0,9,0,13.4,0
					c0.2-6.1,2.4-12.3,4.2-18.1c-4.3-1.2-8.6-2.4-13-3.6c-3.8,18.1-17.4,32.4-24.9,49c4.2,1.1,8.4,2.3,12.5,3.4
					c1.4-11.4,7.7-22.3,14.7-31.1c-3.5-2.7-7-5.4-10.6-8.1c-7.2,15.6-17.2,30.9-29.7,42.8c3.8,1.6,7.7,3.2,11.5,4.8
					c1-13.3,10.9-24.7,17.7-35.7c4.6-7.5-6.7-13.8-11.6-6.8c-7.4,10.7-12.7,22.7-19.2,33.9c4.1,1.7,8.2,3.5,12.3,5.2
					c3.5-22,18.1-40.2,21.8-62.1c1-5.9-4.4-10.3-9.9-7.6c-14.7,7.2-20.2,27.3-24.2,41.8c-1.7,6.1,6.9,12,11.2,6.5
					c13.5-16.7,24.7-36.3,31.2-56.8c1.8-5.7-4.9-10.4-9.9-7.6c-9,5-15,14.8-19.6,23.7c-4.8,9.2-8.8,19.1-10,29.5
					c-0.6,5,6.2,8.5,10.1,5.8c9.9-6.7,13.9-18.4,18.8-28.8c1.4-3,3.8-7.5,5.8-11.4c2.5-4.8,4.9-9.7,6.6-14.9c1.3-4.3,2-9,0.3-13.3
					c-1-2.7-2.7-4.9-5.1-6.5c-0.5-0.4-1.4-0.7-1.9-1.1c-0.8-0.8,0.6,0.7,0.6,0.6c0-0.6,0.1-1.2,0-1.8c0-0.2,0.2-1,0.1-1.2
					c0.1,0.1-6-0.2-6.2,0.3c-0.1,0.3,0.8,2.4,1,2.8c0.7,2.6,0.8,5.3,0.7,7.9c-0.2,5.7-1.4,11.2-2.9,16.7c-3.4,13.1-9,25.8-10.9,39.2
					c-1.2,8.3,10.7,12.2,13,3.6c4.6-17.2,13.4-32.8,19.9-49.3c2.4-6.2-7-11.5-11.2-6.5c-6.2,7.3-11.2,15.7-15,24.5
					c-3.9,8.9-7,18.4-5.3,28.2c0.6,3.4,5.1,5.8,8.3,4.7c9.5-3.4,16-12,20.9-20.4c5-8.5,9-17.9,10.3-27.7c0.7-5.3-6.1-8.1-10.1-5.8
					c-7.4,4.3-10.7,12.3-11,20.5c-0.1,4.1,4.4,7.9,8.5,6.5c5.4-1.9,10.9-6.8,11.1-13c0.2-7.2-6.2-9.8-12.2-10.3
					c-2.6-0.3-5.1-0.2-7.7-0.2c-1,0-3.6-0.2-3.6-0.2c-4.2-0.6-8.4-1.5-12.6-2.3c-15.4-2.8-44.5-6.5-43.1,17.5
					c0.3,5.5,7.3,9.3,11.5,4.8c6.1-6.7,8.9-18.1,9.6-26.9c0.3-4.5-0.3-9.8-3.6-13.3c-3.4-3.5-8.7-4.5-13.1-2.3
					c-7.9,4-9.5,14.7-10.4,22.5c-0.8,7.3-1.7,17,1.1,23.9c2,4.9,9.4,7.2,12.3,1.6c4-7.7,5.9-16.6,6.7-25.2
					c0.7-7.9,0.4-18.5-6.4-23.9c-3.1-2.5-8.4-2.9-10.6,1.4c-7.5,14.8-9.4,33.7-7.1,50c0.6,4,6.7,6.4,9.9,4c6.7-5,8.7-13.1,9.7-21.1
					c1-7.7,0.9-15.4-0.2-23c-0.8-5.3-8-6.1-11.2-3c-6.8,6.5-9.3,15.6-10.3,24.6c-0.7,6.5,9.9,9.4,12.5,3.4c0.8-1.8,1.6-4.2,3.4-5.3
					c-3.3-2.5-6.6-5.1-9.9-7.6c-1.3,9.6-8.6,26.7,6,30c8.4,1.9,12-11,3.6-13c-2.8-0.7,1.2,1,0.7,1.1c0,0-0.2-0.4,0-0.8
					c0.4-1.1,0.3-3.2,0.6-4.5c0.7-3.1,1.7-6.2,2.1-9.4c0.7-5.4-4.4-11-9.9-7.6c-3.9,2.4-6.4,5.9-8.2,10.1c4.2,1.1,8.4,2.3,12.5,3.4
					c0.6-5.5,2.3-11.2,6.4-15.1c-3.7-1-7.5-2-11.2-3c0.6,3.9,0.5,10.9,0.1,15.8c-0.3,3.4-1.1,11.3-3.4,13.1c3.3,1.3,6.6,2.7,9.9,4
					c-1.8-12.4,0-28.4,5.7-39.6c-3.5,0.5-7,0.9-10.6,1.4c3.9,3.1,2.9,11,2.4,15.6c-0.7,5.7-2.2,12.3-4.7,17.2
					c4.1,0.5,8.2,1.1,12.3,1.6c-1.5-3.9-1.3-8.8-1.1-13.9c0.2-5.6,0.9-12.1,3.2-16.5c0.3-0.7,0.1-0.6,0.5-0.6
					c-0.5,0-0.9,0.6-1.6,0.3c-0.4-0.2-1.6-1.3-1.8-1.3c0.7,0,0.4,4.3,0.2,5.8c-0.5,3.7-1.6,7.3-2.9,10.8c-0.4,1.2-0.9,2.3-1.5,3.4
					c-0.3,0.5-0.7,1-0.9,1.6c-0.5,1.2,0.5-0.4-0.2,0.3c3.8,1.6,7.7,3.2,11.5,4.8c-0.1-1.4,0-2.4,0.2-3.4c0.2-0.8,0.2-0.8,0.8-1.2
					c0.6-0.4,2.6-1.3,4.3-1.6c6-0.9,12.5,0.2,18.3,1.2c6.1,1.1,12.2,2.5,18.4,3.2c2.7,0.3,5.4,0.1,8.1,0.2c1.3,0,3.1,0.6,4.4,0.4
					c2.7-0.4-2.9-5.8-2.1-4.4c0.1,0.1-1.1,1-1.2,1c2.8,2.2,5.7,4.3,8.5,6.5c0.1-3.5,1.2-7.1,4.4-8.9c-3.4-1.9-6.7-3.9-10.1-5.8
					c-0.8,6.4-4.5,13.9-7.8,19.7c-3,5.3-7.4,13.2-13.5,15.4c2.8,1.6,5.5,3.1,8.3,4.7c-1.1-6.6,2.4-14.5,5.1-20.3
					c3.1-6.7,6.9-13.5,11.7-19.2c-3.7-2.2-7.5-4.4-11.2-6.5c-6.5,16.5-15.2,32.1-19.9,49.3c4.3,1.2,8.6,2.4,13,3.6
					c1.9-13.2,7.3-25.7,10.7-38.5c3.1-11.7,6.8-28-0.3-39c-3.6-5.6-11.3-6.8-15.6-1.4c-3.9,4.9-4.1,13.7-0.7,18.9
					c1.5,2.2,3.6,2.8,5.4,4.5c-1.2-1.1-0.1,0.1-0.2,0.5c-0.1,0.3-0.2,1.6-0.3,2.3c-1.1,5.4-4.1,10.5-6.6,15.4c-2.6,5-5.1,9.9-7.4,15
					c-2.8,6.2-5.5,14.7-11.5,18.7c3.4,1.9,6.7,3.9,10.1,5.8c0.9-7.5,4.6-15.8,8.1-22.7c3.5-6.8,7.9-15,14.8-18.9
					c-3.3-2.5-6.6-5.1-9.9-7.6c-5.7,18.1-15.8,36-27.7,50.8c3.7,2.2,7.5,4.4,11.2,6.5c3.1-10.9,6.8-28.3,18-33.8
					c-3.3-2.5-6.6-5.1-9.9-7.6c-3.6,21.9-18.2,40.1-21.8,62.1c-1.1,7.1,8.2,12.2,12.3,5.2c6.5-11.2,11.8-23.3,19.2-33.9
					c-3.9-2.3-7.7-4.5-11.6-6.8c-8.3,13.4-18.3,26.2-19.5,42.5c-0.4,6,7.5,8.6,11.5,4.8c13.2-12.7,24.1-28.9,31.8-45.5
					c1.4-3.1,1.1-6.5-1.7-8.7c-2.4-1.8-6.8-2.1-8.8,0.5c-9.4,12-16.8,25.3-18.6,40.6c-0.8,6.5,9.9,9.3,12.5,3.4
					c8-17.7,22.2-32.9,26.3-52.2c1.8-8.5-10.3-11.8-13-3.6c-2.3,6.9-4.5,14.3-4.7,21.6c-0.3,8.8,12.7,8.5,13.4,0
					c1.4-15.9,5-31.5,5.8-47.4c-4.5,0-9,0-13.4,0c-0.3,13.5-6.8,26.1-11.3,38.6c4.3,1.2,8.6,2.4,13,3.6c3.4-12.1,9.7-23.2,13-35.3
					c2.3-8.5,2.1-16.8,0.5-25.4c-2.6-14.7-10.8-35.5-27.8-37.8c-4.4-0.6-8.3,1.7-8.5,6.5c-0.3,7.4,3.4,15.2,7.2,21.4
					c3.8,6.3,9,13.1,16.3,15.2c4.4,1.3,8.2-2.2,8.5-6.5c0.7-9.6-5.7-19-11.6-26c-5.9-6.9-14.4-14.2-24-14.1
					c-5.1,0.1-8.4,5.7-5.8,10.1c5,8.7,12.7,15.5,21,21c7.3,4.8,13.9-6.8,6.8-11.6c-8.6-5.8-19.2-9.6-26.2-17.5c-1,3.7-2,7.5-3,11.2
					c2.2-0.3,6.3,5.1,7.5,6.6c1-3.7,2-7.5,3-11.2c-6,1.2-13.4,1.7-19.7,0.1c-0.5-0.1-2.2-1-2.2-1c1.4-0.6,0.1,2.4,0.1,2
					c-0.2,1.9-1.8-0.1-0.3,0.9c0.2,0.2,2.2,0.1,2.7,0.1c1.5,0.2,3.1,0.7,4.6,1.3c-1-3.7-2-7.5-3-11.2c-1,1.1-1.6,1.5-3.5,2.6
					c-2.2,1.4-4.5,2.7-7,3.4c-0.5,0.1-2,0.5-2,0.5c0-0.1,1.1,0.9,1,0.8c0.2,0.5,0.7,2.9,0.8,3c0.8,1.2-1.1,0.5,0.4,0.2
					c0.5-0.1,1.1-0.7,1.6-0.9c0.7-0.3,3-0.8,2.6-0.7c-2.2-2.8-4.3-5.7-6.5-8.5c-1.8,6.3-7.7,15.6-14.5,17.1c2.8,2.2,5.7,4.3,8.5,6.5
					c0.3-6.9,3.8-13.1,6.2-19.3c2.3-6.1-7.1-11.7-11.2-6.5c-7,8.6-10.6,19.8-18.6,27.5c3.7,2.2,7.5,4.4,11.2,6.5
					c0.9-5.1,5.1-8.3,8.4-12c4-4.5,6.9-9.2,7.2-15.4c0.2-4.3-4.5-7.7-8.5-6.5c-14.1,4.2-20,17.7-22.8,31c-1.4,6.9-2.1,13.9-3.1,20.8
					c-0.7,5.4-1.7,12.2-3.8,16.5c4.2,1.1,8.4,2.3,12.5,3.4c-1-9.5,1.1-18.7,1.3-28.2c-4.5,0-9,0-13.4,0c0.2,20.1,7.5,40,16.4,57.9
					c3.9,7.8,9.7,14,15,20.9c4.8,6.3,10.7,14.1,9.6,22.5c2.2-2.2,4.5-4.5,6.7-6.7c1.3,0.1-0.6,0-0.9-0.3c0.5,0.5-1-0.6-1.2-0.8
					c-1.3-0.9-2.5-2.1-3.6-3.3c-3.1-3.2-5.6-6.9-8-10.6c-4.6-6.9-8.5-14.2-13-21.2c-6.2-9.6-12.8-19.9-14.6-31.4
					c-1.8-12,3.1-23.5,8.6-33.8C123.7,45.8,112.1,39,108,46.6L108,46.6z"/>
			</g>
		</g>
		<g>
			<g>
				<path class="st28" d="M155.4,167c-1.3,1.7-2.9,3.1-3.8,5.1c-3.1,6.4,5.3,14.4,10.6,8.1c10.6-12.5,24.3-21.7,33.7-35.3
					c4.9-7.2-6.7-13.9-11.6-6.8c-8.6,12.6-21.8,21-31.6,32.6c3.5,2.7,7,5.4,10.6,8.1c0.9-1.9,2.6-3.5,3.8-5.1
					c2.2-2.9,0.4-7.5-2.4-9.2C161.2,162.5,157.6,164.1,155.4,167L155.4,167z"/>
			</g>
		</g>
		<g>
			<g>
				<path class="st28" d="M149.9,189.3c-0.9,0.5-1.9,0.6-2.9,1.1c-0.4,0.2-0.7,0.4-1.1,0.7c-0.1,0.1-1.1,1.3-0.7,0.7
					c-1.6,2-1.1,4.7,1.5,5.6c2,0.7,4.3-1.3,5.9-2.3c1.9-1.3,2.4-4.6,0-5.8c-2.7-1.3-6.5-1.7-7.5,2c-0.5,1.8,0.6,3.5,2.3,4.1
					c2.8,0.9,5.5,1.9,8.3,2.6c4.2,0.9,6-5.2,1.8-6.5c-1.2-0.4-2.6-0.5-3.7-0.9c-3.9-1.7-7.2,3.5-3.4,5.8c2.5,1.5,5.2,1.7,8.1,1.7
					c3,0,4.4-3.7,2.4-5.7c-1.6-1.6-2.9-3.5-4.5-5.1c-1.1,1.9-2.2,3.7-3.3,5.6c1.7,0.7,2.9,3.2,3.4,4.7c1.6-1.3,3.3-2.5,4.9-3.8
					c-0.6-0.4-1.4-2.1-1.9-2.7c-2.8-3.3-7.6,1.5-4.8,4.8c1.2,1.4,1.7,2.7,3.2,3.7c2.4,1.6,5.9-1.1,4.9-3.8c-1.5-4.1-3.9-7.8-8.1-9.4
					c-3.3-1.3-5.4,3.4-3.3,5.6c1.6,1.6,2.9,3.5,4.5,5.1c0.8-1.9,1.6-3.8,2.4-5.7c-1.7,0-3.2,0.1-4.7-0.8c-1.1,1.9-2.3,3.9-3.4,5.8
					c1.7,0.7,3.5,1.1,5.3,1.6c0.6-2.2,1.2-4.3,1.8-6.5c-2.9-0.6-5.6-1.6-8.3-2.6c0.8,1.4,1.6,2.8,2.3,4.1c0-0.1,0.1-0.2,0.1-0.3
					c-0.5,0.7-1,1.3-1.5,2c-1.3,0.1-1.6,0.2-0.8,0.4c-0.3-0.1-0.3-0.1-0.1-0.1c0-1.9,0-3.9,0-5.8c-1,0.7-2.1,1.5-3.2,2
					c0.9-0.1,1.7-0.2,2.6-0.3c0,0,0,0,0,0c0.5,1.9,1,3.7,1.5,5.6c0.2-0.3,0.4-0.5,0.6-0.8c-0.8,0.6-0.8,0.7-0.1,0.5
					c0.9,0,2-0.8,2.7-1.2C157.1,192.9,153.7,187.1,149.9,189.3L149.9,189.3z"/>
			</g>
		</g>
		<g>
			<g>
				<path class="st29" d="M61,218.6c-6.4,12.8-14.3,27-12.4,41.8c0.4,3.3,2.8,7.1,6.7,6.7c18.3-1.7,27.2-21.6,30.7-37.4
					c3.5-15.3,5.3-38.3-7.4-50.2c-5.4-5.1-13.5-7.1-20.6-4.5c-6.6,2.4-10.6,8.5-12.5,15c-3.9,13.4-1.7,29.8,3.9,42.4
					c2.2,5.1,5.7,10.6,11.3,12.4c6.7,2.1,12.2-2.2,15.6-7.6c5.6-8.8,8-20.6,9.5-30.7c1.3-8.4,1.8-17.2,0.7-25.7
					c-1.2-9.6-5.3-20.5-16.4-21.5c-9.4-0.8-14.8,5.4-18.1,13.4c-3.7,9.1-5.1,19-6.2,28.7c-1.1,9.4-1.7,19.1-0.8,28.5
					c0.7,7.2,2.8,14.6,9.8,18.3c7.5,3.9,14.3-1.7,17.5-8.3c3.9-8,5.3-17.1,6-25.9c0.7-8.7,0.7-18.3-2.2-26.6c-1.2-3.5-2.9-7-5.7-9.6
					c-3.4-3.1-8-2.2-10.6,1.4c-6.5,9.1-8.5,21.9-9.2,32.9C50,223.3,51,235.8,58.2,245c2.9,3.7,8.4,1.8,10.6-1.4
					c6.3-9.1,9.6-20.5,11.2-31.4c1.7-10.9,2.4-23-1.9-33.4c-2-4.8-7.1-6.6-11.2-3c-8.2,7.2-10.6,20.6-12.2,30.8
					c-1.8,11.3-3,23-2.3,34.5c0.5,7.6,10.7,9,13.2,1.8c3.3-9.6,3.5-21.1,3.5-31.2c-0.1-11.8-0.9-26.1-8.2-36.1
					c-6.7-9.2-19.8-11.9-27.6-2.4c-7.9,9.6-8.9,24.7-9,36.6c-0.1,7.4,0.4,14.8,1.8,22.1c1,5.3,2.5,11,6.2,15c3.6,3.9,9.7,1.6,11.2-3
					c3.9-11.4,5.6-23.9,5.8-36c0.1-11.9-1.2-25.5-8.4-35.5c-2.1-2.9-5.8-4.4-9.2-2.4c-9.1,5.4-12.2,16.4-13.5,26.2
					c-1.2,9.1-1.5,19.7,1.8,28.5c2.2,5.9,11.1,6.9,13,0c3.9-14.5,7.6-39.5-8.9-47.9c-4-2.1-8.4-0.2-9.9,4c-4,11.6-4.1,24.2-4.1,36.4
					c0,7,8.9,8.7,12.5,3.4c7.6-10.9,7.3-29.6,1.9-41.4c-2-4.3-7.5-3.8-10.6-1.4c-7.9,6.2-9.6,16.4-9.7,25.9
					c-0.1,8.7,13.3,8.7,13.4,0c0.1-5.5,0.9-10.9,1-16.3c0.1-6.6-9.3-9.3-12.5-3.4c-7.4,13.6-5,29.9-0.7,44.1
					c4.2,14.1,11.2,26.9,16.9,40.4c5.6,13.3,12.3,31.6,27.4,36.5c15.6,5.1,27.8-12.5,37.3-21.8c23.4-23,42.6-52.4,34.6-86.6
					c-3.2-13.6-9.6-27.7-17.7-39c-7.8-10.9-18.5-20.3-32.2-22.4c-15.7-2.4-29.3,4.8-41.3,14.3c-11.3,8.9-23.9,21.7-24.4,37
					c-0.1,4.2,4.4,7.9,8.5,6.5c17.7-6,27.7-24.8,41.4-36.3c-3.2-3.2-6.3-6.3-9.5-9.5c-7.1,9-17.3,15.1-20,27c-1,4.6,2,8,6.5,8.5
					c17.1,1.8,27-18.9,35.6-30.2c4.7-6.2-5.3-13.5-10.6-8.1c-8.2,8.3-25.7,30.5-9.2,39.4c16.4,8.8,24.3-19.5,24.5-30.8
					c0.1-6-7.4-8.7-11.5-4.8c-11.4,10.8-11.2,35.2,2.3,44.2c2.4,1.6,6.2,1,8.1-1.1c8.5-9.2,12-26.9,4.9-37.9
					c-3.2-5-13.5-3.7-12.5,3.4c1.6,12.2,7.3,24.2,16.4,32.6c5.7,5.3,14-1.3,10.6-8.1c-2.2-4.5-4.3-9-6.1-13.7
					c-0.9-2.4-1.8-4.9-2.3-7.4c-0.2-1.4,0.3,0.1,0-0.3c-0.9-1,0.8-0.3-0.1,0.3c-2.1,1.2-4.3,2.5-6.4,3.7c0.5,0.2,0.6,0.2,0.2,0
					c-0.2-0.3,0.7,0.4,1.1,0.7c11.3,9.3,16.2,26.9,16.4,41.1c4.4-0.6,8.8-1.2,13.2-1.8c-4.8-12.7-7.6-26-9.6-39.4
					c-3.3,2.5-6.6,5.1-9.9,7.6c4.7,3.5,7.6,12.3,9.2,18.3c2.2,8.3,3.4,17.2,2.4,25.8c-0.3,3-1,6.2-2.4,8.9c-0.4,0.8-1.8,1.9-0.7,1.3
					c-1.8,1-4.4,1.2-6.4,1.9c-4.6,1.5-8.1,3.6-11.2,7.4c-3.2,3.9-5.1,10.1-9.2,13.2c3.1,0.8,6.1,1.6,9.2,2.4
					c-4.5-9.4-3.6-21.4-2.4-31.4c1.3-10.7,4-21.5,7.8-31.6c-4.3,0-8.6,0-13,0c4.5,20.7-5.5,41.6,0,62.4c1.6,6,9.1,6.2,12.3,1.6
					c12-17.1,8.3-39.9,13.2-59.2c-4.3-1.2-8.6-2.4-13-3.6c-1.9,12.5-5.2,24.8-7.5,37.3c-2.2,11.9-4.1,24.5-1.2,36.4
					c1.3,5.5,9.7,6.8,12.3,1.6c9-17.6,10.2-37.4,15.1-56.4c-4.4-0.6-8.8-1.2-13.2-1.8c-0.4,17.6-12.2,33-10.6,50.9
					c0.4,3.9,4.1,8.2,8.5,6.5c15.9-6,20.2-25.5,23.9-40.2c1.5-6.1-6.7-12-11.2-6.5c-8.9,10.8-12.5,25.3-16.1,38.5
					c-1.7,6.3,6.6,11.6,11.2,6.5c4.7-5.2,6.6-11.2,6.8-18.2c0.1-5.2-5.8-8.3-10.1-5.8c-13.8,7.9-19.6,22.8-29.2,34.7
					c3.7,2.2,7.5,4.4,11.2,6.5c2.1-6.9,5.6-13.3,7.7-20.2c2.1-6.7-6.5-10.9-11.2-6.5c-9.7,9-14.6,21.5-19,33.7
					c4.3,1.2,8.6,2.4,13,3.6c2-6.9,4.1-15.2,1.5-22.3c-2-5.5-7.4-8.6-13-6.7c-13.4,4.4-11,23.2-5.5,32.5c3.1,5.4,10.3,3.6,12.3-1.6
					c6.6-17-5.2-37.3-16.1-49.8c-2.9-3.3-8.4-2.2-10.6,1.4c-4.7,7.8-3,18.4-1.2,26.8c1.8,8,4.7,17.9,10.9,23.6
					c3.6,3.3,10,2.1,11.2-3c4.3-17.7-10.5-37.6-25.2-46c-4.3-2.5-10.3,0.6-10.1,5.8c0.3,8.1,3.3,15,7.6,21.6
					c4.7,7.3,15.5,0.9,11.6-6.8c-3.2-6.3-6.7-12.4-10.6-18.3c-3.1-4.7-10.7-4.2-12.3,1.6c-2.3,8.2,0.1,16.3,6.5,21.9
					c5.3,4.7,12.2,0,11.2-6.5c-1.4-9.4-5.8-18.2-12.3-25.1c-5.7-5.9-13.4,1.6-10.6,8.1c5.7,13.1,13.5,25.3,19.2,38.4
					c3.1,7,14.5,2,12.3-5.2c-3-9.9-7.1-19.4-10.4-29.2c-2.8-8.4-6.6-18.8-4.1-27.7c-4.1,0.5-8.2,1.1-12.3,1.6
					c7.2,9.6,6.8,22.6,13.4,32.7c2.9,4.4,11.1,4.5,12.3-1.6c0.9-4.7,0.2-9-0.7-13.7c-0.9-4.2-2.3-8.7,0-12.6c-3.9,0-7.7,0-11.6,0
					c4.8,10.2,5.6,21.5,17.5,26.1c3.1,1.2,7.7-1.4,8.3-4.7c1.9-11.6,0.9-23.1,0.3-34.7c-0.6-11.3-1.1-23.3,3.9-33.8
					c-3.9-2.3-7.7-4.5-11.6-6.8c-4.7,11-7.5,22.1-5.5,34c1,6.1,9.4,6.1,12.3,1.6c7.6-11.9,11.8-29,5.8-42.3
					c-2.5,3.3-5.1,6.6-7.6,9.9c2.2,0.8,4.5,1.1,6.7,1.9c8.1,3.1,11.6-9.9,3.6-13c-2.2-0.8-4.5-1.1-6.7-1.9c-6.1-2.3-9.7,5.1-7.6,9.9
					c3.9,8.6-1.1,21.4-5.8,28.8c4.1,0.5,8.2,1.1,12.3,1.6c-1.4-8,1-16.4,4.1-23.6c3.4-7.8-7.8-14.7-11.6-6.8
					c-5.4,11.2-6.4,23.3-5.9,35.6c0.5,11.9,2.4,24.2,0.5,36.1c2.8-1.6,5.5-3.1,8.3-4.7c-2.8-1.1-4-5.5-4.9-8c-1.4-4-2.7-8.1-4.5-12
					c-2.2-4.7-9.2-4.1-11.6,0c-2.9,5-3.5,10.3-2.7,15.9c0.6,4.2,2.8,9.3,2,13.5c4.1-0.5,8.2-1.1,12.3-1.6
					c-6.6-10-6.1-22.9-13.4-32.7c-3.3-4.4-10.6-4.4-12.3,1.6c-3,10.5,0,22,3.2,32.1c3.4,10.8,8,21.2,11.2,32
					c4.1-1.7,8.2-3.5,12.3-5.2c-5.7-13.1-13.5-25.3-19.2-38.4c-3.5,2.7-7,5.4-10.6,8.1c5,5.3,7.8,11.9,8.8,19.1
					c3.7-2.2,7.5-4.4,11.2-6.5c-2.9-2.5-4.1-5-3.1-8.8c-4.1,0.5-8.2,1.1-12.3,1.6c3.9,5.9,7.4,12,10.6,18.3
					c3.9-2.3,7.7-4.5,11.6-6.8c-3-4.6-5.6-9.2-5.8-14.9c-3.4,1.9-6.7,3.9-10.1,5.8c9.1,5.2,21.8,19.3,19,30.8c3.7-1,7.5-2,11.2-3
					c-3.7-3.5-5.8-11-7.1-16.5c-1.2-5.1-3-13.4-0.5-17.6c-3.5,0.5-7,0.9-10.6,1.4c7.9,9,17.5,24.3,12.7,36.7
					c4.1-0.5,8.2-1.1,12.3-1.6c-1.9-3.3-3.2-6.6-2.6-10.3c-0.2,1.2,1.1-3.2,0.5-1.6c0.1-0.3,1.4-2.4,0.5-0.9c0.4-0.6,1.4-0.7,0-0.2
					c1.4-0.5-1.5,0.3-0.1,0c-0.9,0.2-1.1,0.4-2.3-0.2c-1.9-0.9-1.8-2.5-1.4-0.6c0.6,3.3-0.8,9.3-2,13.5c-2.4,8.4,10,11.6,13,3.6
					c3.7-10,7.6-20.4,15.6-27.8c-3.7-2.2-7.5-4.4-11.2-6.5c-2.1,6.9-5.6,13.3-7.7,20.2c-1.9,6.1,6.9,11.9,11.2,6.5
					c8.6-10.5,14.3-25.6,26.5-32.6c-3.4-1.9-6.7-3.9-10.1-5.8c-0.1,3.3-0.5,6.1-2.8,8.7c3.7,2.2,7.5,4.4,11.2,6.5
					c2.9-10.7,5.5-23.9,12.7-32.6c-3.7-2.2-7.5-4.4-11.2-6.5c-1.5,6.1-3,12.3-5.4,18.2c-1.7,4.3-4.4,10.8-9.1,12.6
					c2.8,2.2,5.7,4.3,8.5,6.5c-0.8-8.7,2.1-16.8,4.9-24.9c2.9-8.5,5.5-17,5.7-26c0.2-7.6-11.3-9.2-13.2-1.8
					c-4.5,17.6-5.3,36.7-13.7,53.1c4.1,0.5,8.2,1.1,12.3,1.6c-2.5-10.4-0.3-21.9,1.7-32.3c2.2-11.4,5.2-22.7,6.9-34.3
					c1.2-8.3-10.8-12.2-13-3.6c-2.4,9.7-3,19.8-4.1,29.8c-1,9.1-2.4,18.6-7.7,26.3c4.1,0.5,8.2,1.1,12.3,1.6
					c-5.4-20.5,4.5-41.6,0-62.4c-1.5-7.1-10.8-5.7-13,0c-4.5,11.7-7.1,24.1-8.5,36.6c-1.3,12.3-1.1,25.4,4.4,36.8
					c1.4,3,6.5,4.5,9.2,2.4c5.7-4.3,8-10,12.1-15.5c3-3.9,7-4,11.5-5.6c9.5-3.3,12.1-14.1,12.9-23.1c1.8-18.2-2.8-44.1-18.3-55.8
					c-5.3-4-10.6,2.6-9.9,7.6c2,13.4,4.8,26.7,9.6,39.4c2.5,6.7,13.3,6.3,13.2-1.8c-0.2-11.7-3.4-23.6-8.2-34.3
					c-3.6-7.9-10.2-18.3-19.3-20.6c-10.4-2.6-11.3,8.8-9.3,15.7c2.1,7.4,5.6,14.5,9,21.4c3.5-2.7,7-5.4,10.6-8.1
					c-6.3-5.8-11.3-14.5-12.4-23.1c-4.2,1.1-8.4,2.3-12.5,3.4c3.8,5.8,1.8,16.7-2.8,21.6c2.7-0.4,5.4-0.7,8.1-1.1
					c-6.3-4.2-4.4-18.5,0.4-23.1c-3.8-1.6-7.7-3.2-11.5-4.8c0,1.8-0.1,2.2-0.6,4.5c-0.6,2.6-1.3,5.2-2.2,7.7
					c-0.8,2.2-1.8,4.3-3.1,6.3c0,0-0.6,0.9-0.8,0.7c0.5,0.3,3.7-0.6,1.7-0.5c0.3,0,0.7,0.7,0.7,1c0.1-0.8,0.1-1.2,0.5-2.3
					c0.8-2.3,2.2-4.5,3.5-6.6c2.3-3.6,5-6.9,8-10c-3.5-2.7-7-5.4-10.6-8.1c-3.8,4.9-6.9,10.3-10.8,15.1c-3.3,4-7.4,9.1-13.1,8.5
					c2.2,2.8,4.3,5.7,6.5,8.5c2-9.1,11.1-14.1,16.5-21c5.3-6.8-2.8-15.2-9.5-9.5c-6.4,5.4-11.8,12-17.5,18
					c-5,5.3-10.8,12.4-17.9,14.8c2.8,2.2,5.7,4.3,8.5,6.5c0.3-9.8,10-18.7,16.8-24.6c7.5-6.4,17.1-13.3,27.4-13.8
					c22.8-1,35.2,24.2,41.9,42.3c4.9,13.2,6,26.7,1.8,40.2c-4,12.7-12.1,23.9-20.9,33.7c-4.7,5.2-9.7,9.9-14.6,14.8
					c-4.2,4.2-8.7,10.7-14.4,12.9c-9.9,3.8-18-17.1-20.7-23.4c-5.5-12.5-11.9-24.9-16.5-37.8c-4.3-12-9.3-28-2.7-40.1
					c-4.2-1.1-8.4-2.3-12.5-3.4c-0.1,5.5-0.9,10.9-1,16.3c4.5,0,9,0,13.4,0c0.1-6.3,0.5-12.3,5.7-16.4c-3.5-0.5-7-0.9-10.6-1.4
					c3.5,7.6,2.8,20.9-1.9,27.8c4.2,1.1,8.4,2.3,12.5,3.4c0-11,0-22.2,3.6-32.8c-3.3,1.3-6.6,2.7-9.9,4c5.1,2.6,5.4,9.3,5.3,14.3
					c0,6.2-1.1,12.4-2.7,18.4c4.3,0,8.6,0,13,0c-2.5-6.6-2.3-14.2-1.7-21.1c0.5-5.8,1.7-15.1,7.3-18.4c-3.1-0.8-6.1-1.6-9.2-2.4
					c6.1,8.6,6.8,19.9,6.5,30.1c-0.3,10.5-1.8,21.1-5.3,31c3.7-1,7.5-2,11.2-3c-0.4-0.5,0.5,0.9-0.3-0.5c-0.8-1.5-0.1,0.1-0.5-1
					c-0.8-2-1.3-4.2-1.7-6.3c-0.9-4.6-1.3-9.3-1.5-14.1c-0.3-9.6,0.1-21.2,3.6-29.8c0.4-0.9,0.9-1.8,1.3-2.6
					c0.8-1.4,0.3-0.6,0.9-1.3c0.2-0.3,0.6-0.6,0.9-0.9c-0.8,0.8-0.3,0.2,0,0c0.1-0.1,1.1-0.3,0.2-0.3c1.4,0,2.3,0.2,3.1,0.6
					c0.6,0.4,1.9,1.7,2.5,2.7c4.8,7.6,5.2,18.7,5.3,27.8c0.1,9.4,0,19-3,27.6c4.4,0.6,8.8,1.2,13.2,1.8c-0.6-9.8,0.1-19.9,1.6-29.7
					c1.2-8.1,2.7-20.6,8.9-26.1c-3.7-1-7.5-2-11.2-3c3.6,8.6,3.2,18.6,1.7,27.6c-1.5,9.3-4.2,18.9-9.7,26.8c3.5-0.5,7-0.9,10.6-1.4
					c-4.8-6.1-4-17.5-3.4-24.7c0.7-8.4,2.3-17.8,7.3-24.8c-3.5,0.5-7,0.9-10.6,1.4c0.3,0.3,0.9,0.7,1.1,1.1
					c-0.6-1.4,0.1,0.3,0.2,0.5c0.7,1.3,0.5,0.8,1.1,2.7c1,3.3,1.4,6.2,1.6,9.4c0.5,7.1,0.1,14.3-1.3,21.2c-0.6,3.2-1.4,6.4-2.6,9.5
					c-0.2,0.6-0.6,1.5-1.3,2.7c-0.3,0.5-0.6,1-0.9,1.5c0.6-0.9,0.2-0.2-0.3,0.2c-0.3,0.3,0.2,0,0.1,0c-0.2,0,3.2,0,1.6-0.1
					c1.4,0.1,0.6,0.5,0-0.1c1,1-0.9-1.3-1-1.4c-0.4-0.5-0.9-2-0.2-0.1c-0.2-0.6-0.4-1.2-0.5-1.8c-0.4-2-0.2-0.7-0.4-2.5
					c-0.1-1.3-0.2-2.5-0.3-3.8c-0.2-4-0.2-8,0-12c0.3-8.1,1.1-16.3,2.7-24.3c0.7-3.7,1.6-7.3,2.8-10.9c0.7-2.1,2.5-5.6,3.1-6.2
					c0.3-0.3,1.6-1.2,0.2-0.3c1-0.7-1-0.2,0,0c0.4,0.1,2.4-0.1,1.8-0.1c0.9,0,0.9,0.1,1.8,1.2c0.3,0.4,1.1,2.3,1.4,3.4
					c4.2,13.9,0.3,32.1-4.1,45.4c-0.9,2.7-1.8,4.8-3.1,7.3c-0.3,0.5-0.6,1-1,1.5c0.9-1.3-0.1,0-0.3,0.2c-0.7,0.9-0.2,0.9,0.1,0.1
					c-0.6,1.7-1.4-1,0,0.2c0,0-2.9,0.5,0.5,0c-0.4,0.1-2-0.1,0.5,0.1c-0.4,0-1.8-0.6,0.4,0.2c-0.1,0-0.9-0.5-0.9-0.6
					c0,0.2,1.3,1.1,0.2,0c-0.2-0.2-0.4-0.4-0.6-0.6c-0.9-1.3,0.9,1.3-0.1-0.1c-0.4-0.5-0.7-1.1-1.1-1.7c-0.5-0.9-1-1.9-1.5-2.9
					c-0.1-0.1-0.4-0.9-0.9-2.3c-0.9-2.7-1.6-5.5-2.2-8.3c-0.9-4.6-1.4-9.9-1-15.6c0.3-3.9,1.2-8.2,3.3-11.3
					c-0.9,1.3,0.8-0.8,1.3-1.2c-1.3,1.1-0.1,0.1,0.2,0c1.5-0.7-1.3,0.6,0.2-0.1c1.4-0.7,2.8-0.7,5.3,0.2c-1.5-0.6,2.3,1.7,1.1,0.7
					c1.5,1.3,1.5,1.3,2.2,2.5c1.7,2.8,2.4,4.9,3.2,8.5c1.4,6.7,1.2,14.8,0,22c-1.3,7.7-3.5,15.4-7.4,22.1c-1.8,3.1-3.3,5.2-6,7.5
					c-0.4,0.4-1.7,1.3-3.1,1.9c1-0.5-3.5,0.7-2.1,0.6c2.2,2.2,4.5,4.5,6.7,6.7c-1.5-12.5,5.2-24.2,10.6-35
					C76.5,217.6,64.9,210.8,61,218.6L61,218.6z"/>
			</g>
		</g>
		<g>
			<g>
				<path class="st29" d="M72.2,155.4c0.2,0,0.4,0,0.6,0c3.6,0,6.7-3.1,6.7-6.7c0-3.6-3.1-6.7-6.7-6.7c-0.4,0-0.8,0-1.3,0
					c-6.1,0-8.5,7.2-4.8,11.5c2.2,2.4,4.5,4.9,7.4,6.5c4.2,2.4,8.3,2.4,12.6,0.6c3.4-1.4,4-6.4,2.4-9.2c-1.1-1.9-2.6-3.4-4.3-4.7
					c-0.8-0.6-1.5-1.2-2.3-1.7c-0.2-0.2-2.4-1.7-1.1-0.7c-2.4-1.9-5.4-2.7-8.1-1.1c-2.4,1.4-4.2,4.9-3.1,7.6c0.8,1.9,1.6,3.4,3,4.9
					c6.1,6.2,15.6-3.3,9.5-9.5c-0.8-0.9-0.6-0.5,0.4,1c-3.7,2.2-7.5,4.4-11.2,6.5c1.3,1.1,2.7,2,4.1,3c0.3,0.2,0.6,0.4,0.8,0.6
					c-0.4-0.3-0.4-0.3,0,0c0.3,0.2,0.5,0.4,0.7,0.7c-0.4-0.5-0.4-0.5,0,0.2c0.8-3.1,1.6-6.1,2.4-9.2c0.3-0.1,0.7-0.2,1-0.4
					c0.7,0.1,0.8,0.1,0.3,0c-0.4-0.1-0.4-0.1-0.1,0c0.5,0.4-2-1.4-1.1-0.7c-1.4-1.2-2.7-2.6-3.9-3.9c-1.6,3.8-3.2,7.7-4.8,11.5
					c0.4,0,0.8,0,1.3,0c3.6,0,6.7-3.1,6.7-6.7c0-3.6-3.1-6.7-6.7-6.7c-0.2,0-0.4,0-0.6,0c-3.6,0-6.7,3.1-6.7,6.7
					C65.5,152.3,68.6,155.4,72.2,155.4L72.2,155.4z"/>
			</g>
		</g>
		<g>
			<g>
				<path class="st29" d="M72.4,144.2c1.7-1,6.6,0.5,8.5,0.6c0-4.5,0-9,0-13.4c-1.9,0-3.6-0.1-5.4-0.3c-7.6-0.9-9,11.5-1.8,13.2
					c5.9,1.4,11.5,0.7,17.1,3.3c5.4,2.5,10,5.8,14,10.2c8,8.8,14.5,19.6,19.2,30.5c3.9-2.3,7.7-4.5,11.6-6.8c-1.6-3.5-3.3-7-5-10.4
					c-1.1-2.1-4-5.8-4-8.3c-3.8,1.6-7.7,3.2-11.5,4.8c8.3,9.2,10.4,25.4,11.3,37.3c1.2,16.3-5.2,30.5-14.6,43.4
					c-8.7,11.8-19.8,23.5-32.2,31.4c-11.4,7.2-25.8,8.4-35.2,19c3.8,1.6,7.7,3.2,11.5,4.8c-0.2-1.5-0.9-3.5-0.8-5
					c0.1-1-0.5,0.1,0.6-1.1c2-2,5.1-3.2,7.4-4.7c7.3-4.6,0.5-16.3-6.8-11.6c-4.1,2.6-8.8,4.8-11.9,8.8c-3.7,4.7-2.5,8.3-2,13.7
					c0.5,5.3,7.3,9.5,11.5,4.8c4.8-5.5,11.5-7.8,18.1-10.3c7.5-2.8,14.1-6.1,20.5-11c13.4-10.2,25.4-23.1,34.6-37.2
					c9.8-15.1,14.4-31.5,12.3-49.5c-1.7-14.5-4.6-30.9-14.7-42.1c-3.9-4.4-11.5-0.9-11.5,4.8c0.1,4.5,2.2,8,4.2,11.9
					c2.4,4.4,4.5,9,6.6,13.6c3.7,7.9,15,1,11.6-6.8c-5.3-12.3-13-24.7-22.4-34.3c-4.7-4.8-10.3-8.7-16.5-11.5
					c-2.9-1.3-5.7-2.6-8.8-3.2c-3.6-0.6-7.2-0.3-10.7-1.1c-0.6,4.4-1.2,8.8-1.8,13.2c1.8,0.2,3.6,0.3,5.4,0.3c8.7,0.1,8.6-13,0-13.4
					c-5.5-0.3-10.2-1.7-15.2,1.2C58.1,136.9,64.9,148.5,72.4,144.2L72.4,144.2z"/>
			</g>
		</g>
		<g>
			<g>
				<path class="st29" d="M86.9,266.7c7.8-6.6,16.7-11.6,24.1-18.6c3.5-3.3,6.8-7.1,9-11.4c1.3-2.6,2.2-5.3,2.6-8.1
					c0.4-3.1-0.2-6.8,1.2-9.6c-3.5,0.5-7,0.9-10.6,1.4c1.1,1.1,0.4,6.4,0.2,7.9c4.4,0.6,8.8,1.2,13.2,1.8
					c1.5-13.8,5.3-27.7,1.9-41.5c-1.6-6.5-4.8-11.6-9.1-16.7c-2-2.4-2.8-4.8-4.1-7.6c-0.7-1.6-1.5-3-2.5-4.4
					c-0.4-0.6-0.9-1.2-1.4-1.8c-1.2-1.8-1.5-1.1-0.8,2.1c-3.5,0.5-7,0.9-10.6,1.4c1.3,1.6,1.8,3.7,2.1,5.7c1.4,8.5,14.4,4.9,13-3.6
					c-0.7-4.4-2.9-8.1-5.6-11.6c-2.8-3.7-8.4-1.8-10.6,1.4c-4.6,6.7,1.3,10.8,4.1,16.4c1.6,3.3,2.5,6.4,4.8,9.3
					c2,2.6,4.3,4.6,5.7,7.6c6.3,13.2,0.9,29.6-0.5,43.3c-0.8,7.5,12,9.3,13.2,1.8c1.1-6.8,1.6-15.6-3.7-21c-2.9-3-8.5-2.5-10.6,1.4
					c-2.9,5.6-1.4,11.5-3.6,17.1c-1.6,4.1-5,7.4-8.1,10.2c-7.2,6.5-15.7,11.4-23.1,17.7C70.8,262.8,80.3,272.3,86.9,266.7
					L86.9,266.7z"/>
			</g>
		</g>
		<g>
			<g>
				<path class="st29" d="M49.2,314c-5-0.4-8.9,0.8-11.2,5.5c-0.9,1.8-0.3,4.5,2,4.9c4,0.7,6.4-1.6,8.6-4.7c1.4-2-0.4-5.3-2.9-5.1
					c-2.4,0.2-4,1-5.9,2.4c-2.1,1.6-2.2,4.2,0,5.8c3.3,2.4,7.8,1.8,11.6,1.7c3.6,0,4.8-6,0.9-6.6c-1.9-0.3-3.8-0.4-5.7-0.4
					c-3.6,0-4.2,4.4-1.7,6.3c3.5,2.6,8.3,2.9,11.8,0.1c1.7-1.4,1-4.3-0.7-5.3c-1.9-1.1-3.8-2.1-5.9-2.9c-2.8-1-5.2,2.6-3.8,4.9
					c1.9,3.2,4.9,4.9,8.6,4.1c2.6-0.6,3-3.8,1.5-5.6c-1.9-2.2-4.1-4-6.4-5.6c-1.1,1.9-2.3,3.9-3.4,5.8c1.7,0.7,3.2,1.7,5,2.3
					c0.3-2.2,0.6-4.4,0.9-6.6c-0.6-0.1-1.1-0.3-1.7-0.5c-4.1-1.4-5.8,5.1-1.8,6.5c1.2,0.4,2.2,0.6,3.5,0.8c3.9,0.4,4.3-5.5,0.9-6.6
					c-1.2-0.4-2.2-1.1-3.4-1.6c-4-1.8-6.9,3.2-3.4,5.8c1.9,1.4,3.6,2.8,5.1,4.6c0.5-1.9,1-3.7,1.5-5.6c-0.5,0.1-0.9-0.8-1-1
					c-1.3,1.6-2.5,3.3-3.8,4.9c1.5,0.6,2.9,1.4,4.3,2.2c-0.2-1.8-0.5-3.5-0.7-5.3c-0.9,0.7-3-0.7-3.6-1.2c-0.6,2.1-1.1,4.2-1.7,6.3
					c1.3,0,2.6,0,3.9,0.2c0.3-2.2,0.6-4.4,0.9-6.6c-2.6,0-6,0.8-8.2-0.8c0,1.9,0,3.9,0,5.8c0.7-0.6,1.5-1.4,2.5-1.5
					c-1-1.7-1.9-3.4-2.9-5.1c0,0-1.3,1.6-1,1.7c0.7,1.6,1.3,3.3,2,4.9c1.3-2.7,2.6-2.4,5.4-2.2C53.5,321,53.5,314.3,49.2,314
					L49.2,314z"/>
			</g>
		</g>
		<g>
			<g>
				<path class="st30" d="M127.9,343.4c-4.3,11.2-11.6,24.7-12.9,38.1c-0.6,6.5,0.6,13.5,5.4,18.2c5.3,5.1,13.5,6.2,20.3,3.8
					c14.5-5.2,22-22.2,27.4-35.4c4.7-11.7,4.7-24.3,2.5-36.6c-2.1-12.1-7.6-26.5-20.3-30.9c-12.1-4.2-25.8,3.3-31.7,13.8
					c-9.5,16.8-18.1,62.1,11.6,64.3c12.9,0.9,20-13.2,24.1-23.3c4.7-11.6,8.6-27,4.6-39.4c-3.8-11.6-17.2-14.9-27-8.4
					c-10.7,7.1-16.2,20.7-20,32.3c-3.8,11.6-6.8,24.5-6.6,36.8c0.1,9.4,4.8,24.5,15.7,26c11,1.6,17.5-11.4,21.1-19.7
					c5-11.6,8.5-24.2,9.5-36.8c0.9-11.6-3.1-26-11.6-34.3c-7.5-7.3-18.2-7.3-26.7-1.6c-17.8,11.9-28,40.6-17.6,60.1
					c2.8,5.2,7.2,9.4,12.3,12.4c3.3,1.9,7.2,0.6,9.2-2.4c4.7-7,5.2-17.5,5.6-25.6c0.6-10.5,0.3-22.1-3.3-32.1
					c-3-8.6-10-17.1-20.2-15.1c-10,1.9-14.6,13.2-17.1,21.9c-2.7,9.5-5.3,22.3-1.1,31.8c2.1,4.7,9.4,4.1,11.6,0
					c7.1-13,13.9-42.2-3.7-50.2c-3.1-1.4-7.5-1.1-9.2,2.4c-5.8,11.6-10.9,23.6-11.2,36.7c-0.2,7.2,8.9,8.4,12.5,3.4
					c6.6-9,5.8-20.2,1.3-29.8c-1.2-2.7-4.9-3.8-7.6-3.1c-3.1,0.9-4.6,3.5-4.9,6.5c-4,31.4,9.9,65.1,35.3,83.9
					c7,5.1,13.7-6.5,6.8-11.6c-21.8-16.1-32-46-28.7-72.3c-4.2,1.1-8.4,2.3-12.5,3.4c2.6,5.6,2.4,11.3-1.3,16.3
					c4.2,1.1,8.4,2.3,12.5,3.4c0.2-10.7,4.7-20.5,9.3-29.9c-3.1,0.8-6.1,1.6-9.2,2.4c5.1,2.3,4.4,9.7,3.9,14.4
					c-0.6,5.9-2.2,12.2-5.1,17.4c3.9,0,7.7,0,11.6,0c0.6,1.4-0.1-1,0-0.8c-0.2-1.7-0.2-3.4-0.1-5c0.1-3.7,0.6-7.4,1.4-11.1
					c0.8-3.7,1.8-7.5,3.4-11c1.3-2.8,2.7-5.1,4.6-5.9c-0.4,0.2-0.2,0.1,0.3,0.3c0.7,0.3,0.7,0,1.5,0.9c1.4,1.5,2.7,4.6,3.4,7.4
					c2.2,7.9,2.4,16.4,2,24.5c-0.2,4.1-0.6,8.3-1.4,12.3c-0.3,1.7-0.8,3.4-1.3,5c-0.1,0.4-0.6,2.2-0.3,0.9c-0.1,0.6-0.6,1.2-0.9,1.6
					c3.1-0.8,6.1-1.6,9.2-2.4c-7-4.1-9.7-10.5-9.7-18c0-7.9,2.8-15.9,7.3-22.8c1.9-2.9,4.1-5.7,7.3-8.2c0,0,0.4-0.3,1.3-0.8
					c0.7-0.4,1.4-0.8,2.2-1.2c0.9-0.5-0.9,0.3,0,0c0.4-0.1,0.7-0.2,1.1-0.4c0.3-0.1,0.5-0.1,0.8-0.2c1.7-0.4-1.3,0,0.4-0.1
					c0.7,0,1.4,0,2.2,0c-1.5-0.2,0.4,0.2,0.9,0.4c-1.3-0.6,0.6,0.4,1,0.6c0.2,0.1,1,0.7,0.1,0c0.4,0.3,0.8,0.7,1.2,1.1
					c2.6,2.8,4.6,7.2,5.9,11.5c0.5,1.6,0.9,3.1,1.2,4.7c0.1,0.6,0.3,1.2,0.4,1.8c0-0.2-0.2-1.5,0-0.2c0.2,1.9,0.1,3.8,0,5.6
					c-0.3,4.4-1,8.5-2.1,13c-2.1,9.3-5.1,18.9-10.2,27c-1.2,1.9-1.3,1.9-2.4,3.2c-0.8,0.9-1,1.1-0.7,0.8c-0.2,0.2-0.6,0.3-0.8,0.5
					c0,0,0.1-0.1,0.1-0.1c0,0.1-0.6,0,0.5,0c-1.1,0,0.4,0.1,0.5,0.1c-0.6-0.1,0.6,0,0.5,0.4c0.1-0.4-2.1-2.7-2.7-3.9
					c-0.9-2-1.6-4.1-2.2-6.2c-0.4-1.4-0.1-0.5-0.1-0.5c-0.1-0.9-0.1-1.7-0.1-2.6c-0.1-4,0.4-8.1,1-11.9c1.7-10.5,4.4-21.2,8.8-30.9
					c1.9-4.1,4.2-8.5,7.1-11.8c1.4-1.6,2.3-2.5,3.6-3.2c0.4-0.2,2.3-1.1,1.4-0.8c0.4-0.2,0.9-0.3,1.2-0.4c1.3-0.2-0.4,0,0.4-0.1
					c0.4,0,0.9-0.1,1.3,0c1.1,0.2-0.9-0.1,0.2,0.1c1.2,0.2,1.8,0.7,1.3,0.4c-0.1,0-0.1-0.4,0.5,0.6c-0.5-0.7,0.3,0.8,0.3,0.9
					c1.4,3.9,1.1,8.3,0.6,12.8c-1.2,9.8-4.4,20.5-10.1,28.6c-0.8,1.2-2.1,2.7-3.5,3.8c0.7-0.6-0.9,0.4-1.3,0.7
					c0.9-0.6,0.4-0.2,0-0.1c1.6-0.3-0.2,0-0.7-0.1c-2.8-0.5-4.1-1.1-5.7-4.2c-3.6-7.1-2.2-18.4-0.1-26.7c1.1-4.5,2.6-8.9,4.8-13
					c0.9-1.7,1.9-3.2,2.5-3.9c0.2-0.3,1.8-1.6,1.2-1.2c-0.8,0.6,0.7-0.4,0.7-0.4c0.8-0.5,1.7-1,2.6-1.4c8.4-4,13.6-0.1,17.3,8.2
					c4,9.1,4.9,19.9,4.1,29.7c-0.7,8.9-5.7,18.7-10.5,26.6c-2.8,4.5-15.1,19-19.1,9.3c-1.2-2.9-0.2-8.5,0.8-12.2
					c1.5-5.7,3.6-11.3,5.9-16.7c1.8-4.2,3.8-8.3,5.4-12.5C143.9,338.9,130.9,335.4,127.9,343.4L127.9,343.4z"/>
			</g>
		</g>
		<g>
			<g>
				<path class="st30" d="M98.6,334.8c0.5-2.4,1-4.8,2.2-7c-4.1-1.7-8.2-3.5-12.3-5.2c-3.4,21.4-4.3,44.3,8,63.1
					c3.4,5.2,13,3.7,12.5-3.4c-0.7-10.8-5.4-24.6-15.2-30.5c-4-2.4-10.8,0.6-10.1,5.8c1.3,9.6,5.5,18.1,10.2,26.6
					c4.6,8.4,9,17.1,16.1,23.7c3.4,3.1,10.4,2.3,11.2-3c2.1-12.7-3.1-24.4-4.1-37c-0.9-10.8-0.6-22.8-8.8-31.1c-3.5-3.5-10-2-11.2,3
					c-2,7.7-2.3,15.9-1.8,23.7c0.5,7.7,1.8,16.1,6,22.8c1.4,2.3,4.8,4.2,7.6,3.1c8-3.2,9.5-11.5,10.2-19.3
					c0.7-7.6,0.1-15.1-0.1-22.7c-0.1-3.8-0.7-8.1,0.2-11.8c0.7-2.6,2.3-3.4,3.7-5.4c0.4-0.4,0.9-0.7,1.4-1c-1.3-1-2.6-2-3.9-3
					c0.2-0.1-0.4,2.5-0.3,2.2c-0.7,3.7-2.4,7.2-3.3,10.8c-1.8,7.2-3.4,14.5-5.6,21.6c4.3,1.2,8.6,2.4,13,3.6
					c1.4-6.8,3.7-13.4,5.6-20.1c1.3-4.3,1.8-10.2,5.1-13.4c-3.7-1-7.5-2-11.2-3c0.8,5.3-2.3,11.2-3.8,16.1
					c-1.8,5.8-2.8,11.6-1.3,17.5c0.9,3.4,4.9,5.8,8.3,4.7c14.6-4.8,15.1-27.2,18.1-39.6c-4.3-1.2-8.6-2.4-13-3.6
					c-3,16.2-7.6,33.5-5.7,50c0.9,7.6,5.8,17.5,15.2,13.8c8.2-3.2,9-15.8,9.9-23.2c1.1-9.3,1.7-19.2,0.9-28.6
					c-0.7-7.7-10.5-9-13.2-1.8c-2.6,6.8-2.4,14.3-2.7,21.5c-0.2,4-0.8,8-1.2,12.1c-0.7,8-2,22.1,7,26.3c2.9,1.3,5.7,1.1,8.1-1.1
					c6.3-5.5,8.3-14.2,10.1-22c2.3-10.2,6.3-19.9,6.6-30.4c0.2-6.3-9.8-9.7-12.5-3.4c-2.9,6.6-4.5,13.7-6.7,20.5
					c-2.1,6.3-4.3,13-3.5,19.7c0.4,3,1.8,5.6,4.9,6.5c2.7,0.7,6.4-0.4,7.6-3.1c3.5-7.7,5.1-15.7,6.8-24c1.4-7.2,4.6-14.9,1.9-22.2
					c-1.3-3.4-4.5-5.7-8.3-4.7c-2.1,0.6-4,1.3-5.8,2.6c-6.9,5.1-0.2,16.8,6.8,11.6c0.7-0.7,1.5-1.1,2.6-1.2
					c-2.8-1.6-5.5-3.1-8.3-4.7c1.8,5-1.3,11.6-2.2,16.6c-1.2,6.5-2.4,13.1-5.1,19.2c4.2,1.1,8.4,2.3,12.5,3.4
					c-0.7-5.6,1.3-10.9,3-16.1c1.9-5.7,3-11.8,5.4-17.3c-4.2-1.1-8.4-2.3-12.5-3.4c-0.2,8.9-3.9,17.1-5.8,25.6
					c-1.3,5.8-2.2,13.2-6.9,17.3c2.7-0.4,5.4-0.7,8.1-1.1c-1.4-0.6,0.2,0.1,0.1,0.3c-0.1,0.7-0.4-1.2-0.4-1.3
					c-0.2-1.5-0.4-2.9-0.4-4.5c-0.1-4.1,0.3-8.2,0.7-12.3c0.9-8.8,0-18.5,3.1-26.9c-4.4-0.6-8.8-1.2-13.2-1.8
					c0.7,8.7,0.2,17.8-0.7,26.5c-0.5,4.6-1.3,9-2.7,13.4c0.4-1.4-0.3,0.7-0.4,0.6c-0.3-0.3,1.9-1.3,3.1-1.4c0.8,0,1,0,2.1,0.9
					c1.2,1,0-0.7,0.2,0.4c-3.2-14.7,1.6-33.2,4.5-48.8c1.6-8.4-10.8-12.1-13-3.6c-1.4,5.7-2.2,11.5-3.6,17.2
					c-0.8,3.1-1.6,6.2-2.8,9.1c-0.5,1.2-1.2,2.3-1.9,3.4c-0.2,0.4-0.9,0.7-0.4,0.6c2.8,1.6,5.5,3.1,8.3,4.7
					c-1.3-5.3,1.5-10.9,3.1-15.9c2-5.9,3-11.6,2-17.8c-0.8-5.2-7.9-6.2-11.2-3c-4.7,4.5-6.3,10.8-7.9,16.9c-2,7.5-4.7,14.9-6.3,22.5
					c-1.7,8.5,10.3,11.9,13,3.6c2.5-7.8,3.9-15.8,6.2-23.6c1.3-4.5,3.3-8.9,3.5-13.7c0.2-5.9-4-11.3-10.2-11.3
					c-6.1,0-11.9,5.5-14.9,10.3c-5.1,8.4-3.2,19.2-2.9,28.5c0.2,4.8,0.3,9.5-0.1,14.3c-0.2,2-0.4,4.1-1,6.1c0,0.1-0.5,1.9-0.5,1.4
					c0,0.9-1.5,0.9,1-0.1c2.5,1,5.1,2.1,7.6,3.1c-6.1-9.6-5.6-25.5-2.8-36.1c-3.7,1-7.5,2-11.2,3c5.7,5.7,4.3,16.4,5.1,23.7
					c1.1,10.1,6.1,21,4.4,31.2c3.7-1,7.5-2,11.2-3c-6-5.4-9.5-12.6-13.3-19.5c-3.6-6.5-8.1-13.6-9.1-21.2c-3.4,1.9-6.7,3.9-10.1,5.8
					c5.4,3.2,8.1,13,8.5,18.8c4.2-1.1,8.4-2.3,12.5-3.4c-10.3-15.7-9.6-34.9-6.7-52.8c1.1-7-8.4-12.4-12.3-5.2
					c-1.8,3.3-2.8,6.6-3.6,10.3C83.7,339.7,96.7,343.3,98.6,334.8L98.6,334.8z"/>
			</g>
		</g>
		<g>
			<g>
				<path class="st30" d="M118.1,304.6c-7.6,6.3-14.2,16.6-13.2,26.8c0.5,5.1,7.4,9.8,11.5,4.8c4.4-5.4,7.4-11.9,10-18.4
					c2.5-6.2,5-13.9,1.6-20.2c-1.4-2.7-4.8-3.7-7.6-3.1c-13.5,3.1-16.6,19.9-22.3,30.3c4.1,1.7,8.2,3.5,12.3,5.2
					c4.3-10.5,11.4-20.4,11.1-32.2c-0.1-4.9-5.7-8.7-10.1-5.8c-8.8,5.8-14.5,15.5-18.1,25.2c-2.4,6.4,6.8,11.2,11.2,6.5
					c8-8.4,16.2-22.5,14.2-34.4c-0.6-3.5-5.1-5.7-8.3-4.7c-11.2,3.7-16.2,16.8-21,26.5c-3.1,6.4,5.6,14.5,10.6,8.1
					c6.3-8,12-17.2,13.9-27.3c0.8-4.4-3.1-10.4-8.3-8.3c-8.3,3.4-13,10-17.5,17.5c4.1,1.7,8.2,3.5,12.3,5.2c2-5.6,6-10.4,9.2-15.4
					c4.5-6.9-5-12.6-10.6-8.1c-13.1,10.5-20,24.8-26.1,40.1c4.3,1.2,8.6,2.4,13,3.6c4.5-15.5,14.7-29.5,28.7-37.9
					c6.9-4.1,14.7-6.8,22.8-7.1c8.9-0.3,16.7,3.2,24,8.1c6.9,4.6,14.7,10.7,19.6,17.5c5,6.9,5.5,16.6,7.2,24.7
					c4.2,20-0.1,38.3-10.8,55.4c-5.5,8.8-12.1,16.8-18.9,24.6c-7.5,8.6-14.8,17.6-23.6,25c2.7-0.4,5.4-0.7,8.1-1.1
					c-7.3-5.1-15.1-8.8-21.4-15.3c-6.3-6.5-12.5-13.5-17.7-21c-4-5.7-7.7-11.8-10.5-18.3c-1.9-4.5-5.4-12.2-2.4-16.9
					c4.7-7.3-7-14.1-11.6-6.8c-8.8,13.9,3.3,34.2,11,46c5.9,9,13.1,17.3,20.4,25.1c7.5,7.9,16.6,12.6,25.4,18.8
					c2.6,1.8,6,0.8,8.1-1.1c8.8-7.4,16-16.4,23.6-25c7.2-8.2,14.2-16.7,20.1-25.9c12.7-19.6,18-41.4,13.6-64.5
					c-1.9-9.7-3-20.7-8.3-29.3c-5.3-8.7-14.4-15.9-22.6-21.8c-8.5-6.2-18.4-11-29.1-11.7c-9.7-0.6-19.5,1.8-28.3,5.9
					c-19.8,9.2-34.5,28.2-40.5,48.9c-2.5,8.5,9.9,11.4,13,3.6c5.2-13.2,11.3-25.1,22.6-34.2c-3.5-2.7-7-5.4-10.6-8.1
					c-4,6-8.2,11.7-10.6,18.6c-2.6,7.3,8.5,11.6,12.3,5.2c2.3-3.9,4.9-9.5,9.4-11.3c-2.8-2.8-5.5-5.5-8.3-8.3
					c-1.5,7.8-5.6,15.2-10.4,21.4c3.5,2.7,7,5.4,10.6,8.1c1.9-3.9,3.8-7.9,5.9-11.7c1.5-2.6,3.9-7.6,7-8.6c-2.8-1.6-5.5-3.1-8.3-4.7
					c0.5,2.7-2.2,7.9-3.6,10.6c-2,3.8-4.2,7.6-7.1,10.7c3.7,2.2,7.5,4.4,11.2,6.5c2.4-6.2,6.3-13.4,12-17.1
					c-3.4-1.9-6.7-3.9-10.1-5.8c0.3,10-7,19.6-10.6,28.6c-2.9,7.1,8.7,11.8,12.3,5.2c2.4-4.5,4.1-9.3,6.3-13.9
					c1.6-3.3,3.9-9.3,8-10.2c-2.5-1-5.1-2.1-7.6-3.1c-0.7-1.3-0.1-0.7-0.2,0.6c-0.1,0.8-0.4,2-0.6,2.9c-0.6,2.4-1.4,4.7-2.4,7
					c-1,2.4-2.2,4.8-3.5,7.1c-0.6,1.1-1.2,2.2-1.9,3.3c-0.1,0.2-1.9,2.6-0.9,1.5c3.8,1.6,7.7,3.2,11.5,4.8c-0.7-7,4.1-13.1,9.2-17.3
					C134.3,308.6,124.7,299.2,118.1,304.6L118.1,304.6z"/>
			</g>
		</g>
		<g>
			<g>
				<path class="st30" d="M106.5,403.2c-0.1,4.7,0.4,10.1,4.2,13.4c3.5,3.1,8.3,2.9,12,0.2c7-5.1,7.3-15.7,1.1-21.6
					c-2.9-2.7-8.7-2.7-10.6,1.4c-5.2,11.1,1.8,27.6,15.1,28c3,0.1,5.6-2.2,6.5-4.9c2.2-7.2,1.4-16.1-2-22.8c-2-3.8-7.7-4.3-10.6-1.4
					c-4.6,4.8-3.4,12.8-2.4,18.7c1.1,6.3,3.4,14.5,9,18.3c6.9,4.6,14.5-0.8,14.9-8.5c0.4-6.7-2.2-14.2-5.3-20.1
					c-3.8-7.3-13.4-1.8-12.3,5.2c1.2,8.1,3,29.1,15.1,27.6c8.8-1.1,8.1-10.9,9.8-17.3c2.6-9.9,9.7-17.8,16.4-25.2
					c6.7-7.5,13.8-15.2,18.2-24.4c4.6-9.9,2.8-20.6,0.7-30.9c-4-19.3-8.6-41-23.8-55.1c-11.6-10.7-35.8-12-39.4,7.1
					c-1.3,6.9,9,12.6,12.3,5.2c7.5-17-22.8-23.9-24.1-5.3c-0.5,7.9,6.2,11.9,13.3,9.6c5.5-1.8,11.7-5.9,15.5-10.3
					c-3.7-2.2-7.5-4.4-11.2-6.5c0.7-1.7-0.7,1.2-0.9,1.5c-0.5,0.9-1,1.8-1.4,2.7c-1.3,2.4-2.5,4.9-3.4,7.5
					c-1.8,5.3-1.4,11.2,3.9,14.3c9.9,5.7,20.3-7.7,23-15.9c1.7-5-3.5-9.5-8.3-8.3c-7,1.7-12.9,6-17.1,11.7c-2.6,3.5,0.2,8.8,4,9.9
					c11,3,20.9-4.9,28.6-11.7c4-3.5,1.6-9.8-3-11.2c-4.9-1.5-11.2-1.6-13.9,3.7c-2.7,5.5,1.2,11.1,5.3,14.5c2.4,2,5,3.5,7,6
					c2.2,2.8,4.1,6,5.8,9.1c3.1,5.7,3.3,12.1,3.3,18.4c0,13.7,2,27.5-1.7,41c-3.4,12.7-13.2,22.1-17.7,34.4
					c-1.3,3.6,1.5,7.2,4.7,8.3c8.8,3,15.2-6.4,19.1-12.8c3.6-5.9,7.3-16.1,11.5-19.7c-3.7-2.2-7.5-4.4-11.2-6.5
					c-2.1,11.2-12.4,19.3-16.7,29.8c-2.7,6.6,6.8,10.7,11.2,6.5c3.5-3.3,5.9-7.5,8.2-11.7c2.5-4.7,5.4-9.2,7.9-14
					c5.4-10,11.1-20.2,15.2-30.9c8.7-22.5,0.1-45.1-10.1-65.6c-2.5-5.1-11.1-3.9-12.3,1.6c-1.9,8.8,3.4,17.2,7.4,24.7
					c3.6,6.6,14.7,2.1,12.3-5.2c-1.4-4.3-2.8-8.7-5.5-12.5c-2.2-3.2-5.7-4-9.2-2.4c-1.1,0.5-2,1.2-3,2c-6.6,5.6,3,15.1,9.5,9.5
					c0.1,0,0.2,0.1,0.2,0.1c-3.1-0.8-6.1-1.6-9.2-2.4c2,2.9,3,6,4.1,9.3c4.1-1.7,8.2-3.5,12.3-5.2c-1.9-3.5-7-10.2-6-14.3
					c-4.1,0.5-8.2,1.1-12.3,1.6c4.5,9,8.4,18.3,10.7,28.1c2.3,10.1,1.4,19.2-2.7,28.8c-3.8,8.9-8.6,17.5-13.1,26
					c-2.3,4.3-4.9,8.4-7.2,12.6c-2,3.6-3.7,7.4-6.8,10.3c3.7,2.2,7.5,4.4,11.2,6.5c4.3-10.7,14.4-18,16.7-29.8
					c1.3-6.7-6-11-11.2-6.5c-4.8,4.1-7.5,11.3-10.4,16.7c-1.8,3.3-3.6,6.9-6,9.9c-0.5,0.7-2,1.7-2.3,2.5c0,0-0.3-0.2,0.2,0
					c0.2,0.1,2.4,0.4,0.9-0.1c1.6,2.8,3.1,5.5,4.7,8.3c3.9-10.8,12.5-19,16.3-30c4.2-12,4.4-24.5,3.7-37.1
					c-0.7-11.5,0.9-23.1-3.8-34c-2.3-5.3-5.7-10.6-9.4-15c-1.9-2.3-4.1-3.9-6.5-5.7c-0.5-0.3-2.4-2.2-2.7-2.2
					c-1.4,1.9-2.8,3.8-4.2,5.7c0.6,0.1,1.3,0.3,1.9,0.5c-1-3.7-2-7.5-3-11.2c-3.6,3.2-10.2,9.6-15.6,8.2c1.3,3.3,2.7,6.6,4,9.9
					c2.1-2.9,5.7-4.7,9.1-5.6c-2.8-2.8-5.5-5.5-8.3-8.3c-0.2,0.7-1.8,3.2-2.9,4.6c-0.6,0.8-2,1.6-2.4,2.5c-0.1,0.2-0.7,0.5-0.7,0.4
					c0,0.2,5,2.8,4.4,3.1c0.6-0.3,2.3-5.5,2.9-6.5c1.2-2.3,2.5-4.5,3.4-6.9c2.4-6.2-7-11.5-11.2-6.5c-2.7,3.1-6.4,4.6-9.5,6.9
					c-0.5,0.2-1,0.3-1.5,0.4c2.5-0.4,4.2,0.9,5.1,3.8c0.3-0.5-1,1-1,1c-0.1-0.1-0.5,0.1,0.1,0.2c0.7,0.4,0.9,0.5,0.4,0.3
					c-1-1.1-1.1-2.4-0.4-3.8c4.1,1.7,8.2,3.5,12.3,5.2c1.9-9.8,14.6-3.9,19,1c10.7,11.9,14.4,27.8,17.5,43
					c1.5,7.5,4.4,16.3,1.7,23.9c-2.6,7.3-8.5,13.6-13.6,19.3c-10.1,11.3-21.4,23.2-23.3,39c-0.1,0.8-0.8,3.6-0.6,4.3
					c0.2,0.5,0.8-1.1,1.1-0.9c2.4,1.3,6.1,0.7,6.1,0.8c-0.1-1.4-1.6-4-2.1-5.9c-1.1-4.4-1.9-8.9-2.6-13.3c-4.1,1.7-8.2,3.5-12.3,5.2
					c1.4,2.8,2.5,6.1,3.2,9.4c-0.1-0.3,0.4,2.4,0.3,2.2c1.4,3.9-0.7-0.5,0.3,0.4c1.7-1.8,3.4-2.4,5.1-1.6c0.3,0.1,0.5,0.2,0.8,0.4
					c0,0-0.6-0.8-0.7-1c-1.5-3.4-2.6-6.7-3.2-10.4c-0.2-1.4-0.3-2.9-0.3-4.3c0-2.3,0.7-2.2-0.6-0.8c-3.5-0.5-7-0.9-10.6-1.4
					c1.8,3.5,1.7,8.8,0.6,12.4c2.2-1.6,4.3-3.3,6.5-4.9c-2.2-0.1-4.3-6-3.5-7.8c-3.5,0.5-7,0.9-10.6,1.4c1.1,1.1,0,1.3,0.3,1.5
					c0.2,0.2-0.9,0,0.2-0.2c0.7-0.2,1.3-0.3,2-0.5c1.4,0,2.5,0.5,3.2,1.5c0.5-0.2-0.4,0.5,0.1-0.5c0.3-0.7-0.1-2.5-0.1-3.2
					C120,394.5,106.6,394.5,106.5,403.2L106.5,403.2z"/>
			</g>
		</g>
		<g>
			<g>
				<path class="st30" d="M140,392.1c-0.9,3.6-1.9,7.2-3.5,10.6c3.9,2.3,7.7,4.5,11.6,6.8c1.8-4.4,3.9-8.6,5.5-13.1
					c2.2-6.2-6.9-11.6-11.2-6.5c-4.3,4.9-6.3,10.8-8.8,16.7c4.3,1.2,8.6,2.4,13,3.6c1.4-5,3.7-9.6,4.5-14.7c0.4-2.7,0-5.3-2.4-7.1
					c-2.1-1.6-5.1-2-7.5-0.5c-1.9,1.2-3,2.7-4,4.7c-4.1,7.6,7.5,14.4,11.6,6.8c0.3-0.6,0.6-1.3,1-1.9c-0.8,0.8-1.6,1.6-2.4,2.4
					c0.2-0.1,0.4-0.2,0.6-0.4c-3.3-2.5-6.6-5.1-9.9-7.6c-0.8,5.1-3.1,9.8-4.5,14.7c-1,3.5,1.2,7.3,4.7,8.3c3.9,1.1,6.9-1.3,8.3-4.7
					c1.5-3.6,2.7-7.8,5.3-10.8c-3.7-2.2-7.5-4.4-11.2-6.5c-1.2,3.4-2.7,6.6-4.1,9.9c-1.4,3.3-1,7.2,2.4,9.2c2.9,1.7,7.6,0.9,9.2-2.4
					c2.1-4.4,3.7-9,4.8-13.8C155,387.3,142,383.7,140,392.1L140,392.1z"/>
			</g>
		</g>
		<g>
			<g>
				<path class="st30" d="M187.1,320.4c2.3,5.7,4.4,11.4,6.1,17.3c4.1-1.7,8.2-3.5,12.3-5.2c-0.3-0.6-0.4-1.3-0.4-2
					c-4.5,0-9,0-13.4,0c1.6,17.2-1.5,33.9-9.3,49.2c-3.7,7.3-8.2,14.3-13,20.9c-5.3,7.2-11.7,13.6-17.3,20.5
					c-5.3,6.6,3.5,15.9,9.5,9.5c2.3-2.4,4.2-5.6,7-7.6c7-5,0.3-16.7-6.8-11.6c-3.9,2.8-6.5,6.3-9.7,9.7c3.2,3.2,6.3,6.3,9.5,9.5
					c6-7.4,12.7-14.3,18.5-22c5.6-7.4,10.6-15.2,14.7-23.5c8.3-17.1,12.3-35.7,10.5-54.7c-0.8-8.5-13.8-8.8-13.4,0
					c0.1,3.2,0.8,5.9,2.2,8.8c3.3,6.9,14.4,2,12.3-5.2c-1.7-5.9-3.8-11.6-6.1-17.3c-1.4-3.4-4.5-5.7-8.3-4.7
					C188.6,313,185.7,317.1,187.1,320.4L187.1,320.4z"/>
			</g>
		</g>
		<g>
			<g>
				<path class="st30" d="M138.8,451.8c-4.1,0.3-7.9,2.3-9.6,6.2c-1.1,2.5-1.3,5.1,0.5,7.5c1.7,2.1,4.4,3.1,7.1,2.4
					c1.9-0.5,3.4-1.4,4.8-2.7c0.4-0.3,0.7-0.7,1-1c1.1-1.2-0.8,0.4,0.3-0.2c-1.1,0.3-2.3,0.6-3.4,0.9c1.2,0.1-1.8-0.3-0.2,0
					c0.4,0.1,0.8,0.1,1.2,0.2c1.3,0.2,2.5,0.4,3.8,0.5c3.5,0.1,6.9-3.2,6.7-6.7c-0.2-3.8-3-6.6-6.7-6.7c-1.3-0.1-0.3-0.3,0,0
					c-0.1-0.1-1.3-0.2-1.5-0.3c-1.6-0.3-3.5-0.7-5.1-0.2c-1.7,0.5-3.1,1.6-4.4,2.8c-0.3,0.3-0.7,0.5-0.8,0.8
					c-0.4,0.3-0.2,0.2,0.5-0.3c-0.6,0.4-0.5,0.3,0.3-0.1c2.5,3.3,5.1,6.6,7.6,9.9c0.1-0.3,0.3-0.6,0.4-0.8c-0.6,0.7-0.7,0.8-0.4,0.5
					c0.4-0.3,0.2-0.2-0.5,0.4c-0.5,0.3-1,0.4-1.6,0.5c3.5-0.2,6.9-2.9,6.7-6.7C145.4,455.1,142.6,451.6,138.8,451.8L138.8,451.8z"/>
			</g>
		</g>
	</g>
	<g>
		<g>
			<path d="M51.6,309.5C26.4,286.4,8.4,251,4.7,217c-1.8-16.8,0.4-33.6,9.8-48c9.4-14.4,23.8-26.1,40.1-31.8
				c16.2-5.7,34.1-4.9,48.9,4.5c10.5,6.7,19.7,16.1,25.9,27c12.1,21.1,11.8,46.7,1.8,68.6c-15.5,34.3-48.8,57-82.1,71.8
				c-2.4,1.1-0.3,4.6,2.1,3.5c32.5-14.4,64.5-36.2,81.3-68.5c11.7-22.6,14.2-49.3,3-72.7c-12.7-26.5-40.6-46.1-70.6-41.1
				C30.6,136.1,2,166.6,0.1,201.5C-1,222.3,5,243.3,13.5,262.1c8.4,18.6,20.1,36.4,35.2,50.3C50.7,314.2,53.6,311.3,51.6,309.5
				L51.6,309.5z"/>
		</g>
	</g>
	<g>
		<g>
			<path d="M49.1,309.2c-4.3,2.5-11.8,5-13.2,10.4c-1.6,6.1,6.7,7.9,10.9,8.5c4.1,0.6,12.8,1.6,14.2-4c1.4-5.6-6.2-10.4-9.1-14.2
				c-1.6-2.1-5.1,0-3.5,2.1c2.4,3.1,5.8,5.5,7.8,8.9c1.1,1.9,0.9,2.9-1.4,3.3c-2.1,0.4-4.4,0.2-6.4,0c-2.4-0.2-10.9-1.1-7.5-4.9
				c2.7-3,6.9-4.5,10.3-6.5C53.5,311.4,51.4,307.8,49.1,309.2L49.1,309.2z"/>
		</g>
	</g>
	<g>
		<g>
			<path d="M46.9,326.8c7.9,23.5,3.2,46.9-3.2,70.1c-6,21.9-11.1,43.3-11.1,66.1c0,21.6,4,42.9,12,63c7.2,18,16.4,35.1,23.5,53.1
				c8.4,21.5,12.7,44,7.4,66.9c-0.6,2.6,3.4,3.7,4,1.1c4.5-19.4,2.7-38.9-3.4-57.7c-6-18.6-15.2-36-23.1-53.8
				c-9.2-20.6-15.2-41.8-16.2-64.5c-1.1-24,3.4-46.6,9.8-69.6c7-25.1,12.7-50.4,4.1-75.9C50,323.2,46.1,324.3,46.9,326.8L46.9,326.8
				z"/>
		</g>
	</g>
	<g>
		<g>
			<path d="M156,185.7c30.4-17.5,56.1-48.6,67.6-81.7c5.6-16,7.5-33.4,2-49.7c-5.5-16.4-16.4-31.1-30.4-41.3
				C181.6,3,164.5-2.2,147.6,0.9c-13.9,2.6-27.5,10.5-37.7,20.1C91,38.7,83.4,64.6,87.2,90c5.9,40.1,35.5,72.4,66.8,95.7
				c2.1,1.6,4.2-2,2.1-3.5c-27.3-20.3-52.7-47.2-62.2-80.6c-6.8-23.7-4-50,11.7-69.7c7.5-9.5,17.3-16.8,28.2-21.9
				c15.9-7.4,33-7.6,48.9,0.1c15.4,7.5,27.8,20.8,35.3,36c7.5,15.1,8.7,31.2,4.7,47.5c-4.7,19.2-15.1,36.9-27.4,52.2
				C183.7,160,169.9,173,154,182.2C151.7,183.5,153.8,187,156,185.7L156,185.7z"/>
		</g>
	</g>
	<g>
		<g>
			<path d="M153.6,185.4c2.8,2.6,6.4,4.9,8.5,8.3c2.9,4.7-5,3.9-7.8,3.6c-2.1-0.2-4.4-0.5-6.4-1.3c-2.2-0.9-2.5-1.7-0.9-3.5
				c2.6-2.9,6.6-4.5,9.6-7c2-1.7-0.9-4.6-2.9-2.9c-3.7,3.1-11.7,5.9-12,11.5c-0.3,5.9,8.6,6.9,12.7,7.3c4.3,0.4,12.9,0.6,12.8-5.7
				c-0.1-5.6-7-9.7-10.6-13.1C154.5,180.7,151.6,183.6,153.6,185.4L153.6,185.4z"/>
		</g>
	</g>
	<g>
		<g>
			<path d="M95.2,412.5c-21.4,27.7-42.8,56.1-42.6,92.8c0,2.6,4.1,2.6,4.1,0c-0.2-35.9,21.1-63.6,42-90.7
				C100.3,412.5,96.8,410.5,95.2,412.5L95.2,412.5z"/>
		</g>
	</g>
	<g>
		<g>
			<path d="M151.1,198.1c-12.6,20.7-14,44-13,67.6c0.1,2.6,4.2,2.6,4.1,0c-0.9-22.9,0.3-45.4,12.4-65.5
				C156.1,197.9,152.5,195.8,151.1,198.1L151.1,198.1z"/>
		</g>
	</g>
	<g>
		<g>
			<path d="M141.1,448.3c-28.7-16.5-53.1-45.6-64.8-76.6c-5.7-15.1-8.5-31.8-3.8-47.6c4.9-16.7,15.8-31.8,29.9-41.9
				c13.9-10,31.4-14.8,48.2-10.3c12.4,3.3,24.4,10.7,33.5,19.8c17.3,17.3,23.7,42.2,19.5,66c-6.7,37.8-34.7,68.4-64.5,90.5
				c-2.1,1.6-0.1,5.1,2.1,3.5c28.8-21.4,55.4-49.8,64.7-85.3c6.6-25.1,2.6-52.3-14.2-72.6c-8.3-10-19.2-17.6-31-22.7
				c-16.1-7-33.6-6.4-49.4,1.1c-16,7.6-29.1,21.4-37.1,37.2c-7.7,15.2-9.6,31.4-6.2,48c4.2,19.9,14.5,38.4,26.9,54.4
				c12.2,15.7,27,30,44.3,40C141.3,453.1,143.4,449.6,141.1,448.3L141.1,448.3z"/>
		</g>
	</g>
	<g>
		<g>
			<path d="M138.6,448.6c-3.6,3.4-10.5,7.5-10.6,13.1c-0.1,6.3,8.5,6.2,12.8,5.7c4.1-0.4,13-1.4,12.7-7.3c-0.3-5.7-8.3-8.4-12-11.5
				c-2-1.7-4.9,1.2-2.9,2.9c3,2.5,6.9,4.1,9.6,7c1.6,1.8,1.3,2.6-0.9,3.5c-2,0.8-4.3,1.1-6.4,1.3c-2.8,0.3-10.7,1.1-7.8-3.6
				c2.1-3.3,5.6-5.6,8.5-8.3C143.5,449.7,140.5,446.8,138.6,448.6L138.6,448.6z"/>
		</g>
	</g>
	<g>
		<g>
			<path d="M140.4,466.3c12.2,20,15.1,42.5,13.6,65.5c-1.1,18.3-3.6,36.8-9.1,54.3c-7,22.2-19.9,41.9-24.6,64.8
				c-4,19.9-3.6,40.4-2.1,60.6c0.2,2.6,4.3,2.6,4.1,0c-1.4-19.1-1.9-38.6,1.5-57.5c2.2-11.9,6.3-23.2,11.4-34.1
				c4.9-10.6,9.9-21.1,13.4-32.3c5.4-17,7.8-34.8,9.1-52.5c1.9-24.8-0.8-49.4-14-71C142.6,461.9,139,464,140.4,466.3L140.4,466.3z"
				/>
		</g>
	</g>
</g>
</svg>
