<?xml version="1.0" encoding="utf-8"?>
<!-- Generator: Adobe Illustrator 19.1.0, SVG Export Plug-In . SVG Version: 6.00 Build 0)  -->
<svg version="1.0" id="Layer_1" xmlns="http://www.w3.org/2000/svg" xmlns:xlink="http://www.w3.org/1999/xlink" x="0px" y="0px"
	 viewBox="0 0 404.7 616.7" style="enable-background:new 0 0 404.7 616.7;" xml:space="preserve">
<style type="text/css">
	.st0{fill:#E1F4FD;}
	.st1{fill:#F2D8E0;}
	.st2{fill:#DFF0E3;}
	.st3{opacity:0.85;}
	.st4{opacity:0.3;fill:#FFFFFF;}
	.st5{opacity:0.3;fill:#F2D8E0;}
	.st6{fill:#FFFFFF;}
	.st7{opacity:0.3;fill:#DFF0E3;}
	.st8{opacity:0.4;fill:#FFFFFF;}
	.st9{opacity:0.3;fill:#E1F4FD;}
	.st10{fill:#F8DE8D;}
	.st11{fill:#BADAF3;}
	.st12{fill:#231F20;}
	.st13{fill:#010101;}
	.st14{fill:none;stroke:#010101;stroke-width:6.518;stroke-miterlimit:10;}
	.st15{fill:none;stroke:#FFFFFF;stroke-width:6.0438;stroke-miterlimit:10;}
	.st16{fill:#FAD6D7;}
	.st17{fill:#FFFEFE;}
	.st18{fill:#C2DE9F;}
	.st19{fill:#FCD6D6;}
	.st20{fill:#FEE777;}
	.st21{fill:#FAA958;}
	.st22{fill:#BADB93;}
	.st23{fill:#F9DE8C;}
	.st24{fill:#B0DAF4;}
	.st25{fill:#9C6026;}
	.st26{fill:#CB8F62;}
	.st27{fill:#714C1E;}
	.st28{fill:#9C9DCE;}
	.st29{fill:#FFC214;}
	.st30{fill:#DEE682;}
	.st31{fill:#F3DAB1;}
	.st32{fill:#F6B4C9;}
	.st33{fill:#FEC470;}
	.st34{fill:#FDC17E;}
	.st35{fill:#724F1F;}
	.st36{fill:#D22030;}
	.st37{fill:#00AFAC;}
	.st38{fill:#18A6DF;}
	.st39{fill:#FEDD10;}
	.st40{fill:#E74782;}
	.st41{fill:#FBD0D8;}
	.st42{fill:none;stroke:#000000;stroke-width:1.7659;stroke-miterlimit:10;}
	.st43{fill:#672F12;}
	.st44{fill:#F58C8E;}
	.st45{fill:#E8B674;}
	.st46{fill:#FFD89F;}
	.st47{fill:#FFEDB3;}
	.st48{fill:#5EB2E3;}
	.st49{fill:#7DB2E0;}
	.st50{fill:#F19C9D;}
	.st51{fill:#593712;}
	.st52{fill:none;stroke:#E7EFD6;stroke-width:0.4253;stroke-miterlimit:10;}
	.st53{fill:#D86464;}
	.st54{fill:#FEEBB1;}
	.st55{fill:#F8A95A;}
	.st56{fill:none;stroke:#010101;stroke-width:8.0507;stroke-linecap:round;stroke-linejoin:round;stroke-miterlimit:10;}
	.st57{fill:#95D4D1;}
	.st58{fill:#F6DD8C;}
	.st59{fill:#B0D9F4;}
	.st60{fill:#FFC118;}
</style>
<g>
	<g>
		<g>
			<path class="st36" d="M125.5,415.3c-8.3-24.1,9-49,21.1-68.6c-5.1-1.4-10.2-2.8-15.3-4.1c1,13.1-3.5,26.2,0.3,39.1
				c1.6,5.5,9.6,8.6,13.7,3.6c9.9-11.9,12.8-27.6,11.6-42.7c-0.7-8.3-10.5-10.9-15.3-4.1c-9.3,13.1-11.2,36.8,0.1,49.2
				c3.2,3.5,8.3,2.7,11.6,0c13.6-10.8,17.8-32.7,10.8-48.3c-2.8-6.3-9-11.5-16.3-9.4c-9.4,2.8-12.9,14.9-15.1,23.2
				c5-0.7,10-1.3,15-2c-4.7-8.1-7.6-17.3-11.5-25.9c-3.8-8.3-8.5-17.5-16.8-22.1c-6.6-3.6-13.4,2.3-12.1,9.3
				c2.1,11,11.8,18.7,18.1,27.3c3.7-3.7,7.5-7.5,11.2-11.2c-6.7-4.6-12.7-9.8-17.9-16c-3.9,3.9-7.7,7.7-11.6,11.6
				c9,7.8,17.8,17.6,30.2,19.4c6.3,0.9,13.8-5.5,9.3-12.1c-7.3-10.5-18.4-17.2-28.8-24.4c-8.8-6.1-19.2-13.1-21.1-24.4
				c-4,3.1-8,6.2-12.1,9.3c18.3,8.7,35.7,19.4,54.2,27.7c19.3,8.7,39.4,14.2,60.7,13.8c-2.6-3.5-5.3-6.9-7.9-10.4
				c-12.8,38.6-20.6,78.6-26.5,118.8c5.4,0.7,10.8,1.5,16.1,2.2c-1-38.7,11.4-76.6,8.1-115.4c-0.8-8.8-13.6-11.7-16.1-2.2
				c-9.4,35.7-12.9,72.6-13,109.5c5.4-0.7,10.8-1.5,16.1-2.2c-7.9-37.6,2.7-76.9-8.1-114.2c-0.9-3.1-4.4-6.5-7.9-6
				c-8.4,1-17,0.2-25.3,2.6c-4.9,1.4-7.8,7.5-4.9,12.1c4.6,7.1,10.8,12.4,17.9,16.8c7.9,4.9,16.6-6.4,10-12.9
				c-5.9-5.7-12.6-10.4-18.5-16.1c-2.7,4.6-5.3,9.2-8,13.7c14.1,3.4,28.9,4.4,42.7,9.2c-1.6-4-3.3-8-4.9-12.1
				c-0.4,0.6-0.9,1-1.4,1.5c-1.3,1.2,0.5-0.3-0.2,0.2c-8.6,6-0.4,20.2,8.3,14.2c3-2.1,5.6-4.4,7.6-7.6c3-4.8-0.1-10.4-4.9-12.1
				c-13.8-4.8-28.5-5.8-42.7-9.2c-7.8-1.9-14,7.8-8,13.7c5.9,5.7,12.6,10.4,18.5,16.1c3.3-4.3,6.6-8.6,10-12.9
				c-4.7-2.9-9-6.2-12-10.9c-1.6,4-3.3,8-4.9,12.1c6.7-2,14-1.2,20.9-2c-2.6-2-5.3-4-7.9-6c5.3,18.1,4.9,37.1,4.6,55.8
				c-0.3,19.5-0.6,39.1,3.5,58.4c1.9,9.2,16.1,6.9,16.1-2.2c0.1-35.4,3.3-70.7,12.4-105.1c-5.4-0.7-10.8-1.5-16.1-2.2
				c3.4,38.7-9,76.7-8.1,115.4c0.2,8.8,14.7,11.7,16.1,2.2c5.9-40.2,13.8-80.2,26.5-118.8c1.7-5-2.8-10.5-7.9-10.4
				c-40,0.8-71.9-22.9-106.6-39.3c-6.8-3.2-13.3,2-12.1,9.3c2.3,13.5,13.1,22.9,23.6,30.6c9.2,6.7,21.5,12.8,28,22.1
				c3.1-4,6.2-8,9.3-12.1c-9.5-1.4-16-9.2-22.9-15.2c-8-7-18.5,3.6-11.6,11.6c6.2,7.2,13.4,13.3,21.3,18.6
				c6.6,4.5,16.1-4.6,11.2-11.2c-3.2-4.3-6.7-8.4-10.2-12.5c-2.7-3.2-5.5-6.7-6.3-10.9c-4,3.1-8,6.2-12.1,9.3
				c5.6,3.1,9.3,12.3,12,18.6c3.4,7.8,6.1,16.1,10.4,23.4c3.5,6.1,13.2,4.9,15-2c0.9-3.3,1.7-6.7,3.3-9.8c0.3-0.6,0.7-1.3,1.1-1.9
				c0.8-1.2-0.9,1.4,0.2-0.3c0.4-0.6-0.4,0.2-0.8,0.2c-1.1,0.2-2.2-0.1-3.3-0.4c0.3,0.1-0.6-0.6-0.7-0.7c0.3,0.8,1,1.6,1.3,2.4
				c-0.7-1.6,0.4,1.5,0.5,2.1c2.1,8.6,0,20.2-8.5,26.9c3.9,0,7.7,0,11.6,0c-6-6.6-2.4-22.5,2.4-29.3c-5.1-1.4-10.2-2.8-15.3-4.1
				c0.8,10.3,0.1,22.7-6.8,31.1c4.6,1.2,9.2,2.4,13.7,3.6c-3.3-11.1,1.2-23.4,0.3-34.7c-0.6-7.9-10.8-11.4-15.3-4.1
				c-14.5,23.7-32.6,52.5-22.7,81.3C113.1,429.6,129,425.3,125.5,415.3L125.5,415.3z"/>
		</g>
	</g>
	<g>
		<g>
			<path class="st36" d="M213.9,323.7c0-0.1,0-0.3,0-0.4c-0.1,0.7-0.2,1.5-0.3,2.2c0-0.1,0-0.1,0-0.2c-0.3,0.7-0.6,1.3-0.8,2
				c0-0.1,0.1-0.1,0.1-0.2c-0.4,0.6-0.9,1.1-1.3,1.7c0,0,0,0,0.1-0.1c-1.2,0.7-2.4,1.4-3.6,2.1c0,0,0.1,0,0.1,0
				c-0.7,0.1-1.5,0.2-2.2,0.3c0,0,0.1,0,0.1,0c1.1,0,2.2-0.2,3.2-0.7c1-0.3,1.9-0.9,2.6-1.7c0.8-0.7,1.4-1.6,1.7-2.6
				c0.5-1,0.8-2,0.7-3.2c-0.1-2.1-0.8-4.3-2.4-5.8c-0.6-0.4-1.1-0.9-1.7-1.3c-1.3-0.7-2.7-1.1-4.1-1.1c-1.8,0.2-2.8,0.2-4.4,1.2
				c-1.2,0.7-2.3,1.8-3.1,3.1c-0.9,1.5-1.2,3.1-1.2,4.8c0,2.1,0.9,4.3,2.4,5.8c0.7,0.8,1.6,1.4,2.6,1.7c1,0.5,2,0.8,3.2,0.7
				c2.1-0.1,4.3-0.8,5.8-2.4C213,327.9,213.9,325.9,213.9,323.7L213.9,323.7z"/>
		</g>
	</g>
	<g>
		<g>
			<path class="st36" d="M237.3,321.7c7.4,1.3,14.9,0.6,22.3,2.1c7.7,1.5,15.5,2,23.1,3.4c7.1,1.3,12.9,4.4,19.4,7.1
				c4.8,2,11.6,2.2,15.5,5.7c7.9,7,19.5-4.6,11.6-11.6c-5.2-4.6-11.4-6.3-17.9-8.2c-7.1-2.1-13.4-6.3-20.7-8
				c-7.8-1.9-16-2.3-23.9-3.6c-4.1-0.7-8.1-1.7-12.3-2.1c-4.2-0.3-8.6,0.2-12.7-0.5c-4.4-0.8-8.8,1.2-10.1,5.7
				C230.4,315.5,232.9,320.9,237.3,321.7L237.3,321.7z"/>
		</g>
	</g>
	<g>
		<g>
			<path class="st36" d="M323.9,362.7c3.4-8.6,6.1-17.3,7.8-26.4c2-10.3-13.9-14.8-15.8-4.4c-1.7,9.1-4.4,17.8-7.8,26.4
				c-1.6,4.1,1.8,9,5.7,10.1C318.5,369.7,322.3,366.8,323.9,362.7L323.9,362.7z"/>
		</g>
	</g>
	<g>
		<g>
			<path class="st36" d="M265.4,315.6c21.4-5.6,42.7-12.4,62.5-22.5c-4.1-2.4-8.2-4.7-12.4-7.1c0.8,14.6,0.5,29.1,0.4,43.7
				c5.1-1.4,10.2-2.8,15.3-4.1c-9.5-13.5-26.6-21.2-42.1-25.4c0,5.3,0,10.6,0,15.8c10.1-1.9,19.8-5.1,29.8-7.4
				c-3.4-3.4-6.7-6.7-10.1-10.1c-2.4,6.8-9.2,19.2,0.5,23.8c4.3,2.1,8.5,0.9,11.2-2.9c0.9-1.3,1.3-3.1,1.2-4.7
				c-0.4,1.4-0.7,2.8-1.1,4.1c0-0.1,0.1-0.1,0.1-0.2c6.2-8.6-8.1-16.8-14.2-8.3c-0.9,1.3-1.3,3.1-1.2,4.7c0.4-1.4,0.7-2.8,1.1-4.1
				c0,0.1-0.1,0.1-0.1,0.2c3.7-1,7.5-2,11.2-2.9c-0.2-0.1-0.4-0.2-0.6-0.3c1.3,1.6,2.5,3.3,3.8,4.9c-0.4-2.6,3-7.5,3.9-9.9
				c2.2-6.2-4.4-11.4-10.1-10.1c-10,2.3-19.8,5.5-29.8,7.4c-8.2,1.5-7.4,13.8,0,15.8c11,2.9,25.5,8.2,32.3,17.9
				c4.5,6.4,15.3,4.5,15.3-4.1c0-14.6,0.4-29.1-0.4-43.7c-0.4-6.4-6.6-10-12.4-7.1c-18.6,9.4-38.5,15.5-58.6,20.8
				C250.8,302.5,255.2,318.3,265.4,315.6L265.4,315.6z"/>
		</g>
	</g>
	<g>
		<g>
			<path class="st36" d="M113.9,349.5c-6.4,15.8-8.5,33.5-12.6,49.9c-4.7,18.6-8.9,37.3-12.1,56.2c-3,18.1-7.1,36.2-9.3,54.5
				c-0.9,7.1-0.2,14.6-2.2,21.6c-0.1,0.5-0.4,1-0.4,1.5c-0.1,1.8-1.6,1.3,0.7,0.5c2.9-1,1.2-0.8-0.3-0.9c-3.8-0.1-7.2,0-11,0.3
				c-5,0.4-10.3,0.9-15.3,0.8c-4.4-0.1-8.7-1.3-12.9-2.2c-4.5-1-9.1-2-13.8-2.2c-5.4-0.2-9.5,1.5-14,4.3c3.5,4.5,7,9.1,10.5,13.6
				c10.7-10.2,14.3-24.6,20.4-37.7c7.5-16.3,15.5-32.5,22-49.3C75.9,428,81.8,393.6,87,359.3c3.1-20.5,5.9-41,9.4-61.4
				c0.8-4.6-1.2-9.3-6-10.6c-4.2-1.1-9.9,1.4-10.6,6c-5.9,34.8-10.2,69.9-16.8,104.6c-3.1,16.2-7.2,32.3-12.5,47.9
				c-5.5,16-12.6,31.3-19.8,46.6c-3.7,7.8-7.1,15.7-10.4,23.8c-2.8,6.9-5.9,13.9-11.4,19.1c-7,6.7,2.1,18.8,10.5,13.6
				c3.2-2,4.9-2.2,8.7-1.6c4.5,0.7,8.9,2.1,13.4,2.9c8.9,1.7,18.1,1.1,27.1,0.2c6.9-0.7,14.9,1.5,20.6-3.7c5.5-5.1,6.4-14.3,7-21.4
				c0.7-8.1,1.3-15.9,2.7-24c1.7-9.8,3.4-19.7,5.2-29.5c3.4-19.2,6.8-38.3,11.5-57.3c2.6-10.5,5.5-21,7.7-31.7
				c2-9.7,3.8-19.4,7.5-28.6c1.8-4.3-1.9-9.5-6-10.6C119.6,342.1,115.6,345.2,113.9,349.5L113.9,349.5z"/>
		</g>
	</g>
	<g>
		<g>
			<path class="st36" d="M70.7,328.9c-1.4,21.2-4.3,42.5-9.4,63.2c-2.4,9.8-4.6,19.5-6.7,29.4c-1.9,9-4.9,17.9-4.7,27.3
				c0.2,11.1,17.5,11.2,17.3,0c-0.2-8.5,3-16.6,4.5-24.9c1.9-10.4,4.7-20.5,7.1-30.7c4.8-21,7.7-42.7,9.2-64.2
				C88.8,317.8,71.5,317.8,70.7,328.9L70.7,328.9z"/>
		</g>
	</g>
	<g>
		<g>
			<path class="st36" d="M88.4,308c-7.9,40-9.8,80.9-18.2,120.8c-3.9,18.6-9.5,36.8-17.9,53.8c-4,8.2-8.4,16.9-14,24.2
				c-5.1,6.6-10.8,12-13.9,20c-1.6,4,1.8,9.9,6,10.6c9.4,1.5,18.6,4.1,28.2,4.9c7.4,0.6,16.8,0.2,22.2-5.6
				c8.7-9.3,9.7-25.8,11.2-37.8c0.7-5.7,1.2-11.4,1.9-17.1c1.3-10.1,3.6-20.2,5.7-30.1c4.8-23.2,10.5-46.3,16-69.3
				c1.6-6.6,3.1-13.3,4.7-19.9c1.4-5.9,2.2-12.3,4.1-18c1.5-4.6,3.8-9.2,1-14c-1.3-2.2-3.7-3.9-6-5.1c-0.3-0.1-2.3-1.5-1.3-0.5
				c0.4,0.4-1.1-2.9-1.4-3.6c-2.6-7.5-14.8-8.9-16.7,0c-6.3,29.4-10.9,59.3-13.3,89.2c-0.9,11.1,16.4,11,17.3,0
				c2.2-28.5,6.7-56.7,12.7-84.6c-5.6,0-11.1,0-16.7,0c1.3,3.9,2.8,8.2,5.7,11.2c0.9,1,2.2,1.8,3.4,2.5c0.5,0.3,3.4,2.1,2.7,1.4
				c-0.7-1.3-1.5-2.5-2.2-3.8c-0.6-2.9,0-1.4-0.6-0.5c-0.2,0.3-3.2,8.2-0.9,2.2c-0.6,1.6-0.9,3.1-1.3,4.8
				c-1.1,5.1-2.3,10.2-3.4,15.2c-2.3,9.8-4.6,19.6-6.9,29.4c-4.8,19.9-9.5,39.8-13.7,59.9c-3,14.4-5.5,28.8-7.1,43.4
				c-1.1,9.9-2.3,22-5.9,30.6c0-0.1-0.9,1.8-1.3,2.5c-0.5,0.8,0,0.8,0.2-0.1c0,0.1-1.4,1.7-0.4,0.5c0.1-0.2,1.4-1,1.6-0.8
				c-0.1-0.1-2.6,0.8-3,0.8c-1.9,0.3-3.9,0.2-5.9,0.2c-8.8-0.4-17.3-3-25.9-4.5c2,3.5,4,7.1,6,10.6c2.7-6.8,9.8-12.2,13.8-18.3
				c5.3-7.9,9.9-16.4,13.9-25c8.2-17.5,14.1-35.8,18.1-54.8c8.4-39.9,10.3-80.8,18.2-120.8C107.2,301.7,90.5,297.1,88.4,308
				L88.4,308z"/>
		</g>
	</g>
	<g>
		<g>
			<path class="st36" d="M70.6,446c-4.4,24.7-15.8,49-12.4,74.5c1.4-2.5,2.9-5,4.3-7.5c-2,1-3.9,2.2-5.9,3.1c-0.8,0.4-1.7,0.6-2.4,1
				c-2.7,1.4-0.6-0.5,1,0.6c1,1,2.1,2.1,3.1,3.1c-0.7-1.2-0.8-0.7-0.2,1.3c0,2,0.2,2.5,0.4,1.5c0,0,0.1-0.1,0.5-0.8
				c0.8-1.2,1.8-2.2,2.9-3.3c2.1-2.1,4.4-4.1,6.7-6c-4.1-4.1-8.2-8.2-12.2-12.2c-2.6,2.9-5.4,5.5-8.2,8.2
				c-8.1,7.9,3.9,19.4,12.2,12.2c1.6-1.3,2.9-2.8,4.3-4.3c7.6-8.1-4.6-20.4-12.2-12.2c-1.4,1.5-2.8,3-4.3,4.3
				c4.1,4.1,8.2,8.2,12.2,12.2c2.8-2.7,5.6-5.3,8.2-8.2c7.5-8.4-3.8-19.4-12.2-12.2c-6.8,5.8-17.4,14.4-14.7,24.6
				c4,15.1,20.8,6.5,29.5,2c2.4-1.2,4.7-4.7,4.3-7.5c-3.1-24,7.7-46.7,11.8-69.9c0.8-4.6-1.2-9.3-6-10.6
				C77.1,438.8,71.4,441.4,70.6,446L70.6,446z"/>
		</g>
	</g>
	<g>
		<g>
			<path class="st36" d="M45.2,544c2.2,2.3,4.3,4.7,6.5,6.9c2-4.9,4.1-9.8,6.1-14.8c-2.4-0.2-4.7,0.4-7.1,0.7
				c-7.9,1.2-7.7,12.2-2.1,15.8c13.3,8.4,28.9,13.8,44.4,16.8c18.7,3.7,36.7,2.1,55.2-1.8c18.9-3.9,37.8-9.5,57.1-11.1
				c9-0.8,17.9-0.3,26.9,0.2c8.4,0.5,21.3,1.3,24.4-8.4c0.9-2.8,0-6.5-2.2-8.4c0.2,0.3,0.4,0.6,0.6,0.9c-5.4-9.7-20.4-1-14.9,8.7
				c0.5,1,1.2,1.9,2.1,2.6c-0.7-2.8-1.5-5.6-2.2-8.4c-0.1,0.3-0.2,0.6-0.3,0.8c2-2,4-4,6-6c-7.4,2.2-15.4,0.7-22.9,0.4
				c-8.7-0.3-17.4,0.2-26,1.3c-17.6,2.3-34.8,7-52.2,10.6c-15.7,3.3-31.1,5.1-47,1.9c-14.1-2.8-28.1-7.4-40.2-15.1
				c-0.7,5.3-1.4,10.5-2.1,15.8c1.3-0.2,0.9-0.3,2.5-0.1c7.8,0.7,11-9.7,6.1-14.8c-2.2-2.3-4.3-4.7-6.5-6.9
				C49.6,523.7,37.4,536,45.2,544L45.2,544z"/>
		</g>
	</g>
	<g>
		<g>
			<path class="st36" d="M173.7,436.7c4.2,2.6,8.5,4.8,13.3,6.1c0.8-5.7,1.5-11.3,2.3-17c-0.7,0,0,0.5,0.1,0.7
				c-3.5,3.5-7.1,7.1-10.6,10.6c8.8,2,15.9,8.6,24.3,11.6c5,1.8,10.4,2.7,15.6,4.2c5.5,1.5,10.9,3.3,16.3,5
				c20.1,6.3,41.3,10.6,62.4,10.7c0-5.8,0-11.5,0-17.3c-0.7,0-1.4,0-2.2,0c-11.1,0-11.2,17.3,0,17.3c0.7,0,1.4,0,2.2,0
				c11.1,0,11.1-17.2,0-17.3c-20.4-0.1-40.3-4.5-59.6-10.6c-5.1-1.6-10.3-3.2-15.4-4.6c-4.8-1.4-10-2.1-14.7-3.9
				c-8.4-3.3-15.3-9.6-24.3-11.6c-6.1-1.4-12.8,4.1-10.6,10.6c2.5,7.7,8.7,11.5,16.6,12c9.8,0.5,11.6-14.5,2.3-17
				c-3.4-0.9-6.2-2.5-9.2-4.3C172.9,416,164.2,430.9,173.7,436.7L173.7,436.7z"/>
		</g>
	</g>
	<g>
		<g>
			<path class="st36" d="M300.4,417.6c-0.6,11.9-4.9,24.8-11.8,34.6c-2.7,3.8-0.7,9.6,3.1,11.8c4.3,2.5,9.1,0.7,11.8-3.1
				c8.6-12.2,13.4-28.5,14.2-43.3C318.3,406.5,301,406.5,300.4,417.6L300.4,417.6z"/>
		</g>
	</g>
	<g>
		<g>
			<path class="st36" d="M313.4,425.4c14.8-0.8,30.2-6.6,39-19c-5.3-0.7-10.5-1.4-15.8-2.1c9.1,23.9,16,48.8,23.3,73.2
				c3.7,12.4,6.3,25,9.5,37.5c2.5,9.8,5.5,20.5,13.1,27.7c8.1,7.6,20.4-4.6,12.2-12.2c-6.5-6.1-8-16.7-9.9-25
				c-2.8-12.1-5.6-24.3-9.4-36.1c-7.4-23.2-13.5-46.9-22.2-69.6c-2.7-7.2-11.3-8.3-15.8-2.1c-5,7-16,10-24.1,10.4
				C302.3,408.7,302.3,426,313.4,425.4L313.4,425.4z"/>
		</g>
	</g>
	<g>
		<g>
			<path class="st36" d="M238.9,557.4c15.6,3.1,30.6,8.6,46.6,9.6c16.6,1,32.9-4.2,48.4-9.6c9.3-3.3,18.4-5.8,28-8
				c6.6-1.5,18.5-2.2,22.6-8.5c6.1-9.4-8.9-18.1-14.9-8.7c0,0,0,0,0,0.1c1-1,2.1-2.1,3.1-3.1c2.2-1.4,0.9-0.4-0.9,0.1
				c-1.5,0.4-3,0.8-4.5,1.1c-4.2,1-8.3,1.9-12.5,2.9c-9,2.1-17.5,4.7-26.3,7.7c-13.9,4.8-28.1,9.6-43,8.7c-14.3-0.9-28-6.2-42-8.9
				C232.6,538.6,228,555.3,238.9,557.4L238.9,557.4z"/>
		</g>
	</g>
	<g>
		<g>
			<path class="st36" d="M151.3,382.6c0.8-1.7,1.5-3.4,2.2-5.1c-5.7-0.8-11.3-1.5-17-2.3c0.2,16.4-3.2,32.3-6.3,48.3
				c-3.3,17.1-6.2,34.2-8.1,51.5c-1.8,16.5-1.2,33.2-3.3,49.7c-0.5,3.7-1.3,7.3-2.3,10.9c-0.3,1.2-0.8,2.9-1.1,3.8
				c-0.1,0.3-1.3,2.6-0.5,1.2c-0.9,1.5,0.8-0.3-0.5,0.5c-0.9,0.4-0.9,0.5,0,0.1c-0.5,0.2-1.1,0.4-1.6,0.5c-2.5,0.6-5,1.1-7.5,1.7
				c3.7,2.8,7.3,5.6,11,8.3c-0.5-8.3,2.2-16.3,4.5-24.2c2.7-9.3,4.7-18.8,6.7-28.2c4.1-20.4,5.2-41.1,8.2-61.7
				c2.1-14.3,5.5-28.1,8.8-42.1c2.1-8.8,7.3-26-2.5-32.1c-13.8-8.5-19.3,12.5-21.1,21.6c-3.1,16-8.7,31.4-12.5,47.2
				c-4.7,19.7-8.8,39.5-10.1,59.7c-1,15.2-0.5,30.5-1.7,45.8c-0.3,3.2-0.3,4.8-1.1,7.6c-0.1,0.5-0.4,1.1-0.4,1.6
				c-0.1,0.5,0.8-0.5-0.1,0.1c3.3-2.4,3.5-7,10.7-1c0.8,0.7,0.6,1.4,1,1.4c0,0,0.8,0.8,0.1-0.2c-0.5-0.7-0.2-1-0.1,0.2
				c-0.2-1.1-0.2-2.2-0.2-3.4c-0.1-2.8,0-5.5,0.2-8.3c0.7-10.4,2.1-18.7,3.7-28.9c0.6-3.9-0.4-7.7-4-9.8c-3.2-1.9-7.9-1.5-10.5,1.4
				c-5.7,6.3-7.6,14.5-9.1,22.6c-1.8,9-5.1,17.4-7.4,26.2c-1.8,7.2,6.1,13.7,12.7,9.8c3.1-1.9,4.4-4.1,5.7-7.3
				c1.8-4.3-1.9-9.5-6-10.6c-5-1.4-8.8,1.7-10.6,6c0-0.2,0-0.3,0.1-0.5c1-1,2.1-2.1,3.1-3.1c-0.3,0.2-0.6,0.4-0.9,0.6
				c4.2,3.3,8.5,6.5,12.7,9.8c2-8,5.2-15.5,6.8-23.5c1.1-5.3,1.4-13.5,5.2-17.6c-4.8-2.8-9.6-5.6-14.5-8.4
				c-1.4,9.1-2.9,18.2-3.8,27.4c-0.8,8.4-3.1,21.9,3.6,28.6c5,4.9,13,3.3,16.5-2.5c2.9-4.8,3.3-11,3.8-16.4
				c1.4-14.8,1-29.7,1.6-44.5c0.9-20.3,5.4-40.1,10.1-59.8c3.8-15.6,9.2-30.7,12.3-46.4c0.6-2.8,1.2-5.7,2-8.5
				c0.5-1.7,0.4-1.4,0.8-2.3c0.5-1.3-0.2-0.1-0.2-0.1c0.1-0.1,0.3-0.3,0.4-0.4c-3.2,2.5-6,2.5-8.2,0.1c0,0-2.8-2.8-2.4-2.4
				c0.5,0.6,0.1-1.5,0-0.4c-0.1,0.9,0,1.8,0,2.7c-0.1,3-0.3,3.8-0.9,6.7c-2.4,12.4-6.2,24.5-8.4,36.9c-4,22.6-4.8,45.6-9,68.1
				c-2.1,11.1-4.3,22.3-7.5,33.2c-2.8,9.5-6,19.5-5.4,29.6c0.3,5.7,5.3,9.7,11,8.3c5-1.2,10.3-1.9,14.5-4.9
				c5.6-3.9,7.7-10.4,9.3-16.7c4.5-17.5,3.3-36,4.8-53.8c1.6-18.4,4.6-36.6,8.1-54.8c3.5-18,7.5-36.2,7.3-54.7
				c-0.1-10.2-13.7-11.2-17-2.3c0,0.4-0.1,0.7-0.4,1C131.5,383.8,146.4,392.6,151.3,382.6L151.3,382.6z"/>
		</g>
	</g>
	<g>
		<g>
			<path class="st36" d="M168.2,385.4c-0.6-1.5-1.1-2.7-1.3-4.3c-1.3-8.4-15.2-8.1-16.7,0c-2.6,14.7-4.6,29.6-6.8,44.3
				c-2.3,14.7-5.5,29.2-8.8,43.7c-3.3,14-4.6,28.2-7.4,42.2c-2.8,14-6.7,27.8-8.9,42c-1.1,7.2,5.6,13.8,12.7,9.8
				c19.9-11.3,18-39.1,20.4-58.8c2.6-21.9,10.9-42.6,12.2-64.7c0-0.4,0.8-2.4,0.5-2.9c3.7,6.7-8.1,2.9-8.7,2.6c-1.2-0.8,0.5,1-1-1.2
				c0,0,0.4,0.8,0.5,0.8c-2-1,0.4-1.4-0.2,0c-0.1,0.1,0.2,1.2,0.2,1.2c-0.4-2.3-0.1-0.2-0.1,0.4c-0.1,6.4-0.7,10.1-2.1,16.7
				c-2.7,12.2-6.7,24-9.8,36c-2.1,8-2.7,16.5-3.6,24.7c-0.7,5.6-0.9,8.9-1.8,14c-0.8,4.9-1.7,9.9-0.9,14.9
				c1.6,9.6,12.3,15.6,19.8,7.6c5.2-5.6,7.9-15.4,9.8-22.6c5.7-22.5,3.7-46.1,11.2-68.2c0.5-1.5,1.7-3.6,1.8-5.2
				c0.1-1,3-1.7-1.1-0.4c-3.2,1-2.1,0.6-0.8,0.7c2.1,0.3,4.3-0.3,6.4-0.2c2.8,0.2,5.5,1,8.1,1.9c11.6,4,22.8,7.5,34.8,9.9
				c13.9,2.8,27.7,4.7,41.8,6.5c13.7,1.7,27.3,5.9,41.2,4.7c11.7-1,17.9-8.4,18.4-19.8c0.5-10.8-0.1-21.2,5.9-30.8
				c4.4-6.9-2.8-13.9-9.8-12.7c-11.1,2-16.7,19.9-19.9,28.7c-3.3,8.9-10.4,25.1-0.8,32.1c3.8,2.8,9.6,0.6,11.8-3.1
				c2.6-4.4,0.7-9.1-3.1-11.8c0,0-0.1-0.1-0.1-0.1c1,1,2.1,2.1,3.1,3.1c-0.4-0.5,1,4,0.8,2.7c-0.1-0.5,0.3-2.9-0.1-0.3
				c0.2-1.7,0.6-3.4,1-5c1.1-4.5,2.6-9,4.2-13.4c1.6-4.2,3.1-7.9,5.4-12c0.5-1,1.1-1.9,1.7-2.9c0.2-0.4,1.7-2.1,0.3-0.6
				c0.4-0.5,1.4-1.2,1.7-1.7c-0.3,0.6-2,1.1-1.5,1.1c-3.3-4.2-6.5-8.5-9.8-12.7c-5.6,8.8-7.5,18.9-8.1,29.2c-0.2,3.4,0,6.9-0.2,10.3
				c-0.2,3.6,0-0.5-0.1,1.4c0,0.3-0.8,2.1-0.2,1.1c0.6-1,1.2-0.2-0.8,0c-11,1.6-22.4-2.1-33.2-3.7c-11.8-1.8-23.6-2.8-35.3-5
				c-11.1-2.1-22.3-4.2-33.1-7.6c-4.7-1.5-9.3-3.6-14.1-5c-5.4-1.6-10.3-1.6-15.8-1.5c-9,0-13.5,5.9-16.3,14
				c-3.5,10-5.8,20-7.1,30.6c-1.5,11.9-1.9,24-4.1,35.8c-1,5-2.4,9.8-4.2,14.6c-0.5,1.4-1.1,3.1-1.6,4c-0.3,0.6-0.6,1.2-0.9,1.7
				c-0.2,0.4-0.5,0.8-0.7,1.1c0.9-1.5,2.3-2.3,4.5-2.3c1.5,0.4,2.9,0.8,4.4,1.2c0.2,0.2,0.5,0.5,0.7,0.7c0.9,1.8,1.1,1.9,0.6,0.5
				c-0.1,0.2,0.1-0.9,0.1-1.1c0-2.1,0.4-4.2,0.8-6.3c0.9-5.3,1.5-10.6,2.1-16c0.9-7.9,1.5-15.9,3.7-23.6
				c3.6-13.1,7.9-26.1,10.4-39.5c1.9-10.3,5.2-32.6-11-33.6c-11.1-0.6-13.1,10.8-13.3,19.3c-0.2,11-4.3,21.9-7,32.5
				c-3.7,14.5-5.2,29.4-6.8,44.3c-1,9.4-0.8,23.5-10.2,28.8c4.2,3.3,8.5,6.5,12.7,9.8c2.2-13.8,5.9-27.4,8.7-41.1
				c2.9-14.3,4.3-28.8,7.6-43.1c3.3-14.2,6.4-28.3,8.7-42.7c2.3-15.1,4.3-30.3,7-45.3c-5.6,0-11.1,0-16.7,0c0.2,1.6,0.7,2.8,1.3,4.3
				c1.7,4.3,5.8,7.4,10.6,6C166.3,395,170,389.8,168.2,385.4L168.2,385.4z"/>
		</g>
	</g>
	<g>
		<g>
			<path class="st36" d="M325.8,419.2c-1.8,9.2-1,18.2-1.2,27.5c-0.2,9.5-2.4,18.9-3.9,28.2c-1.4,8.5-2,17.1-2.8,25.7
				c-0.7,7.2-1.6,14.4-1.1,21.6c0.5,7.3,2.1,15.2,8,20.2c7.3,6.1,18,3.6,22.9-4.3c3.6-5.9,3.6-13.3,3.4-20c-0.2-8,0.3-16.1,0.2-24.1
				c-0.1-11.5-0.6-22.9-0.7-34.4c-0.1-11.1-1.3-22.2-0.9-33.3c-5.8,0-11.5,0-17.3,0c1.2,17.9,3.7,35.7,6.4,53.5
				c1.3,8.5,2.4,16.9,4.8,25.2c2.3,8.1,5.1,16,1.7,24.2c-2.2,5.4,3.3,10.9,8.3,11c6.7,0.1,14.1-4.5,18.7-9.2
				c5.9-6.1,5.3-14.2,2.8-21.8c-2.5-7.6-5.5-14.9-7.6-22.8c-2.7-10-4.9-20.1-6.8-30.3c-1-5.1-8.4-8.4-12.7-5.2
				c-1.7,1.3-3.1,2.4-4,4.4c-1.9,4.3-1.2,9.3,3.1,11.8c3.7,2.2,9.9,1.2,11.8-3.1c0.1-0.3,0.3-0.6,0.4-1c-1,1-2.1,2.1-3.1,3.1
				c0.1-0.1,0.3-0.2,0.4-0.3c-4.2-1.7-8.5-3.4-12.7-5.2c2.8,14.9,5.8,30.5,11.2,44.7c1.7,4.4,4.1,9.5,4.6,13.9
				c-0.1-0.8,1.8-1.4-0.1-0.2c-0.7,0.4-1.3,1.1-2,1.6c-1,0.7-2.1,1.3-3.2,1.9c-0.6,0.3-2.8,0.4-0.9,0.4c2.8,3.7,5.6,7.3,8.3,11
				c3.7-8.9,2.4-18.5-0.1-27.6c-2.3-8.6-4.2-16.9-5.6-25.7c-2.8-18-5.4-36-6.6-54.1c-0.7-11-16.9-11.2-17.3,0
				c-0.3,8,0.5,15.9,0.7,23.8c0.3,8.4,0.2,16.8,0.5,25.2c0.4,14.7-0.1,29.4,0.2,44.1c0,2.5,0.2,5.2-0.3,7.6c-0.1,0.4-0.6,2-0.6,2.1
				c-0.4-0.6,3.1,0.4,3.1,0.4c-0.1,0.2-1.7-4.7-1.8-5.1c-0.4-2.7-0.4-5.6-0.3-8.3c0.3-13,1.7-26.5,3.9-39.3
				c1.5-9.1,3.3-18.2,3.9-27.4c0.5-8.5-0.9-17.1,0.7-25.5C344.6,412.9,327.9,408.2,325.8,419.2L325.8,419.2z"/>
		</g>
	</g>
	<g>
		<g>
			<path class="st36" d="M184.6,466.5c-0.3,0.4-3.5,2.6-4.2,1.8c0.2,0.2,1.9,0,2.2,0c0.8,0,1.6,0.1,2.3,0.2c0.3,0,2.9,0.3,1.8,0.2
				c4.3,0.6,8.5,1.4,12.7,2.2c9.2,1.8,18.3,3,27.6,4.3c15.6,2.1,31.4,3.9,46.9,6.5c7.3,1.2,14.7,2.7,22.1,3.6
				c7,0.8,14.2,0.3,21.1,2.1c-2-3.5-4-7.1-6-10.6c-6.8,22.2-10.6,50.1,3.9,70.3c2.5-4.3,5-8.7,7.5-13c-8.4,1.1-16.8,0.7-25.3,0.5
				c-7.7-0.2-15.2,0.7-22.9,1.1c-2.9,0.2-6.8-0.6-9.6,0.1c0.5,0.1,0.5,0.1-0.1,0c-0.6-0.2-0.6-0.1,0.1,0.1c1.4,1.6,1.7,1.8,0.8,0.4
				c0-0.1,0-0.1,0-0.2c0-1.6-1.1-3.6-1.4-5.3c-0.2-1.6-0.2-3.2-0.2-4.8c-0.1-3.7,0.1-7.4-0.1-11.1c-0.4-6.8-2.8-15.6-0.3-22.2
				c0.4-0.9,0.6-1.2,0.1-0.6c-0.6,0.6,1,0.1,0.3,0c1.9,0.3,3.5,0.3,5.5,0.7c5.2,1.2,10.4,3,15.9,3.2c6.2,0.2,12.5-1.8,18.5,0.6
				c-2-3.5-4-7.1-6-10.6c-3.6,16.4-4.2,33.5-1.7,50c2.8-3.7,5.6-7.3,8.3-11c-6.9,0.7-13.9-0.6-20.8-0.9c-7.4-0.3-14.6,1.2-22,1.7
				c2.9,2.9,5.8,5.8,8.7,8.7c-0.8-7.2,0.2-14.4-0.6-21.6c-0.4-3.5-1.2-6.9-1.7-10.4c-0.1-1,0.2-3.8-0.3-4.4c0-0.1,0-0.2,0-0.3
				c0.2-1.2-0.6-0.7-2.4,1.6c-0.7,0.1-0.7,0.2,0,0.1c0.5,0,1.1,0.1,1.6,0.1c1.2,0.1,2.4,0.3,3.7,0.4c2.6,0.2,5.4,0.1,7.7,0.6
				c-0.4-0.2-0.7-0.4-1.1-0.6c0.2,0.1,0.4,0.3,0.5,0.6c-0.5,0-0.5-1.8,0,0.4c0.5,1.9,1,3.8,1.3,5.8c0.7,3.5,1.2,7.7,0.7,11.7
				c0.2-1.7-0.3,0.9-0.3,1c-0.3,1-0.3,0.9,0.1-0.2c0.5-1,1.4-1.6,2.6-1.7c0.8-0.9,1.7-1.1,2.7-0.7c-1-0.3-1-0.3-0.2,0
				c-0.8-1.2,0.2,0.4-1-0.8c-4.6-4.8-6.8-14-9.1-20.9c-2.6-7.8-14.5-8.6-16.7,0c-1.9,7.5,1.3,14.7,9.3,16.3c2.7,0.5,5.4,0.4,8.1,0.6
				c1.8,0.2-0.5,0.3,0.3,0.1c1.2-0.4,0.8,1.4,0.2,0c-0.1-0.2-1-1.1-1.1-1.2c-0.3-0.2-0.3-2.6-0.2-0.1c0.4,9.3,14.9,12.3,17,2.3
				c0.7-3.4,2.2-8.1,6.4-7.9c-2.5-4.3-5-8.7-7.5-13c-0.1,0.2-0.3,0.5-0.4,0.7c1.7-1.3,3.4-2.7,5.2-4c-1.2,0.3-2.3,0.8-3.3,1.4
				c-9.6,5.6-0.9,20.6,8.7,14.9c-2.1,1.2,1.6-0.8,2.2-1.3c1.1-0.9,1.9-1.9,2.7-3.1c3.6-5.8-1.2-12.7-7.5-13
				c-12-0.6-20.7,9.6-23,20.6c5.7,0.8,11.3,1.5,17,2.3c-0.3-7.6-4.3-13.7-12-15.5c-2.6-0.6-5.3-0.6-7.9-0.7c-0.6,0-1.2-0.2-1.8-0.1
				c0.9-0.1,1.1,0.5,0.5,0c1.5,1.2,2.9,1.8,3.5,4c0.3,1,0,3,0.5,1.3c-5.6,0-11.1,0-16.7,0c3.2,9.6,6,20.1,12.9,27.8
				c8.2,9.2,22.9,8,25.6-5.2c1.2-5.7,0.6-11.5-0.3-17.2c-0.6-4.4-1.4-9.4-3.6-13.4c-3.6-6.6-10.1-8.5-17.2-8.9
				c-6-0.3-12.8-2.2-18.3,1.2c-8,5-7.1,15.5-5.7,23.5c1.5,8.9,0.5,17.6,1.5,26.6c0.5,4.4,3.6,9,8.7,8.7c7.4-0.5,14.6-2,22-1.7
				c6.9,0.2,13.9,1.6,20.8,0.9c6.1-0.6,9.2-5,8.3-11c-2-13.3-1.1-27.7,1.7-40.8c1.1-4.9-1.5-8.8-6-10.6c-8-3.1-15.9-0.3-24.1-1.2
				c-5.5-0.6-12.1-3.4-18.2-3.8c-7.2-0.5-14.2,2.6-17.6,9.2c-4.6,9-2.8,19.7-2.1,29.3c1,14.6-2.1,38.5,18.3,39.7
				c8.9,0.6,17.8-1.3,26.7-1.3c10.4,0,20.8,1,31.1-0.4c5.7-0.8,11.8-7,7.5-13c-11.8-16.4-7.7-38.9-2.2-56.9c1.3-4.4-1.6-9.5-6-10.6
				c-7.9-2-16-1.6-24.1-2.5c-7.6-0.9-15.2-2.6-22.8-3.8c-17-2.7-34.2-4.8-51.3-7c-1.9-0.2-3.8-0.5-5.7-0.7c-5.3-0.6,0.3,0.2-1.5-0.2
				c-1.5-0.3-3-0.5-4.5-0.8c-4.8-0.9-9.6-1.9-14.4-2.7c-6.6-1.2-20-5.1-25.2,1.2c-3,3.6-3.5,8.7,0,12.2
				C175.4,469.6,181.6,470.1,184.6,466.5L184.6,466.5z"/>
		</g>
	</g>
	<g>
		<g>
			<path class="st36" d="M172.4,478.1c6.6,0.3,13.2,2.8,19.7,3.7c8.1,1.1,16.2,0.7,24.3,1c10.1,0.4,22.8-0.7,32.1,4
				c-0.6-4.5-1.2-9.1-1.8-13.6c-9,8.5-11.1,22.4-11.8,34.1c-0.7,11.7,0,24.5,3.5,35.8c3.5-3.5,7.1-7.1,10.6-10.6
				c-14.7-3.7-29.3-1.7-44.3-0.9c-14.8,0.7-29.7,0.5-44.6,1c2.8,3.7,5.6,7.3,8.3,11c3.8-12.5,7.2-25.2,9.7-38
				c1.2-6.3,2.3-12.7,3.1-19.1c0.3-2.6,1-5.4,0.9-8.1c0-0.2,0.3-1.4,0.3-1.5c-2,3.2-4.3,4.3-7.1,3.2c0.4,0.2,0.7,0.4,1.1,0.6
				c1.3,4.5,0-4.3,0.9,1.5c0.3,1.5-0.9,4-1.4,5.5c-1.6,5-3.2,9.9-4.6,14.9c-2.8,10.3-6.5,21.7-6.3,32.4c0.1,5.6,4.5,9.9,9.8,11.1
				c6.2,1.4,12.4-1.7,16.6-6.3c4.7-5.1,5.3-11.6,6-18.2c0.7-7.3,0.9-14.6,1.7-21.8c0.3-2.8,0.4-4.2,1.1-7.5c0.3-1.1,0.5-2.2,0.9-3.2
				c-0.7,2-0.2,0.2,0.2-0.2c-1.3,1.4,0.4,0.4-1.5,1.4c-3.1,1.6-6.2,0.3-8.3-2.1c-1-1.1-0.9-1.5-0.3-0.5c0.2,0.4,0.4,2.2,0.1-0.3
				c0.4,2.7,0.2,5.5,0,8.3c-0.5,6.8-1.5,12.3-2.6,19.2c-0.9,5.6-2.2,11.5-2.1,17.3c0.2,9.3,8.2,19.2,17.9,13
				c8.7-5.6,9.6-18.5,10.4-27.6c0.8-9.6,0.2-19.6,2.8-28.9c0.2-0.6,0.3-1.2,0.5-1.8c0.4-1.4,0.6,0.1,0.4-1.1
				c0.1-0.2,0.2-0.4,0.4-0.6c-3.6,0.1-7.3,0.1-10.9,0.2c0.1-1.1,1,2.8,0.8,1.9c0.6,2.6-0.5,7.3-1.2,10.3c-1.7,7.8-4.2,15.4-4.7,23.4
				c-0.5,7.5-0.2,17.4,6.8,22c9,5.8,19-1.5,21.1-10.6c1.8-8.1,0.7-16.4,0.5-24.6c-0.2-6.5-1.7-17.6,3.9-22.1
				c-4.5-0.6-9.1-1.2-13.6-1.8c0.9,1.5,1.2,2.7,1.2,4.3c0.1,2.5-0.1,5-0.4,7.4c-0.7,5.2-2.1,10.8-2.9,16.1
				c-1.9,12.2-2.1,24.3,8.6,32.4c3.8,2.9,9.7,0.5,11.8-3.1c4.5-7.5,4.7-16.8,4.9-25.3c0.2-10.6,1-21.2,1-31.8
				c0-11.1-17.3-11.2-17.3,0c0,9.7-0.8,19.4-1,29.1c-0.1,6.1,0.7,13.8-2.6,19.3c3.9-1,7.9-2.1,11.8-3.1c0.1,0.1-0.6-1.2-0.8-2
				c-0.5-1.8-0.5-2.9-0.4-5.5c0.2-4.9,1.3-9.7,2.2-14.7c2-10.3,4.4-22.3-1.4-31.8c-3.2-5.2-9.2-5.2-13.6-1.8
				c-10.6,8.4-9.5,25.8-8.8,38c0.3,5.5,1.1,12.5-0.3,17.2c-0.3,1.1,0.1,0.6,0,0.3c-0.1,0.2-0.3,0.4-0.4,0.6c0.6-0.6,1.1-1.1,1.7-1.7
				c2.4-1.1,3.9,1,5.5,2.3c-1-0.8,0-0.5,0,0.2c0-0.4-0.4-1.1-0.4-1.5c-0.2-1.7-0.1-0.6-0.1-0.2c-0.1-0.9-0.1-1.8-0.2-2.7
				c-0.3-12.1,5.8-23.5,6-36.5c0.1-6.9-2.5-16.2-10-18.3c-8-2.2-12.7,5.1-14.7,11.6c-2.5,8.1-2.7,16.6-3.2,25
				c-0.3,5.4-0.5,10.9-1.4,16.3c-0.3,1.7-0.6,3.6-1.3,5.2c-0.3,0.6-1,1.4-1.1,2c0.1-0.3,1.6-0.9,0.1-0.2c1.5-0.4,2.9-0.8,4.4-1.2
				c1.7,1,3.4,2,5.2,3.1c-0.4-2.1-0.5-2.1-0.1,0c0-0.5-0.1-0.9,0-1.4c0.2-1.2,0.2-2.5,0.3-3.8c0-0.2,0.3-2.7,0.1-0.8
				c0.1-0.9,0.2-1.7,0.4-2.6c0.3-2.2,0.7-4.5,1-6.7c1.3-8.4,2.8-16.8,3-25.3c0.2-6.9-1.1-15.9-9.1-18c-9.2-2.4-14.5,6.4-16.2,14
				c-1.9,8.3-2.1,17-2.7,25.5c-0.1,2-0.3,4.1-0.5,6.1c-0.1,0.9-0.2,1.9-0.3,2.8c0,0.1-0.4,3-0.1,1.1c-0.2,1.4-0.6,2.7-0.8,4
				c-0.3,1.7,1.1-1.2,0.1-0.2c-0.2,0.2-1.5,1.3-1.7,1.8c1.6,2.1,3.2,4.3,4.8,6.4c0.1-0.7,0.2-1.5,0.3-2.2c0.2-1.4,0.2-2.8,0.4-4.1
				c0.4-3.3,1.2-6.6,1.9-9.8c1.6-6.9,3.3-14,5.5-20.7c3.9-12,7.8-25-5.3-32.9c-5.4-3.2-12-3.7-16.5,1.2c-4.9,5.3-4.1,14.3-5,20.9
				c-2.6,17.3-6.9,34.3-12,51.1c-1.6,5.3,2.8,11.1,8.3,11c14.2-0.5,28.5-0.4,42.7-1c13.8-0.5,27.9-3.2,41.5,0.2
				c6.2,1.6,12.7-4.2,10.6-10.6c-2.9-9.2-3.4-19-3-28.6c0.2-5,0.7-9.9,2-14.8c1.1-4,2.6-7.5,4.9-9.6c3.9-3.7,3.2-11.1-1.8-13.6
				c-11.6-5.9-25.4-5.8-38.1-6.3c-8.1-0.3-16.3,0.3-24.3-0.7c-7.6-1-14.8-3.8-22.4-4.1C161.3,460.4,161.3,477.7,172.4,478.1
				L172.4,478.1z"/>
		</g>
	</g>
	<g>
		<g>
			<path class="st31" d="M26.4,221.8c-3.6-5.3-4-12.6-4.1-18.8c-5.5,0-11,0-16.4,0c0.5,22.9,4.6,45,14.3,65.8
				c4.6,10,11,18.3,18.3,26.4c3.8,4.2,7.6,8.1,12.1,11.4c4.1,3,8.3,5.7,11.7,9.4c4.7,5.1,14.4,1.2,14-5.8
				c-0.6-11.4,6.7-21.9,4.2-33.5c-1-4.5-4-6.9-8.1-8.5c-4.6-1.8-8.8-4-13-6.6c-18.9-11.7-28.7-30.3-37.8-49.9
				c-4.7,2.8-9.5,5.5-14.2,8.3c1,1.9,1.7,3.7,2.2,5.8c2.4,10.3,18.2,5.9,15.8-4.4c-0.8-3.4-2.3-6.6-3.9-9.7
				c-4.7-9.5-18.6-1.2-14.2,8.3c8.8,18.8,18.8,38,35.9,50.6c4.3,3.2,9,6.1,13.7,8.6c2.5,1.4,5.2,2.6,7.9,3.6
				c0.8,0.3,1.7,0.8,2.5,0.9c1.3,0.2-0.5-0.6-1.5-1.8c-2-2.5-1-2.4-1.3-1.3c-0.3,1,0.1,2.4,0,3.4c-0.3,2.7-1.1,5.3-1.8,7.9
				c-1.6,5.9-3.1,11.9-2.8,18.1c4.7-1.9,9.3-3.9,14-5.8c-6.5-7.1-15.2-11.3-21.7-18.5c-6.7-7.5-12.8-14.7-17.2-23.8
				c-8.9-18.6-12.4-38.7-12.8-59.2c-0.2-10.6-16.5-10.6-16.4,0c0.1,9,1.1,19.5,6.3,27.1C18.1,238.8,32.3,230.6,26.4,221.8
				L26.4,221.8z"/>
		</g>
	</g>
	<g>
		<g>
			<path class="st31" d="M16.5,231.8c9.6,22.1,25.3,40.6,37.2,61.4c2.4-4.1,4.7-8.2,7.1-12.4c0.1,0-1.2-0.4-2.3-1.3
				c-2.1-1.6-4-3.9-5.6-6c-2.8-3.6-5.2-7.5-7.9-11.2c-4.3,3.3-8.6,6.6-12.9,10c7,7.3,14.3,14.3,21.6,21.2c6.9,6.5,17.1-1.7,12.9-10
				c-2.5-4.9-6.6-8.6-9.5-13.2c-2.9-4.7-4.8-9.6-8.2-14c-2.8-3.5-8.7-2.9-11.6,0c-3.4,3.4-2.8,8.1,0,11.6c2.8,3.5,4,8.2,6.5,12
				c2.8,4.1,6.4,7.5,8.7,11.9c4.3-3.3,8.6-6.6,12.9-10c-7.4-6.9-14.7-13.9-21.6-21.2c-6.3-6.6-18.5,2.3-12.9,10
				c7.4,10.2,15.6,26.3,30,26.6c6.3,0.1,10.1-7,7.1-12.4c-11.9-20.8-27.6-39.3-37.2-61.4c-1.8-4.1-7.7-5-11.2-2.9
				C15.2,223.1,14.7,227.7,16.5,231.8L16.5,231.8z"/>
		</g>
	</g>
	<g>
		<g>
			<path class="st31" d="M25,217.3c0.2-1.2,0.5-2.4,0.3-3.6c-0.4,1.4-0.7,2.8-1.1,4.1c0.1-0.3,0.3-0.5,0.4-0.8
				c-4.3,0.6-8.6,1.1-12.9,1.7c6.6,5.7,8.3,16.5,11.7,24.2c5,11.2,11.8,21.9,20.3,30.7c7.4,7.6,19-4,11.6-11.6
				c-7.8-8-14.1-18.3-18.2-28.7c-3.6-9-6.2-19.6-13.8-26.3c-3.8-3.3-10.3-3.3-12.9,1.7c-0.5,0.9-0.9,1.8-1.2,2.7
				c-0.5,2.4-0.5,2.9,0,1.4c-0.7,4.4,1.1,8.8,5.7,10.1C18.8,224.1,24.4,221.7,25,217.3L25,217.3z"/>
		</g>
	</g>
	<g>
		<g>
			<path class="st31" d="M75.1,284.4C75.1,284.4,75.1,284.4,75.1,284.4c-0.7-0.1-1.4-0.2-2.1-0.3c0.1,0,0.2,0,0.2,0.1
				c-0.7-0.3-1.3-0.6-2-0.8c1.1,0.5,2,1.1,3.2,1.5c0.1,0,2.1,0.3,2.2,0.3c0.7-0.1,1.5-0.2,2.2-0.3c0.7-0.3,1.3-0.6,2-0.8
				c0.3-0.2,0.6-0.4,0.8-0.6c0.6-0.4,1.1-0.9,1.5-1.5c0.7-0.8,1.2-1.7,1.5-2.8c0.1-0.7,0.2-1.5,0.3-2.2c0.1-1.6-0.2-2-0.7-3.2
				c-0.3-0.8-0.2-0.7-0.4-1c-0.2-0.3-1.1-1.4-1.3-1.7c-0.1-0.1-0.1-0.1-0.2-0.2c-0.7-0.8-1.6-1.4-2.6-1.7c-1-0.5-2-0.8-3.2-0.7
				c-1.1,0-2.2,0.2-3.2,0.7c-1,0.3-1.9,0.9-2.6,1.7c-1.4,1.6-2.5,3.6-2.4,5.8c0.1,2.2,0.8,4.2,2.4,5.8c0.1,0.1,0.1,0.1,0.2,0.2
				c-0.4-0.6-0.9-1.1-1.3-1.7c0,0,0,0,0,0.1c-0.4-1.4-0.7-2.8-1.1-4.1c0,0,0,0,0,0c1.4-2.4,2.7-4.7,4.1-7.1c0,0,0,0,0,0
				c1.4-0.4,2.8-0.7,4.1-1.1c0,0,0,0,0,0c0.7,0.1,1.5,0.2,2.2,0.3c0,0,0,0-0.1,0c0.7,0.3,1.3,0.6,2,0.8c-0.3-0.1-0.5-0.3-0.8-0.4
				c-1.7-0.9-2.9-1.2-4.8-1.4c-1.1,0-2.2,0.2-3.2,0.7c-1,0.3-1.9,0.9-2.6,1.7c-0.8,0.7-1.4,1.6-1.7,2.6c-0.5,1-0.8,2-0.7,3.2
				c0.1,2.1,0.8,4.3,2.4,5.8c0.6,0.4,1.1,0.9,1.7,1.3C72.2,284,73.6,284.3,75.1,284.4L75.1,284.4z"/>
		</g>
	</g>
	<g>
		<g>
			<path class="st31" d="M261.5,380.8c-7,0.8-14.9,1.5-18.5,8.6c-4.4,8.6,2.3,16.5,10.6,18.4c3.4,0.8,7,0.9,10.5,1.2
				c1.1,0.1,2.2,0.3,4.2,0.6c3.1,0.4,6.3,0.8,9.5,1c10.6,0.8,21.3,0,31.7-2.1c16.9-3.5,31.7-14.2,41.4-28.3
				c10.1-14.6,13-32.2,10.1-49.5c-1.6-10-5.6-19.2-8.2-28.9c-1.9-7.1-3.5-15.9-10-20.2c-5.6-3.7-14.8,2.6-12.1,9.3
				c4.8,11.8,2.5,24.8,2.2,37.1c-0.2,7,0.9,14.5-1.2,21.3c-1.7,5.3-5.2,10.2-9.1,14.1c-7.6,7.6-17.7,11.9-28,14.6
				c-5.1,1.3-10.4,2.3-15.6,2.9c-7,0.8-13.1,0.7-18.8,5.4c-3.9,3.3-2.8,10.7,1.7,12.9c14.5,7.2,34.1,3.6,48.7-1.8
				c14.9-5.5,33.2-13.1,37.7-30c2.8-10.2-13.1-14.6-15.8-4.4c-2.9,10.6-18,15.5-27.2,18.8c-5.8,2.1-12,3.5-18.1,4.2
				c-5.3,0.6-12.2,1.3-17.1-1.1c0.6,4.3,1.1,8.6,1.7,12.9c0.6-0.5,5.9-0.4,7.2-0.6c3.4-0.4,6.8-0.8,10.1-1.4c5.8-1,11.5-2.3,17-4.2
				c12.1-4.1,23.6-10.7,31.7-20.8c4.5-5.5,8.5-11.9,10.2-18.9c1.8-7.6,1.3-15.5,1.4-23.2c0.2-14,2.7-28.9-2.8-42.3
				c-4,3.1-8,6.2-12.1,9.3c-1.2-0.8-0.9-1.4-0.8-0.3c0,0.6,0.6,1.6,0.9,2.3c0.9,2.6,1.5,5.2,2.3,7.8c1.5,5.6,3.7,10.9,5.4,16.4
				c3.8,13,5.3,26.2,0.3,39.1c-4.1,10.6-12,19.8-21.8,25.5c-12,7.1-26.6,8.4-40.2,7.7c-7-0.3-14.4-1.1-21.3-2.2
				c-0.6-0.1-2.5-0.7-2.6-0.6c0.7-0.5,1.5,7.2,0.1,6.4c0.3,0.2,3.6-0.6,4.9-0.8c4.4-0.5,8.2-3.4,8.2-8.2
				C269.7,385,265.9,380.3,261.5,380.8L261.5,380.8z"/>
		</g>
	</g>
	<g>
		<g>
			<path class="st31" d="M296.7,400.5c16.2,7.3,39.2,0,51-12.5c6.8-7.2-1.7-16.5-10-12.9c-6.4,2.8-11.3,7.9-15.9,13
				c-5,5.5-1.3,13.4,5.8,14c8.7,0.8,16.2-6,21.5-12.2c6.4-7.5,11.5-15.5,14-25.1c3-11.4,2.6-23.2,0-34.7c-1.3-5.6-3-11-5.2-16.3
				c-2.1-5-4.4-9.8-5.5-15.1c-5,2.1-10,4.2-15,6.3c4.1,6.1,7.3,12.8,9.8,19.7c2.2,6.2,5,14.5,3.3,20.2c-3,10.2,12.9,14.5,15.8,4.4
				c2.7-9,0.2-19.1-2.8-27.7c-3-8.6-6.8-17.3-11.9-24.9c-5.3-7.9-16.8-2.9-15,6.3c1.7,8.8,6.7,16.5,9.1,25.1
				c2.5,9,4.1,18.1,2.7,27.4c-1.2,7.6-4.2,14.3-8.9,20.3c-2.7,3.4-7.5,10.1-11.8,9.8c1.9,4.7,3.9,9.3,5.8,14
				c3.8-4.2,7.4-8.1,12.6-10.4c-3.3-4.3-6.6-8.6-10-12.9c-4,4.2-9.5,6.9-15,8.7c-4.6,1.5-11.4,3.5-16.2,1.3c-4-1.8-8.8-1.2-11.2,2.9
				C291.7,392.7,292.7,398.6,296.7,400.5L296.7,400.5z"/>
		</g>
	</g>
	<g>
		<g>
			<path class="st31" d="M73.6,605.6c7.3,10,21.1,11,32.5,8.5c13.5-3,21.4-14.7,23.6-27.7c0.7-3.8-0.5-7.1-3.8-9.3
				c-6.7-4.4-16.6-5.6-24.1-2.7c-7.5,2.9-11.2,10.7-18.4,13.9c-7.7,3.4-3.5,15.4,4.1,15.3c12.8-0.2,23.4-5.3,31.3-15.4
				c-4.7-1.9-9.3-3.9-14-5.8c-0.1,1.4-2.1,3.7-2.8,4.9c-4.7,8.7,5.8,15.5,12.9,10c4.2-3.3,7-8.7,11.7-11.3
				c-3.7-3.7-7.5-7.5-11.2-11.2c-0.2,0.3-0.3,0.5-0.5,0.8c1-1,2-2,2.9-2.9c-0.3,0.2-0.5,0.3-0.8,0.5c-9.1,5.4-0.8,19.6,8.3,14.2
				c1.9-1.1,3.1-2.4,4.2-4.2c4.4-7.3-4.2-15-11.2-11.2c-6.2,3.3-9.7,9.6-15.1,13.8c4.3,3.3,8.6,6.6,12.9,10c2.4-4.4,4.5-8.1,5-13.2
				c0.7-6.8-9.7-11.3-14-5.8c-5.4,6.8-10.9,10.4-19.7,10.6c1.4,5.1,2.8,10.2,4.1,15.3c5.9-2.6,9.1-7.7,14-11.6
				c3.4-2.6,8.4-1.9,11.8,0.3c-1.3-3.1-2.5-6.2-3.8-9.3c-0.7,4-1.6,8.1-4.1,11.4c-2.1,2.8-4.4,3.9-7.1,4.6c-3,0.8-6.3,1-9.4,0.7
				c-1.4-0.1-2.8-0.3-4.1-0.8c-0.5-0.2-2.1-1.3-1.5-0.5c-2.6-3.6-7.1-5.4-11.2-2.9C73,596.4,71,602,73.6,605.6L73.6,605.6z"/>
		</g>
	</g>
	<g>
		<g>
			<path class="st31" d="M310.8,569c-4.9-0.4-10.3-0.6-14.1,3c-3.6,3.3-4.1,7.9-3.3,12.5c1.7,9.9,5,21.8,16.2,24.3
				c8.5,1.8,19.3-0.8,27.6-2.7c9.2-2.1,18.5-5.3,24.4-13.1c4.2-5.5-2.9-14.6-9.3-12.1c-3.8,1.5-11.5,3.8-15.3,1.3
				c-0.2-0.1,1.1,1.6-0.1-0.4c-0.6-1-0.9-2.3-1.2-3.4c-0.5-1.6-0.9-3.2-1.3-4.8c-0.1-0.3-0.8-4.1-0.6-2.6c-0.5-4-3.4-8.8-8.2-8.2
				c-7.1,0.9-14.8,2.4-19.1,8.8c-4.2,6.2-2.9,15.3,1.8,20.9c10.5,12.5,28.9-1.9,19.6-15.2c-1.9-2.7-5.8-5.2-9.3-3.8
				c-4,1.6-6.6,3.5-8.8,7.2c-5.5,9.1,8.7,17.3,14.2,8.3c-0.3,0.1-0.7,0.2-1,0.3c-3.1-1.3-6.2-2.5-9.3-3.8c1.2,1.7,0,0,0.5-1.6
				c0.2-0.8,1-1.8,1.8-2.3c1.1-0.7,2.1-0.8,3.2-0.4c0.9,0,1.6,0.4,2,1.2c-0.2,0.1-0.8-2.1-0.9-2.2c-0.2-0.7-0.8,0.5,0.2,0.3
				c1.7-0.4,3.2-1.1,5-1.3c-2.7-2.7-5.5-5.5-8.2-8.2c1.1,8.5,3.1,20,10.9,25c8,5,19.9,4,28.5,0.7c-3.1-4-6.2-8-9.3-12.1
				c0.6-0.8-0.7,0.4-0.9,0.6c-1.1,0.8-2.4,1.4-3.6,2c-2.2,1-4.6,1.6-7,2.2c-5.6,1.5-11.4,2.4-17.2,2.9c-1.3,0.1-4.5,0.9-5.6,0.4
				c-1-0.4-1.5-3.4-1.9-4.8c-0.3-1-2.1-7.5-1.8-7.6c-0.2,2.2-1.3,3.8-3.6,4.6c-0.9,0-0.8,0,0.3,0c1.5,0.2,3.2,0.1,4.7,0.3
				C321.3,586.4,321.3,570,310.8,569L310.8,569z"/>
		</g>
	</g>
	<g>
		<g>
			<path class="st31" d="M85.3,16.8c-5,11.7-2.4,24-0.7,36.1c1.9,14,2.4,27.8,6,41.5c3.2,12,8.4,23.9,15.7,34.1
				c3.6,5,7.6,9.8,12.3,13.9c5.4,4.7,11.6,7.7,17.2,12c3.5,2.7,9.2,0.5,11.2-2.9c2.5-4.2,0.6-8.5-2.9-11.2
				c-4.5-3.4-9.6-5.7-13.9-9.4c-4-3.5-7.6-7.5-10.6-11.8c-6.1-8.8-10.5-18.6-13.2-28.9c-3.2-12.2-3.8-24.3-5.4-36.8
				c-0.7-5.2-1.6-10.3-2-15.5c-0.3-3.8-1.1-9.1,0.5-12.7c1.7-4.1,1.2-8.8-2.9-11.2C93.1,11.8,87,12.7,85.3,16.8L85.3,16.8z"/>
		</g>
	</g>
	<g>
		<g>
			<path class="st31" d="M110.8,29.6c2.8,8.6,8,15.9,11.4,24.2c3.8,9.1,5.4,19.7,7.4,29.4c1.9,9.2,4.1,18.4,5,27.8
				c0.9,9.9-0.8,18.8-2.6,28.4c2.6-2,5.3-4,7.9-6c-0.9,0-1.7,0-2.6,0c-10.6,0-10.6,16.4,0,16.4c0.9,0,1.7,0,2.6,0
				c3.4,0,7.2-2.5,7.9-6c1.9-10.1,4.1-19.8,3.4-30.1c-0.6-10.6-2.9-21-5.1-31.4c-2.1-10.2-3.9-21-7.4-30.9
				c-3.2-9.1-9.2-17-12.2-26.1C123.4,15.2,107.5,19.5,110.8,29.6L110.8,29.6z"/>
		</g>
	</g>
	<g>
		<g>
			<path class="st31" d="M105.3,21.8c0,2-1.9,2.4-0.3,2c1.4-0.4,1.3-0.6,2-1c6.2-2.6,8.6-11.1,2-15c-0.7-0.4-1.4-0.9-2.2-1.3
				c-2.1,5-4.2,10-6.3,15c3,0.6,5,1.8,7.2,3.9c3.3-4.3,6.6-8.6,10-12.9c-0.5-0.3-1-0.9-1.4-1.4c-3.7,3.7-7.5,7.5-11.2,11.2
				c1.4,0.6,1.5,0.4,2.2,1.8c3.7-3.7,7.5-7.5,11.2-11.2c-6-3.3-13.1-5.9-19.7-2.5c-5.4,2.9-8.2,8.7-10.6,14.1c5,0.7,10,1.3,15,2
				c-0.3-0.7-0.6-1.4-0.9-2.2c-1.6-4.1-5.5-7-10.1-5.7c-3.9,1.1-7.4,6-5.7,10.1c0.3,0.7,0.6,1.4,0.9,2.2c1.2,3.1,3.3,5.5,6.8,5.9
				c3,0.4,6.9-0.9,8.2-3.9c0.9-1.9,1.7-3.8,2.7-5.7c0.4-0.7,0.8-1.5,1.4-2.2c-0.9,1.2,0.5-0.5,0.7-0.5c-0.3,0.1-2.4,1.2-0.8,0.6
				c-1.3,0.5,0.2,0.4-0.8,0c1.7,0.6,2.8,1,4.7,2c7.4,4.1,14.9-4,11.2-11.2c-1.7-3.4-4.7-6.1-8.1-7.7c-3.4-1.6-7.2-1.5-10,1.3
				c-2.4,2.4-3.5,7.1-1.3,10c2.2,2.9,4.1,5.3,7.3,7.3c7.9,4.9,16.6-6.4,10-12.9c-4.1-4-8.8-7-14.4-8.2c-8.9-1.9-14.6,10.1-6.3,15
				c0.7,0.4,1.4,0.9,2.2,1.3c0.7-5,1.3-10,2-15c-6.8,2.9-13.9,6.3-13.8,14.8C89,32.4,105.4,32.4,105.3,21.8L105.3,21.8z"/>
		</g>
	</g>
	<g>
		<g>
			<path class="st31" d="M118.1,141c-7.2,5.1-7.7,12.9-8.4,20.9c-0.8,9.1,14.7,11.3,16.1,2.2c0.9-5.8,4.2-10.4,4.2-16.5
				c0-9.7-13-10.6-16.1-2.2c-6.1,16.3-9.8,33.4-12.8,50.5c-2.6,15.1-4.3,30.5-7.6,45.4c-1.2,5.3-2.5,10.6-3.3,15.9
				c-0.8,5.5-1.7,11.8,1.2,16.9c3.2,5.5,9.8,7.4,15.5,9.3c6,2,11.9,7.5,18.2,11c2.1-5,4.2-10,6.3-15c-6.9-2.8-13.7-5.5-19.7-10
				c-1.4,5.1-2.8,10.2-4.1,15.3c6,0.6,11.8,6.4,17,9.2c7.4,3.9,15.6,5.6,23.5,8.2c8.5,2.8,16.5,6.5,25.2,8.7c4,1,8,2,12,2.8
				c2.6,0.5,5.7,1.5,8.3,1.2c3.7-0.5,6.8-2.2,7.9-6c0-0.1,0-0.2,0.1-0.2c3-10.2-12.8-14.5-15.8-4.4c0,0.1,0,0.2-0.1,0.2
				c2.6-2,5.3-4,7.9-6c-4.6,0.6-14-2.8-19.6-4.4c-8.5-2.5-16.6-6.1-25.1-8.7c-7.6-2.4-14.6-4.4-21.3-8.6c-6.4-4-12.4-7.5-20-8.3
				c-3.5-0.4-7,2.8-7.9,6c-1,3.8,0.8,7.1,3.8,9.3c7.1,5.3,15.5,8.3,23.6,11.6c8.7,3.5,14.4-10.6,6.3-15c-6.3-3.4-11.5-8.3-18.2-11.1
				c-2.4-1-5-1.7-7.4-2.7c-0.6-0.2-1.7-0.9-2.4-1.1c-1.3-0.9-1.2-0.7,0.2,0.5c0.4,1.1,0.5,1.1,0.2,0.1c0,0.2,0.1,0.4,0.1,0.6
				c0-0.6,0-1.2,0-1.8c0-1,0.1-2.1,0.2-3.1c0.3-2.4,0.8-4.8,1.3-7.2c0.9-4.3,2-8.6,2.8-12.9c5.6-30.8,8.5-62.3,19.6-91.9
				c-5.4-0.7-10.8-1.5-16.1-2.2c0,4.2-2.9,8-3.6,12.1c5.4,0.7,10.8,1.5,16.1,2.2c0.1-1.6,0.2-3.2,0.4-4.8c0.2-1.4,1.6-3.2-0.2-2
				C134.9,149.1,126.7,134.9,118.1,141L118.1,141z"/>
		</g>
	</g>
	<g>
		<g>
			<path class="st31" d="M140.6,146.6c-0.3-0.2-0.6-0.5-0.8-0.8c-2.1-2.6-7.2-3.2-10-1.3c-7.5,5.2-7,18.4-8.5,26.6
				c-1.9,9.8-4.6,19.5-7.1,29.2c-5,19.5-10.2,39.1-13.8,58.9c-1.1,6.3,5.7,13.9,12.1,9.3c12.3-8.8,13.7-26.7,15.8-40.5
				c3-19.3,8.3-38.9,15.6-57c-5.4-0.7-10.8-1.5-16.1-2.2c0.2,6.2-1.7,12.1-3,18.1c-1.4,6.4-2.7,12.9-3.8,19.4
				c-2,11-3.4,22.2-5.6,33.2c-2.8,14-9.4,35,1.4,47.1c2.8,3.1,8.8,3.2,11.6,0c4.2-4.8,5.4-10.1,6.1-16.3c0.7-6.5,2-12.9,3.2-19.3
				c2.7-14.2,4.8-28.5,8.9-42.4c-5.3,0-10.6,0-15.8,0c2.2,10-3.4,21.7-6.1,31.1c5.4,0.7,10.8,1.5,16.1,2.2
				c-0.6-5.3,1.4-11.1,3.7-16.4c2.2-5.1,5.5-11.6,10-13.7c-3.7-3.7-7.5-7.5-11.2-11.2c-2.4,3.9-5.7,7.1-7.8,11.2
				c-4.2,8.3,5.8,16.3,12.9,10c10.6-9.5,24.5-13.2,38.4-14.1c13.2-0.8,26.9-0.2,39.8,2.9c12.2,2.9,24.5,7.9,33,17.3
				c8,8.8,12.9,22,3.5,31.6c4.6,2.7,9.2,5.3,13.7,8c1.5-9.1,4.3-17.9,3.3-27.3c-0.5-4.4-3.4-8.2-8.2-8.2c-4.1,0-8.7,3.8-8.2,8.2
				c0.9,8-1.5,15.1-2.7,22.9c-1.2,7.6,7.5,14.3,13.7,8c21.4-21.8,4.6-52.8-17.7-66.1c-22.1-13.2-51.4-16.1-76.5-13.1
				c-16.3,1.9-31.4,7.3-43.7,18.3c4.3,3.3,8.6,6.6,12.9,10c2.1-4.1,5.4-7.3,7.8-11.2c4.6-7.6-4.2-14.5-11.2-11.2
				c-7.6,3.5-12.6,12.2-15.9,19.6c-3.3,7.4-6.8,16.4-5.9,24.7c1,8.7,13.5,11.7,16.1,2.2c3.6-12.8,9.1-26.3,6.1-39.8
				c-1.8-8.2-13.7-7.5-15.8,0c-3.7,12.6-5.7,25.6-8.1,38.5c-1.2,6.5-2.5,13-3.5,19.5c-0.5,3.2,0.1,10.1-2.2,12.8c3.9,0,7.7,0,11.6,0
				c0.8,0.9-0.1-0.5,0,0c0.1,0.6-0.4-1.6-0.4-1.5c-0.2-1.1-0.3-2-0.4-3.4c-0.1-3.5,0.2-7,0.6-10.4c0.9-6.7,2.6-13.3,3.7-20
				c1.9-11.8,3.8-23.7,6.1-35.5c2.2-11.5,6.5-23.6,6.2-35.4c-0.3-9.8-12.8-10.5-16.1-2.2c-6.9,17-12.2,35.7-15.1,53.8
				c-1.1,6.6-1.9,13.2-3.4,19.7c-0.8,3.4-1.6,6.9-3,10.1c-0.4,0.8-0.9,1.8-1.4,2.6c-0.3,0.4-1.5,1.8-1,1.4c4,3.1,8,6.2,12.1,9.3
				c3.3-18.6,8.2-36.9,12.8-55.2c2.3-9.1,4.9-18.1,6.9-27.3c2-8.9,2.5-18.3,5.4-27c-1.3,1.6-2.5,3.3-3.8,4.9
				c0.2-0.1,0.4-0.2,0.5-0.4c-3.3-0.4-6.6-0.9-10-1.3c0.2,0.3,0.5,0.6,0.8,0.8C136.7,165.5,148.3,153.9,140.6,146.6L140.6,146.6z"/>
		</g>
	</g>
	<g>
		<g>
			<path class="st31" d="M125.3,235.5c1,7.2,2.5,14,5,20.8c2.1,5.9,2.7,11.6,4,17.7c2.2,10.3,18,6,15.8-4.4
				c-1.1-5.4-1.5-10.8-3.3-16c-2.1-5.9-4.2-11.9-5-18.1c-0.6-4.4-3.4-8.2-8.2-8.2C129.5,227.3,124.7,231,125.3,235.5L125.3,235.5z"
				/>
		</g>
	</g>
	<g>
		<g>
			<path class="st31" d="M129.4,268.5c7.3,7.1,16.2,12.6,25.7,16.4c8.6,3.4,14.5-10.8,6.3-15c-2.5-1.3-4.9-2.6-7.4-3.9
				c-8-4.1-17,6.2-10,12.9c8.1,7.6,19.1,10.9,29.8,12.5c6.2,0.9,12.4,1.4,18.6,2.3c7.3,1,14.4,1.8,21.8,0.5
				c6.9-1.2,13.7-3.6,20.5-5.3c6.3-1.6,12.9-2.6,18.8-5.3c4.6-2.1,8.7-5,12.9-7.8c2-1.4,4.1-2.8,6.2-4.1c0.7-0.4,1.5-0.9,2.2-1.2
				c0.4-0.2,0.1-0.1,1.4-0.3c4.4-0.6,6.8-6.2,5.7-10.1c-1.3-4.7-5.7-6.4-10.1-5.7c-7.9,1.2-15,8.4-21.6,12.4
				c-4.6,2.7-9.3,3.7-14.4,4.9c-6.3,1.5-12.6,3.1-18.8,4.8c-6.4,1.8-11.9,2.2-18.5,1.5c-5.9-0.7-11.9-1.5-17.8-2.1
				c-8.3-0.9-18.6-2.6-24.9-8.6c-3.3,4.3-6.6,8.6-10,12.9c2.5,1.3,4.9,2.6,7.4,3.9c2.1-5,4.2-10,6.3-15c-6.7-2.7-13.3-7.2-18.4-12.2
				C133.4,249.6,121.8,261.2,129.4,268.5L129.4,268.5z"/>
		</g>
	</g>
	<g>
		<g>
			<path class="st31" d="M133.1,286.2c1.3-0.3,3.7,0.2,6,0.8c2.7,0.8,5.4,1.8,8,2.9c5.9,2.5,11.5,5.4,17.5,7.5
				c8.8,3.1,14.6-10.7,6.3-15c-0.8-0.3-1.5-0.8-2.2-1.3c-0.7,5-1.3,10-2,15c10.7-2.9,22.9,2.3,33.7,2.5c0-5.5,0-11,0-16.4
				c-8.7,0.7-18-0.2-24.8,6.3c-3,2.8-3.4,8.9,0,11.6c4.3,3.4,8.7,4.7,14.2,5c3.6,0.2,8.4-0.9,11.6,1c0-4.7,0-9.5,0-14.2
				c-4.6,3.5-13.2,4-13.3,12.1c-0.2,9.3,11.5,11.8,18.7,11.5c19.5-1,39.3-7,57.6-13.5c16.3-5.7,32-12.7,47.6-19.6
				c5.7-2.5,12.9-5.6,16.2-11.3c3.5-6,1.1-14.1-1-20.2c-2.4-6.8-5.5-13.1-8.8-19.5c-4-7.7-8.1-16.4-14.8-22.2
				c-4.1-3.5-12.7-3-13.7,3.6c-2,13.5,4.5,24.7,6.7,37.7c0.7,3.9,1,8.2-2.2,10.7c-4.1,3.1-9.6,4.5-14.3,6c-6,2-11.7,4.7-17.7,6.9
				c-7.9,3-16,5.4-23.8,8.4c-4.4,1.7-11.2,6.5-16,6.1c-0.7-0.1-3.9-1.9-5.6-2.2c-4-0.8-7.6,0.2-11.1,2c-7.2,3.7-3.9,15.6,4.1,15.3
				c21.8-0.9,40.2-13.8,59.7-21.9c4.1-1.7,7-5.4,5.7-10.1c-1.1-3.9-6-7.5-10.1-5.7c-17.7,7.4-35.7,20.5-55.3,21.3
				c1.4,5.1,2.8,10.2,4.1,15.3c-0.2,0.1-2-1.1,0.3,0.2c1.3,0.7,2.9,1.3,4.3,1.7c3.6,0.9,7.3,0.4,10.9-0.7c6.6-2,12.9-5.4,19.4-7.7
				c14.4-5,27.4-10.1,41.2-15c12.6-4.5,23.1-11.5,23.2-26.2c0-6.7-2-13.3-3.9-19.7c-1.7-5.4-4.6-12.2-3.7-18
				c-4.6,1.2-9.2,2.4-13.7,3.6c5.1,4.4,8.2,11.1,11.3,17c2.6,5,5.4,10,7.3,15.2c1.1,3,2.3,6,2.8,9.2c0.3,1.1,0.3,1.4,0.1,0.9
				c-0.1,1.1,0,1.2,0.2,0.4c-0.5-0.4,1.7-1.4,0.4-0.8c-5.4,2.5-10.4,5.5-15.9,7.8c-16,6.6-31.5,13.7-48,18.9
				c-9.4,3-18.9,5.6-28.5,7.4c-3.9,0.7-7.9,1.4-11.9,2c-1.8,0.2-3.9,0.5-5.8,0.3c-2.4-0.3-1.9-1.3-0.5,1.2c0.4,1.4,0.7,2.8,1.1,4.1
				c0-0.1,0-0.3,0-0.4c-0.4,1.4-0.7,2.8-1.1,4.1c-2,1.7-2.5,2.3-1.4,1.6c0.4-0.2,0.5-0.2,0-0.1c0.8-0.1,1.6-0.6,2.3-0.9
				c1.9-0.8,3.8-1.5,5.5-2.7c4.7-3.6,5.8-10.8,0-14.2c-4.1-2.3-8.5-3-13.2-3.2c-2-0.1-7.7,1-9.4-0.3c0,3.9,0,7.7,0,11.6
				c2.3-2.2,9.9-1.2,13.2-1.5c10.4-0.8,10.7-16.2,0-16.4c-12.8-0.2-25.4-5.3-38.1-1.9c-7.3,1.9-7.5,11.1-2,15c0.7,0.5,1.4,1,2.2,1.3
				c2.1-5,4.2-10,6.3-15c-12.7-4.4-26.2-14.7-40.3-11.2C118.4,272.9,122.8,288.7,133.1,286.2L133.1,286.2z"/>
		</g>
	</g>
	<g>
		<g>
			<path class="st31" d="M272.6,219.7c4.5,4.8,6.6,12.6,7.5,19.2c1,7,1.1,15.3-2.7,21.5c-3.3,5.3,1,12.4,7.1,12.4
				c17.2-0.2,18.5-23.4,18.7-35.9c0.2-15.2-1-31.4-4.5-46.2c-1.7-7.3-3.2-14-3.1-21.6c0.1-7.7,4.4-14.3,5.9-21.8c-2.6,2-5.3,4-7.9,6
				c11.2-0.2,18.5-9.3,25.7-16.7c7.4-7.6-4.2-19.2-11.6-11.6c-3.4,3.4-8.9,11.8-14.1,11.9c-3.4,0-7.2,2.5-7.9,6
				c-1.6,8.1-5.8,15.1-6.3,23.4c-0.7,9.4,1.1,18.6,3.3,27.7c1.9,7.6,2.4,13.1,3.1,20.4c1,10,1.5,20.3,0.7,30.3
				c-0.3,3.1-0.7,6.9-2.2,10.8c0.7-1.7-0.1,0-0.3,0.4c-0.2,0.3-0.4,0.7-0.6,1c0.7-0.9,0.8-1,0.3-0.4c-0.6,0.6-0.5,0.5,0.5-0.3
				c-0.3,0.2-0.5,0.4-0.8,0.5c0.6-0.3,1.9-0.5,1.3-0.5c2.4,4.1,4.7,8.2,7.1,12.4c5.6-9.1,6.2-20.7,4.8-31.1
				c-1.4-10.6-4.7-21.6-12.2-29.5C276.9,200.4,265.3,212,272.6,219.7L272.6,219.7z"/>
		</g>
	</g>
	<g>
		<g>
			<path class="st31" d="M293.2,59.6C289,70.7,280.8,82,281.4,94.5c0.3,4.9,6.9,5.8,8.5,1.1c2.4-7,4.7-14,4.9-21.5
				c0.1-4.9-7.3-5.9-8.5-1.1c-4.3,17.6-6.2,35.6-8.4,53.5c2.9,0,5.8,0,8.7,0c0.4-8.8,0.8-17.6,0.9-26.4c0-5.7-8.1-5.4-8.7,0
				c-1.5,15.8-4.7,31.3,2.3,46.3c2,4.3,7.6,1.6,8.1-2.2c0.4-3.1,0.4-6,0-9.1c-0.7-5.3-8.9-5.7-8.7,0c0.2,3.8,1,7.2,3.2,10.4
				c1.2,1.8,3.9,3,5.9,1.6c1.8-1.3,2.4-2.4,2.6-4.6c-2.5,1-4.9,2-7.4,3.1c1.9,2.3,4.4,2.6,7,1.1c4.8-2.8,0.5-10.3-4.4-7.5
				c0.4-0.1,0.7-0.2,1.1-0.2c1,0.4,2,0.8,3.1,1.3c-0.2-0.3-0.4-0.5-0.6-0.8c-2.6-3.2-7.1-0.3-7.4,3.1c0,0.2,0,0.4-0.1,0.6
				c0.7-1.2,1.4-2.5,2.1-3.7c-0.1,0.1-0.3,0.2-0.4,0.3c2,0.5,3.9,1,5.9,1.6c-1.3-1.9-1.9-3.7-2-6c-2.9,0-5.8,0-8.7,0
				c0.4,3.1,0.4,6,0,9.1c2.7-0.7,5.4-1.5,8.1-2.2c-6.2-13.1-2.4-28.1-1.1-41.9c-2.9,0-5.8,0-8.7,0c0,8.8-0.4,17.6-0.9,26.4
				c-0.3,5.7,8,5.4,8.7,0c2.1-17.2,3.9-34.4,8.1-51.2c-2.8-0.4-5.7-0.8-8.5-1.1c-0.2,6.7-2.5,12.9-4.6,19.2c2.8,0.4,5.7,0.8,8.5,1.1
				c-0.6-11.3,7.6-22.4,11.5-32.6C303.6,56.7,295.2,54.4,293.2,59.6L293.2,59.6z"/>
		</g>
	</g>
	<g>
		<g>
			<path class="st31" d="M320.8,20.6c-6.8,4-11.8,10.9-16.1,17.3c-2.1,3-4.1,6-5.4,9.4c-1.7,4.6-2.1,9.8-5.3,13.7
				c2.4,1.4,4.8,2.8,7.2,4.2c4.4-16.8,13.4-32.2,27-43.1c-2.3-1.7-4.5-3.5-6.8-5.2c-1.9,4.2-5.8,7.1-5.3,12.1
				c0.3,3.5,3.4,5.1,6.5,3.7c4.7-2,7.9-6.2,10.2-10.6c2.6-4.9-4.6-9.2-7.5-4.4c-2.8,4.7-5,14.4,3.4,14.9c6.9,0.3,10-7.4,9.9-13.1
				c-2.9,0-5.8,0-8.7,0c0.1,2.9,0.6,5.7,1,8.5c0.7,4.5,7.2,3.7,8.3,0c0.5-1.7,0.8-3.3,1-5c-2.9,0-5.8,0-8.7,0
				c0.1,5.8,1.2,11.5,1.3,17.3c0.1,5.6,8.2,5.5,8.7,0c0.1-1.5,0.3-2.9,0.4-4.3c-2.8,0.4-5.7,0.8-8.5,1.1c1,4,1.1,7.8,0.7,11.8
				c2.9,0,5.8,0,8.7,0c-0.5-5.6-1.6-11.4-0.6-17c-2.8,0-5.6,0-8.3,0c6.1,15.2,0,34-4.6,48.9c-4.9,15.9-9.5,34.1-20.2,47.3
				c-3.4,4.2,2,10.1,6.1,6.1c5.8-5.6,10.4-14.3,11.9-22.2c1-5.4-7.3-7.8-8.3-2.3c-1.2,6.5-4.9,13.8-9.7,18.4c2,2,4.1,4.1,6.1,6.1
				c11.8-14.5,17-33.6,22.5-51.1c5-16.3,11.2-36.9,4.6-53.5c-1.4-3.5-7.5-4.7-8.3,0c-1.2,6.5-0.3,12.8,0.3,19.3
				c0.5,5.6,8.1,5.6,8.7,0c0.4-4.8,0.2-9.5-1-14.1c-1.3-4.9-8.2-3.6-8.5,1.1c-0.1,1.4-0.3,2.9-0.4,4.3c2.9,0,5.8,0,8.7,0
				c-0.1-5.8-1.2-11.5-1.3-17.3c-0.1-5.7-8.1-5.5-8.7,0c-0.1,0.9-0.4,1.9-0.7,2.7c2.8,0,5.6,0,8.3,0c-0.3-2.1-0.6-4.1-0.7-6.2
				c-0.2-5.5-8.8-5.6-8.7,0c0,1.2-1.1,3.6-1,4.4c0.9,6,3.6-1.4,3.9-1.8c-2.5-1.5-5-2.9-7.5-4.4c-1.7,3.3-3.6,6-7.1,7.5
				c2.2,1.2,4.3,2.5,6.5,3.7c-0.2-2.5,3.1-5.5,4.2-7.8c2.1-4.6-2.9-8.3-6.8-5.2c-14.7,11.8-24.5,28.8-29.2,46.9
				c-1,3.9,4.3,7.7,7.2,4.2c5.3-6.4,5.5-14.7,9.8-21.5c4-6.3,8.7-13.7,15.2-17.6C329.9,25.3,325.6,17.8,320.8,20.6L320.8,20.6z"/>
		</g>
	</g>
	<g>
		<g>
			<path class="st31" d="M302.9,152.3c-0.8,0.2-1.3-0.2-2.1-0.3c0,0,0.1-0.3,0,0c0,0.1-0.2-0.5,0.1,0.2c0.2,0.4,0.5,0.8,0.7,1.2
				c0.9,1.8,1.6,4.5,2.3,6.8c2,7.3,3.2,14.9,4.4,22.4c2.6,16.8,4.4,33.7,6.3,50.6c0.6,5.1,0.9,10.5,2.1,15.6
				c1.2,4.9,8.2,3.6,8.5-1.1c0.9-16.1-3-32.1-7.2-47.5c-4.6-16.4-10.2-32.5-15-48.8c-1.4-4.7-8.5-3.8-8.5,1.1
				c-0.1,22.7,10.5,43.6,11.2,66.2c2.7-0.7,5.4-1.5,8.1-2.2c-4.1-8.5-6-17.8-8.1-27c-2-9.1-5.3-18.6-5.6-27.9
				c-0.2-5.6-8.6-5.6-8.7,0c-0.3,18.1,5.1,35.7,9.7,53.1c0.1-1.1,0.3-2.2,0.4-3.3c0,0.1-0.1,0.2-0.1,0.3c2.3-0.3,4.5-0.6,6.8-0.9
				c-0.5-0.6-1-1-1.6-1.4c-4.5-3.3-8.8,4.2-4.4,7.5c0,0-0.1,0-0.1,0c1.7,2.1,5.7,1.5,6.8-0.9c1.5-3.3-0.3-7-1.2-10.3
				c-1.3-4.9-2.6-9.8-3.8-14.7c-2.3-9.7-3.9-19.4-3.8-29.4c-2.9,0-5.8,0-8.7,0c0.3,10.2,3.8,20.3,5.9,30.2c2.2,10,4.5,19.8,8.9,29.1
				c1.9,3.9,8.2,2,8.1-2.2c-0.7-22.6-11.4-43.5-11.2-66.2c-2.8,0.4-5.7,0.8-8.5,1.1c4.6,15.8,10,31.3,14.5,47.2
				c4.3,15.2,8.2,30.9,7.4,46.9c2.8-0.4,5.7-0.8,8.5-1.1c-2.9-12.2-3.2-27.1-4.8-40.2c-2.1-17.1-3.5-35.3-8.9-51.8
				c-1.5-4.7-4.3-12.1-10.7-10.6C295.2,145.2,297.5,153.6,302.9,152.3L302.9,152.3z"/>
		</g>
	</g>
	<g>
		<g>
			<path class="st31" d="M145.9,140.8c8-12.9,22-20.3,36.4-23.9c12.9-3.2,25.4-2.6,38.5-1.1c10.6,1.2,21.2,2.5,31.5,5.6
				c4.3,1.3,9.2,3,12.5,6.2c3.9,3.7,1.9,8,0.3,12.6c-7.2,19.7-21.7,35.9-29.7,55.3c2.8,0.4,5.7,0.8,8.5,1.1
				c-0.9-24,13.9-45.1,16-68.8c0.2-2.7-3-5-5.5-4.2c-11.2,3.9-12.3,19.1-15.3,28.7c-3.4,11-12.7,24.4-8.4,36.3
				c0.9,2.5,3.8,4.2,6.4,2.6c8.1-5,10.8-15.4,13.3-24c3.5-12.1,9.4-23.4,10.9-36c0.5-4.6-5.9-5.4-8.1-2.2
				c-8.5,13-11.8,30.9-11.4,46.3c0.1,3.3,3.6,5.4,6.5,3.7c16-9.1,9.8-32,19.3-45.2c2.4-3.4-2.5-8.5-5.9-5.9
				c-0.6,0.4-1.2,0.9-1.7,1.3c2.2,1.2,4.3,2.5,6.5,3.7c-0.4-1.1-0.1-1.9,0.9-2.6c-2,0-4.1,0-6.1,0c2.1,2.4,3.3,5.6,4.5,8.5
				c1-1.8,2-3.5,3-5.3c-1.8,0.7-3.1,0.3-3.8-1.7c-1,1.8-2,3.5-3,5.3c0.9,0.1,1.8,0.3,2.7,0.4c4.8,2.8,9.2-4.7,4.4-7.5
				c-3.2-1.8-5.9-2.2-9.4-1.3c-2.2,0.6-3.7,3.1-3,5.3c2,6.2,7.9,10.4,14.4,7.8c1.9-0.8,4-3,3-5.3c-1.8-4.4-3.5-8.7-6.7-12.3
				c-1.6-1.8-4.5-1.5-6.1,0c-2.5,2.3-3.7,5.2-3.4,8.7c0.2,2.9,3.6,5.9,6.5,3.7c0.6-0.4,1.2-0.9,1.7-1.3c-2-2-3.9-3.9-5.9-5.9
				c-4.5,6.4-5.7,14.6-7.2,22.1c-1.3,6.7-2.5,16.3-9,20c2.2,1.2,4.3,2.5,6.5,3.7c-0.3-14,2.5-30.1,10.2-41.9
				c-2.7-0.7-5.4-1.5-8.1-2.2c-1.3,11-7,20.9-10,31.4c-1.9,6.6-3.6,17.1-10,21.1c2.1,0.9,4.2,1.7,6.4,2.6c-1.8-5,0.6-11,2.3-15.8
				c1.7-4.9,4-9.5,5.7-14.4c1.4-4,2.2-8.2,3.4-12.3c1-3.4,2.6-10.5,6.4-11.9c-1.8-1.4-3.7-2.8-5.5-4.2c-2.1,23.7-16.9,44.5-16,68.8
				c0.2,5.1,6.7,5.5,8.5,1.1c7.9-19.5,22.4-35.5,29.7-55.3c2.1-5.8,3.8-11.8,0.4-17.4c-2.7-4.5-7.6-7.4-12.3-9.4
				c-11.4-5-24.2-6.5-36.4-8c-13.5-1.6-26.7-2.8-40.4-0.1c-18.3,3.5-36.1,12.7-46.2,28.9C135.4,141.1,142.9,145.5,145.9,140.8
				L145.9,140.8z"/>
		</g>
	</g>
	<g>
		<g>
			<path class="st31" d="M271.6,137.4c-3.7,13.3-10.2,25.8-16.5,38c-4.2,8.1-10.4,17.5-8.6,27c0.6,3.5,5,3.8,7.2,1.9
				c7.2-6,10.6-15.2,13.8-23.7c4.1-11,8.1-22,10.3-33.6c0.8-4.1-4-7.4-7.2-4.2c-7.4,7.4-10.6,18-16.5,26.6
				c-4.6,6.7-11,14.3-12.6,22.5c-1.3,7,5.1,10.9,10.5,6.3c5.5-4.7,9.2-12.1,12.6-18.3c3.7-6.7,7.9-13.9,10.2-21.3
				c1.5-5-5.1-7-7.9-3.3c-5.6,7.4-10.6,15.4-14.6,23.7c-3.8,7.9-7.3,16.7-6.8,25.6c0.2,3.3,3.5,5.3,6.5,3.7
				c7.8-4,11.1-14.1,13.9-21.8c4.1-11.5,9.3-22.6,12.3-34.4c1.4-5.4-6.6-7.6-8.3-2.3c-5.7,17.3-16.8,36.3-12.1,55.1
				c0.6,2.5,3.1,3.3,5.3,3c9.6-1.3,11.9-17.1,13.1-24.4c1.8-10.3,2.4-22.3,3.7-31.8c0.8-5.5-6.2-7.5-8.3-2.3
				c-5.1,12.5-6.5,26.6-8.3,39.9c-1.3,9.1-3.6,22.4,3.8,29.6c1.6,1.6,4.5,1.7,6.1,0c6.6-6.9,6.3-18.5,6.2-27.4
				c-0.2-13.4,1-26.7,1.1-40.1c0-4.7-7.6-6.1-8.5-1.1c-2,11.5-0.7,23-0.4,34.6c0.2,8.8,0.1,19.2,5.6,26.7c2.2,3,6.6,2.7,7.9-1
				c3.2-9.3,1.4-19.3,0.5-28.9c-1-10.9-0.2-21.9-2.2-32.7c-0.9-4.9-8.5-3.6-8.5,1.1c0,12.3,0.7,24.5,1,36.7c0.2,7.7,0.2,18,6.7,23.4
				c2.6,2.1,6.1,1.3,7.2-1.9c1.9-5.6,1-11.4,0.4-17.1c-0.8-7-1.6-13.9-2.5-20.8c-0.7-5.7-1.7-11.4-2.5-17.1
				c-0.6-4.5-0.9-9.7-3.7-13.6c-1.6-2.2-4.7-3-6.8-0.9c-1.4,1.5-2.8,3-3.7,4.8c-2.6,4.9,4.9,9.3,7.5,4.4c0.6-1.2,1.4-2.1,2.4-3
				c-2.3-0.3-4.5-0.6-6.8-0.9c2.3,3.2,2.3,8,2.8,11.8c0.7,5.5,1.7,10.9,2.4,16.4c0.7,5.8,1.4,11.7,2.1,17.5
				c0.6,5.3,1.9,11.1,0.1,16.3c2.4-0.6,4.8-1.3,7.2-1.9c-5.3-4.4-4-14.4-4.3-20.6c-0.5-11.2-0.9-22.3-0.9-33.5
				c-2.8,0.4-5.7,0.8-8.5,1.1c1.8,10,1,20.3,1.9,30.4c0.8,8.7,2.7,18.1-0.2,26.6c2.6-0.3,5.3-0.7,7.9-1c-4.9-6.5-4.3-15.8-4.5-23.6
				c-0.3-10.3-1.6-20.8,0.1-31.1c-2.8-0.4-5.7-0.8-8.5-1.1c-0.1,12.2-1.5,24.4-1.2,36.6c0.2,7.1,1.8,19.2-3.6,24.8c2,0,4.1,0,6.1,0
				c-2.8-2.7-2.5-7.8-2.4-11.3c0.1-4.8,0.8-9.5,1.5-14.3c1.8-11.9,3.1-24.3,7.7-35.5c-2.8-0.8-5.6-1.5-8.3-2.3
				c-1.2,9.1-1.7,18.4-3,27.5c-0.7,4.6-2.3,21.9-7.8,22.7c1.8,1,3.5,2,5.3,3c-2.1-8.6,0.4-17.7,3.1-25.9c2.7-8.3,6.2-16.3,9-24.6
				c-2.8-0.8-5.6-1.5-8.3-2.3c-2.8,10.7-7.6,20.5-11.1,30.9c-2.2,6.4-4.6,16.8-11.1,20.1c2.2,1.2,4.3,2.5,6.5,3.7
				c-0.5-8.3,3.2-16.6,6.9-23.8c3.8-7.4,8.3-14.5,13.3-21.1c-2.6-1.1-5.3-2.2-7.9-3.3c-1.9,6.2-5.5,12.2-8.6,17.9
				c-2.1,3.8-4.2,7.6-6.6,11.2c-0.9,1.3-5.1,5.7-5.2,6.5c0.1-0.9,4.9,1.3,3.8,2.3c0,0,0.3-1.5,0.3-1.4c1-1.6,1.5-3.6,2.5-5.3
				c2.3-4.1,5-8,7.6-11.9c2.2-3.2,4.3-6.3,6.2-9.7c3.1-5.8,5.5-12.3,10.3-17c-2.4-1.4-4.8-2.8-7.2-4.2c-2,10.7-5.5,20.9-9.4,31.1
				c-3,8-5.7,16.7-12.5,22.4c2.4,0.6,4.8,1.3,7.2,1.9c-0.7-4,2-9,3.7-12.5c2-4.1,4.2-8.1,6.2-12.2c5.7-11.7,11.7-23.2,15.2-35.8
				C281.5,134.4,273.1,132.1,271.6,137.4L271.6,137.4z"/>
		</g>
	</g>
	<g>
		<g>
			<path class="st31" d="M163.3,133.8c-0.2-3.4-0.9-5.6-3-8.2c-1.6-2-5.8-1.5-6.8,0.9c-6.3,14.8-15.4,29.2-14.4,45.9
				c0.3,4.8,7,5.9,8.5,1.1c4-12.8,4.9-26.3,5.3-39.6c0.2-5.6-8.3-5.5-8.7,0c-0.7,10.1-4.5,19.7-5.2,29.8c-0.3,4.4,6,5.7,8.1,2.2
				c5.4-9,7.2-19.4,10.8-29.2c-2.8-0.4-5.7-0.8-8.5-1.1c1.1,18.1-13.1,35.7-4.6,53.7c1.5,3.1,5.9,2.5,7.5,0
				c3.3-5.3,3.9-12.5,4.5-18.6c0.6-6.2,1.2-13.3-0.6-19.4c-1-3.3-6.2-4.5-7.9-1c-3.6,7.7-4.9,16.7-5.7,25.1
				c-0.7,7.2-1.5,17.5,5.1,22.4c1.5-2.5,2.9-5,4.4-7.5c-5.6-3.6-15.4,0.1-15.1,7.6c0,1.5,0.8,3,2.1,3.7c5.5,2.9,10.9-4.9,12-9.5
				c0.6-2.4-0.7-4.5-3-5.3c-4.7-1.6-10.5,0-10.7,5.8c-0.2,5.8,6,9.4,11.1,9.6c5.1,0.2,10.9-2.9,14.2-6.7c3.9-4.6,1.6-10.1-4.2-11.3
				c-2.2-0.4-4.8,0.6-5.3,3c-0.9,4.8-0.7,9.6,2.2,13.7c1.8,2.6,5.8,3,7.5,0c5.5-9.9,2.6-25.2-1.7-35.1c-1.5-3.4-7.1-2.4-7.9,1
				c-1.8,8.1-3.1,16.2-2.7,24.5c0.2,4.2,5.8,5.9,8.1,2.2c6.1-10.2,5.8-22.3,5.2-33.7c-0.5-10.9-2.4-24.7,5.3-33.7
				c-2.4-0.6-4.8-1.3-7.2-1.9c0.5,3.1-2,7.8-2.8,10.8c-1,3.5-1.9,7.1-2.7,10.6c-1.3,5.6-2.1,11.4-2.9,17.1
				c-1.5,10.6-3.1,22.6,1.1,32.8c1.2,3,6.3,4.9,7.9,1c6.8-15.8,6.6-33.7,6.6-50.6c-2.9,0-5.8,0-8.7,0c0,10.3,0.5,20.8-0.1,31.1
				c-0.4,7.5-1.7,15.7,2,22.6c1.3,2.4,5,2.9,6.8,0.9c8.2-9.1,5.2-24,4.4-35.1c-0.6-8.7-1.3-17.5-1.5-26.2
				c-0.1-4.2,0.5-14.1,5.6-15.5c-1.8-1.8-3.5-3.5-5.3-5.3c-3.8,13.9-4.1,28.4-4.4,42.7c-0.3,11.5-1.6,24.8,4.9,35
				c2,3.1,6.9,2.6,7.9-1c4.2-14.9,3-30.4,2.4-45.7c-0.2-6.1-0.2-12.1-0.3-18.2c-0.1-5.1-0.4-11.2,5-13.5c-2.1-0.9-4.2-1.7-6.4-2.6
				c2.5,11.5-3,23.6-4.5,34.9c-1.4,10.8-1.5,23.6,2.7,33.9c1.3,3.2,6,4.7,7.9,1c5.7-10.8,4.6-24,4.8-35.8c0.1-5.1-0.4-10-0.5-15.1
				c-0.2-5.1-0.5-11.8,3.2-15.7c-2,0-4.1,0-6.1,0c2.8,3.3,1.6,10.2,1.2,14c-0.6,5.6-1.8,11.2-2.5,16.8c-1.7,12.8-3.2,28.1,1,40.4
				c1.2,3.6,7.7,4.6,8.3,0c2.2-15.9,2.9-32.4,2.2-48.5c-0.2-4.6-0.4-9.3,0-13.9c0.2-2,1.1-4.2,1.2-6.1c0-0.3,0.5-0.9,0.5-0.9
				c0.2,0.3-2.7-0.5-2.3-0.4c0,0-0.1,0-0.1-0.2c-0.1,0.4,0.4,1.1,0.5,1.6c0.3,1.3,0.4,2.7,0.4,4c0.2,4,0,8.1-0.3,12.1
				c-0.6,9.2-1.7,18.4-2.4,27.6c-0.5,6.3-2.2,15.7,2.2,21c1.4,1.8,4.7,1.6,6.1,0c7-7.7,6.3-20.2,5.8-29.9
				c-0.3-6.9-1.2-13.6-1.9-20.4c-0.4-4-0.7-8-0.6-12.1c0-2.1,2.3-8.3-1.6-5.6c0.2-0.2,0.2,0.2,0.2,0.2c0,0.5,0.5,1.3,0.6,1.9
				c0.4,2,0.1,4.2,0,6.2c-0.4,5.1-1.6,10.1-2.7,15.1c-1,4.2-2.1,8.4-2.6,12.7c-1,10-0.2,20,0.2,30c2.8-0.4,5.7-0.8,8.5-1.1
				c-1.1-3.5-2.5-6.8-3.9-10.1c-2.2-5.1-9.6-0.7-7.5,4.4c1.1,2.7,2.2,5.3,3,8.1c1.4,4.5,8.7,3.9,8.5-1.1c-0.4-9.7-1.1-19.4-0.3-29.1
				c0.4-4.6,1.8-9,2.8-13.4c1.8-8,6.2-22.5-0.3-29.5c-2.5-2.7-6.7-3.7-9.7-1.3c-2.9,2.3-3.4,6.4-3.7,9.9c-0.7,8.3,0.8,16.4,1.7,24.6
				c0.5,4.3,0.7,10.2,0.8,15.1c0.1,5.8,0.8,14.8-3.4,19.4c2,0,4.1,0,6.1,0c0.8,1,0.1-0.3,0.1-0.9c-0.2-1.7-0.2-3.3-0.2-5
				c0.1-4.5,0.5-9.1,0.8-13.6c0.9-10.1,2.2-20.3,2.4-30.4c0.1-5.4,0.6-15.7-6.1-17.8c-10.7-3.3-11.6,14.4-11.7,20.6
				c-0.1,18.3,0.9,36.4-1.7,54.6c2.8,0,5.6,0,8.3,0c-2.6-7.6-2.3-15.7-1.8-23.7c0.4-6.2,0.7-12.3,1.8-18.4
				c1.7-10.1,5.3-24.2-1.9-32.9c-1.5-1.8-4.6-1.6-6.1,0c-7.9,8.2-5.7,21.1-5.2,31.4c0.3,5.9,0,11.8-0.2,17.7
				c-0.2,6.4-0.4,13.5-3.5,19.3c2.6,0.3,5.3,0.7,7.9,1c-4.3-10.5-4-23.9-1.8-34.8c2.2-11.2,6-22.5,3.6-33.9c-0.6-3-4-3.6-6.4-2.6
				c-11.8,5.2-9.1,20.4-9.1,30.8c0,17.2,2.8,34.9-2,51.8c2.6-0.3,5.3-0.7,7.9-1c-5.8-9.2-3.9-22-3.6-32.3c0.4-13,0.6-26.1,4.1-38.7
				c0.9-3.2-2.1-6.2-5.3-5.3c-14.5,3.9-11.9,25.2-11.2,36.1c0.4,7.8,1.1,15.6,1.6,23.4c0.4,5.7,1.6,14.8-2.6,19.4
				c2.3,0.3,4.5,0.6,6.8,0.9c-3.1-5.8-0.9-14.2-0.7-20.5c0.3-9.6,0-19.2,0-28.8c0-5.6-8.7-5.6-8.7,0c0,15.2,0.7,32-5.5,46.3
				c2.6,0.3,5.3,0.7,7.9,1c-4.2-10.5-2-22.9-0.3-33.7c1-6.3,2.2-12.5,3.9-18.7c1.6-6.2,4.8-12.5,3.7-19c-0.5-3.1-5.2-4.3-7.2-1.9
				c-7.9,9.3-8.6,21.3-8.2,33c0.4,11.9,2.7,25.5-3.8,36.2c2.7,0.7,5.4,1.5,8.1,2.2c-0.3-7.5,0.8-14.9,2.4-22.2
				c-2.6,0.3-5.3,0.7-7.9,1c3,6.9,5.6,19.4,1.7,26.3c2.5,0,5,0,7.5,0c-1.5-2.2-1.8-4.5-1.3-7c-1.8,1-3.5,2-5.3,3
				c3,0.6-0.6-2.8-0.1-2.8c-0.2,0-1.1,1-1.4,1.3c-1.2,0.9-2.9,1.9-4.3,2.2c-1.4,0.3-2.6-0.5-3.8-0.4c-0.6,0.1-0.3-0.2-0.6-0.1
				c-2.1,0.7-1.8,1.7-0.2,2.3c-1-1.8-2-3.5-3-5.3c-0.2,1.1-0.6,1.8-1.3,2.7c-0.3,0.3-2,1.6-1,1.3c1.1,0.1,2.2,0.3,3.3,0.4
				c-0.1,0-0.1-0.1-0.2-0.1c0.7,1.2,1.4,2.5,2.1,3.7c0.7-0.5,1.4-0.5,2.1-0.1c4.8,3,8.8-4.3,4.4-7.5c-1-0.7-1-4.5-1.1-5.7
				c-0.2-3.8,0.1-7.7,0.6-11.5c0.7-6,1.6-12.9,4.3-18.4c-2.6-0.3-5.3-0.7-7.9-1c1.5,5,0.9,10.8,0.4,15.9c-0.4,4.9-0.8,11.1-3.5,15.4
				c2.5,0,5,0,7.5,0c-3.6-7.7-0.6-17.2,1.5-24.8c2.1-7.9,4.8-16.1,4.3-24.5c-0.3-5-6.8-5.7-8.5-1.1c-3.3,9-5,18.7-9.9,27.1
				c2.7,0.7,5.4,1.5,8.1,2.2c0.7-10.1,4.5-19.7,5.2-29.8c-2.9,0-5.8,0-8.7,0c-0.5,12.6-1.3,25.2-5,37.3c2.8,0.4,5.7,0.8,8.5,1.1
				c-0.9-15.1,7.5-28.1,13.3-41.5c-2.3,0.3-4.5,0.6-6.8,0.9c0.2,0.7,0.3,1.4,0.5,2.1C155,139.4,163.6,139.4,163.3,133.8L163.3,133.8
				z"/>
		</g>
	</g>
	<g>
		<g>
			<path class="st31" d="M198.8,143.7c0.1,0.2,0.2,0.4,0.2,0.6c-1.6-3.9-6.9-4.3-8.3,0c-3.5,10.2-0.9,22.4,1.7,32.6
				c1.1,4.4,6.9,3.8,8.3,0c4.9-12.9,2.7-29.9-0.4-43c-1.1-4.5-7-3.7-8.3,0c-2.8,7.6-2.7,16.5-2.1,24.5c0.6,8.2,1.7,16.8,4.7,24.5
				c1.5,4,6.9,4.2,8.3,0c2.6-7.4,1.5-15.3,1.5-22.9c-0.1-8.5,1.1-16.8-0.2-25.2c-0.6-4.2-7.5-4-8.3,0c-3.7,17.7-1.2,36.3,2.6,53.8
				c1.4-1.8,2.8-3.7,4.2-5.5c-6.9,0.5-13.8,2-20.8,1.7c0.4,2.8,0.8,5.7,1.1,8.5c7.2-1.3,14.5-2.8,21.8-3.7c-1.2-2.2-2.5-4.3-3.7-6.5
				c-2.7,4.5-13,2.8-17.5,3c0.7,2.7,1.5,5.4,2.2,8.1c6.9-3.9,15.4-3.9,23.1-3.6c7.9,0.2,15.7,1.1,23.6,1.2c0-2.9,0-5.8,0-8.7
				c-8.7,0-17.3,0.4-26,0.4c0,2.9,0,5.8,0,8.7c9.5-0.4,20.5,0.2,29,5c0.7-2.7,1.5-5.4,2.2-8.1c-4.5,0.5-8.7-1.8-13.1-2.4
				c-5.5-0.8-7.6,6.3-2.3,8.3c1.5,0.6,2.8,0.9,4.3,1.3c2.9,0.7,6.6-2.1,5.3-5.3c-6.2-15.4-10.9-31.1-13-47.6
				c-0.6-4.7-1.7-9.2-2.3-13.9c-0.4-2.8-1.9-10.3,1.3-11.9c-2-0.5-3.9-1-5.9-1.6c3.2,6.9,1.3,15.9,0,23c-1.1,6-2.1,12-3.3,17.9
				c-2.1,9.9-6.9,25.9,1,34.3c1.8,1.9,5.6,1.6,6.8-0.9c4.2-9.1,4.5-18.9,4.4-28.8c-0.1-11.8,0.9-23.5,0.9-35.3
				c-1.4,1.4-2.9,2.9-4.3,4.3c2.3,0.1,3.7-0.6,5.6-1.9c-2.1-0.9-4.2-1.7-6.4-2.6c3.6,16.4-2.8,33.2,1.3,49.7c1.1,4.5,6.9,3.7,8.3,0
				c4.1-10.1,3.8-21.9,3.2-32.6c-0.3-5.3-0.7-10.5-1.3-15.7c-0.2-1.7,0-4.9-0.8-6.3c0.6,1.1-2.6,0.9,0.6,2.4
				c1.4,0.7,2.7,1.2,4.2,1.6c0.4-2.8,0.8-5.7,1.1-8.5c-1.2,0.3-2.3,0.2-3.4-0.5c-0.6,2.4-1.3,4.8-1.9,7.2c1.5-0.4,0.1,0.1,0-0.5
				c0.1,0.3,0.6,0.8,0.7,1.2c0.4,2.3,0.8,4.4,0.9,6.7c0.2,5-0.3,9.9-0.7,14.9c-0.4,4.1-0.1,8,0.3,12.1c0.5,4.9,2.4,14-1.9,17.6
				c2.4,0.6,4.8,1.3,7.2,1.9c-4.7-14.3-1.3-30-1.1-44.7c0-5.2-6.8-5.5-8.5-1.1c-6.3,16.4-5.6,37,1.3,53.1c1.9,4.3,7.8,1.6,8.1-2.2
				c0.9-11.6-1-23.1-2-34.6c-0.4-4.1-0.9-8.5-0.4-12.7c0.2-1.4,0.7-2.7,0.9-4.1c0-0.2,0.6-1.2,0.5-1.3c0,0.1-2.7-0.7-1.1,1.3
				c2.2,2.7,6.3,0.9,7.2-1.9c-0.1,0.2-0.2,0.4-0.2,0.6c-2.4-0.6-4.8-1.3-7.2-1.9c1.5,8.9-1.8,18,0.9,26.8c1.2,4.1,7.2,4.2,8.3,0
				c2.9-10.2,2.7-20.8,4.3-31.1c-2.8-0.4-5.7-0.8-8.5-1.1c0.7,7.8-0.3,15.6-0.4,23.4c-0.1,4.1,6.2,6.2,8.1,2.2
				c2.1-4.5,1.8-9.1,3.2-13.7c1.4-5,1.8-4.5,6.1-4.4c4,0,6.3-6.3,2.2-8.1c-4.3-1.8-9.2-2.9-12.5-6.2c-1.7,2.3-3.5,4.5-5.2,6.8
				c6,4,13.5,2.9,19.5,6.5c-0.3-2.3-0.6-4.5-0.9-6.8c-3.3,3.3-10.8-3.6-12.9-6.1c-0.6,2.4-1.3,4.8-1.9,7.2
				c5.2-0.8,17.5,1.8,18.9,7.8c1-1.8,2-3.5,3-5.3c-0.8-0.1-1.6-0.3-2.5-0.4c-5.3-1.8-7.5,6.5-2.3,8.3c2.5,0.9,4.5,0.9,7.1,0.4
				c2.4-0.4,3.5-3.2,3-5.3c-2.7-11.2-19.7-15.4-29.5-13.8c-3.5,0.6-3.8,5-1.9,7.2c5.7,6.6,17.6,13.5,25.2,6.1c2-2,1.5-5.4-0.9-6.8
				c-6.1-3.7-13.7-2.6-19.5-6.5c-4.1-2.8-8.7,3.4-5.2,6.8c4.1,4.1,9.1,5.4,14.3,7.6c0.7-2.7,1.5-5.4,2.2-8.1
				c-4.7-0.1-8.3-0.1-11.2,4.1c-4,5.8-2.7,12.3-5.5,18.4c2.7,0.7,5.4,1.5,8.1,2.2c0.1-7.8,1.1-15.6,0.4-23.4
				c-0.4-4.5-7.7-6.3-8.5-1.1c-1.7,10.4-1.4,21-4.3,31.1c2.8,0,5.6,0,8.3,0c-2.6-8.6,0.7-18-0.9-26.8c-0.6-3.5-5-3.7-7.2-1.9
				c-1.1,0.9-1.5,1.9-2,3.2c2.4-0.6,4.8-1.3,7.2-1.9c-2.8-3.5-7.4-5.1-10.9-1.6c-2.9,2.9-3.8,7.9-4.1,11.8
				c-1.4,15.7,3.6,31.5,2.5,47.3c2.7-0.7,5.4-1.5,8.1-2.2c-6-14-5.9-32.3-0.4-46.4c-2.8-0.4-5.7-0.8-8.5-1.1
				c-0.1,15.6-3.6,31.8,1.5,47c1.1,3.2,4.7,4,7.2,1.9c6.1-5.1,5.3-14.9,4.6-22c-0.5-5.9-0.7-11.1-0.2-17c0.6-7.9,2.6-32-12.1-27.5
				c-3,0.9-4.3,4.9-1.9,7.2c2.7,2.6,5.8,3.4,9.5,3c4.5-0.4,6.2-7.3,1.1-8.5c-4.8-1.1-11.2-6.1-14.9,0.4c-2.4,4.1,0,11.6,0.4,16
				c1.2,13,2.9,27.8-2.1,40.3c2.8,0,5.6,0,8.3,0c-4-16.4,2.3-33.2-1.3-49.7c-0.6-2.6-4.1-4.1-6.4-2.6c-2.2,1.5,0.2,0.8-1.3,0.7
				c-2.3-0.1-4.3,2.1-4.3,4.3c0,10.7-1,21.4-0.9,32.2c0,9.1,0.7,19-3.2,27.5c2.3-0.3,4.5-0.6,6.8-0.9c-3.2-3.4-1.4-11.6-0.8-15.7
				c0.8-5.4,2.3-10.6,3.2-16c2.3-13.2,7.4-29,1.3-41.8c-1-2.2-4-2.5-5.9-1.6c-10.2,5.2-5.2,22-3.6,30.6c1.5,8.2,2.4,16.5,4.4,24.6
				c2.4,9.6,5.6,18.8,9.3,28c1.8-1.8,3.5-3.5,5.3-5.3c-1.5-0.4-2.9-0.7-4.3-1.3c-0.8,2.8-1.5,5.6-2.3,8.3c5.2,0.7,10.1,3.4,15.4,2.7
				c4-0.5,6.2-5.7,2.2-8.1c-9.8-5.6-22.3-6.6-33.3-6.2c-5.5,0.2-5.6,8.7,0,8.7c8.7,0,17.3-0.4,26-0.4c5.6,0,5.6-8.6,0-8.7
				c-16.5-0.1-35.9-5-51.1,3.6c-3.6,2.1-2.2,8.3,2.2,8.1c8.4-0.5,19.9,1.1,24.9-7.3c1.5-2.6-0.4-6.9-3.7-6.5c-8.1,1-16.1,2.6-24.1,4
				c-5,0.9-3.5,8.3,1.1,8.5c7,0.2,13.8-1.2,20.8-1.7c2.9-0.2,4.8-2.6,4.2-5.5c-3.5-15.9-5.9-33-2.6-49.2c-2.8,0-5.6,0-8.3,0
				c1.1,7.6-0.2,15.3-0.1,22.9c0.1,6.9,1.2,14-1.2,20.6c2.8,0,5.6,0,8.3,0c-2.7-7-3.8-14.7-4.4-22.2c-0.5-7.3-0.8-15.2,1.8-22.2
				c-2.8,0-5.6,0-8.3,0c2.8,11.7,4.8,26.9,0.4,38.4c2.8,0,5.6,0,8.3,0c-2.2-8.7-4.7-19.2-1.7-28c-2.8,0-5.6,0-8.3,0
				c0.5,1.3,1,2.2,2,3.2C196.5,154,202.6,147.8,198.8,143.7L198.8,143.7z"/>
		</g>
	</g>
	<g>
		<g>
			<path class="st6" d="M182.4,226.8c-13.3-0.4-19.9,25.5-7.1,30.5c14.6,5.6,22-23.8,7.3-28.6c-1.6-0.5-4.2,0.3-4.9,2
				c-2.6,6-3.7,16,4.2,18.7c8.2,2.8,11.7-7.3,11.6-13.5c0-3.4-0.6-7.7-3.7-9.7c-2.8-1.8-6.1-0.8-8.3,1.4c-4.9,4.6-7.5,13.5-5.6,19.9
				c0.8,2.8,3.8,3.9,6.4,2.6c8.4-4.4,12.1-22.5,4.3-28.9c-3.7-3.1-9.1,0.7-6.8,5.2c2.3,4.4,4.8,8.1,8.9,11.1c1.5,1,4.1,0.7,5.2-0.7
				c5.6-6.4-0.7-13.9-5.7-18.4c-2.4-2.2-5.7-5.4-9.1-5.5c-4.1-0.1-6,3.8-8.2,6.5c2.4,0.6,4.8,1.3,7.2,1.9c-0.3-0.6-0.3-1.1,0-1.6
				c1.2-4.5-4-6.8-7.2-4.2c-5.2,4.2-6.3,10.7-6.9,16.9c-0.5,4.8,5.8,5.1,8.1,2.2c4.4-5.8,5.1-18.4-5.3-17.4
				c-10.1,1.1-16.2,12.6-18.2,21.4c-1.2,5.6,6.2,7.3,8.3,2.3c1.8-4.4,3-8.9,2.7-13.7c-0.2-4.4-5.6-5.8-8.1-2.2
				c-7.8,11.5-8.8,25.2,0.7,36.1c9.3,10.6,24.5,15.1,38.1,14.9c8.7-0.1,17.3-1.3,26-1.8c7-0.4,14.2-1.2,20.9-3.6
				c14.1-5,22.1-16.6,21.5-31.7c-0.2-5.5-8.6-5.6-8.7,0c-0.1,4.1-0.4,8.2-1.1,12.3c-0.7,4.2,3.8,7.2,7.2,4.2
				c9.4-8.3,2.7-18.8-4.9-25.4c-3.8-3.3-7.9-6.1-11.6-9.5c-2.6-2.4-5.3-4.8-8.6-6.1c-4.2-1.8-8.9-1.5-13.1-3
				c-0.4,2.8-0.8,5.7-1.1,8.5c11.1-0.8,19.7,5.5,27.2,13c1.4-2.4,2.8-4.8,4.2-7.2c-8.6-1.7-16.6-5.8-25.5-6.3
				c-10-0.5-16.8,5.4-19.1,14.9c-1.2,4.8,5.3,7.5,7.9,3.3c2.7-4.2,4.6-8.8,6.1-13.6c1.1-3.5-3.2-7-6.4-4.9
				c-7.2,4.8-13.1,14.7-6.1,22.5c5.9,6.5,15.1,3.5,18.9-3.6c4.1-7.6,0.5-18.7-9.4-18.2c-8.7,0.4-12.8,12.3-13,19.5
				c-0.1,5.3,1.9,13.8,8.6,14c5.1,0.2,8.9-5,11.1-9c2.3-4.3,4.5-10.2,2.8-15.1c-2-5.8-9.6-7.2-14-3.3c-5.4,4.7-7,18.1-1.3,23.1
				c8.2,7.3,17.8-5.7,19.2-13c0.5-2.9-1.2-5.3-4.2-5.5c-4-0.2-7.1,1.6-8.9,5.2c-2.5,5,5,9.3,7.5,4.4c0.1-1,0.6-1.3,1.5-0.9
				c-1.4-1.8-2.8-3.7-4.2-5.5c-0.5,2.4-1.8,4.8-3.4,6.8c-0.5,0.6-1.7,1.8-2.1,1.9c0.6,0.5,0.8,0.6,0.4,0c-0.2-0.5-0.3-1-0.3-1.5
				c0.1-2.4,0.1-4.4,0.7-6.7c0.1-0.3,0.8-2.2,0.5-1.7c-0.1,0.3,1.7-0.7,1.1-0.2c-0.5,0.5-0.2-1.1-0.5-0.2c-0.4,1.2-0.2,2.7-0.6,4
				c-0.8,2.6-2.1,5.5-4.1,7.5c-0.6,0.6-2.1,1.6-0.3,1.1c0.1,0,0.7,0.4,0.6,0.5c-0.1,0.1-0.8-1.8-0.8-1.9c-1.3-4-0.3-11.1,2.9-14
				c4.2-4,4.4,7-0.3,7.3c-1.6,0.1-2.5-1.3-2.8-2.7c-0.6-3.2,2.6-5.9,4.9-7.4c-2.1-1.6-4.2-3.3-6.4-4.9c-1.3,4.1-2.9,7.9-5.2,11.5
				c2.6,1.1,5.3,2.2,7.9,3.3c2-7.9,7.1-9.6,14.6-8c6.6,1.3,12.8,4.2,19.4,5.4c4.1,0.8,7.5-4,4.2-7.2c-9.1-9-20-16.5-33.3-15.5
				c-4.9,0.4-5.8,6.8-1.1,8.5c2.9,1.1,5.7,1.3,8.7,1.8c3.6,0.6,6,2.2,8.7,4.6c2.9,2.6,5.8,5,8.9,7.4c4.3,3.3,14.3,10.3,8.1,15.8
				c2.4,1.4,4.8,2.8,7.2,4.2c0.8-4.8,1.4-9.7,1.5-14.6c-2.9,0-5.8,0-8.7,0c0.3,5.6-0.7,11.7-4.3,16.3c-3.5,4.4-9,6.8-14.3,8.2
				c-5.4,1.5-10.9,2-16.5,2.3c-7,0.4-14,1.3-21,1.6c-11.7,0.6-24.1-1.6-33.1-9.7c-9.1-8.1-8.4-18.6-1.9-28.2
				c-2.7-0.7-5.4-1.5-8.1-2.2c0.2,4.1-0.9,7.7-2.4,11.4c2.8,0.8,5.6,1.5,8.3,2.3c1-4.5,2.8-9.1,6.2-12.3c0.7-0.7,1.5-1.3,2.3-1.8
				c1.1-0.7,2.3-0.6,1.8-1.3c-0.6-1.1-0.6,1.2-0.8,1.6c-0.6,1.1-1.1,2.1-1.9,3.2c2.7,0.7,5.4,1.5,8.1,2.2c0.4-4.1,1-8.1,4.4-10.8
				c-2.4-1.4-4.8-2.8-7.2-4.2c-0.6,2.3-0.4,3.9,0,6.2c0.5,3.1,5.3,4.3,7.2,1.9c0.6-0.7,3.4-3.4,3.4-4.3c0.8-0.8,0.1-0.7-2.1,0.3
				c0.3,0.2,0.6,0.4,0.9,0.6c0.6,0.8,1.8,1.4,2.5,2c1.2,1,2.3,2.2,3.4,3.3c0.7,0.8,2.2,3.6,2.7,3.1c1.7-0.2,3.5-0.5,5.2-0.7
				c-2.8-2-4.3-5-5.8-8c-2.3,1.7-4.5,3.5-6.8,5.2c3.4,2.8,1.2,13.3-2.6,15.3c2.1,0.9,4.2,1.7,6.4,2.6c-0.8-2.6,0-5.5,1.1-8
				c0.4-0.9,1.6-2.1,1.8-3c0.2-1.1,2.6,0-1.1-1c-2.7-0.8-1.2-0.3-1.3,1.4c-0.1,1.9-0.3,3.7-0.5,5.6c-0.1,0.6-0.6,0.9-0.7,1.3
				c0.1-0.3,1.1-0.3,1.1-0.2c-0.1-2.2-0.6-3.7,0.4-6.2c-1.6,0.7-3.3,1.3-4.9,2c4.7,1.5-0.3,13.3-2.1,12.2
				c-3.4-2.1,0.1-13.9,4.1-13.7C187.9,235.6,187.9,227,182.4,226.8L182.4,226.8z"/>
		</g>
	</g>
	<g>
		<g>
			<path class="st6" d="M213.2,221.3c-2.4,6.1-1.8,15.5,1.4,21.2c4.3,7.7,11.2,3.3,13.8-3c1.3-3.1,2.9-7.2,1.2-10.5
				c-1.6-2.9-5.1-3.4-7.8-2c-5.6,2.8-8.7,10.7-6.4,16.5c1.1,2.8,3.6,3.8,6.4,2.6c6.7-3.1,13.5-15.7,4.9-20.7
				c-8.3-4.8-14.1,8.7-12.9,15c1.4,7.6,8.4,10.4,14.6,5.9c5.8-4.2,9.6-12.4,6.1-19.1c-1.4-2.6-4.8-2.6-6.8-0.9
				c-5.4,4.7-8.5,14.9-4.6,21.2c1.5,2.5,4.7,2.7,6.8,0.9c5-4.5,7.9-11.9,5.9-18.5c-1-3.4-6.1-4.4-7.9-1c-3.1,5.7-4,14.2-0.4,19.9
				c1.5,2.4,4.8,2.9,6.8,0.9c4.8-4.8,7.3-12.2,5.9-18.9c-0.9-3.9-5.9-3.9-7.9-1c-5.3,7.7-8.3,21.6-5.2,30.6c1.1,3.1,4.8,4.2,7.2,1.9
				c7.2-6.8,7.9-19.2,6.3-28.4c-0.8-4.6-7.1-3.6-8.3,0c-2.6,7.4-5.6,17.5-1.7,25c1.4,2.7,4.8,2.6,6.8,0.9c7.5-6.2,5.3-17.5,5.2-26
				c-0.1-5.6-8.6-5.6-8.7,0c-0.1,8.1-2.3,17.7,3.9,24.3c2,2.2,5.3,1.3,6.8-0.9c3.9-5.6,4-12.5,4.5-19.1c0.3-4.9-7.2-5.8-8.5-1.1
				c-1.4,5.2-2.1,11.4,0,16.6c1.4,3.4,5.7,4.4,7.9,1c3.3-5,4-11,3-16.7c-0.2-1.3-1.7-2.8-3-3c-4.3-0.7-7.8-3.3-10-7.1
				c-2,2-3.9,3.9-5.9,5.9c4.9,2.4,11.1,6,13.4,11.2c1.2,2.7,0.4,2.7-1.8,4c-2.3,1.4-4.3,2.8-6,4.8c-3.6,4.2,2.5,10.3,6.1,6.1
				c2.4-2.8,6.1-3.8,8.6-6.5c2.4-2.6,2.8-6.2,1.9-9.5c-2.1-8.1-10.8-14.1-17.8-17.6c-3.8-1.8-8.2,2-5.9,5.9
				c3.2,5.5,8.7,10,15.1,11.1c-1-1-2-2-3-3c0.6,3.5-0.2,7.1-2.2,10.1c2.6,0.3,5.3,0.7,7.9,1c-1.6-3.8-1.1-8.1,0-12
				c-2.8-0.4-5.7-0.8-8.5-1.1c-0.4,5.1-0.3,10.4-3.3,14.7c2.3-0.3,4.5-0.6,6.8-0.9c-3.8-4.1-1.4-13.1-1.3-18.1c-2.9,0-5.8,0-8.7,0
				c0.1,5.8,2.5,15.6-2.6,19.9c2.3,0.3,4.5,0.6,6.8,0.9c-2.6-4.9,0.9-13.5,2.6-18.3c-2.8,0-5.6,0-8.3,0c1.1,6.1,0.7,15.5-4.1,20
				c2.4,0.6,4.8,1.3,7.2,1.9c-2.4-7,0.2-17.9,4.3-23.9c-2.6-0.3-5.3-0.7-7.9-1c0.8,3.6-1.1,8-3.6,10.5c2.3,0.3,4.5,0.6,6.8,0.9
				c-1.9-3-1.2-8.2,0.4-11.2c-2.6-0.3-5.3-0.7-7.9-1c1.1,3.8-0.8,7.6-3.6,10.1c2.3,0.3,4.5,0.6,6.8,0.9c-1.9-3.1,0.8-8.6,3.2-10.8
				c-2.3-0.3-4.5-0.6-6.8-0.9c0.9,1.7-0.4,4-1.4,5.3c-0.6,0.9-1.4,1.7-2.3,2.4c-0.3,0.2-0.6,0.4-0.9,0.6c-0.8,0.5-0.5-0.2,0,0.3
				c-1.6-1.5,1.2-4.9,1.4-6.6c0.2-0.2,0.4-0.4,0.6-0.6c-0.8,0-1.7,0.1-2.5,0.1c-0.3,0.2-0.8,1.8-1,2.2c-0.9,1.4-2.1,2.8-3.7,3.5
				c2.1,0.9,4.2,1.7,6.4,2.6c-1.2-3,0.8-3.5,1.4-6c0.6-2.5,0.6,0.1,0.4-0.4c-0.3-0.9-3.7-2.2-3.9-2.1c-0.3,0.2-2.3,5.5-2.2,5.7
				c0,0,2.8,0.8,3,0.4c0.1-0.1-0.6-1.1-0.6-1.4c-0.2-1.5-0.8-3-1-4.5c-0.4-3.1-0.4-6.4,0.7-9.3C223.6,218.5,215.2,216.2,213.2,221.3
				L213.2,221.3z"/>
		</g>
	</g>
	<g>
		<g>
			<path class="st6" d="M188.3,235.6c-4.5-11-16.2-10.4-23.2-1.9c2.3,1.7,4.5,3.5,6.8,5.2c2.4-3.5,4.1-7.2,4.8-11.4
				c0.7-4.7-5.1-7.7-7.9-3.3c-2.4,3.7-4.2,7.7-3.6,12.1c0.3,2.5,2.5,5.2,5.5,4.2c6.4-2.3,11.4-7,13.8-13.4c1-2.7-1.6-5.5-4.2-5.5
				c-13.1,0.2-23.4,15.7-21,28c0.3,1.7,2.4,3.4,4.2,3.2c9.1-1,15.6-15.1,9.3-22.4c-7.9-9.1-16.1,3-17.7,10.3
				c-0.9,3.7-1.4,8.5,1.6,11.5c3,3.1,7.1,1.6,9.3-1.5c3.9-5.7,7.2-18.3,1-23.6c-8.4-7.3-13.3,9.8-13.3,15.3c0,4.6,1.9,10.9,7.4,11.2
				c5.1,0.3,8.5-5.1,10.2-9.2c1.7-4.2,3.7-10.4,0.2-14.2c-3.1-3.4-8-2.5-10.2,1.2c-3.6,6-3.2,14.9-2.1,21.4
				c1.4,8.5,7.5,19.9,17.5,12.9c11.2-7.8-4.9-17-12.3-18.1c-2.1-0.3-5,0.5-5.3,3c-1.7,12,16.1,23.6,26.3,16.1
				c2.4-1.8,2.8-4.5,0.9-6.8c-4.1-5-9.6-9.1-15.8-11.1c-2.8-0.9-5.4,1.5-5.5,4.2c-0.4,10.2,16.8,12.4,23.9,13.7
				c3.8,0.7,7.9-4.2,4.2-7.2c-5.6-4.7-13.3-8.4-20.8-8.2c-4.5,0.1-5.5,5.6-2.2,8.1c9.5,7,23.1,8.8,34.6,8.4c4.1-0.1,6.2-6,2.2-8.1
				c-8.5-4.3-17.4-7.2-26.8-8.4c0,2.9,0,5.8,0,8.7c7.9,0.2,15.5-2.1,23.2-3.6c-1.1-2.6-2.2-5.3-3.3-7.9c-5.3,2.6-11.2,3.6-16.7,5.6
				c1.4,2.4,2.8,4.8,4.2,7.2c4-3.5,8.2-6.8,13-9.3c-2-2-3.9-3.9-5.9-5.9c-3.2,4.2-5.8,8-5.8,13.4c0,4,6.2,6.3,8.1,2.2
				c2-4.4,3-8.9,3.9-13.6c-2.8-0.4-5.7-0.8-8.5-1.1c0,5.5,0.2,11.4,3.6,16c1.7,2.3,4.5,2.9,6.8,0.9c3.8-3.3,4.6-7.8,4.7-12.6
				c0.1-4.8-7.4-6-8.5-1.1c-1.5,6.6,2,19.3,11.4,15.4c8.9-3.7,0.1-14.7-6.8-14.3c-2.2,0.1-4.5,1.9-4.3,4.3
				c0.8,11.1,15.1,14.1,22.5,7c2.2-2.1,1.3-5.2-0.9-6.8c-4.2-3.1-9.9-4.4-15-3c-2.3,0.6-3.6,3-3,5.3c2.9,11.6,19.1,8.6,27.1,5.2
				c2.9-1.2,2.7-6.2,0-7.5c-5.4-2.5-21.3-6.8-19.3,4.6c1.6,9.3,15.8,5,20.2,0.4c1.8-1.9,1.7-5.6-0.9-6.8c-3.4-1.6-6-1.7-9.1,0.4
				c-2.8,1.9-2.8,5.6,0,7.5c7.1,4.7,16.8-3.3,11.1-10.7c-2.6-3.3-7.8-2.4-8.1,2.2c-0.2,3.8,0.7,7.9,4.8,9.3c3.3,1.1,6.8-0.4,9.8-1.6
				c-1.8-1.4-3.7-2.8-5.5-4.2c0.2,1.9,0.7,3.6,1,5.5c0.6,3.6,5,3.7,7.2,1.9c3.5-2.8,5.4-6.8,5.2-11.3c-0.2-5.5-8.9-5.6-8.7,0
				c0.1,2.4-0.8,3.7-2.6,5.2c2.4,0.6,4.8,1.3,7.2,1.9c-0.2-1.1-0.6-2.1-0.7-3.2c-0.3-2.5-2.6-5.3-5.5-4.2c-1.1,0.4-2.6,0.7-3.6,1.4
				c-0.4,0.2-0.9,0.3-1.4,0.3c1.3,0.9,1.7,0.6,1.4-1c-2.7,0.7-5.4,1.5-8.1,2.2c0.2-0.4,0.5-0.8,0.7-1.2c0,2.5,0,5,0,7.5
				c0.1-0.1,0.3-0.3,0.4-0.4c-0.3-2.3-0.6-4.5-0.9-6.8c-0.7,0.7-1.9,1.2-2.9,1.6c-0.8,0.3-3.5,0.5-4.1,1c0.1,1.3,0.1,2.6,0.2,3.9
				c0.4,0,0.9,0,1.3,0.1c0.6,0.3,1.6,0.3,2.4,0.5c1.3,0.4,2.7,0.8,4,1.4c0-2.5,0-5,0-7.5c-2.6,1.1-13.4,4.1-14.4,0
				c-1,1.8-2,3.5-3,5.3c2.9-0.8,6,0.4,8.3,2.2c-0.3-2.3-0.6-4.5-0.9-6.8c-1.6,1.5-7.5,2.4-7.8-0.8c-1.4,1.4-2.9,2.9-4.3,4.3
				c0.3,0,1.5,0.3,1.5,0.3c1.4-0.4,2.5-1.9,2.6-3.3c0-1.5-0.7-2.9-0.3-4.5c-2.8-0.4-5.7-0.8-8.5-1.1c0,2.6-0.2,4.7-2.2,6.5
				c2.3,0.3,4.5,0.6,6.8,0.9c-2.5-3.4-2.4-7.6-2.4-11.7c0-4.7-7.5-6.1-8.5-1.1c-0.8,3.9-1.4,7.9-3,11.5c2.7,0.7,5.4,1.5,8.1,2.2
				c0-3.6,2.5-6.3,4.6-9.1c2.8-3.7-2.5-7.7-5.9-5.9c-5.4,2.9-10.1,6.6-14.7,10.6c-3.2,2.8,0.2,8.7,4.2,7.2
				c6.3-2.3,12.8-3.5,18.8-6.5c4.6-2.3,1.2-8.8-3.3-7.9c-7,1.3-13.8,3.5-20.9,3.3c-5.7-0.1-5.4,8,0,8.7c7.9,1,15.5,3.6,22.5,7.2
				c0.7-2.7,1.5-5.4,2.2-8.1c-10.1,0.3-21.9-1.1-30.3-7.2c-0.7,2.7-1.5,5.4-2.2,8.1c5.1-0.1,10.8,2.4,14.7,5.7
				c1.4-2.4,2.8-4.8,4.2-7.2c-3.3-0.6-6.6-1.3-9.8-2.2c-1.5-0.4-7.8-2.4-7.8-3.2c-1.8,1.4-3.7,2.8-5.5,4.2c4.8,1.5,8.8,5,11.9,8.8
				c0.3-2.3,0.6-4.5,0.9-6.8c-2.4,1.8-5.5,0.8-8-0.5c-1.8-0.9-5.9-3.4-5.5-5.9c-1.8,1-3.5,2-5.3,3c2.1,0.3,4.2,1,6.1,1.9
				c0.7,0.3,2.4,1.8,3.1,1.8c0.8,1.1,1.1,0.6,0.8-1.4c-0.4,0.3-0.8,0.6-1.2,0.8c-1.9-2.2-2.9-5.3-3.4-8.6c-0.6-4.1-0.6-6.6,0-10.1
				c0.2-0.9,0.3-1.8,0.5-2.6c0.1-0.6,0.3-1.1,0.5-1.6c0.9-1.4-0.4-1.5-3.8-0.2c-0.6,0.8-0.8,3.4-1.2,4.4c-0.4,1-2.1,3.1-2.2,4.1
				c-1,0.8-0.6,1.1,1.4,0.8c-0.3-1-0.5-1.9-0.5-2.9c0-1,0.2-2,0.4-3c0.2-0.9,2.4-5.3,2.2-6c-3.5-1.2-4.6-0.9-3.3,1
				c0.2,0.1,0.2,0.4,0,0.7c-0.2,1-0.1,2.1-0.3,3.1c-0.4,2.2-1.9,4.7-2.1,6.8c-0.2,2,3,2.5,3.8,0.9c0.2-0.3,0.1-1.2,0.1-1.5
				c0.2-2.4,1.2-4.7,2.3-6.8c0.8-1.6,1.4-2.4,1.1,0.1c-0.2,1.3-1.3,6.2-3,6.4c1.4,1.1,2.8,2.1,4.2,3.2c-1.3-6.8,5.5-16.9,12.7-17
				c-1.4-1.8-2.8-3.7-4.2-5.5c-1.2,3.3-4.5,6.2-7.8,7.4c1.8,1.4,3.7,2.8,5.5,4.2c-0.4-3,0.9-5.3,2.4-7.8c-2.6-1.1-5.3-2.2-7.9-3.3
				c-0.6,3.5-1.9,6.4-3.9,9.3c-2.7,4,3.6,9,6.8,5.2c2-2.4,6.8-6.7,8.8-1.9C182,243,190.4,240.8,188.3,235.6L188.3,235.6z"/>
		</g>
	</g>
	<g>
		<g>
			<path class="st6" d="M180.2,219c-0.2-1.6,1.6-2.5,2.6-3.4c3.7-3.5-1-9-5.2-6.8c-5.9,3-12.3,4.4-17.3,8.9
				c-3.1,2.7,0.2,8.9,4.2,7.2c3.3-1.4,6.6-2.6,9.7-4.3c4.3-2.3,1.4-9.3-3.3-7.9c-8.8,2.6-16.2,8.4-20.4,16.6
				c-2,3.9-3.1,8.1-3.5,12.4c-0.3,3.6-0.8,9.7,3,11.5c2,0.9,4.9,0.7,5.9-1.6c0-0.1,0.1-0.2,0.1-0.2c3.6-4.2-2.5-10.3-6.1-6.1
				c-0.6,0.6-1.1,1.2-1.4,2c2-0.5,3.9-1,5.9-1.6c-0.2-0.1-0.4-0.2-0.5-0.3c0.7,0.9,1.3,1.7,2,2.6c-1.9-12.2,5.6-23.6,17.3-27.1
				c-1.1-2.6-2.2-5.3-3.3-7.9c-2.5,1.3-5,2.4-7.6,3.5c1.4,2.4,2.8,4.8,4.2,7.2c4.3-3.8,10.5-5,15.6-7.5c-1.7-2.3-3.5-4.5-5.2-6.8
				c-2.9,2.7-5.7,5.2-5.2,9.5C172.2,224.5,180.9,224.6,180.2,219L180.2,219z"/>
		</g>
	</g>
	<g>
		<g>
			<path class="st6" d="M155.5,229c-3.9,3.7-4.6,9.7-6.3,14.5c2.8,0.4,5.7,0.8,8.5,1.1c-0.5-4.4-0.3-8.7-2.8-12.6
				c-1.9-2.9-5.5-2.6-7.5,0c-3.5,4.7-1.5,10.9,0.9,15.6c2.4,5,9.9,0.6,7.5-4.4c-1-2.1-2.4-4.8-0.9-6.9c-2.5,0-5,0-7.5,0
				c1.6,2.4,1.3,5.4,1.6,8.2c0.5,4.8,6.8,5.9,8.5,1.1c1.2-3.2,1.5-8.3,4.1-10.6C165.7,231.3,159.6,225.1,155.5,229L155.5,229z"/>
		</g>
	</g>
	<g>
		<g>
			<path class="st32" d="M198.5,212.7c-1.5-1.1-3.1-1.7-4.8-2.5c-4-1.7-7.4,4.5-4.2,7.2c2.8,2.4,4.8,5.3,7.2,8.1
				c1.6,1.9,4.4,1.4,6.1,0c2.6-2.1,4.6-4.8,7.2-6.9c2.7-2.2,0.8-6.2-1.9-7.2c-4.3-1.6-8.4-3.1-13-3.6c-4.2-0.5-6,6.4-2.2,8.1
				c3.9,1.7,7.7,3,12,3.5c2.3,0.3,4.3-2.2,4.3-4.3c0-2.6-2-4.1-4.3-4.3c-2.6-0.3-5.3-1.3-7.6-2.3c-0.7,2.7-1.5,5.4-2.2,8.1
				c3.6,0.4,7.3,2.1,10.7,3.3c-0.6-2.4-1.3-4.8-1.9-7.2c-2.6,2.1-4.6,4.8-7.2,6.9c2,0,4.1,0,6.1,0c-2.4-2.7-4.4-5.7-7.2-8.1
				c-1.4,2.4-2.8,4.8-4.2,7.2c1,0.4,1.9,1,2.7,1.6C198.7,223.4,203.1,215.9,198.5,212.7L198.5,212.7z"/>
		</g>
	</g>
	<g>
		<g>
			<path class="st6" d="M187.4,245.7c2.7-0.9,4.8-2.2,7.1-3.9c-2.1-0.9-4.2-1.7-6.4-2.6c0.2,0.9,0.5,1.5,0.9,2.3
				c1.4,3.4,5.7,4.4,7.9,1c1-1.5,1.6-2.8,2.2-4.5c1.5-4.6-5.8-7.8-7.9-3.3c-2.1,4.4-4.9,8.3-6.5,12.9c-0.9,2.7,1.5,5.5,4.2,5.5
				c3.1,0,5.6-1,8-3c2.2-1.9,3.7-4.5,6.3-5.7c-2.1-0.9-4.2-1.7-6.4-2.6c1.2,5,1.5,11.5,7.6,12.8c2.4,0.5,4.5-0.7,5.3-3
				c1.1-3.3,0.8-6.3-0.3-9.5c-1.8-5.4-9.1-3.1-8.3,2.3c0.6,4.1,3.7,9.4,7.3,11.5c5.1,2.9,8.6-1.4,8.7-6.3c-2.2,1.2-4.3,2.5-6.5,3.7
				c2.9,1.7,5.8,2.7,9.1,1.6c3.9-1.3,4.3-7.3,0-8.3c-8.9-2.2-15.9,4.5-23.9,6.9c-5.3,1.6-12.7,2.4-15.9,7.6c-4.3,7.2,4,11.4,10,11.1
				c3.3-0.1,6.6-0.8,9.9-1.5c2.5-0.5,5.1-1,7.4-2.2c2.6-1.3,4.3-3.5,6.6-5.2c4.5-3.2,0.2-10.7-4.4-7.5c-3.1,2.2-5.1,4.6-8.8,5.7
				c-2.3,0.7-4.7,1.1-7.1,1.5c-1.6,0.3-4.8-0.3-6.1,0.4c-1.4-0.6-1.6,0.1-0.4,2.2c0.3-0.3,0.6-0.6,1-0.8c0.7-0.1,1.8-0.9,2.4-1.1
				c3.4-1.3,7.1-1.8,10.5-3.2c4.6-2,11.1-7.1,16.3-5.8c0-2.8,0-5.6,0-8.3c-0.9,0.1-1.7-0.1-2.4-0.7c-2.9-1.7-6.5,0.5-6.5,3.7
				c-0.2,1.4,0.5,1.3,2.2-0.2c2.3-0.2,2.8-0.7,1.6-1.5c-0.1-0.5-0.9-1.3-1.2-1.7c-0.8-1.3-1.4-2.6-1.6-4.1c-2.8,0.8-5.6,1.5-8.3,2.3
				c0.6,1.9,1,3,0.3,4.9c1.8-1,3.5-2,5.3-3c-0.9-0.2-1.4-5.8-1.6-6.8c-0.7-3-3.9-3.6-6.4-2.6c-3.4,1.5-6.4,7.5-9.9,7.5
				c1.4,1.8,2.8,3.7,4.2,5.5c1.3-3.8,3.9-7.1,5.6-10.8c-2.6-1.1-5.3-2.2-7.9-3.3c-0.3,0.9-0.7,1.7-1.3,2.4c2.6,0.3,5.3,0.7,7.9,1
				c-0.3-0.8-0.7-1.5-0.9-2.3c-0.6-2.5-4.1-4.2-6.4-2.6c-1.6,1.2-3.1,2.4-5,3C179.8,239.1,182.1,247.5,187.4,245.7L187.4,245.7z"/>
		</g>
	</g>
	<g>
		<g>
			<path class="st31" d="M149.3,289.6c-0.7,0-1.3,0-2,0c-6.6,0-11.5,9.3-5.8,14c3.9,3.2,7.3,5,12.4,5.6c8.1,0.9,11.2-11.8,4.1-15.3
				c-0.4-0.2-0.8-0.4-1.2-0.6c-2.8,4.7-5.5,9.5-8.3,14.2c21.8,10.2,44.2,7.2,67.2,4c4.4-0.6,6.8-6.2,5.7-10.1
				c-1.3-4.7-5.7-6.3-10.1-5.7c-18,2.5-37.4,5.7-54.5-2.3c-9.5-4.4-17.8,9.4-8.3,14.2c0.4,0.2,0.8,0.4,1.2,0.6
				c1.4-5.1,2.8-10.2,4.1-15.3c0-0.4-0.3-0.7-0.8-0.8c-1.9,4.7-3.9,9.3-5.8,14c0.7,0,1.3,0,2,0C159.9,306,159.9,289.6,149.3,289.6
				L149.3,289.6z"/>
		</g>
	</g>
	<g>
		<g>
			<path class="st21" d="M216.8,341c-4.1,4.9-4.9,9.9-5.7,16.1c-0.9,6.6-2.4,13.1-2.6,19.8c-0.3,9.6,14.9,11.9,17,2.3
				c4-18.5,8.6-37.4,4.3-56.2c-1.7-7.3-12.2-8.3-15.8-2.1c-3.6,6.2-4.9,13.1-6.4,20c-1.7,7.9-4.7,15.2-6.9,22.9
				c-4.9,16.6-9.7,33.4-12.4,50.5c-1,6,2.3,10.2,8.3,11c21.8,2.6,41.3,13.7,62.6,18.4c8.4,1.8,17.9,3.4,26.4,1.1
				c9.9-2.7,15.8-11.6,15.2-21.8c-0.3-4.6-3.7-8.7-8.7-8.7c-8.2,0-16-2.7-24.1-3.4c-5.8-0.4-11.6-0.2-17.2-2
				c-5.2-1.7-7.4-5.8-7.2-11.3c0.2-6.1,3.7-9.5,9.2-11.4c7-2.3,14.2-4,21.5-4.7c8-0.7,17.3-0.6,24.7-3.9c12.1-5.5,11.7-18.7,15-29.6
				c1.5-5.1-2.8-11.3-8.3-11c-5.2,0.3-9.9-3-14.4-5.1c-6.6-3.1-13.7-5.4-20.8-7.3c-15.3-4-31.5-5.7-47.2-6.1
				c-11.1-0.3-11.1,17,0,17.3c15.5,0.4,31.3,2.1,46.2,6.5c6.1,1.8,12,4,17.7,6.8c5.8,2.8,11.9,5.6,18.6,5.2c-2.8-3.7-5.6-7.3-8.3-11
				c-1.5,5.1-1.6,11.3-3.6,16c-1.1,2.6-1.4,2.5-4.3,3.2c-4.7,1-9.5,1.2-14.3,1.6c-15.2,1.4-36.4,4-45,18.6
				c-8.8,14.9-2.7,35.7,13.6,42c6.7,2.6,14.1,3,21.3,3.3c9.1,0.4,17.9,3.6,27.1,3.5c-2.9-2.9-5.8-5.8-8.7-8.7c0.1,1.5,0,2.7-0.6,4.1
				c-0.6,1.4,0.2-0.3-0.3,0.4c-0.5,0.7,1.1-0.5-0.5,0.2c1.1-0.5-0.1,0.1-0.7,0.2c-0.7,0.2-1.5,0.4-2.2,0.5c0.6-0.1-2.9,0.1-3.7,0.1
				c-6.8-0.1-13.6-1.8-20.2-3.7c-19.7-5.7-38-14.4-58.6-16.8c2.8,3.7,5.6,7.3,8.3,11c2.6-16.5,7.2-32.7,11.9-48.7
				c2.1-7.3,5.1-14.4,6.8-21.8c1.4-6.3,2-13.2,5.3-18.8c-5.3-0.7-10.5-1.4-15.8-2.1c3.5,15.6-1,31.8-4.3,47c5.7,0.8,11.3,1.5,17,2.3
				c0.1-5.1,1.2-10,2-15c0.3-2,0.4-4.1,0.8-6.1c0.1-0.7,1.5-3.7,0.5-2.5c3-3.6,3.5-8.7,0-12.2C225.9,337.9,219.7,337.3,216.8,341
				L216.8,341z"/>
		</g>
	</g>
	<g>
		<g>
			<path class="st21" d="M239.3,335.3c-0.1-0.4-0.1-0.7-0.2-1.1c0,1.5,0,3.1,0,4.6c0.1-0.3,0.1-0.6,0.2-0.9
				c-5.3,0.7-10.5,1.4-15.8,2.1c3.8,7.4-2.1,17.3-4.3,24.3c-2.5,7.9-5.4,23.8,5.5,27.1c8.6,2.6,13.3-6.4,16.2-12.8
				c2.3-5.1,3.7-10.6,5.1-16c0.8-2.9,1.6-5.7,2.6-8.5c0.4-1.1,1.3-2.5,1.4-3.7c0.2-2.3,2.1-0.8-1.4-0.2c-1.5,0-3.1,0-4.6,0
				c0.2,0,0.4,0.1,0.5,0.1c-1.3-0.7-2.5-1.5-3.8-2.2c-2-1.6-0.4-2.7-1.6-0.3c-0.6,1.3-1,2.8-1.6,4.1c-1.8,4.1-3.6,8.1-4.1,12.6
				c-1,8.6,6.2,19.3,15.8,14.1c5.2-2.8,7.9-8.7,10.2-13.8c0.9-1.9,1.6-4,2.6-5.9c0.6-1.1,1.1-1.8,1.9-2.6c0.3-0.3,1.5-1.2,1.5-1.6
				c-0.2,1.3-10.5-4.7-4.4,0c-1-1-2.1-2.1-3.1-3.1c1.8,2.3,0.3,0.4,0.3,0.4c-0.6,0.9-1,2.8-1.5,3.9c-1.5,3.2-3.2,6.2-4.3,9.5
				c-1.8,5.4,3,10.9,8.3,11c6.2,0,10.5-3.7,14.2-8.2c1.3-1.6,2.5-3.4,4.5-4.3c0.8-0.4,1.8-0.3,2.6-0.5c0.3,0,0.7,0,1,0.1
				c-1.9,0-3.4-1-4.6-3c-0.4-1.5-0.8-2.9-1.2-4.4c0-1.5,0.4-2.7,1.3-3.7c0.5-0.6,0.5-0.6-0.1,0c-0.7-0.1-0.1,0.1-0.3,0.3
				c-1.3,1-2.8,1.8-4.2,2.7c-2.3,1.3-4.6,2.6-7,3.8c-7.9,3.9-3.9,16.1,4.4,16.1c9.8,0,22-6,28.3-13.5c3.2-3.8,3.8-11.2-1.8-13.6
				c-8.8-3.8-17.9-5.8-27.3-7.3c-2.5-0.4-5.1-0.7-7.7-1.1c-1.7-0.3-3.3-0.6-5-1c-0.6-0.2-1.3-0.5-2-0.6c-1.5-0.2-0.2-0.6,0.6,0.8
				c1.9,1.5,1.5,3.3-1.1,5.6c-3,3.6-3.5,5.1-1.6,4.5c0.1,0.2-0.7-0.1-0.1,0c1.2,0.2,2.6,0,3.9,0.2c1.2,0.1-0.1-0.1,1.8,0.3
				c0.8,0.2,1.5,0.3,2.3,0.5c1.7,0.4,3.3,1.1,5,1.7c1.5,0.6,1.2,0.4,2.1,0.9c0.3,0.2,1.3,0.9,1.7,0.9c0.4,0.3,0.4,0.2-0.1-0.1
				c-1-0.8-1.7-1.8-2.1-3.2c0-1.5,0-3.1,0-4.6c0,0.1-0.1,0.2-0.1,0.3c0.7-1.3,1.5-2.5,2.2-3.8c2.8-1.4,3.3-1.8,1.6-1.4
				c-4.6,0.8-7.2,6.4-6,10.6c1.3,4.9,6,6.9,10.6,6c6.6-1.2,11.1-8.2,7.3-14.4c-2.6-4.3-8.1-6.2-12.6-7.8c-6.5-2.5-14.8-4.6-21.6-2.7
				c-6,1.6-10,7.1-8.3,13.3c1.6,5.8,6.7,8.4,12.1,9.8c11.8,3,24.5,2.7,35.8,7.6c-0.6-4.5-1.2-9.1-1.8-13.6
				c-3.6,4.3-11.3,8.4-16.1,8.4c1.5,5.4,2.9,10.7,4.4,16.1c7.5-3.8,22.5-10.6,18.1-21.3c-2.9-7.2-12.1-7.5-18.4-5.7
				c-4.1,1.1-8,3.6-10.8,6.7c-1.1,1.2-2,2.6-3.1,3.8c-0.6,0.7-1.2,1.3-1.8,1.9c-0.6,0.4-0.2,0.2,1.1-0.3c2.8,3.7,5.6,7.3,8.3,11
				c2.4-7,7.8-13.3,6.2-21.4c-1.8-9.3-11.1-13.7-19.2-8.5c-4.7,3-8.3,8-10.5,13.1c-1,2.4-2,4.8-3.2,7.1c-0.6,1.1-1.1,2.2-1.8,3.2
				c-0.7,1-0.2,0.4-0.3,0.3c-0.1-0.1,2.7-1.5,3.7-1.4c1.5,0.4,2.9,0.8,4.4,1.2c0.8,0.4,2.1,2.8,2.1,2.9c0.6,0.1-1.7,1,0-0.3
				c0.8-0.6,1.3-4.2,1.8-5.3c1.3-3.3,3.2-6.5,3.9-10.1c0.9-4.2,0.9-9.2-1.5-12.9c-2.8-4.5-8.7-6-13.4-3.5
				c-8.1,4.4-10.3,17.2-12.5,25.2c-1,3.8-1.9,7.7-3.4,11.2c-0.5,1.3-1.2,2.5-1.9,3.8c-0.3,0.5-0.7,1-0.9,1.6
				c-0.5,0.8-0.6,0.9-0.3,0.4c0.6-1,1.5-1.6,2.7-1.9c1.5,0,3.1,0,4.6,0c-0.1,0-0.3-0.1-0.4-0.1c1.3,0.7,2.5,1.5,3.8,2.2
				c1.1,1,0.6,2.8,1.2,1.5c0.2-0.6,0-1.9,0-2.6c0.1-1.7,0.6-3.3,1-4.9c1.2-4.3,2.9-8.4,4.3-12.7c2.9-9.2,3.4-18.2-1.1-27
				c-3.4-6.6-14.1-5-15.8,2.1c-0.6,2.4-0.5,4.3,0,6.6C224.7,350.8,241.4,346.2,239.3,335.3L239.3,335.3z"/>
		</g>
	</g>
	<g>
		<g>
			<path class="st21" d="M210.1,383.2c-0.5-0.6-0.9-1.2-1.1-1.9c0.2,0.8,0.2,1,0.1,0.4c0.2-0.6,0.1,1.6,0.1,2.1
				c0.1,2.5-0.1,5-0.3,7.4c-0.3,4.3-0.9,8.6-0.8,13c0.1,4.7,3.9,8.7,8.7,8.7c5.2,0,8-4,8.7-8.7c1.1-8.5,0.5-29.2-13.6-25.2
				c-4.8,1.4-7.1,6.1-8.4,10.6c-0.6,2-0.8,4-1.1,6.1c0.4-2.8-0.4,2.6-0.5,3.2c-1,7.2-1.5,17.5,7.5,19.8c5.2,1.3,10.2-2,13-6.2
				c1.8-2.7,2.6-8.6,4.4-10.3c-4.1,0-8.2,0-12.2,0c2.2,2.1,2.3,6.4,3.1,9.3c1.3,4.5,3.3,8.9,7,12c6.3,5.3,16.9,0.4,14.5-8.4
				c-0.9-3.4-2.7-6.3-4-9.5c-5.3,2.2-10.5,4.4-15.8,6.7c3.4,5.5,7.5,10.4,12,15c7.8,7.9,20.1-4.3,12.2-12.2
				c-3.5-3.6-6.7-7.2-9.3-11.5c-4.9-8-19.6-2.8-15.8,6.7c1.3,3.1,3.1,6.2,4,9.5c4.8-2.8,9.6-5.6,14.5-8.4c-2.7-2.3-2.9-6-3.7-9.3
				c-1.2-4.5-3-8.7-6.4-12c-3.4-3.3-8.8-3.2-12.2,0c-2.9,2.7-4.3,6.3-5.5,10c-0.2,0.7-0.9,2.4-0.9,2.8c0.4,2.5,12,0.8,10.6,4.4
				c0.2-0.5,0-1.5,0-2.1c0.1-3,0.3-3.7,0.6-6c0.1-0.7,0.8-4.5,0.4-2.7c0.1-0.5,0.8-2.2,0.7-2.8c0.2-0.6,0.2-0.7,0.1-0.4
				c-0.7,1.3-1.8,2-3.5,2.4c-1.5,0-3.1,0-4.6,0c0.2,0.1,0.3,0.1,0.5,0.2c-1.3-0.7-2.5-1.5-3.8-2.2c-1.3-1.4-0.6-1.6-0.5,0.2
				c0.1,1.1,0.2,2.1,0.2,3.2c0,2.4-0.2,4.8-0.5,7.2c5.8,0,11.5,0,17.3,0c-0.3-9.8,5-25.4-3.1-33.2
				C214.4,363.2,202.1,375.4,210.1,383.2L210.1,383.2z"/>
		</g>
	</g>
	<g>
		<g>
			<path class="st21" d="M278.8,450.3c2,0.3,4,0.6,6,0.6c0.6,0,1.2,0,1.8-0.1c2.2-0.2,3.2-0.5,5.3-1.4c1.9-0.8,3.5-3.3,4-5.2
				c0.6-2.1,0.3-4.8-0.9-6.7c-1.2-1.8-3-3.5-5.2-4c-0.8-0.1-1.5-0.2-2.3-0.3c-1.6,0-3,0.4-4.4,1.2c-0.1,0-0.1,0.1-0.2,0.1
				c0.7-0.3,1.4-0.6,2.1-0.9c-0.2,0.1-0.5,0.1-0.7,0.2c0.8-0.1,1.5-0.2,2.3-0.3c-1.7,0.2-3.4,0-5.1-0.2c0.8,0.1,1.5,0.2,2.3,0.3
				c-0.1,0-0.2,0-0.3,0c-2.4-0.3-4.5-0.4-6.7,0.9c-1.8,1.1-3.5,3.1-4,5.2c-0.5,2.2-0.4,4.7,0.9,6.7
				C274.8,448.1,276.7,450,278.8,450.3L278.8,450.3z"/>
		</g>
	</g>
	<g>
		<g>
			<path class="st6" d="M112.6,36c-0.7-0.3-1.1-0.8-1.2-1.6c-2.8,0.8-5.6,1.5-8.3,2.3c3,15.6,1.1,31.8,5.1,47.3
				c1.8,7,4.5,13.7,7.4,20.3c3.1,7,5.4,14.4,9,21.1c2.3-1.7,4.5-3.5,6.8-5.2c-5-6.3-7-13.9-10.3-21c-1.3-2.9-3-5.6-3.4-8.8
				c-0.5-3.8,0.1-7.7-0.3-11.5c-0.8-8.2-2.2-16.3-2.6-24.5c-0.3-5.2-3.5-12-1.6-17c-2.4,0.6-4.8,1.3-7.2,1.9
				c4.1,5.2,4.8,13.1,5.9,19.4c1.3,7.2,3.6,14,5.5,21c2.1,7.9,3.5,15.9,4.6,24c1,7.6,2.1,15,5.3,22.1c1.9,4.4,7.6,1.5,8.1-2.2
				c2.2-19.6-5-39.2-11.1-57.5c-1.8-5.4-2.8-10.8-4.4-16.3c-1-3.4-2.6-10.1-7.3-9.6c-5.5,0.5-5.5,9.2,0,8.7c-4.4,0.4-2.4-2.6-2,0
				c0.1,1.1,0.7,2.2,1,3.3c0.6,2.1,1.1,4.2,1.6,6.3c1.3,5.5,3.1,10.8,4.8,16.3c5.1,15.7,10.5,32.2,8.7,48.8c2.7-0.7,5.4-1.5,8.1-2.2
				c-3.4-7.6-3.8-16.1-4.9-24.2c-1.2-8.5-3.1-17-5.6-25.3c-2.1-7-3.5-13.9-4.9-21.1c-1.3-6.4-3.1-12.5-7.2-17.7
				c-2.2-2.8-6.2-0.8-7.2,1.9c-2.4,6.2,0.9,13.1,1.3,19.3c0.6,9.3,2.5,18.5,2.9,27.7c0.2,4.2-0.4,8.4,0.7,12.5
				c0.9,3.4,2.8,6.4,4.2,9.5c3.4,7.9,6,15.4,11.4,22.2c3.2,4,9-1.1,6.8-5.2c-3.2-6.2-5.3-13.1-8.2-19.5c-3.1-6.9-6-14.2-7.7-21.6
				c-3.5-14.9-1.8-30.5-4.7-45.5c-1.1-5.5-9.2-3.1-8.3,2.3c0.4,2.3,1.7,3.9,3.4,5.4C110.7,45.7,116.8,39.6,112.6,36L112.6,36z"/>
		</g>
	</g>
	<g>
		<g>
			<path class="st6" d="M113.4,82.1c1.7,5.7,2.7,11.6,4.3,17.3c1.5,5.3,9.9,3.1,8.3-2.3c-0.4-1.3-0.8-2.5-1.2-3.7
				c-1.5-5.3-9.9-3.1-8.3,2.3c0.4,1.3,0.8,2.5,1.2,3.7c2.8-0.8,5.6-1.5,8.3-2.3c-1.7-5.7-2.7-11.6-4.3-17.3
				C120.2,74.4,111.9,76.7,113.4,82.1L113.4,82.1z"/>
		</g>
	</g>
	<g>
		<g>
			<path class="st6" d="M121.4,85.2c0-0.2,0-0.4,0-0.6c-0.1,0.4-0.1,0.8-0.2,1.1c0,0,0,0,0-0.1c-0.1,0.3-0.3,0.7-0.4,1c0,0,0,0,0,0
				c-0.9,0.7-1.7,1.3-2.6,2c0,0,0,0,0,0c-1.1-0.1-2.2-0.3-3.3-0.4c0,0,0,0,0,0c-0.5-0.5-1-1-1.6-1.6c0,0,0.1,0.1,0.1,0.1
				c-0.1-0.3-0.3-0.7-0.4-1c0,0.1,0.1,0.2,0.1,0.3c0.4,1.1,1,2,2,2.6c0.9,0.5,2.3,0.8,3.3,0.4c1-0.3,2.1-1,2.6-2
				c0.5-1,0.8-2.2,0.4-3.3c-0.3-0.9-0.7-1.6-1.3-2.3c-1.2-1.3-3.2-1.6-4.8-0.9c-2,0.8-2.7,2.7-2.7,4.7c0,1.1,0.5,2.3,1.3,3.1
				c0.8,0.8,2,1.3,3.1,1.3C119.4,89.5,121.4,87.7,121.4,85.2L121.4,85.2z"/>
		</g>
	</g>
	<g>
		<g>
			<path class="st6" d="M327.5,34.9c-6.3-1.9-11.1,5.1-14.1,9.5c-4,5.8-7.1,12.2-10.4,18.4c-10.8,20.3-16.6,46-11.4,68.8
				c0.9,3.9,5.9,3.9,7.9,1c4.3-6.1,5.8-13.6,8-20.6c2.4-7.8,6-15.4,9.3-22.9c6.2-14.1,17.2-28.5,15.3-44.8c-0.7-6.2-5.9-8.1-9.9-3
				c-4.3,5.5-5.9,12.8-8.7,19.1c-7.1,16.2-14.3,31.3-17,49c2.8,0.4,5.7,0.8,8.5,1.1c0.5-5.9,3.7-11.2,5.6-16.7
				c1.8-5.3-6.6-7.6-8.3-2.3c-2.2,6.4-5.3,12.2-5.9,19c-0.4,4.8,7.8,6,8.5,1.1c2-13.1,6.2-24.7,11.6-36.8c2.3-5,4.7-10,6.7-15.2
				c1.9-4.8,3.1-10.4,6.8-14.2c-1.4,0.4-2.8,0.7-4.2,1.1c-0.2,0-0.3-0.1-0.5-0.1c-0.7-0.9-1.3-1.7-2-2.6c1.4,8.3-1.9,16.4-5.5,23.7
				c-3.4,6.9-7,13.5-10,20.6c-2.8,6.6-6.1,13.2-8.3,20.1c-2.2,6.8-3.4,14-7.6,20c2.6,0.3,5.3,0.7,7.9,1c-4.3-19,0.2-41.8,8.9-59
				c2.6-5.2,5.4-10.4,8.2-15.5c1.5-2.7,3.1-5.4,5-7.9c0.8-1.1,1.8-2,2.7-3.1c0.8-0.9,1.4-0.4,0.4-0.7
				C330.6,44.8,332.9,36.5,327.5,34.9L327.5,34.9z"/>
		</g>
	</g>
	<g>
		<g>
			<path class="st6" d="M310.9,61.1c-7.5,7.3-11.3,19.4-11.9,29.6c-0.4,5.6,8.3,5.5,8.7,0c0.5-7.9,3.6-17.9,9.4-23.5
				C321.1,63.3,314.9,57.2,310.9,61.1L310.9,61.1z"/>
		</g>
	</g>
	<g>
		<g>
			<path class="st6" d="M318.8,66.8c-4,10.6-8.5,21-12.7,31.5c-2.8,7-7.7,14.3-7.4,22.1c0.1,4,4.5,5.4,7.4,3.1
				c6.9-5.7,10.2-16.8,13.2-24.9c1.9-5.2,3.4-10.5,5.4-15.6c2-5.3,3.8-10.5,4.3-16.2c0.5-5.5-8.2-5.5-8.7,0c-0.4,4.8-2.3,9.4-4,13.9
				c-1.7,4.6-3.1,9.3-4.7,14c-1.5,4.2-3.3,8.2-5,12.2c-1.6,3.9-3.3,7.8-6.6,10.5c2.5,1,4.9,2,7.4,3.1c-0.3-7.2,5-14.4,7.5-20.9
				c3.9-10.2,8.4-20.2,12.3-30.5C329.1,63.9,320.7,61.6,318.8,66.8L318.8,66.8z"/>
		</g>
	</g>
	<g>
		<g>
			<path d="M120.4,141.3c-6.2-5.2-10.5-12.5-14.2-19.5C101,112,97,101.5,93.7,90.9c-6.2-20-11.5-43.4-6.7-64.2
				c1.7-7.5,5.2-15.2,12.5-18.8c5.9-2.9,11.3-0.7,15.7,3.7c6,5.9,10,14,13.4,21.6c4.3,9.8,7.6,20.2,10.4,30.6
				c4.9,17.9,9.9,37.4,10,56.1c0,4.2,6.5,4.2,6.5,0c-0.1-17.9-4.7-36.6-9.1-53.8c-2.9-11.4-6.4-22.7-11-33.6
				c-3.7-8.7-8-17.5-14.5-24.5c-4.8-5.2-11.4-9-18.7-7.7c-8.1,1.4-14.5,7.9-18,15.1c-9.5,19.9-4.8,45.9,0.4,66.4
				c3.3,13.2,7.9,26.2,13.8,38.5c4.4,9.1,9.7,19,17.6,25.6C119,148.6,123.6,144,120.4,141.3L120.4,141.3z"/>
		</g>
	</g>
	<g>
		<g>
			<path d="M104.9,25.5c-5.3,1.4-6.2,8.6-6.7,13.2c-0.9,8.9-0.1,18,1.1,26.8c2.4,18.9,6.1,40.9,17,57c3.4,5,8.3,10,14.8,9.3
				c6.4-0.7,8.4-6.4,8.9-12.1c0.8-8.6-0.6-17.4-2.2-25.8c-2-10.7-4.7-21.3-8.1-31.7c-2-6.2-13.1-44.7-25.7-36.3
				c-3.5,2.3-0.2,7.9,3.3,5.6c0.6-0.4-0.3-0.3,0-0.1c0.1,0.1,0.7,0.4,1.2,0.9c1.8,1.7,3,3.8,4.2,5.9c3.9,6.8,6.8,14.3,9.3,21.8
				c5.7,16.5,10.6,34.2,11.5,51.7c0.2,2.9,0.3,5.9-0.2,8.8c-0.2,1.1-0.4,2.2-0.8,3.2c-0.2,0.5-1,1.4-0.7,1.2c-3.3,2.3-7.4-2-9.4-4.6
				c-9.7-12.9-13.1-31.6-15.7-47.2c-1.6-9.3-2.6-18.9-2.5-28.4c0-3.1,0.2-6.3,0.9-9.4c0.2-1.1,0.6-2.1,1-2.9c0.4-1,0.4-0.6,0.4-0.6
				C110.7,30.7,109,24.5,104.9,25.5L104.9,25.5z"/>
		</g>
	</g>
	<g>
		<g>
			<path d="M151,125.7c13.3-16.2,37.6-18.1,57.1-17.5c21,0.7,42.5,4.7,62,12.5c3.9,1.6,5.6-4.7,1.7-6.3c-20.8-8.4-44-12.5-66.3-12.8
				c-20.4-0.3-45.2,2.6-59.1,19.4C143.8,124.3,148.4,129,151,125.7L151,125.7z"/>
		</g>
	</g>
	<g>
		<g>
			<path d="M278.8,129.5c-1.5-5.9-0.5-12.6,0.4-18.5c1.4-9.1,3.7-18.1,6.5-27c5.7-18.5,13.3-37.3,24.6-53.1
				c5.2-7.2,19.5-22.9,27.8-10.4c4.3,6.4,4.3,15.5,4.1,22.9c-0.3,11.2-2.2,22.3-4.8,33.1c-5.8,24.2-14.7,50.5-30.6,70
				c-2.6,3.2,1.9,7.8,4.6,4.6c15.5-18.9,24.5-43.5,30.7-66.8c3.2-12,5.6-24.4,6.4-36.8c0.6-9,0.5-19-3.3-27.4
				C342.4,14,337,9.5,330,9.4c-7,0-13.1,4.3-17.8,9.1c-14.3,14.3-22.8,35-29.5,53.8c-4,11.2-7.3,22.7-9.4,34.5
				c-1.4,7.9-2.8,16.6-0.8,24.5C273.5,135.3,279.8,133.6,278.8,129.5L278.8,129.5z"/>
		</g>
	</g>
	<g>
		<g>
			<path d="M291.6,125.7c-0.9-19.1,6.3-38.7,13.1-56.2c2.8-7.2,6.3-14.1,10.5-20.6c1.9-2.9,7.5-12.9,11.9-12.5
				c4.2,0.3,3.5,11.4,3.3,14.1c-0.6,7.5-2.7,15-4.9,22.2c-3.9,12.8-8.4,26.2-14.3,38.2c-2.8,5.8-6.4,11.5-10.6,16.3
				c-1.3,1.4-4.1,5.1-6.2,5.1C292.4,132.4,291.8,127.5,291.6,125.7c-0.5-4.1-7-4.1-6.5,0c0.7,5.6,2.6,14.1,10.1,13.1
				c6.1-0.9,10.8-7.6,14.2-12.3c9.1-12.6,14.1-27.9,19.2-42.5c3.2-9.1,6.2-18.5,7.6-28.1c1.1-7,1.8-15.6-2.2-21.9
				c-9.6-15-25.5,12.9-29.1,19.5c-5.5,10.3-9.5,21.4-13,32.6c-4,12.7-7.6,26.2-6.9,39.7C285.3,129.9,291.8,129.9,291.6,125.7
				L291.6,125.7z"/>
		</g>
	</g>
	<g>
		<g>
			<path d="M111,138.9c-7.5,22.1-12.8,45-17.3,67.9c-4.2,21.6-7.8,43.5-9.3,65.5c-0.3,4.2,6.2,4.1,6.5,0c1.5-21.9,5.1-43.7,9.4-65.3
				c4.4-22.4,9.6-44.7,17-66.3C118.6,136.7,112.4,135,111,138.9L111,138.9z"/>
		</g>
	</g>
	<g>
		<g>
			<path d="M307.1,148.3c15.9,41.2,16.7,86.2,19.6,129.7c0.3,4.1,6.8,4.2,6.5,0c-2.9-44-3.7-89.7-19.8-131.4
				C311.8,142.7,305.6,144.4,307.1,148.3L307.1,148.3z"/>
		</g>
	</g>
	<g>
		<g>
			<path d="M88.5,269.1c-10.2-1.8-19.9-5.2-28.2-11.5c-8.1-6.2-14.2-14.6-19.3-23.4c-4.5-7.9-8-16.3-11.8-24.5
				c-2.9-6.2-6.4-15.3-12.6-19.1c-6.3-3.9-11.2,2.8-12.7,8.3C2,206,2.2,214,2.5,221.4c0.6,18.1,5,36.2,13.4,52.4
				c11.8,22.6,31.2,39.5,53.9,50.6c3.7,1.8,7-3.8,3.3-5.6c-19.4-9.5-36.5-23.2-47.9-41.8c-9.1-14.8-14.3-31.9-15.8-49.2
				c-0.6-6.9-0.8-14-0.2-20.9c0.2-3,0.5-7.3,2.4-9.7c2-2.6,3.4,0.3,5,2.6c9.3,13.4,13.5,29.7,22.5,43.4
				c11.3,17.4,27.3,28.5,47.8,32.1C90.8,276.1,92.6,269.8,88.5,269.1L88.5,269.1z"/>
		</g>
	</g>
	<g>
		<g>
			<path d="M328.1,278.3c1.6,17.5,3.8,35.4,2.5,53.1c-0.7,10.4-3.3,20.8-10.9,28.3c-8.6,8.4-21.7,13-33.2,15.7
				c-7.7,1.7-15.5,2.7-23.2,4.3c-6.6,1.4-14.1,2.9-19.6,7c-4.7,3.5-6.5,9.5-4.5,15c2.3,6,8.7,9.1,14.5,11c15.7,5.2,34,5,50.2,2.8
				c16.9-2.3,33.4-8.4,46-20.2c11.4-10.7,19.5-25.5,20.7-41.2c1.2-16.4-2.3-33.7-8.9-48.7c-5.8-13.3-15.6-27.6-30.9-30.3
				c-4.1-0.7-5.8,5.5-1.7,6.3c12.7,2.2,20.7,13.8,25.9,24.7c6.1,12.9,9.3,27.6,9.3,41.9c0.1,14.8-5.4,28.1-15.4,39.1
				c-11.1,12.2-26.3,18.8-42.3,21.6c-15.6,2.7-33,2.9-48.4-1.3c-5.1-1.4-13.7-4.1-13.3-10.7c0.4-5.9,8.6-7.7,13.2-8.9
				c22.7-6.1,50.5-6,67.6-24.8c7.6-8.4,10.4-19.3,11.3-30.3c1.5-17.9-0.7-36.2-2.4-54C334.2,274.2,327.7,274.1,328.1,278.3
				L328.1,278.3z"/>
		</g>
	</g>
	<g>
		<g>
			<path d="M87.6,276.8c10.4,10.7,24,18.2,37.4,24.3c15.8,7.2,32.5,12.9,49.5,16.2c14.9,2.9,29.2,3.1,44.2,0.3
				c19.1-3.6,37.6-10,55.7-16.9c19-7.2,37.5-15.5,56.3-23.2c3.8-1.6,2.1-7.8-1.7-6.3c-33,13.6-65.7,28.9-100.5,37.5
				c-15.3,3.8-30.2,5.7-45.8,3.3c-16.3-2.5-32.3-7.4-47.5-13.7c-15.3-6.3-31.3-14.3-43-26.3C89.3,269.2,84.7,273.8,87.6,276.8
				L87.6,276.8z"/>
		</g>
	</g>
	<g>
		<g>
			<path d="M84.4,272.2c0.9,13.7,6.3,26.9,12.4,39c6.3,12.3,14.1,24.9,24.5,34.2c24.1,21.5,52.2-7.6,70.1-23.3
				c3.2-2.7-1.5-7.3-4.6-4.6c-9.7,8.5-19.1,17.7-30.4,24c-5.4,3-11.6,5.5-17.9,5.1c-6.2-0.5-11-4-15.2-8.2
				c-8.9-8.9-15.7-20-21.4-31.1c-5.4-10.8-10.4-22.9-11.2-35.1C90.6,268.1,84.1,268.1,84.4,272.2L84.4,272.2z"/>
		</g>
	</g>
	<g>
		<g>
			<path d="M313.1,366.8c2.5-8.4,4.9-17,6.1-25.7c0.3-1.8-0.4-3.3-2.3-4c-22.5-8-45.9-14.1-69.1-19.4c-9.3-2.1-19.5-5-29.1-4.8
				c-7.9,0.2-9,7.6-11.1,14c-8.3,25.4-13.9,51.5-20.8,77.3c-1.3,5.1-4.1,11.5-2.6,16.8c1.3,4.5,5.7,6.6,9.7,8.1
				c16.2,6.2,33.7,9.7,50.6,13.6c7.3,1.7,14.4,3.6,21.6,5.5c6.5,1.7,13.9,4,20.7,3.4c15.7-1.4,15.5-26.8,18.5-37.8
				c1.1-4-5.2-5.8-6.3-1.7c-1.8,6.9-2.5,14-4.3,20.9c-1.2,4.7-3.3,11.8-9,12.2c-5.6,0.4-11.9-1.7-17.3-3.1c-5.3-1.4-10.6-3-16-4.2
				c-15.2-3.6-30.4-7-45.4-11.4c-3.8-1.1-7.6-2.1-11.3-3.6c-1.7-0.7-4.3-1.5-5.1-3.3c-1.6-3.7,1.7-10.7,2.7-14.3
				c6.2-23.6,11.6-47.4,18.7-70.7c1.4-4.5,2.7-9.1,4.5-13.4c0.2-0.5,0.6-1.1,0.7-1.6c0.4-1.3-0.1-0.1-0.2-0.1
				c-0.4,0.1,1.1-0.1,1.9-0.1c8.7-0.1,17.7,2.4,26.2,4.3c23.6,5.4,47.3,11.6,70.1,19.7c-0.8-1.3-1.5-2.7-2.3-4
				c-1.2,8.7-3.6,17.3-6.1,25.7C305.6,369.1,311.9,370.8,313.1,366.8L313.1,366.8z"/>
		</g>
	</g>
	<g>
		<g>
			<path d="M190.6,319.2c2.8,8.5,8.3,16.1,15.3,21.5c3.3,2.5,6.5-3.1,3.3-5.6c-5.6-4.3-10.1-10.9-12.4-17.7
				C195.6,313.6,189.3,315.3,190.6,319.2L190.6,319.2z"/>
		</g>
	</g>
	<g>
		<g>
			<path d="M281.3,329.5c19.5-14.1,38.9-29.2,50.2-51c1.9-3.7-3.7-7-5.6-3.3c-10.8,20.8-29.3,35.2-47.9,48.7
				C274.6,326.3,277.9,331.9,281.3,329.5L281.3,329.5z"/>
		</g>
	</g>
	<g>
		<g>
			<path d="M82.5,271.4C68.8,316,61.7,362.4,52.6,408c-2.7,13.7-5.3,27.6-9.6,40.9c-5.3,16.4-12.3,32.3-18.7,48.3
				C17,515.2,8.8,532.6,0.3,550c-1.1,2.3,0.8,5.9,3.7,4.8c15.2-5.9,29.6-4.2,44.2,2.6c12.3,5.6,23.8,13.3,37.2,16.2
				c28.6,6.1,59.1,1.2,86.7-6.9c15.9-4.7,32.1-6.9,48.7-6c12.9,0.8,25.3,3.7,37.7,6.9c10.9,2.8,21.9,5.2,33.2,4.9
				c13.2-0.3,26.2-2.7,38.5-7.2c11.4-4.2,22.1-10,33.5-14.1c12.1-4.4,24.3-5.3,36.8-2.4c2.2,0.5,5-1.6,4-4
				c-9.2-22.7-16.2-46.2-23.4-69.5c-8.7-28.4-17.1-56.9-26.1-85.1c-1.3-4-7.5-2.3-6.3,1.7c9.1,28.3,17.5,56.7,26.1,85.1
				c7.1,23.3,14.2,46.8,23.4,69.5c1.3-1.3,2.7-2.7,4-4c-10.9-2.5-21.9-2.8-32.8,0c-10.2,2.6-19.7,7.4-29.2,11.7
				c-23.5,10.4-47.9,14.7-73.2,8.8c-12-2.8-23.7-6.2-36-7.8c-15.6-2-31.7-1.6-47.1,1.6c-15.4,3.3-29.8,9.1-45.5,10.9
				c-14.5,1.7-29.4,2.6-44,0.7c-16.8-2.1-30.2-11.3-45.5-17.9c-15.3-6.7-30.8-8.1-46.6-2c1.2,1.6,2.4,3.2,3.7,4.8
				c15.6-31.9,30.2-64.6,41.8-98.2c4.1-11.9,6.7-24.3,9.3-36.7c4.7-22.6,8.7-45.2,13.2-67.8c5.2-26.1,10.7-52.1,18.5-77.5
				C90,269.1,83.7,267.4,82.5,271.4L82.5,271.4z"/>
		</g>
	</g>
	<g>
		<g>
			<path d="M92,571.8c-1.1,13.5-17.6,8.9-26.8,12c-5,1.8-8.8,6.1-9.4,11.5c-0.6,5.6,2.8,10,7.2,13c11,7.5,25.8,8.2,38.6,8.3
				c8.7,0.1,18.7-0.6,24.4-8.1c7.4-9.6,7.3-24.9,8.6-36.4c0.5-4.1-6-4.1-6.5,0c-1.1,9.7-1.1,21.8-6,30.6c-3.7,6.7-11.5,7.4-18.5,7.4
				c-11.4,0.1-24.4-0.4-34.7-5.8c-4.5-2.4-9.4-6.9-5.1-12.1c2.7-3.3,8-3.2,11.8-3.5c11.6-0.9,21.6-3.6,22.7-16.9
				C98.8,567.7,92.3,567.7,92,571.8L92,571.8z"/>
		</g>
	</g>
	<g>
		<g>
			<path d="M287.5,570.7c2.2,11.3,2.2,25.1,10,34.3c6.7,7.9,18.6,6.7,27.9,6c9.8-0.8,21.4-1.3,30.1-6.5c8.1-4.8,17.4-15.9,7.3-23.8
				c-2.5-1.9-5.8-3.5-8.9-3.9c-3.2-0.4-6.5,0.8-9.7,1.1c-4.7,0.5-6.1-1.3-7.7-5.4c-1.4-3.4-2.7-7.2-2.9-10.9c-0.2-4.2-6.7-4.2-6.5,0
				c0.3,7.8,3.8,21.4,12.9,22.7c5.4,0.8,10.7-2.5,15.8-0.3c5.8,2.5,6,6.5,1.6,10.8c-6.9,6.9-16.7,7.9-25.9,9c-5.2,0.6-10.4,1-15.6,1
				c-3.5,0-7.7,0.1-10.9-1.8c-5.2-3.1-6.9-10.3-8.2-15.7c-1.4-6.1-2-12.3-3.2-18.4C293,564.9,286.7,566.6,287.5,570.7L287.5,570.7z"
				/>
		</g>
	</g>
	<g>
		<g>
			<path d="M139.2,202.2c-1.4-5.6,1.8-11.1,7.4-12.6c7.4-2,10.7,5.1,11.7,11.2c0.7,4.1,6.9,2.4,6.3-1.7c-1.6-9.8-8.9-18.7-19.7-15.7
				c-9,2.5-14.2,11.6-11.9,20.6C134,207.9,140.2,206.2,139.2,202.2L139.2,202.2z"/>
		</g>
	</g>
	<g>
		<g>
			<path d="M254.5,205.6c-0.9-5.7,3.1-10.1,8.8-9.7c7.1,0.4,9.1,7.1,8,13.2c-0.7,4.1,5.5,5.8,6.3,1.7c1.8-10.2-2.6-21-14.2-21.4
				c-10.3-0.4-16.7,8.2-15.1,18C249,211.5,255.2,209.7,254.5,205.6L254.5,205.6z"/>
		</g>
	</g>
	<g>
		<g>
			<path d="M193.7,203.2c-20.3-0.1-46.3,10.2-52.8,31.3c-6.4,20.6,11.1,36.3,29,41.7c18.5,5.6,39.8,5,58.4,0.5
				c16.8-4,43.7-16,36.6-37.9c-4.3-13.3-16.9-23-29.3-28.2C222.5,205.1,207.9,203.5,193.7,203.2c-4.2-0.1-4.2,6.4,0,6.5
				c21.7,0.4,46.6,4.2,60.6,22.8c5.9,7.9,7.4,16.9,0.2,24.3c-6.4,6.6-15.8,10.3-24.5,12.7c-15.5,4.3-32.7,5.3-48.6,2.6
				c-15.3-2.6-34.8-10.6-35.3-28.8c-0.6-22.7,29.1-33.7,47.6-33.6C197.9,209.8,197.9,203.3,193.7,203.2L193.7,203.2z"/>
		</g>
	</g>
	<g>
		<g>
			<path d="M201.9,226.1c-2.5-2-13-9.7-11.5-13.7c-0.6,1.5,1.9,0.1,3-0.1c1.9-0.3,3.9-0.3,5.9-0.3c2.6,0.1,9,0,10.9,2.3
				c0.1,0.1,0.1-0.9-0.3,0.2c-0.7,1.6-1.9,3-3.1,4.3c-2.5,2.8-5.5,5-8.8,6.8c-3.7,2-0.4,7.6,3.3,5.6c5.4-2.9,17.6-11.4,15.1-19
				c-1.9-5.7-11.2-6.3-16.1-6.6c-4.8-0.2-13.5-0.4-15.9,4.8c-3.4,7.5,8.2,16.5,13,20.3C200.5,233.3,205.1,228.7,201.9,226.1
				L201.9,226.1z"/>
		</g>
	</g>
	<g>
		<g>
			<path d="M170.3,243.4c1.1,9,8,15.2,17.2,11.8c10.8-3.9,15.3-16.2,15.2-26.8c0-4.2-6.2-4.1-6.5,0c-0.7,10.1,2.8,22,11.8,27.6
				c9,5.7,17.5-0.2,21.6-8.7c1.8-3.7-3.8-7-5.6-3.3c-3.1,6.4-8.3,10.6-14.4,5c-5.6-5.1-7.4-13.3-6.9-20.6c-2.2,0-4.3,0-6.5,0
				c0,7.4-2.2,15.9-9.1,19.8c-5,2.9-9.7,1.1-10.4-4.8C176.3,239.3,169.8,239.3,170.3,243.4L170.3,243.4z"/>
		</g>
	</g>
	<g>
		<g>
			<path d="M235,233c6.5-1.1,13-2.2,19.6-3.4c4.1-0.7,2.4-7-1.7-6.3c-6.5,1.1-13,2.2-19.6,3.4C229.2,227.4,230.9,233.7,235,233
				L235,233z"/>
		</g>
	</g>
	<g>
		<g>
			<path d="M241,244.3c7-0.4,13.9-0.8,20.9-1.2c4.2-0.2,4.2-6.7,0-6.5c-7,0.4-13.9,0.8-20.9,1.2C236.9,238.1,236.9,244.6,241,244.3
				L241,244.3z"/>
		</g>
	</g>
	<g>
		<g>
			<path d="M240.6,253.1c5.1,2.3,10.2,4.6,15.3,6.9c3.8,1.7,7.1-3.9,3.3-5.6c-5.1-2.3-10.2-4.6-15.3-6.9
				C240.1,245.8,236.7,251.4,240.6,253.1L240.6,253.1z"/>
		</g>
	</g>
	<g>
		<g>
			<path d="M152,224.4c4.3,1.4,8.6,2.8,12.9,4.2c4,1.3,5.7-5,1.7-6.3c-4.3-1.4-8.6-2.8-12.9-4.2C149.7,216.9,148,223.1,152,224.4
				L152,224.4z"/>
		</g>
	</g>
	<g>
		<g>
			<path d="M144.1,236.9c5.3,0.9,10.5,1.7,15.8,2.6c4.1,0.7,5.8-5.6,1.7-6.3c-5.3-0.9-10.5-1.7-15.8-2.6
				C141.7,229.9,140,236.2,144.1,236.9L144.1,236.9z"/>
		</g>
	</g>
	<g>
		<g>
			<path d="M144.6,252.3c4.9-0.9,9.8-1.8,14.7-2.8c4.1-0.8,2.4-7-1.7-6.3c-4.9,0.9-9.8,1.8-14.7,2.8
				C138.7,246.8,140.5,253.1,144.6,252.3L144.6,252.3z"/>
		</g>
	</g>
</g>
</svg>
