<?xml version="1.0" encoding="utf-8"?>
<!-- Generator: Adobe Illustrator 19.1.0, SVG Export Plug-In . SVG Version: 6.00 Build 0)  -->
<svg version="1.0" id="Layer_1" xmlns="http://www.w3.org/2000/svg" xmlns:xlink="http://www.w3.org/1999/xlink" x="0px" y="0px"
	 viewBox="0 0 402.2 535.5" style="enable-background:new 0 0 402.2 535.5;" xml:space="preserve">
<style type="text/css">
	.st0{fill:#E1F4FD;}
	.st1{fill:#F2D8E0;}
	.st2{fill:#DFF0E3;}
	.st3{opacity:0.85;}
	.st4{opacity:0.3;fill:#FFFFFF;}
	.st5{opacity:0.3;fill:#F2D8E0;}
	.st6{fill:#FFFFFF;}
	.st7{opacity:0.3;fill:#DFF0E3;}
	.st8{opacity:0.4;fill:#FFFFFF;}
	.st9{opacity:0.3;fill:#E1F4FD;}
	.st10{fill:#F8DE8D;}
	.st11{fill:#BADAF3;}
	.st12{fill:#231F20;}
	.st13{fill:#010101;}
	.st14{fill:none;stroke:#010101;stroke-width:6.518;stroke-miterlimit:10;}
	.st15{fill:none;stroke:#FFFFFF;stroke-width:6.0438;stroke-miterlimit:10;}
	.st16{fill:#FAD6D7;}
	.st17{fill:#FFFEFE;}
	.st18{fill:#C2DE9F;}
	.st19{fill:#FCD6D6;}
	.st20{fill:#FEE777;}
	.st21{fill:#FAA958;}
	.st22{fill:#BADB93;}
	.st23{fill:#F9DE8C;}
	.st24{fill:#B0DAF4;}
	.st25{fill:#9C6026;}
	.st26{fill:#CB8F62;}
	.st27{fill:#714C1E;}
	.st28{fill:#9C9DCE;}
	.st29{fill:#FFC214;}
	.st30{fill:#DEE682;}
	.st31{fill:#F3DAB1;}
	.st32{fill:#F6B4C9;}
	.st33{fill:#FEC470;}
	.st34{fill:#FDC17E;}
	.st35{fill:#724F1F;}
	.st36{fill:#D22030;}
	.st37{fill:#00AFAC;}
	.st38{fill:#18A6DF;}
	.st39{fill:#FEDD10;}
	.st40{fill:#E74782;}
	.st41{fill:#FBD0D8;}
	.st42{fill:none;stroke:#000000;stroke-width:1.7659;stroke-miterlimit:10;}
	.st43{fill:#672F12;}
	.st44{fill:#F58C8E;}
	.st45{fill:#E8B674;}
	.st46{fill:#FFD89F;}
	.st47{fill:#FFEDB3;}
	.st48{fill:#5EB2E3;}
	.st49{fill:#7DB2E0;}
	.st50{fill:#F19C9D;}
	.st51{fill:#593712;}
	.st52{fill:none;stroke:#E7EFD6;stroke-width:0.4253;stroke-miterlimit:10;}
	.st53{fill:#D86464;}
	.st54{fill:#FEEBB1;}
	.st55{fill:#F8A95A;}
	.st56{fill:none;stroke:#010101;stroke-width:8.0507;stroke-linecap:round;stroke-linejoin:round;stroke-miterlimit:10;}
	.st57{fill:#95D4D1;}
	.st58{fill:#F6DD8C;}
	.st59{fill:#B0D9F4;}
	.st60{fill:#FFC118;}
</style>
<g>
	<g>
		<g>
			<g>
				<g class="st3">
					<g>
						<path class="st1" d="M136.7,435.6c0.4,1.4,1,1.9,1.7,3.1c0,0,0,0.9,0.1,1.9c0.1,0.9,0.2,1.8,0.2,1.8c0.5,0.6-0.1-0.9-0.9-2.8
							c-0.4-0.9-1-1.9-1.5-2.8c-0.3-0.4-0.4-0.9-0.6-1.3c-0.1-0.2-0.1-0.3-0.2-0.5c0,0,0-0.1-0.1-0.1l-0.1-0.1
							c-0.1,0-0.2-0.1-0.3-0.1c1.1,1.1,0.7,1.4,0.9,1.2C136.2,435.8,136.3,435.4,136.7,435.6z"/>
						<path class="st1" d="M0.3,7.5l0.7-0.3l1.7,4.6C1.6,13-0.9,9.5,0.3,7.5z"/>
						<path class="st1" d="M6.5,9c0.6-4.7,0,0-0.2,1.6l2.6,2.8l1.8-5.9L9.2,5.7l1.4,1.7C11.6,5.6,9.3,2.7,9,0.6
							c-3.1-1.9-4.1,3-5,7.1L2.8,6.6C4.3,0,9.3,0.4,14.7,0c2.1,1.5,3.6,4.7,4.6,7.3C17.3,16.2,11,14.8,5,12.5L6.5,9z"/>
						<polygon class="st4" points="13.5,13.1 12.3,12.1 12.9,8.1 						"/>
						<path class="st1" d="M221.9,468c3.6,1.8,6.1,10.6,6.9,17c-1.5,1.2-0.9,6.9-2.4,8.1c-0.4-1.3-3.4-11.5-4.6-7.4
							c2.9,2.7,1.3,7.7,0,8.9l0.4-3.8c-2.6-4.4-3-0.5-5.5-3.4l0.4-3.8l-3.5-4.1C216,475,216.7,466.7,221.9,468z"/>
						<path class="st1" d="M110.3,121.4c5.2-3.1,8-11.3,15.6,0.3c2.8,7.2,0.2,13.2-1.7,16l-7.5,2.3l0.2-1.5l-4.9-5.8l0.2-1.6
							l-3.2-2.7C111.3,127.7,112.5,122.9,110.3,121.4z"/>
						<path class="st4" d="M118.7,121.7c-1.8-2.4-3,0.2-4.2-0.2c0-2.2,1.1-3.2,1.8-4.2c3.4,1.9,3.5,9.2,4.8,12.5
							c-0.6,4.6-5.8,1-6.2,4.1C118.8,129.8,112.5,122.9,118.7,121.7z"/>
						<path class="st5" d="M120.4,127.1c-0.4,0.8-0.8,1.7-0.1,3l0.6,2l-1.6,0.5l-0.6-2l0.9-0.3l-3-4.2L120.4,127.1z"/>
						<path class="st1" d="M238,466.9c1.2,1.1,1.7,5.3,2.7,8c0.3,6.5-2.4,5.8-4.7,6.5c0.5-3.1,2.3,0,1.8-5.7l-3-6.4
							c0.1,2.9-0.5,5.3-2,2.8C233.5,468.2,234.7,463.4,238,466.9z"/>
						<path class="st1" d="M126.2,60.2l2.7,4.4l-2.7,5.9c0.5-0.9,0.9-1.7,0.2-3l-1.6-1.7l-1.1,7.6c-1.6-3.2-2.7-0.7-3.9-1.1l2.3-0.7
							l-0.8-2.7l1.4,1.1l-0.3-7.2l-8,2.3C118.3,63.2,121,57.3,126.2,60.2z"/>
						<path class="st1" d="M316.6,413.5c3.4-4.5,4.9-4.5,6-3.8c1,0.8,1.7,2.4,3.6,1.2c0.7-1.7-0.7-1.6-1.7-1.9c-1-0.3-1.8-0.9,0.6-4
							c1.6-0.9,3.5-1.6,4.8-1.5c1.3,0,2,0.7,1.6,2.7l0.4,0.3c0.5-1.6,0.4-2.7,0-3.7c-0.2-0.5-0.4-0.9-0.7-1.4
							c-0.3-0.4-0.6-0.9-0.8-1.4c-1-2-0.9-4.7,3.9-9.9c0.7,0.8,5.4-2.3,6.9-5c-0.4-0.7-0.3-1.7,0.2-2.9c0.4-1.2,1.2-2.5,2.1-3.8
							c0.8-1.3,1.8-2.7,2.5-3.9c0.7-1.2,1.2-2.2,1.3-3c0,0,0.9-0.3,1.7-0.7c0.9-0.3,1.7-0.7,1.7-0.7c0.5-1.5,0.1-2.4-0.5-3.3
							c-0.7-0.7-1.5-1.4-1.6-2.4c2.7-1.2,4.1-2.1,4.7-2.7c0.7-0.6,0.6-1,0.5-1.3c-0.2-0.6-0.5-1.3,4.2-3.6
							c-7.1,2.9-11.6,3.7-7.2,1.3c-0.9,0.2-1.9,0.4-2.8,0.6c-1,0.2-2.1,0.4-3.3,0.8c-2.4,0.6-5.1,1.3-8,1.9
							c-5.8,1.4-12.7,2.9-20.1,5.2c-3.7,2.2-6.1,2.8-8.9,3.1c-0.3,0-0.7,0.1-1.1,0.1c-0.4,0-0.7,0.3-1,0.4c-0.7,0.3-1.5,0.7-2.2,1
							c-1.6,0.7-3.5,1.5-6,2.4l2.2-0.1c-3.3,1.3-6.2,3.7-9.9,3.7c-0.8,2-2.8,4.5-7.8,7.2c-3.3,1.3-6.3,3.1-8.2,4.9
							c-1.9,1.8-2.5,3.4-1,4.1c-0.9,1.4-3,2-4.2,2.6c0.3,0.7,0.5,1.4,0.3,2.2c-0.2,0.7-0.7,1.8-1.8,2.8c-0.4,2.1-0.4,4.2-0.3,6.3
							c0.1,1.1,0.1,2.1,0.2,3.2c0.1,1.2,0.1,2.4,0.1,3.6c0.1,2.4,0,5-0.3,7.8c-0.4,2.9-1.1,6.2-2.3,9.8c0,0,0.1-1,0.2-2.1
							c0.1-1,0.3-2.1,0.3-2.1s1.4-0.4,2.8-0.9c1.4-0.5,2.8-0.9,2.8-0.9s-1.4,3.2-2.6,6.5c-0.6,1.6-1.2,3.3-1.6,4.5
							c-0.4,1.3-0.7,2.1-0.7,2.1c2.2-2.4,3.5-5.5,5.1-8.2c1.6-2.7,3.6-5.1,6.9-6c2.6-0.2,3.3,1,3.5,2.6c0.3,1.6,0.1,3.6,0.8,5
							c0,0,0.2-1.1,0.4-2.2c0.2-1.1,0.5-2.2,0.5-2.2c3-0.7,3.4,1.4,4,3.6c0.6,2.2,1.3,4.6,4.7,4.1c1.9-5.1,4.7-7.9,7.6-9.5
							c2.9-1.6,6.1-2.1,9.1-2.6c0,0,0.4,0.3,0.9,0.8c0.6,0.5,1.2,1.2,1.9,1.8c1.4,1.3,2.9,2.5,2.9,2.5c-1.4-1.1-2-3.3-1.5-6.1
							c0.3-1.4,0.7-2.8,1.5-4.4C314.1,416.7,315.2,415.1,316.6,413.5z"/>
						<path class="st1" d="M178.4,102.5c-0.8,0.9-0.3,3,0.2,5c2.5,4.5,4.4,2.6,6.7,3.5l-0.1-5c-2.8-4.4-2.3,3.4-4.8-2.5
							c-0.1-7.9,5.7-1.3,8.7-2c4.2,9.2-1.3,11.1-4,11.1c-3,3.6-6.2-2.8-9.4-4.3C176.1,107.4,175.9,100.9,178.4,102.5z"/>
						<path class="st1" d="M237.8,117.3c4.7,2.8,10,11.9,9.5,17c1.4,4-0.3,6.5-0.3,8.6c4.2,0.7,10,7.6,8.6,17.8
							c-2.5,3.6-5.3,5.2-8.1,5.4c-2.8,0.2-5.8-0.9-8.7-2.6c-5.8-3.5-11.3-9.5-15.1-12.7l1.3-5.3l-3.9-2.8c1.3-7.8,3.2-14.1,6-18.4
							C229.7,119.9,233.3,117.4,237.8,117.3z"/>
						<path class="st1" d="M256.1,230.5l-1.4,0.3c1.8-1.7,2.1-6.8,3.2-10.5c-1.2-1.9-2.2-3.9-3.5-3l-0.3,1.5c0.1-2.9,5-0.9,2.1-8.9
							l-1.1-1.2c6.9,1,5.8-13.1,12.3-12c1.5-7,4.3-6.9,7.3-5.1c3,1.7,6.1,5,8.2,4.4c0.4,5.6,3.4,7.4,5.1,11.5l3.3,28.6
							c-2,3.1-2.4,8.8-3.6,15.3c3.9,3.8,8.3,11.1,10.3,19.3c4.1,15.8-2.2,18-2.3,29.3c-3-3.9-5.6,0.7-7.3,4.5l-0.9,2.9
							c0.5-12.9-6.3-7.6-9.5-9.9l-1.8,0.3c0.6-3,2.7-2.6,2-7.4c0,0-1.1,0.2-2.2,0.3c-1.1,0.2-2.2,0.4-2.2,0.4c0.7-0.8,1.7-1,2-3.9
							l-2.1-4.6c1.2,0.5,1-2.3,1.3-3.8c-0.1-2.1-1.4-3.4-2.1-4.6l1.6-3.8c-2.3-3.9-4.3-4.3-4.6-11.4l-7.1-1.7l1.3-3.8
							c-1.3-2.6-2.7-3.9-3.9-2.9l-0.3,1.5l0.5-5.1l-5-0.5C254.9,240.7,261.1,237.4,256.1,230.5z"/>
						<path class="st1" d="M308,506.1l-1.4-3.3c0.7-3,0.8-8.9,1.3-13.9c0.5-5.1,1.5-9.3,3.9-8.9c1.2-0.5,2.4,0.6,3.6,2.3
							c1.2,1.8,2.6,4.2,4,6.6c1.6,8.7,2.3,15.3,2.5,21.3c0.1,3,0.1,5.8,0.1,8.7c-0.1,2.8-0.2,5.7-0.3,8.7c-1-1.6-1.9,0.1-2.9,2.1
							c-1,2-1.9,4.3-3,3.7l-0.1,2.2l0.2-5c0,0-1.4-1.6-2.9-3.1c-1.5-1.5-3.1-3-3.1-3C309.9,519.4,308.3,511.8,308,506.1z"/>
						<polygon class="st4" points="272.3,265.5 272.1,264.1 274,263.8 274.2,265.2 						"/>
						<path class="st1" d="M305.7,215.4c0.1,1.4-0.4,2.8-0.6,3.6c0.7-2.9-2-9-3.1-4.7C302.6,212.1,305.3,210.5,305.7,215.4z"/>
						<path class="st1" d="M331.7,221.1L331,219c-0.9,0,3.5-3.6,2-8.5c3.9-5.7,6.7,0.1,9.3,4.9c1.3,2.4,2.5,4.5,4,4.8
							c1.4,0.3,3-1.2,5.1-6c2,5,4.6,6.3,6.8,8.4c2.2,2.1,4.1,4.9,4.2,12.6c-0.3,6-1.7,10.4-3.5,13.8c-1.8,3.4-3.9,5.7-5.8,7.4
							c0,0-1.5,0.8-3,1.6c-0.7,0.4-1.5,0.8-2,1.1c-0.6,0.3-0.9,0.5-0.9,0.5c0.3-2.8-1-4.2-1.8-3.5l-2.7,0c2-9.8-3.7-3.6-5.1-9.9
							l0.8,0c-0.6-10.5-5.1-4.9-7-13.3l-2.4-2C328.5,226.1,330.9,224.6,331.7,221.1z"/>
						<path class="st1" d="M382.9,324c-0.3-2.3,2.2-1.5,2.4-6.6c1.5,0.5,4-7.7,5.6-8.5l0.2-1.4c0.4,2.8,2.4-1.2,4.4-4.4
							c1-1.6,2.1-3,2.8-3.3c0.8-0.3,1.3,0.6,1.3,3.4c1.4-2.1,2.2-2.5,2.5-2.1c0.3,0.5,0.1,1.8-0.2,3.3c-0.6,3-1.7,6.5-0.1,5.3
							c-2.1,6.1-4.2,10.4-6.5,14.8c-2.4,4.4-5.2,8.9-8.9,15.2c-2.9,4.8-3.3,5.5-3.9,6.4c-0.5,0.8-1.2,1.7-4,7c0,0-0.6,1.1-1.2,2.2
							c-0.6,1.1-1.1,2.2-1.1,2.2c1.2-2.6,1.4-3.2,1.2-2.8c-0.2,0.4-0.9,1.7-1.6,3c-1.3,2.6-2.5,5.2-0.3-0.4
							c-0.3,0.3-0.8,1.3-1.3,2.2c-0.5,0.9-0.9,1.5-0.9,0.7c0.6-1.3,1.4-3.2,1.9-4.6c0.9-3.4-0.2-1.6-0.3-2.4l1.7-4.6
							c0,0,0-0.2,0-0.6c0-0.3,0-0.8,0-1.2c0-0.9,0-1.8,0-1.8c0.5-0.6,1.2-2.6,1.8-4.6l-0.4-1.6c1-4.1,2-5.8,2.9-7.5
							C381.8,329.5,382.7,328,382.9,324z"/>
						<path class="st4" d="M384,337.1l-1.9,0.7c0,0,0.4-0.3,0.7-0.5c0.3-0.2,0.6-0.5,0.6-0.5L384,337.1z"/>
					</g>
				</g>
			</g>
		</g>
	</g>
</g>
</svg>
