<?xml version="1.0" encoding="utf-8"?>
<!-- Generator: Adobe Illustrator 19.1.0, SVG Export Plug-In . SVG Version: 6.00 Build 0)  -->
<svg version="1.0" id="Layer_1" xmlns="http://www.w3.org/2000/svg" xmlns:xlink="http://www.w3.org/1999/xlink" x="0px" y="0px"
	 viewBox="0 0 762.7 480" style="enable-background:new 0 0 762.7 480;" xml:space="preserve">
<style type="text/css">
	.st0{fill:#E1F4FD;}
	.st1{fill:#F2D8E0;}
	.st2{fill:#DFF0E3;}
	.st3{opacity:0.85;}
	.st4{opacity:0.3;fill:#FFFFFF;}
	.st5{opacity:0.3;fill:#F2D8E0;}
	.st6{fill:#FFFFFF;}
	.st7{opacity:0.3;fill:#DFF0E3;}
	.st8{opacity:0.4;fill:#FFFFFF;}
	.st9{opacity:0.3;fill:#E1F4FD;}
	.st10{fill:#F8DE8D;}
	.st11{fill:#BADAF3;}
	.st12{fill:#231F20;}
	.st13{fill:#010101;}
	.st14{fill:none;stroke:#010101;stroke-width:6.518;stroke-miterlimit:10;}
	.st15{fill:none;stroke:#FFFFFF;stroke-width:6.0438;stroke-miterlimit:10;}
	.st16{fill:#FAD6D7;}
	.st17{fill:#FFFEFE;}
	.st18{fill:#C2DE9F;}
	.st19{fill:#FCD6D6;}
	.st20{fill:#FEE777;}
	.st21{fill:#FAA958;}
	.st22{fill:#BADB93;}
	.st23{fill:#F9DE8C;}
	.st24{fill:#B0DAF4;}
	.st25{fill:#9C6026;}
	.st26{fill:#CB8F62;}
	.st27{fill:#714C1E;}
	.st28{fill:#9C9DCE;}
	.st29{fill:#FFC214;}
	.st30{fill:#DEE682;}
	.st31{fill:#F3DAB1;}
	.st32{fill:#F6B4C9;}
	.st33{fill:#FEC470;}
	.st34{fill:#FDC17E;}
	.st35{fill:#724F1F;}
	.st36{fill:#D22030;}
	.st37{fill:#00AFAC;}
	.st38{fill:#18A6DF;}
	.st39{fill:#FEDD10;}
	.st40{fill:#E74782;}
	.st41{fill:#FBD0D8;}
	.st42{fill:none;stroke:#000000;stroke-width:1.7659;stroke-miterlimit:10;}
	.st43{fill:#672F12;}
	.st44{fill:#F58C8E;}
	.st45{fill:#E8B674;}
	.st46{fill:#FFD89F;}
	.st47{fill:#FFEDB3;}
	.st48{fill:#5EB2E3;}
	.st49{fill:#7DB2E0;}
	.st50{fill:#F19C9D;}
	.st51{fill:#593712;}
	.st52{fill:none;stroke:#E7EFD6;stroke-width:0.4253;stroke-miterlimit:10;}
	.st53{fill:#D86464;}
	.st54{fill:#FEEBB1;}
	.st55{fill:#F8A95A;}
	.st56{fill:none;stroke:#010101;stroke-width:8.0507;stroke-linecap:round;stroke-linejoin:round;stroke-miterlimit:10;}
	.st57{fill:#95D4D1;}
	.st58{fill:#F6DD8C;}
	.st59{fill:#B0D9F4;}
	.st60{fill:#FFC118;}
</style>
<g>
	<g>
		<path class="st10" d="M131.7,142.2c-12.4,6.4-23.4,17.4-16.9,32.1c4.7,10.6,15.7,13.1,26,10.3c13.5-3.6,18.1-14.7,13.4-27.9
			c-4.5-12.6-19.3-14.9-30.7-13.1c-10.3,1.6-22.2,7.5-18.2,19.5c4.3,13.2,26.1,17.8,33.6,4.3c10.6-18.9-6.6-35.9-24.5-40.3
			c-7-1.7-35.8-2.3-31.7,11.2c0.5,1.7,4.2,1.1,5.3,1.1c5.9-0.5,17.8-1.5,21-7.5c0.3-0.6,0.2-1.1-0.4-1.4
			c-7.5-5.3-13.3-12.3-21.7-16.3c-3.7-1.7-17.9,0.6-18.4,5.7c-1,10.9,3.8,18.9,8.7,28.2c6.1-1.9,12.2-3.8,18.4-5.7
			c-6.6-4.5-9.2-10.2-9.6-18c-0.3-4.8,3.5-19,9.7-20.1c-2.2-0.8-4.5-1.6-6.7-2.4c-1.4,1.3-2.6,2.7-3.6,4.3
			c-3.3,0.3-11.8,1.6-13.4,5.3c-1,2.3-1.1,2.6-1.2,5.2c6.3-1.7,12.6-3.4,18.9-5.1c-1.9-2.7-2.1-4.3-2.2-7.6c-2.1,1.5-4.2,3-6.2,4.4
			c21.3-7.3,27.4,8.2,29.7,26.7c0.4,3.6,17.7-0.8,18.7-4.3c10.2-33.7-40-48.5-56.6-21.5c6.2-1.4,12.5-2.8,18.7-4.3
			c0,0.3,3-7.6,0.7-6.6c-3.9,0.9-7.7,1.8-11.6,2.6c6.3-0.2,14.7,22.8,18,27.5c2.7,3.8,20.3-2.1,18.9-5.1c-3.4-7-6.3-14.1-12.5-19.1
			c-3.1-2.5-18.1,1.2-18.4,5.7c-0.7,10.3,1.7,21.3,10.3,27.8c4,3.1,20.2-4.5,17.8-6.3c-8.1-6.1-9.9-17-9.3-26.5
			c-6.1,1.9-12.2,3.8-18.4,5.7c5.8,4.6,8.3,11.4,11.4,17.8c6.3-1.7,12.6-3.4,18.9-5.1c-6.4-9-9.6-23-19.6-29
			c-11.5-6.8-23.5,5.6-25.3,15.6c-0.5,2.8,16.9-1.2,18.7-4.3c2.4-3.8-2.1-4.5,3.8-2.4c3.4,1.3,6.4,3.8,9,6.2
			c6.8,6.2,9.2,16,6.6,24.6c6.2-1.4,12.5-2.8,18.7-4.3c-1.4-11.2-3.9-26.8-16.7-30.4c-12.6-3.6-26.4,0.9-38.3,5
			c-1.7,0.6-6.3,2-6.2,4.4c0.1,3.3,0.3,4.9,2.2,7.6c2.5,3.7,18.6-0.6,18.9-5.1c0.3-1.2,0.6-2.4,0.9-3.6c-4.5,1.8-9,3.5-13.4,5.3
			c11.2-1.1,21.2-4.6,29-13.1c3.4-3.7-5.1-2.7-6.7-2.4c-11.9,2.1-22.3,6.9-28.7,17.5c-6.9,11.4-3.7,26.1,7.1,33.5
			c2.8,1.9,20.1-2.4,18.4-5.7c-4.9-9.4-9.7-17.3-8.7-28.2c-6.1,1.9-12.2,3.8-18.4,5.7c2.1,1,21.8,14.1,20.9,15.7
			c2-1.2,4.1-2.4,6.1-3.6c0.1-0.1,0.1-0.2,0.2-0.3c1.8,0.3,3.5,0.7,5.3,1c-0.7-1.4-0.6-2.9,0.2-4.4c-2.9,1.5-5.7,2.9-8.6,4.4
			c-9.3,2.8,0.4,0.8,3.7,0.8c7,0,13.2,4.6,18.3,8.9c4.6,3.8,7.4,9,8.1,14.8c0.2,2.1,0.1,11.8-2.3,12.9c3.9-0.9,7.7-1.8,11.6-2.7
			c-4.5,0-7.8-8.2-9-11.9c-0.6-2-0.5-3.9,0.2-5.8c1.3-3.7-5-0.4-0.8,0.6c9.8,2.2,13.9,12.2,14,21.2c0,2.1-0.4,4.2-1.1,6.3
			c-1.6,5.3,11.5,2,5.9-0.5c-3.7-1.6-6.3-5.1-8.2-8.5c-6.4-11.6,2.4-21.7,12.4-26.9c3.3-1.7,2.4-3.7-1-3.8
			C140.4,138.6,135.8,140.1,131.7,142.2L131.7,142.2z"/>
	</g>
	<g>
		<path class="st10" d="M83.4,147.8c-8.8,8.2-13.7,17.8-18.5,28.7c6.1-0.1,12.3-0.2,18.4-0.3c3.3-9,6.5-18.1,9.8-27.2
			c2.7-7.3-15.9-5.4-18.4,0.3c-13.3,29.9-26.3,63.4-29.3,96.3c-1.7,18.9,45.9,27.3,58.2,30.6c43,11.7,130.3,29,161.6-16
			c26.9-38.8-4.6-94.4-27.3-127.6c-11.5-16.9-26.1-37.6-48.2-38.7c-26.9-1.2-58.4,21.5-74.8,40.8c-7.5,8.9,10.7,10,15.5,4.3
			c16.1-19,49.4-44.1,71.3-21.9c11.3,11.4,20.4,25.2,28.7,38.8c16.3,26.9,36.3,69,19.2,99.7c-11.5,20.6-44.7,20.1-64.8,19.8
			c-25.7-0.5-51.3-5.6-76-12.3c-19-5.2-47.9-9-41.9-33.8c6.6-27.2,14.1-53,25.5-78.7c-6.1,0.1-12.3,0.2-18.4,0.3
			c-3.3,9-6.5,18.1-9.8,27.2c-2.7,7.3,15.9,5.4,18.4-0.3c4.4-9.8,8.1-18.1,16.2-25.6C107.2,144.3,88.6,142.9,83.4,147.8L83.4,147.8z
			"/>
	</g>
	<g>
		<path class="st10" d="M173.9,107.8c18.8-0.5,37.4-3.2,55.8-7c9.9-2,10-13.4-0.8-13c-3.9-0.4-7.8-0.7-11.7-1.1
			c-1.4,4.5-2.8,9-4.2,13.4c43.4-5.4,93.4,5,123.7,38.7c5.6,6.2,23.6-1.3,17.3-8.2c-34-37.8-90.2-50-139.2-43.9
			c-8,1-15.9,11.2-4.2,13.4c7,1.4,9.4,1.4,16.5,1.1c-0.3-4.3-0.5-8.7-0.8-13c-16.7,3.4-33.6,5.7-50.7,6.1
			C165,94.6,161,108.1,173.9,107.8L173.9,107.8z"/>
	</g>
	<g>
		<path class="st10" d="M189.6,104.7c2.2-0.4,4.3-0.9,6.4-1.8c0.5-0.2,1-0.4,1.4-0.7c2.6-1.1-1.8,0.5-2.5,0.4
			c3.2-3.2,6.4-6.5,9.7-9.7c-3.3-0.1-6.6-1.2-9.9-2c-1.6,3-3.2,6-4.7,9c3.5-0.9,5.5-1.4,9.2-1.5c2.5-3.3,5.1-6.6,7.6-9.8
			c-6.2,0.1-12,1.4-18,2.9c-2.8,0.7-7.3,2.4-8.3,5.5c-0.9,3.1,3.7,3.6,5.6,3.6c2.9,0,5.8,0,8.7,0c4.2,0,9.8-1.5,12.5-5
			c2.7-3.5-2.3-4.9-4.9-4.9c-3.3,0-6.5,0-9.8,0c-1.7,3.2-3.5,6.4-5.2,9.7c4.2-0.4,10.7-2.6,11.9-7.1c0.8-3.1-3.6-3.6-5.6-3.6
			c-1.8,0-3.6,0-5.4,0c-4.2,0-9.8,1.5-12.5,5c-2.7,3.6,2.3,4.9,4.9,4.9c1.8,0,3.6,0,5.4,0c-1.9-1.2-3.7-2.4-5.6-3.6
			c-0.1,0.2-0.1,0.4-0.2,0.6c0.6-0.8,1.3-1.7,1.9-2.5c-0.1,0.1-0.3,0.2-0.4,0.3c2.1-1,4.2-2,6.3-3c0.7-0.1,1.3-0.3,2-0.4
			c-3.5,0.3-7.9,1.9-10.1,4.8c-2.7,3.6,2.3,4.9,4.9,4.9c3.3,0,6.5,0,9.8,0c4.2,0,9.8-1.5,12.5-5c2.7-3.5-2.3-4.9-4.9-4.9
			c-2.9,0-5.8,0-8.7,0c-0.9,3-1.8,6.1-2.7,9.1c3.8-1,4.7-1.4,8.1-1.5c4.2-0.1,9.8-1.5,12.5-5c2.7-3.5-2.3-4.9-4.9-4.9
			c-6.5,0.1-12.8,1.3-19,2.9c-4.1,1-13.1,6.9-4.7,9c4.7,1.2,9.2,2.2,14,2.3c3.8,0.1,8.3-1.3,11.3-3.7c3-2.5,2.2-5.3-1.6-6
			c-3.7-0.6-7.6-0.4-11.2,0.6c-1.8,0.5-3.5,1.1-5.2,1.8c-2.4,1-4.6,1.1,2.2-0.2c-3.4,0.6-9.6,2.1-10.8,6.1
			C180.5,105.2,187.6,105.1,189.6,104.7L189.6,104.7z"/>
	</g>
	<g>
		<path class="st10" d="M358,128.9c-1-7.8,3.5-27.3,15.4-24c6.6,1.8,12,7.6,15.5,13.2c5,7.7,11.7,33-3,35.5c-3.2,0.6-9.5,1.9-11,5.5
			c-1.4,3.5,6.5,2.6,7.7,2.4c12.3-2.1,25.1-7.2,29.8-19.7c4.4-11.9-1.6-25.5-9-34.7c-20.3-25-68.7-5.4-64.4,27
			C339.7,138.4,358.7,134.4,358,128.9L358,128.9z"/>
	</g>
	<g>
		<path class="st10" d="M381,167.6c10.5,11.8,17.5,24.8,23,39.5c4.4,11.7,4.3,27,12.9,36.6c4,4.5,22-2.2,17.6-7.1
			c-4.5-5-5.3-10.8-6.4-17.1c-1.3-7.5-4.2-14.7-6.8-21.8c-5.2-13.8-12.8-26.2-22.6-37.2C394.6,155.9,376.6,162.6,381,167.6
			L381,167.6z"/>
	</g>
	<g>
		<path class="st10" d="M443.2,226.9c13.6-14.5,25.2-29.3,44.8-35.7c-2.5-3-5-5.9-7.5-8.9c-3.9,2.4-8.4,3.4-12.8,4.5
			c2.5,3,5,5.9,7.5,8.9c9.9-5.6,3.6-0.3,2.3-4.1c0.6,1.8-1.2,5.4-1.8,6.9c-2.2,5.3-5.5,10.3-8.7,15.1c-8.6,12.6-25.2,32.3-41.2,33.5
			c-9.9,0.8-15.2,12.8-2.2,11.9c28.5-2.2,53.1-29.6,66.7-52.9c3.4-5.9,9.5-16.3,4.5-22.8c-7-8.9-25,1.7-31.5,5.5
			c-9.2,5.3,1.3,10.5,7.5,8.9c7.7-2,15.1-4.3,21.9-8.5c8.7-5.4-0.9-11-7.5-8.9c-25,8.2-39.8,23.8-57.3,42.5
			C419.9,231.2,438.3,232.2,443.2,226.9L443.2,226.9z"/>
	</g>
	<g>
		<path class="st10" d="M447.7,231.9c9.2-9.3,17.6-19.4,27.7-27.8c-4.7-2.3-9.4-4.6-14.1-6.9c-14.1,13.6-24.1,30-34.8,46.2
			c-4.9,7.4,9.3,8.7,13.2,6.4c17.3-9.9,38-26.3,45.1-45.7c2-5.5-3.3-8.2-8.1-7.8c-8.6,0.7-15.1,4-20.7,10.6
			c-7.5,8.9,8.6,10.9,14.1,6.9c6.9-5.1,10.9-11.9,14.7-19.5c4.1-8.1-8.9-8.3-13.2-6.4c-3.8,1.6-7.1,3.9-10.3,6.6
			c-1.3,1.2-2.7,2.3-4,3.5c-0.7,0.6-1.3,1.1-2,1.7c-2,1.9-2.5,2-1.5,0.3c-0.4,3.2-0.7,6.4-1.1,9.6c7.5-5.5,24-19,33.9-16.4
			c-1.4-1.8-2.7-3.7-4.1-5.5c-1,11-11,19.1-17.9,27c-7.9,8.9,10.2,11.6,15.8,5.4c8.7-9.9,19.9-20,21.2-33.9c0.2-2.6-1.6-4.8-4.1-5.5
			c-20.1-5.3-41.9,9.2-57.3,20.5c-3.1,2.3-5,7-1.1,9.6c6.3,4.1,13.2,4.9,20.3,2c7.9-3.2,12.8-10.6,20.5-14
			c-4.4-2.1-8.8-4.3-13.2-6.4c-2.5,4.9-4.7,9.8-9.2,13.1c4.7,2.3,9.4,4.6,14.1,6.9c1.1-0.8,2.1-1.6,3.2-2.4
			c-2.7-2.6-5.4-5.2-8.1-7.8c-5.5,15.2-21.6,29-35.3,36.9c4.4,2.1,8.8,4.3,13.2,6.4c10-15.2,19.3-30.2,32.5-42.9
			c8-7.7-8.6-11.5-14.1-6.9c-11.3,9.4-20.7,20.4-31,30.8C423.6,235,441.9,237.8,447.7,231.9L447.7,231.9z"/>
	</g>
	<g>
		<path class="st10" d="M146.5,274.6c20.8,8.1,41.1,15.5,63.6,16.7c3.3-3,6.6-6,9.9-9c-2.2,0-4.3,0-6.5,0c-4,0-19.9,8.2-9.9,9
			c78.5,6.2,156.9-7.6,231.1-33c12.7-4.3,0.8-8.6-7-5.9c-68,23.3-140.2,35.7-212.2,30c-3.3,3-6.6,6-9.9,9c2.2,0,4.3,0,6.5,0
			c4.1,0,19.7-8.5,9.9-9c-21.3-1.1-40.6-8.3-60.2-15.9C156.9,264.5,139.7,272,146.5,274.6L146.5,274.6z"/>
	</g>
	<g>
		<path class="st10" d="M363,111.3c-13.3,8.8-15,28.8-14.1,43.3c0.3,4.8,17.4-0.3,18.8-4.1c2.2-6,2-13.3,2.6-19.6
			c0.4-4.1,1-8.2,1.9-12.2c0.3-1.5,0.8-2.9,1.2-4.4c0.3-0.8,0.6-1.6,1-2.4c2.4-3.7-0.8-3-9.8,2.1c6.1,3.2,2.5,18.6,1.8,23.5
			c-1.1,7.4-3.2,14.9-3.4,22.4c-0.2,5,17.1-1,18.8-4.1c7.9-14,4.5-31.3,5.5-46.6c-6.1,2-12.2,3.9-18.3,5.9
			c10.4,11.9,4.3,30.6,7,44.8c0.9,4.8,19,0.2,18.9-5.1c-0.1-8.4-3.2-22.3,2.4-29.4c4.2-5.3-14.2-2.9-17.2,0.9
			c-7.2,9-4.2,22.9-4.1,33.6c6.3-1.7,12.6-3.4,18.9-5.1c-3-15.5,3.2-33.5-8.2-46.4c-3.3-3.7-18,0.9-18.3,5.9
			c-0.9,14.8,2.3,31.1-5.3,44.6c6.3-1.4,12.5-2.7,18.8-4.1c0.5-13.3,15.8-53.7-10.9-49.3c-24.8,4.1-15.8,30.6-22.1,47.9
			c6.3-1.4,12.5-2.7,18.8-4.1c-0.7-10.6-0.3-30.4,9.8-37c3.1-2.1,2.3-4.5-1.3-4.8C371.8,107.3,366.7,108.8,363,111.3L363,111.3z"/>
	</g>
	<g>
		<path class="st10" d="M350.8,135.6c12.9,25.4,26.8,50.2,38.4,76.2c6.7,15,8.7,35.8,21.7,46.8c2.7-4.2,5.4-8.4,8.1-12.6
			c-13.5,0.5-29.5-38.1-34.2-48c-11.6-24.4-22.2-48.2-37.2-70.8c-4.4-6.6-19.8-1.6-18.1,6.7c0.2,2.3,1,4.5,2.2,6.5
			c3.9,8.5,22.6,3,18.9-5.1c-1.2-2-1.9-4.2-2.2-6.5c-6,2.2-12,4.5-18.1,6.7c18.1,27.1,29.5,57.1,44.8,85.7
			c8.6,16.1,21.3,39.5,42.4,38.8c6-0.2,14.5-7.1,8.1-12.6c-6.3-5.4-8.6-18.6-11.4-26.1c-3.8-10.5-8.5-20.7-13.3-30.8
			c-10.4-21.4-21.8-42.2-32.6-63.4C364.2,119.5,346.2,126.6,350.8,135.6L350.8,135.6z"/>
	</g>
	<g>
		<path class="st10" d="M298.6,125.6c26.9,35.3,45.7,74.7,67.6,113.1c6.9,12.2,23.4,32.4,39.6,25.2c22.4-10-9.2-41.4-17.1-49.2
			c-14.9-14.9-25.3-34.5-35.1-53c-9.2-17.4-22.1-32.6-35.3-47.1c-4.1-4.5-20.3-1.1-18.2,6.4c0.6,2.1,1,3.6,3.1,4.6
			c6.3,3.2,23.4-5.6,14.8-9.9c0.3,0.1,0.6,0.2,0.9,0.2c-6.1,2.1-12.1,4.3-18.2,6.4c20.6,22.5,34.5,47.4,50.2,73.2
			c12,19.6,37.4,36.2,42.5,58.8c3.2-0.6,6.4-1.2,9.6-1.8c-2.6-1.9-5-4-7.2-6.4c-3-2.9-5.6-6.2-8.3-9.5c-7-8.7-11.6-19.6-16.8-29.4
			c-16.5-31-33.5-61.5-54.8-89.4C311.5,111.9,293.4,118.7,298.6,125.6L298.6,125.6z"/>
	</g>
	<g>
		<path class="st10" d="M221.4,127.6c14.4,23.3,29.4,45.9,41,70.8c10.9,23.5,25,71.4-15.8,76.2c2.6,2,5.1,4,7.7,6
			c6.5-10,15.9-16.8,21.2-27.7c3.5-7.4,2.3-16.1,2.3-24c0-8.4-18.9-4.5-18.9,2.2c0,0.5,0,0.9,0,1.4c0,8.4,18.9,4.6,18.9-2.2
			c0-0.5,0-0.9,0-1.4c0-8.4-18.9-4.5-18.9,2.2c0,5.5,0,11.1,0,16.6c0,12.4-15.8,22.5-22.2,32.2c-3.2,5,4.4,6.4,7.7,6
			c14.5-1.7,26.7-9.5,37.5-19c12.9-11.4,13.2-26,10.4-41.9c-6.6-38.2-33.3-72.7-53.2-105C235.3,114.3,217,120.5,221.4,127.6
			L221.4,127.6z"/>
	</g>
	<g>
		<path class="st10" d="M207.2,105.7c9.6,12.1,18.6,24.8,28.2,36.9c3.7,4.6,21.7-1.4,17.6-7.2c-7.1-9.8-17.9-20.3-15.8-33.5
			c-3.6,2-7.2,4.1-10.8,6.1c-7.3,1-0.5,4.6,2.5,8.5c6,7.7,11,16.2,16,24.6c8.8,14.8,16.2,30.3,23.5,45.9
			c13.8,28.9,32,57.2,31.5,90.4c6.1-2,12.2-4.1,18.2-6.1c-10.8-10.2-12.2-27.4-15.8-41.1c-5.2-19.9-17-38.9-27-56.7
			c-3.3-5.8-18.8-1.5-18.9,5.1c-0.2,33.6,33.6,65.1,20.7,98.7c6.3-1.3,12.6-2.6,18.9-3.8c-3.5-8.1-4.8-16.3-6.5-25
			c-1.3-6.4-17.4-0.7-18.9,3.8c-3.4,10.7-6.1,21.4-7.6,32.6c6.3-1.3,12.6-2.6,18.9-3.8c-0.1-11.5-0.1-22.7-8.2-31.5
			c-3.5-3.7-17.5-0.5-18.2,4.9c-1.6,11.1-3.5,21.6-2.2,32.7c0.4,3,6.3,2.5,8,2.3c16.9-2,38.3-1.3,53.4-10.3
			c14.9-8.9,4.5-28.4,0.4-41.6c-14.9-47.6-28.3-108.4-68.6-141.2c-3.5-2.8-20.7,0-18.2,6.1c3.1,7.7,6.6,13.7,12.6,19.5
			c3.6,3.5,21.2-1.2,18.2-6.1c-3.2-5.3-6.1-10.6-8.7-16.3c-5.7,2.3-11.3,4.6-17,6.9c33.5,17.4,40.1,61.3,55.5,92.3
			c4.3,8.7,34.8,70.8,21.2,76.9c-1.8,0.8-9.8,6.2-4,7.8c10.7,3,25.5,3,31.5-8.3c7.2-13.5-2.9-35.6-7.5-48.4
			c-7.6-21-17.4-40.2-28.8-59.4c-6.7-11.2-12.7-22.8-19.6-33.9c-5.5-8.8-20.3-25.5-17.3-37.1c-6.1,1.6-12.1,3.2-18.2,4.9
			c24.8,19.4,38.6,48.6,51,76.9c14.4,32.7,29.5,65.4,33.1,101.3c0.2,2.1,4.2,2.5,5.7,2.5c36.2-1.8,21.6-35.9,11.3-57.7
			c-6.9-14.5-15.3-28.1-21.8-42.7c-6.3-14.2-11.7-28.4-19.7-41.8c-7.6-12.9-18.9-21.5-21.7-36.9c-5.7,2.3-11.3,4.6-17,6.9
			c8.5,2.6,14.6,7.9,21.6,13.3c4.2-2.9,8.4-5.7,12.6-8.6c-1.5,0-2.9,0-4.4,0c-3.1,0-14.6,2.3-13.2,7.5c6.7,26,21.2,48.7,33.8,72.1
			c13.3,24.8,19.5,52.7,32.5,77.8c2.2,4.2,9.7,2.4,13.1,0.9c3-1.3,5.8-2.7,8.7-4.3c1.1-0.6,4.8-3.1,3.7-5
			c-15.8-27.4-29-56.5-38-86.9c-6.3,1.7-12.6,3.4-18.9,5.1c6.6,18.7,18.6,34.4,27.2,52.1c6.4,13.2,8.4,27.3,19.1,38
			c3.7,3.7,19.3,0.2,18.2-6.1c-1.2-7.5-3.7-13.6-6.5-20.6c-6.1,2-12.2,4.1-18.2,6.1c6.9,5.3,11.7,11.2,19.7,14.9
			c3.7,1.7,21.2-2.2,16.4-7.9c-4.8-5.7-12.9-4.8-18.9-1c-10.8,6.7,5.9,8.4,11.5,4.9c-3.4,1.1-6.8,2.2-10.2,3.3
			c5.5-2.6,10.9-5.3,16.4-7.9c-6.9-3.2-11.4-8.8-17.2-13.3c-3.5-2.7-20.8-0.1-18.2,6.1c2.9,7,5.3,13.1,6.5,20.6
			c6.1-2,12.2-4.1,18.2-6.1c-11.2-11.2-14.2-28.4-20.9-42.4c-7.6-15.7-18.2-29.1-24-45.7c-2.1-6-20.6-0.9-18.9,5.1
			c9,30.4,22.2,59.5,38,86.9c1.2-1.7,2.5-3.3,3.7-5c-1.5,0.7-2.9,1.5-4.4,2.2c4.4,0.3,8.7,0.6,13.1,0.9
			c-11.9-23-18.7-48.1-29.3-71.7c-12-26.5-29.5-49.6-36.9-78.2c-4.4,2.5-8.8,5-13.2,7.5c1.5,0,2.9,0,4.4,0c2,0,17.9-4.4,12.6-8.6
			c-7.9-6.2-14.3-11.9-24-14.9c-3.9-1.2-18.3,0.2-17,6.9c3.6,19.6,20.3,33.2,29.2,50.4c7.7,15,12.8,31.1,20.9,46
			c5.9,10.9,11.7,21.9,16.8,33.2c1.9,4.3,10.3,34.6,11.4,34.5c1.9,0.8,3.8,1.6,5.7,2.5c-3.6-36.1-19-68.4-33.1-101.3
			c-12.3-28.8-27.1-59.3-52.3-79c-4.2-3.3-16.7-0.9-18.2,4.9c-3.2,12.6,9.7,27.7,16,37.7c12.7,20.1,27.4,42,36.7,63.8
			c5,11.7,10.1,23.4,14.4,35.3c2.8,7.8,5.1,15.8,6.8,23.9c0.8,3.9,1.2,7.9,1,11.9c-0.3,7.2-2.4,2.3,0.7,3.1c-1.3,2.6-2.6,5.2-4,7.8
			c29.7-13.3,3.4-61.1-5.7-80.9c-16.1-35.1-26.1-84.8-63.1-104c-3.2-1.6-19.6,1.2-17,6.9c2.6,5.7,5.5,10.9,8.7,16.3
			c6.1-2,12.2-4.1,18.2-6.1c-5.2-5.1-8.6-10.7-11.3-17.4c-6.1,2-12.2,4.1-18.2,6.1c34.1,27.8,44.8,73.8,58.6,113.5
			c5.6,15.9,11.3,31.9,15,48.4c3.6,15.7-27.1,13-38.5,14.4c2.7,0.8,5.4,1.5,8,2.3c-1.2-10.5,0.7-20,2.1-30.3
			c-6.1,1.6-12.1,3.3-18.2,4.9c7.5,8.1,6.9,19.1,7,29.4c0,5.4,18.1,1.5,18.9-3.8c1.5-11.2,4.2-21.8,7.6-32.6
			c-6.3,1.3-12.6,2.5-18.9,3.8c1.8,8.6,3,16.8,6.5,25c2.7,6.2,17,1,18.9-3.8c13.5-34.9-20.8-66.5-20.6-101.2
			c-6.3,1.7-12.6,3.4-18.9,5.1c10.2,18.1,20.8,36.7,27,56.7c4.6,14.8,5.2,32,17.1,43.2c4.3,4,18.2,0.2,18.2-6.1
			c0.5-38.4-23.5-75.4-40.3-108.7c-8.4-16.6-17.4-32.7-27.8-48.2c-5.6-8.3-10.6-18.4-21.6-17c-3,0.4-10.2,2.2-10.8,6.1
			c-2.4,15.2,8.8,26.7,17,38.1c5.9-2.4,11.7-4.8,17.6-7.2c-9.6-12.1-18.6-24.8-28.2-36.9C221.1,93.8,202.9,100.3,207.2,105.7
			L207.2,105.7z"/>
	</g>
	<g>
		<path class="st10" d="M310.9,156.8c-0.9,12.2,2.6,24,10.3,33.5c3.2,3.9,16.8-0.6,18.2-4.9c1.7-5.1-0.3-5.7-3.8-8.5
			c-4.5-3.6-21.6,3.7-17.7,6.9c2.3,1.9,3.8,1.2,2.7,4.5c6.1-1.6,12.1-3.2,18.2-4.9c-6.5-8-10-19.3-9.2-29.5
			C330.1,147.7,311.3,151.7,310.9,156.8L310.9,156.8z"/>
	</g>
	<g>
		<path class="st10" d="M127.3,130.7c0.2,6.7,2.1,12.1,4.4,18.5c1.9,5.4,19.9,0.6,18.9-5.1c-0.6-4.8-1.7-9.5-3.3-14.1
			c-1.6-5.4-19.4-0.6-18.9,5.1c0.1,4.5,0.8,8.8,2.2,13c1.3,5.6,17.6,0.4,18.8-4c1.7-6.1,2.8-12.3,4.4-18.5c-6.3,1.3-12.5,2.6-18.8,4
			c7.5,13.1,7.3,28.4,15.2,41.3c2.8,4.6,17.8,1.3,18.8-4c3-15.7-1.3-32.7-8.6-46.7c-2.5-4.7-18.3-1.2-18.8,4
			c-2.7,24.1,6,47.7,13.8,70.2c9.9,28.4,28,57.6,31.7,87.4c4.4-2.4,8.9-4.7,13.3-7.1c-15.2,0.4-20.9-29.7-23.6-40.8
			c-5.6-22.9-17.6-42.6-25.2-64.8c-1.9-5.6-18.8-0.5-18.9,5.1c-0.3,35.8,25.3,65.1,23.9,101c6.3-1.7,12.6-3.4,18.9-5.1
			c-7.5-20.1-19.1-38.2-28.2-57.6c-7.1-15.1-6.2-32.7-14.1-47.8c-2.6-5-17.5-1-18.8,4c-9.6,37.1,19.9,69.6,18.4,106.5
			c6.1-2,12.2-4,18.3-6c-18.6-27.6-27.6-64.6-29.3-97.6c-0.8-16.7-1.2-40.7-22.4-41.5c-2.8-0.1-13,1.9-13.3,6
			c-1.5,24.3,3.7,47.8,7.5,71.7c2.9,18.4,18.7,42.2,12,60.8c6.3-1.3,12.5-2.6,18.8-4c-9.9-15.1-17.4-31.1-22.6-48.3
			c-5.5-18.5-0.8-38.2-4.6-57c-1.2-5.8-16,0.2-18.1,2.8c-22,26.8-14.1,79,8.5,103.1c5.9-2.3,11.8-4.6,17.7-6.9
			c-9-8.9-18.1-17.2-19.5-30.3c-0.9-8.2,1.3-11.8-5.5-17.5c-3.6-3-17.2-0.3-18.2,4.9c-2.5,13.6-1.6,24.2,4.3,37
			c2.6,5.6,20.9-0.6,18.9-5.1c-5.7-12.3-7-21-4.4-34.7c-6.1,1.6-12.1,3.2-18.2,4.9c7.3,6.1,3.9,18.5,7.3,26.9
			c3.3,8.2,11.6,14.9,17.7,20.9c4,3.9,21.7-2.6,17.7-6.9c-20.7-22-28.9-72.3-8.9-96.8c-6,0.9-12.1,1.9-18.1,2.8
			c3.9,18.9,0.3,38.1,4.6,57c3.9,17.2,13,33.7,22.6,48.4c3.2,4.9,17,1.1,18.8-4c5.5-15.5-4-34.7-8.6-49.4
			c-7.9-25.5-12.6-56.5-11-83.1c-4.4,2-8.8,4-13.3,6c13.1,0.4,11.4,44,12.8,53c4.7,29.5,12.1,58.8,29,83.8c3,4.5,18.1-0.9,18.3-6
			c1.4-36-27.9-68.2-18.5-104.3c-6.3,1.3-12.5,2.6-18.8,4c7.8,14.9,8.9,32,14.1,47.8c6.6,20.1,20.8,37.6,28.2,57.6
			c2.1,5.7,18.7,0.5,18.9-5.1c1.4-35.9-24.2-65.3-23.9-101c-6.3,1.7-12.6,3.4-18.9,5.1c5.5,16.3,14.1,31.2,20.5,47.1
			c3.9,9.9,5.3,20.9,8.3,31.1c4.7,16,12.6,31.8,31.1,31.4c3.3-0.1,14-2.1,13.3-7.1c-3.3-26.4-18.9-51.3-27.8-76.3
			c-8.8-24.7-20.9-52.2-17.9-79c-6.3,1.3-12.5,2.6-18.8,4c6.9,13.1,11.6,29.7,8.7,44.5c6.3-1.3,12.5-2.6,18.8-4
			c-7.9-12.8-7.7-28.2-15.2-41.3c-2.8-4.9-17.6-1.1-18.8,4c-1.5,6.2-2.6,12.4-4.4,18.5c6.3-1.3,12.5-2.6,18.8-4
			c-1.3-4.2-2.1-8.6-2.2-13c-6.3,1.7-12.6,3.4-18.9,5.1c1.6,4.6,2.7,9.3,3.3,14.1c6.3-1.7,12.6-3.4,18.9-5.1
			c-2.2-6.3-4.1-11.7-4.4-18.5C146,121,127.1,124.4,127.3,130.7L127.3,130.7z"/>
	</g>
	<g>
		<path class="st10" d="M151.2,124.2c12.2,53.1,26.4,105.7,52.9,153.7c2.2,4,9.6,2.8,12.8,1.3c25.9-12.5,7.2-51.9-0.1-70.5
			c-7.2-18.5-15.5-36.6-23.3-54.9c-5.4-12.8-14.4-29.3-13.6-43.6c-5.6,2-11.2,4.1-16.9,6.1c23.3,12.6,26.3,49.5,31.5,72.7
			c6.8,30.4,17.5,62.2,33.4,89c3.1,5.2,13.6,2.4,16.5-1.5c16.9-22.2,2.4-53.7-6.5-76.4c-4.7-11.9-9.2-23.5-15.1-34.9
			c-7.9-15.2-20.4-32.8-19.1-50.7c-6.1,1.6-12.1,3.2-18.2,4.9c37.6,37.2,30.3,91.2,51.4,136.4c3.1,6.6,13.2,4.7,17.3,0.1
			c22.7-25.1-7.3-67.1-11.5-94.2c-6,2.2-12.1,4.4-18.1,6.6c5.9,8.4,6.6,19.4,11.5,28.4c1.8,3.2,7.5,2.9,10.3,2.2
			c0.2,0,0.3-0.1,0.5-0.1c11.7-2.9,8.3-15.4-3.4-12.5c-0.2,0-0.3,0.1-0.5,0.1c3.4,0.7,6.9,1.4,10.3,2.2c-4.9-9-5.5-19.8-11.5-28.4
			c-4.5-6.3-19.3-1.3-18.1,6.6c3.2,21,31.5,65.2,14.6,83.9c5.8,0,11.5,0.1,17.3,0.1C234.3,204.3,241.6,149.2,203,111
			c-4.6-4.5-17.6-2.9-18.2,4.9c-2,26.4,19.2,50.1,28.4,73.4c7.9,20,31.1,61.5,15.7,81.7c5.5-0.5,11-1,16.5-1.5
			c-17-28.7-26.9-63.2-34-95.7c-5.2-23.5-10.2-55.9-33.6-68.5c-4.9-2.6-16.5-1.1-16.9,6.1c-1.2,22.2,67.5,147.3,47.8,156.8
			c4.3,0.4,8.5,0.8,12.8,1.3c-26-46.8-39.4-98.7-51.4-150.5C168.1,110.6,149.2,115.6,151.2,124.2L151.2,124.2z"/>
	</g>
	<g>
		<path class="st10" d="M175.1,181.8c4.2,14,10.6,27.2,16.3,40.6c2.3,5.3,6.9,13.7,5.8,19.6c-0.7,3.8,1.5,6.7,3.6,9.6
			c4.1,5.7,16.8,1.1,18.2-4.9c5-21.3,13.9-41.1,4.3-62.4c-3.4-7.5-19.6-3.1-18.9,5.1c1.6,18.2,5.9,37.6,17,52.5
			c3.9,5.3,20.5,0.9,18.1-6.5c-0.7-2.4-1.5-3.7-2.9-5.8c-4.3-6.2-22.5,0.5-17.4,7.9c0.5,1,1,2,1.4,2.9c6-2.2,12.1-4.3,18.1-6.5
			c-10.4-13.9-14.1-32.6-15.6-49.6c-6.3,1.7-12.6,3.4-18.9,5.1c9.1,20.3,0.3,39.1-4.4,59.2c6.1-1.6,12.1-3.3,18.2-4.9
			c-2.6-3.6-1.5-8.5-2.8-12.9c-1.9-6.2-4.5-12.1-7.1-18c-5.1-12-10.6-23.6-14.4-36.1C191.6,168.9,172.8,174.1,175.1,181.8
			L175.1,181.8z"/>
	</g>
	<g>
		<path class="st10" d="M420.3,243c-2.4,1.8-4.6,4.1-6.1,6.7c-2.1,3.8,1.8,5.2,5,5.3c4.1,0,10.1-1.4,12.5-5.1c1-1.6,2.3-3.3,2.8-5.1
			c0.8-3.1-3.6-4-5.7-3.9c-5.1,0.2-10.7,1.4-14.1,5.6c-0.9,1.1-1.1,2.7,0,3.7c3.7,3.7,9.3,3.3,14.1,3c0.3,0,3-0.1,0.9-0.1
			c-1.1,0-1.9-0.6-0.5,0.3c0.6,0.3,1.1,0.7,1.7,1c0.9,0.6,0.9,1.1,0.3,0.2c5.4-2.7,10.9-5.4,16.3-8.1c-0.1,0-0.1-0.1-0.2-0.1
			c-4.1-1.8-9.7-0.3-13.4,1.8c-2.4,1.4-5.9,5.3-1.7,7.1c0.1,0,0.1,0.1,0.2,0.1c3.4,1.5,7.9,0.6,11.2-0.8c2.6-1.1,7.6-4,5.1-7.3
			c-1.3-1.8-5.4-3.6-7.5-4.1c-2.7-0.7-5.4-0.4-8.1-0.3c-0.2,0-2.9,0.2-1,0.1c-1,0-1.1,0-0.3,0c1.1,0.6,1.3,0.6,0.4-0.1
			c0,1.2,0,2.5,0,3.7c0.1-0.1,0.2-0.2,0.3-0.3c-2.5,1.5-5,3-7.6,4.4c-1.2,0.1-2.4,0.3-3.6,0.4c-1.9-1.3-3.8-2.6-5.7-3.9
			c-0.1,0.4-0.1,0.4,0.1-0.1c-0.2,0.4-0.5,0.8-0.7,1.2c-0.3,0.5-0.6,0.9-0.9,1.4c5.8,0.1,11.7,0.1,17.5,0.2c1-1.7,2.1-2.9,3.7-4.1
			c3.3-2.4,1.9-5.7-1.7-6.4C429,238.5,424.1,240.3,420.3,243L420.3,243z"/>
	</g>
	<g>
		<path class="st10" d="M111.2,272.4c1.4-0.4,8.2,2.1,11,2.1c6.8,0.1,13.3-1.8,20.1-2.2c-2.9-2-5.8-4-8.7-5.9
			c8.2-2.1,10.1-3.3,5.6-3.6c-1.2-0.3-2.4-0.7-3.6-1.1c-1.9-0.6-3.6-1.4-5.2-2.5c-1.9,3.9-3.8,7.7-5.6,11.6c4.6-1,27.5-1.9,30.4,1.1
			c3.2-3.6,6.4-7.2,9.6-10.8c-1.1,0-2.2,0-3.3,0c-10.7,0-14.6,13.4-1.8,13.4c1.1,0,2.2,0,3.3,0c3.9,0,14.4-5.7,9.6-10.8
			c-5.7-6-15.8-6.1-23.5-6.6c-9-0.6-18.6-0.8-27.6,1.2c-4.7,1-11.5,7.4-5.6,11.6c8.2,5.8,37.8,13,36.9-5c-0.2-4.7-4.4-6.2-8.7-5.9
			c-7.2,0.4-14.2,3.1-21.4,1.4c-5.2-1.3-9.7-1.7-14.9-0.4C96.2,262.8,99.6,275.3,111.2,272.4L111.2,272.4z"/>
	</g>
	<g>
		<path class="st10" d="M45.2,248.3c-3.6,3.7-5.1,9.1,0,12.3c4.1,2.5,9.8,1.5,13.5-1.2c3-2.2,5.1-6.9,1.1-9.4c1,1,1.2,2.3,0.7,3.8
			c-0.2,0.2-0.3,0.5-0.5,0.7c0.3-0.3,0.6-0.7,0.9-1c3.1-3.2,1.6-7.5-2.4-8.8C54,243.2,48.5,244.9,45.2,248.3L45.2,248.3z"/>
	</g>
	<g>
		<path class="st10" d="M15.8,294.7C9.5,301.1,3.5,313.8,5.1,323c0.4,2.7,8.9,0.4,10.1,0.1c9.8-2.4,16.2-8.8,22.4-16.4
			c7.7-9.4,9.7-18.2,5.9-30c-0.4-1.1-2.4-1.1-3.3-1.1c-12.3-0.6-22.4,6-28.1,16.5c-4.5,8.3-10.4,23.6-6.5,33.1
			c1.7,4,18.4-1,18.9-5.1c0.1-0.1,0.3-0.2,0.4-0.3c-6.2,1.4-12.5,2.9-18.7,4.3c0.1,0.4,0.2,0.8,0.3,1.2c0.7,3.6,18.1-0.8,18.7-4.3
			c0-0.2,0.1-0.5,0.3-0.7c1.1-2.6-16.5-1.1-18.6,3.5c-0.1,0.2-0.2,0.4-0.3,0.7c6.2-1.4,12.5-2.9,18.7-4.3c-0.1-0.4-0.2-0.8-0.3-1.2
			c-1-4.7-16.9,2.2-18.7,4.3c-0.6,0.6-0.6,1-0.7,1.9c6.3-1.7,12.6-3.4,18.9-5.1c-2.4-6-0.2-13.6,1.4-19.4c1.2-4.2,2.9-8.2,4.8-12.1
			c0.8-1.5,1.7-3,2.6-4.4c4-6.2,5.3-0.9-5.5-1.4c-1.1-0.4-2.2-0.7-3.3-1.1c2.4,7.5,3.6,15.7-1.1,22.6c-1.8,2.6-3.8,5.1-5.8,7.6
			c-1.1,1.4-2.3,2.7-3.6,4c-1.6,1.6-5.5,3.3-0.3,2c3.4,0,6.8,0.1,10.1,0.1c-1.2-7.5,3.5-19.5,8.8-24.9c2.9-3-2.6-2.9-4.3-2.7
			C24.6,290.7,18.6,291.8,15.8,294.7L15.8,294.7z"/>
	</g>
	<g>
		<path class="st10" d="M33.8,272.4c-0.5,0.4-1.1,0.7-1.6,1.1c1.4,1,2.7,2.1,4.1,3.1c0.6-1.7,1.5-3.2,2.4-4.8
			c-1.7-0.7-3.4-1.4-5.1-2.1c-0.6,2.2-1.7,4-3,5.9c1.6,0.9,3.2,1.9,4.8,2.8c1.9-3.2,3.9-6.3,5.2-9.9c1-2.7-2.8-4.6-4.6-2.7
			c-1.6,1.6-2.7,3.4-3.7,5.4c-1,1.9,0.7,5,3.1,4.1c4.1-1.6,7.5-4.7,6.8-9.4c-0.4-3.2-5.5-2.3-5.4,0.7c0,3,0.1,5.9,0.6,8.9
			c0.5,3.1,5.4,2.3,5.4-0.7c0-2.5,0-5.1,0-7.6c0-3-5-3.9-5.4-0.7c-0.5,3.4-0.6,6.9-1.1,10.3c1.8,0.2,3.6,0.5,5.4,0.7
			c0.1-5,1.5-9.9,0.5-14.8c-0.5-2.4-3.9-2.6-5.1-0.7c-2.2,3.7-4.6,7.2-6.8,10.8c-1.4,2.4-4.2,6.6-0.9,8.7c3,1.9,5.8-2.9,2.8-4.8
			c2.5,1.6,0.7,3.2,1.3,1.8c0.3-0.6,0.6-1.3,1-1.9c0.8-1.4,1.6-2.7,2.4-4c1.7-2.6,3.4-5.2,5-7.9c-1.7-0.2-3.4-0.4-5.1-0.7
			c0.9,4.4-0.5,9-0.6,13.4c-0.1,3.1,5,3.9,5.4,0.7c0.5-3.4,0.6-6.9,1.1-10.3c-1.8-0.2-3.6-0.5-5.4-0.7c0,2.5,0,5.1,0,7.6
			c1.8-0.3,3.6-0.5,5.4-0.7c-0.4-2.5-0.4-4.9-0.4-7.4c-1.8,0.2-3.6,0.5-5.4,0.7c0.2,1.1-2.2,2.3-3,2.6c1,1.4,2.1,2.7,3.1,4.1
			c0.8-1.6,1.6-3,2.8-4.3c-1.5-0.9-3.1-1.8-4.6-2.7c-1.1,3.1-2.9,5.8-4.6,8.6c-1.9,3.1,2.7,5.7,4.8,2.8c1.6-2.2,2.8-4.6,3.5-7.2
			c0.9-3.1-3.4-4.8-5.1-2.1c-1.2,1.9-2.2,3.9-3,6.1c-0.8,2.3,2.1,4.4,4.1,3.1c0.5-0.4,1.1-0.7,1.6-1.1
			C39.5,275.3,36.8,270.5,33.8,272.4L33.8,272.4z"/>
	</g>
	<g>
		<path class="st10" d="M151.1,425c-0.5-0.9-1.1-1.8-1.6-2.7c-1.4-2.4-5.1-1.4-5.2,1.4c-0.1,5.3-0.4,10.5-0.5,15.8
			c1.8-0.3,3.6-0.5,5.4-0.7c-0.7-4.9-0.5-9.8-1.6-14.7c-0.7-2.8-4.5-2.5-5.3,0c-4,12-8.2,29.3,0.1,40.5c6.9,9.2,16,0.3,20.6-6
			c3.6-4.9,6.3-10.5,9.8-15.6c2.9-4.3,7.3-10.7,6.3-16.3c-0.8-4.6-4.3-8.1-9.1-8.5c-6-0.5-10.8-0.3-16.5-2.9
			c-3.3-1.5-6.1-2.2-9.7-2.5c-1.5-0.1-2.7,1.4-2.8,2.8c-0.2,4.9-1,9.7-2.1,14.5c1.8,0.5,3.6,1,5.3,1.5c2.3-17.2,22.7-10,33.5-5.7
			c-0.2-1.7-0.4-3.4-0.7-5.1c-11.4,6.5-14.2,21.2-21.1,31.4c1.7,0.7,3.4,1.4,5.1,2.1c2.4-9.2,6.5-17.6,11.1-26
			c1.5-2.6-2.4-5.9-4.4-3.4c-7.6,9.9-13.2,21-15.4,33.3c-0.6,3.5,4.5,5,5.3,1.5c2.5-11.1,7.2-21.4,8.2-32.8c0.3-2.8-3.9-3.8-5.2-1.4
			c-6.2,11.8-9.8,24.5-10.7,37.8c-0.2,2.7,4,3.8,5.2,1.4c5.5-11,5.8-24.1,5.8-36.2c0-2.9-3.7-3.6-5.2-1.4c-6.7,9.7-7.3,22.5-7.4,34
			c0,3.4,4.3,3.4,5.4,0.7c4.7-11.3,6.6-27.8,2.7-39.5c-0.7-2.1-3-2.6-4.6-1.2c-9.2,7.7-10.8,33-5.3,43c1.1,2.1,4.5,1.6,5.1-0.7
			c3.2-12.5,1.9-25.5,1.2-38.2c-0.1-2.7-3.7-3.8-5.2-1.4c-5.8,9.3-8.2,27.7-4.1,38c0.9,2.2,4.9,3,5.3,0c1.9-12.7,3-26.6-2.4-38.5
			c-1-2.3-4.5-1.5-5.1,0.7c-2.7,9.3-1.5,19.2,2.2,28.1c1,2.3,4.6,2.9,5.3,0c2.2-9.1,0.6-18.7,3.3-27.7c-1.1,0.6-2.3,1.3-3.4,1.9
			c4.6,0.9,9,2.4,13.6,3.3c0-1.8,0-3.6,0-5.3c-2.7-0.4-5.5-0.9-8.2-1.3c-0.7,1.7-1.4,3.4-2.1,5.1c6.3,1.4,11.6,1,17.8-1.1
			c3.4-1.2,2-5.9-1.5-5.3c-4.5,0.7-8.3,0.2-12.7-1.1c0,1.8,0,3.6,0,5.3c4.4-0.9,8.2-0.1,11.4,2.4c0-1.6,0-3.2,0-4.8
			c-2.9,1.1-5.9,1.5-8.9,1.3c-3.6-0.1-3.6,5.5,0,5.5c4.4,0.1,7.8,0.1,11.7-2c1.9-1,1.7-3.7,0-4.8c-5.2-3.2-9.7-4.2-15.7-3
			c-2.8,0.6-2.5,4.6,0,5.3c5.4,1.6,10.1,2,15.6,1.1c-0.5-1.8-1-3.6-1.5-5.3c-5.2,1.7-9.4,2.3-14.8,1.1c-2.9-0.6-5.1,3.8-2.1,5.1
			c4.3,1.9,7.8,2.7,12.5,1.9c2.7-0.5,2.6-4.9,0-5.3c-4.6-0.8-9-2.4-13.6-3.3c-1.5-0.3-3,0.4-3.4,1.9c-2.7,9.1-1,18.6-3.3,27.7
			c1.8,0,3.6,0,5.3,0c-3.3-8-4.6-16.7-2.2-25.1c-1.7,0.2-3.4,0.4-5.1,0.7c4.8,10.4,3.5,23.3,1.9,34.3c1.8,0,3.6,0,5.3,0
			c-3.6-9.1-1.6-25.5,3.5-33.7c-1.7-0.5-3.4-0.9-5.2-1.4c0.7,12.2,2.1,24.7-1,36.7c1.7-0.2,3.4-0.4,5.1-0.7
			c-4.3-7.9-2.8-30.2,4.5-36.3c-1.5-0.4-3.1-0.8-4.6-1.2c3.6,10.9,1.6,26.1-2.7,36.5c1.8,0.2,3.6,0.5,5.4,0.7
			c0.1-10.5,0.5-22.2,6.7-31.2c-1.7-0.5-3.4-0.9-5.2-1.4c0,11.1,0,23.3-5.1,33.4c1.7,0.5,3.4,0.9,5.2,1.4c0.8-12.3,4.2-24,9.9-35
			c-1.7-0.5-3.4-0.9-5.2-1.4c-1,10.8-5.6,20.8-8,31.3c1.8,0.5,3.6,1,5.3,1.5c2-11.3,6.9-21.8,14-30.8c-1.4-1.1-2.9-2.2-4.4-3.4
			c-4.9,8.8-9.1,17.6-11.7,27.3c-0.8,3.1,3.3,4.7,5.1,2.1c6.2-9.2,9-23.6,19.1-29.4c2.3-1.3,1.5-4.2-0.7-5.1
			c-13.8-5.5-37.5-11.4-40.3,9.5c-0.5,3.4,4.6,5.1,5.3,1.5c1.2-5.3,2.1-10.5,2.3-15.9c-0.9,0.9-1.8,1.8-2.8,2.8
			c4.7,0.5,8.6,2.6,12.9,4.3c3.3,1.3,7.4,0.9,10.9,1c13.6,0.2-2.9,21.5-5,25.1c-2,3.5-4.1,6.9-6.6,10c-5.1,6.4-10.8,2.2-12.3-4.6
			c-2.1-9.1,1-19.8,3.9-28.5c-1.8,0-3.6,0-5.3,0c1.1,4.8,0.9,9.8,1.6,14.7c0.5,3.2,5.4,2.3,5.4-0.7c0.1-5.3,0.5-10.5,0.5-15.8
			c-1.7,0.5-3.4,0.9-5.2,1.4c0.5,0.9,1.1,1.8,1.6,2.7C148.1,430.8,152.9,428.1,151.1,425L151.1,425z"/>
	</g>
	<g>
		<path class="st10" d="M306.5,421.2c-9.1,12.4,3.1,33.9,7.3,46.1c1.2,3.3,6.2,2,5.3-1.5c-2.1-8.5-4.5-16.8-7.6-25
			c-0.9-2.3-4.9-3-5.3,0c-1.3,8.2,1.7,34.4,14.5,33.8c6.7-0.3,9.1-6.8,11-12.2c5.3-15.3,3-32,9.5-47.1c-1.7-0.2-3.4-0.4-5.1-0.7
			c2.1,7.6-0.5,18.1-1.7,25.7c-0.6,3.7-3.3,26.5-8.7,26.7c-3.6,0.2-3.6,5.7,0,5.5c9.3-0.4,11.5-17.4,12.8-24
			c2.2-10.4,5.7-24.9,2.9-35.5c-0.6-2.1-4.1-3-5.1-0.7c-6.2,14.3-5.8,29.7-9,44.8c-0.4,1.9-3.4,14.7-8.4,10.7
			c-1.8-1.5-2.9-3.9-3.9-5.9c-3-5.8-4.5-13.3-3.4-19.8c-1.8,0-3.6,0-5.3,0c3.1,8.2,5.5,16.5,7.6,25c1.8-0.5,3.6-1,5.3-1.5
			c-3.7-10.5-15.5-31.5-7.9-41.9C313.4,421.1,308.6,418.3,306.5,421.2L306.5,421.2z"/>
	</g>
	<g>
		<path class="st10" d="M318.9,424.2c5.2-1.8,10-4.2,15.6-4.8c-0.8-1.4-1.6-2.8-2.4-4.2c-4.8,11-6.7,22.1-6.9,34c1.8,0,3.7,0,5.6,0
			c-0.1-10.5,2.9-20.5,3.3-31c0.1-2.6-3-3.5-4.7-2c-10.5,9.3-10.7,34-6.1,46.1c1.1,2.9,5.2,2.5,5.4-0.7c0.8-11.9,3.8-26.2-2-37.2
			c-1.2-2.2-4.4-1.5-5.1,0.7c-3.8,11.6-4.7,25.5-1.6,37.3c0.7,2.6,4.8,2.7,5.3,0c2.2-10.6,6.3-30-1.3-39.1c-1.1-1.3-3.7-1-4.3,0.6
			c-1.5,3.5-8,47.4,2.7,44.6c13.7-3.6,3.2-38.2-3.3-44.6c-1.5-1.5-4-0.7-4.6,1.2c-4,12-5.8,32.5,1.9,43.4c1.5,2.1,4.1,1.6,5.1-0.7
			c5.7-14,6.2-37.8-7.3-47.7c-1.5-1.1-3.6,0.1-4.1,1.7c-3.1,11.1-3.8,24.9,1.9,35.3c1,1.9,3.7,1.7,4.8,0c6-10,2.5-26.9-4.8-35.4
			c-1.4-1.7-4-0.6-4.6,1.2c-2.9,8.6-2.7,19.1,0.5,27.5c0.9,2.3,3.6,2.7,5.1,0.7c6.6-9.1-1.9-16.3-2.3-25.8c-0.7,0.9-1.4,1.8-2,2.7
			c2.7-1.1,5.4-2.2,8.2-3.3c3.3-1.3,1.8-6.7-1.5-5.3c-2.7,1.1-5.4,2.2-8.1,3.3c-1.1,0.4-2.1,1.3-2,2.7c0.3,7.4,8.1,16.2,3.1,23
			c1.7,0.2,3.4,0.4,5.1,0.7c-2.9-7.6-3.2-16.9-0.5-24.6c-1.5,0.4-3.1,0.8-4.6,1.2c5.6,6.6,8.5,21,3.9,28.7c1.6,0,3.2,0,4.8,0
			c-4.9-9-4-21.4-1.3-31c-1.4,0.5-2.7,1.1-4.1,1.7c11.2,8.2,9.3,30.2,4.7,41.4c1.7-0.2,3.4-0.4,5.1-0.7c-6.8-9.6-4.8-28.6-1.4-39.2
			c-1.5,0.4-3.1,0.8-4.6,1.2c5.9,5.8,11.4,28.2,6,35.2c1.7,0.7,2.2,0.3,1.4-1.1c-0.2-1.4-0.4-2.8-0.4-4.2c-0.2-2.3-0.1-4.7-0.1-7
			c0.1-8-0.8-16.5,2.4-24c-1.5,0.2-2.9,0.4-4.4,0.6c5.6,6.8,1.5,25.9-0.2,33.7c1.8,0,3.6,0,5.3,0c-2.8-10.8-1.9-23.8,1.6-34.4
			c-1.7,0.2-3.4,0.4-5.1,0.7c5.2,9.8,2,23.8,1.2,34.5c1.8-0.3,3.6-0.5,5.4-0.7c-3.9-10.3-4.2-32.8,4.7-40.8c-1.6-0.7-3.2-1.3-4.7-2
			c-0.4,10.4-3.3,20.5-3.3,31c0,3.6,5.5,3.6,5.6,0c0.2-10.9,1.7-21.2,6.1-31.2c0.7-1.7-0.1-4.4-2.4-4.2c-6.1,0.7-11.3,3-17,5
			C314,420,315.5,425.3,318.9,424.2L318.9,424.2z"/>
	</g>
	<g>
		<path class="st11" d="M81.5,284.1C68.7,281,80,341,87.6,348c2.4,2.2,6,2.2,8.5,0.1c4.4-3.8,3.4-10.1,2.4-15.2
			c-3-15.4-12.3-37.1-23.9-48.1c-1.3-1.2-3.4-1-4.4,0.6c-5.6,9.1,5,67.4,17.8,62.9c17.6-6.2-10.8-58.2-19.4-65.1
			c-1.6-1.3-4-0.9-4.6,1.2c-0.5,1.8-0.6,2.6-0.6,4.5c-0.1,3.6,5.4,3.6,5.5,0c0.1-1,0.3-2,0.4-3.1c-1.5,0.4-3.1,0.8-4.6,1.2
			c6,4.8,9.5,14,12.8,20.7c4.7,9.6,10.3,21.5,10,32.5c-0.2,5.8-3.1-2.5-4.1-4.6c-2.4-5.3-4.1-11-5.7-16.6c-2.2-8-7.4-23.1-2.7-30.9
			c-1.5,0.2-2.9,0.4-4.4,0.6c7.4,7,12,18.6,16.2,27.8c2.6,5.7,4.8,11.7,6.2,17.8c0.9,3.7,0.5,14.2-3.9,6.8c-5-8.4-6.2-20.2-7.3-29.7
			c-0.5-4.4-0.8-8.9-0.9-13.4c-0.1-2,0-4,0.2-5.9c0.2-3.4,1.3-2.1-1.1-2.7C83.5,290.3,85,285,81.5,284.1L81.5,284.1z"/>
	</g>
	<g>
		<path class="st11" d="M65.9,308c1.1,9.1,1.9,18.3,4.1,27.2c5.1-2.1,10.1-4.3,15.2-6.4c-6.4-14.4-9.4-30-17.9-43.4
			c-4.8,2.8-9.6,5.6-14.4,8.4c0.7,0.8,1.2,1.7,1.6,2.7c5,9.5,19.3,1.1,14.4-8.4c-0.4-1-1-1.9-1.6-2.7c-6.1-8.6-20.1-0.8-14.4,8.4
			c8.4,13.4,11.6,29.1,17.9,43.4c3.9,8.9,17.3,2.4,15.2-6.4c-1.8-7.5-2.5-15.1-3.5-22.8C81.3,297.5,64.6,297.3,65.9,308L65.9,308z"
			/>
	</g>
	<g>
		<path class="st11" d="M52.4,281.5c-12.1,26.5,15.1,68.1,36.2,82.6c19.6,13.4,35.1,27,57.5,35.8c24,9.4,50.9,11.7,76.4,12
			c20.9,0.3,41.3,0.6,61.4-5.5c22.4-6.8,44.7-19,66.3-28.3c36.5-15.7,63.8-44.9,65.3-87c0.3-7.8-9-10.3-14.2-5.9
			c-28.8,24.6-56.1,52.1-82.6,79.3c-6.5,6.6,2,18.3,10.1,13.1c14.9-9.6,25.3-22.8,37-35.9c11.3-12.7,24.1-23.5,29.3-40.2
			c2.2-7-6.1-13.1-12.2-9.4c-44.8,26.8-77.9,71.1-119.5,102.7c3.8,3.8,7.6,7.6,11.4,11.4c10.8-16.5,23.9-31.2,38.3-44.7
			c10-9.3,20-16.8,26.4-29.2c3.1-6-0.9-11.8-7.2-12.5c-16.2-1.8-30.8,11.5-42.7,20.8c-22.1,17.5-45.5,32.5-65.9,52.2
			c3.9,3.9,7.8,7.8,11.8,11.8c22.3-21.9,47.8-41.9,60.5-71.2c2.2-5.2-0.2-13.1-7.2-12.5c-9.5,0.8-15.8,4.6-23.8,9.8
			c-13.2,8.6-27.9,15.4-41.8,22.8c-17,9.1-36.3,16.6-46.4,33.9c-3.1,5.2,0.8,12.8,7.2,12.5c21.8-1,81.6-27.4,67.7-56.6
			c-3.5-7.3-14-8.9-20.8-10.1c-16.8-3-33.5-5-50.6-5.3c-18.9-0.3-47.2-4.1-61.3,11.7c-2.8,3.1-3.6,8.7,0,11.8
			c17.2,14.4,41.2,23.2,61.5,33c13.4,6.5,31.6,13.4,41.2-1.7c1.5-2.4,1.6-6,0-8.4c-6.5-9.5-18.5-14.5-28.2-20.3
			c-16.9-10.1-34.6-18.8-52.5-27c-19.3-8.9-43.1-20.3-61.3-4.6c-2.3,2-2.7,5.3-2.1,8.1c1.6,8,7.1,11.1,13.8,15.2
			c14.4,9,28.6,18.4,43.1,27.3c15.8,9.7,37.2,29.1,57.3,25.7c6.5-1.1,7.6-9.8,3.7-13.9c-14.7-15.5-33.6-24.5-52.2-34.4
			c-19.2-10.3-42.4-31.3-65-31c-6.9,0.1-11.4,9.2-5.9,14.2c8.3,7.5,18.1,11.6,27.8,17.1c16.3,9.2,31.3,21,46.8,31.4
			c16.9,11.3,39.6,27.9,61.1,26.6c13.1-0.8,21.4-16.1,10.7-25.8c-19.3-17.4-44-30.8-68.2-39.8c-9.7-3.6-30.9-12.8-40-3.5
			c-7.9,8.1-2.6,15.8,4.2,22.5c12.3,12.2,27.8,21.9,42.3,31.2c10.5,6.7,22.6,15.1,35.3,16.6c5.4,0.6,9.4-5.8,8-10.5
			c-5.5-19.2-26.1-24.9-42.3-32.9c-14.7-7.3-29.1-16.8-45.8-18.8c-11.9-1.4-17.7,15.1-8.5,22.3c6.9,5.3,14.2,8.1,22.5,10.6
			c13.1,4,24.8,11.9,37.8,16.5c7.7,2.7,14.5-8.6,8.1-13.9c-10-8.2-20.9-14.3-32.1-20.8c-10.2-5.9-18-13.9-29.1-18.2
			c-8.3-3.2-13.3,8.3-8.1,13.9c2.4,2.6,4.7,3.2,8.1,3.5c10.7,1.2,10.5-15.5,0-16.6c1.2,0.4,2.5,0.9,3.7,1.3
			c-2.7,4.6-5.4,9.3-8.1,13.9c9.5,3.7,16.9,10.9,25.2,16.6c9.5,6.5,19.7,10.8,28.7,18.3c2.7-4.6,5.4-9.3,8.1-13.9
			c-13.1-4.6-24.5-12.5-37.8-16.5c-9-2.7-7.4-1.3-18.4-0.2c5.5-0.5,13,4.2,17.7,6.4c13.7,6.3,50.1,18.4,54.3,33.1
			c2.7-3.5,5.3-7,8-10.5c-15.1-1.8-34-18.7-46-27.1c-7.7-5.4-15.2-11.2-21.9-17.8c-2.2-2.2-3.7,3.7,4.6,5.3c5.2,1,10.2,2.9,15.1,4.7
			c15.8,5.7,31,14.2,45.2,23.1c0.2,0.1,14.1,10.8,11.6,10.4c-7.7-1.2-15.1-5.9-21.8-9.7c-15.2-8.5-29.5-18.2-43.8-28.1
			c-16-11-37-19.4-51.2-32.3c-2,4.7-3.9,9.5-5.9,14.2c17.4-0.2,41.8,20.4,56.6,28.7c17.2,9.7,35,17.3,48.8,31.8
			c1.2-4.6,2.4-9.3,3.7-13.9c-7.2,1.2-16.5-6.8-22.4-10.6c-14.4-9.3-29.3-17.8-43.8-26.9c-4.7-2.9-35.7-18-12.2-12.8
			c13.4,3,26.6,10.2,38.9,16.1c12.7,6.1,25.1,12.9,37.3,19.9c6.4,3.7,12.6,7.7,18.9,11.6c-1.1-1.8-2.2-3.7-3.3-5.5
			c-4.1-1.1-8-2.6-11.8-4.4c-18.5-8.2-42.9-17.6-58.1-30.4c0,3.9,0,7.8,0,11.8c9-10.1,30.3-7.2,42.5-6.9c18.1,0.4,35.4,2,53.2,4.8
			c8.9,1.4,13.5,1.8,6.1,9.5c-4.4,4.6-10.1,7.9-15.5,11.2c-9.4,5.7-21.8,12.9-33.1,13.5c2.4,4.2,4.8,8.3,7.2,12.5
			c8.3-14.2,26.4-20.8,40.5-28c9.4-4.8,18.8-9.9,28.1-15c8.5-4.6,19.2-14.5,29.1-15.4c-2.4-4.2-4.8-8.3-7.2-12.5
			c-12.1,28.1-36.6,47-57.9,67.9c-7.7,7.5,4.1,19.2,11.8,11.8c16.6-16,35.1-28.9,53.6-42.5c11.7-8.5,27.3-27.5,43.1-25.7
			c-2.4-4.2-4.8-8.3-7.2-12.5c-7.5,14.5-22.3,24-33.6,35.5c-11.6,11.8-22,24.6-31.1,38.4c-4.4,6.7,4.6,16.5,11.4,11.4
			c41.4-31.4,75-76,119.5-102.7c-4.1-3.1-8.1-6.3-12.2-9.4c-4.1,13.4-15.7,23-25,32.9c-11.1,11.7-19.8,24.4-33.6,33.3
			c3.4,4.3,6.7,8.7,10.1,13.1c26.5-27.2,53.8-54.7,82.6-79.3c-4.7-2-9.5-3.9-14.2-5.9c-0.5,14.4-9.4,33.7-16.2,45.8
			c-8.2,14.6-29.6,22.3-44.2,28.3c-33.9,14-64.3,30.3-101.7,30.2c-39.4-0.1-76.9-3.6-111.6-24c-11.9-7-31.8-21.8-39.9-32.9
			c-6.4-8.7-24.2-36.2-18.5-48.6C71.2,280.2,56.9,271.8,52.4,281.5L52.4,281.5z"/>
	</g>
	<g>
		<path class="st11" d="M96.1,329.8c21.9,16,44.9,29.9,68.9,42.5c16.1,8.5,33.8,19.6,52.6,17.2c5.5-0.7,11.3-6.8,7.2-12.5
			c-13.1-18.1-41.7-26.7-61.4-35.3c-17.8-7.8-56.7-14.5-63.2-35c-3.4,3.4-6.8,6.8-10.2,10.2c20.3,4.1,41.7,19.2,60.1,28.5
			c16.3,8.3,32.2,16.3,50.2,20.3c8.1,1.8,14-7.7,8.1-13.9c-17.8-18.6-43-33.5-64-48.2c-11.7-8.1-51.4-42-65.3-23
			c-2.7,3.6-0.6,9.3,3,11.4c23.7,13.6,52.4,18.3,78,27.5c1.5-5.3,2.9-10.7,4.4-16c-25.5-7.1-48.7-19.9-75.5-21.5
			c-9-0.5-10.3,11.1-4.2,15.5c19.7,14.4,47.6,33.9,72.6,34.8c8.2,0.3,11.5-11.7,4.2-15.5c-13.7-7.2-28.1-13.3-41.1-21.7
			c-10.5-6.8-19-12.6-31.6-9c-8.4,2.4-7.5,13.3,0,16c30.3,11.1,53.5,27.7,86.4,31.9c14.3,1.9,28.1,6.1,42.4,7.8
			c15.2,1.8,27.4-1.1,41.8-5.4c7.8-2.3,8-13.8,0-16c-21.4-5.9-43.7-5.5-65.3-10.5c-16.4-3.8-30.7-9.5-47.7-6.9
			c-9.1,1.4-6.6,13.4,0,16c17.1,6.9,35.4,7.8,53.6,9.4c24.6,2.2,48.4,6,73.2,5.4c22.2-0.5,43.9-6.4,65.4-11.8
			c12.6-3.2,32.2-1.8,42.8-9.8c5.9-4.5,5-16.1-4.2-15.5c-2.4,0.1-4.7,0.3-7.1,0.5c-10.6,1-10.7,17.6,0,16.6c2.4-0.3,4.7-0.4,7.1-0.6
			c-1.4-5.2-2.8-10.3-4.2-15.5c-7.4,5.7-29.6,5.9-38.9,8.2c-23.2,5.6-45.4,10.8-69.4,11.4c-19.6,0.5-39.3-2.4-58.6-5
			c-18.8-2.5-37.5-2.3-55.4-9.5c0,5.3,0,10.7,0,16c17.1-2.6,35.2,6.6,51.9,9.4c17.5,2.9,35.1,3.2,52.3,8c0-5.3,0-10.7,0-16
			c-29.4,8.8-55.4,0.8-84.9-3.7c-28.4-4.3-50.6-20.8-76.9-30.5c0,5.3,0,10.7,0,16c9.4-2.7,21.4,9.2,29,13.4
			c10,5.7,20.7,10.2,30.9,15.6c1.4-5.2,2.8-10.3,4.2-15.5c-20.2-0.7-48.2-20.8-64.2-32.5c-1.4,5.2-2.8,10.3-4.2,15.5
			c25,1.5,47.3,14.2,71.1,20.9c10.5,2.9,14.4-12.5,4.4-16c-24.1-8.6-51.8-13-74.1-25.8c1,3.8,2,7.6,3,11.4c-3.6,4.9-1.9,2.4,4.5,5.4
			c5,2.3,9.7,5.2,14.3,8c13,7.8,25.5,16.7,37.8,25.5c15.3,11,33.5,21.9,46.6,35.6c2.7-4.6,5.4-9.3,8.1-13.9
			c-21.3-4.8-39.9-15.7-59.4-25.2c-16.3-8-33-20-50.9-23.6c-5.9-1.2-12.3,3.8-10.2,10.2c5.9,18.5,24.9,26.4,41.6,33.3
			c12,5,24.2,9.3,36.1,14.5c13.6,5.9,39.5,13.7,48.6,26.3c2.4-4.2,4.8-8.3,7.2-12.5c-18,2.3-36-10.7-51.3-18.7
			c-21.6-11.3-42.1-24.5-61.8-38.8C95.8,309.1,87.6,323.6,96.1,329.8L96.1,329.8z"/>
	</g>
	<g>
		<path class="st11" d="M357.8,300.8c-45.6-1.6-86.7,14.5-129.2,28.6c-12.9,4.3-23.2,11.4-28.2,24.2c-4.8,12.4,5.2,21.9,16.7,20.9
			c5.1-0.5,9.8-5,8-10.5c-3.2-9.9-6.7-19-14.1-26.5c-4.8-4.8-11.7-1.9-13.9,3.7c-0.4,0.9-0.7,1.8-1.1,2.7c-1.3,3.2,0.8,7.9,3.8,9.4
			c15.3,7.2,36.8,16.9,51.9,5.2c3.3-2.6,3.2-9.1,0-11.8c-15.5-12.7-34.4-6.5-48.7,5.4c-5.6,4.7-1,14.5,5.9,14.2
			c20.6-0.9,39.5-6.9,59.2-12.2c-2.7-4.6-5.4-9.3-8.1-13.9c-13.6,17.1-40.2,21.7-46.1,45c-1.6,6.2,4,11.7,10.2,10.2
			c13.9-3.4,23.9-12.5,35.1-20.9c12.9-9.7,26.4-18.3,37-30.6c5.8-6.7-2.1-19-10.1-13.1c-20.1,15-37.5,32.7-54.9,50.7
			c-5.6,5.8-0.1,16.4,8.1,13.9c16.9-5.2,31.1-15.1,45.6-24.9c14.9-10.1,26.6-24.9,42.7-33c-3.8-3.8-7.6-7.6-11.4-11.4
			c-18.3,27.4-58.3,36.1-69.8,68.8c-2.4,6.7,4.6,11,10.2,10.2c12.5-1.8,20.7-11.1,28.5-20.4c13.5-16.1,25.9-33.3,40.4-48.5
			c-4.4-3.4-8.7-6.7-13.1-10.1c-11.9,24.6-40.6,34.3-52.7,59.2c-3.4,7,3.8,16.2,11.4,11.4c4-2.6,5.2-3.5,8.2-7.3
			c6.6-8.3-5.1-20.2-11.8-11.8c-1.6,1.6-3.2,3.1-4.8,4.7c3.8,3.8,7.6,7.6,11.4,11.4c11.9-24.6,40.6-34.3,52.7-59.2
			c3.9-8.1-6.2-17.3-13.1-10.1c-10.5,11.2-19.6,23.4-29.2,35.4c-8,10.1-18.8,27.4-32.3,29.3c3.4,3.4,6.8,6.8,10.2,10.2
			c10-28.5,51.4-39.7,68.2-64.8c5-7.4-4.4-14.8-11.4-11.4c-30.6,15.1-50.3,45.7-84.4,56.2c2.7,4.6,5.4,9.3,8.1,13.9
			c16.4-16.9,32.6-34,51.5-48.1c-3.4-4.3-6.7-8.7-10.1-13.1c-8.3,9.6-18.3,16.9-28.5,24.3c-11.6,8.3-22,19.5-36.2,23
			c3.4,3.4,6.8,6.8,10.2,10.2c4.5-17.7,30.9-23.8,41.9-37.6c4.9-6.2,0.6-16.2-8.1-13.9c-18.2,4.9-35.8,10.9-54.8,11.7
			c2,4.7,3.9,9.5,5.9,14.2c5.9-5,17.4-11.8,25.2-5.4c0-3.9,0-7.8,0-11.8c-6.2,4.8-25.8-5-31.8-7.8c1.3,3.1,2.5,6.3,3.8,9.4
			c0.4-0.9,0.7-1.8,1.1-2.7c-4.6,1.2-9.3,2.4-13.9,3.7c5.4,5.5,7.5,12,9.8,19.1c2.7-3.5,5.3-7,8-10.5c1.8-4.5,4.9-7.6,9.2-9.5
			c4.9-2.9,10.8-4.3,16.2-5.9c8.5-2.5,17.2-4.1,25.6-6.8c13-4.2,25-10.8,38.4-14.2c16.7-4.3,34.2-4.6,51.3-4
			C368.5,317.8,368.5,301.1,357.8,300.8L357.8,300.8z"/>
	</g>
	<g>
		<path class="st11" d="M335.5,331.5c-24.3,6.5-40.2,33.2-48.7,55.2c-3.2,8.3,8.3,13.2,13.9,8.1c11.1-10.2,23-19.4,34.8-28.8
			c12.7-10.2,22.9-23.1,35.8-33.1c-3.9-3.9-7.8-7.8-11.8-11.8c-23.7,21.5-49,41.3-66.5,68.5c-4.8,7.4,4.3,15,11.4,11.4
			c32.6-16.6,60.3-48.3,87-73c7.1-6.6-2-17.5-10.1-13.1c-15.9,8.8-31.9,22.9-39.9,39.4c-3.7,7.5,3.7,15.3,11.4,11.4
			c17.9-9.2,35.6-27.8,48.9-42.6c5.3-5.8,0.3-16.6-8.1-13.9c-17.5,5.7-35.5,9.8-53.2,14.7c-16.1,4.4-35.9,11.2-52.7,11.1
			c2,4.7,3.9,9.5,5.9,14.2c13.2-12.6,32.6-13.8,49-20.1c8-3.1,7.8-17.6-2.2-16.3c-23,3-51.2,10.1-69.4,25.2
			c-5.6,4.7-1,14.4,5.9,14.2c15.9-0.5,29.4-6.7,43.4-13.6c16.8-8.2,33.8-12.9,48.3-25.3c6.6-5.7-0.5-15.7-8.1-13.9
			c-20.1,4.9-39.5,11.5-59.3,17.4c-6,1.1-11.7,3.1-17.1,6.1c3-2.1,6.7-3.6,10.1-5.1c4.7-2.1,9.7-3.8,14-6.5
			c7.5-4.7,3.8-14.6-4.2-15.5c-10.2-1.1-18.9,3.7-28.8,5.2c2.1,5.1,4.3,10.1,6.4,15.2c6.5-3.5,12.5-7.7,18.5-12
			c-3.4-4.3-6.7-8.7-10.1-13.1c-0.7,0.7-1.5,1.5-2.2,2.2c-5.8,5.8,0,16.3,8.1,13.9c40-11.9,81.9-13.8,122.3-24.3
			c6.2-1.6,7.9-9.4,3.7-13.9c-0.2-0.2-0.4-0.5-0.6-0.7c-7.4-7.8-19.1,4-11.8,11.8c0.2,0.2,0.4,0.4,0.6,0.7c1.2-4.6,2.4-9.3,3.7-13.9
			c-40.4,10.5-82.4,12.5-122.3,24.3c2.7,4.6,5.4,9.3,8.1,13.9c0.7-0.7,1.4-1.5,2.2-2.2c6.5-6.5-2.2-18.7-10.1-13.1
			c-6,4.3-11.9,8.5-18.5,12c-9,4.8-2.3,16.5,6.4,15.2c8.3-1.2,15.8-5.5,24.4-4.6c-1.4-5.2-2.8-10.3-4.2-15.5
			c-6.5,4.1-46.4,16.8-30.2,31.6c8.5,7.8,19.1,7.2,29.8,5.8c21.9-3,43.9-13.7,65.4-18.9c-2.7-4.6-5.4-9.3-8.1-13.9
			c-10.8,9.3-24,13.8-37.1,19c-14.4,5.8-26.8,14.4-42.9,14.9c2,4.7,3.9,9.5,5.9,14.2c13.5-11.3,40.5-18.1,57.7-20.4
			c-0.7-5.4-1.5-10.9-2.2-16.3c-19.6,7.5-40.5,9.4-56.4,24.4c-5.3,5.1-1.2,14.2,5.9,14.2c16.1,0.1,33.6-6,49.2-9.6
			c20.5-4.7,41.1-10.3,61.1-16.8c-2.7-4.6-5.4-9.3-8.1-13.9c-12.2,13.5-29.5,31.7-45.6,40c3.8,3.8,7.6,7.6,11.4,11.4
			c6.9-14,20.5-26,33.9-33.4c-3.3-4.3-6.7-8.7-10.1-13.1c-25.5,23.6-52.5,54.5-83.6,70.4c3.8,3.8,7.6,7.6,11.4,11.4
			c16.6-25.9,41.4-44.6,63.9-65.1c8.1-7.4-3.5-18.1-11.8-11.8c-11.1,8.6-20.5,18.8-30.6,28.5c-12.5,12-27.2,21.7-40,33.4
			c4.6,2.7,9.3,5.4,13.9,8.1c6.3-16.4,18.9-38.8,37.1-43.6C350.3,344.7,345.9,328.7,335.5,331.5L335.5,331.5z"/>
	</g>
	<g>
		<path class="st11" d="M311.6,309.5c24.7,5,46.9-3.6,70.5-10.4c18.3-5.3,41.1-5,54.9-20c4.8-5.2,1.6-14.2-5.9-14.2c-2,0-4,0-6,0
			c2,4.7,3.9,9.5,5.9,14.2c1.1-0.9,2.2-1.8,3.3-2.7c7.4-6.2-2.1-17.8-10.1-13.1c-0.9,0.5-1.8,1.1-2.7,1.6c-9.2,5.5-1,19.6,8.4,14.4
			c3.1-1.4,6.3-2.7,9.4-4.1c6.2-1.9,7.8-9.2,3.7-13.9c0.6,1.6,1.3,3.2,1.9,4.8c-2.8,2.8-5.5,5.5-8.3,8.3c0.2,0,0.4,0,0.5,0
			c-2.8-2.8-5.5-5.6-8.3-8.3c-0.3,20.6-11.6,47.9-20,66.4c-9.6,20.9-32.2,37.3-50.7,49.5c-19.1,12.6-40.4,18.2-62.6,22.2
			c-25.2,4.5-52.5,9-77.7,3.2c-0.7,5.4-1.5,10.9-2.2,16.3c23.8-0.9,46.4-8.1,70-10.6c23.6-2.4,41.1-10.2,60.9-23.2
			c19.3-12.7,37.1-24.7,51.7-42.9c5.7-7.1,10.5-14.6,14-23c4.3-10,5.6-22.7,15-29.7c-4.1-3.1-8.1-6.3-12.2-9.4
			c-6.7,21.7-19.1,44.5-30.4,64.3c-7.8,13.8-32.7,33.7-49.1,36.9c2.7,4.6,5.4,9.3,8.1,13.9c6.4-7,13.2-13.6,19.6-20.6
			c7.2-7.9-4.5-19.7-11.8-11.8c-6.4,7-13.2,13.6-19.5,20.6c-5.8,6.3-0.1,15.5,8.1,13.9c19.4-3.9,40.6-22.8,53.6-36.9
			c8.7-9.4,13.5-23.2,18.8-34.7c6.3-13.8,14.2-26.7,18.7-41.2c2-6.5-6.2-13.8-12.2-9.4c-9.6,7.1-13.9,15.7-18,26.8
			c-8.5,23.3-22.6,41.8-43.4,55.8c-22.9,15.4-43.6,31-71.9,33.9c-23.6,2.4-46.3,9.7-70,10.6c-9.1,0.3-11.7,14.2-2.2,16.3
			c49.9,11.4,116.2-2.6,158.7-30.7c20.4-13.5,38.5-30.8,51.1-51.8c6.5-10.8,9.5-24.2,12.8-36.2c3.7-13.2,9.3-24.7,9.5-38.6
			c0.1-4.5-3.8-8.3-8.3-8.3c-0.2,0-0.4,0-0.5,0c-4.1,0-8.9,3.8-8.3,8.3c0.4,2.9,1,4.7,3,7c1.2-4.6,2.4-9.3,3.7-13.9
			c-5.8,1.8-8.1,2.8-13.4,5.7c2.8,4.8,5.6,9.6,8.4,14.4c0.9-0.5,1.8-1.1,2.7-1.6c-3.4-4.3-6.7-8.7-10.1-13.1
			c-1.1,0.9-2.2,1.8-3.3,2.7c-5.8,4.8-0.9,14.2,5.9,14.2c2,0,4,0,6,0c-2-4.7-3.9-9.5-5.9-14.2c-9.5,10.3-28.3,11.6-41.4,14.2
			c-22.9,4.4-43.7,16.8-67.8,11.9C305.5,291.3,301.1,307.3,311.6,309.5L311.6,309.5z"/>
	</g>
	<g>
		<path class="st11" d="M420.4,302c-0.2,0.9-0.5,1.8-0.8,2.7c-0.3,0.9-0.3,0.8,0.1-0.1c-0.2,0.5-0.4,0.9-0.7,1.4
			c-2,4.1-1.1,9,3,11.4c3.7,2.2,9.4,1.1,11.4-3c1.2-2.6,2.3-5.2,3-8c1.1-4.4-1.4-9-5.8-10.2C426.3,295,421.5,297.6,420.4,302
			L420.4,302z"/>
	</g>
	<g>
		<path class="st11" d="M424.6,319c10.7,0,10.7-16.6,0-16.6C413.9,302.4,413.9,319,424.6,319L424.6,319z"/>
	</g>
	<g>
		<path class="st11" d="M51.9,263c-0.6,0.1-1.2,0.2-1.8,0.4c3.1,1.3,6.3,2.5,9.4,3.8c-0.3-0.7-0.6-1.3-0.9-2
			c-4.1-8.6-17.8-2.5-15.2,6.4c6.4,21.6,15.6,43,19,65.2c2.5,16.6,13.9,29.9,27.1,39.6c15.9,11.6,33.6,20.9,51.7,28.6
			c22.1,9.3,45.6,9.6,67.7,17.5c10.1,3.6,14.5-12.5,4.4-16c-17.1-6.1-35.6-6.7-53.1-12.1c-18.7-5.7-36.4-15.4-53-25.7
			c-17.2-10.7-26.8-23.1-29.9-43.2c-3-19.7-12.3-39.1-17.9-58.2c-5.1,2.1-10.1,4.3-15.2,6.4c0.3,0.7,0.6,1.3,0.9,2
			c1.6,3.4,6,4.6,9.4,3.8c0.6-0.1,1.2-0.3,1.8-0.4C66.9,277,62.4,261,51.9,263L51.9,263z"/>
	</g>
	<g>
		<path class="st11" d="M51.5,281.8c6.2,5,8.3,6.3,15.6,9.2c8.9,3.5,14.5-10.7,6.4-15.2c-3.6-1.7-6.9-4-9.7-6.9
			c-2,4.7-3.9,9.5-5.9,14.2c8.5-0.2,23.5,7,32,8.9c14.9,3.4,25,11.5,40.8,10.1c8.8-0.8,12-14.2,2.2-16.3c-1.6-0.4-3.3-0.7-4.9-1.1
			c-1.5,5.3-2.9,10.7-4.4,16c28.4,5,57.5,7.6,86.2,10.2c27.8,2.6,58.1,3.3,85-4.8c8.7-2.6,7.4-17.1-2.2-16.3
			c-10.4,0.9-20.5,3.9-31,4.4c-8.9,0.4-11.9,14.9-2.2,16.3c3.9,0.6,4.9,2.8,3.1,6.6c3.5-2.7,7-5.3,10.5-8
			c-32.3-10.9-66.8,3.5-97.4-11.7c-9.6-4.7-18,9.6-8.4,14.4c14.3,7.1,21.6,11.2,38.2,10.1c20.3-1.4,43.7-3.3,63.2,3.2
			c5.5,1.8,10.1-2.9,10.5-8c1-12.1-2.4-20.8-15.3-22.7c-0.7,5.4-1.5,10.9-2.2,16.3c10.5-0.4,20.5-3.5,31-4.4
			c-0.7-5.4-1.5-10.9-2.2-16.3c-25.7,7.8-54,5.8-80.6,4.2c-26.9-1.6-55.2-5-81.8-9.6c-10.4-1.8-15,13.7-4.4,16
			c1.6,0.4,3.3,0.7,4.9,1.1c0.7-5.4,1.5-10.9,2.2-16.3c-24.8,2.3-48.3-19.4-72.8-19c-7.2,0.1-11.1,9-5.9,14.2c4,4,8.1,6.7,13.1,9.4
			c2.1-5.1,4.3-10.1,6.4-15.2c-2.8-1.6-5.5-3.3-8.3-4.9C55.1,263.3,43.2,275,51.5,281.8L51.5,281.8z"/>
	</g>
	<g>
		<path class="st11" d="M199.2,310.9c6.3,0.7,12.2-1.3,18.6-0.7c6.4,0.6,12.4,0.8,18.9,0.5c8.3-0.4,19.5,1.9,27.6-0.6
			c4.7-1.5,8.3-7.7,5-12.2c-0.1-0.2-0.3-0.4-0.4-0.5c-6.2-8.6-20.7-0.3-14.4,8.4c0.1,0.2,0.3,0.4,0.4,0.5c1.7-4.1,3.3-8.1,5-12.2
			c-2,0.6-5.3-0.1-7.4-0.2c-6.8-0.4-13.9,0.2-20.6,0.5c-4.8,0.2-9.3-0.2-14-0.7c-6.4-0.7-12.3,1.4-18.6,0.7
			C188.5,293.1,188.6,309.7,199.2,310.9L199.2,310.9z"/>
	</g>
	<g>
		<polygon class="st12" points="492.7,146.6 492.1,147.6 493.5,148.1 		"/>
		<path class="st12" d="M487.1,152.1c0.3,0.8,0.6,1.5,0.9,2.2c4.2-1.9,3-0.3,5.9-3.4c-0.8-0.8-2.1-3.2-3.9-3.1
			c0.1,0.9,1.7,2,1.2,3.1c-1.3-0.4-1.1-1.7-2.7-2.4c-1.4,2,1,1.3,0.5,3.5L487.1,152.1z"/>
		<path class="st12" d="M491.8,154c-0.8,0-1.6-0.1-2.2,0.1C490.4,154.2,491.5,154.9,491.8,154z"/>
		<path class="st12" d="M492.5,155c0.2,1.2-1.6,0.4-1.8,0.6c1,0.2,2.1,0.4,3.1,0.5C493.4,155.8,492.9,155.4,492.5,155z"/>
		<path class="st12" d="M494.2,159.7c0.2,0.1,0.3,0.3,0.5,0.3C495,159.7,494.6,159.7,494.2,159.7z"/>
		<path class="st12" d="M495.8,161.6c0.5-1-0.3-1.1-1.1-1.5l-0.1,0.2c-0.3,1-2.4,1.6-2.6,0.2c-1-1,0.9-1.7-0.8-2.2
			c-0.3,0.7-0.6,1.4-0.8,2.1C491.6,162.3,494.8,161.5,495.8,161.6z"/>
		<path class="st12" d="M494.2,159.7c-0.2-0.1-0.3-0.3-0.4-0.5C493.6,159.6,493.9,159.7,494.2,159.7z"/>
		<polygon class="st12" points="493.3,157.4 492.7,156.9 491.9,157.4 		"/>
		<path class="st12" d="M498.6,164.4c-2.2,1.8-1.8-2.3-3.6-1.2c1.1,1.2,0.8,3.6-0.6,4.4c0.7,0.3,1.4,0.6,2.1,0.8
			C497.8,168.1,498.4,166,498.6,164.4z"/>
		<path class="st12" d="M497.2,172.3c0.2-0.1,0.5-0.1,0.7-0.1C497.7,172.2,497.4,172.1,497.2,172.3z"/>
		<path class="st12" d="M508.4,172.8c-1.7,0.4-3.4,0.6-5.2,0.7c0.8-0.6,1-1.4,2.1-1.3c-1.6-1.2-2.7,0.3-4-0.9
			c0.9-2.4,2.6,1.3,2.9-1.2c-1-0.5-2.5-1.2-4.5,0.1c-0.2-0.8-0.4-1.7-0.5-2.5l-1.2,2.6c0.2,1.1,2.5-0.9,1.9,1
			c-0.4,1.2-1.2,0.9-1.9,0.8c1.4,0.2,1.9,3.9,4.6,4.7C505.2,177.9,506.4,173.5,508.4,172.8z"/>
		<polygon class="st12" points="507.4,175.8 507.3,176.9 507.7,175.5 		"/>
		<path class="st12" d="M513.2,173.8c-0.9,0.4-1.8,0.7-2.7,1.1c-0.2-0.3-0.1-0.9-0.1-1.4c-0.1,0.6-1.1,1.5-1.1,2
			c0.3,2.8,3,0.1,4.3-0.1c2.9,1.9-0.5,1.3,0.2,3.9c-0.9-0.3-0.8-0.9-2.1-1.4c1.3,3.4,4.6,1.3,6,0.8c-0.3-0.3-0.3-1.1-1.1-1l1.5-0.6
			C517.1,174.9,516.1,174.2,513.2,173.8z"/>
		<path class="st12" d="M509.4,172.6c0.9,0.1,1.1,0.4,1,0.7C510.4,172.6,510.3,172.1,509.4,172.6z"/>
		<path class="st12" d="M518.5,178.7c-0.1-0.2-0.4-0.1-0.7,0C517.9,178.8,518.1,178.9,518.5,178.7z"/>
		<path class="st12" d="M517.6,175.6l1.5,0.5l-0.4-1.3C518.5,174.9,517.7,174.9,517.6,175.6z"/>
		<path class="st12" d="M561.1,143c-1,0.4-1.3,1.2-0.8,2.4c-1.4,0.1-1.5-1.6-2.5-2.1c-0.4,1.8-1.6,0.4-2.7,1.2
			c0.3,1.7,2.3,2.1,2.2,4c-0.4,0-1,0.1-1.4,0.4c1.2,2,2.4,6.2,0.6,8.2c-1,2-0.9,3.6-1.6,6.1c-4.5,6.7-12.5,11.3-20.9,11.2l-0.8,2.8
			c-0.6-1.3-2.1,0.2-2-1.6c0.5,0.3,0.9,0,1.5-0.1c-2-2.1-4.7,0.5-6.9-0.3c0.2,0.5,0.6,2.8-0.1,3.2c0.3-3-2.7,0-3.1-3.5
			c-2-1-0.3,2.6-2.5,1.9c-0.5,1.7,2.1,1.1,2.4,2.4c-0.9,1.4-2.1-0.8-2.2,1c3.9,1.4,11.3-2.2,16.5-4.4l-0.3,1.7
			c2.8-1.7,7.1-3.1,10.6-1.8c-1.3-1,4.8-1.6,2.3-4.5c1.1,0.2,1.2,0,2.4-0.5l-0.5-1.1c1.2-1,2.2,0.5,3.6-1.1c-2-0.1-1.3-1.5-2-2.7
			c2.6-0.4,5.3-1.8,7.4-3.3c-0.5,0-1.1-0.1-2,0.2c1.1-1-0.4-1.4-0.7-1.9c0.4-1.1,2.2-0.4,3.1,0c1.4-2.3-2.1-4.2-0.6-5.6l-1.6,0.4
			c-0.1-2.2,1.7-4.1,1-6.6c2-1.5,2.1,1.9,2.9,3.1c0.5-0.6,0.6-1.8,1.2-2.2c-1.2-1.2-2.9-2.9-4.2-4C562,147.2,561.3,143.9,561.1,143z
			"/>
		<path class="st12" d="M563.5,150.3c0.3,0.3,0.6,0.6,0.9,0.8c-0.1-0.3-0.3-0.5-0.2-1C563.9,150.1,563.7,150.2,563.5,150.3z"/>
		<path class="st12" d="M561.1,143c0.1,0,0.1-0.1,0.2-0.1C561.1,142.6,561.1,142.8,561.1,143z"/>
		<path class="st12" d="M556.2,157.4c0.1-0.1,0.1-0.2,0.2-0.3c0.1-0.1,0.1-0.2,0.2-0.4L556.2,157.4z"/>
		<path class="st12" d="M562.6,161.3c-0.7,0.4-1.5,1-2.4,1.5C560.9,162.9,561.6,163,562.6,161.3z"/>
		<path class="st12" d="M550,174.3c-0.3,0.5,0.2,0.8,0.1,1.4C551.2,175.2,551.2,174.6,550,174.3z"/>
		<path class="st12" d="M563.6,147.2c-0.3-0.7-0.6-1.4-0.9-2l-0.6-0.7C562.6,145.4,563.1,146.3,563.6,147.2z"/>
		<path class="st12" d="M536.9,121.2c0.1,2.4,2.5,2.7,3.6,4.2c3.1,1.5,3.1-2.8,5.7-0.7L543,127c2.5,2.1,4.5,5.9,8.8,6.4
			c-0.3,0.5-0.5,1.3-1.4,0.9c1.2,1.7,5.4-1.9,5.8,1.5c-3.5-1.4-1.6,1.9-4.1,2.3l-0.4-0.2c1.1,1.4,3.2,3.1,3.4,4.4
			c1-0.3,2-1.9,2.7-0.3c-0.1-0.7,1.1-0.8,2.1-1.1c-1.7-1.4-1.5-2.6-3.1-3.1c0.7-1.5,0.7,0.5,1.4-1l-1.8-0.8
			c-0.2-1.1,1.7,0.4,1.1-1.2c-0.8,0.2-2.1-0.6-2.7-1.8l0.6,0.1c-1-0.6-1.2-2.1-2.7-0.5l1.1-2.2l-1.1,1c-1-2.5,1.1-5.6-2.8-7.2
			c0.3,0.9-0.9,0.9-1.4,0.8c0.2,1.8,2,0.6,3.1,1.6c-1,1.1-3.8,0.4-3.5,2.3c0.2-2.5-2.3-2.3-0.3-5.4c-1.4-1.8-3.3-1-4.4-3.1l0.4-0.4
			c-1.8,1.6-0.8-2.1-3.6-1.1l0.6,1.1c-0.6,0.8-1.1,0.5-1.8,0.2c0.3-0.3,0.3-0.3,0.4-0.8c-1.2,1.3-3.3,0.2-3.9,0.5
			c0.7,0.8,2.5,0.2,3.7,0.6C538.2,120.6,537.5,122,536.9,121.2z"/>
		<path class="st12" d="M556.6,133.1l-1.1-0.2C555.7,133,556.1,133.1,556.6,133.1z"/>
		<path class="st12" d="M529.9,114.1c-1.2-0.9,0.9-1.3-0.2-2.5c-1.8,0.7,0.8,2.9-1.2,4.2c-0.4-1.3-2.3,0.1-2.8,0
			c0.8-0.9,1.1-3.2,1-3.7c-0.7,0.5-1.7-0.9-2.7-1.1c2.1,1.8-2.1,0.6-0.2,2.5c-0.4,1.3-2.4,2.1-3.2,1c0.1-1,0.8-0.8,1.3-0.7
			c0.6-1.9-1.3-1.2-1.6-2.9c-1.2,1.3-3.5,2-5,3.1c-1.6,1.1-2.2,2.5-0.8,4.2c0.8,0.6,1-0.5,1.6-0.8c-2-0.4-0.5-2.2-0.4-3
			c1,0.5,2.4-1,2.2,0.6c-0.4,0.6-0.8,1.1-1.2,1.7c4.2,0.1,9.7,0.9,14.4,2.5c-0.6-0.3-1.3-0.6-1.9-0.9c0.7-1,1.7-0.6,2.6-0.8
			c0.1-1,0.1-2,0.1-3c0.6,0.5,1.3,0.4,0.9,1.3c1.3-0.7,1.3-1.5,1.2-2.6c2,0.4,1.7,1.5,3.9,0.7c-1.8-3.6-3.2,0.3-5.8-3
			C531.4,111.9,530.6,113,529.9,114.1z"/>
		<polygon class="st12" points="536.5,115.5 535.2,116.4 536.5,116.3 		"/>
		<path class="st12" d="M532.6,120.4c0.3-0.6,0.7-0.6,1-1.2C532.7,118.2,532.4,119.1,532.6,120.4z"/>
		<path class="st12" d="M518.3,110.7c-0.7,0.2-1.3,0.4-1.9,0.7l1.3,0.4C517.6,111.1,518.1,110.8,518.3,110.7z"/>
		<path class="st12" d="M509.4,121.1c1.4-1.3,1.8-3,4.4-2.4c0.6-2.1-1.6-3.1-1.7-4.8c-1.5,0.1-0.2,2.9-1.1,4
			c-1.2-1.2-1.5,1.2-2.7,1.5C508.9,119.9,509.3,120.5,509.4,121.1z"/>
		<path class="st12" d="M499.6,122.5c-0.7,0.9-0.3,2.6-1.4,2.9c-0.8-0.6-0.7-1.4-0.1-1.9c-2.1-0.8-0.4,1.3-2.3,1.6
			c0.3,0,0.8-0.2,1.1,0.4c-2,2.5,0.7,2.3-2.1,5.4c0.3,0.8,0.1,1.3,1.5,1.7c-2.5,1.3-2.2,0.3-4.6,2.3c0.9,0.2,3,0,4.8,0.6
			c-3.7,2.6-0.8,3.6-3.2,5.3c0-0.3-0.4-0.7,0-1.2c-2.6-0.4,0,2-0.8,3.2l-2.1-0.6c0.1,1.3,1.1,3.6-0.8,4.9l-1-0.5
			c0.7,2.1,0.5,4.2,0.4,6.1l0.1-2.1l3,3c-0.2-0.2,0.2-0.5,0.1-0.4c0-0.1-0.4-0.4-0.4-0.6c-0.1-0.3-0.9-1.9-0.9-2.2
			c0,0-0.1,0.1-0.2,0.1l-0.7,0.3c-0.5,0.2-0.9,0.4-1.4,0.6l-1.5-1.1c-3.1,2.3,3.4,0.2,1.6,3.9c-1.1-4-1.6,1.7-3.9,0.3
			c-1.1-1.5,1.9-1.1,0.6-2.8c-0.1,2.1-1,0.7-1.9,1.5c0-2-2.2,0-1.8-2.3c-1.1,1.3-2.2,2.7-3.4,4c-0.7-1.1-1.7-0.8-2.5-0.5
			c2-0.1-0.5,3,1.9,3.8c3.4-1.1,8.8-2.3,13.3-2.3c0-0.8,0.1-1.2,0.5-1.4c0.2-0.1,0.3-0.2,0.5-0.2l0.3-0.1c0.1,0,0.2-0.1,0.3-0.2
			c0,0,0.3-0.3,0.3-0.6c0-0.3-0.2-0.5-0.2-0.5c-0.1-0.1-0.3-0.2-0.5-0.2l0.6,0.8c0.1-0.6,0.2-1.2-0.8-1.6c0.9,0,1.7-0.2,2.5-0.2
			c-0.2-2.7-1.6,0.4-2.5-0.4c-0.2-1.2,1.6-1.9,2.5-1.7c0.4-1.8-0.7-0.3-2-1.5l3.2-0.7c0.1-5.8,0.3-14.4,5.3-19.3l-1.9-0.5
			c1.2-1.1,1.1-2.7,1.3-4.2c0.2-1.4,0.9-2.7,3.4-2.3l-0.4-1.8c0.3,1,2.3,1.7,2.6,3.1c0.1-1,1.2-1,1.5-2c-0.6,0.1-1.1,0.2-1.7,0.3
			c-0.2-1.9,1.4-1.9,2.5-0.9c0.8-2.9-3-1.9-4.5-2.6c-0.3,2.5-1.4,2.5-2.8,2.4c-1.4-0.1-3.1-0.2-3.7,1.7
			C497,123.4,498.9,121.7,499.6,122.5z"/>
		<path class="st12" d="M506.2,122.7c0-0.2,0-0.5,0-0.7C506.1,122.3,506.1,122.5,506.2,122.7z"/>
		<path class="st12" d="M475.7,154c-0.2,0-0.5,0-0.9,0.1C474.5,154.6,475,154.3,475.7,154z"/>
		<polygon class="st12" points="508.4,119.4 508.4,119.4 508.4,119.4 		"/>
		<polygon class="st12" points="507.3,114.7 506.4,115.2 507,115.8 		"/>
		<path class="st12" d="M466.8,151.5l-0.1,1C466.9,152.2,466.9,151.9,466.8,151.5z"/>
		<path class="st12" d="M444.6,145.4l0.4,0.3C444.9,145.4,444.7,145.4,444.6,145.4z"/>
		<path class="st12" d="M422.7,100.3c0.1-1.6,0.7-3.6,0.2-5.5l0.7,0.7c0.1-0.9,0.9-4.2-1.7-3.9l0.3,0.9c-0.3,2.7-2.3,0.2-3.9,1.5
			c-0.9,2.3,1.8,5,0.4,6.3c-0.2,0.8-1.1,0.3-1.7-0.2c-0.9,1.8,1.6,3.3,1.7,4.5c-3.7-0.6-3.5,1.2-2.8,2.9c0.7,1.8,1.9,3.6-0.3,5.1
			c0.8,1.7,0.5,4,2.3,5.8c-2.1-0.7,0.3,2-1.9,2c2.2-0.2,2.1,1.4,2.2,2.9c0.1,1.5,0.4,3.1,3,2.3c-0.4,3.2,0.3,0,0.4,3.5
			c-0.6,0.2-0.8-0.3-1-0.4c-0.5,1.7,2.9,0.9,1.2,2.9c0.9,2.6,1.5-0.3,3.5,0.4c0.8,2.6-0.2,2.3-1.2,4.9c2.3-1.3,2.2,0.8,4.1,1
			c-0.1-0.4-0.8-2.1,0.7-1.7c1.5,2.6,2.8,0.8,5.1,2.2c-1.1,3-1.9-1.9-1.9,1.4c-2.2-0.4-3-1.5-5.3-1c1.5,2.1,4,4.1,6.9,4.9
			c0.9,1.3-1.5,0.6-0.7,1.5c1.5,2.8,5.1,0.2,6.2,2.3l-1.1,1c2.1-1,4,2.8,6.9,2.8c0-0.8,0-1.4,0.5-1.7c-1.4,3.5,3.8-0.5,5.3,2.6
			c0.5-2.3,3.1-2.9,4.5-2.8c0.3,0.7,0,1.7-0.1,2.3c-2-1.9-2.9,1.9-5.1,2.4c1.9-0.7,4.3,1.2,6-0.1l-1,1.7c2.2,0.8,2.8-3.7,4.7-1.6
			l-0.4,1.3c4.7,0.6,10.3,3.3,14.2,0.2c0.3-1.1-1.6-3.7-1.6-4.6c-2.2,0.9-3.5,2.8-5.3,3.7l0.2-2.1c-0.5,1.4-2.6,2.1-1.6,3.4
			c-1.5,1-0.9-2-2.6-0.9c0.4-2.2,1.3-2.3,1.6-4.2l-1.5,0.9c0.5-0.8-0.7-0.9-0.2-1.7c-2.8,2.3-3.2-1.5-5.9-0.8l1.3,0.7
			c-0.2,1.2-1,0.9-1.7,1.1c-0.3-1.9-0.8-1.7-1.8-2.8c-1.3,0.7-2.5,2.6-4,2.1c1-2.1-2-2-1.5-4c-1.2,2.1-3-0.3-3.7,0.8
			c-0.9,0.1-1.8-0.6-1.3-1.7c0.1,0,0.4-0.1,0.7-0.1l-0.6-0.4c0.2-0.2,0.3-0.4,0.4-0.4c-0.6-0.4-1.4,1.1-1.6-0.3
			c0.3-0.5,0.7-0.3,1.2-0.3c-1.3-1.2-4.7,1.4-4.8-1.3c-0.9,0.7-2.7-0.5-3.9,1.7c0.1-1.1,1.5-2.5,0-3.2c-2.1,1-0.8-1.8-2.6-1.6
			c2.7-0.4,0.5-0.4,2.9-1c-0.1-1.3-3.3-0.4-4.2-2.2c0.3-0.5,0.7-0.9,1-1.3c-1-0.1-2.9,0.3-1.8-1.2l-1.2,0.9
			c-0.1-1.5-1.5-2.7-0.8-4.7c-1.1,0-2.2,0-3.3-0.1c1.7-3.3-1.8-4.7-4.8-5.8c-0.2-0.9,0-2.2,0.6-2.4c0.3,0.1,0.8,0.3,1.2,0.6
			c-0.3-1.2,1-3-1.5-3.1c-1-1.1,1.4-1.3,1.6-2.2c-1.9-0.9-1.6-3-1.4-4.5c0.2-1.6,0.4-2.8-2.1-3.3c-0.1,1-1,3.1-0.5,5.2
			c-0.7-0.5-1.6,0.1-1.8-0.7c-0.5-2.2,1.4-3.3,0.6-5.4l3.2,0.4c1.7-1.5,0.8-2.9,0.3-4.6C420.1,102.3,420,100.4,422.7,100.3z"/>
		<path class="st12" d="M423.3,124.1l1.1-1.8l-1.3,0.6C423.4,123.2,423.6,123.6,423.3,124.1z"/>
		<path class="st12" d="M423.1,122.9c-0.2-0.2-0.5-0.4-0.9-0.6c0.1,0.3,0.2,0.6,0.5,0.8L423.1,122.9z"/>
		<path class="st12" d="M425.2,95.5c0.3-0.2,0.9-0.4,1-1.1C425.7,94.4,425,94.9,425.2,95.5z"/>
		<polygon class="st12" points="425.5,93.6 424.7,93.8 424.9,94.1 		"/>
		<path class="st12" d="M464.3,75l2.1-2.3c0.6,0.9,3.1-0.6,2.5,1.2c1.2-2.5,4.6-0.6,3-3.8c-6.9,1.8-17.4,1.5-24.7,6.8l0.9-1.7
			c-3.4,3.8-6.8-1-8.3,5.3l-0.6-2.7c-2.3,0.1-2,5.1-5.2,3.5l0.7,0.9c-0.5,0.3-0.9-0.1-1.5,0.2l0.4,0.3c-0.8,1.7-1.6,2-3.3,2.1
			c-0.5-0.7,0.4-0.7,0.7-1.1c-1.1-0.4-1.1,1.8-2,2.4c-1.2-0.1-0.7-1-0.8-1.4c-2.2,2.9-5.4,2-4.4,6.7c0.4,0.7,1.6,0.4,1,1.5
			c2.4-0.6,2.6-2.9,3.6-5l-0.5,0.3c-1-4.1,1.5,0,2.7-2.8c0.3,1.7-0.7,2.3-0.5,3.3c3.9,1,2.4-4.2,5.9-1.7l-0.1,0.2
			c0.5,0.2,0.9-0.8,1.3-1.4c-0.4-0.4-1.1-0.3-1.6-0.4c0.4-0.6,0-2.3-0.2-3.1c1.4,1.3,0.6-1.2,2.1-0.9c1,1.3-0.3,1.8-0.4,2.7l0.8-1.6
			c1.2-0.6,1.9,1.1,2.8,1.7c0.6-1.5-0.9-0.6-0.7-2.5c2,1.3,7.3-1.1,9.8-3.3c-0.9,0.5,0.1,1.7-1.1,1.8c0.5,0.2,1.7-1,1.5-2.2
			c1.6-1.6,4.3-1.4,6.3-0.6l-0.8-1.1c1.1-2.4,4.1,0.7,6.6-0.9l-0.1,0c0.8-0.4,1.1-3.5,2.8-3.1C464.9,73.5,464,73.6,464.3,75z"/>
		<path class="st12" d="M473.6,71l-0.7,1.8c1,0.3,2-2,1.7-3.1c-0.6,0.4-1.6-0.3-1.6,0.7C473.1,70.7,473.1,71.3,473.6,71z"/>
		<path class="st12" d="M492,69.8c0.4-0.4,0.3-1.1,0.4-1.5c-3.9,0.2-8.7,1.1-10.4-0.1c-1.4-0.4-1.5,2.2-3.1,2.9l-0.9-1.7
			c-0.8,1.2-3.7-0.5-2.5,2.3c0.1,0.2,0.7-1.4,1.5-1l0,1l1.7-0.5l-0.5,1.3c2.5,1.6,1.4-3.8,4.5-2.8l0.1,2.5c2,0,2.9-0.8,4.7,0.6
			c0,0,0-1.3-0.3-0.7c-0.3-0.1-0.8-1.1-0.6-1.8c2.9-2-0.4,1.5,1.7,2.4c2.5-1.8,7.3-3.2,8.7-1.2c-1.2-1.5,0.6-3.1,2.1-2.9
			c0.6,0.9-0.5,1.5-0.7,2.2c0.7,0.3,1.2,0.9,1.9,0.6c-0.8-1.4-0.3-3.3,1.5-4C498.1,65.5,495.4,70.1,492,69.8z"/>
		<path class="st12" d="M493,67.7c-0.3,0.1-0.5,0.3-0.6,0.6l1.4-0.1L493,67.7z"/>
	</g>
	<g>
		<polygon class="st12" points="647,156.6 646.7,157.5 648.2,157.2 		"/>
		<path class="st12" d="M643.3,162.1c0.4,0.4,0.8,0.7,1.2,1c3.5-2.7,2.8-1.4,4.8-4.4c-0.9-0.2-2.8-1.1-4.4-0.4
			c0.3,0.5,2.1,0.5,2,1.4c-1.3,0.2-1.5-0.6-3.2-0.4c-0.8,1.8,1.3,0.4,1.3,1.9L643.3,162.1z"/>
		<path class="st12" d="M647.9,161.5c-0.7,0.3-1.4,0.5-2,0.8C646.7,162.1,647.8,162.2,647.9,161.5z"/>
		<path class="st12" d="M648.7,161.9c0.3,0.8-1.4,0.8-1.5,1c1-0.2,1.9-0.5,2.9-0.8C649.5,162.1,649.1,162,648.7,161.9z"/>
		<path class="st12" d="M650.4,164.7c0.1,0.1,0.3,0.1,0.4,0.1C651.1,164.4,650.8,164.6,650.4,164.7z"/>
		<path class="st12" d="M651.7,165.6c0.5-0.9-0.2-0.8-0.9-0.8l-0.1,0.2c-0.3,0.9-2.1,1.9-2.2,0.9c-0.9-0.4,0.8-1.5-0.7-1.3
			c-0.3,0.6-0.5,1.2-0.7,1.8C648.2,167.3,650.8,165.9,651.7,165.6z"/>
		<path class="st12" d="M650.4,164.7c-0.1-0.1-0.3-0.1-0.4-0.2C649.9,164.8,650.1,164.8,650.4,164.7z"/>
		<polygon class="st12" points="649.6,163.3 649,163.2 648.4,163.7 		"/>
		<path class="st12" d="M653.8,167.3c-1.9,2-1.2-1.5-2.8-0.1c0.8,0.7,0.3,2.8-0.9,3.8l1.6,0.2C652.7,170.7,653.4,168.7,653.8,167.3z
			"/>
		<path class="st12" d="M651.8,174.5c0.2-0.1,0.4-0.2,0.5-0.2C652.1,174.3,651.9,174.3,651.8,174.5z"/>
		<path class="st12" d="M660,173.3c-1.2,0.5-2.5,1-3.9,1.3c0.7-0.7,0.9-1.5,1.7-1.5c-1-0.9-2,0.6-2.9-0.2c1-2.4,1.8,0.8,2.3-1.6
			c-0.7-0.2-1.7-0.7-3.4,0.8c-0.1-0.7-0.1-1.5-0.1-2.2l-1.2,2.6c0,1,2.1-1.3,1.3,0.5c-0.5,1.1-1.1,1-1.6,1.1c1,0,1,3.2,3,3.7
			C657.3,178.5,658.5,174.2,660,173.3z"/>
		<polygon class="st12" points="659.1,176.3 658.9,177.4 659.2,175.9 		"/>
		<path class="st12" d="M663.3,173.7c-0.6,0.5-1.3,0.9-1.9,1.3c-0.1-0.3,0-0.9,0-1.4c-0.1,0.6-0.9,1.6-1,2.1c0,2.7,2.2-0.2,3-0.5
			c1.9,1.6-0.4,1.3,0,3.9c-0.7-0.2-0.5-0.8-1.4-1.2c0.8,3.2,3.3,0.9,4.2,0.3c-0.2-0.3-0.2-1.1-0.7-0.9l1-0.7
			C665.9,174.5,665.3,173.9,663.3,173.7z"/>
		<path class="st12" d="M660.7,173c0.6,0,0.7,0.2,0.7,0.6C661.5,172.9,661.5,172.3,660.7,173z"/>
		<path class="st12" d="M666.7,178.2c-0.1-0.2-0.3-0.1-0.5,0C666.3,178.4,666.4,178.4,666.7,178.2z"/>
		<path class="st12" d="M666.2,175.1c0.3,0.1,0.7,0.3,1,0.4l-0.3-1.2C666.8,174.4,666.3,174.5,666.2,175.1z"/>
		<path class="st12" d="M703.9,159.9c-1-0.3-1.7-0.2-1.9,0.7c-1.2-0.8-0.3-1.6-0.9-2.4c-1.3,0.6-1.4-0.7-2.8-1
			c-0.7,0.9,0.7,2.3-0.3,3.1c-0.3-0.3-0.8-0.6-1.3-0.7c0,1.7-0.6,4.6-2.5,4.8c-1.3,0.6-1.6,1.8-2.5,3.3c-4.3,2.6-8.9,6.2-14.7,5.9
			l-0.4,2.8c-0.5-1.3-1.4,0.2-1.4-1.6c0.3,0.3,0.6,0,1-0.1c-1.5-2.2-3.1,0.6-4.6-0.3c0.2,0.5,0.5,2.8,0,3.2c0.1-3-1.8,0.1-2.1-3.4
			c-1.3-0.9-0.2,2.7-1.7,2c-0.3,1.8,1.4,1,1.7,2.3c-0.6,1.4-1.5-0.7-1.5,1.2c2.8,1.2,7.8-2.7,11.1-4.5l0,1.7
			c1.8-1.6,4.6-2.5,7.2-0.7c-1-1.2,3.2-0.5,1.3-3.6c0.8,0.5,0.9,0.3,1.7,0.2l-0.4-1.1c0.9-0.5,1.7,1.1,2.6,0.3c-1.5-0.8-1-1.7-1.5-3
			c2,0.7,4.2,0.9,6.1,1.1c-0.4-0.3-0.8-0.6-1.6-0.9c1-0.1-0.1-1.2-0.3-1.7c0.5-0.6,1.8,0.9,2.5,1.7c1.6-0.6-0.8-3.8,0.9-3.7
			l-1.4-0.8c0.6-1.3,2.8-1.2,3.2-2.9c2.2,0.5,0.8,2.2,1.1,3.3c0.6,0,1.2-0.5,1.9-0.4l-1.5-4.5C702.4,162.5,703.4,160.4,703.9,159.9z
			"/>
		<path class="st12" d="M702.2,164.9c0.1,0.4,0.3,0.7,0.4,0.9c0-0.2,0-0.4,0.2-0.6C702.6,165.1,702.4,165,702.2,164.9z"/>
		<path class="st12" d="M703.9,159.9l0.2,0.1C704,159.8,704,159.8,703.9,159.9z"/>
		<path class="st12" d="M693.9,164.5c0.1,0,0.1,0,0.2-0.1c0.1,0,0.1-0.1,0.2-0.1L693.9,164.5z"/>
		<path class="st12" d="M698.1,170.5c-0.6-0.1-1.4-0.2-2.2-0.3C696.5,170.6,697,170.9,698.1,170.5z"/>
		<path class="st12" d="M688.1,175.3c-0.2,0.4,0.2,0.7,0.2,1.3C689,176.4,689,175.8,688.1,175.3z"/>
		<path class="st12" d="M703.7,163.5c0.1-0.5,0.2-1,0.3-1.5l-0.1-0.7C703.8,162,703.7,162.8,703.7,163.5z"/>
		<path class="st12" d="M700.3,138.1c-1.6,1.4-0.2,2.4-0.5,3.5c1.1,2,4.2,0,4.5,2.2l-3.9-0.4c0.3,2.1-0.9,4.6,2,7.1
			c-0.5,0-1.1,0.3-1.6-0.4c-0.2,1.4,5.2,2.1,3.4,3.8c-1.8-2.5-2.4-0.1-4.5-1.4l-0.2-0.3c-0.1,1.2,0.6,3.1,0.1,3.8
			c0.9,0.4,2.6,0.3,2.3,1.4c0.4-0.3,1.3,0.3,2.2,0.7c-0.5-1.6,0.3-1.9-0.7-3.1c1.5-0.2,0.2,0.6,1.7,0.4l-0.8-1.3
			c0.5-0.6,1,1.1,1.6,0.1c-0.7-0.4-1.2-1.5-0.8-2.3l0.4,0.4c-0.3-0.8,0.5-1.6-1.7-1.8l2.3-0.3l-1.5-0.2c0.9-1.6,4.6-1.9,3-4.7
			c-0.5,0.6-1.2,0-1.5-0.4c-1.1,1,1,1.3,1.1,2.4c-1.5-0.1-3.1-1.8-4.1-0.8c1.9-1-0.1-2.2,3.6-2.7c0.2-1.7-1.6-2.1-0.9-3.8l0.5,0
			c-2.4,0.1,0.9-1.6-1.8-2.2l-0.4,0.9c-1,0.1-1.1-0.2-1.4-0.7c0.4,0,0.4,0,0.8-0.3c-1.8,0.2-2.5-1.2-3-1.2c-0.1,0.7,1.5,1,2.2,1.7
			C701.6,138.3,700.2,138.7,700.3,138.1z"/>
		<path class="st12" d="M706.1,153.1l-0.7-0.7C705.5,152.6,705.7,152.9,706.1,153.1z"/>
		<path class="st12" d="M700.5,131.1c-0.2-1,1.4-0.6,1.5-1.8c-1.6-0.1-1.4,2.4-3.5,2.6c0.6-1.1-1.5-0.7-1.7-0.9c1-0.4,2.7-2,3-2.4
			c-0.7,0.1-0.4-1.3-0.9-1.8c0,2.2-1.5-0.3-1.7,1.8c-1.1,0.8-2.7,0.7-2.4-0.4c0.7-0.7,0.9-0.3,1.2,0c1.5-1.2,0-1.4,1-2.8
			c-2.8,0.9-6.3-1.4-7.5,2.8c-0.1,0.9,0.7,0.2,1.2,0.3c-0.6-1.4,1.2-1.9,1.7-2.4c0.1,0.9,1.7,0.4,0.6,1.5l-1.6,0.8
			c1.8,2.2,4.4,4.5,6.4,6.9c-0.2-0.4-0.4-0.8-0.6-1.2c1-0.5,1.5,0.1,2.2,0.3c0.7-0.6,1.4-1.3,2.1-2c0.1,0.5,0.6,0.7-0.3,1.2
			c1.3,0,1.8-0.5,2.5-1.3c1.1,1,0.1,1.6,2.2,2c1.1-3.2-2.4-1.1-2-4.3C702.8,130.1,701.6,130.5,700.5,131.1z"/>
		<polygon class="st12" points="704,134.5 702.5,134.6 703.4,135 		"/>
		<path class="st12" d="M698,136.2c0.6-0.3,0.9-0.2,1.5-0.4C699.5,134.9,698.8,135.3,698,136.2z"/>
		<path class="st12" d="M696.1,124.2c-0.4-0.1-0.9-0.2-1.3-0.4l0.3,0.9C695.5,124.3,695.9,124.2,696.1,124.2z"/>
		<path class="st12" d="M685.7,126.6c1.3,0.3,2.5-0.7,3.2,1.4c1.6-1.2,1.4-3.2,2.5-4.4c-0.6-0.8-2,2-3,2.1c0.4-1.6-1.3-0.2-1.9-0.9
			C686.4,125.5,686.1,126.1,685.7,126.6z"/>
		<path class="st12" d="M682.5,119.3c-0.7-0.2-1.7,0.9-2.1,0c0.3-1,0.8-1.2,1.2-0.9c0.1-2.3-0.9,0.2-1.5-1.4c0,0.3,0.3,0.7,0,1.1
			c-2-0.8-1.4,1.6-3.8,0.1c-0.4,0.6-0.8,0.5-0.8,2c-1.3-1.9-0.6-1.9-2.4-3.6c0.1,0.9,0.6,2.9,0.6,4.7c-2.4-2.6-2.4,0.4-4-1.5
			c0.2-0.1,0.3-0.6,0.8-0.4c-0.4-2.6-1.3,0.6-2.2,0.2l-0.2-2.2c-0.8,0.5-2,2.1-3.3,0.7l0-1.1c-1.8,2.1-4.4,2-5.9,3.4l-1.4-0.9
			c-1.7,2.5,2.6-0.2,2.1,3.6c-1.8-3.7-0.6,1.7-2.4,0.7c-1.3-1.2,0.9-1.3-0.5-2.7c0.6,2-0.4,0.9-0.8,1.8c-0.8-1.9-1.5,0.5-2.2-1.7
			c-0.2,1.5-0.4,3.1-0.4,4.5c-1-0.7-1.5-0.1-1.8,0.5c1.1-0.8,1.5,2.5,3.2,2.4c1-1.9,4-4.2,6.8-4c-0.6-2.7,1.6-0.5,1.4-2.7
			c0.3,0.8,0.7,1.5,1,2.3c1.5-1-0.7-1.4-0.6-2.4c0.7-0.6,1.6,0.9,1.8,1.9c1.2-0.1,0-0.8,0.3-2.3l1.3,2.8c3.3-1.6,8.7-3.7,12.8-1.3
			l0-1.9c1.7,1.3,4.4-3.4,5.1,1l1.1-1.3c-0.6,0.8-0.5,2.8-1.4,3.8c0.7-0.5,1,0.4,1.7,0.1l-0.6-1.2c1.2-1.3,1.6-0.1,1.3,1.3
			c2.1-1.2,0.4-3.4,0.5-5c-3.2,2.6-1.2-4-4-3.2C681.5,117.4,682.9,118.4,682.5,119.3z"/>
		<path class="st12" d="M683.7,125c0.2-0.1,0.3-0.2,0.4-0.4C684,124.7,683.9,124.8,683.7,125z"/>
		<path class="st12" d="M651.4,126.3c-0.1,0.1-0.3,0.2-0.4,0.5C651.1,127.3,651.2,126.8,651.4,126.3z"/>
		<polygon class="st12" points="686.5,124.8 686.5,124.8 686.5,124.8 		"/>
		<polygon class="st12" points="689.3,121 688.7,120.7 688.5,121.5 		"/>
		<path class="st12" d="M645.1,129.4l0.8,0.6C645.7,129.7,645.4,129.5,645.1,129.4z"/>
		<path class="st12" d="M639.7,146.9l0-0.2C639.6,146.8,639.6,146.9,639.7,146.9z"/>
		<path class="st12" d="M618,152.6c-1.1,0.5-2.6,0.9-3.6,2.4l0.2-1c-0.6,0.4-2.6,1.8-1.7,3.6l0.4-0.8c1.5-1.3,0.8,1.7,1.7,2.5
			c1.3-0.3,2.5-3.9,3.5-2.9c0.5-0.1,0.3,0.9,0.1,1.6c1.1,0.4,1.8-2.4,2.7-2.7c-0.5,7.4,3.6-1.7,4.8,3.2c1.1-0.5,2.5,0.3,3.9-1.1
			c-0.9,1.8,1.3,0.3,0.8,2.3c0.6-4.3,3.9,2.2,4.4-3.2c2.1,1.7-0.1-0.3,2.5,1.1c0.2,0.6-0.3,0.6-0.4,0.7c1.4,1.2,0.7-2.3,2.4,0.3
			c2.2,0.5-0.3-1.5-0.1-2.9c2,0.8,2,1.5,4.9,3.8c-1.9-2.6,0.3-1.3-0.1-2.7c-0.4-0.1-2-0.7-2.2-1.7c1,0.2,1-0.2,0.6-0.8l-0.6-0.9
			c-0.3-0.4-0.8-0.9-1.1-1.3l-0.1-0.1c1.2,0.8,1.6,1.1,1.7,1.4c0.2,0.4-0.3,0.4,1.2,1c0.5,0.5,0.9,1.1,1.2,1.4l0,0.6
			c0,0.4,0.1,0.9,0.8,1.9c0.6,0.1,1.1,0.1,1.6,0c0.7,0.1,0.5-0.5,0.2-1.1c-0.7-1.2-1.6-2.5-2.5-3.7c0.2-0.7,2,1.6,2.1,1
			c0.5-0.6-0.7-2-1.7-3c-1.1-1.1-1.9-1.8-1.4-2.3l1.7,0.7c-1.2-0.8-1.2-1.5-1.1-2.4c0.1-1,0.4-2-0.2-2.7c-0.7,0.2-1.2,0.4-1.7,0.2
			c1.9,0,1.3-0.5,0.8-1.3c-0.6-0.8-1.3-1.9,0.1-2.6c-2.4-0.1-3.4-2.1-3.3-3.3c0.7-0.2,1.6,0.1,2.3,0.3c-1.8,1.4,2.1,2.2,3,3.5
			c-1.1-1.2,0.5-2.5-0.9-3.8l1.7,0.9c0.7-1.1-3.6-2.6-1.3-3.4l1.2,0.7c0.5-1.4,1.8-2.5,2.9-3.6c1-1.1,1.9-2.1,1.8-4.1
			c-0.6-1-3.3-2-4-2.6c-0.6,1.9,0.3,4,0.4,5.5l-1.7-1.3c0.9,1.1,0.9,2.7,2.3,2.7c0.5,1.3-2-0.5-1.5,1.1c-1.9-1.2-1.8-1.9-3.3-2.9
			c0.1,0.5,0.3,1,0.4,1.5c-0.6-0.7-1,0.2-1.6-0.5c1.5,3-2.2,2.2-1.8,4.7c0.2-0.3,0.5-0.7,0.7-1c1.2,0.4,0.8,1,1,1.5
			c-1.8,0-1.7,0.4-2.7,1.3c0.8,1.2,2.9,2,2.7,3.1c-2.3-0.5-1.5,1.8-3.4,2c2.3,0.3,0.8,2.4,2.2,2.5c0.5,0.6,0.3,1.1-0.9,1.1
			c-0.1-0.1-0.3-0.2-0.4-0.3l-0.1,0.4c-0.3,0-0.5,0-0.5-0.1c0,0.3,1.7,0.5,0.6,0.7c-0.6-0.1-0.7-0.2-0.9-0.4
			c-0.2,0.4,0.8,0.6,1.5,1.2c0.7,0.5,1.3,1.1,0.2,0.9c1.2,0.6,1.6,1.7,4.3,3c-0.9-0.1-3.1-1.5-2.5-0.5c2.5,2.1-0.4,0.3,1,1.8
			l0.1,0.2l-0.2-0.2c-2.6-2.5-0.6-0.5-3.3-2.8c-0.3-0.1-0.1,0.1,0.3,0.6c0.4,0.4,1.1,1.1,1.4,1.5c0.2,0.3,0.1,0.5-0.3,0.4l-1.9-1.7
			c0.6,0.8,1.8,2.5-0.1,0.7l1.4,1.5c-1.3-0.8-1.8-0.3-3.3-2c0.3,1,0.6,1.9,0.7,2.9c-1.3-1.6-1.7-1.7-2.2-1.1
			c-0.5,0.6-1.1,1.9-1.9,3.1c-0.6-0.2-1.3-0.7-1.3-1.4c0.1-0.2,0.4-0.6,0.7-1c-0.8-0.2-1.7-1.8-2.3,0.5c-0.9,0.6-0.5-1.7-1.1-2.1
			c-2,3.2-4.7-2.9-5.8,2.1c0.7,0.1,1.9,1.2,3.3,1.1c-0.4,0.6-0.2,1.6-0.7,1.7c-1.4,0.1-1.9-1.8-3.3-1.1l0.5-3.2
			C622.1,150,619.2,157.4,618,152.6z"/>
		<path class="st12" d="M634.8,154.3c-0.2-0.6-0.4-1.1-0.8-1.7l0,1.4C634.4,153.8,634.6,153.8,634.8,154.3z"/>
		<path class="st12" d="M634.1,154c-0.2,0.1-0.4,0.4-0.6,0.6c0.2,0.1,0.4,0,0.6-0.3V154z"/>
		<path class="st12" d="M614.1,152.7c-0.2-0.2-0.6-0.5-1-0.2C613.3,153,613.8,153.2,614.1,152.7z"/>
		<polygon class="st12" points="612.8,153.5 613.3,154.1 613.4,153.7 		"/>
		<path class="st12" d="M584.3,153.1l-1.7,1.8c-0.2-1-2,0-1.3-1.6c-1.1,2.3-2.9-0.2-2.4,3.2c4.6-0.8,10.6,1.8,16.1-0.6l-1,1.2
			c3-2.3,3.4,3.3,6.2-1.7l-0.6,2.7c1.1,0.9,2.9-3.6,3.8-0.6l0-1.1c0.3,0.1,0.4,0.6,0.8,0.6l-0.1-0.5c1-1,1.6-0.8,2.4,0.1
			c0,0.9-0.5,0.3-0.8,0.5c0.3,0.9,1.2-0.8,1.9-0.7c0.5,0.8-0.2,1.2-0.3,1.6c2.2-0.9,2.9,2,4.8-1.8c0.2-0.7-0.4-1.4,0.4-1.7
			c-1.2-1.4-2.6,0-3.9,1l0.4,0c-1.5,3.8-0.7-1-2.5,0.5c0.6-1.5,1.3-1.4,1.7-2.3c-1.5-3.2-2.9,2-3.7-2l0.2-0.1
			c-0.2-0.4-0.8,0.3-1.3,0.6c0.1,0.5,0.5,0.8,0.7,1.2c-0.5,0.3-0.9,2-1.1,2.7c-0.3-1.8-0.7,0.8-1.4-0.2c-0.1-1.6,0.8-1.4,1.2-2.2
			l-1,1c-0.8,0-0.6-1.9-0.9-2.8c-0.9,1.1,0.3,0.9-0.5,2.6c-0.6-2.1-4.6-2-6.5-0.6c0.6-0.2,0.4-1.7,1.1-1.3c-0.2-0.4-1.3,0.3-1.5,1.6
			c-1.4,1-2.9,0-4-1.2l0.2,1.3c-1.2,2-2.3-1.8-4.2-0.7l0,0c-0.6,0.2-1.3,3.2-2.3,2.5C583.7,154.4,584.3,154.6,584.3,153.1z"/>
		<path class="st12" d="M578,155.4l0.7-1.7c-0.6-0.4-1.5,1.7-1.5,2.8c0.4-0.3,0.9,0.5,1.1-0.5C578.2,155.9,578.3,155.2,578,155.4z"
			/>
		<path class="st12" d="M566.4,155.1c-0.2,0.4-0.2,1-0.3,1.5c2.4-0.1,5.5-0.7,6.4,0.7c0.8,0.6,1.1-2,2.2-2.6l0.4,1.8
			c0.6-1.1,2.2,0.9,1.8-2c-0.1-0.3-0.6,1.3-1,0.8l0.1-1l-1.1,0.3l0.4-1.2c-1.4-1.9-1.3,3.6-3.1,2.4l0.1-2.5
			c-1.2-0.2-1.9,0.6-2.9-0.9c0,0-0.1,1.2,0.2,0.8c0.2,0.1,0.4,1.1,0.3,1.9c-1.9,1.9,0.4-1.5-0.9-2.5c-1.7,1.6-4.7,3-5.6,1
			c0.7,1.5-0.4,3.1-1.3,2.9c-0.4-0.9,0.3-1.5,0.4-2.2c-0.4-0.3-0.7-0.9-1.2-0.5c0.5,1.4,0.2,3.2-0.8,4.1
			C562.6,159.3,564.3,154.8,566.4,155.1z"/>
		<path class="st12" d="M565.7,157.2c0.2-0.1,0.3-0.3,0.4-0.5l-0.8,0L565.7,157.2z"/>
	</g>
	<g>
		<path class="st12" d="M512.6,67c-0.4,0.2-0.9,0.3-1.3,0.5l0.7,1.4C512.2,68.2,512.5,67.6,512.6,67z"/>
		<path class="st12" d="M503.6,69.3c-0.3,1.3,0,3.2,0.7,4.3c0.7,1.1,1.5,1.7,2.1,2c0.5-2.5,1.4-2.8,1.7-3.4c0.3-0.4,0.5-1.8,2.2-1.2
			c-0.4-0.8,0.9-3.8-0.5-4.9c-0.5,0.7-0.4,2.7-1.6,3.3c-0.7-1.3,0.6-2.3,0-3.9c-1.2,0.2-1.4,0.7-1.5,1.3c0,0.3-0.1,0.6-0.2,1
			c-0.1,0.5-0.5,0.8-1.1,2.2C504.8,69.9,504.2,69.6,503.6,69.3z"/>
		<path class="st12" d="M509.1,72.9c-0.6,0.5-1.3,0.9-1.6,1.5C508.2,74.1,509.6,73.8,509.1,72.9z"/>
		<path class="st12" d="M509.9,72.6c0.1-1.3,1.6-0.1,1.8-0.3l-3-1.3L509.9,72.6z"/>
		<path class="st12" d="M509.8,67.1c-0.1-0.2-0.2-0.4-0.3-0.6C509,66.7,509.4,66.9,509.8,67.1z"/>
		<path class="st12" d="M509.4,64.4c-1,0.5-0.4,1.2,0.1,2.1l0.2-0.1c0.8-0.8,2.9-0.1,2.4,1.1c0.5,1.2-1.5,1.2-0.1,2.2l1.6-1.6
			C513.1,66.2,510.2,65.2,509.4,64.4z"/>
		<path class="st12" d="M509.8,67.1c0.1,0.2,0.1,0.5,0.2,0.7C510.2,67.5,510,67.3,509.8,67.1z"/>
		<polygon class="st12" points="509.6,69.8 510.1,70.5 510.9,70.3 		"/>
		<path class="st12" d="M509.3,59.9c2.7,0.4-0.4,3.2,1.7,3.6c-0.1-1.8,2-3.1,3.5-2.6l-0.8-1.9C512.7,58.3,510.6,58.9,509.3,59.9z"/>
		<path class="st12" d="M516.5,56.7c-0.2-0.1-0.4-0.3-0.4-0.5C516.2,56.5,516.3,56.6,516.5,56.7z"/>
		<path class="st12" d="M513.4,46.8c0.5,1.7,1.2,3.3,1.8,4.8c-0.8-0.5-1.7-0.5-1.8-1.6c-0.7,1.9,1,2.4,0.5,3.9
			c-2.6,0.1,0.2-2.8-2.2-2.3c-0.1,1.1-0.2,2.9,1.8,4l-1.9,1.6l2.9-0.4c0.9-0.6-2.1-1.7-0.1-1.9c1.2-0.1,1.4,0.7,1.6,1.2
			c-0.5-1.2,2.5-2.7,2.5-4.9C518.7,49.1,514.3,48.7,513.4,46.8z"/>
		<polygon class="st12" points="516.4,47.3 517.5,47.4 516.1,47.2 		"/>
		<path class="st12" d="M514.2,41.8c0.3,0.9,0.6,1.8,1,2.7c-0.3,0.2-0.9,0.1-1.4,0.1c0.7,0.1,1.5,1,2.1,1c2.7-0.3,0-2.8,0-4.1
			c2.2-2.6,1.2,0.6,3.9,0.3c-0.3,0.8-1,0.6-1.5,1.6c3.3-0.8,1.7-3.7,1.5-5.2c-0.4,0.2-1.1,0-1.2,0.7l-0.2-1.5
			C516,37.8,514.9,38.7,514.2,41.8z"/>
		<path class="st12" d="M513,45.8c0-0.9,0.3-1.2,0.7-1.1C513,44.7,512.4,44.8,513,45.8z"/>
		<path class="st12" d="M520,37.7c-0.2,0.1-0.2,0.3-0.2,0.6C520,38.2,520.1,38.1,520,37.7z"/>
		<path class="st12" d="M516.8,37.6l0.9-1.3l-1.4,0C516.3,36.5,516.2,37.3,516.8,37.6z"/>
		<path class="st12" d="M567.2,9.3c-0.3-1-1-1.4-2.2-1c-0.1-1.4,1.5-1.4,2.2-2.3c-1.8-0.6-0.2-1.6-0.9-2.8c-1.9,0.2-2.4,2.1-4.5,2.1
			c0-0.4-0.1-1-0.5-1.4c-2.3,1.3-5.9,3.6-8.5,3.1c-2.3,0.2-3.8,1.3-5.9,2.8c-8,2.3-14.8,7.7-21.8,13l1.1,2.7
			c-1.3-0.6-1.3,1.5-2.5,0.2c0.6-0.1,0.6-0.7,1-1.1c-3.1-0.2-3.1,3.9-5,5.2c0.5,0.1,2.7,1.1,2.6,1.9c-2.4-1.8-1.3,2.1-4.6,0.9
			c-1.8,1.5,2.2,1.4,0.7,3.1c1.4,1,1.8-1.5,3.1-1.1c0.9,1.3-1.5,1.4,0.2,2.2c1.2-1.3,1.7-3.6,2.6-6.3c0.9-2.7,2-5.7,3.8-8l0.7,1.6
			c1.2-2.8,5-5.7,8.3-4.5c-1.3-1.1,3.9-1.3,1.8-4.2c1,0.4,1.2,0.2,2.2,0l-0.3-1.1c1.3-0.6,1.9,1.1,3.3,0.3c-1.6-1-0.7-1.9-0.8-3.2
			c2.5,0.8,5.1,1.4,7.2,2.1c-0.3-0.4-0.6-0.9-1.4-1.3c1.3,0.1,0.6-1.2,0.7-1.8c1.1-0.4,1.6,1.5,1.8,2.5c2.1,0,1.9-3.9,3.8-3.1
			l-1-1.4c2-1,4.2,0.3,6.4-0.7c1.6,1.9-1.5,2.2-2.2,3.4c0.6,0.3,1.6,0.2,2,0.9c0.7-1.3,2.1-3.1,3.1-4.4
			C563.5,9.9,566.4,9.2,567.2,9.3z"/>
		<path class="st12" d="M561.1,11.6c-0.2,0.4-0.4,0.7-0.4,1c0.2-0.2,0.4-0.4,0.7-0.3C561.3,12,561.2,11.8,561.1,11.6z"/>
		<path class="st12" d="M567.2,9.3c0,0.1,0.1,0.1,0.1,0.2C567.5,9.3,567.4,9.3,567.2,9.3z"/>
		<polygon class="st12" points="552.6,7 552.9,7 553.3,7 		"/>
		<path class="st12" d="M553.1,14.4c-0.6-0.4-1.3-0.7-2.2-1C551.3,13.9,551.6,14.4,553.1,14.4z"/>
		<path class="st12" d="M539.8,18.2c-0.2,0.4,0.2,0.7,0.2,1.3C540.8,19.1,540.8,18.5,539.8,18.2z"/>
		<polygon class="st12" points="563.6,11.5 565.3,10.7 565.8,10.1 		"/>
		<path class="st12" d="M599.9,2c-1.3-2.2-3.9-1.4-6-2c-3.9,0.6-0.9,4-4.3,4l0.8-3.9c-3.6-0.1-8.8-0.5-11.5,3.1
			c-0.3-0.5-1-1-0.1-1.6c-2.3,0.4-0.7,5.6-3.9,4.6c2.6-2.7-1.2-2.2-0.7-4.7l0.4-0.3c-2,0.5-4.4,2.1-5.7,2.1c0.1,1,1.4,2.4-0.3,2.7
			c0.7,0.1,0.6,1.3,0.7,2.3c1.6-1.4,2.6-0.8,3.5-2.2c1.1,1.2-0.6,0.5,0.5,1.7l1.3-1.4c1.1,0.2-0.9,1.4,0.7,1.5
			c0.1-0.8,1.3-1.7,2.6-1.7l-0.3,0.5c0.9-0.6,2.4-0.1,1.7-2.2l1.3,2.1l-0.3-1.5c1.4,0.2,2.4,1.2,3.4,1.8c1.1,0.7,2,1,3.6,0.1
			c-0.8-0.5-0.1-1.2,0.4-1.5c-1.4-1.1-1.7,1.1-2.9,1.3c-0.3-1.5,1.9-3.3,0.3-4.1c1.8,1.7,3.5-0.2,4,3.5c2,0.4,3-1.4,5.1-0.2
			l-0.1,0.5c0.7-2.4,1.6,1.3,3.6-0.9l-1.1-0.7c0.2-1,0.8-0.9,1.6-1c-0.2,0.4-0.2,0.4,0,0.9c0.5-1.7,3.1-1.5,3.6-1.9
			c-1-0.5-2.6,0.6-3.9,0.9C598.8,3,598.9,1.5,599.9,2z"/>
		<path class="st12" d="M577.1,7.7l0.6-0.9C577.4,7,577.2,7.2,577.1,7.7z"/>
		<path class="st12" d="M609.1,7.4c1.2,0.8-0.8,1.3,0.3,2.5c1.7-0.8-0.9-2.9,1-4.2c0.5,1.3,2.4-0.1,3,0.1c-0.9,0.8-1.3,3.1-1.2,3.7
			c0.7-0.5,1.5,1,2.4,1.4c-1.7-2.1,2.1-0.2,0.7-2.4c0.6-1.3,3-1.5,3.5-0.2c-0.4,0.9-1,0.5-1.6,0.3c-1.1,1.6,1,1.5,0.7,3.2
			c3-1.8,9.5,1.1,9.2-3.5c-0.4-1.1-1.4-0.4-2.2-0.5c1.8,1.7-0.8,2.1-1.3,2.7c-0.7-1-2.7-0.4-1.8-1.6l2-0.9c-4.4-2.6-11.2-4.7-17-5.5
			l2.4,0.7c-0.6,1-1.8,0.8-2.8,1.1l0.5,3c-0.6-0.4-1.4-0.1-1.1-1.1c-1.1,0.9-0.9,1.7-0.7,2.8c-1.8,0-1.9-1.1-3.6,0.4
			c2.3,2.9,2.9-1.3,5.6,1.5L609.1,7.4z"/>
		<polygon class="st12" points="602.3,7.3 603.3,6.1 602.1,6.5 		"/>
		<path class="st12" d="M604.8,1.6c-0.1,0.6-0.6,0.8-0.7,1.4C605.4,3.7,605.5,2.8,604.8,1.6z"/>
		<path class="st12" d="M619.5,12.5l1.9,0.2l-0.9-0.9C620.3,12.4,619.8,12.5,619.5,12.5z"/>
		<path class="st12" d="M634.4,11c-2.5-0.9-4.1-0.1-6.2-2.6c-2.1,1.1-0.7,3.4-2,4.7c1.2,0.9,2.2-2,3.9-1.9c-0.1,1.7,2.2,0.6,3.3,1.6
			C633.5,12.1,633.8,11.4,634.4,11z"/>
		<path class="st12" d="M639.6,20.5c1,0.6,2.6,0.1,3.1,1.2c-0.6,0.8-1.4,0.8-1.9,0.2c-0.7,2.2,1.3,0.3,1.6,2.2
			c0-0.3-0.2-0.8,0.4-1.1c2.4,2,2.5-0.7,5.2,2.5c0.8-0.2,1.3,0.1,2-1.2c0.9,2.9-0.1,2.2,1.3,5.1c0.4-0.8,0.8-2.9,1.9-4.5
			c1.8,4.4,3.6,2.1,4.4,5.2c-0.3-0.1-0.8,0.1-1.2-0.5c-1.3,2.3,2,0.9,2.8,2.2l-1.5,1.7c1.2,0.5,3.9,0.8,4,3.1l-1,0.6
			c3.6,0.8,5.7,4,8.2,5.4l0,2c3.8,1.7-1.9-3.3,2.4-3.5c-2.8,3.1,2.4,0.6,2.5,3.4c-0.6,1.8-2.1-1.2-2.8,0.9c1.9-1,1.2,0.5,2.4,1
			c-1.7,1,1.2,2.1-1,2.8c1.8,0.3,3.5,0.7,5.3,1.2c-0.6,1.2,0.2,2,0.8,2.7c-1.1-1.9,2.9-0.9,2.4-3.6c-2.8-2.9-7.1-7.3-9.7-11.3
			c-2.3,1.5-2.1-2.2-4.2-1.1c0.5-0.7,0.8-1.5,1.3-2.2c-2.6-1.6-0.5,1.6-1.7,1.8c-1.2-0.6-0.9-2.5-0.1-3.2c-1.5-1.6-0.7,0.4-2.5,0.8
			l0.9-3.2c-5.8-3.8-14.1-7.1-19.8-12.4l-0.4,1.9c-2.5-2.6-6.9,0.8-7.7-4.1l-1.6,1c0.9-0.6,0.7-2.8,2.1-3.5
			c-1.1,0.1-1.7-0.9-2.8-0.8l1.1,1.6c-1.8,0.9-2.5-0.6-2.3-2c-3.1,0.6,0,3.6-0.2,5.2c4.7-1.5,1.6,4.6,5.2,4.9
			C640.7,22.9,639,21.3,639.6,20.5z"/>
		<path class="st12" d="M638.1,13.8c-0.3,0-0.5,0.1-0.7,0.2C637.6,14,637.8,14,638.1,13.8z"/>
		<path class="st12" d="M678.5,53.2c0.1,0.2,0.3,0.5,0.6,0.8C679.6,54,679.1,53.7,678.5,53.2z"/>
		<path class="st12" d="M633.4,12.7C633.4,12.7,633.4,12.7,633.4,12.7L633.4,12.7L633.4,12.7z"/>
		<polygon class="st12" points="629.9,16.2 630.7,16.6 630.9,15.8 		"/>
		<path class="st12" d="M680,62.8l1-0.3C680.6,62.5,680.3,62.6,680,62.8z"/>
		<path class="st12" d="M697.8,80l-0.6-0.1C697.4,80.1,697.6,80.1,697.8,80z"/>
		<path class="st12" d="M750.9,103.2c1.2,1.3,2.6,3.2,4.6,4l-1,0.2c0.8,0.7,3.2,3.3,4.3,0.8l-1-0.2c-2.1-1.8,1-2.1,1-4.2
			c-1.3-2-5.2-1.7-5.2-3.8c-0.5-0.7,0.5-1,1.2-1.1c-0.7-1.9-3.6-1.2-4.5-2.2c3.1-2.1,1.8-3.2,0.1-4.3c-1.8-1-3.9-1.9-3-4.5
			c-1.7-1-3-3.3-5.7-3.8c2.2-0.6-1.6-1.6,0.2-2.8c-1.7,1.4-2.5,0.1-3.9-1.3c-1.3-1.7-3.7-2-4.3,0.6c-2.7-2.1-0.2,0.3-3.4-1.7
			c0.1-0.6,0.7-0.5,1-0.5c-1.2-1.4-2.6,1.9-3.2-0.8c-2.7-0.9-0.7,1.4-2.7,2.5c-2.8-1.2-1.8-1.7-3.1-4.2c-0.7,2.5-2.2,1-3.9,2.1
			c0.3,0.2,2.2,1,0.8,1.8c-3.3-0.9-2.9,1.3-6.2,1.5c-1.2-3.1,3.1,0.4,0.7-2.3c2.2-1,3.7-0.7,5.1-2.6c-2.7-0.6-6.1-0.6-9.2,0.2
			c-1.6-0.6,1-1.2-0.3-1.7c-2.8-1.6-4.8,2.4-7,0.9l0.6-1.4c-1.6,1.8-5.2-0.9-8,0c0.3,0.8,0.5,1.3,0.1,1.8c0.1-1.9-0.8-1.4-2.2-0.9
			c-1.3,0.5-3.6,1.2-4.3-0.1c-0.9,2.3-5.3,3.6-8.1,3.8c0-0.8,1.4-1.9,2-2.4c-0.2,0.5,0.3,0.4,0.5,0.5c0.3,0,0.6,0,1-0.1
			c0.7-0.2,1.4-0.6,2.1-1.1c1.4-0.9,2.7-2.1,3.9-2.7c-0.8,0.4-1.6,0.5-2.4,0.6l-1.2,0c-0.4,0-0.9,0.2-0.8-0.2
			c-0.1-0.3-0.3-0.5-0.6-0.6c0.6-0.3,1.2-0.6,1.8-1c0.5-1.9-4,0.8-2.2-2.9l1.4-0.2c-0.1-4.6,0-12.2-4.8-14.6
			c-1.1,0.2-2.6,3.1-3.4,3.6c1.8,1.6,4.1,2.2,5.5,3.8l-2.1,0.5c1.5,0,2.9,2,3.7,0.5c1.4,1.3-1.6,1.5-0.1,3.1
			c-2.2,0.1-2.6-0.8-4.5-0.5c0.4,0.4,0.9,0.8,1.3,1.2c-0.9-0.3-0.7,0.9-1.6,0.6c0.2,0.1,0.3,0.3,0.5,0.4c0.1,0.2,0.3,0.5,0.4,0.7
			c0.2,0.4,0.2,0.8,0.3,1.2c0,0.8-0.1,1.6-0.4,2.4c-0.6,1.7-1.5,4-1.1,5.9l0.7-2.9c1.3-0.9,1.1,0.6,1.4,1.2
			c-0.8,1.1-1.3,1.8-1.7,2.5c-0.2,0.8,0.7,0.7,1.6,1.2c3-1,5.3-3.1,7.4-3.1c-1.5,2.3,3.3,1.4,3.7,3.4c0.7-2.3,3.5-0.6,3.8-2
			c1-0.4,2.2-0.1,2.1,1.2c-0.1,0.1-0.4,0.3-0.7,0.3l0.9,0.2c-0.1,0.3-0.1,0.5-0.2,0.5c0.8,0.1,1-1.6,1.9-0.3
			c-0.1,0.6-0.6,0.6-1.1,0.8c2.1,0.6,4.2-3.2,5.8-0.9c0.5-1.1,3.1-0.9,2.8-3.4c0.6,1,0.1,2.9,2,2.8c1.3-1.9,2,1,3.6-0.1
			c-2.2,1.9-0.1,0.6-2,2.5c1.1,1,3.4-1.5,5.5-0.8c0.1,0.5,0,1.1,0.2,1.7c0.9-0.6,2.1-2.2,2.6-0.3L720,81c1.4,1,3.5,0.9,4.8,2.8
			l2.4-2.4c2,3.4,5.7,1.5,8.4-0.6c0.8,0.7,1.7,1.9,1.3,2.4c-0.3,0.1-0.8,0.2-1.3,0.3c0.9,0.8,1.2,3.1,3.3,1.7
			c1.5,0.4-0.3,1.9,0.2,2.8c2.1-0.3,3.2,1.6,4,3.2c0.9,1.6,1.6,2.9,3.9,1.7c-0.7-0.9-1.3-3.3-3-4.9c0.9,0,1.3-1,1.9-0.4
			c1.7,1.6,1,3.7,3,5.1l-2.8,1.7c-0.3,2.4,1.5,3.2,3.2,4.3C751,99.7,752.4,101,750.9,103.2z"/>
		<path class="st12" d="M733.7,83.2c0.3,0.6,0.4,1.2,0.4,1.9l0.5-1.3C734.3,83.7,733.9,83.7,733.7,83.2z"/>
		<path class="st12" d="M734.7,83.7c0.3,0,0.6-0.1,0.9-0.2c-0.2-0.2-0.5-0.3-0.8-0.2L734.7,83.7z"/>
		<path class="st12" d="M753.7,108.9c0,0.4-0.1,1.1,0.5,1.7C754.4,110,754.3,109.1,753.7,108.9z"/>
		<polygon class="st12" points="755.1,110.4 755.4,109.5 755,109.5 		"/>
		<path class="st12" d="M741,151.8c-0.9,0.7-2,1.4-2.9,2.1c-0.6-1-3.4,0.2-2.5-1.5c-1.7,2.3-5.1-0.1-4,3.3c2.1-0.2,4.2-0.3,6.5-0.2
			c2.6,0.1,5.9-0.3,8.9-1.5c6.2-2.3,10.5-8.1,11.1-13.3c0.2,0.7,0.3,1.4,0.4,2.1c0.1-3.1,1.3-4.4,2.3-5.9c0.9-1.5,1.4-3.2-0.9-5.6
			l2.6,1c1.2-2.4-3.3-4.9-0.4-7.1l-1.1,0.2c0-0.6,0.5-0.9,0.5-1.5l-0.5,0.3c-1.1-1.6-1-2.6-0.4-4.3c0.9-0.2,0.4,0.7,0.7,1.2
			c0.8-0.8-1.1-2-1.2-3.2c0.7-1.1,1.2-0.1,1.6,0c-1.7-3.6,0.7-6-3.9-7.6c-0.8,0-1.1,1.3-1.8,0.1c-0.6,2.6,1.3,4,2.7,6.1l-0.1-0.6
			c4.2,1.2-0.7,1.4,1.3,4.1c-1.7-0.6-1.8-1.8-2.7-2.2c-2.6,3.3,2.7,4.4-1.2,6.6l-0.1-0.2c-0.4,0.4,0.3,1.3,0.7,2
			c0.5-0.2,0.8-0.9,1.2-1.4c0.4,0.7,2.1,1.2,2.8,1.5c-1.8,0.8,0.8,1.2-0.2,2.5c-1.6,0.3-1.3-1.3-2.2-1.8c0.3,0.5,0.7,1.1,1,1.7
			c-0.1,1.5-1.9,1.2-2.9,1.8c1,1.4,1-0.6,2.5,0.7c-2.1,1.3-3.1,7.5-3.7,11.1c0.4-1.1-1.3-1.2-0.4-2.2c-0.5,0.3-0.6,2.1,0.4,2.8
			c-0.3,2.6-3.1,4.7-5.6,5c0.4,0.2,0.8,0.4,1.3,0.6c-0.1,1.4-1.4,1.9-2.9,2.1c-1.5,0.2-3.1,0.2-4.6,1.2l0.1,0
			c-0.9,0.5-1.5,3.7-3.8,3.2C740.2,153.2,741.3,153.2,741,151.8z"/>
		<path class="st12" d="M730,154.5l1.1-1.7c-1.1-0.4-2.6,1.7-2.4,2.8c0.8-0.3,1.7,0.5,1.9-0.5C730.5,154.9,730.6,154.3,730,154.5z"
			/>
		<path class="st12" d="M709.8,152c-0.4,0.3-0.4,1-0.7,1.4c4.1,0.5,9.5,0.7,11,2.3c1.4,0.7,2-1.8,3.9-2.2l0.6,1.8
			c1.1-1,4,1.2,3.2-1.8c-0.1-0.3-1,1.3-1.8,0.7l0.2-1l-2,0.1l0.8-1.2c-2.4-2.1-2.3,3.5-5.4,1.9l0.4-2.5c-2.1-0.5-3.3,0.2-4.9-1.6
			c0,0-0.2,1.2,0.2,0.8c0.3,0.2,0.6,1.3,0.3,1.9c-3.5,1.4,0.7-1.4-1.3-2.8c-3.1,1.2-8.2,1.7-9.2-0.3c1,1.6-1,3-1.6,2.9
			c-0.4-0.9,0.2-1.5,0.4-2.2c-0.5-0.3-0.9-0.9-1.3-0.4c0.7,1.3,0.3,3.2,0.5,4.1C702.5,155.4,706.4,151.1,709.8,152z"/>
		<path class="st12" d="M708.5,153.9c0.4,0,0.6-0.2,0.7-0.5l-1.4-0.2L708.5,153.9z"/>
	</g>
	<g>
		<path class="st12" d="M594.2,97.2c-0.5-0.2-0.8-0.5-1.2-0.7c-0.3,0.4-0.5,0.9-0.8,1.3C592.9,97.7,593.5,97.5,594.2,97.2z"/>
		<path class="st12" d="M594.6,94l-0.6-1.9c-4.3,1-3.2-0.4-6,2.3l0.4-0.4l0.1,1.7l0,0.5c0.7,0.2,1.9,0.4,2.9,0.1
			c1-0.2,1.6-0.9,1.8-1.7c-0.5,0-2.3,1-2.8-0.2c1.2-0.6,1.9,0.1,3-1.3c-0.1-1.5-1,0.2-1.7-0.5l0.8,1.9c0-0.1,0-0.3,0.1-0.5L594.6,94
			z"/>
		<path class="st12" d="M590.3,91.7c0.8,0.2,1.5,0.4,2.1,0.4C591.6,91.8,590.7,90.9,590.3,91.7z"/>
		<path class="st12" d="M589.8,90.5c0.2-1.2,1.6,0.1,1.9-0.1l-2.8-1.5L589.8,90.5z"/>
		<path class="st12" d="M590.2,85.4c-0.1-0.2-0.1-0.4-0.2-0.6C589.5,85,589.9,85.2,590.2,85.4z"/>
		<path class="st12" d="M590,82.9c-1,0.5-0.4,1.1,0,1.9l0.2-0.1c0.9-0.7,2.9,0.1,2.3,1.2c0.4,1.2-1.6,1-0.3,2.1l1.7-1.3
			C593.6,84.8,590.8,83.6,590,82.9z"/>
		<path class="st12" d="M590.2,85.4c0.1,0.2,0.1,0.4,0.1,0.7C590.7,85.8,590.5,85.6,590.2,85.4z"/>
		<polygon class="st12" points="589.9,87.9 590.3,88.6 591.1,88.5 		"/>
		<path class="st12" d="M590.1,78.7c2.7,0.4-0.5,3,1.6,3.4c0-1.7,2.1-2.8,3.6-2.4l-0.8-1.9C593.5,77.2,591.4,77.8,590.1,78.7z"/>
		<path class="st12" d="M597.2,75.6c-0.2-0.1-0.4-0.3-0.4-0.5C596.9,75.3,597,75.5,597.2,75.6z"/>
		<path class="st12" d="M593.2,66.1l2.4,4.4c-0.9-0.5-1.7-0.4-2-1.4c-0.5,1.8,1.2,2.2,0.8,3.7c-2.6,0.3,0-2.7-2.3-2
			c0,1.1,0,2.7,2.1,3.8l-1.9,1.6l2.8-0.4c0.9-0.6-2.1-1.6-0.1-1.9c1.2-0.1,1.4,0.6,1.6,1.1c-0.5-1.2,2.4-2.9,2.2-5.2
			C598.9,67.5,594.4,67.8,593.2,66.1z"/>
		<polygon class="st12" points="596.3,66.2 597.4,66 595.9,66 		"/>
		<path class="st12" d="M593,61.2l1.6,2.4c-0.3,0.2-0.9,0.3-1.4,0.4c0.7,0,1.7,0.7,2.2,0.6c2.6-0.8-0.6-2.7-0.9-4
			c1.4-3,1.4,0.3,3.9-0.7c-0.1,0.9-0.8,0.8-1,2c3-1.6,0.6-4.3,0.1-5.5c-0.3,0.3-1.1,0.3-0.9,1l-0.7-1.3
			C593.6,57.2,593,58.3,593,61.2z"/>
		<path class="st12" d="M592.7,65.2c-0.1-0.8,0.1-1.1,0.5-1.2C592.5,64.2,591.9,64.4,592.7,65.2z"/>
		<path class="st12" d="M597.4,55.7c-0.2,0.1-0.1,0.4,0,0.7C597.5,56.3,597.6,56.1,597.4,55.7z"/>
		<path class="st12" d="M594.3,56.7l0.4-1.5l-1.3,0.5C593.5,55.9,593.6,56.6,594.3,56.7z"/>
		<path class="st12" d="M623,36.3c0.3-1-0.1-1.7-1.2-1.9c0.6-1.3,1.9-0.5,2.9-0.9c-1.1-1.4,0.6-1.5,0.8-2.9c-1.6-0.8-3,0.6-4.6-0.3
			c0.2-0.3,0.4-0.9,0.3-1.5c-2.5,0-6.4,0.2-8.3-1.4c-2-1-3.7-0.6-6-0.3c-1.7-0.3-3.2-0.5-4.7-0.4c-0.8,0-1.5,0.1-2.3,0.3
			c-0.7,0.2-1.7,0.2-2,0.8c-0.5,2-0.9,3.8-1.3,5.8c-0.5,2.2-1,4.5-1.7,6.7l2.5,1.5c-1.4,0.2-0.3,1.9-2,1.5c0.4-0.4,0.2-0.9,0.2-1.4
			c-2.6,1.4-0.4,4.7-1.5,6.7c0.5-0.2,2.9-0.3,3.2,0.4c-2.9-0.5-0.2,2.5-3.7,2.7c-1.1,2,2.6,0.4,1.9,2.5c1.7,0.4,1.1-2,2.4-2.3
			c1.3,0.8-0.8,1.9,1,2c1.2-3.4-1.7-10.3-1.8-15.8l1.5,0.8c-0.4-1.4-0.4-3.3,0.1-4.9c0.5-1.5,1.3-1.9,2.6-1.5
			c-0.9-0.4-0.3-0.8-0.3-1.4c0-0.4,0.2-0.8-1-2.2c1,0.7,1,0.5,1.7,0.7l-0.4-1.1c1-0.1,1.4,1.7,2.2,1.6c-0.8-1.5-0.3-2,0.1-3.3
			c1.5,1.7,3.5,3.5,4.7,5.1c0-0.5-0.1-1.1-0.5-1.8c0.9,0.7,1-0.8,1.4-1.3c1,0.1,0.6,2,0.3,3c1.6,0.9,3.3-2.6,4.4-1l-0.1-1.7
			c2.1,0.1,3.2,2.2,5.4,2.4c0.3,2.4-2.3,1.2-3.4,1.9c0.3,0.6,1.1,0.9,1.2,1.7c1.2-0.8,3.1-1.7,4.6-2.3C619.8,35,622.4,35.8,623,36.3
			z"/>
		<path class="st12" d="M617.1,35.3c-0.3,0.2-0.6,0.4-0.8,0.6c0.2-0.1,0.5-0.2,0.7,0.1C617.1,35.7,617.1,35.5,617.1,35.3z"/>
		<path class="st12" d="M623,36.3l-0.1,0.2C623.2,36.5,623.2,36.4,623,36.3z"/>
		<path class="st12" d="M612.6,27.2l0.3,0.2c0.1,0.1,0.2,0.1,0.3,0.1L612.6,27.2z"/>
		<path class="st12" d="M609.6,33.9c-0.3-0.6-0.7-1.3-1.2-1.9C608.4,32.7,608.5,33.3,609.6,33.9z"/>
		<path class="st12" d="M601.8,31.7c0.1,0.3,0.6,0.7,0.9,1.2C602.8,32.9,602.6,32.5,601.8,31.7z"/>
		<polygon class="st12" points="619.1,36.4 620.8,36.5 621.5,36.3 		"/>
		<path class="st12" d="M652.4,46.6c0.1-2.4-2.4-3.1-3.7-4.6c-3.4-1.3-2.8,3-5.6,1.3l2.7-2.8c-2.8-1.8-6.5-5-10.6-3.3
			c0-0.5-0.2-1.3,0.8-1.4c-2-0.9-3.6,4.3-5.5,1.9c3.5-0.9,0.3-2.5,2-4.3l0.5-0.1c-1.8-0.6-4.6-0.5-5.6-1.1c-0.4,0.9-0.1,2.7-1.6,2.2
			c0.5,0.4-0.2,1.4-0.6,2.3c1.9-0.4,2.4,0.6,3.9-0.2c0.3,1.6-0.7,0.1-0.5,1.7l1.7-0.5c0.7,0.7-1.5,0.7-0.3,1.6
			c0.5-0.6,1.9-0.8,2.9-0.1l-0.5,0.2c1,0,1.8,1.1,2.5-1l-0.1,2.4l0.6-1.4c1.9,1.8,0.8,5.2,4.3,5.4c-0.4-0.8,0.6-1.1,1.1-1.1
			c-0.5-1.6-2,0-3.1-0.5c0.6-1.4,3.4-1.7,2.6-3.2c0.5,2.4,2.8,1.6,1.3,5c1.5,1.3,3.2,0.4,4.2,2.3l-0.4,0.4c1.8-1.6,0.6,1.9,3.3,1
			l-0.5-1.1c0.7-0.7,1.1-0.4,1.8,0c-0.3,0.2-0.3,0.2-0.4,0.8c1.3-1.2,3.3,0.2,3.9,0.1c-0.5-0.9-2.4-0.7-3.6-1.1
			C651,46.9,651.8,45.6,652.4,46.6z"/>
		<path class="st12" d="M631.4,39.8l1-0.4C632.1,39.4,631.7,39.5,631.4,39.8z"/>
		<path class="st12" d="M656.5,55.5c0.5,1.2-1.4,0.7-1.3,2.1c1.8,0.3,1.1-2.7,3.3-2.8c-0.3,1.3,1.9,1.3,2.3,1.7
			c-1.2,0.1-2.9,1.7-3.2,2.2c0.8,0,0.5,1.6,0.8,2.3c0.2-2.5,1.6,1,2.1-1.4c1.2-0.6,3.2,0.7,2.6,1.9c-0.9,0.4-1-0.3-1.3-0.7
			c-1.9,0.5-0.3,1.7-1.7,2.7c1.6,0.2,3,1.9,4.3,3.2c1.3,1.3,2.5,2.3,4.3,0.8c0.6-1-0.6-1.3-1-2.1c-0.1,2.4-2.1,0.7-2.9,0.8
			c0.3-1.1-1.5-2.1,0-2.3c0.7,0.3,1.3,0.5,2,0.8c-0.9-5-4.9-10.8-9.1-14.4c0.5,0.6,1,1.2,1.5,1.9c-1.1,0.5-1.8-0.3-2.8-0.6l-1.4,2.7
			c-0.3-0.6-1-0.8-0.2-1.4c-1.4,0.2-1.7,1-2.1,1.9c-1.4-0.8-0.8-1.8-3-1.4c0.1,3.4,3,0.3,3.4,3.9L656.5,55.5z"/>
		<polygon class="st12" points="651.4,52.1 652.9,51.6 651.7,51.3 		"/>
		<path class="st12" d="M656.6,48.6c-0.4,0.4-0.9,0.3-1.3,0.8C655.9,50.6,656.4,49.9,656.6,48.6z"/>
		<path class="st12" d="M660.6,64.9c0.4,0.4,0.7,0.8,1,1.3c0-0.4,0.1-0.8,0.1-1.2C661.2,65.3,660.8,65,660.6,64.9z"/>
		<path class="st12" d="M670.3,75.1c-0.4-2.7-1.8-3.6-1-6.8c-2.1-0.9-3.2,1.4-4.9,1.2c-0.2,1.3,2.9,0.5,3.7,1.9
			c-1.5,0.7,0.6,2.1,0.3,3.5C668.9,74.8,669.7,74.8,670.3,75.1z"/>
		<path class="st12" d="M663.3,82.7c-0.3,1,0.6,2.3-0.4,2.9c-0.9-0.5-1-1.1-0.6-1.6c-2.3-0.4,0,1.2-1.8,1.6c0.3,0,0.8-0.2,1.1,0.2
			c-1.6,2.3,1.2,2-1.8,4.8c0.3,0.6,0.2,0.8,1.3,1.8c-2.6,0-1.9-0.7-4.4-1c0.4,0.8,2.1,2.1,3.1,3.7c-2.3-0.2-3,0.1-3.7,0.6
			c-0.6,0.4-1.2,0.9-2.6,0.3c0.2-0.2,0.4-0.7,1-0.7c-1.1-2.4-1.7,1-3.1,0.8l-0.4-2.2c-1,0.6-2.7,2.5-4.5,1.1l0.1-1.1
			c-2.6,2.2-6.3,1.9-8.8,3l-1.5-1.2c-3.4,2,3.6,0.4,1.3,4c-0.8-4-1.7,1.5-4,0.1c-1.1-1.5,2-1,0.8-2.8c-0.3,2.1-1,0.7-2.1,1.4
			c0.1-2-2.3-0.1-1.8-2.4l-3.6,3.9c-0.7-1.1-1.8-0.9-2.6-0.5c2.1-0.1-0.5,3,2,3.8c3.4-1.1,9.1-2.1,13.5-1.6c0.2-2.8,2.8-0.3,3.2-2.6
			c0.2,0.8,0.6,1.5,0.9,2.4c2.7-1-0.9-1.4-0.3-2.5c1.1-0.5,2.4,0.9,2.4,1.9c2-0.2,0.1-0.8,0.9-2.4l1.8,2.7c3-1.1,6.5-2.6,9.9-4.6
			c1.6-1,3.5-2.3,4.4-4.2c0.9-1.5,2-3.2,3-4.7l-1.9-0.2c1.1-1.3,0.5-2.9,0.2-4.3c-0.3-1.4-0.4-2.4,1.8-3.5l-1.5-1.1
			c0.9,0.6,2.9-0.3,4,0.7c-0.5-1,0.2-1.9-0.3-2.9l-1,1.6c-1.5-1.2-0.5-2.3,0.8-2.8c-2-2.3-3.2,1.5-4.8,1.8c1.7,1.6,0.7,2.4-0.5,2.9
			c-1.2,0.6-2.6,0.9-2.3,2.3C661.2,84,662.4,82.4,663.3,82.7z"/>
		<path class="st12" d="M669.1,79.6c-0.1-0.2-0.3-0.4-0.4-0.6C668.8,79.2,668.9,79.4,669.1,79.6z"/>
		<path class="st12" d="M624.5,99.2c-0.3,0-0.5,0-0.9,0.1C623.3,99.8,623.8,99.5,624.5,99.2z"/>
		<polygon class="st12" points="668.3,75 668.3,75 668.3,75 		"/>
		<polygon class="st12" points="663.6,73.7 663.6,74.5 664.5,74.3 		"/>
		<path class="st12" d="M615.2,97.1l0,1C615.2,97.8,615.3,97.5,615.2,97.1z"/>
		<path class="st12" d="M590,96.1l0.5,0.1C590.3,96,590.2,96.1,590,96.1z"/>
		<path class="st12" d="M535.8,81.4c-1.3-0.9-2.7-2.4-4.6-3.2l1-0.2c-0.8-0.5-2.8-3.5-4.2-1.2l1,0.4c2,2-1.2,2.1-1,4.4
			c1.5,2.2,5.3,1.3,5.7,3.2c0.6,0.6-0.3,1.1-1,1.4c1.1,1.8,3.7,0.3,4.8,0.9c-2.4,2.8-0.9,3.6,1,4c1.9,0.4,4.1,0.5,4,3.2
			c1.8,0.4,3.5,2.1,6.1,1.8c-1.9,1.1,1.7,1,0.4,2.7c1.3-1.8,2.2-0.8,3.9,0.2c1.7,0.9,3.1,1.3,3.8-1.4c2.6,2,0.2-0.3,3.2,1.5
			c-0.1,0.6-0.6,0.5-0.9,0.6c1.2,1.3,2.3-2,3.1,0.6c2.6,0.7,0.6-1.4,2.3-2.7c2.7,0.9,1.8,1.6,3.1,4c0.5-2.6,2-1.2,3.5-2.4
			c-0.3-0.1-2.1-0.8-0.8-1.7c3.1,0.7,2.7-1.5,5.7-2c1.3,3-3-0.1-0.5,2.3c-2,1.2-3.4,0.9-4.6,2.9c2.5,0.4,5.7,0.2,8.5-0.9
			c1.5,0.5-0.9,1.3,0.3,1.6c2.7,1.4,4.4-2.7,6.5-1.3l-0.5,1.5c1.4-1.9,4.8,0.7,7.4-0.3c-0.3-0.8-0.5-1.3-0.1-1.7
			c-0.2,3.7,3.6-1.8,6,0.9c-0.1-2.4,2.3-3.6,3.8-3.9c0.5,0.7,0.4,1.6,0.4,2.3c-2.5-1.4-2.5,2.5-4.5,3.6c1.7-1.2,4.4,0.2,5.9-1.6
			l-0.6,1.8c2.3,0.3,2.1-4.2,4.5-2.4l-0.2,1.3c4.8-0.2,10.6,2.2,14.4-1c0.3-1.1-1.7-3.7-1.9-4.6c-2.3,1-3.6,3-5.3,4v-2.1
			c-0.4,1.5-2.5,2.3-1.3,3.5c-1.4,1.1-1.1-1.9-2.8-0.6c0.1-2.2,1.1-2.5,1.1-4.3l-1.4,1.1c0.5-0.9-0.9-0.8-0.4-1.6
			c-2.7,2.7-3.7-1-6.4,0.1l1.5,0.4c0,1.2-0.9,1.1-1.6,1.5c-0.7-1.7-1.2-1.5-2.6-2.3c-1.2,1-2,3.2-3.6,3.1c0.4-2.3-2.7-1.4-2.9-3.3
			c-0.4,2.3-3.2,0.7-3.5,2.1c-0.9,0.4-2.1,0.1-2-1.1c0.1-0.1,0.4-0.3,0.7-0.4l-0.9-0.1c0.1-0.3,0.1-0.5,0.2-0.5
			c-0.8-0.1-0.9,1.6-1.8,0.4c0-0.6,0.6-0.6,1-0.8c-2-0.5-3.8,3.4-5.4,1.1c-0.4,1.1-2.8,1-2.4,3.5c-0.6-0.9-0.2-2.9-2-2.6
			c-1.2,2-1.9-0.9-3.3,0.3c1.9-2.1,0.1-0.6,1.8-2.6c-1.1-1-3.1,1.7-5.1,1.2c-0.2-0.5-0.1-1.1-0.3-1.6c-0.8,0.7-1.9,2.3-2.4,0.5
			l0,1.5c-1.3-0.9-3.3-0.6-4.6-2.4l-2.1,2.6c-2-3.3-5.3-1-7.7,1c-0.9-0.3-2-1.3-1.7-1.9c0.3-0.1,0.7-0.4,1.1-0.7
			c-0.9-0.4-1.7-2.6-3.3-0.8c-1.5,0.1-0.1-1.9-0.8-2.7c-1.9,0.9-3.3-0.6-4.5-1.8c-1.2-1.2-2.2-2.2-4-0.4c0.8,0.6,2,2.7,4,3.6
			c-0.8,0.2-0.9,1.3-1.7,1c-2-1-1.8-3.1-4-3.7l2.2-2.4c-0.4-2.3-2.2-2.4-3.9-2.9C536.2,84.6,534.6,83.7,535.8,81.4z"/>
		<path class="st12" d="M556.2,95.2c-0.4-0.6-0.7-1.3-1-1.9l-0.2,1.4C555.5,94.6,555.9,94.7,556.2,95.2z"/>
		<path class="st12" d="M555.1,94.7c-0.3,0.1-0.6,0.2-0.9,0.4c0.2,0.1,0.6,0.1,0.9-0.1L555.1,94.7z"/>
		<path class="st12" d="M533.2,76.7c0.1-0.3,0.2-0.9-0.2-1.5C532.6,75.7,532.6,76.5,533.2,76.7z"/>
		<polygon class="st12" points="532,75.2 531.6,76 531.9,76.1 		"/>
		<path class="st12" d="M557.9,41.5l1.4-2.9c0.8,0.7,2.9-1.6,2.8,0.4c0.4-2.8,4.4-1.9,1.9-4.6c-6.5,3.8-16.9,7.1-22,15.2l0.3-1.9
			c-1,2.5-2.6,2.9-4,3.6c-1.4,0.7-2.5,1.7-1.8,4.8l-1.7-2.2c-2.2,1.2,0.3,5.6-3.3,5.8l1,0.4c-0.3,0.5-0.9,0.4-1.2,0.9l0.5,0.1
			c0.1,1.9-0.5,2.6-1.8,3.8c-0.8-0.3,0-0.8,0-1.4c-1.1,0.3,0,2.3-0.4,3.4c-1.1,0.7-1.2-0.4-1.5-0.7c-0.1,2.1-0.8,3.4-1,4.8
			c-0.2,1.3,0,2.7,2.1,3.9c0.8,0.2,1.3-1,1.8,0.2c1.1-2.2-0.3-3.9-0.8-6.4l-0.1,0.6c-3.3-2.8,1.1-1,0.6-4.2c1.1,1.3,0.7,2.4,1.4,3.1
			c1.9-0.9,1.7-1.9,1.8-3c0-1,0.1-2,2.3-1.7l0,0.2c0.5-0.1,0.3-1.1,0.4-1.9c-0.5-0.1-1.1,0.3-1.7,0.4c0.1-0.8-1.1-2.1-1.6-2.7
			c1.9,0.4,0-1.4,1.5-1.9c1.5,0.7,0.5,1.8,0.9,2.6l0.1-1.8c0.8-1.1,2.2,0.1,3.3,0.2c-0.2-1.7-1.1-0.1-1.8-1.9
			c2.4,0.2,6.4-4.2,7.9-7.2c-0.7,0.8,0.8,1.6-0.4,2.1c0.6,0,1.3-1.6,0.6-2.6c1-2.1,3.7-3,5.8-3l-1.1-0.8c0.3-2.7,4.2-0.8,6.1-3.2
			H556c0.7-0.7,0-3.7,1.8-3.9C558,40,557.1,40.2,557.9,41.5z"/>
		<path class="st12" d="M565.9,34.8l-0.2,1.9c1.1,0,1.5-2.5,0.9-3.5c-0.5,0.6-1.7,0.2-1.4,1.2C565.3,34.6,565.6,35.2,565.9,34.8z"/>
		<path class="st12" d="M585,29.5c0.4-0.4,0.2-1.1,0.3-1.6c-4.5,0.6-9.4,2.6-11.4,1.8c-1.5-0.1-1,2.5-2.5,3.6l-1.3-1.4
			c-0.6,1.3-3.9,0.5-2,2.9c0.2,0.2,0.3-1.6,1.2-1.4l0.2,1l1.6-0.9l-0.2,1.3c2.9,0.9,0.5-4.1,4-3.9l0.6,2.4c2-0.4,2.9-1.5,5-0.4
			c0,0-0.2-1.2-0.5-0.7c-0.4-0.1-1-0.9-0.9-1.7c2.8-2.6-0.2,1.5,2.2,2.1c2.2-2.2,7.7-4.1,9.4-1.9c-1.4-1.5,0.8-3.1,2.7-2.7
			c0.7,1-0.8,1.4-1.1,2.1c0.8,0.3,1.3,1,2.2,0.8c-0.8-1.5,0.1-3.4,2.7-3.5c-2.5-1.5-4.8-1-6.8-0.1C588.5,28.3,586.9,29.5,585,29.5z"
			/>
		<path class="st12" d="M585.9,27.3c-0.4,0.1-0.6,0.4-0.6,0.6c0.5-0.1,1.1-0.2,1.6-0.2L585.9,27.3z"/>
	</g>
	<g>
		<path class="st13" d="M78.4,145c-40.1-39.8,37.3-80.1,48.7-26.4c0.4,2.1,5.1,0.4,5.9-0.4c27.4-26.8,70.3-29.8,106.5-28.3
			c33.6,1.4,73.6,8.6,99.9,31.1c1.5,1.3,5.7,0.3,6.3-1.7c22.5-67.2,100.9,14.5,52.7,39.5c-3.9,2,2,2.9,4,1.8
			c56-29.1-37.9-116.4-63.3-40.5c2.1-0.6,4.2-1.1,6.3-1.7c-28.9-24.8-72.2-30.9-108.8-32.4c-37-1.5-81.3,4.1-108.9,31.2
			c2-0.1,3.9-0.3,5.9-0.4c-12.8-60.2-105.8-13.5-61.4,30.6C73.9,149.1,80.1,146.7,78.4,145L78.4,145z"/>
	</g>
	<g>
		<path class="st13" d="M72.1,146.8c-37.3,60.9-46,153.9-3.8,214.1c1.2,1.8,7.3-0.8,6.6-1.8c-42.3-60.3-33.6-152.5,3.7-213.4
			C79.3,144.7,73.2,145.1,72.1,146.8L72.1,146.8z"/>
	</g>
	<g>
		<path class="st13" d="M397.5,161.1c15.9,17.9,24.2,43,30.8,65.6c0.7,2.4,7,0.7,6.6-1.8c-3.2-17.6,16.2-30,29.2-37.5
			c10.9-6.3,40.5-18.4,32.9,5.3c-7.8,24.3-37.3,50.4-58.4,64c-3.8,2.4,1.9,3.5,4.1,2.1c14.5-9.4,79.3-62.2,59.5-82.9
			c-7.9-8.3-31.7,3.9-38.7,7.6c-15.2,8.1-38.9,22.8-35.2,43.2c2.2-0.6,4.4-1.2,6.6-1.8c-6.7-22.9-15.1-48.3-31.2-66.5
			C402,156.7,395.7,159.1,397.5,161.1L397.5,161.1z"/>
	</g>
	<g>
		<path class="st13" d="M37.7,259.1c-13.9,14-43.7,42.3-36.6,64.5c7.4,22.9,40.6-18.3,45.9-23.8c2.8-2.9-3.6-3.3-5.4-1.5
			c-5.8,6.1-11.2,12.6-17.2,18.5c-2.3,2.2-11,11.6-15,7.8c-3.8-3.7-2.7-9.9-1.6-14.3c4.7-18.9,22-36.1,35.3-49.6
			C45.9,257.8,39.5,257.3,37.7,259.1L37.7,259.1z"/>
	</g>
	<g>
		<path class="st13" d="M43.7,261.6c124.3,53.3,276.1,42,400.8-3.9c4.3-1.6,0.4-4.4-2.7-3.2c-122,45-271.3,55.9-392.9,3.7
			C46.7,257.2,40.8,260.3,43.7,261.6L43.7,261.6z"/>
	</g>
	<g>
		<path class="st13" d="M68.3,361c26.9,36.8,66,52.9,110,59.2c39.4,5.7,82.7,9.1,122.1,2.3c37.4-6.4,72.6-20.6,100.6-46.7
			c30.5-28.5,50.4-78.8,45.5-120.6c-0.1-1-6.8,0.2-6.6,1.8c10.5,90-67,154.8-148.8,164.8c-36.5,4.5-76.5,0.5-112.8-4.7
			c-41.6-6-78.3-23.4-103.4-57.8C73.8,357.7,68,360.5,68.3,361L68.3,361z"/>
	</g>
	<g>
		<path class="st13" d="M138.2,412.4c-7.4,13.8-13.7,57.8,9.2,60.4c22,2.5,30-36.9,39.3-49.9c1.4-2-5-1-6,0.3
			c-5.9,8.3-21.2,53.7-34.6,44.5c-13.8-9.5-7.9-44.3-1.4-56.4C145.3,410.2,139.1,410.7,138.2,412.4L138.2,412.4z"/>
	</g>
	<g>
		<path class="st13" d="M298.2,422.2c-0.9,15.2-0.8,67.1,27.8,56.2c23.3-8.8,13.5-50.3,22.6-68.3c1.6-3.2-5.1-2.8-6.2-0.5
			c-7.9,15.7-5.5,36.1-10.4,53c-1.7,5.9-4.8,13.7-12.6,11.8c-6.9-1.7-9.8-8.8-11.8-14.9c-3.9-11.9-3.6-25.5-2.9-37.9
			C305,418.5,298.3,419.6,298.2,422.2L298.2,422.2z"/>
	</g>
	<g>
		<path class="st12" d="M483.5,176.1c-2.5-5.9-4.8-12.8-3.3-19.2c-1.4,0.6-2.9,1.2-4.3,1.8c8.4,1,11,10.1,12,17.2
			c0.3,1.7,5.6,0.5,5.4-1.4c-1.2-8.3-4.6-17.4-14.1-18.6c-1.2-0.2-4,0.2-4.3,1.8c-1.6,6.7,0.7,13.8,3.3,19.9
			C478.9,179.3,484.2,177.7,483.5,176.1L483.5,176.1z"/>
	</g>
</g>
</svg>
