<?xml version="1.0" encoding="utf-8"?>
<!-- Generator: Adobe Illustrator 19.1.0, SVG Export Plug-In . SVG Version: 6.00 Build 0)  -->
<svg version="1.0" id="Layer_1" xmlns="http://www.w3.org/2000/svg" xmlns:xlink="http://www.w3.org/1999/xlink" x="0px" y="0px"
	 viewBox="0 0 545.7 426.1" style="enable-background:new 0 0 545.7 426.1;" xml:space="preserve">
<style type="text/css">
	.st0{fill:#E1F4FD;}
	.st1{fill:#F2D8E0;}
	.st2{fill:#DFF0E3;}
	.st3{opacity:0.85;}
	.st4{opacity:0.3;fill:#FFFFFF;}
	.st5{opacity:0.3;fill:#F2D8E0;}
	.st6{fill:#FFFFFF;}
	.st7{opacity:0.3;fill:#DFF0E3;}
	.st8{opacity:0.4;fill:#FFFFFF;}
	.st9{opacity:0.3;fill:#E1F4FD;}
	.st10{fill:#F8DE8D;}
	.st11{fill:#BADAF3;}
	.st12{fill:#231F20;}
	.st13{fill:#010101;}
	.st14{fill:none;stroke:#010101;stroke-width:6.518;stroke-miterlimit:10;}
	.st15{fill:none;stroke:#FFFFFF;stroke-width:6.0438;stroke-miterlimit:10;}
	.st16{fill:#FAD6D7;}
	.st17{fill:#FFFEFE;}
	.st18{fill:#C2DE9F;}
	.st19{fill:#FCD6D6;}
	.st20{fill:#FEE777;}
	.st21{fill:#FAA958;}
	.st22{fill:#BADB93;}
	.st23{fill:#F9DE8C;}
	.st24{fill:#B0DAF4;}
	.st25{fill:#9C6026;}
	.st26{fill:#CB8F62;}
	.st27{fill:#714C1E;}
	.st28{fill:#9C9DCE;}
	.st29{fill:#FFC214;}
	.st30{fill:#DEE682;}
	.st31{fill:#F3DAB1;}
	.st32{fill:#F6B4C9;}
	.st33{fill:#FEC470;}
	.st34{fill:#FDC17E;}
	.st35{fill:#724F1F;}
	.st36{fill:#D22030;}
	.st37{fill:#00AFAC;}
	.st38{fill:#18A6DF;}
	.st39{fill:#FEDD10;}
	.st40{fill:#E74782;}
	.st41{fill:#FBD0D8;}
	.st42{fill:none;stroke:#000000;stroke-width:1.7659;stroke-miterlimit:10;}
	.st43{fill:#672F12;}
	.st44{fill:#F58C8E;}
	.st45{fill:#E8B674;}
	.st46{fill:#FFD89F;}
	.st47{fill:#FFEDB3;}
	.st48{fill:#5EB2E3;}
	.st49{fill:#7DB2E0;}
	.st50{fill:#F19C9D;}
	.st51{fill:#593712;}
	.st52{fill:none;stroke:#E7EFD6;stroke-width:0.4253;stroke-miterlimit:10;}
	.st53{fill:#D86464;}
	.st54{fill:#FEEBB1;}
	.st55{fill:#F8A95A;}
	.st56{fill:none;stroke:#010101;stroke-width:8.0507;stroke-linecap:round;stroke-linejoin:round;stroke-miterlimit:10;}
	.st57{fill:#95D4D1;}
	.st58{fill:#F6DD8C;}
	.st59{fill:#B0D9F4;}
	.st60{fill:#FFC118;}
</style>
<g>
	<g>
		<g>
			<path class="st10" d="M98.5,171.1c-3.8,0.2-4.6,0-2.3-0.6c-3.1-2.4-6.2-4.7-9.3-7.1c-2.6,40.1,68.1,58.4,95.4,65.5
				c36.1,9.4,70.6,21.2,107.8,25.9c46.9,5.9,94.4,5,141.2,11.3c31.1,4.2,57.7,34.5,85.9,48c8.9,4.3,22.2,4.6,25.4-7.1
				c8.1-29.4-86-58.7-104.5-61.4c-9.3-1.4-13.3,12.8-3.9,14.2c23.6,3.5,43.1,15.8,64.5,25.4c9.1,4.1,29.2,19,9.8,7.3
				c-16.8-10.2-34.1-27.2-52.3-34.3c-18.9-7.3-37.9-8.6-58-10.2c-56-4.5-111.6-5.1-166.2-20.1c-22.5-6.2-44.6-13.4-67.3-18.6
				c-15-3.5-64.4-23.5-62.9-46c0.3-4.7-5-8.6-9.3-7.1c-0.8,0.3-1.5,0.5-2.3,0.8c-3.4,1.1-5,3.7-5.4,7.1c-0.3,2.3-0.5,4.6-0.8,6.9
				C82.7,180.6,97.5,180.5,98.5,171.1L98.5,171.1z"/>
		</g>
		<g>
			<path class="st10" d="M427,259.5c9.3,11.5,22.4,16.5,34.5,24.3c14.3,9.3,26.1,19.5,42.7,24.5c-1.7-3-3.4-6-5.2-9.1
				c-0.1,0.6-0.2,1.2-0.3,1.7c1.7-1.7,3.4-3.4,5.2-5.2c-0.7,0.2-1.4,0.4-2,0.6c-9.1,2.6-5.2,16.9,3.9,14.2c0.7-0.2,1.4-0.4,2-0.6
				c2.3-0.7,4.7-2.7,5.2-5.2c0.1-0.6,0.2-1.2,0.3-1.7c0.7-4.1-1-7.8-5.2-9.1c-13.4-4.1-24.1-11.9-35.2-20
				c-11.7-8.6-26.1-13.5-35.5-25C431.4,241.7,421.1,252.2,427,259.5L427,259.5z"/>
		</g>
		<g>
			<path class="st10" d="M410.9,87.3c-8.5-19.3,18.7-41.4,36.2-33c24.7,11.8,20.3,37.6-3,47.4c2.4,4.1,4.8,8.2,7.2,12.3
				c0.8-0.6,1.6-1.3,2.4-1.9c7.7-5.4,0.4-18.2-7.4-12.7c-1.9,1.4-3.6,2.6-5.3,4.2c-5.1,4.8,0.2,15.3,7.2,12.3
				c15-6.3,29.9-17.6,31.1-35.3c1.2-17.5-10-30.9-24.6-39c-31.3-17.4-70.4,21.6-56.4,53.2C402,103.4,414.7,95.9,410.9,87.3
				L410.9,87.3z"/>
		</g>
		<g>
			<path class="st10" d="M447.4,107.6c8.6,37.9,24.1,96.2,7.7,134.5c4.5,1.9,9,3.8,13.5,5.7c11.7-32,16.2-81.5-1.5-111.9
				c-4.8-8.2-17.5-0.8-12.7,7.4c15.2,26.2,10,73.4,0,100.6c-2.9,7.8,10.2,13.3,13.5,5.7c18.8-43.7,3.8-101.8-6.2-145.8
				C459.6,94.4,445.3,98.4,447.4,107.6L447.4,107.6z"/>
		</g>
		<g>
			<path class="st10" d="M139.4,51.3c-0.3,1.4-0.5,2.8-0.6,4.2c1.2-2.1,2.4-4.2,3.7-6.4c-0.4,0.3-0.8,0.5-1.3,0.8c2.5,0,5,0,7.4,0
				c-1.3-0.9-2.7-1.7-3.9-2.7c0.6,2.4,1.3,4.8,1.9,7.2c1.1-5.8,0.6-10.2-1.2-15.8c-3-9.1,5.9-14.3,12.4-18.2
				c13-7.8,25.5,0.5,27.7,14.1c1.5,9.4,15.7,5.4,14.2-3.9C196.7,10.2,179.6,0.3,160,4.1c-9.2,1.8-18.4,8.3-24.3,15.4
				c-3.2,3.9-4.8,8.4-5.5,13.3c-0.9,6.1,3.5,11.8,2.3,17.7c-0.5,2.4-0.2,5.5,1.9,7.2c2.2,1.8,4.5,3.4,6.9,5c2.1,1.4,5.3,1.3,7.4,0
				c3.2-2.1,4.3-3.8,4.9-7.5C155.3,46,141.1,42,139.4,51.3L139.4,51.3z"/>
		</g>
		<g>
			<path class="st10" d="M146.1,61.6c-33.9,6.8-78,87.1-52.5,116.3c3.9,4.4,10.7,1.6,12.3-3.3c6.5-19.3,8.9-39.8,17.7-58.3
				c-4.6-1.2-9.2-2.5-13.7-3.7c1.4,17.3-8.5,34.1-5.9,51.2c2.5,17,11.2,25.9,21.9,38.7c2.4-4.1,4.8-8.2,7.2-12.3
				c-15.7-4.5-11.3-34.1-9.2-44.9c4.5-23.4,39.7-21.7,56.6-18.9c19.9,3.3,38.2,14.3,53.5,26.9c6.2,5.5,11.6,11.7,16.1,18.7
				c11.2,16.1,4.1,61.7-25.4,49.8c-8.8-3.6-12.6,10.7-3.9,14.2c24.6,9.9,56.9-19.6,51.6-46.1c-8.5-42.1-48.7-68-87.9-77.8
				c-22.1-5.6-64.9-2.7-73.1,24.1c-6.5,21.1-8.8,60.6,17.9,68.3c7.6,2.2,11.7-7,7.2-12.3c-14.6-17.3-19.7-29.5-14.2-53.7
				c2-8.8,3.2-16.7,2.5-25.7c-0.5-6.6-10.3-10.9-13.7-3.7c-9.5,19.8-12.3,41.2-19.2,61.8c4.1-1.1,8.2-2.2,12.3-3.3
				c-16.9-19.4,24.5-87.3,46-91.6C159.4,73.9,155.4,59.7,146.1,61.6L146.1,61.6z"/>
		</g>
		<g>
			<path class="st10" d="M137.4,216c93.1,47.7,196.8,57.2,299.4,47.2c9.4-0.9,9.5-15.7,0-14.7c-100,9.7-201,1.4-291.9-45.2
				C136.4,198.9,129,211.6,137.4,216L137.4,216z"/>
		</g>
		<g>
			<path class="st10" d="M194.5,34.2c-0.2-0.6-0.4-1.1-0.5-1.7c-2.5,2.5-4.9,4.9-7.4,7.4c35.7-4.8,68.3-11.2,104.8-4.4
				c22.7,4.2,44.8,13.3,65.8,22.5c6.6,2.8,40.9,22.7,40.8,23.6c3-1.7,6-3.4,9.1-5.2c-1.7-0.3-3.5-0.6-5.2-1
				c-9.3-1.7-13.3,12.5-3.9,14.2c1.7,0.3,3.5,0.6,5.2,1c3.5,0.7,8.5-0.9,9.1-5.2c3.5-24.9-54.6-43.5-71.2-50.2
				c-53-21.4-99.8-17.4-154.4-10.1c-3.8,0.5-7.6,3-7.4,7.4c0.2,3.8,0.5,5.9,2.5,9.1C186.9,49.6,199.6,42.2,194.5,34.2L194.5,34.2z"
				/>
		</g>
		<g>
			<path class="st10" d="M207,32.7c4.1-1.2,8.2-2.3,12.5-3.2c2.4-0.5,7.3-1.7,9.6-0.7c8.5,4,16-8.7,7.4-12.7
				c-10.2-4.9-23.2-0.7-33.4,2.3C194,21.2,197.9,35.4,207,32.7L207,32.7z"/>
		</g>
		<g>
			<path class="st10" d="M176,28.8c-8.4,6.7-12.9,14-18.9,23.1c4.2,2.5,8.5,5,12.7,7.4c5.6-9,11.4-17.9,16.9-27
				c5-8.1-7.6-15.4-12.7-7.4c-19.1,30-41.4,57.7-59.3,88.5c-4.8,8.3,7.5,15.3,12.7,7.4c16-23.7,28.8-49.4,48.9-70.1
				c-4.1-1.1-8.2-2.2-12.3-3.3c3.6,15.2-15.8,36.7-21.6,50.8c-2,5,4.1,11,9.1,9.1c22.7-9.1,31.3-39.5,42.9-58.8
				c-4.5-1.9-9-3.8-13.5-5.7c-10.9,26.2-30.8,44.6-34.1,73.6c-0.8,6.6,8.4,9.5,12.6,5.2C182.9,97.7,198.8,68,208.3,36
				c2.3-7.6-7-11.6-12.3-7.2C170.4,50,150.5,76.3,134,105c-2.6,4.5,0.6,11.7,6.4,11.1c36-3.7,55.1-59.4,80.7-79.9
				c-4.1-2.4-8.2-4.8-12.3-7.2c-10.2,25.9-33.1,41.5-35.7,70.5c-0.6,7.1,8.2,8.8,12.6,5.2c21.4-17.3,28.9-44.5,47-64.7
				c-3.9-3-7.7-6-11.6-8.9c-12.3,27.5-37,45.5-43.9,75.7c-1.6,6.9,7,12.8,12.3,7.2c11.3-12,21.6-24.6,31.8-37.5
				c9.5-12,18.1-31.6,31.4-39.1c-3.4-3.4-6.7-6.7-10.1-10.1c-11.9,27-35.4,49-48.5,76.2c-3.7,7.8,5.1,14.2,11.6,8.9
				c25.8-20.9,38.9-52.3,64.7-73.2c-4.1-2.4-8.2-4.8-12.3-7.2c-7.5,29.6-39,45-49.3,73.9c-2.7,7.7,7.2,11.4,12.3,7.2
				c24.7-20.1,39.3-50,67-66.6c-3.4-3.4-6.7-6.7-10.1-10.1c-20.2,26.3-47,46.8-56.9,79.5c-2.3,7.7,7,11.5,12.3,7.2
				c26.5-21.4,47-48.9,74.7-68.9c-3.4-3.4-6.7-6.7-10.1-10.1c-14.9,31.9-48.6,50.5-63.1,83.9c-2.7,6.3,3.2,14.3,10.1,10.1
				c31.5-19,45.2-58.2,80.1-73.2c-3.4-3.4-6.7-6.7-10.1-10.1c-16.9,32.2-50.3,50.6-67,83.1c-3.8,7.5,5.3,14.7,11.6,8.9
				c28.2-25.8,53.2-54.9,87.1-73.5c-3.4-3.4-6.7-6.7-10.1-10.1c-20.7,36.4-57.3,59.4-81.6,93.2c-4.4,6.1,4.1,14,10.1,10.1
				c37.6-24.3,60.2-69.4,103.7-85.5c-2.8-3.6-5.6-7.2-8.3-10.8c-11.8,21-30.9,34-48.1,50.1c-16.7,15.5-29.1,35.5-45.4,51.6
				c-6.8,6.7,3.4,16.7,10.4,10.4c33.3-29.9,62.4-71.1,103.2-91.2c-3.4-3.4-6.7-6.7-10.1-10.1c-15,19.5-33.9,35.1-51.2,52.4
				c-18.9,18.9-35,40.5-53.1,60.1c-6.6,7.1,3.2,16.4,10.4,10.4c21.6-17.6,39.4-39.1,60.1-57.7c17.5-15.8,33.7-37.6,56.8-45.1
				c-2.8-3.6-5.6-7.2-8.3-10.8c-10.1,23.1-35.7,42.7-52.7,60.9c-18.8,20.1-36.6,41.5-57,60.1c3.5,3.5,7,7,10.4,10.4
				c35-34.6,74.6-91.3,122.3-108.2c-2.8-3.6-5.6-7.2-8.3-10.8c-10.3,21.8-29.1,36.5-45.8,53.2c-17.4,17.4-33.5,35.7-52.4,51.6
				c3.5,3.5,7,7,10.4,10.4c32.9-33,69.6-79.7,113.2-98.2c-3.4-3.4-6.7-6.7-10.1-10.1c-25.5,39.7-69.5,71.4-101.2,106.3
				c-5.5,6,1.7,16.4,8.9,11.6c40.5-26.6,64.2-75.5,109.3-95.5c-3-3.9-6-7.7-8.9-11.6c-30.8,33.1-57.8,69.3-93.2,97.8
				c3.5,3.5,6.9,7,10.4,10.4c25.8-23.1,56-65,90.7-73.6c-3-3-6.1-6-9.1-9.1c-5.9,17.9-25,29.9-38.1,42.2
				c-15.5,14.5-27.5,31.7-43.9,45.4c3.5,3.5,7,7,10.4,10.4c27-25.9,57.2-66.4,90.9-82.8c-3.4-3.4-6.7-6.7-10.1-10.1
				c-10.3,17.2-25.6,28.6-39.7,42.4c-13.1,12.9-24.1,27.6-37.7,40c3.5,3.5,7,7,10.4,10.4c23-23.2,52.5-61,84.5-71.2
				c-3-3-6-6-9.1-9.1c-9.3,22.1-43.6,54.9-63.6,68c3,3.9,6,7.7,8.9,11.6c20.3-24.6,41.6-52.4,73-62.8c-3-3-6-6-9.1-9.1
				c-10.8,26.9-38.1,45.1-59.7,63c3.9,3,7.7,6,11.6,8.9c12.5-16.9,29.2-35.8,50.3-41.3c-3-3-6.1-6.1-9.1-9.1
				c-7.5,18.9-23.3,32.9-39,44.9c3,3.9,6,7.7,8.9,11.6c13.4-15.5,26.9-35.5,47.6-42c-2.8-3.6-5.6-7.2-8.3-10.8
				c-7.8,16.2-19.1,28.7-32.7,40.1c3.5,3.5,7,7,10.4,10.4c7.8-9.7,14.2-17.9,25.5-24.3c-3.7-2.1-7.4-4.3-11.1-6.4
				c-1.4,9.4-5.6,17.4-12.5,24c-5.8,7.3,4.3,17.8,10.4,10.4c3.9-5.8,8.8-10.7,14.6-14.6c-4.1-2.4-8.2-4.8-12.3-7.2
				c-0.8,2.3-1.5,4.6-2.3,6.9c4.1-1.1,8.2-2.2,12.3-3.3c-1.3-1.3-2.6-2.6-3.8-3.8c-6.7-6.7-17.2,3.7-10.4,10.4
				c1.3,1.3,2.6,2.6,3.8,3.8c4.1,4.1,10.6,1.9,12.3-3.3c0.8-2.3,1.5-4.6,2.3-6.9c2.5-7.7-7.1-11.4-12.3-7.2
				c-5.8,3.9-10.7,8.8-14.6,14.6c3.5,3.5,7,7,10.4,10.4c8.7-11.1,15.2-20.4,16.8-34.5c0.6-5.8-6.7-8.9-11.1-6.4
				c-12,6.8-19.8,15.8-28.4,26.6c-5.9,7.4,3,16.6,10.4,10.4c14.6-12.1,26.7-26,35-43.1c2.7-5.5-1.7-12.9-8.3-10.8
				c-23.6,7.4-38.4,27.7-54.1,45.8c-5.1,5.9,1.9,17,8.9,11.6c19.2-14.7,36.7-30.9,45.7-53.7c2.2-5.5-4.1-10.4-9.1-9.1
				c-25.2,6.5-44.2,27.8-59.1,48.1c-5.3,7.2,5.6,13.9,11.6,8.9c24.2-20.1,51.5-39.4,63.5-69.5c2.1-5.2-4.1-10.7-9.1-9.1
				c-34.3,11.3-57.2,39.6-79.5,66.6c-5,6.1,1.5,16.5,8.9,11.6c25.4-16.6,58.4-48.4,70.4-76.8c2.2-5.2-4.2-10.6-9.1-9.1
				c-35.8,11.4-65.6,49.4-91,75c-6.7,6.8,3.4,16.8,10.4,10.4c16-14.6,29.2-31.7,44.7-46.9c12.9-12.6,25.7-23,35-38.6
				c4-6.7-3.7-13.2-10.1-10.1c-35.8,17.4-65.5,57.9-93.9,85.1c-7,6.7,3.3,16.4,10.4,10.4c19.9-16.7,34.9-37.8,54.4-54.9
				c13-11.4,26-22.4,31.5-39.2c1.8-5.5-3.9-10.4-9.1-9.1c-38.8,9.6-68.7,51.9-97.2,77.4c-7.2,6.4,3.2,16.3,10.4,10.4
				c35.4-28.5,62.4-64.7,93.2-97.8c6-6.5-1.5-14.9-8.9-11.6c-45.5,20.1-68.7,68.8-109.3,95.5c3,3.9,6,7.7,8.9,11.6
				c32.8-36,77.2-68.3,103.6-109.3c4.4-6.9-3.9-12.7-10.1-10.1c-45.2,19.2-82.3,66.4-116.2,100.5c-6.8,6.8,3.3,16.5,10.4,10.4
				c21.3-18,39.5-38.8,59.2-58.4c15.7-15.6,31.7-29,41.3-49.3c2.5-5.3-1.6-13.2-8.3-10.8c-51.5,18.3-91.1,74.8-128.8,112
				c-6.8,6.7,3.4,16.8,10.4,10.4c23.1-21.1,43.4-45.5,64.8-68.4c16-17,37.8-33.9,47.3-55.6c2.4-5.4-1.5-13-8.3-10.8
				c-49.4,15.9-84.5,74.9-123.4,106.6c3.5,3.5,7,7,10.4,10.4c18.2-19.6,34.9-40.5,53.1-60.1c17.6-19,37.6-34.8,53.5-55.4
				c4.9-6.4-4.2-13-10.1-10.1c-42.2,20.8-71.8,62.7-106.2,93.6c3.5,3.5,7,7,10.4,10.4c18.7-18.4,33.4-40.3,52.5-58.2
				c16-14.9,32.4-27.1,43.3-46.5c3-5.3-2-13.2-8.3-10.8c-45.3,16.7-68.2,61.8-107.2,87c3.4,3.4,6.7,6.7,10.1,10.1
				c24.4-33.9,60.8-56.5,81.6-93.2c3.7-6.5-3.6-13.7-10.1-10.1c-35,19.3-60.9,49.1-90,75.8c3.9,3,7.7,6,11.6,8.9
				c16.7-32.4,50-50.9,67-83.2c3.7-7-3.5-12.9-10.1-10.1c-35.1,15.1-48.7,54.2-80.1,73.2c3.4,3.4,6.7,6.7,10.1,10.1
				c14.6-33.5,48.1-51.7,63.1-83.9c2.8-6-3.5-14.9-10.1-10.1c-28.8,20.8-50.2,49.1-77.7,71.2c4.1,2.4,8.2,4.8,12.3,7.2
				c9.3-30.8,36.4-51.2,55.5-76c4.7-6.1-4.2-13.6-10.1-10.1c-28.9,17.3-44.3,48-70,68.9c4.1,2.4,8.2,4.8,12.3,7.2
				c10.4-29,41.5-43.3,49.3-73.9c1.9-7.6-6.8-11.6-12.3-7.2C234.1,49.7,221,81.2,195.2,102c3.9,3,7.7,6,11.6,8.9
				c13.2-27.5,36.4-48.8,48.5-76.2c2.8-6.5-3.2-14-10.1-10.1c-8.9,5-13.7,11.1-19.6,19.5c-14.5,20.9-29.1,40.8-46.6,59.4
				c4.1,2.4,8.2,4.8,12.3,7.2c6.5-28.6,30.7-46.1,42.4-72.2c3.2-7.1-5.6-15.6-11.6-8.9c-18,20-25.9,47.6-47,64.7
				c4.2,1.7,8.4,3.5,12.6,5.2c2.4-26,25.9-43.2,35.2-66.6c3-7.7-7.3-11.2-12.3-7.2c-19.8,15.9-44.6,73-70.2,75.6
				c2.1,3.7,4.2,7.4,6.4,11.1c15.9-27.7,35-52.8,59.7-73.2c-4.1-2.4-8.2-4.8-12.3-7.2c-8.8,29.6-23.4,57-45.1,79.1
				c4.2,1.7,8.4,3.5,12.6,5.2c3.1-26.4,23.8-45.9,33.6-69.6c3.3-7.9-9.3-12.6-13.5-5.7c-8.6,14.3-17.9,45.6-34.1,52.1
				c3,3,6,6.1,9.1,9.1c7.5-18.2,26.5-37.5,21.6-58.6c-1.3-5.4-8.6-7.1-12.3-3.3c-21,21.6-34.4,48.3-51.2,73.1
				c4.2,2.5,8.5,5,12.7,7.4c17.9-30.8,40.1-58.6,59.3-88.5c-4.2-2.5-8.5-5-12.7-7.4c-5.6,9-11.4,17.9-16.9,26.9
				c-5,8.1,7.5,15.3,12.7,7.4c4.4-7.6,9.9-14.3,16.6-20.1C193.9,33.3,183.3,23,176,28.8L176,28.8z"/>
		</g>
		<g>
			<path class="st10" d="M416.6,63.4c-4.7,8.2-5.2,18-6.9,27.2c-1.8,9.2,12,13.3,14.2,3.9c2.1-8.9,3.1-17.4,3.3-26.6
				c0.2-8.3-12.7-10.1-14.5-2c-3,13.7-6.8,34.9,5.7,44.9c3.5,2.8,9.2,3.1,11.6-1.5c2.9-5.4,3.7-7.4,5.4-13.3
				c-4.8-0.7-9.7-1.3-14.5-2c0.1,9.2,0.6,18,2.6,27c1.6,7.2,9.1,12.8,9.7,20c4.6-1.2,9.2-2.5,13.7-3.7c-3.5-6.8-8.4-12-13.5-17.7
				c-5.7-6.3-15.8,1.8-11.6,8.9c7.4,12.4,19.7,21.3,25.4,34.6c3.4,7.9,15.6,2.2,13.5-5.7c-5.9-21.6-14.7-42.3-20.8-63.9
				c-1.7,3-3.4,6-5.2,9.1c15.1-3.4,32.5-8.9,34.8-26.3c1-8.2-8.6-18.6-14.7-22.2c-10.3-6.2-18.7-5.8-30.2-2.7
				c-9.2,2.5-5.3,16.7,3.9,14.2c11-3,35.9,7.6,19.5,17.2c-5.1,3-11.6,4.2-17.3,5.5c-3.9,0.9-6.2,5.3-5.2,9.1
				c6.1,21.6,14.9,42.3,20.8,63.9c4.5-1.9,9-3.8,13.5-5.7c-5.8-13.5-18-22.2-25.4-34.7c-3.9,3-7.7,6-11.6,8.9
				c4.2,4.7,8.3,9,11.2,14.7c3.3,6.3,14.4,3.6,13.8-3.7c-0.5-5.5-0.9-7.6-3.4-12.4c-6.5-12.4-8.8-20.6-8.9-34.6
				c0-8.4-12.2-10-14.5-2c-1.3,3.3-2.6,6.5-3.9,9.8c3.9-0.5,7.7-1,11.6-1.5c-7.7-6.2-3.7-22.5-1.9-30.5c-4.8-0.7-9.7-1.3-14.5-2
				c-0.2,7.7-1.1,15.1-2.8,22.7c4.7,1.3,9.5,2.6,14.2,3.9c1.4-7.5,1.5-16.9,5.4-23.6C434.1,62.6,421.3,55.2,416.6,63.4L416.6,63.4z"
				/>
		</g>
		<g>
			<path class="st10" d="M285.9,29.8c0.2,0.1,0.4,0.2,0.6,0.2c-1.9,4.5-3.8,9-5.7,13.5c36.3,15.2,77.5,24,108.4,49.7
				c3-3.9,6-7.7,8.9-11.6C374.7,67,348.7,48,321.8,40.8c-9.2-2.5-13.1,11.8-3.9,14.2c25.6,6.9,50.6,25.5,72.9,39.3
				c7,4.3,15.5-6.2,8.9-11.6c-33-27.5-76-37.2-114.9-53.5c-7.7-3.2-13.3,10.1-5.7,13.5c2.3,1,4.2,1.6,6.8,1.8
				C295.4,45.1,295.4,30.3,285.9,29.8L285.9,29.8z"/>
		</g>
		<g>
			<path class="st10" d="M208.6,109.5c-0.2-1.9-0.5-3.4-1.3-5.1c-4.2,2.5-8.5,5-12.7,7.5c3.5,6.1,13.8,10.8,19.7,14.1
				c3.5,2,7.2,3.3,11.1,4.2c1.7,0.3,3.3,0.7,5,1.1c1.8,0.4,2,1,2,0.7c1.8-2.4,3.6-4.8,5.4-7.1c-0.7-0.3-1.3-0.5-2-0.8
				c-8.5-4.1-16,8.6-7.4,12.7c4.7,2.3,8.2,3,13.4,2.3c3.2-0.5,5.5-4.1,5.4-7.1c-0.1-9-6.4-13.4-14.5-15.3c-4.8-1.1-8.7-2.2-13.1-4.6
				c-2.6-1.5-11.4-6.3-12.2-7.6c-4.9-8.4-16.6-1-12.7,7.5c-0.2-0.8-0.5-1.6-0.7-2.3C195,118.8,209.8,118.9,208.6,109.5L208.6,109.5z
				"/>
		</g>
		<g>
			<path class="st10" d="M268.8,205.1c-5.1,7.4-10.2,14.9-15.4,22.3c-5.1,7.4,5.6,13.8,11.6,8.9c6.6-5.3,10.5-10.2,14.3-17.7
				c3.5-7-3.4-13.1-10.1-10.1c-8.4,3.7-23.3,16.4-13.2,26.5c16.4,16.4,30.3-8.7,46.9-7.4c-2.5-2.5-4.9-4.9-7.4-7.4
				c0,0.8,0,1.5,0,2.3c1.8-2.4,3.6-4.7,5.4-7.1c-10.5,2.1-29.7,0.6-27.1,16.3c4.4,25.5,52.4,11,66,10.5c8.3-0.3,10.1-12.1,2-14.5
				c-17.8-5.1-45.8-13.3-61.8-0.4c-3,2.4-2.8,8,0,10.4c18.4,16.3,48.8,13,71.1,8c7.4-1.6,6.7-12.2,0-14.2
				c-8.3-2.4-16.5-4.9-24.6-7.7c-9.1-3.1-12.6,10.9-3.9,14.2c9.5,3.7,36,4.5,38.7,16.4c0.7,3.2,3.9,5.3,7.1,5.4
				c16.1,0.4,21.9-13.6,10.6-24.9c-2.4,4.1-4.8,8.2-7.2,12.3c1.1,0.4,2.1,0.8,3.2,1.2c6.7,2.5,12.9-7.8,7.2-12.3
				c0.1,0.1,0.2,0.2,0.3,0.3c-4.3-8.5-17-1-12.7,7.4c0.5,1,1.1,2,2,2.7c2.4-4.1,4.8-8.2,7.2-12.3c-1.1-0.4-2.1-0.8-3.2-1.2
				c-7.2-2.7-12.1,7.4-7.2,12.3c-0.1-0.1-0.1-0.2-0.2-0.3c2.4,1.8,4.7,3.6,7.1,5.4c-4.8-21.3-32.6-20.4-49-26.7
				c-1.3,4.7-2.6,9.5-3.9,14.2c8.2,2.8,16.4,5.3,24.6,7.7c0-4.7,0-9.5,0-14.2c-16.2,3.6-43.1,7.9-56.7-4.3c0,3.5,0,7,0,10.4
				c10.1-8.1,36.2,1,47.5,4.2c0.7-4.8,1.3-9.7,2-14.5c-15.8,0.6-32.5,8.7-47.9,1.8c-1.8,1.1-3.6,2.1-5.4,3.2
				c3.1-0.8,6.3-1.3,9.6-1.5c3-0.3,5.8-0.8,8.7-1.3c3.2-0.6,5.4-4,5.4-7.1c0-0.8,0-1.5,0-2.3c0-4.3-3.4-7.1-7.4-7.4
				c-4.9-0.4-8.9-0.4-13.4,2c-3.3,1.5-6.5,3.4-9.5,5.5c-1.8,1.1-13.2,5.2-3.4,0.9c-3.4-3.4-6.7-6.7-10.1-10.1
				c-2.4,6.3-6.4,11.2-11.9,14.7c3.9,3,7.7,6,11.6,8.9c5.1-7.4,10.2-14.9,15.4-22.3C286.9,204.7,274.1,197.4,268.8,205.1
				L268.8,205.1z"/>
		</g>
		<g>
			<path class="st10" d="M434.2,369.8c-0.1-0.8-0.1-1.5,0.1-2.3c0.3-2.4-1.6-5.3-3.7-6.4c-0.5-0.3-1.1-0.5-1.6-0.8
				c0.5,3.9,1,7.7,1.5,11.6c0.2-0.2,0.4-0.3,0.6-0.5c2.6-2.2,2.6-6.2,1.2-8.9c-0.2-0.4-0.4-0.7-0.6-1c-3.4,3.4-6.7,6.7-10.1,10.1
				c7.3,4.6,11.5,10.5,7.1,19.1c-3.4,6.6-7.1,12.2-6.1,20c0.4,3.6,2,5.8,5.4,7.1c1.8,0.7,3.5,1.1,5.4,1.5
				c9.3,1.9,13.2-12.3,3.9-14.2c-1.9-0.4-3.6-0.9-5.4-1.5c1.8,2.4,3.6,4.7,5.4,7.1c-0.6-5,1.7-8.3,4.1-12.5
				c2.4-4.3,3.6-8.6,4.1-13.4c1.2-11.6-7.6-20.3-16.4-25.8c-6.5-4.1-13.5,3.8-10.1,10.1c0.2,0.4,0.4,0.7,0.6,1.1
				c0.4-3,0.8-6,1.2-8.9c-0.2,0.2-0.4,0.3-0.6,0.5c-3.5,3-2.5,9.6,1.5,11.6c0.5,0.3,1.1,0.5,1.6,0.8c-1.2-2.1-2.4-4.3-3.6-6.4
				c-0.1,0.8-0.2,1.5-0.1,2.3C419.9,379.2,434.6,379.3,434.2,369.8L434.2,369.8z"/>
		</g>
		<g>
			<path class="st10" d="M428.6,415c7.2-4.1,18-2.7,26-5.4c7.5-2.5,13.8-6.8,16.6-14.3c2.7-7.3-3.6-15.8-7.5-21.2
				c-7.6-10.5-17-19.7-26.6-28.4c-2.7-2.5-7.8-3.2-10.4,0c-4.6,5.6-6.4,10.3-3.2,17.2c3.7,7.9,8.1,3.5,13.8,3.9
				c-2.1-1.2-4.3-2.4-6.4-3.7c4.2,7.6,11.4,20.3,10,29c4.1-1.1,8.2-2.2,12.3-3.3c-2.7-2.6-4.5-4.1-8.4-4.3c-2.2-0.1-8.4,4.4-5.2,2.4
				c-8,5.1-0.6,17.9,7.4,12.7c1.7-1.1,2.9-2.4,4.1-4c-2.1,1.2-4.2,2.4-6.4,3.7c-0.7,0-1.4,0-2-0.1c3.6,3.5,11.4,2.5,12.3-3.3
				c1.9-11.6-2.2-21.1-7.7-31.1c-2.4-4.3-2.4-11-8.3-12.6c-3.1-0.8-5.8,1.5-8.1,1.3c2.1,1.2,4.2,2.4,6.4,3.7c-1.6-2-1.7-2.3-0.4-1.1
				c-3.5,0-7,0-10.4,0c5.5,5.1,10.8,10.3,15.9,15.7c4.6,4.9,13.4,12.7,14.3,19.8c0.7,5.1-31.4,8.3-35.6,10.7
				C412.9,407,420.3,419.7,428.6,415L428.6,415z"/>
		</g>
		<g>
			<path class="st10" d="M10.4,168.2c17.1,8.8,42.5,41.6,64.4,25.4c3.4-2.5,4.6-6.2,2.6-10.1c-10.6-21.9-43.7-28.7-65.2-32.6
				c-6.6-1.2-13.3,7-7.2,12.3c0.4,0.5,0.8,1.1,1.2,1.6c4.1,8.6,16.8,1.1,12.7-7.5c-0.9-2-1.8-3.1-3.5-4.6c-2.4,4.1-4.8,8.2-7.2,12.3
				c17.6,3.2,47.7,8,56.4,25.9c0.9-3.4,1.8-6.7,2.6-10.1c-7.5,5.5-20.7-4.4-27.1-8.5c-7.8-5-14.2-12.7-22.4-17
				C9.4,151.2,1.9,163.9,10.4,168.2L10.4,168.2z"/>
		</g>
		<g>
			<path class="st10" d="M35,279.5c-16.1,10-2.7,29,6.4,38.8c18.5,19.8,40.7,8.4,63.1,3.2c4.8-1.1,6.6-6.8,4.4-10.8
				c-3-5.6-6.1-9.6-11.1-13.4c-2.8-2.1-6.5-0.7-8.9,1.2c-12.9,10.1-31.1-1.3-39.2-12.4c-3.4,3.4-6.7,6.7-10.1,10.1
				c6.7,4.9,12.2,11.3,18.5,16.6c7.3,6,17.8-4.3,10.4-10.4c-7.4-6.1-13.8-13.2-21.5-18.9c-5.9-4.3-14.4,4.2-10.1,10.1
				c14.4,19.7,41.2,31.9,62.4,15.4c-3,0.4-6,0.8-8.9,1.2c2.5,2.3,4.5,5,5.8,8.1c1.5-3.6,2.9-7.2,4.4-10.8
				c-12.3,2.9-30.8,13.5-42.9,5.9c-2.4-1.5-19.2-18.5-15.4-20.9C50.5,287.2,43.1,274.4,35,279.5L35,279.5z"/>
		</g>
		<g>
			<path class="st6" d="M145.9,140.8c-9.6-2.2-13.7-1.2-18.2,7.8c1.5,0.6,3,1.3,4.5,1.9c0.5-2.3,1-4.6,1.5-6.9
				c0.4-1.9-1.7-4.1-3.6-2.8c-6.9,5-5.2,2.9-9.1,10.6c-1.4,2.8,2.5,5.1,4.2,2.5c3.1-4.7,2.5-3.6,4.4-8.8c0.7-1.9-1.9-4.1-3.6-2.8
				c-6.5,5-5.8,11.9-5.6,19.8c0.1,3.2,4.6,3.1,4.9,0c0.5-5.9,0.5-4.6-0.3-10.4c-0.4-2.9-4.6-1.9-4.8,0.7c-0.6,6.7-0.5,12.1,0.6,18.6
				c0.5,2.8,4.8,2,4.8-0.6c0-8.1,0.6-5.2-2.2-12.7c-0.9-2.5-4.8-2.2-4.8,0.6c0.2,21.7,18.3,36.8,35.3,47.3
				c16.3,10,68.5,31.1,80.5,6.9c-1.4,2.8,2.8,5.3,4.2,2.5c0.1-0.2,0.2-0.3,0.3-0.5c1.1-2.3-1.1-4.4-3.3-3.3
				c-33.1,15.8-111.7-6.5-112.1-52.8c-1.6,0.2-3.2,0.4-4.8,0.6c0.7,3.8,1.3,7.6,2,11.4c1.6-0.2,3.2-0.4,4.8-0.7
				c-1.2-5.8-1.3-11.5-0.4-17.3c-1.6,0.2-3.2,0.4-4.8,0.6c0.1,3,0.1,6.1,0.2,9.1c1.6,0,3.3,0,4.9,0c0,0.1-1.2-15.4-4.3-10.7
				c1.4,0.8,2.8,1.6,4.2,2.5c0.7-1.6,1.5-3.1,2.2-4.7c-0.6,2.6,3.2,4.5,4.5,1.9c4.2-1.9,8.4-3.7,12.7-5.6
				C147.7,146.2,149,141.5,145.9,140.8L145.9,140.8z"/>
		</g>
		<g>
			<path class="st6" d="M183.6,210.2c-0.5,0.4-1,0.8-1.5,1.3c-1,0.9-0.9,2.6,0,3.5c4,4,10.8,6.6,16.4,6.9c3.1,0.1,3.1-4.7,0-4.9
				c-4.3-0.2-9.8-2.4-12.9-5.5c0,1.1,0,2.3,0,3.5c0.5-0.4,1-0.9,1.5-1.3C189.4,211.6,186,208.2,183.6,210.2L183.6,210.2z"/>
		</g>
		<g>
			<path class="st6" d="M121.3,147.6c-0.3,0.5-0.7,1-1,1.5c1.4,0.8,2.8,1.6,4.2,2.5c1.2-2.5,1.7-4.8,2.3-7.5
				c-1.6-0.2-3.2-0.4-4.8-0.7c0,0.3,0,0.5,0,0.8c0,2.6,3.2,3.1,4.5,1.2c6.5-8.9,17.6-12.8,28.2-13.7c9.3-0.8,22.3,16.5,27.8,22.6
				c2.1,2.4,5.5-1.1,3.4-3.5c-7.9-9-18.3-23.5-31.2-24.1c-12-0.6-25.4,6.7-32.4,16.1c1.5,0.4,3,0.8,4.5,1.2c0-0.3,0-0.5,0-0.8
				c0-2.7-4.2-3.4-4.8-0.7c-0.3,2.2-0.9,4.3-1.8,6.4c-1.4,2.8,2.5,5.1,4.2,2.5c0.3-0.5,0.7-1,1-1.5
				C127.3,147.4,123.1,144.9,121.3,147.6L121.3,147.6z"/>
		</g>
		<g>
			<path class="st6" d="M186.7,174.5c-2.7,6.7-6.4,13.7-4.3,20.9c0.3,1.1,1.3,1.8,2.4,1.9c13.9,0.6,15.6-23.5,13.1-33.1
				c-0.5-2-2.8-2.2-4.2-1.1c-6.5,5.1-17.6,43.3-4.5,45.7c17.8,3.2,12.5-35.5,12.8-44.9c0.1-2.9-4.2-3.3-5-0.7
				c-4.3,13.9-6.2,28.9-4.6,43.4c0.3,2.8,4.1,3.5,5,0.7c2-6.2,2.1-11.4,2-18c-0.2-5.3-0.4-10.7-0.6-16c-1.5,0.8-3.1,1.6-4.6,2.4
				c-0.4,6.8-0.3,13.5,0.4,20.3c0.2,2.8,4.3,3.6,5,0.7c2.3-9.4,1.9-7.6,3-17.2c0.3-2.6-3.6-3.4-4.7-1.3c-6.2,11.8-9.4,24.3-8.1,37.6
				c0.3,2.9,4,3.4,5,0.7c4.8-13,6.1-30.1,6.2-43.9c0-2.4-3.6-3.6-4.7-1.3c-5,10.8-7.1,22.8-7.6,34.7c-0.1,3,4.2,3.4,5,0.7
				c1.2-4,8.2-31,5.4-13.3c-1.5,9-1.4,5.6-1.8,14.5c-0.2,3.4,4.7,3.1,5.1,0c1.6-12.4,1.7-24.7,4.7-37c0.8-3.2-4.1-4.5-4.9-1.4
				c-3,11.9-10.4,29.9-3.5,41.5c1,1.7,3.3,1.5,4.4,0c2.8-4,3.8-5.4,4.3-10.7c0.4-3.5,0.7-7.1,0.9-10.6c1.8-6.3,0.5-11.9-3.9-16.9
				c-3.1,12.7-6.4,27.6-2.7,40.3c0.6,2.1,3.6,2.6,4.6,0.6c6.6-12,4.2-31.9,5.7-45.4c0.3-2.5-3.7-3.5-4.7-1.3
				c-4.5,9.4-9.7,38.7-0.4,46.1c0.8,0.7,2.1,1.1,3.1,0.4c10.2-7.5,4.5-34.5,5-45.5c0.1-2.9-4.2-3.4-5-0.7
				c-3.1,11-10.8,38.9-2.3,48.7c0.5,0.6,1.7,1,2.5,0.7c6.9-2.9,5.3-11.7,5.1-18.2c0.9-7.7-0.6-14.9-4.4-21.7
				c-0.7,5.6-0.6,11.6-1.2,17.3c-0.7,7.2-1.2,14.5,3.3,20.4c1.1,1.5,3.3,1.8,4.4,0c3.1-5.2,3.2-8.6,2.9-15
				c-0.4-7.2-4.1-36.9-5.9-13.9c-0.7,8.7-3.7,22.6,2.5,29.9c0.8,0.9,2.1,0.9,3.1,0.4c10.2-5.4,2.9-37.8,2.9-46.3
				c0-2.8-4.3-3.5-5-0.7c-3.1,12.8-4.3,30.3,3.2,41.8c0.9,1.4,3.6,1.9,4.4,0c5.7-12.8-1-27.3,0.6-41.1c0.4-3.3-4.7-3.2-5.1,0
				c-1.4,11.2-6.1,29.8,1.2,39.8c0.6,0.9,1.7,1.6,2.9,1.2c9.8-3.4,5-32.2,5.3-39.3c0.1-2.8-4.5-3.5-5-0.7
				c-2.3,13.2-5.2,29.1,0.8,41.5c1,2.1,4,1.3,4.6-0.6c2.1-6.7,1.7-4.4,1.5-11.9c-0.1-1.9-0.3-3.7-0.4-5.6c2.5-6,1.1-10.2-4.1-12.6
				c-0.2,9.2-0.2,17,3.7,25.4c1,2.2,3.9,1.2,4.6-0.6c3.3-8.3-1.4-9.6-1.6-17.2c0.2,7.6-1.1,13.2,0.7,20.7c0.6,2.6,4.1,2.2,4.9,0
				c9-23.5-4.7,12.9,0.2-15.2c-1.4,7.8-1.5,4.9-0.7,12.4c0.2,2.4,3.4,3.6,4.7,1.3c3.7-6.4,1.2-8.6,1.7-0.8c0.2,3,3.9,3.3,5,0.7
				c-0.6-0.9-1.2-1.9-1.8-2.8c0,3,4,3.3,5,0.7c0.2-1.3,0.3-2.7,0.5-4c1.4,0,2.6-1.2,2.5-2.5c-1.7-59.9-94.9-100-137.7-55.8
				c-20.7,21.5,16,51.1,29.1,62.7c12.8,11.3,59.3,26,69.3,6.1c0.5-1,0.5-2.3-0.4-3.1c-8.2-7.5-20.9-10.8-30.7-16
				c-15.1-7.9-28.5-18.4-45-23.4c-2.1-0.6-4.1,1.9-2.9,3.7c14.1,22.4,34.8,31.9,59,37.8c2.7,0.7,4.7-3.4,2-4.6
				c-23.5-11.1-40.9-33.1-64.7-44.4c-2.2-1-4.9,1.1-3.5,3.5c8.3,14,29.8,41.7,48,41.2c1,0,2.3-0.7,2.4-1.9
				c2-13.8-37.3-43.8-49.4-34.8c-1.3,1-1.7,2.7-0.5,4c8.2,8.5,33.9,36,46.7,25.1c1-0.9,0.9-2.7,0-3.6c-14.9-14-32.3-24.7-48.1-37.7
				c-2.5-2-6,1.3-3.6,3.6c16.2,15.2,39.9,42.1,64.3,40.8c1.9-0.1,3.2-2.1,2.2-3.8c-12.3-20.5-37.4-35.6-56.2-49.8
				c-2.3-1.7-5.3,2.2-3.1,4c18.1,14.7,35.8,40.8,58.8,47.7c2,0.6,4.2-1.9,2.9-3.7c-13.9-19.2-36-37.2-54.6-51.8
				c-2.5-2-6,1.2-3.6,3.6c13,12.9,36.6,46.7,58.2,46.4c2.4,0,3.1-2.7,1.8-4.3c-13.3-17.1-32.9-36.7-51-48.8
				c-2.8-1.9-5.1,2.5-2.6,4.4c17.2,13.2,32.7,36.7,52.4,45.4c1.2,0.5,2.8,0.4,3.5-0.9c0.1-0.2,0.2-0.4,0.3-0.5
				c0.6-1.1,0.3-2.1-0.4-3.1c-5.8-7.4-12.9-13.1-19.8-19.5c-4.1-3.9-8.1-7.8-12.2-11.7c4.8,4.5-23.2-18.4-14.9-8.9
				c11.9,13.5,25.2,29.4,43.6,32.9c2.4,0.5,4.3-2.3,2.5-4.2c-13.5-14.1-24.8-29.8-40.6-41.5c-2.1-1.5-4.8,1.4-3.5,3.5
				c6.6,9.9,28.9,41.1,42.5,39.5c1.5-0.2,2.4-1,2.5-2.5c0.6-5-6.5-10.8-9.3-13.9c-4.8-5.2-9.9-10.2-15-15.1c-2.1-2-4.2-4.1-6.3-6.1
				c-1.9-3.3-3.8-2.9-5.5,1.4c8.6,7,27.2,40,40.1,36.2c0.8-0.2,1.6-0.9,1.8-1.8c2-11.5-15.4-21.5-22.4-28.6
				c-17.3-17.5,2.7,4.7,7.7,10.9c3.1,3.8,6.3,8.8,11,10.7c1.6,0.6,3.2-0.9,3.2-2.4c0-8.2-11.8-15.1-17.2-19.6
				c-2.6-2.1-5.2-4.2-7.8-6.3c-11.6-9.3,11.5,11.2,15.2,15.1c4.4,4.7,7.6,7.7,13.5,9.8c2.4,0.9,4.2-2.5,2.5-4.2
				c-12.4-12-28.2-21.4-42.2-31.7c-2.3-1.7-5.3,2.2-3.1,4c8.9,7.4,18.1,11.4,29.6,13.7c9.2,1.8,6-1.1,0.5-4.6
				c-8.4-5.2-17.8-8.7-26.2-13.9c-2.8-1.7-5.3,2.6-2.6,4.4c9.5,6.3,19.8,7.4,30.7,10.1c7,1.8-10.8-7.2-9.6-6.7
				c-1.8,0.3-3.6,0.5-5.4,0.8c2.8,1.2,5.8,2.1,8.8,2.7c3.8,1.2,10.8,4.1,13.9,4.6c-6.8-1.2-13.8-5.3-20.2-7.9
				c-8.6-3.6-18.7-6.4-27.7-3.5c-1.4,0.5-2,1.7-1.8,3.1c1.5,10.3,17.7,20.7,27.6,20.9c1.2,0,2.1-0.8,2.4-1.9
				c3.4-10.6-11.2-22.5-18.8-27.5c-1.3-0.8-3.5-0.1-3.7,1.5c-1.7,11.5-0.6,25.7,6.4,35.4c1.3,1.8,3.9,1.6,4.6-0.6
				c4-11.3-0.7-20.9-7.9-29.7c-1.8-2.2-4.6,0.3-4.2,2.5c1.3,8,2.2,29.9,13.2,31.2c1.2,0.1,2.1-0.9,2.5-1.9
				c4.7-11.5-21.7-25.4-30.4-25.4c-16.5,0-2.6,30.2,1.3,35.9c1.3,1.9,3.8,1.5,4.6-0.6c5-13.1-2.2-27.7-11.9-36.7
				c-1.7-1.6-4.2-0.4-4.3,1.8c-0.9,12.7,3.2,28.3,9.2,39.5c1,1.9,4.2,1.6,4.6-0.6c2.8-13.8-2.5-31.2-14.5-39.2
				c-1.7-1.1-3.7,0.4-3.8,2.2c-1,13.6,3.8,33.9,13.3,44.3c1.2,1.3,3.9,0.7,4.2-1.1c2.8-15.5-3.6-31.3-16.1-40.8
				c-1.6-1.2-3.9,0.4-3.8,2.2c0.5,14,2.7,30.9,10.2,43c1.3,2.1,4.8,1.3,4.7-1.3c-0.2-9.6-2.5-15.5-7.3-23.7c-1.2-2-5.1-1.3-4.7,1.3
				c1,7.9,2.5,15.9,7.3,22.4c1.2,1.7,4.1,1.7,4.6-0.6c1.2-4.7,1.1-4.4,1.4-9.5c6.9,1.4,11.7-0.8,14.4-6.8
				c-0.8-6.3-1.5-12.6-1.8-18.9c-0.2-2.8-4.2-3.6-5-0.7c-2.1,8.3-7.8,24.7-3,32.7c0.5,0.9,1.8,1.6,2.9,1.2
				c8.7-3.6,9.8-20.2,11.7-28.1c-4.4,0.1-5.7,2.5-3.9,7c0.2,22.2-8.4,13.2-16.5,15.4c-6,1.6-5.6,3.8-6.9,9.3
				c-0.5,2.3,1.7,3.8,3.7,2.9c6.1-3,9.7-6.4,14.1-11.6c2.1-2.5-1.3-6-3.6-3.6c-0.6,0.7-7.3,6.7-6.7,8.9c-0.8-3.2-5.7-1.8-4.9,1.4
				c0.4,1.4,0.7,2.8,1.1,4.3c0.4,1.7,3,2.7,4.2,1.1c2-2.7,4.1-5.3,6.4-7.7c2.1-2.4-1.3-5.9-3.6-3.6c-2.7,2.8-2.7,2.7-4.7,5.9
				c-1.8,2.8,2.6,5.2,4.4,2.6c8.5-12.6-7.3-4.6,7.2-4.9c2,0,4.2-1.5,5.5-2.8c6.5-6.5,5.7-19.2,4.8-27.3c-0.3-2.7-4.3-3.7-5-0.7
				c-1.6,7.1-7,17.4-6.6,24.5c-0.4-6.3,1.6-13,2.8-19.2c1.8-6.1,0.8-5.3-2.8,2.6c0.9,6.3,1.5,12.6,1.7,18.9c0.2,3.3,4.8,3.3,5.1,0
				c0.5-7.3-3.6-29.9-15.8-17.7c-4.6,4.6-2.7,21.8-6,10.7c3.5,11.9-3.2-25.6,4.5-6.4c2.4,6-4.8-10.8-5.5-13c4.5,2,6.9,5.4,7.1,10.3
				c1.9,2.6,1.8,0.8-0.4-5.3c-4.5-24.2,14,33.1,1.9,2.1c-5.4-13.9,8.2-14,16.4-8.2c8.5,6,8.1,2.1,6.3-5.7c-4.6-19.6,2,20.1-1.6-4.6
				c5.4-7.2,7.6-5.5,6.8,5.2c-6.8-2.5-6.8-6.1,0-10.6c11.8,2.1,24.1,14.1,36.4,10.8c1.1-0.3,1.9-1.3,1.9-2.5
				c-0.6-13.9-27.1-13.6-35.8-17.8c-2.4-1.2-5.4,2-3.1,4c11,9.1,24.6,15.5,38.3,19.3c2.6,0.8,4-2.4,2.5-4.2
				c-8.5-10.4-22.1-11.4-34.6-14.1c-19.2-4.2,10.4,11.7,12.5,12.8c6.8,3.4,9.6,6.3,17.1,6.8c2.2,0.2,3.4-2.9,1.8-4.3
				c-4.9-4.5-8.6-5.6-15.4-7.2c-3.8-0.6-7.5-1.5-11.1-2.8c-27.3-8.2-6.2,4.3-1,8.1c9.1,6.9,24.3,15.6,10.1,0.2
				c-5.5-5.9-13-8.7-20.3-11.6c-2.4-0.9-4.3,2.6-2.5,4.3c8.6,7.5,21.2,14.3,28.5,21.4c-10.8-10.3-16.2-20.7-30.3-27.3
				c-2.5-1.2-5.3,1.9-3.1,4c6.7,6.5,12.8,13.9,19.9,19.9c2.5,2.1,15.1,16.1,5.9,7.2c-9.6-9.2-17.2-20.7-27.6-29.1
				c-2.5-2-5.9,1.2-3.6,3.6c7,7.1,14.2,13.9,21.2,21c3.6,3.7,9.7,10.2,11.9,11.2c-6.2-2.7-12-10-16.7-14.7
				c-3.9-3.8-7.5-7.9-11.1-11.9c-12.8-14.1,1.4,4.5,6.1,9.4c3,3.2,23.7,22.4,11.6,16.2c-11.8-6-25.9-23.1-32.8-33.8
				c-1.8-2.7-6.2-0.2-4.4,2.6c9.1,14.1,21.2,25.1,33.4,36.4c7,6.5,17.7,13.7,3.5,0.6c-8.4-7.8-15.9-16.4-24.6-23.9
				c-9.3-8.1-12.2-3.5-4.2,4.4c8.1,8,16.7,15.3,24.8,23.3c16.3,15.9,4.2,6.6-5.6-1.9c-7.1-6.2-13.7-13-20.3-19.6
				c-2.6-7.1-6.3-8.8-10.8-5.1c4.3,3.7,8.4,7.6,12.4,11.6c8.1,7.9,16.5,15.4,24.9,22.9c12.3,11-20.5-17.7-23.5-20.6
				c-11.6-11.1-27-17.7-0.4,3.1c9.1,7.2,17.5,15.4,25.7,23.5c-6,0.8-11.1-0.8-15.3-4.9c-6.1-4.5-12.1-9.2-17.9-14
				c-4.5-3.7-9-7.5-13.3-11.4c-3.4,1.4-4.3,2.6-2.6,3.6c11.5,8.6,23.4,16.7,34.5,25.8c-2-1.7-15.3-7-19.2-10.1
				c-3.9-3.1-7.6-6.4-11.2-9.7c4.8,4.4,16.2,8.8,22.1,12.7c14.4,9.1,14.8,11,1.1,5.9c-3.2-3.3-6.3-6.7-9.3-10.2
				c-3.2-3.6-22.6-17.9-6.6-8.1c9.4,5.8,18,13.3,26.8,19.8c5.2,4,10.4,8,15.6,11.9c3.2,4.5,5.1,4.4,5.8-0.5
				c-19.1-4.6-22.3-6-37.2-19c-17.3-15.2,8.2,0.6,12.4,3.2c9.4,5.9,19.6,10.8,29.5,15.6c24,11.6-12.4,9.3-18.4,8.5
				c-15.9-2.2-28.9-10.7-40-21.9c-5.9-4.6-11-9.8-15.5-15.9c-5.2-24.6,1.8-39.1,21.1-43.7c13.3-4.8,29.2-1.9,42.1,2.1
				c13.2,4.1,25.7,9.9,37.5,17.2c11.4,6.2,19,15.5,23,28c1.6,5.8,3.3,11.6,5.1,17.4c-1.2,0-2.1,0.8-2.4,1.9c0.9,0.2,1.9,0.4,2.9,0.7
				c0-3-4-3.2-5-0.7c1.9,5.1,2.1,4.4,0.7-2.3c-0.3-2.2-3.5-3.9-4.7-1.3c-6.1,13.3,0.4-2.1,0.9-5c0.5-2.6-3.4-4.8-4.6-2
				c-6.4,14.1-1.9,3.2-2.2-5.7c-0.1-2.8-4.3-3.5-5-0.7c-1.9,7.3-1.6,4.9-1.4,12.8c-0.1-6.3-0.2-12.5,0-18.8c0.1-3.3-4.7-3.2-5.1,0
				c-0.9,8.4-0.7,16.7,0.1,24.4c0.1-3.9,0.2-7.7,0.4-11.6c-1.2-3.3-2.4-6.5-3.6-9.8c-0.1,5.1-0.2,10.1-0.2,15.2
				c0,10.6-0.7,2.7-0.6-3.5c0.1-2.7,0.2-5.3,0.3-8c0.4-11.7-4.4-5.8-4,2.3c0.1,3.4,1,16.7,0.9,3.6c0.9-3.9-0.3-7.3-3.5-10
				c0,6.8,0.5,13.6,1,20.4c1,12.6,0-1.4,0.1-4.7c0.3-8.6,1.2-17.3,2.3-25.9c0.4-2.8-4.4-3.4-5-0.7c-2.7,12.6-1.4,24.2-0.8,37
				c-0.6-12,0.1-24,1.5-36.1c0.3-2.8-4.6-3.5-5-0.7c-1.6,10.5-1.9,19.9-1.7,30.6c0.3,12.3-0.2,3.1,0.5-3.8
				c1.1-11.2-1.4-11.8-0.8-24.6c-0.3,8,0,16.1-0.2,24.1c-0.1,5-0.2,23.6-1.4,5.2c-0.1-3.6,0-7.2,0.2-10.8c0.1-1.8,0.3-3.6,0.4-5.5
				c3.6-8.8,2.7-11-2.8-6.6c-1,9.1-2,17.6-1.8,26.8c-0.3-11.5,4.5-26.6,7.2-37.9c0.8-3.2-4.1-4.5-4.9-1.4
				c-2.2,8.7-2.8,16.5-3.3,25.5c-0.9,16.2-2.7,10,0.2-3.1c2.8-12.9-3.4-9.3-4.4,2.3c-1.8,21.3,6.3-0.2,5.8-8.3
				c-0.2-2.6-3.2-3.3-4.7-1.3c-4.7,6.4-6.9,12-9.2,19.5c3.8-3.6,5.9-8,6.1-13.2c-3.8-0.8-5.2,1.4-4.1,6.7
				c-1.5,6.9,0.9,11.6,1.5,17.9c-1.3-13.6,4.9-30.4,5.1-44.5c0-3.3-4.8-3.2-5.1,0c-0.6,8-0.3,15.7,0,23.8c0.1,3.6,2.2,20.2,2.7,3.1
				c0.6-4.7,1.2-9.4,1.8-14.1c2.1-4.6,1.4-8.9-1.9-12.7c-0.2,5.3,0.1,10.6,0,15.8c-0.1,6.1-0.7,12.1-2,18.1c-1.9-0.5-3.8-1-5.7-1.5
				c-0.2-4.8,0.1-9.6,1-14.3c0.5-3.6,6.2-19.4,2.4-1.8c-5.7,8.3-7,8.7-3.9,1.3c0.9-2.4,1.8-4.7,2.8-7
				C192.8,172.8,187.9,171.5,186.7,174.5L186.7,174.5z"/>
		</g>
		<g>
			<path class="st6" d="M219.3,166.8c0.3,5.6,2.9,10,5.5,14.8c2.8,5.2,2.4,10.4,4.2,15.8c3.2,9.9,17.2,7.8,17.8-2.4
				c0.5-8.6-0.5-17.1-1.8-25.6c-5.8,1.6-11.7,3.2-17.5,4.8c0.7,4.4,1.9,8.6,2,13c0.1,11.7,18.2,11.7,18.1,0c0-6.1-1.6-11.9-2.6-17.9
				c-0.8-4.9-6.8-7.5-11.1-6.3c-5.2,1.4-7,6.3-6.3,11.2c1,6.9,1.6,13.8,1.1,20.8c5.9-0.8,11.9-1.6,17.8-2.4
				c-1.7-5.2-1.7-10.5-4-15.7c-1.1-2.6-4.9-7.5-5-10C236.8,155.2,218.7,155.1,219.3,166.8L219.3,166.8z"/>
		</g>
		<path class="st15" d="M157,133.9c-8.3,0-14.3-0.8-20.8,4.5"/>
		<path class="st15" d="M127.1,163.4c0.4,9.1,9.3,14,14.7,20c5.3,5.9,10.9,12.5,17,17.1c13.3,10,30.4,12,46.5,12
			c9.7,0,19,0.7,28.7-0.8"/>
		<path class="st15" d="M224.2,155.8c-3-1.5-6.2-5.4-9.7-5.6c-0.2,3.1-0.6,6.1-0.5,9.3c-0.8-2.9-4.4-5.6-6.8-7.1"/>
		<path class="st15" d="M193.6,145.6c1,5.8,13.8,9.7,17.8,14"/>
		<path class="st15" d="M208.4,151.3c2.2,5,7.8,9.2,11.3,13.2"/>
		<path class="st15" d="M245,174.7c-0.6,2.9,1.7,8.7,2.1,11.8c0.7,4.8,2.5,9.4,1.7,14.2c-0.8,4.6-5,9.9-8.7,12.9"/>
		<path class="st15" d="M127.9,149.8c0,6.3,0.3,10.5,2.6,16.2"/>
		<path class="st15" d="M132.4,181.9c4.6,11.1,18.4,16.1,27.2,22.3"/>
		<g>
			<path class="st6" d="M122.4,161.9c-1.2,2.7-1.3,5.9-0.7,8.8c0.3,1.4,1.3,2.4,2.5,3c0.9,0.5,0.7-0.5,0.6,0.7c-0.1,1,0,2,0.4,3
				c1.5-0.6,3-1.3,4.5-1.9c-0.8-1.1-1.4-2.2-2-3.3c-1.5-2.8-5.7-0.3-4.2,2.5c0.6,1.2,1.3,2.3,2,3.3c1.5,2.1,5.5,0.9,4.5-1.9
				c-0.8-2.2,0.2-3.5-1.4-5.6c-0.8-1.1-2.1-0.5-2.3-1.9c-0.1-1.2-0.2-3,0.3-4.2C127.9,161.5,123.7,159.1,122.4,161.9L122.4,161.9z"
				/>
		</g>
		<g>
			<path class="st6" d="M162.2,133.8c-1-3.8,15.2,2,17.3,2.8c0.4-1.6,0.9-3.1,1.3-4.7c-5.1-1.8-9.8-3.8-15.3-3.7
				c-3.2,0.1-3.1,4.6,0,4.9c8.4,0.9,16.2,1.6,24.5,3.5c0-1.6,0-3.1,0-4.7c-5.6,1.6-12,0.6-16.4-3.5c-0.6,1.4-1.2,2.8-1.7,4.2
				c6.1-0.2,15.9-1.3,20.6,3.4c0.6-1.4,1.1-2.8,1.7-4.2c-5.6,0-10.2-2.3-15.3-4.3c-0.4,1.6-0.9,3.1-1.3,4.7
				c6.2,1.4,11.3,4.2,17.7,5.1c0.2-1.6,0.4-3.2,0.6-4.8c-2.7,0.7-5.1,0-7.4-2.1c-1.3,1-2.6,2-3.8,3c3.1,2.5,29,13.3,30.4,10.6
				c-0.9,1.6,0.2,3.7,2.1,3.7c0.1,0,0.2,0,0.3,0c3.1,0,3.1-4.9,0-4.9c-0.5,0-1,0-1.5,0c-3.1,0-3.1,4.9,0,4.9c0.5,0,1,0,1.5,0
				c3.1,0,3.1-4.9,0-4.9c-0.1,0-0.2,0-0.3,0c0.7,1.2,1.4,2.5,2.1,3.7c2-3.7-0.9-5.6-4.2-7.1c-8.9-4.1-19-3.1-27-9.5
				c-2-1.6-5.4,0.4-3.8,3c2.7,4.2,6.7,5.2,11.6,4.5c2.5-0.3,3.6-4.3,0.6-4.8c-6.3-1-11.6-3.8-17.7-5.1c-3.1-0.7-4.2,3.6-1.3,4.7
				c5.5,2.2,10.6,4.4,16.6,4.5c2.1,0,3.2-2.7,1.7-4.2c-5.7-5.8-16.5-5.1-24.1-4.8c-2,0.1-3.4,2.7-1.7,4.2c5.6,5.2,13.8,6.8,21.1,4.7
				c2.3-0.6,2.4-4.1,0-4.7c-8.8-2-16.9-2.7-25.8-3.7c0,1.6,0,3.3,0,4.9c5-0.1,9.4,1.8,14,3.5c3,1.1,4.2-3.6,1.3-4.7
				c-8.4-3.1-14.5-5.4-22.4-0.5c-0.9,0.6-1.4,1.7-1.1,2.8c0.1,0.3,0.2,0.7,0.3,1C158.3,138.1,163,136.8,162.2,133.8L162.2,133.8z"/>
		</g>
		<g>
			<path class="st16" d="M172.7,136.1c-0.6,2.8-0.2,5.2,0.3,8c0.4,2.8,4.7,2,4.8-0.7c0.1-3,0.2-5.5-1.4-8.2
				c-1.2-2.2-4.5-1.2-4.5,1.2c-0.1,3.2-1.2,7.5,0.6,10.5c1.5,2.5,3.2,2.5,5.9,2.7c4.8,0.3,12.8,1.3,16.8-2.2
				c4.9-4.3-3.7-9.1-6.7-10.4c-2.8-1.2-5.7-2.1-8.7-3c-3.1-0.9-4.7-1.6-7.2,1.2c1.4,0.6,2.8,1.1,4.2,1.7c-0.1-0.6-0.1-1.2,0-1.8
				c-1,0.8-2.1,1.6-3.1,2.4c3.9,1.2,7.4,3.6,10.5,6.3c0.4-1.4,0.7-2.7,1.1-4.1c-2.7,0.5-5.1-0.8-7.5,1c-1.7,1.3-1.5,3.6,0.6,4.5
				c4.1,1.6,8.2,1.2,11.9-1.3c1.2-0.8,1.8-2.8,0.5-3.8c-0.6-0.4-1.2-1-1.8-1.5c-0.8,1.4-1.6,2.7-2.4,4.1c1.1,0.2,2,0.4,3.1,0.8
				c0.2-1.6,0.4-3.2,0.6-4.8c-1.5-0.1-2.2,0.5-3.3,1.5c-2.3,2.2,1.2,5.6,3.4,3.4c0.7-0.6,0.7-0.7-0.2,0c2.9,0.1,3.1-3.9,0.6-4.8
				c-1-0.4-2-0.6-3.1-0.8c-2.3-0.4-4.2,2.3-2.4,4.1c0.5,0.6,1.1,1.1,1.8,1.5c0.2-1.3,0.3-2.5,0.5-3.8c-2.7,1.8-5.1,2-8.1,0.8
				c0.2,1.5,0.4,3,0.6,4.5c1.4-1.1,4.5-0.2,6.3-0.5c1.8-0.3,2.4-2.9,1.1-4.1c-3.7-3.2-7.9-6.1-12.6-7.6c-1.6-0.5-2.9,0.8-3.1,2.4
				c-0.1,0.6-0.1,1.2,0,1.8c0.2,1.9,2.6,3.5,4.2,1.7c0.4-0.6,1-1.1,1.5-1.5c-0.8,0.2-1.6,0.4-2.4,0.6c3,1,6.1,1.8,9.1,2.8
				c1.8,0.6,3.5,1.4,5.1,2.3c0.7,0.4,1.3,0.9,1.9,1.5c0.4,0.4,0.3-0.3-0.1-0.2c-3.5,1.2-7.9,0.8-11.5,0.7c-0.8,0-1.7-0.1-2.6-0.1
				c-1.8-0.1-0.4-0.1-0.5-0.4c-0.9-2.3,0-5.4,0.1-7.8c-1.5,0.4-3,0.8-4.5,1.2c1.1,1.8,0.7,3.7,0.7,5.7c1.6-0.2,3.2-0.4,4.8-0.7
				c-0.3-1.8-0.6-3.5-0.3-5.4C178,134.3,173.3,133,172.7,136.1L172.7,136.1z"/>
		</g>
		<g>
			<path class="st13" d="M143.1,93.6c-5.6,1.6-13.4,4.5-9.5,11.9c3,5.8,12.2,3.1,12.6-3c0.4-5.1-4.3-13.1-10.2-8.9
				c-4.2,3-4.5,12.3,1.2,13.7c1.3,0.3,2.6-0.4,3-1.7c0.4-1.4,0.3-2.8-0.2-4.2c-0.3-0.8-0.7-1.6-1.1-2.4c-0.2-0.4-0.4-0.7-0.5-1.1
				c-0.1-0.8-0.3-0.7-0.5,0.2c0.7-0.5,2.2-0.4,3-0.2c-0.1-0.5-0.1-0.5-0.1,0c-0.1,0.4-0.2,0.7-0.4,1c-0.7,1.4-1.7,2.7-2.6,4
				c-1,1.4,0.3,3.9,2.1,3.7c4.7-0.6,8.6-5.2,6.7-10c-1.1-2.9-5.7-1.7-4.7,1.3c0.1,0.4,0.2,0.7,0.2,1.1c0.1,3.2,4.7,3.1,4.9,0
				c0-0.2,0-0.4,0-0.7c0.1-1-0.8-2.2-1.8-2.4c-0.2,0-0.4-0.1-0.5-0.1c-3.1-0.5-4.4,4.2-1.3,4.7c0.2,0,0.4,0.1,0.5,0.1
				c-0.6-0.8-1.2-1.6-1.8-2.4c0,0.2,0,0.4,0,0.7c1.6,0,3.3,0,4.9,0c0-0.8-0.1-1.6-0.3-2.4c-1.6,0.4-3.1,0.9-4.7,1.3
				c0.6,1.5-0.1,3.6-2,3.8c0.7,1.2,1.4,2.5,2.1,3.7c2.6-3.6,6.8-11-0.4-12.3c-3.1-0.6-6.9,0.2-8.1,3.4c-1,2.8,2.7,5.3,2,7.8
				c1-0.6,2-1.1,3-1.7c-1.6-0.4-0.3-4,0.2-4.9c1.1-2,2.7,3.6,2.7,4.1c0,2.9-4.4,2.4-3.8-0.5c0.4-1.9,5.3-2.5,6.9-3
				C147.4,97.4,146.1,92.7,143.1,93.6L143.1,93.6z"/>
		</g>
		<g>
			<path class="st13" d="M306.3,154.7c-4.9-1-7.2,3.6-7.7,7.7c-0.6,5,2.3,10,7.3,11.2c5.9,1.5,12.6-2.8,14.2-8.6
				c1.9-7-5.9-10.7-11.5-11.1c-6.1-0.5-12.7,2.9-13.8,9.3c-1.2,6.7,3.4,12.3,9.9,13.4c6.2,1,13.3-2.1,15.1-8.3
				c1.7-5.7-3.4-12.7-9.3-13.1c-10.7-0.6-15.5,19.5-3.6,19.6c5.5,0.1,9.4-5.9,8.6-10.8c-0.9-6-9.8-6.6-11.4-0.7
				c-1.3,4.7,3.4,8.9,8,7c4.5-1.9,5.3-8.6,0.6-10.8c-4.7-2.2-8.4,4-6.7,8c2.2,4.9,8.6-0.2,9.2-3.5c0.3-2.2-1.5-3.6-3.6-2.7
				c-2,0.8-3,2.2-3.4,4.3c-0.5,2.1,1.7,3.8,3.6,2.8c2-1,3.1-2.7,3.7-4.8c0.7-2.8-2.9-4.1-4.5-1.9c-0.5,0.7-1.3,1.2-1.9,1.8
				c-2.4,2.1,1.1,5.5,3.4,3.4c1-0.9,1.9-1.7,2.7-2.8c-1.5-0.6-3-1.2-4.5-1.9c-0.1,0.9-0.6,1.6-1.4,1.9c1.2,0.9,2.4,1.8,3.6,2.8
				c0-0.8,0.4-1.3,1.2-1.4c-1.2-0.9-2.4-1.8-3.6-2.8c0,0.5-0.2,1-0.5,1.4c-0.8,0.3-0.7,0.7,0.3,1.2c-0.3-2.4,1.9-0.7,0,0.6
				c-2.4,1.7-0.7-4,0.5-0.4c0.6,1.8-1.5,3.5-2.7,4.3c-3.7,2.3-3.4-3-2.9-4.9c0.7-2.5,2.5-5,5.3-4.5c2.2,0.4,3.7,2.4,4.4,4.4
				c0.9,2.9-1,5-3.4,6.3c-3.9,2.2-10.1,1.3-11.8-3.3c-2-5.6,3.1-8.6,7.9-8.7c4.9-0.1,10.3,3.5,5.7,8.1c-2.9,2.8-8.3,3.1-9.7-1.2
				c-0.3-0.8-0.6-6.7,1.2-6.3C308.1,160,309.4,155.3,306.3,154.7L306.3,154.7z"/>
		</g>
		<g>
			<path class="st17" d="M142.8,97.9c-2,0.5-2.6,1.7-2.8,3.6c-0.1,1.3,1.2,2.5,2.4,2.4c1.2,0,2.2-0.3,3-1.2c2-2.4-1.4-5.9-3.4-3.5
				c0.1-0.1,0.3-0.1,0.4-0.2c0.8,0.8,1.6,1.6,2.4,2.4c-1.4,1-1.6,1.3-0.8,1.1C147.2,101.9,145.9,97.2,142.8,97.9L142.8,97.9z"/>
		</g>
		<g>
			<path class="st17" d="M313.6,160.7c-7-0.6-8.5,8.2-2.7,11.2c7.8,4,11-11.5,2.2-10.4c-3.1,0.4-3.1,5.3,0,4.9
				c0.6-0.1,0.4,2.2-0.7,0.3c-0.8-1.4,0.3-1.2,1.3-1.1C316.8,165.9,316.7,161,313.6,160.7L313.6,160.7z"/>
		</g>
		<g>
			<path class="st10" d="M356.7,256c-0.5,0-1,0.1-1.5,0.1c-4,0.1-7.4,3.3-7.4,7.4c0,0.4,0,0.8,0,1.2c0,4.1,3.4,7.2,7.4,7.4
				c13.6,0.5,25,2.7,38.9,1.5c14-1.2,27.2-3,40.5-8c-1.9-4.5-3.8-9-5.7-13.5c-0.5,0.4-1,0.8-1.5,1.1c-7.5,5.7-0.2,18.5,7.4,12.7
				c0.5-0.4,1-0.8,1.5-1.1c6.1-4.6,2.8-16.7-5.7-13.5c-13.6,5.2-27.3,6.6-41.7,7.9c-11.7,1-22.2-1.6-33.7-2c2.5,2.5,4.9,4.9,7.4,7.4
				c0-0.4,0-0.8,0-1.2c-2.5,2.5-4.9,4.9-7.4,7.4c1.9,0,3.6-0.3,5.4-0.6C370,268.5,366,254.2,356.7,256L356.7,256z"/>
		</g>
		<g>
			<path class="st10" d="M413.3,352c-0.3,0-0.6-0.1-0.9-0.1c2.1,3.7,4.2,7.4,6.4,11.1c-1.9,1.6-1.8,1.8,0.3,0.3
				c1.5-0.9,3-1.7,4.6-2.2c-2.8-3.6-5.6-7.2-8.3-10.8c-4.8,6.7-3.4,14.1-0.9,21.5c1.7,4.9,3.3,9.3,4.3,14.4
				c1.4,7.4-2.6,11.3-2.5,18.3c0.3,18.5,16,17.7,28.4,9.8c11.4-7.2,27.3-17.5,28.7-32.2c0.7-7.7-7.9-15.5-12.7-20.3
				c-7.2-7.1-14.2-12.7-22.1-18.8c-3,3.9-6,7.7-8.9,11.6c7.5,4.9,13.8,11.1,19.9,17.6c6.6,7.1,9.8,14.1,14,22.5
				c3.9-3,7.7-6,11.6-8.9c-0.8-0.6-1.5-1.3-2.3-1.9c-7.2-6-17.7,4.3-10.4,10.4c0.8,0.6,1.5,1.3,2.3,1.9c6.4,5.3,15.5-1.2,11.6-8.9
				c-2.1-4.1-2.3-7.8-4.8-11.8c-2.5-3.8-5.8-7.2-8.8-10.7c-7.6-8.7-15.9-16.6-25.5-22.9c-6.9-4.5-15.6,6.4-8.9,11.6
				c8.6,6.7,16.4,13.1,24.2,20.9c4.1,4,7.9,7.1,3.6,12.2c-3.8,4.5-8.8,8.1-13.5,11.4c-3.1,2.3-6.3,4.4-9.7,6.3
				c-5.2,2.9-0.9-2-0.1-4.4c0.9-2.4,2.2-5.9,1.9-8.5c-0.6-5.1-1.6-10.1-2.7-15.2c-1.2-5.2-7.4-13.2-3.7-18.4
				c3.7-5.2-2.4-13-8.3-10.8c-4.4,1.6-11.7,4.1-13.8,8.7c-2.5,5.4,0.5,10.4,6.4,11.1c0.3,0,0.6,0.1,0.9,0.1
				C422.8,367.8,422.7,353.1,413.3,352L413.3,352z"/>
		</g>
		<g>
			<path class="st18" d="M165.5,251.4c-17.2,10.3-10.9,56.3-0.4,70c2.4,3.2,6.3,4.9,10.1,2.6c18.4-10.8,19.4-49.1,4.2-64.2
				c-17.4-17.4-22.6,21.3-23.2,29.7c-0.5,8.1,0.4,53.1,20.9,41.1c17.5-10.3-0.1-49.3-6.1-62c-11-23.5-39-8.4-34.3,14.1
				c1.4,6.8,17,63.5,32.9,36.4c5.3-9,0.6-24-4-31.9c-5.8-9.9-17.2-37.4-28.4-41.9c-30.2-12-16.3,34.8-8.2,46.5
				c3.7,5.3,14.7,4.3,13.7-3.7c-1.7-13.7-9.9-21.2-18.7-31.7c-13-15.5-23.7-27.4-27.2-48c-1.5-8.6-3.4-15.3-7.5-23
				c-4.6-8.6-16.4-1.1-12.7,7.4c6.9,15.8,18.9,28.3,34.2,36.1c7.5,3.8,14.6-5.3,8.9-11.6c-5.4-6-10.5-10.7-17.3-15
				c-2.5,4.3-5,8.5-7.4,12.7c64.1,39.6,137.4,58.4,211.2,73c27.8,5.5,55.8,5.6,83.9,5c11.1-0.2,37.7,2.8,46-7.3
				c6-7.3-4.3-17.8-10.4-10.4c-5.7,6.9-41.1,3.1-49.6,3.2c-30.9,0.4-60.7-3.3-90.9-10c-63.8-14.1-127-31.9-182.8-66.3
				c-8.1-5-15.4,7.7-7.4,12.7c5.5,3.4,10.3,7.7,14.3,12.7c3-3.9,6-7.7,8.9-11.6c-13.3-6.8-23-17.1-28.9-30.8
				c-4.2,2.5-8.5,5-12.7,7.4c8,14.9,5.3,30.9,14.7,45.3c9,13.8,34.7,33.7,36.7,49.9c4.6-1.2,9.2-2.5,13.7-3.7
				c-4.8-6.8-4.6-14.9-8.7-21.6c8,12.8,17.3,25.5,23,39.6c7.3,18-1.8-10-2.8-13.6c-3.8-14.3,7.5-7,10.5,2.2
				c2.5,7.5,4.3,15.3,5.3,23.1c-0.1-1.2,1.9-18.8,1.9-24.7c0.4-37.5,8,15.1-3.2,21.8c3.4,0.9,6.7,1.8,10.1,2.6
				c-4.4-5.7-12.4-45.3-4.9-49.8C181.1,259.2,173.7,246.5,165.5,251.4L165.5,251.4z"/>
		</g>
		<g>
			<path class="st18" d="M268.6,279.9c9.1,2.9,18.9-0.2,27.7,3.5c7.7,3.2,13.3-10.2,5.7-13.5c-2-0.9-3.9-1.7-6-2.3
				c-7.3-2.2-12.1,7.1-7.2,12.3c11.9,12.5,27.9,1.5,41.1,8.1c1.9-4.5,3.8-9,5.7-13.5c-1-0.1-1.9-0.3-2.7-0.8
				c-8.9-3.5-12.7,10.8-3.9,14.2c0.8,0.4,1.7,0.7,2.7,0.8c7.7,1.4,13.7-9.5,5.7-13.5c-5.4-2.7-10.7-3.3-16.6-3.3
				c-6.3,0-16.6,2.7-21.5-2.5c-2.4,4.1-4.8,8.2-7.2,12.3c0.8,0.3,1.6,0.5,2.5,0.8c1.9-4.5,3.8-9,5.7-13.5
				c-9.1-3.8-18.6-0.5-27.7-3.5C263.4,262.7,259.5,277,268.6,279.9L268.6,279.9z"/>
		</g>
		<g>
			<path class="st18" d="M81.3,210c-1.9,12.5-2.2,23-0.4,35.5c1.1,7.2,12.9,6.9,14.2,0c2.2-11.5,2.6-22-1.2-33.2
				c-2.6-7.8-14.3-6.6-14.5,2c-1.8,87.4,75.4,147.1,154.4,162.3C306.1,390.4,430,376.6,457,294c1-3.2-0.7-6.7-3.4-8.3
				c-21.3-13-36.2-16.7-57.1,0.4c-7.4,6,3.1,16.4,10.4,10.4c33.4-11.7,41.2-6,23.2,17.3c-8,7.9-16.7,15-26,21.3
				c-15.9,12.3-34.3,17.6-53.3,22.7c-34.3,9.3-67.7,8.5-102.7,5.5c-76.3-6.6-155.6-67-153.9-149.1c-4.8,0.7-9.7,1.3-14.5,2
				c3.1,8.3,3.5,16.8,1.2,25.3c4.7,0,9.5,0,14.2,0c0.1-9.2,0.3-18.4,0.4-27.7C96.9,204.6,82.7,200.6,81.3,210L81.3,210z"/>
		</g>
		<g>
			<path class="st18" d="M428.5,287.5c-12.3,9.9-21.6,25.8-28.1,40c-3.2,7.1,5.6,15.6,11.6,8.9c8.8-9.8,14.3-20.9,21.6-31.9
				c4.8-7.3-5.6-14.4-11.6-8.9c-16,14.5-31.1,32.5-49.3,44.3c3.6,2.8,7.2,5.6,10.8,8.3c3.8-15.2,16.6-28.2,26.2-39.9
				c6.2-7.4-3-16.3-10.4-10.4c-15.1,11.8-27.5,25.6-40.4,39.7c3.9,3,7.7,6,11.6,8.9c10.9-16.1,27.4-25.9,37.4-42.7
				c4-6.8-3.7-13.1-10.1-10.1c-26.2,12.5-44,39.3-67.4,56.2c3,3.9,6,7.7,8.9,11.6c16.5-19.8,50.7-48.2,77.2-53.2
				c-2.8-3.6-5.6-7.2-8.3-10.8c0.3-0.2,0.6-0.5,0.9-0.7c3,3,6.1,6,9.1,9.1c0.9-2.4,1.8-4.7,2.7-7.1c2.9-4.5-0.8-11.5-6.4-11.1
				c-33.3,2.2-74.6,45.2-95.7,68.4c-6.4,7.1,3.4,16.8,10.4,10.4c16.2-14.7,33-26.1,53.3-34.3c-2.4-4.1-4.8-8.2-7.2-12.3
				c-13.8,11.1-29.2,16.3-38.5,31.9c-3.5,5.8,2.2,12.2,8.3,10.8c12.5-2.7,22.6-8.8,33.7-15c7.8-4.3,2.2-14.8-5.7-13.5
				c-19.4,3.4-39.3,1.1-58.5,4.6c-19.5,3.6-38.6,8.6-58.1,11.9c-7,1.2-7.2,13.2,0,14.2c16.9,2.4,32.1,8.1,49.3,6
				c9.3-1.1,9.6-14,0-14.8c-26.9-2.2-52.2,0.6-78.2-8.4c-21.7-7.6-59.9-18.8-76-34.2c-10.8-10.3-32.4-36-35-49
				c-3.4-17-17.2-24,5.7-15.5c22.6,8.4,43.6,19.8,66.4,27.6c23.8,8,49.9,11.7,74.5,16.7c44.4,9,85.8,10.9,130.8,10.6
				c-1.2-4.6-2.5-9.2-3.7-13.7c-23.8,15.9-61.9,30.1-88.7,36.8c-36.8,9.1-97.8,7.6-126.9-18.5c0.8-20.2,7.5-26.6,20.2-19.1
				c6.7,2.3,13.6,4.2,20.5,5.8c16.1,4.1,31.8,9.4,48.4,11.1c31.2,3.3,81.3-1.5,108.7,14.8c0.6-4.5,1.2-9,1.8-13.5
				c-30,4.1-62.3,3.6-92.6,4.9c-24.1,1-73.5,0.9-92.8-18c-2.4,4.1-4.8,8.2-7.2,12.3c18.6,3.3,33.1,13.7,52.9,15.8
				c35.6,3.8,72.9-5,108.1,4.3c0-4.7,0-9.5,0-14.2c-29.4,5.2-63.9-4.8-92.8-10.2c-19.8-3.6-49.6-8.8-66.7-20.3
				c-0.6,4.5-1.2,9-1.8,13.5c24.1-7.6,41.6,12.1,15,11.9c-6.2-0.1-12.4-0.7-18.5-1c0,4.9,0,9.8,0,14.7c14,0.3,33.6,10.1,47.8,12.5
				c21.6,3.6,4.1-2.8-5.1,0.4c-6.7,2.3-7.3,12.2,0,14.2c31.7,8.9,68.7,12.9,101.3,6.9c-1.3-4.7-2.6-9.5-3.9-14.2
				c-9.1,3.2-14.9,5.4-21,13.1c-4.4,5.6-0.5,14.2,7.2,12.3c20-4.9,35.1-18.1,48.7-33.1c5.7-6.3-1.4-15.4-8.9-11.6
				c-12.3,6.2-21.2,14.7-28.8,26.1c-5.1,7.6,5.5,13.7,11.6,8.9c8.3-6.4,15.2-13.9,23.1-20.8c6.3-5.5-2-16.2-8.9-11.6
				c-1.9,1.3-3.9,2.6-5.8,3.9c-7.9,5.3-0.5,18,7.5,12.7c1.9-1.3,3.9-2.6,5.8-3.8c-3-3.9-6-7.7-8.9-11.6
				c-7.9,6.9-14.8,14.3-23.1,20.8c3.9,3,7.7,6,11.6,8.9c5.6-9.5,13.5-16.4,23.5-20.8c-3-3.9-6-7.7-8.9-11.6
				c-11.8,13-24.5,25-42.2,29.3c2.4,4.1,4.8,8.2,7.2,12.3c4.8-3.1,9.6-6.2,14.5-9.3c9-3.2,5.4-15.9-3.9-14.2
				c-29.6,5.4-65.1,1-93.5-6.9c0,4.7,0,9.5,0,14.2c6.2-2.1,18.9,3,25.9,3.1c2.4,0,5.4-1.4,6.4-3.6c0.6-1.3,1.1-2.6,1.7-3.9
				c1.4-3.2,1.3-6.3-1.2-8.9c-10.7-11.7-22.3-14.5-37.7-17.1c-14.8-2.5-26.7-11-41.7-11.3c-9.5-0.2-9.5,14.3,0,14.7
				c15.3,0.7,44.5,7.3,51.5-11.3c8.5-22.8-38.6-32.8-51.9-28.6c-6.3,2-7.1,9.9-1.8,13.5c21.6,14.5,56.4,19.2,81.5,23.8
				c28.1,5.2,61,13.1,89.4,8.1c7.4-1.3,6.7-12.5,0-14.2c-23.2-6.1-48.8-5-72.7-4.7c-21.2,0.3-46.8,3-66.5-6.2
				c-7.6-3.6-13.4-7.7-21.7-9.2c-6.9-1.2-12.8,6.8-7.2,12.3c18.2,18,53.2,19.5,77.4,22.1c38.3,4.1,84,0,122.3-5.2
				c6.7-0.9,6.7-10.5,1.8-13.5c-16.9-10-37.4-9.1-56.5-11.1c-35.5-3.8-69.7-6.6-104.2-16.3c-24.2-6.8-71.7-22.3-65.8,20.9
				c5.5,40,77.3,42.9,105.3,43.4c22.9,0.4,48.4-1.6,69.7-10.9c22.1-9.7,49.2-17.9,69.2-31.3c5.9-3.9,3.9-13.8-3.7-13.7
				c-99,0.5-197.8-16.8-285.9-63.7c-2.8-1.5-6.7-1.4-8.9,1.2c-24,27.9,22.1,72,37,91c18.6,23.7,49.4,27.2,75.6,39.4
				c31.9,14.9,60.2,11.2,94.1,14c0-4.9,0-9.8,0-14.8c-15.6,1.9-30.1-3.4-45.4-5.5c0,4.7,0,9.5,0,14.2c38.9-6.7,77.9-9.9,116.6-16.6
				c-1.9-4.5-3.8-9-5.7-13.5c-10,5.6-18.6,11-30.2,13.5c2.8,3.6,5.6,7.2,8.3,10.8c7.9-13.2,24.5-19.5,36.2-28.9
				c5.6-4.5-0.4-15.1-7.2-12.3c-22.6,9.1-41.8,21.7-59.8,38.1c3.5,3.5,7,7,10.4,10.4c13.4-14.8,27.5-27.3,43.6-39.3
				c9.9-7.4,28.8-23.9,41.6-24.8c-2.1-3.7-4.2-7.4-6.4-11.1c-2.9,4.6-3.2,5.3-4.2,10.6c-1,5.4,3.3,10.6,9.1,9.1
				c4.1-1.1,5.8-2.4,7.9-6.1c3.3-6-2.1-12-8.3-10.8c-29.8,5.5-64.6,34-83.7,56.9c-5,6,1.7,16.8,8.9,11.6
				c23.1-16.8,41.7-44,67.4-56.2c-3.4-3.4-6.7-6.7-10.1-10.1c-9.9,16.7-26.5,26.8-37.3,42.7c-4.7,7,5.9,15.1,11.6,8.9
				c12.9-14,25.4-27.9,40.4-39.7c-3.5-3.5-7-7-10.4-10.4c-11.5,13.9-25.6,28.5-30,46.4c-1.5,6,5.2,12,10.8,8.3
				c19.4-12.5,35.3-31.1,52.3-46.6c-3.9-3-7.7-6-11.6-8.9c-6.4,9.8-11.3,20.1-19.3,28.9c3.9,3,7.7,6,11.6,8.9
				c5.9-12.9,14.6-27.9,25.8-37C446.4,292,435.8,281.6,428.5,287.5L428.5,287.5z"/>
		</g>
	</g>
	<g>
		<path class="st10" d="M175.3,96c-2,0.8-3.9,1.5-5.9,2.3c-6.7,2.6-8.9,11.6-2.1,15.7c3.9,2.3,6.9,3.7,11.1,5.4
			c7.4,3,13.2-6.7,9.7-12.6c-1.7-3-3.5-4.6-6.3-6.7c-6.8-5.2-16.7,5-11.8,11.8c14.7,20.1,48.4,7.8,63.1,31.3
			c3.4,5.4,9.6,8.6,15,11.4c7.8,4.2,8.8,13.8,12,21.1c4.9,11.2,7.2,25.7,16.1,34.5c4.5,4.5,12.8,2.5,14.4-3.8
			c2.2-8.7,1.9-15.1-0.9-23.6c-3-8.8-17.5-7.8-16.9,2.3c2.1,34.2,42.3,21.5,27.8-1.6c-3.2,4.2-6.5,8.4-9.7,12.6
			c3.9,0.5,7.5,1,11.4,1.2c10.4,0.7,10.7-13.6,2.3-16.9c-9.6-3.8-36.4-10.1-28.5-26.4c-4.5,0.6-9,1.2-13.5,1.7
			c1.7,2.8,3.4,5.6,5,8.5c3.9,10.3,20.6,5.8,16.6-4.6c-3-7.8-4.1-9.7-9.5-16.1c-3.5-4.1-11.2-3-13.5,1.7
			c-15.5,31.8,16.4,42.8,38.7,51.7c0.8-5.6,1.5-11.3,2.3-16.9c-2.3-0.2-4.5-0.4-6.8-0.6c-6.9-0.9-14.2,5.5-9.7,12.6
			c1.4-2.4,2.8-4.7,4.2-7.1c-5.6,0.8-11.3,1.5-16.9,2.3c0.3,4.8,0.6,9.7,0.9,14.5c4.8-1.3,9.6-2.5,14.4-3.8
			c-5.7-5.8-14.6-32.9-16.4-40.5c-3.7-15.9-19.1-15.1-27.2-28.2c-7.1-11.4-18.3-14.5-30.6-18.9c-6-2.1-25.9-2.7-29.4-7.4
			c-3.9,3.9-7.8,7.8-11.8,11.8c0,0.2,0.1,0.4,0.1,0.5c3.2-4.2,6.5-8.4,9.7-12.6c-2.3-1.2-4.7-2.4-7-3.7c-0.7,5.2-1.4,10.5-2.1,15.7
			c2-0.8,3.9-1.5,5.9-2.3C190.1,108.6,185.7,92,175.3,96L175.3,96z"/>
	</g>
	<g>
		<path class="st10" d="M322.8,67.6c1,0.4,5.5,7.9,6.6,9.1c7.4,8.3,19.4-3.9,12.2-12.2c-4.3-5-8.7-6.9-15.1-8.1
			c-9.1-1.7-15.8,11-6.6,15.7c5.7,2.9,8.1,3.1,14.4,1.8c9.2-2,7.1-13.7,0-16.6c-7.8-3.2-15.6-6.4-23.5-9.5
			c-9.2-3.6-22.6-4.6-29.4-12.4c-4.1,4.1-8.1,8.1-12.2,12.2c5.3,5.3,10.1,10.4,16.3,14.5c7.7,5.1,15.4-4.6,11.8-11.8
			c-5.4-10.5-14.8-17.1-24.4-23.5c0.6,4.5,1.2,9,1.7,13.5c0.3-0.3,0.6-0.6,0.9-0.9c3.9-3.9,3.1-10.7-1.7-13.5
			c-12.3-7.1-23.6-13.2-37.9-14.3c-9.6-0.7-11.9,15.3-2.3,16.9c10.1,1.7,20-1.2,30,0.9c10.8,2.2,15.4-14.3,4.6-16.6
			c-10.2-2.1-19.8,0.8-30-0.9c-0.8,5.6-1.5,11.3-2.3,16.9c11,0.8,20,6.6,29.2,12c-0.6-4.5-1.2-9-1.7-13.5c-0.3,0.3-0.6,0.6-0.9,0.9
			c-4.1,4.1-2.8,10.4,1.7,13.5c7.3,4.9,14.2,9.3,18.2,17.3c3.9-3.9,7.9-7.8,11.8-11.8c-4.9-3.3-8.6-7.7-12.8-11.8
			c-7.9-7.9-19.4,3.9-12.2,12.2c5.7,6.6,11.7,9.1,20.1,11.3c13.9,3.6,27.1,9.6,40.5,15c0-5.5,0-11.1,0-16.6c-0.4,0-0.7,0-1.1,0
			c-2.2,5.3-4.4,10.5-6.6,15.7c2.5,1.2,5,2.5,7.6,3.7c4.1-4.1,8.1-8.1,12.2-12.2c-5.6-6.3-6.4-10.3-14.2-13.6
			C317.2,46.8,312.7,63.4,322.8,67.6L322.8,67.6z"/>
	</g>
	<g>
		<path class="st10" d="M170.6,12.3c-3,6.1-2.2,11.6,2.3,16.8c2.5,2.9,7.3,3.2,10.4,1.3c4.4-2.6,5-7.5,3.1-11.8
			c0.4,0.9,0.4,0.8-0.1-0.3c-0.5-1.3-1.1-2.6-1.8-3.8c-3.9,3.9-7.9,7.8-11.8,11.8c3,1.8,5.5,1.8,8.9,1.3c4.7-0.7,7.1-6.5,6-10.6
			c-1.4-4.9-5.9-6.7-10.6-6c0.3-0.1,0.6-0.2,0.9-0.2c1.4,0.4,2.9,0.8,4.3,1.2c-0.3-0.2-0.6-0.3-0.9-0.5c-7.5-4.4-16.1,4.3-11.8,11.8
			c0.6,1,1,2.3,1.8,4.1c4.5-3.5,9-6.9,13.5-10.4c0.9,1.2,1.1,2.6,0.4,4.1c2.1-4.2,1.2-9.3-3.1-11.8C178.6,7,172.7,8.1,170.6,12.3
			L170.6,12.3z"/>
	</g>
	<g>
		<path class="st10" d="M126.6,37.1c-2.5,12.5,9.3,23.1,19.4,28.3c9.8,5.1,18.5-9.7,8.7-14.9c-3.1-1.6-5.1-3.1-7.3-5.1
			c-0.7-0.7-1.4-1.4-2.1-2.1c0.1,0.1-1.8-2.3-1-1.1c-0.5-0.7-0.9-1.5-1.3-2.2c0.4,0.8,0.4,0.8,0.1-0.2c0.2,0.6,0.2,1.2,0,1.8
			c0.9-4.6-1.2-9.3-6-10.6C132.9,29.9,127.5,32.5,126.6,37.1L126.6,37.1z"/>
	</g>
	<g>
		<path class="st10" d="M154.5,64.5c2.6-0.4,5.1-0.6,7.7-0.6c11.1-0.2,11.1-17.4,0-17.2c-4.1,0.1-8.2,0.7-12.3,1.2
			c-4.7,0.6-7.1,6.5-6,10.6C145.2,63.4,149.8,65.1,154.5,64.5L154.5,64.5z"/>
	</g>
	<g>
		<path class="st10" d="M333.6,226.2c6.1,8.1,11.7,8.4,21.5,5.8c-2.2-5.3-4.4-10.5-6.6-15.7c-5.3,3.7-7,5.3-10.4,10.8
			c-4.8,7.8,4.4,15.5,11.8,11.8c4.8-2.4,9.7-4.8,14.5-7.3c-3.5-4.5-7-9-10.4-13.5c-1.6,2-25.1,27.3-27.2,26.8
			c-6.8-1.5-13.2,4.3-18.2,8.1c-5.6,4.3-1.6,12.4,3.8,14.4c18.3,6.7,37.8,6.7,56.6,2.1c10.1-2.4,25.6-22.7,36-13.8
			c4,3.4,9.9,4.1,15,4.7c9.4,1,26.9,18.6,35.1,23.8c15.3,9.7,35.7,27.3,54.7,28c3.7,0.1,7.4-2.7,8.3-6.3c0.2-0.6,0.3-1.2,0.5-1.8
			c2.7-10.8-13.9-15.3-16.6-4.6c3-11.9-58.2-43.9-65.2-51.6c-13.6-15.2-37.1-10.2-53.6-8.7c-3.7,0.3-7.4,2.4-8.3,6.3
			c-4,17.7-49.9,8.3-58,5.3c1.3,4.8,2.5,9.6,3.8,14.4c6-4.7,12.4-3.7,19.4-9c9.2-7,18.6-17,26-26c6.3-7.5-1.4-18-10.4-13.5
			c-4.8,2.4-9.7,4.8-14.5,7.3c3.9,3.9,7.9,7.8,11.8,11.8c1.4-1.5,2.8-3.1,4.2-4.6c7.7-5.5,3.3-18.4-6.6-15.7
			c-0.7,0.7-1.4,1.4-2.1,2.1C341.9,208.8,326.9,217.3,333.6,226.2L333.6,226.2z"/>
	</g>
	<g>
		<path class="st10" d="M448,192.8c-2.6,11.4-0.5,22.1-1.7,33.6c-0.9,9.3,11.6,10.6,16,4.3c7.7-11,8.7-25.8,8.4-38.8
			c-0.2-11.6-4.2-22.6-4-34.5c0.2-10.3-8.4-24.8-5.4-34c2.9-9.2-11.5-15.5-15.7-6.6c-0.2,0.3-0.3,0.6-0.5,1
			c-7.5,8.2,4.7,20.4,12.2,12.2c1.3-1.4,2.3-2.7,3.2-4.5c-5.2-2.2-10.5-4.4-15.7-6.6c-1.9,6-1.6,8.2-0.5,14.4
			c2.4,13.2,4.7,25.4,5.5,39.1c1,17,8.7,34-2.4,49.8c5.3,1.4,10.7,2.9,16,4.3c1-9.8-1.2-19.3,1.1-29
			C467.1,186.5,450.5,182,448,192.8L448,192.8z"/>
	</g>
	<g>
		<path class="st10" d="M418.6,146.5c-9.4,1-16.2,6.9-23.1,12.8c-7.9,6.8-18.8,10-25.6,17.8c-6,6.9-0.1,15.6,8.4,14.4
			c6.8-1,12.9-4.3,18.4-8.2c3.2-2.3,6.1-5,8.9-7.9c1-1.1,2-2.3,2.9-3.5c0.9-1.1,5.1-4.8,0.8-2.3c-3.9-3.9-7.8-7.9-11.8-11.8
			c-0.2,0.4-0.5,0.7-0.7,1.1c-6.6,9,8.4,17.6,14.9,8.7c0.3-0.3,0.5-0.7,0.7-1.1c4.8-7.4-4.6-16-11.8-11.8
			c-4.2,2.5-6.9,8.4-10.5,11.9c-4.5,4.3-10.1,7.4-16.3,8.3c2.8,4.8,5.6,9.6,8.4,14.4c5-5.8,13.2-7.6,19.1-12.4
			c4.4-3.5,11.6-12.6,17.5-13.2C429.6,162.6,429.7,145.4,418.6,146.5L418.6,146.5z"/>
	</g>
	<g>
		<path class="st10" d="M403.2,106.2c0.1,0,0.2-0.1,0.3-0.1c-1.5,0-3,0-4.6,0c0.1,0,0.1,0,0.1,0c-2.1-2.8-4.2-5.5-6.3-8.3
			c1.3-3.5,1.4-4.5,0.5-3c0.7-0.9,0.7-0.9,0.1-0.1c-0.4,0.5-2.7,2.5-0.4,0.7c4.2,1.7,8.4,3.4,12.6,5.1c-0.3-1.9-0.1-4-0.1-5.9
			c0-9.1-11.3-11.1-16-4.3c-1.3,1.9,1.1-1.3-0.6,0.8c-0.4,0.5-0.8,1-1.2,1.5c-3,3.6-3.5,8.6,0,12.2c3.1,3.1,9.2,3.6,12.2,0
			c1.6-1.9,3.1-3.8,4.5-5.8c-5.3-1.4-10.7-2.9-16-4.3c0,3.5,0.3,6.9,0.7,10.5c0.7,5.2,8.5,8.3,12.6,5.1c3.9-3,8.3-7.2,8.3-12.5
			c0.1-4.1-2.7-7-6.3-8.3c-1.5-0.5-3.5-0.5-5,0.1c-4.4,1.6-7.3,5.8-6,10.6C393.8,104.5,398.8,107.8,403.2,106.2L403.2,106.2z"/>
	</g>
	<g>
		<path class="st10" d="M417.9,58.7c4.9-9.6,18.5-7.8,27.2-5.4c9.9,2.7,25.3,19.5,13.7,29c-8.6,7.1,3.7,19.2,12.2,12.2
			c7.3-6,9-18,8-27c-1.3-12-10.8-21.1-20.6-27.1c-16.4-10-45.8-9.2-55.3,9.6C398,59.9,412.9,68.6,417.9,58.7L417.9,58.7z"/>
	</g>
	<g>
		<path class="st10" d="M401.6,67.8c-8.2-4-14.6-12-24.6-7.7c-4.3,1.8-5.2,8.1-3.1,11.8c2.6,4.4,7.5,4.9,11.8,3.1
			c-1.3,0.8-2.7,1.1-4.1,0.8c2,0.5-1.6-0.8,0.5,0.2c1.3,0.6,2.5,1.4,3.6,2.2c2.4,1.5,4.6,3.3,7.2,4.5c4.2,2,9.3,1.2,11.8-3.1
			C407,75.8,405.9,69.8,401.6,67.8L401.6,67.8z"/>
	</g>
	<g>
		<path class="st10" d="M88.9,142.1c-19.5,34.2,8.1,51.9,35.5,71.7c42.7,30.8,98.5,38.1,149.9,31.6c10.9-1.4,11-18.6,0-17.2
			c-32.4,4.1-64.7,1.4-96.3-6.8c-20.2-5.2-92.2-39.1-74.2-70.6C109.3,141.2,94.4,132.5,88.9,142.1L88.9,142.1z"/>
	</g>
	<g>
		<path class="st10" d="M94.1,158.6c-2.9-0.5-5.2-1.1-7.9,0.5c-3.2,1.9-4.8,5.5-4.3,9.1c2.1-2.8,4.2-5.5,6.3-8.3
			c-2,0.3-3.6,0.6-5.5,1.5c-4.9,2.5-5.6,9.8-1.7,13.5c0.1,0.1,0.2,0.1,0.2,0.2c8,7.6,20.2-4.5,12.2-12.2c-0.1-0.1-0.2-0.2-0.2-0.2
			c-0.6,4.5-1.2,9-1.7,13.5c-2.6,1.3,0.9,0.3,1.4,0.2c3.4-0.6,6.8-4.8,6.3-8.3c-0.1-0.5-0.1-1-0.1-1.5c-0.4,1.4-0.8,2.9-1.2,4.3
			c0-0.1,0.1-0.1,0.2-0.2c-2.5,1.4-5,2.8-7.4,4.3c-2.4,0-2.1-0.2-1,0c4.6,0.8,9.3-1.2,10.6-6C101.3,165,98.7,159.4,94.1,158.6
			L94.1,158.6z"/>
	</g>
	<g>
		<path class="st10" d="M14.2,155.1c-0.6,0-1.2,0-1.8,0c-5.1,0-10.4,5.6-8.3,10.9c2.6,6.5,8.6,10.5,14.4,14.1c4.9,3,13.3,8,19.3,5.6
			c4.3-1.8,7.4-5.7,6-10.6c-1.1-4.1-6.2-7.8-10.6-6c-0.9,0.4,2,0,2.4,0.1c-0.9-0.2-1.9-0.5-2.7-0.8c1.6,0.6-1.3-0.6-1.2-0.6
			c-1.2-0.6-2.4-1.2-3.6-1.9c-2.1-1.2-4-2.5-6-3.9c0.7,0.5-1.3-1.2-1.6-1.4c-1.7-1.6-0.4-0.4,0.2,1c-2.8,3.6-5.5,7.3-8.3,10.9
			c0.6,0,1.2,0,1.8,0C25.3,172.3,25.3,155.1,14.2,155.1L14.2,155.1z"/>
	</g>
	<g>
		<path class="st10" d="M40.3,294.7c-8.6,5-7.9,12.9-3.5,20.9c4.5-3.5,9-7,13.5-10.4c-1.2-1.1-2.2-2.3-3.2-3.6
			c-6.1-7.7-18.8,2.3-13.5,10.4c18.3,28,45.2,20,73.3,14.9c-2.8-0.7-5.6-1.5-8.4-2.2c0.1,0.1,0.1,0.2,0.2,0.3
			c0.6-4.5,1.2-9,1.7-13.5c-0.4,0.2-0.8,0.4-1.1,0.6c-9.7,5.4-1,20.3,8.7,14.9c0.4-0.2,0.8-0.4,1.1-0.6c5.3-2.9,5.1-9.3,1.7-13.5
			c-0.1-0.1-0.1-0.2-0.2-0.3c-2-2.5-5.6-2.7-8.4-2.2c-18.9,3.5-41,12.7-53.8-6.9c-4.5,3.5-9,7-13.5,10.4c0.9,1.3,2,2.5,3.2,3.6
			c6.9,7.2,18.1-2,13.5-10.4c-1.1-2.9-1.9-2-2.6,2.7C58.5,304,49.9,289.1,40.3,294.7L40.3,294.7z"/>
	</g>
	<g>
		<path class="st10" d="M62.3,312.6c6.5,0,13-0.4,19.5-0.5c11.1-0.1,11.1-17.3,0-17.2c-6.5,0-13,0.4-19.5,0.4
			C51.2,295.4,51.2,312.7,62.3,312.6L62.3,312.6z"/>
	</g>
	<g>
		<path class="st10" d="M58,201.1c2.7,1.6,5.3,2.3,8.4,2.5c4.9,0.4,8.4-4.2,8.6-8.6c0.3-5.9-1.2-11.8-0.4-17.7
			c0.6-4.7-4.3-8.6-8.6-8.6c-5.1,0-8,4-8.6,8.6c-0.7,5.9,0.8,11.8,0.4,17.7c2.9-2.9,5.7-5.7,8.6-8.6c0.2,0.1,0.3,0,0.3-0.2
			C57,180.7,48.4,195.6,58,201.1L58,201.1z"/>
	</g>
	<g>
		<path class="st10" d="M429.7,351.9c1.1,2.1,1.2,4.2,0.2,6c0.9-1.8-1.2,1.2,0.3-0.5c0.2-0.3,2.1-1.7,0.5-0.6
			c0.2-0.1,0.4-0.2,0.6-0.4c-1.3,0.6-2.6,0.7-4.1,0.3c5,0.9,8.7-1.4,10.6-6c0.5-1.4,0.5-1.2-0.2,0.6c-5,0-9.9,0-14.9,0
			c-1.9-3.8-0.3-0.4,0.3,0.6c2.6,3.9,7.6,5.6,11.8,3.1c3.9-2.3,5.7-7.8,3.1-11.8c1.3,2,1,2.1-0.3-0.6c-3.1-6.1-11.5-5-14.9,0
			c-0.6,0.9-1.1,2.4-1.5,3.5c3.5-2,7.1-4,10.6-6c-5.5-1-9.9,1.2-13.7,5.1c-3.8,3.8-6.7,10.3-3.3,15.3c2.7,3.8,7.5,5.6,11.8,3.1
			C430.4,361.4,432.4,355.7,429.7,351.9L429.7,351.9z"/>
	</g>
	<g>
		<path class="st10" d="M414.4,407.5c-0.5,2.4-0.7,4.8-0.8,7.3c0,3.5,2.6,7.8,6.3,8.3c7.6,1.1,14.6,0.7,21.7-2.6
			c6.8-3.2,12.7-8,19.4-11.4c9.9-5,1.2-19.9-8.7-14.9c-8.6,4.4-17.4,13.8-27.9,12.3c2.1,2.8,4.2,5.5,6.3,8.3c-0.1-0.9,0-1.8,0.1-2.7
			C433.2,401.2,416.6,396.6,414.4,407.5L414.4,407.5z"/>
	</g>
	<g>
		<path class="st18" d="M250,338.2c4.4-2.8,14.9,2.8,19.7,3.6c5.4,0.9,10.9-2.3,10.9-8.3c0-14.6-14.7-12.5-25-11.8
			c-11,0.8-11.2,17.4,0,17.2c12.8-0.2,25.5,0.6,38.3,1.5c4.8,0.3,17.6-2.8,21.4-0.8c9.8,5.2,18.5-9.7,8.7-14.9
			c-6.9-3.7-15.3-1.9-22.8-1.3c-14.8,1.2-30.6-2-45.6-1.7c0,5.7,0,11.5,0,17.2c1.6-0.1,3.2-0.2,4.7-0.5c1-0.1,2-0.2,2.9-0.3
			c4.2,0.6,4.2-0.9,0.1-4.6c3.6-2.8,7.3-5.5,10.9-8.3c-11.4-1.9-22-8.8-33-1.9C232,329.2,240.6,344.1,250,338.2L250,338.2z"/>
	</g>
	<g>
		<path class="st18" d="M428.9,317.8c1.7-0.8,3.4-1.7,5-2.7c-4.2-3.2-8.4-6.5-12.6-9.7c-0.6,2.8-0.5,4.2-1.4,6.8
			c-2.7,8,8.8,14.8,14.4,8.4c4.1-4.6,7.7-9.6,10.9-14.9c5-8.3-6.9-17.8-13.5-10.4c0.7-0.3,0.6-0.3-0.3,0.1c-0.6,0.2-1.1,0.5-1.6,0.8
			c-9.7,5.4-1,20.3,8.7,14.9c2-1.1,3.8-1.8,5.4-3.6c-4.5-3.5-9-6.9-13.5-10.4c-2.5,4-5.1,7.9-8.2,11.4c4.8,2.8,9.6,5.6,14.4,8.4
			c0.8-2.3,1.1-5.5,1.4-6.8c1.4-7-5.8-14-12.6-9.7c-1.6,1-3.3,1.9-5,2.7c-4.2,2.1-5.3,7.9-3.1,11.8
			C419.6,318.9,424.7,319.9,428.9,317.8L428.9,317.8z"/>
	</g>
	<g>
		<path class="st18" d="M90.6,206.4c0.3-1.8-0.1-11.2-0.1-6.8c0-11.1-17.1-11.1-17.2,0c-0.7,97.4,94.7,194.6,196.1,179
			c10.9-1.7,6.3-18.3-4.6-16.6c-90.5,14-174.9-77.3-174.3-162.4c-5.7,0-11.5,0-17.2,0c0,2.2-0.2,8.6,0.8,2.2
			C72.4,212.7,89,217.4,90.6,206.4L90.6,206.4z"/>
	</g>
	<g>
		<path class="st18" d="M86.9,189.4c-1-3.1-1.8-6.2-3.2-9.2c-1.7-3.8-8.6-2-8,2.2c0.1,0.9,0.3,1.8,0.5,2.7c0.7,5.3,8.6,5.7,8.6,0
			c0-1.4,0-2.7,0-4.1c0-5.6-8.6-5.6-8.6,0c0,1.4,0,2.7,0,4.1c2.9,0,5.7,0,8.6,0c-0.1-0.9-0.3-1.8-0.5-2.7c-2.7,0.7-5.3,1.4-8,2.2
			c1,2.3,1.5,4.8,2.3,7.1C80.2,196.9,88.5,194.7,86.9,189.4L86.9,189.4z"/>
	</g>
	<g>
		<path class="st6" d="M434.5,68.6c-4.5-0.4-7.9,1.3-10.5,4.9c2.7,0.7,5.3,1.4,8,2.2c-0.1,0.4-0.2,0.8-0.4,1.2c-2-2-4.1-4.1-6.1-6.1
			c-3.3,4.1-2.9,8.7,1.4,12c4.3,3.3,10.1-2,6.1-6.1c-0.2-0.2-0.7-1-0.6-0.8c0.2,0.7,0.1,0.1,0,0.3c0.4-0.8,1.3-1.5,2.3-2.1
			c2.4-1.5,5.6-2.1,8.2-1.2c2.2,0.7,0.2,4.6-1.5,5.6c-3,1.7-8.6,1.5-10.5-1.7c-2.8-4.8-10.3-0.4-7.4,4.3c4.6,7.7,14.9,8.5,22.3,4.8
			c6.9-3.4,9.1-13.8,3.2-19.2c-9.7-8.7-33.6,4.3-22.1,16.1c2-2,4.1-4.1,6.1-6.1c-0.8-1.2-1.3-1.1-1.4,0.2c3.4-4.3-1.8-9.8-6.1-6.1
			c-1.5,1.3-2.3,2.8-2.2,4.9c0.4,4.4,5.4,5.6,8,2.2c0.7-1,2.1-0.7,3.1-0.6C440.1,77.8,440,69.2,434.5,68.6L434.5,68.6z"/>
	</g>
	<g>
		<path class="st6" d="M159.1,32.8c0.1-0.9,0.3-1.2,1-1.7c0.5-0.3,0.7,0,0.4,0c-1.8,0-1.6-3.4-2.4-1c2.1-0.9,4.2-1.7,6.3-2.6
			c-2.9-1.9-5.6-1.8-8.8-0.9c-5.3,1.5-3.1,9.8,2.3,8.3c1.3-0.4,1.1-0.7,2.1,0c2.4,1.6,5.5-0.1,6.3-2.6c1.7-4.9-0.6-9.2-5.9-9.8
			c-4.5-0.5-9.1,3.8-9.7,8C149.9,35.9,158.2,38.3,159.1,32.8L159.1,32.8z"/>
	</g>
	<g>
		<path d="M131.9,95.8c-2.4,2.9-3.2,6-2,9.6c0.8,2.4,2.9,3.4,5.3,3c0.2,0,0.5-0.1,0.7-0.1c-1.1-0.1-2.2-0.3-3.3-0.4
			c0.1,0.1,0.2,0.2,0.3,0.2c-0.7-0.9-1.3-1.7-2-2.6c0.2,0.6,0.5,1.2,0.8,1.8c2.6,4.9,10.1,0.5,7.4-4.3c-1.1-2.1-3-3.4-6.2-2.9
			c1.8,1,3.5,2,5.3,3c-0.4-0.4-0.4-0.8-0.2-1.3C141.5,97.6,135.5,91.5,131.9,95.8L131.9,95.8z"/>
	</g>
	<g>
		<path class="st6" d="M139.6,97.4c0.5-0.1,1-0.2,1.5-0.3c1.2,2.2,2.5,4.3,3.7,6.5c0.1-0.1,0.1-0.2,0.2-0.3c2.9-4.8-4.6-9.1-7.4-4.3
			c-0.1,0.1-0.1,0.2-0.2,0.3c-1.7,2.8,0.5,6.5,3.7,6.5c1.1,0,2-0.3,2.8-0.9C148.4,101.6,144.1,94.1,139.6,97.4L139.6,97.4z"/>
	</g>
	<g>
		<path class="st6" d="M310.3,163.4C310.3,163.4,310.3,163.4,310.3,163.4c2.4,0.6,4.8,1.3,7.2,1.9c0-0.1,0-0.2,0-0.3
			c-0.2-1.4-1.7-2.6-3-3c0,0-0.1,0-0.1,0c-2.4-0.6-4.5,0.8-5.3,3c-0.1,0.3-0.2,0.5-0.3,0.8c-1.8,5.3,6.5,7.5,8.3,2.3
			c0.1-0.3,0.2-0.5,0.3-0.8c-1.8,1-3.5,2-5.3,3c0.1,0,0.1,0,0.1,0c-1-1-2-2-3-3c0,0.1,0,0.2,0.1,0.3c0.6,3.4,5,3.9,7.2,1.9
			c0,0,0,0,0,0C320.4,165.7,314.3,159.6,310.3,163.4L310.3,163.4z"/>
	</g>
	<g>
		<path class="st16" d="M171.1,146c0,1.2,0,2.4,0,3.6c1.6,0,3.3,0,4.9,0c-0.1-1.2-0.3-2.4-0.5-3.6c-1.6,0.2-3.2,0.4-4.8,0.7
			c1.4,3.5,3.9,5.4,7.8,5c2.4-0.3,3.4-3.1,1.2-4.5c-4.1-2.6-5.8-6.7-5.6-11.5c-0.8,0.8-1.6,1.6-2.4,2.4c3-0.1,6.1,1.5,8.7,2.8
			c1.3,0.6,2.6,1.3,3.9,2.1c0.5,0.3,1,0.6,1.5,0.9c1.4,0.9,0.2,0.5,0.3-0.9c-0.2,3.1,4.7,3.1,4.9,0c0.1-2.7-4.8-4.6-6.7-5.5
			c-3.7-1.9-8.3-4.3-12.6-4.2c-1.4,0.1-2.4,1.1-2.4,2.4c-0.3,6.5,2.5,12.2,8,15.7c0.4-1.5,0.8-3,1.2-4.5c-1.5,0.2-2.5,0.2-3.1-1.4
			c-0.9-2.3-5-2.3-4.8,0.7c0.1,1.2,0.4,2.4,0.5,3.6c0.3,3.1,4.9,3.2,4.9,0c0-1.2,0-2.4,0-3.6C176,142.9,171.1,142.9,171.1,146
			L171.1,146z"/>
	</g>
	<g>
		<path class="st6" d="M175.3,211.7c-2.5,7.5,15.1,11,19.4,12.1c10.8,2.9,29.4,2.3,39.1-3.9c2.6-1.7,0.2-5.9-2.5-4.2
			c-8,5.1-23.5,5.5-32.3,4.1c-2.1-0.3-19.6-5.2-19.1-6.8C180.9,210,176.2,208.7,175.3,211.7L175.3,211.7z"/>
	</g>
	<g>
		<path class="st6" d="M225.3,220.7c5.8-0.1,14.3-1.7,17.5-7.1c1.6-2.7-2.6-5.2-4.2-2.5c-2.2,3.7-9.5,4.6-13.3,4.7
			C222.1,215.8,222.1,220.7,225.3,220.7L225.3,220.7z"/>
	</g>
	<g>
		<path class="st10" d="M321.8,229.4c15.8-15.1,33.7-27.5,50.8-41c15.4-12.1-4.8-38.1-20.9-27c-22.6,15.6-47.3,28.7-66.6,48.6
			c-15.5,16,8.5,39.9,24.3,24.3c22.7-22.2,43-47.4,69.5-65.3c13.7-9.3,9.2-32.1-8.7-32.1c-0.3,0-0.5,0-0.8,0
			c4.1,9.8,8.1,19.6,12.2,29.4c9.7-9,20.1-18.5,28-29.2c10-13.7-9.9-33.7-23.5-23.6c-0.5,0.4-1,0.8-1.5,1.1
			c-17.6,13-0.5,42.9,17.4,29.7c0.5-0.4,1-0.8,1.5-1.1c-7.8-7.8-15.7-15.7-23.6-23.6c-4.6,6.3-15.7,15.8-22.6,22.2
			c-11.2,10.4-2.4,29.4,12.2,29.4c0.3,0,0.6,0,0.8,0c-2.9-10.7-5.8-21.4-8.7-32.1C332.4,159,310,185.6,285.1,210
			c8.1,8.1,16.2,16.2,24.3,24.3c17.3-17.8,39.4-29.2,59.6-43.2c-7-9-13.9-18-20.9-27c-17.2,13.5-35.1,25.8-50.8,41
			C281.4,220.5,305.8,244.8,321.8,229.4L321.8,229.4z"/>
	</g>
	<g>
		<path class="st10" d="M394.5,108c-25.1-5.4-35,20.3-44.6,39.3c-11.1,22-39.1,42.6-41.3,68.2c-1.8,20.6,17.9,32.4,36.1,23.5
			c20.6-10.1,26.6-34.9,46.6-44.5c-8.4-6.5-16.9-13-25.3-19.4c-2.9,16.7-19.7,30-26.2,45.9c-5,12.1,9.6,25.1,21.2,21.2
			c25-8.5,46.2-41.2,61.3-61.1c13.4-17.7,42.3-53.1,15.8-72c-9-6.4-22.9,0.1-25.3,10.3c-0.2,0.7-0.3,1.5-0.5,2.2
			c-17.1,14.2,7.4,38.5,24.3,24.3c5.5-4.6,7.7-10.7,9.3-17.4c-8.4,3.4-16.9,6.9-25.3,10.3c-6.6-4.7-4.5-15.4-6.9-7.9
			c-1.3,3.9-4,7.7-6.1,11.2c-5.9,9.7-12.9,18.8-20,27.7c-7.3,9-15,17.7-23,26.1c-3.5,3.7-7.1,7.2-10.8,10.6c-2.3,2.2-6.1,3.8-2,2.5
			c7.1,7.1,14.1,14.1,21.2,21.2c6.9-16.9,23-27,26.2-45.9c2.6-15.2-11.1-26.3-25.3-19.4c-10.4,5-18,12.6-24.9,21.8
			c-3,4-6,8.2-8.9,12.2c-2.1,2.7-4.4,5.2-7,7.5c7.1,10.7,12.2,11.6,15.5,2.7c8.8-13.1,19.6-24.4,27.7-38.1c3.6-6,6.4-12.5,9.7-18.6
			c1.8-3.4,11.6-15.6,8.3-13.7c-4.4,0.6-8.8,1.2-13.3,1.7c1.4,0.3,2.9,0.6,4.3,0.9C407,145.9,416.2,112.7,394.5,108L394.5,108z"/>
	</g>
	<g>
		<path class="st18" d="M216.1,268.7c-17.9,0.9-24.7-18.5-42.1-15.4c-4.2,0.7-4.1,7.5,0,8.3c11,1.6,21.6,4.7,31.8,9.4
			c0.7-2.7,1.4-5.3,2.2-8c-10.9-0.5-20.5-3.9-29-10.1c-4.1-2.5-9,3.6-5.2,6.8c21.9,18,61.1,20.8,88.3,23.4c5.5,0.5,5.4-8,0-8.6
			c-4.5-2.8-9-5.7-13.5-8.5c-1.6,2.1-3.2,4.2-4.9,6.3c10.7,3.7,7.5,2.9,19.2,3.4c5.6,0.2,5.5-8.2,0-8.6c-7.4-0.6-15.1-9.2-22.6-11.3
			c-6.3-1.7-11.2,1.3-18-0.8c-0.4,2.8-0.8,5.6-1.1,8.5c18.2-0.4,34.6,5.3,52.1,8.9c0.4-2.8,0.8-5.6,1.2-8.5
			c-9.4,0.5-18.6-0.8-27.5-4c-0.4,2.8-0.8,5.6-1.1,8.5c23.6,0.9,46.8,9.5,70.5,12.3c0-2.9,0-5.7,0-8.6c-7-1.3-14-2.6-21-3.9
			c-0.4,2.8-0.8,5.6-1.1,8.5c34.4,0.1,67.1,11.9,101.6,8.2c5.4-0.6,5.7-8.7,0-8.6c-11,0.1-21.8-0.4-32.8-0.8c0.7,2.7,1.4,5.3,2.2,8
			c11.9-6.5,33.2,4.2,47.3,0.4c4-1.1,4.2-7.3,0-8.3c-2.4-0.9-4.8-1.9-7.2-2.8c-3.3-2-7.2,1.3-6.3,4.9c0.4,1.7,1.4,2.6,2.8,3.4
			c0.7-2.7,1.4-5.3,2.2-8c-2.3,0.3-4.6,0.6-6.9,1c0.8,2.8,1.5,5.5,2.3,8.3c8.8-2.9,17.6-3.2,26.4-0.8c5.1,2.1,7.3-6.2,2.3-8.3
			c-9.9-4.2-20.8-1.1-31,0.8c-5.5,1-3.1,9.2,2.3,8.3c1.5-0.2,3.1-0.4,4.6-0.7c3.9-0.5,6.2-5.7,2.2-8c0.4,0.6,0.8,1.2,1.2,1.8
			c-2.1,1.6-4.2,3.2-6.3,4.9c4.4,2.6,4.2,2.6,9.2,3.7c0-2.8,0-5.5,0-8.3c-15.8,4.2-34.7-7.6-49.4,0.4c-3.9,2.1-2,7.9,2.2,8
			c11,0.4,21.8,1,32.8,0.8c0-2.9,0-5.7,0-8.6c-34.3,3.7-67.4-8.1-101.6-8.2c-4.9,0-5.9,7.2-1.2,8.5c12.8,3.4,10.3,2.9,23.3,4.3
			c5.6,0.6,5.4-8,0-8.6c-24.6-2.9-46.2-11.4-70.5-12.3c-5-0.2-5.6,7-1.1,8.5c10.3,3.3,18.9,4.1,29.8,4.3c4.8,0.1,6-7.5,1.1-8.5
			c-18.3-3.8-35.6-9.6-54.4-9.2c-4.9,0.1-5.8,7-1.1,8.5c13.9,4.3,28.7,11.4,43,12.5c0-2.9,0-5.7,0-8.6c-5.6-1-11.3-2.1-16.9-3.1
			c-3.4-1.1-7.1,3.3-4.9,6.3c6.3,8.3,10.5,11.7,20.9,12.8c0-2.9,0-5.7,0-8.6c-22.2-2.1-64-5.9-82.2-20.9c-1.7,2.3-3.5,4.5-5.2,6.8
			c11.3,7.1,19.8,12.5,33.3,11.3c3.7-0.4,6.5-6.1,2.2-8c-11.3-4.9-21.7-7.9-33.8-10.3c0,2.8,0,5.5,0,8.3
			c11.6-2.1,25.9,16.5,39.8,15.7C221.7,277,221.7,268.4,216.1,268.7L216.1,268.7z"/>
	</g>
	<g>
		<path class="st18" d="M391,340.5c-1.5,1.5-2.9,2.6-4.9,3.4c2.1,1.6,4.2,3.2,6.3,4.9c0.8-5.2,6.1-8.6,9.9-11.6
			c4.4-3.5,8.9-7,11.8-12c2.1-3.5-2.2-8.4-5.9-5.9c-8.6,6.1-16.6,12.6-22.9,21.2c-1.8,2.5,0.6,6.9,3.7,6.5
			c12.1-1.5,19.8-11.6,25-21.8c2.2-4.4-3.1-8.5-6.8-5.2c-7.5,6.8-13.8,14.6-20.5,22.1c2.5,1,4.9,2,7.3,3c0-1.4,0-2.7,0-4.1
			c0-5.5-8.6-5.5-8.6,0c0,1.4,0,2.7,0,4.1c0,3.6,4.8,5.9,7.3,3c6.7-7.5,13-15.4,20.5-22.1c-2.3-1.7-4.5-3.5-6.8-5.2
			c-3.5,6.9-9.1,16.4-17.6,17.5c1.2,2.2,2.5,4.3,3.7,6.5c5.3-7.4,12.4-12.9,19.8-18.1c-2-2-3.9-3.9-5.9-5.9
			c-5.7,9.6-20.8,13.6-22.6,25.6c-0.6,3.9,2.7,6.4,6.3,4.9c2.6-1.1,4.6-2.8,6.6-4.8C401,342.6,394.9,336.5,391,340.5L391,340.5z"/>
	</g>
	<g>
		<path class="st18" d="M243.5,371c9.9,6.4,21.9,6.3,33.3,6.3c-0.4-2.8-0.8-5.6-1.1-8.5c-4.7,1.9-9.6,2.3-14.7,1.2
			c-1.4,2.5-2.9,5-4.3,7.4c0.6,0.3,16,4.8,14.8,2.5c1.4,2.7,4.7,2.5,6.8,0.9c0.9-0.7,17.5,1.4,17.5,1.4c11.9,1.2,24.2-0.3,36-1.8
			c14.7-1.8,27.7-10.8,42.1-14.1c5.4-1.2,3.1-9.5-2.3-8.3c-23.4,5.3-41.9,15.1-66.8,15.8c-12,0.3-22.8-6.9-32.7,0.9
			c2.3,0.3,4.5,0.6,6.8,0.9c-0.5-1.1-1.1-2.2-1.6-3.3c-1.1-2.2-3.9-2.5-5.9-1.5c-3.5-0.3-6.9-0.6-10.4-0.8c-5-2.2-9.2,4.5-4.3,7.4
			c7,4.2,13.7,1.8,21.4-0.4c4.7-1.3,3.7-8.4-1.2-8.5c-9.9-0.1-20.3,0.5-29-5.1C243.1,360.5,238.8,368,243.5,371L243.5,371z"/>
	</g>
	<g>
		<path class="st18" d="M103.4,241.6c7.5,9.8,14.6,18.8,27.5,20.2c1.7,0.2,3.9-1.4,4.2-3.2c2.4-13.8-9.4-18.4-21-20.9
			c-4.4-0.9-6.9,3.9-4.2,7.2c7.9,9.5,15.8,17.3,28.1,20c4.2,0.9,7.2-4,4.2-7.2c-9.7-10.5-15.6-23.9-25.4-34.4
			c-6.3-6.8-12.1-13.2-14.7-22.3c-1.2-4.2-4.6-6.3-8.3-7.9c-5-2.2-9.4,4.8-4.3,7.4c4.2,2.2,7.3,4.1,9.9,8.3c2-2,3.9-3.9,5.9-5.9
			c-2.6-1.6-4.7-3.5-6.5-5.9c-3.6-4.2-9.7,1.9-6.1,6.1c7.9,9.1,26.9,13.9,30,26c1.4,5.4,9.7,3.1,8.3-2.3
			c-4-15.2-22.9-18.9-32.3-29.8c-2,2-4.1,4.1-6.1,6.1c2.5,2.9,5.2,5,8.3,7.2c3.6,2.6,8.1-2.4,5.9-5.9c-3.3-5.3-7.5-8.5-13-11.4
			c-1.4,2.5-2.9,5-4.3,7.4c5,2.2,6.9,10.6,9.6,14.9c3.2,5,7.7,9.4,11.6,13.9c9.4,10.8,15.7,23.9,25.4,34.4c1.4-2.4,2.8-4.8,4.2-7.2
			c-10.9-2.3-17.5-9.5-24.3-17.7c-1.4,2.4-2.8,4.8-4.2,7.2c5,1.1,16.4,2.4,15,10.3c1.4-1.1,2.8-2.1,4.2-3.2
			c-9.3-1-14.8-9.1-20.1-15.9C107.5,232.9,100,237.2,103.4,241.6L103.4,241.6z"/>
	</g>
	<g>
		<path class="st18" d="M125.5,314.5c8.8,13.3,22.5,28.5,39.8,28.4c5.5,0,5.5-8.7,0-8.6c-13.9,0.1-25.3-13.5-32.4-24.1
			C129.9,305.6,122.5,309.9,125.5,314.5L125.5,314.5z"/>
	</g>
	<g>
		<path class="st6" d="M210.1,160.1c0.7,2.5,3.6,5.3,6.4,3.7c2.9-1.7,2.1-5.4-0.7-6.4c-3.1-1.1-5.7,2.4-4.5,5.1c1.5,3.3,5.3,4,7,0.6
			c0.7-1.4-0.2-2.6-1.6-2.8c-4.4-0.6-6.1,4.5-1.9,6.1c1.8,0.7,4.5-1.4,5.1-3c0.9-2.2-0.4-4.1-2.3-5.2c-4.7-2.6-9.9,4-4.8,7.1
			c5.9,3.6,12.6-1,15.6-6.3c0.6-1.1,0-2.3-1.1-2.7c-4-1.6-7.7,0.8-9,4.7c-0.3,0.9,0.4,2,1.3,2.3c4.5,1.2,8.9-0.6,11.3-4.5
			c0.6-0.9,0.2-2-0.7-2.5c-3.2-2.2-10-2.5-10.8,2.4c-1.1,6.9,8.6,4.2,11.9,2.8c1.1-0.5,2-2.1,0.8-3.1c-1.8-1.5-3.3-2.1-5.6-2.4
			c-1.1-0.1-1.8,0.9-1.8,1.9c-0.2,3,2.1,5.7,4.9,6.6c2.3,0.7,4.8-1.8,4.2-4.1c-1.6-5.5-9.2-3.8-9,1.7c0,0.8,0.5,1.6,1.4,1.8
			c3.1,0.8,7.2,0.5,8.6-2.8c1.6-3.7-2.6-5.1-5.4-5.2c0,1.2,0,2.5,0,3.7c0.7,0.3,1.4,0.6,2.1,0.9c0.8-0.8,1.7-1.7,2.5-2.5
			c-1.2-0.8-2.5-1.6-3.7-2.5c-0.6,1.1-1.2,2.1-1.9,3.2c0.5,0.9,1,1.8,1.5,2.7c-0.1,2.4,3.6,2.4,3.7,0c0.1-2.7-1.1-4.5-3.4-5.9
			c-2-1.3-3.8,1.8-1.9,3.2c1.2,0.9,2.4,1.7,3.7,2.5c1.5,1,3.5-1,2.5-2.5c-1.4-2.1-2.7-2.9-5.3-2.8c-2.4,0.2-2.4,3.7,0,3.7
			c4.2,0-0.5,1.2-2.3,0.7c0.5,0.6,0.9,1.2,1.4,1.8c0-0.9-0.2-1.6,0.9-1.4c0.8,0.4,0.8,0.3,0-0.5c-0.7-0.6-1-1.4-0.9-2.4
			c-0.6,0.6-1.2,1.2-1.8,1.8c1,0.4,2,0.9,3,1.3c0.3-1,0.5-2.1,0.8-3.1c-2,0.8-4,1.6-6.1,1.7c-0.2-0.3-0.4-0.7-0.6-1.1
			c0.6-0.1,1.2-0.2,1.7-0.1c1,0,2.1,0.4,2.9,1c-0.2-0.8-0.4-1.7-0.7-2.5c-1.6,2.6-4.3,3.6-7.1,2.8c0.4,0.8,0.9,1.5,1.3,2.3
			c0.9-2.3,2.4-3,4.5-2.1c-0.4-0.9-0.7-1.8-1.1-2.7c-1.4,2.5-3.6,4.4-6.2,5.6c-0.5,0.1-1.1,0.2-1.6,0.3c-1.2,0.2-2.1-0.4-2.5-1.7
			c0.3,0.4,0.7,0.7,1,1.1c-0.7,1.1-0.5,1.6,0.7,1.4c-0.5-0.9-1.1-1.9-1.6-2.8c-0.6-0.6-1.1-1.3-1.5-2
			C213,156.8,209.5,157.8,210.1,160.1L210.1,160.1z"/>
	</g>
	<g>
		<path class="st6" d="M201.8,162.2c-0.3,1.1-0.3,1.7-0.4,3c0,1.1,0.9,1.8,1.8,1.8c4.7,0.3,6-3.7,2.8-6.8c-0.6,1-1.2,2.1-1.8,3.1
			c2.5,1,4,1.3,6.5,0.9c-0.3-1.2-0.7-2.4-1-3.6c-2.1,0.8-2.2,0.8-4.1,2c-1.4,0.9-1,2.8,0.4,3.4c4.5,1.8,8.5,0.1,13-1.2
			c-0.5-1.1-0.9-2.2-1.4-3.4c-0.9,0.6-1.7,1.1-2.5,1.8c-1,0.8-0.5,2.9,0.8,3.1c6.9,1,16.3,0.4,21.8-4.5c0.8-0.7,0.7-2.4-0.4-2.9
			c-1.7-0.7-3.3-1.3-5.1-1.7c-2.3-0.6-3.3,2.9-1,3.6c2.2,0.6,4.3,1.2,6.5,1.8c0.2-1.2,0.3-2.4,0.5-3.6c-2.9-0.1-4.6-0.9-6.8,1.1
			c-1.8,1.6,0.9,4.2,2.6,2.6c0.4-0.3,3.7-0.1,4.2-0.1c2.1,0,2.5-3.1,0.5-3.6c-2.2-0.6-4.3-1.2-6.5-1.8c-0.3,1.2-0.7,2.4-1,3.6
			c1.4,0.3,2.8,0.7,4.2,1.3c-0.1-1-0.3-1.9-0.4-2.9c-4.3,3.9-12.7,4.3-18.2,3.5c0.3,1,0.5,2.1,0.8,3.1c0.6-0.4,1.2-0.8,1.8-1.3
			c1.7-1.1,0.6-4-1.4-3.4c-3.6,1.1-7.1,2.8-11,1.2c0.1,1.1,0.3,2.2,0.4,3.4c1.1-0.6,2.2-1.1,3.2-1.7c2.3-0.8,1.3-3.9-1-3.6
			c-1.6,0.2-3.1-0.1-4.5-0.9c-1.8-0.7-3,1.9-1.8,3.1c-0.1,0.2-0.2,0.4-0.2,0.5c0.6,0.6,1.2,1.2,1.8,1.9c0.1-0.7,0.2-1.3,0.2-2
			C206,160.8,202.4,159.9,201.8,162.2L201.8,162.2z"/>
	</g>
	<g>
		<path class="st6" d="M131.1,178.2c-0.7,3.6,2.5,7.8,5.9,8.7c1.2,0.3,2.2-0.6,2.3-1.8c0.3-4.1-2.9-6.3-5.8-8.7
			c-1.6-1.3-3.9,0.3-2.9,2.2c1.7,3.1,6.5,10.7,11,8.6c5.9-2.8-2.9-7.3-5.1-8.6c-1.6-0.9-3.4,0.9-2.5,2.5c1.3,2.3,3,4,5.3,5.3
			c1.4,0.8,3.1-0.5,2.7-2.1c-0.5-2.1-1.3-3.3-3-4.5c-1.3-0.9-3.2,0.6-2.7,2.1c0.5,1.5,1.2,2.7,2.3,3.9c1.6,1.8,4.2-0.8,2.6-2.6
			c-0.7-0.6-1.1-1.4-1.4-2.3c-0.9,0.7-1.8,1.4-2.7,2.1c0.8,0.6,1.2,1.3,1.3,2.3c0.9-0.7,1.8-1.4,2.7-2.1c-1.7-1-3-2.2-3.9-4
			c-0.8,0.8-1.7,1.7-2.5,2.5c0.8,0.5,1.7,0.9,2.6,1.4c0.6,0.3,1.2,0.7,1.7,1.1c1.3,0.8,0.8-0.5,0.1-0.9c-2.2-1.4-4.1-4.2-5.3-6.5
			c-1,0.7-1.9,1.5-2.9,2.2c2,1.6,4.9,3.2,4.7,6.1c0.8-0.6,1.6-1.2,2.3-1.8c-1.3-0.3-3.6-2.6-3.3-4.2
			C135.1,176.8,131.6,175.8,131.1,178.2L131.1,178.2z"/>
	</g>
	<g>
		<path class="st6" d="M119.8,165c0.9,5.7,3.4,10.9,5.7,16.1c0.8,1.7,3.5,0.8,3.4-0.9c-0.1-5.4-3-9.6-6.7-13.3c-1-1-3.4-0.4-3.1,1.3
			c1.6,12.4,11,22.8,20.2,30.5c0.7-1,1.5-1.9,2.2-2.9c-3.7-2.1-5.8-7-8.6-10.2c-5.4-6.3-10-11.2-11.1-19.8c-0.3-2.3-3.6-2.4-3.7,0
			c-0.5,10,8.8,20.1,14.8,27.3c8.7,10.3,22.6,19.6,36,21.8c2.3,0.4,3.3-3.2,1-3.6c-11.1-1.8-22.2-9-30.5-16.5
			c-6.4-5.8-18.1-20-17.7-29.1c-1.2,0-2.5,0-3.7,0c0.9,7.2,3.5,12.7,8.3,18.3c4.1,4.8,7.7,11.8,13.2,15c1.8,1,3.9-1.5,2.2-2.9
			c-8.4-7-17.6-16.6-19.1-27.9c-1,0.4-2.1,0.9-3.1,1.3c3,3,5.5,6.2,5.6,10.7c1.1-0.3,2.3-0.6,3.4-0.9c-2.2-5-4.5-9.8-5.3-15.2
			C123,161.7,119.4,162.7,119.8,165L119.8,165z"/>
	</g>
	<g>
		<path class="st6" d="M127.8,145.8c14.2-18.8,39.9-21.4,60.5-14.6c15,5,36.7,13.8,42.5,29.8c0.8,2.2,4.4,1.3,3.6-1
			c-7.3-20.2-32.8-28.3-51.4-34.5c-20.3-6.7-45.7,1.5-58.3,18.4C123.1,145.8,126.3,147.6,127.8,145.8L127.8,145.8z"/>
	</g>
	<g>
		<path class="st10" d="M329.3,143.4c-3.5,2.6-5.3,5.6-6.8,9.6c-1.1,3.1,0.7,6.8,3.4,8.3c3.8,2.2,7.7,0.6,10.1-2.7
			c0.9-1.2,1.7-2.4,2.5-3.7c4.6-8.3-8.1-15.8-12.7-7.4c-0.7,1.3-1.6,2.5-2.5,3.7c4.5,1.9,9,3.8,13.5,5.7c0.2-0.5,2-2.3,0-0.8
			c3.2-2.4,4.9-6.3,2.6-10.1C337.5,142.9,332.5,141,329.3,143.4L329.3,143.4z"/>
	</g>
	<g>
		<path class="st10" d="M351.9,78.5c0.5-0.2,1-0.4,1.5-0.6c3.1-1.2,5.4-3.5,5.4-7.1c0-3.2-2.2-6.4-5.4-7.1c-2-0.5-4.3-0.9-6.4-0.3
			c-3.4,0.9-4.9,4-6.1,7c-1.6,4.2,2.6,9.9,7.1,9.3c0.6-0.2,1.2-0.2,1.8,0c4,0.5,7.4-3.7,7.4-7.4c0-4.4-3.4-6.9-7.4-7.4
			c-0.6-0.2-1.2-0.2-1.8,0c2.4,3.1,4.7,6.2,7.1,9.3c0.1,0,0.1-0.1,0.2-0.1c-2.1,1.2-4.2,2.4-6.4,3.6c0.8,0,0.9,0,0.5,0
			c0-4.7,0-9.5,0-14.2c-0.5,0.2-1,0.4-1.5,0.6c-3.7,1.5-6.3,4.9-5.2,9.1C343.8,76.9,348.2,80,351.9,78.5L351.9,78.5z"/>
	</g>
	<g>
		<path class="st10" d="M403.7,110.4c2.3-0.2,4.7,0.6,7.3,1c2.7,0.4,5.1,0.2,7.2-1.9c2.3-2.3,2.9-6.1,1.2-8.9c-0.9-1.5-2-3-3.3-4.3
			c-6.2-5.6-15.6,1.4-11.6,8.9c1,1.9,2.1,3.6,3.4,5.2c5.8,7.6,16.6,1.4,12.7-7.4c-1.6-3.6-3.1-6.7-5.5-9.8
			c-2.8-3.6-9.7-2.5-11.6,1.5c0.6-0.6,0.7-0.7,0.2-0.3c-3.1,2.6-2.6,7.8,0,10.4c3,3,7.3,2.6,10.4,0c0.9-0.7,1.6-1.7,2.1-2.7
			c-3.9,0.5-7.7,1-11.6,1.5c1.4,1.8,2.2,4.7,3.1,6.8c4.3-2.5,8.5-5,12.7-7.4c-1.3-1.7-2.4-3.4-3.4-5.2c-3.9,3-7.7,6-11.6,8.9
			c1.6,1.4,0.1-0.2,1,1.3c2.8-3.6,5.6-7.2,8.3-10.8c-3.7-0.5-7.5-1.8-11.2-1.5c-4,0.3-7.4,3.1-7.4,7.4
			C396.4,106.9,399.7,110.7,403.7,110.4L403.7,110.4z"/>
	</g>
	<g>
		<path class="st10" d="M402.5,73.4c0,0.1,0,0.2-0.1,0.3c4.5-0.6,9-1.2,13.5-1.8c0.5,1.3,0.6,1.6,0.5,0.8c-0.5-4-5.6-6.1-9.1-5.2
			c-4.3,1.2-5.7,5.1-5.2,9.1c0.1,1,0.5,1.9,1,2.7c2.9,5,12.5,4.8,13.5-1.8c0-0.1,0-0.2,0-0.3c0.6-4-0.9-7.9-5.2-9.1
			C408,67.3,403,69.4,402.5,73.4L402.5,73.4z"/>
	</g>
	<g>
		<path class="st10" d="M276.7,57.2c-0.7,1.5-1.5,2.9-2.5,4.3c2.2,0.3,4.5,0.6,6.7,0.9c-0.4-2.6-1.5-5.4-3.8-6.8
			c-3.7-2.3-6.4,1.8-7.6,4.7c-0.9,2.4,1.4,4.5,3.6,4.7c2.2,0.2,4.1-0.4,5.9-1.7c3.8-2.7,0.1-9.1-3.7-6.4c-1,0.7-0.9,0.8-2.1,0.7
			c1.2,1.5,2.4,3.1,3.6,4.7c-3-1.4-4.1-1.3-3.3,0.1c0.3,0.7,0.4,1.4,0.5,2.1c0.5,3.5,5.1,3.2,6.7,0.9c1-1.4,1.8-2.8,2.5-4.3
			C285,56.6,278.6,52.9,276.7,57.2L276.7,57.2z"/>
	</g>
	<g>
		<path class="st10" d="M199.9,24.3c0.4,0,0.8,0,1.2,0c-0.3-2.4-0.7-4.8-1-7.2c-1.4,0.3-2.7,0.8-4,1.2c-3.8,1.3-3.3,7.2,1,7.2
			c0.5,0,1,0,1.5,0c4.8,0,4.8-7.4,0-7.4c-0.5,0-1,0-1.5,0c0.3,2.4,0.7,4.8,1,7.2c1.3-0.5,2.6-0.9,4-1.2c4.1-1,3.2-7.2-1-7.2
			c-0.4,0-0.8,0-1.2,0C195.2,17,195.2,24.3,199.9,24.3L199.9,24.3z"/>
	</g>
	<g>
		<path class="st10" d="M181.8,11.5c2,0.9,3.5,2,4.2,4.3c2.4-0.7,4.7-1.3,7.1-2c-2.5-7.4-10.1-10.4-17.4-11c-4.7-0.4-4.7,7,0,7.4
			c3.7,0.3,8.9,1.6,10.3,5.6c1.5,4.5,8.4,2.7,7.1-2c-1.2-4-3.8-6.9-7.5-8.7C181.2,3.2,177.5,9.6,181.8,11.5L181.8,11.5z"/>
	</g>
	<g>
		<path class="st10" d="M132.1,119.5c1-0.2,2-0.4,3-0.5c3.6-0.2,5.1-4.9,1.9-6.9c-1.3-0.8-2.6-1.4-4-1.9c-3.1-1.2-5.7,2.9-4.2,5.4
			c1.3,2.2,2.8,2.5,5,3.2c4.5,1.6,6.4-5.5,2-7.1c-1.3-0.5-1.1-0.8-0.6,0.2c-1.4,1.8-2.8,3.6-4.2,5.4c0.8,0.3,1.5,0.7,2.2,1.2
			c0.6-2.3,1.2-4.6,1.9-6.9c-1.7,0.1-3.3,0.4-5,0.7C125.5,113.4,127.4,120.5,132.1,119.5L132.1,119.5z"/>
	</g>
	<g>
		<path class="st10" d="M39.8,176c6.3,4.3,11.2,9.6,19.4,7.1c2.7-0.8,3.5-4.1,1.6-6.2c-3.1-3.4-11.7-9.5-16-5.1
			c-6.7,6.7,8,10.9,11.1,13.4c0.9-2.1,1.7-4.2,2.6-6.3c-10,1-19.5-10.6-29.5-4.7c-10,5.9,8.5,14.4,11.6,17.2
			c0.9-2.1,1.7-4.2,2.6-6.3c-3.4-0.3-6.8-1.9-9.4-4.2c-0.9,2.1-1.7,4.2-2.6,6.3c1.2,0,2.3-0.2,3.4-0.4c4-0.9,3.2-7.5-1-7.2
			c-1,0.2-2,0.2-3.1,0c0,2.5,0,4.9,0,7.4c1.7-0.1,2.8-0.4,4.3-1.1c4.3-1.9,0.6-8.3-3.7-6.4c-0.2,0-0.4,0.1-0.6,0.1
			c-4.8,0.3-4.7,7,0,7.4c1,0.2,2,0.2,3.1,0c-0.3-2.4-0.7-4.8-1-7.2c-0.5,0.1-1,0.1-1.5,0.2c-3,0.1-5.1,4.1-2.6,6.3
			c4.1,3.6,9.2,5.9,14.6,6.3c3.2,0.3,4.9-4.2,2.6-6.3c-2.3-2-5-3.5-7.6-5.1c-1.3-0.8-2.6-1.6-3.8-2.6c-0.9-1.2-1.2-0.7-0.8,1.6
			c1.1-0.4,2.4-0.1,3.5,0.1c7.2,1.4,13.8,6.8,21.5,6.1c2.8-0.3,5.4-4,2.6-6.3c-2.9-2.4-6.6-3.5-9.9-5.5c-1.5-1.5-2.3-0.4-2.3,3.3
			c1,0.3,1.9,0.9,2.8,1.4c1.4,0.8,2.8,1.7,3.8,2.9c0.5-2.1,1.1-4.1,1.6-6.2c-5.6,1.7-9.5-3.5-13.8-6.4C39.5,167,35.9,173.4,39.8,176
			L39.8,176z"/>
	</g>
	<g>
		<path class="st10" d="M292.3,260.6c10.6,8.2,24.2,7.5,37.1,8.2c21.8,1.3,42.4,0.5,64.1-1.3c4.7-0.4,4.7-7.8,0-7.4
			c-15,1.2-29.4,2.6-44.5,2.5c-14.3-0.1-40,1.7-51.5-7.2C293.8,252.5,288.6,257.6,292.3,260.6L292.3,260.6z"/>
	</g>
	<g>
		<path class="st10" d="M445.7,245.3c-0.1,0.5-0.2,1-0.2,1.6c0.1,2.1,1.6,3.5,3.7,3.7c2.3,0.2,3.5-1.6,4.8-3.2
			c-2.1-0.9-4.2-1.7-6.3-2.6c0,0.6,0.3-1.2-0.1,0.4c2.1-0.5,4.1-1.1,6.2-1.6c0,0,0-0.1-0.1-0.1c-2.9-3.8-8.1,1.5-5.2,5.2
			c0,0,0.1,0.1,0.1,0.1c1.8,2.3,5.5,0.8,6.2-1.6c0.2-0.7,0.4-1.5,0.4-2.3c0-3-4.2-5.2-6.3-2.6c-0.8,1-1.6,1.9-2.4,2.9
			c1.1-0.6,2.1-1.2,3.2-1.8c-0.1,0-0.2,0-0.3,0c1.2,1.2,2.5,2.5,3.7,3.7c0,0.1-0.1,0.3-0.1,0.4C453.9,242.6,446.8,240.7,445.7,245.3
			L445.7,245.3z"/>
	</g>
	<g>
		<path class="st10" d="M493.5,289.1c5.1,2.4,10.8,3.6,15.4,7.1c0.9-2.3,1.9-4.5,2.8-6.7c-5-1.5-8.7-6.9-13.3-9.5
			c-3.7-2.1-7.3,2.7-4.5,5.8c8.9,9.6,22.8,13.1,33.6,19.9c0-2.1,0-4.2,0-6.4c-1.5,1-3.9,3.5-6,3c-1.7-0.4-3.2-1.6-4.9-2.2
			c-2.7-1-4.6-1.2-7.2,0.2c-5.9,3-0.9,9.9,3.3,11.1c-0.3-2.3-0.6-4.5-0.9-6.7c-1.1,0.5-2.1,1-3.1,1.5c-2.6,1.4-2.2,4.9,0,6.4
			c7.2,4.8,29.5,7.9,27.5-6c-0.7-4.7-7.8-2.7-7.1,2c0.3,1.9-15.1-1.2-16.7-2.3c0,2.1,0,4.3,0,6.4c1-0.6,2-1.1,3.1-1.5
			c3-1.4,2-6-0.9-6.7c-2.4-0.6,2,4.1,2.7,4.3c1.4,0.6,3.2,1.5,4.8,1.4c3.8-0.2,6.1-2.2,9.1-4.3c2.3-1.6,2.5-4.8,0-6.4
			c-10.2-6.4-23.8-9.8-32.1-18.8c-1.5,1.9-3,3.9-4.5,5.8c5.3,3,9.1,8.4,15,10.2c4.3,1.3,5.9-4.4,2.8-6.7c-4.6-3.5-10.2-4.6-15.4-7.1
			C492.9,280.7,489.2,287.1,493.5,289.1L493.5,289.1z"/>
	</g>
	<g>
		<path class="st10" d="M459.6,406.6c4.1,1.4,9.1-1.2,10.9-5.1c-0.7,0.6-1.5,1.1-2.2,1.7c0.9-0.2,1.7-0.5,2.4-1
			c1.5-1,2.6-3.4,1.3-5.1c-0.1-0.1-0.2-0.3-0.3-0.5c0.1,0.9,0.3,1.9,0.4,2.8c0,0,0,0.1,0,0.1c2.5-4.1-3.9-7.8-6.4-3.7
			c-1,1.6-1.2,3.4,0,4.9c0.4-1.7,0.9-3.4,1.3-5c-1,0.6-2.3,0.7-2.9,1.9c-0.5,1-1.5,2.1-2.6,1.7C457,398,455.1,405.1,459.6,406.6
			L459.6,406.6z"/>
	</g>
	<g>
		<path class="st10" d="M29.2,291.8c-6.7,10,1.6,22.5,8.3,30.1c11.7,13.3,33.1,12.3,48.7,8.2c4.6-1.2,2.6-8.3-2-7.1
			c-11.6,3.1-28.1,4.9-38.3-3.2c-5.8-4.6-15.4-16.7-10.4-24.3C38.3,291.5,31.9,287.8,29.2,291.8L29.2,291.8z"/>
	</g>
	<g>
		<path class="st10" d="M409,52c-4.9,0.1-6.2,3.9-8.8,7.2c2.1,1.2,4.1,2.4,6.2,3.6c0.1-0.7,0.1-1.2,0.6-1.7c3.2-3.5-1.7-8.5-5.2-5.2
			c-2.1,1.9-3.4,4.4-3.2,7.2c0.2,2.5,2.2,4.1,4.7,3.6c1.6-0.3,2.6-1.1,3.8-2.2c3.5-3.3-1.8-8.5-5.2-5.2c-0.2,0.1-0.4,0.2-0.5,0.3
			c1.6,1.2,3.1,2.4,4.7,3.6c-0.1-1,0.3-1.3,1.1-2c-1.7-1.7-3.5-3.5-5.2-5.2c-1.4,1.5-2.1,3-2.5,5c-0.6,3.2,3.7,6.8,6.2,3.6
			c0.7-0.8,3-5.1,3.5-5.1C413.7,59.3,413.7,51.9,409,52L409,52z"/>
	</g>
	<g>
		<path class="st10" d="M469.9,59.1c2.7,7,6,11.8,4.6,19.9c-1.2,7-6.7,13.4-9.8,19.7c-1.5,3,1.8,7.4,5,5.1
			c4.8-3.4,10.6-8.5,9.4-14.9c-0.9-4.7-8-2.7-7.1,2c0.4,2-4.6,5.6-6,6.6c1.7,1.7,3.4,3.4,5.1,5c3.9-8,9.4-15,10.9-24
			c1.5-8.8-2.1-13.6-5.1-21.3C475.3,52.8,468.2,54.7,469.9,59.1L469.9,59.1z"/>
	</g>
	<g>
		<path class="st10" d="M454.8,112.7c0.5-0.1,1-0.2,1.5-0.3c-1.5-0.9-3-1.7-4.5-2.6c5.2,13.1,10.3,26.2,13.2,40
			c0.9,4.2,7.2,3.1,7.2-1c0.1-10.2-3-19.5-5.7-29.3c-2.2,0.9-4.5,1.9-6.7,2.8c5.5,11.5,5.6,24.8,10.1,36.7c1.1,3,6.5,4,7.1,0
			c0,0,0-0.1,0-0.1c0.7-4.6-6.4-6.6-7.1-2c0,0,0,0.1,0,0.1c2.4,0,4.7,0,7.1,0c-4.7-12.6-4.9-26.3-10.8-38.5
			c-1.8-3.8-7.8-1.1-6.7,2.8c2.5,9.1,5.5,17.8,5.4,27.3c2.4-0.3,4.8-0.6,7.2-1c-2.9-13.8-8-26.9-13.2-40c-0.8-2-2.4-3-4.5-2.6
			c-0.5,0.1-1,0.2-1.5,0.3C448.2,106.5,450.2,113.6,454.8,112.7L454.8,112.7z"/>
	</g>
	<g>
		<path class="st10" d="M438.1,90.9c-6.6,3.9,2.4,9.4,5.8,11c0.9-2.2,1.9-4.5,2.8-6.7c-5.1-1.2-11.5,1.4-10.7,7.4
			c0.4,3.3,4.1,4.4,6.9,4c2.5-0.4,4.9-3.2,6-5.3c2.1-4.2-4.2-8-6.4-3.7c-0.3,0.5-0.4,0.8-0.9,1.3c-1.4,1.6-0.3-0.7,1.4,1.5
			c1.6,2.1-1.8,2.7,0.7,2.1c0.3-0.1,0.8-0.1,1,0c3.9,0.9,6.8-5,2.8-6.7c-0.8-0.4-1.6-0.8-2.4-1.2c-0.5-0.3-0.9-0.5-1.4-0.8
			c-1.9-1.2,0.2-0.5-0.7,1.7c-0.6,0.7-1.1,1.5-1.7,2.2c0.1-0.1,0.2-0.1,0.3-0.2C446,94.9,442.2,88.5,438.1,90.9L438.1,90.9z"/>
	</g>
	<g>
		<path class="st10" d="M268.1,132.2c-2.8,3.6-3.6,8.4-6.5,11.9c1.9,1.5,3.9,3,5.8,4.5c3.4-5.2,8.1-8.7,8.5-15.4
			c0.2-2.6-3.3-4.8-5.6-3.2c-4.2,3.1-5.8,7.5-7.8,12.1c-1.9,4.3,4.5,8.1,6.4,3.7c1.3-3,2.4-7.4,5.1-9.4c-1.9-1.1-3.7-2.1-5.5-3.2
			c-0.3,4.6-5.1,8.1-7.5,11.7c-2.3,3.5,3.1,7.7,5.8,4.5c3.4-4,4.5-9.2,7.6-13.4C277.3,132.2,270.9,128.5,268.1,132.2L268.1,132.2z"
			/>
	</g>
	<g>
		<path class="st10" d="M280.6,149.9c-0.8,1-1.7,1.8-2.5,2.8c2,1.2,4.1,2.4,6.2,3.6c0.5-1.5,1.4-2.5,2.4-3.6
			c-2.1-0.5-4.1-1.1-6.2-1.6c0.2,1.2-0.3,1.8-1.2,2.5c-3.6,3.1,1.6,8.3,5.2,5.2c3-2.6,3.9-6,3.1-9.7c-0.5-2.7-4.3-3.5-6.2-1.6
			c-2,2-3.4,4.2-4.3,6.8c-1.2,3.4,3.8,6.5,6.2,3.6c0.8-1,1.7-1.8,2.5-2.8C288.8,151.5,283.6,146.2,280.6,149.9L280.6,149.9z"/>
	</g>
	<g>
		<path class="st10" d="M251.6,204.8c-0.2,4.6-2.8,7.4-5.3,11c2.1,1.2,4.2,2.5,6.4,3.7c5.1-10,13.1-18.8,14-30.4
			c0.4-4.8-7-4.7-7.4,0c-0.8,9.9-8.7,18.2-13,26.7c-2.2,4.3,3.6,7.6,6.4,3.7c3.4-4.9,6.1-8.6,6.3-14.8
			C259.2,200,251.8,200,251.6,204.8L251.6,204.8z"/>
	</g>
	<g>
		<path class="st18" d="M433.4,278.2c-0.8-1.2,0.2-3.2,0.2-4.6c-1.2,1.2-2.5,2.5-3.7,3.7c1.2,0,2.3-0.3,3.4-0.8
			c-1.8-0.7-3.6-1.5-5.4-2.2c1.7,4.8,6,7.8,10.3,10.2c0.6-2.3,1.2-4.6,1.9-6.9c-0.4,0-0.8,0-1.2,0c-4.8,0-4.8,7.4,0,7.4
			c0.4,0,0.8,0,1.2,0c3.6,0,5.1-5.1,1.9-6.9c-2.3-1.3-5.9-3.1-6.9-5.8c-0.9-2.4-3.1-3.3-5.4-2.2c0.9-0.2,1.1-0.2,0.3-0.2
			c-2,0.1-3.7,1.6-3.7,3.7c0,3.3-1.2,5.2,0.8,8.3C429.6,285.9,436,282.2,433.4,278.2L433.4,278.2z"/>
	</g>
	<g>
		<path class="st18" d="M415.9,292.7c1.6,5.2,7.5,5.3,9.8,0.6c2.1-4.2-3.9-7.8-6.4-3.7c-0.9,1.5-1.3,2.9-1.6,4.6
			c-0.6,3.2,2.4,5.7,5.4,4.2c1.5-0.8,2.5-1.8,3.5-3.2c2.9-3.8-3.5-7.5-6.4-3.7c-0.3,0.2-0.6,0.4-0.8,0.5c1.8,1.4,3.6,2.8,5.4,4.2
			c0.2-1.1,0.3-1.9,0.8-2.8c-2.1-1.2-4.2-2.5-6.4-3.7c1.2,0.4,2.5,0.8,3.7,1.2C421.6,286.3,414.4,288.2,415.9,292.7L415.9,292.7z"/>
	</g>
	<g>
		<path class="st18" d="M206.4,343.2c2.5,1.2,4.9,2.5,7.4,3.7c1.2-2.1,2.5-4.3,3.7-6.4c-2.9-1.3-5.7-2.3-8.9-2.8
			c-4.6-0.8-6.7,6.3-2,7.1c3.9,0.7,7.8,1.5,11.7,2c-0.6-2.3-1.2-4.6-1.9-6.9c-8.4,4.3-18.8-0.8-27.7,2.4c-3.3,1.2-3.7,6,0,7.1
			c7.4,2.1,14,5.9,21.9,5.1c3.8-0.4,5.4-6.5,1-7.2c-7.2-1.3-15.3-3.6-22.6-1.2c-2.7,0.9-3.5,4-1.6,6.2c7.3,8.5,19.3,5.1,29,6.3
			c4.7,0.6,4.7-6.8,0-7.4c-7.4-0.9-18.3,2.3-23.8-4.1c-0.5,2.1-1.1,4.1-1.6,6.2c5.9-2,12.7,0.2,18.6,1.2c0.3-2.4,0.7-4.8,1-7.2
			c-7.2,0.7-13.2-2.8-19.9-4.8c0,2.4,0,4.7,0,7.1c9.7-3.5,19.9,1.8,29.5-3.1c3.6-1.9,1.4-6.5-1.9-6.9c-3.3-0.4-6.5-1.1-9.8-1.7
			c-0.7,2.4-1.3,4.7-2,7.1c2.5,0.4,4.7,1,7.1,2.1c4.3,1.9,8-4.2,3.7-6.4c-2.5-1.2-4.9-2.5-7.4-3.7
			C205.9,334.7,202.1,341.1,206.4,343.2L206.4,343.2z"/>
	</g>
	<g>
		<path class="st18" d="M319.9,360.4c-0.5-0.1-1-0.2-1.5-0.3c0,2.4,0,4.7,0,7.1c1.2-0.3,2.5-0.6,3.7-0.9c3.4-0.8,3.7-6.4,0-7.1
			c-3.4-0.6-6.6-0.7-10,0c-3.3,0.7-3.4,5.1-0.9,6.7c2.4,1.6,5.2,2.2,8,2.3c4.8,0.2,4.7-7.1,0-7.4c-1.6-0.1-3-0.5-4.3-1.3
			c-0.3,2.3-0.6,4.5-0.9,6.7c2.1-0.4,4-0.4,6,0c0-2.4,0-4.7,0-7.1c-1.2,0.3-2.4,0.6-3.7,0.9c-3.4,0.9-3.6,6.4,0,7.1
			c0.5,0.1,1,0.2,1.5,0.3C322.6,368.5,324.5,361.4,319.9,360.4L319.9,360.4z"/>
	</g>
	<g>
		<path class="st18" d="M252.5,379.2c12.3,5.3,25.7,4.3,38.8,2.8c18.8-2.1,38.8-5.5,56.8-11c4.5-1.4,2.6-8.5-2-7.1
			c-11.8,3.6-24.1,4.8-36.1,7.7c-15.5,3.6-38.3,8-53.9,1.3C251.9,371,248.1,377.3,252.5,379.2L252.5,379.2z"/>
	</g>
	<g>
		<path class="st18" d="M351.5,371.1c11.6-0.4,24.9-0.6,35.1-7c3.1-1.9,1.9-6.9-1.9-6.9c-0.5,0-1,0-1.5,0c-4.8,0-4.8,7.4,0,7.4
			c0.5,0,1,0,1.5,0c-0.6-2.3-1.2-4.6-1.9-6.9c-9,5.7-21,5.6-31.3,6C346.7,363.8,346.7,371.2,351.5,371.1L351.5,371.1z"/>
	</g>
	<g>
		<path class="st18" d="M367.5,366.1c4.8,0,4.8-7.4,0-7.4C362.7,358.8,362.7,366.1,367.5,366.1L367.5,366.1z"/>
	</g>
	<g>
		<path class="st18" d="M156.9,249.5c5.7,2.7,10.1,6.9,16.6,7.6c3.7,0.4,5-5.2,1.9-6.9c-5.8-3-12-4.3-18.5-4.8
			c-3.9-0.3-4.7,5-1.9,6.9c6.2,4.1,13.7,3.2,20.3,6.1c4.3,2,8.1-4.4,3.7-6.4c-6.5-2.9-14.3-2.2-20.3-6.1c-0.6,2.3-1.2,4.6-1.9,6.9
			c5.1,0.4,10.2,1.4,14.7,3.8c0.6-2.3,1.2-4.6,1.9-6.9c-4.8-0.5-8.7-4.6-12.9-6.6C156.3,241.1,152.6,247.4,156.9,249.5L156.9,249.5z
			"/>
	</g>
	<g>
		<path class="st18" d="M201.5,255c1.8-1,11.5,2.6,14.1,3.5c0.3-2.4,0.7-4.8,1-7.2c-3.6,0.5-6.5-1.2-9.5-2.9
			c-0.6,2.3-1.2,4.6-1.9,6.9c8.7,0.5,18.1,2.6,25.5,7.5c0.9-2.2,1.9-4.5,2.8-6.7c-0.5-0.2-1-0.4-1.5-0.6c-4.4-1.8-6.3,5.4-2,7.1
			c0.5,0.2,1,0.4,1.5,0.6c4.1,1.6,6.1-4.6,2.8-6.7c-8.4-5.6-19.2-7.9-29.2-8.5c-3.7-0.2-4.9,5.1-1.9,6.9c4,2.3,8.5,4.5,13.2,3.9
			c4-0.5,5.2-5.9,1-7.2c-5-1.6-14.8-5.6-19.7-2.7C193.7,251,197.4,257.4,201.5,255L201.5,255z"/>
	</g>
	<g>
		<path class="st18" d="M130.3,261.5c2.8,3.5,5.8,6.6,7.4,11c1.8-1.4,3.6-2.8,5.4-4.2c-3.5-2.3-6.9-4.6-10.5-6.8
			c-2.4-1.4-5.6,0.4-5.6,3.2c0,6.9,11.6,13.7,12.9,4.7c1.7-11.5-21.1-13.4-27-6.6c-7.2,8.3,6.2,15.2,8.4,7c1.5-5.5-3-12.8-5.2-17.5
			c-4.5-9.7-15.4-25.7-9.9-36.8c-2.3-0.6-4.6-1.2-6.9-1.9c-0.4,7.3-6.2,12.3-1.7,19.4c2.6,4,9,0.3,6.4-3.7c-2.7-4.1,2.4-11,2.7-15.7
			c0.2-3.6-5.2-5.1-6.9-1.9c-4.6,9.2-1.3,19,2.3,28.1c2.2,5.5,4.9,10.8,7.6,16.1c1.3,2.5,2.6,5.9,3.6,8.7c0.9,2.3,21.1,6.2,21,0
			c-1.8,1.1-3.7,2.1-5.6,3.2c3.6,2.1,7,4.5,10.5,6.8c2.6,1.7,6.5-1.1,5.4-4.2c-2-5.6-5.6-9.7-9.2-14.2
			C132.6,252.6,127.4,257.8,130.3,261.5L130.3,261.5z"/>
	</g>
	<g>
		<path class="st18" d="M80.8,253.1c8.1,32.3,28.6,60.1,54.4,80.6c3.7,2.9,8.9-2.3,5.2-5.2c-24.8-19.7-44.7-46.2-52.5-77.4
			C86.8,246.5,79.6,248.5,80.8,253.1L80.8,253.1z"/>
	</g>
	<g>
		<path class="st18" d="M75.6,214.9c-0.8,3.5-0.7,7.2,1.3,10.2c2.6,3.9,9,0.2,6.4-3.7c-1-1.4-0.9-2.9-0.5-4.5
			C83.8,212.2,76.7,210.2,75.6,214.9L75.6,214.9z"/>
	</g>
	<g>
		<path class="st18" d="M84.2,184.4c-0.5-1.5-0.9-3-1.2-4.6c-0.9-4.7-8.1-2.7-7.1,2c0.3,1.6,0.7,3.1,1.2,4.6
			C78.7,190.8,85.8,188.9,84.2,184.4L84.2,184.4z"/>
	</g>
	<path class="st6" d="M113.3,225.5c0,6.7-5.5,12.2-12.3,12.2c-6.8,0-12.3-5.4-12.3-12.2c0-6.7,5.5-12.2,12.3-12.2
		C107.8,213.3,113.3,218.7,113.3,225.5z"/>
	<path class="st6" d="M142.8,282.8c0,6.7-5.5,12.2-12.3,12.2c-6.8,0-12.3-5.4-12.3-12.2c0-6.7,5.5-12.2,12.3-12.2
		C137.3,270.7,142.8,276.1,142.8,282.8z"/>
	<path class="st6" d="M209.9,274.1c0,6.7-5.5,12.2-12.3,12.2c-6.8,0-12.3-5.4-12.3-12.2c0-6.7,5.5-12.2,12.3-12.2
		C204.3,261.9,209.9,267.4,209.9,274.1z"/>
	<path class="st6" d="M213.3,340c0,6.7-5.5,12.2-12.3,12.2c-6.8,0-12.3-5.4-12.3-12.2s5.5-12.2,12.3-12.2
		C207.7,327.9,213.3,333.3,213.3,340z"/>
	<path class="st6" d="M279.4,324.4c0,6.7-5.5,12.2-12.3,12.2c-6.8,0-12.3-5.5-12.3-12.2c0-6.7,5.5-12.2,12.3-12.2
		C273.9,312.2,279.4,317.7,279.4,324.4z"/>
	<path class="st6" d="M343.7,295.1c0,6.7-5.5,12.2-12.3,12.2c-6.8,0-12.3-5.4-12.3-12.2c0-6.7,5.5-12.2,12.3-12.2
		C338.2,283,343.7,288.4,343.7,295.1z"/>
	<path class="st6" d="M350.1,363.5c0,6.7-5.5,12.2-12.3,12.2s-12.3-5.4-12.3-12.2c0-6.7,5.5-12.2,12.3-12.2S350.1,356.7,350.1,363.5
		z"/>
	<path class="st6" d="M405.9,322.9c0,6.7-5.5,12.2-12.3,12.2c-6.8,0-12.3-5.5-12.3-12.2c0-6.7,5.5-12.2,12.3-12.2
		C400.4,310.7,405.9,316.2,405.9,322.9z"/>
	<path class="st6" d="M456.9,291.5c0,6.7-5.5,12.2-12.3,12.2c-6.8,0-12.3-5.5-12.3-12.2c0-6.7,5.5-12.2,12.3-12.2
		C451.3,279.3,456.9,284.7,456.9,291.5z"/>
	<g>
		<path class="st12" d="M138.7,61.2c-16.5-13.9-8.2-40,8.5-49.9c10.5-6.2,44.9-13.4,46.3,6.2c0.2,3.1,5.1,3.1,4.9,0
			c-1.6-22.7-34.9-19-49.2-12.5c-21.8,9.8-34.7,42.2-13.9,59.7C137.6,66.6,141.1,63.2,138.7,61.2L138.7,61.2z"/>
	</g>
	<g>
		<path class="st12" d="M196.6,19.8C263.4,3,339.3,29.5,395.7,64.7c1.4,0.9,3.1,0,3.6-1.5C422.9-5.9,519,67,465,105.7
			c-2.5,1.8-0.1,6,2.5,4.2c55.1-39.4-22.8-112-65.8-63.4c-0.1,0.1-8.1,11-4.4,13.4c-6.1-3.8-12.5-7.3-18.8-10.7
			c-22.8-12.4-46.8-21.9-71.7-29.2C272.5,10,230.2,6.3,195.3,15.1C192.2,15.9,193.5,20.6,196.6,19.8L196.6,19.8z"/>
	</g>
	<g>
		<path class="st12" d="M460.8,109.5c18.5,47,23.7,92.4,7.1,141.1c-1,3,3.7,4.2,4.7,1.3c17-49.6,11.9-95.4-7.1-143.6
			C464.4,105.3,459.6,106.6,460.8,109.5L460.8,109.5z"/>
	</g>
	<g>
		<path class="st12" d="M137.1,61.2c-100.2,95-81.7,254.5,49.2,308c85.1,34.8,239,23.3,273.7-79.1c1-3-3.7-4.3-4.7-1.3
			C423.2,383.6,288,393.7,207,371.1C65.2,331.7,37.3,162.5,140.6,64.6C142.8,62.5,139.4,59,137.1,61.2L137.1,61.2z"/>
	</g>
	<g>
		<path class="st12" d="M81,174.6c-14.3-10.4-67.9-45.4-80.2-16.4c-5,11.8,13.5,22.7,21.2,27.4c15,9.3,33.7,17.9,51.4,20.2
			c3.1,0.4,3.1-4.5,0-4.9C60.9,199.3-2.3,178,5.6,159.3c6.7-15.9,37.7-0.9,46.9,3.6c9,4.5,17.8,9.9,26,15.8
			C81.1,180.6,83.5,176.4,81,174.6L81,174.6z"/>
	</g>
	<g>
		<path class="st12" d="M430,271.2c19.3,14.8,40.7,27.5,62.4,38.3c12.7,6.3,35.2,18.2,48.5,7.6c14.7-11.8-7.9-32-16.2-38
			c-22.6-16.4-51.6-25.9-78-34.3c-3-1-4.3,3.8-1.3,4.7c18.9,6,37.4,12.9,55.3,21.4c11.2,5.3,22,11.7,31.1,20.1
			c12.2,11.2,9.5,27.2-8.4,24.6c-31.6-4.7-65.9-29.4-90.9-48.6C429.9,265,427.5,269.3,430,271.2L430,271.2z"/>
	</g>
	<g>
		<path class="st12" d="M92.5,291.6c-13,4.4-24.6,4.7-35.6-4.1c-4.5-3.6-8.3-8-13.5-10.5c-12.4-6-19.3,6.8-19.6,17.2
			c-0.3,16.3,8.1,31.4,22.5,38.7c21.8,11,48.8,1.2,68.7-9.2c2.8-1.5,0.3-5.7-2.5-4.2c-20.3,10.6-44.8,18.7-66.7,7.7
			c-8.1-4.1-12-11.3-14.8-19.5c-2.7-7.9-6-29.1,8.7-26.7c7.9,1.3,15.1,12,22.2,15.8c10,5.3,21.6,3,31.7-0.4
			C96.8,295.3,95.5,290.6,92.5,291.6L92.5,291.6z"/>
	</g>
	<g>
		<path class="st12" d="M399.8,360.6c13.9,11.2,22.1,22,13.8,39.2c-2.2,4.6-4.7,10.4-2.3,15.4c10,20.4,36.4,7.6,49.8-1.3
			c16.3-10.8,23.6-23.8,13.8-42c-8.6-15.9-27-28.2-42.6-36.4c-2.8-1.5-5.3,2.7-2.5,4.2c12.1,6.4,23.3,14.6,32.8,24.3
			c7.6,7.7,16.6,21.3,10.4,32.2c-4.9,8.6-15.5,14.6-23.8,19.2c-8.8,4.9-32.7,12.2-34.1-5.1c-0.4-5.4,4.5-11.7,6.4-16.7
			c5.6-15.3-7.7-27.8-18.3-36.4C400.9,355.2,397.4,358.6,399.8,360.6L399.8,360.6z"/>
	</g>
	<g>
		<path class="st12" d="M123.6,180.4c-28.5-55.3,41.8-61.9,74-47.2c21.6,9.8,45.3,22.7,53.8,46.4c15.2,42.6-38.3,48.2-64.4,41.1
			C161.7,213.7,138.3,203.1,123.6,180.4c-1.7-2.6-5.9-0.2-4.2,2.5c18.8,29,54.5,43.3,87.9,46.3c33.3,3,58.6-23.4,46.9-56.2
			c-9.5-26.7-53.5-49.9-80.2-52.9c-38.6-4.3-75.3,22.6-54.6,62.8C120.8,185.7,125,183.2,123.6,180.4L123.6,180.4z"/>
	</g>
	<g>
		<path class="st12" d="M172.9,152.4c-1.2-3.7-5-17.4,0.6-18.9c3.3-0.9,8.1,1.3,11,2.5c3.7,1.6,8,3.9,10.2,7.3
			c4.4,6.8-20.5,7.3-24.1,7.2c-3.1-0.1-3.1,4.8,0,4.9c8.3,0.4,38.7-1.2,26.9-16.4c-4.6-6-18.9-13.1-26.5-9.8
			c-8.1,3.5-4.8,18.2-2.7,24.4C169.2,156.6,173.9,155.4,172.9,152.4L172.9,152.4z"/>
	</g>
	<g>
		<path class="st12" d="M140.1,144.2c-3.9,8.4-2.2,18.5,7.3,22c10.6,3.8,20.4-2.7,25.2-11.9c1.5-2.8-2.7-5.3-4.2-2.5
			c-3.5,6.8-9.8,12.1-17.9,10.3c-7.5-1.6-9.1-9.2-6.2-15.4C145.6,143.8,141.4,141.4,140.1,144.2L140.1,144.2z"/>
	</g>
	<g>
		<path class="st12" d="M167,155.7c1.7,15.1,9.5,28.2,24.9,32.1c9.9,2.5,23.3-0.7,26.5-11.5c0.9-3-3.8-4.3-4.7-1.3
			c-2.5,8.4-13.2,9.5-20.5,8.1c-13.2-2.6-19.9-15-21.3-27.4C171.5,152.6,166.7,152.6,167,155.7L167,155.7z"/>
	</g>
	<g>
		<path class="st12" d="M148.2,163.3c-2.5,5.5-5,11.1-7.5,16.6c-0.5,1.2-0.4,2.7,0.9,3.3c10.5,5.6,21,11.1,31.5,16.7
			c1.5,0.8,3,0,3.6-1.5c2.4-5.9,4.8-11.7,7.2-17.6c1.2-2.9-3.5-4.2-4.7-1.3c-2.4,5.9-4.8,11.7-7.2,17.6c1.2-0.5,2.4-1,3.6-1.5
			c-10.5-5.6-21-11.1-31.5-16.7c0.3,1.1,0.6,2.2,0.9,3.3c2.5-5.5,5-11.1,7.5-16.6C153.7,162.9,149.5,160.4,148.2,163.3L148.2,163.3z
			"/>
	</g>
	<g>
		<path class="st12" d="M159.8,190.2c2.2-4.9,4.3-9.7,6.5-14.6c1.3-2.9-2.9-5.3-4.2-2.5c-2.2,4.9-4.3,9.7-6.5,14.6
			C154.3,190.6,158.5,193.1,159.8,190.2L159.8,190.2z"/>
	</g>
	<g>
		<path class="st12" d="M74.5,172.1c44.4,63.2,136.9,80.3,206.6,93.4c44.3,8.4,106.2,22.2,150.7,5.8c2.9-1.1,1.7-5.8-1.3-4.7
			c-40.5,14.9-97.4,2.6-137.5-4C221.7,251,123.9,234,78.7,169.7C76.9,167.1,72.7,169.6,74.5,172.1L74.5,172.1z"/>
	</g>
	<g>
		<path class="st12" d="M132.4,90.1c-2.6,1.9-5.1,3.8-5.9,7.1c-0.7,2.9-0.7,6.8,0.5,9.5c2.5,5.8,9.5,8.1,15.3,6.4
			c6.6-2,10.8-10.8,8.5-17.1C148,88.4,138.9,87.2,132.4,90.1c-3,1.3-0.4,5.7,2.6,4.4c4-1.7,9.5-1,11.2,3.5c1.5,4.2-2.4,9.5-6.4,10.4
			c-3.1,0.7-6.5-1-8-3.7c-0.8-1.5-0.4-3.9-0.3-5.5c0.1-2.3,1.8-3.5,3.6-4.7C137.6,92.6,135,88.1,132.4,90.1L132.4,90.1z"/>
	</g>
	<g>
		<path class="st12" d="M325,162.1c-1.4-9.4-12.6-13.6-21-12.5c-11.1,1.5-15,11.8-11.8,21.8c5.8,18.1,35.1,9.2,32.9-8.7
			c-0.4-3.2-5.5-3.3-5.1,0c1.4,11.1-15.2,19.2-21.9,9.2c-4.1-6.1-2.1-15.1,5.2-17.1c6.4-1.7,15.6,1.4,16.7,8.5
			C320.5,166.7,325.4,165.3,325,162.1L325,162.1z"/>
	</g>
	<g>
		<path class="st12" d="M444.9,89.4c8.1-3.9,15.2-11.7,10.7-21.1c-4.3-9-16.6-9.7-24.7-6.6c-8.2,3.1-13.9,11.3-10.1,20.1
			c4.1,9.3,14.7,11,23.5,7.9c2.9-1.1,1.7-5.8-1.3-4.7c-6.3,2.3-13.6,2-17.3-4.3c-3.5-5.9,0.7-11.4,6-14c5.9-2.9,14.7-2.8,19,2.9
			c5.1,6.8-2.6,13-8.2,15.7C439.6,86.6,442.1,90.8,444.9,89.4L444.9,89.4z"/>
	</g>
	<g>
		<path class="st12" d="M164.2,36.3c-2,2.2-12.3,13.4-15.9,8c-2.9-4.3,0.8-11.6,3.5-15.1c2.4-3,11.8-11.4,15.3-6
			c2.2,3.4,1,10.4-2.4,12.7c-2.6,1.7-0.2,6,2.5,4.2c5.8-3.9,7.3-12.9,4.4-19c-4.7-9.6-17.6-1.5-22.3,3.6c-4.9,5.3-9.4,15.5-4.9,22.4
			c6.2,9.4,18.8-2.6,23.3-7.4C169.8,37.5,166.3,34,164.2,36.3L164.2,36.3z"/>
	</g>
	<g>
		<path class="st12" d="M203.5,47.7c-6.6,11.1-7.9,30.1,4.2,38.4c13.9,9.5,17.4-7.1,16.8-18c-0.1-2.4-3.7-2.4-3.7,0
			c-0.1,10.5,7.2,24.7,17.4,28.8c14,5.6,8.6-16.8,7-22.7c-0.6-2.3-4.1-1.3-3.6,1c3,13.5,17.6,35.1,33.1,34.8c18-0.4,6-35.1,1.2-42.1
			c-1.4-1.9-4.5-0.1-3.2,1.9c5,7.2,14.1,45.5-6.3,34.1c-9.7-5.4-18.9-18.8-21.3-29.6c-1.2,0.3-2.4,0.6-3.6,1
			c2.4,8.9,3.7,25.3-8.1,13.5c-5.3-5.3-9.1-13-9-20.6c-1.2,0-2.5,0-3.7,0c0.4,3.8,0.3,7.6-0.4,11.4c-2.2,13.7-13.2,1.3-15-1.2
			c-5.7-7.9-3.5-20.8,1.2-28.7C207.9,47.5,204.7,45.7,203.5,47.7L203.5,47.7z"/>
	</g>
</g>
</svg>
