<?xml version="1.0" encoding="utf-8"?>
<!-- Generator: Adobe Illustrator 19.1.0, SVG Export Plug-In . SVG Version: 6.00 Build 0)  -->
<svg version="1.0" id="Layer_1" xmlns="http://www.w3.org/2000/svg" xmlns:xlink="http://www.w3.org/1999/xlink" x="0px" y="0px"
	 viewBox="0 0 191.6 201.1" style="enable-background:new 0 0 191.6 201.1;" xml:space="preserve">
<style type="text/css">
	.st0{fill:#E1F4FD;}
	.st1{fill:#F2D8E0;}
	.st2{fill:#DFF0E3;}
	.st3{opacity:0.85;}
	.st4{opacity:0.3;fill:#FFFFFF;}
	.st5{opacity:0.3;fill:#F2D8E0;}
	.st6{fill:#FFFFFF;}
	.st7{opacity:0.3;fill:#DFF0E3;}
	.st8{opacity:0.4;fill:#FFFFFF;}
	.st9{opacity:0.3;fill:#E1F4FD;}
	.st10{fill:#F8DE8D;}
	.st11{fill:#BADAF3;}
	.st12{fill:#231F20;}
	.st13{fill:#010101;}
	.st14{fill:none;stroke:#010101;stroke-width:6.518;stroke-miterlimit:10;}
	.st15{fill:none;stroke:#FFFFFF;stroke-width:6.0438;stroke-miterlimit:10;}
	.st16{fill:#FAD6D7;}
	.st17{fill:#FFFEFE;}
	.st18{fill:#C2DE9F;}
	.st19{fill:#FCD6D6;}
	.st20{fill:#FEE777;}
	.st21{fill:#FAA958;}
	.st22{fill:#BADB93;}
	.st23{fill:#F9DE8C;}
	.st24{fill:#B0DAF4;}
	.st25{fill:#9C6026;}
	.st26{fill:#CB8F62;}
	.st27{fill:#714C1E;}
	.st28{fill:#9C9DCE;}
	.st29{fill:#FFC214;}
	.st30{fill:#DEE682;}
	.st31{fill:#F3DAB1;}
	.st32{fill:#F6B4C9;}
	.st33{fill:#FEC470;}
	.st34{fill:#FDC17E;}
	.st35{fill:#724F1F;}
	.st36{fill:#D22030;}
	.st37{fill:#00AFAC;}
	.st38{fill:#18A6DF;}
	.st39{fill:#FEDD10;}
	.st40{fill:#E74782;}
	.st41{fill:#FBD0D8;}
	.st42{fill:none;stroke:#000000;stroke-width:1.7659;stroke-miterlimit:10;}
	.st43{fill:#672F12;}
	.st44{fill:#F58C8E;}
	.st45{fill:#E8B674;}
	.st46{fill:#FFD89F;}
	.st47{fill:#FFEDB3;}
	.st48{fill:#5EB2E3;}
	.st49{fill:#7DB2E0;}
	.st50{fill:#F19C9D;}
	.st51{fill:#593712;}
	.st52{fill:none;stroke:#E7EFD6;stroke-width:0.4253;stroke-miterlimit:10;}
	.st53{fill:#D86464;}
	.st54{fill:#FEEBB1;}
	.st55{fill:#F8A95A;}
	.st56{fill:none;stroke:#010101;stroke-width:8.0507;stroke-linecap:round;stroke-linejoin:round;stroke-miterlimit:10;}
	.st57{fill:#95D4D1;}
	.st58{fill:#F6DD8C;}
	.st59{fill:#B0D9F4;}
	.st60{fill:#FFC118;}
</style>
<g>
	<path class="st1" d="M47.4,110.2c0,0-45.6,48.1-17.8,71.1c27.8,23,91.1,32.4,120.1-7.3c11.3-15.5,3.3-47.3,3.3-47.3
		s-0.2-11.9,1.5-13.1c42.8-29.6,43.8-64,27.1-67.7c-29.6-6.7-51.3,25.9-54.7,38C123.5,96,138.7,18.7,101.7,15
		C56.5,10.6,71.4,94,71.4,94s-37.5-68.9-57-50.1C-14.2,71.6,39.4,105,44.9,105C50.4,105,47.4,110.2,47.4,110.2z"/>
	<g>
		<g>
			<g>
				<g>
					<g>
						<g>
							<path d="M42.1,103.1l1.1-0.4l-0.5-1.1c0,0-0.1,0.4-0.3,0.7C42.2,102.8,42.1,103.1,42.1,103.1z"/>
							<path d="M48.2,103.9l1-1.2c-1.2-1.3-1.4-1.9-1.7-2.3c-0.3-0.4-0.8-0.6-2.7-0.9c-0.3,0.5-0.7,1.3-0.9,2.1
								c-0.2,0.8-0.1,1.6,0.5,2c0.3-0.5,0.4-2.1,1.4-2.4c0.2,1.1-0.7,1.6-0.3,2.9c0.9,0,0.9-0.3,1-0.6c0-0.4,0-0.9,0.9-1L48.2,103.9
								z"/>
							<path d="M48.2,100c0.1,0.6,0.3,1.2,0.5,1.6C48.5,101,48.9,100,48.2,100z"/>
							<path d="M49,99.2c1-0.3,0.5,1.2,0.7,1.3c0,0,0-0.6,0.1-1.3c0.1-0.7,0.2-1.3,0.2-1.3s-0.3,0.3-0.5,0.6
								C49.2,98.9,49,99.2,49,99.2z"/>
							<path d="M53.2,97.8c0.2-0.1,0.3-0.2,0.4-0.3C53.4,97.2,53.3,97.5,53.2,97.8z"/>
							<path d="M55.3,97c-0.6-0.7-1.1-0.1-1.6,0.5c0,0,0.1,0.1,0.1,0.1c0.8,0.5,0.6,2.2-0.4,2c-0.8,0.6-1.3-0.9-1.7,0.4
								c0,0,0.4,0.2,0.8,0.4c0.4,0.2,0.7,0.4,0.7,0.4C54.5,100.2,54.8,97.7,55.3,97z"/>
							<path d="M53.2,97.8c-0.2,0.1-0.3,0.2-0.5,0.3C53,98.3,53.1,98.1,53.2,97.8z"/>
							<polygon points="51,98.4 50.6,98.9 51,99.4 							"/>
							<path d="M58.9,96.2c0.1,2.2-2.7,0.2-2.6,2c1.4-0.4,2.8,1,2.7,2.2c0,0,0.3-0.2,0.7-0.5c0.3-0.2,0.7-0.4,0.7-0.4
								C60.8,98.6,59.9,97,58.9,96.2z"/>
							<path d="M62.6,101.2c0.1-0.2,0.2-0.3,0.3-0.4C62.8,100.9,62.6,101.1,62.6,101.2z"/>
							<path d="M70.2,97.2c0,0-0.9,0.5-1.8,1.1c-0.9,0.6-1.8,1.1-1.8,1.1c0.3-0.7,0.2-1.4,1-1.7c-1.6-0.2-1.8,1.1-3.1,1
								c-0.3-1,0.3-1.1,0.9-1.1c0.5,0,1,0,0.6-0.9c-1,0.1-2.4,0.3-3,2c0,0-0.4-0.3-0.8-0.6c-0.4-0.3-0.8-0.6-0.8-0.6l0.7,2.1
								c0.6,0.6,1-1.8,1.5-0.3c0.3,0.9-0.3,1.2-0.7,1.4c0.9-0.5,2.6,1.5,4.4,1.2C69.3,101.8,68.8,98.3,70.2,97.2z"/>
							<polygon points="70.3,99.7 70.5,100.6 70.4,99.4 							"/>
							<path d="M74.4,97c0,0-0.5,0.3-1,0.6c-0.5,0.3-1,0.6-1,0.6c-0.2-0.2-0.3-0.7-0.4-1.1c0.1,0.5-0.5,1.4-0.4,1.8
								c0.8,2.1,2.3-0.6,3.4-0.8c2.6,1.1-0.2,1.1,0.7,3c-0.7-0.1-0.7-0.6-1.7-0.8c0.7,1.2,1.6,1.3,2.5,1.1c0.9-0.2,1.7-0.8,2.3-1
								c-0.3-0.2-0.3-0.9-0.9-0.8l1.2-0.5C78,97.5,77,96.9,74.4,97z"/>
							<path d="M71,96.8c0.7-0.1,1,0,1,0.3C71.8,96.6,71.6,96.2,71,96.8z"/>
							<path d="M79.2,100.5c-0.1-0.1-0.3-0.1-0.6,0C78.8,100.6,78.9,100.6,79.2,100.5z"/>
							<path d="M78.4,98l1.3,0.4l-0.4-1C79.1,97.4,78.5,97.5,78.4,98z"/>
							<path d="M125.1,117.7c0.4-0.7,0.2-1.4-0.8-1.8c0.7-0.9,1.7,0,2.5-0.1c-0.7-1.3,0.7-1,1-2.1c-1.2-1-2.6-0.1-3.9-1.2
								c0.2-0.2,0.5-0.7,0.5-1.1c-2.1-0.5-5.5-1.2-6.9-2.9c-1.5-1.2-3-1.4-5.1-1.8c-3-1.6-6.3-2.8-9.7-3.9
								c-3.4-1.1-6.8-2.1-10.3-3.4l-1.5,1.8c-0.1-1.1-1.7-0.4-1.2-1.7c0.3,0.4,0.7,0.2,1.2,0.3c-0.5-1.1-1.6-1.3-2.7-1.3
								c-1.1,0-2.2,0.1-3.1-0.4c0.1,0.4,0.1,2.3-0.5,2.5c0.6-2.3-2.1-0.4-2.3-3.1c-1.8-0.9-0.4,2-2.2,1.4c-0.4,1.3,1.7,0.9,1.9,2
								c-0.8,1-1.6-0.7-1.7,0.7c1.4,0.5,3.6,0.3,6.1,0.1c2.5-0.3,5.2-0.6,7.6-0.3l-0.8,1.1c2.6-0.3,6.4,0.8,7.5,3.4
								c0-1.3,3.1,1.8,3.7-1c0.4,0.8,0.6,0.8,1.3,1.3l0.5-0.8c1.2,0.5,0.5,1.7,1.8,2.1c-0.4-1.5,0.7-1.4,1.5-2.2
								c0.5,0.9,1.1,1.9,1.6,2.8c0.5,0.9,1,1.8,1.5,2.6c0.1-0.4,0.1-0.9-0.1-1.5c0.7,0.8,1-0.3,1.5-0.6c0.9,0.3,0.1,1.7-0.3,2.4
								c1.3,1.2,3.4-1.2,4,0.3l0.2-1.3c1.8,0.6,2.4,2.5,4.3,3.1c-0.1,1.9-2.1,0.5-3.2,0.7c0.2,0.5,0.8,1,0.8,1.6
								c1.1-0.4,3-0.7,4.3-0.8C122.5,116.1,124.7,117.2,125.1,117.7z"/>
							<path d="M120.2,115.7c-0.3,0.1-0.6,0.2-0.8,0.3c0.2,0,0.4,0,0.6,0.2C120.1,116,120.2,115.8,120.2,115.7z"/>
							<path d="M125.1,117.7c0,0.1,0,0.1-0.1,0.2C125.3,117.9,125.3,117.8,125.1,117.7z"/>
							<path d="M117.5,108.3c0,0.1,0.1,0.1,0.2,0.2c0.1,0.1,0.2,0.1,0.3,0.2L117.5,108.3z"/>
							<path d="M113.7,112.7c-0.1-0.6-0.4-1.2-0.8-1.8C112.9,111.5,112.8,111.9,113.7,112.7z"/>
							<path d="M103.4,106.9c-0.4,0.1-0.3,0.5-0.7,0.8C103.3,108,103.7,107.7,103.4,106.9z"/>
							<polygon points="121.8,117 123.2,117.4 123.9,117.5 							"/>
							<path d="M145.8,134.4c0.6-0.8,0.5-1.8,0.2-2.7c-0.3-0.9-0.8-1.7-1.1-2.6c-1.1-1.3-1.8-0.9-2.5-0.6c-0.7,0.3-1.3,0.6-2.1-0.5
								c0,0,0.7-0.3,1.4-0.6c0.7-0.3,1.4-0.6,1.4-0.6c-0.2-0.3-0.4-0.6-0.7-1c-0.2-0.3-0.5-0.7-0.8-1c-0.3-0.3-0.5-0.7-0.8-1
								c-0.3-0.3-0.6-0.6-0.9-0.9c-0.6-0.6-1.4-1.1-2.2-1.4c-0.8-0.3-1.6-0.5-2.5-0.4c0.1-0.4,0-1.1,0.9-0.9
								c-1.6-1.2-3.6,2.6-4.8,0.3c3,0,0.5-1.9,2.2-3l0.4,0.1c-1.4-0.9-3.8-1.4-4.6-2.1c-0.5,0.6-0.5,2.1-1.7,1.4
								c0.4,0.4-0.3,1-0.8,1.7c1.7,0.1,2.1,1.1,3.4,0.8c0.1,1.3-0.7-0.1-0.6,1.3c0,0,0,0,0.1,0l0,0l0,0l0,0l0,0l0,0l0,0l0,0
								l-0.1-0.1l0,0c0,0,0.1,0,0.1,0c0.1,0,0.3,0,0.5,0c0.4,0,0.7,0,0.7,0c0.5,0.7-1.3,0.3-0.4,1.3c0.5-0.4,1.8-0.2,2.4,0.6
								l-0.5,0.1c0.8,0.2,1.3,1.3,2.2-0.2c0,0-0.1,0.5-0.2,0.9c-0.1,0.5-0.3,0.9-0.3,0.9l0.7-0.9c0.6,0.9,0.5,2,0.6,2.9
								c0.1,1,0.4,1.7,1.7,2.3c-0.1-0.7,0.7-0.6,1.1-0.5c0-1.4-1.5-0.5-2.3-1.2c0.8-0.9,3.1-0.4,2.7-1.8c0,1,0.4,1.5,0.6,2.1
								c0.2,0.5,0.2,1.1-0.8,2.2c0.3,0.7,0.9,1,1.4,1.4c0.4,0.4,1,0.8,0.9,1.7l-0.4,0.1c0.9-0.2,0.9,0.2,0.8,0.6c0,0.5-0.1,1,1,1.3
								l0.2-1c0.8-0.2,0.9,0.2,1.2,0.8c-0.3,0-0.3,0-0.6,0.3c1.4-0.2,2,1.8,2.4,2.1c0-0.2,0-0.5-0.1-0.7c-0.1-0.2-0.3-0.5-0.5-0.7
								c-0.4-0.4-0.8-0.9-1.2-1.3C144.7,133.9,145.8,133.5,145.8,134.4z"/>
							<path d="M131.7,122.3l0.8-0.1C132.3,122.1,132.1,122.1,131.7,122.3z"/>
							<path d="M143.2,142.5c-0.6,1-1.1-0.5-1.9,0.2c0.3,0.6,0.9,0.5,1.5,0.3c0.6-0.2,1.3-0.3,1.8,0.4c-1,0.4,0,2-0.1,2.5
								c-0.6-0.8-2.4-1.1-2.8-1.1c0.3,0.6-0.8,1.1-1.2,1.7c1.8-1.1,0,1.7,1.8,0.7c0.5,0.3,0.7,0.9,0.6,1.5c-0.1,0.6-0.4,1.2-0.9,1.3
								c-0.7-0.4-0.2-0.9,0-1.3c-1.1-1-1.3,0.6-2.6,0.2c0.5,1.2-0.1,3.1-0.5,4.6c-0.3,1.6-0.4,2.9,1.4,3.3c0.9-0.1,0.6-1.1,0.9-1.7
								c-1.7,1.2-1.4-1.1-1.8-1.5c0.9-0.3,0.8-2.1,1.6-1.2c0,0,0.1,0.5,0.2,0.9c0.1,0.4,0.1,0.9,0.1,0.9c1.5-1.6,3-3.7,4-6.2
								c1.1-2.5,1.7-5.3,1.7-7.9c0,0-0.1,0.5-0.2,1.1c0,0.3-0.1,0.5-0.2,0.7c0,0.2-0.1,0.3-0.1,0.3c-0.4-0.2-0.6-0.6-0.7-1
								c-0.1-0.4-0.2-0.9-0.4-1.3c0,0-0.6,0.2-1.1,0.4c-0.6,0.2-1.1,0.3-1.1,0.3c0.2-0.5-0.1-1,0.7-0.9c-0.9-0.7-1.5-0.4-2.2-0.2
								c-0.1-0.6,0-1,0-1.3c0-0.3-0.1-0.6-0.9-1c-0.9,1-0.5,1.3-0.1,1.8c0.2,0.2,0.4,0.5,0.4,0.8c0,0.3-0.1,0.7-0.6,1.2
								c0,0,0.7,0.3,1.4,0.6C142.5,142.1,143.2,142.5,143.2,142.5z"/>
							<path d="M142.5,137.5c0,0,0.3,0.1,0.6,0.2c0.3,0.1,0.6,0.3,0.6,0.3s-0.1-0.2-0.3-0.4c-0.2-0.2-0.3-0.4-0.3-0.4L142.5,137.5z"
								/>
							<path d="M147.4,138.3c-0.5,0-0.7-0.4-1.2-0.3C145.8,139.2,146.5,139.1,147.4,138.3z"/>
							<path d="M138.5,150.1c0,0-0.1,0.4-0.2,0.7c-0.1,0.4-0.3,0.7-0.3,0.7s0.2-0.1,0.5-0.3c0.2-0.1,0.4-0.3,0.4-0.3
								C138.5,150.7,138.5,150.3,138.5,150.1z"/>
							<path d="M136.2,161.9c1.4-1.8,1.2-3.1,3.7-4.3c-0.4-1.9-2.4-1.3-3.1-2.5c-1,0.7,1,2.1,0.5,3.4c-1.2-0.5-1,1.5-2.1,2.2
								C135.6,161,136,161.4,136.2,161.9z"/>
							<path d="M127.6,163.5c-0.7,0.6-0.8,2-1.8,2c-0.4-0.7-0.2-1.2,0.4-1.5c-1.4-1.1-0.6,0.9-2.2,0.6c0.2,0.1,0.7,0.1,0.7,0.6
								c-2.2,1.3-0.2,2.1-3.5,3.3c-0.1,0.7-0.5,1,0.3,1.8c-2.4,0-1.6-0.6-4.3-0.3c0.5,0.5,2,1.3,2.9,2.5c-3.9,0.3-2.5,2.2-5.1,2.2
								c0.1-0.2,0.2-0.7,0.7-0.8c-1.4-1.5-1.2,1.3-2.4,1.6l-0.9-1.5c-0.4,0.4-0.8,1.1-1.3,1.7c-0.5,0.6-1.2,0.9-2.1,0.7l-0.2-0.9
								c-0.4,0.6-0.8,1.2-1.3,1.7c-0.5,0.5-1.1,0.9-1.7,1.2c-1.1,0.8-2.4,1.3-3.2,2.1c0,0-0.4-0.1-0.8-0.2c-0.4-0.1-0.8-0.3-0.8-0.3
								c-1.2,1.2-0.4,1.1,0.5,1c0.9,0,2-0.1,1.5,1.6c-0.8-1.4-1.1-1-1.4-0.3c-0.3,0.7-0.8,1.7-1.9,1.4c-1.2-0.9,1.4-1.3,0-2.3
								c0.2,1.7-0.7,0.8-1.4,1.6c-0.3-1.5-1.9,0.4-1.9-1.4c0,0-0.1,0.2-0.3,0.6c-0.2,0.4-0.5,0.8-0.8,1.3c-0.6,0.9-1.2,1.8-1.2,1.8
								c-0.8-0.7-1.7-0.3-2.3,0c1.8-0.4,0,2.4,2.3,2.6c0.7-0.4,1.5-0.8,2.4-1.2c0.9-0.4,1.9-0.9,2.9-1.3c2-0.9,4.1-1.6,6-2.1
								c-0.3-1.1,0.3-1.3,0.9-1.5c0.6-0.3,1.2-0.5,1.1-1.4c0.4,0.6,0.9,0.9,1.4,1.5c2-1.6-1.1-0.7-0.9-1.7c0.8-0.7,2.2-0.1,2.5,0.6
								c1.6-0.9-0.1-0.6,0-2.1c0,0,0.6,0.3,1.1,0.7c0.6,0.3,1.1,0.7,1.1,0.7c1.1-0.9,2.1-2,3.3-3c1.1-1.1,2.3-2.2,3.6-3.3
								c2.5-2.2,5.1-4.3,7.9-5.8l-1.3-0.8c1.3-0.6,1.7-2,2.2-3.1c0.5-1.1,1.1-2,3.1-1.7L131,161c0.2,0.8,1.9,1.3,2,2.5
								c0.2-0.9,1.2-1.1,1.4-2L133,162c-0.2-1.6,1.1-1.8,2.2-1.3c0.4-2.6-2.7-0.9-3.9-1.5c-0.1,2-1.1,2-2.2,1.9
								c-1.1-0.1-2.3-0.5-3,0.8C125.4,163.7,127.1,162.9,127.6,163.5z"/>
							<path d="M133,164.1c0.1-0.2,0.1-0.4,0-0.6C133,163.6,133,163.8,133,164.1z"/>
							<path d="M91.8,185.5c-0.2,0-0.5,0.1-0.8,0.3C90.8,186.2,91.2,185.9,91.8,185.5z"/>
							<path d="M135.1,160.7C135.1,160.7,135.1,160.7,135.1,160.7C135.1,160.7,135.1,160.8,135.1,160.7
								C135.1,160.8,135.1,160.7,135.1,160.7z"/>
							<polygon points="133.5,157.2 132.9,157.8 133.5,158.1 							"/>
							<path d="M83.5,185l0.1,0.8C83.6,185.5,83.6,185.2,83.5,185z"/>
							<path d="M62.1,183.2l0.5,0.1C62.4,183.1,62.3,183.1,62.1,183.2z"/>
							<path d="M14.6,161.6c-1.4-0.6-3.2-1.4-4.8-1.3l0.6-0.5c-0.4-0.1-1.3-0.4-2-0.4c-0.8,0-1.4,0.2-1.3,1.3l0.8-0.2
								c1.1,0.3,1.1,0.7,1,1.4c-0.1,0.3-0.2,0.6-0.2,1c0,0.2-0.1,0.3,0.1,0.6c0,0.2,0.1,0.3,0.2,0.5c1.6,0.8,4.2-0.7,5,0.8
								c0.6,0.4,0,0.9-0.5,1.2c1.1,1.2,3-0.2,4,0.2c-1.6,2.5-0.4,2.9,1.2,3.2c1.6,0.3,3.5,0.5,3.4,2.7c1.5,0.4,2.9,1.9,5.1,1.9
								c-1.6,0.7,1.5,1,0.3,2.2c1.1-1.3,2.1-0.3,3.1,0.6c1,0.9,2.1,1.7,3.3-0.2c1.7,2.2,0.2-0.2,2.4,2c-0.2,0.4-0.7,0.2-0.9,0.2
								c0.6,1.3,2.4-0.9,2.4,1.3c2,1.3,0.9-0.9,2.6-1.3c2,1.4,1.1,1.7,1.7,3.9c1-1.8,2-0.4,3.5-0.9c-0.2-0.2-1.6-1.2-0.3-1.5
								c2.5,1.3,2.6-0.5,5.1-0.1c0.5,2.6-2.4-0.8-0.9,1.6c-1.9,0.4-3.1-0.1-4.5,1.1c2.1,1,4.8,1.5,7.4,1.4c1.2,0.7-1,0.8,0,1.3
								c2.1,1.7,4.2-1.2,5.8,0.2l-0.7,1c1.5-1.2,4.1,1.3,6.6,0.9c-0.2-0.6-0.3-1,0.1-1.4c-0.3,1.4,0.6,1.2,1.7,0.9
								c1.1-0.3,2.5-0.8,3.5,0.4c0-1.8,2.2-2.7,3.5-2.8c0.4,0.5,0.3,1.3,0.2,1.8c-2.1-1.3-2.3,1.9-4.2,2.5c0.8-0.4,1.8-0.3,2.7-0.3
								c1,0,1.9,0,2.6-0.6l-0.6,1.4c2.1,0.3,1.9-3.2,4-1.8l-0.2,1.1c2.2-0.1,4.5,0.3,6.8,0.2c1.1-0.1,2.2-0.1,3.2-0.5
								c1-0.3,1.9-0.8,2.7-1.5c0.1-0.9-1.9-2.7-2.1-3.3c-1.8,1.1-2.7,2.7-4.2,3.7l-0.1-1.7c-0.2,1.2-2.1,2-1,2.8
								c-1.2,0.9-1.1-1.4-2.5-0.4c0.1-1.8,0.9-2,0.8-3.5c0,0-0.3,0.2-0.6,0.5c-0.3,0.2-0.6,0.5-0.6,0.5c0.4-0.7-0.8-0.6-0.4-1.3
								c-1.1,1.1-1.9,0.9-2.7,0.5c-0.8-0.4-1.6-0.9-2.8-0.5l1.3,0.4c0,1-0.8,0.9-1.4,1.1c-0.6-1.4-1-1.3-2.1-1.9
								c-1.1,0.7-1.8,2.4-3.3,2.2c0.5-1.8-2.2-1.3-2.2-2.9c-0.6,1.8-2.8,0.2-3.2,1.2c-0.8,0.2-1.8-0.2-1.6-1.1
								c0.1,0,0.4-0.2,0.6-0.2l-0.7-0.2c0.1-0.2,0.1-0.4,0.2-0.4c-0.6-0.2-0.9,1.2-1.6,0.1c0.1-0.5,0.6-0.4,1-0.5
								c-1.6-0.7-3.7,2-4.7,0c-0.5,0.8-2.6,0.3-2.7,2.3c-0.4-0.8,0.3-2.2-1.2-2.4c-1.3,1.3-1.4-1.1-2.9-0.5c2-1.1,0.2-0.4,2-1.6
								c-0.7-1-2.9,0.6-4.5-0.3c0-0.4,0.1-0.9,0.1-1.3c-0.8,0.3-2.1,1.3-2.1-0.2l-0.4,1.1c-0.9-1-2.6-1.4-3.3-3.1l-2.3,1.4
								c-0.4-1.5-1.5-2.1-2.7-2.2c-1.3-0.1-2.7,0.3-4,0.8c-0.6-0.5-1.5-1.4-1.2-1.8c0.2-0.1,0.7-0.2,1.1-0.3c-1-0.6-1.5-2.4-3-1.1
								c-1.3-0.1-0.1-1.5-0.7-2.2c-1.7,0.5-2.9-0.8-4-1.9c-1.1-1.1-2.1-1.9-3.5-0.5c0.8,0.6,1.9,2.2,3.5,3.1c-0.7,0.1-0.8,1-1.4,0.7
								c-1.7-0.9-1.6-2.6-3.5-3.2l1.6-2c-0.5-1.9-2.2-2.1-3.8-2.4C15.8,164.2,14.4,163.8,14.6,161.6z"/>
							<path d="M34,174.6l-0.6-1.8l-0.4,1C33.5,173.9,33.9,174.1,34,174.6z"/>
							<path d="M33,173.8c-0.3,0-0.6,0-0.9,0.1c0.2,0.2,0.5,0.3,0.8,0.2L33,173.8z"/>
							<path d="M10.3,158.5c-0.1-0.3-0.4-0.8-0.9-1C9.4,158,9.9,158.6,10.3,158.5z"/>
							<path d="M8.8,157.9c0,0,0,0.2,0.1,0.4c0,0.2,0.1,0.4,0.1,0.4l0.3-0.1c0,0-0.1-0.2-0.2-0.3C8.9,158.1,8.8,157.9,8.8,157.9z"/>
							<path d="M15,122.7c0,0,0.1-0.7,0.2-1.3c0.1-0.7,0.2-1.3,0.2-1.3c0.8,0.3,2-2.1,2.3-0.6c-0.3-2.3,3.1-2.8,0.5-4.1
								c-2.2,2.5-5.1,5.1-7.9,8.2c-2.7,3.1-5.2,6.8-6.1,10.9L4,132.8c-0.1,2.3-1.2,3.3-2.1,4.5c-0.8,1.1-1.3,2.5,0.3,4.6
								c0,0-0.5-0.2-1-0.5c-0.5-0.3-1-0.5-1-0.5c-0.3,0.5-0.3,1-0.2,1.5c0.1,0.6,0.4,1.1,0.6,1.6c0.4,1.1,0.7,2-0.4,3.1l0.9-0.2
								c0,0.6-0.4,0.8-0.4,1.4l0.4-0.3c1,1.4,1,2.2,0.8,3.8c-0.6,0.3-0.5-0.6-0.7-1c-0.5,0.9,1.2,1.6,1.6,2.6
								c-0.2,1-0.9,0.4-1.2,0.3c1.1,1.5,1.4,2.7,2,3.7c0.3,0.5,0.6,0.9,1.1,1.2c0.5,0.3,1.2,0.4,2.2,0.3c0.6-0.2,0.3-1.3,1.2-0.6
								c-0.3-1.1-0.8-1.7-1.6-2.2c-0.7-0.5-1.6-1-2.4-1.7c0,0,0,0.1,0.1,0.2c0.1,0.1,0.1,0.2,0.1,0.2c-1.7,0-1.7-0.4-1.5-0.9
								c0.1-0.3,0.2-0.6,0.2-0.9c0-0.4-0.2-0.8-0.7-1.3c1.4,0.3,1.7,1.2,2.5,1.3c0.6-1.6,0-2.3-0.5-3c-0.5-0.7-0.9-1.5,0.6-2.4
								l0.1,0.2c0.3-0.4-0.3-1-0.6-1.6c-0.4,0.2-0.6,0.7-0.9,1.1c-0.3-0.6-1.7-0.9-2.2-1.2c1.4-0.7-0.6-1,0.2-2.2
								c1.3-0.2,1,1.1,1.7,1.6c0,0-0.2-0.3-0.4-0.7c-0.2-0.4-0.4-0.7-0.4-0.7c0.1-1.3,1.6-1,2.4-1.4c-0.7-1.2-0.8,0.4-1.9-0.7
								c0.9-0.5,1.6-2,2.3-3.7c0.6-1.7,1.2-3.7,1.4-5.1c-0.3,0.9,1,1,0.3,1.8c0.4-0.2,0.6-1.7-0.2-2.2c0.2-2,2.1-3.6,3.9-4.4
								l-1.1-0.2c-0.2-1.1,0.6-1.6,1.6-2.1c1-0.5,2.1-1.1,2.6-2.3l-0.1,0c0.4-0.7-0.9-2.9,0.6-3.6C14.7,121.5,14.1,122,15,122.7z"/>
							<path d="M19.9,115l0.3,1.6c0.9-0.4,0.6-2.4-0.1-3c-0.3,0.6-1.3,0.7-0.8,1.4C19.4,115.1,19.7,115.4,19.9,115z"/>
							<path d="M33.1,104.7c0.1-0.4-0.3-0.8-0.4-1.2c-2.9,2.1-6.1,5.2-7.9,5.2c-1.2,0.4-0.1,2.2-1,3.5l-1.4-0.6
								c-0.1,1.2-3,1.6-0.8,2.8c0.2,0.1-0.1-1.3,0.7-1.4l0.4,0.7l1.1-1.2l0.2,1.1c2.6-0.3-0.6-3.2,2.1-4.2l1.2,1.6
								c1.5-1,1.8-2.1,3.8-2c0,0-0.6-0.8-0.6-0.3c-0.3,0.1-1.1-0.3-1.2-0.9c1.3-2.8,0.3,1.2,2.3,0.7c1.1-2.4,4.1-5.8,6.1-5.2
								c-1.6-0.4-0.9-2.3,0.3-2.9c0.9,0.3,0.3,1.2,0.4,1.8c0.6-0.1,1.3,0,1.7-0.5c-1.2-0.5-1.6-2-0.6-3.4
								C35.8,98.8,35.7,103.1,33.1,104.7z"/>
							<path d="M32.9,102.8c-0.2,0.2-0.2,0.5-0.2,0.7c0.3-0.3,0.7-0.5,1-0.7L32.9,102.8z"/>
						</g>
					</g>
				</g>
			</g>
		</g>
	</g>
	<g>
		<g>
			<g>
				<g>
					<g>
						<g>
							<polygon points="31.1,100.3 31.8,100.4 31.3,99.3 							"/>
							<path d="M35.3,102.8l0.4-0.9c-2.2-2.7-1.1-2.2-3.5-3.6c-0.1,0.7-0.3,2.2,0.5,3.3c0.2-0.3-0.1-1.7,0.6-1.6
								c0.3,1-0.2,1.1,0.3,2.4c1.2,0.5,0-1,1-1L35.3,102.8z"/>
							<path d="M34.3,99.3c0.3,0.6,0.5,1.1,0.8,1.5C34.9,100.3,34.8,99.5,34.3,99.3z"/>
							<path d="M34.6,98.8c0.5-0.2,0.7,1.1,0.8,1.2l-0.7-2.2L34.6,98.8z"/>
							<path d="M36.5,97.8c0-0.1,0.1-0.2,0.1-0.3C36.3,97.2,36.4,97.5,36.5,97.8z"/>
							<path d="M37.2,97c-0.6-0.5-0.6,0-0.7,0.5c0,0,0.1,0.1,0.1,0.1c0.6,0.4,1.2,1.9,0.6,1.8c-0.2,0.6-1-0.8-0.9,0.3l1.2,0.8
								C38.2,99.9,37.3,97.7,37.2,97z"/>
							<path d="M36.5,97.8c0,0.1-0.1,0.2-0.2,0.2C36.5,98.2,36.5,98,36.5,97.8z"/>
							<polygon points="35.5,98.2 35.4,98.6 35.8,99.2 							"/>
							<path d="M38.7,96c1.1,1.9-1.2,0.5-0.4,2c0.5-0.4,1.9,0.6,2.4,1.7l0.3-1C40.7,97.8,39.5,96.6,38.7,96z"/>
							<path d="M42.9,99.8c-0.1-0.2-0.1-0.3-0.1-0.4C42.8,99.5,42.8,99.6,42.9,99.8z"/>
							<path d="M44.1,94.5c0,0-0.1,0.7-0.1,1.4c-0.1,0.7-0.2,1.4-0.2,1.4c-0.2-0.7-0.7-1.2-0.5-1.6c-0.8,0.2-0.2,1.4-0.8,1.6
								c-1.3-1.6,0.9-0.8-0.4-2.1c-0.4,0.3-0.9,0.8-0.3,2.4l-1.4-0.8l1.4,1.7c0.6,0.4-0.4-1.8,0.6-0.6c0.6,0.7,0.4,1.1,0.4,1.4
								c0.2-0.6,2,0.7,2.7-0.1C46.4,98.5,44.2,95.7,44.1,94.5z"/>
							<polygon points="45.6,96.4 46.1,97.1 45.4,96.2 							"/>
							<path d="M45.5,92.1c0,0,0.2,0.4,0.4,0.8c0.2,0.4,0.2,0.9,0.2,0.9c-0.2,0-0.7-0.2-1.1-0.4c0.4,0.3,0.8,1.2,1.2,1.4
								c0.5,0.2,0.9,0,1.1-0.2c0.2-0.2,0.2-0.5,0.1-0.8c-0.2-0.6-0.7-1.3-0.7-1.6c1.5-1.1,1,0.5,3,0.6c-0.2,0.5-0.7,0.3-1.1,0.9
								c1.3-0.1,1.6-0.7,1.5-1.3c-0.1-0.6-0.6-1.3-0.7-1.7c-0.2,0.1-0.8-0.1-0.8,0.3c0,0-0.1-0.2-0.2-0.4c-0.1-0.2-0.2-0.4-0.2-0.4
								C46.3,90.5,45.8,90.8,45.5,92.1z"/>
							<path d="M44.2,93.9c0.4-0.5,0.5-0.5,0.8-0.4C44.5,93.3,44.2,93.1,44.2,93.9z"/>
							<path d="M49.3,90.5c-0.1,0-0.1,0.1,0,0.3C49.4,90.8,49.4,90.7,49.3,90.5z"/>
							<path d="M46.9,90.4l0.4-0.6l-1,0C46.4,89.9,46.4,90.2,46.9,90.4z"/>
							<path d="M52.6,64.8c-0.8,0.1-1.2,0.4-1,0.9c-1.1,0-0.9-0.7-1.5-1c-0.7,0.7-1.3,0-2.3,0.3c-0.1,0.7,1.4,1,1.1,1.8
								c-0.3,0-0.8,0-1.2,0.1c0.7,0.9,1.7,2.6,0.8,3.5c-0.4,0.9,0.1,1.6,0.5,2.6c-0.7,3.2,0.1,6.8-1.5,10.2l2,0.9
								c-1.1,0-0.1,0.9-1.5,0.5c0.3-0.1,0.1-0.4,0.1-0.6c-2,0.4-0.2,2-1.1,2.8c0.4,0,2.2,0.2,2.5,0.6c-2.3-0.6-0.2,1.1-2.9,0.7
								c-0.9,0.7,2,0.6,1.4,1.4c1.3,0.5,0.9-0.8,2-0.7c1,0.6-0.7,0.8,0.7,1.1c0.6-0.8,0.3-2.1-0.1-3.5c-0.5-1.4-1.1-2.9-1.4-4.1
								l1.3,0.4c-0.7-1.4-0.5-3.3,1.7-4c-1.3,0.1,0.8-1.8-2-1.8c0.7-0.3,0.6-0.4,0.8-0.8L50,76.1c0.1-0.6,1.4-0.4,1.4-1.1
								c-1.2,0.4-1.6-0.2-2.6-0.4c1.4-0.7,2.6-1.6,3.8-2.3c-0.4,0-0.8,0.1-1.4,0.3c0.4-0.5-0.7-0.4-1.1-0.6c0-0.5,1.5-0.4,2.3-0.3
								c0.5-0.9-2.5-1.3-1.5-2l-1.2,0.2c-0.3-0.9,1.1-1.6,0.6-2.6c1.7-0.5,1.5,0.8,2.2,1.2c0.4-0.2,0.4-0.6,1-0.8
								c-0.9-0.4-2.1-1.1-2.9-1.6C52.6,66.5,52.5,65.2,52.6,64.8z"/>
							<path d="M53.6,67.6c0.3,0.1,0.5,0.2,0.7,0.3c-0.1-0.1-0.2-0.2-0.1-0.3C53.9,67.6,53.7,67.6,53.6,67.6z"/>
							<path d="M52.6,64.8c0.1,0,0.1,0,0.2,0C52.7,64.7,52.6,64.7,52.6,64.8z"/>
							<path d="M48.3,70.6c0,0,0.1-0.1,0.1-0.1c0-0.1,0-0.1,0.1-0.2L48.3,70.6z"/>
							<path d="M54,71.5c-0.4,0.2-0.9,0.4-1.4,0.7C53.2,72.1,53.6,72.1,54,71.5z"/>
							<path d="M52.2,77.6c0.2,0.2,0.6,0.1,1,0.3C53.3,77.5,52.9,77.3,52.2,77.6z"/>
							<polygon points="53.9,66.5 53.4,65.7 53.1,65.5 							"/>
							<path d="M45.5,52.1c-1.3,1-0.2,1.7-0.3,2.5c1,1.3,3.2-0.5,3.7,0.9l-3.1,0.3c0.4,1.3,0.1,3.3,2.9,4.2
								c-0.4,0.1-0.8,0.4-1.3,0.1c0.2,0.9,4.4,0,3.5,1.4c-2-1-1.8,0.5-3.7,0.4L47,61.7c0.3,0.7,1.4,1.7,1.3,2.2c0.8,0,2-0.6,2.1,0.1
								c0.1-0.3,1-0.2,1.8-0.3c-0.9-0.7-0.4-1.1-1.5-1.5c1-0.5,0.4,0.3,1.3-0.2l-1-0.5c0.2-0.5,1.1,0.4,1.2-0.3
								c-0.6,0-1.3-0.5-1.2-1.1l0.4,0.1c-0.4-0.4,0-1-1.7-0.6l1.6-0.7l-1.1,0.2c0.3-1.2,3-2,1.3-3.3c-0.3,0.4-1,0.2-1.2,0
								c-0.7,0.7,1,0.6,1.2,1.2c-1.1,0.2-2.7-0.5-3.2,0.3c1.3-1-0.4-1.4,2.4-2.2c0-1-1.5-1-1-2.1l0.4-0.1c-1.9,0.2,0.7-1-1.4-1.2
								l-0.3,0.6c-0.8,0.2-0.9-0.1-1.1-0.4c0.3,0,0.3,0,0.6-0.2c-1.4,0.2-1.9-0.7-2.3-0.7c-0.1,0.5,1.1,0.7,1.6,1.1
								C46.5,52.2,45.3,52.6,45.5,52.1z"/>
							<path d="M52.1,60.5l-0.7-0.2C51.5,60.4,51.7,60.5,52.1,60.5z"/>
							<path d="M46.6,47.5c0.1-0.7,1.2-0.3,1.6-1c-1.1-0.2-1.6,1.3-3.2,1.3c0.7-0.6-0.9-0.6-1-0.8c0.9-0.1,2.5-0.9,2.8-1.1
								c-0.6,0,0.1-0.9,0-1.3c-0.7,1.4-1-0.5-1.8,0.8c-1,0.4-2.1,0-1.5-0.7c0.7-0.3,0.7,0,0.8,0.2c1.4-0.5,0.5-0.9,1.6-1.6
								c-1.1,0-2-0.6-3-0.9c-0.9-0.3-1.9-0.2-3,1c-0.4,0.6,0.4,0.3,0.7,0.5c0.1-1.1,1.5-0.9,2.1-1.1c-0.3,0.6,1,0.7-0.1,1.1
								c0,0-0.3,0-0.7,0c-0.3,0-0.7,0.1-0.7,0.1c0.4,1.9,1.6,4.1,2.7,6L43.6,49c0.9-0.2,1.1,0.2,1.6,0.4l1.9-1.2
								c-0.1,0.3,0.3,0.5-0.4,0.7c1,0.1,1.5-0.3,2.1-0.7c0.6,0.6-0.2,1,1.4,1.2c1.3-1.8-1.7-0.6-0.7-2.6L46.6,47.5z"/>
							<polygon points="48.6,49.8 47.5,49.8 48.1,50.1 							"/>
							<path d="M43.8,50.7c0.5-0.2,0.7,0,1.2-0.2C45.2,49.9,44.5,50.2,43.8,50.7z"/>
							<path d="M45.6,42.5c0,0-0.2-0.1-0.4-0.3c-0.2-0.1-0.4-0.3-0.4-0.3s0,0.2-0.1,0.3c0,0.2-0.1,0.3-0.1,0.3
								C45.2,42.4,45.5,42.4,45.6,42.5z"/>
							<path d="M38.1,41.4c0.7,0.5,1.8,0.2,1.5,1.7c1.5-0.4,2.1-1.7,3.3-2.2c-0.1-0.7-2,0.8-2.7,0.6c0.9-0.9-0.7-0.5-0.8-1.1
								C38.9,40.8,38.5,41.2,38.1,41.4z"/>
							<path d="M38.9,35.6c-0.4-0.4-1.4,0.2-1.4-0.6c0.5-0.6,0.9-0.7,1.1-0.3c0.8-1.6-0.6-0.1-0.5-1.4c-0.1,0.2,0,0.6-0.4,0.8
								c-1.1-1.1-1.4,0.8-2.6-0.9c-0.4,0.3-0.7,0.2-1.1,1.3c-0.2-0.9-0.2-1.3-0.2-1.6c0-0.4-0.1-0.8-0.5-1.6
								c-0.1,0.7-0.2,2.3-0.7,3.7c-0.4-1.2-0.9-1.3-1.2-1.2c-0.4,0.1-0.6,0.2-1-0.6c0.1-0.1,0.3-0.4,0.6-0.2c0.2-2.1-1,0.2-1.4-0.3
								l0.3-1.7c-0.6,0.2-1.6,1.3-2.3,0l0.2-0.9c-0.8,0.7-1.6,0.8-2.3,1c-0.8,0.1-1.5,0.2-2,0.7c0,0-0.2-0.2-0.4-0.5
								c-0.2-0.2-0.4-0.5-0.4-0.5c-0.7,0.8-0.3,0.9,0.2,1.1c0.5,0.2,1.1,0.6,0.7,2c-0.3-1.6-0.5-1.3-0.7-0.7c-0.2,0.6-0.4,1.4-1,0.8
								c-0.7-1.2,0.8-0.8,0-2.2c0.1,1.7-0.4,0.5-0.8,1.1c-0.3-1.5-1.1,0-1.2-1.7c0,0-0.3,0.8-0.5,1.6c-0.2,0.8-0.4,1.6-0.4,1.6
								c-0.5-0.8-0.9-0.5-1.2-0.2c0.9-0.3,0.5,2.3,1.6,2.7c0.3-0.3,0.6-0.6,1-0.8c0.4-0.2,0.8-0.5,1.2-0.6c0.9-0.3,1.9-0.4,2.8-0.1
								c-0.1-2.2,1.1-0.1,1.2-1.9c0.1,0.7,0.3,1.3,0.3,1.9c1.1-0.5-0.3-1.2-0.1-2c0.5-0.3,0.9,1,0.9,1.8c0.8,0.1,0.1-0.6,0.5-1.8
								c0,0,0.1,0.6,0.2,1.2c0.1,0.6,0.2,1.2,0.2,1.2c1.2-0.3,2.6-0.7,4.1-0.6c1.5,0.1,3,0.7,3.8,2l0.6-1.4c0.3,0.7,1.3,0.3,2,0.3
								c0.8-0.1,1.4,0.2,0.8,1.8c0,0,0.3-0.2,0.6-0.3c0.3-0.1,0.6-0.3,0.6-0.3c-0.7,0.4-1.4,1.7-2.4,2.2c0.6-0.1,0.4,0.5,1,0.5
								l0.1-0.9c1.2-0.5,1,0.4,0.3,1.2c0.9-0.1,1.3-0.6,1.5-1.3c0.3-0.6,0.4-1.4,0.7-1.9c-1.5,0.4-1.3-0.3-1-1.3
								c0.3-0.9,0.7-2-0.4-2.1C38.8,34,39.4,35.1,38.9,35.6z"/>
							<path d="M37.5,39.8c0.1,0,0.3-0.1,0.4-0.2C37.8,39.7,37.7,39.7,37.5,39.8z"/>
							<path d="M17.7,34.4c-0.1,0-0.2,0.1-0.4,0.2C17.3,35,17.4,34.7,17.7,34.4z"/>
							<path d="M39.3,40.5C39.3,40.5,39.3,40.4,39.3,40.5C39.3,40.4,39.3,40.4,39.3,40.5L39.3,40.5z"/>
							<polygon points="42.5,38.7 42.3,38.3 41.8,38.8 							"/>
							<path d="M13,34.4l0.4,0.7C13.3,34.8,13.2,34.6,13,34.4z"/>
							<path d="M4,43.2l0.2-0.2C4,43,4,43.1,4,43.2z"/>
							<path d="M9,70c0.7,0.5,1.6,1.1,2.9,1l-0.7,0.3c0.5,0.2,2.2,0.7,3-0.6l-0.7,0.1c-1.4-0.3,0.9-1.1,1-1.9
								c-0.7-0.6-3.5,0.2-3.2-0.7c-0.2-0.3,0.5-0.5,1.1-0.7c-0.1-0.7-2.3-0.1-2.7-0.5c2.7-1.2,2.1-1.6,1.2-1.9
								c-0.9-0.4-2-0.8-0.4-1.9c-0.7-0.5-0.5-1.5-1.8-1.9c1.5,0-0.1-0.8,1.5-1.1c-1.7,0.4-1.5-0.3-1.4-1c0.1-0.6,0.1-1.2-2-0.8
								c0.9-1.4-0.3,0,0.4-1.5c0.5-0.1,0.5,0.1,0.6,0.2c0.8-0.7-2-0.5-0.1-1.2c0.2-1.1-1.2,0-2.4-0.5c0.4-1.2,1-1,2.7-1.7
								c-2,0.1-1.1-0.7-2.2-1.2c-0.1,0.1-0.5,1-1.3,0.5c0.3-1.4-1.4-1.1-1.9-2.5c2.3-0.6,0,1.4,1.8,0.2c1,0.9,0.9,1.5,2.6,1.8
								c0.1-1-0.2-2.2-1-3.5c0.4-0.6,1,0.4,1.3,0c0.6-0.5,0.1-0.9-0.4-1.4C6.5,46.9,6,46.3,6.6,46l1.1,0.5c-0.7-0.5-0.5-0.9-0.1-1.4
								c0.3-0.5,0.8-0.9,0.7-1.5c-0.6-0.2-1-0.3-1.3-0.6c1.3,0.7,1.1,0.2,1-0.5c-0.2-0.7-0.2-1.6,0.9-1.4c-0.8-0.5-1.2-1.2-1.3-1.8
								c-0.2-0.6,0-1.2,0.2-1.6c0.6,0.2,1.1,0.8,1.4,1.1c-1.6,0.1,0.7,2.2,0.9,3.3c-0.2-0.5,0.1-0.9,0.4-1.2
								c0.3-0.3,0.5-0.7,0.2-1.4c0,0,0.2,0.3,0.4,0.6c0.2,0.3,0.4,0.6,0.4,0.6c0.4-0.2,0-0.9-0.3-1.6c-0.3-0.6-0.4-1.3,0.4-1
								l0.6,0.9c0.7-0.6,1.9-0.9,2.8-1.2c0.5-0.2,0.9-0.4,1.3-0.7c0.4-0.3,0.6-0.8,0.8-1.5c-0.2-0.9-1.7-2.5-2-3.1
								c-0.7,1.1-0.6,2.8-1,3.8l-0.8-1.5c0.4,1.1-0.1,2.1,0.8,2.7c-0.1,1-1.1-1-1.2,0.2c-0.9-1.5-0.6-1.9-1.4-3.2c0,0,0,0.3-0.1,0.6
								c0,0.3-0.1,0.5-0.1,0.5c-0.2-0.7-0.7-0.3-0.9-1c0,1.3-0.4,1.4-1,1.4c-0.6,0-1.3,0-1.5,0.8c0,0,0.8-0.3,0.8-0.3
								c0.6,0.7,0.2,0.9,0.2,1.4c-1.2-0.7-1.2-0.4-2.2-0.3c0.1,1,1.3,2.4,0.8,3c-1.4-1.2-1.6,0.5-3-0.2c0.7,0.6,0.7,1,0.5,1.4
								c-0.1,0.4-0.3,0.7,0.1,1c0.1,0.5-0.3,1-1.2,0.6c0-0.1-0.1-0.3-0.2-0.4l-0.2,0.4c-0.2-0.1-0.3-0.2-0.3-0.2
								c-0.2,0.4,1.1,0.8,0,1C3,44.2,3.1,43.9,3,43.6c-0.4,0.5,0.2,1.2,0.6,1.7c0.4,0.6,0.6,1-0.3,1.3c0.4,0.2,0.6,0.6,0.9,0.9
								C4.5,47.8,5,48.1,6,48.2c-0.7,0.2-2.2-0.2-2.1,0.7c1.6,0.6-0.7,0.9,0.3,1.6c-1.7-0.9-0.5,0-2.1-0.9c-0.7,0.6,1.5,1.5,1.2,2.5
								c-0.4,0.1-0.9,0.1-1.3,0.2c0.6,0.4,2,0.7,0.6,1.1l1.2-0.1c-0.6,0.7-0.1,1.5-1.3,2.4c0,0,0.6,0.1,1.2,0.2
								c0.6,0.1,1.2,0.2,1.2,0.2c-2.2,1.5,0.2,2.5,2.4,2.8c0,0.4-0.3,1-0.7,1.1C6.3,60,6,60,5.6,59.9c0.1,0.6-1,1.6,0.9,1.4
								c0.7,0.4-1.1,0.8-1.3,1.3c1.4,0.2,1.2,1.1,1.2,1.9c0,0.8,0.1,1.5,2,0.9c-0.1-0.4,0.3-1.5-0.2-2.3c0.5,0.1,1.2-0.4,1.4-0.1
								c0.5,0.7-0.8,1.7,0.2,2.3l-2.4,0.8c-0.9,1.2,0.2,1.6,1.1,1.9C9.6,68.3,10.4,68.7,9,70z"/>
							<path d="M5.1,59L4,60l1-0.3C4.8,59.5,4.8,59.3,5.1,59z"/>
							<path d="M5,59.6c0.1,0.1,0.4,0.2,0.6,0.2c0-0.1-0.1-0.3-0.3-0.3L5,59.6z"/>
							<path d="M10.5,72.1c0,0.2-0.1,0.5,0.3,0.6C10.9,72.5,10.9,72.1,10.5,72.1z"/>
							<polygon points="11.5,72.5 11.7,72 11.4,72.1 							"/>
							<path d="M23.1,87.2l1.8-0.1c-0.5,0.6,0.9,1-0.4,1.5c1.8-0.6,1.2,1.5,3-0.4c-2.5-1.9-3.5-6-7.3-7.6l1.2-0.1
								c-2.7-0.4,0.7-3.2-3.6-2.3l1.9-0.9c0.1-1-3.5,0.2-1.9-1.6l-0.7,0.5c-0.1-0.2,0.2-0.5,0.1-0.7l-0.3,0.3
								c-1.1-0.1-1.1-0.5-0.9-1.3c0.6-0.4,0.4,0.1,0.6,0.2c0.5-0.6-1-0.3-1.2-0.7c0.4-0.6,0.9-0.5,1.1-0.6c-1.5-0.7,0.2-2.3-3.1-1.7
								c-0.6,0.2-0.8,0.8-1.3,0.5c-0.5,1.3,1,1.4,2.2,1.7l-0.1-0.2c3.1-0.9-0.4,0.8,1.3,1.1c-1.2,0.4-1.5,0-2.1,0.1
								c-1.5,2.2,2.4,0.7,0.2,2.9l-0.1,0C13.3,78,14,78,14.4,78.1c0.3-0.3,0.3-0.6,0.5-0.9c0.4,0.1,1.6-0.5,2.2-0.7
								c-1,1,0.8,0,0.4,0.8c-1,0.8-1.2,0.2-1.9,0.4l1.1,0.1c0.4,0.4-0.9,1.2-1.4,1.8c1.1-0.1,0.4-0.6,1.8-1
								c-1.1,1.3,0.7,3.3,2.4,3.6c-0.4-0.2-1.2,0.6-1.3,0.1c-0.1,0.3,0.8,0.5,1.6,0c1.2,0.2,1.2,1.4,0.9,2.6l0.7-0.7
								c1.7-0.4-0.1,2,1.4,2.5l0,0c0.4,0.2,2.5-0.9,2.5-0.1C24.1,86.9,24,86.5,23.1,87.2z"/>
							<path d="M27.3,89.2l-1.3,0.5c0,0.5,1.7-0.1,2.4-0.7c-0.4,0-0.1-0.7-0.8-0.3C27.4,88.9,27,89.2,27.3,89.2z"/>
							<path d="M32.1,95.1c0.3-0.1,0.7-0.4,1-0.6c-1.1-1.1-2.8-2.4-2.3-3.5c0-0.7-1.7,0.5-2.5,0.2l0.9-1.1c-0.9,0.2-0.4-1.6-2,0.1
								c-0.1,0.2,1-0.4,0.9,0.1l-0.7,0.4l0.7,0.4l-0.9,0.4c-0.5,1.6,2.7-1.2,2.8,0.3l-1.6,1.2c0.4,0.7,1.2,0.6,0.7,1.9
								c0,0,0.8-0.6,0.4-0.5c0-0.2,0.5-0.8,1-1.1c2,0-1,0.6-1.1,1.7c1.7,0,3.8,0.8,3,2.3c0.6-1.1,2-1.4,2.3-0.9
								c-0.4,0.6-1,0.6-1.5,0.9c0,0.3-0.2,0.8,0.2,0.8c0.6-1,1.9-1.7,2.7-1.7C36.3,94.9,32.8,96.3,32.1,95.1z"/>
							<path d="M33.6,94.4c-0.1-0.1-0.3,0-0.5,0.1c0.1,0.1,0.3,0.3,0.4,0.4L33.6,94.4z"/>
						</g>
					</g>
				</g>
			</g>
		</g>
	</g>
	<g>
		<g>
			<g>
				<g>
					<g>
						<g>
							<polygon points="68.2,89 68.7,89.4 68.9,88.3 							"/>
							<path d="M70.9,93.4l1-0.5c-0.6-3.5,0.1-2.5-1.4-4.9c-0.5,0.6-1.7,1.7-1.6,3.1c0.4-0.1,1-1.4,1.6-1c-0.3,1-0.9,0.9-1.2,2.2
								c1,1.1,0.6-0.8,1.7-0.4L70.9,93.4z"/>
							<path d="M72,89.9c-0.1,0.6-0.2,1.2-0.1,1.7C72,91,72.4,90.2,72,89.9z"/>
							<path d="M72.6,89.5c0.6,0.1,0,1.3,0.1,1.5c0,0,0.2-0.6,0.3-1.1c0.1-0.6,0.3-1.1,0.3-1.1L72.6,89.5z"/>
							<path d="M75.2,89.5c0.1-0.1,0.2-0.1,0.3-0.2C75.3,88.9,75.3,89.2,75.2,89.5z"/>
							<path d="M76.5,89.1c-0.3-0.7-0.6-0.2-1,0.2c0,0,0,0.1,0.1,0.1c0.4,0.6,0.3,2.2-0.4,1.9c-0.6,0.4-0.7-1.2-1.1-0.1l0.8,1.2
								C75.9,92.1,76.2,89.8,76.5,89.1z"/>
							<path d="M75.2,89.5c-0.1,0.1-0.2,0.1-0.3,0.1C75.1,89.9,75.1,89.7,75.2,89.5z"/>
							<polygon points="73.9,89.4 73.6,89.8 73.7,90.4 							"/>
							<path d="M78.5,88.7c0.2,2.2-1.5,0-1.5,1.7c0.8-0.2,1.8,1.2,1.8,2.5l0.9-0.8C79.9,91.1,79.2,89.6,78.5,88.7z"/>
							<path d="M81.6,93.6c0-0.2,0.1-0.3,0.2-0.4C81.6,93.3,81.5,93.5,81.6,93.6z"/>
							<path d="M85.5,88.4c0,0-0.3,0.7-0.7,1.5c-0.2,0.4-0.4,0.7-0.5,1c-0.2,0.3-0.3,0.4-0.3,0.4c0-0.7-0.3-1.4,0.1-1.8
								c-1.1,0-0.8,1.5-1.7,1.5c-0.4-0.9,0-1.1,0.3-1.2c0.3-0.1,0.6-0.2,0.1-1c-0.5,0.3-1.3,0.5-1.4,2.3c0,0-0.3-0.3-0.6-0.6
								c-0.3-0.3-0.6-0.6-0.6-0.6l0.8,2.1c0.5,0.5,0.4-1.9,1-0.4c0.4,0.9,0,1.2-0.2,1.5c0.5-0.6,2.2,1.2,3.6,0.4
								c0.3-0.2,0.5-0.5,0.6-1c0.1-0.4,0-0.9-0.1-1.5C85.6,90.1,85.3,89.1,85.5,88.4z"/>
							<polygon points="86.7,90.5 87.2,91.2 86.6,90.2 							"/>
							<path d="M87.6,86.6c0,0,0,0.5-0.2,1l-0.1,0.2l0,0l0,0c0,0-0.1,0.1-0.1,0l0,0l0,0l0,0l0,0l0,0l0,0.1c0,0.1,0,0.2-0.1,0.3
								c0,0.2-0.1,0.3-0.1,0.3c-0.2-0.1-0.5-0.5-0.7-0.8c0.3,0.4,0.4,1.3,0.7,1.7c0.4,0.4,0.6,0.5,0.7,0.4c0.1,0,0.1-0.1,0.2-0.2
								c0,0,0-0.1,0.1-0.2l0-0.1l0,0l0,0l0,0c0.1,0-0.1,0.1,0.1-0.1l0,0l0,0l0,0l0-0.1c0.3-0.8,0.3-1.7,0.4-2.1
								c1-0.4,1.2-0.2,1.4,0.2c0.2,0.4,0.3,1,1.3,1.3c-0.3,0.2-0.5,0.3-0.7,0.3c-0.1,0-0.3,0-0.4,0.1c-0.2,0.1-0.4,0.2-0.7,0.4
								c0.4,0.1,0.7,0,1,0c0.2,0,0.5-0.1,0.6-0.2c0.4-0.2,0.6-0.6,0.7-1c0.2-0.7,0-1.6,0-2.1c-0.3,0.1-0.8-0.3-0.9,0.2l-0.1-1
								C89.2,85.1,88.6,85.3,87.6,86.6z"/>
							<path d="M85.7,87.8c0.3-0.3,0.5-0.3,0.7,0C86,87.3,85.7,87.1,85.7,87.8z"/>
							<path d="M92.1,85.9C92,85.9,92,86,92,86.2C92.1,86.2,92.2,86.1,92.1,85.9z"/>
							<path d="M89.8,85.1c0,0,0.2-0.1,0.3-0.3c0.2-0.1,0.3-0.3,0.3-0.3l-1-0.3C89.5,84.4,89.4,84.8,89.8,85.1z"/>
							<path d="M104.4,57.3c-0.8-0.1-1.3,0.1-1.3,0.7c-1-0.3-0.7-1.1-1.2-1.6c-0.9,0.6-1.2-0.3-2.3-0.3c-0.3,0.8,1,1.6,0.5,2.4
								c-0.3-0.1-0.8-0.2-1.2-0.2c0.4,1.3,0.8,3.5-0.4,4.3c-0.7,0.9-0.4,1.9-0.4,3.2c-1.8,3.6-2.2,7.9-5,11.3l1.6,1.5
								c-1-0.3-0.5,0.9-1.6,0.2c0.3-0.1,0.2-0.4,0.4-0.7c-1,0-1.3,0.6-1.4,1.2c-0.1,0.6-0.2,1.4-0.7,1.7c0.4,0.1,2.1,0.8,2.2,1.3
								c-2-1.3-0.7,1.2-3.2,0.1c-1.2,0.6,1.7,1.1,0.7,1.9c1.1,0.9,1.2-0.6,2.2-0.3c0.8,0.9-1,0.7,0.2,1.5c0.9-0.7,1.2-2.3,1.2-3.9
								c0.1-1.7,0-3.5,0.2-5l1.1,0.8c-0.2-1.7,0.7-3.9,3.1-4.2c-1.3-0.2,1.4-1.8-1.3-2.6c0.7-0.1,0.7-0.3,1.1-0.7l-0.8-0.4
								c0.3-0.7,1.5-0.1,1.7-1c-1.3,0.1-1.5-0.6-2.3-1.1c1.6-0.5,3.1-1.2,4.4-1.7c-0.4-0.1-0.8-0.1-1.4,0c0.6-0.4-0.5-0.7-0.9-1
								c0.1-0.6,1.6,0,2.3,0.2c0.8-0.9-2-2.2-0.8-2.7l-1.3-0.1c0-1.1,1.6-1.6,1.5-2.9c1.8-0.1,1.2,1.3,1.8,2
								c0.4-0.1,0.6-0.6,1.2-0.6c-0.7-0.7-1.6-1.9-2.3-2.7C103.9,59.2,104.2,57.7,104.4,57.3z"/>
							<path d="M104.4,60.8c0.2,0.2,0.4,0.4,0.6,0.5c-0.1-0.1-0.2-0.3,0-0.4C104.8,60.8,104.6,60.8,104.4,60.8z"/>
							<path d="M104.4,57.3c0.1,0,0.1,0,0.2,0C104.5,57.2,104.4,57.2,104.4,57.3z"/>
							<path d="M98.4,62.8c0.1,0,0.1-0.1,0.1-0.1c0-0.1,0.1-0.1,0.1-0.2L98.4,62.8z"/>
							<path d="M103.6,65.3c-0.5,0.1-1,0.3-1.6,0.5C102.6,65.9,103,65.9,103.6,65.3z"/>
							<path d="M99.8,71.9c0.1,0.3,0.5,0.3,0.8,0.6C100.9,72.1,100.5,71.8,99.8,71.9z"/>
							<path d="M105.1,59.6c0,0,0-0.3-0.1-0.5c0-0.3-0.1-0.5-0.1-0.5l-0.2-0.4L105.1,59.6z"/>
							<path d="M101.3,40.4c-1.5,0.7-0.6,1.9-1,2.8c0.6,1.8,3.3,0.5,3.3,2.2l-3-0.6c0,0.8-0.2,1.8-0.1,2.8c0.1,1,0.4,2,1.7,2.9
								c-0.4,0.1-0.9,0.3-1.3-0.2c0,1.1,4.3,1.3,3,2.6c-1.6-1.7-1.9,0.1-3.7-0.6l-0.2-0.3c0,1,0.8,2.4,0.5,3c0.8,0.2,2.1-0.1,2,0.8
								c0.2-0.3,1.1,0,1.8,0.2c-0.7-1.1-0.1-1.4-1-2.2c1.1-0.3,0.3,0.4,1.4,0.1l-0.8-0.9c0.3-0.5,0.9,0.7,1.3,0
								c-0.6-0.2-1.1-1-0.9-1.6l0.3,0.2c-0.3-0.6,0.3-1.2-1.4-1.2l1.8-0.3l-1.2-0.1c0.7-1.2,3.5-1.4,2.3-3.4c-0.4,0.4-1-0.1-1.2-0.3
								c-0.9,0.6,0.8,1,0.9,1.7c-1.2-0.1-2.4-1.4-3.2-0.6c1.5-0.7,0-1.7,2.9-1.8c0.3-1.1-1.1-1.6-0.3-2.7l0.4,0.1
								c-1.9-0.3,1-0.9-1-1.8l-0.4,0.6c-0.8-0.1-0.8-0.3-0.9-0.8c0.3,0.1,0.3,0.1,0.7-0.1c-1.4-0.2-1.6-1.4-2-1.6
								c-0.3,0.5,0.9,1.2,1.2,1.8C102.2,40.9,101.1,40.9,101.3,40.4z"/>
							<path d="M105.2,52.2l-0.6-0.5C104.7,51.9,104.9,52,105.2,52.2z"/>
							<path d="M103.7,35.5c0.3-0.7,1.2,0.1,1.8-0.6c-1-0.7-1.9,0.9-3.4,0.3c0.8-0.5-0.7-1.1-0.7-1.3c0.8,0.2,2.7-0.1,3-0.2
								c-0.5-0.2,0.3-0.9,0.3-1.4c-1,1.3-0.8-0.9-1.9,0.3c-1.1,0-2-0.9-1.2-1.4c0.8-0.1,0.7,0.3,0.8,0.6c1.5,0.1,0.7-0.8,2-1.2
								c-1.1-0.4-1.7-1.5-2.5-2.2c-0.8-0.7-1.7-1.1-3.3-0.3c-0.6,0.5,0.3,0.6,0.5,0.9c0.4-1.2,1.7-0.4,2.3-0.4
								c-0.5,0.6,0.7,1.2-0.5,1.2l-1.3-0.5c-0.3,2.4,0.4,5.4,0.9,8l0-1.2c0.9,0.1,1,0.6,1.4,1.1l2.2-0.6c-0.2,0.4,0.2,0.7-0.6,0.7
								c0.9,0.4,1.5,0.2,2.2-0.1c0.4,0.9-0.4,1.1,1,1.8c1.8-1.6-1.5-1.3,0-3.1L103.7,35.5z"/>
							<polygon points="105,38.8 103.9,38.4 104.4,39 							"/>
							<path d="M100.2,38.2c0.5,0,0.7,0.2,1.2,0.2C101.6,37.7,101,37.8,100.2,38.2z"/>
							<path d="M104.3,29.6l-0.5-0.9l-0.3,0.7C103.9,29.3,104.1,29.5,104.3,29.6z"/>
							<path d="M97.3,24.8c0.3,0.5,0.7,0.8,1,1.2c0.3,0.4,0.3,0.8-0.1,1.6c1.6,0.3,2.6-0.9,3.9-0.9c0.2-0.8-2.2-0.1-2.8-0.7
								c1.1-0.6-0.6-0.9-0.5-1.6C98.3,24.7,97.8,24.8,97.3,24.8z"/>
							<path d="M100.3,19.2c-0.2-0.6-1.4-0.7-1.1-1.3c0.7-0.3,1.1-0.1,1.1,0.3c1.5-1-0.6-0.5,0.2-1.6c-0.1,0.1-0.3,0.5-0.7,0.5
								c-0.4-1.6-1.6-0.1-1.9-2.4c-0.6,0-0.7-0.2-1.7,0.4c0.3-0.9,0.5-1.2,0.7-1.6c0.2-0.3,0.4-0.7,0.4-1.7
								c-0.5,0.5-1.5,1.8-2.7,2.6c0.2-1.3-0.1-1.7-0.5-1.9c-0.4-0.2-0.7-0.3-0.5-1.3c0.2,0,0.5-0.1,0.6,0.3c0.7-0.7,0.5-0.9,0-0.9
								c-0.5,0-1.1,0-1.2-0.3l1.3-1.2c-0.7-0.3-2.2-0.3-2-1.8l0.7-0.5c-2.3-0.1-3.5-1.9-5-2l0-1.3c-2.3,0.1,1.2,1.5-1.3,3
								c1.6-2.8-1.3,0.4-1.6-1.3c0.1-0.7,0.4-0.7,0.7-0.7l0.1,0l0,0l0,0l0,0l0,0l0,0c0,0,0.1,0.1,0.1,0l0,0l0,0l0.1,0
								c0.1,0,0.2-0.1,0.2-0.1c0.1-0.1,0.3-0.3,0.3-0.7c-0.1,0.2-0.2,0.3-0.3,0.4l0,0l0,0l0,0l0,0l-0.1-0.1l0,0l0,0l0,0l-0.1,0.1
								c0,0-0.1,0.1-0.1,0.1c-0.1,0.1-0.2,0.1-0.3,0c-0.2-0.1-0.3-0.4-0.7-0.3c0.8-1.3-1-0.8,0-2.2c0,0-0.8,0.4-1.6,0.9
								c-0.4,0.2-0.8,0.5-1,0.7c-0.3,0.2-0.5,0.3-0.5,0.3c0-0.9-0.7-1-1.2-0.9c0.6,0.1,0.3,0.7,0.1,1.3c-0.2,0.6-0.4,1.3,0,1.9
								c0.8-0.1,2-0.1,3,0.4c0.3,0.1,0.5,0.2,0.8,0.4l0,0c-0.1-0.1,0,0,0,0L85,6.8l0.2,0.1l0.4,0.3C86,7.6,86.4,8,86.8,8.4
								c0.7-0.8,1-0.6,1.2-0.4c0.3,0.3,0.5,0.6,1.1,0c-0.4,0.6-0.6,1.2-0.9,1.8c1.3,0.4,0.5-1.1,1.2-1.6c0.7,0.2,0.3,1.5-0.3,2.1
								c0.7,0.7,0.4-0.4,1.6-1c0,0-0.3,0.5-0.5,1.1c-0.3,0.5-0.6,1.1-0.6,1.1c0.6,0.4,1.4,0.8,2.1,1.2c0.8,0.4,1.4,1,2.2,1.6
								c0.7,0.6,1.3,1.3,1.8,2.1c0.2,0.4,0.5,0.8,0.6,1.2c0.1,0.4,0.2,0.9,0.3,1.3l1.2-0.9c0,0.9,1.1,1.1,1.8,1.5
								c0.7,0.4,1.2,1,0,2.2l1.4,0c-0.8,0-2,1-3.1,1c0.6,0.2,0.2,0.8,0.8,1.1l0.4-1c1.4,0.1,0.8,1-0.2,1.5c1.8,0.7,2.2-1.4,3.3-2.1
								c-1.5-0.4-1.1-1-0.5-1.8c0.6-0.7,1.4-1.6,0.6-2.2C101,17.6,101,19,100.3,19.2z"/>
							<path d="M97.3,22.7c0.1,0,0.3,0.1,0.5,0.1C97.7,22.8,97.5,22.7,97.3,22.7z"/>
							<path d="M80.9,2.8c-0.1,0-0.3,0-0.5,0C80.2,3.1,80.5,2.9,80.9,2.8z"/>
							<path d="M98.8,24.4C98.8,24.4,98.8,24.4,98.8,24.4C98.8,24.4,98.8,24.4,98.8,24.4C98.8,24.4,98.8,24.4,98.8,24.4z"/>
							<polygon points="102.5,24.2 102.4,23.7 101.8,24 							"/>
							<path d="M75.2,1l0.2,0.7C75.4,1.5,75.3,1.3,75.2,1z"/>
							<path d="M64.8,12.2l0.1-0.3C64.8,12,64.8,12.1,64.8,12.2z"/>
							<path d="M62.7,44c0.5,0.8,1,2,2.2,2.6l-0.8,0c0.4,0.4,1.7,1.9,3,0.9l-0.7-0.2c-1.2-1,1.3-0.8,1.8-1.6c-0.4-1-3.3-1.5-2.6-2.4
								c-0.1-0.4,0.7-0.3,1.3-0.2c0.2-0.9-2-1.2-2.3-1.9c5.9-0.2-1.6-2.8,2.2-4c-0.5-0.8,0.1-1.9-1-3c1.4,0.6,0.2-1,1.8-0.7
								c-3.4-0.5,1.7-2.9-2.6-3.4c1.3-1.3-0.3-0.1,0.9-1.7c0.5,0,0.5,0.3,0.5,0.4c0.9-0.6-1.7-1.2,0.3-1.5c0.5-1.3-1.1-0.3-2.2-1.3
								c0.7-1.3,1.2-0.9,3.1-1.4c-2-0.4-0.9-1.1-1.9-1.9c-0.1,0.1-0.7,1-1.3,0.3c0.6-1.6-1.1-1.5-1.4-3.2c2.4-0.4-0.2,1.5,1.8,0.5
								c0.9,1.1,0.6,1.8,2.2,2.6c0.3-1.2,0.2-2.8-0.4-4.4c0.5-0.7,1,0.6,1.3,0.1c1.3-1.1-1.7-2.6-0.5-3.4l1.1,0.5
								c-0.7-0.5-0.4-1.1,0-1.7c0.4-0.6,0.9-1.2,0.7-1.9c-0.6-0.1-1-0.1-1.3-0.4c1.4,0.6,1.2,0,1-0.7c-0.2-0.7-0.4-1.8,0.9-1.8
								c-0.8-0.4-1.3-1-1.5-1.7c-0.2-0.6-0.1-1.3,0.1-1.8c0.6,0,1.2,0.6,1.6,0.9C68.1,7.1,70.7,8.8,71,10c-0.2-0.6,0.1-1,0.3-1.5
								c0.2-0.5,0.5-0.9,0.2-1.6c0,0,0.2,0.3,0.5,0.6c0.2,0.3,0.5,0.6,0.5,0.6c0.4-0.3-0.1-1-0.4-1.7c-0.3-0.6-0.5-1.3,0.5-1.2
								l0.6,0.9c0.8-0.8,2.1-1,3.2-1.1c1.1-0.1,2-0.2,3.1-1.3c0.1-0.4,0-1.2-0.2-1.9c-0.2-0.7-0.5-1.5-0.5-1.8
								c-1.7,0.7-2.3,2.4-3,3.4l-0.4-1.6c0,0.6-0.2,1.1-0.3,1.6c-0.1,0.5,0,0.9,0.4,1.2c-0.2,0.5-0.4,0.2-0.7,0
								c-0.3-0.3-0.6-0.5-0.7,0.1c-0.8-1.6-0.4-2-1-3.3c0,0-0.1,0.3-0.3,0.6c-0.1,0.3-0.2,0.6-0.2,0.6c-0.1-0.8-0.8-0.2-0.9-0.9
								c-0.1,0.7-0.3,1.1-0.5,1.3c-0.2,0.2-0.6,0.3-0.9,0.4c-0.6,0.2-1.6,0.3-1.7,1.3c0,0,0.9-0.6,0.9-0.5c0.7,0.7,0.3,1,0.2,1.5
								c-1.4-0.5-1.4-0.2-2.4,0.2C67.5,7,68.8,8.2,68.4,9c-1.6-1.1-1.6,0.9-3.1,0.4c1.6,0.9-0.1,1.9,0.9,2.4
								c0.2,0.6-0.2,1.1-1.1,0.8c0-0.1-0.2-0.3-0.2-0.5l-0.2,0.4c-0.2-0.1-0.3-0.1-0.4-0.2c-0.2,0.4,1.1,0.8,0.1,1.1
								c-0.5-0.2-0.4-0.4-0.5-0.7c-0.3,0.5,0.2,1.2,0.6,1.8c0.4,0.6,0.6,1.1-0.3,1.4c0.8,0.4,0.6,1.7,2.5,1.8
								c-0.7,0.2-2.2-0.3-2.2,0.7c1.5,0.9-0.8,0.9,0.1,1.8C63,19,64.1,20.2,62.6,19c-0.8,0.5,1.2,1.9,0.7,2.9c-0.4,0.1-0.9,0-1.3,0
								c0.5,0.5,1.8,1.2,0.4,1.4l1.2,0.1c-0.7,0.7-0.5,1.7-1.8,2.4l2.1,1.2c-2.5,1-0.5,2.9,1.4,4c-0.1,0.4-0.6,1.1-1.1,1
								c-0.2-0.1-0.5-0.3-0.8-0.5c-0.1,0.7-1.4,1.4,0.4,1.9c0.5,0.7-1.3,0.4-1.6,0.9c2.6,1.5-2.1,4,1.9,4.5c0-0.6,0.9-1.6,0.7-2.7
								c0.5,0.3,1.3,0.1,1.3,0.5c0.2,1.1-1.3,1.6-0.7,2.6L62.9,39C60.3,40.9,66.4,42.6,62.7,44z"/>
							<path d="M63.2,30.2l-1.3,0.7l1.1,0C62.8,30.7,62.8,30.4,63.2,30.2z"/>
							<path d="M63,30.9c0.1,0.2,0.3,0.3,0.5,0.5c0-0.2,0-0.3-0.2-0.5L63,30.9z"/>
							<path d="M63.2,47.1c-0.1,0.2-0.3,0.5,0,0.8C63.5,47.7,63.6,47.2,63.2,47.1z"/>
							<polygon points="64,48 64.4,47.6 64.1,47.5 							"/>
							<path d="M67.5,70.4l1.7,1.1c-0.8,0.3,0.3,1.6-1.1,1.3c1.9,0.5,0.3,2.3,2.9,1.5c-1.3-3.5-0.2-8.6-2.8-12.5l1.1,0.6
								c-2.3-2,2.1-3.1-2.2-4.6l2.2,0.1c0.6-1-3.2-1.7-1-2.9L67.4,55c0-0.3,0.4-0.4,0.4-0.7l-0.4,0.1c-0.9-0.7-0.8-1.1-0.2-1.9
								c0.7-0.1,0.3,0.3,0.5,0.5c0.7-0.4-0.8-0.9-0.8-1.4c0.6-0.5,1,0,1.3,0c-1-1.6,1.2-2.5-2-3.6c-0.6-0.1-1.1,0.5-1.4-0.1
								c-1,1.1,0.3,2,1.2,3l0-0.3c3.1,0.7-0.7,0.6,0.7,1.9c-1.3-0.3-1.3-0.9-2-1c-2.3,1.6,1.9,2.1-1.1,3.2l-0.1-0.1
								c-0.3,0.2,0.3,0.6,0.6,0.9c0.4-0.1,0.6-0.5,0.9-0.7c0.3,0.3,1.7,0.4,2.3,0.5c-1.4,0.4,0.7,0.5,0,1.1
								c-1.3,0.3-1.2-0.4-1.9-0.6l0.9,0.7c0.1,0.7-1.3,0.7-2,1.1c1,0.5,0.7-0.4,2.1,0c-1.5,0.8-0.9,3.9,0.4,5.2
								c-0.2-0.5-1.4-0.1-1.2-0.7c-0.3,0.2,0.4,1,1.4,0.9c0.9,0.9,0.4,2.3-0.4,3.3l1-0.4c1.7,0.6-1,2.1,0,3.4l0,0
								c0.2,0.4,2.7,0.6,2.2,1.5C68.7,70.7,68.7,70.2,67.5,70.4z"/>
							<path d="M70.3,75l-1.4-0.3c-0.3,0.5,1.6,1,2.4,0.8c-0.3-0.3,0.2-0.8-0.6-0.8C70.6,74.8,70.1,74.8,70.3,75z"/>
							<path d="M71.6,84.2c0.3,0.1,0.8,0,1.2,0.1c-0.4-1.9-1.2-4.3-0.3-5.2c0.3-0.7-1.7-0.6-2.3-1.4l1.3-0.5
								c-0.9-0.4,0.4-1.9-1.8-1.2c-0.2,0.1,1.1,0.3,0.7,0.7l-0.8,0l0.4,0.9l-1-0.2c-1.2,1.4,3,0.5,2.3,2.1l-1.9,0.2
								c0,1,0.7,1.4-0.3,2.4c0,0,1-0.1,0.6-0.2c0.1-0.2,0.8-0.5,1.4-0.4c1.7,1.3-1.2-0.1-1.9,1.1c1.5,1.1,2.9,3.4,1.5,4.3
								c1.1-0.8,2.5,0,2.4,0.7c-0.6,0.4-1.2-0.1-1.8-0.1c-0.2,0.4-0.6,0.7-0.3,1c1-0.6,2.5-0.5,3.3,0.1C75.3,86.8,71.6,86,71.6,84.2
								z"/>
							<path d="M73.3,84.5c-0.1-0.2-0.3-0.2-0.5-0.2c0.1,0.2,0.1,0.5,0.1,0.7L73.3,84.5z"/>
						</g>
					</g>
				</g>
			</g>
		</g>
	</g>
	<g>
		<g>
			<g>
				<g>
					<g>
						<g>
							<path d="M113,98.6c0,0-0.2,0.7-0.2,0.7l1.2-0.3c0,0-0.2-0.1-0.5-0.2C113.3,98.7,113,98.6,113,98.6z"/>
							<path d="M110.4,103.1c0,0,0.3,0.2,0.5,0.4c0.3,0.2,0.5,0.4,0.5,0.4c1.3-1.2,1.9-1.5,2.2-1.8c0.4-0.3,0.6-0.7,1.3-1.9
								c-0.7-0.1-2.3-0.7-3.5-0.1c0.3,0.4,1.7,0.3,1.6,1c-1,0.2-1.2-0.4-2.5-0.2c-0.5,1.4,1,0.2,1.2,1.5L110.4,103.1z"/>
							<path d="M114,102.4c-0.6,0.3-1.1,0.5-1.5,0.8C113,102.9,113.9,102.9,114,102.4z"/>
							<path d="M114.6,102.7c0.3,0.6-1,0.8-1.2,0.9c0,0,0.6-0.2,1.1-0.4c0.6-0.2,1.1-0.4,1.1-0.4s-0.3,0-0.5,0
								C114.9,102.7,114.6,102.7,114.6,102.7z"/>
							<path d="M116.2,104.7c0.1,0,0.2,0,0.4,0C116.7,104.4,116.5,104.6,116.2,104.7z"/>
							<path d="M117.3,105.3c0.2-0.8-0.2-0.6-0.8-0.6c0,0,0,0.1-0.1,0.1c-0.1,0.7-1.5,1.7-1.7,0.9c-0.7-0.3,0.4-1.3-0.7-1
								c0,0-0.1,0.4-0.2,0.7c-0.1,0.4-0.2,0.8-0.2,0.8c0.5,0.4,1.3,0.2,2-0.1C116.4,105.9,117,105.5,117.3,105.3z"/>
							<path d="M116.2,104.7c-0.1,0-0.2-0.1-0.3-0.2C115.8,104.8,116,104.8,116.2,104.7z"/>
							<polygon points="115.4,103.6 115,103.6 114.5,104.1 							"/>
							<path d="M119.2,106.2c-0.5,1-0.8,0.7-1.1,0.5c-0.3-0.3-0.5-0.7-1.1,0c0.4,0.2,0.6,0.8,0.6,1.4c0,0.6-0.1,1.3-0.4,1.8
								c0,0,0.4,0,0.7,0c0.2,0,0.4,0,0.5-0.1c0.1,0,0.2,0,0.2,0C119.3,109,119.2,107.3,119.2,106.2z"/>
							<path d="M120,112.1c0.1-0.2,0.3-0.3,0.4-0.3C120.3,111.8,120.1,111.9,120,112.1z"/>
							<path d="M125.9,107.8c0,0,0,0-0.1,0.1c0,0-0.1,0.1-0.1,0.1l0,0l0,0l0,0l0,0l0,0l0,0c-0.1,0,0.1,0-0.1,0l0,0l-0.1,0.1
								c-0.1,0.2-0.3,0.6-0.5,0.9c-0.2,0.3-0.4,0.7-0.5,0.9c0,0.1-0.1,0.1-0.1,0.2c-0.1,0-0.1,0.1-0.1,0.1c-0.1,0.1-0.1,0.1-0.1,0.1
								c0.2-0.7-0.1-1.4,0.3-1.7c-0.4,0-0.8,0.3-1.1,0.6c-0.3,0.3-0.6,0.6-1.2,0.6c-0.2-1,0.3-1.1,0.7-1.1c0.4,0,0.8-0.1,0.4-0.9
								c-0.3,0.1-0.7,0.1-1.1,0.4c-0.4,0.2-0.8,0.6-1.2,1.5c0,0-0.3-0.4-0.5-0.7c-0.1-0.2-0.2-0.4-0.3-0.5c-0.1-0.2-0.1-0.3-0.1-0.3
								s0,0.6,0,1.1c0,0.6,0,1.1,0,1.1c0.2,0.3,0.5-0.1,0.8-0.4c0.3-0.3,0.5-0.5,0.6,0.3c0.1,1-0.4,1.1-0.9,1.3
								c0.5-0.2,1,0.3,1.9,0.8c0.4,0.2,0.9,0.4,1.5,0.5c0.3,0,0.6,0.1,0.8,0.1c0.1,0,0.3,0,0.4,0c0.1,0,0.1,0,0.2-0.1
								c0.6-0.3,0.6-1.2,0.5-2.3c0-0.5-0.1-1.1-0.1-1.6l0-0.4l0-0.2l0-0.1l0,0l0,0l0,0l0,0c0.1,0-0.2,0,0.2,0l0,0l0,0
								C125.8,108.2,125.9,108,125.9,107.8z"/>
							<polygon points="126.9,110 127.4,110.8 126.8,109.7 							"/>
							<path d="M128.1,106.3c0,0-0.1,0.4-0.2,0.9c-0.1,0.4-0.2,0.9-0.2,0.9c-0.2-0.1-0.5-0.5-0.7-0.8c0.3,0.4,0.3,1.4,0.6,1.7
								c0.7,0.8,1,0.4,1.2-0.1c0.2-0.6,0.1-1.4,0.3-1.7c1.9-0.1,0.5,1,2,2.3c-0.5,0.2-0.7-0.2-1.4,0c2.1,1.4,2.2-1.1,2.5-1.9
								c-0.3-0.1-0.6-0.6-0.9-0.2l0.2-0.9C130,105.3,129.3,105.3,128.1,106.3z"/>
							<path d="M126.2,107.2c0.4-0.3,0.6-0.3,0.7,0C126.6,106.8,126.3,106.5,126.2,107.2z"/>
							<path d="M132.4,107.2c-0.1-0.1-0.2,0-0.3,0.2C132.2,107.5,132.3,107.4,132.4,107.2z"/>
							<path d="M130.5,105.6l0.8-0.3l-0.8-0.6C130.5,104.8,130.2,105.2,130.5,105.6z"/>
							<path d="M156.1,88.2c-0.6-0.5-1.1-0.6-1.5,0c-0.7-0.8,0-1.2-0.2-1.9c-1.1,0.1-0.9-0.9-1.8-1.5c-0.7,0.6,0,1.8-0.8,2.3
								c-0.2-0.3-0.5-0.6-0.9-0.8c-0.3,1.3-1,3.4-2.5,3.5c-1.1,0.5-1.3,1.4-1.9,2.5c-3.3,2.2-5.7,5.7-9.7,7.5l0.8,2.1
								c-0.8-0.7-0.8,0.6-1.5-0.6c0.3,0.1,0.4-0.2,0.6-0.4c-1.8-1-1.8,1.6-3.1,1.6c0.3,0.2,1.5,1.6,1.4,2.1c-1.3-2-1.1,0.8-2.9-1.3
								c-1.3,0,1.1,1.7-0.1,2.1c0.7,1.2,1.3-0.1,2.1,0.7c0.3,1.1-1.2,0.2-0.3,1.4c2-0.5,3.2-4.9,4.9-7.2l0.6,1.2
								c0.6-1.6,2.3-3.1,4.6-2.2c-1-0.8,2.1-0.9,0.1-2.9c0.7,0.3,0.7,0.1,1.3-0.1l-0.5-0.8c0.6-0.5,1.4,0.7,2,0
								c-1.2-0.5-1-1.2-1.5-2.1c1.6,0.4,3.3,0.5,4.6,0.7c-0.3-0.2-0.7-0.5-1.2-0.7c0.7-0.1-0.1-0.9-0.3-1.3c0.4-0.4,1.4,0.8,1.9,1.4
								c1.1-0.4-0.6-2.9,0.6-2.7l-1.1-0.7c0.5-1,2.2-0.6,2.7-1.7c1.6,0.8,0.4,1.7,0.5,2.6c0.4,0.1,0.9-0.2,1.4,0.1
								c-0.3-1-0.5-2.4-0.6-3.5C154.7,89.6,155.7,88.4,156.1,88.2z"/>
							<path d="M154.4,91.2c0.1,0.3,0.2,0.5,0.2,0.7c0-0.2,0-0.3,0.2-0.4C154.7,91.4,154.5,91.3,154.4,91.2z"/>
							<path d="M156.1,88.2c0.1,0,0.1,0.1,0.2,0.1C156.3,88.2,156.2,88.2,156.1,88.2z"/>
							<path d="M148.2,89.9c0.1,0,0.1,0,0.2,0c0.1,0,0.1-0.1,0.2-0.1L148.2,89.9z"/>
							<path d="M151.4,94.6c-0.5-0.2-1-0.3-1.6-0.4C150.3,94.6,150.7,94.9,151.4,94.6z"/>
							<path d="M145,98.4c0,0.3,0.3,0.5,0.4,0.9C145.9,99.1,145.7,98.7,145,98.4z"/>
							<polygon points="155.5,90.5 155.9,89.6 155.9,89.1 							"/>
							<path d="M162.3,72.4c-1.7-0.2-1.6,1.2-2.4,1.8c-0.4,1.9,2.5,2.1,1.6,3.6l-2.3-2.1c-0.9,1.4-2.8,2.8-1.7,5.6
								c-0.4-0.1-0.9-0.2-1-0.8c-0.6,0.9,2.9,3.3,1.1,3.8c-0.5-2.3-1.7-0.9-2.8-2.4l0-0.3c-0.5,0.8-0.6,2.4-1.1,2.8
								c0.6,0.6,1.8,1,1.3,1.7c0.3-0.1,0.9,0.6,1.5,1.1c0-1.2,0.7-1.2,0.3-2.3c1.1,0.3,0,0.5,1.1,0.8l-0.2-1.2
								c0.5-0.2,0.4,1.1,1.1,0.6c-0.4-0.5-0.4-1.4,0.1-1.8l0.1,0.4c0-0.6,0.9-0.8-0.6-1.8l1.7,0.7l-1-0.7c1.2-0.7,3.7,0.7,3.7-1.6
								c-0.5,0.1-0.8-0.6-0.8-0.9c-1.1,0.1,0.1,1.3-0.2,1.9c-1-0.7-1.3-2.4-2.4-2.2c1.6,0.2,0.9-1.4,3.4,0c0.8-0.8-0.1-2,1.2-2.4
								l0.3,0.3c-1.4-1.3,1.3-0.2,0.1-2.1l-0.7,0.2c-0.6-0.5-0.5-0.7-0.4-1.1c0.2,0.2,0.2,0.2,0.6,0.3c-1.1-0.9-0.6-2-0.8-2.4
								c-0.5,0.3,0.1,1.5,0.1,2.2C162.8,73.2,161.8,72.7,162.3,72.4z"/>
							<path d="M159.4,84.3l-0.3-0.7C159.1,83.8,159.2,84,159.4,84.3z"/>
							<path d="M167,69.6c0.6-0.4,0.9,0.8,1.8,0.5c-0.5-1.1-2.1-0.3-3-1.6c0.9,0.1,0-1.3,0.1-1.5c0.6,0.7,2.3,1.4,2.7,1.5
								c-0.3-0.5,0.8-0.6,1-1c-1.6,0.5-0.2-1.2-1.8-0.8c-0.9-0.6-1.2-1.8-0.2-1.9c0.7,0.4,0.4,0.6,0.3,0.9c1.2,0.9,1-0.3,2.3,0.2
								c-0.7-0.9-0.7-2.2-0.9-3.2c-0.3-1.1-0.8-1.9-2.5-2c-0.7,0.1-0.1,0.6-0.1,1c1-0.7,1.6,0.7,2.1,1c-0.7,0.2,0,1.4-1,0.7
								l-0.9-1.2c-1.5,1.8-2.7,4.6-3.7,7.2c0,0,0.2-0.2,0.3-0.5c0.2-0.2,0.3-0.5,0.3-0.5c0.7,0.6,0.5,1.1,0.6,1.7l2.2,0.7
								c-0.3,0.2-0.2,0.7-0.9,0.2c0.6,0.9,1.1,1,1.9,1.2c-0.2,1-1,0.7-0.2,2c2.4-0.3-0.5-1.9,1.7-2.6L167,69.6z"/>
							<polygon points="166.2,73 165.5,72.1 165.7,72.9 							"/>
							<path d="M162.5,69.9c0.4,0.2,0.5,0.5,0.9,0.8C164,70.3,163.4,70,162.5,69.9z"/>
							<path d="M170.7,65l0-1l-0.6,0.4C170.5,64.5,170.7,64.8,170.7,65z"/>
							<path d="M167.5,57.2c-0.1,1.1,0.7,2-0.8,2.8c1.1,1.1,2.6,0.7,3.8,1.4c0.5-0.6-1.8-1.3-2-2.1c1.3,0.1,0-1,0.5-1.6
								C168.5,57.7,167.9,57.5,167.5,57.2z"/>
							<path d="M173,54.1c0.1-0.6-0.8-1.3-0.2-1.7c0.8,0.1,1,0.5,0.8,0.9c1.8-0.1-0.2-0.7,1-1.3c-0.2,0.1-0.5,0.3-0.9,0.1
								c0.5-1.7-1.4-0.9-0.5-3.1c-0.5-0.3-0.5-0.6-1.7-0.4c1.4-1.3,1.4-0.7,2.5-2.4c-0.7,0.2-2.1,0.9-3.6,1.1
								c0.9-1.1,0.7-1.6,0.4-1.9c-0.2-0.4-0.5-0.6,0-1.4c0.1,0.1,0.5,0.2,0.4,0.5c1-0.4,0.8-0.6,0.4-0.8c-0.4-0.2-1-0.4-0.9-0.8
								l1.7-0.6c-0.3-0.3-0.8-0.6-1.1-1c-0.4-0.4-0.5-0.8-0.2-1.5l0.9-0.2c-1-0.5-1.6-1.2-2.2-1.9c-0.6-0.7-1.1-1.4-1.8-1.8
								c0,0,0.1-0.3,0.2-0.7c0.1-0.3,0.1-0.7,0.1-0.7c-1.2-0.3-1,0.2-0.8,0.8c0.2,0.6,0.1,1.4-1.3,1.7c1.2-1.1,0.8-1.1,0.2-1.1
								c-0.6,0.1-1.4,0.2-1.4-0.6c0.5-1.3,1.3,0.3,1.9-1.1c-1.4,1-0.8-0.1-1.5-0.2c1.2-1.1-0.8-1,0.7-2.1l-3.4,0.9
								c0.3-0.9-0.3-1.1-0.8-1.2c0.8,0.7-1.6,1.7-1.1,3c0.2,0,0.5,0.1,0.6,0.2c0.2,0.1,0.5,0.2,0.7,0.3c0.5,0.3,1,0.6,1.5,0.9
								c0.5,0.3,0.9,0.8,1.2,1.2c0.4,0.5,0.6,1,0.7,1.5c0.9-0.6,1.1-0.3,1.3,0c0.2,0.3,0.3,0.7,1.1,0.3c-0.5,0.4-1,0.9-1.5,1.3
								c1.1,0.9,0.8-0.9,1.7-1c0.6,0.4-0.3,1.5-1,1.8c0.4,0.9,0.6-0.2,1.8-0.3c0,0-0.5,0.4-0.9,0.8c-0.5,0.4-0.9,0.8-0.9,0.8
								c0.9,1.1,2.1,2.5,2.7,4.2c0.7,1.7,0.8,3.6,0,5.3l1.5-0.2c-0.5,0.8,0.3,1.5,0.7,2.3c0.4,0.7,0.5,1.5-1.2,1.9l1.1,0.8
								c-0.7-0.4-2.2-0.2-3.1-0.8c0.4,0.5-0.3,0.8,0.1,1.4l0.9-0.6c1.1,0.8,0.2,1.3-0.9,1.1c0.5,0.8,1.2,0.8,1.9,0.6
								c0.7-0.2,1.4-0.6,2-0.6c-1.1-1.2-0.4-1.5,0.6-1.8c0.9-0.3,2.1-0.6,1.6-1.6C174.4,53.1,173.7,54.3,173,54.1z"/>
							<path d="M168.6,55.5c0.1,0.1,0.2,0.2,0.3,0.3C168.9,55.7,168.8,55.6,168.6,55.5z"/>
							<path d="M161.9,31.7c-0.1-0.1-0.2-0.2-0.5-0.2C161.1,31.7,161.5,31.6,161.9,31.7z"/>
							<path d="M169,57.7C169,57.7,169,57.7,169,57.7C169,57.7,169,57.7,169,57.7C169,57.7,169,57.7,169,57.7z"/>
							<polygon points="172.2,59.5 172.4,59.1 171.7,59 							"/>
							<path d="M158.3,27.6l-0.3,0.7C158.1,28.1,158.2,27.8,158.3,27.6z"/>
							<path d="M143.2,28.3l0.3-0.1C143.3,28.1,143.3,28.2,143.2,28.3z"/>
							<path d="M125.1,54.9c0.1,1,0,2.2,0.9,3.3l-0.7-0.4c0.2,0.6,0.7,2.4,2.4,2.1l-0.5-0.5c-0.6-1.4,1.5-0.2,2.3-0.7
								c0.1-1-2.4-2.8-1.4-3.3c0.1-0.4,0.8,0,1.2,0.4c0.6-0.7-1.3-2-1.3-2.7c2.7,1.2,2.6,0.4,2.4-0.6c-0.2-1-0.6-2.3,1.3-2
								c0-0.9,0.9-1.6,0.5-3.1c1,1.2,0.6-0.8,1.9,0.2c-1.4-1-0.7-1.4-0.1-1.9c0.6-0.5,1.1-1-0.6-2.2c1.8-0.5-0.2-0.2,1.5-1
								c0.4,0.3,0.2,0.5,0.3,0.6c1.1,0-0.9-1.9,1-1.2c1-0.9-0.8-0.9-1.3-2.2c1.3-0.8,1.5-0.2,3.3,0.4c-1.5-1.4-0.3-1.4-0.6-2.6
								c-0.2,0.1-1.1,0.5-1.3-0.4c1.3-1-0.2-1.9,0.6-3.5c2.2,1-1.1,1.2,1.2,1.4c0.1,1.4-0.5,1.9,0.5,3.4c0.9-0.9,1.6-2.2,2-3.8
								c0.8-0.3,0.4,1,1,0.8c0.8-0.1,0.8-0.8,0.8-1.6c0-0.7,0.1-1.5,0.8-1.4l0.5,1.1c-0.2-0.8,0.4-1.1,1-1.3
								c0.7-0.2,1.4-0.3,1.8-0.9c-0.4-0.5-0.7-0.8-0.7-1.2c0.6,1.3,0.8,0.8,1.2,0.1c0.2-0.3,0.4-0.7,0.8-0.9
								c0.3-0.2,0.7-0.2,1.2,0.2c-0.3-0.9-0.2-1.7,0.2-2.3c0.4-0.6,0.9-1,1.4-1.1c0.4,0.5,0.4,1.3,0.4,1.7c-0.8-0.5-1.1,0.1-1.2,0.9
								c-0.2,0.8-0.2,1.8-0.5,2.3c0.2-0.6,0.8-0.6,1.3-0.8c0.5-0.1,1-0.2,1.3-0.9c0,0-0.1,0.4-0.1,0.7c-0.1,0.4-0.1,0.7-0.1,0.7
								c0.5,0.1,0.7-0.7,1-1.4c0.3-0.7,0.6-1.2,1.2-0.4l-0.3,1c1.2,0,2.3,0.8,3.3,1.4c0.5,0.3,1,0.5,1.6,0.7
								c0.6,0.1,1.2,0.1,1.9-0.1c0.7-0.6,0.9-3,1.1-3.6c-0.8,0-1.5,0.2-2.2,0.5c-0.7,0.3-1.3,0.7-1.9,0.9l0.6-1.6
								c-0.7,1-1.9,1.3-1.6,2.3c-0.9,0.6-0.1-1.6-1.1-0.9c0.5-1.7,1.1-1.7,1.5-3.1c0,0-0.3,0.1-0.5,0.3c-0.3,0.2-0.5,0.3-0.5,0.3
								c0.4-0.6-0.4-0.7,0-1.3c-1,0.8-1.5,0.6-2.1,0.2c-0.5-0.4-1.2-0.9-2.1-0.4c0,0,1,0.3,1,0.3c0,1-0.6,0.8-0.9,1.1
								c-0.5-1.3-0.8-1.2-1.8-1.6c-0.7,0.9-0.7,2.7-1.6,2.9c-0.1-0.9-0.6-1.1-1.1-1.1c-0.5,0-1,0-1.4-0.7c0.5,1.8-1.5,1.4-1.2,2.4
								c-0.3,0.6-0.9,0.7-1.4-0.1c0-0.1,0.1-0.3,0.2-0.5l-0.5,0.2c-0.1-0.2-0.2-0.3-0.1-0.4c-0.4,0.2,0.3,1.3-0.7,0.9
								c-0.3-0.4,0-0.6,0.1-0.9c-0.6,0.2-0.7,1.1-0.8,1.8c-0.1,0.7-0.2,1.3-1.1,0.9c0.4,0.8-0.5,1.7,1,3c-0.7-0.3-1.7-1.6-2.2-0.7
								c0.8,1.6-1.2,0.3-0.9,1.6c-0.6-1.9-0.4-0.3-0.9-2.1c-1,0,0,2.3-1,2.9c-0.4-0.2-0.7-0.5-1.1-0.7c0.1,0.7,0.9,1.9-0.4,1.4
								l0.9,0.7c-1,0.2-1.3,1.3-2.8,1.2c0,0,0.3,0.5,0.6,1c0.3,0.5,0.6,1,0.6,1c-2.7-0.4-1.9,2.3-0.6,4.2c-0.3,0.3-1,0.7-1.4,0.4
								c-0.1-0.2-0.3-0.5-0.4-0.8c-0.4,0.5-1.9,0.6-0.5,1.8c0.1,0.9-1.4-0.2-1.9,0.1c0.8,1.2-0.1,1.9-0.8,2.5
								c-0.7,0.6-1.2,1.3,0.5,2.4c0.3-0.5,1.5-1,1.8-2.1c0.3,0.5,1.1,0.7,1,1c-0.3,1-1.9,0.8-1.8,2l-2.2-1.3
								c-1.6,0.2-1.2,1.4-0.9,2.5C126.9,54.1,127.1,55,125.1,54.9z"/>
							<path d="M131.7,42.8l-1.5,0l1,0.5C131.2,43,131.3,42.7,131.7,42.8z"/>
							<path d="M131.2,43.3c0,0.2,0.1,0.4,0.2,0.7c0.1-0.1,0.2-0.3,0-0.5L131.2,43.3z"/>
							<path d="M124.3,57.9c-0.2,0.1-0.5,0.3-0.4,0.8C124.3,58.6,124.5,58.2,124.3,57.9z"/>
							<polygon points="124.6,59 125.1,58.8 124.9,58.6 							"/>
							<path d="M119,80.8l1.1,1.6c-0.8,0-0.3,1.6-1.5,0.8c1.6,1.2-0.6,2.2,2.1,2.4c0.1-3.7,3.1-7.9,2.2-12.5l0.8,1
								c-1.3-2.7,3.1-2-0.2-5l1.9,1c0.9-0.7-2.2-2.8,0.2-3l-0.9-0.2c0.1-0.3,0.5-0.2,0.6-0.5l-0.4,0c-0.6-1-0.3-1.4,0.5-1.8
								c0.7,0.2,0.1,0.4,0.2,0.7c0.8,0-0.4-1.1-0.2-1.6c0.7-0.2,0.9,0.4,1.2,0.5c-0.3-1.9,2.1-1.7-0.4-4c-0.5-0.3-1.2,0-1.2-0.7
								c-1.4,0.6-0.5,2-0.1,3.2l0.1-0.3c2.6,1.9-0.9,0.3-0.1,2c-1-0.8-0.8-1.3-1.4-1.8c-2.8,0.5,0.9,2.6-2.3,2.4l0-0.1
								c-0.4,0.1,0,0.7,0.2,1.1c0.4,0,0.7-0.2,1.1-0.3c0.2,0.4,1.4,1.1,1.9,1.4c-1.4-0.1,0.5,0.7-0.4,1c-1.3-0.2-0.9-0.9-1.5-1.3
								l0.6,1c-0.2,0.6-1.5,0.1-2.3,0.2c0.7,0.9,0.8-0.1,1.9,0.8c-1.7,0.1-2.4,3.2-1.6,4.9c0-0.5-1.2-0.6-0.8-1.1
								c-0.3,0.1,0,1.1,1,1.4c0.5,1.2-0.5,2.2-1.6,2.8l1,0c1.3,1.3-1.8,1.5-1.3,3.1l0,0c0.1,0.5,2.2,1.6,1.5,2.2
								C120,81.5,120.2,81.2,119,80.8z"/>
							<path d="M119.8,86.2l-1.2-0.8c-0.4,0.4,1.1,1.5,2,1.6c-0.2-0.4,0.5-0.6-0.2-0.9C120.2,86,119.7,85.9,119.8,86.2z"/>
							<path d="M117.6,95.1c0.3,0.3,0.8,0.3,1.1,0.5c0.3-1.9,0.4-4.4,1.6-4.8c0.6-0.5-1.4-1.2-1.6-2.1l1.4,0
								c-0.7-0.7,1.1-1.6-1.2-1.7c-0.2,0,0.9,0.7,0.4,0.9l-0.7-0.3l0,0.9l-0.9-0.5c-1.7,0.8,2.6,1.6,1.3,2.8l-1.9-0.5
								c-0.4,0.9,0.2,1.6-1.2,2.1c0,0,1,0.3,0.6,0c0.1-0.1,1-0.1,1.5,0.1c1.1,1.8-1.1-0.5-2.1,0.3c1,1.6,1.5,4.2-0.2,4.5
								c1.3-0.3,2.3,0.9,2,1.5c-0.7,0.2-1.1-0.5-1.6-0.7c-0.3,0.3-0.8,0.4-0.6,0.8c1.2-0.2,2.5,0.5,3,1.3
								C120.2,98.8,117,96.7,117.6,95.1z"/>
							<path d="M119.1,96c0-0.2-0.2-0.3-0.4-0.4c0,0.2-0.1,0.5-0.1,0.7L119.1,96z"/>
						</g>
					</g>
				</g>
			</g>
		</g>
	</g>
</g>
</svg>
