<?xml version="1.0" encoding="utf-8"?>
<!-- Generator: Adobe Illustrator 19.1.0, SVG Export Plug-In . SVG Version: 6.00 Build 0)  -->
<svg version="1.0" id="Layer_1" xmlns="http://www.w3.org/2000/svg" xmlns:xlink="http://www.w3.org/1999/xlink" x="0px" y="0px"
	 viewBox="0 0 188.4 195.9" style="enable-background:new 0 0 188.4 195.9;" xml:space="preserve">
<style type="text/css">
	.st0{fill:#E1F4FD;}
	.st1{fill:#F2D8E0;}
	.st2{fill:#DFF0E3;}
	.st3{opacity:0.85;}
	.st4{opacity:0.3;fill:#FFFFFF;}
	.st5{opacity:0.3;fill:#F2D8E0;}
	.st6{fill:#FFFFFF;}
	.st7{opacity:0.3;fill:#DFF0E3;}
	.st8{opacity:0.4;fill:#FFFFFF;}
	.st9{opacity:0.3;fill:#E1F4FD;}
	.st10{fill:#F8DE8D;}
	.st11{fill:#BADAF3;}
	.st12{fill:#231F20;}
	.st13{fill:#010101;}
	.st14{fill:none;stroke:#010101;stroke-width:6.518;stroke-miterlimit:10;}
	.st15{fill:none;stroke:#FFFFFF;stroke-width:6.0438;stroke-miterlimit:10;}
	.st16{fill:#FAD6D7;}
	.st17{fill:#FFFEFE;}
	.st18{fill:#C2DE9F;}
	.st19{fill:#FCD6D6;}
	.st20{fill:#FEE777;}
	.st21{fill:#FAA958;}
	.st22{fill:#BADB93;}
	.st23{fill:#F9DE8C;}
	.st24{fill:#B0DAF4;}
	.st25{fill:#9C6026;}
	.st26{fill:#CB8F62;}
	.st27{fill:#714C1E;}
	.st28{fill:#9C9DCE;}
	.st29{fill:#FFC214;}
	.st30{fill:#DEE682;}
	.st31{fill:#F3DAB1;}
	.st32{fill:#F6B4C9;}
	.st33{fill:#FEC470;}
	.st34{fill:#FDC17E;}
	.st35{fill:#724F1F;}
	.st36{fill:#D22030;}
	.st37{fill:#00AFAC;}
	.st38{fill:#18A6DF;}
	.st39{fill:#FEDD10;}
	.st40{fill:#E74782;}
	.st41{fill:#FBD0D8;}
	.st42{fill:none;stroke:#000000;stroke-width:1.7659;stroke-miterlimit:10;}
	.st43{fill:#672F12;}
	.st44{fill:#F58C8E;}
	.st45{fill:#E8B674;}
	.st46{fill:#FFD89F;}
	.st47{fill:#FFEDB3;}
	.st48{fill:#5EB2E3;}
	.st49{fill:#7DB2E0;}
	.st50{fill:#F19C9D;}
	.st51{fill:#593712;}
	.st52{fill:none;stroke:#E7EFD6;stroke-width:0.4253;stroke-miterlimit:10;}
	.st53{fill:#D86464;}
	.st54{fill:#FEEBB1;}
	.st55{fill:#F8A95A;}
	.st56{fill:none;stroke:#010101;stroke-width:8.0507;stroke-linecap:round;stroke-linejoin:round;stroke-miterlimit:10;}
	.st57{fill:#95D4D1;}
	.st58{fill:#F6DD8C;}
	.st59{fill:#B0D9F4;}
	.st60{fill:#FFC118;}
</style>
<g>
	<path class="st0" d="M58.6,114.5c0,0-33.3,57.4-1,73.3c32.3,15.9,96.2,10.5,115.2-34.8c7.4-17.6-7.7-46.8-7.7-46.8
		s-3-11.5-1.6-13.1c34.8-38.7,27.9-72.3,10.8-72.1c-30.4,0.3-44,37-44.4,49.6c-0.5,12.6-3.6-66.2-40.3-61.2
		c-45,6.1-11.3,83.8-11.3,83.8s-52.4-58.4-67-35.6c-21.5,33.6,38.3,53.7,43.7,52.4C60.3,108.7,58.6,114.5,58.6,114.5z"/>
	<g>
		<g>
			<g>
				<g>
					<g>
						<g>
							<path d="M51.8,108.8l0.9-0.6l-0.8-1c0,0,0,0.4-0.1,0.8C51.8,108.4,51.8,108.8,51.8,108.8z"/>
							<path d="M57.9,108.2l0.7-1.4c-1.4-1-1.8-1.5-2.2-1.8c-0.4-0.3-0.9-0.4-2.8-0.3c-0.1,0.6-0.4,1.5-0.4,2.3
								c0,0.8,0.3,1.6,0.9,1.9c0.2-0.6-0.1-2.2,0.9-2.6c0.4,1-0.3,1.7,0.4,2.8c0.9-0.2,0.9-0.5,0.8-0.9c0-0.4-0.2-0.9,0.6-1.2
								L57.9,108.2z"/>
							<path d="M57,104.4c0.3,0.6,0.5,1.1,0.9,1.5C57.5,105.3,57.7,104.2,57,104.4z"/>
							<path d="M57.6,103.5c0.9-0.6,0.8,1,1,1.1c0,0-0.1-0.6-0.2-1.3c-0.1-0.6-0.1-1.3-0.1-1.3s-0.2,0.3-0.3,0.7
								C57.7,103.1,57.6,103.5,57.6,103.5z"/>
							<path d="M61.4,101.1c0.1-0.1,0.2-0.3,0.3-0.4C61.4,100.4,61.4,100.8,61.4,101.1z"/>
							<path d="M63.2,99.8c-0.7-0.5-1.1,0.2-1.5,0.9c0,0,0.1,0,0.1,0.1c0.8,0.3,1.1,2,0.1,2c-0.7,0.8-1.4-0.6-1.6,0.8
								c0,0,0.4,0.1,0.8,0.2c0.4,0.1,0.8,0.2,0.8,0.2C63.2,103.1,62.9,100.6,63.2,99.8z"/>
							<path d="M61.4,101.1c-0.1,0.1-0.3,0.3-0.5,0.4C61.3,101.6,61.4,101.3,61.4,101.1z"/>
							<polygon points="59.4,102.1 59.1,102.7 59.6,103.2 							"/>
							<path d="M66.5,98.2c0.6,2.1-2.5,0.8-2.1,2.5c1.2-0.7,2.9,0.4,3.1,1.6c0,0,0.3-0.3,0.6-0.6c0.3-0.3,0.6-0.6,0.6-0.6
								C68.9,100.1,67.7,98.8,66.5,98.2z"/>
							<path d="M71.3,102.3c0-0.2,0.1-0.4,0.2-0.5C71.4,101.9,71.3,102.1,71.3,102.3z"/>
							<path d="M77.8,96.6c0,0-0.8,0.7-1.5,1.5c-0.8,0.7-1.5,1.5-1.5,1.5c0.1-0.8-0.2-1.4,0.6-1.8c-1.6,0.2-1.5,1.5-2.8,1.7
								c-0.5-0.9,0.1-1.1,0.6-1.3c0.5-0.1,1-0.3,0.4-1c-0.9,0.3-2.3,0.8-2.4,2.7c0,0-0.5-0.2-0.9-0.4c-0.5-0.2-0.9-0.4-0.9-0.4
								l1.2,1.9c0.7,0.4,0.6-2,1.4-0.7c0.5,0.9,0,1.2-0.4,1.5c0.8-0.7,2.9,0.9,4.6,0.2C77.9,101.2,76.7,98,77.8,96.6z"/>
							<polygon points="78.4,99 78.9,99.8 78.4,98.7 							"/>
							<path d="M81.8,95.4c0,0-0.4,0.4-0.8,0.9c-0.4,0.4-0.8,0.9-0.8,0.9c-0.2-0.1-0.4-0.6-0.6-1c0.2,0.5-0.2,1.4,0,1.8
								c1.2,1.8,2.1-1.1,3.1-1.6c2.8,0.5,0,1.1,1.4,2.8c-0.7,0.1-0.8-0.4-1.9-0.4c1,1,1.9,0.9,2.7,0.5c0.8-0.4,1.5-1.2,2-1.5
								c-0.3-0.2-0.5-0.8-1-0.5l1-0.8C85.4,95,84.3,94.7,81.8,95.4z"/>
							<path d="M78.4,96c0.7-0.3,1-0.2,1.1,0.1C79.2,95.6,78.9,95.3,78.4,96z"/>
							<path d="M87.3,97.7c-0.1-0.1-0.3,0-0.6,0.1C86.9,97.9,87.1,97.9,87.3,97.7z"/>
							<path d="M86,95.4l1.4,0l-0.6-0.9C86.5,94.7,85.9,95,86,95.4z"/>
							<path d="M136,103.9c0.2-0.8-0.1-1.4-1.1-1.5c0.5-1,1.7-0.4,2.4-0.7c-1-1.1,0.5-1.2,0.5-2.3c-1.4-0.7-2.6,0.5-4-0.3
								c0.2-0.3,0.3-0.7,0.2-1.2c-2.2,0-5.6,0.1-7.3-1.2c-1.7-0.8-3.2-0.6-5.4-0.5c-3.3-0.9-6.8-1.2-10.3-1.5
								c-3.5-0.2-7.1-0.4-10.8-1l-1,2.1c-0.3-1-1.7,0-1.5-1.4c0.4,0.3,0.8,0,1.3,0c-0.8-0.9-1.8-0.9-2.9-0.7
								c-1.1,0.2-2.2,0.6-3.1,0.3c0.2,0.4,0.6,2.2,0.1,2.5c0-2.4-2.2,0.2-2.9-2.5c-1.9-0.5,0.1,2.1-1.9,1.8
								c-0.1,1.4,1.9,0.5,2.3,1.5c-0.5,1.2-1.7-0.3-1.5,1.1c1.5,0.2,3.6-0.5,6-1.3c2.3-0.8,5-1.8,7.3-2.1l-0.5,1.3
								c2.4-0.9,6.4-0.7,8.1,1.6c-0.3-1.3,3.4,1,3.4-1.8c0.5,0.7,0.7,0.6,1.6,1l0.4-0.9c1.2,0.2,0.8,1.5,2.2,1.6
								c-0.7-1.3,0.3-1.5,0.9-2.5c0.7,0.8,1.5,1.6,2.2,2.3c0.7,0.8,1.4,1.5,2,2.2c0-0.4-0.1-0.9-0.4-1.5c0.9,0.6,0.9-0.6,1.3-0.9
								c0.9,0.1,0.5,1.7,0.3,2.4c1.5,0.9,3-1.9,4-0.6l-0.1-1.3c1.8,0.2,2.9,1.9,4.9,2.1c0.4,1.9-2,0.9-2.9,1.4
								c0.3,0.5,1,0.8,1.1,1.4c1-0.6,2.7-1.3,4-1.8C133,102.9,135.4,103.5,136,103.9z"/>
							<path d="M130.7,103c-0.3,0.2-0.5,0.3-0.7,0.5c0.2,0,0.4-0.1,0.6,0.1C130.7,103.4,130.7,103.2,130.7,103z"/>
							<path d="M136,103.9c0,0.1,0,0.1,0,0.2C136.1,104,136.1,104,136,103.9z"/>
							<path d="M126.4,96.5c0.1,0.1,0.2,0.1,0.2,0.2c0.1,0.1,0.2,0.1,0.3,0.1L126.4,96.5z"/>
							<path d="M123.7,101.7c-0.3-0.5-0.7-1.1-1.2-1.6C122.6,100.6,122.6,101.1,123.7,101.7z"/>
							<path d="M112.3,98.4c-0.4,0.2-0.2,0.6-0.5,0.9C112.5,99.5,112.8,99.1,112.3,98.4z"/>
							<polygon points="132.6,104 134,104.1 134.7,103.9 							"/>
							<path d="M159.9,115.4c0.4-1,0.1-1.8-0.4-2.6c-0.5-0.8-1.2-1.5-1.6-2.3c-1.4-1-2-0.5-2.6,0c-0.6,0.4-1.1,0.9-2.1,0
								c0,0,0.6-0.5,1.2-0.9c0.6-0.5,1.3-0.9,1.3-0.9c-0.3-0.2-0.6-0.5-0.9-0.8c-0.3-0.3-0.6-0.5-1-0.8c-0.3-0.3-0.7-0.6-1-0.8
								c-0.4-0.2-0.7-0.5-1.1-0.7c-0.8-0.4-1.6-0.8-2.4-0.9c-0.8-0.1-1.7-0.1-2.6,0.2c0-0.4-0.2-1.1,0.6-1.1
								c-1.8-0.8-2.9,3.3-4.7,1.4c2.9-0.7,0.1-2,1.5-3.4l0.4,0c-1.6-0.6-4-0.5-4.9-1c-0.3,0.7,0,2.1-1.3,1.7
								c0.5,0.3-0.1,1.1-0.4,1.8c1.7-0.3,2.3,0.6,3.5,0c0.4,1.3-0.7,0.1-0.3,1.4c0,0,0,0,0.1,0l0,0l0,0l0,0l0,0l0,0l0,0l-0.1,0l0,0
								l0,0c0,0,0.1,0,0.1,0c0.1,0,0.3-0.1,0.5-0.1c0.4-0.1,0.7-0.2,0.7-0.2c0.6,0.6-1.2,0.6-0.1,1.3c0.4-0.5,1.7-0.6,2.5,0
								l-0.4,0.2c0.9,0,1.6,1,2.1-0.7c0,0,0,0.5,0,1c0,0.5,0,1,0,1l0.5-1.1c0.8,0.8,1,1.8,1.3,2.7c0.3,0.9,0.8,1.6,2.2,1.9
								c-0.2-0.7,0.6-0.8,1-0.7c-0.3-1.3-1.6-0.2-2.5-0.6c0.5-1,2.9-1.1,2.2-2.4c0.2,1,0.7,1.4,1.1,1.9c0.4,0.5,0.5,1-0.3,2.3
								c0.5,0.6,1.1,0.8,1.7,1c0.5,0.3,1.1,0.5,1.3,1.4l-0.4,0.2c0.9-0.5,0.9,0,1,0.4c0.1,0.5,0.1,1,1.3,1.1l-0.1-1
								c0.7-0.4,0.9,0,1.4,0.5c-0.3,0.1-0.3,0.1-0.5,0.4c1.3-0.5,2.4,1.3,2.8,1.5c0-0.2-0.1-0.5-0.3-0.7c-0.2-0.2-0.4-0.4-0.6-0.5
								c-0.5-0.3-1-0.7-1.4-1C158.7,115.1,159.7,114.4,159.9,115.4z"/>
							<path d="M143.4,106.8l0.8-0.3C144,106.5,143.7,106.6,143.4,106.8z"/>
							<path d="M159.2,123.8c-0.3,1.1-1.2-0.3-1.8,0.7c0.5,0.5,1,0.3,1.5,0c0.6-0.3,1.2-0.6,1.9,0c-0.9,0.7,0.5,1.9,0.4,2.4
								c-0.7-0.6-2.6-0.5-3-0.4c0.5,0.5-0.6,1.3-0.8,1.9c1.5-1.5,0.4,1.6,1.9,0.3c0.5,0.2,0.9,0.7,1,1.3c0.1,0.6-0.1,1.2-0.6,1.4
								c-0.7-0.3-0.4-0.8-0.3-1.3c-1.3-0.7-1.1,0.9-2.5,0.8c0.7,1.1,0.6,3,0.6,4.6c0,1.6,0.2,2.9,2.1,2.8c0.9-0.3,0.4-1.2,0.5-1.9
								c-1.4,1.6-1.6-0.7-2.1-1.1c0.4-0.3,0.5-0.8,0.6-1.2c0.1-0.4,0.2-0.6,0.7-0.3c0,0,0.2,0.4,0.4,0.8c0.2,0.4,0.3,0.8,0.3,0.8
								c1.1-1.9,2.1-4.3,2.5-6.9c0.5-2.7,0.4-5.5-0.2-8c0,0,0.1,0.5,0.1,1.1c0,0.3,0,0.5,0,0.8c0,0.2,0,0.3,0,0.3
								c-0.5-0.1-0.7-0.4-0.9-0.8c-0.2-0.4-0.4-0.8-0.7-1.1c0,0-0.5,0.3-1,0.6c-0.5,0.3-1,0.6-1,0.6c0.1-0.5-0.3-1,0.5-1.1
								c-1-0.5-1.5-0.1-2.2,0.3c-0.2-0.6-0.2-0.9-0.3-1.2c-0.1-0.3-0.3-0.6-1.1-0.8c-0.6,1.1-0.2,1.4,0.3,1.8
								c0.2,0.2,0.5,0.4,0.6,0.7c0.1,0.3,0.1,0.7-0.3,1.3c0,0,0.7,0.1,1.5,0.3C158.5,123.6,159.2,123.8,159.2,123.8z"/>
							<path d="M157.4,119.1c0,0,0.3,0,0.6,0.1c0.3,0.1,0.6,0.1,0.6,0.1s-0.2-0.2-0.4-0.3c-0.2-0.2-0.4-0.3-0.4-0.3L157.4,119.1z"/>
							<path d="M162.3,118.8c-0.5,0.1-0.8-0.2-1.2,0C161.1,120,161.7,119.8,162.3,118.8z"/>
							<path d="M156.4,132.3c0,0,0,0.4-0.1,0.7c0,0.4-0.1,0.7-0.1,0.7s0.2-0.2,0.4-0.4c0.2-0.2,0.4-0.4,0.4-0.4
								C156.5,132.9,156.4,132.5,156.4,132.3z"/>
							<path d="M156.9,144.4c0.9-2,0.5-3.3,2.6-5c-0.8-1.7-2.7-0.7-3.6-1.7c-0.8,0.9,1.4,1.9,1.2,3.2c-1.3-0.2-0.7,1.7-1.5,2.6
								C156.1,143.6,156.6,143.9,156.9,144.4z"/>
							<path d="M148.9,147.9c-0.6,0.8-0.4,2.1-1.3,2.4c-0.6-0.6-0.4-1.2,0.1-1.5c-1.6-0.7-0.4,1-2,1.1c0.2,0,0.7-0.1,0.8,0.4
								c-1.9,1.8,0.3,2-2.6,4.1c0.1,0.7-0.2,1,0.7,1.7c-2.4,0.5-1.7-0.2-4.2,0.7c0.6,0.4,2.3,0.8,3.4,1.8c-3.7,1.2-2,2.7-4.5,3.3
								c0.1-0.2,0-0.7,0.5-1c-1.7-1.2-0.9,1.6-2,2.2l-1.2-1.3c-0.3,0.5-0.5,1.3-0.9,2c-0.4,0.7-1,1.2-1.9,1.2l-0.4-0.8
								c-0.2,0.7-0.5,1.3-0.9,1.9c-0.4,0.6-0.9,1.1-1.4,1.6c-0.9,1-2,1.8-2.7,2.8c0,0-0.4,0-0.8-0.1c-0.4,0-0.8-0.1-0.8-0.1
								c-0.8,1.4-0.1,1.1,0.8,0.9c0.9-0.2,2-0.5,1.9,1.2c-1.1-1.2-1.3-0.7-1.5,0c-0.2,0.8-0.4,1.8-1.5,1.8c-1.4-0.6,1.1-1.6-0.5-2.3
								c0.6,1.6-0.5,1-1,1.8c-0.7-1.4-1.8,0.9-2.2-0.9c0,0-0.1,0.3-0.2,0.7c-0.1,0.4-0.3,0.9-0.5,1.4c-0.4,1-0.8,2.1-0.8,2.1
								c-0.9-0.5-1.7,0.1-2.2,0.6c1.7-0.8,0.6,2.3,2.8,2c0.6-0.5,1.3-1.1,2.1-1.7c0.8-0.6,1.6-1.3,2.5-1.9c1.7-1.3,3.6-2.5,5.4-3.5
								c-0.5-1,0-1.3,0.5-1.7c0.5-0.4,1.1-0.8,0.7-1.6c0.5,0.5,1.1,0.7,1.7,1.1c1.5-2-1.2-0.5-1.3-1.5c0.6-0.9,2.1-0.6,2.6,0
								c1.3-1.2-0.3-0.6-0.5-2c0,0,0.6,0.2,1.2,0.4c0.6,0.2,1.3,0.4,1.3,0.4c0.9-1.2,1.6-2.4,2.5-3.7c0.9-1.3,1.8-2.7,2.7-4
								c1.9-2.7,3.9-5.4,6.4-7.5l-1.5-0.5c1.2-0.9,1.2-2.3,1.4-3.5c0.2-1.2,0.6-2.2,2.6-2.4l-0.6-1.4c0.3,0.8,2.1,0.8,2.6,2
								c0-0.9,0.9-1.3,1-2.3l-1.3,0.8c-0.5-1.5,0.7-2,1.8-1.7c-0.2-2.6-2.8-0.2-4.1-0.5c0.4,2-0.6,2.2-1.7,2.3
								c-1.1,0.1-2.4,0.1-2.7,1.5C146.8,148.6,148.3,147.4,148.9,147.9z"/>
							<path d="M154.3,147.2c0-0.2,0-0.4-0.1-0.6C154.2,146.8,154.2,147,154.3,147.2z"/>
							<path d="M119.1,177.6c-0.2,0.1-0.4,0.2-0.7,0.4C118.3,178.5,118.6,178,119.1,177.6z"/>
							<path d="M155.6,143.4C155.6,143.4,155.6,143.4,155.6,143.4C155.6,143.4,155.6,143.4,155.6,143.4
								C155.6,143.5,155.6,143.4,155.6,143.4z"/>
							<polygon points="153.2,140.4 152.8,141 153.4,141.3 							"/>
							<path d="M111,178.9l0.2,0.7C111.2,179.4,111.1,179.2,111,178.9z"/>
							<path d="M89.7,182.1l0.5,0C90,182,89.9,182,89.7,182.1z"/>
							<path d="M38.5,172.1c-1.5-0.3-3.5-0.6-5-0.1l0.5-0.6c-0.4,0-1.3-0.1-2.1,0c-0.7,0.2-1.4,0.5-1,1.6l0.7-0.3
								c1.1,0.1,1.3,0.5,1.3,1.1c0,0.3,0,0.7,0,1c0,0.2,0,0.3,0.2,0.5c0.1,0.2,0.2,0.3,0.3,0.4c1.7,0.5,3.9-1.7,5.1-0.4
								c0.7,0.2,0.2,0.9-0.2,1.3c1.4,0.9,2.9-0.9,3.9-0.8c-1,2.8,0.3,2.9,1.9,2.8c1.6-0.1,3.5-0.3,3.9,1.8c1.5,0.1,3.3,1.2,5.4,0.7
								c-1.4,1.1,1.7,0.6,0.8,2.1c0.8-1.6,1.9-0.8,3.1-0.2c1.2,0.6,2.4,1.1,3.1-0.9c2.2,1.8,0.2-0.3,2.8,1.4
								c-0.1,0.5-0.6,0.4-0.8,0.4c0.9,1.2,2.1-1.4,2.7,0.7c2.2,0.8,0.6-1.1,2.2-1.9c2.3,0.9,1.5,1.4,2.5,3.4c0.6-2,1.8-0.8,3.2-1.7
								c-0.3-0.1-1.8-0.8-0.7-1.4c2.7,0.7,2.4-1,5-1.3c1.1,2.4-2.6-0.2-0.5,1.8c-1.8,0.9-3,0.6-4.1,2.1c2.2,0.5,5,0.4,7.5-0.4
								c1.3,0.4-0.8,1,0.3,1.3c2.4,1.1,3.8-2.1,5.7-1.1l-0.4,1.2c1.2-1.5,4.3,0.3,6.6-0.7c-0.3-0.6-0.5-1-0.3-1.4
								c0.1,1.5,0.8,1,1.9,0.5c1-0.5,2.3-1.3,3.5-0.4c-0.4-1.8,1.5-3.1,2.8-3.5c0.5,0.4,0.6,1.2,0.7,1.7c-2.3-0.8-1.8,2.4-3.5,3.4
								c0.7-0.5,1.7-0.7,2.6-0.9c0.9-0.2,1.9-0.4,2.4-1.2l-0.2,1.5c2.1-0.2,1.1-3.5,3.5-2.7l0,1.1c2.1-0.6,4.5-0.8,6.7-1.4
								c1.1-0.3,2.2-0.6,3.1-1.2c0.9-0.6,1.7-1.2,2.2-2.1c-0.1-0.9-2.5-2.2-2.8-2.8c-1.5,1.5-2,3.3-3.3,4.5l-0.5-1.6
								c0.1,1.2-1.5,2.4-0.3,3c-1,1.2-1.4-1.1-2.5,0.2c-0.3-1.7,0.4-2.2,0-3.6c0,0-0.2,0.3-0.5,0.6c-0.2,0.3-0.5,0.6-0.5,0.6
								c0.2-0.8-0.9-0.4-0.7-1.1c-0.8,1.3-1.7,1.3-2.5,1.1c-0.9-0.2-1.7-0.5-2.8,0.2l1.3,0c0.2,1-0.6,1-1.1,1.4
								c-0.9-1.2-1.2-1-2.5-1.4c-0.9,0.9-1.2,2.8-2.7,2.9c0.1-1.9-2.5-0.7-2.8-2.3c-0.2,1.9-2.7,0.9-2.8,1.9
								c-0.7,0.4-1.8,0.2-1.8-0.7c0.1-0.1,0.3-0.2,0.6-0.3l-0.7,0c0.1-0.2,0-0.4,0.1-0.4c-0.7,0-0.7,1.3-1.5,0.4
								c0-0.5,0.5-0.5,0.8-0.7c-1.7-0.3-3.2,2.8-4.6,1.1c-0.3,0.9-2.4,0.8-2.1,2.8c-0.5-0.7-0.2-2.3-1.8-2.1c-1,1.6-1.7-0.7-2.9,0.2
								c1.7-1.6,0.1-0.5,1.6-2c-0.9-0.8-2.7,1.3-4.5,0.7c-0.1-0.4-0.1-0.9-0.2-1.3c-0.7,0.5-1.7,1.7-2.1,0.3l-0.1,1.2
								c-1.1-0.8-2.9-0.7-3.9-2.2l-2,1.9c-0.8-1.4-1.9-1.7-3.2-1.5c-1.2,0.2-2.6,0.9-3.7,1.7c-0.7-0.3-1.7-1-1.6-1.5
								c0.2-0.1,0.6-0.4,1-0.6c-1.1-0.4-2-2-3.2-0.4c-1.3,0.2-0.4-1.5-1.2-2c-1.5,0.9-3-0.1-4.3-0.9c-1.3-0.8-2.5-1.4-3.5,0.3
								c0.9,0.4,2.3,1.8,4.1,2.2c-0.6,0.3-0.5,1.2-1.2,1c-1.8-0.5-2.2-2.2-4.2-2.3l1.1-2.3c-1-1.8-2.7-1.6-4.3-1.5
								C40.3,174.3,38.8,174.2,38.5,172.1z"/>
							<path d="M60.4,180.2l-0.9-1.6l-0.2,1.1C59.7,179.6,60.1,179.7,60.4,180.2z"/>
							<path d="M59.3,179.7c-0.3,0-0.6,0.2-0.9,0.3c0.3,0.1,0.6,0.1,0.8,0L59.3,179.7z"/>
							<path d="M33.6,170c-0.2-0.2-0.5-0.7-1.1-0.8C32.6,169.7,33.2,170.2,33.6,170z"/>
							<path d="M32,169.8c0,0,0.1,0.2,0.2,0.4c0.1,0.2,0.2,0.3,0.2,0.3l0.2-0.2c0,0-0.1-0.1-0.3-0.2C32.1,170,32,169.8,32,169.8z"/>
							<path d="M29.9,134.1c0,0,0-0.7-0.1-1.3c0-0.7-0.1-1.4-0.1-1.4c0.9,0.1,1.4-2.5,2.1-1.1c-0.8-2.1,2.3-3.5-0.5-4.1
								c-1.5,3-3.8,6.1-5.7,9.8c-1.9,3.6-3.5,7.8-3.4,12l-0.7-1.5c0.4,2.3-0.4,3.5-1,4.9c-0.5,1.3-0.7,2.7,1.3,4.5
								c0,0-0.5-0.1-1.1-0.2c-0.5-0.1-1.1-0.3-1.1-0.3c-0.2,0.5,0,1,0.2,1.5c0.3,0.5,0.6,1,0.9,1.4c0.7,0.9,1.2,1.8,0.3,3.1L22,161
								c0.1,0.5-0.2,0.9,0,1.4l0.3-0.3c1.3,1.1,1.5,1.9,1.6,3.5c-0.5,0.4-0.6-0.5-0.9-0.8c-0.3,1,1.5,1.3,2.1,2.2
								c0,1.1-0.8,0.6-1.1,0.6c1.4,1.2,2,2.3,2.8,3.1c0.4,0.4,0.8,0.7,1.4,0.9c0.6,0.2,1.3,0.1,2.2-0.2c0.5-0.3,0-1.3,1.1-0.9
								c-0.5-1-1.2-1.5-2-1.8c-0.8-0.4-1.8-0.6-2.7-1.1c0,0,0.1,0.1,0.2,0.2c0.1,0.1,0.2,0.2,0.2,0.2c-1.7,0.4-1.8,0-1.7-0.6
								c0-0.3,0.1-0.6,0-1c-0.1-0.4-0.3-0.7-0.9-1.1c1.4,0,2,0.8,2.7,0.7c0.2-1.7-0.5-2.2-1.2-2.8c-0.7-0.6-1.2-1.2,0-2.4l0.1,0.1
								c0.2-0.4-0.5-0.9-0.9-1.4c-0.4,0.3-0.4,0.9-0.6,1.3c-0.4-0.5-1.8-0.5-2.4-0.6c1.2-1-0.8-0.9-0.3-2.2c1.2-0.5,1.3,0.8,2,1.1
								c0,0-0.3-0.3-0.5-0.6c-0.3-0.3-0.5-0.6-0.5-0.6c-0.2-1.3,1.3-1.3,2-1.9c-1-1-0.7,0.6-2-0.2c0.8-0.7,1.1-2.3,1.4-4.1
								c0.2-1.8,0.4-3.9,0.2-5.3c-0.1,0.9,1.2,0.7,0.7,1.7c0.4-0.3,0.2-1.8-0.8-2.1c-0.2-2,1.2-4,2.8-5.1l-1.1,0
								c-0.5-1,0.2-1.7,1-2.4c0.8-0.7,1.8-1.5,2-2.9l0,0c0.2-0.8-1.5-2.6-0.3-3.6C29.3,133,28.8,133.6,29.9,134.1z"/>
							<path d="M32.9,125.5l0.6,1.5c0.8-0.5,0-2.5-0.8-2.9c-0.1,0.7-1.1,1-0.5,1.5C32.4,125.7,32.8,126,32.9,125.5z"/>
							<path d="M43.3,112.4c0-0.5-0.4-0.7-0.6-1.1c-2.3,2.7-4.7,6.5-6.4,6.9c-1.1,0.7,0.4,2.1-0.2,3.6l-1.5-0.3
								c0.2,1.2-2.5,2.3-0.2,2.9c0.2,0-0.4-1.2,0.3-1.5l0.6,0.6l0.8-1.4l0.5,1c2.4-0.9-1.4-3,1-4.6l1.5,1.3c1.2-1.3,1.3-2.4,3.2-2.8
								c0,0-0.7-0.7-0.6-0.2c-0.3,0.2-1.1-0.1-1.4-0.6c0.6-3.1,0.6,1.1,2.4,0.2c0.5-2.6,2.7-6.6,4.7-6.4c-1.6,0-1.4-2.1-0.4-2.9
								c0.9,0.1,0.5,1.1,0.8,1.7c0.6-0.3,1.3-0.3,1.5-0.9c-1.3-0.2-2-1.6-1.4-3.1C44.6,106,45.6,110.3,43.3,112.4z"/>
							<path d="M42.7,110.6c-0.2,0.3-0.1,0.5,0,0.7c0.3-0.3,0.5-0.7,0.8-0.9L42.7,110.6z"/>
						</g>
					</g>
				</g>
			</g>
		</g>
	</g>
	<g>
		<g>
			<g>
				<g>
					<g>
						<g>
							<polygon points="40.5,108.6 41.1,108.5 40.4,107.6 							"/>
							<path d="M45.1,110.1l0.2-0.9c-2.8-2.1-1.6-1.9-4.3-2.7c0.1,0.7,0.2,2.3,1.2,3.1c0.1-0.3-0.5-1.6,0.2-1.6
								c0.6,0.9,0.1,1.1,0.8,2.2c1.3,0.2-0.2-1,0.7-1.2L45.1,110.1z"/>
							<path d="M43.4,106.9c0.4,0.5,0.7,1,1.1,1.3C44.1,107.7,43.9,106.9,43.4,106.9z"/>
							<path d="M43.5,106.3c0.5-0.3,0.9,0.9,1.1,1l-1.2-2L43.5,106.3z"/>
							<path d="M45.1,104.9c0-0.1,0-0.2,0-0.3C44.8,104.4,45,104.6,45.1,104.9z"/>
							<path d="M45.6,104c-0.7-0.4-0.6,0.1-0.5,0.6c0,0,0.1,0,0.1,0.1c0.7,0.2,1.6,1.6,1,1.6c-0.1,0.6-1.2-0.5-0.8,0.5l1.3,0.5
								C47.2,106.6,45.9,104.6,45.6,104z"/>
							<path d="M45.1,104.9c0,0.1-0.1,0.2-0.1,0.3C45.2,105.3,45.2,105.1,45.1,104.9z"/>
							<polygon points="44.2,105.5 44.2,106 44.8,106.4 							"/>
							<path d="M46.8,102.6c1.5,1.6-1,0.7,0.1,2c0.4-0.6,2,0.2,2.7,1.1l0.1-1C49.2,103.9,47.8,103.1,46.8,102.6z"/>
							<path d="M51.8,105.3c-0.1-0.2-0.1-0.3-0.1-0.4C51.7,105.1,51.7,105.2,51.8,105.3z"/>
							<path d="M51.8,99.9c0,0,0.1,0.7,0.2,1.4c0.1,0.7,0.2,1.4,0.2,1.4c-0.4-0.6-0.9-1-0.8-1.5c-0.8,0.4,0.2,1.4-0.4,1.8
								c-1.6-1.2,0.7-1-0.9-1.9c-0.3,0.4-0.7,0.9,0.3,2.4l-1.5-0.4l1.8,1.4c0.7,0.2-0.8-1.6,0.4-0.7c0.8,0.6,0.7,0.9,0.7,1.2
								c0-0.7,2.2,0.3,2.7-0.7C54.9,103.3,52.1,101.1,51.8,99.9z"/>
							<polygon points="53.6,101.5 54.3,102 53.4,101.3 							"/>
							<path d="M52.6,97.3c0,0,0.3,0.3,0.5,0.7c0.3,0.4,0.4,0.9,0.4,0.9c-0.2,0.1-0.7,0-1.1-0.1c0.5,0.1,1.1,1,1.5,1.1
								c0.5,0.1,0.9-0.2,1-0.4c0.1-0.2,0.1-0.5-0.1-0.8c-0.3-0.6-0.9-1.1-1.1-1.4c1.2-1.4,1.1,0.3,3-0.1c-0.1,0.5-0.6,0.4-0.9,1.1
								c1.3-0.4,1.4-1,1.2-1.6c-0.2-0.6-0.8-1.1-1.1-1.4c-0.2,0.2-0.8,0.1-0.7,0.5c0,0-0.1-0.2-0.3-0.3c-0.2-0.2-0.3-0.3-0.3-0.3
								C53,95.6,52.6,96,52.6,97.3z"/>
							<path d="M51.7,99.3c0.2-0.6,0.4-0.6,0.7-0.5C51.8,98.7,51.5,98.5,51.7,99.3z"/>
							<path d="M55.9,94.9c-0.1,0.1-0.1,0.2,0,0.3C56,95.2,56.1,95.1,55.9,94.9z"/>
							<path d="M53.5,95.3l0.3-0.7l-1,0.2C52.9,94.9,53,95.3,53.5,95.3z"/>
							<path d="M53.2,69.1c-0.8,0.3-1.1,0.6-0.8,1.1c-1.1,0.2-1-0.5-1.7-0.6c-0.5,0.9-1.2,0.3-2.2,0.8c0.1,0.7,1.6,0.7,1.5,1.5
								c-0.3,0-0.8,0.2-1.1,0.4c0.9,0.7,2.3,2.1,1.6,3.3c-0.2,1,0.4,1.5,1.1,2.4c0.1,3.3,1.7,6.6,0.9,10.2l2.1,0.4
								c-1,0.2,0.1,0.9-1.3,0.8c0.3-0.2,0-0.4,0-0.6c-1.8,0.9,0.3,2-0.4,3c0.4-0.1,2.2-0.3,2.5,0c-2.4-0.1,0,1.1-2.7,1.4
								c-0.7,0.9,2.1,0.1,1.6,1.1c1.4,0.2,0.7-0.9,1.8-1.1c1.1,0.4-0.5,0.9,1,0.9c0.4-0.9-0.2-2.1-0.9-3.3c-0.8-1.2-1.8-2.5-2.3-3.7
								l1.3,0.1c-1-1.2-1.3-3.1,0.7-4.3c-1.2,0.4,0.4-1.9-2.4-1.3c0.6-0.4,0.5-0.5,0.6-0.9l-0.9,0c-0.1-0.6,1.3-0.7,1.1-1.4
								c-1.1,0.7-1.6,0.2-2.6,0.2c1.2-1,2.2-2.2,3.1-3.1c-0.4,0.1-0.8,0.3-1.3,0.6c0.3-0.6-0.8-0.3-1.2-0.3
								c-0.2-0.4,1.4-0.7,2.2-0.9c0.3-1-2.7-0.7-1.9-1.6l-1.2,0.5c-0.5-0.8,0.7-1.8,0-2.7c1.5-0.9,1.6,0.4,2.5,0.7
								c0.3-0.3,0.3-0.7,0.8-1c-1-0.2-2.3-0.6-3.2-0.9C53.6,70.7,53.2,69.5,53.2,69.1z"/>
							<path d="M54.8,71.6c0.3,0.1,0.5,0.1,0.7,0.1c-0.1-0.1-0.3-0.1-0.2-0.3C55.1,71.5,54.9,71.6,54.8,71.6z"/>
							<path d="M53.2,69.1c0.1,0,0.1-0.1,0.2-0.1C53.2,69,53.2,69,53.2,69.1z"/>
							<path d="M50.3,75.7c0,0,0-0.1,0.1-0.1c0-0.1,0-0.1,0-0.2L50.3,75.7z"/>
							<path d="M56,75.3c-0.4,0.3-0.8,0.6-1.2,1C55.4,76.1,55.8,75.9,56,75.3z"/>
							<path d="M55.7,81.6c0.2,0.2,0.6,0,1,0.1C56.8,81.3,56.3,81.2,55.7,81.6z"/>
							<polygon points="54.8,70.5 54.2,69.8 53.8,69.6 							"/>
							<path d="M43.3,58.4c-1,1.2,0.2,1.6,0.3,2.5c1.3,1,3.1-1.2,3.8,0l-2.9,1c0.7,1.2,0.8,3.2,3.8,3.4c-0.3,0.2-0.7,0.6-1.2,0.4
								c0.4,0.8,4.3-1,3.7,0.6c-2.2-0.5-1.6,0.9-3.5,1.2L47,67.4c0.4,0.7,1.7,1.4,1.7,1.9c0.8-0.2,1.8-1,2.1-0.3
								c0.1-0.3,1-0.5,1.7-0.7c-1.1-0.5-0.7-1-1.8-1.1c0.8-0.7,0.4,0.2,1.2-0.5l-1.1-0.3c0.1-0.5,1.1,0.1,1.1-0.6
								c-0.6,0.1-1.4-0.2-1.4-0.8l0.4,0c-0.5-0.3-0.2-1-1.8-0.2l1.4-1l-1.1,0.5c0-1.2,2.5-2.6,0.6-3.5c-0.2,0.5-0.9,0.4-1.2,0.3
								c-0.5,0.9,1.1,0.4,1.5,0.9c-1,0.5-2.7,0.1-3.1,1c1-1.2-0.7-1.2,1.8-2.7c-0.2-0.9-1.7-0.7-1.4-1.8l0.4-0.2
								c-1.8,0.7,0.4-1.1-1.6-0.8l-0.2,0.6c-0.7,0.3-0.8,0.1-1.1-0.1c0.3-0.1,0.3-0.1,0.6-0.4c-1.3,0.5-2-0.2-2.4-0.2
								c0,0.5,1.2,0.4,1.8,0.7C44.3,58.3,43.3,58.9,43.3,58.4z"/>
							<path d="M51.7,65.1L50.9,65C51.1,65.1,51.3,65.1,51.7,65.1z"/>
							<path d="M43.3,53.6c-0.1-0.7,1.1-0.5,1.3-1.3c-1.1,0-1.3,1.7-2.8,2c0.5-0.8-1-0.4-1.2-0.6c0.8-0.3,2.2-1.4,2.5-1.8
								c-0.6,0.1-0.1-0.9-0.3-1.2c-0.3,1.5-1-0.2-1.5,1.2c-0.9,0.6-2.1,0.4-1.6-0.4c0.6-0.5,0.7-0.2,0.9,0c1.3-0.8,0.3-1,1.2-2
								c-1.1,0.3-2.1-0.1-3.1-0.2c-1-0.1-1.9,0.2-2.7,1.6c-0.3,0.6,0.5,0.2,0.8,0.3c-0.1-1.1,1.2-1.2,1.7-1.6
								c-0.1,0.6,1.1,0.4,0.1,1.1c0,0-0.3,0.1-0.7,0.2c-0.3,0.1-0.7,0.2-0.7,0.2c0.8,1.7,2.5,3.6,4,5.2l-0.4-0.8
								c0.8-0.4,1.1,0,1.7,0l1.6-1.6c0,0.3,0.4,0.4-0.2,0.8c1-0.2,1.4-0.6,1.9-1.2c0.8,0.5,0.1,1,1.6,0.9c0.9-2.1-1.8-0.2-1.3-2.4
								L43.3,53.6z"/>
							<polygon points="45.8,55.4 44.7,55.7 45.4,55.8 							"/>
							<path d="M41.4,57.4c0.4-0.3,0.7-0.2,1.1-0.5C42.5,56.3,41.9,56.7,41.4,57.4z"/>
							<path d="M41.3,49c0,0-0.2-0.1-0.4-0.2c-0.2-0.1-0.4-0.2-0.4-0.2s0,0.2,0,0.3c0,0.2,0,0.3,0,0.3C40.8,49,41.1,49,41.3,49z"/>
							<path d="M33.6,49.7c0.8,0.3,1.8-0.2,1.8,1.3c1.4-0.7,1.7-2.2,2.7-3c-0.2-0.7-1.8,1.2-2.5,1.2c0.6-1.1-0.8-0.3-1-0.8
								C34.4,48.9,34,49.4,33.6,49.7z"/>
							<path d="M33.1,43.9c-0.5-0.3-1.3,0.5-1.5-0.2c0.3-0.7,0.7-0.9,1-0.6c0.5-1.7-0.7,0-0.8-1.3c0,0.2,0.1,0.6-0.2,0.9
								c-1.3-0.8-1.1,1.1-2.7-0.3c-0.3,0.4-0.6,0.4-0.7,1.5c-0.4-0.8-0.4-1.2-0.6-1.5c-0.1-0.4-0.2-0.7-0.9-1.4
								c0,0.7,0.3,2.3,0.1,3.7c-0.7-1.1-1.1-1-1.5-0.9c-0.3,0.2-0.6,0.3-1.1-0.4c0.1-0.1,0.2-0.5,0.5-0.3c-0.2-2.1-0.9,0.4-1.5,0.1
								l-0.1-1.8c-0.6,0.3-1.3,1.6-2.3,0.5l0-0.9c-0.6,0.8-1.3,1.2-2,1.5c-0.7,0.3-1.4,0.6-1.8,1.1c0,0-0.3-0.2-0.5-0.4
								c-0.3-0.2-0.5-0.4-0.5-0.4c-0.5,1-0.1,0.9,0.5,1c0.6,0.1,1.2,0.4,1.1,1.8c-0.7-1.5-0.8-1.1-0.9-0.6c-0.1,0.6-0.1,1.4-0.8,1
								c-0.9-1,0.6-1-0.5-2.1c0.5,1.6-0.3,0.6-0.5,1.3c-0.6-1.4-1,0.3-1.6-1.4c0,0-0.1,0.9-0.1,1.7c0,0.8,0,1.7,0,1.7
								c-0.7-0.6-1-0.3-1.2,0.1c0.8-0.5,1,2.1,2.2,2.2c0.2-0.3,0.5-0.7,0.8-1.1c0.3-0.3,0.7-0.6,1.1-0.9c0.8-0.5,1.8-0.9,2.7-0.8
								c-0.6-2.1,1-0.3,0.8-2.1c0.2,0.6,0.5,1.2,0.8,1.8c0.9-0.8-0.6-1.1-0.5-1.9c0.4-0.4,1.1,0.7,1.3,1.5c0.8-0.1-0.1-0.6,0.1-1.8
								c0,0,0.3,0.5,0.5,1.1c0.2,0.6,0.5,1.1,0.5,1.1c1.1-0.6,2.4-1.3,3.9-1.6c1.5-0.3,3.1,0,4.2,1.1l0.3-1.5c0.5,0.6,1.3,0,2.1-0.2
								c0.7-0.2,1.4-0.1,1.2,1.5c0,0,0.3-0.2,0.5-0.4c0.3-0.2,0.5-0.4,0.5-0.4c-0.6,0.5-1,2-1.8,2.7c0.5-0.2,0.5,0.4,1.1,0.2
								l-0.1-0.9c1.1-0.8,1.1,0.2,0.6,1.1c0.8-0.3,1.1-0.9,1.2-1.6c0.1-0.7,0-1.4,0.3-2c-1.4,0.7-1.3,0-1.3-1c0.1-1,0.2-2.1-0.8-2
								C32.7,42.3,33.5,43.2,33.1,43.9z"/>
							<path d="M32.8,48.3c0.1-0.1,0.2-0.2,0.4-0.2C33,48.1,32.9,48.1,32.8,48.3z"/>
							<path d="M12.2,47.6c-0.1,0.1-0.2,0.1-0.3,0.3C12,48.2,12,47.9,12.2,47.6z"/>
							<path d="M34.6,48.5C34.6,48.5,34.6,48.5,34.6,48.5C34.6,48.5,34.6,48.5,34.6,48.5L34.6,48.5z"/>
							<polygon points="37.3,46 37,45.7 36.7,46.3 							"/>
							<path d="M7.7,48.6l0.5,0.6C8,49,7.9,48.8,7.7,48.6z"/>
							<path d="M0.9,59.3L1,59C0.9,59,0.9,59.1,0.9,59.3z"/>
							<path d="M11.9,84.2c0.8,0.3,1.8,0.7,3.1,0.3L14.3,85c0.5,0.1,2.3,0.2,2.8-1.3l-0.6,0.3c-1.4,0.1,0.6-1.3,0.6-2.1
								c-0.8-0.4-3.4,1.1-3.3,0c-0.3-0.2,0.4-0.6,0.9-0.9c-0.3-0.7-2.2,0.4-2.8,0.2c2.3-1.8,1.7-2,0.7-2.2c-0.9-0.1-2.1-0.3-0.9-1.8
								c-0.8-0.3-0.8-1.3-2.2-1.5c1.5-0.4-0.3-0.8,1.2-1.4c-1.5,0.7-1.5,0-1.6-0.6c0-0.7-0.2-1.2-2.1-0.4c0.6-1.6-0.3,0.1,0.1-1.6
								c0.4-0.2,0.5,0,0.7,0.1c0.6-0.8-2,0-0.4-1.2c-0.1-1.1-1.1,0.3-2.5,0.1c0.1-1.3,0.7-1.2,2.2-2.3c-2,0.5-1.3-0.4-2.4-0.6
								c-0.1,0.2-0.2,1-1.1,0.8c-0.1-1.4-1.6-0.7-2.4-2c2.1-1.1,0.3,1.3,1.9-0.2c1.2,0.6,1.2,1.2,2.9,1.2c-0.2-1-0.7-2.1-1.8-3.1
								c0.2-0.7,1.1,0.2,1.3-0.3c0.4-0.6-0.2-0.9-0.7-1.3c-0.6-0.4-1.2-0.8-0.6-1.2l1.2,0.2c-0.8-0.3-0.7-0.8-0.4-1.3
								c0.2-0.5,0.6-1,0.3-1.6c-0.6,0-1,0-1.4-0.3c1.4,0.4,1.2-0.1,0.8-0.7c-0.3-0.6-0.6-1.5,0.6-1.6c-0.9-0.3-1.4-0.9-1.7-1.5
								c-0.3-0.6-0.3-1.2-0.2-1.6c0.6,0,1.2,0.5,1.6,0.7c-1.6,0.5,1.2,2,1.7,3c-0.3-0.5-0.1-0.9,0.1-1.3c0.2-0.4,0.3-0.8-0.1-1.4
								c0,0,0.3,0.3,0.5,0.5c0.3,0.2,0.6,0.5,0.6,0.5C8,55,7.5,54.3,7,53.8c-0.4-0.6-0.7-1.1,0.2-1.1L8,53.5
								c0.6-0.8,1.6-1.3,2.5-1.8c0.4-0.3,0.8-0.6,1.1-1c0.3-0.4,0.4-0.9,0.4-1.6c-0.4-0.8-2.3-2.1-2.7-2.6c-0.5,1.3,0,2.9,0,4
								l-1.1-1.3c0.6,1,0.4,2.1,1.4,2.4c0.2,1-1.3-0.7-1.2,0.4c-1.2-1.3-1-1.7-2.1-2.8c0,0,0,0.3,0.1,0.6c0,0.3,0.1,0.5,0.1,0.5
								c-0.3-0.6-0.7-0.1-1.1-0.7c0.3,1.2-0.1,1.4-0.7,1.6c-0.6,0.2-1.3,0.3-1.3,1.1c0,0,0.7-0.5,0.7-0.5c0.8,0.6,0.4,0.9,0.5,1.3
								c-1.3-0.4-1.3-0.1-2.2,0.2c0.4,1,1.8,2,1.5,2.7c-1.6-0.9-1.4,0.8-2.9,0.5c0.8,0.4,0.9,0.8,0.8,1.2c0,0.4-0.1,0.8,0.4,0.9
								c0.3,0.5,0,1-1,0.9c0-0.1-0.2-0.2-0.3-0.4l-0.1,0.4c-0.2-0.1-0.4-0.1-0.4-0.1c-0.1,0.4,1.2,0.6,0.3,1
								c-0.5-0.1-0.5-0.3-0.6-0.6C-0.2,60.5,0.5,61,1,61.5c0.5,0.5,0.9,0.8,0,1.3c0.4,0.1,0.7,0.4,1.1,0.7C2.5,63.7,3,63.9,4,63.7
								C3.3,64,1.7,64,2.1,64.8c1.7,0.2-0.5,1,0.7,1.4c-1.9-0.5-0.5,0.1-2.2-0.4C0,66.6,2.3,67,2.3,68c-0.4,0.2-0.8,0.3-1.2,0.5
								c0.7,0.2,2.1,0.2,0.9,1L3,69.1c-0.4,0.8,0.3,1.5-0.7,2.6c0,0,0.6,0,1.2,0c0.6,0,1.2-0.1,1.2-0.1c-1.8,1.9,0.8,2.4,3,2.1
								c0.1,0.4,0,1-0.4,1.3c-0.2,0-0.6,0-0.9,0c0.2,0.5-0.6,1.8,1.2,1.1c0.8,0.2-0.9,1-0.9,1.5c1.4-0.2,1.5,0.8,1.6,1.6
								c0.2,0.8,0.4,1.4,2.2,0.4c-0.2-0.4-0.1-1.6-0.7-2.2c0.5-0.1,1.1-0.6,1.3-0.4c0.6,0.6-0.4,1.8,0.7,2.2l-2.1,1.4
								c-0.6,1.4,0.5,1.5,1.5,1.6C12.1,82.5,13,82.6,11.9,84.2z"/>
							<path d="M5.6,74.4l-0.8,1.2L5.7,75C5.5,74.9,5.4,74.7,5.6,74.4z"/>
							<path d="M5.7,75c0.2,0.1,0.4,0.1,0.6,0.1c0-0.1-0.2-0.2-0.4-0.2L5.7,75z"/>
							<path d="M13.9,85.9c0,0.2,0,0.5,0.4,0.6C14.4,86.2,14.3,85.8,13.9,85.9z"/>
							<polygon points="14.9,86 15,85.5 14.8,85.7 							"/>
							<path d="M29.6,97.7l1.8-0.5C31,98,32.5,98,31.3,98.8c1.7-1,1.5,1.2,2.8-1.1c-2.8-1.2-4.8-5.1-8.9-5.7l1.1-0.4
								c-2.8,0.3-0.1-3.3-4.1-1.4l1.7-1.4c-0.1-1-3.3,1-2.2-1.1l-0.6,0.7c-0.2-0.2,0.1-0.5-0.1-0.7L20.9,88c-1,0.2-1.2-0.2-1.2-1
								c0.5-0.5,0.4,0,0.7,0c0.3-0.7-1.1,0-1.4-0.4c0.2-0.7,0.7-0.7,1-0.8c-1.6-0.4-0.3-2.3-3.4-1c-0.5,0.3-0.6,1-1.1,0.8
								c-0.2,1.3,1.3,1.1,2.5,1.1l-0.2-0.2c2.8-1.6-0.2,0.8,1.5,0.7c-1.1,0.6-1.4,0.3-2.1,0.6c-0.9,2.5,2.5,0.1,0.8,2.7l-0.1,0
								c-0.1,0.3,0.6,0.2,1,0.2c0.2-0.3,0.2-0.7,0.3-1c0.4,0,1.5-0.8,2-1.2c-0.8,1.2,0.8-0.2,0.6,0.7c-0.8,1-1.1,0.5-1.7,0.8l1-0.2
								c0.4,0.3-0.6,1.4-0.9,2c1-0.3,0.3-0.7,1.5-1.4c-0.7,1.5,1.4,3,3.1,3c-0.4-0.2-1,0.9-1.3,0.4c-0.1,0.3,0.9,0.3,1.5-0.4
								c1.2,0,1.5,1.1,1.5,2.3l0.5-0.9c1.6-0.8,0.4,2,1.9,2.1l0,0c0.4,0.1,2.2-1.5,2.4-0.7C30.6,97.2,30.4,96.8,29.6,97.7z"/>
							<path d="M34.1,98.7L33,99.5c0.1,0.5,1.6-0.5,2.1-1.2c-0.4,0-0.3-0.6-0.8-0.1C34.2,98.3,33.9,98.7,34.1,98.7z"/>
							<path d="M40.2,103.3c0.3-0.2,0.6-0.6,0.9-0.9c-1.4-0.8-3.3-1.7-3.1-2.9c-0.2-0.7-1.5,0.9-2.4,0.8l0.6-1.3
								c-0.8,0.4-0.7-1.4-1.9,0.6c-0.1,0.2,0.9-0.6,0.9-0.1l-0.5,0.6l0.7,0.3l-0.8,0.6c-0.1,1.7,2.4-1.8,2.8-0.3l-1.2,1.5
								c0.6,0.6,1.3,0.3,1.1,1.7c0,0,0.6-0.8,0.3-0.5c0-0.2,0.3-0.9,0.7-1.3c1.9-0.4-0.9,0.8-0.7,2c1.7-0.4,3.9-0.1,3.4,1.5
								c0.3-1.2,1.7-1.8,2-1.4c-0.2,0.7-0.8,0.8-1.3,1.2c0.1,0.3,0,0.9,0.4,0.8c0.4-1.1,1.4-2.1,2.3-2.3
								C44.2,102.2,41.2,104.3,40.2,103.3z"/>
							<path d="M41.5,102.2c-0.2,0-0.3,0.1-0.5,0.2c0.2,0.1,0.3,0.2,0.5,0.3L41.5,102.2z"/>
						</g>
					</g>
				</g>
			</g>
		</g>
	</g>
	<g>
		<g>
			<g>
				<g>
					<g>
						<g>
							<polygon points="73.9,89.1 74.5,89.4 74.5,88.2 							"/>
							<path d="M77.5,92.7l0.9-0.7c-1.4-3.2-0.5-2.4-2.5-4.5c-0.4,0.7-1.3,2.1-0.9,3.4c0.4-0.2,0.7-1.6,1.3-1.4c0,1-0.7,1-0.7,2.4
								c1.2,0.8,0.4-1,1.6-0.7L77.5,92.7z"/>
							<path d="M77.9,89.1c0.1,0.6,0.1,1.2,0.3,1.7C78.1,90.1,78.3,89.3,77.9,89.1z"/>
							<path d="M78.4,88.6c0.6,0,0.3,1.2,0.4,1.4c0,0,0-0.6,0-1.2c0-0.6,0-1.2,0-1.2L78.4,88.6z"/>
							<path d="M80.9,87.9c0.1-0.1,0.1-0.2,0.2-0.3C80.9,87.3,80.9,87.6,80.9,87.9z"/>
							<path d="M82,87.2c-0.5-0.6-0.6-0.1-0.9,0.4c0,0,0,0.1,0.1,0.1c0.6,0.5,0.8,2.1,0.1,1.9c-0.5,0.6-0.9-1-1.1,0.2l1.1,1
								C82.1,90.3,81.9,88,82,87.2z"/>
							<path d="M80.9,87.9c-0.1,0.1-0.2,0.2-0.3,0.2C80.8,88.3,80.9,88.2,80.9,87.9z"/>
							<polygon points="79.6,88.1 79.4,88.6 79.6,89.2 							"/>
							<path d="M83.9,86.4c0.7,2.1-1.5,0.4-1,2c0.8-0.4,2,0.8,2.3,2l0.7-1C85.8,88.4,84.7,87.1,83.9,86.4z"/>
							<path d="M88,90.5c0-0.2,0-0.3,0.1-0.4C88,90.2,87.9,90.3,88,90.5z"/>
							<path d="M90.6,84.5c0,0-0.1,0.8-0.3,1.6c-0.1,0.4-0.2,0.8-0.3,1.1c-0.1,0.3-0.1,0.5-0.1,0.5c-0.2-0.7-0.6-1.2-0.3-1.7
								c-1,0.3-0.4,1.6-1.3,1.8c-0.6-0.8-0.3-1,0-1.2c0.3-0.2,0.6-0.3-0.1-1c-0.5,0.4-1.2,0.8-0.8,2.6c0,0-0.4-0.2-0.7-0.4
								c-0.4-0.2-0.7-0.4-0.7-0.4l1.3,1.9c0.7,0.4-0.1-1.9,0.8-0.7c0.6,0.8,0.3,1.1,0.1,1.5c0.4-0.7,2.5,0.7,3.6-0.4
								c0.3-0.2,0.4-0.6,0.4-1.1c0-0.4-0.2-0.9-0.4-1.4C91.1,86.2,90.6,85.2,90.6,84.5z"/>
							<polygon points="92.3,86.3 93,86.8 92.1,86 							"/>
							<path d="M92.2,82.3c0,0,0.1,0.5,0.1,1l0,0.2l0,0.1l0,0l0,0c-0.1,0.1,0,0-0.1,0.1l0,0l0,0l0,0l0,0l0,0.1c0,0.1,0,0.2,0,0.3
								c0,0.2,0,0.3,0,0.3c-0.2-0.1-0.6-0.4-0.9-0.6c0.4,0.3,0.7,1.2,1,1.5c0.4,0.3,0.7,0.3,0.8,0.3c0.1,0,0.1-0.1,0.1-0.2
								c0-0.1,0-0.1,0-0.2l0-0.1l0,0v0c-0.1,0.1,0.2-0.1,0.1-0.1l0,0l0,0l0,0l0,0l0-0.1c0.1-0.8-0.1-1.8-0.1-2.2
								c0.9-0.6,1.1-0.5,1.4-0.1c0.3,0.3,0.5,1,1.6,1c-0.2,0.3-0.4,0.4-0.6,0.5c-0.1,0.1-0.2,0.1-0.4,0.2c-0.1,0.1-0.4,0.3-0.6,0.5
								c0.4,0,0.7-0.1,1-0.2c0.2-0.1,0.4-0.2,0.6-0.3c0.3-0.3,0.5-0.7,0.5-1.1c0-0.7-0.4-1.5-0.5-2c-0.3,0.1-0.9-0.1-0.9,0.4l-0.3-1
								C93.4,80.4,92.9,80.7,92.2,82.3z"/>
							<path d="M90.7,83.9c0.2-0.4,0.4-0.4,0.6-0.2C90.9,83.3,90.5,83.1,90.7,83.9z"/>
							<path d="M96.5,80.5c-0.1,0-0.1,0.2-0.1,0.4C96.5,80.8,96.6,80.7,96.5,80.5z"/>
							<path d="M94,80.3c0,0,0.1-0.2,0.3-0.4c0.1-0.2,0.2-0.4,0.2-0.4l-1,0C93.6,79.6,93.6,80.1,94,80.3z"/>
							<path d="M101.8,49.9c-0.8,0.1-1.2,0.4-1.1,1c-1.1-0.1-0.9-0.9-1.5-1.3c-0.7,0.8-1.3,0-2.3,0.2c-0.1,0.9,1.3,1.3,1,2.3
								c-0.3-0.1-0.8,0-1.2,0.1c0.7,1.2,1.6,3.2,0.6,4.3c-0.5,1.1,0,1.9,0.4,3.2c-0.9,3.9-0.4,8.2-2.3,12.2l1.9,1.1
								c-1.1,0-0.2,1-1.5,0.6c0.3-0.2,0.2-0.4,0.2-0.7c-1,0.2-1.1,0.8-1.1,1.5c0,0.7,0.2,1.4-0.3,1.8c0.4,0,2.2,0.3,2.4,0.7
								c-2.2-0.8-0.4,1.3-3,0.8c-1,0.8,1.9,0.7,1.2,1.7c1.3,0.6,1.1-0.9,2.1-0.8c1,0.7-0.8,0.9,0.6,1.4c0.7-0.9,0.6-2.5,0.3-4.1
								c-0.3-1.7-0.8-3.4-0.9-4.9l1.2,0.6c-0.6-1.6-0.3-3.9,2-4.8c-1.3,0.1,1-2.1-1.9-2.2c0.7-0.3,0.6-0.4,0.9-0.9l-0.9-0.3
								c0.1-0.7,1.5-0.5,1.5-1.3c-1.3,0.4-1.6-0.2-2.5-0.6c1.5-0.8,2.7-1.9,3.9-2.7c-0.4,0-0.8,0.1-1.4,0.3c0.5-0.6-0.7-0.5-1.1-0.7
								c0-0.6,1.5-0.4,2.3-0.3c0.5-1-2.4-1.7-1.4-2.4l-1.3,0.2c-0.2-1.1,1.1-1.9,0.8-3.1c1.7-0.5,1.5,1,2.2,1.5
								c0.4-0.2,0.5-0.8,1-0.9c-0.9-0.6-2-1.4-2.9-2.1C101.8,51.8,101.7,50.3,101.8,49.9z"/>
							<path d="M102.7,53.3c0.3,0.2,0.5,0.3,0.7,0.4c-0.1-0.1-0.2-0.2-0.1-0.4C103,53.2,102.8,53.2,102.7,53.3z"/>
							<path d="M101.8,49.9c0.1,0,0.1,0,0.2,0C101.9,49.7,101.9,49.7,101.8,49.9z"/>
							<path d="M97.3,56.6c0,0,0.1-0.1,0.1-0.1c0-0.1,0-0.1,0.1-0.2L97.3,56.6z"/>
							<path d="M102.9,57.8c-0.4,0.2-0.9,0.5-1.4,0.8C102.1,58.6,102.5,58.6,102.9,57.8z"/>
							<path d="M100.7,65.1c0.2,0.3,0.6,0.2,1,0.4C101.8,65.1,101.4,64.9,100.7,65.1z"/>
							<path d="M103,51.9c0,0-0.1-0.2-0.2-0.5c-0.1-0.2-0.2-0.5-0.2-0.5l-0.3-0.3L103,51.9z"/>
							<path d="M95,34.1c-1.3,1-0.2,2-0.3,3c1,1.6,3.3-0.3,3.7,1.4l-3.1,0.1c0.2,0.8,0.2,1.8,0.5,2.8c0.3,0.9,0.9,1.8,2.3,2.5
								c-0.4,0.2-0.8,0.5-1.3,0.1c0.2,1.1,4.4,0.3,3.5,1.9c-2-1.3-1.8,0.6-3.7,0.3l-0.2-0.2c0.2,0.9,1.3,2.1,1.2,2.8
								c0.8,0,2-0.6,2.1,0.3c0.2-0.3,1-0.2,1.8-0.2c-0.9-0.9-0.4-1.4-1.4-1.9c1-0.5,0.3,0.3,1.3-0.2l-1-0.7c0.2-0.5,1.1,0.5,1.2-0.3
								c-0.6-0.1-1.3-0.7-1.2-1.4l0.4,0.2c-0.4-0.5,0-1.2-1.7-0.8l1.6-0.7L99.6,43c0.4-1.4,3.1-2.2,1.4-3.8c-0.3,0.5-1,0.2-1.2,0
								c-0.7,0.8,1,0.8,1.2,1.5c-1.1,0.2-2.7-0.8-3.3,0.1c1.3-1.1-0.4-1.7,2.4-2.4c0-1.1-1.5-1.3-1-2.6l0.4,0
								c-1.9,0.1,0.7-1.1-1.4-1.5l-0.3,0.7c-0.8,0.1-0.9-0.2-1.1-0.5c0.3,0,0.3,0,0.6-0.2c-1.4,0.1-1.9-1-2.3-1.1
								c-0.1,0.6,1.1,0.9,1.6,1.5C96,34.4,94.8,34.7,95,34.1z"/>
							<path d="M101.4,44.7l-0.7-0.3C100.9,44.5,101.1,44.6,101.4,44.7z"/>
							<path d="M96.2,28.8c0.1-0.8,1.2-0.1,1.6-1c-1.1-0.4-1.7,1.4-3.2,1.1c0.7-0.7-0.9-0.9-1-1.1c0.9,0,2.6-0.7,2.9-0.9
								c-0.6-0.1,0.1-1,0-1.5c-0.7,1.5-1-0.7-1.8,0.7c-1,0.3-2.1-0.4-1.5-1.1c0.7-0.3,0.7,0.1,0.9,0.4c1.5-0.3,0.5-0.9,1.7-1.6
								c-1.2-0.1-2-1-3-1.5c-1-0.5-1.9-0.7-3.2,0.4c-0.4,0.6,0.4,0.5,0.7,0.8c0.1-1.2,1.6-0.7,2.2-0.9c-0.3,0.6,1,1-0.2,1.3
								l-1.4-0.2c0.3,2.4,1.6,5.1,2.7,7.6l-0.2-1.1c0.9-0.1,1.1,0.4,1.6,0.7l2-1.1c-0.1,0.4,0.3,0.6-0.4,0.8c1,0.2,1.5-0.1,2.2-0.6
								c0.6,0.8-0.2,1.2,1.4,1.5c1.4-2-1.8-0.9-0.7-3.1L96.2,28.8z"/>
							<polygon points="98.2,31.7 97,31.6 97.7,32.1 							"/>
							<path d="M93.3,32.3c0.5-0.1,0.7,0,1.2-0.1C94.7,31.5,94,31.7,93.3,32.3z"/>
							<path d="M95.3,22.9l-0.7-0.7l-0.2,0.7C94.9,22.7,95.2,22.8,95.3,22.9z"/>
							<path d="M87.5,19.9c0.4,0.4,0.9,0.6,1.2,0.9c0.3,0.3,0.5,0.7,0.3,1.6c1.6,0,2.3-1.5,3.6-1.8c0-0.8-2.2,0.4-2.9,0
								c1-0.8-0.8-0.7-0.8-1.4C88.4,19.5,87.9,19.8,87.5,19.9z"/>
							<path d="M89.1,13.8c-0.3-0.5-1.5-0.3-1.3-1.1c0.6-0.5,1.1-0.4,1.2,0c1.2-1.3-0.6-0.3-0.2-1.6c-0.1,0.2-0.2,0.5-0.6,0.7
								c-0.8-1.5-1.6,0.3-2.4-1.9c-0.6,0.1-0.8-0.1-1.5,0.8c0.1-0.9,0.2-1.3,0.3-1.7c0.1-0.4,0.2-0.8,0-1.7c-0.4,0.6-1,2.1-2,3.2
								c-0.1-1.4-0.5-1.6-0.9-1.8c-0.4-0.1-0.8-0.2-0.8-1.2c0.2,0,0.5-0.2,0.7,0.2c0.5-0.9,0.3-1-0.2-0.9c-0.5,0.1-1.1,0.3-1.3-0.1
								l1-1.4c-0.8-0.1-2.2,0.3-2.4-1.2l0.6-0.7C77,3.8,75.4,2.4,74,2.6l-0.3-1.3C71.4,2,75.2,2.5,73,4.6c0.9-3.1-1.2,0.7-1.9-0.8
								c-0.1-0.7,0.2-0.8,0.5-0.9l0.1,0l0.1,0l0,0l0,0c0.1,0,0,0,0.1,0l0,0l0,0l0,0l0,0l0,0c0.1,0,0.1-0.1,0.2-0.2
								c0.1-0.1,0.2-0.4,0.2-0.8c-0.1,0.2-0.2,0.3-0.3,0.4l0,0l0,0l0,0l-0.1,0l0,0l0,0l0,0l0,0l0,0.1c0,0-0.1,0.1-0.1,0.1
								c-0.1,0.1-0.2,0.1-0.3,0.1c-0.2-0.1-0.4-0.3-0.7-0.1c0.5-1.5-1.2-0.5-0.5-2.1c0,0-0.7,0.6-1.4,1.2c-0.3,0.3-0.6,0.6-0.9,0.9
								c-0.2,0.3-0.4,0.4-0.4,0.4c-0.3-0.9-0.9-0.8-1.4-0.6c0.6,0,0.5,0.6,0.4,1.3c-0.1,0.7-0.1,1.4,0.4,1.8C68,5,69.1,4.8,70.3,5
								c0.3,0,0.6,0.1,0.9,0.2l0.1,0c-0.1,0,0,0,0,0l0.1,0l0.2,0.1l0.4,0.2C72.5,5.7,73,6,73.5,6.4c0.5-1,0.8-0.9,1.1-0.7
								c0.3,0.2,0.6,0.5,1.1-0.3c-0.2,0.7-0.3,1.3-0.5,1.9c1.4,0.1,0.2-1.2,0.8-1.8c0.7,0,0.6,1.4,0.2,2.1c0.8,0.5,0.3-0.5,1.3-1.3
								c0,0-0.1,0.6-0.3,1.2c-0.1,0.6-0.3,1.2-0.3,1.2c0.7,0.2,1.5,0.4,2.3,0.7c0.8,0.2,1.6,0.7,2.5,1.1c0.8,0.4,1.5,1,2.2,1.7
								c0.3,0.3,0.6,0.7,0.9,1.1c0.2,0.4,0.4,0.8,0.6,1.2l0.9-1.2c0.2,0.9,1.3,0.8,2.1,1.1c0.8,0.2,1.4,0.7,0.5,2.1l1.3-0.3
								c-0.8,0.2-1.7,1.4-2.8,1.7c0.7,0.1,0.4,0.8,1,0.9l0.2-1.1c1.3-0.2,1,0.8,0.2,1.5c1.9,0.3,1.8-1.9,2.7-2.8
								c-1.6-0.1-1.3-0.7-0.9-1.6c0.5-0.9,1-1.9,0-2.3C89.4,12.1,89.7,13.4,89.1,13.8z"/>
							<path d="M87,17.8c0.2,0,0.3,0,0.5,0C87.3,17.8,87.2,17.8,87,17.8z"/>
							<path d="M66.4,2.3c-0.1,0-0.3,0-0.5,0.1C65.8,2.7,66,2.5,66.4,2.3z"/>
							<path d="M88.8,19.2C88.8,19.2,88.8,19.2,88.8,19.2C88.8,19.2,88.8,19.2,88.8,19.2C88.8,19.2,88.8,19.2,88.8,19.2z"/>
							<polygon points="92.4,18.1 92.2,17.6 91.6,18 							"/>
							<path d="M60.5,1.8l0.4,0.7C60.8,2.3,60.7,2,60.5,1.8z"/>
							<path d="M52.9,15.1l0.1-0.3C52.9,14.9,52.9,15,52.9,15.1z"/>
							<path d="M58.2,46.5c0.7,0.7,1.4,1.7,2.8,2l-0.8,0.1c0.5,0.3,2.1,1.4,3.2,0.2l-0.7,0c-1.4-0.7,1.1-1.1,1.3-2
								c-0.6-0.9-3.6-0.7-3.1-1.8c-0.2-0.4,0.6-0.5,1.2-0.5c0-0.9-2.3-0.7-2.7-1.3c5.7-1.5-2.2-2.3,1.2-4.4C60,38.1,60.3,37,59,36.1
								c1.5,0.3-0.1-1,1.6-1.1c-3.4,0.3,1-3.2-3.3-2.7c1-1.6-0.3,0,0.5-1.8c0.5-0.1,0.5,0.2,0.6,0.3c0.8-0.8-2-0.8-0.1-1.5
								c0.2-1.3-1.2-0.1-2.4-0.7c0.4-1.5,1-1.1,2.7-2.1c-2.1,0.1-1.1-0.8-2.3-1.4c-0.1,0.2-0.4,1.2-1.2,0.6c0.2-1.7-1.4-1.2-2.1-2.8
								c2.2-0.9,0.2,1.6,1.9,0.1c1.1,0.9,1,1.6,2.7,2c0-1.3-0.4-2.8-1.4-4.2c0.3-0.8,1.1,0.4,1.3-0.2c1-1.3-2.3-2.1-1.3-3.2l1.2,0.3
								c-0.8-0.4-0.6-1-0.4-1.6c0.3-0.7,0.6-1.4,0.3-2c-0.6,0.1-1,0.1-1.4-0.1c1.5,0.2,1.1-0.2,0.8-0.9c-0.3-0.7-0.8-1.7,0.4-2
								c-0.9-0.2-1.5-0.7-1.9-1.3c-0.3-0.6-0.4-1.3-0.3-1.7c0.6-0.1,1.3,0.3,1.7,0.5c-1.5,0.9,1.4,2,2,3.1c-0.4-0.5-0.2-1,0-1.5
								c0.1-0.5,0.3-1-0.2-1.6c0,0,0.3,0.2,0.6,0.5c0.3,0.2,0.6,0.4,0.6,0.4c0.3-0.4-0.3-1-0.7-1.6c-0.4-0.6-0.8-1.2,0.2-1.2
								l0.8,0.7c0.6-1,1.8-1.5,2.9-1.8c1-0.3,1.9-0.7,2.7-2c0-0.5-0.2-1.2-0.6-1.8C64.3,1,63.9,0.3,63.8,0c-1.5,1.1-1.7,2.9-2.1,4
								l-0.8-1.5c0.2,0.6,0.1,1.2,0.1,1.6c0,0.5,0.2,0.9,0.7,1.1c0,0.6-0.3,0.3-0.7,0.1c-0.3-0.2-0.7-0.4-0.7,0.3
								c-1.2-1.3-0.8-1.9-1.7-3c0,0-0.1,0.3-0.1,0.6c0,0.3,0,0.7,0,0.7c-0.3-0.7-0.8,0-1.1-0.7c0,0.7,0,1.1-0.2,1.4
								c-0.2,0.3-0.5,0.5-0.8,0.6C55.6,5.6,54.8,6,54.9,7c0,0,0.7-0.7,0.7-0.7c0.8,0.5,0.5,0.9,0.6,1.4c-1.4-0.2-1.4,0.2-2.3,0.8
								c0.4,1,2,1.9,1.7,2.7c-1.8-0.7-1.3,1.2-2.9,1.1c1.8,0.5,0.3,1.9,1.4,2.2c0.3,0.5,0,1.1-0.9,1c0-0.1-0.2-0.2-0.3-0.4l-0.1,0.5
								c-0.2-0.1-0.4-0.1-0.4-0.1c-0.1,0.4,1.3,0.5,0.3,1c-0.5,0-0.5-0.3-0.6-0.6c-0.2,0.6,0.5,1.1,1,1.6c0.5,0.5,0.9,0.9,0,1.4
								c0.9,0.2,0.9,1.5,2.9,1.2c-0.7,0.3-2.3,0.2-2,1.1c1.7,0.5-0.6,1.1,0.5,1.7c-1.8-0.9-0.5,0-2.2-0.7c-0.7,0.7,1.6,1.5,1.4,2.6
								c-0.4,0.1-0.9,0.2-1.3,0.3c0.6,0.4,2,0.7,0.7,1.2l1.2-0.2c-0.5,0.8,0,1.8-1.2,2.7l2.3,0.6c-2.2,1.5,0.2,2.9,2.3,3.5
								c0,0.5-0.3,1.2-0.8,1.3c-0.2-0.1-0.6-0.2-0.9-0.3c0,0.7-1.1,1.7,0.8,1.7c0.7,0.6-1.2,0.7-1.4,1.3c2.8,0.8-1.1,4.4,2.9,4
								c-0.1-0.5,0.5-1.7,0.1-2.8c0.5,0.2,1.3-0.2,1.4,0.2c0.4,1-1,1.8-0.1,2.7l-2.5,0.4C55.2,44,61.4,44.3,58.2,46.5z"/>
							<path d="M55.5,33l-1.1,1l1.1-0.3C55.2,33.5,55.2,33.3,55.5,33z"/>
							<path d="M55.5,33.7c0.1,0.1,0.4,0.3,0.6,0.4c0-0.2-0.1-0.3-0.3-0.4L55.5,33.7z"/>
							<path d="M59.4,49.4c-0.1,0.2-0.2,0.6,0.2,0.8C59.8,50,59.8,49.5,59.4,49.4z"/>
							<polygon points="60.4,50.1 60.7,49.6 60.4,49.6 							"/>
							<path d="M69,71.1l1.9,0.7c-0.7,0.5,0.7,1.5-0.8,1.5c2,0.1,0.8,2.2,3.1,0.8c-2.1-3.1-2.1-8.3-5.6-11.6l1.2,0.3
								c-2.7-1.5,1.3-3.5-3.2-4l2.1-0.4c0.3-1.1-3.5-0.9-1.6-2.6l-0.8,0.3c-0.1-0.3,0.3-0.5,0.2-0.7l-0.3,0.2
								c-1-0.5-1.1-0.9-0.7-1.8c0.6-0.2,0.4,0.2,0.6,0.4c0.6-0.5-1-0.7-1.1-1.2c0.5-0.6,1-0.3,1.2-0.3c-1.4-1.4,0.6-2.7-2.8-3
								c-0.6,0-0.9,0.7-1.4,0.2c-0.7,1.3,0.8,1.9,1.9,2.6l-0.1-0.3c3.2-0.1-0.5,0.8,1.1,1.7c-1.3,0-1.4-0.5-2.2-0.6
								c-1.9,2.1,2.3,1.6-0.3,3.3l-0.1-0.1c-0.2,0.3,0.4,0.5,0.8,0.8c0.4-0.2,0.5-0.6,0.7-0.9c0.4,0.2,1.7,0,2.3,0
								c-1.2,0.7,0.8,0.3,0.3,1.1c-1.2,0.6-1.3-0.2-2-0.2l1,0.5c0.3,0.6-1.1,1-1.7,1.5c1.1,0.3,0.6-0.5,2-0.5c-1.3,1.1,0,4,1.6,5
								c-0.3-0.4-1.4,0.2-1.3-0.4c-0.2,0.3,0.7,0.8,1.6,0.6c1.1,0.7,0.9,2.1,0.4,3.3l0.8-0.6c1.8,0.2-0.5,2.3,0.8,3.3l0,0
								c0.3,0.4,2.7,0,2.5,0.9C70.1,71.1,70.1,70.7,69,71.1z"/>
							<path d="M72.7,75l-1.4,0c-0.1,0.6,1.7,0.6,2.5,0.2c-0.4-0.2,0-0.8-0.7-0.6C72.9,74.7,72.5,74.8,72.7,75z"/>
							<path d="M76.1,83.6c0.4,0.1,0.8-0.2,1.2-0.2c-0.9-1.8-2.2-3.9-1.5-5c0.2-0.8-1.8-0.2-2.5-0.8l1.2-0.8c-1-0.1,0-1.9-2-0.7
								c-0.2,0.1,1.1,0,0.9,0.5l-0.8,0.2l0.6,0.7l-1,0.1c-0.9,1.6,3-0.2,2.7,1.5L73,79.8c0.2,1,1,1.2,0.2,2.5c0,0,0.9-0.3,0.5-0.4
								c0-0.2,0.7-0.7,1.3-0.8c2,0.9-1.2,0.2-1.6,1.4c1.7,0.7,3.6,2.6,2.4,3.8c0.9-1,2.4-0.6,2.5,0.1c-0.5,0.6-1.2,0.2-1.8,0.3
								c-0.1,0.4-0.4,0.8,0,1c0.8-0.8,2.3-1.1,3.2-0.6C80.3,85.3,76.5,85.3,76.1,83.6z"/>
							<path d="M77.8,83.5c-0.1-0.1-0.3-0.2-0.5-0.1c0.1,0.2,0.2,0.4,0.3,0.6L77.8,83.5z"/>
						</g>
					</g>
				</g>
			</g>
		</g>
	</g>
	<g>
		<g>
			<g>
				<g>
					<g>
						<g>
							<path d="M119.8,88c0,0,0,0.7,0,0.7l1.1-0.6c0,0-0.3,0-0.5-0.1C120,88.1,119.8,88,119.8,88z"/>
							<path d="M118.2,93c0,0,0.3,0.1,0.6,0.3c0.3,0.1,0.6,0.2,0.6,0.2c1-1.5,1.5-1.9,1.8-2.3c0.3-0.4,0.4-0.8,0.9-2.2
								c-0.7,0-2.4-0.2-3.4,0.7c0.4,0.3,1.8-0.1,1.8,0.6c-0.9,0.5-1.2-0.1-2.5,0.4c-0.2,1.5,1.1,0,1.5,1.1L118.2,93z"/>
							<path d="M121.6,91.5c-0.5,0.4-1,0.7-1.3,1.1C120.8,92.3,121.6,92.1,121.6,91.5z"/>
							<path d="M122.2,91.7c0.4,0.5-0.8,1-0.9,1.1c0,0,0.5-0.3,1-0.6c0.5-0.3,1-0.7,1-0.7s-0.3,0-0.5,0.1
								C122.5,91.6,122.2,91.7,122.2,91.7z"/>
							<path d="M124.3,93.3c0.1,0,0.2,0,0.4-0.1C124.7,92.9,124.5,93.1,124.3,93.3z"/>
							<path d="M125.5,93.6c0.1-0.8-0.4-0.5-0.9-0.4c0,0,0,0.1,0,0.1c0,0.7-1,2-1.4,1.3c-0.8-0.1,0.1-1.3-0.9-0.8c0,0,0,0.4,0,0.8
								c0,0.4,0,0.8,0,0.8c0.5,0.2,1.3-0.1,1.9-0.6C124.7,94.4,125.2,93.8,125.5,93.6z"/>
							<path d="M124.3,93.3c-0.1,0-0.2,0-0.3-0.1C123.9,93.5,124.1,93.4,124.3,93.3z"/>
							<polygon points="123.3,92.4 122.8,92.5 122.5,93.1 							"/>
							<path d="M127.5,94c-0.2,1.1-0.6,0.9-1,0.7c-0.4-0.2-0.7-0.5-1,0.2c0.5,0.1,0.7,0.6,0.9,1.2c0.2,0.6,0.2,1.3,0,1.9
								c0,0,0.4-0.1,0.7-0.2c0.2,0,0.3-0.1,0.5-0.2c0.1-0.1,0.2-0.1,0.2-0.1C128.3,96.7,127.8,95.1,127.5,94z"/>
							<path d="M129.7,99.6c0.1-0.2,0.2-0.3,0.3-0.4C129.8,99.3,129.7,99.4,129.7,99.6z"/>
							<path d="M134.4,94c0,0,0,0.1,0,0.1c0,0,0,0.1,0,0.2c0,0,0,0.1,0,0.1l0,0c0,0-0.2,0.1-0.1,0.1l0,0l0,0l0,0l0,0l0,0l0,0.1
								c-0.1,0.3-0.2,0.6-0.3,1s-0.2,0.7-0.3,1c0,0.1-0.1,0.3-0.2,0.3c-0.1,0.1-0.1,0.1-0.1,0.1c0-0.7-0.4-1.3-0.1-1.8
								c-0.4,0.1-0.7,0.5-0.9,0.8c-0.2,0.4-0.5,0.8-1,0.8c-0.4-0.9,0-1.1,0.4-1.2c0.4-0.1,0.7-0.2,0.1-1c-0.3,0.1-0.7,0.3-1,0.6
								c-0.3,0.3-0.6,0.8-0.8,1.7c0,0-0.3-0.3-0.6-0.6c-0.1-0.1-0.3-0.3-0.4-0.5c-0.1-0.1-0.2-0.2-0.2-0.2s0.1,0.6,0.2,1.1
								c0.1,0.6,0.3,1.1,0.3,1.1c0.3,0.3,0.5-0.2,0.7-0.5c0.2-0.4,0.3-0.6,0.6,0.2c0.3,0.9-0.2,1.2-0.6,1.5c0.4-0.3,1,0.1,2,0.3
								c0.5,0.1,1,0.2,1.6,0.1c0.3,0,0.6-0.1,0.8-0.1c0.1,0,0.3-0.1,0.4-0.1c0.1,0,0.1-0.1,0.2-0.1c0.5-0.4,0.3-1.3,0-2.3
								c-0.2-0.5-0.3-1-0.5-1.5l-0.1-0.3l0-0.2l0-0.1l0,0l0,0l0,0l0,0c0,0,0.3-0.1,0.1-0.1l0,0l0,0C134.4,94.4,134.4,94.2,134.4,94z
								"/>
							<polygon points="135.9,96 136.6,96.6 135.8,95.7 							"/>
							<path d="M136.2,92c0,0,0,0.5,0,0.9c0,0.5,0,0.9,0,0.9c-0.2-0.1-0.6-0.4-0.9-0.6c0.4,0.4,0.6,1.3,0.9,1.6
								c0.9,0.6,1.1,0.2,1.1-0.4c0-0.6-0.2-1.4-0.1-1.8c1.8-0.5,0.7,0.8,2.5,1.8c-0.4,0.3-0.8,0-1.3,0.3c2.4,0.9,1.9-1.6,2-2.4
								c-0.3,0-0.8-0.4-0.9,0l0-1C137.8,90.7,137.2,90.8,136.2,92z"/>
							<path d="M134.6,93.4c0.3-0.4,0.5-0.4,0.7-0.2C134.8,92.9,134.5,92.7,134.6,93.4z"/>
							<path d="M140.6,92c-0.1,0-0.2,0.1-0.2,0.3C140.5,92.3,140.6,92.2,140.6,92z"/>
							<path d="M138.4,90.8l0.7-0.4l-0.9-0.4C138.2,90.1,138,90.5,138.4,90.8z"/>
							<path d="M159.3,68c-0.7-0.4-1.2-0.3-1.4,0.3c-0.9-0.6-0.3-1.2-0.7-1.8c-1,0.3-1.1-0.7-2.1-1c-0.6,0.7,0.5,1.8-0.3,2.5
								c-0.2-0.2-0.7-0.4-1-0.5c0,1.3-0.2,3.6-1.6,4c-0.9,0.7-1,1.6-1.2,2.9c-2.7,2.9-4.3,6.9-7.8,9.5l1.2,1.8
								c-0.9-0.5-0.7,0.8-1.6-0.2c0.4,0,0.3-0.3,0.5-0.5c-2-0.5-1.4,1.9-2.7,2.3c0.4,0.2,1.9,1.2,1.9,1.7c-1.7-1.6-0.9,1-3.1-0.6
								c-1.2,0.3,1.5,1.4,0.4,2c0.9,1,1.3-0.4,2.2,0.2c0.6,1-1.1,0.5,0,1.4c1.9-1,2-5.5,3.1-8.2l0.8,1.1c0.2-1.7,1.6-3.6,4-3.2
								c-1.2-0.5,1.8-1.3-0.6-2.8c0.7,0.1,0.7-0.1,1.2-0.3l-0.6-0.6c0.4-0.6,1.5,0.3,1.9-0.4c-1.3-0.3-1.2-1-1.9-1.7
								c1.7,0,3.3-0.3,4.7-0.4c-0.4-0.2-0.8-0.3-1.4-0.4c0.7-0.2-0.3-0.8-0.6-1.2c0.3-0.5,1.5,0.4,2.2,0.9c1-0.6-1.3-2.6,0-2.7
								l-1.2-0.4c0.3-1.1,2-1.1,2.2-2.3c1.8,0.4,0.8,1.6,1.1,2.4c0.4,0,0.8-0.4,1.4-0.2c-0.5-0.9-1-2.3-1.4-3.2
								C158.3,69.7,159,68.3,159.3,68z"/>
							<path d="M158.3,71.4c0.1,0.3,0.3,0.5,0.4,0.7c0-0.2-0.1-0.3,0.1-0.4C158.6,71.5,158.4,71.4,158.3,71.4z"/>
							<path d="M159.3,68c0.1,0,0.1,0,0.2,0.1C159.4,68,159.4,68,159.3,68z"/>
							<path d="M152,71.5c0.1,0,0.1,0,0.2-0.1c0.1,0,0.1-0.1,0.2-0.1L152,71.5z"/>
							<path d="M156.2,75.4c-0.5,0-1,0-1.6,0C155.1,75.6,155.5,75.8,156.2,75.4z"/>
							<path d="M150.9,80.5c0,0.3,0.4,0.4,0.7,0.8C151.8,81,151.6,80.6,150.9,80.5z"/>
							<polygon points="159.3,70.4 159.4,69.4 159.3,68.9 							"/>
							<path d="M161.7,51.2c-1.7,0.2-1.2,1.5-1.9,2.3c0,1.9,2.9,1.5,2.4,3.1l-2.7-1.5c-0.5,1.6-2.1,3.4-0.4,5.9
								c-0.4-0.1-0.9,0-1.1-0.6c-0.4,1,3.6,2.6,2,3.4c-1-2.2-1.8-0.5-3.3-1.7l-0.1-0.3c-0.3,0.9,0,2.5-0.4,3c0.7,0.4,2,0.5,1.7,1.3
								c0.3-0.2,1,0.3,1.7,0.8c-0.3-1.2,0.4-1.4-0.3-2.3c1.1,0.1,0.1,0.5,1.3,0.5l-0.5-1.1c0.5-0.3,0.7,1,1.2,0.4
								c-0.5-0.4-0.7-1.3-0.3-1.8l0.2,0.3c-0.1-0.6,0.6-1-1-1.6l1.8,0.3l-1.1-0.4c1-1,3.7-0.2,3.2-2.4c-0.5,0.2-0.9-0.4-1-0.7
								c-1,0.3,0.4,1.2,0.3,1.9c-1.1-0.4-1.8-2.1-2.8-1.6c1.6-0.2,0.6-1.6,3.4-0.7c0.6-0.9-0.5-1.9,0.6-2.6l0.4,0.2
								c-1.7-0.9,1.2-0.5-0.4-2l-0.6,0.4c-0.7-0.3-0.6-0.6-0.6-1c0.3,0.2,0.3,0.2,0.7,0.2c-1.2-0.6-1-1.8-1.3-2.1
								c-0.4,0.4,0.4,1.4,0.5,2.1C162.4,51.9,161.3,51.6,161.7,51.2z"/>
							<path d="M161.6,63.5l-0.4-0.6C161.2,63,161.3,63.2,161.6,63.5z"/>
							<path d="M165.6,47.4c0.5-0.6,1.1,0.5,1.9,0.1c-0.7-1-2.1,0.2-3.3-0.9c0.9-0.2-0.3-1.2-0.2-1.5c0.7,0.5,2.5,0.8,2.9,0.8
								c-0.4-0.4,0.6-0.8,0.8-1.2c-1.4,0.8-0.4-1.1-1.9-0.4c-1-0.3-1.6-1.5-0.7-1.7c0.8,0.2,0.5,0.5,0.5,0.8
								c1.4,0.6,0.9-0.5,2.3-0.4c-0.9-0.8-1.1-2-1.6-2.9c-0.5-1-1.2-1.6-2.9-1.4c-0.7,0.2,0.1,0.6,0.2,1c0.8-0.9,1.7,0.3,2.3,0.5
								c-0.6,0.4,0.3,1.3-0.9,0.9l-1.1-0.9c-1,2.1-1.5,5.1-1.9,7.8c0,0,0.1-0.3,0.2-0.5c0.1-0.3,0.2-0.5,0.2-0.5
								c0.8,0.4,0.7,0.9,1,1.5l2.3,0.1c-0.3,0.3-0.1,0.7-0.8,0.4c0.7,0.7,1.3,0.7,2.1,0.7c0.1,1-0.8,0.9,0.3,2
								c2.2-0.9-1-1.7,1.1-2.9L165.6,47.4z"/>
							<polygon points="165.7,50.9 164.7,50.2 165.1,50.9 							"/>
							<path d="M161.3,48.8c0.5,0.1,0.6,0.4,1.1,0.6C162.9,48.8,162.2,48.7,161.3,48.8z"/>
							<path d="M168.1,42.1l-0.2-1l-0.5,0.5C167.9,41.7,168.1,41.9,168.1,42.1z"/>
							<path d="M163.2,35.3c0.2,1.1,1.2,1.7-0.1,2.9c1.3,0.8,2.7,0,4,0.5c0.4-0.7-2-0.9-2.4-1.6c1.3-0.1-0.2-1,0.1-1.6
								C164.3,35.5,163.7,35.4,163.2,35.3z"/>
							<path d="M167.9,31c0-0.6-1.1-1.1-0.6-1.6c0.8-0.1,1.1,0.3,1,0.7c1.7-0.5-0.4-0.6,0.7-1.5c-0.2,0.1-0.4,0.4-0.8,0.3
								c0.1-1.7-1.6-0.6-1.1-2.9c-0.6-0.2-0.6-0.4-1.7,0c1-1.6,1.2-1,1.9-2.9c-0.6,0.3-1.9,1.4-3.2,1.9c0.6-1.3,0.3-1.7,0-2
								c-0.3-0.3-0.6-0.5-0.3-1.4c0.1,0.1,0.5,0,0.6,0.4c0.9-0.6,0.6-0.8,0.2-0.9c-0.4-0.1-1.1-0.2-1.1-0.6l1.5-0.9
								c-0.3-0.2-0.9-0.4-1.3-0.7c-0.4-0.3-0.7-0.7-0.5-1.4l0.8-0.4c-1.1-0.3-1.9-0.8-2.6-1.4c-0.7-0.6-1.4-1.1-2.2-1.3
								c0,0,0-0.3,0-0.7c0-0.3,0-0.7,0-0.7c-1.2,0-0.9,0.4-0.6,1c0.3,0.6,0.5,1.3-0.9,1.9c0.9-1.4,0.5-1.3-0.1-1.1
								c-0.6,0.2-1.3,0.6-1.5-0.2c0.2-1.4,1.3,0,1.6-1.5c-1.1,1.2-0.8,0.1-1.5,0.2c0.9-1.3-1-0.8,0.2-2.2l-3.1,1.7
								c0.1-0.9-0.5-1.1-1-1c1,0.5-1.2,2-0.4,3.2c0.2,0,0.5,0,0.7,0c0.3,0,0.5,0.1,0.8,0.2c0.6,0.1,1.1,0.3,1.6,0.6
								c0.5,0.2,1,0.5,1.5,0.9c0.4,0.4,0.8,0.8,1.1,1.3c0.8-0.8,1-0.5,1.3-0.3c0.2,0.3,0.4,0.6,1.1,0.1c-0.4,0.5-0.7,1.1-1.2,1.6
								c1.2,0.6,0.6-1.1,1.4-1.4c0.7,0.2,0,1.5-0.6,2c0.6,0.8,0.5-0.3,1.7-0.7c0,0-0.3,0.5-0.7,1c-0.4,0.5-0.7,1-0.7,1
								c1.2,0.8,2.6,1.9,3.6,3.4c1,1.5,1.6,3.3,1.3,5.1l1.4-0.5c-0.3,0.9,0.6,1.4,1.2,2c0.6,0.6,0.9,1.3-0.7,2.1l1.3,0.5
								c-0.7-0.3-2.2,0.3-3.2-0.1c0.5,0.4-0.1,0.9,0.4,1.3l0.7-0.8c1.2,0.6,0.5,1.2-0.6,1.3c0.7,0.6,1.4,0.5,2,0.1
								c0.6-0.3,1.2-0.9,1.8-1c-1.3-0.9-0.7-1.3,0.1-1.8c0.9-0.5,1.9-1,1.2-1.9C169,29.7,168.6,31,167.9,31z"/>
							<path d="M163.9,33.3c0.1,0.1,0.3,0.2,0.4,0.2C164.3,33.5,164.1,33.4,163.9,33.3z"/>
							<path d="M151.9,11.7c-0.1-0.1-0.3-0.1-0.5-0.1C151.2,11.9,151.5,11.7,151.9,11.7z"/>
							<path d="M164.8,35.4C164.8,35.4,164.8,35.4,164.8,35.4C164.8,35.4,164.8,35.4,164.8,35.4C164.8,35.4,164.8,35.4,164.8,35.4z"
								/>
							<polygon points="168.3,36.4 168.4,35.9 167.7,36 							"/>
							<path d="M147.4,8.5l-0.1,0.8C147.4,9,147.4,8.8,147.4,8.5z"/>
							<path d="M132.9,12.7l0.3-0.2C133,12.5,133,12.6,132.9,12.7z"/>
							<path d="M121.5,42.7c0.3,0.9,0.5,2.1,1.7,3l-0.8-0.2c0.3,0.5,1.3,2.1,2.8,1.5l-0.6-0.3c-0.9-1.2,1.4-0.5,2-1.2
								c-0.2-1-2.9-2.2-2.1-2.9c0-0.4,0.7-0.2,1.3,0.1c0.4-0.8-1.7-1.6-1.9-2.3c2.9,0.5,2.6-0.2,2.2-1.1c-0.5-0.9-1.1-2.1,0.8-2.2
								c-0.2-0.9,0.5-1.8-0.3-3.1c1.2,0.9,0.4-0.9,1.9-0.2c-1.6-0.6-1-1.2-0.5-1.9c0.5-0.6,0.9-1.2-1.1-2c1.6-0.9-0.2-0.2,1.3-1.3
								c0.4,0.2,0.4,0.4,0.4,0.6c1-0.3-1.4-1.6,0.7-1.4c0.8-1.1-1-0.6-1.8-1.8c1-1.1,1.4-0.5,3.3-0.4c-1.8-1-0.6-1.3-1.2-2.4
								c-0.2,0.1-0.9,0.8-1.4-0.1c1.1-1.3-0.6-1.8-0.3-3.5c2.4,0.5-0.8,1.4,1.5,1.1c0.4,1.4,0,2,1.2,3.2c0.7-1,1.1-2.5,1.1-4.2
								c0.7-0.5,0.7,0.9,1.2,0.5c0.8-0.3,0.6-1,0.4-1.7c-0.2-0.7-0.3-1.5,0.4-1.6l0.7,0.9c-0.4-0.7,0.1-1.1,0.7-1.5
								c0.6-0.3,1.3-0.6,1.5-1.3c-0.5-0.4-0.8-0.6-0.9-1c0.9,1.2,1,0.6,1.2-0.2c0.1-0.4,0.3-0.8,0.5-1.1c0.3-0.2,0.7-0.3,1.2,0
								c-0.5-0.8-0.5-1.6-0.3-2.2c0.2-0.7,0.7-1.2,1.1-1.4c0.5,0.4,0.6,1.1,0.8,1.6c-0.9-0.3-1,0.3-1,1.1c0,0.8,0.2,1.8,0,2.4
								c0.1-0.6,0.6-0.8,1.1-1c0.5-0.2,0.9-0.4,1.1-1.2c0,0,0,0.4,0.1,0.7c0,0.4,0.1,0.7,0.1,0.7c0.5,0,0.5-0.9,0.7-1.6
								c0.1-0.7,0.4-1.3,1.1-0.7l0,1.1c1.2-0.2,2.4,0.3,3.5,0.6c0.6,0.2,1.1,0.3,1.7,0.3c0.6,0,1.2-0.2,1.8-0.6
								c0.5-0.8,0.2-3.1,0.3-3.8c-0.8,0.2-1.4,0.6-2,1c-0.6,0.5-1.1,1-1.6,1.3l0.3-1.7c-0.4,1.1-1.6,1.7-1.1,2.6
								c-0.8,0.8-0.4-1.6-1.3-0.6c0.1-1.8,0.7-2,0.8-3.4c0,0-0.2,0.2-0.5,0.4c-0.2,0.2-0.4,0.4-0.4,0.4c0.3-0.7-0.5-0.6-0.3-1.3
								c-0.8,1-1.4,0.9-2,0.7c-0.6-0.3-1.4-0.6-2.1,0c0,0,1,0.1,1,0.1c0.2,1-0.4,1-0.7,1.3c-0.8-1.2-1-0.9-2.1-1.2
								c-0.5,1-0.1,2.7-0.9,3.2c-0.4-0.9-0.8-0.9-1.3-0.8c-0.5,0.1-1,0.2-1.6-0.4c0.8,1.6-1.1,1.7-0.6,2.6c-0.1,0.6-0.7,0.9-1.4,0.2
								c0-0.1,0-0.3,0.1-0.5l-0.4,0.3c-0.1-0.2-0.2-0.3-0.2-0.4c-0.4,0.3,0.6,1.2-0.5,1c-0.4-0.3-0.1-0.6-0.1-0.9
								c-0.5,0.4-0.4,1.2-0.3,2c0.1,0.7,0.1,1.3-0.9,1.2c0.6,0.7-0.1,1.8,1.6,2.7c-0.8-0.1-2-1.1-2.3-0.2c1.1,1.3-1.1,0.6-0.5,1.7
								c-1-1.7-0.4-0.2-1.4-1.8c-0.9,0.2,0.5,2.2-0.3,3c-0.4-0.1-0.8-0.3-1.2-0.4c0.3,0.7,1.3,1.7-0.1,1.4l1.1,0.5
								c-0.9,0.4-1,1.5-2.5,1.8c0,0,0.4,0.4,0.8,0.9c0.4,0.4,0.9,0.9,0.9,0.9c-2.7,0.3-1.3,2.7,0.3,4.2c-0.2,0.4-0.8,0.9-1.3,0.7
								c-0.1-0.2-0.4-0.4-0.6-0.7c-0.3,0.6-1.7,1-0.1,1.9c0.3,0.8-1.4,0.1-1.8,0.5c1.1,1,0.3,1.9-0.2,2.7c-0.5,0.8-0.8,1.5,1,2.2
								c0.1-0.5,1.2-1.4,1.3-2.4c0.4,0.4,1.2,0.4,1.2,0.8c-0.1,1-1.7,1.2-1.3,2.4l-2.4-0.7c-1.5,0.6-0.8,1.7-0.3,2.6
								C123,41.5,123.4,42.4,121.5,42.7z"/>
							<path d="M125.1,29.4l-1.5,0.3l1.1,0.3C124.6,29.7,124.7,29.5,125.1,29.4z"/>
							<path d="M124.7,30c0.1,0.2,0.2,0.4,0.3,0.6c0.1-0.2,0.1-0.3-0.1-0.5L124.7,30z"/>
							<path d="M121.3,45.9c-0.1,0.1-0.4,0.4-0.2,0.8C121.5,46.5,121.7,46.1,121.3,45.9z"/>
							<polygon points="121.9,46.9 122.4,46.6 122.1,46.5 							"/>
							<path d="M121.5,69.4l1.5,1.3c-0.8,0.2,0.1,1.6-1.3,1.1c1.8,0.8-0.1,2.3,2.6,1.9c-0.7-3.6,1.2-8.4-0.8-12.7l1,0.8
								c-1.9-2.4,2.6-2.6-1.3-4.8l2.1,0.5c0.7-0.9-2.8-2.2-0.5-3l-0.9,0c0-0.3,0.4-0.3,0.5-0.6l-0.4,0.1c-0.8-0.8-0.6-1.3,0.1-1.9
								c0.7,0.1,0.2,0.4,0.4,0.6c0.7-0.2-0.6-1-0.5-1.5c0.7-0.3,1,0.2,1.3,0.3c-0.7-1.8,1.7-2.1-1.3-3.8c-0.6-0.2-1.1,0.2-1.3-0.4
								c-1.2,0.9-0.1,2,0.6,3.1l0-0.3c3,1.3-0.8,0.5,0.4,2c-1.2-0.5-1.1-1.1-1.7-1.4c-2.6,1.1,1.5,2.4-1.7,2.9l-0.1-0.1
								c-0.3,0.2,0.2,0.6,0.4,1c0.4-0.1,0.7-0.4,1-0.5c0.2,0.4,1.6,0.7,2.1,0.9c-1.4,0.2,0.6,0.6-0.2,1.1c-1.3,0.1-1.1-0.6-1.7-1
								l0.8,0.8c0,0.7-1.5,0.5-2.2,0.7c0.9,0.7,0.7-0.2,2,0.4c-1.7,0.5-1.6,3.6-0.5,5.2c-0.1-0.5-1.3-0.3-1.1-0.9
								c-0.3,0.2,0.3,1,1.2,1.1c0.8,1.1,0,2.3-0.9,3.1l1-0.2c1.6,0.9-1.4,1.9-0.5,3.3l0,0c0.2,0.5,2.5,1,2,1.8
								C122.6,69.9,122.7,69.4,121.5,69.4z"/>
							<path d="M123.5,74.4l-1.3-0.5c-0.3,0.5,1.4,1.2,2.3,1.1c-0.3-0.3,0.3-0.7-0.4-0.8C123.8,74.2,123.3,74.2,123.5,74.4z"/>
							<path d="M123.4,83.6c0.3,0.2,0.8,0.1,1.2,0.2c-0.1-1.9-0.6-4.4,0.5-5.1c0.4-0.6-1.6-0.8-2.1-1.7l1.4-0.3
								c-0.9-0.5,0.7-1.8-1.6-1.4c-0.2,0,1,0.4,0.6,0.8l-0.8-0.1l0.2,0.9l-1-0.3c-1.4,1.2,2.9,1,1.9,2.4l-2-0.1
								c-0.1,1,0.5,1.5-0.7,2.3c0,0,1,0,0.6-0.1c0.1-0.2,0.9-0.4,1.5-0.2c1.5,1.5-1.2-0.3-2,0.8c1.3,1.3,2.4,3.7,0.8,4.4
								c1.2-0.6,2.4,0.3,2.3,1c-0.7,0.3-1.2-0.2-1.8-0.3c-0.2,0.3-0.7,0.6-0.4,0.9c1.1-0.4,2.5-0.1,3.2,0.6
								C126.8,86.7,123.2,85.3,123.4,83.6z"/>
							<path d="M125.1,84.1c-0.1-0.2-0.2-0.3-0.4-0.3c0,0.2,0,0.5,0,0.7L125.1,84.1z"/>
						</g>
					</g>
				</g>
			</g>
		</g>
	</g>
</g>
</svg>
