<?xml version="1.0" encoding="utf-8"?>
<!-- Generator: Adobe Illustrator 19.1.0, SVG Export Plug-In . SVG Version: 6.00 Build 0)  -->
<svg version="1.0" id="Layer_1" xmlns="http://www.w3.org/2000/svg" xmlns:xlink="http://www.w3.org/1999/xlink" x="0px" y="0px"
	 viewBox="0 0 316.5 513" style="enable-background:new 0 0 316.5 513;" xml:space="preserve">
<style type="text/css">
	.st0{fill:#E1F4FD;}
	.st1{fill:#F2D8E0;}
	.st2{fill:#DFF0E3;}
	.st3{opacity:0.85;}
	.st4{opacity:0.3;fill:#FFFFFF;}
	.st5{opacity:0.3;fill:#F2D8E0;}
	.st6{fill:#FFFFFF;}
	.st7{opacity:0.3;fill:#DFF0E3;}
	.st8{opacity:0.4;fill:#FFFFFF;}
	.st9{opacity:0.3;fill:#E1F4FD;}
	.st10{fill:#F8DE8D;}
	.st11{fill:#BADAF3;}
	.st12{fill:#231F20;}
	.st13{fill:#010101;}
	.st14{fill:none;stroke:#010101;stroke-width:6.518;stroke-miterlimit:10;}
	.st15{fill:none;stroke:#FFFFFF;stroke-width:6.0438;stroke-miterlimit:10;}
	.st16{fill:#FAD6D7;}
	.st17{fill:#FFFEFE;}
	.st18{fill:#C2DE9F;}
	.st19{fill:#FCD6D6;}
	.st20{fill:#FEE777;}
	.st21{fill:#FAA958;}
	.st22{fill:#BADB93;}
	.st23{fill:#F9DE8C;}
	.st24{fill:#B0DAF4;}
	.st25{fill:#9C6026;}
	.st26{fill:#CB8F62;}
	.st27{fill:#714C1E;}
	.st28{fill:#9C9DCE;}
	.st29{fill:#FFC214;}
	.st30{fill:#DEE682;}
	.st31{fill:#F3DAB1;}
	.st32{fill:#F6B4C9;}
	.st33{fill:#FEC470;}
	.st34{fill:#FDC17E;}
	.st35{fill:#724F1F;}
	.st36{fill:#D22030;}
	.st37{fill:#00AFAC;}
	.st38{fill:#18A6DF;}
	.st39{fill:#FEDD10;}
	.st40{fill:#E74782;}
	.st41{fill:#FBD0D8;}
	.st42{fill:none;stroke:#000000;stroke-width:1.7659;stroke-miterlimit:10;}
	.st43{fill:#672F12;}
	.st44{fill:#F58C8E;}
	.st45{fill:#E8B674;}
	.st46{fill:#FFD89F;}
	.st47{fill:#FFEDB3;}
	.st48{fill:#5EB2E3;}
	.st49{fill:#7DB2E0;}
	.st50{fill:#F19C9D;}
	.st51{fill:#593712;}
	.st52{fill:none;stroke:#E7EFD6;stroke-width:0.4253;stroke-miterlimit:10;}
	.st53{fill:#D86464;}
	.st54{fill:#FEEBB1;}
	.st55{fill:#F8A95A;}
	.st56{fill:none;stroke:#010101;stroke-width:8.0507;stroke-linecap:round;stroke-linejoin:round;stroke-miterlimit:10;}
	.st57{fill:#95D4D1;}
	.st58{fill:#F6DD8C;}
	.st59{fill:#B0D9F4;}
	.st60{fill:#FFC118;}
</style>
<g>
	<g>
		<g>
			<g>
				<path class="st25" d="M145,245.3c-0.4,10.3-1.6,20.6-1,31c0.7,10.9,2.8,23.5,11.7,30.9c4.4,3.7,10,3,13.3-1.7
					c8.3-12,6.7-28.9,4.5-42.6c-1.1-6.8-2.7-13.6-4.8-20.2c-1.1-3.4-2.2-6.8-3.7-10c-0.4-0.9-1.6-3-1.7-3.3
					c-0.1-0.3-0.1-1.2,0.1-2.6c1.9-10.5-13.9-15.2-16.3-4.5c-2.8,12.4-8.8,23.9-7.8,36.9c0.6,7.2,2.1,14.5,3.2,21.7
					c1.1,7.3,2.2,14.5,4.2,21.6c5.4,18.9,22.5,52.4,47.4,37.6c20.7-12.3,18.6-43.7,16.1-64c-1.7-13.4-4.3-26.9-8-39.9
					c-4-13.9-9.3-30.7-21.6-39.5c-5.6-4-12.8-5.2-19.3-3c-9.4,3.2-14.6,10.9-18,19.8c-7.7,20.2-6.5,43.8-3.7,64.7
					c1.8,13.1,4.1,27.3,11.9,38.4c5.2,7.4,12.6,14.4,20.8,18.3c5.4,2.6,11.7,4.1,17.4,1.3c5.3-2.7,8.3-8.2,8.8-14
					c0.6-6.5-1.9-12.4-2.7-18.8c-0.9-7.6-0.1-15.5-0.6-23.2c-1-14.7-1.5-29.5-5.1-43.9c-2.9-11.8-8.7-24.4-20.2-30
					c-6-2.9-12.2,0.7-12.7,7.3c-1.6,19,3,37.6,5.8,56.2c2.7,17.8-0.4,36,4.4,53.5c5.4-1.5,10.9-3,16.3-4.5c-0.8-2.2-1-5-1.6-6.8
					c0.2-0.6,0.1-0.6-0.1,0.1c-4.5,3.4-7.5,3.8-9.1,1.1c0-0.3,1.2,3.1,1.2,3.1c3.1,10.4,19.4,6,16.3-4.5c-2.4-7.9-9.4-18-18.9-12.4
					c-8.2,4.8-7,16.4-4.2,24c3.8,10,19.2,6.2,16.3-4.5c-2.3-8.4-2.5-16.9-2.4-25.6c0-8.8-0.4-17.3-1.7-26.1
					c-2.5-17.8-7-35.4-5.5-53.6c-4.2,2.4-8.5,4.9-12.7,7.3c7.2,3.5,10.2,11.3,12.1,18.6c2.6,9.7,3.6,19.8,4.1,29.8
					c0.3,5.5,0.8,11.1,1,16.6c0.2,6.1-0.4,12.4,0.3,18.5c0.5,4.7,2.2,9.2,2.7,14c0.1,0.6-0.3,3-0.2,3.2c0.4,0.5-0.8,0.2,0.4-0.3
					c1.5-0.7,0.7,0,0.3-0.5c0.4,0.6-0.3-0.2-0.9-0.4c-1.7-0.6,1.6,0.9-1.4-0.6c-1.5-0.8-3-1.7-4.4-2.7c-2.8-2-5.4-4.5-7.7-7.1
					c-6.3-7.1-8.8-17.1-10.3-26.3c-3.1-18.1-4.6-37.1-0.9-55.2c0.7-3.6,1.6-7.2,3-10.6c1-2.6,2.8-5.7,4.1-6.8c1.9-1.6,2.2-1.6,4.7-2
					c-2.7,0.4,2.8,0.6-0.1,0.1c0.3,0.1,1,0.2,1.2,0.3c1.6,1.1-1.5-0.8,0.3,0.1c0.5,0.3,0.9,0.6,1.4,0.9c1.1,0.7-1.5-1.3,0.2,0.1
					c0.9,0.8,1.7,1.7,2.5,2.6c0.2,0.2,1,1.2,0.1,0.1c0.3,0.4,0.6,0.9,0.9,1.3c0.9,1.4,1.8,2.9,2.7,4.4c3,5.4,4.7,10.1,6.6,16.1
					c3.5,11.1,6,22.5,8,33.9c2.5,14.4,4.7,31,0.4,45.3c-1.8,6-6.5,14.2-13.4,11.1c-4.4-1.9-6.9-6.5-9.1-10.4
					c-2.9-5.3-5.2-10.7-6.9-16.5c-3.7-12.5-5.4-26-6.9-38.9c-1.3-11.6,4.6-22.1,7.1-33.1c-5.4-1.5-10.9-3-16.3-4.5
					c-0.7,3.9-1.3,7.8-0.1,11.7c0.9,2.8,2.6,5.3,3.6,8.1c2.2,6,3.9,12.3,5.2,18.5c2.3,11,5.3,26.5-1.5,36.3
					c4.4-0.6,8.8-1.1,13.3-1.7c-6.1-5.1-6.7-14.8-6.9-22.8c-0.2-9.1,0.8-18.1,1.1-27.2C162.4,234.4,145.5,234.4,145,245.3L145,245.3
					z"/>
			</g>
		</g>
		<g>
			<g>
				<path class="st25" d="M14.9,64.9c-3.6,8.1-7.3,17-5,26.1c2.2,8.6,9.6,14.4,16.3,19.5c3.6,2.7,9.6,0.6,11.6-3
					c3.4-6.1,6.5-12.5,10.7-18.2c1.9-2.6,4-5,6.5-6.8c2.7-2,5.5-4,7.3-6.8c3.9-6.1,2.6-14.1-1.5-19.8c-4.2-5.8-11.1-8.1-18.1-8
					c-14,0.2-27.9,8.5-34.3,21c-5.1,9.9-8,32.3,8.5,32.8c8.3,0.3,14-5.9,18.4-12.1c1.7-2.5,3.2-5.2,5.5-7.3
					c3.2-2.9,7.2-4.9,10.1-8.1c6.6-7.3-1.6-17.3-10.2-13.3c-3.4,1.6-6.9,3.8-10.8,3.7c2,4.8,4,9.6,6,14.4c3.2-2.9,6.8-6.3,10.9-7.8
					c-3.6-2.7-7.1-5.4-10.7-8.1c0.3-2.3,2.2-2.3,0.7-2.2c2,4.8,4,9.6,6,14.4c1.3-1.1,2.9-1,4.4-0.9c10.9,0.6,10.8-16.3,0-16.9
					c-6.3-0.4-11.6,2-16.3,5.9c-5.7,4.7-1,14.6,6,14.4c9.2-0.3,15-5.6,16.2-14.6c0.7-5.3-6-9.8-10.7-8.1
					c-7.1,2.5-12.9,7.1-18.4,12.2c-5.6,5.1-1.1,14.3,6,14.4c7,0.1,13.1-3.1,19.3-6c-3.4-4.4-6.8-8.8-10.2-13.3
					c-4.3,4.7-10,7.4-13.9,12.6c-1.7,2.2-3.1,4.6-4.8,6.8c-0.7,0.9-2.7,2.4-3,3.1c-1.1,0.3-0.8,0.4,1.1,0.3c1.3,0.4,2.2,1.2,2.8,2.2
					c0.1,0.1,0.2,0.3,0.1,0.4c0-0.8,0-1.6,0-2.4c0.1-2.4,0.5-5,1.4-7.3c2-4.6,5.8-8.1,10.1-10.5c3.4-1.9,8.6-3.6,12.5-2.5
					c1.9,0.5,1.3,0.6,2.4,2.2c0.5,0.7,0.1-0.3,0.6-1c-0.5,0.7-1.3,1.2-1.9,1.7c-5.3,4.3-9.5,8.5-13.4,14.1c-3.7,5.4-6.6,11.3-9.8,17
					c3.9-1,7.7-2,11.6-3c-3.4-2.6-7.8-6.4-8.5-9.4c-0.2-1-0.2-2.5,0.3-4.4c0.7-3,1.8-5.8,3.1-8.6c1.8-4.2,1.2-9.1-3-11.6
					C22.8,59.7,16.7,60.7,14.9,64.9L14.9,64.9z"/>
			</g>
		</g>
		<g>
			<g>
				<path class="st25" d="M12.9,107.1c1,0.8,1.6,2,2.6,2.8c0.8,0.8,1.7,1.4,2.7,1.7c1,0.5,2.1,0.8,3.3,0.7c0.7-0.1,1.5-0.2,2.2-0.3
					c1.1-0.3,2.1-0.8,2.9-1.5c0.6-0.4,1.1-0.9,1.5-1.5c0.7-0.8,1.3-1.8,1.5-2.9c0.1-0.7,0.2-1.5,0.3-2.2c0-1.5-0.4-2.9-1.2-4.3
					c0-0.1-0.1-0.1-0.1-0.2c-0.4-0.6-0.9-1.3-1.5-1.9c-0.2-0.2-0.3-0.4-0.5-0.6c-0.4-0.4-0.8-0.8-1.3-1.2c-0.7-0.5-1.3-1.1-2.1-1.6
					c-0.6-0.4-1.3-0.7-2.1-0.9c-0.1,0-2.2-0.3-2.3-0.3c-0.4,0-0.8,0.1-1.1,0.2c-0.8,0-1.5,0.2-2.1,0.6c-0.4,0.1-0.7,0.3-1,0.4
					c-0.6,0.4-1.1,0.9-1.7,1.3c0,0-1.3,1.7-1.3,1.7c-0.8,1.2-1.1,2.8-1.2,4.3c0,0.8,0.1,1.5,0.3,2.3c0,0.2,0.8,1.9,0.9,2
					c0.5,0.8,1.1,1.5,1.7,2.3c0.8,0.8,1.7,1.4,2.7,1.7c1,0.5,2.1,0.8,3.3,0.7c1.2,0,2.2-0.2,3.3-0.7c1-0.3,2-0.9,2.7-1.7
					c1.5-1.6,2.6-3.7,2.5-6c-0.1-0.7-0.2-1.5-0.3-2.2c-0.4-1.4-1.1-2.7-2.2-3.7c0,0,0-0.1-0.1-0.1c0.4,0.6,0.9,1.1,1.3,1.7
					c-0.1-0.1-0.2-0.3-0.3-0.5c0.3,0.7,0.6,1.3,0.9,2c0,0,0,0,0-0.1c0.1,0.7,0.2,1.5,0.3,2.2c0,0,0,0,0,0c-0.4,1.4-0.8,2.8-1.2,4.3
					c0,0,0,0,0,0c-1,1-2,2-3,3c0,0,0,0,0,0c-1.4,0.4-2.8,0.8-4.3,1.2c0,0,0,0,0,0c-0.7-0.1-1.5-0.2-2.2-0.3c0,0,0,0,0,0
					c-0.7-0.3-1.3-0.6-2-0.9c0.1,0,0.2,0.1,0.3,0.2c-0.6-0.4-1.1-0.9-1.7-1.3c0.7,0.6,1.5,1.2,2,2c-0.4-0.6-0.9-1.1-1.3-1.7
					c0,0.1,0.1,0.1,0.1,0.2c4.4-3.4,8.8-6.8,13.3-10.2c-1-0.8-1.6-2-2.6-2.8c-0.8-0.8-1.7-1.4-2.7-1.7c-1-0.5-2.1-0.8-3.3-0.7
					c-1.2,0-2.2,0.2-3.3,0.7c-1,0.3-2,0.9-2.7,1.7c-1.5,1.6-2.6,3.7-2.5,6C10.5,103.3,11.2,105.7,12.9,107.1L12.9,107.1z"/>
			</g>
		</g>
		<g>
			<g>
				<path class="st25" d="M238.9,41.7c-2.8-5.1-1.2-10.8,3.3-14.4c5.1-4.1,11.5-3.5,16.9-0.5c6.2,3.4,11.1,9.1,13.5,15.8
					c1.3,3.6,3.6,11.4-1.3,13.1c-6.1,2.1-13.8-7.1-18.1-10.3c-1.9-1.4-10.2-5.8-8.9-8.6c0.8-1.6,4.2-1.3,5.6-1.1
					c1.1,0.1,2.5,0.5,3.6,1c0.9,0.4,0-0.1,1.2,1c2,1.9,3.8,3.9,5.4,6.2c0.9,1.3,1.6,2.6,2.3,4c0,0.1,0.3,0.8,0.3,0.8
					c0.8,0.2-0.5-0.2,0.2-1c0.3-0.3,0.5-1,0.8-1.4c1.1-1.2,2.4-1.7,3.8-1.4c1.6,0.1,1.9,0.1,0.9-0.1c0,0,1.9,0.9,0.2,0
					c-0.2-0.1-1.8-1.1-1.1-0.7c-1.5-1.1-4.3-3.9-6.1-5.9c-3.7-3.9-7.3-8.7-12-11.6c-3.9-2.4-9.3-0.9-11.6,3c-2.5,4.3-0.6,8.8,3,11.6
					c5.3,3.9,10.6,7.7,15.6,12c3.4-4.4,6.8-8.8,10.2-13.3c-1.9-1.5-3.3-4.8-4.9-6.7c-2.4-2.9-5.5-4.9-9.1-6
					c-10.4-3.1-14.9,13.2-4.5,16.3c1.2,0.4,2.3,2.7,3,3.7c2,2.9,4.1,5.1,6.9,7.2c7.6,5.7,17.5-7,10.2-13.3
					c-6.1-5.2-12.6-9.8-19-14.6c-2.8,4.9-5.7,9.7-8.5,14.6c1.1,0.7-1.3-1.2,0-0.1c0.5,0.5,1,1,1.5,1.5c1.5,1.5,2.9,3.1,4.3,4.6
					c2.8,3,5.6,6.1,8.7,8.7c3.5,2.9,7.5,5.6,12.2,5.6c5.4,0,9.9-3.9,11.4-9c2.9-9.8-6-21-12.8-27.1c-8.2-7.3-22.3-9.4-31.5-2.6
					c-5.3,3.9-8.2,10.6-7.4,17.1c0.7,5.9,4.4,10.5,9,14.1c4.6,3.7,9.5,7.1,14.1,10.8c5.6,4.4,11.8,8.3,19.2,8.1
					c12.8-0.4,21.9-10.9,21.2-23.6c-0.7-12.9-7.5-25.1-17.6-33.1c-11.3-8.9-27.3-12.3-39.8-3.5c-12.2,8.7-16.6,24.1-9.4,37.5
					C229.6,59.7,244.2,51.2,238.9,41.7L238.9,41.7z"/>
			</g>
		</g>
		<g>
			<g>
				<path class="st26" d="M47.1,100.7c-11.3,14.8-23.3,38.1-5.9,53.4c6.5,5.7,19.3,4.5,21.2-5.6c0.3-1.5,0.9-1.1-0.4,0.6
					c-7.9-2.1-15.7-4.3-23.6-6.4c-0.6,9.9,4.3,19.6,12,25.7c5,3.9,11.3,5.2,16.6,1c5.1-4,6.2-10.6,3.3-16.3
					c-3-5.9-7.8-10.7-12.9-14.8c-9.7-8-23.9-0.6-21.2,12.3c5.9,28.3,35.7,36.7,60.8,38.3c11.4,0.7,22.8,0.2,34.2-0.5
					c14.8-0.9,29.5-2.3,43.9-5.9c30.9-7.6,66.1-24.8,79.6-55.6c6.5-14.7,6.9-30.7-0.5-45.1c-7.2-14.2-21.3-23.4-35.9-28.6
					c-17.5-6.2-36.3-5.3-54.5-5.2c-20.5,0.1-40.8,1.3-60.4,7.5c-28.3,8.9-61.2,32.5-58.4,66c1.5,18.1,12.3,35.8,27.9,45.4
					c6.6,4,13.8,5.7,21.3,6.8c6.6,1,13.3,2,20,1.5c15.8-1.1,30.1-10.6,28.5-28.2c-0.9-9.1-4.1-17.6-8.1-25.8
					c-3.3-6.7-7.8-12.6-11.2-19.1c-4.2-8.1-6.6-17.2-15.4-21.7c-8.5-4.4-16.3-0.4-23.3,4.6c-6.9,4.9-13.5,9.9-17.9,17.3
					c-4.5,7.5-5.5,16.1-4.2,24.6c2.2,14.8,12.5,31.5,27.9,35.2c9.8,2.4,19.4-3,23.7-11.8c4-8.2,2.1-17-2.6-24.4
					c-1.6-2.6-3.6-5-5.2-7.7c-0.4-0.6-2.1-3.3-1.3-2.3c0.1,0.2,0.2,0.4,0.3,0.6c-0.3-1.2-0.3-1.3-0.2-0.2c-0.7,1.4,0.1-0.5,0.2-1.2
					c-5.3,4.1-10.7,8.1-16,12.2c1.7,0.5-3.2-1.6-1.4-0.5c1.7,1-2.2-2.2-0.6-0.5c1,1.1,2.1,2,3.1,3c1.2,1.3,2.3,2.6,3.3,4
					c-1.8-2.3,0.1,0.2,0.5,0.8c0.6,0.9,1.2,1.8,1.8,2.7c2.3,3.5,4.5,7.1,6.3,10.8c0.4,0.8,0.7,1.6,1.1,2.3c-1.3-2.7,0-0.1,0.2,0.6
					c0.5,1.6,0.9,3.3,1.4,4.9c-0.4-1.4,0.1-2.6-0.2-0.5c-0.3,2.1,0.5-2.8,0.2-1.3c0.6-2.4,2.8-4.5,3.8-4.7c-1,0.2-2,0.6-3,0.8
					c-0.2,0.1-3.9,0.7-1.3,0.3c-2.5,0.3-5,0.5-7.4,0.7c-4.7,0.4-9.5,0.6-14.1,1.7c-2.9,0.7-5.5,2.1-8,3.8c-1.1,0.8-2.4,1.5-3.4,2.4
					c-0.4,0.2-0.8,0.4-1.2,0.7c3.1-0.5,3.5-0.8,1.3-0.9c-11.3-1.1-16.3,14.4-9,21.6c19.4,19.3,49.1,14.7,73.5,10.9
					c14.3-2.2,29-5.2,42.5-10.4c2.5-0.9,4.9-2.1,7.3-3.1c1.2-0.5,2.4-1.1,3.6-1.6c0.8-0.3,0.7-0.3-0.3,0.1c0.7-0.3,1.5-0.6,2.3-0.9
					c2.2-0.8,4.4-1.6,6.6-2.2c2-0.5,2.3,0.2,0.6-0.2c1.5,0,1.2-0.1-0.9-0.3c2.1,0.6,1.1-0.1-3.2-2c0.9-6.6,1.7-13.3,2.6-19.9
					c-0.5,0.3-3.7,2.3-2.8,2c3.3,7.7,6.5,15.4,9.8,23.2c16.7-8.5,34.1-17.1,47.2-30.8c15-15.7,23.3-39.9,13.7-60.6
					c-4.2-9-12.3-15.4-21.1-19.6c-4.2-2-8.6-3.8-13-5.6c2.4,1-1.3-0.6-1.4-0.6c-1.1-0.5-2.2-1-3.3-1.5c-3.5-1.6-7.1-3.2-10.7-4.5
					c-24-8.8-53.2-9.7-77.7-2.4c-11.8,3.5-27.7,9-33.3,21.1c-3.2,6.8-2.9,14.3-0.3,21.2c2.3,6,7.4,11.6,8.6,16.8
					c1.6,6.8,9.1,10.4,15.6,8.8c16.1-3.8,32.6-3.1,48.8-6.4c1.7-0.3,3.4-0.7,5.1-0.9c-2.2,0.3,2.5-0.1,3-0.1c0.6,0,1.2,0,1.8,0.1
					c1,0.1,0.8,0.1-0.5,0c1.4,0.4,1.5,0.4,0.1-0.1c1.2,0.8,1.3,0.7,0.2,0c1.1,1.2,1.1,1.1,0-0.2c-0.7-2-0.9-2.4-0.6-1.2
					c-0.2-0.9,0.2-6.2-0.4-2.8c0.6-3.1,0.2-1-0.6,0.4c-1,1.9,1.6-1.5-0.6,0.6c-1.9,1.8-3.7,3.7-5.7,5.4c-0.4,0.3-4,3.1-1.9,1.5
					c-1.2,0.9-2.4,1.8-3.7,2.7c-4.1,3-8.4,5.7-12.5,8.7c-5.7,4.1-7.2,6-12.6,9.4c-1.4,0.9-2.9,1.8-4.5,2.4c1.1-0.5,1-0.5-0.4,0
					c-1.5,0.3-1.5,0.4,0,0.2c-1.5,0-1.5,0,0,0.3c-1.4-0.4-1.5-0.4-0.3,0.1c-1.7-0.8-0.4,0.4-1.6-1.3c-5.8,5.8-11.6,11.6-17.3,17.3
					c2.3,1.3,4.8,2.3,7.3,3c1,0.3,4.5,1.7,5.5,1.4c-6.3,1.8-2.9-10.3-5.4-10.5c-0.3,0-0.9,7.3-0.8,4.8c-0.1,2.6,0.2,5.1,1.1,7.5
					c4.2,12.2,16.6,14.7,28,12.7c7.9-1.4,15.7-4.4,23.2-7.1c11.8-4.3,23.2-9.4,33.1-17.3c14.8-11.8,33.5-29.6,30.2-50.3
					c-2.7-16.4-17.1-26-31.7-30.9c-13.8-4.6-29-5.9-43.4-5.8c-12.3,0.1-25.1,0.7-36.9,3.8c-8,2.1-16.7,6.3-19.4,14.8
					c-3,9.6,3.3,17,12.1,19.8c12.5,4,27,3.7,40,4.3c8.8,0.4,18.3,2.1,26.2,5.6c1.4,0.6,5.6,3.8,7,3.7c-0.7,0-2.3-2.3-2.3-2.4
					c-1.2-2.1-1.5-4.2-0.9-6.4c-0.1,0.3-0.1,0.6-0.2,0.9c-0.4,1-0.7,2.1-1.1,3.1c-1.2,3,1.2-1.5-0.3,0.5c-1.2,1.5-2,3.4-3.2,4.9
					c-1.3,1.8,2-2.1-0.7,0.8c-0.9,1-1.7,1.9-2.6,2.9c-1.8,1.9-3.6,3.7-5.7,5.3c1.4-1.1-2.5,1.5-3.3,1.9c2.4-1.4,0.1,0.3-0.7,0.2
					c3.1,0.4,3.8-0.7,6.9,2.4c1.2,1.2,1.2,2.6,2,3.8c0.1,1.1,0.1,1.1,0.1-0.1c0-0.7,0-1.4,0.1-2c0.1-1.9,0.4-3.8,0.6-5.7
					c0.7-5.4,1-10.2-0.1-15.6c-1-5.1-7-9.7-12.2-9.3c-8.8,0.7-16.3,6-16.6,15.6c-0.1,4.9,1.6,9.1,3.1,13.6
					c5.2-5.2,10.4-10.4,15.6-15.6c-0.3-0.1-3.3-1.2-2.1-0.7c1,0.4-1.1-0.6-1.3-0.7c-1.6-0.8-3.1-1.7-4.8-2.4
					c-5-2.3-10.2-3.9-15.8-3.7c-9.9,0.4-21.7,3.4-28.9,10.6c-9.5,9.4,0.4,23.5,12.3,21.2c2.7-0.5,5.3-0.7,7.9-1.6
					c6.5-2.3,10.7-8.7,8.8-15.6c-1.7-6.3-9.1-11.1-15.6-8.8c-2.6,0.9-5.2,1.1-7.9,1.6c4.1,7.1,8.2,14.1,12.3,21.2
					c1-1.1,1.2-1.2,0.5-0.4c1.3-0.7,1.6-0.8,0.8-0.4c1.4-0.3,2.7-0.8,4.1-1.2c1.7-0.4,3.6-0.9,5.3-1.1c-2.3,0.3,3.7,0.2,2,0
					c-1.5-0.2,4.1,1.4,1.2,0.3c1.3,0.5,2.5,1.2,3.7,1.9c3.4,1.7,6.8,3.4,10.5,4.4c9,2.7,18.5-6.4,15.6-15.6
					c-0.5-1.6-1.1-3.2-1.7-4.7c-0.3-0.8-0.4-1.6-0.7-2.4c0.1,0.5,0.1,1,0.2,1.5c0.1-5-2.8-2.2-8.7,8.5c-4.1-3.1-8.1-6.2-12.2-9.3
					c-0.6-2.9,0-0.7-0.1,0.2c0,0.9,0,1.9-0.1,2.8c-0.1,1.8-0.4,3.5-0.6,5.3c-0.5,4-1,7.8-0.4,11.8c1.6,11.5,12.5,18,23.6,14.5
					c15.5-5,30-21.5,34.3-37c6.7-23.9-29.6-30.5-45.9-32.6c-5.7-0.8-11.4-0.9-17.1-1.3c-3.1-0.2-6.3-0.4-9.4-0.6
					c-1.6-0.1-3.2-0.3-4.8-0.4c-0.9-0.1-1.7-0.2-2.6-0.3c-2.8-0.3,2.3,0.5-0.5-0.1c-2.4-0.4-4.8-1.2-7.1-1.5
					c-2.2-0.3,2.3,1.2,1.2,0.5c-1.3-0.7-0.5-0.9,1.3,1.2c1.7,2,3.6,7.5,3,10.2c-0.2,1.1-0.7,2-1.4,2.8c-0.8,0.9-0.8,1.1-0.2,0.4
					c-1.9,1.9-1.8,1.4-0.9,0.7c0.7-0.5,3.1-1.4-0.1-0.1c1.2-0.4,2.3-0.8,3.5-1.2c3.3-1,6.8-1.6,10.2-2.1c-3.1,0.4,2.2-0.2,2.9-0.3
					c1.4-0.1,2.8-0.2,4.3-0.3c2.3-0.2,4.6-0.2,6.9-0.3c5.5-0.2,10.9-0.3,16.3,0c3.1,0.2,6.3,0.4,9.4,0.7c0.7,0.1,1.4,0.2,2.2,0.3
					c-2.7-0.3-0.3,0,0.4,0.1c2,0.3,4,0.7,5.9,1.1c3.2,0.7,6.3,1.5,9.3,2.5c0.7,0.2,5.5,2.3,2.7,1c1.5,0.7,3,1.4,4.4,2.3
					c0.9,0.5,4.4,3.5,2,1.2c0.9,0.8,1.7,1.7,2.6,2.5c2.1,1.7-0.9-1.5-0.1-0.2c0.4,0.6,0.8,1.2,1.2,1.8c0.3,0.5,0.5,1,0.8,1.6
					c-1.4-3-0.3-0.5-0.1,0.3c0,0.2,0.5,3.1,0.3,1c-0.2-2.2,0,1-0.1,1.2c0.4-2.4,0-0.3-0.2,0.1c-1.6,3.6,0.7-1.1-0.3,1.1
					c-2,4.4-4.1,6.6-7.2,10c-6.8,7.4-14,14.4-22.9,19.2c-8.6,4.7-18,7.7-27.2,10.8c-2.2,0.7-4.3,1.4-6.5,2c-0.8,0.2-1.6,0.3-2.4,0.5
					c-2.9,0.8,1.4,0.2-1.2,0.2c-0.4,0-0.7,0-1.1,0c-1.3-0.1-1.4,0-0.3,0.1c1,0.2,0.9,0.1-0.2-0.1c1,0.3,1.8,0.8,2.5,1.6
					c0.5,0.6,1,1.4,1.2,2.1c0.2,0.6-0.2,4.1,0.2,2.5c1.9-7.4-1.7-15-8.2-18.9c-1.9-1.1-4-1.7-6-2.2c-1-0.3-2-0.5-3-0.7
					c-0.6-0.2-1.2-0.3-1.8-0.5c1.1,0.6,1.1,0.5-0.1-0.1c-4.9-2.8-11.4-2-15.4,2c-3.7,3.7-5.3,10.9-2,15.4c5.7,7.9,13,13.5,23.2,13.5
					c7.6,0,14.9-3.6,20.9-7.9c3.1-2.2,6.2-4.6,9.1-7c2-1.6-0.8,0.5-0.2,0.1c1.1-0.7,2.1-1.5,3.1-2.2c4.4-3.1,8.8-6,13.1-9.2
					c9.6-7.1,22.2-16.5,22.3-29.8c0-7.8-5.1-14.7-11.7-18.4c-7.4-4.1-15.9-3.6-24-2.4c-3.8,0.6-7.5,1.5-11.3,2.2
					c-0.6,0.1-1.2,0.2-1.7,0.3c-1.6,0.3,2,0-0.4,0c-2.7,0-5.5,0.3-8.2,0.4c-10.9,0.6-21.7,1.9-32.3,4.4c5.2,2.9,10.4,5.9,15.6,8.8
					c-1.1-4.9-3.6-9.3-6.2-13.5c-0.7-1-1.3-2-1.9-3.1c-0.1-0.2-1.5-2.9-0.9-1.5c-0.4-0.9-0.5-1.9-0.8-2.9c0.1,0.9,0.1,0.9,0.1,0
					c0-1,0-0.8-0.1,0.5c-1.8-0.4,0.3,2.1,0,0.1c0.2,1.3-1.3,0.8,0.5-0.3c1.8-1.1-2.7,1.3,0.7-0.4c0.7-0.4,1.5-0.8,2.2-1.2
					c4.4-2.4,9-4.1,13.8-5.6c19-5.7,40.7-5.1,59.6,0.8c4,1.2,7.7,2.8,11.5,4.6c2.5,1.1,5,2.2,7.5,3.2c0.7,0.3,1.5,0.6,2.2,0.9
					c0.1,0,3.7,1.6,1.4,0.6c3.2,1.4,6.5,2.9,9.5,4.7c0.8,0.5,1.6,1,2.4,1.6c1.6,1.2-1.8-2,0.5,0.5c0.5,0.5,1.1,1.1,1.6,1.6
					c2,1.9-0.5-1.4,0.8,1c1.1,2.2,2,4.3,2.1,7.1c0.1,2,0.1,4-0.1,6c-0.2,2.3,0.7-2.8-0.1,1c-0.2,1.2-0.5,2.4-0.8,3.6
					c-1.7,6.1-4.7,10.7-9.2,15.3c-10.8,11.3-26.7,19-42.1,26.8c-12.7,6.5-3.9,27.6,9.8,23.2c3.4-1.1,5.8-2.8,8.8-4.6
					c6.6-3.9,8.9-14.5,2.6-19.9c-10.7-9.1-24-3.5-35.3,1.4c-2,0.9-4,1.8-6,2.7c-2.6,1.2,2.5-0.7-0.4,0.2c-1.9,0.5-3.9,1.2-5.8,1.8
					c-7.5,2.2-15.1,4.4-22.8,6c-6.2,1.3-12.4,2.2-18.7,3.1c-2.8,0.4-3.2,0.5-6.9,0.9c-3.1,0.3-6.1,0.6-9.2,0.7
					c-6.2,0.2-11.3,0-15.8-1.1c-5-1.2-8.2-2.8-11.2-5.8c-3,7.2-6,14.4-9,21.6c4.7,0.4,9.3-1.1,13.2-3.6c1.3-0.8,2.8-1.8,4-2.8
					c1.5-0.9,1.5-1,0-0.3c0.4-0.1,0.8-0.2,1.2-0.3c0.4-0.1,0.9-0.2,1.3-0.3c-1.7,0.2-1.8,0.2-0.3,0c1.6-0.1,3.1-0.3,4.7-0.4
					c2.9-0.2,5.8-0.5,8.7-0.8c12.9-1.5,26.2-6.4,25.6-21.8c-0.4-10.5-6.4-21.1-12.2-29.6c-5.4-8-12.3-18-22-21
					c-8.7-2.7-15,4.5-16,12.2c-0.8,6.1,2.1,12.4,5.4,17.4c1.3,1.9,2.7,3.8,3.9,5.8c0.7,1.1,1.4,2.2,2,3.4c-0.2-0.5-0.3-1.7-0.3-0.6
					c0,1.7,0.6-2.1,0.1-0.4c-0.4,1.3,0.2-0.8,0.2-0.9c0.4-2.1,0.6-0.7-0.1-0.1c0.8-0.8,1.3-1.5,2.5-1.9c0.8-0.2,1.5-0.1,2.2-0.1
					c2.1-0.1-0.3-0.1-0.2-0.2c0.4-0.1,2.5,1.4,0.2-0.1c-0.8-0.5-1.2-0.8-0.2,0c-0.9-0.7-1.8-1.6-2.6-2.4c-0.4-0.4-0.8-0.9-1.2-1.3
					c-1.4-1.5,0.9,1.4-0.2-0.2c-0.6-0.9-1.2-1.8-1.7-2.7c-0.3-0.4-0.5-0.8-0.7-1.3c0.7,1.4-0.1-0.3-0.3-0.8c-0.5-1.7-1.1-3.3-1.5-5
					c-0.1-0.7-0.3-1.4-0.4-2c0,0.3,0.1,1.5,0.1,0.1c0-0.7,0.2-4.5-0.1-2.1c0.1-0.7,1-3.7,0.7-2.9c-0.4,1,0.9-1.6,1.2-2.1
					c0.2-0.3,1.6-2.2,0.8-1.2c-0.8,1,0.6-0.6,0.6-0.6c2.5-2.3,3.6-3.4,6-5.1c2-1.4,4.1-2.7,6-4.2c1.1-0.9,1.3,0.1-0.5,0.1
					c-1.7-0.1-1.9,0.2-3.9-0.4c1.6,0.5-3.7-1.3-3.1-1.4c0.4-0.1,1,1.5,0.4,0.4c3.4,6.3,6,12.8,9.9,18.8c3.2,5,6.2,10.3,8.6,15.7
					c0.6,1.5,1.9,4.7,2.6,7.2c0.4,1.3,0.7,2.6,0.9,4c-0.4-1.8,0.1,1.9,0.1,2.8c0-0.2,0.5-2,0-0.8c-0.5,1.4,0.4-0.8,0.4-0.9
					c-1,1.1-0.5,0.2,0.5-0.4c-1.3,0.8,0.1,0.3,0,0.2c-0.1,0,1.2-0.6-0.1,0c-0.3,0.1-1.6,1-0.1,0.2c1.4-0.7-1.5,0.4-2.1,0.6
					c-0.7,0.2-1.3,0.3-2,0.4c0.2,0,2.2-0.2,0.7-0.1c-1.1,0-2.2,0.1-3.3,0.2c-2.6,0-5.3-0.1-7.9-0.4c-0.7-0.1-4.4-0.6-1.6-0.2
					c-1-0.2-2.1-0.3-3.1-0.5c-2.5-0.4-5.1-0.8-7.5-1.4c-5-1.3-8.9-4.3-12.8-8.8c-3.5-4.1-6.3-9.4-7.6-14.5c-0.9-3.4-0.8-2.9-0.8-6.7
					c0-0.6,0.3-3.7,0-1.7c0.2-1.5,0.6-2.9,1-4.3c0.2-0.5,1.5-4,0.7-2.3c0.5-1.2,1.1-2.3,1.8-3.4c1.8-3.1,2.3-3.8,4.1-5.9
					c4.1-4.7,7.9-7.8,12.3-10.7c11.1-7.2,21.6-10.7,35.5-13.4c15.2-2.9,30.6-2.6,45.9-2.7c14.3-0.1,28-0.1,41.4,4.9
					c1.5,0.6,3.9,1.7,6.3,3.1c1.1,0.7,2.2,1.4,3.3,2.1c0.5,0.3,1.1,0.7,1.6,1.1c-1.5-1.1,0.6,0.5,0.8,0.8c0.9,0.8,1.8,1.6,2.6,2.5
					c0.4,0.4,2.3,2.6,1.7,1.8c-0.5-0.7,1.3,1.9,1.7,2.5c0.7,1.1,1.3,2.3,1.9,3.5c0.6,1.3-0.1-0.2-0.2-0.4c0.3,0.7,0.5,1.4,0.7,2.1
					c0.3,1.1,0.5,2.2,0.8,3.3c0.6,2.3,0.1-1.3,0.2,1.1c0.1,1.5,0.1,3.1,0.1,4.6c0,0.8-0.5,3.4-0.1,1.3c-0.3,1.4-0.6,2.8-1,4.2
					c-1,3.4-1.1,3.6-2.3,6.1c-11.3,21.8-36.7,33.4-59.8,39.5c-12.5,3.3-22.4,4.7-34.8,5.4c-8.8,0.5-17.6,1.1-26.5,1.2
					c-5.1,0-10.2-0.1-15.2-0.5c-1.1-0.1-2.2-0.2-3.4-0.3c-0.9-0.1-3.3-0.4-1.1-0.1c-2.5-0.4-5.1-0.8-7.5-1.4
					c-2.2-0.5-4.4-1.1-6.6-1.8c-1-0.3-1.9-0.7-2.9-1c-1.7-0.6,1.9,0.9,0.2,0.1c-0.6-0.3-1.2-0.6-1.8-0.9c-1.9-1-3.6-2.1-5.3-3.3
					c1.8,1.3,0.5,0.4-0.3-0.4c-0.9-0.9-1.7-1.8-2.6-2.7c1.4,1.6,0.4,0.6-0.2-0.5c-0.5-0.8-0.9-1.7-1.4-2.5c-1-1.8,0.4,1.8-0.4-1.1
					c-0.3-1.2-0.6-2.4-0.9-3.6c-7.1,4.1-14.1,8.2-21.2,12.3c3.5,2.8,6.9,5.7,8.9,9.7c6.6-5.1,13.3-10.2,19.9-15.4
					c-1.8-1.4-3.1-2.5-4-3.9c-1-1.7-0.7-1.9-0.6-3.9c0.3-5.5-4.2-10.8-9.3-12.2c-5.9-1.6-10.8,1.3-14.3,5.8
					c-1.1,1.5-1.8,3.5-2.2,5.4c7.1-1.9,14.1-3.7,21.2-5.6c-1.6-1.4-1.9-2.7-1.1-0.3c-0.3-0.7-0.5-1.5-0.6-2.2
					c0.2,1.5,0.3,1.4,0.2-0.1c0.1-1.3,0.1-1.6,0-0.7c-0.1,0.9,0,0.7,0.3-0.7c0.2-0.4,1.7-4.6,1-3c2.5-5.6,6.3-10.7,10-15.6
					c4.2-5.4,0.8-14.2-4.5-17.3C57.9,92.4,51.3,95.3,47.1,100.7L47.1,100.7z"/>
			</g>
		</g>
		<g>
			<g>
				<path class="st26" d="M59.6,356.6c-0.2,1.7-0.5,3.3-0.6,5c0.6-2.1,1.2-4.3,1.7-6.4c-0.1,0.1-0.1,0.2-0.2,0.3
					c7.3,0,14.6,0,21.9,0c-0.2-0.3-0.3-0.6-0.5-0.9c0.4,3.3,0.9,6.5,1.3,9.8c4.4-14.2,3.8-29.6,7-43.7c3.6-15.6,7.4-31.2,11.9-46.6
					c3.6-12.4,7.2-24.8,11.5-37c0.8-2.4,1.7-4.7,2.6-7c0.6-1.4,0.6-1.6,0.2-0.5c0.3-0.6,0.5-1.2,0.8-1.8c0.6-1.3,1.3-2.7,2-4
					c1.1-2.1,2.3-4.1,3.7-6c-1.8,2.3,0.6-0.2,0.7-0.6c1.1-0.9,0.9-0.9-0.4,0.2c0.5-0.3,1-0.6,1.5-0.8c6.1-3.1,7.9-11.7,4.5-17.3
					c-3.6-6.2-11.2-7.7-17.3-4.5c-11.3,5.7-16.7,19.9-21,30.9c-5,13-8.7,26.5-12.6,39.8c-5,16.9-9.2,34.1-13.1,51.3
					c-1.9,8.4-2.6,17-3.5,25.6c-0.8,8.3-5.5,18.5-1.1,26c4.9,8.4,16.8,8,21.9,0c0.7-1,1.1-2.1,1.5-3.3c0.6-3.9,0.6-4.5,0.2-1.6
					c1-6.8-1.7-13.6-8.8-15.6C69.3,346.2,60.6,349.8,59.6,356.6L59.6,356.6z"/>
			</g>
		</g>
		<g>
			<g>
				<path class="st26" d="M93.2,354.4c8-13.8,12.6-29.6,19.2-43.6c6.1-13,13.5-26.9,14-42.1c0.2-6.8-6-12.7-12.7-12.7
					c-7.1,0-12.4,5.8-12.7,12.7c-0.1,2.7-0.3,3.7-1.3,7.2c-0.9,3.3-2.1,6.6-3.4,9.8c-2.4,5.8-5.7,11.5-8.1,17.4
					c-5.3,13-9.9,26.3-16.9,38.5C63.2,355.7,85.1,368.5,93.2,354.4L93.2,354.4z"/>
			</g>
		</g>
		<g>
			<g>
				<path class="st26" d="M172.6,489.7c-4.6-7.9-6.1-17.4-7.5-26.5c-1.6-10-3.6-20-5.8-29.9c-2.4-10.6-5-21.1-6.7-31.9
					c-1.7-10.6-2.6-21.4-3.5-32.1c-1-11.4-0.9-22.9-2.2-34.2c-1.3-11.4-4.1-22.5-6.7-33.7c-2.5-10.4-4.7-20.9-6.6-31.4
					c-1.7-9.3-3-19.2-1.5-28.5c1.4-9.4,4.3-17.9,8.2-25c4.5-8.2,9.3-13.5,16.3-20.5c11.5-11.6-6.4-29.5-17.9-17.9
					c-13.4,13.4-23.7,28.5-28.8,46.9c-6.3,22.9-2.3,45,2.5,67.7c2.4,11.7,5.5,23.2,7.8,34.8c2.2,10.7,2.1,21.6,2.8,32.5
					c1.7,24.2,4.6,48.3,10,71.9c2.7,11.8,5.4,23.6,7.3,35.6c1.9,12.2,4.2,24.2,10.5,35C159,516.5,180.9,503.8,172.6,489.7
					L172.6,489.7z"/>
			</g>
		</g>
		<g>
			<g>
				<path class="st26" d="M180.6,486.4c4.9-23.2,6.7-46.9,7.9-70.6c1.1-20.8,1.8-41.9-3.1-62.3c-0.9-3.9-4.7-8.2-8.8-8.8
					c-1-0.2-2-0.4-3.1-0.6c-0.3-0.1-2.4-1-1.2-0.4c1.4,0.7-1.1-0.8-1.4-0.9c1,0.6,0.9,0.9,0,0c-1.3-1.3-2.5-2.5-3.6-3.9
					c1.7,2-1.2-1.6-1.6-2.2c-5.6-7.4-10.9-13-19.6-16.6c-4-1.7-9.4,0.4-12.3,3.3c-3.5,3.5-4,7.7-3.3,12.3
					c5.2,33.7,10.5,67.7,22.3,99.9c2.4,6.4,8.6,10.8,15.6,8.8c6.2-1.7,11.2-9.1,8.8-15.6c-11.8-32.1-17.2-66.2-22.3-99.9
					c-5.2,5.2-10.4,10.4-15.6,15.6c-1.6-0.7-0.6-0.2,0.3,0.4c1.5,1-1.4-1.4-0.1-0.1c1.2,1.1,2.2,2.2,3.3,3.4
					c2.3,2.5-0.9-1.2,0.3,0.4c0.5,0.7,1.1,1.4,1.6,2.2c1.4,1.9,2.8,3.7,4.3,5.6c5.2,6.5,12.4,11.5,20.7,12.8
					c-2.9-2.9-5.9-5.9-8.8-8.8c4.3,17.8,3.2,37,2.2,55.6c-1.1,21.4-2.6,42.8-7,63.8c-1.4,6.7,2,13.7,8.8,15.6
					C171.3,497,179.2,493.2,180.6,486.4L180.6,486.4z"/>
			</g>
		</g>
		<g>
			<g>
				<path class="st26" d="M150.3,379.1c0.1,0.4,0.6,3.1,0.2,0.9c-0.4-2.1,0,0.5,0,0.8c0.2,2.1,0.5,4.3,0.8,6.4
					c7.7-3.3,15.4-6.5,23.2-9.8c-0.3-0.5-0.5-0.9-0.8-1.4c-0.9-1.8,0.1,0,0.3,0.8c-0.2-1.1-0.9-2.3-1.2-3.4c-0.6-1.8-1-3.7-1.4-5.5
					c-1.3-6.5-9.4-10.8-15.6-8.8c-7,2.2-10.2,8.6-8.8,15.6c1,5.3,2.9,11,5.7,15.6c3.3,5.4,10,7.6,15.8,5.2c6.2-2.6,8.4-8.6,7.3-14.9
					c0.2,1,0.3,2.8,0.1,0.7c-0.1-0.7-0.1-1.3-0.2-2c-0.2-2.3-0.5-4.6-1-6.8c-1.4-6.5-9.3-10.9-15.6-8.8
					C152.3,365.7,148.8,372.1,150.3,379.1L150.3,379.1z"/>
			</g>
		</g>
		<g>
			<g>
				<path class="st26" d="M174.3,198.1c11.5,6,19.8,15.9,26.6,27.4c7.1,12,11.8,24,14.5,38c0.2,1,0.4,2,0.5,3
					c0.6,3.2-0.1-1.6,0.1,0.9c0.3,2.8,0.6,5.6,0.7,8.4c0.4,5.9,0.4,11.8,0.2,17.7c-0.1,2.9-0.3,5.8-0.5,8.7c-0.1,1.7-0.3,3.3-0.5,5
					c0,0.1-0.3,2.1-0.1,0.8c0.2-1.4-0.3,1.7-0.3,2c-1,6-2.3,11.9-4.2,17.6c-0.5,1.4-1,2.9-1.5,4.3c0.9-2.4-0.9,1.8-1.2,2.4
					c-0.6,1.2-1.3,2.4-2,3.6c-0.4,0.7-3.2,4.1-1.2,1.8c-0.8,0.9-1.7,1.8-2.5,2.7c-0.4,0.4-0.9,0.8-1.4,1.2c0.8-0.7,1.7-0.8,0.4-0.4
					c-2.8,1-1.5,1-1,0.7c-0.4,0.1-0.9,0.2-1.3,0.3c0.9-0.1,0.9-0.2,0-0.1c-2.2,0.1-4.3,0.1-6.5,0.3c1.1,8.3,2.2,16.6,3.4,24.9
					c7.4-2.1,13.8-6,20.3-9.8c-5.8-5.8-11.6-11.6-17.3-17.3c-3.9,9-4.7,17.2-3.3,26.9c1,7,3.4,13.8,3.9,20.9
					c7.9-2.1,15.7-4.3,23.6-6.4c-1.5-2.5,0.2,2.1-0.5-1c-0.3-1.2-0.6-2.3-0.9-3.5c-0.5-2.2-0.8-4.4-1.4-6.5c-1.7-6-5-11.6-10.7-14.6
					c-8-4.3-19.6,1-19.1,10.9c0.6,12.8,4.8,24.6,9.3,36.4c4.3,11.6,7.6,23.5,12.4,34.9c3.6,8.8,6.4,17.6,9.8,27.3
					c3.6,10.2,8,20.8,16.1,28.2c7.8,7.1,22,2.5,21.6-9c-0.2-8.3,2.7-16.3,2.4-24.6c-0.3-9.3-1.7-18.5-2.2-27.8
					c-1.1-17.7-0.7-35.5-1.7-53.3c-1-17.1-3.4-34.1-4-51.2c-0.7-17.6-2.1-35.4-9.4-51.6c-2.8-6.2-11.9-7.7-17.3-4.5
					c-6.4,3.8-7.3,11.1-4.5,17.3c-0.4-0.8,1,3.5,1.2,4.3c0.5,1.6,1,3.2,1.5,4.9c0.9,3.4,1.5,6.8,2,10.3c1,8.1,1.1,16.4,1.4,24.5
					c0.7,16.7,3.4,33.1,4,49.8c0.7,17.1,0.5,34.3,1.7,51.4c0.6,8.9,2,17.9,2.2,26.8c0.1,7.9-2.7,15.6-2.5,23.7c7.2-3,14.4-6,21.6-9
					c-0.7-0.7-1.4-1.4-2.1-2.1c-0.8-0.8,0.5,0.9-0.7-0.8c-1.2-1.8-2.3-3.7-3.3-5.6c-1.9-3.7-2.8-6.3-4.3-11.1
					c-3-8.9-6-17.6-9.6-26.3c-4.3-10.4-7.2-21.2-11.1-31.7c-3.7-10-8.4-21.1-9-31.3c-6.4,3.6-12.7,7.3-19.1,10.9
					c3,1.6-3-3.2-1.3-1.5c1,1-0.4-1.5,0-0.1c0.6,1.9,1,3.8,1.4,5.8c0.9,4.3,2,8.5,4.3,12.4c6.2,10.3,24.4,6.6,23.6-6.4
					c-0.4-7.2-2-14.1-3.5-21c-1-4.5-2.3-9.7-0.5-13.9c2.3-5.3,2.3-11-2-15.4c-4-4-10.5-4.8-15.4-2c-4.6,2.7-9.1,5.8-14.3,7.3
					c-6,1.7-10,7.7-9.1,13.9c0.9,5.8,6.1,11.5,12.4,11c4.4-0.4,8.9-0.1,13.2-1.1c5-1.1,9.3-3.9,13.1-7.2c4.7-4.1,8.5-9.4,11.3-15
					c6.7-13.5,9.5-28.3,10.9-43.2c2.8-29.5-1.9-58.3-15.7-84.8c-8.8-17-21.7-33.4-38.9-42.4c-6.1-3.2-13.8-1.6-17.3,4.5
					C166.4,186.4,168.2,194.9,174.3,198.1L174.3,198.1z"/>
			</g>
		</g>
		<g>
			<g>
				<path class="st26" d="M216.2,324.9c-2.6,29-3.1,58,2.2,86.7c1.9,10.4,4.7,20.7,7.2,30.9c2.6,10.6,6.3,20.8,15.5,27.3
					c4.6,3.3,11.5,1.7,15.4-2c11.1-10.6,8-30.4,6.6-44.1c-2.1-19.8-2.6-39.6-5.7-59.3c-1.1-6.8-9.5-10.5-15.6-8.8
					c-7.2,2-9.9,8.8-8.8,15.6c2.6,16.7,2.7,33.5,4.5,50.3c0.7,6.6,1.5,13.2,1.5,19.9c0,1.5,0,3.1-0.1,4.6c-0.1,1.1-0.7,4.6-0.1,1.8
					c-0.2,0.7-1.2,4.5-0.5,2.7c0.7-1.7,0.1-0.2-0.2,0.2c-0.9,1.2,2.2-2.3,0.5-0.7c5.1-0.7,10.2-1.3,15.4-2c3,2.2-0.8-1.4,1.2,1.3
					c-0.4-0.5-0.8-1.1-1.1-1.7c-0.6-0.9-1.1-2-1.5-3c0.7,1.7,0-0.1-0.2-0.9c-1.3-4.2-2.4-8.4-3.4-12.7c-2.2-9.9-5-19.7-6.7-29.7
					c-4.2-25.1-3-51-0.7-76.3c0.6-6.8-6.3-12.7-12.7-12.7C221.5,312.2,216.8,318.1,216.2,324.9L216.2,324.9z"/>
			</g>
		</g>
		<g>
			<g>
				<path class="st26" d="M225.4,344.7c0.9-3.2,1.7-6.4,2.7-9.5c0.1-0.4,1.8-4.8,1-3c0.7-1.5,1.5-3,2.5-4.4
					c3.6-5.6,1.3-14.2-4.5-17.3c-6.3-3.3-13.5-1.4-17.3,4.5c-4.5,7-6.4,15.1-8.7,23c-1.9,6.4,2.3,14.1,8.8,15.6
					C216.6,355.1,223.4,351.5,225.4,344.7L225.4,344.7z"/>
			</g>
		</g>
		<g>
			<g>
				<path class="st26" d="M226.9,255c10.4,16,23.4,30,35.1,45c10.3,13.3,17.2,29.3,29.5,41.1c10.5,10.1,26.6-2.6,19.9-15.4
					c-6.9-13.1-8.5-28.2-15.1-41.5c-6.9-13.9-16.4-26.4-23-40.6c-7.3,4.3-14.6,8.5-21.9,12.8c6.8,10.4,14,20.5,20.2,31.2
					c3.4,5.9,11.4,8,17.3,4.5c6.5-3.8,7.3-11,4.5-17.3c-9.8-22.7-27-41.5-41.4-60C240,199.2,227.6,178,205.7,173
					c-7.3-1.7-16.9,3.6-16,12.2c0.9,9.3,4.4,17.6,9.7,25.3c2.6,3.9,5.6,7.5,8.5,11.2c2.5,3.2,4.6,5.6,6.2,8
					c7.3,10.7,13.4,26.7,26.9,30.8c15.6,4.8,22.3-19.7,6.7-24.4c2,1,2.4,1.1,1.2,0.4c1.4,1.2,1.6,1.3,0.5,0.3
					c-0.7-0.8-1.4-1.5-2.1-2.3c-0.9-1.1-1-1.2-0.2-0.2c-0.5-0.7-1-1.4-1.5-2c-0.7-1.1-1.4-2.1-2.1-3.2c-2.8-4.4-5.3-9-8.3-13.2
					c-4-5.6-8.8-11-12.6-16.2c-2.1-2.9-4-5.8-5.6-9c-0.9-1.8-0.3-0.2-1-2.2c-0.2-0.6-1.1-5.1-0.9-3.2c-5.3,4.1-10.7,8.1-16,12.2
					c4.6,1.1,5.8,1.6,9.9,4.7c-1.4-1,1.6,1.4,1.6,1.4c0.7,0.6,1.3,1.2,2,1.9c1.6,1.6,3.2,3.3,4.7,5.1c5.7,6.7,11.1,14.9,17.2,22.6
					c13.9,17.4,28.2,33.8,37.2,54.6c7.3-4.3,14.6-8.5,21.9-12.8c-6.2-10.7-13.4-20.9-20.2-31.2c-3.7-5.7-11.2-8.1-17.3-4.5
					c-6.4,3.7-7.4,11.1-4.5,17.3c6.6,14.2,16.1,26.6,23,40.6c6.5,13.2,8.1,28.3,15.1,41.5c6.6-5.1,13.3-10.2,19.9-15.4
					c-11-10.5-17.9-26.1-27.5-38.5c-11-14.2-23.3-27.3-33.1-42.4c-3.7-5.7-11.2-8.1-17.3-4.5C225.7,241,223.2,249.2,226.9,255
					L226.9,255z"/>
			</g>
		</g>
		<g>
			<g>
				<path class="st26" d="M121.2,348.2c-0.2,9.5,1.2,18.9,3.2,28.2c2.6-1.1,5.1-2.2,7.7-3.3c-5.5-12.9-3-27.6-6.2-41.1
					c-1.1-4.7-8.2-3.6-8.3,1.1c-0.6,44.1,8,89,23.8,130.2c2.6-1.1,5.1-2.2,7.7-3.3c-8.7-11.8-13-27.7-12.4-42.3
					c0.2-5.4-8.2-5.4-8.4,0c-0.7,15.9,4.1,33.7,13.5,46.6c2.6,3.5,9.6,1.6,7.7-3.3c-15.6-40.5-24.1-84.5-23.5-127.9
					c-2.8,0.4-5.5,0.7-8.3,1.1c3.4,14.4,1.1,29.2,7,43.1c2,4.6,8.7,1.2,7.7-3.3c-1.9-8.6-3.1-17.2-2.9-26
					C129.8,342.7,121.4,342.7,121.2,348.2L121.2,348.2z"/>
			</g>
		</g>
		<g>
			<g>
				<path class="st27" d="M138.5,124.8c2.6,1.9,5.4,3.4,8.2,4.9c1.1-2.6,2.2-5.1,3.3-7.7c-5.5-1.8-9.5-5.3-15.5-5.5
					c1.2,2.1,2.4,4.2,3.6,6.4c1.3-2.6,11.7-1.4,14.3-1.8c-1.4-2.4-2.7-4.7-4.1-7.1c-1.7,1.7-3.2,3.4-5,5c-3.5,3,0.3,7.8,4.1,7.1
					c5.9-1.1,11.4-4.1,14.4-9.3c1.6-2.7-0.4-6.4-3.6-6.4c-4.2,0.1-8.1,1.3-12.2,1.9c-5.4,0.8-3.1,8.9,2.2,8.1
					c3.4-0.5,6.6-1.5,10-1.6c-1.2-2.1-2.4-4.2-3.6-6.4c-2,3.4-5.6,4.8-9.3,5.5c1.4,2.4,2.7,4.7,4.1,7.1c1.8-1.5,3.4-3.3,5-5
					c3.3-3.2-0.2-7.6-4.1-7.1c-6.4,0.9-15.7-1.5-19.4,5.7c-1.5,2.9,0.3,6.2,3.6,6.4c4.8,0.2,8.8,3.7,13.3,5.2
					c4.5,1.5,7.4-5.4,3.3-7.7c-2.8-1.5-5.6-3-8.2-4.9C138.4,114.3,134.2,121.6,138.5,124.8L138.5,124.8z"/>
			</g>
		</g>
	</g>
	<g>
		<g>
			<path d="M148.3,128.7c-2.1-1-4.2-2-6.3-3.1c-0.8-0.4-8.4-5.9-8.7-5.8c0.1,0,0.3,2.5-0.2,2.1c0.1,0,0.4-0.6,0.7-0.7
				c1-0.4,2-1.3,2.9-1.8c3-1.5,6.2-2.6,9.5-3.4c3.2-0.8,6.4-1.4,9.7-1.4c1.2,0,2.7,0.5,3.9,0.4c1.7-0.1,0.5,1.4,0.8-0.6
				c-0.5,2.9-5.7,6.2-7.8,7.8c-3.1,2.5-6.4,4.7-9.6,7.1c-4.3,3.3,1.7,9.3,6,6c5.8-4.5,23.8-14.1,19.2-23.7c-3.8-8.1-17.4-5.5-24-3.9
				c-5.8,1.4-19.4,5-19.4,13c0,7.7,13.4,12.7,19.1,15.3C149,138.2,153.3,130.9,148.3,128.7L148.3,128.7z"/>
		</g>
	</g>
	<g>
		<g>
			<path d="M98.1,160.7c8.7,11.5,23.7,11.9,35.7,5.4c13-7,20.8-21,17.4-35.6c-2.7,0.7-5.4,1.5-8.1,2.2c4.7,15.8,17.7,27.8,34.7,27.7
				c15.6-0.1,28.8-10.6,32.4-25.7c1.3-5.3-6.9-7.5-8.1-2.2c-2.7,11.5-12.4,19.5-24.3,19.5c-13.2,0.1-22.9-9.3-26.5-21.5
				c-1.5-5.2-9.4-3.1-8.1,2.2c2.4,10.6-3.5,20.4-12.6,25.6c-7.6,4.4-19,6-25.1-1.9C102.2,152.1,94.9,156.3,98.1,160.7L98.1,160.7z"
				/>
		</g>
	</g>
	<g>
		<g>
			<path d="M106.1,192.4c-5.3,6.1-9.1,13.6-12.6,20.9c-5.2,10.8-9.6,21.9-13.8,33.1c-9.3,25.4-17.2,51.6-21.9,78.3
				c-1.8,10.4-3.3,21.1-2.9,31.7c0.3,6.8,1.3,14.8,6.4,19.8c15.3,14.9,32-13.7,37.8-24.4c9.1-17,16.4-35.2,22.3-53.6
				c-2.8-0.4-5.5-0.7-8.3-1.1c-1.1,17.4-0.7,35.1,0.2,52.5c1.8,37.6,6.9,75.4,17.2,111.7c2.8,9.8,5.9,19.6,9.8,29
				c3,7,6.6,14.6,12.7,19.4c9.4,7.5,19.1,1.2,24.6-7.6c6.3-10,8.9-21.8,10.7-33.4c2.1-13.7,3.1-27.6,3.7-41.5
				c1-21.2,1.2-42.4,0.5-63.6c-2.8,0.4-5.5,0.7-8.3,1.1c6,28.1,13.8,56,23.2,83.1c4.4,12.8,9.2,25.8,15.9,37.6
				c5.1,8.9,15.7,23.2,27.8,19.4c12.9-4.1,15.5-24.4,17.1-35.5c2.1-15.1,2.5-30.4,2.1-45.6c-0.8-31.7-4.8-63.4-10-94.7
				c-3-18-6.3-36-10.5-53.7c-2.6,1.1-5.1,2.2-7.7,3.3c6.5,12.3,50.8,96.4,70.9,66.4c4.3-6.4,3.8-15,2.9-22.2
				c-1.5-11.7-5.3-23.1-9.7-34c-11.3-28-27.3-54.1-47-76.9c-13-15-27.3-29.4-43-41.6c-4.2-3.3-10.3,2.6-6,6
				c32.9,25.6,60.5,58.9,79.3,96.1c5.6,11.1,10.5,22.5,14.1,34.3c2.6,8.6,5.2,18.1,4.3,27.2c-0.4,3.7-1.8,9-6.3,8.9
				c-6.3-0.2-12.8-8.7-16.5-12.9c-14.3-16.5-25.6-36.2-35.8-55.4c-2.3-4.3-8.8-1.3-7.7,3.3c9.6,40.6,16.2,82.4,19.1,124
				c1,14.9,1.5,29.9,0.9,44.9c-0.6,14.2-1.2,30.5-7.5,43.5c-1.6,3.4-4.2,7.8-8.5,6.8c-5.7-1.4-10.7-8.4-13.6-13
				c-6.5-10.2-10.8-21.9-14.9-33.3c-10.3-28.6-18.6-58.3-24.9-88.1c-1-4.7-8.4-3.6-8.3,1.1c0.5,15.9,0.4,31.9,0,47.8
				c-0.3,13.3-0.9,26.6-2.2,39.9c-1,11.1-2.3,22.4-5.6,33.1c-1.7,5.3-7.5,23-15.9,20.1c-5.7-2-9.1-10.4-11.4-15.3
				c-4.2-9.1-7.1-18.9-9.9-28.5c-10-34.4-15-70.1-17.1-105.8c-1.1-19.1-1.7-38.5-0.5-57.7c0.3-4.9-6.9-5.5-8.3-1.1
				c-4.4,13.8-9.8,27.3-15.9,40.4c-4.3,9.2-9,18.7-15.4,26.7c-2.2,2.8-4.7,5.7-7.9,7.4c-2.4,1.3-3.9,1.5-5.9,0.4
				c-1.4-0.8-2.5-2.4-3.2-4.5c-1.1-3-1.5-6.2-1.6-9.4c-0.5-9.6,0.7-19.2,2.3-28.7c4.2-24.7,11.3-49,19.6-72.6
				c4.2-12,8.8-24,14.2-35.5c3.5-7.4,7.3-15.9,12.5-21.9C115.6,194.3,109.7,188.3,106.1,192.4L106.1,192.4z"/>
		</g>
	</g>
	<g>
		<g>
			<path d="M53,80.8c-19.7,18.4-32,44.6-24,71.7c6.3,21.2,23.6,34.6,44.1,41c18,5.7,37.8,6.7,56.4,4.3c19.1-2.5,38.1-5.8,56.7-10.9
				c35.7-9.9,79.4-29.2,86.9-70c3.7-20-2.1-39.2-17.5-52.7c-15.4-13.5-35.9-20.6-55.9-23.9c-21.1-3.5-42.7-2.2-63.7,1.2
				c-24.7,4-50.1,11.8-70.2,27.2C61.2,72.3,56.9,76.3,53,80.8c-3.5,4.1,2.4,10.1,6,6C74.4,69,97,59.3,119.4,53.6
				c20.2-5.2,41.7-7.8,62.5-6.8c31.8,1.6,81.6,15.4,83.9,54.3c2.3,39.4-34.1,61.8-66.8,73c-17.5,6-35.6,10-53.8,13
				c-16.2,2.6-32.1,4.4-48.5,2.7c-20.2-2.1-42.9-9.4-54.3-27.6c-7.4-11.9-9.4-27-5.9-40.5c3.6-13.7,12.2-25.4,22.4-34.9
				C63,83,57,77.1,53,80.8L53,80.8z"/>
		</g>
	</g>
	<g>
		<g>
			<path d="M73.4,71.5c-0.7-22.7-23.5-36.5-44.6-29.8C4.2,49.6-8.7,83.6,6.6,105c7.3,10.2,19.4,15,31.3,10c5-2.1,0.7-9.4-4.3-7.3
				c-10,4.2-19.7-4.3-23.2-13.2C5.1,81.3,10.6,65.5,20.7,56c15.2-14.2,43.5-6.9,44.2,15.6C65.1,77,73.6,77,73.4,71.5L73.4,71.5z"/>
		</g>
	</g>
	<g>
		<g>
			<path d="M230.4,49.9c-5.5-9-8.1-19.9-2.2-29.4c4.9-7.8,14.1-12.1,23.2-12.1c12.5,0,22.6,8.1,29.7,17.7c6.5,8.8,11,20.6,7,31.4
				c-4,10.9-15.3,14.6-26,12.2c-5.3-1.2-7.6,7-2.2,8.1c12.5,2.8,25.6-0.3,33-11.4c7.6-11.4,5.7-26.2-0.3-37.8
				c-7.1-13.7-20.1-26.1-35.8-28.4c-12-1.7-25,2.4-32.9,11.8c-10.5,12.4-9,28.7-0.8,41.9C225.9,58.7,233.2,54.5,230.4,49.9
				L230.4,49.9z"/>
		</g>
	</g>
	<g>
		<g>
			<path d="M155.7,193.9c-21.3,9.7-25,40.1-25.2,60.5c-0.3,25.8,4.8,55.1,19.7,76.8c5.9,8.5,14,16.4,24.4,18.7
				c12.4,2.7,23.9-2.7,30.9-12.9c8.3-12,10.6-27.9,11.6-42.2c0.8-13.1,0.7-27-2.3-39.9C209.4,231,189.2,177.1,155.7,193.9
				c-4.9,2.4-0.6,9.7,4.3,7.3c12-6,22.2,3.7,28.7,13.1c7.8,11.3,13.1,24.5,16.8,37.7c3,10.7,3.7,21.9,3.6,33
				c-0.1,13.3-1.3,27.5-6.5,39.9c-4.2,9.8-12,18.3-23.5,17.2c-8.4-0.9-15.2-6.8-20.1-13.2c-13.9-18.4-18.9-44.1-19.8-66.6
				c-0.5-13,0.3-26.2,4.2-38.7c2.8-9,7.6-18.2,16.6-22.3C164.9,198.9,160.7,191.6,155.7,193.9L155.7,193.9z"/>
		</g>
	</g>
	<path d="M98.5,114.5c3.3,7.3-0.7,16.2-8.9,19.9c-8.2,3.7-17.5,0.9-20.8-6.4c-3.3-7.3,0.7-16.2,8.8-19.9
		C85.9,104.4,95.2,107.3,98.5,114.5z"/>
	<path d="M224,89.1c3.3,7.3-0.7,16.2-8.9,19.9c-8.2,3.7-17.5,0.9-20.8-6.4c-3.3-7.3,0.7-16.2,8.9-19.9C211.3,79,220.7,81.8,224,89.1
		z"/>
</g>
</svg>
