<?xml version="1.0" encoding="utf-8"?>
<!-- Generator: Adobe Illustrator 19.1.0, SVG Export Plug-In . SVG Version: 6.00 Build 0)  -->
<svg version="1.0" id="Layer_1" xmlns="http://www.w3.org/2000/svg" xmlns:xlink="http://www.w3.org/1999/xlink" x="0px" y="0px"
	 viewBox="0 0 520.3 390.1" style="enable-background:new 0 0 520.3 390.1;" xml:space="preserve">
<style type="text/css">
	.st0{fill:#E1F4FD;}
	.st1{fill:#F2D8E0;}
	.st2{fill:#DFF0E3;}
	.st3{opacity:0.85;}
	.st4{opacity:0.3;fill:#FFFFFF;}
	.st5{opacity:0.3;fill:#F2D8E0;}
	.st6{fill:#FFFFFF;}
	.st7{opacity:0.3;fill:#DFF0E3;}
	.st8{opacity:0.4;fill:#FFFFFF;}
	.st9{opacity:0.3;fill:#E1F4FD;}
	.st10{fill:#F8DE8D;}
	.st11{fill:#BADAF3;}
	.st12{fill:#231F20;}
	.st13{fill:#010101;}
	.st14{fill:none;stroke:#010101;stroke-width:6.518;stroke-miterlimit:10;}
	.st15{fill:none;stroke:#FFFFFF;stroke-width:6.0438;stroke-miterlimit:10;}
	.st16{fill:#FAD6D7;}
	.st17{fill:#FFFEFE;}
	.st18{fill:#C2DE9F;}
	.st19{fill:#FCD6D6;}
	.st20{fill:#FEE777;}
	.st21{fill:#FAA958;}
	.st22{fill:#BADB93;}
	.st23{fill:#F9DE8C;}
	.st24{fill:#B0DAF4;}
	.st25{fill:#9C6026;}
	.st26{fill:#CB8F62;}
	.st27{fill:#714C1E;}
	.st28{fill:#9C9DCE;}
	.st29{fill:#FFC214;}
	.st30{fill:#DEE682;}
	.st31{fill:#F3DAB1;}
	.st32{fill:#F6B4C9;}
	.st33{fill:#FEC470;}
	.st34{fill:#FDC17E;}
	.st35{fill:#724F1F;}
	.st36{fill:#D22030;}
	.st37{fill:#00AFAC;}
	.st38{fill:#18A6DF;}
	.st39{fill:#FEDD10;}
	.st40{fill:#E74782;}
	.st41{fill:#FBD0D8;}
	.st42{fill:none;stroke:#000000;stroke-width:1.7659;stroke-miterlimit:10;}
	.st43{fill:#672F12;}
	.st44{fill:#F58C8E;}
	.st45{fill:#E8B674;}
	.st46{fill:#FFD89F;}
	.st47{fill:#FFEDB3;}
	.st48{fill:#5EB2E3;}
	.st49{fill:#7DB2E0;}
	.st50{fill:#F19C9D;}
	.st51{fill:#593712;}
	.st52{fill:none;stroke:#E7EFD6;stroke-width:0.4253;stroke-miterlimit:10;}
	.st53{fill:#D86464;}
	.st54{fill:#FEEBB1;}
	.st55{fill:#F8A95A;}
	.st56{fill:none;stroke:#010101;stroke-width:8.0507;stroke-linecap:round;stroke-linejoin:round;stroke-miterlimit:10;}
	.st57{fill:#95D4D1;}
	.st58{fill:#F6DD8C;}
	.st59{fill:#B0D9F4;}
	.st60{fill:#FFC118;}
</style>
<g>
	<g>
		<g>
			<g>
				<path class="st23" d="M26.3,118.6c7.5,10.1,13.4,21.6,23.1,30c3.3,2.9,9.9,3.3,12-1.5c5.4-12.5-1.4-24.3-9.1-34.1
					c-7.3-9.2-16-17.1-24.9-24.7c-3.8-3.3-11.9-2.9-12.8,3.4c-1.6,11.9,5.8,23.2,12.5,32.4c6.9,9.4,14.7,19.3,24.5,25.8
					c4,2.7,10.2,0.1,11.2-4.6c3.2-13.9-6.2-27.6-14.8-37.6c-8.7-10.2-20.8-21.1-34.3-24.2c-5.1-1.2-9.3,2.3-9.7,7.4
					c-1,13.2,9.5,24.3,17.5,33.5c9.6,10.9,17.3,23.6,28.4,33.1c6.2,5.3,17.1-1.6,12-9.3C55.4,138,47.2,129,39.8,119.5
					c-7.3-9.4-15.4-19.9-18.3-31.7c-0.6-2.3-0.8-4.5-0.7-6.8c0-1,0.4-0.5,0.1-1.1c0.3-0.9,0.2-0.8-0.2,0.3c-1.1,1.7-2.7,2.6-4.7,2.6
					c-1,0.1-1.1-0.7-1.7-0.4c0.6-0.2,0.9,0.6,1,0.6c1.4,1.2,2.7,2.6,3.9,4c4.5,5.2,8.3,11.3,12.2,17.2c5.4,8.2,17.9,1,13.2-7.7
					c-2.4-4.5-5.8-8.5-7.2-13.5c-3.7,2.9-7.5,5.8-11.2,8.6c9.2,5.1,14.2,16.6,18.4,25.7c4.9,10.6,8.9,21.8,14.6,32
					c4.8,8.7,17.4,1.1,13.2-7.7c-10.8-22.4-20.6-45.7-35.7-65.6c-2.5-3.3-6.6-5-10.5-2.7c-3.3,1.9-5.2,7.2-2.7,10.5
					c15.1,19.9,24.9,43.2,35.7,65.6c4.4-2.6,8.8-5.1,13.2-7.7c-6.1-11-10.2-23.1-15.7-34.5c-5.2-10.8-11.8-22.8-22.8-28.8
					c-5.7-3.1-13.2,2.1-11.2,8.6c1.9,6.3,5.7,11.4,8.8,17.1c4.4-2.6,8.8-5.1,13.2-7.7c-4-6.1-8.1-12.2-12.6-17.9
					c-4.3-5.4-10.9-13-18.7-10.7C3,70.8,5,85.8,7.2,93.5c3.4,11.7,10.6,22.2,17.9,31.8c7.8,10.3,16.7,19.8,23.8,30.5
					c4-3.1,8-6.2,12-9.3c-10.2-8.7-17.2-20.1-25.8-30.2c-5.9-6.8-16.4-15.7-15.6-25.6c-3.2,2.5-6.5,4.9-9.7,7.4
					c10,2.3,19,10.9,25.8,18.4c3.9,4.3,7.3,8.9,9.9,14.1c1,2,1.8,4.1,2.4,6.3c0.4,1.7,0.4,3.4,0.2,4.3c3.7-1.5,7.5-3,11.2-4.6
					c-1.1-0.7-1.6-1.1-3.2-2.6c-1.8-1.6-3.4-3.3-5.1-5c-3.5-3.7-6.9-7.7-10-11.8c-3.2-4.3-6.2-8.8-8.7-13.5
					c-0.9-1.8-1.7-3.5-2.3-5.5c-0.2-0.8-0.4-1.6-0.6-2.4c0.4,1.6,0.2-2.4-0.1-0.2c-4.3,1.1-8.5,2.3-12.8,3.4
					c7.3,6.3,14.5,12.7,20.9,19.9c3.3,3.7,6.3,7.6,8.6,12c0.9,1.8,1.8,3.7,2.1,5.7c-0.1-0.6,0.1,1.5,0.1,1.5c0,0.5-0.2,1.3-0.1,1.1
					c4-0.5,8-1,12-1.5c-8.7-7.5-14-17.8-20.7-26.9c-2.5-3.4-6.6-4.9-10.5-2.7C25.7,110.1,23.8,115.3,26.3,118.6L26.3,118.6z"/>
			</g>
		</g>
		<g>
			<g>
				<path class="st23" d="M78.9,136.5c3.4-10,7-21.2,14.8-28.7c-4-3.1-8-6.2-12-9.3c-5.7,9.5-8.7,21-15.6,29.8
					c4.4,1.8,8.7,3.6,13.1,5.4c-0.4-6.1,2-11.8,3.4-17.6c2-8.2-9.7-13.7-14-5.9c-9,16.3-23.7,39.3-15.2,58.5
					c4.4,9.9,15.8,16.7,24.9,21.7c10.5,5.9,21.7,10.5,32.3,16.2c8.7,4.7,16.4-8.5,7.7-13.2c-9.3-5-18.9-9.1-28.2-14
					c-7.3-3.8-18.5-8.9-22.6-16.5c-3.4-6.3,0.1-15.3,2.4-21.4c3.1-8.2,7.6-15.9,11.8-23.6c-4.7-2-9.3-3.9-14-5.9
					c-1.7,7.2-4.4,14.2-3.9,21.7c0.4,5.8,8.6,11.1,13.1,5.4c7.8-10,11.5-22.1,18-32.9c4.5-7.6-5.8-15.2-12-9.3
					c-9.8,9.3-14.5,22.9-18.7,35.4C61,141.8,75.8,145.8,78.9,136.5L78.9,136.5z"/>
			</g>
		</g>
		<g>
			<g>
				<path class="st23" d="M91.6,144.2c0.3-4.9-0.8-10.7-5.4-13.4c-5.6-3.3-11.1,0.4-14.2,5.2c-5.1,7.9-7.9,19.3-6.9,28.6
					c0.7,6.9,10.4,11.2,14.3,3.9c3.4-6.6,5.1-14.6,6.6-21.8c1.4-6.8,4.5-17.9-1.4-23.5c-9-8.6-16.9,4.2-19.6,11.4
					c-2.7,7-5.4,15.5-4.4,23.1c0.8,5.4,7.3,6.3,11.2,4.6c10.1-4.4,13-16.2,16.9-25.5c-5-0.7-10-1.4-15-2
					c-0.9,13.3-7.4,32.6,3.7,43.5c2.8,2.8,8,3.1,10.8,0c4.5-5.1,5.2-11.4,5.6-17.9c0.6-7.7,1.2-15.4,1.2-23.2c0-8.5-13-10.6-15-2
					c-2.2,9.6-2.2,20.1-1.5,29.9c0.6,7.6,2.1,20.3,12.4,20.1c16.5-0.4,11.5-29.7,11.8-40c-5.1,0-10.2,0-15.3,0c0,9.6-0.3,19,1,28.5
					c1,7.7,3.5,19.8,13.4,20.1c17.7,0.6,11.8-28.7,11.1-39c-0.7-9.8-15-9.9-15.3,0c-0.3,7.7,0,15.4,1.1,23.1
					c1,7.3,3.2,17.2,11.6,19.3c3.2,0.8,7-0.5,8.6-3.5c5.2-9.5,1.1-21,5.1-31c-4.9,0-9.8,0-14.8,0c1,6.8-0.3,13.7,1,20.6
					c1.3,7.4,13.3,7.3,14.8,0c2.6-13.4,10-24.6,19.1-34.5c7.6-8.3,19-16.1,20.1-28.2c0.6-7-8.6-9.6-13.1-5.4
					c-4.5,4.2-8.5,9-12.8,13.4c-3.1,3.1-8.3,8.5-13.1,8.2c-0.1,0,0.6,0.1,0.8,0.2c-0.4-0.3-0.9-1.3-1.2-1.8
					c-1.8-2.7-3.6-5.4-4.9-8.4c-2.2-4.9-2.6-10.2-1.3-15.3c2.1-8.1,8.4-18.7,17.8-19c8.7-0.3,12.7,9.3,12.7,16.7
					c0,5.6-2.5,10.8-6.3,14.8c-2.1,2.1-4.9,4.7-7.8,5.1c-4.1,0.5-7.5-1-11.7,0.1c-9.5,2.6-5.5,17.4,4.1,14.8c2-0.5,4.1,0.1,6.1,0.3
					c2.5,0.2,5.1,0,7.5-0.8c4.3-1.4,8.4-4.6,11.7-7.6c6.3-6,10.6-14.1,11.6-22.8c1.6-14.3-5.9-31.4-20.9-35.1
					c-16.8-4.1-31.1,8.7-37.2,23.2c-3.3,7.8-4.3,16.1-2.5,24.5c1.6,7.6,6.3,17,12,22.4c7.1,6.8,17.9,3.5,25-1.5
					c8.3-5.7,14.2-13.9,21.5-20.7c-4.4-1.8-8.7-3.6-13.1-5.4c-0.3,3.3-5.7,7.4-7.9,9.5c-4.7,4.5-9.2,9.3-13.3,14.3
					c-8.3,10.2-14.9,21.8-17.4,34.8c4.9,0,9.8,0,14.8,0c-1.2-6.8,0-13.8-1-20.6c-0.5-3.3-4.3-5.6-7.4-5.6c-3.6,0-6.1,2.5-7.4,5.6
					c-1.9,4.7-2.5,9.7-2.7,14.7c-0.2,3.6,0.9,9.5-0.9,12.6c2.9-1.2,5.8-2.3,8.6-3.5c0.4,0.1,1.9,0.8,1.3,0.8c0,0,0,0.6-0.1-0.4
					c-0.1-0.7-0.4-1-0.8-2.5c-0.8-2.9-1.1-5.9-1.4-8.8c-0.5-5.5-0.5-11.1-0.3-16.7c-5.1,0-10.2,0-15.3,0c0.3,4.9,1,9.7,1.3,14.5
					c0.1,3,0.3,6-0.1,9c0,0.1-0.6,1.4-0.6,2.4c0-0.8-0.1-0.2,0.2-0.4c2.6-1.8,2.1-1.7,6.2-1.1c1.4,0.2,1,1.6,0.4-0.2
					c-0.1-0.5-0.7-2.4-0.9-3.4c-0.6-2.6-0.9-5.2-1.1-7.9c-0.6-7.5-0.4-15.1-0.3-22.6c0.1-9.9-15-9.8-15.3,0c-0.2,4.7,0.2,9.3,0.2,14
					c0,3,0,6.1-0.4,9.2c-0.1,1-0.2,1.2-0.5,2.7c-0.3,1.4-0.4,0.8,0.3,0.3c2.6-1.9,4.7-0.6,7.5,0.2c1.1,0.3-0.1,0.9,0.2,0.1
					c-0.2,0.6,0.1,0.1-0.1-0.7c-0.1-0.6-0.3-1.2-0.4-1.8c-0.5-2.5-0.6-5.3-0.7-8c-0.2-7.2-0.5-14.8,1.1-21.9c-5-0.7-10-1.4-15-2
					c0,6.7-0.4,13.3-1,19.9c-0.2,2.5,0.4,8.4-1.4,10.4c3.6,0,7.2,0,10.8,0c-2.6-2.6-1.7-9-1.5-12.4c0.3-6.8,1.9-13.5,2.3-20.3
					c0.2-3.8-3.1-7.1-6.6-7.5c-4.1-0.5-6.9,1.9-8.4,5.5c-2.3,5.6-3.8,13.7-9.8,16.3c3.7,1.5,7.5,3,11.2,4.6c0.4,2.6,0.3-0.2,0.3,0.2
					c-0.1,0.4,0.4-2.1,0.5-2.8c0.6-3.1,1.4-6.1,2.4-9.1c0.8-2.6,1.5-4.4,2.8-6.7c0.8-1.4,0.1-0.4,0.2-0.4c0.1-0.1,0.3-0.3,0.4-0.4
					c-0.7,0.4-1.5,0.8-2.2,1.2c-3.7,0.3-6-0.8-7-3.4c-0.2-0.6-0.3-0.7-0.2-0.3c0,0,0-1.3,0,0c0,5.3-1.2,10.3-2.5,15.8
					c-0.7,3-1.6,6-2.5,8.9c-0.3,1.1-0.7,2.1-1.1,3.2c-0.7,2.1,0.4-0.6-0.3,0.8c4.8,1.3,9.5,2.6,14.3,3.9c-0.4-3.9,0-7.6,1-11.4
					c0.5-2.1,1.9-8.5,3.8-9.4c-1.3,0.3-2.6,0.7-3.9,1c0.2,0,0.5,0,0.7,0c-1.3-0.3-2.6-0.7-3.9-1c-3.2-2-1.7-3.8-1.9,0.4
					C75.7,154,91,154,91.6,144.2L91.6,144.2z"/>
			</g>
		</g>
		<g>
			<g>
				<path class="st23" d="M132.1,101c2.5-0.8,3.6-1.3,5.8,0c0.6,0.4,4.4,3.4,4.6,4c-1-4.6-1.5,1.3-1.5,2c-0.1,4,0.8,7.7-0.5,11.6
					c-1.4,4.1-3,7.5-3.6,11.9c-0.5,4.1,3.9,7.7,7.7,7.7c4.6,0,7.1-3.5,7.7-7.7c0.4-2.7,2.2-5.3,3.1-7.8c0.9-2.7,1.3-5.6,1.4-8.4
					c0.1-5.5,0.9-13.2-1.9-18.1c-2.1-3.7-7-7.5-10.7-9.4c-5.1-2.6-10.5-2.2-15.8-0.5C118.6,89.2,122.7,103.9,132.1,101L132.1,101z"
					/>
			</g>
		</g>
		<g>
			<g>
				<path class="st23" d="M90.6,117.6c2.1-7.6,4.5-15.1,8-22.3c3.5-7.2,8.8-13.1,12.9-19.9c5.1-8.7-7.5-15.5-13.2-7.7
					c-10.5,14.2-23,26.8-28.7,43.9c-3.2,9.4,11.3,13.1,14.8,4.1c4.2-11.2,10.3-21.4,17.2-31.1c2.8-3.9,5.5-7.8,8.1-11.8
					c2.1-3.2,4.7-7.9,8.5-9.4c3.8-1.5,6.5-5.1,5.3-9.4c-1-3.7-5.5-6.9-9.4-5.3C102.3,53.2,97.3,64.5,90.3,74
					c-8.6,11.7-15.7,24-20.8,37.6c4.9,1.4,9.8,2.7,14.8,4.1c5.2-15.5,17.7-27.3,27.2-40.2c-4.4-2.6-8.8-5.1-13.2-7.7
					c-4.3,7.4-10,13.7-13.6,21.5c-3.7,7.8-6.5,16-8.8,24.3C73.2,123,88,127.1,90.6,117.6L90.6,117.6z"/>
			</g>
		</g>
		<g>
			<g>
				<path class="st23" d="M27.8,68.3c-0.3-0.2-1.7-1.4-0.6-0.4c-1-0.9,0,0.2,0.2,0.8c-3.7,2.9-7.5,5.8-11.2,8.6
					c1.5,1-0.9-1.1,0.2,0.2c0.1,0.1,0.3,0.3,0.4,0.4c0.4,0.5,0.5,0.5,0.1,0c-0.3-1.2-0.1,0.4,0.2,0.4c-0.5-0.1-0.5-1.7-0.2-0.2
					c-0.1-0.4-0.1-0.8-0.2-1.2c0,0.6,0,0.5,0.1-0.2c0.3-1,0.5-1.9,1.3-2.6c-1,1,1.5-0.7,0.1-0.1c1.2-0.6,0.6-0.2-0.3,0
					c-3.9,1-6.6,5.5-5.3,9.4c1.3,4,5.3,6.4,9.4,5.3c5.5-1.4,10.2-5.8,10.1-11.8c-0.1-5.6-3.7-9.9-8-12.9c-5.3-3.7-13.5,2.5-11.2,8.6
					c1.4,3.9,3.9,6.6,7.4,8.7c3.4,2.1,8.6,0.9,10.5-2.7C32.5,75.1,31.4,70.6,27.8,68.3L27.8,68.3z"/>
			</g>
		</g>
		<g>
			<g>
				<path class="st23" d="M1.7,83.4c-0.3,0.9-0.5,1.8-0.6,2.7C0.8,88,0.5,90,1.2,91.8C1.5,92.4,1.7,93,2,93.6c0.5,0.9,1.1,1.6,2,2.1
					c1.3,1,3,1.7,4.6,1.6c1.4-0.1,2.7-0.4,3.9-1c1.6-0.8,3.1-2.8,3.5-4.6c0.2-0.9,0.4-1.8,0.8-2.6c-0.3,0.6-0.5,1.2-0.8,1.8
					c0.1-0.3,0.3-0.5,0.4-0.8c2.1-3.4,0.8-8.6-2.7-10.5c-3.8-2-8.2-0.9-10.5,2.7c-1,1.5-1.6,3.4-2,5.2c4.9,0,9.8,0,14.8,0
					c-0.1-0.2-0.1-0.4-0.2-0.6c0.1,0.7,0.2,1.4,0.3,2c0-0.3,0-0.7,0-1c-0.1,0.7-0.2,1.4-0.3,2c0.1-0.9,0.4-1.8,0.6-2.7
					c0.5-1.9,0.2-4.2-0.8-5.9c-0.9-1.6-2.7-3.1-4.6-3.5C7.1,77.1,2.9,79.2,1.7,83.4L1.7,83.4z"/>
			</g>
		</g>
		<g>
			<g>
				<path class="st23" d="M119.9,6.6c-13.6,7-21.4,22.4-16.6,37.7c4.5,14.4,24.4,24.2,38.4,17.9c13-5.8,25.1-21.3,17.1-35.5
					c-6.7-12-24.5-19.6-37-12.5c-6.6,3.7-11.5,10.9-12.7,18.4c-1.6,10.1,4,17.1,9.2,25c5.4,8.2,18.6,0.6,13.2-7.7
					c-2.7-4.1-7.9-9-7.4-14.3c0.3-3.6,3.3-7.9,6.9-8.8c5.8-1.5,18.6,6.1,14.3,12.9c-2.1,3.3-7,8.1-10.9,9
					c-4.4,0.9-10.5-1.7-13.6-4.7c-4.1-3.9-4-10.1-2.2-15.2c1.6-4.6,4.9-6.8,9.1-9C136.4,15.3,128.6,2.1,119.9,6.6L119.9,6.6z"/>
			</g>
		</g>
		<g>
			<g>
				<path class="st23" d="M133.9,18.2c11.2-7.9,20.4,11.9,20.9,20.5c0.5,7.5-2.3,13.7-7.7,18.9c-4.5,4.4-11.8,4.8-17.9,3.9
					c-3.4-0.5-6.3-2.5-9.9-2.3c-4,0.1-7.6,2.1-10.5,4.9c-5.1,4.9-8.4,11.8-11.3,18.1c-7.7,16.7-13.1,34.3-19.3,51.5
					c-3.1,8.7,9.3,12.5,14,5.9c1.2-1.7,2-3.7,2.9-5.6c0.5-1.1,1.1-2.2,1.7-3.2c1.4-2.6,0.5,0.2-1.7,0.6c-1.4,0-2.7,0-4.1,0
					c-1.1-0.2-3.1-4-3.3-2.5c-0.1,0.4,0.5,1.7,0.5,2c0.2,1.1,0.2,2.2,0.2,3.3c0.2,3.6,0.3,7.3,1.4,10.8c1,3.1,2.6,5.9,5.1,8
					c2.3,1.9,5.1,2.7,7.6,4.3c4.2,2.7,7.8,6.1,13,5.8c7.4-0.5,10.3-7.8,7.4-14c-1.7-3.7-4.7-6.6-7.3-9.7c-3.1-3.6-4.5-8.2-4.9-12.9
					c-1.1-13.2,3.7-25.8,11.6-36.2c0.9-1.2,3.1-2.7,3.6-4.1c0.7-1.9,0.6,0.1-0.1-0.3c-1.4-0.8-1.9-0.1-0.2,0.3
					c4.2,1,7.7-0.1,11.9-0.7c7.9-1.1,16.1,5.4,23.4,0.2c8-5.6,0.4-18.9-7.7-13.2c1.6,0.2,1.6,0.2,0-0.2c-0.4-0.1-0.8-0.2-1.2-0.3
					c-1.8-0.4-3.6-0.7-5.3-1c-3.5-0.6-6.9-1.2-10.5-0.7c-2.8,0.4-5.1,1.1-7.8,0.9c-2.6-0.2-4.8-0.6-7.4,0.3c-6,2-10.4,8.9-13.8,13.9
					c-3.6,5.4-6.7,11.2-8.7,17.4c-3.5,10.7-4.7,23.4-1.2,34.3c1.6,4.9,4,9.1,7.3,12.9c1,1.1,2.1,2.2,3,3.4c0.5,0.6,0.6,1,1.2,1.7
					c1.3,1.4-0.1,0.8,0-0.6c0.3-1.3,0.7-2.6,1-3.9c0.2-0.3,0.4-0.6,0.7-0.9c1.1-0.7,2.3-1.3,3.4-2c1.7-0.7,3.8,1.6,1-0.4
					c-1.2-0.9-2.5-1.7-3.7-2.5c-1.7-1.2-6.1-2.8-6.7-3.6c-1.5-2-0.9-6.7-1.1-9c-0.3-3.3-0.6-6.7-2.1-9.7c-3-6.4-10.5-8.2-15.5-2.9
					c-3.3,3.5-4.3,8.4-7,12.3c4.7,2,9.3,3.9,14,5.9c5.5-15.4,10.2-31.2,17-46.2c2.3-5.1,4.9-12.5,9.3-16.2c0.2-0.2,1.2-0.9,0.8-0.9
					c0.1,0,3.1,1.2,3.8,1.4c3.4,1,6.7,0.9,10.2,0.9c6.7,0,13.3-0.3,19-4.2c5.6-3.9,10.6-9.6,13.5-15.7c5.9-12.3,4.6-28.6-3.1-39.9
					c-8-11.9-23.7-21.4-37.2-11.9C118.2,10.6,125.8,23.8,133.9,18.2L133.9,18.2z"/>
			</g>
		</g>
		<g>
			<g>
				<path class="st23" d="M175.5,37.6c6.5-3.4,13.5-5.5,20.6-6.9c5.5-1.1,11-2.7,16.6-3.2c3.8-0.3,10-0.8,11.8,3.5
					c1.6,3.8,0.1,9.3-0.9,13c-2.9,11.3-7.9,22.5-13.7,32.7c-6.9,12-15.3,24.4-26.1,33.3c-5.3,4.4-11.4,7.2-17.8,9.5
					c-8.3,3-16.2,7-24,11.1c2.6,4.4,5.1,8.8,7.7,13.2c17.8-9.5,32.1-23.9,43.6-40.3c6.7-9.6,13-19.5,19.1-29.5
					c5.6-9.1,11.4-18.1,15.7-27.9c2.7-6.1,6.9-15.6,3.2-22.1c-4-7.2-12.6-4.8-17.6-0.5c-8.9,7.8-14.8,19.7-21,29.7
					c-6.5,10.5-12.8,21-18.4,31.9c-5.9,11.6-11.5,23.4-17.8,34.8c4.7,2,9.3,3.9,14,5.9c5.9-16.7,12.4-33.2,20.1-49.2
					c6.4-13.1,11.7-28.7,22.1-39.3c5-5,0-15.8-7.4-12.8c-6.3,2.6-10.7,7.5-15.2,12.5c-5.2,5.7-9.8,11.9-13.7,18.6
					c-8.5,14.4-14.5,30.4-21.6,45.6c4.7,2,9.3,3.9,14,5.9c4-12.4,5.9-25.4,10-37.9c2-6,3.9-12.1,6.2-18c2.1-5.5,6-10.4,6.4-16.3
					c0.4-4.8-5.2-8.9-9.7-7.4c-8,2.7-13,9.2-17.2,16.2c-2.3,3.8-4.5,7.8-6.6,11.7c-1.2,2.3-2.4,4.6-3.7,6.9c-0.5,0.9-2.1,3.8-2,3.8
					c3.8,2.2,7.7,4.4,11.5,6.6c0.5-3.9,3.8-8.2,5.7-11.6c2.5-4.4,5.1-8.7,8.6-12.4c3.1-3.4,6.5-6,11-7.2c5-1.3,10.2-1.4,15.2-2.3
					c-2-4.7-3.9-9.3-5.9-14c-3.7,2.8-8.3,3.7-11.3,7.5c-2.6,3.3-3.1,7.6,0,10.8c2.6,2.7,8.3,3.2,10.8,0c2-2.5,5.6-3.2,8.2-5.1
					c6.9-5.3,3-15.5-5.9-14c-6,1-12.3,1.1-18.1,3.2c-6.2,2.2-11.6,6.5-15.9,11.4c-4.4,5-7.9,10.6-11.1,16.4
					c-3.1,5.6-5.9,10.8-6.6,17.2c-0.7,5.5,7.1,9.9,11.5,6.6c6.8-5,9.9-13.9,13.9-21c2.6-4.7,6.4-14.2,12-16.1
					c-3.2-2.5-6.5-4.9-9.7-7.4c-0.1,1.1-2.5,4.3-3.1,5.6c-1.2,2.7-2.3,5.5-3.4,8.3c-2.2,6-4.2,12.1-6.2,18.1
					c-3.8,11.9-5.6,24.3-9.4,36.1c-2.6,8.1,10.3,13.8,14,5.9c6.4-13.6,12.1-27.7,19.1-41.1c3-5.6,6.4-11.1,10.5-16.1
					c2.2-2.7,4.5-5.1,6.9-7.6c1.3-1.4,3.1-4.1,4.9-4.8c-2.5-4.3-5-8.5-7.4-12.8c-11.5,11.6-17.5,27.9-24.5,42.4
					c-8.3,17.1-15.4,34.9-21.7,52.8c-2.9,8.2,9.9,13.4,14,5.9c9.2-16.8,17-34.4,26.7-51c6.6-11.3,13.4-22.7,20.8-33.5
					c1.3-1.8,2.5-3.7,4-5.3c0.7-0.8,1.4-1.6,2.2-2.3c0.9-0.9,1.6-1.3,1.6-1.3c0,0.3-2.1,0.4-1.9,0.5c-1.4-0.4-4.9-5.8-5.8-4.8
					c-0.4,0.4-0.5,2.5-0.6,3.1c-0.9,3.3-2.2,6.5-3.7,9.5c-8.3,17.1-19.5,33.1-29.9,48.9c-10.6,16.1-23.9,30.1-41.1,39.3
					c-8.7,4.6-1,17.8,7.7,13.2c7.9-4.2,15.8-7.8,24.2-11c7.4-2.8,14.1-6.6,20.2-11.6c12.5-10.2,22.5-25.1,30.2-39.1
					c10.2-18.6,31.6-66-4.8-69.9c-7.9-0.8-16,1.2-23.6,2.9c-9.8,2.2-19.2,4.5-28.2,9.3C159,29,166.8,42.2,175.5,37.6L175.5,37.6z"/>
			</g>
		</g>
		<g>
			<g>
				<path class="st23" d="M144,149.9c4.5-1.3,8.5-3.7,12.8-5.3c4.6-1.7,9.2-3.2,13.8-5c10.2-3.9,20.3-6.2,31.3-6.3
					c5.3-0.1,10.8-0.2,16.1,0.5c4.2,0.5,8.1,2,12.2,2.9c2.6,0.5,5.2,0.8,7.8,1.4c0.4,0.1,3.7,1.2,3.8,1c0,0-3.9-3.5-0.6-0.2
					c1.1-4.3,2.3-8.5,3.4-12.8c-2.1,0.3-5.3-1.4-7.4-2c-3.1-0.9-6.3-1.2-9.5-1.8c-6.2-1-13-1.6-18.9-3.8c-0.7,5-1.4,10-2,15
					c10.4-1,21.5,1.6,31.2,5.1c4.9,1.7,8.6,4.3,12.7,7.4c4.4,3.3,9.9,4.5,14.7,7c10.1,5.1,20.7,11.7,31.8,14.1
					c4.3,0.9,8.8,1,12.2-2.2c3-2.8,3.9-7.2,5.5-10.9c3.4-8,8.2-15.7,14.4-21.8c5.3-5.1,13.2-10,20.5-6.2c8.6,4.4,10.1,12.3,7.9,21.1
					c-1.6,6.5-6.9,18.7-15.6,17c-4.5-0.9-8.5-5.6-11.2-9c1,1.3,0,0-0.2-0.4c-0.6-0.8-1.1-1.7-1.6-2.5c-0.9-1.4-1.6-2.9-2.4-4.4
					c-1.4-2.8-2.7-6.3-3.1-9.2c-0.2-1.4,0.2-2.7,0-3.3c0.2,0.7,0.3-0.4,0.1-0.2c-0.4,0.5-1.2,0.6,0.4,0.1c9.4-2.8,5.4-17.6-4.1-14.8
					c-20.9,6.2-9.7,33.5-0.4,45.1c7.3,9.1,18.7,17,30.8,12.9c12-4.1,19.4-16,22.1-27.9c2.8-12,1.2-24.8-8.7-33.1
					c-9.7-8-20.9-10.3-32.6-5c-10.7,4.9-18.8,14.5-24.8,24.4c-2.7,4.6-4.9,9.4-6.9,14.4c-0.2,0.6-1.5,2.8-1.4,3.5c0,0,0-0.1,0-0.1
					c3.8-1.2,4.8-1.9,3-2.1c-0.5-0.6-4-1.1-4.8-1.4c-2-0.7-3.9-1.6-5.8-2.5c-7.3-3.4-14.4-7.4-21.8-10.7c-3.1-1.4-6.6-2.2-9.4-4.1
					c-2.9-2-5.4-4.4-8.6-6c-12.7-6.6-29.9-10.7-44.2-9.4c-8.7,0.8-10.3,11.9-2,15c7,2.6,15,3.1,22.3,4.3c7.4,1.2,13.9,4.3,21.6,3.3
					c5.9-0.8,7-9.1,3.4-12.8c2.2,2.3-1.8-1.8-2.4-2.1c-1.3-0.8-2.8-1.3-4.2-1.8c-3-1-6.3-1.5-9.4-2c-4.3-0.7-8.3-2.2-12.6-3
					c-5.8-1.1-11.8-1.2-17.7-1.2c-12-0.1-23.6,1.4-35,5.3c-5.3,1.8-10.4,4-15.7,5.7c-5.2,1.7-9.9,4.6-15.2,6.1
					C130.5,137.8,134.5,152.6,144,149.9L144,149.9z"/>
			</g>
		</g>
		<g>
			<g>
				<path class="st23" d="M342.6,130.5c7.3,0.6,11,8.1,17.9,10.2c9.5,2.8,13.5-12,4.1-14.8c0.8,0.2-0.5-0.3-0.7-0.5
					c-0.8-0.6-1.4-1.3-2.1-1.9c-1.7-1.5-3.5-2.9-5.5-4.1c-4.3-2.5-8.6-3.9-13.6-4.2c-4.1-0.3-7.7,3.7-7.7,7.7
					C335,127.2,338.5,130.1,342.6,130.5L342.6,130.5z"/>
			</g>
		</g>
		<g>
			<g>
				<path class="st23" d="M325.9,117.7c-8.1,5.8-21.4,15.2-13.9,26.7c4.2,6.4,13.9,3.8,14.3-3.9c0,0.1-0.1,0.1-0.1,0.2
					c4.6-8.7-8.6-16.5-13.2-7.7c-1.3,2.5-1.9,4.7-2,7.5c4.8-1.3,9.5-2.6,14.3-3.9c-0.5-0.8-0.5-0.8-0.1,0.1c0.2,0.6,0.1,1.1-0.1,1.7
					c0.2-1.2-0.8,0.6,0.2-0.5c1.5-1.6-1.1,1.1,0.5-0.7c0.6-0.7,1.2-1.3,1.9-1.9c2-1.8,3.3-2.6,6-4.5c3.3-2.4,5-6.7,2.7-10.5
					C334.4,117.1,329.2,115.2,325.9,117.7L325.9,117.7z"/>
			</g>
		</g>
		<g>
			<g>
				<path class="st23" d="M229.7,26.9c2.2-0.4,4.5-0.1,6.6-1c-2-0.3-3.9-0.5-5.9-0.8c4.5,2.1,9.1,2.3,14.1,1.9
					c6.2-0.5,12.2,0.8,18.4,0.5c3-0.1,6-0.7,9-0.4c2.6,0.3,5.3,1.3,7.9,1.8c5.7,1.1,11.5,1.7,17.3,2.6c11.3,1.7,22.2,4.1,32.4,9.5
					c5.2,2.7,10.2,5.6,15.7,7.7c5,1.9,10.5,3.1,14.7,6.6c3.1-4,6.2-8,9.3-12c-4.8-3.4-10.4-5.1-15.9-7.2c-1.6-0.6-3.2-1.2-4.7-2
					c-0.9-0.5-1.8-1.1-2.8-1.5c-0.5-0.2-1.2-1.2-0.9-0.7c-1.5,3.7-3,7.5-4.6,11.2c-1.5,0.4-1.6-0.5-0.5,0.3
					c-0.3-0.2,2.6,1.1,2.2,0.9c1,0.5,1.9,1.4,2.9,1.7c1.1,0.4,0.8,2.4-0.3-1c3,9.4,17.7,5.4,14.8-4.1c-2.5-7.8-15-15-23-12.6
					c-4.9,1.5-6.9,6.8-4.6,11.2c5.5,10.2,21,10.8,29.7,16.8c7.1,4.9,16-6.4,9.3-12c-5.1-4.2-10.6-6.7-16.8-8.9
					c-6.2-2.2-11.6-5.2-17.4-8.3c-12-6.3-24.6-9.1-37.9-11.1c-6.2-0.9-12.5-1.7-18.7-3.1c-7.2-1.7-13.5-0.8-20.7-1.1
					c-3.5-0.1-7-0.8-10.5-0.8c-2.8,0-5.5,0.5-8.2,0.5c-2.9,0-5.1-1.3-8.1-0.8c-2.1,0.3-4.4,0.6-6.6,1
					C216,13.9,220.1,28.6,229.7,26.9L229.7,26.9z"/>
			</g>
		</g>
		<g>
			<g>
				<path class="st23" d="M357.8,54.9c-4.4,16.4-1.2,35.6-10.6,50.4c3.5-0.9,7-1.8,10.5-2.7c-1.3-0.7,2.3,1.8,0.8,0.9
					c-0.3-0.2,0,0.8-0.2-0.7c-0.3-2.1-0.1,0.2-0.2-1.2c-0.1-1.1-0.1-2.3-0.1-3.4c0-4.9,0.7-9.5,1.4-14.2c1.4-9.1,4.3-19,3.4-28.3
					c-0.5-5-2.9-9.8-8.4-10.5c-5.3-0.8-8.6,3-10.5,7.4c-4.4,9.8-6.6,20.7-9,31.1c-2.4,10.4-9.2,27.1,4.8,32c4.2,1.5,7.9-1.7,9.4-5.3
					c0.1-0.3,0.3-0.7,0.4-1c1-2.4-0.2-5.7-2-7.4c-0.8-0.8-1.7-1.5-2.7-1.9c-3.8-1.7-8.2-1.1-10.5,2.7c-2,3.3-1,8.8,2.7,10.5
					c-0.1-0.2-0.3-0.3-0.4-0.5c-0.7-2.5-1.3-5-2-7.4c-0.1,0.3-0.3,0.7-0.4,1c3.1-1.8,6.3-3.6,9.4-5.3c3.5,1.2,1.9,3,2.6,1.3
					c0.3-0.8,0.3-2.3,0.5-3.2c0.5-2.2,1.3-4.4,1.8-6.6c0.9-3.5,1.6-7.1,2.4-10.6c1.3-5.4,2.7-10.7,4.3-16c0.7-2.2,1.4-4.5,2.3-6.6
					c-0.7,1.7,0.4-1.1,0.5-1c0.5-0.7,0.3-0.6-0.5,0.5c-1.2,0.8-1.5,1-0.9,0.7c-1.3,0.3-2.6,0.7-3.9,1c-0.9,0.1-2.9-1-4-1.9
					c-1.9-1.6-0.2-0.4-1.4-1.9c0.4,0.5-0.2,1.2,0.1,0.3c0.3-1.1,0,0.1,0,0.5c-0.2,2.3-0.2,4.7-0.5,7c-0.6,4.8-2,12.3-2.8,18.1
					c-1.4,9.9-5.1,27.3,5.7,33.4c3.7,2.1,8.2,0.8,10.5-2.7c10.5-16.4,7.4-36,12.2-54.1C375.1,49.5,360.4,45.4,357.8,54.9L357.8,54.9
					z"/>
			</g>
		</g>
		<g>
			<g>
				<path class="st23" d="M338.2,48.9c-6.2,5.1-6.6,13.3-7.7,20.6c-1.5,9.7-3.4,19.5-5.5,29.1c-1.8,8.5-8.4,15.2-14.2,21.3
					c-7.5,8-13.7,16.2-19.8,25.3c4.7,0.6,9.3,1.2,14,1.8c-0.6-3.5,1.2-7.5,2.3-10.7c1.4-4,2.9-8.1,4.4-12.1
					c3.5-9.1,7.8-17.9,11.9-26.8c4.2-9,8.6-18,12.5-27.1c1.8-4.2,3.1-8.1,4-12.6c0.5-2.3,1.4-8.1,2.2-9.1c-1.8,0.7-3.6,1.5-5.4,2.2
					c0.2,0,0.3,0,0.5-0.1c-1.8-0.7-3.6-1.5-5.4-2.2c-1.2-1.1,0.1-1.4-0.4-0.1c0.2-0.4-0.5,3-0.4,2.4c-0.5,2.4-1.4,4.8-2.2,7.1
					c-1.8,4.9-3.6,9.7-5.3,14.7c-2.3,6.8-4.7,13.6-7.1,20.4c-1.1,3.3-2.1,6.5-3.1,9.9c-0.6,2-1.8,6-2.4,7c2.2-1.3,4.4-2.5,6.6-3.8
					c-0.2,0-0.5,0-0.7,0c-9.8,0.1-9.9,15.4,0,15.3c8.2-0.1,9.8-9.6,11.6-16c2.3-7.9,5.2-15.6,7.9-23.4c2.2-6.3,4.4-12.6,6.7-18.9
					c2-5.2,4-11,3.5-16.6c-0.6-6.9-7.5-14.7-14.5-9.3c-5.4,4.1-6.1,12.6-7.4,18.7c-1.7,7.7-5.6,14.9-9,22
					c-3.7,7.8-7.3,15.6-10.9,23.5c-3.8,8.3-7.2,16.7-10.3,25.2c-3,8.1-5.8,15.7-4.4,24.4c1.1,7,10.7,6.8,14,1.8
					c2.8-4.2,5.4-8.6,8.5-12.6c3-3.9,6.6-7.2,10-10.9c6.2-6.8,12.9-14.2,16-23c2.8-8.2,3.6-17.5,5.2-26c0.8-4.3,1.4-8.5,2.1-12.8
					c0.4-2.8,0.7-6,3-7.9c3.2-2.6,2.7-8.1,0-10.8C345.9,45.7,341.3,46.3,338.2,48.9L338.2,48.9z"/>
			</g>
		</g>
		<g>
			<g>
				<path class="st23" d="M243,37.9c27.4,2.1,55.7,0.8,82,10.2c-1.8-3.1-3.6-6.3-5.3-9.4c-0.5,2.1-1.1,4.1-1.8,6.1
					c-0.3,0.9-0.7,1.7-1,2.6c-0.3,0.5-0.5,1.1-0.8,1.6c0.5-0.6,0.5-0.6,0-0.2c1.1-0.7,2.3-1.3,3.4-2c0.4-0.1,0.7-0.1,1.1-0.2
					c1.3,0.3,2.6,0.7,3.9,1c-3-1.4-5.2-3.4-8.5-4.4c-4.5-1.4-9.3-1.9-13.8-2.9c-9.5-2-18.9-4.2-28.3-6.6c-4.8-1.2-9.7-2.3-14.5-3.8
					c-4.4-1.3-8.5-2.9-13.1-2.1c-6.7,1.3-12.4,8.2-11.9,15.1c0.5,8.1,7.7,8.9,13.8,10c9,1.6,18,2.7,27,4.3c8.9,1.6,17.2,4.8,26,6.7
					c3.9,0.8,9.4,2.1,13.4,1.6c2.3,0.9,2,0.2-0.9-2.3c0-1.2-0.1-1-0.3,0.5c-0.5,1.4-0.9,2.6-1.6,3.9c3.5-0.9,7-1.8,10.5-2.7
					c-7.6-4.3-17.1-3.1-25.4-5c-9.6-2.2-19.1-5.2-28.6-7.9c-8.3-2.4-17.3-7.1-26.1-7.1c-4,0-7.9,1.6-10.1,5.1
					c-1.7,2.6-2,5.7-3.1,8.5c-1.1,2.9,0.7,7.3,3.5,8.6c5.9,2.9,11.9,4.1,18.3,5c6.9,1,13.6,2.8,20.3,4.8c6.6,2,13.2,4.2,19.8,6.4
					c3.4,1.2,6.9,2.4,10.4,3.3c2.5,0.6,6.2,0.1,8.4,1.3c-0.9-3.5-1.8-7-2.7-10.5c-1.7,2.5-2.4,5.5-3.6,8.2c-0.8,1.8-1.6,1.4,0,1.2
					c0.7-0.8,1.6-1,2.7-0.8c-0.4-0.1-0.9-0.3-1.3-0.4c-6.3-4-15-4.6-22.2-5.9c-16.5-2.8-30.4-13-46.7-16.6c-3.2-0.7-7,0.4-8.6,3.5
					c-2,3.9-3.8,8-4.9,12.3c-1,4.1,1.3,8.2,5.3,9.4c12.5,3.6,25.3,6.7,37.8,10.4c5.8,1.7,11.6,3.9,17.4,5.5c2.8,0.7,5.7,1.3,8.5,1.7
					c1.3,0.2,5,0.2,6,1.1c-0.4-3.1-0.8-6.2-1.2-9.3c-1.3,1.8-2.2,3.9-2.8,6.1c-0.3,0.9-0.7,1.9-0.7,2.8c-0.1,1.7-1.1,1.1,0.6,0.8
					c1.4,0,2.7,0,4.1,0c-2.8-0.5-5.8-2.5-8.6-3.5c-3.9-1.4-8-2.3-12-3.4c-8.6-2.4-17-5.8-25.3-9.2c-7.7-3.2-16.4-7-24.8-8.1
					c-7.9-1-12,4.6-14.8,11c-1.8,4.1-0.7,10.2,4.6,11.2c8.9,1.7,17.2,5.1,25.8,7.9c9.2,3.1,18.7,5.6,28.1,7.9
					c4.8,1.2,9.7,2,14.4,3.6c1.6,0.6,1,1.8,0.9,0.1c0,0.1-0.2,2.1-0.1,2.5c-1,2.7,0.5,2.3,4.6-1.1c-0.4-0.2-0.9-0.5-1.3-0.7
					c-1-0.8-2.4-1.4-3.5-2c-7.7-4.1-16.4-6.7-24.4-10.1c-8.8-3.7-17.7-7.3-26.6-10.8c-3.8-1.5-7.6-2.9-11.3-4.6
					c-3.5-1.6-7.1-3-11-2.3c-6.4,1.2-11.3,7.7-14.6,12.9c-3,4.8,0.9,11.8,6.6,11.5c7.4-0.4,14.5,1.4,21.5,3.3
					c7.2,1.9,14.1,4,20.8,7.3c7,3.5,13.8,7.2,20.6,10.9c3.7,2,7.5,3.9,11.5,5.4c1.2,0.5,2.4,0.8,3.6,1.2c0.5,0.1,3.3,1.2,2.8,0.4
					c5.6,8,18.8,0.4,13.2-7.7c-4.8-6.9-13.1-7.2-20.2-10.7c-8-4-15.8-8.6-23.8-12.6c-7.9-3.9-15.9-6.6-24.4-8.9
					c-8.3-2.2-16.9-4.3-25.6-3.9c2.2,3.8,4.4,7.7,6.6,11.5c0.9-1.4,3.9-3.7,4.2-5.1c0.2-1.3,0.5-0.1-0.5-0.4c1.2,0.4,2.2,1,3.3,1.5
					c7.6,3.4,15.5,6.2,23.2,9.3c13.7,5.5,27.7,10.6,40.8,17.4c5.6,2.9,12,3.7,16.1-1.9c3.3-4.6,4.1-11.9,2.3-17.2
					c-3.7-10.4-16.6-11.3-25.7-13.6c-9.4-2.3-18.9-4.8-28.1-7.9c-8.5-2.8-16.9-6.2-25.8-7.9c1.5,3.7,3,7.5,4.6,11.2
					c0.2-0.4,2.4-4.5,2.2-4.6c-0.6,0.6-1.4,1-2.4,1.1c1.2,0.3,2.5,0.7,3.7,1c4.9,1.4,9.7,3.1,14.4,4.9c9.3,3.6,18.4,7.7,27.9,10.5
					c4.6,1.4,9.3,2.3,13.7,3.9c3.5,1.2,6.8,3.8,10.6,3.8c4.4,0,8.1-3,10.2-6.6c1.8-3.2,1.7-7.3,3.9-10.3c1.9-2.6,1.1-7.2-1.2-9.3
					c-4.6-4.1-9.5-4.4-15.3-5.4c-6.8-1.2-13.1-3.6-19.7-5.7c-13.7-4.3-27.7-7.5-41.4-11.5c1.8,3.1,3.6,6.3,5.3,9.4
					c0.8-3.1,1.9-5.8,3.4-8.6c-2.9,1.2-5.8,2.3-8.6,3.5c9.4,2.1,17.8,6.4,26.6,10.1c9.5,4.1,18.7,5.9,28.8,7.9
					c3.6,0.7,7,1.6,10.4,3.1c3.5,1.5,7,2.9,10.9,1.8c8-2.2,7.8-10.1,11.7-15.8c2.3-3.3,0.7-8.6-2.7-10.5c-3.1-1.7-6.1-2-9.5-2.5
					c-3-0.4-5.8-1.3-8.7-2.2c-6.8-2.2-13.5-4.7-20.4-6.8c-6.5-2-13.2-4-19.9-5.3c-6.2-1.2-13-1.3-18.7-4.1c1.2,2.9,2.3,5.8,3.5,8.6
					c0.4-1.1,0.9-2.2,1.1-3.4c0.1-0.6,0.3-1.3,0.5-1.9c-1,0.9-2.1,1.9-3.1,2.8c0-0.3,8.8,2.2,9.4,2.4c7.3,2.6,14.7,4.7,22.1,6.7
					c7.2,2,14.3,4.3,21.6,5.8c3.3,0.7,6.8,1.1,10.1,1.5c2.9,0.3,6.6,0,9.2,1.5c3.6,2,8.4,0.9,10.5-2.7c3.5-6.2,6.6-15.9,0.3-21.5
					c-3.4-3-8.4-3.6-12.6-4c-4.8-0.4-9.2-1.1-13.8-2.5c-9.9-2.9-19.6-5.3-29.8-6.4c-4.8-0.5-9.6-1.4-14.4-2.3
					c-1.6-0.3-3.2-0.6-4.9-0.9c0.4,0.1-1.6-0.2-1.7-0.2c-2.5,0.1-0.9-2,0.8,1.5c0.3,1.3,0.7,2.6,1,3.9c0-0.5,0.3,0,0-0.3
					c0.6,0.5,4,1.5,5.7,2c5.4,1.6,10.9,2.9,16.3,4.2c11.1,2.7,22.3,5.4,33.5,7.5c4.1,0.7,6.8,1.8,10.3,3.8c3.8,2.2,8.2,2.4,11.6-0.8
					c4.2-4,6.2-11.2,7.5-16.7c1-4.3-1.3-8-5.3-9.4c-27.6-9.8-57.3-8.5-86.1-10.7C233.2,21.8,233.2,37.2,243,37.9L243,37.9z"/>
			</g>
		</g>
		<g>
			<g>
				<path class="st23" d="M284.7,168.8c4,4.4,8.6,8.5,10.8,14.1c2,5,3.2,10.2,8,13.3c8.2,5.5,15.9-7.8,7.7-13.2
					c2.4,1.6,0.8,1,0.5-0.1c-0.2-1.1-0.9-2.4-1.3-3.5c-0.8-2.1-1.5-4.4-2.6-6.4c-3.1-5.7-8-10.3-12.3-15.1
					C288.9,150.6,278.2,161.5,284.7,168.8L284.7,168.8z"/>
			</g>
		</g>
		<g>
			<g>
				<path class="st23" d="M301.8,172.6c2.2,4.8,5,9.9,5.8,14.9c0.9,5.1,1.6,9.9,6.6,12.6c4.3,2.3,9.9,0.3,11.2-4.6
					c1.7-6.1,1.8-12.4,0.7-18.5c-1-5.8-4.4-10.1-3.6-16c-4.8,1.3-9.5,2.6-14.3,3.9c1.5,2.4,1.9,5.9,3,8.6c1.2,2.8,2.6,5.5,3,8.6
					c0.6,4.1,5.8,6.4,9.4,5.3c4.4-1.2,5.9-5.3,5.3-9.4c-0.5-3.5-2.3-6.6-3.6-9.8c-1.5-3.7-1.8-7.6-4-11c-4.5-6.8-13.3-3.5-14.3,3.9
					c-0.8,6.1,1.3,10.4,3.2,15.9c1.6,4.6,1.6,9.9,0.3,14.6c3.7-1.5,7.5-3,11.2-4.6c1.3,0.7,0.8,2.2,0.9,0.3c0-0.4-0.1-0.9-0.1-1.3
					c-0.4-2.5-0.8-4.8-1.6-7.1c-1.7-4.8-4.1-9.3-6.1-13.9c-1.7-3.8-7.2-4.6-10.5-2.7C300.6,164.3,300.1,168.8,301.8,172.6
					L301.8,172.6z"/>
			</g>
		</g>
		<g>
			<g>
				<path class="st23" d="M251.8,243.7c16.1-0.6,32.4-0.7,45.7-11.1c11.6-9,16.8-22.8,21.2-36.3c2.8-8.5-9.4-13-14-5.9
					c-4.8,7.5-8.5,15.7-11.5,24.1c-1.2,3.3-1.8,6.3-3.2,8.7c-0.6,1.1-1.9,2.1-2.4,3.2c-1,2-1.9,0.1,0.3,0.8c0,4.9,0,9.8,0,14.8
					c7.3-1.4,14.8-0.9,22.3-1.5c7.2-0.6,14.3-1.5,21.5-2.4c13.9-1.8,27.6-4,41.6-4.7c6.6-0.3,13.3,0.4,19.9-0.9
					c5.8-1.2,11.8-3.1,17.5-4.8c5.7-1.8,10.9-4.6,16.3-7c5.5-2.5,10.8-4.9,15.5-8.8c4.2-3.5,2-9.3-1.5-12c-5.4-4.1-10.2-8.6-16-12.1
					c-6-3.6-12.2-6.9-18.4-10c-6.5-3.2-13.1-6.2-19.4-9.8c-5.5-3.1-11.7-5.4-16.9-8.9c-7.5-5.2-14.7,5.8-9.3,12
					c8.8,10.2,16.4,21.7,27.7,29.5c5.1,3.5,10.4,5,16.5,5.4c4.8,0.3,10.6-0.6,14.7,2.2c0.6-4.7,1.2-9.3,1.8-14
					c-8.1,1.5-15.8,4-23.5,6.9c-0.8,0.3-2.5,0.5-3,1c2.4-2.3,4.3,6.8,3.8,3.4c-0.5-3.2-3-7.2-4.7-10c-7.2-12.2-18.4-20.8-29.5-29.1
					c-6-4.5-12.1,2.9-11.2,8.6c1.6,10.5,5.4,20.8,11,29.9c2.6,4.3,5.5,8.6,9.5,11.6c3.7,2.8,8.1,4.1,12.2,6.3
					c5.6,3.1,10.8-1,11.5-6.6c1.3-10.3-8.2-19.1-14.3-26.1c-6.1-6.9-12.3-14.6-20.8-18.6c-4.5-2.1-10.4-3.2-15-0.6
					c-5.5,3-5,10.1-2.6,14.9c2.5,5,4.7,10,6.8,15.2c2,5,4.5,10.3,3.9,15.7c2.6-2.6,5.1-5.1,7.7-7.7c-10.5-0.5-12-8.8-14.1-17.3
					c-1.1-4.5-2.6-9.2-5.4-12.9c-2.5-3.3-6.3-5.1-9.3-7.9c-2.5,4.3-5,8.5-7.4,12.8c8.6,3.3,13.3,11.5,18.4,18.7
					c3.2,4.5,6.6,8.5,10.8,11.9c2.3,1.8,4.6,3.6,7.1,5.1c1.5,0.9,3.2,1.4,4.3,2.7c1.1-4.3,2.3-8.5,3.4-12.8c-4,1.2-8.6-0.9-12.8-0.8
					c-6,0.1-12.1,1.5-18,2.6c-5.6,1.1-11.2,2.4-16.9,2.7c-6.1,0.4-12.2-0.2-18.2-0.3c0,5.1,0,10.2,0,15.3c6.1-0.8,11.5-2.8,16.6-6.3
					c4-2.7,7.5-6.1,11.5-8.7c8.5-5.5,15.4-12.1,11.2-22.9c-3.4-8.8-13.7-17.2-22.4-9c-3.6,3.3-5.4,8-6.9,12.5
					c-0.9,2.5-1.7,7.8-4,9.5c3.1,4,6.2,8,9.3,12c1.6-2,4.8-5.7,7.8-5.3c1.5,0.2,3.3,2.1,4.5,2.9c2.1,1.4,4.3,2.5,6.7,3.2
					c-1.5-3.7-3-7.5-4.6-11.2c-0.9,1.5-0.7,1.4,0.7-0.2c1.3-0.3,2.6-0.7,3.9-1c-0.3,0-0.5,0-0.8,0c1.8,0.7,3.6,1.5,5.4,2.2
					c-0.3-0.3-0.5-0.6-0.8-0.8c-6.7-7.2-17.6,3.6-10.8,10.8c5.2,5.5,12.5,2.8,15.7-3.2c2.3-4.4,0.3-9.7-4.6-11.2
					c-2.9-0.9-5.2-3.4-7.9-4.7c-3.1-1.5-6.4-2.2-9.9-1.8c-6.2,0.8-12.3,4.8-16.1,9.7c-2.4,3-3.1,6.8-0.6,10c2.1,2.8,6.8,4.2,9.9,2
					c5.8-4.1,8.1-9.8,10.3-16.3c0.4-1.1,3.1-6.4,2.8-7.1c0.1,0.1-3.1-0.5-3.3-0.2c0,0,1.2,2,1.3,2.2c0.2,0.5,0.7,1.9,0.7,2.2
					c0.2-2.2,0.1-0.6-1-0.2c-2.1,0.9-4.5,3-6.4,4.3c-5.5,3.9-11,10.5-18,11.4c-4.1,0.5-7.7,3.1-7.7,7.7c0,4.2,3.5,7.6,7.7,7.7
					c6.4,0.1,12.8,0.7,19.2,0.2c6.1-0.5,12.2-1.7,18.2-2.9c5.6-1.1,11.5-2.7,17.2-2.4c5.4,0.2,10.1,1.8,15.4,0.2
					c6-1.7,6.9-8.4,3.4-12.8c-3.1-3.9-8.9-5.7-12.7-8.9c-4.3-3.6-7.3-8-10.5-12.6c-6.5-9.3-13.4-16.7-24.1-20.8
					c-7.2-2.8-12.8,7.8-7.4,12.8c3.1,2.9,7.6,4.7,9.1,8.5c2,4.8,2.4,10.2,4.2,15.1c4.2,11.7,13.9,18.4,26.3,19
					c4.4,0.2,7.2-3.7,7.7-7.7c0.8-7.3-2.2-14.4-4.9-21c-1.4-3.4-2.7-6.9-4.1-10.3c-0.7-1.8-1.5-3.4-2.4-5.1
					c-0.5-0.7-0.9-1.5-1.3-2.2c0.4,0.5,0.5,1.1,0.2,1.7c-1.2,1.5-2.3,3-3.5,4.6c-1.3,0.9-0.2,0.2,0.9,0.9c1.7,1.1,3.4,2.1,5,3.4
					c3.4,2.9,6.4,6.3,9.4,9.6c3.9,4.5,13,11.6,12.2,18c3.8-2.2,7.7-4.4,11.5-6.6c-3.2-1.8-6.8-2.7-9.9-4.7c-3.3-2.1-5.3-5.9-7.2-9.2
					c-4.4-7.7-7.2-16.1-8.6-24.8c-3.7,2.9-7.5,5.8-11.2,8.6c11.4,8.5,22.2,17.4,27.5,31c2.7,6.9,10.1,7.9,16.5,5.8
					c8.3-2.7,16.2-5.7,24.8-7.4c7.1-1.3,6.7-10.6,1.8-14c-9.1-6.4-20.9-1.2-29.9-6.8c-10.6-6.7-17.8-18.7-25.8-27.9
					c-3.1,4-6.2,8-9.3,12c5.2,3.6,11.4,5.8,16.9,8.9c6.3,3.6,12.9,6.6,19.4,9.8c6.3,3.1,12.4,6.4,18.4,10c5.8,3.5,10.6,8.1,16,12.1
					c-0.5-4-1-8-1.5-12c-3.9,3.2-9.2,4.9-13.7,7c-5.2,2.3-9.9,4.6-15.4,6c-5.3,1.4-10.7,3.7-16.2,3.9c-6.8,0.2-13.5,0-20.3,0.6
					c-13.1,1.1-26.1,3.3-39.2,4.8c-7.1,0.9-14.3,1.8-21.5,2c-7.2,0.3-14.3,0.4-21.5,1.8c-7.8,1.5-6.8,12.7,0,14.8
					c9.1,2.8,17.1-5.8,20.6-13.3c2.2-4.8,3.4-10,5.4-14.9c2.2-5.4,5-10.7,8.1-15.6c-4.7-2-9.3-3.9-14-5.9
					c-3.3,10.2-7,21.5-15.8,28.4c-10.4,8.1-24,7.4-36.4,7.8C241.9,228.7,241.9,244,251.8,243.7L251.8,243.7z"/>
			</g>
		</g>
		<g>
			<g>
				<path class="st23" d="M385.7,52.7c1-2.6,2.2-5.9,4.7-7.3c-3.1-4-6.2-8-9.3-12c-3.1,3.4-6.9,6.1-10.2,9.2
					c4.4,1.8,8.7,3.6,13.1,5.4c0-0.3-1.2,0.9,0,0c0.6-0.4,1.2-1.1,1.7-1.6c1.3-1.1,2.6-2.1,3.8-3.2c3.7-3.4,6.7-5.9,11.8-6.9
					c4.4-0.8,8.7-0.2,13.1,0.6c4.3,0.8,8.9,1.5,12.8,3.5c7.1,3.6,11.3,13.1,10.3,20.8c-1.1,8.7-7.4,15.9-14.8,20
					c-8,4.4-2.3,15.5,5.9,14c5.3-1,9.7-5,13.3-8.7c3.7-3.7,7.5-7.5,10.4-11.9c4.6-7.1,7.6-22.6-2.4-26.9c-3.8-1.6-8.2-1.1-10.5,2.7
					c-1.9,3.2-1,8.8,2.7,10.5c-2.1-0.9-0.1-2.2-1-0.1c-0.2,0.4-0.2,1.7-0.3,2.2c-0.7,2.7-2.3,4.8-4.2,6.9c-3,3.3-7.4,9.7-12.1,10.6
					c2,4.7,3.9,9.3,5.9,14c11.9-6.6,20.8-18.5,22.3-32.2C454.3,49,447,33.5,435,27.2c-5.8-3.1-12.2-4.2-18.6-5.4
					c-7.2-1.3-14.4-1.7-21.5,0.4c-7.2,2.1-11.8,6.4-17.3,11.2c-4.6,4-9.2,7.8-8.9,14.6c0.3,6.6,8.1,10.1,13.1,5.4
					c3.3-3.2,7.1-5.8,10.2-9.2c5.8-6.3-1.5-16.4-9.3-12c-6.3,3.5-9.3,10-11.8,16.5c-1.5,3.9,1.7,8.4,5.3,9.4
					C380.6,59.3,384.2,56.5,385.7,52.7L385.7,52.7z"/>
			</g>
		</g>
		<g>
			<g>
				<path class="st23" d="M391.2,57.4c3-6.2,7.7-12.5,15.2-12.8c6.7-0.2,16.7,5.8,18.8,12.5c1.6,5.2-6.6,17.6-12.6,16.1
					c-3.9-1-7.9-5.4-10.9-8c-4.1-3.5-8.1-7.3-11.9-11.2c0.7,2.5,1.3,5,2,7.4c0.4-0.9,0.7-1.9,1.2-2.8c-4.8-1.3-9.5-2.6-14.3-3.9
					c0.2,1.9,1.1,4.5,0.8,6.5c-1.7,9.6,13,13.8,14.8,4.1c0.7-3.8,0.2-6.8-0.2-10.5c-0.4-3.4-2.1-6.4-5.6-7.4c-3-0.9-7.2,0.5-8.6,3.5
					c-1,2.1-1.9,4.3-2.7,6.4c-1,2.5,0.2,5.6,2,7.4c5.6,5.8,11.5,11.2,17.9,16.1c5.7,4.5,11.4,8.4,19,7.6
					c14.1-1.5,27.6-20.3,24.5-34.1c-3-13.2-18.4-23.8-31.3-24.9c-13.8-1.2-25.3,8.3-31,20.2C373.8,58.6,387,66.3,391.2,57.4
					L391.2,57.4z"/>
			</g>
		</g>
		<g>
			<g>
				<path class="st23" d="M410.8,87.2c0.5,0.2,0.9,0.3,1.4,0.5c0.4,0.1,1.4,1,0.6,0.2c-0.7-1.1-1.3-2.3-2-3.4c0.1,0.3,0.3,0.6,0.4,1
					c0-1.4,0-2.7,0-4.1c0,0.2-0.1,0.3-0.1,0.5c1.2-1.5,2.3-3,3.5-4.6c-7.5,4.3-5.8,15.4-6.6,22.8c-0.8,7.7-3.2,15.4-5.4,22.7
					c-2.2,7.2-4.8,14.3-8.6,20.8c-1.7,2.9-3.6,5.6-5.9,8.1c-1.3,1.5-2.7,2.9-4.2,4.3c-0.6,0.5-1.2,1-1.7,1.6c-1.7,2.1-1.6,2.1,0.2,0
					c2.6,0,5.1,0,7.7,0c4,2.1,1.8,7.6,2.9,3.2c0.3-1,0.6-2.1,0.9-3.1c0.5-1.8,1.1-3.5,1.7-5.3c2.8-8.4,5.9-16.7,9.1-25
					c2.9-7.5,5.6-15.1,8.5-22.7c2.5-6.6,5-13.6,4.6-20.7c-0.2-3.7-3.4-8.2-7.7-7.7c-8.3,1.1-10,7.7-13.1,14.4
					c-4.1,8.8-9,17.3-12.9,26.1c-3.2,7.1-5.9,14-7.8,21.5c-1.2,4.6-2.4,13.2-6.7,16.1c3.7,1.5,7.5,3,11.2,4.6
					c-0.7-3,0.9-6.8,1.9-9.6c1.4-4.2,2.8-8.4,4.1-12.7c3-10,6.3-20,9.9-29.8c3.7-10,12.5-27.9,2.8-36.9c-4.8-4.5-13-1.4-13.1,5.4
					c0,6.6,4.2,11.3,9.1,15.1c6.6,5,13.6-4.4,10.5-10.5c-2.7-5.2-7.7-7.5-12.1-11c-4-3.1-7.4-7.4-10.1-11.6c-3-4.6-7.3-8.9-13.2-5.6
					c-4.2,2.4-5.3,7.8-6,12.2c-0.8,5-1.9,9-3.9,14.6c-2.4,6.4-5.6,12.6-7.6,19.2c-1.9,6.4,0.1,11.9,3.6,17.3
					c3.5,5.4,5.4,11.2,8.5,16.8c3.4,6.2,11.8,4,14-1.8c1.5-3.8,1.7-8.2,2.5-12.1c1-4.5,2.1-9.2,3.9-13.4c3.5-8.3,8.2-15.1,9.2-24.4
					c0.4-4.3-3.9-7.3-7.7-7.7c-0.8-0.1-4.1-3.2-5.4-4.1c-3.2-2.2-8.8-0.8-10.5,2.7c-4.8,9.9-6.7,20.7-10.5,31
					c4.9,1.4,9.8,2.7,14.8,4.1c-0.1-0.5,0.1-0.8,0.5-1c-4.3-1.1-8.5-2.3-12.8-3.4c0-0.1,0-0.1,0-0.2c-2,9.6,12.7,13.7,14.8,4.1
					c0.6-2.8,0.5-5.1,0-8c-1-5.9-9-7.1-12.8-3.4c-2.2,2.2-3.7,4.7-4.4,7.8c-2.4,9.7,11.4,13.2,14.8,4.1c3.3-9,4.8-18.7,8.9-27.3
					c-3.5,0.9-7,1.8-10.5,2.7c4.6,3.1,7.2,5.7,13.1,6.1c-2.6-2.6-5.1-5.1-7.7-7.7c-0.8,7.6-6.5,14.5-9.1,21.6c-1.4,4-2.5,8-3.4,12.1
					c-0.9,4-1.1,8.3-2.5,12.1c4.7-0.6,9.3-1.2,14-1.8c-3.1-5.6-5-11.4-8.5-16.8c-1.6-2.5-2.6-3.4-1.8-6.3c0.9-3.1,2.5-6.1,3.7-9.1
					c2.6-6.2,5.5-12.7,6.9-19.2c0.4-1.8,0.5-3.6,0.7-5.2c0.2-1.2,0.6-2.4,0.7-3.6c0.2-1.8,0.9-1.1-0.3-0.1c-1.1,0.7-2.3,1.3-3.4,2
					c0.1,0,0.3-0.1,0.4-0.1c-2-0.3-3.9-0.5-5.9-0.8c-1.6-1.7-1.9-1.9-1-0.6c0.3,0.5,0.7,1,1,1.6c0.5,0.8,1.1,1.5,1.7,2.3
					c2.3,3.1,4.8,6,7.4,8.8c2.2,2.3,4.6,4.2,7.2,6c2.1,1.4,4.4,2.5,5.5,4.7c3.5-3.5,7-7,10.5-10.5c-0.8-0.6-1.6-2.1-1.6-1.9
					c-4.4,1.8-8.7,3.6-13.1,5.4c-0.1-0.1-0.7-1.1-0.6-1.3c-0.4,0.7,0.2,0.2,0.2,0.6c0,1.1,0,2.2-0.2,3.2c-0.4,3.1-1.5,6.2-2.4,9.2
					c-1.9,5.9-4.2,11.6-6.3,17.4c-3.4,9.7-6.2,19.6-9.4,29.4c-2.6,7.7-5.8,15.7-4,23.9c1,4.6,7.3,7.3,11.2,4.6
					c11.4-7.7,12-22.2,16.2-34c3.2-8.9,7.7-17.5,12-26c2.1-4.1,4.4-8.1,6.2-12.4c0.4-0.9,0.7-1.9,1.1-2.8c0.2-0.5,1.8-2.3,0.6-1.6
					c-1.3,0.3-2.6,0.7-3.9,1c0.2,0,0.4-0.1,0.6-0.1c-2.6-2.6-5.1-5.1-7.7-7.7c0.4,6.7-2.8,13.3-5.1,19.4c-3,7.8-5.8,15.6-8.8,23.4
					c-2.8,7.4-5.5,14.8-8,22.3c-1.4,4.3-3.4,9-3.2,13.7c0.1,3.5,1.9,6.3,5,7.9c4.7,2.4,7.9,0,11.2-3.1c4.8-4.6,9.2-9.4,12.8-15.1
					c7.8-12.6,11.8-27.4,15.1-41.7c1.1-4.8,1.7-9.7,2-14.6c0.1-0.9,0.8-7.2,0.5-7.3c0.1,0-3,2.2-2.1,1.6c1.2-0.9,2.2-1.5,3-2.9
					c4.8-7.9-4-13.2-10.2-15.3C405.5,69.2,401.5,84,410.8,87.2L410.8,87.2z"/>
			</g>
		</g>
		<g>
			<g>
				<path class="st23" d="M423.5,100.3c5.7,4.1,9.2,10.6,12.5,16.7c3.5,6.4,7.2,12.6,10.8,18.9c7.9,14.1,11.1,29.6,10.8,45.7
					c-0.1,5.1-3.3,7.8-7.3,10.9c-6.3,5-11.5-0.7-17-4.5c-11.8-8.1-22.7-20.9-37.8-22.1c2.5,3.2,4.9,6.5,7.4,9.7
					c1.2-4.8,5.9-8.4,8.8-12.1c4.1-5.2,6.7-11.5,9.4-17.5c2.8-6.4,5.2-12.9,7.3-19.5c1.1-3.4,2.1-6.8,2.4-10.4
					c0.2-1.9-0.8-6.2,0.5-7.9c-4.3-1.1-8.5-2.3-12.8-3.4c2,5.4-0.3,11.8-0.9,17.3c-0.8,6.8-0.7,13.9-2.8,20.4
					c-2.8,8.7-16.2,23.4-6.9,31.7c11.7,10.6,23.1-5.6,25.9-15.8c1.5-5.5,2-11.4,2.4-17.1c0.2-2.8,0.4-5.7,0.8-8.5
					c0.2-1.5,0.8-6,1.2-6.4c-1.1,0.7-2.3,1.3-3.4,2c0.2-0.1,0.3-0.1,0.5-0.2c-1.4,0-2.7,0-4.1,0c0.2,0,0.3,0.1,0.5,0.1
					c-1.1-0.7-2.3-1.3-3.4-2c-1.6-1.5-0.6-1.2-0.4,0.7c0.2,1.5,0.2,3.1,0.2,4.6c0,3.3-0.3,6.5-0.9,9.7c-1.3,6.5-3.5,12.9-6.2,19
					c-2.4,5.2-7,11.1-6.6,17c0.4,6.3,6.4,10.7,12.4,11c11.1,0.6,16-10.1,18.1-19.4c1-4.3,1.5-8.6,2-13c0.4-3.5-0.3-9.8,2.1-12.8
					c-3.6,0-7.2,0-10.8,0c1.3,1.1-0.1,0.1,0-0.2c0.1-1.2,0.4,3.5,0.3,2c0.2,2.3,0,4.8-0.3,7.1c-0.4,3.9-1.4,7.8-2.4,11.6
					c-2.4,8.8-10.1,24.3-2.3,32.3c3.8,4,9.8,4.5,14,0.6c2.9-2.8,4.3-6.9,5.4-10.7c1-3.6,1.2-7.3,1.5-11c0.2-2.1,0.3-4.2,0.7-6.3
					c0.2-0.9,0.5-1.7,0.7-2.6c0.2-0.9-0.3,0.2,0.6-0.6c-4-0.5-8-1-12-1.5c2,3.9,0.5,10.6-0.2,14.7c-1,5.8-2,11.8,1.2,17.1
					c3.1,5.1,10.1,4.8,13.2,0c4.8-7.3,4.6-17.4,4.2-25.8c-0.2-4-0.6-7.8-1.6-11.7c-0.9-3.5-3.1-8.3-2.1-12c-4.9,0-9.8,0-14.8,0
					c0.1,0.5,0.2,1,0.2,1.5c1.6,9.7,16.4,5.6,14.8-4.1c-0.1-0.5-0.2-1-0.2-1.5c-1.3-7.7-12.9-6.9-14.8,0c-2.3,8.5,2.1,16.1,3,24.4
					c0.7,6.3,1.7,15.9-1.9,21.4c4.4,0,8.8,0,13.2,0c-1.5-2.4,1.2-10.4,1.4-13.1c0.5-6.5,0.6-12.7-2.4-18.7c-2.5-4.8-8.4-4.4-12-1.5
					c-5.6,4.3-5.9,13.3-6.4,19.7c-0.1,1.5-0.2,2.9-0.3,4.4c-0.2,1.8,0.1,0.4-0.4,2c-0.3,1.1-0.6,2.2-1,3.2c-0.1,0.4-0.4,0.9-0.5,1.2
					c-0.1,0.3-0.3,0.5-0.4,0.7c-1.3,2,0.5,1.3,5.3-1.9c1.1,0.7,2.3,1.3,3.4,2c-1.1-1-1-0.5,0.3,1.5c0-0.4,0-0.8,0-1.1
					c0.3-0.8,0.4-2,0.6-2.9c0.6-2.4,1.3-4.9,2-7.3c1.5-5.5,3.3-11,4.4-16.6c1.5-7.9,3.8-21.2-3.4-27.2c-2.9-2.4-8.1-3.5-10.8,0
					c-6.2,7.8-5.5,16.7-6.9,26.1c-0.3,1.9-1,6.2-1.7,8.9c-0.5,1.7-1.4,3.3-1.9,5c-0.1,0.3-0.7,0.8-0.7,1.1c0-1,2.2,0.7,2.3,0.9
					c0,1.4,0,2.7,0,4.1c0.6-2.4,2.3-4.8,3.4-7c1.3-2.8,2.6-5.6,3.8-8.5c2.5-5.9,4.5-12,5.7-18.4c1.5-8.3,4.6-27.4-6.4-30.9
					c-11.8-3.8-13.7,14.3-14.4,21.7c-0.5,5.1-0.6,10.4-1.6,15.5c-0.4,2.4-1,4.8-1.9,7c-0.4,0.9-1.4,2.1-1.6,3.1
					c-0.1,0.2-0.3,0.4-0.4,0.6c-1.3,1.2-0.4,1.9,2.9,2.2c0.3,2,0.5,3.9,0.8,5.9c-0.2,1.1,0.7-2,0.9-2.5c0.4-1.2,0.7-2.5,1.2-3.7
					c1.1-2.6,2.6-5.1,3.9-7.6c3-5.7,4.8-11.4,5.7-17.7c0.9-6.6,1.2-13.2,2.2-19.8c0.9-5.8,1.8-11.8-0.2-17.5
					c-1.8-4.8-8.8-8.2-12.8-3.4c-5,6.2-3.9,11.9-5.1,19.1c-1.2,7.3-4.6,14.9-7.5,21.7c-2.5,5.9-5.1,12.4-9.4,17.3
					c-4.2,4.9-8.7,9.5-10.3,15.9c-1.3,5.1,2.4,9.3,7.4,9.7c5.5,0.4,10.6,5.1,14.6,8.5c5.7,4.7,11.7,9,17.8,13.1
					c6.3,4.3,12.2,8.2,20.2,7.1c6.6-0.9,11.6-5,16.3-9.5c3.8-3.7,7-7.7,8-13c1.3-6.9,0.5-14.4-0.3-21.3
					c-1.7-15.3-6.6-28.5-14.3-41.7c-7.7-13.2-13.9-28-26.6-37.2c-3.4-2.4-8.5-0.6-10.5,2.7C418.5,93.6,420.2,97.8,423.5,100.3
					L423.5,100.3z"/>
			</g>
		</g>
		<g>
			<g>
				<path class="st23" d="M440.1,205.9c1.2,10.7,8.9,20.8,15.6,28.9c7.3,8.9,15.5,16.8,23.2,25.3c6.1,6.8,11.9,15.7,21.6,17.3
					c9.1,1.5,16.4-5,15.5-14.2c-0.8-8.1-5.7-15.2-9.5-22.2c-5.8-10.7-11.7-20.7-19.1-30.4c-2.9-3.8-6.2-7.5-8.8-11.6
					c-2.2-3.4-4.1-7.2-7.4-9.6c-9.5-6.8-17.2,4.3-17.3,13.1c0,5.7,2.8,11.1,5.7,15.8c3.2,5.1,6.2,10.3,9.4,15.4
					c6.9,10.7,16.9,20.6,19.2,33.6c2.5-3.2,4.9-6.5,7.4-9.7c-5.4-0.2-10.8-8.6-13.9-12.3c-2.6-3-4.7-6-6.7-9.4
					c-1-1.7-2.1-3.2-3.4-4.6c-0.6-0.6-1.2-1.3-1.8-1.8c-1.3-1-1.1-2.4-0.9,0.1c-0.8-9.7-16.1-9.8-15.3,0c0.5,6.2,4.3,8.5,7.7,13
					c3.4,4.5,6.1,9.2,9.8,13.6c6.5,7.7,13.8,16.4,24.7,16.8c5.4,0.2,8.2-5,7.4-9.7c-2.4-13.6-11.8-23.9-19.2-35
					c-3.5-5.3-6.6-11-10.1-16.4c-1.5-2.4-3.5-5-4.2-7.8c-0.1-0.5-0.3-1.2-0.3-1.7c-0.4-0.1-0.3-0.5,0.2-1.1c0.9-2.3-0.2-1.9-3.4,1.4
					c-1.3-0.3-2.6-0.7-3.9-1c-0.9-0.5,0.7,0.9,1,1.4c0.6,0.9,1.2,1.9,1.8,2.8c1.8,2.8,3.9,5.4,5.9,8c4.8,6.2,9.8,12.4,14,19.1
					c4.2,6.8,7.6,14,11.5,21c1,1.7,2,3.4,2.8,5.2c0.6,1.4,1.2,4,1.7,4.8c0,1,0,1.2,0.1,0.5c0.3-0.5,0.6-0.9,0.9-1.4
					c1-2.4,1.4,0.2,0.1-1.3c-1.5-1.8-4-3.2-5.7-5c-4.9-5.4-9.7-11-14.8-16.3c-5.3-5.3-10.1-10.8-14.9-16.6c-2.5-3-4.3-6.2-6.4-9.6
					c-1.6-2.6-4.3-5.5-4.7-8.6c-0.4-4.1-3.2-7.7-7.7-7.7C444,198.2,439.7,201.7,440.1,205.9L440.1,205.9z"/>
			</g>
		</g>
		<g>
			<g>
				<path class="st23" d="M467.5,190.9c9.8,0,9.9-15.3,0-15.3C457.6,175.6,457.6,190.9,467.5,190.9L467.5,190.9z"/>
			</g>
		</g>
		<g>
			<g>
				<path class="st23" d="M118.8,198.2c1.8,4.6,3.7,10.1,9.2,11.1c2.5,0.5,5.7-0.7,6.3-3.6c1.3-7-4.1-14.1-9.3-18.3
					c-4-3.3-9.4-0.2-8.5,5c1.7,9.9,7.9,17.4,15.8,23.3c3.8,2.8,8.1,5.4,12.4,7.5c5.5,2.7,11.5,3.9,16.9,6.5c5.9,2.8,11.1-6,5.1-8.8
					c-8.7-4.1-17.6-6.3-25.8-11.6c-7.3-4.8-13.1-10.7-14.6-19.6c-2.8,1.7-5.7,3.3-8.5,5c1.7,1.4,7.1,6.4,6.7,8.4
					c2.1-1.2,4.2-2.4,6.3-3.6c-0.9-0.2-1.7-3.1-2-4C126.3,189.5,116.5,192.1,118.8,198.2L118.8,198.2z"/>
			</g>
		</g>
		<g>
			<g>
				<path class="st23" d="M120.1,189.8c4.4,8,9.4,15.5,14.1,23.3c2.9-1.7,5.9-3.4,8.8-5.1c-3.5-5.6-7.3-11.2-9.9-17.2
					c-2.8-6.5-2.7-12.8-3-19.8c-0.3-6.5-10.5-6.6-10.2,0c0.4,7.8,0.2,14.9,3.3,22.3c2.9,7.1,7,13.4,11,19.9
					c3.5,5.6,12.2,0.5,8.8-5.1c-4.7-7.8-9.7-15.4-14.1-23.3C125.7,178.9,116.9,184,120.1,189.8L120.1,189.8z"/>
			</g>
		</g>
		<g>
			<g>
				<path class="st23" d="M69.1,186.4c9.2,8.7,20.7,14.2,32.2,19.3c12.6,5.6,25.3,11.7,38.6,15.5c6.3,1.8,9-8,2.7-9.8
					c-12.5-3.6-24.3-9.2-36.1-14.5c-10.6-4.7-21.6-9.7-30.1-17.7C71.6,174.7,64.3,181.9,69.1,186.4L69.1,186.4z"/>
			</g>
		</g>
		<g>
			<g>
				<path class="st23" d="M167.6,228c4.5,3.2,9.9,4.1,15.3,4.6c7.3,0.8,13.7,2.6,20.8,4.4c6.8,1.8,14,2.1,21,2.5
					c7.6,0.4,15.3,1.4,22.9,1.5c2.8,0,3.6-4.5,0.7-5c-1.9-0.3-3.8-0.5-5.6-1.2c-3-1.2-4.4,3.7-1.4,4.9c1.9,0.7,3.6,0.9,5.6,1.2
					c0.2-1.7,0.5-3.3,0.7-5c-6.7-0.1-13.4-1-20.1-1.3c-7.5-0.4-15.2-0.5-22.5-2.4c-5.8-1.5-11.3-3.5-17.2-4.1
					c-6-0.6-12.5-0.7-17.6-4.4C167.6,221.7,165,226.1,167.6,228L167.6,228z"/>
			</g>
		</g>
		<g>
			<g>
				<path class="st23" d="M112,338.5c-6.5,0-18.2-0.4-20.4,7.5c-2.9,10.4,13,16,20.4,17.7c9.7,2.3,21.1,3.4,30.1-1.8
					c8.4-4.8,12.8-13.9,16.3-22.5c0.8-1.9-0.5-4.9-2.3-5.8c-7.9-3.5-16.9-5.1-23.4-11.2c-2.6-2.4-7.8-1.7-8.5,2.3
					c-2,11.1-21.1,11.2-21.7,22.6c-0.6,11.1,20.6,12.2,28,10.7c5.4-1.1,9.9-4.1,13.7-7.9c3-3,9-7.4,6.1-12.3
					c-2.9-4.7-12-5.6-16.8-4.7c-6.6,1.2-11.7,5.8-16.7,9.7c-3.6,2.8-0.5,8.8,3.6,8.7c6.5-0.1,11-5.1,17-6.4
					c-1.3-3.1-2.6-6.2-3.9-9.3c-4.3,2-9,1.6-13.1,4.4c-3,2-3.6,7,0,8.8c2.6,1.3,5,1.7,7.9,1.2c2.4-0.4,4.7-2,7.1-2.3
					c6.4-0.7,6.5-11,0-10.2c-2.2,0.3-8,3.4-9.8,2.5c0,2.9,0,5.9,0,8.8c3.8-2.6,8.9-2.4,13.1-4.4c5.5-2.5,1.4-10.5-3.9-9.3
					c-4.8,1-9.5,5.9-14.3,6c1.2,2.9,2.4,5.8,3.6,8.7c3.1-2.5,6.4-5.4,10.3-6.6c2.6-0.8,4.2,0.3,6.6,0.3c0.5,0.2,1,0.3,1.5,0.5
					c-0.2-2.1-0.3-4.2-0.5-6.3c-0.2,0-1.4,1.3-1.6,1.5c-5.5,5.4-9.2,9.5-17.4,8.8c-1.8-0.2-3.6-0.5-5.4-0.9c-1.3-0.3-2.6-0.9-3.9-1
					c-1.7-0.2-1.7-2-1.4,1.1c0.2,2.8,1.2,0.7,2.9-0.4c1.2-0.9,2.5-1.6,3.8-2.4c6.7-4.1,13.8-8.8,15.3-17.1c-2.8,0.8-5.7,1.5-8.5,2.3
					c7.4,7,16.4,8.9,25.4,12.8c-0.8-1.9-1.6-3.8-2.3-5.8c-2.2,5.3-4.8,11.1-9.3,14.8c-4.5,3.7-10.4,4.1-16,3.7c-4-0.3-8-1-11.9-2.2
					c-3.2-1-6.1-3.5-9.2-4.5c-0.9-1.4-1.5-0.9-1.6,1.3c0.1,0,0.3-0.1,0.4-0.1c0.2,0.2,3.3-0.7,3.8-0.8c2.3-0.3,4.7-0.3,7.1-0.3
					C118.5,348.7,118.5,338.5,112,338.5L112,338.5z"/>
			</g>
		</g>
		<g>
			<g>
				<path class="st23" d="M321.1,353.4c0.3,2.1,0.7,4,1.3,6.1c1.4,4.7,8.6,5,9.8,0c0.1-0.5,0.2-1,0.4-1.5c-3.1,0.4-6.2,0.8-9.3,1.2
					c4.6,10,11.4,19.6,22,23.7c11.2,4.3,23.6,0.5,34.4-3.1c7.6-2.5,23.5-11.3,13.9-21c-3-3.1-7.6-4.6-11.7-5.7
					c-1.8-0.5-3.7-1-5.5-1.3c-2.7-0.5-6.7,0.1-9.2-1c-2.5-1.2-2.4-4.5-4-6.5c-2-2.4-4.9-2.9-7.9-2.7c-8.5,0.6-16.4,4.6-24.7,6.4
					c-2.6,0.5-4.5,3.8-3.6,6.3c8.3,23.3,48.2,42.1,64.3,16.2c1.8-2.9,0-6.5-3-7.5c-9.1-2.8-21.5-1.9-28.7-8.9c-3-2.9-5-5.4-9.4-5.9
					c-4.7-0.5-8.8,1.8-13,3.5c-2.8,1.2-5,4.5-3,7.5c2.2,3.3,5,5.6,8.4,7.7c3.1,1.8,5.5,4.1,8.3,6.3c2.6,2.1,5.2,3.4,8.5,3.8
					c4.1,0.5,8.2-0.8,12.4-0.4c5.7,0.5,7-9,1.4-10c-3.6-0.7-7.1-2.5-10.2-4.3c-1.8-1-3.7-2.1-5.4-3.4c-0.6-0.5-1.2-1.2-1.9-1.6
					c-1-0.6-0.2-1.7-0.3,0.4c0.2-6.6-10-6.6-10.2,0c-0.2,5.4,5.7,9.2,9.7,11.7c4.6,2.9,10.1,6.1,15.6,7.1c0.5-3.3,0.9-6.7,1.4-10
					c-2.9-0.3-5.6,0.2-8.5,0.4c-3.4,0.2-4.9-0.7-7.4-2.9c-1.8-1.5-3.5-3.2-5.6-4.5c-2.6-1.7-5.5-2.8-7.3-5.5c-1,2.5-2,5-3,7.5
					c2.9-1.2,7.5-4.3,10.4-2.5c1.4,0.9,2.4,2.7,3.7,3.8c1.8,1.5,3.9,2.7,6,3.7c8.1,3.7,17.1,3.7,25.6,6.3c-1-2.5-2-5-3-7.5
					c-11,17.7-40.4,1.2-45.7-13.7c-1.2,2.1-2.4,4.2-3.6,6.3c3.9-0.8,7.6-2,11.4-3.2c3.3-1,7-1.5,10.2-2.7c2.1,0.2,2.4,0,1.1-0.8
					c-0.7-0.8-0.9-0.9-0.7-0.4c-0.2,0.4,0.9,2.5,1.2,3c1.4,2.6,3.5,4.7,6.2,6c4.4,2.2,9.9,1.4,14.6,2.6c2.1,0.5,4.3,1.1,6.2,1.9
					c0.6,0.2,2.2,1.5,2.7,1.5c0.1,0.1,0.1,0.1,0.2,0.2c0.3,0.5,0.3,0-0.1-1.3c-4.4,4-9.8,5.5-15.4,7c-5.5,1.5-11.2,3.5-17,2.8
					c-11.1-1.2-17.5-11.3-21.8-20.6c-1.9-4.1-8.3-2.8-9.3,1.2c-0.1,0.5-0.2,1-0.4,1.5c3.3,0,6.6,0,9.8,0c-0.3-1.1-0.6-2.2-0.9-3.4
					C330.5,347,320.3,346.9,321.1,353.4L321.1,353.4z"/>
			</g>
		</g>
		<g>
			<g>
				<path class="st23" d="M328.2,370.8c1.9,5.4,4.9,10.4,10.1,13c5.2,2.6,11,2.4,16.6,1.5c6.5-1.1,3.7-10.9-2.7-9.8
					c-6.7,1.1-11.8-0.6-14.1-7.4C335.9,362,326.1,364.6,328.2,370.8L328.2,370.8z"/>
			</g>
		</g>
		<g>
			<g>
				<path class="st16" d="M201.9,145.7c-0.5,1.3-1.9,1.9-2.3,3.6c-0.2,1,0.1,2.4,1.2,2.9c1.9,0.9,3.5,1.1,5.6,1.2
					c2.3,0.1,3.3-2.8,1.8-4.4c-2.8-2.9-5.9-5.3-9.7-6.8c-2.2-0.8-3.8,1.9-2.9,3.7c2.6,5.2,6.7,9.4,10.9,13.2
					c1.3,1.2,3.9,0.9,4.3-1.1c0-0.1,0.1-0.3,0.1-0.4c0.3-1.5-0.4-2.6-1.8-3.1c-0.9-0.4-1.9-0.4-2.9-0.5c-2.1-0.1-3.5,2.9-1.8,4.4
					c9.1,7.4,22.1-2.4,30.3-6.7c2.8-1.5,0.7-5.1-2-4.7c-6.1,1-10.6,5.3-16.3,7.5c-2.4,0.9-2.4,5.4,0.7,5c7.7-0.9,17.2-4.2,18.2-13
					c0.1-1.2-0.9-2.1-1.9-2.5c-11-4.5-24-6.7-35.5-3.3c-2.1,0.6-2.5,3.5-0.6,4.7c8,4.9,20.4,0.1,26.9,7c0.4-1.4,0.8-2.8,1.1-4.3
					c-5.7,1.5-11.7-1.6-17.5-1.4c-2.6,0.1-3.4,3.4-1.3,4.8c4.4,2.9,9.1,4.1,14.3,5.1c0.2-1.7,0.5-3.3,0.7-5
					c-3.9-0.1-7.8-0.2-11.7-0.4c-2.8-0.1-3.1,3.3-1.3,4.8c1.9,1.5,3.8,3.1,5.7,4.6c0.9-1.5,1.7-2.9,2.6-4.4c-4.9-3.2-9-7.5-14.9-8.7
					c-2.1-0.4-3.4,1.2-3.1,3.1c1.3,9,9.8,12.4,18,11.4c6.9-0.8,16.4-4.7,17.6-12.6c0.5-3.2-4.4-4.6-4.9-1.4
					c-1.6,10.7-24.1,13.2-25.7,1.2c-1,1-2.1,2.1-3.1,3.1c5.4,1.2,9.2,5.3,13.7,8.2c2.8,1.8,5.1-2.5,2.6-4.4
					c-1.9-1.5-3.8-3.1-5.7-4.6c-0.4,1.6-0.9,3.2-1.3,4.8c3.9,0.1,7.8,0.3,11.7,0.4c2.8,0.1,3.6-4.5,0.7-5c-4.7-0.8-9-1.9-13.1-4.6
					c-0.4,1.6-0.9,3.2-1.3,4.8c6.5-0.2,12.4,2.9,18.9,1.2c1.9-0.5,2.4-2.9,1.1-4.3c-7.7-8-19.3-2.6-28-7.8c-0.2,1.6-0.4,3.1-0.6,4.7
					c10.7-3.1,22.7-0.8,32.8,3.3c-0.6-0.8-1.2-1.6-1.9-2.5c-0.6,5.4-8.7,7.4-13.1,7.9c0.2,1.7,0.5,3.3,0.7,5
					c5.6-2.1,10.3-6.6,16.3-7.5c-0.7-1.6-1.3-3.1-2-4.7c-5.5,2.9-18,12.5-24.1,7.5c-0.6,1.5-1.2,2.9-1.8,4.4c0.5,0,1.1,0.1,1.6,0.3
					c-0.6-1-1.2-2.1-1.8-3.1c0,0.1-0.1,0.3-0.1,0.4c1.4-0.4,2.8-0.8,4.3-1.1c-4-3.6-7.7-7.4-10.1-12.2c-1,1.2-1.9,2.5-2.9,3.7
					c2.9,1.1,5.3,3.3,7.4,5.5c0.6-1.5,1.2-2.9,1.8-4.4c-1.1,0.1-2.1-0.1-3.1-0.5c0.4,1,0.8,1.9,1.2,2.9c0.3-1.3,1.8-2.1,2.3-3.6
					C207.9,144,202.9,142.7,201.9,145.7L201.9,145.7z"/>
			</g>
		</g>
		<g>
			<g>
				<path class="st24" d="M112.8,240.2c-18.5,11.2-3.7,36.8,9.5,45.5c7.5,5,17.9,4.8,22.4-4.1c6.6-13.1-1.3-30.3-10.9-39.6
					c-4.4-4.3-10.4-8.5-16.5-9.7c-7.4-1.5-13.8,2.9-15.6,10.2c-3.5,14.3,5.8,30.1,14.9,40.3c4.4,4.9,10.6,10.3,17.6,10.6
					c6.6,0.2,11.8-4.2,13.3-10.6c3.4-13.9-5.6-28.6-15.1-37.9c-6-5.9-13.2-10.8-20.6-14.6c-1.6-0.8-3.3-1.6-5-2.4
					c-1.3-0.6-3.3-0.8-4.5-1.6c-1.6-1.1-3.1-5.4-4.1-7.6c-3.8-8-11-13.2-17.4-19c-3.1-2.8-6.5-5.5-9.5-8.5
					c-3.2-3.1-4.1-7.6-6.5-11.3c-4.7-7.4-14.7-3.8-15.6,4.2c-2.1,19.8,12.3,35.5,13.9,54.5c5.5-0.7,10.9-1.5,16.4-2.2
					c-1.8-8.3-4.3-16.9-9.7-23.6c-4.6-5.7-14.5-0.9-14.3,5.9c0.5,16.4,10.3,31.4,18.5,45.1c9.2,15.4,21.3,28.9,35.1,40.1
					c13.9,11.2,29.1,20.3,45.7,26.9c17,6.7,36.1,8.5,54.2,10.2c16.4,1.5,36.3,0.9,50.2-9.2c6.7-4.9,10.8-12.5,9.6-20.9
					c-1.1-7.7-6.5-13.1-12-18.1c-13.4-12-27.2-23.8-43.1-32.5c-7.6-4.1-15.6-7.7-22.4-13.2c-6.9-5.6-13.8-10.9-22.2-14.1
					c-9.9-3.8-21.2-5-31.5-7.4c-9.6-2.3-19-4.9-28.5-7.5c-6.4-1.8-12.9-3.6-18.9-6.5c-5-2.4-11.6-5.8-13.5-11.2
					c-2.7,3.5-5.4,7.1-8.1,10.6c4.9,0,9.8,4.5,13.5,7.2c5.5,3.9,11.2,7,17.4,9.7c7,3.1,14.2,6.2,21.6,7.8c7.2,1.6,14.6,2.2,21.8,4
					c13.5,3.3,28.9,6.9,40.9,14.1c9.2,5.5,13.9,17.5,18.6,26.5c3.1,6.1,6.8,11.9,9.9,17.9c3.5,6.7,5.5,13.6,8.2,20.6
					c1.9-3.4,3.9-6.9,5.8-10.3c0.9,0.2,0.6,0.1-1-0.3c-1-0.3-2-0.6-3-1c-1.4-0.5-2.8-1.1-4.3-1.5c-4.1-1.3-8.3-2.5-12.4-3.8
					c-7.5-2.4-15.2-4.7-22.5-7.8c-13.7-5.6-26-14.9-37.5-24c-11.1-8.8-22.2-17.4-33.9-25.3c-10.7-7.2-21.3-14.8-28-26
					c-4.8-8.1-17.9-2.8-15.3,6.4c4.7,16.6,15.5,30.5,25.8,44c4.9,6.4,9.8,12.9,15.4,18.8c6.1,6.3,12.8,11.8,19.7,17.2
					c12.5,9.9,26.1,16.8,41.5,21c8.9,2.4,18.1,3.9,27.3,5c8.7,1,17.6-0.1,26.2,1.1c0.7-5.5,1.5-10.9,2.2-16.4
					c-16.3-1.5-32-7.7-47.2-13.5c-7.2-2.8-14.5-6-22-8c-2.7-0.7-5.7-1.7-8.4-2.1c-0.3-0.1-0.5-0.3-0.8-0.5c-1.6-1-1.2,0.1,1,3.3
					c1.1-1.5,0.2-5.4-0.1-7c-1.9,3.4-3.9,6.9-5.8,10.3c1.8-0.7,8.6,3.7,10.8,4.8c4.3,2.2,8.6,4.4,13,6.4c9,4,18.4,7,27.7,10
					c14.9,4.9,30.5,9.2,46.3,8.2c5.9-0.4,13.2-1.4,16.5-7.2c3.2-5.8,0.3-11.9-3.9-16.2c-7.1-7.3-16.9-11.8-25.6-16.9
					c-2.8,4.8-5.6,9.6-8.4,14.4c6.7,3.8,12.2,9.1,19.9,10.8c6.9,1.5,13.4-5.8,9.4-12.3c-5.1-8.5-14.6-12.6-22.2-18.4
					c-4.4-3.3-8.5-6.6-13.6-8.7c-5.5-2.3-11.1-4-16.6-6.5c-10.5-4.8-20.7-9.6-31.6-13.6c-11-4.1-19.9-9.7-28.8-17.4
					c-1.2,4.7-2.5,9.3-3.7,14c-0.8,0.2,0.7,0.1,1.7,0.4c1.8,0.4,3.5,1.1,5.2,1.8c3.6,1.5,7,3.3,10.6,4.9c9.1,4.1,18.8,5.6,28.3,8.5
					c8.9,2.7,15.2-11.3,6.4-15.3c-10.1-4.6-22.1-5-31.4-11.1c-2.1,5.1-4.3,10.2-6.4,15.3c8.7,3.6,15.3,11,22.2,17.2
					c6.4,5.7,14.2,10.6,18.2,18.4c2.4-4.2,4.8-8.4,7.2-12.6c-5.7-0.2-11.1-3.9-15.9-6.5c-4.9-2.6-10-4.7-15.2-6.8
					c-9.3-3.8-20.6-9.2-30.4-4.6c-4.6,2.2-5.6,9.9-1.7,13.1c11,9,24,14.2,37,19.5c14.5,6,28.6,12.9,43.9,16.4
					c8.7,2,15.5-11.2,6.4-15.3c-18.3-8.3-37.1-15.6-53.7-27.1c-2.8,4.8-5.6,9.6-8.4,14.4c13.4,6,25.6,14.3,38.6,21.1
					c10.3,5.4,21.5,12,33.5,9.2c5.9-1.3,8.4-9.9,3.7-14c-8.8-7.6-19.1-12.6-29.2-18c-6.7-3.6-16.8,4.3-11.4,11.4
					c5,6.6,11.8,10,18.9,13.7c9.5,5,18-9.4,8.4-14.4c-3.9-2.1-10.2-4.1-12.9-7.7c-3.8,3.8-7.6,7.6-11.4,11.4
					c8.7,4.7,18.2,8.9,25.8,15.4c1.2-4.7,2.5-9.3,3.7-14c-3.8,0.9-8.3-1.3-11.6-2.9c-4.7-2.2-9.3-4.7-13.8-7.2
					c-11.2-6.3-22.1-13.2-33.9-18.5c-9.7-4.4-17.4,8.2-8.4,14.4c16.6,11.4,35.5,18.8,53.7,27.1c2.1-5.1,4.3-10.2,6.4-15.3
					c-14.4-3.3-27.6-9.6-41.1-15.3c-11-4.6-23.1-8.7-32.4-16.4c-0.6,4.4-1.1,8.8-1.7,13.1c-2.1,1,0.1,0.4,1.4,0.7
					c2.3,0.5,4.6,1.2,6.9,2c4.3,1.5,8.4,3.3,12.6,5c10.8,4.3,20.2,12.1,32.2,12.6c6.7,0.3,10-7.2,7.2-12.6
					c-5-9.6-14.1-15.6-21.9-22.7c-8.8-8.1-17.3-15.9-28.5-20.5c-9.1-3.8-14,10.4-6.4,15.3c9.7,6.3,21.2,6.5,31.4,11.1
					c2.1-5.1,4.3-10.2,6.4-15.3c-9.8-3-19.6-4.6-28.9-9c-7.9-3.8-16.6-8.4-25.7-6.5c-5.9,1.2-8.3,10-3.7,14
					c8.8,7.6,17.8,14.2,28.5,18.7c10.1,4.2,20.3,7.9,30.2,12.6c5.3,2.5,10.6,4.9,16.1,7.1c5.1,2,9.7,3.5,14.2,6.7
					c3.8,2.8,7.5,5.7,11.5,8.3c3.4,2.2,7.5,4.3,9.6,7.8c3.1-4.1,6.3-8.2,9.4-12.3c-6-1.4-10.6-6.1-15.9-9.1
					c-9.4-5.3-17.7,9-8.4,14.4c6.7,4,14.3,7.6,20.2,12.4c0.9,0.8,1.8,1.6,2.6,2.5c0.5,0.6,0.6,0.1,0.4,0.6c0,0-1.2-9,2.2-7
					c0.2,0.1-1.7,0.5-2.4,0.6c-3.1,0.5-8,0.3-11.6,0.1c-15.8-0.9-31.5-7.5-46.4-12.6c-7.7-2.6-14.8-6.1-22-9.7
					c-6.9-3.5-15.7-9.3-23.6-6.4c-4.5,1.6-6.7,5.5-5.8,10.3c-0.3-1.8-0.4,1.2-0.4,1.5c-0.1,1.2-0.1,2.2,0.2,3.4
					c0.5,2.1,1.5,4,3.1,5.6c2.7,2.8,6.3,4.5,10,5.6c3.2,1,6.6,1.5,9.8,2.6c4.8,1.6,9.6,3.4,14.3,5.2c18.5,7,36.9,14.2,56.7,16
					c9.3,0.9,11.6-15.1,2.2-16.4c-8.3-1.2-16.6-0.4-24.9-1.1c-8.5-0.7-17-2.1-25.2-4.1c-13.9-3.3-26.5-8.9-37.7-17.8
					c-12.2-9.7-22.7-20-32.2-32.3c-9.4-12.2-19.8-24.9-24.1-40c-5.1,2.1-10.2,4.3-15.3,6.4c7.9,13.4,20.1,22.7,32.7,31.2
					c12.4,8.4,24,17.5,35.8,26.7c13.2,10.3,26.7,19.7,42.4,25.8c8.6,3.3,17.4,6.1,26.3,8.8c7.8,2.4,16,6.6,24.3,4.9
					c4.1-0.9,7.4-6.3,5.8-10.3c-2.6-6.8-4.5-13.6-7.7-20.1c-3-6.3-6.7-12.2-10.1-18.4c-6-10.9-10.9-23.1-20.4-31.7
					c-10.9-10-27.3-13.8-41.2-17.7c-15.4-4.4-31.3-5.6-46.3-11.6c-7.8-3.1-14.9-7.1-21.8-11.9c-6.2-4.3-12.9-8.5-20.8-8.6
					c-5.1,0-9.9,5.4-8.1,10.6c4.5,12.4,15.7,19.1,27.3,23.9c12.4,5.1,25.9,8.3,38.9,11.5c8.6,2.1,17.2,4,25.9,5.9
					c8.3,1.8,15.1,4,22.1,9.1c6.4,4.7,12.2,9.7,19.2,13.6c7.3,4.1,14.8,7.7,21.9,12.3c6.8,4.5,13.1,9.5,19.2,14.7
					c5.2,4.4,11.6,9,15.7,14.4c8.1,10.6-20.6,14.3-25.9,14.5c-16.2,0.7-33.7-1.9-49.5-5.4c-15.8-3.5-30.5-10.7-44-19.7
					c-14.6-9.7-27.8-22-37.8-36.4c-4.9-7-9.2-14.6-13.3-22.1c-3.8-6.9-7.9-14.6-8.1-22.6c-4.8,2-9.5,3.9-14.3,5.9
					c3.1,3.8,4.3,11.3,5.4,16.2c2,9.1,17.2,7.3,16.4-2.2c-0.9-9.9-4.4-18.8-8-28c-3.4-8.5-6.9-17.2-5.9-26.5
					c-5.2,1.4-10.4,2.8-15.6,4.2c3.2,5.1,4.6,10.4,9.1,14.7c3.9,3.8,8.3,7.4,12.4,11c3.9,3.3,8.5,6.7,11,11.2
					c2.5,4.7,4.1,9.7,8.2,13.3c3.5,3.1,8.1,4,12.2,6.1c4.5,2.3,8.9,4.9,12.9,8.1c6.8,5.4,14.2,13.7,15.1,22.3c0.1,1-0.1,2.1,0.1,3.1
					c0-0.3-0.5,0.1,0.1,0.1c0.7-0.1,3.2-1.9,3.2-1.8c0-0.1-3.8-2.9-4.1-3.2c-1.8-1.7-3.4-3.6-4.9-5.5c-2.9-3.9-5.4-8.3-6.9-13
					c-0.5-1.6-1-3.3-1.1-5.1c-0.1-0.8,0.2-2,0-2.8c0.6-1.5,0.4-1.5-0.6,0c-0.6,1.2-1.6,1.7-3,1.7c-0.7,0.5-0.2-0.3,0.3,0.1
					c0.8,0.6,2.1,1.1,2.9,1.6c1.7,1,3.2,2.1,4.6,3.5c3.7,3.6,6.4,8.3,7.7,13.3c0.4,1.7,0.6,4.9,0.5,5.7c0.2-1-0.3,1.3-0.3,1.2
					c-0.6,1.7,1-0.7-0.1,0.3c2.7-2.3-0.9,0.5,0.8-0.9c0.3-0.2,2.5-1.4,1.2-0.7c0.4-0.1,0.9-0.1,1.3-0.2c-0.3,0-0.6,0-1,0
					c3-1.8,0.3,1.3,0.2-0.2c0,0.1,1.5,1-0.2-0.1c-0.5-0.4-1.1-0.7-1.7-1c-1.9-1.2,1.2,1.1-0.5-0.4c-0.7-0.7-1.5-1.4-2.2-2.1
					c-2.2-2.3-3-3.3-4.8-6.7c-0.3-0.6-0.6-1.2-0.9-1.8c-0.2-0.5-0.2-0.5,0.1,0.2c-0.2-0.5-0.4-0.9-0.5-1.4c-0.2-0.7-0.4-1.4-0.6-2.1
					c-0.5-1.8,0.1,1.4-0.1-0.5c-0.1-0.6,0-1.3,0-1.9c-0.2,2.2,0,0.4,0.2-0.2c-1.2,2.7,1-1.2-0.7,1.1c0.3-0.3,0.6-0.6,0.9-0.9
					c-0.8,0.6-0.9,0.7-0.1,0.2C130.4,249.1,122,234.6,112.8,240.2L112.8,240.2z"/>
			</g>
		</g>
		<g>
			<g>
				<path class="st24" d="M218.5,276.9c19.1,0.9,37.9,4.2,56.8,6.3c9.1,1,18.3,1.8,27.4,1.8c9.7,0.1,19.1-1.2,28.7-2.2
					c9.3-1,18.9-1.6,27.9-4.4c9.6-2.9,18.8-7.1,28.2-10.6c7.7-2.8,15.1-5.7,21.8-10.6c6.4-4.7,11.7-10.3,17.3-15.8
					c1.8-1.8,3.7-3.5,5.6-5.1c1.5-1.2,3.5-2.1,4.8-3.4c2.5-2.6-6,1.9-5.5-2.6c0-0.1,0.5,1.6,0.7,2.1c0.6,1.7,1.1,3.4,1.8,5.1
					c1.9,4.7,5.1,8.6,8.1,12.7c1.4,1.9,2.5,4,4.1,5.7c0.5,0.6,1,1.1,1.6,1.6c0.6,0.6,3.1,3.2,1.2,0.9c-0.7-1.2-1.4-2.5-2.1-3.7
					c0,0.1,0,0.3,0.1,0.4c0-1.5,0-3,0-4.4c-0.4,2.8-2.2,4.2-4.2,6.1c-3.3,3.3-6.4,6.7-9.9,9.8c-6.7,6-13.8,11.8-21.1,17
					c-13.9,9.9-29.4,17.2-45.5,22.7c-16.4,5.7-33.4,9.7-50.5,12.8c-8.7,1.6-17.5,3.2-26.3,3.4c-9.9,0.1-19.7-0.8-29.6,0.1
					c-10.8,1-21.2,2.6-32.1,2c-10.2-0.5-20.7-1.3-30.5,2.2c-10.1,3.5-5.8,19.7,4.4,16.1c8.4-2.9,17.4-2,26.1-1.6
					c10.2,0.5,20-0.8,30.1-1.9c10.3-1,20.4-0.2,30.6-0.2c9.4,0,18.6-1.7,27.9-3.3c34.9-6,70.9-15.7,100.7-35.7
					c15-10.1,30.8-22.3,42.1-36.6c2.4-3,4.3-6.9,4.3-10.8c0-2.3-0.9-4.6-2.5-6.3c-0.6-0.7-1-0.7-1.9-1.6c-0.9-0.8,0.5,0.6-0.2-0.3
					c-2.5-3.3-5-6.6-7.2-10.1c-2.2-3.4-2.9-7.2-4.6-10.8c-9.4-21.1-32.5,6.9-41,14.7c-5.7,5.2-12,9.4-19.3,12
					c-10.3,3.7-20.4,8.1-30.8,11.5c-10.5,3.4-21.7,3.7-32.5,5c-11.7,1.4-23.5,1.4-35.2,0.6c-23.3-1.7-46.2-6.5-69.6-7.6
					C207.8,259.7,207.8,276.4,218.5,276.9L218.5,276.9z"/>
			</g>
		</g>
		<g>
			<g>
				<path class="st24" d="M172.9,337.5c22.5,13.4,50.6,4.2,74.8,9.6c0-5.4,0-10.7,0-16.1c-4.9,1.5-10.3,0.8-15.4,0.3
					c-5.8-0.5-11.5-0.8-17.2-1.9c-10.5-2.1-15,13.7-4.4,16.1c6.7,1.6,13.6,2.8,20.3,4.4c0-5.4,0-10.7,0-16.1
					c-8.7,1.6-18.5-2.9-27.2-3.5c0.7,5.5,1.5,10.9,2.2,16.4c9-1.7,19.1,2.2,28,3.1c11,1.1,21.7,3.8,32.8,3
					c11.5-0.9,22.9-2.6,34.3-3.6c12-1.1,24-2.3,35.8-4.9c21.3-4.7,42.8-12.7,62.6-21.7c8.4-3.8,16.3-8.1,22.9-14.6
					c3-2.9,5.7-6.2,8.3-9.5c0.8-1,1.5-2,2.3-3c-1.8,2.1-0.7,0.9-0.3,0.5c0.9-0.8,1.8-1.9,2.7-2.7c7.6-7.5,27.6-23.7,16.2-35.4
					c-7.5-7.7-19.3,4.1-11.8,11.8c-1.2-1.2-1.4-2.4-1.6-3.8c-0.4-4.1,0.3-0.2,0-0.6c-0.3-0.4,0.7-1.2-0.2,0.2
					c-0.3,0.5-0.6,0.9-0.9,1.4c-1,1.5-2.8,3.5-4.5,5.4c-3.7,3.9-7.7,7.5-11.3,11.4c-4.2,4.6-7.9,10.1-13,14.5
					c-6.2,5.4-14.4,8.8-22,12c-18.3,7.8-38,14.9-57.6,18.7c-10.4,2-20.9,2.9-31.4,3.8c-10.5,1-21,2.7-31.5,3.4
					c-11,0.7-22.4-1.8-33.3-3.2c-10.5-1.3-20.5-4.4-31.1-2.3c-9.7,1.9-6.7,15.8,2.2,16.4c10.8,0.7,20.7,4.9,31.7,2.9
					c8.2-1.5,7.8-14.3,0-16.1c-6.7-1.6-13.6-2.8-20.3-4.4c-1.5,5.4-3,10.7-4.4,16.1c7.2,1.4,14.4,1.8,21.6,2.5
					c6.6,0.6,13.4,1.1,19.8-0.9c7.5-2.3,8.4-14.3,0-16.1c-12.9-2.8-26.3-2.1-39.5-2.4c-10.4-0.3-22.2,0-31.4-5.5
					C172.1,317.5,163.6,332,172.9,337.5L172.9,337.5z"/>
			</g>
		</g>
		<g>
			<g>
				<path class="st24" d="M218.5,261.8c-4.4-4-9.1-7.7-14-11.1c-2.3-1.6-4.6-3.2-6.9-4.7c-1.4-0.9-3.9-1.9-4.5-3.2
					c-4.4,3.4-8.8,6.8-13.1,10.1c1.2,1.3,2.1,2.4,3.1,3.9c1.7-4.1,3.3-8.2,5-12.3c-6.3,2-13.3-0.2-19.8-0.3
					c-5.2-0.1-11.3,2.5-16.4,1.1c0.7,5.1,1.3,10.2,2,15.3c3.4-1.5,8.6-0.9,12.3-0.9c4.3,0,8.1,1.3,12.7,1.7c5.5,0.5,11.1-1,14.4-5.8
					c1.5-2.1,2.4-4.5,2.5-7.1c0.1-0.8,0.1-1.5,0-2.3c-0.1-0.7-0.2-1.5-0.3-2.2c-0.2-1.6-0.2-0.8,0,2.5c-0.7,1.2-1.4,2.5-2.1,3.7
					c-1.8,2.1-3,0.5-0.2,1c1.6,0.3,3.2,0.7,4.8,1.2c3.6,1.2,7,2.1,10.7,2.7c8.3,1.2,16.7,1.7,25,2.2c17.4,1.1,34.8,1.2,52.2,1.5
					c33.4,0.5,66.4-7.1,98.9-13.5c8-1.6,16.1-2.6,24.1-4.6c7.4-1.9,14.9-4.2,22.7-3.3c-2-4.8-3.9-9.5-5.9-14.3
					c-7,8.1-20.4,9.7-30,13.1c-15.3,5.5-30.8,10.4-46.6,13.9c-15.9,3.6-32,5.3-48.1,7.5c-16.6,2.2-33.3,4.2-50.1,3.6
					c-16.7-0.6-34,1.8-50.3-2.5c1.2,4.7,2.5,9.3,3.7,14c1.3-1.3,4.6-1.1,6.6-1.1c3.9,0,7.8,0.5,11.7,0.7c9.4,0.5,18.6-2.6,28-2.8
					c9.3-0.2,11.5-13.9,2.2-16.4c-9.9-2.7-20.4-5.9-30.7-3.2c-9.4,2.5-7,15.9,2.2,16.4c15.8,0.8,31.5,2.4,47.3,3.2
					c12.5,0.6,25.6-2.4,37.7,1.7c-0.7-5.1-1.3-10.2-2-15.3c-4.3,2.8-9.7,2.8-14.7,3c-6.1,0.2-12.2,0.3-18.3,1.2
					c-8.1,1.2-16,3.1-24.1,4.6c-7,1.3-12.9,2.3-18.7,6.9c-4.7,3.6-2.3,13.2,3.7,14c30.4,4.1,62.6,6.2,93.1,1.7
					c7.7-1.1,15.3-2.7,22.9-4c7.8-1.4,15.7-1.9,23.5-3.2c14.8-2.5,28.5-8.8,42.2-14.6c11-4.7,24.4-9.5,26.4-23.1
					c-4.1,1.7-8.2,3.3-12.3,5c-1.3-0.8-0.6-0.8,0,0.5c0.6,1.2,1.4,2.4,1.9,3.6c0.4,1,0.7,2,1,3.1c0.1,0.5,0.2,1.1,0.4,1.6
					c0.8,2.4-0.3,0.2,0.1-0.1c1-0.7-0.9,0.4-1,0.4c-0.6,0.3-1.1,1-1.6,1.4c-1.4,1.2-2.7,2.3-4.2,3.4c-3.5,2.7-7.1,5.2-10.8,7.6
					c-14.3,9.5-29.7,17.4-45,25.2c-15.5,7.9-30.7,16.2-47,22.3c-8.2,3.1-16.7,5.7-25.2,7.8c-6.6,1.6-14.7,4.2-21.6,3
					c-5-0.9-7.1-4.2-8.5-8.9c-2.5-8.7-7-18.6-5.2-27.8c-4.7,1.2-9.3,2.5-14,3.7c7.9,8.7,10.4,20.7,19.5,28.7
					c7,6.1,17.9-1.5,13.1-10.1c-5.7-10.2-12.2-19.9-21.7-26.9c-5.7-4.2-14.8,2.8-12.3,9.4c2.9,7.6,7.4,14.5,12.5,20.9
					c5.3,6.6,13.7,14.4,22.8,10.3c19.6-8.7-1.9-37.8-13.4-44.2c-5.8-3.2-15.1,2.3-12.3,9.4c3.3,8.5,9.8,16.2,16,22.8
					c6.3,6.8,16.9,16.2,26.7,10.3c12.2-7.3,3.8-21-3.3-28.2c-7.2-7.3-18.4-16.6-29.1-12c-4.4,1.9-4.7,7.8-3,11.4
					c5.3,11.7,18.2,20.4,30.2,23.7c9.6,2.7,25.2,5.8,30.9-5.2c3.1-6,1.3-12.7-4.2-16.6c-2.1-1.5-4.6-2.5-7-3.4
					c-0.9-0.3-1.8-0.6-2.8-0.9c-0.3-0.1-3.1-1.1-1.8-0.6c-9.6-4-19.7-12.5-30.8-9.7c-4,1-6.6,5.2-6,9.2c0.7,4.4,4,6.8,8.2,7.2
					c7,0.8,13.8,2.5,20.8,3.4c7,0.9,13.9-0.4,20.8-1.8c13.8-2.8,27.2-6,40.8-10.1c12.8-3.9,26-6.1,38.6-10.4
					c5.5-1.9,10.8-4.2,15.8-7.2c3.3-2,8.6-5.9,11.7-6.1c-2-4.8-3.9-9.5-5.9-14.3c-11.4,14-29.3,21.7-45.7,28.2
					c-9.5,3.8-18.9,7.5-28.6,10.6c-11.5,3.6-23.2,6.8-34.6,10.8c-3.9,1.4-6.6,4.9-6,9.2c0.6,3.8,4,7.7,8.2,7.2
					c11.3-1.1,24.8-2.4,34.1-9.5c2.7-2.1,4.5-4.7,4-8.3c-0.4-3-2.7-6.4-6-6.9c-7.2-1.2-14.4-0.6-21.2,2c-2.9,1.1-5.8,2.4-8.4,4.2
					c-2.4,1.6-4.7,4.3-7.4,5.4c-4.2,1.7-7.1,5.6-5.8,10.3c1.1,4,6.1,7.5,10.3,5.8c9.6-3.8,16.7-13.4,28.2-11.5
					c-0.7-5.1-1.3-10.2-2-15.3c-7,5.4-17.1,6.4-25.6,7.2c0.7,5.5,1.5,10.9,2.2,16.4c11.7-4.1,23.7-7.3,35.5-11.1
					c10.3-3.3,20.4-7.3,30.4-11.3c18.1-7.4,37.8-15.9,50.4-31.5c4.1-5.1,2-14.8-5.9-14.3c-10.7,0.7-18.5,8.6-28,12.5
					c-12.5,5.1-26.1,7-39,10.8c-13.2,3.9-26.1,7.8-39.7,10.3c-6.5,1.2-12.9,3.1-19.6,2.3c-7.4-0.9-14.8-2.7-22.2-3.6
					c0.7,5.5,1.5,10.9,2.2,16.4c-1.2,0.3,0,0,0,0c-0.4-0.1,1.1,0.3,1.3,0.3c1.4,0.4,2.7,0.9,4.1,1.4c3.5,1.5,6.9,3.5,10.3,5.2
					c2.8,1.4,5.6,2.6,8.5,3.5c0.8,0.3,2.9,1,3.1,1c0.4,0.2,0.8,0.4,1.2,0.7c0.6,0.4,0.5,0.3-0.2-0.4c-0.8-0.5-1.1-1.3-0.8-2.3
					c-0.5-1.1-0.3-2.1,0.5-2.9c0.8-1.3,2.1-0.2,0.6-0.6c0.8,0.2-1.3,0.1-1.5,0.1c-1.4,0-2.9-0.1-4.3-0.3c-2.8-0.4-5.7-1.1-8.5-2
					c-7.7-2.4-15.5-8.2-18.9-15.7c-1,3.8-2,7.6-3,11.4c-3,0.6-3.9,0.8-2.6,0.8c0.6,0,0.4,0-0.8-0.1c0.2,0,2.3,0.8,0.7,0.1
					c1.5,0.6,2.9,1.5,4.2,2.4c2.8,1.8,5.3,4,7.7,6.6c0.7,0.7,2.8,3.1,2.7,3.1c0.5,0.7,0.9,1.4,1.4,2.1c0.1,0.2,0.2,0.4,0.4,0.7
					c-0.3-0.9-0.4-1-0.1-0.1c0.1,0.2,0.1,0.4,0.2,0.6c-0.2-0.6-0.2-1.2-0.1-1.8c0.2-0.9,0.3-1.7,1-2.4c0.3-0.3,2.8-1.1,1.5-0.9
					c0.6-0.2,1.2-0.3,1.8-0.1c0.8,0.1,0.7,0.1,0,0c-0.8,0.4,0.2,0.1-0.1,0c-0.7-0.3-1.3-0.7-1.9-1.1c-0.3-0.2-1.5-1-0.6-0.4
					c-0.7-0.5-1.4-1.1-2-1.7c-2.7-2.4-5.1-5.1-7.4-7.8c-2.1-2.5-3.5-4.3-5.4-7.2c-0.8-1.2-1.6-2.4-2.3-3.6c-0.5-0.8-1.8-3.8-0.6-0.8
					c-4.1,3.1-8.2,6.3-12.3,9.4c1.6,0.9-0.6-0.8,0.9,0.6c0.9,0.9,1.9,1.8,2.8,2.7c1.8,1.9,3.6,3.9,5.1,6.1c1.6,2.3,3.2,4.9,3.9,7
					c0.5,1.5,0,1.2,0.4,0.5c1.1-2,2.2-2.5,4.4-2.7c0.2,0,0.7,0.5-0.4-0.3c-1.1-0.7-0.8-0.5-2-1.7c-2-2-3.7-4.1-5.3-6.4
					c-1.6-2.4-3.2-4.8-4.6-7.3c-0.6-1.1-1.2-2.2-1.8-3.3c-0.3-0.5-0.4-1-0.7-1.5c-0.6-1,0.7,1.8,0.2,0.4c-4.1,3.1-8.2,6.3-12.3,9.4
					c7,5.2,11.6,13.5,15.7,20.9c4.4-3.4,8.8-6.8,13.1-10.1c-8.8-7.7-11.7-20-19.5-28.7c-4-4.5-12.8-2.4-14,3.7
					c-2.1,11,0.6,21.2,3.7,31.7c2.5,8.6,4.9,16.4,12.6,21.8c6.4,4.4,14.6,5.1,22.1,4.1c10.6-1.4,21.1-4,31.3-7.2
					c20.7-6.6,39.7-16.5,59-26.3c18.7-9.6,37.6-19.1,54.7-31.4c7.9-5.7,20.3-12.8,18.9-24.1c-0.9-7.6-4.8-17.4-11.5-21.7
					c-4.1-2.7-11.5-0.3-12.3,5c-0.8,5.5-5.6,7.5-10.4,9.6c-6,2.6-12.1,5.2-18.1,7.6c-8.4,3.4-16.9,6.6-25.8,8.3
					c-8.6,1.7-17.5,2.1-26.2,3.6c-8.7,1.5-17.4,3.4-26.2,4.5c-8.8,1-17.8,1-26.7,1.1c-18.1,0-36.3-0.8-54.2-3.2
					c1.2,4.7,2.5,9.3,3.7,14c1.8-1.4,5.3-1.5,7.4-1.9c3.5-0.6,7-1.2,10.4-1.9c6.8-1.4,13.7-3.2,20.6-3.6c11.2-0.7,23.9,0.8,33.8-5.6
					c6.2-4,4.9-13-2-15.3c-13.2-4.5-27.1-1.8-40.6-2.2c-16.2-0.5-32.5-2.4-48.8-3.3c0.7,5.5,1.5,10.9,2.2,16.4
					c7-1.9,15.1,1.4,21.8,3.2c0.7-5.5,1.5-10.9,2.2-16.4c-10.7,0.2-21,3.4-31.8,2.5c-9.2-0.7-19.1-1.3-26.3,5.5
					c-4.6,4.3-2.3,12.4,3.7,14c15.5,4,31.6,2.9,47.5,2.9c17.8,0.1,35-0.5,52.6-2.8c17.4-2.3,34.9-4,52.1-7.6
					c16.7-3.4,33.1-8.4,49.2-14.1c13.2-4.7,30.4-7.3,40-18.4c5-5.8,1.4-13.4-5.9-14.3c-9.4-1.1-18.9,1.8-27.9,4.1
					c-9.8,2.5-19.9,3.6-29.8,5.8c-21.5,4.7-43.4,8.8-65.3,10.8c-22.7,2-46.2,0.8-68.9-0.4c-10.3-0.5-21.5-0.5-31.6-2.9
					c-8.1-2-19.4-7.3-26.5,0.3c-1.7,1.8-2.6,4.3-2.6,6.8c0,0.8,0.1,2,0.4,2.7c0-0.3-0.1-0.6-0.1-0.9c0,1.2,0.1,1,0.3-0.6
					c2-2.1,1.8-1.3-0.8-1.8c-2-0.3-3.9-0.9-5.8-1.2c-8.8-1.4-19.2-0.8-27.4,2.7c-6.9,3-4.4,13.5,2,15.3c7,2,13.8-0.6,20.8-0.5
					c8.2,0.1,16.2,2.2,24.2-0.3c4.9-1.6,8.1-7.6,5-12.3c-1.7-2.6-3.6-5-5.7-7.3c-7-7.4-16.8,2-13.1,10.1c2.3,5.2,8.3,7.7,12.8,10.7
					c5.3,3.6,10.4,7.3,15.2,11.7C214.6,280.9,226.4,269.1,218.5,261.8L218.5,261.8z"/>
			</g>
		</g>
		<g>
			<g>
				<path class="st6" d="M164.4,167.4c-0.5,4.9-2.1,11.7-0.3,17.4c2.4,7.3,10.2,12.5,17.9,10.1c16.1-5,9.1-26.7,1.1-35.4
					c-4.5-5-12-1.9-14,3.7c-3.3,9.2-0.6,24.6,8.6,29.6c6,3.2,14,1.6,17.4-4.5c2.9-5.4,2.1-12.2,0.5-17.9c-4.7,2.7-9.3,5.4-14,8.1
					c3.6,4,8.9,7.1,14.4,5.5c6-1.6,8.5-7.7,7.8-13.4c-2.8,2.8-5.6,5.6-8.4,8.4c1.9,0.2,3.7,0.1,5.6,0c6.4-0.3,10.3-6.9,7.2-12.6
					c-3.7-7-11.3-11.8-17.4-16.6c-8.2-6.5-16.6-11.8-27.4-8.9c-18.5,5-32.9,22.8-29.7,42.3c3,18.3,20.5,31.5,36.8,37.6
					c13.5,5.1,45,13.2,50.8-6.6c2.3-7.7-1.2-16.3-6.7-21.8c-5.1-5.1-12.3-7-19.4-6.3c-7.7,0.7-15.3,4.6-16.9,12.8
					c-1.7,8.4,4.7,15.1,12.3,17.2c6.5,1.8,14.9,1.1,19.9-3.9c5.8-5.9,4.3-15-2.3-19.4c-4.6-3.1-10.8-4.5-16.3-3.8
					c-7.7,1-12.5,8.2-9.2,15.6c3.3,7.3,11.4,11.3,18.4,14.4c8.2,3.5,20.9,6,24.3-5.5c2.9-9.7-7.1-16.7-13.7-22
					c-6.8-5.5-16.2-11.4-17.5-20.7c-5.1,2.1-10.2,4.3-15.3,6.4c7.8,15,24.5,32.1,43,28.6c9.4-1.8,18.4-9.9,15.2-20.3
					c-1.6-5.2-6.3-9-11.3-10.8c-2.1-0.8-4.3-1-6.5-1.3c-0.7-0.1-1.5-0.2-2.2-0.4c-1.9-0.6-0.1,0.6-1.6-1.2c-1.2,4.7-2.5,9.3-3.7,14
					c1.9-0.5,3.7-1,5.6-1.6c9-2.8,7.3-16.1-2.2-16.4c-0.6,0-1.7-0.3-1.3,0.1c-0.6,4.4-1.1,8.8-1.7,13.1c3.9-1.9,9.3-1,13.5-1.5
					c5-0.6,9.2-2.3,13.3-5.1c7.7-5.4,15.2-12.1,16-22c-4.8,2-9.5,3.9-14.3,5.9c4.9,5.1,10.7,5.7,17,7.6c5.7,1.6,10.1,6,13.9,10.4
					c3.3,3.7,6.6,8,8.4,12.6c1.8,4.7-0.5,7.7-3.8,11.3c-7.3,7.9-18.2,13.4-29,13.6c-7,0.1-14,0.5-21,1.1c-6.9,0.6-13.8,1-20.4-1.2
					c0,5.4,0,10.7,0,16.1c12.3-2.8,22.8-7.9,32.7-15.7c8.3-6.5,17.5-15.6,17.2-27c-0.1-4.7-3.7-8.1-8.4-8.4c-9.9-0.6-20.6,9.7-26,17
					c-2.9,3.9-5,9-3.6,13.9c1.6,6,7.5,9.4,13.5,8.1c8.8-1.9,15.3-11.8,19.8-18.8c4.6-7.2,10.8-17.2,8.8-26.1
					c-1.1-4.7-6-6.6-10.3-5.8c-9.7,1.7-11.4,12.8-5.4,19.4c2.6,2.9,5.8,4.4,9.7,4.9c1.7,0.2,3.5,0.4,5.2,0.3c-0.3,0,1.5-0.1,1.2,0.1
					c0.8,0.3,0.7,0.1-0.2-0.3c-0.9-0.8-1-0.6-0.2,0.6c-0.4-1.4-0.8-2.8-1.1-4.2c0.4,4.3-0.5,7.8,2.1,11.7c1.1,1.6,2.6,2.3,3.8,3.4
					c0.4,0.6,0.9,1.1,1.4,1.6c1.7,1.8,1.7,0.5,0.1-4.1c-2,4.4-0.8,11.3,5,12.3c1.3,0.2,2.6,0.6,3.8,0.5c4.3-0.1-2.8,2.3-2.8-3.8
					c0,5.8,7.3,11.1,12.6,7.2c8.9-6.5,16.5-16.2,14.5-27.9c-1.5-8.6-8.4-18.1-17.3-20c-10.5-2.3-15,13.9-4.4,16.1
					c2.8,0.6,5.2,4.5,5.5,7.3c0.3,3.2-3.6,7.8-6.7,10c4.2,2.4,8.4,4.8,12.6,7.2c0-9-5.8-11.5-13.3-12.8c1.7,4.1,3.3,8.2,5,12.3
					c2-4.5,2.8-8.8,0-13.1c-2-3.1-5.2-5.7-8.3-7.6c1,1,2,2,3,3c0.7,1.1,0.3-1.9,0.3-2.7c-0.1-2-0.5-3.6-1.5-5.4
					c-1.7-3.2-4.4-5.6-7.8-6.9c-2.5-0.9-5.1-1.2-7.8-1.2c-0.5,0-2,0-2.4,0c1.1,1.1,1.2,1.1,0.2,0.1c0.5,0.6,0.8,1.2,0.9,1.9
					c-0.4,1.4-0.8,2.8-1.1,4.2c-0.7,0.7-1.3,1.3-2,2c-3.4-1.9-6.9-3.9-10.3-5.8c-0.9-3.9-0.2-0.9-0.2-0.7c0.2,0.5,0.4-1.7,0-0.3
					c-0.4,1.2-0.7,2.3-1.1,3.5c-0.5,1.3-2.4,4.9-3.7,7.3c-3.1,5.4-6.2,10.3-10.9,14.2c0.6-0.5,0.5-0.6,0,0c-1.2,1.2-1.2-0.2-0.1,0.2
					c-0.8-0.3,0.2-0.1,0.8-0.1c2.2,0.2,4.7,1.5,5.3,3.8c0.2,0.6-0.1,1.4,0.1,2c-0.2-0.7-0.1,0,0.4-0.8c0.7-1.3,0.8-1.4,1.8-2.4
					c2.1-2.3,4.5-4.5,6.9-6.2c1.3-0.8,2.6-1.7,4-2.3c1-0.5-1,0.4,0.4-0.1c1.6-0.6-1.5,0,0,0c-2.8-2.8-5.6-5.6-8.4-8.4
					c0.2,6-8.1,12-12.6,15.4c-7.7,5.7-15.7,9-25,11.2c-8.5,2-7.4,13.6,0,16.1c8.6,2.9,17.7,2.4,26.6,1.6c7.7-0.7,15.6-0.3,23.3-1.2
					c14.7-1.7,29.2-8.8,38.7-20.3c4.7-5.7,8.5-11.9,7.6-19.5c-0.8-7.3-4.7-14-9-19.8c-4.7-6.2-10-11.9-16.5-16.3
					c-3.4-2.3-7.1-3.9-11.1-4.8c-2.9-0.7-6.2-0.7-8.4-3c-5.4-5.6-13.7-1-14.3,5.9c-0.3,3.1-8.4,8.7-11.4,10
					c-3.1,1.3-6.8,0.8-10.1,1.1c-4.7,0.3-8.8,1.2-13,3.2c-4.6,2.2-5.7,9.9-1.7,13.1c4,3.3,8,4.7,13.1,4.8
					c-0.7-5.5-1.5-10.9-2.2-16.4c-1.8,0.6-3.7,1.1-5.6,1.6c-6.5,1.7-7.5,9.3-3.7,14c2.3,2.8,5.4,4.6,8.9,5.5
					c2.2,0.6,5.4,1.5,7.5,1.3c1.6-0.2,0.7,1.8,0.9-0.7c0.1-1.3,0.6-0.8-0.1-1.1c-0.8-0.3-4.3,1-5.6,0.8
					c-9.8-1.6-17.8-12.5-22.1-20.7c-1.9-3.7-6.8-5-10.4-3.4c-4.1,1.8-5.4,5.6-4.8,9.9c1.6,11.6,11.6,19.9,20.2,26.8
					c3.5,2.8,6.8,6.3,10.4,8.9c2.5,1.8-0.2,5.9,3.3-5.3c0.3-0.9,2.8,0.7,0.5-0.3c-1.9-0.8-3.9-1.2-5.8-2.1c-1.9-0.9-3.7-1.9-5.5-3
					c-0.8-0.5-1.6-1-2.4-1.5c-2-1.3,1.1,0.3-0.4-0.3c-3-1.2,0.7-1-0.3,0c0,0.4,0.1,0.8,0.1,1.1c-0.3,3.2-1.7,5.1-4.2,5.8
					c0.8-0.9-1.3,0.1,0.2,0c0.5,0,0.9,0,1.4,0.1c-1-0.2-1-0.1,0,0c0.6,0.1,3.9,1,2.3,0.6c2.1,0.5,0.1,0.6,0.5,0.1
					c0.1,0.1,0.3,0.3,0.4,0.4c-0.9-0.9-1.4-2.1-1.5-3.5c0-1.4,1.7-2.5,1.8-3.3c-0.1,0.5-0.2,0.2-0.9,0.3c-1,0.2-1.7,0.3-3.4-0.2
					c-0.6-0.2-1.4-0.3-1.3-0.6c0.3-0.8,0.7,4.5,0.8,3.1c0,0.2-1,1.4-1.1,1.2c-0.5-0.8,6.9-0.9,8-0.4c1,0.4,0.1-0.3,1.4,1
					c1.1,1.1,1.8,2.2,2.2,3.5c0.4,1.1,0.2,1.7,0.3,1.6c0.7-0.9,0.8,0.3-0.2,0.1c0.3,0.1-2.9,0.3-2.8,0.3
					c-11.3,0.7-24.1-2.6-33.9-8.2c-8-4.6-17-12-18.4-21.8c-0.7-4.9,0.9-10.2,4.2-13.9c3.5-3.9,9.5-8.6,14.9-9.1
					c4.8-0.5,9.4,4.5,12.8,7.3c3.9,3.2,9.5,6.4,11.9,10.8c2.4-4.2,4.8-8.4,7.2-12.6c-1.9,0.1-3.7,0.2-5.6,0
					c-4.2-0.5-8.8,4.3-8.4,8.4c0.5,4.2,9.1-0.8,6.3-3.9c-5.7-6.3-16.2,0.3-14,8.1c0.5,1.7,0.6,4.6,0.9,5.3c-0.6,1.6,0,1.4,1.9-0.7
					c0.7-1.3,1.6-1.8,2.7-1.6c1.7,1.2,2.1,1.3,1,0.3c0.5,0.5,0.4,0.3-0.2-0.6c-1.3-2.9-1.3-7.6-0.5-10c-4.7,1.2-9.3,2.5-14,3.7
					c1.4,1.5,2.4,3.7,3.1,5.7c0.2,0.6,0.4,2.1,0.8,2.6c0,1.2,0,1.4,0,0.7c0.8-1.1,1.9-1.5,3.1-1.3c0.6-0.1,1.6,0.3,1.7,0.2
					c0.3-0.3,0.1-3.3,0.1-3.8c0.3-2.7,0.8-5.3,1.1-8c0.5-4.5-4.2-8.4-8.4-8.4C167.8,159.1,164.9,162.9,164.4,167.4L164.4,167.4z"/>
			</g>
		</g>
		<g>
			<g>
				<path class="st6" d="M183.4,149.1c0.9,0.6,1.6,0.9,2.6,1.2c-1-1-1.9-1.9-2.9-2.9c0.6,4.4,2.2,8.7,4.4,12.5
					c2.7,4.7,9.5,0.6,7.2-4.2c-1-2.2-2-4.3-2.8-6.6c-1-2.7-3.6-3.7-6.1-2.5c-1.1,0.5-1.8,1.2-2.3,2.3c2.5,0.3,5.1,0.7,7.6,1
					c-0.6-2.7,0.4-4.8,1.6-7.1c1.3-2.7-0.2-6.4-3.6-6.3c-6.8,0.3-17.8,2.9-21.5,9.2c-2,3.4,1.3,6.8,4.7,6.1c3.7-0.7,6.9-2.2,10.2-4
					c4.3-2.4,1.3-8.5-3.2-7.6c-5.2,1-10.1-0.5-14.9,2.4c-3.9,2.4-1.4,9.3,3.2,7.6c2.9-1,5.8-1.3,8.8-2c4.5-1.1,3.6-8.4-1.1-8.2
					c-4.5,0.2-8.7,1.3-12.5,3.8c-2.8,1.8-2.7,6.9,1,7.6c1.7,0.6,1.6-0.2-0.3-2.5c-0.1,0.3-0.3,0.6-0.5,0.9c-0.8,0.4-1.7,2-2.3,2.7
					c-1.5,1.6-3.1,3.1-4.4,4.7c-2.7,3.3-4.5,8.4-4.2,12.7c0.4,5,5.1,8.8,9.9,6.3c4.6-2.4,5-8.4,8.7-11.5c-2.3-0.6-4.7-1.2-7-1.8
					c1.9,6,1.4,12.6,3.8,18.6c1.1,2.9,3,5.8,6.5,5.9c3.9,0.1,6.2-3.7,7.8-6.8c-2.2,0.3-4.4,0.6-6.6,0.8c2.4,2.4,3.3,5.8,5.7,8.2
					c2.8,2.9,6.5,3.5,10.4,3.3c2.3-0.1,4.1-1.8,4.2-4.2c0.3-8.7-9.9-9.8-12.4-1.8c-1.8,5.7-0.5,15.3,3,20.2c2.1,2.9,6.5,2.6,7.6-1
					c2.9-9.3,1.9-22.3-3.2-30.7c-1.5-2.5-5.8-2.9-7.2,0c-4.9,10-1.9,25.6,4.4,34.5c1.8,2.6,7,2.9,7.6-1c2.1-13-6.9-28.6-17.8-35.4
					c-2.2-1.3-5.6-0.1-6.1,2.5c-1.8,8.4,1.7,19.8,8.6,25.2c2.2,1.7,6.3,1.6,7-1.8c1.7-9.3-2.3-19.8-10.7-24.6
					c-1.5-0.9-3.9-0.8-5.1,0.7c-4,4.8-4.3,10.5-4.8,16.5c-0.4,5.4,7.9,5.3,8.4,0c0.3-3.4,0-7.8,2.4-10.6c-1.7,0.2-3.4,0.4-5.1,0.7
					c5,2.8,7.9,9.6,6.8,15.2c2.3-0.6,4.7-1.2,7-1.8c-4.5-3.5-7.7-11.3-6.5-17c-2,0.8-4.1,1.7-6.1,2.5c7.4,4.6,15.5,16.9,14,25.9
					c2.5-0.3,5.1-0.7,7.6-1c-4.4-6.3-8-18.7-4.4-26c-2.4,0-4.8,0-7.2,0c4,6.5,4.6,17,2.4,24.2c2.5-0.3,5.1-0.7,7.6-1
					c-1.4-1.9-1.8-4.5-2.2-6.9c-0.2-1.4-0.3-2.8-0.3-4.2c0-0.6,0-1.3,0.1-1.9c0.7-1.8-0.5-2.2-3.8-1.2c1.4-1.4,2.8-2.8,4.2-4.2
					c-3.2,0.1-4.2-0.2-5.7-2.9c-1.3-2.3-2.6-4.4-4.5-6.2c-1.8-1.8-5.4-1.6-6.6,0.8c-0.2,0.4-1.7,2.5-1.6,2.8
					c-1.1-2.4,2.7,0.3,2.7,0.3c0-0.1-0.2-0.2-0.2-0.4c0.2-1.5-1.4-4.8-1.7-6.5c-0.7-3.9-0.8-8.2-2-11.9c-1-3.1-4.6-3.9-7-1.8
					c-1.5,1.3-2.4,3-3.4,4.7c-0.7,1.1-1.3,2.3-2,3.4c-0.2,0.3-0.4,0.6-0.6,0.9c-1.2,1-0.6,1.5,1.6,1.6c0.6-0.4,0.9-4.8,1.5-5.9
					c0.8-1.3,2-2.3,3-3.3c2.5-2.6,5.8-5.5,6.7-9.1c1-4.1-1.7-7-5.5-7.8c0.3,2.5,0.7,5.1,1,7.6c2.6-1.6,5.2-2.5,8.2-2.6
					c-0.4-2.7-0.7-5.5-1.1-8.2c-2.9,0.7-5.9,1-8.8,2c1.1,2.5,2.1,5.1,3.2,7.6c3.5-2.2,8.9-0.8,12.9-1.6c-1.1-2.5-2.1-5.1-3.2-7.6
					c-2.6,1.5-5.2,2.6-8.2,3.2c1.6,2,3.1,4.1,4.7,6.1c2-3.3,10.7-4.9,14.3-5.1c-1.2-2.1-2.4-4.2-3.6-6.3c-2.2,4.5-3.5,8.6-2.4,13.6
					c0.7,3.3,6.2,4.3,7.6,1c-0.2,0.2-0.5,0.5-0.7,0.7c-2-0.8-4.1-1.7-6.1-2.5c1,2.9,2.3,5.8,3.6,8.6c2.4-1.4,4.8-2.8,7.2-4.2
					c-1.9-3.3-3-6.8-3.6-10.5c-0.2-1.4-1.7-2.5-2.9-2.9c-0.2-0.1-0.4-0.3-0.6-0.4C183.1,138.9,178.9,146.1,183.4,149.1L183.4,149.1z
					"/>
			</g>
		</g>
		<g>
			<g>
				<path class="st6" d="M87,223.9c-3.8,2.7-6.1,6.8-4.7,11.6c1.2,4.1,4.6,7.3,8.5,8.7c8.6,3,17.1-4.5,14-13.4
					c-2.7-7.7-13.2-11.1-19.1-4.7c-6.5,7.1,2.3,17.8,10.8,15.1c5-1.6,6.2-8.1,2.8-11.8c-3.8-4.3-9.7-2.6-11.4,2.6
					c-1.6,5.1,6.4,7.3,8.1,2.2c0.1-0.2-2.5,1.5-3,0.5c-0.3-0.7,0.9-1.4,0.9-1.5c0,0.1-1.4-0.4-1.6-0.5c0.1,0.1,0.4,0.7,0,0
					c-0.2-0.3-0.2-0.6-0.4-1c0.1,0.1,0.1,0,0.1-0.1c0.3-0.2,0.6-0.5,1.4-0.6c0.8-0.1,2.1,0.1,2.9,1c1.7,1.9,1.3,4.7-1.6,4.5
					c-2.4-0.2-6-3.4-3.3-5.4c1.8-1.3,2.7-3.6,1.5-5.7C91.7,223.6,88.9,222.6,87,223.9L87,223.9z"/>
			</g>
		</g>
		<g>
			<g>
				<path class="st6" d="M112.9,266.9c-9.6,6.3-7.2,19.1,2.7,23.9c9,4.3,21.5-1.3,20.1-12.3c-1.3-9.7-12.6-16.5-21.4-11.1
					c-9.2,5.7-2.5,20.6,7.4,20c4.1-0.2,8.1-3.7,8.3-7.9c0.2-5.2-4.7-7.5-9.3-7.1c-1.9,0.1-3.4,1.2-4,3.1c-0.8,2.5-0.2,4.8,1.9,6.5
					c4.2,3.3,10.1-2.5,5.9-5.9c-0.8-0.7-0.7-0.2,0.3,1.7c-1.3,1-2.7,2-4,3.1c0.2,0,1.3,0.1,1.6-0.1c0.9-0.4,0.1,1.3-0.4-0.6
					c-0.1-0.2-0.2-1.1-0.3-1.1c-0.2-0.2,0,0.1,0,0c0.2,0.2-0.8,0.1-0.2,0.2c-0.7-0.1-1.1-0.3-1.8-1c-1.4-1.5-2.5-3.1-0.3-3.9
					c2.4-0.9,4.8,0,6.4,2c3.3,4,1,8.5-4.3,7.9c-4.5-0.6-9.2-6.6-4.3-9.8C121.6,271.2,117.4,264,112.9,266.9L112.9,266.9z"/>
			</g>
		</g>
		<g>
			<g>
				<path class="st6" d="M149.5,238.5c-3.9,3.2-5.9,8.2-3.6,13c1.9,4,6.1,6.7,10.4,7.6c4.9,1.1,9.9-0.1,13.1-4.1
					c3.3-4.2,3.3-10.1,0.4-14.6c-5.9-9-19.6-8.5-23.5,2c-1.6,4.3-0.6,9.3,3.5,11.9c4.2,2.6,10.8,2.5,14.4-1.2
					c4.7-4.8,0.4-13.5-6.2-13c-7.1,0.6-8.2,10.1-1.3,12.1c2.1,0.6,4.7-0.7,5.1-2.9c0.3-1.5,0.3-2.7,0-4.2c-0.9-5.3-9-3-8.1,2.2
					c0-0.1,0-0.2,0-0.2c1.7-1,3.4-1.9,5.1-2.9c1.7,2.2,1.8,3.6,0.2,4c-0.4,0.3-0.8,0.3-1.2,0.1c-0.1-0.1,0.4-0.9,0.3-1
					c0.1,0.1-2.2,0.4-2.5,0.4c-1.7-0.2-2.1-0.7-1.8-1.9c1.1-4.3,6.3-4.2,8.6-1c2.8,3.9-0.5,7.3-4.6,6.3c-1.6-0.4-3.4-1.3-4.3-2.7
					c-0.9-1.6,0.3-2.6,1.8-3.9C159.6,241,153.6,235.1,149.5,238.5L149.5,238.5z"/>
			</g>
		</g>
		<g>
			<g>
				<path class="st6" d="M176.4,293.2c-4.7,1.4-8.8,4.7-8.8,10c0,4.3,2.9,8.2,6.4,10.4c9.1,5.7,21.5-2.1,18.4-13
					c-1.3-4.6-5.2-8.7-9.9-9.7c-5.3-1.1-10.7,2-12.6,7c-3.9,10.1,6.7,21.2,16.5,14.5c5.7-3.9,5.1-12.4-1.5-14.8
					c-5.8-2.1-11.4,2-9.7,8.3c0.5,2,3,3.8,5.1,2.9c0.1-0.1,0.3-0.1,0.4-0.2c-1.4-2.3-2.7-4.7-4.1-7c0.5-0.3,0.9-0.6,1.4-0.9
					c-5.2,1.3-3,9.4,2.2,8.1c0.9-0.2,1.6-0.6,2.3-1.3c2.8-2.8,0-8.6-4.1-7c-0.1,0.1-0.3,0.1-0.4,0.2c1.7,1,3.4,1.9,5.1,2.9
					c0.1,0.5-1.8,1.9-1.8,1.7c0-0.1,0.9,0.1,0.8,0.1c-0.1,0-0.1,0-0.1-0.1c0.4,0.5,0.5,0.5,0.2,0c0.6-0.6-0.6,0.1-0.4,0.1
					c-0.9,0-1.4,0.9-2.4,0.6c-0.7-0.2-1.1-0.7-1.5-1.3c-2.3-3.9,2.2-7.8,5.3-4.1c2.9,3.4-0.1,7.8-3.9,6.3c-1.6-0.7-2.8-2.1-3.3-3.4
					c-0.2-0.4-0.3-0.7,0.1-1.1c0.4-0.4,1.6-1,2.5-1.2C183.8,299.7,181.6,291.6,176.4,293.2L176.4,293.2z"/>
			</g>
		</g>
		<g>
			<g>
				<path class="st6" d="M207.6,260.9c-5.7,3.7-11,9.7-6.5,16.6c3.8,5.8,10.7,8.5,17.4,7.2c6-1.2,11-6.5,10.4-12.9
					c-0.5-5.5-5.2-9.6-10.2-11.4c-5.3-1.9-11.5-1.1-15.3,3.4c-3.7,4.3-3.8,10.2,0.2,14.3c3.5,3.7,9.5,5.6,14.3,3.4
					c5.6-2.6,7.4-10,3.3-14.7c-4.3-4.9-14.7-4.2-14.6,3.8c0.2,7,8.5,9.2,12.3,3.6c3-4.5-4.2-8.7-7.2-4.2c0.7-1.1,2.5-0.8,3.2,0.1
					c0,0.1,0,0.2,0.1,0.2c-0.2-0.7-0.2-0.5-0.1,0.6c-1.8,2.6,0.3-0.4,0.3,2c0,1.6-2.3,1.1-3.1,0.9c-1.3-0.4-3.2-1.7-3.1-3.1
					c0.2-2.1,2.7-3,4.5-3c3.5,0.1,10.5,4.5,5.5,7.9c-2.3,1.6-6,1.4-8.3-0.2c-1.1-0.7-3.2-2.3-2.9-3.8c0.3-1.5,2.9-2.8,4.1-3.5
					C216.4,265.3,212.2,258,207.6,260.9L207.6,260.9z"/>
			</g>
		</g>
		<g>
			<g>
				<path class="st6" d="M232.3,314.7c-5.8,3.2-10.9,9.1-8,16c2.3,5.5,8.3,8.8,14.1,9.2c6.6,0.4,13.5-3.9,14.8-10.7
					c1.3-7-4.4-12.8-10.6-15c-6.5-2.3-13.8-0.1-17.6,5.7c-3.2,4.9-1.3,10.4,3.2,13.6c3.9,2.8,9.4,4.3,14.1,3.1
					c5.9-1.5,8.8-8.1,4.8-13.1c-2.5-3.1-6.8-5.2-10.7-4.5c-3.9,0.7-7.2,4.4-6.1,8.5c0.9,3.2,4.2,5.5,7.5,5.6
					c4.3,0.1,6.7-3.3,6.9-7.2c0.1-1.3-0.8-3-2.1-3.6c-1.1-0.5-2-0.6-3-0.8c-5.3-1-7.5,7-2.2,8.1c0.4,0.1,2.5,0.7,1,0
					c-0.7-1.2-1.4-2.4-2.1-3.6c0-0.5,1.1-0.9,1.6-1.1c0.2-0.1-0.1-0.3,0.3,0.2c-0.3-0.4-0.1-0.2-0.1-0.1c0,0.7,0.2,1.2,0.1,1.9
					c-0.1,1-1.4-0.1,0,0.6c0.6,0.3,1.2,0.4,1.7,0.8c-0.2-0.2,0.5,0.5,0.6,0.6c1.2,0.5-0.9,0.1,0.1-0.1c-0.1,0,0.2-0.2-0.2-0.1
					c0.8-0.1-0.6,0.1-0.8,0.2c0.7-0.1-0.8,0-1,0c-0.9,0-1.7-0.2-3-0.6c-0.9-0.3-1.7-0.6-2.8-1.4c-0.5-0.4-1.1-1.1-1.2-1.3
					c0,0.1,0-0.5,0-0.4c0.7-1.1,1.7-2.1,2.9-2.7c2.4-1.3,5.5-0.5,7.7,1c1.8,1.2,3.5,3.2,2.4,5.3c-1.1,2.3-3.9,3.2-6.3,3
					c-2.5-0.3-5.3-1.7-6.4-3.9c-0.3-0.6-0.4-1.2,0-1.8c0.8-1.9,2.9-3,4.6-3.9C241.3,319.3,237.1,312.1,232.3,314.7L232.3,314.7z"/>
			</g>
		</g>
		<g>
			<g>
				<path class="st6" d="M277.9,250.2c-5.9,2.1-11.1,6.5-10.8,13.3c0.2,5.6,4.3,10.6,9.3,12.9c5.9,2.7,13.3,1.5,17.7-3.3
					c4.4-4.8,3.2-11.5-0.7-16.2c-3.9-4.7-10.7-7.9-16.8-6.1c-5.4,1.6-10.4,6.4-8.5,12.4c2.8,8.8,20.4,14.1,23,2.4
					c1.7-7.6-10-14.8-15.4-8.5c-2.4,2.9-2,7.1,0.7,9.7c3.4,3.2,7.7,1.7,10.1-1.6c1-1.4,0.6-4-0.7-5.1c-0.9-0.8-1.7-1.5-3-1.7
					c-0.8-0.1-4-0.4-0.8,0.2c-5.3-0.9-7.5,7.2-2.2,8.1c0.9,0.1,1.9,0.1,2.5,0c-1-0.4-2-0.8-3-1.2c0.2,0.2,0.4,0.3,0.6,0.5
					c-0.2-1.7-0.4-3.4-0.7-5.1c3-1,3.7-0.3,2.1,1.9c-0.4,0.1-0.4,0.1,0,0.3c0,0,1.3,1.2,1.5,1.3c0.3-1.1,0.3-1.3-0.1-0.6
					c0,0,0-0.1,0-0.1c0.1,0.1-0.3,0.2-0.6,0.2c-1.2,0.3-3.9-0.8-5.3-2.1c-1.3-1.3-1.5-1.2-0.1-2.1c2.8-1.9,6-1,8.4,1
					c1.7,1.4,4.1,4.1,2.7,6.5c-1.5,2.5-5.6,2.8-8,1.8c-2.2-0.9-4.4-3-4.7-5.5c-0.3-2.9,2.3-4.4,4.7-5.3
					C285.2,256.4,283,248.3,277.9,250.2L277.9,250.2z"/>
			</g>
		</g>
		<g>
			<g>
				<path class="st6" d="M302.5,297.8c-5.2,0.5-10.6,2.1-13.1,7.1c-2,4-1.3,8.8,0.8,12.5c5,8.7,18.9,11.7,25,2.3
					c6.3-9.7-2.5-23.6-14-21.4c-5.2,1-9.7,5.6-9.6,11.1c0.2,5.8,6,9.5,11.4,9.1c6.6-0.5,12.6-7.7,6.4-13.2c-5.6-5-14.1,0.1-12.6,7.3
					c1.1,5.3,9.2,3,8.1-2.2c0-0.1-0.5,2.1-1.1,1.1c0.7-1.6,0.8-2.1,0.2-1.7c-0.3,0.2-0.6,0.3-0.9,0.3c-1-0.2-2.2,0.5-3-0.6
					c-0.6-0.8,1.1-2.6,2.5-3c4.7-1.1,8.5,5.9,5.1,9.2c-6.2,6.1-18.3-8.5-5.3-9.6C307.8,305.7,307.9,297.3,302.5,297.8L302.5,297.8z"
					/>
			</g>
		</g>
		<g>
			<g>
				<path class="st6" d="M341.8,246.1c-3.7,3.5-6.5,8.3-5.1,13.5c1.1,4.3,4.7,7.4,8.8,8.8c8.9,3,21.6-4.3,17.7-14.8
					c-3.7-9.7-21.1-11.2-24.9-0.7c-1.6,4.5,0.5,9.5,4.6,11.9c4.7,2.8,10.2,1.2,13.6-2.8c4.6-5.5,1.2-13.1-6.1-13.2
					c-7.2-0.1-10,10.1-2.3,11.9c4.5,1.1,7.4-5.2,3.2-7.6c0.3,0.2-1.8-1.1-1.6-1.2c0.3-0.1-0.3,1.1-0.3,1.1c-0.2-0.3,1.3,0.1,1.3,0.2
					c0.7-2.6,1.4-5.2,2.1-7.8c-2.9,0.4-5.9-0.3-8.7,0.6c-3.3,1.1-5.8,3.9-7,7.1c-2.3,6.3,1.8,12.5,8.2,13.7c5.3,0.9,7.5-7.1,2.2-8.1
					c-2.1-0.4-3.7-1.6-2.1-3.7c1.5-2,5.1-0.9,7.3-1.2c3.6-0.5,6.3-5.7,2.1-7.8c-4.2-2.1-9.7-2-12.4,2.4c-3,4.8,0.5,9.6,4.6,12
					c1.1-2.5,2.1-5.1,3.2-7.6c1.7,2.3,1.8,3.8,0.1,4.5c0.2,0.1,0.4,0.1,0.6,0.2c-0.3-0.2-0.4-0.5-0.4-0.8c0-0.6-0.1-0.6-0.2-0.2
					c-0.7,0.2-1.1,1.5-2.1,1.6c-0.9,0.1-2.2-0.8-2.2-1.7c-0.1-3.3,8.6-2.6,9.4,0.5c0.9,3.9-5.3,4.6-7.7,3.6
					c-4.6-1.9-2.9-5.5,0.1-8.3C351.6,248.3,345.7,242.4,341.8,246.1L341.8,246.1z"/>
			</g>
		</g>
		<g>
			<g>
				<path class="st6" d="M357.5,298.3c-5.1,2-11.2,5.3-11.7,11.5c-0.3,4.3,2.6,7.9,6.2,9.9c4.1,2.3,9.3,2.7,13.7,0.9
					c5.3-2.1,9.5-7.6,8.2-13.5c-2.4-11.1-20.6-15.2-26.3-4.6c-2.4,4.4-0.9,9.7,2.8,12.8c4.1,3.4,10.8,3.8,15.3,1.1
					c4.6-2.8,4.6-8.5,0.8-11.9c-4.2-3.7-10.4-2.8-13.1,2.1c-1.1,2.1-0.4,4.4,1.5,5.7c1.1,0.7,2.2,0.9,3.4,1.2
					c5.2,1.5,7.4-6.5,2.2-8.1c-0.4-0.1-0.8-0.2-1.2-0.3c-0.7,0-0.7-0.1-0.2-0.1c0.5,1.9,1,3.8,1.5,5.7c0.3-0.6,0.2-0.2,0.4-0.6
					c0,0-0.5,0.4-0.5,0.3c0.1,0.2,0.6-0.4,0.2,0c0,0-0.1,0.1-0.1,0.1c-0.3-0.3,0.5,0.3,0.4,0.2c-0.2-0.2,0.3,0.6,0.2,0.3
					c0.1,0.3-0.3-0.2-0.2-0.8c0-0.2,0.6-1.2,0.6-1.2c0,0.2-0.3,0.2-0.6,0.3c-1.9,0.7-4.4,0.6-5.7-0.8c-0.7-0.8-0.9-1.6-0.2-2.4
					c1.5-1.7,4.2-1.8,6.2-1.1c1.7,0.6,4.5,2.2,4.4,4.3c-0.1,1.9-2.3,3.3-3.9,3.8c-1.7,0.5-3.7,0.3-5.3-0.4c-0.8-0.4-1.5-0.8-2.1-1.5
					c-0.4-0.5,0,0-0.4-0.7c-0.1-0.1,0-0.1,0-0.2c-0.1,0.1,0.1-0.3,0-0.1c0.3-0.5,0.5-0.8,0.9-1.2c1.3-1.3,3.1-2.1,4.7-2.7
					c2.1-0.8,3.6-2.8,2.9-5.1C362.1,299.3,359.6,297.5,357.5,298.3L357.5,298.3z"/>
			</g>
		</g>
		<g>
			<g>
				<path class="st6" d="M407.9,262.9c-4.7,2.2-9,6.7-7.5,12.3c1.2,4.3,5.3,7.4,9.6,8.2c11.7,2.3,20.9-12.5,11.9-21.3
					c-4.1-4-10.8-4.7-15.6-1.6c-4.1,2.7-6.9,7.7-5.9,12.7c1.2,5.7,7,7.7,12.2,7.7c4.3,0,8.8-2.1,9.1-6.9c0.2-3.5-2-7.1-5.1-8.7
					c-4.5-2.3-8.8,0.9-9.5,5.6c-0.3,2.2,0.5,4.5,2.9,5.1c2,0.5,4.8-0.7,5.1-2.9c0.1-0.5,0.3-1,0.3-1.4c0-0.5,0,0.2-0.1,0.2
					c-0.2,0.1,1.3-1.1-0.2,0.2c-0.6,0.5-1.1,0.6-1.8,0.7c0.6-0.1-0.4-0.1-0.5-0.1c0.5,0-0.2-0.1-0.3-0.2c0.8,0.2,0,0,0.1,0
					c0.4,0.2,0.7,0.8,0.2,0.1c0.2,0.3,0.4,0.5,0.5,0.9c0.2,0.4-0.1-0.4-0.1-0.4c0,0,0.2,0.5,0.2,0.5c0.5-1.5-0.2,0.5,0-0.4
					c0.2-1-0.2,0.6,0.1-0.3c0.1-0.3,0.3-0.4,0.5-0.7c-0.2,0.3,0.1,0,0.1,0c0.2,0.1-0.7,0.1-0.6,0.1c-1.1,0.1-2.5,0-3.5-0.3
					c-0.4-0.1-0.8-0.3-1-0.4c-0.4-0.2-0.1,0-0.2-0.2c-0.1-0.3-0.2-0.8,0.1-1.6c0.2-0.5,0.8-1.5,1.6-2.1c1.4-1.2,3.6-1.4,5.2-0.3
					c1.7,1.2,2.1,3.3,1.2,5.1c-1,1.9-2.7,2.8-4.4,2.6c-1.7-0.2-2.9-1.1-3.8-2.2c-0.1-0.1-0.2-0.2,0-0.5c0.8-1,2.1-1.8,3.5-2.5
					C417,267.9,412.7,260.7,407.9,262.9L407.9,262.9z"/>
			</g>
		</g>
		<g>
			<g>
				<path class="st6" d="M432.5,226.6c-3.4,4-5.6,9.2-3.1,14.3c1.9,3.7,6.1,5.8,10.2,4.8c8.9-2.2,10.3-15.2,4.5-21.2
					c-7.3-7.4-17,2.4-16.3,10.5c0.8,8.5,13.5,10.6,15.8,1.9c0.7-2.8,0.2-6.5-2-8.6c-4-3.7-7.9,0.4-9.4,4.1c-0.8,2.1,0.9,4.6,2.9,5.1
					c2.4,0.7,4.3-0.8,5.1-2.9c-0.1,0.3-0.1,0.2,0.1-0.2c0.3-0.4,0.2-0.4-0.1,0.1c0.4-0.3,0.2-0.3-0.5,0.2c-0.7,0.6-1.5,0.7-2.4,0.4
					c0.2,0.1-2.6-1.8-1.6-1c-0.1-0.2-0.2-0.4-0.2-0.6c0.1,0.2,0.1,0.3,0.1,0.5c0.5,0.5-0.1-0.7,0,0c0,0.2,0.1,1.7,0.1,0.3
					c0,0.2-0.1,0.7-0.2,0.8c0.3-0.6,0.3-0.6,0.1-0.3c0.4-0.5,0.4-0.5,0.1-0.2c0.2-0.1,1.4-0.7,0.6-0.4c0.6-0.1,0.6-0.1,0.1-0.1
					c0.4,0.1,0.5,0.1,0.1,0c-0.2,0-0.4-0.1-0.7-0.2c0.1,0,0.2,0.1,0.2,0.2c-0.1,0.1,0.1-0.2,0,0.1c-0.3,0.7,0.1-1.1,0-0.5
					c0.1-0.5,0.2-1,0.4-1.5c0.3-0.7,0.8-1.5,1.5-2c-0.2,0.1,0.1-0.4,0.1-0.1c0.5-0.1,0.6-0.2,0.1-0.1c-0.1,0-0.2,0-0.3,0
					c0,0,0.6,0.7,0.8,1.2c0.4,1,0.5,1.9,0.5,2.9c0,1-0.1,1.6-0.4,2c-0.5,0.9-1,1-1.5,1.3c0.2-0.1-0.2-0.3,0.1,0
					c-0.1-0.1-0.2,0-0.5-0.3c0.4,0.4-0.4-0.5-0.1-0.1c-0.3-0.6-0.3-0.9-0.2-1.4c0.1-1.2,1-2.3,1.7-3.2
					C441.9,228.4,436,222.5,432.5,226.6L432.5,226.6z"/>
			</g>
		</g>
		<g>
			<g>
				<path class="st6" d="M145,173.2c-0.6,12.6,6.7,25,18.3,30.2c7.1,3.2,16.2-3.7,11.4-11.4c-3.9-6.2-5.6-12.7-5.3-20.1
					c-5.6,0-11.1,0-16.7,0c1.3,12.6,3.6,25.1,14.4,33.1c9.6,7,21.8,7.1,33,9.1c13.4,2.4,26.7,6.2,40.4,4.3
					c11.7-1.7,22.5-7.4,28.7-17.7c-4.8,0-9.6,0-14.4,0c-0.3-0.6,0.3-1.4,0.9-1.8c3.4,4.4,6.8,8.8,10.1,13.1
					c3.3-4.1,6.6-8.2,9.9-12.2c3.2-4,8.1-8.3,9.4-13.4c2.5-9.9-9.3-16.4-16.9-19.5c-14.8-6-37.9-4.3-46,11.6
					c-2.3,4.5-0.6,11.2,5,12.3c10.4,2.1,20-1.8,25.9-10.6c3.9-5.6-1.4-12.1-7.2-12.6c-16.6-1.3-33.9,4.9-50.1-0.2
					c-10.3-3.2-14.7,12.9-4.4,16.1c18,5.7,36.2-0.6,54.6,0.8c-2.4-4.2-4.8-8.4-7.2-12.6c-1.5,2.2-4.4,3.4-7.1,2.9
					c1.7,4.1,3.3,8.2,5,12.3c2.9-5.7,10.7-6.7,16.5-6.5c4.7,0.2,14.7,2.4,16.8,7.2c-0.3-2.1-0.6-4.3-0.8-6.4
					c-0.6,2.8-5.4,6.9-7.1,9.1c-2.7,3.3-5.4,6.6-8.1,9.9c-2.6,3.2-3.4,7.5-0.7,11c2.4,3,7.3,4.6,10.8,2.2c7-5,9.5-13.4,5.1-21.1
					c-3.2-5.5-11.2-5.3-14.4,0c-10.1,16.7-35.3,8.4-50.2,5.7c-8.1-1.5-17.2-1.4-24.8-4.9c-8.4-3.8-9.5-13.1-10.4-21.2
					c-1.1-10.5-16.3-11-16.7,0c-0.4,10.1,2.3,19.9,7.6,28.5c3.8-3.8,7.6-7.6,11.4-11.4c-6.6-2.9-10.3-8.5-10-15.7
					C162.2,162.4,145.5,162.4,145,173.2L145,173.2z"/>
			</g>
		</g>
		<g>
			<g>
				<path class="st6" d="M413.6,58.7c-0.1,1.8-0.9,3.3-2.4,4.3c-1.9,0-3.7,0-5.6,0c-0.5-0.3-1-0.7-1.3-1.2c-0.3-0.9-0.4-1.1-0.2-0.5
					c0.1,0.2,0.7,2.4,0.5,1.4c0-0.6,0-0.5,0,0.4c0-0.5,0.1-1,0.4-1.4c3.8-1,7.6-2,11.4-3c4.4,2.9,3.5,8.5-1.4,10.3
					c6.3-2.2,7.8-9,3.7-14c-4-5-10.1-7.4-16.4-7.9c2.4,4.2,4.8,8.4,7.2,12.6c0.1-0.1,0.2-0.3,0.3-0.4c-1,1-2,2-3,3
					c0.2-0.1,0.3-0.1,0.5-0.2c-1.4,0.4-2.8,0.8-4.2,1.1c0.8-0.1,0.7-0.1-0.3-0.2c0.5,0.1,1,0.2,1.5,0.4c0.3,0.1,2.5,0.8,1,0.2
					c0.7,0.3,1.4,0.7,2.1,1.1c0.3,0.2,2.7,1.9,1.5,1c3.4,2.8,8.6,3.5,11.8,0c2.8-3.1,3.6-8.8,0-11.8c-6.7-5.5-19.3-12-25.6-2.7
					c-3.8,5.6,1.4,12.2,7.2,12.6c1.8,0.1-0.8-0.5,0.8,0.2c0.5,0.1,1,0.3,1.4,0.5c-0.7-0.3-0.8-0.3-0.3,0c0.3,0.2,0.7,0.4,1,0.6
					c-0.6-0.5-0.6-0.5-0.2-0.2c0.6,0.6,1.3,1.2,1.8,1.9c1.2-4.7,2.5-9.3,3.7-14c-9.1,3.2-10.7,14.9-2.6,20.3c3.6,2.4,9.5,0.9,11.4-3
					c3.2-6.6,2-15.9-4-20.6c-7.7-5.9-18.2-0.2-18.5,9.1c-0.2,4.4,4,8.6,8.4,8.4C409.9,66.9,413.5,63.4,413.6,58.7L413.6,58.7z"/>
			</g>
		</g>
		<g>
			<g>
				<path class="st6" d="M123.9,37.2c0.2,1.8,0.4,3.3,1.3,4.8c0.8,1.3,2,2.6,3.4,3.3c2.4,1.4,5.3,1.6,7.9,0.9
					c5.2-1.4,7.6-6.7,7.6-11.7c0-4.6-3.8-8.3-8.4-8.4c-7.7-0.1-13.9,7.3-11.8,14.9c1,3.6,4.2,6.5,7.7,7.5c3.9,1.1,7.7,0,10.6-2.6
					c3.2-2.9,3.2-8.9,0-11.8c-3.5-3.2-8.4-3.1-11.8,0c-0.1,0.1-0.1,0.1-0.2,0.2c0.6-0.4,1.1-0.9,1.7-1.3c-0.1,0.1-0.3,0.2-0.4,0.3
					c0.7-0.3,1.3-0.6,2-0.8c-0.2,0.1-0.4,0.1-0.7,0.2c0.7-0.1,1.5-0.2,2.2-0.3c-0.2,0-0.5,0-0.7,0c0.7,0.1,1.5,0.2,2.2,0.3
					c-0.3,0-0.5-0.1-0.7-0.2c0.7,0.3,1.3,0.6,2,0.8c-0.2-0.1-0.4-0.2-0.7-0.4c0.6,0.4,1.1,0.9,1.7,1.3c-0.3-0.2-0.5-0.4-0.7-0.7
					c0.4,0.6,0.9,1.1,1.3,1.7c-0.1-0.1-0.2-0.3-0.2-0.4c0.3,0.7,0.6,1.3,0.8,2c-0.1-0.2-0.2-0.5-0.2-0.7c0.1,0.7,0.2,1.5,0.3,2.2
					c0-0.2,0-0.4,0-0.6c-0.1,0.7-0.2,1.5-0.3,2.2c0-0.3,0.1-0.6,0.2-0.8c-0.3,0.7-0.6,1.3-0.8,2c0.1-0.3,0.3-0.5,0.5-0.8
					c-0.4,0.6-0.9,1.1-1.3,1.7c0.2-0.2,0.4-0.4,0.6-0.6c-0.6,0.4-1.1,0.9-1.7,1.3c0.3-0.2,0.7-0.4,1-0.6c-0.7,0.3-1.3,0.6-2,0.8
					c0.3-0.1,0.6-0.2,0.9-0.2c-0.7,0.1-1.5,0.2-2.2,0.3c0.2,0,0.4,0,0.6,0c-2.8-2.8-5.6-5.6-8.4-8.4c0,0.5,0,1.1-0.1,1.6
					c0.1-0.7,0.2-1.5,0.3-2.2c-0.1,0.3-0.1,0.6-0.3,0.9c0.3-0.7,0.6-1.3,0.8-2c-0.1,0.2-0.2,0.4-0.3,0.5c0.4-0.6,0.9-1.1,1.3-1.7
					c-0.1,0.1-0.2,0.3-0.4,0.4c0.6-0.4,1.1-0.9,1.7-1.3c-0.1,0.1-0.3,0.2-0.4,0.2c0.7-0.3,1.3-0.6,2-0.8c-0.1,0.1-0.3,0.1-0.5,0.1
					c0.7-0.1,1.5-0.2,2.2-0.3c-0.2,0-0.3,0-0.5,0c0.7,0.1,1.5,0.2,2.2,0.3c-0.1,0-0.3-0.1-0.4-0.1c0.7,0.3,1.3,0.6,2,0.8
					c-0.1-0.1-0.3-0.1-0.4-0.2c0.6,0.4,1.1,0.9,1.7,1.3c0,0-0.1-0.1-0.1-0.1c0.4,0.6,0.9,1.1,1.3,1.7c0-0.1-0.1-0.1-0.1-0.2
					c0.3,0.7,0.6,1.3,0.8,2c0-0.1,0-0.1-0.1-0.2c0.1,0.7,0.2,1.5,0.3,2.2c0-0.1,0-0.1,0-0.2c-0.3-2.3-0.8-4.2-2.4-5.9
					c-1.4-1.4-3.8-2.5-5.9-2.4c-2.2,0.1-4.4,0.8-5.9,2.4C125,32.8,123.7,35.1,123.9,37.2L123.9,37.2z"/>
			</g>
		</g>
	</g>
	<g>
		<g>
			<path d="M64.8,122.8c9.5-24.3,23.9-48.1,44.1-64.8c2.5-2.1-1.1-5.7-3.6-3.6c-20.9,17.3-35.6,42-45.5,67
				C58.6,124.5,63.6,125.9,64.8,122.8L64.8,122.8z"/>
		</g>
	</g>
	<g>
		<g>
			<path d="M463.2,249.4c-15.7,35.9-47.3,64.8-83.1,80.2c-26.8,11.5-56.5,17.1-85.4,19.4c-70.2,5.7-149.2-8.2-201.4-59
				C59.5,257.1,49.8,210,54.7,164.5c0.4-3.3-4.8-3.2-5.1,0c-4.4,40.9,2.6,83.4,28.6,116.3c23.3,29.6,58.5,49.2,93.9,60.6
				c35.1,11.3,72.6,15.1,109.3,13.5c31.3-1.4,63.2-6.4,92.6-17.4c40.1-15.1,76.2-45.9,93.6-85.5C468.9,249,464.5,246.4,463.2,249.4
				L463.2,249.4z"/>
		</g>
	</g>
	<g>
		<g>
			<path d="M108.9,54.5c-12.5-16-5.2-35.3,11.6-44.6c7.5-4.1,16.6-6.1,25-4.2c9.8,2.3,16.4,9.6,20.3,18.5c0.4,0.9,1.9,1.6,2.9,1.2
				c25.1-10.1,52.7-13.2,79.6-12.9c28,0.3,56.4,4.4,82.9,13.7c12.6,4.4,24.8,10.1,35.6,18.1c1.1,0.8,2.9,0.2,3.5-0.9
				c12.1-21,39.6-27.3,60.5-15.9c11.7,6.4,22.1,18,23,31.8c0.8,12.8-6.1,25.1-17.8,30.4c-1.6,0.7-1.5,2.9-0.5,4
				c8.5,10.1,16.4,21.1,22.5,32.7c10.5,20,15.2,44.5,15.9,66.9c0.1,3.3,5.2,3.3,5.1,0c-0.6-22.9-5.5-47.7-15.9-68.3
				c-6.4-12.5-14.9-24.2-23.9-35c-0.2,1.3-0.3,2.7-0.5,4c21.8-9.8,26-38.4,12-56.4c-13.6-17.5-37.2-25.6-58.5-18.4
				c-11.1,3.8-20.3,11.3-26.1,21.5c1.2-0.3,2.3-0.6,3.5-0.9c-20.5-15.1-46.2-22.9-71-27.5c-28.6-5.4-58.3-6.6-87.2-2.8
				c-15,2-29.9,5.3-44,11c1,0.4,1.9,0.8,2.9,1.2C163.1,5.3,147.1-3,129.6,1c-14.8,3.4-29.3,15.1-32,30.6c-1.7,9.8,1.7,18.8,7.7,26.5
				C107.3,60.7,110.9,57,108.9,54.5L108.9,54.5z"/>
		</g>
	</g>
	<g>
		<g>
			<path d="M171.3,136.3c-15.4,3.6-31.2,11.2-38.6,25.9c-4.9,9.7-5.4,21.2-1.4,31.3c8.6,21.6,33.3,32.3,54.3,37.6
				c24.9,6.3,52.7,7.4,77.7,0.8c10.4-2.8,20.7-7.2,28.4-14.9c12.4-12.3,13.9-28.8,3.7-43c-13.1-18.3-35.4-27.8-56.2-34.1
				C216.9,133.1,194.1,131.1,171.3,136.3c-3.2,0.7-1.8,5.6,1.4,4.9c18.9-4.3,37.9-3.6,56.7,1.1c18.7,4.7,37.8,11.6,52.6,24.4
				c12.4,10.7,21.2,26.8,10.3,41.8c-6.3,8.8-16,13.9-26.1,17.1c-22,7-46.6,6.8-69.1,2.7c-20.2-3.7-44-11.2-56.6-28.7
				c-6.2-8.7-8.5-19.7-5.4-30c5.1-16.6,21.8-24.7,37.6-28.4C175.8,140.5,174.5,135.6,171.3,136.3L171.3,136.3z"/>
		</g>
	</g>
	<g>
		<g>
			<path d="M211.1,161.9c-3.6-1.8-20.9-15-14.4-19.8c4.8-3.5,15-1.7,20.3-0.9c3.8,0.6,7.6,1.4,11.3,2.6c2,0.7,6.1,1.7,7.3,3.7
				c1.7,2.7-3.3,6.3-5.3,7.7c-6,3.9-13.4,5.6-20.4,6.4c-3.2,0.4-3.3,5.5,0,5.1c10.4-1.2,26.1-4.4,30.6-15.5c2.5-6-3.3-9.3-8.2-11.3
				c-7.8-3.1-16.6-4.5-25-4.6c-5.3,0-13.9,0.1-16.5,5.9c-1.8,4,0.7,8.4,2.9,11.7c3.7,5.5,8.8,10.4,14.8,13.4
				C211.4,167.8,214,163.4,211.1,161.9L211.1,161.9z"/>
		</g>
	</g>
	<g>
		<g>
			<path d="M165.5,167.8c0.7,12.1,8.4,20.9,21.1,19.2c11.3-1.5,22-9.8,25.2-20.9c-1.7-0.2-3.3-0.5-5-0.7
				c1.6,14.1,10.6,25.8,25.3,27.4c10.7,1.2,23.7-3.9,25.7-15.6c0.6-3.2-4.4-4.6-4.9-1.4c-1.6,9.2-11.7,12.7-20,11.9
				c-12.1-1.1-19.7-10.8-21-22.4c-0.3-2.7-4.1-3.6-5-0.7c-4.9,16.6-35,26.8-36.3,3C170.4,164.5,165.3,164.5,165.5,167.8L165.5,167.8
				z"/>
		</g>
	</g>
	<g>
		<g>
			<path d="M184,183.9c-1.3,7.8-2.6,15.7-3.9,23.5c-0.2,1.2,0.3,2.9,1.8,3.1c14.1,1.9,28.3,3.9,42.4,5.8c1.2,0.2,2.9-0.3,3.1-1.8
				c1.1-7.6,2.2-15.2,3.3-22.7c0.5-3.2-4.5-4.6-4.9-1.4c-1.1,7.6-2.2,15.2-3.3,22.7c1-0.6,2.1-1.2,3.1-1.8
				c-14.1-1.9-28.3-3.9-42.4-5.8c0.6,1,1.2,2.1,1.8,3.1c1.3-7.8,2.6-15.7,3.9-23.5C189.5,182,184.5,180.7,184,183.9L184,183.9z"/>
		</g>
	</g>
	<g>
		<g>
			<path d="M204.8,209.8c0.9-5.6,1.8-11.1,2.7-16.7c0.5-3.2-4.4-4.6-4.9-1.4c-0.9,5.6-1.8,11.1-2.7,16.7
				C199.4,211.7,204.3,213,204.8,209.8L204.8,209.8z"/>
		</g>
	</g>
	<g>
		<g>
			<path d="M51.6,173.3c20.4,25.9,53,40.5,83.5,50.7c29.3,9.8,60.1,16.4,90.9,19.3c18.5,1.8,37.2,1.7,55.7,1.5
				c20.1-0.2,40.3-1.2,60.3-3.4c25.3-2.7,50.8-7,75-15.3c8.5-2.9,17.9-6.2,25.3-11.6c2.6-1.9,0.1-6.3-2.6-4.4
				c-5.5,4-12.4,6.7-18.7,9.1c-21.4,8.1-44.2,12.6-66.8,15.6c-39.4,5.2-79.9,6.4-119.5,4c-28.2-1.7-56.5-7.4-83.5-15.2
				c-34.6-10-72.9-24.8-95.9-54C53.2,167.1,49.6,170.7,51.6,173.3L51.6,173.3z"/>
		</g>
	</g>
	<g>
		<g>
			<path d="M65.6,123.2c-5.4-11.9-11-23.7-17.4-35c-6.6-11.9-18-29-34.2-24.5C0.3,67.5-2.4,84.2,1.8,95.9
				c5.5,15.3,16.3,29.2,25.9,42c7.2,9.7,14.7,19.2,22.6,28.3c2.1,2.5,5.7-1.1,3.6-3.6c-15-17.4-29.5-35.8-41-55.7
				C7,96.7-1.3,78.7,12,70.1C26.1,61,38.5,81.2,44.1,91.2c6.2,11.2,11.8,22.8,17.1,34.5C62.5,128.7,66.9,126.1,65.6,123.2
				L65.6,123.2z"/>
		</g>
	</g>
	<g>
		<g>
			<path d="M433.9,203.5c8.6,18.7,19.6,36.8,32.7,52.7c9.2,11.2,24.3,28.1,40.7,25.4c32.8-5.4-5.5-57.5-13.7-69.1
				c-8.7-12.5-17.9-25.3-28.5-36.4c-2.3-2.4-5.9,1.2-3.6,3.6c8,8.3,15,17.8,21.8,27.1c9.5,13,18.7,26.5,25.7,41
				c3.6,7.4,11.6,23,0.6,27.8c-13.9,6.1-29.2-11.1-37.1-20.2c-14-16.2-25.5-35.1-34.3-54.5C436.9,197.9,432.5,200.5,433.9,203.5
				L433.9,203.5z"/>
		</g>
	</g>
	<g>
		<g>
			<path d="M122.9,317.7c-0.4,5.5-1.9,11.1-7.1,13.8c-3.6,1.9-7.9,2.2-11.9,2.8c-8,1.4-16.4,5.8-16.1,15.2
				c0.3,10.6,13.2,16.2,21.8,18.6c11.1,3.1,24.7,3.4,35.1-2.1c11.5-6.1,16.5-18.4,18.8-30.6c0.6-3.2-4.3-4.6-4.9-1.4
				c-1.8,9.8-5.3,20.3-14.1,26.1c-9.3,6.2-22.5,6-33,3.2c-7.1-1.9-23.5-8.5-17.2-18.6c3.9-6.2,13-5.3,19.2-7
				c9.9-2.6,13.8-10.4,14.6-20.1C128.3,314.4,123.2,314.4,122.9,317.7L122.9,317.7z"/>
		</g>
	</g>
	<g>
		<g>
			<path d="M317.3,349.3c3.2,11.5,6.8,25.2,15.7,33.8c6.7,6.5,15.8,7.6,24.7,6.7c6.5-0.6,13-2,19.4-3.4c6.5-1.4,13.2-3.6,18.1-8.3
				c6.6-6.3,7.6-16.6,1-23.3c-4.3-4.3-9.9-4.8-15.6-5.3c-3.2-0.3-7.1-0.1-10.1-1.7c-3.7-1.9-4.4-6.2-4.9-9.9
				c-0.5-3.2-5.4-1.9-4.9,1.4c0.7,4.8,2.2,9.8,6.6,12.5c4.1,2.5,9.3,2.4,13.9,2.8c4.6,0.4,9.1,0.8,12.2,4.6
				c2.5,3.1,3.1,7.3,1.5,10.9c-4.7,10.9-21.7,12.3-31.8,14c-8,1.3-17.5,2.3-24.4-2.8c-9.8-7.2-13.3-22.2-16.4-33.3
				C321.3,344.8,316.4,346.1,317.3,349.3L317.3,349.3z"/>
		</g>
	</g>
	<g>
		<g>
			<path d="M211.3,43.5c-2.4,9.7-2.1,24.5,7.4,30.6c10.4,6.7,15.4-7.7,16.5-15.4c-1.6,0-3.3,0-4.9,0c2.3,9.2,8.5,25.6,20.5,25.1
				c11.8-0.5,10.6-16.9,9.1-24.6c-1.6,0.7-3.1,1.3-4.7,2C260.3,70.8,275,91.6,288,80c11.1-10,2.5-27.3-5.9-35.7
				c-2.3-2.3-5.9,1.3-3.6,3.6c6.1,6.2,14.5,20,6.3,28c-9.6,9.4-22-11-25.3-17.2c-1.4-2.7-5.2-0.8-4.7,2c0.9,4.4,3,19.1-5.3,18.1
				c-8.6-1-12.7-14.7-14.4-21.3c-0.6-2.3-4.6-2.6-4.9,0c-0.6,4.5-3.3,18.1-10.1,11.4c-6-5.9-5.8-16.4-3.9-23.9
				C217,41.7,212.1,40.3,211.3,43.5L211.3,43.5z"/>
		</g>
	</g>
	<path d="M142.7,122.8c-4.9,9.4-15.1,13.8-22.7,9.9c-7.6-4-9.8-14.8-4.9-24.2c4.9-9.4,15.1-13.9,22.7-9.9
		C145.5,102.5,147.6,113.4,142.7,122.8z"/>
	<path d="M358.5,146.4c-0.9,11.1-9.4,19.5-19,18.7c-9.6-0.8-16.6-10.4-15.7-21.5c0.9-11.1,9.4-19.5,19-18.7
		C352.4,125.7,359.4,135.3,358.5,146.4z"/>
	<path class="st6" d="M353.4,141.4c-0.3,3.9-3.3,6.8-6.6,6.6c-3.4-0.3-5.8-3.6-5.5-7.5c0.3-3.9,3.3-6.8,6.6-6.5
		C351.2,134.1,353.7,137.5,353.4,141.4z"/>
	<path class="st6" d="M140.2,113.8c-0.6,3.6-3.1,6.2-5.7,5.8c-2.6-0.4-4.2-3.7-3.6-7.3c0.6-3.6,3.1-6.2,5.7-5.8
		C139.1,106.9,140.7,110.2,140.2,113.8z"/>
	<g>
		<g>
			<path d="M131.5,25.7c-6.3,2-10.3,7.7-8,14.3c2.1,6.1,8.4,9.6,14.7,8.3c6.1-1.3,10.7-6.6,9.7-13c-1-6.8-7.2-10.5-13.6-10.6
				c-3.3,0-3.3,5.1,0,5.1c3.7,0.1,7.5,1.7,8.5,5.6c0.9,3.7-1.5,6.8-5.1,7.8c-8.3,2.3-14-9.6-4.8-12.6
				C136,29.6,134.7,24.6,131.5,25.7L131.5,25.7z"/>
		</g>
	</g>
	<g>
		<g>
			<path d="M407.5,41.5c-7.5,0.2-15.6,3.5-15,12.3c0.5,7.3,6.5,13.9,12.9,16.8c7.6,3.6,17.8,2.5,20.2-6.8c3.2-12.1-7-16.3-15.3-21.6
				c-2.8-1.8-5.3,2.6-2.6,4.4c5.6,3.6,13.9,5.8,13.2,14.1c-0.7,8.1-9.1,7.8-14.7,4.6c-3.9-2.2-7.6-6.2-8.5-10.7
				c-1.3-6.3,4.6-7.9,9.7-8.1C410.7,46.5,410.7,41.4,407.5,41.5L407.5,41.5z"/>
		</g>
	</g>
</g>
</svg>
