<?xml version="1.0" encoding="utf-8"?>
<!-- Generator: Adobe Illustrator 21.1.0, SVG Export Plug-In . SVG Version: 6.00 Build 0)  -->
<svg version="1.1" id="Layer_1" xmlns="http://www.w3.org/2000/svg" xmlns:xlink="http://www.w3.org/1999/xlink" x="0px" y="0px"
	 viewBox="0 0 61.22 51.542" enable-background="new 0 0 61.22 51.542" xml:space="preserve">
<g>
	<path fill="#D6CEC1" d="M57.647,38.19c1.897,3.713,3.995,8.232-0.346,9.177c-4.484,0.977-3.961-7.889-7.414-7.415
		c-7.588,1.041-2.175,9.537-6.727,10.339c-4.829,0.85-4.666-8.571-8.186-8.907c-3.519-0.336-23.123-3.139-24.235-1.171
		C9.629,42.18,12.991,51.267,8.33,50.423c-4.66-0.844-4.66-10.862-4.316-11.382c0.346-0.52,42.251-15.62,53.115-1.564"/>
	<path fill="#8EAF73" d="M59.202,38.761c3.476-1.585-5.58-21.956-12.588-30.905C39.608-1.093,17.417-4.527,7.813,18.886
		c-9.603,23.413-6.099,20.916-5.19,21.852C3.53,41.674,39.348,47.814,59.202,38.761z"/>
	<path fill="#718C57" d="M14.821,16.721c3.077-2.689,9.258-2.974,11.83,3.104c2.572,6.079-6.172,13.452-14.573,10.606
		C3.678,27.586,11.564,19.566,14.821,16.721z"/>
	<path fill="#718C57" d="M39.468,6.696c3.089-0.557,11.187,4.463,6.3,8.634C40.882,19.502,30.853,8.248,39.468,6.696z"/>
	<path fill="#718C57" d="M47.3,26.972c9.237,1.644,6.826,9.992-3.203,11.157C34.067,39.292,28.771,23.673,47.3,26.972z"/>
	<path fill="#D6CEC1" d="M33.872,43.648c5.087-0.433-13.295,6.754-17.533-2.012C12.1,32.869,10.84,26.746,5.211,24.032
		c-5.632-2.713-1.385-17.93,12.546-10.396C31.69,21.169,30.314,43.951,33.872,43.648z"/>
	<g>
		<path fill="#32322B" d="M10.39,18.276c0.152,1.719,2.009,3.034,4.146,2.936c2.138-0.098,3.748-1.571,3.597-3.29
			c-0.152-1.719-2.007-3.033-4.146-2.936C11.85,15.085,10.239,16.557,10.39,18.276z"/>
		<path fill="#FFFFFF" d="M11.322,17.1c0.035,0.394,0.462,0.696,0.953,0.674c0.491-0.022,0.86-0.361,0.825-0.755
			c-0.035-0.396-0.46-0.697-0.951-0.675C11.658,16.366,11.287,16.704,11.322,17.1z"/>
		<path fill="#FFFFFF" d="M13.235,18.546c0.062,0.701,0.819,1.236,1.689,1.196c0.872-0.04,1.527-0.64,1.465-1.34
			c-0.062-0.7-0.817-1.235-1.689-1.196C13.83,17.246,13.173,17.846,13.235,18.546z"/>
	</g>
</g>
</svg>
