<?xml version="1.0" encoding="utf-8"?>
<!-- Generator: Adobe Illustrator 22.0.1, SVG Export Plug-In . SVG Version: 6.00 Build 0)  -->
<svg version="1.1" baseProfile="tiny" id="Layer_1" xmlns="http://www.w3.org/2000/svg" xmlns:xlink="http://www.w3.org/1999/xlink"
	 x="0px" y="0px" viewBox="0 0 162.9 196.3" xml:space="preserve">
<path fill="#FFFFFF" d="M87.5,36.9l17.5-19L100.4,8H63.7L59,17.9l17.5,19C36.9,39.7,5.5,72.8,5.5,113.2c0,42.2,34.4,76.6,76.6,76.6
	c42.2,0,76.6-34.3,76.6-76.6C158.6,72.8,127.2,39.7,87.5,36.9z M67,11.6h30.1l2.2,4.6H64.8L67,11.6z M82,179.1
	c-36.3,0-65.9-29.6-65.9-65.9c0-36.3,29.6-65.9,65.9-65.9c36.3,0,65.9,29.6,65.9,65.9C147.9,149.5,118.4,179.1,82,179.1z"/>
</svg>
