<?xml version="1.0" encoding="utf-8"?>
<!-- Generator: Adobe Illustrator 21.1.0, SVG Export Plug-In . SVG Version: 6.00 Build 0)  -->
<svg version="1.1" id="Layer_1" xmlns="http://www.w3.org/2000/svg" xmlns:xlink="http://www.w3.org/1999/xlink" x="0px" y="0px"
	 viewBox="0 0 72.72 54" enable-background="new 0 0 72.72 54" xml:space="preserve">
<path fill="#32322B" d="M46.746,30.17c26.965,4.231-1.38,28.26-15.02,21.903C18.09,45.719,34.735,28.29,46.746,30.17 M22.958,31.003
	c12.446,5.841,7.166-22.238-4.967-20.919C5.859,11.409,17.135,28.268,22.958,31.003 M38.001,22.398
	C45.48,33.932,55.836,7.303,44.833,2.015C33.834-3.274,34.503,17,38.001,22.398 M55.598,22.404
	c-1.028,10.966,20.028-2.357,15.378-10.67C66.327,3.417,56.083,17.27,55.598,22.404 M19.089,43.329
	c9.435-5.687-13.791-14.71-17.719-6.029C-2.553,45.979,14.677,45.989,19.089,43.329"/>
</svg>
