<?xml version="1.0" encoding="utf-8"?>
<!-- Generator: Adobe Illustrator 22.0.1, SVG Export Plug-In . SVG Version: 6.00 Build 0)  -->
<svg version="1.1" baseProfile="tiny" id="Layer_1" xmlns="http://www.w3.org/2000/svg" xmlns:xlink="http://www.w3.org/1999/xlink"
	 x="0px" y="0px" viewBox="0 0 595.3 841.9" xml:space="preserve">
<path fill="#FFFFFF" d="M336,257.9l-1.1-1.6l-19.7-30.4h-88l-17.9,30.4l-1.7,2.9l1.1,1.2l62.5,67.8l2.1-2.3h0l0,0l60.4-65.5
	L336,257.9z M293,253.8l-16.9-23.9h33.8L293,253.8z M289.8,256.2h-37.1l18.6-26.3L289.8,256.2z M249.4,253.8l-16.9-23.9h33.8
	L249.4,253.8z M289.9,260.3l-18.5,58.2l-18.9-58.2H289.9z M313.9,231.3l16.2,24.9h-33.8L313.9,231.3z M228.6,231.4l17.5,24.8H214
	L228.6,231.4z M248.3,260.3l18.4,56.9l-52.4-56.9H248.3z M276.3,316.6l17.9-56.3h34L276.3,316.6z"/>
</svg>
