<?xml version="1.0" encoding="utf-8"?>
<!-- Generator: Adobe Illustrator 21.1.0, SVG Export Plug-In . SVG Version: 6.00 Build 0)  -->
<svg version="1.1" id="Layer_1" xmlns="http://www.w3.org/2000/svg" xmlns:xlink="http://www.w3.org/1999/xlink" x="0px" y="0px"
	 viewBox="0 0 48 67.563" enable-background="new 0 0 48 67.563" xml:space="preserve">
<g>
	<path fill="#32322B" d="M13.914,29.053C12.012,23.119,9.083,10.08,11.35,9.538c2.261-0.54,2.174,0.203,2.955,1.569
		c0.775,1.364,1.448,17.854,6.276,18.233c4.825,0.381,6.253,2.416,7.924-1.874c1.675-4.293,6.152-19.115,7.863-19.068
		c1.707,0.044,4.756-1.75,3.758,1.632c-0.999,3.379-7.162,23.892-8.511,25.713C30.269,37.567,18.98,44.868,13.914,29.053"/>
	<path fill="#32322B" d="M16.491,5.838c1.361,2.751,0.233,6.081-2.515,7.439c-2.752,1.36-6.081,0.235-7.443-2.515
		c-1.357-2.749-0.231-6.077,2.52-7.438C11.801,1.965,15.132,3.09,16.491,5.838"/>
	<path fill="#32322B" d="M44.629,4.133c1.361,2.753,0.236,6.081-2.513,7.441c-2.75,1.359-6.081,0.235-7.443-2.518
		c-1.359-2.748-0.23-6.079,2.52-7.438C39.941,0.259,43.27,1.385,44.629,4.133"/>
	<path fill="#32322B" d="M39.785,40.192c4.467,9.032,0.766,19.974-8.267,24.441c-9.033,4.467-19.97,0.764-24.436-8.268
		c-4.467-9.03-0.771-19.968,8.263-24.436C24.378,27.462,35.319,31.162,39.785,40.192"/>
	<path fill="#DD8585" d="M22.105,46.651c0,0-6.72,28.441-16.276,17.288C-3.726,52.79,1.483,26.888,20.057,23.825
		c28.022-4.623,32.659,36.271,18.173,41.414C28.281,68.769,22.105,46.651,22.105,46.651"/>
	<path fill="#32322B" d="M33.731,33.904c0.865,1.751,0.145,3.873-1.606,4.739c-1.754,0.868-3.871,0.148-4.737-1.602
		c-0.868-1.755-0.153-3.872,1.602-4.74C30.739,31.435,32.862,32.149,33.731,33.904"/>
	<path fill="#32322B" d="M18.642,31.715c0.865,1.75,0.144,3.872-1.605,4.738c-1.75,0.865-3.873,0.149-4.739-1.601
		c-0.868-1.754-0.149-3.878,1.602-4.743C15.65,29.243,17.775,29.96,18.642,31.715"/>
	<path fill="#32322B" d="M42.863,43.205c0.996,2.014,0.17,4.451-1.843,5.447c-2.01,0.994-4.447,0.17-5.444-1.844
		c-0.995-2.01-0.17-4.448,1.841-5.442C39.431,40.37,41.869,41.194,42.863,43.205"/>
	<path fill="#32322B" d="M12.695,44.307c0.995,2.011,0.169,4.448-1.844,5.443c-2.011,0.995-4.45,0.174-5.444-1.839
		c-0.996-2.014-0.169-4.451,1.842-5.446C9.261,41.471,11.7,42.293,12.695,44.307"/>
	<path fill="#32322B" d="M34.578,53.188c0.584,1.179,0.098,2.609-1.08,3.191c-1.181,0.584-2.609,0.101-3.192-1.079
		c-0.585-1.181-0.102-2.608,1.08-3.192C32.563,51.525,33.993,52.007,34.578,53.188"/>
	<path fill="#32322B" d="M14.957,55.131c0.583,1.177,0.099,2.609-1.079,3.191c-1.184,0.585-2.61,0.099-3.193-1.079
		c-0.582-1.181-0.103-2.607,1.08-3.192C12.943,53.47,14.374,53.952,14.957,55.131"/>
</g>
</svg>
