<?xml version="1.0" encoding="utf-8"?>
<!-- Generator: Adobe Illustrator 21.1.0, SVG Export Plug-In . SVG Version: 6.00 Build 0)  -->
<svg version="1.1" id="Layer_1" xmlns="http://www.w3.org/2000/svg" xmlns:xlink="http://www.w3.org/1999/xlink" x="0px" y="0px"
	 viewBox="0 0 156.833 107.833" enable-background="new 0 0 156.833 107.833" xml:space="preserve">
<g>
	<defs>
		<rect id="SVGID_1_" x="-58.516" y="-35.015" width="259.362" height="158.402"/>
	</defs>
	<clipPath id="SVGID_2_">
		<use xlink:href="#SVGID_1_"  overflow="visible"/>
	</clipPath>
	<g clip-path="url(#SVGID_2_)">
		<g>
			<g>
				<path fill="#F9DE8C" d="M21.292,22.749c-3.968,7.368-10.295,13.507-11.498,22.105c-0.622,4.449,4.534,6.905,7.289,3.073
					c3.561-4.953,6.174-10.807,7.86-16.66c0.696-2.415,1.439-5.065,1.263-7.595c-0.163-2.342-1.996-3.868-2.256-6.016
					c-0.334-2.763-3.205-5.279-6.001-3.444c-2.72,1.786-4.593,4.167-6.902,6.414c2.088,1.611,4.176,3.222,6.264,4.833
					c1.329-2.544,2.211-4.752,2.352-7.645c0.179-3.662-4.379-4.981-6.808-2.82c-3.202,2.849-5.413,6.715-7.581,10.365
					c-2.052,3.454-4.853,6.573-6.556,10.211c-0.721,1.541-1.188,3.023-1.001,4.739c0.228,2.095,2.184,4.255,1.864,6.337
					c-0.296,1.921-3.183,4.59-4.439,6.096c-1.5,1.799-3.018,3.564-5.114,4.666c-2.849,1.497-2.302,5.269,0,6.887
					c9.925,6.977,19.686,14.493,31.777,17.167c2.098,0.464,4.317-0.618,4.906-2.786c1.161-4.276,0.679-8.67,1.488-12.978
					c0.886-4.72,2.957-9.1,3.578-13.902c0.964-7.454,0.755-15.982-1.538-23.173c-1.03-3.229-5.497-3.984-7.289-0.953
					c-5.203,8.799-6.064,18.686-7.565,28.579c-0.9,5.931-3.584,14.036,0.004,19.52c2.228,3.406,7.141,1.939,7.432-2.013
					c0.322-4.38-1.916-8.077-3.44-12.023c-2.145-5.553-0.316-11.47-0.458-17.238c-0.109-4.441-6.626-5.484-7.834-1.06
					C9.849,47.969,8.3,52.529,7.628,57.191c-0.602,4.172,0.137,8.341-0.176,12.526c2.611-0.353,5.223-0.707,7.834-1.06
					c-1.741-4.988-3.263-10.078-5.944-14.664c-1.492-2.552-5.413-2.625-6.887,0C-0.268,58.84,2.18,64.08,4.802,68.422
					c1.501-1.953,3.003-3.906,4.504-5.859c-4.072-1.427-2.182-3.201-0.791-6.381c1.39-3.177,2.408-6.49,3.647-9.724
					c2.935-7.66,7.075-14.781,10.686-22.128c2.256-4.59-4.621-8.637-6.887-4.026c-2.699,5.492-5.678,10.848-8.259,16.397
					c-2.42,5.202-4.005,10.702-6.287,15.946c-1.516,3.483-3.849,6.962-2.622,10.906c1.219,3.92,4.82,5.45,8.393,6.702
					c3.334,1.168,6.229-3.002,4.504-5.859c-0.835-1.383-3.275-4.726-2.348-6.377c-2.296,0-4.592,0-6.887,0
					c2.335,3.993,3.624,8.415,5.14,12.758c1.501,4.3,7.495,3.478,7.834-1.06c0.303-4.052-0.493-8.116,0.215-12.14
					c0.715-4.066,2.049-8.045,3.135-12.02c-2.611-0.353-5.223-0.707-7.834-1.06c0.139,5.639-1.447,11.394-0.066,16.971
					c1.018,4.108,4.284,7.943,3.964,12.289c2.477-0.671,4.955-1.342,7.432-2.013c-2.377-3.633,0.64-12.166,1.197-16.22
					c1.129-8.215,2.066-16.559,6.365-23.828c-2.43-0.318-4.86-0.635-7.289-0.953c2.082,6.529,2.412,14.939,1.084,21.694
					c-0.779,3.96-2.504,7.676-3.255,11.638c-0.784,4.138-0.249,8.403-1.356,12.48c1.635-0.929,3.271-1.857,4.906-2.786
					C12.542,71.255,3.395,63.975-5.946,57.409c0,2.296,0,4.592,0,6.887c3.941-2.071,6.601-5.729,9.304-9.152
					c2.796-3.54,5.193-7.204,3.928-11.91c-0.688-2.559-1.829-3.27-0.459-5.822c1.06-1.975,2.653-3.693,3.868-5.577
					c2.459-3.812,4.358-8.137,7.8-11.2c-2.269-0.94-4.539-1.88-6.808-2.82c-0.139,1.314-0.56,2.52-1.263,3.619
					c-2.067,3.957,2.934,8.075,6.264,4.833c1.754-1.707,3.222-3.811,5.288-5.167c-2-1.148-4.001-2.296-6.001-3.444
					c0.255,2.106,0.862,3.507,1.624,5.421c0.848,2.13,0.313,3.784-0.346,6.069c-1.513,5.245-3.867,10.319-7.056,14.755
					c2.43,1.024,4.86,2.049,7.289,3.073c1.095-7.828,7.073-13.476,10.694-20.2C30.613,22.255,23.729,18.223,21.292,22.749
					L21.292,22.749z"/>
			</g>
		</g>
		<g>
			<g>
				<path fill="#F9DE8C" d="M6.993,29.35c-1.782,3.595-4.39,7.986-4.229,12.138c0.198,5.116,8.175,5.142,7.976,0
					c-0.028-0.728-0.127,0.378-0.041-0.201c0.045-0.301,0.134-0.598,0.214-0.89c0.238-0.873,0.556-1.731,0.896-2.569
					c0.615-1.515,1.345-2.986,2.07-4.451C16.152,28.791,9.275,24.745,6.993,29.35L6.993,29.35z"/>
			</g>
		</g>
		<g>
			<g>
				<path fill="#F9DE8C" d="M10.155-12.993C4.368-7.575,1.481,1.427,5.692,8.689c4.627,7.98,15.578,9.242,23.119,4.91
					c8.065-4.633,12.746-14.995,7.3-23.38c-4.984-7.673-16.97-8.742-24.067-3.484c-3.1,2.297-2.183,7.261,2.013,7.432
					c3.654,0.149,9.268-1.09,12.248,1.633c2.041,1.865,1.949,5.534,2.63,8.046c1.341,4.949,9.038,2.849,7.691-2.12
					c-1.264-4.664-1.544-9.142-5.66-12.332c-4.995-3.871-11.023-2.963-16.909-3.202c0.671,2.477,1.342,4.955,2.013,7.432
					c3.758-2.784,10.711-3.385,13.505,1.149c3.002,4.872-1.365,10.513-5.833,12.474c-3.915,1.718-9.716,1.079-11.558-3.34
					c-1.714-4.111,0.653-8.486,3.612-11.257C19.551-10.868,13.902-16.5,10.155-12.993L10.155-12.993z"/>
			</g>
		</g>
		<g>
			<g>
				<path fill="#F9DE8C" d="M29.644-5.993c-0.571-0.177,0.3,0.183,0.122,0.032c-0.187-0.157,0.475,0.481,0.55,0.582
					c-0.036-0.049,0.535,1.046,0.579,1.158c0.217,0.546,0.456,1.465,0.516,1.849c-0.012-0.076,0.059,0.693,0.063,0.867
					c0.003,0.153-0.091,1.348,0.023,0.616c-0.331,2.126,0.542,4.29,2.786,4.906c1.892,0.52,4.572-0.645,4.906-2.786
					c0.895-5.737-1.344-13.026-7.423-14.916C26.851-15.212,24.75-7.514,29.644-5.993L29.644-5.993z"/>
			</g>
		</g>
		<g>
			<g>
				<path fill="#F9DE8C" d="M9.304-8.96C7.264-3.598,4.369,2.09,8.132,7.464c1.346,1.922,3.185,3.022,5.308,3.917
					c1.239,0.522,4.498,1.035,5.164,2.247c2.473,4.5,9.363,0.48,6.887-4.026c-1.842-3.352-5.451-4.01-8.688-5.41
					c-4.884-2.113-1.184-7.416,0.192-11.032C18.822-11.642,11.114-13.719,9.304-8.96L9.304-8.96z"/>
			</g>
		</g>
		<g>
			<g>
				<path fill="#F9DE8C" d="M1.652,2.258c-1.653,6.148,4.115,14.256,10.613,14.191c5.13-0.051,5.143-8.028,0-7.976
					c-0.785,0.008,0.338,0.268-0.358-0.064c0.67,0.319-0.425-0.303-0.449-0.321c0.409,0.295-0.504-0.499-0.503-0.498
					c-0.012-0.012-0.692-0.833-0.518-0.593C9.947,6.322,9.58,5.559,9.472,5.19C9.443,5.088,9.117,4.117,9.3,4.551
					c0.037,0.27,0.043,0.198,0.02-0.216c-0.093,0.475-0.085,0.49,0.024,0.045C10.678-0.584,2.986-2.701,1.652,2.258L1.652,2.258z"/>
			</g>
		</g>
		<g>
			<g>
				<path fill="#F9DE8C" d="M26.262,14.319c-1.044,0.656-2.059,1.292-3.15,1.868c1.953,1.501,3.906,3.003,5.859,4.504
					c0.306-1.62,0.715-3.203,1.032-4.82c0.739-3.764-3.694-6.847-6.666-3.88c-1.425,1.422-2.196,2.836-2.949,4.675
					c-0.853,2.083,0.95,4.272,2.786,4.906c7.436,2.57,14.301-7.288,17.915-12.364c1.64-2.303-0.518-6.379-3.444-6.001
					c-0.304,0.039-0.607,0.078-0.911,0.118c0.94,2.269,1.88,4.539,2.82,6.808c2.405-2.564,5.678-3.49,8.959-4.453
					c3.966-1.165,7.863-2.572,11.862-3.619c9.052-2.371,18.665-2.247,27.831-0.53c8.077,1.513,16.32,3.922,23.625,7.719
					c2.708,1.408,12.552,4.335,12.046,8.195c-0.447,3.403-6.761,6.459-9.307,7.879c-4.356,2.429-8.956,4.407-13.636,6.117
					c-4.858,1.775-9.536,3.089-14.783,3.146c-8.215,0.09-16.316-1.437-24.554-1.063c-15.672,0.71-30.267,8.145-36.748,23.171
					c-1.644,3.811,2.936,8.484,6.264,4.833c8.642-9.481,19.594-21.141,33.387-21.243c5.131-0.038,5.142-8.015,0-7.976
					c-16.125,0.12-28.837,12.4-39.027,23.58c2.088,1.611,4.176,3.222,6.264,4.833c3.4-7.883,10.229-14.746,18.474-17.383
					c8.098-2.59,16.957-2.122,25.303-1.402c7.926,0.683,15.706,1.079,23.383-1.37c4.753-1.516,9.418-3.374,13.95-5.459
					c7.289-3.353,21.568-10.271,18.741-20.583c-1.799-6.563-9.279-8.823-14.648-11.559c-8.151-4.155-16.733-7.171-25.731-8.95
					C80.657-8.074,69.655-8.467,59.161-5.87c-4.755,1.177-9.43,2.806-14.111,4.251c-4.145,1.279-8.118,2.893-11.137,6.112
					c-2.106,2.245-0.84,7.281,2.82,6.808c0.304-0.039,0.607-0.078,0.911-0.118c-1.148-2-2.296-4.001-3.444-6.001
					c-1.313,1.844-6.615,9.49-8.907,8.698c0.929,1.635,1.857,3.271,2.786,4.906c0.299-0.385,0.599-0.77,0.898-1.155
					c-2.222-1.293-4.444-2.587-6.666-3.88c-0.317,1.617-0.726,3.201-1.032,4.82c-0.647,3.422,2.648,6.196,5.859,4.504
					c1.092-0.575,2.106-1.212,3.15-1.868C34.625,18.483,30.627,11.579,26.262,14.319L26.262,14.319z"/>
			</g>
		</g>
		<g>
			<g>
				<path fill="#F9DE8C" d="M34.391,48.566c1.07-6.418,11.102-10.193,16.713-11.235c4.568-0.848,9.408-0.12,14.021-0.01
					c5.346,0.127,10.587,0.919,15.892,1.524c9.435,1.077,16.945-1.012,25.206-5.591c7.131-3.952,14.503-8.286,19.052-15.252
					c1.154-1.768,0.39-4.46-1.431-5.457C112.646,6.42,100.53,3.172,88.067,0.769c-11.824-2.28-23.998-4.21-35.895-1.226
					c-16.305,4.089-36.436,23.856-22.308,40.46c1.829,2.15,4.864,1.073,6.264-0.807c3.267-4.386,3.97-9.694,5.823-14.701
					c2.117-5.719,6.116-9.68,11.484-12.423c-1.342-2.296-2.684-4.592-4.026-6.887c-6.986,4.002-28.21,18.077-21.275,28.257
					c2.873,4.218,9.788,0.232,6.887-4.026c-0.463-0.68-0.338,0.341,0.082-0.872c0.299-0.865,1.034-1.744,1.578-2.466
					c1.658-2.202,3.797-4.124,5.856-5.94c3.367-2.968,6.992-5.83,10.897-8.067c4.481-2.567,0.525-9.213-4.026-6.887
					c-5.516,2.819-10.015,6.86-13.005,12.331C33.334,23.133,33.091,30,29.24,35.17c2.088-0.269,4.176-0.538,6.264-0.807
					c-5.514-6.48-0.689-14.269,4.483-19.247c6.343-6.105,14.589-8.777,23.295-9.116c9.403-0.366,18.723,1.573,27.875,3.505
					c10,2.111,19.664,5.006,28.663,9.929c-0.477-1.819-0.954-3.638-1.431-5.457c-4.663,7.14-15.247,12.762-23.049,15.732
					c-9.767,3.718-20.931-0.103-31.076-0.363c-8.438-0.216-15.738-0.429-23.58,3.15c-5.829,2.66-12.841,7.096-13.984,13.951
					C25.862,51.467,33.547,53.626,34.391,48.566L34.391,48.566z"/>
			</g>
		</g>
		<g>
			<g>
				<path fill="#F9DE8C" d="M56.407,3.1C45.657,9.501,41.242,21.827,36.66,32.794c-1.687,4.038,4.007,6.161,6.666,3.88
					c4.351-3.732,6.95-9.8,9.911-14.59c1.854-3,6.928-12.978,11.544-11.695c-0.929-1.635-1.857-3.271-2.786-4.906
					c-0.769,2.921-4.556,4.9-6.55,6.995c-3.054,3.208-6.286,7.07-8.59,10.872c-2.348,3.874-3.637,10.735,2.731,11.365
					c5.869,0.581,9.585-6.276,12.06-10.486c3.147-5.351,6.385-13.442,13.508-13.109c9.439,0.442,18.387,4.455,27.748,5.452
					c1.628,0.173,4.004,0.698,5.602,0.389c0.559,0.085,1.119,0.17,1.678,0.256c0.558-2.071,0.514-2.674-0.134-1.808
					c-0.793-0.099-5.315,3.616-6.339,4.159c-6.641,3.515-13.211,5.911-20.85,5.818c-4.62-0.057-9.256-0.019-13.875-0.125
					c-3.905-0.089-7.72-1.207-11.582-0.506c1.501,1.953,3.003,3.906,4.504,5.859c3.12-4.801,13.113-3.643,17.98-3.601
					c3.748,0.032,7.514,0.087,11.243-0.34c4.902-0.561,9.279-2.558,14.056-3.573c3.937-0.836,3.659-6.694,0-7.691
					c-13.268-3.618-30.308-2.034-43.134,2.479c1.293,2.222,2.587,4.444,3.88,6.666c5.624-5.89,15.342-6.386,22.941-5.396
					c4.751,0.619,4.954-6.386,1.06-7.834c-7.8-2.9-19.459-7.509-26.41-0.558c-3.634,3.634,2.004,9.276,5.64,5.64
					c4.015-4.015,14.243,0.972,18.649,2.61c0.353-2.611,0.707-5.223,1.06-7.834c-9.711-1.265-21.52,0.337-28.581,7.733
					c-2.594,2.717-0.047,8.047,3.88,6.666c11.47-4.035,26.972-5.729,38.893-2.479c0-2.564,0-5.128,0-7.691
					c-6.226,1.323-11.533,3.522-18.045,3.627c-3.64,0.059-7.282-0.097-10.921,0.022c-6.992,0.229-14.95,1.176-19.08,7.53
					c-2.058,3.166,1.328,6.435,4.504,5.859c3.07-0.557,7.17,0.763,10.345,0.799c4.039,0.046,8.068-0.031,12.107,0.081
					c7.092,0.196,13.706-1.121,20.14-4.107c5.183-2.406,18.048-7.303,15.81-14.986c-1.418-4.868-7.447-5.133-11.601-5.391
					C98.5,8.355,91.009,5.739,83.33,4.305c-6.089-1.137-12.461-2.498-17.798,1.41c-4.141,3.033-6.81,7.875-9.431,12.182
					c-1.483,2.436-4.026,5.331-5.08,7.909c-0.63,1.541-1.78-0.398,0.438,2.16c2.29,2.642,0.67,1.05,1.808,0.148
					c1.406-1.116,2.532-3.568,3.673-4.981c2.385-2.955,4.817-5.6,7.596-8.162c2.27-2.093,4.348-4.317,5.15-7.367
					C70.235,5.516,69,3.28,66.901,2.697c-15.416-4.286-20.64,20.982-29.215,28.337c2.222,1.293,4.444,2.587,6.666,3.88
					c3.717-8.896,7.348-19.726,16.081-24.927C64.839,7.363,60.832,0.465,56.407,3.1L56.407,3.1z"/>
			</g>
		</g>
		<g>
			<g>
				<path fill="#F9DE8C" d="M79.76,44.373c4.715,0.318,9.441,2.428,13.827,4.088c4.708,1.782,9.243,4.315,12.966,7.731
					c6.128,5.623,8.996,14.773,4.755,22.158c2.477,0.671,4.955,1.342,7.432,2.013c0.403-3.116,0.931-6.232,0.995-9.379
					c0.063-3.103-0.704-5.997-1.018-9.066c-0.517-5.057-8.499-5.11-7.976,0c0.311,3.042,1.059,5.996,1.018,9.066
					c-0.042,3.144-0.593,6.267-0.995,9.379c-0.528,4.084,5.604,5.196,7.432,2.013c13.756-23.951-17.208-44.55-38.435-45.98
					C74.636,36.052,74.657,44.029,79.76,44.373L79.76,44.373z"/>
			</g>
		</g>
		<g>
			<g>
				<path fill="#F9DE8C" d="M136.967,18.31c-0.635-3.063,1.845-7.187,3.929-9.241c-2.088-1.611-4.176-3.222-6.264-4.833
					c-1.321,2.37-3.102,4.402-4.622,6.641c2.477,0.671,4.955,1.342,7.432,2.013c1.055-8.215,16.007-11.52,19.236-3.356
					c1.511,3.819,1.708,8.953,0.067,12.765c-0.421,0.978-1.002,1.988-1.801,2.71c-0.612,0.553-1.84,0.751-2.319,1.242
					c-0.092,0.094-1.5,3.129-0.97,3.492c0.225,0.155,1.245-0.2,1.522-0.187c1.098,0.05,2.594-0.66,3.521-1.179
					c8.232-4.612,7.818-17.92,1.326-23.775c-5.865-5.289-15.873-5.084-21.361,0.66c-8.436,8.829-1.891,23.542,8.733,26.762
					c2.152,0.652,4.225-0.786,4.906-2.786c-0.025,0.031-0.049,0.063-0.074,0.094c2.067-4.65-4.804-8.712-6.887-4.026
					c-0.265,0.597-0.519,1.193-0.73,1.811c1.635-0.929,3.271-1.857,4.906-2.786c-5.212-1.58-9.573-9.809-4.582-14.049
					c2.755-2.341,7.622-1.997,10.101,0.563c1.691,1.747,2.077,4.51,1.718,6.837c-0.576,3.732-2.537,3.607-5.613,4.444
					c-4.833,1.314-6.354,7.526-2.213,10.666c3.717,2.818,9.219,1.42,12.587-1.237c3.753-2.96,5.514-7.604,6.064-12.232
					c1.063-8.948-2.072-19.595-11.773-21.984c-10.697-2.634-22.912,4.442-24.338,15.549c-0.55,4.282,5.465,4.911,7.432,2.013
					c1.529-2.252,3.293-4.258,4.622-6.641c2.193-3.934-2.994-8.055-6.264-4.833c-4.262,4.2-7.221,11.013-5.981,17.002
					C130.316,25.454,138.006,23.328,136.967,18.31L136.967,18.31z"/>
			</g>
		</g>
		<g>
			<g>
				<path fill="#F9DE8C" d="M155.297,4.223c2.499,7.459,7.952,15.008-0.573,21.071c-4.149,2.95-0.169,9.871,4.026,6.887
					c4.653-3.309,7.947-7.639,8.638-13.45c0.757-6.362-2.475-10.885-4.399-16.629C161.366-2.74,153.659-0.664,155.297,4.223
					L155.297,4.223z"/>
			</g>
		</g>
		<g>
			<g>
				<path fill="#F9DE8C" d="M137.662,32.071c7.247,5.956,9.835,16.023,11.347,24.905c0.94,5.521,1.682,11.496,0.972,17.082
					c-0.343,2.703-1.185,5.306-1.648,7.99c-0.448,2.6-0.535,5.184-1.566,7.647c-1.98,4.729,5.735,6.793,7.691,2.12
					c1.122-2.68,1.161-5.513,1.684-8.34c0.55-2.974,1.452-5.849,1.798-8.865c0.748-6.52-0.134-13.318-1.239-19.755
					c-1.743-10.15-5.137-21.634-13.398-28.424C139.367,23.197,133.692,28.808,137.662,32.071L137.662,32.071z"/>
			</g>
		</g>
		<g>
			<g>
				<path fill="#F9DE8C" d="M128.182,24.856c4.049,3.835,5.854,9.877,7.482,15.054c1.936,6.154,4.125,12.466,5.195,18.83
					c1.182,7.029,1.751,14.809,1.002,21.914c-0.575,5.455-1.223,10.252,2.808,14.574c1.9,2.037,4.823,1.175,6.264-0.807
					c7.026-9.663,1.086-22.773,1.477-33.59c0.249-6.895,0.715-20.526-8.152-22.501c-5.001-1.114-7.137,6.574-2.12,7.691
					c3.631,0.809,2.276,13.865,2.202,16.77c-0.22,8.625,5.246,19.983-0.295,27.603c2.088-0.269,4.176-0.538,6.264-0.807
					c-1.945-2.085-0.823-5.79-0.553-8.307c0.364-3.397,0.365-6.77,0.198-10.182c-0.359-7.324-1.096-14.542-3.122-21.608
					c-2.851-9.939-5.198-22.875-13.01-30.275C130.096,15.687,124.446,21.317,128.182,24.856L128.182,24.856z"/>
			</g>
		</g>
		<g>
			<g>
				<path fill="#F9DE8C" d="M127.891,31.277c-2.445,0.051-0.842-0.95-1.143,0.027c-0.08,0.259,0.862,2.032,0.953,2.282
					c0.739,2.023,1.249,4.145,1.749,6.235c1.185,4.964,2.068,10.001,2.868,15.04c0.539,3.391,1.057,6.792,1.481,10.2
					c1.123,9.028,0.268,18.133,2.36,27.058c1.171,4.996,8.864,2.881,7.691-2.12c-2.129-9.08-1.205-18.61-2.465-27.832
					c-0.664-4.857-1.377-9.708-2.231-14.536c-1.014-5.734-2.512-24.512-11.263-24.33C122.766,23.407,122.748,31.384,127.891,31.277
					L127.891,31.277z"/>
			</g>
		</g>
		<g>
			<g>
				<path fill="#F9DE8C" d="M120.617,28.466c1.131,11.025,3.688,21.769,5.771,32.634c1.058,5.52,1.792,11.061,2.447,16.641
					c0.583,4.967,2.282,10.043,2.482,14.994c0.207,5.115,8.184,5.142,7.976,0c-0.192-4.746-1.783-9.358-2.374-14.066
					c-0.67-5.334-1.221-10.664-2.151-15.962c-2.006-11.428-4.989-22.679-6.175-34.242C128.075,23.409,120.093,23.356,120.617,28.466
					L120.617,28.466z"/>
			</g>
		</g>
		<g>
			<g>
				<path fill="#F9DE8C" d="M116.432,31.608c-2.724,8.954,1.719,19.616,3.303,28.472c0.967,5.407,1.693,10.948,3.115,16.257
					c1.331,4.97,3.626,9.937,3.674,15.149c0.047,5.13,8.024,5.143,7.976,0c-0.041-4.452-1.352-8.671-2.655-12.888
					c-1.543-4.993-2.495-9.997-3.426-15.135c-0.925-5.103-1.641-10.287-2.892-15.321c-1.143-4.601-2.831-9.719-1.403-14.414
					C125.62,28.806,117.924,26.702,116.432,31.608L116.432,31.608z"/>
			</g>
		</g>
		<g>
			<g>
				<path fill="#F9DE8C" d="M110.035,34.165c-1.352,13.337,3.147,25.148,6.366,37.834c1.533,6.043,1.856,12.234,3.247,18.261
					c0.736,3.19,1.979,7.398,5.856,7.529c5.134,0.174,5.128-7.803,0-7.976c-0.089-0.003-0.178-0.006-0.267-0.009
					c1.148,0.658,2.296,1.317,3.444,1.975c-2.048-2.891-1.742-7.307-2.211-10.625c-0.744-5.268-2.068-10.515-3.583-15.609
					c-3.093-10.401-5.988-20.408-4.876-31.38C118.529,29.063,110.549,29.099,110.035,34.165L110.035,34.165z"/>
			</g>
		</g>
		<g>
			<g>
				<path fill="#F9DE8C" d="M100.979,42.868c0.286-1.183-0.377-0.562-1.988,1.865c-0.342,0.125-0.686,0.138-1.033,0.038
					c0.004-0.034,1.308,0.404,1.4,0.443c-0.404-0.169,0.905,0.486,1.064,0.572c0.574,0.312,1.135,0.648,1.688,0.995
					c1.826,1.145,3.04,1.8,4.357,3.355c2.157,2.548,7.117,0.557,6.808-2.82c-0.584-6.381-3.401-12.295-10.618-12.434
					c0.671,2.477,1.342,4.955,2.013,7.432c1.32-0.876,2.592-1.821,3.922-2.682c4.294-2.78,0.3-9.689-4.026-6.887
					c-1.33,0.861-2.602,1.806-3.922,2.682c-3.248,2.156-2.071,7.353,2.013,7.432c2.227,0.043,2.471,2.593,2.642,4.458
					c2.269-0.94,4.539-1.88,6.808-2.82c-2.129-2.515-5.567-4.583-8.488-6.032c-3.381-1.676-9.273-2.932-10.331,2.284
					C92.271,45.759,99.958,47.903,100.979,42.868L100.979,42.868z"/>
			</g>
		</g>
		<g>
			<g>
				<path fill="#F9DE8C" d="M34.549,90.733c4.601,3.864,9.99,5.881,15.362,8.412c5.49,2.586,10.676,4.037,16.708,4.816
					c13.905,1.795,28.566,1.424,42.545,0.638c-0.353-2.611-0.707-5.223-1.06-7.834c-2.172,0.471-4.382,0.807-6.588,1.071
					c-1.395,0.166-2.801,0.316-4.206,0.369c-0.594,0.03-1.189,0.04-1.784,0.029c-1.146-0.161-1.023,0.019,0.37,0.541
					c-3.383-3.874-9.005,1.787-5.64,5.64c3.781,4.33,15.254,1.065,19.969,0.041c4.358-0.946,3.446-8.087-1.06-7.834
					c-12.161,0.684-24.978,1.069-37.12-0.026c-6.086-0.549-11.897-1.399-17.457-4.015c-4.832-2.274-10.257-4.011-14.397-7.488
					C36.282,81.813,30.612,87.427,34.549,90.733L34.549,90.733z"/>
			</g>
		</g>
		<g>
			<g>
				<path fill="#F9DE8C" d="M97.559,106.104c7.839,1.086,15.355,0.035,23.197-0.092c7.933-0.128,15.535-0.087,23.278-2.122
					c15.291-4.018,26.242-14.255,38.421-23.645c4.261-3.285,9.202-7.025,9.602-12.87c0.362-5.293-3.502-7.359-8.12-5.531
					c-6.978,2.763-13.489,7.215-19.468,11.678c-6.268,4.679-11.928,9.538-16.076,16.267c-1.725,2.798,1.183,7.096,4.504,5.859
					c10.43-3.885,17.884-13.393,26.685-19.794c4.111-2.99,0.135-9.913-4.026-6.887c-4.423,3.216-8.285,7.083-12.584,10.451
					c-3.814,2.988-7.587,6.821-12.196,8.538c1.501,1.953,3.003,3.906,4.504,5.859c4.16-6.748,10.383-11.51,16.795-16.001
					c2.845-1.993,5.774-3.793,8.789-5.513c1.428-0.815,2.844-1.608,4.33-2.313c0.619-0.27,1.233-0.551,1.842-0.843
					c1.093-0.332,0.983-0.408-0.331-0.228c-0.794-0.611-1.589-1.222-2.383-1.833c1.139,1.772-12.34,11.435-13.564,12.446
					c-6.662,5.503-13.579,10.908-21.623,14.249c-7.7,3.198-15.646,4.286-23.932,4.26c-8.449-0.026-17.113,1.538-25.523,0.372
					C94.659,97.717,92.488,105.401,97.559,106.104L97.559,106.104z"/>
			</g>
		</g>
		<g>
			<g>
				<path fill="#F9DE8C" d="M76.66,101.805c4.119-0.504,7.583-2.177,11.448-3.585c4.322-1.574,8.798-2.664,13.101-4.321
					c7.691-2.961,13.987-7.89,19.252-14.186c3.272-3.912-2.342-9.584-5.64-5.64c-4.795,5.733-10.178,10.006-17.203,12.655
					c-3.598,1.357-7.314,2.283-10.941,3.543c-3.299,1.146-6.508,3.127-10.016,3.557C71.63,94.445,71.568,102.429,76.66,101.805
					L76.66,101.805z"/>
			</g>
		</g>
		<g>
			<g>
				<path fill="#F9DE8C" d="M105.968,89.882c3.938-3.125,7.549-6.673,11.668-9.565c4.17-2.927,0.189-9.846-4.026-6.887
					c-4.684,3.288-8.808,7.261-13.283,10.812c-1.689,1.34-1.4,4.24,0,5.64C101.996,91.55,104.276,91.225,105.968,89.882
					L105.968,89.882z"/>
			</g>
		</g>
		<g>
			<g>
				<path fill="#F9DE8C" d="M109.354,82.181c-3.848,3.35-8.397,5.977-13.142,7.85c-3.598,1.42-7.49,1.687-10.904,3.603
					c-2.982,1.674-2.343,6.425,0.953,7.289c6.802,1.784,14.152-0.027,20.533-2.556c3.178-1.26,6.31-2.733,9.18-4.6
					c0.699-0.455,7.172-5.638,5.662-5.871c-0.794-0.611-1.589-1.222-2.383-1.833c0.089,0.159,0.178,0.318,0.267,0.477
					c-0.134-1.024-0.268-2.049-0.402-3.073c-0.657,2.035-4.408,3.453-6.183,4.363c-2.656,1.362-5.27,2.571-7.661,4.381
					c-2.144,1.623-2.997,5.454,0,6.887c5.832,2.789,12.349-0.351,18.512-0.101c8.348,0.338,16.329,0.367,24.579-1.19
					c5.038-0.951,2.905-8.64-2.12-7.691c-6.831,1.289-13.666,1.414-20.584,1.012c-2.927-0.17-5.822-0.247-8.733,0.159
					c-2.008,0.28-5.674,1.859-7.627,0.924c0,2.296,0,4.592,0,6.887c5.147-3.896,12.697-5.401,16.378-11.12
					c2.737-4.253-0.452-9.543-5.716-7.736c-2.392,0.821-3.559,2.98-5.307,4.607c-2.049,1.906-4.679,3.318-7.174,4.55
					c-5.496,2.714-12.925,5.452-19.098,3.833c0.318,2.43,0.635,4.86,0.953,7.289c3.786-2.126,8.707-2.552,12.742-4.399
					c4.722-2.162,9.004-4.893,12.919-8.302C118.872,84.444,113.211,78.822,109.354,82.181L109.354,82.181z"/>
			</g>
		</g>
		<g>
			<g>
				<path fill="#F9DE8C" d="M12.737,67.698c-1.885-0.29-2.993-0.212-4.682,0.657c-1.97,1.014-2.398,3.636-1.431,5.457
					c0.363,0.773,0.8,1.5,1.313,2.183c2.088-1.611,4.176-3.222,6.264-4.833c-2.188-1.839-4.223-3.098-7.064-3.692
					c-3.471-0.725-6.122,2.686-4.504,5.859c1.947,3.818,5.994,5.709,9.664,7.525c5.321,2.633,10.574,5.441,15.79,8.277
					c4.729,2.571,9.617,4.972,14.054,8.026c3.67,2.527,7.464,4.948,12.063,3.699c4.948-1.344,2.848-9.041-2.12-7.691
					c-2.61,0.709-6.774-3.595-8.892-4.867c-4.106-2.467-8.441-4.65-12.661-6.919c-4.165-2.24-8.347-4.484-12.569-6.615
					c-2.725-1.375-6.975-2.587-8.441-5.46c-1.501,1.953-3.003,3.906-4.504,5.859c1.361,0.107,2.542,0.653,3.544,1.64
					c3.228,2.713,8.968-0.807,6.264-4.833c-0.513-0.682-0.951-1.41-1.313-2.183c-0.477,1.819-0.954,3.638-1.431,5.457
					c0.25-0.129,0.501-0.258,0.751-0.387c-1.024,0.134-2.049,0.268-3.073,0.402c0.286,0.044,0.571,0.088,0.857,0.132
					C15.638,76.163,17.802,68.478,12.737,67.698L12.737,67.698z"/>
			</g>
		</g>
		<g>
			<g>
				<path fill="#F9DE8C" d="M29.719,54.856c-0.256,2.026-0.571,3.773-1.502,5.612c2.43,1.024,4.86,2.049,7.289,3.073
					c0.703-1.749,1.116-3.382,1.532-5.218c-2.611-0.353-5.223-0.707-7.834-1.06C28.39,65.847,28.34,72.55,34.1,79.503
					c5.419,6.54,12.268,11.453,20.232,14.378c18.156,6.669,37.685,4.005,55.447-2.524c4.778-1.757,2.713-9.468-2.12-7.691
					c-15.042,5.53-30.902,8.31-46.624,3.979c-7.02-1.934-12.979-5.192-18.151-10.338c-2.685-2.671-5.508-5.721-6.184-9.593
					c-0.594-3.407,0.159-7.058,0.481-10.451c0.425-4.482-6.847-5.409-7.834-1.06c-0.417,1.836-0.83,3.469-1.532,5.218
					c-1.681,4.185,5.26,7.078,7.289,3.073c1.595-3.147,2.153-6.164,2.591-9.638C38.337,49.776,30.354,49.823,29.719,54.856
					L29.719,54.856z"/>
			</g>
		</g>
		<g>
			<g>
				<path fill="#F9DE8C" d="M24.606,63.683c-1.01,9.437,5.111,16.459,11.114,22.917c1.293-2.222,2.587-4.444,3.88-6.666
					c-4.443-1.761-8.134-4.809-12.742-6.26c-4.908-1.545-7.008,6.153-2.12,7.691c4.505,1.418,8.336,4.514,12.742,6.26
					c3.946,1.564,6.358-4,3.88-6.666c-4.629-4.98-9.559-9.985-8.778-17.277C33.128,58.585,25.148,58.624,24.606,63.683
					L24.606,63.683z"/>
			</g>
		</g>
		<g>
			<g>
				<path fill="#F9DE8C" d="M-21.697,67.019c-0.933,0.466-1.501,0.903-2.176,1.699c2.222,1.293,4.444,2.587,6.666,3.88
					c-0.033,0.106-0.066,0.211-0.098,0.317c-2.43-0.318-4.86-0.635-7.289-0.953c-0.025-0.24-0.049-0.48-0.074-0.719
					c-0.144,4.677,6.423,5.169,7.834,1.06c0.141-0.397,0.282-0.793,0.423-1.19c-2.43-1.024-4.86-2.049-7.289-3.073
					c-0.427,1.759-2.065,2.803-3.217,4.095c-1.673,1.877-3.122,3.963-4.711,5.913c-2.976,3.651-6.164,7.179-8.86,11.048
					c-2.793,4.008-8.798,13.206-2.782,17.111c4.939,3.206,10.967-3.276,14.184-6.37c7.061-6.792,12.967-14.947,18.921-22.69
					c1.407-1.83,0.121-4.316-1.431-5.457c-0.633-0.626-1.278-1.239-1.934-1.841c-1.513-1.411-4.155-1.648-5.64,0
					c-5.041,5.594-10.752,11.564-14.728,17.998c-2.706,4.379,4.191,8.389,6.887,4.026c3.584-5.799,8.923-11.326,13.481-16.383
					c-1.88,0-3.76,0-5.64,0c1.176,1.097,2.248,2.133,3.548,3.089c-0.477-1.819-0.954-3.638-1.431-5.457
					c-4.431,5.763-8.924,11.496-13.746,16.941c-2.154,2.432-4.436,4.695-6.917,6.792c-0.411,0.348-1.547,1.046-1.776,1.477
					c-1.276,0.5-1.097,0.921,0.535,1.264c1.085,1.142,1.71,0.988,1.875-0.463c0.631-0.535,1.302-2.542,1.639-3.126
					c0.977-1.697,2.101-3.297,3.302-4.843c2.166-2.787,4.517-5.438,6.736-8.183c3.051-3.773,8.225-7.987,9.397-12.819
					c1.014-4.178-5.443-7.393-7.289-3.073c-0.441,1.031-0.863,2.034-1.227,3.095c2.611,0.353,5.223,0.707,7.834,1.06
					c0.014-0.445-0.069-0.979-0.211-1.401c-1.051-3.135-5.536-4.082-7.289-0.953c-0.284,0.507-0.502,1.045-0.706,1.589
					c-1.38,3.685,4.14,6.859,6.666,3.88c0.187-0.151,0.375-0.301,0.562-0.452C-13.077,71.614-17.112,64.731-21.697,67.019
					L-21.697,67.019z"/>
			</g>
		</g>
		<g>
			<g>
				<path fill="#F9DE8C" d="M-13.605,78.289c5.003,5.119,11.649,7.638,17.775,11.083c3.36,1.889,6.379-3.277,3.019-5.166
					C1.545,81.033-4.77,78.771-9.375,74.059C-12.071,71.301-16.299,75.533-13.605,78.289L-13.605,78.289z"/>
			</g>
		</g>
		<g>
			<g>
				<path fill="#F9DE8C" d="M6.046,89.241c2.313,1.235,4.895,1.868,7.144,3.225c2.204,1.329,4.211-2.118,2.013-3.444
					c-2.254-1.359-4.832-1.989-7.144-3.225C5.796,84.588,3.779,88.03,6.046,89.241L6.046,89.241z"/>
			</g>
		</g>
		<g>
			<g>
				<path fill="#F9DE8C" d="M-0.9,151.816c-0.804-0.482-1.476-0.75-2.391-0.944c-0.353-0.047-0.707-0.095-1.06-0.142
					c-1.163-0.195-1.145,0,0.053,0.585c-2.088,1.611-4.176,3.222-6.264,4.833c4.393,5.017,9.007,10.075,16.503,8.516
					c6.237-1.297,9.132-7.289,12.581-11.971c1.332-1.808,0.206-4.363-1.431-5.457c-0.141-0.094-0.283-0.189-0.424-0.283
					c-0.671,2.477-1.342,4.955-2.013,7.432c-0.02-0.006-0.04-0.013-0.06-0.019c0.707-2.564,1.414-5.128,2.12-7.691
					c-1.439-0.238-4.905-2.606-5.714-3.754c-1.642-2.332-5.35-2.816-6.887,0c-0.791,1.447-1.292,3.131-2.172,4.515
					c-0.906,1.424-1.864,1.599-2.933,2.744c-1.755,1.879-1.957,4.292-0.464,6.392c1.379,1.94,3.858,3.17,6.214,2.764
					c1.263-0.218,2.187-0.822,3.191-1.583c0.816-0.618,3.454-2.005,1.219-1.37c4.929-1.402,2.834-9.1-2.12-7.691
					c-0.95,0.27-1.543,0.736-2.314,1.316c-0.32,0.25-0.621,0.52-0.905,0.811c-1.4,0.859-0.908,1.411,1.475,1.656
					c-0.134,1.024-0.268,2.049-0.402,3.073c-0.916,1.325,0.772-0.28,0.989-0.457c0.785-0.64,1.41-1.352,2.008-2.173
					c1.324-1.817,2.028-4.004,3.102-5.97c-2.296,0-4.592,0-6.887,0c2.102,2.985,6.79,6.81,10.481,7.42
					c4.983,0.823,7.207-6.692,2.12-7.691c-0.683-0.134-1.365-0.239-2.06-0.266c-4.181-0.162-5.118,5.357-2.013,7.432
					c0.141,0.094,0.283,0.189,0.424,0.283c-0.477-1.819-0.954-3.638-1.431-5.457c-1.744,2.367-3.727,7.032-6.733,8.049
					c-4.111,1.39-7.502-3.558-9.823-6.209c-3.171-3.621-8.077,0.987-6.264,4.833c0.612,1.298,1.519,2.23,2.861,2.799
					c0.972,0.412,2.591,0.079,3.399,0.563C-0.513,161.351,3.502,154.457-0.9,151.816L-0.9,151.816z"/>
			</g>
		</g>
		<g>
			<g>
				<path fill="#F9DE8C" d="M118.24,157.222c-0.404-0.085-0.807-0.17-1.211-0.255c0.318,2.43,0.635,4.86,0.953,7.289
					c2.266-1.287,4.502-2.002,6.569-3.645c-2.222-0.587-4.444-1.173-6.666-1.76c1.209,3.409,2.39,7.079,5.759,8.948
					c4.191,2.326,9.034,0.352,13.422,1.551c-0.794-1.953-1.589-3.906-2.383-5.859c-1.205,2.671-4.379,4.12-7.186,4.547
					c-3.534,0.538-5.825-2.682-6.399-5.889c-0.903-5.045-8.591-2.907-7.691,2.12c1.081,6.043,6.742,12.15,13.22,11.932
					c5.578-0.188,12.576-3.432,14.945-8.684c1.039-2.304,0.307-5.123-2.383-5.859c-3.08-0.842-5.961-0.518-9.089-0.577
					c-3.264-0.062-3.47-1.389-4.521-4.351c-1.072-3.022-4.255-3.676-6.666-1.76c-1.374,1.092-3.418,1.525-4.955,2.398
					c-2.861,1.624-2.454,6.572,0.953,7.289c0.404,0.085,0.807,0.17,1.211,0.255C121.127,165.968,123.268,158.28,118.24,157.222
					L118.24,157.222z"/>
			</g>
		</g>
		<g>
			<g>
				<path fill="#FCD6D6" d="M72.393,50.497c-0.436-1.907-2.755-3.403-4.414-1.775c-2.001,1.964,0.158,4.401,1.641,5.776
					c1.84,1.706,3.695,2.433,6.241,1.955c2.601-0.488,4.893-1.948,5.904-4.441c0.353-0.871-0.393-1.801-1.17-2.06
					c-1.896-0.634-3.847-0.528-5.795-0.864c-1.963-0.339-3.608-0.672-5.591-0.231c0.43,1.02,0.86,2.041,1.291,3.061
					c2.017-1.237,3.661-0.012,5.44,1.025c0.282-1.04,0.564-2.081,0.845-3.121c-2.071,0.155-3.967,0.127-5.543,1.656
					c-0.597,0.579-0.702,1.808,0,2.369c1.312,1.049,2.666,1.461,4.321,0.963c0.718-0.216,1.389-0.603,2.039-0.967
					c0.391-0.219,1.892-1.364,2.314-1.305c2.108,0.291,3.02-2.936,0.89-3.23c-1.957-0.27-3.876-0.691-5.876-0.891
					c-2.143-0.214-2.128,3.137,0,3.35c1.703,0.17,3.324,0.542,4.985,0.771c2.108,0.291,3.02-2.936,0.89-3.23
					c-1.174-0.162-2.208,0.182-3.253,0.704c-0.895,0.447-2.938,2.27-3.943,1.467c0,0.79,0,1.579,0,2.369
					c0.787-0.764,2.156-0.598,3.174-0.675c1.594-0.119,2.359-2.239,0.845-3.121c-2.936-1.711-5.656-2.966-8.822-1.025
					c-1.643,1.008-0.558,3.472,1.291,3.061c1.715-0.381,3.263,0.195,4.95,0.409c1.584,0.201,3.126,0.175,4.655,0.687
					c-0.39-0.687-0.78-1.374-1.17-2.06c-0.633,1.561-3.465,2.526-5.008,2.079c-0.638-0.185-1.058-0.625-1.538-1.07
					c-0.321-0.298-0.611-0.681-0.958-0.946c-0.112-0.125-0.223-0.251-0.335-0.376c-0.338-0.737-0.849-0.544-1.533,0.58
					C69.643,53.489,72.873,52.599,72.393,50.497L72.393,50.497z"/>
			</g>
		</g>
		<g>
			<g>
				<path fill="#FFFFFF" d="M63.926,62.788c-5.239-1.997-9.204,10.776-4.469,13.173c6.478,3.279,8.199-11.097,6.526-14.64
					c-0.486-1.03-1.895-1-2.63-0.339c-2.863,2.572-4.603,8.271-3.364,11.963c0.4,1.193,1.858,1.646,2.799,0.739
					c3.096-2.983,2.917-7.446,4.149-11.299c0.187-0.586,0.866-3.338,1.16-3.426c-0.543,0.161,2.052,1.779,1.823,1.659
					c1.887,0.996,3.976,0.966,5.96,0.385c2.898-0.848,13.864-6.559,9.693-10.783c-1.517-1.536-3.885,0.833-2.369,2.369
					c-0.088-0.089-4.949,3.799-5.759,4.154c-1.888,0.827-4.282,1.32-6.205,0.768c-0.771-0.221-1.432-0.758-2.187-1.02
					c-0.748-0.259-1.66-0.727-2.487-0.449c-1.71,0.575-1.923,2.834-2.413,4.284c-1.104,3.265-1.161,8.51-3.735,10.991
					c0.933,0.246,1.866,0.493,2.799,0.739c-0.875-2.608,0.491-6.897,2.503-8.703c-0.877-0.113-1.754-0.226-2.63-0.339
					c0.767,1.624,0.281,8.017-1.343,9.055c-2.533,1.619,0.286-6.431,1.288-6.049C65.051,66.786,65.923,63.549,63.926,62.788
					L63.926,62.788z"/>
			</g>
		</g>
		<g>
			<g>
				<path fill="#FFFFFF" d="M63.455,47.633c4.769-0.076,8.649-2.014,13.568-1.16c3.878,0.673,11.487,2.056,8.864,7.701
					c-0.903,1.943,1.984,3.646,2.892,1.691c2.194-4.722,0.531-8.58-4.17-10.77c-2.793-1.301-6.154-1.941-9.196-2.263
					c-4.211-0.446-7.823,1.387-11.96,1.453C61.302,44.318,61.295,47.668,63.455,47.633L63.455,47.633z"/>
			</g>
		</g>
		<g>
			<g>
				<path fill="#FFFFFF" d="M81.317,48.904c0.823,1.27,2.135,1.996,3.072,3.151c0.461,0.568,1.437,0.608,2.03,0.262
					c0.637-0.372,0.97-1.178,0.77-1.891c-0.102-0.365-0.253-0.689-0.518-0.964c-0.119-0.122-0.251-0.229-0.397-0.32
					c0.216,0.184,0.248,0.197,0.098,0.04c-0.598-0.679-1.757-0.611-2.369,0c-0.674,0.674-0.6,1.688,0,2.369
					c0.048,0.066,0.106,0.123,0.172,0.171c0.546,0.461,0.474,0.326-0.216-0.405c0.933-0.543,1.866-1.086,2.799-1.63
					c-0.404-0.498-0.893-0.904-1.38-1.316c-0.238-0.201-0.476-0.404-0.7-0.62c-0.119-0.115-0.232-0.237-0.345-0.359
					c-0.228-0.248,0.072,0.125-0.124-0.177c-0.491-0.758-1.485-1.072-2.291-0.601C81.164,47.054,80.823,48.142,81.317,48.904
					L81.317,48.904z"/>
			</g>
		</g>
		<g>
			<g>
				<path fill="#FFFFFF" d="M68.645,47.462c4.206,0.641,8.953,0.014,12.835,1.992c1.917,0.977,3.614-1.912,1.691-2.892
					c-4.302-2.192-9.006-1.624-13.635-2.33C67.426,43.91,66.517,47.138,68.645,47.462L68.645,47.462z"/>
			</g>
		</g>
		<g>
			<g>
				<path fill="#FFFFFF" d="M64.284,44.944c-3.353,1.208-2.922,5.153-2.204,7.998c0.909,3.598,3.394,6.893,6.424,8.999
					c0.282-1.04,0.564-2.081,0.845-3.121c-0.349-0.037-2.029-3.423-2.925-3.932c-1.877-1.067-3.567,1.826-1.691,2.892
					c0.929,0.528,1.315,2.167,2.006,2.994c0.726,0.869,1.473,1.275,2.61,1.396c1.806,0.191,2.061-2.276,0.845-3.121
					c-1.857-1.291-3.597-3.433-4.444-5.533c-0.282-0.699-1.602-4.972-0.576-5.342C67.188,47.449,66.319,44.211,64.284,44.944
					L64.284,44.944z"/>
			</g>
		</g>
		<g>
			<g>
				<path fill="#FFFFFF" d="M65.963,44.681c-2.805-3.856-12.277,0.465-15.59,1.851c0.43,1.02,0.86,2.041,1.291,3.061
					c1.366-0.903,2.811-1.856,4.492-2.058c-0.148-1.097-0.297-2.193-0.445-3.29c-12.427,2.521-22.397,13.13-17.425,26.513
					c2.358,6.348,7.939,8.908,13.611,11.789c6.766,3.437,14.757,5.317,22.357,5.639c11.245,0.477,31.076-1.886,36.374-13.883
					c2.487-5.632-0.92-12.228-4.429-16.655c-2.221-2.802-4.766-4.413-7.918-6.035c-2.324-1.195-7.548-2.279-9.011-4.354
					c-0.63,0.82-1.261,1.64-1.891,2.46c6.61,1.259,18.887,7.647,19.235,15.242c0.098,2.147,3.449,2.159,3.35,0
					c-0.219-4.785-3.089-8.404-6.839-11.187c-4.198-3.116-9.68-6.3-14.855-7.285c-1.291-0.246-2.808,1.16-1.891,2.46
					c2.145,3.042,6.283,3.627,9.462,5.186c5.915,2.9,10.707,7.587,12.106,14.301c2.72,13.052-21.318,15.721-29.217,16.29
					c-6.427,0.463-12.884-0.871-19.068-2.564c-4.963-1.359-12-4.463-15.622-8.273c-4.338-4.563-4.549-12.446-1.586-17.799
					c2.948-5.327,8.487-7.468,14.15-8.617c1.821-0.369,1.442-3.517-0.445-3.29c-2.358,0.284-4.196,1.203-6.182,2.516
					c-1.48,0.978-0.557,3.834,1.291,3.061c1.394-0.583,11.146-4.299,11.807-3.391C64.326,48.098,67.234,46.429,65.963,44.681
					L65.963,44.681z"/>
			</g>
		</g>
		<g>
			<g>
				<path fill="#FFFFFF" d="M53.523,47.474c-8.614,2.186-14.032,10.548-14.03,19.19c0.001,3.717,0.641,7.721,3.301,10.517
					c3.372,3.545,9.077,4.316,13.341,6.221c1.363,0.609,2.746-0.386,2.46-1.891c-0.75-3.954-0.18-7.539,1.98-10.944
					c-1.04-0.282-2.081-0.564-3.121-0.845c-0.163,3.853-2.537,7.08-2.115,10.995c0.137,1.272,1.833,2.424,2.859,1.184
					c1.771-2.138,2.667-4.416,2.679-7.216c0.009-1.986-2.649-2.145-3.29-0.445c-0.847,2.248-1.451,4.779-0.636,7.111
					c0.503,1.438,2.198,1.569,3.061,0.4c2.052-2.779,3.082-13.116-1.379-14.367c-4.596-1.289-6.243,8.669-6.005,11.549
					c0.132,1.588,2.231,2.364,3.121,0.845c2.387-4.074,2.792-10.088,0.627-14.326c-0.495-0.969-1.904-1.068-2.63-0.339
					c-2.817,2.824-3.326,10.07-1.87,13.602c0.363,0.882,1.496,1.721,2.46,1.001c4.437-3.313,2.091-11.652-0.391-15.571
					c-0.535-0.844-1.903-1.196-2.63-0.339c-2.003,2.361-4.757,14.337,0.423,14.597c5.036,0.253,3.629-11.455,2.831-14.411
					c-0.595-2.203-2.212-5.318-4.888-3.324c-2.253,1.679-2.246,6.434-2.417,8.972c-0.168,2.492-0.097,8.431,3.897,8.004
					c3.398-0.364,3.574-5.765,3.463-8.18c-0.132-2.868-0.816-8.9-4.263-10.002c-3.348-1.071-4.137,3.782-4.361,6.108
					c-0.22,2.292-0.845,8.999,2.092,10.308c2.951,1.315,3.68-2.514,3.793-4.508c0.159-2.82,0.234-14.607-4.558-13.572
					c-5.156,1.113-4.892,18.76,0.586,16.903c5.26-1.783,2.192-19.602-2.878-18.298c-2.944,0.757-2.867,5.88-2.945,8.149
					c-0.156,4.543,1.273,8.072,3.158,12.168c0.905,1.966,3.754,0.256,2.892-1.691c-0.318-0.774-0.678-1.529-1.078-2.264
					c-0.979-1.921-3.87-0.228-2.892,1.691c0.4,0.735,0.76,1.49,1.078,2.264c0.964-0.564,1.928-1.127,2.892-1.691
					c-1.736-3.771-2.927-7.257-2.66-11.441c0.069-1.076,0.337-2.136,0.424-3.197c-0.238-0.211-0.476-0.423-0.714-0.634
					c0.258,0.615,0.476,1.243,0.653,1.885c0.367,1.56,0.881,3.082,1.133,4.669c0.104,1.449,0.292,2.886,0.563,4.313
					c-0.099-0.825-0.199-1.651-0.298-2.476c-0.09-1.892,0.689-3.899,0.588-5.693c-0.158-2.805-0.339-1.186-0.142-0.011
					c0.143,0.851,0.355,1.683,0.484,2.539c0.197,1.314,0.314,2.64,0.361,3.966c0.046,1.309-0.202,6.036,0.992,2.915
					c0.472-1.232-1.416-7.566,0.109-8.006c1.218-0.352,1.7,5.448,1.665,6.78c-0.02,0.769,0.241,2.515-0.614,2.71
					c-0.134,0.031-0.046-4.041-0.024-4.293c0.068-0.792,0.162-4.479,0.555-4.841c-0.034,0.031,0.671,6.944,0.543,8.342
					c0.107-1.172-0.463,4.5,0.69,2.447c0.273-0.487-0.079-2.431-0.043-3.006c0.093-1.499,0.228-4.582,1.28-5.822
					c-0.877-0.113-1.754-0.226-2.63-0.339c1.268,2.001,4.019,9.177,1.593,10.988c0.82,0.334,1.64,0.667,2.46,1.001
					c-0.998-2.422-0.934-8.395,1.009-10.343c-0.877-0.113-1.754-0.226-2.63-0.339c1.609,3.151,1.13,7.945-0.627,10.945
					c1.04,0.282,2.081,0.564,3.121,0.845c-0.098-1.178,0.507-7.157,1.764-7.6c0.625-0.22,0.099,7.75-0.623,8.727
					c1.02,0.133,2.041,0.267,3.061,0.4c-0.629-1.799-0.003-3.636,0.636-5.33c-1.097-0.148-2.193-0.297-3.29-0.445
					c0.09,1.817-0.476,3.433-1.698,4.848c0.953,0.395,1.906,0.79,2.859,1.184c-0.406-3.768,1.955-7.211,2.115-10.995
					c0.073-1.73-2.272-2.184-3.121-0.845c-2.68,4.225-3.243,8.643-2.317,13.525c0.82-0.63,1.64-1.261,2.46-1.891
					c-6.561-2.93-14.385-3.618-14.94-12.398C42.4,60.44,46.61,52.685,54.414,50.704C56.502,50.174,55.617,46.943,53.523,47.474
					L53.523,47.474z"/>
			</g>
		</g>
		<g>
			<g>
				<path fill="#FFFFFF" d="M44.782,75.622c2.024,2.463,4.878,3.833,7.449,5.618c1.775,1.232,3.451-1.67,1.691-2.892
					c-2.346-1.629-4.925-2.848-6.771-5.095C45.781,71.587,43.424,73.969,44.782,75.622L44.782,75.622z"/>
			</g>
		</g>
		<g>
			<g>
				<path fill="#FFFFFF" d="M51.25,50.114c-2.5,1.115-4.122,3.247-5.786,5.345c-1.309,1.649,0.773,3.903,2.369,2.369
					c2.081-2.002,3.678-4.332,5.298-6.709c1.068-1.568-1.356-3.435-2.63-2.03c-1.987,2.191-4.108,4.226-5.645,6.774
					c-0.693,1.15,0.49,3.032,1.891,2.46c4.334-1.767,6.61-5.747,10.278-8.425c-0.764-0.764-1.528-1.528-2.291-2.291
					c-0.095,0.176-0.19,0.352-0.285,0.528c-0.752,1.393,0.482,2.667,1.891,2.46c0.418-0.061,0.836-0.122,1.254-0.184
					c-0.43-1.02-0.86-2.041-1.291-3.061c-2.166,1.188-3.839,2.887-5.811,4.361c0.677,0.877,1.353,1.754,2.03,2.63
					c2.437-2.502,5.428-3.968,8.556-5.416c-0.677-0.877-1.353-1.754-2.03-2.63c-4.477,3.603-8.461,7.727-12.547,11.755
					c-1.311,1.292,0.465,3.792,2.03,2.63c3.938-2.925,7.242-6.625,11.355-9.314c-0.82-0.63-1.64-1.261-2.46-1.891
					c-0.518,1.689-3.106,3.467-4.258,4.8c-1.409,1.63-2.718,3.345-4.116,4.985c-1.382,1.62,0.876,3.96,2.369,2.369
					c1.759-1.876,3.563-3.705,5.366-5.538c1.567-1.593,2.889-3.661,4.705-4.978c-0.764-0.764-1.528-1.528-2.291-2.291
					c-1.04,2.337-2.851,4.151-4.315,6.22c-1.776,2.511-3.191,5.247-5.015,7.728c-1.12,1.523,1.399,3.474,2.63,2.03
					c3.289-3.857,6.254-7.975,10.03-11.387c-0.877-0.677-1.754-1.353-2.63-2.03c-2.018,4.082-5.508,7.239-6.598,11.772
					c-0.401,1.671,1.554,2.734,2.799,1.63c2.88-2.554,4.371-6.134,6.926-8.961c-0.877-0.677-1.754-1.353-2.63-2.03
					c-1.851,3.537-5.243,6.827-4.5,11.121c0.171,0.986,1.644,1.624,2.46,1.001c2.631-2.008,4.047-4.892,5.829-7.615
					c1.032-1.576-1.368-3.466-2.63-2.03c-2.498,2.842-4.905,5.782-5.768,9.547c-0.256,1.118,0.797,2.565,2.06,2.06
					c3.706-1.48,5.11-5.594,7.449-8.513c-0.933-0.543-1.866-1.086-2.799-1.63c-1.123,2.803-3.765,4.478-4.285,7.581
					c-0.254,1.514,1.561,2.974,2.799,1.63c1.718-1.866,2.838-4.194,4.655-5.961c-0.933-0.543-1.866-1.086-2.799-1.63
					c-0.454,2.273-2.118,4.012-2.564,6.326c-0.407,2.106,2.821,3.008,3.23,0.89c0.442-2.289,2.105-4.026,2.565-6.326
					c0.319-1.598-1.545-2.849-2.799-1.63c-1.838,1.788-2.927,4.084-4.655,5.961c0.933,0.543,1.866,1.086,2.799,1.63
					c0.48-2.866,3.203-4.881,4.285-7.581c0.611-1.525-1.775-2.907-2.799-1.63c-1.715,2.14-3.355,6.606-5.971,7.651
					c0.687,0.687,1.373,1.373,2.06,2.06c0.737-3.215,2.776-5.645,4.906-8.069c-0.877-0.677-1.754-1.353-2.63-2.03
					c-1.393,2.127-2.571,4.843-4.628,6.413c0.82,0.334,1.64,0.667,2.46,1.001c-0.491-2.834,2.917-6.16,4.162-8.54
					c0.845-1.615-1.299-3.502-2.63-2.03c-2.544,2.815-4.076,6.434-6.926,8.961c0.933,0.543,1.866,1.086,2.799,1.63
					c1.006-4.186,4.389-7.187,6.26-10.972c0.839-1.699-1.185-3.335-2.63-2.03c-3.776,3.411-6.741,7.53-10.03,11.387
					c0.877,0.677,1.754,1.353,2.63,2.03c1.824-2.481,3.231-5.223,5.015-7.728c1.472-2.067,3.273-3.879,4.315-6.22
					c0.597-1.34-0.775-3.391-2.291-2.291c-1.787,1.296-2.975,3.002-4.462,4.598c-2.043,2.192-4.235,4.253-6.287,6.441
					c0.79,0.79,1.579,1.579,2.369,2.369c1.964-2.303,3.75-4.794,5.897-6.936c1.366-1.363,2.752-2.415,3.338-4.327
					c0.417-1.361-1.237-2.691-2.46-1.891c-4.128,2.699-7.411,6.385-11.355,9.314c0.677,0.877,1.353,1.754,2.03,2.63
					c4.086-4.029,8.069-8.152,12.547-11.755c1.585-1.275-0.435-3.369-2.03-2.63c-3.389,1.568-6.604,3.24-9.233,5.94
					c-1.273,1.307,0.456,3.807,2.03,2.63c1.943-1.452,3.677-3.191,5.811-4.361c1.795-0.985,0.461-3.318-1.291-3.061
					c-0.418,0.061-0.836,0.122-1.254,0.184c0.63,0.82,1.261,1.64,1.891,2.46c0.095-0.176,0.19-0.352,0.285-0.528
					c0.732-1.356-0.852-3.342-2.291-2.291c-3.28,2.394-5.665,6.532-9.478,8.087c0.63,0.82,1.261,1.64,1.891,2.46
					c1.382-2.293,3.333-4.125,5.121-6.096c-0.877-0.677-1.754-1.353-2.63-2.03c-1.458,2.14-2.899,4.228-4.774,6.031
					c0.79,0.79,1.579,1.579,2.369,2.369c1.475-1.859,2.882-3.828,5.108-4.821C54.906,52.129,53.204,49.242,51.25,50.114
					L51.25,50.114z"/>
			</g>
		</g>
		<g>
			<g>
				<path fill="#FFFFFF" d="M65.861,60.621c-0.691,2.4-2.33,4.565-1.087,7.093c0.409,0.831,1.541,1.005,2.291,0.601
					c2.151-1.16,3.174-3.906,3.645-6.168c0.338-1.625-1.54-2.809-2.799-1.63c-1.81,1.695-2.885,4.634-2.778,7.095
					c0.052,1.198,1.023,1.764,2.12,1.615c2.98-0.405,4.245-4.739,5.032-7.112c0.606-1.829-2.109-2.898-3.061-1.291
					c-0.925,1.562-1.597,3.23-1.749,5.049c-0.106,1.262,1.503,2.094,2.52,1.446c1.873-1.194,2.851-3.331,3.435-5.403
					c-1.077-0.297-2.153-0.594-3.23-0.89c-0.082,0.543-0.001,0.967,0.043,1.465c0.187,2.131,3.538,2.151,3.35,0
					c-0.024-0.273-0.042-1.37-0.162-0.574c0.314-2.076-2.63-3.021-3.23-0.89c-0.329,1.169-0.815,2.713-1.895,3.401
					c0.84,0.482,1.68,0.964,2.52,1.446c0.101-1.202,0.687-2.337,1.292-3.358c-1.02-0.43-2.041-0.86-3.061-1.291
					c-0.321,0.967-0.649,1.936-1.1,2.852c-0.332,0.673-0.785,1.811-1.592,1.921c0.707,0.538,1.413,1.077,2.12,1.615
					c-0.071-1.635,0.588-3.595,1.797-4.727c-0.933-0.543-1.866-1.086-2.799-1.63c-0.285,1.37-0.767,3.444-2.105,4.166
					c0.764,0.2,1.528,0.401,2.291,0.601c-0.273-0.556,0.277-1.58,0.479-2.088c0.322-0.807,0.705-1.587,0.946-2.424
					C69.689,59.437,66.458,58.55,65.861,60.621L65.861,60.621z"/>
			</g>
		</g>
		<g>
			<g>
				<path fill="#FFFFFF" d="M75.48,63.586c2.155,0,2.159-3.35,0-3.35C73.325,60.237,73.321,63.586,75.48,63.586L75.48,63.586z"/>
			</g>
		</g>
		<g>
			<g>
				<path fill="#FFFFFF" d="M77.095,62.357c0.226-0.526,0.403-1.068,0.533-1.626c0.512-1.832-2.093-2.929-3.061-1.291
					c-0.842,1.425-1.229,2.896-1.242,4.549c-0.01,1.243,1.44,2.123,2.52,1.446c1.58-0.989,2.223-2.231,2.388-4.066
					c0.11-1.226-1.521-2.143-2.52-1.446c-1.987,1.386-3.246,5.326,0.156,5.875c3.404,0.55,5.578-4.118,5.798-6.829
					c0.107-1.316-1.487-2.021-2.52-1.446c-2.484,1.383-6.064,9.21-2.43,10.928c4.263,2.015,6.292-6.944,5.639-9.61
					c-0.286-1.169-1.975-1.693-2.799-0.739c-1.457,1.686-5.943,10.488-1.368,11.088c1.664,0.218,3.076-1.641,3.92-2.805
					c0.824-1.137,1.418-2.391,1.91-3.702c0.346-0.921,0.922-4.763,1.742-5.217c-0.564,0-1.127,0-1.691,0
					c-0.717-0.502-10.008,15.292-2.998,14.407c2.239-0.283,3.44-2.997,4.086-4.835c0.589-1.673,1.273-7.964,3.179-8.539
					c-0.707-0.538-1.413-1.077-2.12-1.615c-0.268,3.563-5.386,9.029-3.923,12.796c1.8,4.637,6.391-2.361,6.949-4.214
					c0.766-2.544,0.816-5.228,1.222-7.837c0.132-0.847,0.916-4.025-0.684-2.524c-0.448,0.42-0.676,3.057-0.899,3.752
					c-0.495,1.544-0.965,3.098-1.479,4.636c-0.371,1.112-0.771,2.22-1.296,3.27c-0.295,0.59-1.332,2.107-1.247,2.147
					c-1.938-0.918-3.64,1.969-1.691,2.892c4.326,2.048,6.455-4.401,7.463-7.419c0.994-2.977,4.539-9.973,1.314-12.35
					c-4.796-3.535-5.119,8.623-5.478,10.568c-0.145,0.787-0.301,1.593-0.567,2.351c0.001-0.002-1.354,2.474-1.357,2.362
					c0.575,1.444,0.912,1.787,1.009,1.029c0.053-0.269,0.121-0.534,0.205-0.795c0.258-0.408,0.402-1.204,0.578-1.661
					c1.175-3.06,2.979-5.662,3.23-9.005c0.081-1.08-1.136-1.912-2.12-1.615c-1.957,0.59-2.847,2.351-3.518,4.154
					c-0.491,1.317-0.827,2.688-1.201,4.042c-0.356,1.285-1.296,2.933-1.462,4.188c-0.114,0.229-0.266,0.431-0.457,0.605
					c0.729,1.003,1.1,1.149,1.114,0.438c0.23-0.2,0.299-1.33,0.417-1.67c0.662-1.904,1.964-3.538,2.918-5.296
					c1.034-1.908,2.814-5.537,0.504-7.156c-0.488-0.342-1.197-0.273-1.691,0c-2.378,1.316-2.478,5.254-3.398,7.474
					c-0.372,0.898-1.194,1.775-1.479,2.664c-0.018,0.055-2.727,2.741,0.462,1.784c0.089-0.027,0.559-2.72,0.626-2.924
					c0.376-1.138,0.849-2.182,1.644-3.101c-0.933-0.246-1.866-0.493-2.799-0.739c0.199,0.814-0.128,1.839-0.327,2.619
					c-0.093,0.365-1.715,3.754-0.199,3.497c0.265-0.045,1.183-4.845,2.238-5.432c-0.84-0.482-1.68-0.964-2.52-1.446
					c-0.06,0.745-0.375,1.45-0.753,2.084c-0.14,0.284-0.323,0.54-0.547,0.766c-0.571,0.408-0.443,0.74,0.386,0.997
					c-0.84-0.482-1.68-0.964-2.52-1.446c-0.243,0.391-0.486,0.783-0.729,1.174c0.84,0.482,1.68,0.964,2.52,1.446
					c0.009-1.131,0.209-1.883,0.785-2.859c-1.02-0.43-2.041-0.86-3.061-1.291c-0.13,0.558-0.308,1.1-0.533,1.626
					C73.104,63.485,76.34,64.358,77.095,62.357L77.095,62.357z"/>
			</g>
		</g>
		<g>
			<g>
				<path fill="#FFFFFF" d="M73.286,67.133c-0.066,4.375,6.561,7.031,9.9,4.591c0.856-0.626,1.165-1.806,0.339-2.63
					c-1.217-1.215-2.883-2.029-4.319-2.948c-0.832-0.533-1.682-1.066-2.444-1.697c-0.299-0.247-0.559-0.585-0.868-0.81
					c-0.283-0.206-0.102-0.316-0.195,0.009c-0.687,0.39-1.373,0.78-2.06,1.17c0.115,0.05,0.231,0.099,0.346,0.149
					c1.896,1.025,3.59-1.866,1.691-2.892c-0.382-0.206-0.732-0.357-1.146-0.486c-0.869-0.272-1.819,0.322-2.06,1.17
					c-0.638,2.24,1.648,3.916,3.212,5.049c1.726,1.25,3.969,2.152,5.476,3.657c0.113-0.877,0.226-1.754,0.339-2.63
					c-1.254,0.916-4.888,0.204-4.86-1.698C76.668,64.977,73.319,64.976,73.286,67.133L73.286,67.133z"/>
			</g>
		</g>
		<g>
			<g>
				<path fill="#FFFFFF" d="M91.208,54.59c2.631,4.253-2.262,10.14-4.753,13.486c-0.953,1.281,0.615,2.716,1.891,2.46
					c2.415-0.483,3.883-2.168,5.035-4.277c1.416-2.592,1.006-7.383,3.239-9.193c-0.877-0.113-1.754-0.226-2.63-0.339
					c1.966,3.974-2.641,9.301-4.91,12.252c-0.801,1.042-1.631,2.06-2.39,3.133c-0.189,0.267-2.192,2.698-1.739,3.02
					c0.009,0.006,1.822-1.061,2.013-1.16c-0.677-0.877-1.353-1.754-2.03-2.63c-0.908,0.694-1.886,1.262-2.934,1.705
					c-1.689,0.812-0.493,3.735,1.291,3.061c2.352-0.889,4.341-2.073,6.424-3.485c-0.564-0.964-1.127-1.928-1.691-2.892
					c-2.103,1.488-4.834,3.038-6.181,5.319c-1.635,2.768-0.406,5.251-0.492,8.236c-0.053,1.852,2.923,2.325,3.29,0.445
					c0.252-1.292,0.395-2.567,0.474-3.883c-1.117,0-2.233,0-3.35,0c0.103,2.332,0.168,6.509,3.599,6.077
					c3.723-0.47,6.999-8.349,8.525-10.986c3.609-6.235,10.007-17.214,1.609-22.4c-0.282,1.04-0.564,2.081-0.845,3.121
					c1.736-0.038,4.104,2.035,5.013,3.418c1.944,2.956,0.367,7.432-1.086,10.22c-1.352,2.595-6.915,12.497-10.601,12.236
					c0.482,0.84,0.964,1.68,1.446,2.52c3.66-4.892,7.22-9.523,9.739-15.128c1.342-2.986,2.947-6.116,2.352-9.463
					c-0.289-1.626-2.898-1.57-3.23,0c0.066-0.02,0.133-0.04,0.199-0.06c-1.791,1.183-0.115,4.085,1.691,2.892
					c0.853-0.563,1.128-0.939,1.34-1.942c-1.077,0-2.153,0-3.23,0c0.577,3.249-2.39,8.05-3.871,10.805
					c-2.166,4.028-5.155,7.558-7.883,11.206c-0.826,1.104,0.321,2.44,1.446,2.52c3.17,0.224,5.446-2.651,7.211-4.914
					c3.13-4.012,6.677-8.273,8.005-13.275c0.864-3.253,1.17-6.845-0.904-9.659c-1.627-2.206-4.763-4.79-7.639-4.726
					c-1.671,0.037-2.266,2.244-0.845,3.121c5.218,3.222,1.088,10.669-1.043,14.645c-1.288,2.403-2.663,4.76-4.125,7.061
					c-0.705,1.109-1.448,2.87-2.483,3.723c-1.55,1.276-0.939,1.27-1.04-1.012c-0.096-2.161-3.22-2.149-3.35,0
					c-0.021,1.008-0.139,2.005-0.354,2.992c1.097,0.148,2.193,0.297,3.29,0.445c0.068-2.356-0.865-4.893,0.519-7.129
					c0.927-1.498,3.066-2.522,4.495-3.534c1.738-1.23,0.11-4.113-1.691-2.892c-1.846,1.251-3.493,2.342-5.624,3.148
					c0.43,1.02,0.86,2.041,1.291,3.061c1.401-0.674,2.469-1.193,3.612-2.229c1.459-1.322-0.398-3.481-2.03-2.63
					c-1.817,0.948-5.371,2.778-4.126,5.39c1.447,3.036,5.231,0.972,6.814-0.633c4.621-4.683,12.329-13.913,8.922-20.801
					c-0.522-1.055-1.857-0.966-2.63-0.339c-3.664,2.97-1.309,11.511-6.795,12.608c0.63,0.82,1.261,1.64,1.891,2.46
					c3.363-4.518,8.265-11.189,4.753-16.867C92.968,51.069,90.07,52.749,91.208,54.59L91.208,54.59z"/>
			</g>
		</g>
		<g>
			<g>
				<path fill="#FFFFFF" d="M91.979,67.921c-0.726,2.18-2.556,3.916-3.853,5.769c-1.685,2.409-3.325,4.849-5.018,7.253
					c0.964,0.564,1.928,1.127,2.892,1.691c1.721-2.73,2.864-5.859,5.249-8.11c-0.877-0.677-1.754-1.353-2.63-2.03
					c-1.308,2.418-3.907,3.82-5.957,5.549c0.79,0.79,1.579,1.579,2.369,2.369c0.305-0.346,0.557-0.667,0.8-1.059
					c1.139-1.837-1.758-3.521-2.892-1.691c-0.092,0.127-0.184,0.254-0.276,0.381c-1.435,1.633,0.725,3.755,2.369,2.369
					c2.306-1.945,5.004-3.498,6.481-6.227c0.906-1.674-1.231-3.35-2.63-2.03c-2.616,2.469-3.888,5.798-5.773,8.788
					c-1.165,1.849,1.669,3.428,2.892,1.691c1.856-2.637,3.611-5.355,5.513-7.958c1.388-1.899,2.939-3.594,3.695-5.864
					C95.891,66.762,92.658,65.883,91.979,67.921L91.979,67.921z"/>
			</g>
		</g>
		<g>
			<g>
				<path fill="#FFFFFF" d="M101.767,62.165c2.182,2.948-1.093,7.181-2.759,9.685c-2.157,3.242-4.533,6.317-6.317,9.792
					c-0.781,1.521,0.78,3.048,2.291,2.291c3.065-1.533,5.293-4.469,7.127-7.286c0.885-1.36,1.702-2.761,2.179-4.317
					c0.76-2.482,0.496-4.902,1.976-7.174c-0.63,0.257-1.261,0.513-1.891,0.77c0.468,0.083-2.795,7.579-3.126,8.109
					c-1.209,1.933-3.202,3.187-4.212,5.206c-0.699,1.397,0.446,2.677,1.891,2.46c2.495-0.374,4.248-2.676,5.645-4.595
					c1.942-2.667,1.745-6.158,3.608-8.669c-0.877,0.113-1.754,0.226-2.63,0.339c0.882,0.835-0.378,3.522-0.767,4.353
					c-0.204,0.435-0.589,0.894-0.726,1.348c-0.333,1.099-1.443,0.805-0.047,1.014c-2.109-0.315-3.018,2.912-0.89,3.23
					c4.554,0.681,7.832-9.442,4.799-12.314c-0.85-0.805-1.984-0.532-2.63,0.339c-2.427,3.272-1.894,10.921-7.251,11.725
					c0.63,0.82,1.261,1.64,1.891,2.46c0.967-1.934,3.029-3.337,4.212-5.206c1.145-1.809,2.065-3.875,2.699-5.917
					c0.624-2.012,1.402-6.583-1.574-7.112c-0.773-0.138-1.456,0.101-1.891,0.77c-1.953,2.995-1.484,6.603-3.087,9.736
					c-1.523,2.977-3.959,6.321-6.994,7.839c0.764,0.764,1.528,1.528,2.291,2.291c2.818-5.488,14.085-16.091,9.076-22.859
					C103.39,58.761,100.482,60.429,101.767,62.165L101.767,62.165z"/>
			</g>
		</g>
		<g>
			<g>
				<path fill="#FFFFFF" d="M64.733,71.984c-1.464,2.087-1.894,4.634-3.184,6.813c-0.692,1.169,0.221,2.413,1.446,2.52
					c4.308,0.378,8.478,1.379,12.747,1.899c2.133,0.26,4.037,0.24,4.684-2.105c0.597-2.165,1.198-5.877-0.24-7.832
					c-1.974-2.684-5.877-3.215-6.482-7.044c-0.221-1.395-2.468-1.65-3.061-0.4c-1.098,2.313-3.545,3.797-6.012,4.23
					c-1.708,0.3-1.476,2.792,0,3.23c-0.903-0.268-0.571,5.877-0.014,6.883c0.516,0.931,1.895,1.107,2.63,0.339
					c2.176-2.273,2.328-5.496,3.048-8.407c-1.077-0.297-2.153-0.594-3.23-0.89c-0.368,2.688-0.98,5.436-0.082,8.077
					c0.366,1.078,1.946,1.787,2.799,0.739c0.856-1.05,1.275-2.044,1.55-3.385c0.297-1.452,0.062-3.836,1.48-4.719
					c-0.82-0.334-1.64-0.667-2.46-1.001c1.101,2.651-0.625,5.821,0.077,8.665c0.369,1.493,2.282,1.525,3.061,0.4
					c1.381-1.994,1.499-4.429,2.281-6.668c-1.097-0.148-2.193-0.297-3.29-0.445c-0.131,2.402-0.674,4.729,0.045,7.083
					c0.407,1.332,2.349,1.703,3.061,0.4c0.804-1.471,0.956-3.18,1.791-4.617c-1.02-0.133-2.041-0.267-3.061-0.4
					c0.388,1.471,0.221,2.943,0.368,4.439c0.144,1.467,2.347,2.512,3.121,0.845c0.37-0.795,0.603-1.544,0.951-2.358
					c-1.02-0.133-2.041-0.267-3.061-0.4c0.159,0.643,0.601,1.606,0.202,2.203c-1.201,1.797,1.699,3.476,2.892,1.691
					c1.01-1.512,0.546-3.125,0.136-4.784c-0.319-1.288-2.48-1.761-3.061-0.4c-0.322,0.755-0.61,1.624-0.951,2.358
					c1.04,0.282,2.081,0.564,3.121,0.845c-0.177-1.807-0.02-3.557-0.488-5.329c-0.368-1.395-2.342-1.638-3.061-0.4
					c-0.849,1.462-0.987,3.146-1.791,4.617c1.02,0.133,2.041,0.267,3.061,0.4c-0.615-2.013-0.037-4.142,0.074-6.192
					c0.108-1.978-2.696-2.146-3.29-0.445c-0.676,1.937-0.755,4.152-1.943,5.867c1.02,0.133,2.041,0.267,3.061,0.4
					c-0.719-2.913,1.127-5.765-0.077-8.665c-0.396-0.954-1.446-1.632-2.46-1.001c-1.263,0.786-1.996,1.791-2.425,3.22
					c-0.5,1.664-0.139,4.004-1.283,5.408c0.933,0.246,1.866,0.493,2.799,0.739c-0.695-2.044-0.203-4.213,0.082-6.296
					c0.282-2.063-2.696-3.049-3.23-0.89c-0.541,2.185-0.554,5.223-2.186,6.929c0.877,0.113,1.754,0.226,2.63,0.339
					c-1.345-2.427,1.934-7.259-1.988-8.422c0,1.077,0,2.153,0,3.23c3.221-0.566,6.59-2.77,8.014-5.77
					c-1.02-0.133-2.041-0.267-3.061-0.4c0.341,2.155,1.664,3.828,3.248,5.26c0.83,0.751,1.76,1.363,2.608,2.086
					c1.565,1.333,1.357,2.169,1.078,4.266c-0.059,0.444-0.11,0.893-0.194,1.333c-0.145,0.757,0.538,0.001-0.054-0.087
					c-1.721-0.257-3.416-0.572-5.131-0.879c-2.987-0.536-6.012-0.871-9.034-1.136c0.482,0.84,0.964,1.68,1.446,2.52
					c1.287-2.176,1.729-4.74,3.184-6.813C68.866,71.906,65.963,70.23,64.733,71.984L64.733,71.984z"/>
			</g>
		</g>
		<g>
			<g>
				<path fill="#FFFFFF" d="M60.226,84.579c3.505-0.658,7.615,0.578,11.068,1.014c3.074,0.388,6.318,0.864,9.422,0.776
					c1.541-0.044,2.091-1.759,1.184-2.859c-0.033-0.04-0.067-0.081-0.1-0.121c-1.372-1.665-3.73,0.717-2.369,2.369
					c0.033,0.04,0.067,0.081,0.1,0.121c0.395-0.953,0.79-1.906,1.184-2.859c-7.013,0.199-14.435-2.974-21.381-1.671
					C57.22,81.746,58.116,84.975,60.226,84.579L60.226,84.579z"/>
			</g>
		</g>
		<g>
			<g>
				<path fill="#FFFFFF" d="M84.613,87.625c0.037,0.006,0.074,0.012,0.11,0.018c0.862,0.137,1.844-0.221,2.06-1.17
					c0.183-0.804-0.245-1.913-1.17-2.06c-0.037-0.006-0.074-0.012-0.11-0.018c-0.862-0.137-1.844,0.221-2.06,1.17
					C83.26,86.368,83.688,87.478,84.613,87.625L84.613,87.625z"/>
			</g>
		</g>
		<g>
			<g>
				<path fill="#FFFFFF" d="M64.55,45.965c0.912-0.082,1.819-0.098,2.581,0.079c0.88,0.205,1.814-0.273,2.06-1.17
					c0.233-0.847-0.285-1.855-1.17-2.06c-1.139-0.265-2.31-0.302-3.472-0.199c-0.901,0.08-1.675,0.712-1.675,1.675
					C62.875,45.134,63.643,46.046,64.55,45.965L64.55,45.965z"/>
			</g>
		</g>
		<g>
			<g>
				<path fill="#FFFFFF" d="M24.018-4.554c-1.403-0.509-2.726-1.074-4.201-0.506c-1.582,0.609-2.804,2.175-3.468,3.688
					c-1.237,2.817,0.038,5.724,2.938,6.728c2.326,0.805,5.292,0.325,7.01-1.517c1.831-1.963,1.599-4.717-0.29-6.525
					c-1.723-1.65-4.562-2.559-6.844-1.649C16.672-3.342,15.805-0.2,17.102,2.07c1.087,1.903,3.662,3.058,5.791,2.414
					c2.532-0.766,3.194-3.864,1.971-6.004c-1.457-2.551-6.246-4.285-7.204-0.284c-0.754,3.149,3.808,3.908,5.926,3.128
					c-0.543-0.933-1.086-1.866-1.63-2.799c-0.78,0.993-1.307,1.817-1.287,3.116c0.019,1.265,1.41,2.093,2.52,1.446
					c2.279-1.328,3.668-4.316,2.497-6.787c-0.482,0.84-0.964,1.68-1.446,2.52c0.569,0.041,0.724,0.24,0.515-0.298
					c0.538-0.707,1.077-1.413,1.615-2.12c-0.333-0.039-0.666-0.077-0.999-0.115c-2.138-0.245-2.121,3.107,0,3.35
					c0.333,0.038,0.666,0.076,0.999,0.115c1.023,0.118,1.982-1.175,1.615-2.12C27.287-4.166,26.011-4.4,24.24-4.529
					c-1.373-0.1-1.944,1.47-1.446,2.52c0.332,0.701-0.796,1.913-1.296,2.205c0.84,0.482,1.68,0.964,2.52,1.446
					c0.102-0.249,0.204-0.499,0.306-0.748c0.908-1.155,0.128-3.446-1.63-2.799c-0.554,0.204-1.02,0.049-1.583,0.116
					c-0.542,0.064-0.52-0.546-0.374,0.376c0.107,0.677,0.341,0.549,0.791,0.999c0.463,0.464,0.996,1.45,0.2,1.724
					c-1.742,0.598-3.043-3.351,0.181-2.538c0.811,0.205,2.299,0.896,2.348,1.89c0.061,1.224-1.711,1.702-2.62,1.718
					c-0.968,0.018-2.322-0.316-2.475-1.449c-0.108-0.799,0.859-2.337,1.56-2.696c0.781-0.399,1.612,0.153,2.404,0.441
					C25.158-0.588,26.032-3.824,24.018-4.554L24.018-4.554z"/>
			</g>
		</g>
		<g>
			<g>
				<path fill="#FFFFFF" d="M18.378-4.45c-1.107-0.092-2.495,0.341-3.288,1.139c-0.619,0.622-0.668,1.756,0,2.369
					c0.667,0.612,1.708,0.664,2.369,0c0.134-0.134-0.353,0.241,0.044-0.009c0.161-0.077,0.144-0.073-0.051,0.013
					c0.065-0.025,0.13-0.048,0.196-0.069c0.16-0.051,0.321-0.093,0.486-0.123c-0.396,0.072,0.143,0.021,0.243,0.029
					c0.875,0.073,1.713-0.822,1.675-1.675C20.009-3.745,19.316-4.373,18.378-4.45L18.378-4.45z"/>
			</g>
		</g>
		<g>
			<g>
				<path fill="#FFFFFF" d="M150.629,10.591c-2.406-2.366-5.417-0.765-6.878,1.799c-1.488,2.612-0.871,5.686,0.962,7.984
					c1.825,2.288,5.045,3.077,7.328,0.935c1.984-1.862,2.692-5.194,1.738-7.721c-0.971-2.574-3.994-4.146-6.608-3.125
					c-2.8,1.093-3.322,4.233-2.199,6.747c1.096,2.454,4.291,5.211,6.54,2.226c1.583-2.101,0.786-5.568-1.464-6.862
					c-3.371-1.94-5.364,2.597-3.099,4.993c1.021,1.079,2.739,1.098,3.755,0.003c1.161-1.252,0.771-2.861-0.2-4.063
					c-1.176-1.455-3.027,0.191-2.799,1.63c0.045,0.417,0.033,0.832-0.036,1.245c-0.225,2.141,3.126,2.126,3.35,0
					c0.079-0.752,0.034-1.392-0.083-2.135c-0.933,0.543-1.866,1.086-2.799,1.63c0.127,0.157,1.735-1.008,1.144-1.143
					c-0.959,0.274-1.227,0.55-0.804,0.829c0.102,0.065,0.181,0.152,0.236,0.261c0.053,0.414,0.289,0.695,0.238,1.188
					c-0.077,0.747-0.25,0.023-0.567-0.469c-0.317-0.493-0.638-1.114-0.663-1.707c-0.036-0.83,0.461-1.422,1.332-1.354
					c1.208,0.094,1.759,1.349,1.792,2.386c0.069,2.165-1.793,4.778-3.635,2.288c-0.66-0.892-1.223-2.262-0.89-3.369
					c0.196-0.651,1.214-2.539,1.942-1.823C149.799,14.473,152.169,12.106,150.629,10.591L150.629,10.591z"/>
			</g>
		</g>
		<g>
			<g>
				<path fill="#B0DAF4" d="M6.503,120.262c0.775-1.821,1.231-4.585-1.096-5.532c-2.723-1.109-4.396,2.241-5.088,4.27
					c-0.924,2.71-1.728,6.522-0.512,9.266c1.405,3.168,4.533,3.841,7.373,2.145c4.733-2.827,7.679-10.364,7.869-15.628
					c0.18-4.988-3.94-6.908-6.923-2.786c-2.123,2.934-6.707,11.297-4.461,14.977c2.952,4.838,7.698-3.878,8.623-5.981
					c0.691-1.569,5.197-13.996-0.748-12.142c-2.298,0.717-4.154,6.504-4.974,8.47c-1.124,2.696-3.604,8.563-1.381,11.415
					c5.019,6.437,9.901-13.363,10.249-15.473c0.365-2.216,1.281-6.601-1.883-7.3c-3.173-0.701-5.629,4.565-7.131,6.5
					c-0.924,1.19,0.741,2.879,1.675,1.675c1.051-1.354,1.982-3.268,3.233-4.384c3.154-2.813,1.973,2.032,1.637,3.922
					c-0.419,2.356-0.862,4.685-1.64,6.956c-0.423,1.235-0.932,3.4-1.988,4.325c-2.449,2.145-2.487-0.567-2.055-2.423
					c0.693-2.98,2.056-5.807,3.46-8.509c1.109-2.135,1.91-2.746,1.333,0.178c-0.65,3.295-2.119,8.105-4.633,10.478
					c-1.702,1.607-1.908,0.711-1.598-1.259c0.252-1.605,0.849-3.204,1.448-4.707c0.676-1.693,1.461-3.422,2.485-4.937
					c1.435-2.123,2.987-1.812,2.902,1.004c-0.102,3.365-1.743,7.508-3.534,10.324c-1.947,3.06-7.034,6.056-7.505,0.02
					c-0.105-1.351,0.216-2.77,0.557-4.074c0.114-0.48,0.249-0.954,0.405-1.422c0.264-2.079,0.881-2.267,1.853-0.563
					C3.867,120.453,5.907,121.662,6.503,120.262L6.503,120.262z"/>
			</g>
		</g>
		<g>
			<g>
				<path fill="#B0DAF4" d="M2.976,95.561c-2.345-4.247-7.772-3.81-9.457,0.851c-1.313,3.633-0.278,8.203,0.967,11.74
					c1.087,3.089,2.958,7.474,6.876,7.372c4.3-0.112,5.932-5.176,5.686-8.728c-0.296-4.255-2.35-9.657-6.127-12.005
					c-3.235-2.011-6.858-0.828-8.124,2.785c-1.505,4.296-0.438,19.375,6.406,18.775c5.424-0.475,3.703-7.196,2.561-10.544
					c-1.107-3.246-2.505-6.445-4.435-9.29c-1.882-2.773-8.158-7.321-6.229-10.988c-1.754,0.226-3.507,0.452-5.261,0.678
					c3.112,2.854,5.437,5.733,9.364,7.534c4.15,1.904,8.352,3.108,12.762,4.254c9.584,2.492,17.028,7.706,24.039,14.564
					c2.816,2.754,4.86,5.965,7.301,9.026c2.662,3.338,6.103,5.869,9.496,8.421c4.021,3.023,8.147,5.912,12.381,8.628
					c3.432,2.202,9.245,4.876,11.344,8.519c0.667-1.64,1.335-3.28,2.002-4.921c-9.032,1.553-18.411-2.079-26.615-5.501
					c-7.802-3.255-15.606-6.48-23.419-9.707c-8.74-3.61-15.647-8.126-21.548-15.589c-3.003-3.798-5.256-7.921-7.628-12.119
					c-1.083-1.918-2.384-3.707-3.464-5.625c-1.257-2.233-1.76-4.73-2.815-7.06c-1.22-2.695-5.442-1.81-6.122,0.8
					c-1.274,4.887,0.15,9.23,1.237,13.996c1.256,5.51,2.135,10.923,4.375,16.162c3.734,8.73,10.073,16.168,17.661,21.801
					c8.419,6.25,18.456,10.387,28.674,12.597c9.127,1.974,21.125,4.417,30.25,1.601c6.716-2.072,9.392-7.781,5.013-13.604
					c-4.54-6.039-12.082-9.701-18.324-13.616c-4.655-2.919-8.253-6.909-12.605-10.196c-5.436-4.107-11.229-7.768-16.775-11.727
					c-5.516-3.937-14.212-14.093-22.036-11.056c-11.858,4.603,4.856,27.584,8.622,33.46c2.317,3.616,8.094,0.285,5.785-3.381
					c-4.298-6.824-10.939-12.896-16.576-18.636c-2.426-2.471-6.318,0.087-5.599,3.259c1.221,5.387,3.552,10.475,5.819,15.494
					c1.741,3.853,3.813,7.827,7.568,10.037c1.915,1.127,4.284,0.046,4.921-2.002c1.281-4.121-1.529-7.928-3.957-11.002
					c-3.779-4.785-7.529-9.592-11.28-14.403c-2.03-2.603-6.78,0.223-5.599,3.259c6.284,16.154,17.705,29.801,33.798,36.678
					c9.35,3.995,26.672,13.657,35.146,3.303c1.43-1.748,1.245-5.111-1.478-5.599c-8.847-1.583-17.598-3.472-26.176-6.176
					c-4.302-1.356-8.45-2.951-12.472-5.006c-2.333-1.192-8.613-3.517-9.604-6.242c-1.077,1.413-2.153,2.827-3.23,4.24
					c3.401-0.385,7.889,3.27,10.706,4.98c3.208,1.948,6.377,3.958,9.56,5.947c5.604,3.502,11.193,6.531,17.896,7.006
					c2.901,0.205,4.414-3.805,2.369-5.718c-5.403-5.054-12.491-9.269-18.636-13.36c-5.295-3.525-13.309-5.475-17.289-10.54
					c-0.79,1.906-1.579,3.812-2.369,5.718c3.566,0.15,7.343,3.382,10.28,5.213c2.667,1.663,5.344,3.323,8.222,4.596
					c6.414,2.837,13.4,4.104,20.292,5.142c3.013,0.454,5.967-3.088,3.259-5.599c-6.244-5.79-13.51-10.142-20.551-14.863
					c-4.092-2.743-7.945-5.782-11.793-8.855c-3.101-2.477-8.468-5.449-10.346-8.981c-1.261,1.64-2.522,3.28-3.783,4.921
					c3.952,1.211,7.67,6.57,10.438,9.43c2.865,2.961,5.749,5.906,8.742,8.738c5.359,5.07,11.129,9.387,18.607,10.352
					c3.008,0.388,4.243-3.844,2.369-5.718c-5.182-5.182-11.546-8.77-18.102-11.929c-6.826-3.289-13.803-6.631-21.17-8.499
					c-3.092-0.784-5.85,3.286-3.259,5.599c6.797,6.066,14.025,11.835,23.38,12.788c2.852,0.29,4.474-3.891,2.369-5.718
					c-5.094-4.422-12.778-6.619-16.07-12.791c-1.261,1.64-2.522,3.28-3.783,4.921c0.275,0.066,0.55,0.132,0.825,0.198
					c3.854,1.899,7.253-3.877,3.381-5.785c-0.848-0.418-1.493-0.712-2.425-0.873c-2.852-0.491-5.237,2.195-3.783,4.921
					c3.782,7.09,11.379,9.165,17.117,14.147c0.79-1.906,1.579-3.812,2.369-5.718c-7.345-0.748-13.364-6.114-18.643-10.826
					c-1.086,1.866-2.173,3.732-3.259,5.599c6.832,1.732,13.238,4.778,19.57,7.824c6.041,2.906,11.968,6.103,16.746,10.881
					c0.79-1.906,1.579-3.812,2.369-5.718c-7.895-1.019-14.299-8.647-19.563-13.987c-4.653-4.721-9.851-12.273-16.443-14.293
					c-2.909-0.892-5.104,2.436-3.783,4.921c2.028,3.815,5.963,5.961,9.24,8.608c3.72,3.005,7.431,6.063,11.304,8.869
					c7.709,5.585,16.175,10.071,23.192,16.578c1.086-1.866,2.173-3.732,3.259-5.599c-7.722-1.162-15.629-2.553-22.521-6.406
					c-5.688-3.18-11.282-8.499-18.054-8.784c-3.203-0.135-4.016,3.621-2.369,5.718c3.902,4.967,10.397,6.47,15.594,9.62
					c3.596,2.18,7.005,4.674,10.413,7.134c3.254,2.349,6.989,4.406,9.918,7.146c0.79-1.906,1.579-3.812,2.369-5.718
					c-7.493-0.531-13.985-5.794-20.153-9.62c-4.94-3.064-11.823-9.012-18.009-8.312c-1.969,0.223-4.05,1.987-3.23,4.24
					c2.622,7.208,13.51,10.963,19.989,13.566c10.524,4.228,21.816,6.547,32.941,8.538c-0.493-1.866-0.985-3.732-1.478-5.599
					c-5.99,7.319-22-2.157-28.578-5.007c-13.718-5.945-23.809-18.243-29.168-32.018c-1.866,1.086-3.732,2.173-5.599,3.259
					c2.958,3.794,5.796,7.693,8.827,11.43c1.272,1.568,5.372,5.254,4.687,7.457c1.64-0.667,3.28-1.335,4.921-2.002
					c-2.938-1.729-4.353-5.768-5.653-8.748c-1.824-4.181-3.643-8.315-4.655-12.779c-1.866,1.086-3.732,2.173-5.599,3.259
					c5.172,5.267,11.598,11.041,15.528,17.28c1.928-1.127,3.856-2.254,5.785-3.381c-2.429-3.79-4.871-7.573-7.006-11.54
					c-1.636-3.041-5.366-8.677-4.629-12.331c0.161-0.8-0.881,0.342-0.089,0.016c1.499-0.617,4.259,1.673,5.437,2.531
					c3.051,2.223,5.878,4.734,8.947,6.948c7.949,5.732,16.166,10.917,23.455,17.481c5.199,4.682,11.498,7.74,17.237,11.674
					c2.02,1.384,4.044,2.869,5.712,4.674c2.644,2.86,1.844,3.72-1.967,4.59c-7.631,1.742-17.755-0.366-25.245-1.984
					c-7.989-1.726-15.749-4.629-22.704-8.95c-7.417-4.608-13.687-10.89-17.829-18.616c-2.269-4.233-3.58-8.788-4.541-13.472
					c-0.964-4.697-3.426-10.553-2.194-15.278c-2.041,0.267-4.082,0.533-6.122,0.8c1.067,2.358,1.537,4.771,2.815,7.06
					c1.348,2.413,2.921,4.684,4.249,7.114c2.508,4.59,5.316,8.871,8.633,12.922c6.137,7.494,13.509,12.079,22.379,15.802
					c8.727,3.663,17.484,7.33,26.258,10.88c9.13,3.694,18.818,6.605,28.72,4.902c2.18-0.375,2.993-3.201,2.002-4.921
					c-1.745-3.028-4.5-4.639-7.3-6.565c-4.342-2.988-8.801-5.803-13.107-8.844c-4.086-2.887-8.509-5.724-12.003-9.329
					c-2.997-3.092-5.017-6.99-8.025-10.094c-5.824-6.011-12.632-11.65-20.408-14.899c-4.543-1.898-9.353-2.637-14.006-4.157
					c-2.434-0.795-5.177-1.726-7.347-3.121c-2.13-1.37-3.682-3.59-5.538-5.293c-1.519-1.393-4.215-1.31-5.261,0.678
					c-3.99,7.586,2.295,12.064,6.229,17.751c1.967,2.843,2.432,6.698,4.308,9.38c0.189,0.635,0.348,1.277,0.476,1.927
					c3.456,0.473,4.715-0.228,3.777-2.104c0.042-0.647-0.438-1.689-0.571-2.357c-0.258-1.296,0.166-5.932-0.461-6.705
					c0.363-1.032-0.238-0.918-1.804,0.341c0.566,0.407,1.012,0.923,1.339,1.547c0.875,1.301,1.513,3.092,1.702,4.652
					c0.136,0.747,0.13,1.491-0.018,2.232c1.794,0.582,2.261,0.358,1.401-0.671c0.111-0.67-1.086-2.763-1.303-3.517
					c-0.43-1.493-1.474-5.341-0.137-5.951c-0.86,0.113-1.721,0.225-2.581,0.338c-0.16-0.023-0.32-0.046-0.48-0.069
					C-0.724,102.717,5.064,99.341,2.976,95.561L2.976,95.561z"/>
			</g>
		</g>
		<g>
			<g>
				<path fill="#B0DAF4" d="M11.818,108.576c6.231,5.24,12.409,10.568,19.009,15.346c3.349,2.425,6.93,4.226,10.391,6.428
					c2.451,1.559,3.289,3.972,5.394,5.99c3.736,3.582,9.278,5.395,14.194,6.626c3.15,0.789,8.679,2.728,11.33-0.033
					c2.986-3.111-1.744-7.855-4.737-4.737c1.234-1.286,0.781-0.38-0.894-0.855c-0.832-0.236-1.721-0.341-2.566-0.526
					c-1.74-0.382-3.412-0.844-5.099-1.423c-2.557-0.877-5.26-1.811-7.3-3.648c-1.672-1.505-2.079-3.615-3.618-5.152
					c-1.669-1.669-4.316-2.446-6.337-3.58c-3.09-1.735-5.993-3.83-8.833-5.944c-5.591-4.163-10.863-8.743-16.195-13.227
					C13.275,101.081,8.513,105.796,11.818,108.576L11.818,108.576z"/>
			</g>
		</g>
		<g>
			<g>
				<path fill="#B0DAF4" d="M73.562,147.685c3.114-1.106,6.455,0.635,9.549,1.204c3.727,0.686,7.609,1.043,11.388,1.209
					c4.399,0.193,4.17-6.207,0-6.699c-5.68-0.67-11.496,0.198-17.146,0.886c-4.016,0.489-8.586,1.144-11.379,4.374
					c-1.697,1.962-0.997,4.747,1.478,5.599c6.66,2.291,15.713,0.987,22.533-0.034c3.988-0.597,2.583-6.263-0.89-6.58
					c-3.729-0.34-7.299,0.582-10.948,1.23c-3.481,0.619-6.831,0.869-10.034,2.472c-2.14,1.071-2.236,4.743,0,5.785
					c10.506,4.893,21.457,4.563,32.501,1.692c5.606-1.457,11.052-3.453,16.523-5.338c4.748-1.636,9.629-2.717,14.369-4.203
					c1.866-0.585,2.639-2.274,2.34-4.12c-0.019-0.119-0.039-0.238-0.058-0.357c-0.688-4.245-7.145-2.444-6.46,1.781
					c0.019,0.119,0.039,0.238,0.058,0.357c0.78-1.374,1.56-2.747,2.34-4.12c-8.575,2.688-17.261,5.422-25.885,8.098
					c-10.647,3.303-21.843,5.318-32.345,0.427c0,1.928,0,3.856,0,5.785c2.558-1.28,5.66-1.304,8.434-1.797
					c3.078-0.547,6.019-1.278,9.167-0.991c-0.297-2.193-0.594-4.386-0.89-6.58c-5.563,0.833-13.573,1.891-18.971,0.034
					c0.493,1.866,0.985,3.732,1.478,5.599c2.193-2.535,6.897-2.44,9.984-2.766c4.611-0.487,9.171-1.079,13.804-0.532
					c0-2.233,0-4.466,0-6.699c-4.485-0.197-8.866-0.809-13.226-1.852c-3.147-0.753-6.356-1.435-9.493-0.321
					C67.747,142.658,69.485,149.133,73.562,147.685L73.562,147.685z"/>
			</g>
		</g>
		<g>
			<g>
				<path fill="#B0DAF4" d="M31.73,99.153c-3.019-1.643-5.967-3.841-9.538-3.937c-4.313-0.115-4.31,6.584,0,6.699
					c0.33,0.009,0.523,0.051,1.144,0.286c0.553,0.209,1.083,0.498,1.605,0.782c1.151,0.626,2.258,1.328,3.408,1.954
					C32.136,106.999,35.522,101.217,31.73,99.153L31.73,99.153z"/>
			</g>
		</g>
		<g>
			<g>
				<path fill="#B0DAF4" d="M29.784,105.616c15.587,9.467,31.794,17.834,48.317,25.537c7.671,3.576,15.426,6.567,23.375,9.456
					c3.891,1.414,7.628,3.166,11.48,4.668c3.998,1.559,8.674,1.87,12.479,3.744c-0.226-1.754-0.452-3.507-0.678-5.261
					c0.617-0.293,1.233-0.586,1.85-0.879c-4.304-0.286-4.286,6.414,0,6.699c1.161,0.077,2.042-0.333,2.887-1.084
					c1.541-1.368,1.194-4.339-0.678-5.261c-3.253-1.602-6.762-1.978-10.197-3.05c-4.085-1.274-7.911-3.182-11.887-4.74
					c-8.485-3.323-16.974-6.22-25.251-10.078c-16.524-7.703-32.73-16.07-48.317-25.537C29.47,97.588,26.1,103.379,29.784,105.616
					L29.784,105.616z"/>
			</g>
		</g>
		<g>
			<g>
				<path fill="#B0DAF4" d="M120.05,146.968c-2.536,3.535-9.26,4.736-13.279,5.166c-7.756,0.83-15.676,1.12-23.467,1.554
					c-4.287,0.239-4.315,6.94,0,6.699c8.96-0.499,18.468-0.411,27.292-2.082c5.576-1.056,11.812-3.18,15.238-7.956
					C128.352,146.84,122.543,143.491,120.05,146.968L120.05,146.968z"/>
			</g>
		</g>
		<g>
			<g>
				<path fill="#B0DAF4" d="M15.981,143.8c3.554,9.817,17.682,10.578,26.229,12.957c8.354,2.326,16.915,3.44,25.559,3.965
					c7.324,0.445,14.723,1.723,21.666-1.263c3.949-1.698,0.541-7.471-3.381-5.785c-5.628,2.421-13.248,0.682-19.172,0.294
					c-7.141-0.467-14.272-1.325-21.195-3.193c-4.026-1.086-8.088-1.982-12.121-3.037c-3.251-0.85-9.803-2.065-11.126-5.72
					C20.984,137.996,14.508,139.732,15.981,143.8L15.981,143.8z"/>
			</g>
		</g>
		<g>
			<g>
				<path fill="#B0DAF4" d="M33.461,112.873c10.78,4.11,21.247,8.272,31.189,14.179c9.534,5.664,19.602,9.232,29.721,13.639
					c3.823,1.665,7.428,3.603,11.089,5.58c0.266,0.144,1.758,1.204,1.988,1.123c1.253-1.854,1.456-2.489,0.608-1.903
					c-0.178,0.117-0.363,0.22-0.556,0.311c-0.982,0.029-2.415,0.937-3.419,1.226c-4.407,1.267-11.366,3.328-15.943,2.029
					c0.667,1.64,1.335,3.28,2.002,4.921c0.937-1.949,4.135-2.311,5.973-3.063c3.181-1.303,6.32-2.818,9.387-4.369
					c2.899-1.466,1.606-6.498-1.691-6.242c-3.788,0.294-7.526,0.593-11.011,2.204c-1.548,0.716-2.174,3.208-1.202,4.583
					c4.891,6.915,18.194,4.552,24.974,2.067c2.951-1.082,3.404-5.564,0-6.46c-3.002-0.79-5.82-0.256-8.87-0.52
					c-3.521-0.305-6.954-1.617-10.182-3.01c-5.529-2.386-10.716-5.494-16.199-7.982c-5.454-2.475-11.475-3.582-16.723-6.435
					c-5.183-2.817-10.286-5.647-15.544-8.333c-3.835-1.959-7.035,3.458-3.381,5.785c3.797,2.418,7.31,5.232,11.044,7.742
					c4.05,2.723,8.421,4.679,12.834,6.73c8.506,3.954,16.492,8.414,25.482,11.284c0.594-2.153,1.187-4.307,1.781-6.46
					c-6.075-0.978-11.313-3.873-16.991-6.057c-4.074-1.566-9.17-2.174-12.461-5.243c-0.79,1.906-1.579,3.812-2.369,5.718
					c0.334,0.04,0.669,0.08,1.003,0.12c4.272,0.512,4.235-6.192,0-6.699c-0.334-0.04-0.669-0.08-1.003-0.12
					c-2.933-0.351-4.352,3.868-2.369,5.718c3.708,3.458,8.592,4.6,13.259,6.209c6.456,2.226,12.323,5.715,19.149,6.814
					c4.184,0.673,5.974-5.122,1.781-6.46c-8.967-2.862-16.934-7.419-25.435-11.321c-8.16-3.746-14.81-8.975-22.324-13.759
					c-1.127,1.928-2.254,3.856-3.381,5.785c5.481,2.799,10.79,5.826,16.225,8.695c5.572,2.942,11.825,4.083,17.531,6.765
					c5.452,2.562,10.66,5.615,16.226,7.939c2.909,1.214,5.89,2.353,8.997,2.938c3.334,0.627,6.905-0.233,10.139,0.618
					c0-2.153,0-4.307,0-6.46c-2.722,0.998-5.666,1.502-8.543,1.769c-1.771,0.164-7.6,1.033-8.866-0.757
					c-0.401,1.528-0.801,3.055-1.202,4.583c2.319-1.072,5.127-1.096,7.63-1.29c-0.564-2.081-1.127-4.161-1.691-6.242
					c-3.853,1.948-7.788,3.567-11.779,5.186c-2.433,0.987-4.802,2.19-5.984,4.65c-0.931,1.937-0.209,4.293,2.002,4.921
					c6.128,1.739,14.969-0.499,20.816-2.428c6.86-2.264,10.24-7.67,2.679-12.055c-11.171-6.478-23.682-9.787-35.018-15.846
					c-6.207-3.317-12.025-7.268-18.421-10.241c-6.902-3.209-14.064-5.824-21.171-8.533C31.21,104.876,29.466,111.35,33.461,112.873
					L33.461,112.873z"/>
			</g>
		</g>
		<g>
			<g>
				<path fill="#B0DAF4" d="M141.867,113.357c-5.195-2.103-15.778,5.536-11.937,11.37c3.76,5.71,11.605-4.01,12.637-7.658
					c0.744-2.631-0.179-5.214-2.918-6.098c-1.566-0.506-6.264-0.535-7.698,0.103c0.086,0.286,0.172,0.571,0.259,0.857
					c0.468-0.218,0.952-0.389,1.452-0.513c0.823-0.066,1.682-0.418,2.511-0.557c2.076-0.349,4.193-0.434,6.281-0.696
					c5.003-0.627,11.017-1.143,14.981-4.531c-1.754-1.353-3.507-2.706-5.261-4.059c-3.055,5.262-4.299,11.107-6.612,16.674
					c-2.533,6.095-7.193,10.982-10.395,16.71c-1.128,2.018-0.029,4.166,2.002,4.921c5.826,2.165,9.601-7.506,11.305-11.257
					c2.695-5.933,4.323-13.479,8.22-18.746c-2.081-0.564-4.161-1.127-6.242-1.691c-0.387,6.783-4.736,14.41-8.911,19.545
					c-2.697,3.317,2.015,8.085,4.737,4.737c5.366-6.6,10.376-15.584,10.873-24.282c0.208-3.647-4.454-4.107-6.242-1.691
					c-2.888,3.903-4.267,9.395-6.107,13.836c-1.232,2.974-2.492,5.953-3.988,8.806c-0.612,1.167-1.486,2.28-2.037,3.465
					c-0.777,1.67-1.313,0.265,0.172,0.817c0.667,1.64,1.335,3.28,2.002,4.921c3.151-5.636,7.644-10.454,10.284-16.379
					c2.493-5.596,3.627-11.67,6.724-17.005c1.988-3.425-2.449-6.462-5.261-4.059c-4.971,4.247-29.101-0.085-27.332,11.512
					c0.643,4.216,4.607,5.484,8.316,5.385c0.781-0.021,1.967,0.009,2.695-0.268c0.444-0.05,0.89-0.08,1.337-0.089
					c-0.762-2.361-1.391-2.911-1.886-1.649c-0.978,0.367-2.932,3.904-3.006,3.899c0.964,0.553,1.928,1.106,2.892,1.659
					c0.993,1.413,0.209,0.282,1.666-0.468c0.923-0.475,1.42-1.582,2.705-1.061C144.081,121.434,145.818,114.956,141.867,113.357
					L141.867,113.357z"/>
			</g>
		</g>
		<g>
			<g>
				<path fill="#B0DAF4" d="M65.027,109.928c6.459,1.931,12.429,5.555,18.708,8.036c7.502,2.964,15.027,5.688,22.364,9.067
					c6.049,2.786,12.012,6.005,18.365,8.058c1.98,0.64,3.853,0.92,5.901,1.215c1.029,0.148,2.064,0.365,3.096,0.473
					c1.508,0.158,2.024,1.197,0.987-0.102c2.688,3.37,7.4-1.398,4.737-4.737c-1.985-2.489-7.397-1.971-10.182-2.545
					c-7.126-1.469-13.788-5.526-20.354-8.53c-7.021-3.212-14.194-5.905-21.392-8.682c-6.885-2.656-13.377-6.598-20.45-8.713
					C62.669,102.23,60.9,108.694,65.027,109.928L65.027,109.928z"/>
			</g>
		</g>
		<g>
			<g>
				<path fill="#B0DAF4" d="M75.9,112.604c10.286,0.433,20.561,1.174,30.856,1.379c5.137,0.102,10.279,0.073,15.41-0.207
					c4.353-0.238,8.756-1.12,13.106-1.105c4.311,0.015,4.317-6.685,0-6.699c-4.355-0.015-8.747,0.867-13.106,1.105
					c-5.131,0.28-10.273,0.309-15.41,0.207c-10.294-0.205-20.57-0.947-30.856-1.379C71.589,105.723,71.598,112.423,75.9,112.604
					L75.9,112.604z"/>
			</g>
		</g>
		<g>
			<g>
				<path fill="#B0DAF4" d="M87.663,116.707c18.901,4.566,37.562-0.873,56.016-4.941c-1.261-1.64-2.522-3.28-3.783-4.921
					c-2.056,4.003-10.698,4.27-14.67,5.03c-7.509,1.438-15.378,1.35-22.689,3.707c-2.472,0.797-3.61,4.867-0.8,6.122
					c5.335,2.383,10.965,3.157,16.792,2.747c7.263-0.511,14.08-3.474,21.348-3.8c-0.564-2.081-1.127-4.161-1.691-6.242
					c-4.002,1.996-8.354,2.646-12.721,3.372c-3.023,0.502-6.999,0.751-9.701,2.366c-6.242,3.732,0.533,7.736,4.356,8.852
					c4.506,1.315,13.582,4.892,17.635,1.144c1.995-1.845,3.309-4.83,4.829-7.043c1.222-1.778,2.349-3.58,3.27-5.535
					c0.676-1.436,1.313-4.453,2.746-5.297c-1.68-0.964-3.36-1.928-5.04-2.892c0.201,3.116-2.146,5.975-3.391,8.701
					c-1.282,2.808-2.189,5.726-3.077,8.677c-1.019,3.385,3.207,5.354,5.599,3.259c4.204-3.682,4.954-9.082,7.822-13.634
					c1.894-3.007-1.752-5.998-4.583-4.583c-0.466,0.249-0.943,0.475-1.432,0.676c-3.94,1.726-0.534,7.5,3.381,5.785
					c0.489-0.201,0.966-0.426,1.432-0.676c-1.528-1.528-3.055-3.055-4.583-4.583c-2.49,3.953-3.174,9.125-6.774,12.278
					c1.866,1.086,3.732,2.173,5.599,3.259c1.114-3.702,2.368-7.187,4.184-10.608c1.45-2.73,2.726-5.395,2.522-8.552
					c-0.16-2.477-2.739-4.248-5.04-2.892c-2.272,1.338-3.208,2.913-4.204,5.285c-1.444,3.439-3.129,6.194-5.188,9.268
					c-1.836,2.743-2.528,4.146-6.1,3.306c-2.823-0.664-8.552-0.799-10.672-2.778c0.287,1.086,0.574,2.173,0.861,3.259
					c-0.322,1.773,2.872,0.192,4.245-0.065c2.061-0.386,4.142-0.659,6.206-1.031c3.931-0.709,7.619-1.747,11.2-3.533
					c2.968-1.481,1.56-6.388-1.691-6.242c-11.649,0.523-23.236,7.115-34.759,1.968c-0.267,2.041-0.533,4.082-0.8,6.122
					c8.047-2.594,16.994-2.658,25.322-4.162c5.417-0.978,13.237-2.195,16.041-7.654c1.36-2.648-0.874-5.562-3.783-4.921
					c-17.197,3.791-34.824,9.201-52.454,4.941C85.255,109.235,83.468,115.693,87.663,116.707L87.663,116.707z"/>
			</g>
		</g>
		<g>
			<g>
				<path fill="#B0DAF4" d="M67.282,105.475c-3.549,0.714-6.787-2.466-10.215-3.026c-2.109-0.344-3.016,2.883-0.89,3.23
					c4.277,0.699,7.421,3.947,11.996,3.026C70.284,108.28,69.391,105.051,67.282,105.475L67.282,105.475z"/>
			</g>
		</g>
		<g>
			<g>
				<path fill="#FFC214" d="M151.926,138.654c-4.08-3.642-8.238,2.059-10.815,4.836c1.228,0.947,2.455,1.894,3.683,2.841
					c0.874-1.542,1.7-2.849,2.894-4.197c-1.105-1.105-2.211-2.211-3.316-3.316c-3.474,4.367-11.31,6.552-8.731,13.67
					c2.184,6.029,10.28,5.412,15.291,3.937c5.909-1.739,9.259-6.757,10.185-12.644c0.575-3.656,0.381-7.316-0.405-10.922
					c-0.557-2.554-1.266-5.011-1.254-7.647c0.011-2.404,0.315-4.578-0.129-6.972c-0.477-2.568-4.874-2.016-4.606,0.623
					c0.495,4.881,2.672,9.856,1.937,14.787c-0.44,2.952,4.078,4.226,4.522,1.247c0.837-5.612-1.209-10.511-1.77-16.034
					c-1.535,0.208-3.071,0.416-4.606,0.623c0.541,2.91-0.227,5.887,0.146,8.825c0.282,2.223,0.997,4.343,1.407,6.539
					c0.801,4.288,0.827,9.966-1.853,13.67c-2.143,2.962-8.561,5.558-12.212,3.982c-6.565-2.833,3.449-7.925,5.393-10.368
					c1.836-2.308-1.279-5.617-3.316-3.316c-1.419,1.603-2.571,3.284-3.627,5.146c-1.285,2.266,1.829,4.84,3.683,2.841
					c0.73-0.787,1.413-1.617,2.155-2.392c0.666-0.697,2.624-1.912,2.028-2.443C150.856,143.974,154.184,140.668,151.926,138.654
					L151.926,138.654z"/>
			</g>
		</g>
		<g>
			<g>
				<path fill="#FFC214" d="M154.159,120.78c-2.227,4.592-4.774,9.011-7.498,13.326c-1.92,3.041-3.75,5.798-4.188,9.432
					c-0.235,1.949,2.119,2.674,3.528,2.025c5.721-2.636,7.12-9.095,10.839-13.627c-1.334-0.553-2.669-1.105-4.003-1.658
					c0.081,5.895-5.677,11.104-8.634,15.787c-1.616,2.559,2.44,4.915,4.049,2.367c3.549-5.62,9.372-11.041,9.274-18.154
					c-0.026-1.873-2.655-3.301-4.003-1.658c-3.295,4.016-4.943,10.615-9.89,12.894c1.176,0.675,2.352,1.35,3.528,2.025
					c0.414-3.43,3.346-6.696,5.102-9.587c2.138-3.52,4.147-7.097,5.944-10.804C159.519,120.442,155.477,118.062,154.159,120.78
					L154.159,120.78z"/>
			</g>
		</g>
		<g>
			<g>
				<path fill="#FFC214" d="M153.24,135.383c-0.332,2.931-0.289,6.217-1.21,9.043c-0.722,2.216-2.128,4.126-2.83,6.368
					c-0.803,2.563,2.948,4.074,4.286,1.807c1.614-2.737,2.896-5.644,3.584-8.752c0.502-2.269-2.18-3.938-3.919-2.281
					c-3.244,3.089-6.729,5.746-9.222,9.528c-1.683,2.552,2.317,4.78,4.049,2.367c1.75-2.438,8.927-9.646,2.643-11.516
					c-4.632-1.379-8.238,5.872-8.919,9.473c-0.287,1.517,0.645,2.918,2.261,2.968c4.306,0.135,10.417-7.247,5.52-10.449
					c-4.138-2.705-11.992,2.174-10.476,7.224c1.44,4.797,9.058,2.738,8.494-2.016c-0.763-6.427-9.768-3.659-10.435,1.497
					c-0.123,0.951,0.811,2.073,1.721,2.261c-0.411-0.657-0.415-0.677-0.012-0.061c1.669,2.497,5.733,0.152,4.049-2.367
					c-0.786-1.176-1.346-1.796-2.791-2.094c0.574,0.754,1.148,1.507,1.721,2.261c0.032-0.246,0.875-0.553,1.066-0.58
					c0.001,0,0.145-0.848,0.106-0.823c0.094-0.059,0.538,0.288,0.885,0.096c0.547-0.303,1.116-0.713,1.65-1.044
					c0.039-0.024,1.406-0.753,1.096-0.703c0.054-0.434,0.005-0.453-0.148-0.057c-0.095,0.222-0.227,0.42-0.396,0.593
					c-0.508,0.499-1.248,1.598-2.049,1.573c0.754,0.989,1.507,1.979,2.261,2.968c0.213-1.126,0.73-2.201,1.261-3.207
					c0.311-0.59,0.651-1.225,1.05-1.762c0.782-1.052,1.443-0.899,0.553-2.036c-0.945-1.207-0.822-0.296-1.462,0.688
					c-0.406,0.625-0.879,1.208-1.341,1.791c-0.783,0.987-1.62,1.931-2.355,2.956c1.35,0.789,2.7,1.578,4.049,2.367
					c2.246-3.406,5.567-5.797,8.489-8.579c-1.306-0.76-2.613-1.521-3.919-2.281c-0.608,2.746-1.686,5.215-3.111,7.632
					c1.429,0.602,2.857,1.205,4.286,1.807c0.807-2.573,2.46-4.728,3.081-7.383c0.703-3.005,0.78-6.217,1.127-9.275
					C158.269,132.389,153.576,132.413,153.24,135.383L153.24,135.383z"/>
			</g>
		</g>
		<g>
			<g>
				<path fill="#FFC214" d="M-18.076,63.231c0.685,1.802,1.423,2.967,2.923,4.181c1.626,1.316,4.79,0.157,3.919-2.281
					c-0.168-0.47-0.336-0.94-0.504-1.41c-1.429,0.602-2.857,1.205-4.286,1.807c0.853,1.242,1.758,2.432,2.68,3.622
					c1.406,1.815,4.784-0.162,3.919-2.281c-0.853-2.089-1.823-3.957-3.14-5.799c-1.726-2.414-5.722-0.197-4.049,2.367
					c1.86,2.851,3.897,5.566,5.912,8.308c0.883-1.148,1.765-2.296,2.648-3.444c-0.946-0.744-1.893-1.488-2.839-2.232
					c-0.76,1.306-1.521,2.613-2.281,3.919c3.531,1.216,5.838,4.411,8.647,6.69c2.345,1.902,4.978,3.266,7.63,4.676
					c6.738,3.584,13.012,7.983,19.577,11.872c13.154,7.793,26.627,15.033,39.818,22.761c12.513,7.332,27.43,9.545,39.889,17.099
					c6.336,3.842,12.039,5.813,19.261,7.431c3.093,0.693,6.143,1.315,9.279,1.786c1.998,0.301,4.517,0.367,6.158,1.623
					c2.396,1.833,4.734-2.238,2.367-4.049c-3.716-2.843-10.46-2.482-14.935-3.517c-3.569-0.826-7.249-1.37-10.725-2.551
					c-3.819-1.297-7.017-3.628-10.463-5.642c-12.795-7.477-28.015-9.743-40.624-17.546c-13.082-8.096-26.873-14.89-40.027-22.865
					C15.908,83.65,9.176,79.586,2.326,75.63c-5.101-2.945-8.591-8.216-14.252-10.166c-2.34-0.806-3.76,2.302-2.281,3.919
					c1.496,1.637,2.882,2.586,4.909,3.438c1.839,0.773,3.809-1.865,2.648-3.444c-2.015-2.742-4.052-5.456-5.912-8.308
					c-1.35,0.789-2.7,1.578-4.049,2.367c1.083,1.514,1.953,2.93,2.667,4.679c1.306-0.76,2.613-1.521,3.919-2.281
					c-0.691-0.861-1.34-1.752-1.947-2.673c-1.406-2.048-5.237-0.857-4.286,1.807c0.168,0.47,0.336,0.94,0.504,1.41
					c1.306-0.76,2.613-1.521,3.919-2.281c-0.572-0.704-1.145-1.408-1.717-2.112C-14.616,59.191-19.151,60.403-18.076,63.231
					L-18.076,63.231z"/>
			</g>
		</g>
		<g>
			<g>
				<path fill="#FFC214" d="M58.994,111.574c11.357,5.93,22.217,11.846,34.32,16.247c6.549,2.381,13.193,4.563,19.617,7.274
					c5.768,2.434,11.147,5.649,17.405,6.672c2.952,0.483,4.222-4.036,1.247-4.522c-5.937-0.971-11.053-3.989-16.526-6.304
					c-6.131-2.594-12.442-4.741-18.702-6.994c-12.365-4.45-23.416-10.376-34.994-16.422
					C58.689,106.129,56.315,110.175,58.994,111.574L58.994,111.574z"/>
			</g>
		</g>
		<g>
			<g>
				<path fill="#FFC214" d="M83.266,125.663c5.066,5.052,14.467,6.432,20.998,8.735c10.365,3.655,21.185,6.379,31.712,9.567
					c2.895,0.877,4.132-3.648,1.247-4.522c-9.411-2.851-18.916-5.479-28.295-8.415c-4.112-1.287-8.091-2.964-12.205-4.243
					c-3.465-1.077-7.481-1.786-10.141-4.438C84.442,120.213,81.125,123.528,83.266,125.663L83.266,125.663z"/>
			</g>
		</g>
		<g>
			<g>
				<path d="M59.35,9.897c1.074,4.942,5.155,15.149,11.529,14.82c6.069-0.312,5.987-9.617,5.143-13.769
					c-0.808,0.223-1.615,0.445-2.423,0.668c1.893,4.61,6.024,12.009,12.165,11.139c5.559-0.788,4.595-7.346,3.065-11.089
					c-0.808,0.223-1.615,0.445-2.423,0.668c1.998,4.829,8.894,14.387,15.124,13.218c8.717-1.636,0.936-13.271-2.31-16.217
					c-1.195-1.084-2.977,0.687-1.776,1.776c2.056,1.866,4.128,4.223,5.004,6.914c1.386,4.256-1.256,6.022-4.752,3.887
					c-3.605-2.201-7.252-6.343-8.866-10.246c-0.608-1.471-3.036-0.833-2.423,0.668c1.065,2.608,2.667,8.293-2.008,7.873
					c-4.229-0.38-7.006-5.921-8.377-9.258c-0.604-1.471-2.752-0.953-2.423,0.668c0.363,1.789,0.445,3.622,0.206,5.433
					c-0.453,3.426-3.202,6.413-6.401,3.28c-2.89-2.83-4.783-7.196-5.631-11.1C61.429,7.65,59.007,8.318,59.35,9.897L59.35,9.897z"/>
			</g>
		</g>
		<g>
			<g>
				<path d="M31.37,39.337c0.056-3.289,2.037-6.4,5.691-6c3.863,0.423,5.287,4.179,5.097,7.603c-0.089,1.615,2.423,1.61,2.512,0
					c0.266-4.813-2.361-9.735-7.61-10.115c-5.047-0.366-8.124,3.829-8.203,8.512C28.831,40.954,31.343,40.955,31.37,39.337
					L31.37,39.337z"/>
			</g>
		</g>
		<g>
			<g>
				<path d="M112.018,49.502c0.151-3.954,2.635-7.485,6.979-6.5c4.308,0.977,5.835,5.302,5.024,9.271
					c-0.323,1.578,2.099,2.253,2.423,0.668c1.116-5.46-1.273-11.32-7.202-12.449c-5.853-1.114-9.53,3.598-9.736,9.01
					C109.444,51.119,111.956,51.116,112.018,49.502L112.018,49.502z"/>
			</g>
		</g>
		<g>
			<g>
				<path d="M74.877,41.561c-14.92-1.353-35.713,1.06-39.333,19.001C32.48,75.744,47.514,85.358,60.349,87.985
					c15.96,3.267,54.879,4.416,52.165-21.1c-1.818-17.093-22.978-23.069-37.303-25.279c-1.582-0.244-2.263,2.176-0.668,2.423
					c11.229,1.732,30.082,6.044,34.414,18.226c3.668,10.318-1.747,18.563-11.474,22.067c-9.095,3.276-19.396,3.391-28.912,2.392
					c-11.614-1.219-25.968-4.963-30.066-17.461c-2.835-8.646,2.359-17.627,9.988-21.749c7.98-4.312,17.595-4.227,26.384-3.43
					C76.486,44.219,76.477,41.706,74.877,41.561L74.877,41.561z"/>
			</g>
		</g>
		<g>
			<g>
				<path d="M73.435,56.354c-1.89-0.566-8.711-5.483-5.604-7.303c1.552-0.909,4.966-0.278,6.643-0.069
					c1.394,0.174,5.536,0.49,6.391,1.87c1.782,2.872-6.02,5.344-7.764,5.458c-1.605,0.105-1.617,2.618,0,2.512
					c3.687-0.24,11.005-2.942,10.514-7.765c-0.356-3.495-5.847-4.142-8.485-4.502c-2.508-0.342-8.469-1.297-10.193,1.414
					c-2.751,4.326,4.527,9.819,7.83,10.808C74.32,59.241,74.983,56.818,73.435,56.354L73.435,56.354z"/>
			</g>
		</g>
		<g>
			<g>
				<path d="M54.352,62.068c-1.526,6.168,4.397,9.694,9.975,9.468c7.73-0.313,9.664-7.383,10.031-13.97
					c0.077-1.389-2.268-1.747-2.467-0.334c-0.927,6.558,0.494,14.963,8.399,15.996c5.723,0.748,10.546-3.338,10.838-9.031
					c0.083-1.616-2.43-1.611-2.512,0c-0.22,4.306-4.061,7.283-8.327,6.509c-5.997-1.088-6.672-7.877-5.975-12.806
					c-0.822-0.111-1.645-0.223-2.467-0.334c-0.238,4.28-0.832,9.867-5.758,11.213c-3.927,1.073-10.594-0.867-9.313-6.043
					C57.163,61.166,54.741,60.497,54.352,62.068L54.352,62.068z"/>
			</g>
		</g>
		<g>
			<g>
				<path d="M61.231,70.338c-0.622,3.3-1.239,6.6-1.868,9.898c-0.167,0.873,0.361,1.488,1.211,1.59
					c6.761,0.814,13.523,1.628,20.284,2.442c0.665,0.08,1.27-0.64,1.256-1.256c-0.084-3.665-0.167-7.331-0.251-10.996
					c-0.037-1.614-2.549-1.62-2.512,0c0.084,3.665,0.167,7.331,0.251,10.996c0.419-0.419,0.837-0.837,1.256-1.256
					c-6.761-0.814-13.523-1.628-20.284-2.442c0.404,0.53,0.808,1.06,1.211,1.59c0.629-3.298,1.246-6.599,1.868-9.898
					C63.952,69.426,61.531,68.749,61.231,70.338L61.231,70.338z"/>
			</g>
		</g>
		<g>
			<g>
				<path d="M70.445,71.454c-0.447,3.32-0.893,6.639-1.34,9.959c-0.213,1.581,2.208,2.265,2.423,0.668
					c0.447-3.32,0.893-6.639,1.34-9.959C73.08,70.54,70.66,69.856,70.445,71.454L70.445,71.454z"/>
			</g>
		</g>
		<g>
			<g>
				<path d="M12.355,14.693c-12.556-4.733-11-21.104-0.796-27.608c5.767-3.676,14.008-4.274,20.075-0.983
					c6.007,3.259,9.09,9.955,5.819,16.284c-0.741,1.434,1.426,2.706,2.169,1.268c3.402-6.583,1.374-13.886-4.516-18.293
					c-6.732-5.037-16.611-5.012-23.846-1.019C-1.766-8.47-3.294,11.469,11.687,17.116C13.202,17.687,13.856,15.259,12.355,14.693
					L12.355,14.693z"/>
			</g>
		</g>
		<g>
			<g>
				<path d="M17.163,3.947c-1.923-1.631-1.619-4.401-0.387-6.383c1.623-2.612,4.485-3.188,7.06-1.55
					c2.703,1.719,4.275,4.916,1.665,7.461C23.25,5.671,19.628,5.92,17.163,3.947c-1.25-1.001-3.039,0.765-1.776,1.776
					c2.763,2.213,6.311,2.723,9.538,1.17c2.811-1.353,4.988-4.291,4.393-7.519c-0.639-3.466-4.29-6.44-7.725-6.817
					c-3.063-0.336-5.83,1.53-7.235,4.179c-1.522,2.868-1.618,6.742,1.029,8.988C16.613,6.763,18.399,4.994,17.163,3.947
					L17.163,3.947z"/>
			</g>
		</g>
		<g>
			<g>
				<path d="M130.656,11.493C131.88-1.882,149.151-6.77,159.374-0.12c12.761,8.3,7.622,37.006-9.994,33.062
					c-1.575-0.353-2.247,2.069-0.668,2.423c19.614,4.392,26.587-25.154,13.671-36.367c-11.523-10.004-32.803-3.201-34.24,12.497
					C127.997,13.103,130.51,13.093,130.656,11.493L130.656,11.493z"/>
			</g>
		</g>
		<g>
			<g>
				<path d="M143.995,19.114c-1.363-2.726-2.179-6.482,0.918-8.341c2.044-1.226,5.054-1.112,6.882,0.472
					c2.512,2.176,2.346,7.374,0.041,9.636C149.207,23.461,145.649,21.915,143.995,19.114c-0.821-1.391-2.994-0.129-2.169,1.268
					c1.82,3.082,5.18,5.138,8.808,4.053c3.686-1.102,5.53-4.888,5.409-8.536c-0.119-3.57-1.61-6.777-5.147-7.983
					c-2.746-0.936-6.079-0.476-8.305,1.446c-3.369,2.91-2.54,7.47-0.765,11.019C142.548,21.829,144.716,20.558,143.995,19.114
					L143.995,19.114z"/>
			</g>
		</g>
		<g>
			<g>
				<path d="M40.06,2.664C51.14-5.559,69.072-6.93,82.274-6.363c16.759,0.719,34.018,7.039,46.238,18.745
					c1.168,1.119,2.947-0.655,1.776-1.776C118.003-1.164,100.836-7.707,83.991-8.784c-8.952-0.573-18.043,0.253-26.799,2.176
					c-6.268,1.376-13.159,3.213-18.401,7.103C37.508,1.447,38.759,3.629,40.06,2.664L40.06,2.664z"/>
			</g>
		</g>
		<g>
			<g>
				<path d="M11.133,15.016C5.608,20.149,0.972,26.434-3.135,32.728c-4.884,7.483-9.393,15.811-10.708,24.758
					c-0.232,1.582,2.188,2.264,2.423,0.668c2.226-15.149,13.266-31.083,24.33-41.361C14.097,15.69,12.317,13.917,11.133,15.016
					L11.133,15.016z"/>
			</g>
		</g>
		<g>
			<g>
				<path d="M-19.425,62.075c-9.318,9.381-19.226,19.639-25.3,31.495c-1.967,3.839-4.546,9.856-0.814,13.481
					c5.043,4.898,12.02-0.039,15.912-3.792c7.983-7.698,12.932-17.87,20.548-25.83c1.118-1.168-0.656-2.947-1.776-1.776
					c-7.236,7.563-12.084,17.121-19.389,24.671c-2.792,2.886-7.488,7.648-12.004,5.851c-3.296-1.312-2.863-4.709-1.957-7.526
					c2.593-8.062,8.986-15.298,14.378-21.614c3.885-4.551,7.962-8.938,12.178-13.183C-16.508,62.703-18.284,60.926-19.425,62.075
					L-19.425,62.075z"/>
			</g>
		</g>
		<g>
			<g>
				<path d="M147.962,34.787c3.241,6.429,6.114,12.434,7.435,19.558c1.547,8.342,2.329,16.69,1.44,25.156
					c-0.169,1.606,2.345,1.594,2.512,0c0.912-8.685,0.049-17.271-1.53-25.824c-1.356-7.346-4.351-13.537-7.689-20.158
					C149.403,32.075,147.235,33.345,147.962,34.787L147.962,34.787z"/>
			</g>
		</g>
		<g>
			<g>
				<path d="M156.917,83.015c2.983-5.039,30.222-27.77,34.367-19.038c3.137,6.609-8.788,16.179-12.865,19.605
					c-7.332,6.162-15.627,11.666-24.451,15.448c-1.482,0.635-0.203,2.8,1.268,2.169c10.774-4.618,21.122-11.754,29.502-19.935
					c4.083-3.986,13.176-13.446,8.032-19.713c-4.308-5.25-14.206,1.027-18.336,3.53c-6.736,4.081-15.562,9.697-19.686,16.665
					C153.922,83.142,156.093,84.407,156.917,83.015L156.917,83.015z"/>
			</g>
		</g>
		<g>
			<g>
				<path d="M-9.759,74.832c44.75,31.103,93.258,56.555,145.993,70.939c1.562,0.426,2.228-1.997,0.668-2.423
					C84.366,129.019,36.087,103.647-8.491,72.663C-9.822,71.738-11.079,73.915-9.759,74.832L-9.759,74.832z"/>
			</g>
		</g>
		<g>
			<g>
				<path d="M-13.586,57.123c-2.858-0.208-5.659,2.186-6.2,4.926c-1.148,5.819,5.949,10.311,10.026,12.783
					c1.386,0.84,2.65-1.331,1.268-2.169c-2.981-1.807-9.468-5.504-8.874-9.919c0.235-1.744,2.014-3.237,3.779-3.108
					C-11.973,59.753-11.98,57.24-13.586,57.123L-13.586,57.123z"/>
			</g>
		</g>
		<g>
			<g>
				<path d="M-13.875,58.383c-1.558,4.789,6.058,10.033,9.016,12.382C3.741,77.597,13.222,83.356,22.69,88.89
					c24.049,14.056,49.419,26.292,75.086,37.07c14.102,5.922,28.698,10.138,42.998,15.462c1.517,0.565,2.172-1.862,0.668-2.423
					c-10.513-3.914-21.325-6.926-31.804-10.953c-15.463-5.942-30.473-12.978-45.382-20.178C43.99,98.08,23.897,87.702,5.252,75.033
					c-4.162-2.828-8.316-5.761-12.034-9.164c-1.467-1.343-5.437-4.464-4.671-6.818C-10.952,57.51-13.377,56.85-13.875,58.383
					L-13.875,58.383z"/>
			</g>
		</g>
		<g>
			<g>
				<path d="M135.562,147.129c10.811-9.518,18.392-19.654,22.288-33.735c-0.765,0.1-1.531,0.2-2.296,0.3
					c5.014,8.795,6.658,21.46,4.69,31.321c-1.309,6.558-4.684,10.618-11.687,11.339c-3.227,0.332-7.684,0.238-10.519-1.691
					c-3.048-2.074-2.467-5.164-2.108-8.422c0.177-1.605-2.336-1.592-2.512,0c-0.758,6.867,0.993,10.788,8.146,12.292
					c6.51,1.369,14.788,0.212,18.538-5.861c3.635-5.886,3.655-13.817,3.04-20.463c-0.623-6.734-2.036-13.848-5.419-19.782
					c-0.538-0.943-2.01-0.733-2.296,0.3c-3.787,13.685-11.162,23.4-21.642,32.626C132.57,146.423,134.352,148.194,135.562,147.129
					L135.562,147.129z"/>
			</g>
		</g>
		<g>
			<g>
				<path d="M47.364,102.357c18.982,3.442,38.403,5.606,57.703,5.873c8.899,0.123,17.745-0.65,26.559-1.849
					c7.736-1.052,16.417-1.902,23.609-5.181c1.469-0.67,0.194-2.836-1.268-2.169c-7.154,3.262-16.055,4.011-23.743,5.02
					c-8.805,1.156-17.607,1.822-26.487,1.644c-18.64-0.375-37.369-2.436-55.705-5.761C46.451,99.648,45.773,102.069,47.364,102.357
					L47.364,102.357z"/>
			</g>
		</g>
		<g>
			<g>
				<path d="M-12.998,79.873C-8.99,84.425-2.872,87.081,2.59,89.4c6.206,2.635,12.628,4.834,19.183,6.418
					c1.571,0.379,2.241-2.042,0.668-2.423c-6.169-1.49-12.223-3.526-18.082-5.962c-5.399-2.245-11.631-4.851-15.581-9.337
					C-12.292,76.881-14.063,78.663-12.998,79.873L-12.998,79.873z"/>
			</g>
		</g>
		<g>
			<g>
				<path d="M-17.983,84.641c-1.679,12.42,1.496,25.454,6.72,36.707c5.408,11.65,15.537,19.352,26.394,25.723
					c23.613,13.855,52.279,18.111,79.301,15.187c14.768-1.598,29.49-5.511,41.129-15.129c1.247-1.031-0.539-2.799-1.776-1.776
					c-13.311,11-31.276,14.319-48.097,15.053c-16.302,0.711-32.952-1.113-48.537-6.04c-14.024-4.433-28.634-12.412-38.858-23.094
					c-10.632-11.109-15.883-30.943-13.853-45.963C-15.347,83.728-17.767,83.044-17.983,84.641L-17.983,84.641z"/>
			</g>
		</g>
		<g>
			<g>
				<path d="M157.85,113.394c1.228-4.831,2.535-9.964,1.555-14.955c-0.311-1.585-2.733-0.914-2.423,0.668
					c0.885,4.509-0.449,9.267-1.555,13.619C155.029,114.293,157.451,114.962,157.85,113.394L157.85,113.394z"/>
			</g>
		</g>
		<g>
			<g>
				<path d="M4.716,139.691c-1.005,1.726-1.695,3.577-2.558,5.372c-1.394,2.898-3.44,3.752-6.561,3.153
					c-2.873-0.551-4.804-1.185-7.336,0.978c-4.553,3.89-0.096,9.69,3.327,12.538c4.903,4.079,11.474,6.894,17.697,4.214
					c6.848-2.949,10.563-10.547,12.941-17.154c0.549-1.524-1.878-2.18-2.423-0.668c-2.038,5.661-5.12,12.22-10.729,15.146
					c-6.376,3.326-14.297-0.828-18.388-6.02c-1.463-1.857-2.002-2.693-0.919-4.939c1.467-3.044,3.646-1.898,6.329-1.255
					c1.668,0.399,2.886,0.864,4.529,0.088c3.531-1.668,4.466-7.104,6.26-10.185C7.701,139.56,5.53,138.293,4.716,139.691
					L4.716,139.691z"/>
			</g>
		</g>
		<g>
			<g>
				<path d="M110.211,160.134c2.142,5.714,3.726,14.29,10.07,16.943c5.927,2.478,14.382-1.118,19.094-4.74
					c3.283-2.524,7.512-8.327,2.652-11.407c-2.607-1.651-6.2-1.4-9.132-1.442c-1.688-0.025-4.072,0.293-5.345-1.106
					c-0.96-1.055-0.958-3.601-1.149-4.906c-0.234-1.594-2.655-0.916-2.423,0.668c0.396,2.691,0.631,5.905,3.388,7.202
					c3.012,1.416,14.711-1.217,14.287,4.108c-0.481,6.032-12.878,10.181-17.707,9.837c-7.548-0.536-9.153-10.063-11.313-15.825
					C112.071,157.966,109.641,158.616,110.211,160.134L110.211,160.134z"/>
			</g>
		</g>
		<g>
			<g>
				<path fill="#F9DE8C" d="M-0.504,37.809c-5.963,3.845-6.307,11.168-9.387,16.977c2.43,0.318,4.86,0.635,7.289,0.953
					c-0.432-2.787,2.649-7.582,3.717-10.086c1.427-3.344,2.893-6.57,5.714-8.97c3.915-3.332-1.75-8.95-5.64-5.64
					c-3.964,3.373-5.914,8.096-7.889,12.775c-1.906,4.516-4.371,9.025-3.594,14.041c0.531,3.428,5.778,3.802,7.289,0.953
					c1.267-2.389,2.48-4.593,3.204-7.219c0.653-2.373,1.08-5.451,3.321-6.896C7.822,41.924,3.827,35.016-0.504,37.809L-0.504,37.809
					z"/>
			</g>
		</g>
		<g>
			<g>
				<path fill="#F9DE8C" d="M-6.167,56.847c-1.967,2.645-0.184,6.053,1.501,8.292c0.982,1.305,2.041,2.544,3.087,3.799
					c0.464,0.557,0.652,0.764,0.887,1.096c0.254,0.36,0.864,1.757,0.516,0.707c1.953-1.501,3.906-3.003,5.859-4.504
					c-1.487-0.683-2.474-2.138-4.001-2.84c-1.634-0.75-3.494-0.715-4.833,0.624c-1.161,1.161-1.656,3.425-0.624,4.833
					c1.114,1.518,2.314,2.194,3.97,2.979c1.024-2.43,2.049-4.86,3.073-7.289c-0.822-0.288-1.683-1.702-2.259-2.33
					c-0.376-0.41-0.759-0.789-1.165-1.17c-0.31-0.273-0.615-0.55-0.918-0.831c-0.493-0.589-0.563-0.578-0.211,0.031
					c-0.743-2.02-2.704-3.391-4.906-2.786c-1.946,0.535-3.533,2.874-2.786,4.906c0.884,2.404,2.681,3.673,4.344,5.489
					c1.736,1.895,3.286,3.508,5.778,4.381c4.221,1.479,7.171-5.349,3.073-7.289c-0.463-0.219-1.966-1.286-1.108-0.117
					c-1.819,1.819-3.638,3.638-5.457,5.457c1.486,0.683,2.473,2.139,4.001,2.84c2.899,1.33,7.054-0.905,5.859-4.504
					c-0.782-2.355-2.51-4.196-4.077-6.063c-0.729-0.868-1.328-1.536-1.88-2.349c-0.073-0.108-0.882-1.258-0.796-1.343
					c0.176,0.26,0.247,0.549,0.212,0.867c-0.561,1.332-0.645,1.713-0.254,1.142c1.286-1.73,0.283-4.454-1.431-5.457
					C-2.743,54.227-4.878,55.113-6.167,56.847L-6.167,56.847z"/>
			</g>
		</g>
		<g>
			<g>
				<path fill="#B0DAF4" d="M9.46,104.608c-2.075-2.949-4.025-5.979-5.59-9.233c-1.458-3.031-5.867-4.682-9.008-3.666
					c-3.657,1.183-5.384,4.03-5.856,7.691c-0.01,0.081-0.021,0.161-0.031,0.242c4.955-1.342,9.909-2.684,14.864-4.026
					c-0.938-1.37-1.805-2.489-3.305-3.292c-3.677-1.969-8.85-1.044-10.913,2.862c-1.957,3.704-1.066,8.81,2.862,10.913
					c0.078,0.042,0.156,0.084,0.235,0.126c-0.954-0.954-1.908-1.908-2.862-2.862c0.07,0.102,0.139,0.203,0.209,0.305
					c1.939,2.832,5.501,4.8,9.008,3.666c3.657-1.183,5.384-4.03,5.856-7.691c0.01-0.081,0.021-0.161,0.031-0.242
					c-4.955,1.342-9.909,2.684-14.864,4.026c1.565,3.254,3.515,6.284,5.59,9.233c2.395,3.405,7.082,5.332,10.913,2.862
					C9.979,113.342,12.027,108.258,9.46,104.608L9.46,104.608z"/>
			</g>
		</g>
	</g>
</g>
</svg>
