<?xml version="1.0" encoding="utf-8"?>
<!-- Generator: Adobe Illustrator 21.1.0, SVG Export Plug-In . SVG Version: 6.00 Build 0)  -->
<svg version="1.1" id="Layer_1" xmlns="http://www.w3.org/2000/svg" xmlns:xlink="http://www.w3.org/1999/xlink" x="0px" y="0px"
	 viewBox="0 0 109.971 97.072" enable-background="new 0 0 109.971 97.072" xml:space="preserve">
<g>
	<path fill="#D52028" d="M108.729,91.709c-2.967,1.112-95.324,5.796-98.429,5.332C7.196,96.578-3.219,10.868,0.986,9.744
		C40.551-0.84,99.561-0.774,104.28,0.711C108.996,2.196,111.698,90.597,108.729,91.709z"/>
	<g>
		<g>
			<path fill="#FFFFFF" d="M20.23,32.493c0.814,0.623,1.233,1.505,1.256,2.644l0.106,5.176c0.022,1.017,0.082,1.744,0.183,2.181
				c0.102,0.437,0.153,0.679,0.154,0.725c0.004,0.185-0.14,0.323-0.431,0.413c-0.29,0.091-0.559,0.139-0.805,0.144
				c-0.216,0.004-0.376-0.112-0.482-0.349c-0.104-0.237-0.187-0.485-0.246-0.746c-0.059-0.261-0.098-0.429-0.114-0.506
				c-1.024,1.177-2.306,1.781-3.847,1.813c-1.185,0.024-2.146-0.248-2.883-0.819c-0.737-0.57-1.115-1.426-1.139-2.566
				c-0.025-1.217,0.321-2.137,1.041-2.761c0.72-0.623,1.609-1.035,2.668-1.234c1.059-0.199,2.351-0.322,3.875-0.368l-0.022-1.086
				c-0.012-0.569-0.221-1.032-0.629-1.385c-0.408-0.354-1.06-0.521-1.952-0.503c-0.677,0.014-1.268,0.107-1.773,0.28
				c-0.506,0.172-0.927,0.343-1.262,0.511s-0.519,0.254-0.55,0.254c-0.154,0.003-0.33-0.147-0.529-0.452
				c-0.199-0.304-0.3-0.533-0.303-0.688c-0.004-0.2,0.195-0.42,0.599-0.659c0.403-0.24,0.942-0.447,1.617-0.623
				c0.675-0.176,1.374-0.271,2.098-0.286C18.293,31.574,19.414,31.871,20.23,32.493z M16.773,38.101
				c-0.73,0.092-1.369,0.322-1.916,0.687c-0.547,0.366-0.813,0.918-0.798,1.658c0.013,0.616,0.188,1.083,0.526,1.4
				c0.337,0.317,0.831,0.468,1.477,0.455c0.755-0.015,1.403-0.167,1.944-0.456c0.54-0.288,1.09-0.693,1.65-1.213L19.6,37.905
				C18.446,37.944,17.503,38.009,16.773,38.101z"/>
			<path fill="#FFFFFF" d="M34.302,26.599l0.276,13.448c0.022,1.017,0.082,1.744,0.183,2.181c0.102,0.437,0.153,0.678,0.154,0.725
				c0.004,0.185-0.139,0.323-0.43,0.413c-0.291,0.091-0.56,0.139-0.806,0.144c-0.215,0.005-0.376-0.112-0.482-0.349
				c-0.104-0.237-0.186-0.485-0.245-0.746c-0.06-0.261-0.098-0.429-0.115-0.506c-1.086,1.178-2.299,1.781-3.638,1.809
				c-0.909,0.019-1.708-0.226-2.396-0.736c-0.689-0.51-1.224-1.232-1.604-2.164c-0.383-0.931-0.585-1.991-0.609-3.177
				c-0.027-1.309,0.146-2.433,0.52-3.374c0.374-0.94,0.91-1.656,1.608-2.148c0.699-0.492,1.512-0.747,2.436-0.766
				c0.677-0.014,1.276,0.074,1.796,0.263c0.52,0.19,1.031,0.472,1.532,0.847l-0.12-5.823c-0.007-0.339,0.298-0.515,0.915-0.527
				l0.091-0.002C33.983,26.096,34.295,26.26,34.302,26.599z M27.338,34.22c-0.509,0.743-0.749,1.807-0.72,3.193
				c0.031,1.494,0.3,2.641,0.81,3.44c0.51,0.798,1.219,1.188,2.128,1.17c0.524-0.011,1.056-0.16,1.597-0.449s1.038-0.692,1.489-1.21
				l-0.13-6.331c-0.846-0.676-1.8-1.003-2.864-0.981C28.617,33.088,27.846,33.478,27.338,34.22z"/>
			<path fill="#FFFFFF" d="M47.356,26.33l0.276,13.448c0.022,1.017,0.082,1.744,0.184,2.181s0.153,0.678,0.154,0.725
				c0.004,0.185-0.139,0.323-0.43,0.413c-0.291,0.091-0.56,0.139-0.806,0.144c-0.215,0.004-0.376-0.112-0.482-0.349
				c-0.105-0.237-0.186-0.485-0.245-0.746c-0.06-0.261-0.098-0.429-0.115-0.506c-1.086,1.178-2.299,1.781-3.638,1.809
				c-0.909,0.019-1.708-0.226-2.397-0.736c-0.688-0.51-1.223-1.232-1.603-2.164c-0.383-0.932-0.585-1.991-0.609-3.177
				c-0.027-1.309,0.146-2.433,0.519-3.374c0.375-0.94,0.91-1.656,1.608-2.148c0.699-0.492,1.512-0.748,2.436-0.767
				c0.677-0.014,1.276,0.074,1.796,0.264s1.031,0.472,1.532,0.847l-0.12-5.823c-0.007-0.339,0.298-0.515,0.914-0.527l0.092-0.002
				C47.038,25.828,47.349,25.991,47.356,26.33z M40.394,33.951c-0.509,0.743-0.749,1.807-0.72,3.193
				c0.031,1.494,0.3,2.641,0.81,3.44c0.51,0.798,1.219,1.188,2.128,1.17c0.524-0.011,1.056-0.16,1.597-0.449s1.038-0.692,1.489-1.21
				l-0.13-6.331c-0.846-0.676-1.8-1.003-2.864-0.981C41.672,32.819,40.901,33.209,40.394,33.951z"/>
			<path fill="#FFFFFF" d="M65.592,30.694c0,0,0.003,0.131,0.008,0.393c0.002,0.078-0.019,0.186-0.062,0.325L59.923,47.27
				c-0.117,0.326-0.475,0.495-1.076,0.508L58.5,47.785c-0.508,0.01-0.766-0.108-0.771-0.354c-0.001-0.062,0.035-0.193,0.108-0.395
				l1.845-4.73l-4.265-10.708c-0.05-0.137-0.075-0.237-0.076-0.299c-0.005-0.262,0.323-0.4,0.985-0.414l0.185-0.004
				c0.508-0.01,0.819,0.107,0.932,0.351l2.486,6.214c0.26,0.673,0.523,1.446,0.788,2.318l0.047-0.001l0.194-0.674l0.52-1.675
				l2.181-6.31c0.072-0.247,0.385-0.378,0.939-0.389l0.069-0.002C65.283,30.7,65.592,30.694,65.592,30.694z"/>
			<path fill="#FFFFFF" d="M76.587,31.981c0.925,1.052,1.406,2.588,1.448,4.605c0.041,2.003-0.371,3.533-1.235,4.591
				c-0.864,1.058-2.159,1.604-3.884,1.64c-1.741,0.036-3.08-0.46-4.018-1.489c-0.939-1.029-1.429-2.537-1.469-4.524
				c-0.042-2.002,0.388-3.552,1.291-4.65c0.902-1.097,2.216-1.664,3.942-1.699C74.356,30.421,75.664,30.93,76.587,31.981z
				 M70.177,33.269c-0.509,0.743-0.748,1.892-0.716,3.448c0.032,1.541,0.318,2.672,0.857,3.392c0.538,0.721,1.369,1.07,2.494,1.047
				c1.124-0.023,1.948-0.406,2.473-1.149c0.524-0.743,0.771-1.884,0.739-3.425c-0.032-1.54-0.325-2.674-0.88-3.403
				c-0.554-0.728-1.394-1.081-2.518-1.057C71.501,32.144,70.684,32.527,70.177,33.269z"/>
			<path fill="#FFFFFF" d="M90.072,30.698l0.169,8.203c0.022,1.017,0.082,1.744,0.184,2.181s0.153,0.678,0.154,0.725
				c0.004,0.185-0.139,0.323-0.43,0.413c-0.291,0.091-0.56,0.139-0.806,0.144c-0.215,0.004-0.376-0.112-0.482-0.349
				c-0.105-0.237-0.187-0.485-0.245-0.746c-0.06-0.261-0.098-0.429-0.115-0.506c-0.482,0.549-1.036,0.984-1.661,1.305
				c-0.626,0.321-1.262,0.488-1.908,0.501c-1.171,0.024-2.098-0.288-2.783-0.937c-0.683-0.648-1.037-1.558-1.062-2.729l-0.165-8.018
				c-0.006-0.339,0.297-0.515,0.914-0.527l0.092-0.002c0.617-0.013,0.928,0.151,0.935,0.489l0.162,7.833
				c0.014,0.709,0.23,1.255,0.646,1.639c0.416,0.385,1.002,0.569,1.757,0.554c0.524-0.011,1.04-0.168,1.551-0.471
				c0.51-0.303,0.952-0.705,1.327-1.206l-0.174-8.457c-0.006-0.339,0.297-0.514,0.914-0.527l0.092-0.002
				C89.754,30.197,90.065,30.36,90.072,30.698z"/>
			<path fill="#FFFFFF" d="M99.585,30.156c0.235,0.165,0.355,0.378,0.36,0.64c0.005,0.262-0.036,0.536-0.122,0.823
				s-0.192,0.431-0.315,0.434c-0.078,0.001-0.228-0.037-0.453-0.118c-0.225-0.08-0.5-0.116-0.823-0.11
				c-0.355,0.008-0.687,0.118-0.998,0.333c-0.312,0.215-0.573,0.447-0.783,0.698s-0.315,0.392-0.315,0.423l0.174,8.457
				c0.007,0.339-0.299,0.515-0.914,0.527l-0.093,0.002c-0.616,0.013-0.927-0.15-0.934-0.489l-0.166-8.11
				c-0.022-1.017-0.082-1.743-0.184-2.181c-0.102-0.437-0.153-0.679-0.155-0.725c-0.004-0.185,0.14-0.323,0.431-0.413
				s0.56-0.139,0.806-0.144c0.215-0.005,0.376,0.104,0.481,0.326c0.104,0.221,0.186,0.454,0.245,0.7s0.097,0.407,0.114,0.483
				c0.793-1.172,1.675-1.768,2.645-1.788C99.018,29.914,99.35,29.992,99.585,30.156z"/>
			<path fill="#FFFFFF" d="M35.781,59.752c0.68,0.517,1.208,1.238,1.581,2.164c0.373,0.925,0.572,1.988,0.597,3.189
				c0.027,1.31-0.147,2.431-0.52,3.363c-0.374,0.932-0.91,1.645-1.609,2.136c-0.698,0.492-1.51,0.748-2.434,0.767
				c-0.678,0.014-1.276-0.074-1.797-0.263c-0.52-0.19-1.032-0.472-1.532-0.848l0.11,5.338c0.007,0.338-0.297,0.515-0.914,0.527
				l-0.092,0.002c-0.616,0.012-0.928-0.151-0.935-0.49l-0.265-12.871c-0.022-1.017-0.081-1.743-0.184-2.18
				c-0.101-0.438-0.152-0.68-0.153-0.725c-0.004-0.185,0.139-0.323,0.431-0.414c0.29-0.09,0.559-0.138,0.805-0.143
				c0.215-0.005,0.376,0.103,0.48,0.325c0.105,0.221,0.187,0.454,0.247,0.7c0.059,0.245,0.097,0.406,0.114,0.482
				c1.086-1.178,2.298-1.78,3.639-1.808C34.29,58.985,35.099,59.234,35.781,59.752z M31.395,61.148
				c-0.541,0.289-1.038,0.692-1.49,1.21l0.13,6.331c0.846,0.676,1.809,1.004,2.886,0.981c1.016-0.036,1.779-0.425,2.288-1.168
				s0.749-1.807,0.721-3.194c-0.031-1.494-0.301-2.64-0.811-3.439c-0.51-0.798-1.218-1.188-2.128-1.17
				C32.468,60.71,31.935,60.86,31.395,61.148z"/>
			<path fill="#FFFFFF" d="M43.121,54.157l0.128,6.239c0.453-0.472,0.98-0.865,1.583-1.176c0.6-0.313,1.241-0.477,1.92-0.491
				c0.971-0.02,1.831,0.235,2.582,0.767c0.75,0.532,1.141,1.499,1.169,2.9l0.165,8.018c0.007,0.339-0.298,0.515-0.913,0.528
				l-0.093,0.002c-0.616,0.012-0.927-0.15-0.934-0.49l-0.161-7.833c-0.015-0.693-0.226-1.236-0.636-1.628
				c-0.409-0.393-0.997-0.581-1.768-0.565c-0.508,0.01-0.977,0.139-1.402,0.386c-0.426,0.248-0.779,0.517-1.058,0.808
				c-0.28,0.291-0.419,0.452-0.418,0.483l0.174,8.457c0.007,0.339-0.298,0.515-0.914,0.527l-0.092,0.002
				c-0.616,0.013-0.928-0.149-0.935-0.489l-0.337-16.406c-0.007-0.339,0.298-0.515,0.914-0.528l0.092-0.001
				C42.802,53.655,43.114,53.818,43.121,54.157z"/>
			<path fill="#FFFFFF" d="M62.762,60.006c0.924,1.053,1.406,2.588,1.448,4.606c0.041,2.003-0.371,3.533-1.235,4.591
				c-0.864,1.058-2.16,1.605-3.884,1.64c-1.741,0.036-3.081-0.46-4.019-1.489c-0.938-1.029-1.428-2.536-1.468-4.524
				c-0.042-2.002,0.388-3.553,1.291-4.65c0.902-1.097,2.217-1.664,3.942-1.699C60.531,58.445,61.84,58.954,62.762,60.006z
				 M56.351,61.294c-0.509,0.743-0.747,1.892-0.715,3.447c0.032,1.541,0.317,2.672,0.856,3.393c0.537,0.721,1.37,1.07,2.495,1.047
				c1.124-0.023,1.948-0.405,2.473-1.149c0.524-0.742,0.77-1.884,0.738-3.425c-0.032-1.54-0.325-2.674-0.879-3.402
				c-0.554-0.729-1.394-1.081-2.518-1.058C57.676,60.168,56.859,60.552,56.351,61.294z"/>
			<path fill="#FFFFFF" d="M69.72,55.968l0.05,2.426l1.94-0.04c0.169-0.003,0.29,0.049,0.362,0.154
				c0.071,0.106,0.11,0.283,0.115,0.53l0.006,0.277c0.005,0.246-0.026,0.424-0.093,0.533c-0.068,0.11-0.186,0.165-0.355,0.169
				l-1.94,0.039l0.148,7.187c0.013,0.646,0.133,1.091,0.362,1.333c0.228,0.242,0.535,0.359,0.92,0.351
				c0.292-0.006,0.511-0.029,0.657-0.072c0.146-0.041,0.256-0.062,0.333-0.064c0.139-0.003,0.257,0.137,0.357,0.42
				c0.097,0.283,0.148,0.502,0.151,0.655c0.01,0.463-0.548,0.705-1.672,0.728c-0.771,0.016-1.465-0.205-2.082-0.662
				c-0.619-0.457-0.941-1.279-0.965-2.465l-0.151-7.372l-1.155,0.024c-0.153,0.003-0.271-0.048-0.35-0.155
				c-0.08-0.107-0.121-0.282-0.126-0.529l-0.006-0.277c-0.005-0.246,0.029-0.425,0.104-0.534s0.19-0.166,0.343-0.169l1.155-0.024
				l0.228-2.432c0.024-0.339,0.267-0.513,0.729-0.523l0.232-0.005C69.478,55.464,69.712,55.629,69.72,55.968z"/>
			<path fill="#FFFFFF" d="M83.813,59.573c0.924,1.053,1.406,2.588,1.448,4.606c0.041,2.003-0.371,3.533-1.235,4.591
				c-0.864,1.058-2.159,1.605-3.884,1.64c-1.741,0.036-3.08-0.46-4.018-1.489c-0.939-1.029-1.429-2.536-1.469-4.524
				c-0.042-2.002,0.388-3.553,1.291-4.65c0.902-1.097,2.216-1.664,3.942-1.699C81.582,58.012,82.89,58.521,83.813,59.573z
				 M77.402,60.861c-0.509,0.743-0.748,1.892-0.716,3.447c0.032,1.541,0.318,2.672,0.857,3.393c0.537,0.721,1.369,1.07,2.494,1.047
				c1.124-0.023,1.948-0.405,2.473-1.149c0.524-0.742,0.771-1.884,0.739-3.425c-0.032-1.54-0.325-2.674-0.88-3.402
				c-0.554-0.729-1.394-1.081-2.518-1.058C78.727,59.736,77.91,60.119,77.402,60.861z"/>
		</g>
	</g>
</g>
</svg>
