<?xml version="1.0" encoding="utf-8"?>
<!-- Generator: Adobe Illustrator 21.1.0, SVG Export Plug-In . SVG Version: 6.00 Build 0)  -->
<svg version="1.1" id="Layer_1" xmlns="http://www.w3.org/2000/svg" xmlns:xlink="http://www.w3.org/1999/xlink" x="0px" y="0px"
	 viewBox="0 0 595.28 841.89" enable-background="new 0 0 595.28 841.89" xml:space="preserve">
<g>
	<path fill="#D52028" d="M345.288,377.798c-4.691-0.997-62.927,2.15-101.739,13.239c-4.126,1.178,8.026,73.001,11.101,73.224
		c3.075,0.224,94.116-8.749,97.021-9.85C354.576,453.312,349.975,378.796,345.288,377.798z"/>
	<g>
		<g>
			<path fill="#FFFFFF" d="M261.238,407.018c0.839,0.588,1.296,1.451,1.367,2.589l0.324,5.167c0.064,1.015,0.155,1.739,0.275,2.171
				c0.121,0.432,0.181,0.672,0.184,0.718c0.012,0.184-0.127,0.328-0.413,0.431c-0.286,0.103-0.553,0.162-0.799,0.178
				c-0.216,0.013-0.381-0.096-0.496-0.328c-0.114-0.232-0.207-0.477-0.277-0.735s-0.116-0.425-0.135-0.501
				c-0.974,1.219-2.229,1.877-3.767,1.973c-1.183,0.074-2.155-0.158-2.915-0.697c-0.76-0.539-1.174-1.378-1.246-2.515
				c-0.076-1.214,0.231-2.149,0.924-2.802c0.693-0.653,1.564-1.102,2.614-1.345c1.05-0.243,2.335-0.421,3.856-0.531l-0.068-1.085
				c-0.036-0.568-0.265-1.022-0.687-1.358s-1.081-0.476-1.972-0.42c-0.676,0.043-1.263,0.16-1.76,0.354
				c-0.498,0.193-0.911,0.382-1.239,0.564c-0.328,0.182-0.508,0.275-0.539,0.277c-0.154,0.009-0.336-0.133-0.548-0.429
				c-0.212-0.295-0.322-0.52-0.332-0.674c-0.012-0.2,0.177-0.428,0.571-0.684c0.393-0.257,0.923-0.487,1.589-0.691
				c0.667-0.204,1.362-0.329,2.084-0.374C259.264,406.181,260.397,406.431,261.238,407.018z M258.02,412.766
				c-0.725,0.123-1.354,0.379-1.885,0.767c-0.531,0.389-0.773,0.952-0.727,1.69c0.039,0.615,0.233,1.074,0.584,1.376
				c0.35,0.302,0.85,0.433,1.495,0.392c0.753-0.047,1.394-0.226,1.923-0.538c0.527-0.311,1.06-0.738,1.597-1.281l-0.17-2.722
				C259.686,412.539,258.746,412.644,258.02,412.766z"/>
			<path fill="#FFFFFF" d="M275.049,400.535l0.842,13.425c0.064,1.015,0.155,1.739,0.275,2.171c0.121,0.432,0.181,0.671,0.184,0.718
				c0.012,0.184-0.126,0.328-0.412,0.431c-0.287,0.103-0.553,0.162-0.799,0.177c-0.215,0.014-0.381-0.096-0.496-0.328
				c-0.114-0.232-0.206-0.477-0.276-0.735c-0.071-0.258-0.116-0.425-0.136-0.501c-1.036,1.223-2.221,1.876-3.559,1.96
				c-0.907,0.057-1.716-0.154-2.425-0.635c-0.71-0.48-1.275-1.179-1.694-2.094c-0.422-0.914-0.668-1.964-0.742-3.149
				c-0.082-1.307,0.043-2.437,0.377-3.393c0.334-0.955,0.839-1.693,1.516-2.214c0.678-0.521,1.479-0.81,2.402-0.868
				c0.676-0.042,1.278,0.02,1.805,0.188c0.528,0.168,1.05,0.428,1.566,0.782l-0.365-5.813c-0.022-0.338,0.276-0.527,0.892-0.565
				l0.091-0.006C274.71,400.047,275.028,400.197,275.049,400.535z M268.413,408.443c-0.478,0.763-0.672,1.837-0.585,3.221
				c0.093,1.492,0.411,2.626,0.954,3.403c0.543,0.776,1.268,1.136,2.175,1.079c0.523-0.033,1.048-0.204,1.576-0.515
				c0.528-0.311,1.008-0.735,1.437-1.271l-0.396-6.32c-0.874-0.64-1.841-0.926-2.902-0.86
				C269.643,407.258,268.889,407.68,268.413,408.443z"/>
			<path fill="#FFFFFF" d="M288.081,399.717l0.842,13.424c0.064,1.015,0.156,1.739,0.275,2.172c0.12,0.432,0.181,0.671,0.184,0.718
				c0.012,0.184-0.126,0.328-0.412,0.431c-0.287,0.103-0.553,0.162-0.799,0.178c-0.215,0.013-0.381-0.096-0.496-0.328
				c-0.115-0.232-0.206-0.477-0.276-0.735c-0.071-0.258-0.116-0.425-0.136-0.501c-1.035,1.223-2.221,1.876-3.559,1.96
				c-0.907,0.057-1.716-0.154-2.426-0.635c-0.709-0.481-1.274-1.179-1.693-2.094c-0.422-0.915-0.668-1.964-0.742-3.149
				c-0.082-1.307,0.043-2.437,0.376-3.393c0.335-0.955,0.839-1.693,1.516-2.214c0.678-0.521,1.479-0.811,2.402-0.869
				c0.676-0.042,1.278,0.021,1.806,0.188c0.528,0.168,1.05,0.428,1.566,0.782l-0.365-5.813c-0.021-0.338,0.276-0.527,0.891-0.565
				l0.092-0.006C287.742,399.229,288.059,399.378,288.081,399.717z M281.445,407.625c-0.478,0.763-0.672,1.837-0.585,3.221
				c0.093,1.492,0.411,2.626,0.954,3.403c0.543,0.776,1.268,1.136,2.175,1.079c0.523-0.033,1.048-0.205,1.576-0.515
				c0.528-0.311,1.008-0.735,1.437-1.271l-0.396-6.32c-0.874-0.64-1.841-0.926-2.902-0.86
				C282.675,406.44,281.921,406.862,281.445,407.625z"/>
			<path fill="#FFFFFF" d="M306.484,403.308c0,0,0.008,0.131,0.025,0.392c0.005,0.077-0.011,0.186-0.048,0.327l-4.942,16.08
				c-0.103,0.331-0.454,0.515-1.053,0.553l-0.346,0.022c-0.507,0.032-0.77-0.076-0.785-0.322c-0.003-0.062,0.027-0.194,0.091-0.399
				l1.644-4.804l-4.713-10.519c-0.056-0.135-0.085-0.234-0.089-0.295c-0.016-0.261,0.306-0.413,0.967-0.455l0.185-0.011
				c0.507-0.032,0.823,0.072,0.946,0.311l2.745,6.103c0.288,0.662,0.583,1.423,0.885,2.283l0.046-0.003l0.166-0.682l0.449-1.696
				l1.914-6.396c0.061-0.25,0.368-0.393,0.922-0.428l0.069-0.005C306.176,403.328,306.484,403.308,306.484,403.308z"/>
			<path fill="#FFFFFF" d="M317.523,404.132c0.968,1.012,1.514,2.526,1.641,4.54c0.125,1.999-0.222,3.546-1.041,4.639
				c-0.819,1.093-2.09,1.694-3.812,1.802c-1.738,0.109-3.097-0.33-4.077-1.318c-0.981-0.988-1.534-2.474-1.658-4.458
				c-0.126-1.999,0.238-3.566,1.094-4.7c0.855-1.134,2.144-1.756,3.867-1.864C315.229,402.667,316.558,403.12,317.523,404.132z
				 M311.173,405.689c-0.478,0.764-0.668,1.922-0.57,3.475c0.097,1.538,0.43,2.656,0.999,3.353c0.567,0.698,1.413,1.011,2.536,0.941
				c1.122-0.071,1.929-0.488,2.422-1.252c0.492-0.764,0.691-1.915,0.594-3.453c-0.096-1.537-0.438-2.658-1.022-3.363
				c-0.585-0.704-1.438-1.021-2.56-0.95C312.449,404.509,311.649,404.926,311.173,405.689z"/>
			<path fill="#FFFFFF" d="M330.942,402.282l0.514,8.189c0.064,1.015,0.156,1.739,0.275,2.171c0.121,0.432,0.181,0.671,0.184,0.718
				c0.012,0.184-0.126,0.328-0.412,0.431c-0.287,0.103-0.553,0.162-0.799,0.178c-0.215,0.013-0.381-0.096-0.496-0.328
				c-0.115-0.232-0.207-0.477-0.276-0.735c-0.071-0.258-0.116-0.425-0.136-0.501c-0.458,0.569-0.993,1.027-1.604,1.374
				c-0.612,0.347-1.24,0.541-1.885,0.581c-1.169,0.073-2.108-0.199-2.82-0.819c-0.71-0.619-1.102-1.513-1.176-2.682l-0.503-8.004
				c-0.021-0.338,0.275-0.527,0.891-0.565l0.092-0.006c0.616-0.039,0.934,0.111,0.955,0.449l0.491,7.82
				c0.044,0.707,0.282,1.244,0.715,1.61c0.432,0.367,1.025,0.526,1.779,0.479c0.523-0.033,1.033-0.211,1.53-0.536
				c0.496-0.324,0.921-0.745,1.275-1.261l-0.53-8.442c-0.021-0.338,0.275-0.526,0.891-0.565l0.092-0.006
				C330.603,401.794,330.922,401.944,330.942,402.282z"/>
			<path fill="#FFFFFF" d="M340.424,401.34c0.242,0.155,0.371,0.363,0.387,0.624c0.016,0.262-0.013,0.537-0.088,0.827
				c-0.074,0.29-0.173,0.439-0.296,0.447c-0.077,0.005-0.229-0.028-0.457-0.099c-0.228-0.07-0.505-0.095-0.827-0.075
				c-0.354,0.023-0.682,0.147-0.983,0.375c-0.303,0.228-0.553,0.471-0.753,0.73c-0.2,0.26-0.298,0.405-0.297,0.435l0.53,8.442
				c0.022,0.339-0.277,0.527-0.891,0.565l-0.093,0.006c-0.615,0.039-0.932-0.111-0.954-0.45l-0.508-8.096
				c-0.064-1.015-0.156-1.738-0.275-2.171c-0.121-0.432-0.182-0.672-0.185-0.718c-0.012-0.184,0.127-0.328,0.413-0.431
				c0.286-0.102,0.553-0.162,0.799-0.177c0.215-0.014,0.38,0.088,0.494,0.305c0.114,0.216,0.205,0.446,0.274,0.689
				c0.069,0.243,0.114,0.402,0.134,0.478c0.743-1.204,1.599-1.837,2.568-1.898C339.847,401.121,340.182,401.185,340.424,401.34z"/>
			<path fill="#FFFFFF" d="M277.924,433.597c0.702,0.488,1.259,1.186,1.671,2.095c0.412,0.908,0.655,1.962,0.731,3.161
				c0.082,1.307-0.044,2.435-0.378,3.382c-0.334,0.947-0.84,1.681-1.518,2.202c-0.677,0.521-1.477,0.811-2.4,0.869
				c-0.677,0.042-1.278-0.021-1.806-0.187c-0.528-0.168-1.05-0.428-1.566-0.782l0.335,5.329c0.021,0.337-0.275,0.527-0.891,0.565
				l-0.092,0.006c-0.615,0.038-0.933-0.112-0.955-0.45l-0.807-12.848c-0.064-1.015-0.155-1.738-0.275-2.17
				c-0.119-0.433-0.18-0.673-0.183-0.718c-0.012-0.185,0.126-0.328,0.413-0.432c0.286-0.102,0.553-0.161,0.799-0.177
				c0.215-0.014,0.381,0.088,0.493,0.305c0.114,0.216,0.206,0.446,0.276,0.689c0.069,0.242,0.114,0.402,0.134,0.477
				c1.035-1.223,2.221-1.876,3.56-1.96C276.402,432.894,277.221,433.109,277.924,433.597z M273.6,435.177
				c-0.528,0.312-1.008,0.735-1.438,1.272l0.397,6.319c0.874,0.64,1.849,0.927,2.925,0.859c1.014-0.079,1.76-0.5,2.236-1.263
				c0.478-0.763,0.672-1.837,0.586-3.222c-0.094-1.491-0.412-2.625-0.955-3.402c-0.543-0.776-1.267-1.135-2.175-1.079
				C274.654,434.694,274.128,434.866,273.6,435.177z"/>
			<path fill="#FFFFFF" d="M285.022,427.698l0.391,6.228c0.433-0.491,0.942-0.905,1.532-1.242c0.587-0.338,1.22-0.529,1.897-0.571
				c0.969-0.061,1.839,0.158,2.612,0.658c0.772,0.5,1.203,1.449,1.29,2.849l0.503,8.004c0.022,0.339-0.276,0.527-0.89,0.566
				l-0.093,0.006c-0.615,0.038-0.932-0.111-0.954-0.45l-0.491-7.819c-0.044-0.692-0.278-1.226-0.704-1.6
				c-0.425-0.375-1.021-0.539-1.791-0.49c-0.507,0.032-0.97,0.18-1.385,0.445c-0.415,0.266-0.757,0.55-1.023,0.852
				c-0.268,0.303-0.399,0.469-0.397,0.5l0.53,8.442c0.022,0.339-0.276,0.527-0.891,0.565l-0.092,0.006
				c-0.615,0.039-0.933-0.11-0.955-0.449l-1.028-16.377c-0.021-0.338,0.276-0.527,0.891-0.566l0.092-0.005
				C284.682,427.21,285,427.36,285.022,427.698z"/>
			<path fill="#FFFFFF" d="M304.892,432.714c0.968,1.013,1.513,2.527,1.64,4.541c0.125,2-0.222,3.545-1.04,4.639
				c-0.819,1.093-2.091,1.694-3.812,1.802c-1.738,0.109-3.098-0.33-4.078-1.318c-0.98-0.988-1.533-2.474-1.658-4.458
				c-0.126-1.999,0.238-3.566,1.094-4.7c0.855-1.134,2.145-1.756,3.867-1.864C302.597,431.249,303.926,431.702,304.892,432.714z
				 M298.541,434.271c-0.478,0.763-0.667,1.922-0.569,3.474c0.097,1.539,0.429,2.656,0.998,3.354
				c0.567,0.698,1.414,1.011,2.537,0.941c1.122-0.07,1.929-0.487,2.422-1.252c0.492-0.764,0.69-1.915,0.593-3.453
				c-0.096-1.537-0.437-2.658-1.021-3.362c-0.585-0.705-1.438-1.022-2.56-0.951C299.817,433.09,299.017,433.508,298.541,434.271z"/>
			<path fill="#FFFFFF" d="M311.673,428.386l0.152,2.422l1.937-0.122c0.169-0.01,0.292,0.037,0.368,0.139
				c0.076,0.103,0.122,0.278,0.137,0.524l0.017,0.277c0.015,0.246-0.008,0.424-0.071,0.536c-0.063,0.113-0.179,0.173-0.347,0.184
				l-1.937,0.121l0.451,7.175c0.04,0.645,0.179,1.085,0.418,1.316c0.238,0.233,0.55,0.336,0.934,0.312
				c0.292-0.018,0.509-0.051,0.654-0.099c0.144-0.047,0.253-0.073,0.33-0.078c0.138-0.009,0.263,0.126,0.374,0.405
				c0.109,0.279,0.169,0.495,0.178,0.648c0.03,0.462-0.518,0.727-1.639,0.798c-0.77,0.048-1.473-0.143-2.108-0.574
				c-0.638-0.431-0.994-1.239-1.068-2.422l-0.462-7.359l-1.153,0.073c-0.153,0.009-0.273-0.036-0.356-0.14
				c-0.085-0.103-0.133-0.277-0.149-0.523l-0.017-0.277c-0.015-0.246,0.011-0.426,0.082-0.538c0.07-0.112,0.183-0.174,0.336-0.183
				l1.153-0.073l0.125-2.44c0.01-0.339,0.245-0.524,0.706-0.554l0.231-0.014C311.41,427.893,311.652,428.048,311.673,428.386z"/>
			<path fill="#FFFFFF" d="M325.906,431.394c0.968,1.013,1.513,2.527,1.64,4.541c0.125,2-0.222,3.545-1.041,4.639
				c-0.819,1.093-2.09,1.694-3.812,1.802c-1.738,0.109-3.097-0.33-4.077-1.318c-0.981-0.988-1.534-2.474-1.658-4.458
				c-0.126-1.999,0.238-3.566,1.094-4.7c0.855-1.134,2.144-1.756,3.867-1.864C323.611,429.929,324.939,430.382,325.906,431.394z
				 M319.555,432.951c-0.478,0.763-0.668,1.922-0.57,3.474c0.097,1.539,0.43,2.656,0.999,3.353c0.567,0.698,1.413,1.011,2.536,0.941
				c1.122-0.07,1.929-0.487,2.422-1.252c0.492-0.764,0.691-1.915,0.594-3.453c-0.096-1.537-0.438-2.658-1.022-3.362
				c-0.585-0.705-1.438-1.022-2.56-0.951C320.831,431.772,320.031,432.189,319.555,432.951z"/>
		</g>
	</g>
</g>
</svg>
