<?xml version="1.0" encoding="utf-8"?>
<!-- Generator: Adobe Illustrator 21.1.0, SVG Export Plug-In . SVG Version: 6.00 Build 0)  -->
<svg version="1.1" id="line" xmlns="http://www.w3.org/2000/svg" xmlns:xlink="http://www.w3.org/1999/xlink" x="0px" y="0px"
	 viewBox="0 0 595.28 841.89" enable-background="new 0 0 595.28 841.89" xml:space="preserve">
<g>
	<path fill="#D51F26" d="M-8.504-8.504v858.898h612.288V-8.504H-8.504z M216.043,350.909c-3.935,1.475-126.417,7.687-130.534,7.071
		c-4.119-0.615-17.929-114.282-12.355-115.774c52.471-14.037,130.73-13.949,136.988-11.979
		C216.398,232.197,219.982,349.434,216.043,350.909z M515.874,641.033c-3.884,1.472-125.642,13.472-129.755,13.172
		c-4.112-0.299-20.363-96.354-14.846-97.929c51.907-14.83,129.79-19.04,136.065-17.706
		C513.608,539.906,519.76,639.562,515.874,641.033z"/>
	<path fill="#3A3432" d="M105.747,65.456c3.733-4.25,23.527-29.925,28.139-34.185c4.611-4.26,6.582-3.296,14.298,2.144
		c4.707,3.318,5.954,4.07,4.204,6.871c-1.752,2.802-3.533,3.629-0.866,5.573c6.509,4.74,15.794,10.936,19.139,13.868
		c2.655,2.327-4.379,12.199-7.089,13.168c-3.082,1.101-12.621-7.136-17.944-11.197c-5.573-4.251-7.395-4.687-10.003-1.767
		c-1.636,1.834-14.026,17.064-16.679,20.018c-2.652,2.955-7.471-1.551-11.712-4.668C102.44,71.755,102.015,69.706,105.747,65.456z
		 M141.407,62.665c-2.836-1.648-2.922-1.664-5.598,0.949c-2.675,2.613-7.344,7.338-5.674,9.262
		c1.669,1.923,17.085,16.725,19.314,16.011c2.23-0.713,12.202-8.403,11.261-11.12C159.769,75.047,143.123,63.662,141.407,62.665z
		 M201.188,72.804c-2.834-1.647-2.919-1.665-5.596,0.949c-2.676,2.612-7.342,7.337-5.674,9.262
		c1.669,1.923,17.085,16.724,19.314,16.01c2.232-0.713,12.203-8.403,11.262-11.12C219.553,85.187,202.906,73.801,201.188,72.804z
		 M169.361,82.547c4.048,2.974,8.647,7.273,11.177,4.455c2.532-2.819,14.352-17.353,15.916-19.102
		c2.488-2.786,4.225-2.37,9.543,1.687c5.077,3.874,14.183,11.734,17.122,10.684c2.587-0.925,9.298-10.344,6.766-12.565
		c-3.194-2.797-12.055-8.71-18.264-13.232c-2.547-1.854-0.846-2.645,0.823-5.318c1.671-2.673,0.481-3.391-4.009-6.556
		c-7.363-5.191-9.245-6.111-13.645-2.045c-4.4,4.065-23.288,28.564-26.85,32.62C164.382,77.23,164.787,79.184,169.361,82.547z
		 M99.93,128.584c4.37,2.016,23.032,4.704,38.883,6.882c-0.457,0.527-0.925,1.041-1.413,1.529
		c-8.595,8.596-13.435,10.196-26.19,13.679c-2.998,0.818-5.654-0.379-4.707,4.735c0.945,5.115,2.987,14.374,7.932,14.52
		c4.945,0.146,29.853-8.288,41.612-26.461c0,0,6.294,19.482,29.833,31.08c23.539,11.598,26.505,11.685,28.626,8.412
		c2.123-3.272,7.944-11.188,5.147-12.367c-2.585-1.089-36.085-12.698-46.197-31.304c15.279,1.047,31.643,1.649,36.984,1.747
		c8.174,0.149,10.04-0.679,9.999-4.411c-0.042-3.733-0.396-10.246-0.711-13.027c-0.314-2.781-0.733-4.09-5.492-3.832
		c-4.408,0.237-11.396,1.105-45.26-1.2c-0.027-2.601,0.136-4.995,0.403-7.172c1.137-0.055,2.271-0.127,3.396-0.221
		c10.667-0.891,24.655-0.263,25.543-8.569c0.365-3.384-4.983-15.873-8.27-15.513c-3.284,0.361-8.209,4.886-26.479,5.53
		c-14.306,0.504-25.569-1.481-30.85-2.672c-2.538-0.573-3.3,1.226-4.296,5.668c-0.997,4.441-2.466,9.925,1.021,11.46
		c2.078,0.915,10.414,2.749,20.778,3.752c-0.474,1.842-1.042,3.864-1.725,5.977c-19.978-2.372-36.206-6.462-42.6-8.288
		c-3.44-0.982-5.7-0.882-7.133,4.36C97.331,118.122,94.252,125.965,99.93,128.584z M232.269,655.352
		c-0.502,2.614-6.288,3.921-13.246,4.586c0.926,8.838,1.724,16.686,1.691,17.931c-0.078,2.968-5.797,3.517-9.681,3.658
		c-3.356,0.12-6.513-0.506-7.72-2.042c-0.556-0.709-0.842-9.437-0.99-18.847c-1.231,0.012-2.383,0.021-3.42,0.029
		c-0.987,0.008-2.051-0.012-3.172-0.056c-0.784,5.796-1.83,11.262-3.273,15.183c-2.332,6.342-2.419,6.41-4.912,6.288
		c-1.615-0.079-5.433-1.691-9.218-2.796c-2.261-0.66-7.446-2.499-4.745-7.182c2.034-3.528,3.594-8.295,4.806-13.356
		c-5.959-0.973-11.013-2.156-12.753-3.148c-3.744-2.134,0.316-9.928,2.238-12.177c1.622-1.898,5.792-0.792,13.183,0.484
		c0.294-2.174,0.541-4.22,0.749-6.038c-5.369-0.322-9.485-0.815-10.216-1.541c-2.855-2.837-0.005-10.397,1.391-12.35
		c1.727-2.414,11.554-0.475,24.961-0.266c12.615,0.196,21.825-0.836,24.336-0.538c2.509,0.299,4.859,8.048,4.209,11.566
		c-0.483,2.622-5.034,3.07-9.734,3.285c0.196,2.028,0.445,4.479,0.722,7.162c6.293-0.448,11.783-1.01,13.195-1.321
		C233.451,643.253,233.12,650.93,232.269,655.352z M202.184,645.858c-0.014-3.159-0.018-5.798-0.019-7.464
		c-1.395-0.002-2.87-0.011-4.384-0.027c-0.151,2.195-0.324,4.699-0.532,7.374c0.861,0.04,1.735,0.074,2.638,0.096
		C200.601,645.855,201.374,645.861,202.184,645.858z M162.29,674.075c0.872,5.591,0.823,6.408-2.27,7.7
		c-4.024,1.681-15.095,2.193-15.647-1.834c-0.55-4.026-6.847-76.913-8.452-88.465c-1.604-11.551-3.579-17.075,7.247-18.683
		c17.112-2.542,27.224-4.56,32.338-4.858c5.112-0.298,10.253-1.399,11.735,5.022c1.484,6.422,5.427,33.429,5.952,37.648
		c0.587,4.735,1.565,6.328-9.67,8.347c-11.866,2.131-18.774,3.355-23.221,3.841c-3.172,0.346-4.014,0.55-3.523,5.822
		C157.269,633.889,161.415,668.483,162.29,674.075z M153.375,594.009l20.971-3.192c-0.628-3.801-0.326-5.288-1.884-6.915
		c-0.852-0.894-18.973,0.968-19.477,3.053C152.428,589.268,153.375,594.009,153.375,594.009z M156.588,611.172
		c3.08,0.871,19.696-1.656,20.771-3.44c0.695-1.153-0.874-6.3-0.874-6.3l-21.849,3.273
		C154.636,604.706,154.935,610.705,156.588,611.172z M258.998,664.857c0.007,0.159-0.009,0.314-0.035,0.466
		c-0.315,12.793-19.793,14.218-22.916,13.572c-3.252-0.674-4.347-12.45-1.982-12.759c2.364-0.308,5.6-1.007,5.485-3.867
		c-0.146-5.659-1.725-34.398-2.192-39.673c-0.464-5.275-1.33-5.324-4.512-5.094c-4.462,0.321-11.478,0.359-23.534,0.395
		c-11.414,0.035-10.738-1.709-11.011-6.472c-0.241-4.244-1.219-31.521-0.914-38.104c0.305-6.584,5.558-6.424,10.643-7.051
		c5.083-0.627,15.393-0.459,32.683-1.034c10.939-0.363,10.759,5.462,11.258,17.114C252.47,594.002,258.816,660.797,258.998,664.857z
		 M214.225,588.65l20.262-0.709c0,0,0.08-4.834-0.885-7.01c-0.869-1.961-18.089-0.455-18.768,0.577
		C213.595,583.389,214.159,584.797,214.225,588.65z M235.171,598.69l-21.142,0.786c0,0-0.619,5.345,0.274,6.355
		c1.378,1.561,17.237,0.98,20.111-0.429C235.954,604.646,235.171,598.69,235.171,598.69z M94.843,420.776
		c-3.965,1.511-12.826,8.464-9.742,11.581c3.085,3.117,15.529,18.255,20.02,15.651c4.491-2.604,10.99-7.145,9.261-9.553
		C112.653,436.049,96.971,419.965,94.843,420.776z M164.484,426.678c-2.822,0.908-22.941,10.9-22.82,13.174
		c0.223,4.237,4.122,14.803,8.035,12.825c3.912-1.979,22.138-9.18,21.037-14.254C169.636,433.349,167.305,425.77,164.484,426.678z
		 M83.535,476.764c2.046-3.003,3.185-13.535,5.614-12.959c2.429,0.576,64.486,7.653,72.027,8.517
		c7.544,0.866-0.947,14.272,2.344,15.103c3.294,0.832,18.409,6.11,19.29,0.341c0.881-5.769,5.696-25.537,2.42-26.544
		c-3.274-1.008-47.342-6.453-46.966-8.63c0.377-2.177,3.259-24.728,1.12-27.819c-1.21-1.748-14.95-4.261-17.104-3.864
		c-2.283,0.421-3.026,0.079-3.688,4.449c-0.661,4.372-1.217,25.953-2.134,25.338c-0.915-0.615-21.345-1.768-29.67-3.768
		c-8.326-2-12.158-2.746-13.989,1.805c-1.834,4.551-7.513,24.062-5.771,24.398C68.768,473.468,81.488,479.768,83.535,476.764z
		 M146.614,531.417c-0.467-0.809-17.994-2.881-20.487-2.754c0,0-3.638,32.754-4.134,38.204c-0.497,5.449-16.379,2.138-20.133,0.555
		c-3.755-1.583,3.96-38.952,4.212-41.711c0,0-9.972-2.091-13.712-1.9c-3.738,0.191-3.615,14.382-3.808,18.441
		c-0.193,4.059-11.185,0.753-15.755,0.336c-4.57-0.417-0.698-15.661,0.821-25.803c1.52-10.142,3.905-12.406,6.173-12.022
		c0,0,16.007,2.272,30.04,3.956c0.111-1.027,0.221-2.097,0.325-3.163c-8.744-1.3-16.84-2.605-19.674-3.481
		c-6.516-2.011-1.536-16.843,0.384-24.29c1.92-7.447,3.408-10.916,6.488-10.888c4.325,0.04,50.589,6.977,54.889,8.433
		c4.298,1.455,4.162,4.887,3.553,7.668c-0.607,2.78-2.27,19.07-3.422,23.928c-1.151,4.858-8.87,3.977-14.959,2.713
		c-1.396-0.29-4.285-0.74-7.974-1.284l-0.483,2.678c14.142,2.114,30.694,5.662,33.914,7.805c4.01,2.67,0.217,18.986-3.014,31.098
		c-3.231,12.113-19.689,3.581-23.317,2.542c-3.628-1.039,0.372-9.893,0.521-11.531c0.149-1.639,4.822-0.389,6.679,0.609
		C145.599,542.553,148.026,533.869,146.614,531.417z M108.983,489.699c1.703,0.746,23.096,4.587,24.502,4.716
		c1.408,0.128,3.146-5.977,1.314-6.615c-1.833-0.64-22.532-4.3-24.396-4.589C108.851,482.971,107.278,488.952,108.983,489.699z
		 M67.021,391.66c-10.078-0.507-13.328-26.004-18.291-82.438c-4.967-56.435-6.595-83.699,0.259-86.53
		c58.603-24.185,173.962-20.671,183.051-19.531c9.085,1.14,14.767,39.565,16.952,69.923c2.183,30.359,2.105,88.913,1.244,100.608
		c-0.862,11.698-53.05,11.991-103.353,16.304C96.578,394.309,77.097,392.169,67.021,391.66z M88.394,363.008
		c4.117,0.616,126.6-5.597,130.534-7.071c3.939-1.474,0.355-118.712-5.901-120.682c-6.258-1.97-84.518-2.057-136.988,11.979
		C70.465,248.726,84.276,362.394,88.394,363.008z"/>
	<path fill="#3A3432" d="M528.55,515.195c-9.069-0.471-123.953,2.853-181.74,26.661c-6.761,2.786-4.539,25.917,1.652,73.713
		c6.184,47.792,9.981,69.331,20.02,69.211c10.042-0.121,29.473,0.635,79.443-5.791c49.967-6.427,101.897-9.536,102.497-19.547
		c0.598-10.005-0.612-59.884-3.455-85.619C544.122,548.084,537.62,515.669,528.55,515.195z M518.874,646.033
		c-3.884,1.472-125.642,13.472-129.755,13.172c-4.112-0.299-20.363-96.354-14.846-97.929c51.907-14.83,129.79-19.04,136.065-17.706
		C516.608,544.906,522.76,644.562,518.874,646.033z M492.689,483.587c-0.872,5.222-24.346,2.751-43.581,3.48
		c0.206,2.129,0.399,4.181,0.57,6.104c11.636-0.763,21.073-1.086,22.817-0.316c4.717,2.086,3.937,13.697,2.774,18.048
		c-1.165,4.353-69.968,7.259-74.173,6.142c-4.201-1.117-7.318-18.941-2.981-19.41c3.235-0.35,13.799-1.4,25.999-2.466
		c-0.371-2.018-0.769-4.142-1.172-6.321c-17.724,1.167-36.768,2.237-42.616,2.374c-8.347,0.195-10.336-10.604-8.007-21.101
		c1.413-6.367,24.631-4.806,48.467-6.155c-0.32-5.369-1.409-9.428,0.403-9.811c5.542-1.173,23.002-3.765,24.069,0.255
		c0.25,0.929,0.697,4.099,1.226,8.417c22.235-0.143,43.424-1.49,45.385-0.365C496.691,465.23,493.642,477.872,492.689,483.587z
		 M527.836,294.147c1.38,2.323-5.636,9.154-8.983,12.585c-3.347,3.431-21.811-10.555-25.176-12.758
		c-3.365-2.202,1.226-7.735,7.104-13.393C504.972,276.548,526.457,291.824,527.836,294.147z M448.408,406.293
		c2.502-1.241,13.739,2.858,14.777,7.412c0.912,4.003-12.343,22.229-16.23,23.179c-2.686,0.655-13.4-6.314-13.923-8.908
		C431.89,422.322,445.908,407.531,448.408,406.293z M569.432,423.951c1.498,2.357-4.671,14.348-7.912,14.021
		c-4.086-0.412-23.431-13.208-24.787-16.973c-0.936-2.601,3.99-11.372,6.514-12.167
		C548.749,407.098,567.935,421.596,569.432,423.951z M515.061,423.218c1.326,1.625-2.01,10.167-5.506,11.471
		c-3.072,1.146-20.762-5.849-22.045-8.496c-0.882-1.827,3.674-10.947,5.676-11.641C497.547,413.037,513.737,421.595,515.061,423.218
		z M533.196,361.413c-4.552-0.523-46.144-3.366-56.281-3.59c-4.039-0.09-7.646,1.777-7.58,5.832
		c0.067,4.055-1.688,42.114-1.688,42.114s0.505,5.596,7.779,6.328c9.749,0.984,44.931,1.364,49.851,1.701
		c6.611,0.452,11.078,0.891,11.658-8.117c0.58-9.007,3.407-38.284,3.407-38.284S540.674,362.273,533.196,361.413z M523.034,374.206
		c0.638,0.554,0.011,5.951,0.011,5.951l-37.203-2.421c0,0,0.205-5.326,0.428-5.514C488.693,370.168,522.313,373.579,523.034,374.206
		z M485.246,398.03c-0.677-0.128,0.004-6.591,0.004-6.591l36.725,2.204c0,0,0.216,5.203,0.056,5.512
		C521.125,400.928,487.51,398.461,485.246,398.03z M554.772,339.944c-3.421-0.598-26.649,0.321-26.649,0.321
		c0.292-0.94,2.962-7.132,4.506-11.969c4.434,0.125,8.788,0.513,10.056,0.336c2.286-0.319,3.428-16.337,0.467-17.294
		c-2.964-0.957-25.859-1.696-45.115-4.031c-19.258-2.334-34.616-4.353-35.03-1.568c-0.807,5.437-1.417,16.478,1.326,16.688
		c0.716,0.055,5.865,0.613,13.195,1.366c0.445,6.582,0.897,15.361,0.897,15.361s-26.229-0.949-27.289,1.818
		c-1.059,2.767-4.072,15.367,1.464,15.294c5.534-0.073,100.688-0.564,103.157-0.446
		C558.225,355.933,558.194,340.543,554.772,339.944z M499.352,339.415l-0.426-13.529c4.345,0.401,8.76,0.788,13.025,1.132
		l-3.988,12.319L499.352,339.415z M503.962,438.194c12.596-0.307,22.981-6.93,26.879-9.089c3.801-2.106,12.256,8.426,10.217,12.533
		c-0.97,1.955-6.973,12.846-39.113,14.996c-32.142,2.149-37.174-15.28-40.342-22.561c-3.171-7.283,2.277-8.583,10.993-11.61
		c4.819-1.674,6.519-1.036,7.873,2.784C484.739,437.29,491.866,438.489,503.962,438.194z M498.202,699.616
		c1.273,3.143-7.103,9.577-9.931,10.575c-2.824,0.998-15.995-13.204-18.687-15.738c-2.692-2.534,8.487-9.035,11.056-9.646
		C484.555,683.874,496.926,696.474,498.202,699.616z M498.71,715.498c2.287,0.969,1.032,10.932-0.118,13.65
		c-1.298,3.07-11.774,9.608-11.774,9.608s13.15,8.678,15.412,10.31c2.263,1.634-2.591,10.729-6.27,12.137
		c-3.963,1.519-10.958-4.563-10.958-4.563s-5.264,52.937-6.798,56.637c-1.533,3.696-17.033-1.027-18.375-2.403
		c-1.342-1.378,7.3-56.239,7.3-56.239s-14.544,10.663-17.625,12.313c-3.081,1.651-9.686-8.102-10.007-11.869
		c-0.321-3.77,31.671-24.429,31.033-26.001c0,0-20.628-2.665-23.797-4.474c-3.479-1.99-0.992-13.423,0.659-14.783
		C450.27,707.452,496.422,714.527,498.71,715.498z M534.821,703.926c0.234,2.883-10.2,8.434-12.318,7.469
		c-2.535-1.154-13.552-17.327-13.955-18.889c-0.405-1.562,8.634-7.209,10.182-7.776C521.17,683.839,534.585,701.044,534.821,703.926
		z M566.377,691.802c-0.892,1.954-8.56,16.79-10.379,18.707c-1.818,1.918-6.57-1.314-10.325-3.341
		c-3.755-2.026-5.294-4.235-4.543-5.641c0.753-1.406,5.228-8.855,8.824-14.569c3.594-5.715,3.591-5.323,5.416-4.76
		C566.85,685.745,567.269,689.848,566.377,691.802z M573.724,789.967c-0.644,0.471-15.26,0.259-31.507-0.272
		c-1.041,16.567-1.877,30.017-2.018,31.399c-0.38,3.742-16.967,3.699-17.566,1.244c-0.23-0.942,0.467-15.511,1.446-33.35
		c-13.439-0.611-24.731-1.356-26.221-2.009c-3.884-1.7-1.676-16.518,0.686-17.432c1.052-0.407,12.771-0.091,26.61,0.464
		c0.214-3.632,0.43-7.25,0.641-10.79c-7.238-0.571-13.01-1.069-14.091-1.112c-3.248-0.128-1.402-16.351,1.345-16.841
		c1.95-0.348,7.343-0.188,13.835,0.206c0.199-3.131,0.387-6.032,0.556-8.615c-7.598-0.131-13.675-0.291-14.656-0.407
		c-2.775-0.331-2.887-8.342-2.848-11.776c0.032-2.713,0.727-5.336,2.29-5.482c11.43-1.066,47.464,0.319,49.76,1.072
		c2.294,0.754,4.205,16.127,0.7,16.653c-1.324,0.197-8.367,0.226-16.768,0.167c-0.209,2.867-0.438,6.18-0.685,9.81
		c8.121,0.732,14.793,1.456,15.698,1.665c2.302,0.532,1.074,13.985,0.301,15.944c-0.313,0.792-7.959,0.571-17.162,0.018
		c-0.219,3.38-0.44,6.834-0.66,10.29c14.586,0.697,27.534,1.427,29.376,1.654C576.868,772.978,575.159,788.919,573.724,789.967z
		 M418.119,250.673c1.964-2.812,3.875-5.619,5.7-8.379c10.651-16.103,15.867-40.701,9.797-41.809
		c-3.129-0.571-18.068-1.878-33.505-2.991c2.719-12.476,5.211-23.691,5.448-25.975c0.566-5.473-14.182-7.958-18.81-6.294
		c-3.636,1.308-6.122,16.282-8.657,30.865c-5.799-0.304-10.608-0.483-13.438-0.45c-5.278,0.059-8.416,19.598-4.474,20.757
		c1.961,0.578,7.22,1.112,13.609,1.6c-2.573,12.072-5.154,23.834-4.928,27.469c0.137,2.174,7.325,7.183,16.33,12.58
		c-4.576,5.744-8.87,10.786-11.902,13.869c-5.309,5.395,7.327,22.26,13.435,16.597c5.766-5.344,11.854-12.182,17.825-19.635
		c7.519,3.971,13.848,7.066,15.988,7.879c4.957,1.883,14.098-15.247,11.234-17.872C430.115,257.369,424.547,254.19,418.119,250.673z
		 M392.922,236.275c-0.489-0.841,0.713-7.804,2.543-16.887c6.77,0.406,12.228,0.753,13.774,1.036
		c2.133,0.39-3.147,9.205-10.528,19.648C395.475,238.227,393.246,236.833,392.922,236.275z M488.529,206.422
		c-18.39-2.294-27.381-2.478-34.593-3.538c-6.143-0.903-11.123,1.209-11.674,7.754c-0.903,10.719-3.05,35.252-3.355,45.032
		c-0.304,9.781,0.962,13.449,13.071,15.048c15.108,1.995,43.257,7.779,45.169,2.41c5.402-15.179,9.948-45.074,10.273-52.016
		C507.747,214.171,508.463,208.908,488.529,206.422z M480.213,252.01c-1.115,1.585-16.288-1.04-17.044-1.35
		c-0.753-0.31,1.287-21.97,1.453-24.51c0.147-2.23,17.91-0.023,18.672,1.234C484.055,228.64,481.329,250.425,480.213,252.01z"/>
	<path fill="#EFD58B" d="M102.861,60.428c3.733-4.25,23.527-29.925,28.139-34.185c4.611-4.26,6.582-3.296,14.298,2.144
		c4.707,3.318,5.954,4.07,4.204,6.871c-1.752,2.802-3.533,3.629-0.866,5.573c6.509,4.74,15.794,10.936,19.139,13.868
		c2.655,2.327-4.379,12.199-7.089,13.168c-3.082,1.101-12.621-7.136-17.944-11.197c-5.573-4.251-7.395-4.687-10.003-1.767
		c-1.636,1.834-14.026,17.064-16.679,20.018c-2.652,2.955-7.471-1.551-11.712-4.668C99.554,66.727,99.129,64.678,102.861,60.428z
		 M138.521,57.637c-2.836-1.648-2.922-1.664-5.598,0.949c-2.675,2.613-7.344,7.338-5.674,9.262
		c1.669,1.923,17.085,16.725,19.314,16.011c2.23-0.713,12.202-8.403,11.261-11.12C156.883,70.019,140.237,58.634,138.521,57.637z
		 M198.302,67.776c-2.834-1.647-2.919-1.665-5.596,0.949c-2.676,2.612-7.342,7.337-5.674,9.262
		c1.669,1.923,17.085,16.724,19.314,16.01c2.232-0.713,12.203-8.403,11.262-11.12C216.667,80.158,200.02,68.772,198.302,67.776z
		 M166.475,77.519c4.048,2.974,8.647,7.273,11.177,4.455c2.532-2.819,14.352-17.353,15.916-19.102
		c2.488-2.786,4.225-2.37,9.544,1.687c5.077,3.874,14.183,11.734,17.122,10.684c2.587-0.925,9.298-10.344,6.766-12.565
		c-3.194-2.797-12.055-8.71-18.264-13.232c-2.547-1.854-0.846-2.645,0.823-5.318c1.671-2.673,0.481-3.391-4.009-6.556
		c-7.363-5.191-9.245-6.111-13.645-2.045c-4.4,4.065-23.288,28.564-26.85,32.62C161.495,72.202,161.901,74.156,166.475,77.519z
		 M97.044,123.556c4.37,2.016,23.032,4.704,38.883,6.882c-0.457,0.527-0.925,1.041-1.413,1.529
		c-8.595,8.596-13.435,10.196-26.19,13.679c-2.998,0.818-5.654-0.379-4.707,4.735c0.945,5.115,2.987,14.374,7.932,14.52
		c4.945,0.146,29.853-8.288,41.612-26.461c0,0,6.294,19.482,29.833,31.08c23.539,11.598,26.505,11.685,28.626,8.412
		c2.123-3.272,7.945-11.188,5.147-12.367c-2.585-1.089-36.085-12.698-46.196-31.304c15.279,1.047,31.643,1.649,36.984,1.747
		c8.174,0.149,10.04-0.679,9.999-4.411c-0.042-3.733-0.396-10.246-0.711-13.027c-0.314-2.781-0.733-4.09-5.492-3.832
		c-4.408,0.237-11.396,1.105-45.26-1.2c-0.027-2.601,0.136-4.995,0.403-7.172c1.137-0.055,2.271-0.127,3.396-0.221
		c10.667-0.891,24.655-0.263,25.543-8.569c0.365-3.384-4.983-15.873-8.27-15.513c-3.284,0.361-8.209,4.886-26.479,5.53
		c-14.306,0.504-25.569-1.481-30.85-2.672c-2.538-0.573-3.3,1.226-4.296,5.668c-0.997,4.441-2.466,9.925,1.021,11.46
		c2.078,0.915,10.414,2.749,20.778,3.752c-0.474,1.842-1.042,3.864-1.725,5.977c-19.978-2.372-36.206-6.462-42.6-8.288
		c-3.44-0.982-5.7-0.882-7.133,4.36C94.445,113.094,91.366,120.937,97.044,123.556z M229.383,650.324
		c-0.502,2.614-6.288,3.921-13.246,4.586c0.926,8.838,1.724,16.686,1.691,17.931c-0.078,2.968-5.797,3.517-9.681,3.658
		c-3.356,0.12-6.513-0.506-7.72-2.042c-0.556-0.709-0.842-9.437-0.99-18.847c-1.231,0.012-2.383,0.02-3.42,0.029
		c-0.987,0.008-2.051-0.012-3.172-0.056c-0.784,5.796-1.83,11.262-3.273,15.183c-2.332,6.342-2.419,6.41-4.912,6.288
		c-1.615-0.079-5.433-1.691-9.218-2.796c-2.261-0.66-7.446-2.499-4.745-7.182c2.034-3.528,3.594-8.295,4.806-13.356
		c-5.959-0.973-11.013-2.155-12.753-3.148c-3.744-2.134,0.316-9.928,2.238-12.177c1.622-1.898,5.792-0.792,13.183,0.484
		c0.294-2.174,0.541-4.22,0.749-6.038c-5.369-0.322-9.485-0.815-10.216-1.541c-2.855-2.837-0.005-10.397,1.391-12.35
		c1.727-2.414,11.554-0.475,24.961-0.266c12.615,0.196,21.825-0.836,24.336-0.538c2.509,0.299,4.859,8.048,4.209,11.566
		c-0.483,2.622-5.034,3.07-9.734,3.285c0.196,2.028,0.445,4.479,0.722,7.162c6.293-0.448,11.783-1.01,13.195-1.321
		C230.565,638.225,230.233,645.902,229.383,650.324z M199.298,640.83c-0.014-3.159-0.018-5.798-0.019-7.464
		c-1.395-0.002-2.87-0.011-4.384-0.027c-0.151,2.195-0.324,4.699-0.532,7.374c0.861,0.04,1.735,0.074,2.638,0.096
		C197.715,640.827,198.488,640.833,199.298,640.83z M159.404,669.047c0.872,5.591,0.823,6.408-2.27,7.701
		c-4.024,1.681-15.095,2.193-15.647-1.834c-0.55-4.026-6.847-76.913-8.452-88.464c-1.604-11.551-3.579-17.075,7.247-18.683
		c17.112-2.542,27.224-4.56,32.338-4.858c5.112-0.298,10.253-1.399,11.735,5.022c1.484,6.422,5.427,33.429,5.952,37.648
		c0.587,4.735,1.565,6.328-9.67,8.347c-11.866,2.131-18.774,3.355-23.221,3.841c-3.172,0.346-4.014,0.55-3.523,5.822
		C154.383,628.861,158.529,663.455,159.404,669.047z M150.489,588.981l20.971-3.192c-0.628-3.801-0.326-5.288-1.884-6.915
		c-0.852-0.894-18.973,0.968-19.477,3.053C149.542,584.239,150.489,588.981,150.489,588.981z M153.702,606.144
		c3.08,0.871,19.696-1.656,20.771-3.439c0.695-1.153-0.874-6.3-0.874-6.3l-21.849,3.273
		C151.75,599.678,152.049,605.677,153.702,606.144z M256.112,659.829c0.007,0.159-0.009,0.314-0.035,0.466
		c-0.315,12.793-19.792,14.218-22.916,13.573c-3.252-0.674-4.347-12.45-1.982-12.759c2.364-0.308,5.6-1.007,5.485-3.867
		c-0.146-5.659-1.725-34.398-2.192-39.673c-0.464-5.275-1.33-5.324-4.512-5.094c-4.462,0.321-11.478,0.359-23.534,0.395
		c-11.414,0.035-10.738-1.709-11.011-6.472c-0.241-4.244-1.219-31.521-0.914-38.104c0.305-6.584,5.558-6.424,10.643-7.051
		c5.083-0.627,15.393-0.459,32.683-1.035c10.939-0.363,10.759,5.462,11.258,17.114C249.584,588.974,255.93,655.769,256.112,659.829z
		 M211.339,583.622l20.262-0.709c0,0,0.08-4.834-0.885-7.01c-0.869-1.961-18.089-0.455-18.768,0.577
		C210.709,578.361,211.273,579.769,211.339,583.622z M232.285,593.662l-21.142,0.786c0,0-0.619,5.345,0.274,6.355
		c1.378,1.561,17.237,0.98,20.111-0.429C233.068,599.618,232.285,593.662,232.285,593.662z M91.957,415.748
		c-3.965,1.511-12.826,8.464-9.742,11.581c3.085,3.117,15.529,18.255,20.02,15.651c4.491-2.604,10.99-7.145,9.261-9.553
		C109.767,431.02,94.085,414.937,91.957,415.748z M161.598,421.65c-2.822,0.908-22.941,10.9-22.82,13.174
		c0.223,4.237,4.122,14.803,8.035,12.825c3.912-1.979,22.138-9.18,21.037-14.254C166.75,428.321,164.419,420.742,161.598,421.65z
		 M80.648,471.736c2.046-3.003,3.185-13.535,5.614-12.959c2.429,0.576,64.486,7.653,72.027,8.517
		c7.544,0.866-0.947,14.272,2.344,15.103c3.294,0.832,18.409,6.11,19.29,0.341c0.881-5.769,5.696-25.537,2.42-26.544
		c-3.274-1.008-47.342-6.453-46.966-8.63c0.377-2.177,3.259-24.728,1.12-27.819c-1.21-1.748-14.95-4.261-17.104-3.864
		c-2.283,0.421-3.026,0.079-3.688,4.449c-0.661,4.372-1.217,25.953-2.134,25.338c-0.915-0.615-21.345-1.768-29.67-3.768
		c-8.326-2-12.158-2.746-13.989,1.805c-1.834,4.551-7.513,24.062-5.771,24.398C65.882,468.44,78.602,474.74,80.648,471.736z
		 M143.728,526.389c-0.467-0.809-17.994-2.881-20.487-2.754c0,0-3.638,32.754-4.134,38.204c-0.497,5.449-16.379,2.138-20.133,0.555
		c-3.755-1.583,3.96-38.952,4.212-41.711c0,0-9.972-2.091-13.712-1.9c-3.738,0.191-3.615,14.382-3.808,18.441
		c-0.193,4.059-11.185,0.753-15.755,0.336c-4.57-0.417-0.698-15.661,0.821-25.803c1.52-10.142,3.905-12.406,6.173-12.022
		c0,0,16.007,2.272,30.04,3.956c0.111-1.027,0.221-2.097,0.325-3.163c-8.744-1.3-16.84-2.605-19.674-3.481
		c-6.516-2.011-1.536-16.843,0.384-24.29c1.92-7.447,3.408-10.916,6.488-10.888c4.325,0.04,50.589,6.977,54.889,8.433
		c4.298,1.455,4.162,4.887,3.553,7.668c-0.607,2.78-2.27,19.07-3.422,23.928c-1.151,4.858-8.87,3.977-14.959,2.713
		c-1.396-0.29-4.285-0.74-7.974-1.284l-0.483,2.678c14.142,2.114,30.694,5.662,33.914,7.805c4.01,2.67,0.217,18.986-3.014,31.098
		c-3.231,12.113-19.689,3.581-23.317,2.542c-3.628-1.039,0.372-9.892,0.521-11.531c0.149-1.639,4.822-0.389,6.679,0.609
		C142.713,537.525,145.14,528.841,143.728,526.389z M106.097,484.671c1.703,0.746,23.096,4.587,24.502,4.716
		c1.408,0.128,3.146-5.977,1.314-6.615c-1.833-0.64-22.532-4.3-24.396-4.589C105.965,477.943,104.392,483.924,106.097,484.671z
		 M64.135,386.632c-10.078-0.506-13.328-26.004-18.291-82.438c-4.967-56.435-6.595-83.699,0.259-86.53
		c58.603-24.185,173.962-20.671,183.051-19.531c9.085,1.14,14.767,39.565,16.952,69.923c2.183,30.359,2.105,88.913,1.244,100.608
		c-0.862,11.698-53.05,11.991-103.353,16.304C93.692,389.281,74.211,387.141,64.135,386.632z M85.508,357.98
		c4.117,0.616,126.6-5.597,130.534-7.071c3.939-1.474,0.355-118.712-5.901-120.682c-6.258-1.97-84.518-2.057-136.988,11.979
		C67.579,243.698,81.39,357.365,85.508,357.98z"/>
	<path fill="#D6CEC1" d="M-5,763.292c10.831-39,50.331-94,102.331-87.5s75.941,54.5,66.471,116.5s-11.971,54.598-11.971,54.598H-5
		V763.292z"/>
	<path fill="#32322B" d="M55.5,683.841c-14.313,2.793-25.669,4.646-39.669-8.577C1.831,662.042-5,662.042-5,662.042v36.25
		c0,0,9.831,23.75,37.331,13.25S65.452,681.899,55.5,683.841z"/>
	<g>
		<path fill="#32322B" d="M55.907,744.676c-2.121,7.018-9.618,10.972-16.748,8.83c-7.127-2.159-11.185-9.597-9.068-16.623
			c2.132-7.024,9.62-10.972,16.75-8.814C53.971,730.211,58.026,737.661,55.907,744.676"/>
		<path fill="#FFFFFF" d="M53.856,739.021c-0.482,1.616-2.205,2.522-3.843,2.025c-1.64-0.491-2.566-2.199-2.083-3.808
			c0.491-1.614,2.212-2.525,3.849-2.027C53.414,735.704,54.346,737.413,53.856,739.021"/>
		<path fill="#FFFFFF" d="M46.052,743.475c-0.871,2.862-3.918,4.478-6.826,3.595c-2.902-0.878-4.557-3.904-3.692-6.763
			c0.865-2.862,3.918-4.478,6.822-3.594C45.26,737.589,46.915,740.617,46.052,743.475"/>
	</g>
	<g>
		<path fill="#32322B" d="M146.023,779.521c-2.121,7.018-9.618,10.972-16.748,8.829c-7.127-2.159-11.186-9.597-9.068-16.622
			c2.132-7.024,9.62-10.973,16.75-8.815C144.086,765.055,148.142,772.505,146.023,779.521"/>
		<path fill="#FFFFFF" d="M143.972,773.864c-0.482,1.617-2.205,2.522-3.843,2.025c-1.64-0.491-2.566-2.199-2.083-3.808
			c0.491-1.614,2.212-2.525,3.849-2.027C143.529,770.548,144.461,772.257,143.972,773.864"/>
		<path fill="#FFFFFF" d="M136.167,778.318c-0.871,2.862-3.918,4.477-6.826,3.595c-2.902-0.878-4.557-3.904-3.692-6.764
			c0.865-2.861,3.918-4.477,6.822-3.594C135.375,772.433,137.03,775.46,136.167,778.318"/>
	</g>
	<path fill="#32322B" d="M97.225,775.895c-2.189,5.298-10.138,7.056-17.768,3.924c-7.62-3.146-12.036-9.989-9.845-15.303
		c2.172-5.291,10.13-7.056,17.763-3.916C94.989,763.735,99.412,770.582,97.225,775.895"/>
	<path fill="#32322B" d="M158.214,729.792c9.513-1.277,31.117,15.504,43.117,29.252c12,13.748,25.999,18.516,37.666,19.799
		c11.667,1.283,6.668,32.95-20.666,29.283s-44.487-16.956-52.577-36.811C157.664,751.459,150.764,730.792,158.214,729.792z"/>
	<path fill="#FFFFFF" d="M98.978,792.381c-4.611-0.173-11.884,1.158-24.973-3.87c-13.089-5.028-14.786-9.708-17.384-12.788
		c-2.063-2.445-3.394-1.732-4.281,1.862c-2.255,9.102-3.983,26.195,11.943,33.303c20.087,8.966,32.135-6.453,36.755-14.358
		C102.493,794.039,101.736,792.484,98.978,792.381z"/>
	<circle fill="#F2988A" cx="133.165" cy="809.626" r="13.833"/>
	<circle fill="#D6CEC1" cx="133.165" cy="809.626" r="13.833"/>
	<circle fill="#E8B0AF" cx="133.165" cy="809.626" r="12.833"/>
	<circle fill="#EAA8A4" cx="133.165" cy="809.626" r="10.822"/>
	<circle fill="#EF9F97" cx="133.165" cy="809.626" r="8.663"/>
	<circle fill="#F2988A" cx="133.165" cy="809.626" r="6.358"/>
	<circle fill="#F2988A" cx="19.664" cy="765.462" r="13.833"/>
	<circle fill="#D6CEC1" cx="19.664" cy="765.462" r="13.833"/>
	<circle fill="#E8B0AF" cx="19.664" cy="765.462" r="12.833"/>
	<circle fill="#EAA8A4" cx="19.664" cy="765.462" r="10.822"/>
	<circle fill="#EF9F97" cx="19.664" cy="765.462" r="8.663"/>
	<circle fill="#F2988A" cx="19.664" cy="765.462" r="6.358"/>
	<g>
		<g>
			<path fill="#D6CEC1" d="M428.18,68.035c-0.01,3.03-1.244,11.32,18.77,21.13c20.014,9.812,20.406,28.255,21.19,50.231
				c0.785,21.976-6.279,61.218,0,62.396c6.278,1.178,9.811-14.912,9.811-14.912l10.988,4.709c0,0-5.102,25.506,2.747,21.19
				c7.849-4.316,8.634-16.09,10.203-15.697c0,0,9.292,14.715,37.673,5.494c33.998-11.047,43.952-34.142,41.205-38.458
				c-2.748-4.317-16.875,22.761-16.09,5.101c0.785-17.66,0.141-80.553-11.381-114.195c-9.81-28.647-35.318-49.445-68.674-40.813
				c-33.356,8.634-50.857,40.515-55.553,49.879C429.07,64.091,428.189,65.489,428.18,68.035z"/>
			<ellipse fill="#32322B" cx="429.07" cy="69.557" rx="6.279" ry="5.466"/>
			
				<ellipse transform="matrix(0.1575 -0.9875 0.9875 0.1575 289.8288 691.3901)" fill="#32322B" cx="550.133" cy="175.829" rx="9.222" ry="6.279"/>
			
				<ellipse transform="matrix(0.9713 -0.238 0.238 0.9713 -23.1827 128.8057)" fill="#32322B" cx="521.928" cy="160.427" rx="8.239" ry="10.397"/>
			
				<ellipse transform="matrix(0.1285 -0.9917 0.9917 0.1285 341.0291 663.5602)" fill="#32322B" cx="548.065" cy="137.743" rx="11.759" ry="8.437"/>
			<path fill="#32322B" d="M533.667,23.162c-10.988-6.867-11.576-3.727-16.285,16.679c-4.709,20.405-20.362,66.593,16.088,74.441
				c36.453,7.85,39.78-23.97,32.573-47.713C557.213,37.486,533.667,23.162,533.667,23.162z"/>
			<g>
				<ellipse fill="#32322B" cx="493.183" cy="72.92" rx="8.96" ry="8.83"/>
				<ellipse fill="#FFFFFF" cx="497.699" cy="69.715" rx="2.058" ry="2.028"/>
				<ellipse fill="#FFFFFF" cx="491.99" cy="74.051" rx="3.651" ry="3.597"/>
			</g>
			<path d="M458.388,97.917c0,0,5.468,2.225,8.471-2.243c0,0,1.099-1.538,1.538,0.439c0.439,1.978-4.175,5.055-8.57,3.443
				L458.388,97.917z"/>
		</g>
		<circle fill="#F2988A" cx="493.182" cy="100.007" r="9.394"/>
		<circle fill="#D6CEC1" cx="493.182" cy="100.007" r="9.394"/>
		<circle fill="#E8B0AF" cx="493.182" cy="100.007" r="8.715"/>
		<circle fill="#EAA8A4" cx="493.182" cy="100.007" r="7.35"/>
		<circle fill="#EF9F97" cx="493.182" cy="100.007" r="5.883"/>
		<circle fill="#F2988A" cx="493.183" cy="100.007" r="4.318"/>
	</g>
	<path fill="#EFD58B" d="M525.55,510.195c-9.069-0.472-123.953,2.853-181.74,26.661c-6.761,2.786-4.539,25.917,1.652,73.713
		c6.184,47.792,9.981,69.331,20.02,69.211c10.042-0.121,29.473,0.635,79.443-5.791c49.967-6.427,101.897-9.536,102.497-19.547
		c0.598-10.005-0.612-59.884-3.455-85.619C541.122,543.084,534.62,510.668,525.55,510.195z M515.874,641.033
		c-3.884,1.472-125.642,13.472-129.755,13.172c-4.112-0.299-20.363-96.354-14.846-97.929c51.907-14.83,129.79-19.04,136.065-17.706
		C513.608,539.906,519.76,639.562,515.874,641.033z M489.689,478.587c-0.872,5.222-24.346,2.751-43.581,3.48
		c0.206,2.129,0.399,4.181,0.57,6.104c11.636-0.763,21.073-1.086,22.817-0.316c4.717,2.086,3.937,13.697,2.774,18.048
		c-1.165,4.353-69.968,7.259-74.173,6.142c-4.201-1.117-7.318-18.941-2.981-19.41c3.235-0.35,13.799-1.4,25.999-2.466
		c-0.371-2.018-0.769-4.142-1.172-6.321c-17.724,1.167-36.768,2.237-42.616,2.374c-8.347,0.195-10.336-10.604-8.007-21.101
		c1.413-6.367,24.631-4.806,48.467-6.155c-0.32-5.369-1.409-9.428,0.403-9.811c5.542-1.173,23.002-3.765,24.069,0.255
		c0.25,0.929,0.697,4.099,1.226,8.417c22.235-0.143,43.424-1.49,45.385-0.365C493.691,460.23,490.642,472.872,489.689,478.587z
		 M524.836,289.147c1.38,2.323-5.636,9.154-8.983,12.585c-3.347,3.431-21.811-10.555-25.176-12.758
		c-3.365-2.202,1.226-7.735,7.104-13.393C501.972,271.548,523.457,286.824,524.836,289.147z M445.408,401.293
		c2.502-1.241,13.739,2.858,14.777,7.412c0.912,4.003-12.343,22.229-16.23,23.179c-2.686,0.655-13.4-6.314-13.923-8.908
		C428.89,417.322,442.908,402.531,445.408,401.293z M566.432,418.951c1.498,2.357-4.671,14.348-7.912,14.021
		c-4.086-0.412-23.431-13.208-24.787-16.973c-0.936-2.601,3.99-11.372,6.514-12.167
		C545.749,402.098,564.935,416.596,566.432,418.951z M512.061,418.218c1.326,1.625-2.01,10.167-5.506,11.471
		c-3.072,1.146-20.762-5.849-22.045-8.496c-0.882-1.827,3.674-10.947,5.676-11.641C494.547,408.037,510.737,416.595,512.061,418.218
		z M530.196,356.413c-4.552-0.523-46.144-3.366-56.281-3.59c-4.039-0.09-7.646,1.777-7.58,5.832
		c0.067,4.055-1.688,42.114-1.688,42.114s0.505,5.596,7.779,6.328c9.749,0.984,44.931,1.364,49.851,1.701
		c6.611,0.452,11.078,0.891,11.658-8.117c0.58-9.007,3.407-38.284,3.407-38.284S537.674,357.273,530.196,356.413z M520.034,369.206
		c0.638,0.554,0.011,5.951,0.011,5.951l-37.203-2.421c0,0,0.205-5.326,0.428-5.514C485.693,365.168,519.313,368.579,520.034,369.206
		z M482.246,393.03c-0.677-0.128,0.004-6.591,0.004-6.591l36.725,2.204c0,0,0.216,5.203,0.056,5.512
		C518.125,395.928,484.51,393.461,482.246,393.03z M551.772,334.944c-3.421-0.598-26.649,0.321-26.649,0.321
		c0.292-0.94,2.962-7.132,4.506-11.969c4.434,0.125,8.788,0.513,10.056,0.336c2.286-0.319,3.428-16.337,0.467-17.294
		c-2.964-0.957-25.859-1.696-45.115-4.031c-19.258-2.334-34.616-4.353-35.03-1.568c-0.807,5.437-1.417,16.478,1.326,16.688
		c0.716,0.055,5.865,0.613,13.195,1.366c0.445,6.582,0.897,15.361,0.897,15.361s-26.229-0.949-27.289,1.818
		c-1.059,2.767-4.072,15.367,1.464,15.294c5.534-0.073,100.688-0.564,103.157-0.446
		C555.225,350.933,555.194,335.543,551.772,334.944z M496.352,334.415l-0.426-13.529c4.345,0.401,8.76,0.788,13.025,1.132
		l-3.988,12.319L496.352,334.415z M500.962,433.194c12.596-0.307,22.981-6.93,26.879-9.089c3.801-2.106,12.256,8.426,10.217,12.533
		c-0.97,1.955-6.973,12.846-39.113,14.996c-32.142,2.149-37.174-15.28-40.342-22.561c-3.171-7.283,2.277-8.583,10.993-11.61
		c4.819-1.674,6.519-1.036,7.873,2.784C481.739,432.29,488.866,433.489,500.962,433.194z M495.202,694.616
		c1.273,3.143-7.103,9.577-9.931,10.575c-2.824,0.998-15.995-13.204-18.687-15.738c-2.692-2.534,8.487-9.035,11.056-9.646
		C481.555,678.874,493.926,691.474,495.202,694.616z M495.71,710.498c2.287,0.969,1.032,10.932-0.118,13.65
		c-1.298,3.07-11.774,9.608-11.774,9.608s13.15,8.678,15.412,10.31c2.263,1.634-2.591,10.729-6.27,12.137
		c-3.963,1.519-10.958-4.563-10.958-4.563s-5.264,52.937-6.798,56.637c-1.533,3.696-17.033-1.027-18.375-2.403
		c-1.342-1.378,7.3-56.239,7.3-56.239s-14.544,10.663-17.625,12.313c-3.081,1.651-9.686-8.102-10.007-11.869
		c-0.321-3.77,31.671-24.429,31.033-26.001c0,0-20.628-2.665-23.797-4.474c-3.479-1.99-0.992-13.423,0.659-14.783
		C447.27,702.452,493.422,709.527,495.71,710.498z M531.821,698.926c0.234,2.883-10.2,8.434-12.318,7.469
		c-2.535-1.154-13.552-17.327-13.955-18.889c-0.405-1.562,8.634-7.209,10.182-7.776C518.17,678.839,531.585,696.044,531.821,698.926
		z M563.377,686.802c-0.892,1.954-8.56,16.79-10.379,18.707c-1.818,1.918-6.57-1.314-10.325-3.341
		c-3.755-2.026-5.294-4.235-4.543-5.641c0.753-1.406,5.228-8.855,8.824-14.569c3.594-5.715,3.591-5.323,5.416-4.76
		C563.85,680.745,564.269,684.848,563.377,686.802z M570.724,784.967c-0.644,0.471-15.26,0.259-31.507-0.272
		c-1.041,16.567-1.877,30.017-2.018,31.399c-0.38,3.742-16.967,3.699-17.566,1.244c-0.23-0.942,0.467-15.511,1.446-33.35
		c-13.439-0.611-24.731-1.356-26.221-2.009c-3.884-1.7-1.676-16.518,0.686-17.432c1.052-0.407,12.771-0.091,26.61,0.464
		c0.214-3.632,0.43-7.25,0.641-10.79c-7.238-0.571-13.01-1.069-14.091-1.112c-3.248-0.128-1.402-16.351,1.345-16.841
		c1.95-0.348,7.343-0.188,13.835,0.206c0.199-3.131,0.387-6.032,0.556-8.615c-7.598-0.131-13.675-0.291-14.656-0.407
		c-2.775-0.331-2.887-8.342-2.848-11.776c0.032-2.713,0.727-5.336,2.29-5.482c11.429-1.066,47.464,0.319,49.76,1.072
		c2.294,0.754,4.205,16.127,0.7,16.653c-1.324,0.197-8.367,0.226-16.768,0.167c-0.209,2.867-0.438,6.18-0.685,9.81
		c8.121,0.732,14.793,1.456,15.698,1.665c2.302,0.532,1.074,13.985,0.301,15.944c-0.313,0.792-7.959,0.571-17.162,0.018
		c-0.219,3.38-0.44,6.834-0.66,10.29c14.586,0.697,27.534,1.427,29.376,1.654C573.868,767.978,572.159,783.919,570.724,784.967z
		 M415.119,245.673c1.964-2.812,3.875-5.619,5.7-8.379c10.651-16.103,15.867-40.701,9.797-41.809
		c-3.129-0.571-18.068-1.878-33.505-2.991c2.719-12.476,5.211-23.691,5.448-25.975c0.566-5.473-14.182-7.958-18.81-6.294
		c-3.636,1.308-6.122,16.282-8.657,30.865c-5.799-0.304-10.608-0.483-13.438-0.45c-5.278,0.059-8.416,19.598-4.474,20.757
		c1.961,0.578,7.22,1.112,13.609,1.6c-2.573,12.072-5.154,23.834-4.928,27.469c0.137,2.174,7.325,7.183,16.33,12.58
		c-4.576,5.744-8.87,10.786-11.902,13.869c-5.309,5.395,7.327,22.26,13.435,16.597c5.766-5.344,11.854-12.182,17.825-19.635
		c7.519,3.971,13.848,7.066,15.988,7.879c4.957,1.883,14.098-15.247,11.234-17.872C427.115,252.369,421.547,249.19,415.119,245.673z
		 M389.922,231.275c-0.489-0.841,0.713-7.804,2.543-16.887c6.77,0.406,12.228,0.753,13.774,1.036
		c2.133,0.39-3.147,9.205-10.528,19.648C392.475,233.227,390.246,231.833,389.922,231.275z M485.529,201.422
		c-18.39-2.294-27.381-2.478-34.593-3.538c-6.143-0.903-11.123,1.209-11.674,7.754c-0.903,10.719-3.05,35.252-3.355,45.032
		c-0.304,9.781,0.962,13.449,13.071,15.048c15.108,1.995,43.257,7.779,45.169,2.41c5.402-15.179,9.948-45.074,10.273-52.016
		C504.747,209.171,505.463,203.908,485.529,201.422z M477.213,247.01c-1.115,1.585-16.288-1.04-17.044-1.35
		c-0.753-0.31,1.287-21.97,1.453-24.51c0.147-2.23,17.91-0.023,18.672,1.234C481.055,223.64,478.329,245.425,477.213,247.01z"/>
</g>
</svg>
