<?xml version="1.0" encoding="utf-8"?>
<!-- Generator: Adobe Illustrator 21.1.0, SVG Export Plug-In . SVG Version: 6.00 Build 0)  -->
<svg version="1.1" id="line" xmlns="http://www.w3.org/2000/svg" xmlns:xlink="http://www.w3.org/1999/xlink" x="0px" y="0px"
	 viewBox="0 0 595.28 841.89" enable-background="new 0 0 595.28 841.89" xml:space="preserve">
<g>
	<path fill="#96D5D2" d="M297.64,0v928.452h297.64V0H297.64z M521.361,379.947c-3.694,0.871-118.384-4.143-122.038-5.045
		c-3.658-0.901-1.357-103.594,3.859-103.506c64.274,1.085,112.757,5.49,124.371,6.656
		C533.356,278.634,525.051,379.075,521.361,379.947z"/>
	<path fill="#F299C0" d="M207.332,273.472c0.001,0.005,0.001,0.01,0.002,0.014c0.081-0.005,0.169-0.01,0.248-0.014
		C207.62,273.47,207.294,273.475,207.332,273.472z"/>
	<path fill="#F299C0" d="M0,0v928.452h297.64V0H0z M215.052,385.538c-1.339,5.356-134.014,10.321-137.494,10.588
		c-0.009,0.001-0.018-0.013-0.027-0.014c-0.094,0.005-0.176,0.01-0.223,0.014c-0.043,0.003-0.106-0.236-0.182-0.652
		c-0.29-0.846-0.59-2.494-0.893-4.832c-0.019,0.001-0.038,0.003,0,0c-0.807-6.749-1.723-17.543-1.979-19.988
		c-1.648-25.351-2.935-64.028-2.499-89.355c0.282-2.643,0.458-11.912,1.147-18.49c-0.09,0.009-0.044,0.005,0,0
		c0.362-3.392,0.838-5.655,1.44-6.506c0.068-0.228,0.133-0.369,0.193-0.384c12.17-2.905,90.679-9.061,118.632-9.008
		c3.524,0.002,6.271,0.1,8.005,0.313c0.985,0.121,1.959,2.229,2.906,5.828c0.12-0.004,0.265-0.008,0,0.002
		c1.562,6.517,2.983,16.635,3.504,20.42c3.195,25.003,5.755,62.37,6.93,87.021c0.041-0.004,0.02-0.002,0,0
		c0.021,1.982,0.547,13.3,0.691,20.018c0.077-0.008,0.038-0.004,0,0C215.229,383.244,215.182,385.01,215.052,385.538z"/>
	<path fill="#F299C0" d="M214.511,360.493L214.511,360.493C214.473,360.497,214.492,360.495,214.511,360.493z"/>
	<path fill="#FFEDB3" d="M107.382,23.963c-0.413-0.217-0.776-0.369-1.235-0.456c-1.372-0.254-2.652,0.58-2.705,2.047
		c-0.1,2.955,2.746,5.169,4.924,6.682c2.289,1.588,5.188,3.245,8.036,3.387c2.007,0.1,2.658-2.336,1.52-3.66
		c-1.288-1.494-3.021-2.485-4.644-3.569c-1.807-1.205-3.189-2.907-5.04-4.063c-0.362,1.33-0.724,2.661-1.084,3.989
		c1.442,0.068,3.311,2.496,4.401,3.339c0.601,0.463,1.215,0.848,1.875,1.221c0.415,0.229,0.834,0.466,1.258,0.684
		c0.132,0.069,0.899,0.646,0.469,0.224c1.965,1.924,4.98-1.11,3.008-3.041c-1.332-1.304-3.333-1.86-4.767-3.097
		c-1.808-1.555-3.688-3.485-6.214-3.607c-2.221-0.106-2.814,2.909-1.084,3.992c1.65,1.033,2.912,2.586,4.512,3.707
		c1.485,1.041,3.1,1.868,4.302,3.265c0.507-1.222,1.013-2.441,1.519-3.661c-1.738-0.086-3.647-1.349-5.074-2.25
		c-0.995-0.626-3.682-2.174-3.637-3.508c-0.9,0.684-1.803,1.364-2.703,2.049c0.076,0.01,0.15,0.024,0.226,0.032
		C107.676,28.944,109.826,25.245,107.382,23.963"/>
	<path fill="#FFEDB3" d="M123.032,14.801c-2.505-2.136-6.246-2.242-8.906-0.283c-3.129,2.299-2.621,6.259,0.012,8.758
		c2.842,2.701,7.752,2.893,9.72-0.951c1.467-2.86,0.354-7.811-3.226-8.429c-2.695-0.465-3.842,3.66-1.13,4.127
		c0.425,0.069,0.507,0.264,0.627,0.845c0.102,0.479,0.116,1.182-0.089,1.563c-0.725,1.361-2.605,0.241-3.314-0.632
		c-0.195-0.24-0.377-0.514-0.496-0.792c-0.137-0.321-0.084-0.323-0.078-0.396c0.012-0.122,0.049-0.209,0.13-0.313
		c0.196-0.263,0.332-0.35,0.654-0.526c0.813-0.441,2.229-0.663,3.088,0.071C122.103,19.618,125.133,16.596,123.032,14.801"/>
	<path fill="#FFEDB3" d="M171.62,17.311c0.058-0.534,0.659-0.758,1.33-0.848c0.873-0.117,1.959,0.08,2.703,0.616
		c0.359,0.258,0.568,0.431,0.074,1.171c-0.646,0.966-2.334,1.486-3.242,0.538c-1.285-1.335,0.236-3.278,1.602-3.693
		c0.931-0.286,1.512-0.03,1.977,0.605c1.135,1.54,0.695,3.612-1.453,3.596c-2.758-0.025-2.785,4.251-0.032,4.276
		c4.525,0.039,7.351-4.031,5.969-8.314c-1.562-4.842-7.279-5.971-10.833-2.351c-2.129,2.168-2.587,5.671-0.824,8.204
		c1.504,2.164,4.407,2.876,6.863,2.138c4.521-1.366,6.272-7.425,1.83-10.005c-3.898-2.264-9.696-0.937-10.24,4.037
		C167.04,20.018,171.323,20.021,171.62,17.311"/>
	<path fill="#FFEDB3" d="M179.94,35.447c2.596-1.858,5.48-3.261,8.152-5.007c0.637-0.416,1.431-0.744,2.023-1.202
		c0.803-0.625,1.398,0.215,0.148-1.227c-1.02-1.177-0.684-0.805-1.635-0.083c-1.66,1.263-3.672,2.013-5.502,2.982
		c-0.585,0.306-1.151,0.643-1.751,0.924c-0.319,0.151-0.667,0.27-0.974,0.434c-0.614,0.331-1.246,0.006,0.012,0.248
		c0.426,0.325,0.853,0.653,1.28,0.981c-0.014-0.029-0.026-0.061-0.04-0.09c0.002,0.718,0.005,1.435,0.005,2.15
		c-0.021,0.015-0.046,0.025-0.069,0.04c1.718-2.117-1.303-5.152-3.041-3.008c-1.068,1.319-1.262,3.453,0.734,4.049
		c1.273,0.385,2.72-0.409,3.836-0.918c3.008-1.368,6.572-2.863,8.986-5.124c2.57-2.41,1.757-6.942-2.388-5.789
		c-1.455,0.405-2.765,1.275-4.011,2.099c-2.592,1.708-5.406,3.044-7.934,4.854C175.557,33.346,177.695,37.055,179.94,35.447"/>
	<path fill="#FFEDB3" d="M114.428,37.29c4.398,1.486,8.883,1.206,13.451,0.861c5.84-0.44,11.5-0.025,17.342,0.109
		c11.689,0.273,23.608-2.236,35.223-0.362c-0.11-0.835-0.221-1.668-0.331-2.504c-0.058,0.043-0.114,0.084-0.171,0.123
		c-1.424,1.011-0.055,3.385,1.385,2.361c0.059-0.039,0.115-0.078,0.172-0.122c0.846-0.602,0.943-2.294-0.334-2.5
		c-10.526-1.701-21.193,0.148-31.777,0.293c-5.645,0.079-11.291-0.661-16.925-0.458c-5.81,0.216-11.654,1.47-17.31-0.444
		C113.478,34.079,112.764,36.723,114.428,37.29"/>
	<path fill="#FFEDB3" d="M120.34,19.447c-0.161-0.083-0.323-0.163-0.485-0.246c-0.747-0.376-1.803-0.082-2.006,0.827
		c-1.128,5.066-3.84,10.003-2.802,15.317c0.882-0.234,1.764-0.47,2.646-0.707c-0.546-2.618-1.696-9.698,0.954-11.488
		c1.45-0.981,0.079-3.354-1.387-2.361c-4.08,2.755-3.068,10.449-2.213,14.557c0.361,1.729,2.981,1.012,2.646-0.707
		c-0.913-4.678,1.806-9.419,2.799-13.891c-0.669,0.277-1.337,0.553-2.006,0.826c0.162,0.081,0.323,0.162,0.485,0.244
		C120.541,22.606,121.918,20.239,120.34,19.447"/>
	<path fill="#FFEDB3" d="M124.678,19.504c5.627-2.832,10.35-5.301,16.633-6.475c7.059-1.318,13.092-0.535,19.429,2.922
		c4.022,2.195,10.252,6.067,12.886,9.855c0.289,0.412,4.716,10.312,4.043,10.948c0.863-0.118,1.729-0.232,2.591-0.347
		c-0.072-0.052-0.143-0.104-0.215-0.152c-2.242-1.6-4.364,2.116-2.138,3.703c0.069,0.052,0.143,0.102,0.213,0.153
		c0.781,0.558,1.951,0.261,2.59-0.348c2.49-2.369-0.248-8.586-1.114-11.151c-2.276-6.75-7.356-10.109-12.992-14.061
		c-6.099-4.275-13.281-6.975-20.803-6.509c-8.827,0.547-15.632,3.921-23.288,7.771C120.054,17.05,122.223,20.738,124.678,19.504"/>
	<path fill="#FFEDB3" d="M123.17,17.617c-2.952,2.664-4.451,8.059-5.603,11.704c-0.879,2.783-2.934,8.863,0.699,10.639
		c1.307,0.64,2.646,0.066,3.133-1.286c1.213-3.365,2.077-6.814,2.986-10.27c0.713-2.715,1.444-5.632,3.652-7.534l-3.586-2.069
		c-0.454,2.16-1.511,4.081-2.066,6.203c-0.544,2.072-0.604,4.239-1.049,6.328c-0.57,2.666-1.895,5.475-0.192,7.981
		c0.935,1.377,2.773,1.37,3.696-0.013c1.889-2.819,0.594-5.771,1.545-8.785l-3.566,0.955c4.198,4.404,12.588-1.33,10.537-6.859
		c-1.078-2.905-4.569-3.066-7.197-2.47c-1.385,0.313-2.416,0.826-3.043,2.138c-0.903,1.889,0.533,3.257,0.288,5.055
		c-0.371,2.722,3.911,2.719,4.278,0.029c0.135-0.988-0.378-1.615-0.483-2.548c-0.839-0.319-0.817-0.502,0.065-0.541
		c0.471-0.073,0.94-0.1,1.41-0.081c1.423,0.899-1.623,3.521-2.848,2.237c-1.148-1.203-3.1-0.523-3.567,0.958
		c-0.782,2.481,0.331,5.602-1.122,7.771c1.232-0.005,2.466-0.006,3.697-0.01c-0.93-1.373,0.815-5.768,1.058-7.379
		c0.522-3.472,1.974-6.456,2.687-9.84c0.455-2.157-1.953-3.476-3.583-2.072c-5.226,4.507-5.527,13.589-7.722,19.684
		c1.043-0.43,2.087-0.858,3.133-1.286c0.53,0.258-0.005-0.009,0.154-0.927c0.115-0.662,0.189-1.312,0.33-1.971
		c0.375-1.761,0.963-3.494,1.582-5.181c0.848-2.304,1.851-5.851,3.738-7.553C128.254,18.781,125.21,15.774,123.17,17.617"/>
	<path fill="#FFEDB3" d="M125.355,17.765c-0.16,2.353,0.771,6.705,4.128,4.513c2.353-1.536,2.544-5.481,1.192-7.648
		c-0.657-1.053-2.479-1.556-3.366-0.42c-1.735,2.227-4.799,8.77-0.655,10.272c4.28,1.548,6.103-5.614,5.899-8.509
		c-0.148-2.088-2.823-2.985-3.99-1.084c-1.4,2.28-2.862,10.605,1.743,10.314c4.216-0.265,4.959-8.919,4.24-11.872
		c-0.382-1.564-2.479-2.107-3.586-0.951c-2.605,2.724-0.815,6.504-0.834,9.799c-0.014,2.343,0.116,5.299-0.202,7.592
		c-0.337,2.438-1.958,4.381-2.26,6.862c-0.256,2.091,3.139,2.988,3.991,1.087c0.163-0.367,0.327-0.731,0.49-1.1
		c1.116-2.491-2.579-4.651-3.704-2.138c-0.164,0.365-0.328,0.732-0.49,1.095c1.328,0.363,2.659,0.725,3.99,1.087
		c0.222-1.801,1.641-3.4,2.031-5.198c0.447-2.061,0.066-4.214,0.209-6.302c0.126-1.875,0.293-3.662,0.072-5.54
		c-0.125-1.052-1.048-3.403-0.252-4.233c-1.196-0.315-2.391-0.633-3.588-0.951c0.464,1.899-1.449,4.702-0.947,6.16
		c-0.598,1.049,0.092,1.222,2.063,0.523c-0.007-0.432,0.01-0.861,0.054-1.289c0.399-0.847,0.152-1.941,0.683-2.807
		c-1.33-0.362-2.662-0.723-3.991-1.084c0.042,0.587-1.052,4.109-0.962,4.273c1.249,2.235,2.633-2.481,3.038-3.002l-3.366-0.419
		c0.483,0.772-0.271,1.964,0.34,1.815c0.687,0.183,1.372,0.363,2.059,0.544c0.506-0.144,0.589-0.599,0.25-1.358
		C129.819,15.043,125.538,15.031,125.355,17.765"/>
	<path fill="#FFEDB3" d="M129.249,29.347c-3.505,0.682-3.922,5.616-4.433,8.439c-0.497,2.763,3.082,3.646,4.129,1.129
		c0.99-2.389,2.258-8.71-2.211-8.391c-3.674,0.267-4.004,6.132-3.259,8.746c0.62,2.165,3.4,1.919,4.13,0.01
		c1.004-2.624,0.803-5.845-0.948-8.096c-1.007-1.295-3.506-1.496-3.907,0.52c-0.145,0.715-0.588,5.694-1.979,5.042
		c-0.361,1.329-0.723,2.659-1.085,3.989c4.745-0.399,9.473-0.903,14.239-0.978c1.719-0.024,3.034-2.411,1.52-3.659
		c-1.275-1.048-2.561-2.006-3.962-2.883c-1.497-0.938-3.768,0.646-3.136,2.401c0.854,2.378,2.502,2.955,4.788,3.825
		c1.745,0.669,3.384-1.653,2.409-3.144c-0.61-0.933-1.219-1.868-1.828-2.804c-1.23,0.72-2.461,1.443-3.689,2.167
		c1.454,2.124,3.23,3.44,5.4,4.788c2.099,1.297,4.248-1.655,2.574-3.374c-3.409-3.499-2.542-7.274,0.992-10.243
		c-1.125-0.859-2.249-1.716-3.373-2.575c-1.26,2.017-2.278,4.147-3.656,6.087c1.236,0.712,2.471,1.426,3.705,2.141
		c0.812-1.873,1.746-4.155,3.425-5.431c0.917-0.693,2.183-0.838,3.11-1.521c1.459-1.072,1.942-2.172,1.803-3.983
		c-0.31-4.012-3.598-8.473-7.171-10.121c-1.053-0.488-2.295-0.29-2.921,0.782c-2.323,3.98-1.367,9.519-1.869,13.958
		c-0.272,2.403,3.702,2.934,4.202,0.58c0.831-3.915,2.234-7.592,2.269-11.631c-1.427-0.01-2.852-0.022-4.279-0.032
		c0.158,3.118,0.104,6.161,0.801,9.215c0.496,2.168,3.506,1.934,4.13,0.013c0.69-2.123,1.134-4.175,1.294-6.392
		c-1.426-0.008-2.852-0.021-4.277-0.03c0,1.924,0.188,3.191,1.023,4.87c0.846,1.705,3.429,1.158,3.908-0.518
		c0.081-0.283,0.164-0.568,0.244-0.854c0.76-2.652-3.368-3.774-4.127-1.13c-0.08,0.287-0.162,0.57-0.244,0.855
		c1.303-0.173,2.604-0.345,3.907-0.518c-0.419-0.85-0.565-1.741-0.435-2.676c0-2.779-4.082-2.752-4.277-0.03
		c-0.14,1.915-0.559,3.5-1.143,5.292c1.375,0.006,2.752,0.008,4.127,0.01c-0.612-2.687-0.514-5.347-0.652-8.075
		c-0.14-2.731-4.256-2.802-4.279-0.032c-0.029,3.634-1.37,7.012-2.115,10.533l4.203,0.579c0.365-3.227-0.377-8.985,1.293-11.848
		c-0.974,0.258-1.947,0.519-2.92,0.781c1.621,0.749,2.831,2.017,3.737,3.541c1.462,2.453,1.097,2.94-0.984,4.429
		c-2.663,1.903-4.166,4.2-5.487,7.243c-1.088,2.519,2.092,4.415,3.705,2.141c1.376-1.943,2.398-4.076,3.654-6.088
		c1.364-2.184-1.607-4.057-3.373-2.573c-5.523,4.646-6.055,11.06-0.959,16.294c0.859-1.125,1.717-2.249,2.574-3.371
		c-1.484-0.923-2.836-1.771-3.85-3.252c-1.539-2.247-5.205-0.161-3.689,2.167c0.606,0.933,1.217,1.869,1.828,2.803l2.408-3.149
		c-0.631-0.188-1.224-0.458-1.784-0.802c-1.044,0.801-2.09,1.601-3.136,2.405c1.104,0.635,2.135,1.378,3.092,2.223
		c0.506-1.221,1.014-2.441,1.52-3.662c-4.764,0.073-9.493,0.581-14.238,0.979c-1.908,0.158-3.207,2.992-1.084,3.99
		c6.1,2.865,7.295-2.876,8.243-7.619c-1.303,0.174-2.606,0.345-3.908,0.519c1.085,1.399,1.126,3.199,0.511,4.802
		c1.378,0.004,2.754,0.008,4.129,0.011c-0.245-0.863,0.641-5-1.903-3.941c-0.017,0.009-0.712,3.148-0.888,3.566
		c1.377,0.376,2.753,0.754,4.129,1.129c0.141-0.788,0.587-5.275,1.41-5.435C133.06,32.954,131.94,28.828,129.249,29.347"/>
	<path fill="#FFEDB3" d="M137.152,30.939c3.97,0.681,7.399-1.998,11.45-1.893c2.691,0.072,5.541,0.716,7.848,2.173
		c3.77,2.377,3.164,6.476,0.715,9.731c-0.778,1.036,0.023,2.931,1.289,3.133c8.068,1.292,9.805-7.617,7.151-13.612
		c-1.046-2.367-4.272-0.553-3.909,1.636c0.469,2.83-0.523,4.998-1.336,7.525c-0.414,1.29,0.706,2.74,2.047,2.705
		c4.801-0.132,5.829-4.704,5.127-8.781c-1.305,0.546-2.609,1.092-3.911,1.634c0.921,1.318,0.508,4.246,0.435,5.963
		c-0.063,1.501,1.389,2.302,2.693,2.08c5.826-0.981-0.377-8.689,1.174-9.558c-1.051-0.429-2.1-0.859-3.149-1.291
		c0.938,2.584,1.181,10.213,5.265,9.999c2.122-0.11,2.836-2.506,2.965-4.267c0.341-4.639-2.656-8.975-2.066-13.74
		c-0.529,0.682-1.058,1.362-1.586,2.049c0.116-0.025,0.23-0.053,0.348-0.076c-0.801-0.327-1.6-0.656-2.4-0.98
		c3.592,4.81-1.036,13.096,3.72,17.078c1.145,0.956,3.206,0.736,3.567-0.956c0.619-2.911,0.443-5.255-0.247-8.165
		c-0.182-0.758-1.04-5.555-1.355-5.706c-1.956-0.938-2.012,2.611-2.03,3.255c-0.026,0.892,0.337,1.916,0.489,2.816
		c0.433,2.57,0.706,5.113,1.691,7.544c0.722,1.781,3.609,2.306,4.13,0.013c1.025-4.52-1.862-8.098-1.384-12.477
		c-1.326,0.355-2.654,0.709-3.982,1.066c2.078,3.112,3.043,8.509,3.917,12.133c1.303-0.546,2.606-1.091,3.91-1.637
		c-0.079-0.162-0.16-0.328-0.242-0.49c-1.212-2.469-4.901-0.299-3.69,2.167c0.082,0.16,0.163,0.325,0.242,0.489
		c1.095,2.222,4.459,0.639,3.912-1.636c-0.979-4.063-2.017-9.684-4.359-13.19c-1.227-1.839-3.756-1.02-3.983,1.066
		c-0.432,3.943,2.42,7.47,1.532,11.379c1.377,0.005,2.753,0.008,4.13,0.013c-1.554-3.842-0.61-15.191-6.089-15.812
		c-0.766-0.087-1.48,0.476-1.867,1.07c-2.38,3.67,2,10.979,1.148,14.972l3.569-0.956c-2.044-1.71-0.686-7.188-0.868-9.65
		c-0.181-2.44-0.69-4.568-2.17-6.553c-0.6-0.805-1.393-1.2-2.398-0.986c-0.116,0.027-0.233,0.053-0.348,0.077
		c-0.998,0.212-1.474,1.135-1.586,2.048c-0.236,1.914,0.021,4.008,0.356,5.899c0.148,0.838,0.353,1.641,0.569,2.462
		c0.204,0.789,2.784,7.447,3.337,5.659c0.338-1.092-1.572-5.864-2.014-7.084c-0.475-1.31-1.855-2.015-3.148-1.29
		c-2.6,1.454-2.431,9.505-0.115,9.114c0.898,0.694,1.796,1.39,2.693,2.084c0.145-3.406,1.043-5.201-1.025-8.159
		c-1.404-2.013-4.326-0.768-3.91,1.635c0.57,1.492,0.252,2.622-0.963,3.396l2.049,2.703c1.152-3.588,1.959-6.032,1.34-9.761
		c-1.302,0.544-2.607,1.091-3.91,1.636c0.742,1.679,1.667,7.962-2.335,7.323c0.431,1.042,0.86,2.086,1.288,3.132
		c4.087-5.44,4.625-11.086-1.663-15.214c-2.806-1.84-6.265-2.921-9.607-3.095c-2.151-0.113-4.391,0.118-6.475,0.688
		c-1.512,0.418-3.227,1.618-4.845,1.344C135.585,26.348,134.44,30.473,137.152,30.939"/>
	<path fill="#FFEDB3" d="M165.58,27.94c-0.125-0.646-0.251-1.289-0.378-1.936c0.763,1.018,2.376,1.574,3.366,0.426
		c2.581-3.011,0.784-8.009-1.139-10.945c-1.031-1.576-3.313-1.248-3.906,0.516c-0.739,2.203-0.297,4.528-1.098,6.693
		c1.305-0.174,2.607-0.346,3.91-0.517c-1.443-2.437-0.57-5.242-2.191-7.667c-0.949-1.419-2.737-1.315-3.697,0.016
		c-2.394,3.32-0.958,7.767-0.773,11.519c0.719-0.708,1.438-1.416,2.156-2.123h-0.609c0.684,0.526,1.367,1.058,2.049,1.585
		c-1.199-4.16-2.301-8.346-3.406-12.536c-0.599-2.274-4.35-1.924-4.204,0.537c0.294,4.946,2.284,9.464,2.799,14.361
		c0.119,1.142,0.863,2.154,2.124,2.154h0.245c1.653,0,2.652-1.799,1.861-3.223c-1.39-2.485-3.71-3.55-6.265-4.623
		c-2.467-1.033-8.385-3.177-11.025-1.667c-0.457,2.052-0.336,2.435,0.363,1.161c0.309-0.396,0.545-0.829,0.709-1.297
		c0.352-0.993,0.462-1.723,0.248-2.779c-0.656-3.255-3.992-4.605-6.039-6.684c-1.65-1.683-4.805,0.594-3.348,2.602
		c1.564,2.155,2.275,4.729,3.77,6.936c1.402,2.066,4.283,0.731,3.91-1.637c-0.398-2.542-0.385-4.495-0.047-6.978
		c-1.33,0.354-2.656,0.713-3.984,1.067c2.331,3.033,1.281,8.363,5.161,10.143c1.534,0.703,3.04-0.159,3.209-1.837
		c0.323-3.22-1.095-5.824-1.534-8.968c-0.694,0.899-1.389,1.797-2.08,2.695c-0.881-0.108,1.549,7.498,2.836,8.473
		c1.145,0.867,2.776-0.109,3.135-1.289c1.138-3.776-1.365-6.557-1.144-10.284c-0.719,0.708-1.435,1.416-2.153,2.125
		c0.031,0.001,0.688,5.304,0.884,5.968c0.493,1.673,1.243,2.988,2.812,3.846c1.543,0.843,2.991-0.273,3.207-1.838
		c0.461-3.34-1.012-6.83-1.095-10.223c-1.215,0.501-2.431,1.004-3.645,1.506c2.611,2.888,1.358,7.671,4.137,10.83
		c1.18,1.342,3.771,0.3,3.645-1.504c-0.157-2.215-2.516-7.092-1.384-8.923c-1.232,0.002-2.465,0.008-3.698,0.014
		c1.695,3.481,1.626,7.286,3.776,10.588c1.189,1.826,3.809,1.032,3.984-1.069c0.055-0.666,0.057-6.957-1.267-6.423
		c-0.798-0.329-1.596-0.656-2.396-0.981c0.444,0.765,0.709,1.586,0.794,2.463c0.349,1.755,3.137,2.172,3.919,0.516
		c0.287-0.604,0.569-1.213,0.851-1.823c1.149-2.48-2.546-4.637-3.704-2.137c-0.279,0.608-0.564,1.219-0.853,1.82l3.919,0.518
		c-0.255-1.286-0.553-2.408-1.236-3.525c-0.445-0.723-1.533-1.329-2.398-0.983c-3.961,1.592-1.652,7.428-1.908,10.527
		c1.327-0.354,2.654-0.711,3.985-1.066c-2.081-3.194-2.114-7.174-3.776-10.591c-0.734-1.509-2.91-1.261-3.697,0.013
		c-2.17,3.519,0.552,7.379,0.808,11.032c1.215-0.5,2.431-1.004,3.645-1.506c-2.668-3.034-1.293-7.681-4.137-10.829
		c-1.229-1.36-3.689-0.289-3.643,1.506c0.078,3.194,1.521,7.135,1.096,10.221c1.068-0.611,2.138-1.224,3.208-1.837
		c-1.954-1.066-1.227-6.022-2.16-7.875c-0.825-1.635-1.818-2.337-3.643-2.511c-1.192-0.114-2.089,1.053-2.153,2.124
		c-0.181,3.014,2.155,6.318,1.292,9.185c1.045-0.428,2.09-0.857,3.133-1.286c-1.232-0.934-0.697-5.178-1.49-6.65
		c-0.838-1.55-1.711-2.189-3.455-2.4c-1.536-0.184-2.25,1.483-2.082,2.694c0.381,2.716,1.672,5.009,1.389,7.828
		c1.068-0.612,2.137-1.223,3.208-1.834c-1.751-0.805-2.196-6.766-3.61-8.604c-1.333-1.735-3.689-1.095-3.982,1.067
		c-0.383,2.796-0.238,5.356,0.193,8.114c1.305-0.549,2.608-1.091,3.91-1.638c-1.498-2.211-2.196-4.763-3.771-6.935
		c-1.115,0.866-2.23,1.735-3.348,2.602c1.161,1.182,3.049,1.887,3.869,3.295c1.012,1.735,0.269,1.614-0.118,3.297
		c-0.281,1.233-0.722,2.247,0.304,3.338c1.314,1.39,3.742,0.81,5.391,0.836c3.537,0.051,9.857,0.627,11.88,4.252
		c0.619-1.073,1.241-2.148,1.86-3.22h-0.244c0.708,0.715,1.414,1.436,2.123,2.151c-0.514-4.886-2.505-9.45-2.797-14.359
		c-1.404,0.181-2.805,0.357-4.207,0.537c1.105,4.189,2.205,8.377,3.405,12.536c0.261,0.899,1.101,1.587,2.052,1.587h0.61
		c1.107,0,2.212-0.962,2.153-2.124c-0.135-2.731-1.541-6.998,0.199-9.414c-1.232,0.007-2.465,0.011-3.697,0.014
		c1.483,2.224,0.791,5.303,2.191,7.666c0.997,1.683,3.291,1.154,3.908-0.517c0.81-2.197,0.35-4.474,1.094-6.692
		c-1.301,0.175-2.605,0.347-3.906,0.517c0.568,0.873,2.751,4.646,1.783,5.77c1.123,0.141,2.246,0.281,3.366,0.418
		c-3.59-4.794-8.081,1.087-7.442,5.21C161.872,31.762,166.001,30.636,165.58,27.94"/>
	<path fill="#FFFFFF" d="M173.598,15.69c0.9,0.565,1.022,0.609,0.363,0.13c-0.16-0.104-0.336-0.179-0.525-0.229
		c-0.54-0.152-1.114-0.082-1.6,0.196c-0.804,0.463-1.06,1.273-1.09,2.143c-0.038,1.093,0.959,2.022,2.022,2.022
		c0.68,0,1.304-0.138,1.785-0.663c0.605-0.665,0.787-1.655,0.316-2.453c-0.079-0.131-0.57-0.912-0.164-0.217
		c-0.533-0.913-1.848-1.315-2.767-0.724c-0.922,0.593-1.297,1.789-0.728,2.77c0.078,0.132,0.576,0.911,0.164,0.214
		c0.105-0.817,0.212-1.636,0.318-2.449c-0.023,0.019-0.047,0.045-0.066,0.068c0.475-0.197,0.952-0.394,1.43-0.593h-0.289
		c0.675,0.678,1.349,1.349,2.023,2.024c-0.074,0.217-0.148,0.431-0.223,0.648c-0.243,0.242-0.484,0.482-0.726,0.727
		c0.012-0.009,0.024-0.016,0.034-0.025c-0.52,0.07-1.038,0.136-1.557,0.206c-0.258-0.151-0.514-0.303-0.771-0.452
		c0.141,0.112,0.285,0.222,0.431,0.328c0.159,0.088,0.366,0.172,0.538,0.231c1.004,0.347,2.257-0.392,2.488-1.412
		C175.264,17.053,174.668,16.06,173.598,15.69"/>
	<path fill="#FFFFFF" d="M117.509,16.944c-0.028,0.005-0.056,0.017-0.082,0.024l2.488,2.489c0.003-0.011,0.007-0.025,0.01-0.036
		l-0.521,0.893c0.021-0.029,0.045-0.06,0.071-0.085c0.728-0.771,0.822-2.106,0-2.862c-0.789-0.722-2.085-0.82-2.86,0
		c-0.266,0.282-0.509,0.634-0.602,1.016c-0.346,1.423,0.968,2.995,2.488,2.49c0.027-0.012,0.055-0.019,0.081-0.029
		c1.003-0.335,1.762-1.411,1.412-2.489C119.672,17.357,118.582,16.584,117.509,16.944"/>
	<path fill="#FFFFFF" d="M135.303,29.192c-4.941,11.076,17.219,13.176,22.611,6.631c7.616-9.24-13.505-11.888-18.561-9.089
		c-4.242,2.35-3.17,6.54,0.965,8.114c3.77,1.431,10.4,2.239,13.996-0.055c2.79-1.78,2.58-4.91-0.582-5.976
		c-1.627-0.55-3.57-0.534-5.268-0.529c-1.978,0.003-4.354,0.81-6.183,0.045c0.161,1.235,0.323,2.466,0.483,3.699
		c0.074-0.048,0.147-0.098,0.219-0.147c2.156-1.438,0.131-4.944-2.041-3.491c-0.073,0.049-0.146,0.094-0.219,0.145
		c-1.559,1.045-1.115,3.03,0.483,3.699c2.628,1.099,5.805-0.013,8.615,0.117c0.671,0.035,1.636,0.334,2.253,0.218
		c1.585-0.296-1.04-0.672-1.813-0.728c-2.456-0.189-4.632,0.281-7.129-0.359c-2.023-0.517-2.914-0.351-1.096-1.503
		c1.178-0.745,3.139-0.53,4.504-0.456c2.089,0.114,5.301,0.508,7.162,1.583c3.896,2.26-3.794,4.422-5.695,4.513
		c-1.684,0.081-10.81-0.811-9.213-4.391C139.85,28.876,136.363,26.817,135.303,29.192"/>
	<path fill="#F19C9D" d="M147.005,28.718c-0.104-0.161-0.122-0.164-0.056-0.012c-0.051-0.152-0.115-0.3-0.197-0.438
		c-0.179-0.288-0.43-0.507-0.732-0.653c-1.148-0.556-2.162,0.362-2.007,1.541c0.135,1.034,0.95,1.972,2.044,1.989
		c1.003,0.012,1.864-0.656,2.292-1.537c0.322-0.664,0.17-1.479-0.5-1.869c-0.607-0.351-1.548-0.165-1.874,0.502
		c-0.036,0.09-0.081,0.173-0.133,0.253c0.081-0.097,0.069-0.093-0.034,0.025c0.128-0.094,0.128-0.102,0-0.023
		c0.068-0.051,0.146-0.077,0.23-0.079c0.387-0.056,0.361,0.199,0.682,0.343c-0.075-0.132-0.078-0.135-0.011-0.009
		c-0.024-0.1-0.043-0.202-0.052-0.306l-2.009,1.544c-0.337-0.582-0.392-0.621-0.157-0.123c0.034,0.088,0.082,0.168,0.15,0.238
		c0.451,0.583,1.177,0.896,1.873,0.486C147.091,30.256,147.459,29.307,147.005,28.718"/>
	<path d="M93.496,62.387c-0.038,0.136-0.205,0.515-0.5,1.139c-0.16,0.504-0.617,1.057-1.379,1.638
		c-0.586,0.335-1.029,0.505-1.326,0.502c-0.202,0-0.354-0.092-0.467-0.26l-8.267,0.679l-1.204-24.133l9.483-0.184
		c0.842-0.01,1.692,0.376,2.548,1.163c0.683,0.619,1.024,1.213,1.019,1.782c0,0.196-0.037,0.383-0.108,0.577l0.175,17.097H93.496z
		 M91.229,45.496c-0.035-0.339-0.236-0.643-0.615-0.904c-0.305-0.276-0.735-0.472-1.291-0.582l-5.878-0.2l-0.544,19.574l6.528,0.082
		c0.349-0.034,0.681-0.203,1.015-0.511c0.209-0.151,0.345-0.312,0.416-0.483c0.07-0.164,0.004-0.408-0.197-0.749L91.229,45.496z"/>
	<polygon points="97.393,55.417 97.545,63.067 107.921,63.635 107.254,66.372 95.321,66.515 95.131,41.266 107.969,41.905 
		108.128,43.819 97.436,43.814 97.706,52.47 107.878,52.734 107.682,55.083 	"/>
	<path d="M118.628,66.148l-0.978-4.266l-6.328,0.256l-0.888,3.74l-2.673-1.104l5.814-22.891l1.806,0.09l5.492,24.088L118.628,66.148
		z M114.799,47.082l-2.66,12.636l4.466,0.396L114.799,47.082z"/>
	<path d="M134.963,51.917c0.047,0.605-0.355,1.33-1.207,2.162c-0.852,0.834-1.573,1.219-2.182,1.143
		c-0.031,0.015-0.066,0.027-0.1,0.027c-0.055,0.02-0.122,0.011-0.207-0.034l3.502,10.935l-2.299,0.213l-3.789-10.825l-4.293,0.224
		l-0.026,10.222l-1.374,0.434l-1.203-24.137l9.482-0.18c0.86-0.013,1.707,0.359,2.537,1.106c0.826,0.746,1.205,1.544,1.129,2.385
		l0.055,6.227L134.963,51.917z M132.634,45.828c-0.035-0.348-0.222-0.659-0.573-0.947c-0.35-0.289-0.698-0.424-1.044-0.411
		l-6.234,0.209l-0.499,7.955l6.638,0.269c0.28,0.045,0.622-0.095,1.038-0.442c0.33-0.269,0.496-0.463,0.496-0.59
		c0-0.052-0.039-0.092-0.109-0.127L132.634,45.828z"/>
	<path d="M155.571,61.944c0.017,0.051-0.086,0.44-0.319,1.159c-0.278,0.51-0.779,1.019-1.508,1.511
		c-0.661,0.425-1.313,0.731-1.975,0.914l-10.233,0.926l1.308-24.863l9.044-0.238c0.119-0.017,0.238-0.025,0.358-0.025
		c0.707,0.007,1.438,0.419,2.187,1.234c0.838,0.691,1.298,1.35,1.383,1.974l-0.156,6.141l-1.129,2.711l1.01,2.54l0.057,6.018
		H155.571z M153.253,45.052c-0.012-0.548-0.603-1.092-1.769-1.611l-5.924,0.417l-0.53,8.444l6.562-0.184
		c0.349,0.056,0.697-0.087,1.068-0.428c0.362-0.347,0.581-0.693,0.653-1.056L153.253,45.052z M153.242,55.879
		c0-0.289-0.19-0.595-0.589-0.909c-0.201-0.159-0.37-0.261-0.512-0.321c-0.17-0.047-0.301,0-0.388,0.153l-6.431-0.464l-0.378,8.728
		L151.539,63c0.355,0,0.694-0.151,1.008-0.461c0.453-0.324,0.648-0.615,0.573-0.875L153.242,55.879z"/>
	<path d="M169.932,62.128c-0.053,0.775-0.47,1.488-1.232,2.138c-0.899,0.763-1.671,1.226-2.309,1.372l-5.812-0.248
		c-0.12,0.022-0.235,0.025-0.356,0.022c-0.76,0-1.457-0.465-2.088-1.383c-0.781-0.748-1.127-1.507-1.039-2.284l0.033-20.5
		l3.408,0.252l-1.142,20.221c0.015,0.204,0.203,0.487,0.559,0.854c0.309,0.258,0.53,0.389,0.667,0.389
		c0.088,0,0.172-0.036,0.264-0.124l5.289,0.302c0.273-0.022,0.552-0.197,0.84-0.551c0.285-0.354,0.432-0.673,0.434-0.968
		c0-0.209-0.027-0.483-0.094-0.823l0.436-19.421l1.944,0.09l0.229,20.581L169.932,62.128z"/>
	<polygon points="182.871,65.901 173.253,47.667 173.932,65.599 171.512,64.569 171.673,41.48 174.342,40.52 181.805,59.151 
		182.209,41.483 184.099,41.581 184.32,65.628 	"/>
	<polygon points="197.364,66.014 187.742,47.78 188.426,65.713 186.004,64.686 186.164,41.597 188.83,40.632 196.298,59.268 
		196.698,41.602 198.586,41.696 198.813,65.746 	"/>
	<polygon points="207.682,54.349 208.136,65.873 205.736,65.337 205.565,54.255 200.681,41.545 202.931,41.182 207.349,50.755 
		211.168,41.746 213.286,41.657 	"/>
	<path d="M127.932,24.436c-1.035-0.227-2.023,0.11-2.469,1.123c-0.357,0.815-0.309,1.874,0.152,2.642
		c0.502,0.834,1.514,1.11,2.359,0.602c0.946-0.571,1.256-1.963,1.037-2.979c-0.24-1.122-1.388-1.782-2.425-1.129
		c-0.938,0.589-1.102,2.053-0.738,3.012c0.37,0.971,1.634,1.444,2.298,0.445c0.503-0.759,0.521-2.31-0.195-2.961
		c-0.419-0.378-1.008-0.271-1.357,0.15c-0.397,0.476-0.445,1.37-0.177,1.917c0.286,0.579,1.019,0.736,1.476,0.245
		c0.426-0.463,0.498-1.343,0.184-1.873c-0.215-0.363-0.697-0.325-0.922,0c-0.195,0.284-0.324,0.566-0.411,0.897
		c-0.156,0.596,0.651,0.92,0.976,0.413c0.18-0.283,0.291-0.589,0.412-0.899c0.246-0.642-0.785-0.92-1.03-0.283
		c-0.088,0.227-0.173,0.436-0.304,0.644c0.324,0.136,0.649,0.274,0.975,0.412c0.066-0.25,0.157-0.433,0.305-0.645h-0.922
		c0.053,0.086,0.043,0.203,0.037,0.305c0.001-0.02-0.121,0.789,0.195,0.348c-0.021,0.031,0.014-0.85,0.031-0.811
		c-0.008-0.014-0.203,0.026-0.186-0.026c-0.006,0.017,0.085,0.155,0.091,0.19c0.049,0.296,0.116,0.55,0.087,0.857
		c-0.031,0.309-0.18,0.857-0.495,0.452c-0.274-0.359-0.212-1.077-0.058-1.467c0.151-0.38,0.642-0.75,0.973-0.327
		c0.307,0.393,0.197,1.122,0.045,1.548c-0.324,0.902-1.216,1.004-1.498,0.05c-0.276-0.942,0.138-2.067,1.271-1.822
		C128.318,25.609,128.604,24.582,127.932,24.436"/>
	<path d="M165.267,25.072c-1.523-0.085-1.913,1.23-1.396,2.447c0.382,0.898,1.402,2.407,2.576,2.139
		c0.623-0.141,0.88-0.762,0.967-1.331c0.133-0.895-0.139-1.754-0.784-2.399c-0.491-0.489-1.347-0.917-1.95-0.349
		c-0.644,0.608-0.403,1.766-0.084,2.474c0.215,0.475,0.569,0.962,1.127,1.021c0.518,0.058,0.99-0.279,1.158-0.766
		c0.374-1.084-0.301-2.146-1.229-2.631c-0.318-0.167-0.667-0.016-0.784,0.32c-0.265,0.773-0.248,2.398,0.872,2.456
		c1.32,0.069,0.977-1.845,0.27-2.358c-0.309-0.226-0.668,0.032-0.783,0.316c-0.188,0.457-0.078,0.827,0.256,1.177
		c0.474,0.496,1.229-0.26,0.754-0.755c-0.131-0.139-0.089,0.127,0.018-0.139l-0.783,0.321c0.109,0.078,0.053,0.3,0.115,0.39
		c0.255,0.348,0.252-0.07,0.227-0.22c-0.049-0.285-0.008-0.63,0.088-0.904c-0.263,0.107-0.524,0.213-0.786,0.318
		c0.425,0.223,0.953,0.66,0.783,1.252c-0.06,0.212-0.064,0.199-0.205,0c-0.15-0.211-0.247-0.494-0.298-0.748
		c-0.041-0.197-0.105-0.563,0.015-0.742c0.039-0.06-0.004,0.005-0.046,0.012c0.031-0.001,0.115,0.016,0.154,0.043
		c0.369,0.262,0.662,0.545,0.809,0.994c0.131,0.403,0.024,0.776-0.076,1.152c-0.031,0.115-0.072,0.059-0.017,0.058
		c-0.013,0.001-0.082,0.004-0.165-0.038c-0.519-0.252-0.98-0.91-1.219-1.466c-0.112-0.266-0.188-0.615-0.157-0.785
		c0.013-0.085,0.03-0.112,0.091-0.139c0.106-0.058,0.316-0.059,0.483-0.049C165.952,26.178,165.951,25.113,165.267,25.072"/>
	<path d="M146.352,24.507c-4.735,0.033-12.581,2.4-12.025,8.601c0.617,6.857,11.612,7.599,16.463,6.727
		c4.324-0.778,11.14-3.321,8.951-8.956C157.824,25.952,150.992,24.627,146.352,24.507c-0.688-0.019-0.688,1.05,0,1.068
		c2.953,0.075,6.1,0.593,8.73,2.024c2.814,1.536,5.815,4.815,2.71,8.212c-1.267,1.387-3.402,2.011-5.149,2.513
		c-4.148,1.188-8.92,1.149-12.877-0.688c-3.58-1.661-5.686-5.889-2.275-9.199c2.34-2.275,5.756-2.844,8.861-2.862
		C147.037,25.569,147.038,24.501,146.352,24.507"/>
	<path d="M146.799,32.173c1.047-0.662,3.213-2.394,2.591-3.873c-0.512-1.213-2.619-1.283-3.73-1.222
		c-1.13,0.063-2.825,0.495-2.458,1.988c0.343,1.394,1.879,2.214,2.836,3.142c0.493,0.477,1.25-0.278,0.755-0.756
		c-0.581-0.559-1.256-1.01-1.815-1.599c-0.24-0.248-0.832-0.78-0.763-1.167c0.077-0.441,0.918-0.498,1.243-0.528
		c0.795-0.077,1.824-0.051,2.559,0.287c0.749,0.347,0.191,0.962-0.209,1.434c-0.447,0.521-0.965,1.004-1.547,1.369
		C145.682,31.617,146.216,32.542,146.799,32.173"/>
	<path d="M140.735,32.516c-0.218,1.556,0.93,2.707,2.469,2.811c1.716,0.113,3.046-1.396,3.727-2.812
		c0.295-0.615-0.624-1.158-0.923-0.538c-0.385,0.802-0.945,1.631-1.754,2.056c-0.912,0.482-2.678,0.104-2.49-1.231
		C141.859,32.128,140.829,31.838,140.735,32.516"/>
	<path d="M146.428,32.03c0.843,2.938,5.882,4.345,6.486,0.534c0.107-0.673-0.922-0.96-1.03-0.284
		c-0.429,2.707-3.86,1.448-4.428-0.531C147.269,31.089,146.237,31.37,146.428,32.03"/>
	<path d="M143.741,34.734c-0.021,0.753-0.107,1.506-0.18,2.255c-0.026,0.297,0.269,0.522,0.535,0.536
		c1.941,0.095,3.872-0.107,5.811-0.179c0.272-0.013,0.559-0.238,0.535-0.539c-0.068-0.857-0.104-1.744-0.375-2.57
		c-0.215-0.648-1.245-0.368-1.029,0.283c0.244,0.739,0.275,1.521,0.337,2.287c0.177-0.174,0.357-0.353,0.532-0.532
		c-1.939,0.075-3.869,0.276-5.811,0.181c0.176,0.178,0.356,0.354,0.532,0.533c0.071-0.749,0.158-1.502,0.179-2.255
		C144.826,34.046,143.759,34.046,143.741,34.734"/>
	<path d="M146.289,34.555c0,0.669,0.034,1.315,0.077,1.981c0.349-0.048,0.698-0.094,1.048-0.142
		c0.018,0.109,0.018,0.113,0.004,0.003c-0.074-0.675-1.143-0.682-1.067,0c0.011,0.094,0.02,0.186,0.035,0.28
		c0.087,0.592,1.087,0.454,1.048-0.142c-0.042-0.665-0.076-1.312-0.076-1.981C147.358,33.872,146.289,33.869,146.289,34.555"/>
	<path d="M136.225,14.606c0.965,1.674,2.078,3.911,4.024,4.619c1.619,0.584,2.655-0.56,2.933-2.071
		c0.121-0.67-0.906-0.961-1.029-0.283c-0.11,0.606-0.269,1.352-0.98,1.447c-0.572,0.072-1.178-0.414-1.566-0.766
		c-1.07-0.968-1.748-2.248-2.458-3.484C136.805,13.473,135.881,14.01,136.225,14.606"/>
	<path d="M141.584,16.614c1.19,1.426,3.545,4.313,5.684,4.028c2.443-0.326,1.52-3.376,0.57-4.675
		c-0.402-0.55-1.329-0.016-0.923,0.537c0.431,0.589,1.05,1.511,0.885,2.29c-0.27,1.284-1.446,0.647-2.131,0.2
		c-1.277-0.831-2.36-1.97-3.33-3.135C141.9,15.331,141.147,16.088,141.584,16.614"/>
	<path d="M146.507,16.081c1.083,1.198,2.364,2.481,3.958,2.949c0.849,0.251,2.251,0.582,3.022-0.018
		c1.73-1.347-0.698-4.685-1.808-5.702c-0.506-0.463-1.264,0.289-0.754,0.755c0.701,0.644,3.024,3.587,1.479,4.189
		c-0.658,0.255-2.098-0.396-2.605-0.686c-0.981-0.561-1.788-1.413-2.539-2.242C146.8,14.816,146.047,15.574,146.507,16.081"/>
	<path d="M123.035,15.156c-2.489-3.233-8.293-3.5-10.695,0.028c-1.086,1.593-1.27,3.703-0.556,5.485
		c0.912,2.273,2.819,3.195,5.071,3.729c0.668,0.159,0.953-0.871,0.283-1.026c-1.724-0.408-3.226-0.945-4.123-2.589
		c-0.787-1.445-0.799-3.278,0.023-4.71c1.783-3.101,6.969-3.116,9.074-0.382C122.528,16.23,123.454,15.7,123.035,15.156"/>
	<path d="M117.658,20.603c-0.948-0.37-1.488-1.542-1.261-2.516c0.264-1.129,1.693-1.297,2.568-0.729
		c1.441,0.935,0.215,3.9-1.498,3.137c-0.623-0.276-1.166,0.644-0.537,0.923c3.049,1.356,5.252-3.521,2.441-5.059
		c-1.413-0.775-3.465-0.363-3.963,1.297c-0.487,1.61,0.426,3.377,1.965,3.975C118.016,21.88,118.291,20.848,117.658,20.603"/>
	<path d="M122.844,15.883c12.684-9.451,32.029-9.941,44.465,0.189c0.529,0.431,1.289-0.322,0.756-0.755
		c-12.795-10.421-32.661-10.116-45.76-0.355C121.76,15.368,122.292,16.294,122.844,15.883"/>
	<path d="M168.063,16.201c0.975-3.075,4.416-4.912,7.438-3.766c2.117,0.804,3.646,2.695,3.79,4.988
		c0.126,2.005-1.174,4.372-3.43,4.428c-0.686,0.017-0.688,1.083,0,1.065c5.658-0.133,5.36-7.896,1.826-10.512
		c-3.817-2.823-9.223-1.01-10.654,3.512C166.827,16.573,167.857,16.855,168.063,16.201"/>
	<path d="M175.541,16.294c-0.619-1.408-2.729-1.687-3.929-0.954c-1.474,0.899-1.459,2.941-0.232,4.042
		c0.935,0.844,2.425,0.972,3.505,0.335C176.176,18.961,176.214,17.496,175.541,16.294c-0.338-0.6-1.26-0.06-0.924,0.54
		c0.377,0.67,0.504,1.456-0.22,1.929c-0.591,0.39-1.444,0.382-2.044,0.018c-0.886-0.534-1.188-1.905-0.203-2.521
		c0.744-0.464,2.084-0.306,2.467,0.574C174.894,17.462,175.815,16.921,175.541,16.294"/>
	<path d="M116.536,23.616c-0.921,1.707-1.676,3.592-1.906,5.537c-0.082,0.68,0.987,0.673,1.065,0
		c0.19-1.598,0.952-3.494,1.764-4.999C117.784,23.55,116.864,23.009,116.536,23.616"/>
	<path d="M116.389,29.459c-3.51-1.196-5.441-5.181-8.898-6.329c-2.143-0.711-4.246,0.676-4.1,2.96
		c0.172,2.651,2.587,4.81,4.589,6.237c1.708,1.216,5.288,3.549,7.54,2.9c0.659-0.187,0.379-1.215-0.285-1.026
		c-1.613,0.463-4.295-1.263-5.591-2.054c-1.739-1.063-4.613-3.054-5.009-5.263c-0.13-0.73,0.436-2.349,1.055-2.789
		c0.973-0.695,2.332,0.54,3.041,1.081c0.811,0.624,1.604,1.271,2.375,1.938c1.563,1.35,3.012,2.695,5,3.374
		C116.757,30.711,117.037,29.68,116.389,29.459"/>
	<path d="M178.954,32.351c3.285-2.105,6.414-6.079,10.395-6.829c1.76-0.331,2.557,0.85,1.732,2.548
		c-0.695,1.429-2.528,2.624-3.777,3.483c-2.436,1.668-4.962,3.257-7.83,4.029c-0.664,0.181-0.383,1.212,0.282,1.032
		c2.58-0.697,16.771-7.477,12.022-11.696c-1.648-1.464-4.32,0.104-5.828,1.01c-2.683,1.605-4.912,3.824-7.535,5.501
		C177.838,31.795,178.374,32.724,178.954,32.351"/>
	<path d="M175.485,22.76c1.967,2.224,2.887,5.553,3.614,8.379c0.171,0.668,1.201,0.386,1.028-0.281
		c-0.774-3.011-1.794-6.484-3.891-8.851C175.783,21.495,175.031,22.25,175.485,22.76"/>
	<path fill="#FFFFFF" d="M166.841,27.121c0,0.321-0.291,0.582-0.652,0.582c-0.36,0-0.649-0.261-0.649-0.582s0.289-0.579,0.649-0.579
		C166.55,26.542,166.841,26.799,166.841,27.121"/>
	<path fill="#FFFFFF" d="M128.455,26.36c0,0.319-0.291,0.581-0.652,0.581c-0.36,0-0.646-0.262-0.646-0.581
		c0-0.318,0.286-0.58,0.646-0.58C128.164,25.78,128.455,26.042,128.455,26.36"/>
	<path d="M113.741,34.922c-0.139,1.531-0.242,3.06-0.242,4.599c0,0.654,1.023,0.659,1.023,0v-0.095c0-0.66-1.023-0.661-1.023,0
		v0.095h1.023c0-1.541,0.104-3.067,0.241-4.599C114.822,34.266,113.799,34.268,113.741,34.922"/>
	<path d="M179.587,36.506c0.112,0.902,0.23,1.802,0.397,2.693c0.079,0.431,0.184,1.531,0.844,1.47c0.647-0.066,0.656-1.089,0-1.025
		c0.996-0.096,0.277,0.389,0.33,0.119c0.015-0.08-0.066-0.244-0.088-0.332c-0.076-0.327-0.133-0.661-0.188-0.993
		c-0.106-0.644-0.191-1.287-0.271-1.932C180.529,35.861,179.504,35.854,179.587,36.506"/>
	<path fill="#FFEDB3" d="M408.613,23.963c-0.413-0.217-0.776-0.369-1.235-0.456c-1.372-0.254-2.652,0.58-2.705,2.047
		c-0.1,2.955,2.746,5.169,4.924,6.682c2.289,1.588,5.188,3.245,8.036,3.387c2.007,0.1,2.658-2.336,1.52-3.66
		c-1.288-1.494-3.021-2.485-4.643-3.569c-1.807-1.205-3.19-2.907-5.04-4.063c-0.362,1.33-0.724,2.661-1.084,3.989
		c1.442,0.068,3.311,2.496,4.401,3.339c0.601,0.463,1.215,0.848,1.875,1.221c0.415,0.229,0.834,0.466,1.258,0.684
		c0.132,0.069,0.898,0.646,0.469,0.224c1.965,1.924,4.98-1.11,3.008-3.041c-1.332-1.304-3.333-1.86-4.767-3.097
		c-1.808-1.555-3.689-3.485-6.214-3.607c-2.221-0.106-2.814,2.909-1.084,3.992c1.65,1.033,2.912,2.586,4.512,3.707
		c1.485,1.041,3.101,1.868,4.302,3.265c0.507-1.222,1.013-2.441,1.519-3.661c-1.738-0.086-3.647-1.349-5.074-2.25
		c-0.995-0.626-3.682-2.174-3.637-3.508c-0.9,0.684-1.803,1.364-2.703,2.049c0.076,0.01,0.15,0.024,0.226,0.032
		C408.907,28.944,411.056,25.245,408.613,23.963"/>
	<path fill="#FFEDB3" d="M424.262,14.801c-2.505-2.136-6.246-2.242-8.906-0.283c-3.129,2.299-2.621,6.259,0.012,8.758
		c2.842,2.701,7.752,2.893,9.72-0.951c1.467-2.86,0.353-7.811-3.226-8.429c-2.695-0.465-3.842,3.66-1.13,4.127
		c0.425,0.069,0.507,0.264,0.627,0.845c0.103,0.479,0.116,1.182-0.089,1.563c-0.725,1.361-2.605,0.241-3.314-0.632
		c-0.195-0.24-0.377-0.514-0.496-0.792c-0.137-0.321-0.084-0.323-0.078-0.396c0.012-0.122,0.049-0.209,0.13-0.313
		c0.196-0.263,0.332-0.35,0.654-0.526c0.814-0.441,2.229-0.663,3.088,0.071C423.333,19.618,426.364,16.596,424.262,14.801"/>
	<path fill="#FFEDB3" d="M472.85,17.311c0.058-0.534,0.659-0.758,1.33-0.848c0.873-0.117,1.959,0.08,2.703,0.616
		c0.359,0.258,0.568,0.431,0.074,1.171c-0.646,0.966-2.334,1.486-3.242,0.538c-1.285-1.335,0.236-3.278,1.602-3.693
		c0.931-0.286,1.512-0.03,1.977,0.605c1.135,1.54,0.695,3.612-1.453,3.596c-2.758-0.025-2.785,4.251-0.032,4.276
		c4.525,0.039,7.351-4.031,5.969-8.314c-1.561-4.842-7.279-5.971-10.833-2.351c-2.129,2.168-2.587,5.671-0.824,8.204
		c1.504,2.164,4.407,2.876,6.863,2.138c4.522-1.366,6.272-7.425,1.83-10.005c-3.898-2.264-9.696-0.937-10.24,4.037
		C468.271,20.018,472.553,20.021,472.85,17.311"/>
	<path fill="#FFEDB3" d="M481.17,35.447c2.596-1.858,5.48-3.261,8.152-5.007c0.637-0.416,1.431-0.744,2.023-1.202
		c0.803-0.625,1.398,0.215,0.148-1.227c-1.02-1.177-0.684-0.805-1.635-0.083c-1.66,1.263-3.672,2.013-5.502,2.982
		c-0.585,0.306-1.151,0.643-1.751,0.924c-0.319,0.151-0.667,0.27-0.974,0.434c-0.614,0.331-1.246,0.006,0.012,0.248
		c0.426,0.325,0.853,0.653,1.28,0.981c-0.014-0.029-0.026-0.061-0.04-0.09c0.002,0.718,0.005,1.435,0.005,2.15
		c-0.022,0.015-0.046,0.025-0.069,0.04c1.718-2.117-1.303-5.152-3.041-3.008c-1.068,1.319-1.262,3.453,0.734,4.049
		c1.272,0.385,2.72-0.409,3.836-0.918c3.008-1.368,6.572-2.863,8.986-5.124c2.57-2.41,1.757-6.942-2.388-5.789
		c-1.455,0.405-2.765,1.275-4.011,2.099c-2.592,1.708-5.406,3.044-7.934,4.854C476.788,33.346,478.925,37.055,481.17,35.447"/>
	<path fill="#FFEDB3" d="M415.659,37.29c4.398,1.486,8.883,1.206,13.451,0.861c5.84-0.44,11.5-0.025,17.342,0.109
		c11.689,0.273,23.608-2.236,35.223-0.362c-0.11-0.835-0.221-1.668-0.331-2.504c-0.058,0.043-0.114,0.084-0.171,0.123
		c-1.424,1.011-0.055,3.385,1.385,2.361c0.059-0.039,0.115-0.078,0.172-0.122c0.846-0.602,0.943-2.294-0.334-2.5
		c-10.526-1.701-21.193,0.148-31.777,0.293c-5.645,0.079-11.291-0.661-16.925-0.458c-5.809,0.216-11.654,1.47-17.309-0.444
		C414.708,34.079,413.995,36.723,415.659,37.29"/>
	<path fill="#FFEDB3" d="M421.571,19.447c-0.161-0.083-0.323-0.163-0.485-0.246c-0.747-0.376-1.803-0.082-2.006,0.827
		c-1.128,5.066-3.84,10.003-2.802,15.317c0.882-0.234,1.764-0.47,2.645-0.707c-0.546-2.618-1.696-9.698,0.954-11.488
		c1.45-0.981,0.079-3.354-1.387-2.361c-4.08,2.755-3.068,10.449-2.213,14.557c0.361,1.729,2.981,1.012,2.645-0.707
		c-0.913-4.678,1.806-9.419,2.799-13.891c-0.669,0.277-1.337,0.553-2.006,0.826c0.162,0.081,0.323,0.162,0.485,0.244
		C421.772,22.606,423.149,20.239,421.571,19.447"/>
	<path fill="#FFEDB3" d="M425.909,19.504c5.627-2.832,10.35-5.301,16.633-6.475c7.059-1.318,13.092-0.535,19.429,2.922
		c4.022,2.195,10.252,6.067,12.886,9.855c0.289,0.412,4.716,10.312,4.043,10.948c0.863-0.118,1.728-0.232,2.591-0.347
		c-0.072-0.052-0.143-0.104-0.215-0.152c-2.242-1.6-4.364,2.116-2.138,3.703c0.069,0.052,0.144,0.102,0.213,0.153
		c0.781,0.558,1.951,0.261,2.59-0.348c2.49-2.369-0.248-8.586-1.114-11.151c-2.276-6.75-7.356-10.109-12.992-14.061
		c-6.099-4.275-13.281-6.975-20.803-6.509c-8.827,0.547-15.632,3.921-23.288,7.771C421.284,17.05,423.453,20.738,425.909,19.504"/>
	<path fill="#FFEDB3" d="M424.401,17.617c-2.952,2.664-4.451,8.059-5.603,11.704c-0.879,2.783-2.934,8.863,0.699,10.639
		c1.307,0.64,2.646,0.066,3.133-1.286c1.213-3.365,2.077-6.814,2.986-10.27c0.713-2.715,1.444-5.632,3.652-7.534l-3.586-2.069
		c-0.454,2.16-1.511,4.081-2.066,6.203c-0.544,2.072-0.604,4.239-1.049,6.328c-0.57,2.666-1.895,5.475-0.192,7.981
		c0.935,1.377,2.773,1.37,3.696-0.013c1.889-2.819,0.594-5.771,1.545-8.785l-3.566,0.955c4.198,4.404,12.588-1.33,10.537-6.859
		c-1.078-2.905-4.569-3.066-7.197-2.47c-1.385,0.313-2.416,0.826-3.043,2.138c-0.903,1.889,0.533,3.257,0.288,5.055
		c-0.371,2.722,3.911,2.719,4.278,0.029c0.135-0.988-0.378-1.615-0.483-2.548c-0.839-0.319-0.817-0.502,0.065-0.541
		c0.471-0.073,0.939-0.1,1.41-0.081c1.423,0.899-1.623,3.521-2.848,2.237c-1.148-1.203-3.1-0.523-3.567,0.958
		c-0.782,2.481,0.331,5.602-1.122,7.771c1.233-0.005,2.466-0.006,3.697-0.01c-0.93-1.373,0.815-5.768,1.058-7.379
		c0.522-3.472,1.974-6.456,2.686-9.84c0.455-2.157-1.953-3.476-3.583-2.072c-5.225,4.507-5.527,13.589-7.722,19.684
		c1.043-0.43,2.087-0.858,3.133-1.286c0.53,0.258-0.005-0.009,0.154-0.927c0.115-0.662,0.189-1.312,0.33-1.971
		c0.375-1.761,0.963-3.494,1.582-5.181c0.848-2.304,1.851-5.851,3.738-7.553C429.485,18.781,426.441,15.774,424.401,17.617"/>
	<path fill="#FFEDB3" d="M426.585,17.765c-0.16,2.353,0.771,6.705,4.128,4.513c2.353-1.536,2.544-5.481,1.192-7.648
		c-0.657-1.053-2.48-1.556-3.366-0.42c-1.735,2.227-4.799,8.77-0.655,10.272c4.28,1.548,6.103-5.614,5.9-8.509
		c-0.147-2.088-2.823-2.985-3.99-1.084c-1.4,2.28-2.862,10.605,1.743,10.314c4.216-0.265,4.959-8.919,4.24-11.872
		c-0.382-1.564-2.479-2.107-3.586-0.951c-2.605,2.724-0.815,6.504-0.834,9.799c-0.014,2.343,0.116,5.299-0.202,7.592
		c-0.337,2.438-1.958,4.381-2.26,6.862c-0.256,2.091,3.139,2.988,3.991,1.087c0.163-0.367,0.327-0.731,0.49-1.1
		c1.116-2.491-2.579-4.651-3.704-2.138c-0.164,0.365-0.328,0.732-0.49,1.095c1.328,0.363,2.659,0.725,3.99,1.087
		c0.222-1.801,1.641-3.4,2.031-5.198c0.447-2.061,0.066-4.214,0.209-6.302c0.126-1.875,0.293-3.662,0.072-5.54
		c-0.125-1.052-1.048-3.403-0.252-4.233c-1.196-0.315-2.391-0.633-3.588-0.951c0.464,1.899-1.449,4.702-0.947,6.16
		c-0.598,1.049,0.092,1.222,2.063,0.523c-0.007-0.432,0.01-0.861,0.054-1.289c0.399-0.847,0.152-1.941,0.683-2.807
		c-1.33-0.362-2.662-0.723-3.991-1.084c0.042,0.587-1.052,4.109-0.962,4.273c1.249,2.235,2.633-2.481,3.038-3.002l-3.366-0.419
		c0.483,0.772-0.271,1.964,0.34,1.815c0.687,0.183,1.372,0.363,2.059,0.544c0.506-0.144,0.589-0.599,0.25-1.358
		C431.049,15.043,426.769,15.031,426.585,17.765"/>
	<path fill="#FFEDB3" d="M430.48,29.347c-3.505,0.682-3.922,5.616-4.433,8.439c-0.497,2.763,3.082,3.646,4.129,1.129
		c0.99-2.389,2.258-8.71-2.211-8.391c-3.674,0.267-4.004,6.132-3.259,8.746c0.62,2.165,3.4,1.919,4.13,0.01
		c1.004-2.624,0.803-5.845-0.948-8.096c-1.007-1.295-3.506-1.496-3.907,0.52c-0.145,0.715-0.588,5.694-1.979,5.042
		c-0.361,1.329-0.723,2.659-1.085,3.989c4.745-0.399,9.473-0.903,14.239-0.978c1.719-0.024,3.034-2.411,1.52-3.659
		c-1.275-1.048-2.56-2.006-3.962-2.883c-1.497-0.938-3.768,0.646-3.136,2.401c0.855,2.378,2.502,2.955,4.788,3.825
		c1.745,0.669,3.384-1.653,2.409-3.144c-0.61-0.933-1.219-1.868-1.828-2.804c-1.23,0.72-2.461,1.443-3.689,2.167
		c1.454,2.124,3.229,3.44,5.4,4.788c2.099,1.297,4.248-1.655,2.574-3.374c-3.409-3.499-2.542-7.274,0.992-10.243
		c-1.125-0.859-2.249-1.716-3.373-2.575c-1.26,2.017-2.278,4.147-3.656,6.087c1.236,0.712,2.471,1.426,3.705,2.141
		c0.812-1.873,1.746-4.155,3.425-5.431c0.917-0.693,2.183-0.838,3.11-1.521c1.459-1.072,1.942-2.172,1.803-3.983
		c-0.309-4.012-3.598-8.473-7.171-10.121c-1.053-0.488-2.295-0.29-2.921,0.782c-2.323,3.98-1.367,9.519-1.869,13.958
		c-0.273,2.403,3.702,2.934,4.202,0.58c0.831-3.915,2.234-7.592,2.269-11.631c-1.427-0.01-2.853-0.022-4.279-0.032
		c0.158,3.118,0.104,6.161,0.801,9.215c0.496,2.168,3.506,1.934,4.13,0.013c0.69-2.123,1.134-4.175,1.294-6.392
		c-1.426-0.008-2.853-0.021-4.277-0.03c0,1.924,0.188,3.191,1.023,4.87c0.846,1.705,3.429,1.158,3.908-0.518
		c0.081-0.283,0.164-0.568,0.244-0.854c0.76-2.652-3.368-3.774-4.127-1.13c-0.08,0.287-0.162,0.57-0.244,0.855
		c1.303-0.173,2.604-0.345,3.907-0.518c-0.419-0.85-0.565-1.741-0.435-2.676c0-2.779-4.082-2.752-4.277-0.03
		c-0.14,1.915-0.559,3.5-1.143,5.292c1.375,0.006,2.752,0.008,4.127,0.01c-0.612-2.687-0.514-5.347-0.652-8.075
		c-0.14-2.731-4.256-2.802-4.279-0.032c-0.029,3.634-1.37,7.012-2.115,10.533l4.203,0.579c0.365-3.227-0.377-8.985,1.293-11.848
		c-0.974,0.258-1.947,0.519-2.92,0.781c1.621,0.749,2.831,2.017,3.737,3.541c1.462,2.453,1.097,2.94-0.984,4.429
		c-2.663,1.903-4.166,4.2-5.487,7.243c-1.088,2.519,2.092,4.415,3.705,2.141c1.376-1.943,2.397-4.076,3.654-6.088
		c1.364-2.184-1.607-4.057-3.373-2.573c-5.523,4.646-6.055,11.06-0.959,16.294c0.859-1.125,1.717-2.249,2.574-3.371
		c-1.484-0.923-2.836-1.771-3.85-3.252c-1.539-2.247-5.205-0.161-3.689,2.167c0.606,0.933,1.217,1.869,1.828,2.803l2.408-3.149
		c-0.631-0.188-1.224-0.458-1.784-0.802c-1.044,0.801-2.09,1.601-3.136,2.405c1.104,0.635,2.135,1.378,3.092,2.223
		c0.506-1.221,1.014-2.441,1.52-3.662c-4.764,0.073-9.493,0.581-14.238,0.979c-1.908,0.158-3.207,2.992-1.084,3.99
		c6.1,2.865,7.295-2.876,8.243-7.619c-1.303,0.174-2.606,0.345-3.908,0.519c1.085,1.399,1.126,3.199,0.511,4.802
		c1.378,0.004,2.754,0.008,4.129,0.011c-0.245-0.863,0.641-5-1.903-3.941c-0.017,0.009-0.712,3.148-0.888,3.566
		c1.377,0.376,2.753,0.754,4.129,1.129c0.141-0.788,0.587-5.275,1.41-5.435C434.29,32.954,433.17,28.828,430.48,29.347"/>
	<path fill="#FFEDB3" d="M438.382,30.939c3.97,0.681,7.399-1.998,11.45-1.893c2.691,0.072,5.541,0.716,7.848,2.173
		c3.77,2.377,3.164,6.476,0.715,9.731c-0.778,1.036,0.023,2.931,1.289,3.133c8.068,1.292,9.805-7.617,7.151-13.612
		c-1.046-2.367-4.272-0.553-3.909,1.636c0.469,2.83-0.523,4.998-1.336,7.525c-0.414,1.29,0.706,2.74,2.047,2.705
		c4.801-0.132,5.829-4.704,5.127-8.781c-1.305,0.546-2.609,1.092-3.911,1.634c0.921,1.318,0.508,4.246,0.435,5.963
		c-0.063,1.501,1.389,2.302,2.693,2.08c5.826-0.981-0.377-8.689,1.174-9.558c-1.051-0.429-2.1-0.859-3.149-1.291
		c0.939,2.584,1.181,10.213,5.265,9.999c2.122-0.11,2.836-2.506,2.965-4.267c0.341-4.639-2.656-8.975-2.066-13.74
		c-0.529,0.682-1.058,1.362-1.586,2.049c0.116-0.025,0.23-0.053,0.348-0.076c-0.801-0.327-1.6-0.656-2.4-0.98
		c3.592,4.81-1.036,13.096,3.72,17.078c1.146,0.956,3.206,0.736,3.567-0.956c0.619-2.911,0.443-5.255-0.247-8.165
		c-0.182-0.758-1.04-5.555-1.354-5.706c-1.956-0.938-2.012,2.611-2.03,3.255c-0.026,0.892,0.337,1.916,0.489,2.816
		c0.433,2.57,0.706,5.113,1.691,7.544c0.722,1.781,3.609,2.306,4.13,0.013c1.025-4.52-1.862-8.098-1.384-12.477
		c-1.326,0.355-2.654,0.709-3.982,1.066c2.078,3.112,3.043,8.509,3.917,12.133c1.303-0.546,2.606-1.091,3.91-1.637
		c-0.079-0.162-0.16-0.328-0.242-0.49c-1.212-2.469-4.901-0.299-3.69,2.167c0.082,0.16,0.163,0.325,0.242,0.489
		c1.095,2.222,4.459,0.639,3.912-1.636c-0.979-4.063-2.017-9.684-4.359-13.19c-1.228-1.839-3.756-1.02-3.983,1.066
		c-0.432,3.943,2.42,7.47,1.532,11.379c1.377,0.005,2.753,0.008,4.13,0.013c-1.554-3.842-0.61-15.191-6.089-15.812
		c-0.766-0.087-1.48,0.476-1.867,1.07c-2.38,3.67,2,10.979,1.148,14.972l3.569-0.956c-2.044-1.71-0.685-7.188-0.868-9.65
		c-0.181-2.44-0.69-4.568-2.17-6.553c-0.6-0.805-1.393-1.2-2.398-0.986c-0.116,0.027-0.233,0.053-0.348,0.077
		c-0.998,0.212-1.474,1.135-1.586,2.048c-0.236,1.914,0.02,4.008,0.355,5.899c0.148,0.838,0.353,1.641,0.569,2.462
		c0.204,0.789,2.784,7.447,3.337,5.659c0.338-1.092-1.572-5.864-2.014-7.084c-0.475-1.31-1.854-2.015-3.148-1.29
		c-2.6,1.454-2.431,9.505-0.115,9.114c0.897,0.694,1.796,1.39,2.693,2.084c0.145-3.406,1.043-5.201-1.025-8.159
		c-1.404-2.013-4.326-0.768-3.91,1.635c0.57,1.492,0.252,2.622-0.963,3.396l2.049,2.703c1.152-3.588,1.959-6.032,1.34-9.761
		c-1.302,0.544-2.607,1.091-3.91,1.636c0.742,1.679,1.667,7.962-2.335,7.323c0.431,1.042,0.86,2.086,1.288,3.132
		c4.087-5.44,4.625-11.086-1.663-15.214c-2.806-1.84-6.265-2.921-9.606-3.095c-2.151-0.113-4.391,0.118-6.475,0.688
		c-1.512,0.418-3.227,1.618-4.845,1.344C436.816,26.348,435.67,30.473,438.382,30.939"/>
	<path fill="#FFEDB3" d="M466.811,27.94c-0.125-0.646-0.251-1.289-0.378-1.936c0.763,1.018,2.376,1.574,3.366,0.426
		c2.581-3.011,0.784-8.009-1.139-10.945c-1.031-1.576-3.313-1.248-3.906,0.516c-0.739,2.203-0.297,4.528-1.098,6.693
		c1.305-0.174,2.607-0.346,3.91-0.517c-1.443-2.437-0.57-5.242-2.191-7.667c-0.949-1.419-2.737-1.315-3.697,0.016
		c-2.394,3.32-0.958,7.767-0.773,11.519c0.719-0.708,1.439-1.416,2.156-2.123h-0.609c0.684,0.526,1.367,1.058,2.049,1.585
		c-1.199-4.16-2.301-8.346-3.406-12.536c-0.599-2.274-4.35-1.924-4.204,0.537c0.294,4.946,2.284,9.464,2.799,14.361
		c0.119,1.142,0.863,2.154,2.124,2.154h0.245c1.653,0,2.652-1.799,1.861-3.223c-1.39-2.485-3.71-3.55-6.265-4.623
		c-2.467-1.033-8.385-3.177-11.025-1.667c-0.457,2.052-0.336,2.435,0.363,1.161c0.309-0.396,0.545-0.829,0.709-1.297
		c0.352-0.993,0.462-1.723,0.248-2.779c-0.656-3.255-3.992-4.605-6.039-6.684c-1.65-1.683-4.805,0.594-3.348,2.602
		c1.564,2.155,2.275,4.729,3.77,6.936c1.402,2.066,4.283,0.731,3.91-1.637c-0.398-2.542-0.385-4.495-0.047-6.978
		c-1.33,0.354-2.656,0.713-3.984,1.067c2.331,3.033,1.281,8.363,5.161,10.143c1.534,0.703,3.04-0.159,3.209-1.837
		c0.323-3.22-1.095-5.824-1.534-8.968c-0.694,0.899-1.389,1.797-2.08,2.695c-0.881-0.108,1.549,7.498,2.836,8.473
		c1.145,0.867,2.776-0.109,3.135-1.289c1.138-3.776-1.365-6.557-1.144-10.284c-0.719,0.708-1.435,1.416-2.153,2.125
		c0.031,0.001,0.688,5.304,0.884,5.968c0.493,1.673,1.243,2.988,2.811,3.846c1.543,0.843,2.991-0.273,3.207-1.838
		c0.461-3.34-1.012-6.83-1.095-10.223c-1.215,0.501-2.431,1.004-3.645,1.506c2.611,2.888,1.358,7.671,4.137,10.83
		c1.18,1.342,3.772,0.3,3.645-1.504c-0.157-2.215-2.516-7.092-1.384-8.923c-1.232,0.002-2.465,0.008-3.698,0.014
		c1.695,3.481,1.626,7.286,3.776,10.588c1.189,1.826,3.809,1.032,3.984-1.069c0.055-0.666,0.057-6.957-1.267-6.423
		c-0.798-0.329-1.596-0.656-2.396-0.981c0.444,0.765,0.709,1.586,0.794,2.463c0.349,1.755,3.137,2.172,3.919,0.516
		c0.287-0.604,0.569-1.213,0.851-1.823c1.149-2.48-2.546-4.637-3.704-2.137c-0.279,0.608-0.564,1.219-0.853,1.82l3.919,0.518
		c-0.255-1.286-0.553-2.408-1.236-3.525c-0.445-0.723-1.533-1.329-2.398-0.983c-3.961,1.592-1.652,7.428-1.908,10.527
		c1.327-0.354,2.654-0.711,3.985-1.066c-2.081-3.194-2.114-7.174-3.776-10.591c-0.734-1.509-2.91-1.261-3.697,0.013
		c-2.17,3.519,0.552,7.379,0.809,11.032c1.215-0.5,2.431-1.004,3.645-1.506c-2.668-3.034-1.293-7.681-4.137-10.829
		c-1.229-1.36-3.689-0.289-3.643,1.506c0.078,3.194,1.522,7.135,1.096,10.221c1.068-0.611,2.138-1.224,3.208-1.837
		c-1.954-1.066-1.228-6.022-2.16-7.875c-0.825-1.635-1.818-2.337-3.644-2.511c-1.192-0.114-2.089,1.053-2.153,2.124
		c-0.181,3.014,2.155,6.318,1.292,9.185c1.045-0.428,2.09-0.857,3.133-1.286c-1.233-0.934-0.697-5.178-1.49-6.65
		c-0.838-1.55-1.711-2.189-3.455-2.4c-1.536-0.184-2.25,1.483-2.082,2.694c0.381,2.716,1.672,5.009,1.389,7.828
		c1.068-0.612,2.137-1.223,3.208-1.834c-1.751-0.805-2.196-6.766-3.61-8.604c-1.333-1.735-3.689-1.095-3.982,1.067
		c-0.383,2.796-0.238,5.356,0.193,8.114c1.305-0.549,2.608-1.091,3.91-1.638c-1.498-2.211-2.196-4.763-3.771-6.935
		c-1.115,0.866-2.23,1.735-3.348,2.602c1.161,1.182,3.049,1.887,3.869,3.295c1.012,1.735,0.269,1.614-0.118,3.297
		c-0.281,1.233-0.722,2.247,0.304,3.338c1.314,1.39,3.742,0.81,5.391,0.836c3.537,0.051,9.857,0.627,11.88,4.252
		c0.619-1.073,1.241-2.148,1.86-3.22h-0.244c0.708,0.715,1.414,1.436,2.123,2.151c-0.514-4.886-2.505-9.45-2.797-14.359
		c-1.404,0.181-2.805,0.357-4.207,0.537c1.104,4.189,2.205,8.377,3.405,12.536c0.261,0.899,1.101,1.587,2.052,1.587h0.61
		c1.106,0,2.212-0.962,2.153-2.124c-0.135-2.731-1.541-6.998,0.199-9.414c-1.233,0.007-2.465,0.011-3.697,0.014
		c1.483,2.224,0.791,5.303,2.191,7.666c0.997,1.683,3.291,1.154,3.908-0.517c0.81-2.197,0.35-4.474,1.094-6.692
		c-1.301,0.175-2.605,0.347-3.906,0.517c0.568,0.873,2.751,4.646,1.783,5.77c1.123,0.141,2.246,0.281,3.366,0.418
		c-3.59-4.794-8.081,1.087-7.442,5.21C463.103,31.762,467.232,30.636,466.811,27.94"/>
	<path fill="#FFFFFF" d="M474.828,15.69c0.9,0.565,1.022,0.609,0.363,0.13c-0.16-0.104-0.336-0.179-0.525-0.229
		c-0.54-0.152-1.114-0.082-1.6,0.196c-0.804,0.463-1.059,1.273-1.09,2.143c-0.038,1.093,0.959,2.022,2.022,2.022
		c0.68,0,1.304-0.138,1.785-0.663c0.605-0.665,0.787-1.655,0.316-2.453c-0.079-0.131-0.57-0.912-0.164-0.217
		c-0.533-0.913-1.848-1.315-2.767-0.724c-0.922,0.593-1.297,1.789-0.728,2.77c0.078,0.132,0.576,0.911,0.164,0.214
		c0.105-0.817,0.212-1.636,0.318-2.449c-0.023,0.019-0.047,0.045-0.066,0.068c0.475-0.197,0.952-0.394,1.43-0.593H474
		c0.675,0.678,1.349,1.349,2.023,2.024c-0.074,0.217-0.148,0.431-0.223,0.648c-0.243,0.242-0.484,0.482-0.726,0.727
		c0.012-0.009,0.025-0.016,0.034-0.025c-0.52,0.07-1.038,0.136-1.557,0.206c-0.258-0.151-0.514-0.303-0.772-0.452
		c0.141,0.112,0.285,0.222,0.431,0.328c0.159,0.088,0.366,0.172,0.538,0.231c1.004,0.347,2.257-0.392,2.488-1.412
		C476.495,17.053,475.899,16.06,474.828,15.69"/>
	<path fill="#FFFFFF" d="M418.74,16.944c-0.028,0.005-0.056,0.017-0.082,0.024l2.488,2.489c0.003-0.011,0.007-0.025,0.01-0.036
		l-0.521,0.893c0.021-0.029,0.045-0.06,0.071-0.085c0.728-0.771,0.822-2.106,0-2.862c-0.789-0.722-2.085-0.82-2.86,0
		c-0.266,0.282-0.509,0.634-0.602,1.016c-0.346,1.423,0.968,2.995,2.488,2.49c0.027-0.012,0.055-0.019,0.081-0.029
		c1.003-0.335,1.762-1.411,1.412-2.489C420.903,17.357,419.813,16.584,418.74,16.944"/>
	<path fill="#FFFFFF" d="M436.534,29.192c-4.94,11.076,17.219,13.176,22.611,6.631c7.616-9.24-13.505-11.888-18.561-9.089
		c-4.242,2.35-3.17,6.54,0.965,8.114c3.77,1.431,10.4,2.239,13.996-0.055c2.79-1.78,2.58-4.91-0.582-5.976
		c-1.627-0.55-3.57-0.534-5.267-0.529c-1.978,0.003-4.355,0.81-6.183,0.045c0.161,1.235,0.323,2.466,0.483,3.699
		c0.074-0.048,0.147-0.098,0.219-0.147c2.156-1.438,0.131-4.944-2.041-3.491c-0.073,0.049-0.146,0.094-0.219,0.145
		c-1.559,1.045-1.115,3.03,0.483,3.699c2.628,1.099,5.805-0.013,8.615,0.117c0.671,0.035,1.636,0.334,2.253,0.218
		c1.585-0.296-1.04-0.672-1.813-0.728c-2.456-0.189-4.632,0.281-7.129-0.359c-2.022-0.517-2.914-0.351-1.096-1.503
		c1.178-0.745,3.139-0.53,4.504-0.456c2.089,0.114,5.301,0.508,7.162,1.583c3.895,2.26-3.794,4.422-5.695,4.513
		c-1.684,0.081-10.81-0.811-9.213-4.391C441.08,28.876,437.593,26.817,436.534,29.192"/>
	<path fill="#F19C9D" d="M448.236,28.718c-0.103-0.161-0.122-0.164-0.056-0.012c-0.051-0.152-0.115-0.3-0.197-0.438
		c-0.179-0.288-0.43-0.507-0.731-0.653c-1.148-0.556-2.162,0.362-2.007,1.541c0.135,1.034,0.95,1.972,2.044,1.989
		c1.003,0.012,1.864-0.656,2.292-1.537c0.322-0.664,0.17-1.479-0.5-1.869c-0.607-0.351-1.548-0.165-1.874,0.502
		c-0.036,0.09-0.081,0.173-0.133,0.253c0.081-0.097,0.069-0.093-0.034,0.025c0.128-0.094,0.128-0.102,0-0.023
		c0.068-0.051,0.147-0.077,0.23-0.079c0.387-0.056,0.361,0.199,0.682,0.343c-0.075-0.132-0.078-0.135-0.011-0.009
		c-0.024-0.1-0.043-0.202-0.052-0.306l-2.009,1.544c-0.337-0.582-0.392-0.621-0.157-0.123c0.034,0.088,0.082,0.168,0.15,0.238
		c0.451,0.583,1.177,0.896,1.873,0.486C448.322,30.256,448.69,29.307,448.236,28.718"/>
	<path d="M394.727,62.387c-0.038,0.136-0.205,0.515-0.5,1.139c-0.16,0.504-0.617,1.057-1.379,1.638
		c-0.586,0.335-1.029,0.505-1.326,0.502c-0.202,0-0.353-0.092-0.467-0.26l-8.267,0.679l-1.204-24.133l9.483-0.184
		c0.842-0.01,1.692,0.376,2.548,1.163c0.683,0.619,1.024,1.213,1.019,1.782c0,0.196-0.037,0.383-0.108,0.577l0.175,17.097H394.727z
		 M392.459,45.496c-0.035-0.339-0.236-0.643-0.615-0.904c-0.305-0.276-0.735-0.472-1.291-0.582l-5.878-0.2l-0.544,19.574
		l6.528,0.082c0.349-0.034,0.681-0.203,1.015-0.511c0.209-0.151,0.345-0.312,0.416-0.483c0.07-0.164,0.004-0.408-0.197-0.749
		L392.459,45.496z"/>
	<polygon points="398.623,55.417 398.776,63.067 409.152,63.635 408.485,66.372 396.551,66.515 396.362,41.266 409.2,41.905 
		409.359,43.819 398.666,43.814 398.937,52.47 409.109,52.734 408.913,55.083 	"/>
	<path d="M419.859,66.148l-0.978-4.266l-6.328,0.256l-0.888,3.74l-2.673-1.104l5.815-22.891l1.806,0.09l5.492,24.088L419.859,66.148
		z M416.03,47.082l-2.66,12.636l4.466,0.396L416.03,47.082z"/>
	<path d="M436.194,51.917c0.047,0.605-0.355,1.33-1.207,2.162c-0.852,0.834-1.573,1.219-2.182,1.143
		c-0.031,0.015-0.066,0.027-0.1,0.027c-0.055,0.02-0.122,0.011-0.207-0.034L436,66.149l-2.299,0.213l-3.789-10.825l-4.293,0.224
		l-0.026,10.222l-1.374,0.434l-1.203-24.137l9.482-0.18c0.86-0.013,1.707,0.359,2.537,1.106c0.826,0.746,1.205,1.544,1.129,2.385
		l0.055,6.227L436.194,51.917z M433.865,45.828c-0.035-0.348-0.222-0.659-0.573-0.947c-0.35-0.289-0.698-0.424-1.044-0.411
		l-6.234,0.209l-0.499,7.955l6.638,0.269c0.28,0.045,0.622-0.095,1.038-0.442c0.33-0.269,0.496-0.463,0.496-0.59
		c0-0.052-0.039-0.092-0.109-0.127L433.865,45.828z"/>
	<path d="M456.801,61.944c0.017,0.051-0.086,0.44-0.319,1.159c-0.278,0.51-0.779,1.019-1.508,1.511
		c-0.661,0.425-1.313,0.731-1.975,0.914l-10.233,0.926l1.308-24.863l9.044-0.238c0.119-0.017,0.238-0.025,0.358-0.025
		c0.707,0.007,1.438,0.419,2.187,1.234c0.838,0.691,1.298,1.35,1.383,1.974l-0.156,6.141l-1.129,2.711l1.01,2.54l0.057,6.018
		H456.801z M454.484,45.052c-0.012-0.548-0.603-1.092-1.769-1.611l-5.924,0.417l-0.53,8.444l6.561-0.184
		c0.349,0.056,0.697-0.087,1.068-0.428c0.362-0.347,0.581-0.693,0.653-1.056L454.484,45.052z M454.472,55.879
		c0-0.289-0.19-0.595-0.589-0.909c-0.201-0.159-0.37-0.261-0.512-0.321c-0.17-0.047-0.301,0-0.388,0.153l-6.431-0.464l-0.378,8.728
		L452.77,63c0.354,0,0.694-0.151,1.008-0.461c0.453-0.324,0.647-0.615,0.573-0.875L454.472,55.879z"/>
	<path d="M471.163,62.128c-0.053,0.775-0.47,1.488-1.232,2.138c-0.899,0.763-1.671,1.226-2.31,1.372l-5.811-0.248
		c-0.12,0.022-0.235,0.025-0.356,0.022c-0.76,0-1.457-0.465-2.088-1.383c-0.781-0.748-1.127-1.507-1.039-2.284l0.033-20.5
		l3.408,0.252l-1.142,20.221c0.015,0.204,0.203,0.487,0.559,0.854c0.309,0.258,0.53,0.389,0.667,0.389
		c0.088,0,0.172-0.036,0.264-0.124l5.289,0.302c0.273-0.022,0.552-0.197,0.84-0.551c0.285-0.354,0.432-0.673,0.434-0.968
		c0-0.209-0.027-0.483-0.094-0.823l0.436-19.421l1.944,0.09l0.229,20.581L471.163,62.128z"/>
	<polygon points="484.102,65.901 474.484,47.667 475.163,65.599 472.742,64.569 472.904,41.48 475.573,40.52 483.035,59.151 
		483.44,41.483 485.329,41.581 485.55,65.628 	"/>
	<polygon points="498.594,66.014 488.973,47.78 489.657,65.713 487.235,64.686 487.395,41.597 490.061,40.632 497.529,59.268 
		497.928,41.602 499.817,41.696 500.043,65.746 	"/>
	<polygon points="508.913,54.349 509.367,65.873 506.966,65.337 506.795,54.255 501.911,41.545 504.161,41.182 508.579,50.755 
		512.399,41.746 514.517,41.657 	"/>
	<path d="M429.163,24.436c-1.035-0.227-2.023,0.11-2.469,1.123c-0.357,0.815-0.309,1.874,0.152,2.642
		c0.502,0.834,1.514,1.11,2.359,0.602c0.946-0.571,1.256-1.963,1.037-2.979c-0.24-1.122-1.388-1.782-2.425-1.129
		c-0.938,0.589-1.102,2.053-0.738,3.012c0.37,0.971,1.634,1.444,2.298,0.445c0.503-0.759,0.522-2.31-0.195-2.961
		c-0.419-0.378-1.008-0.271-1.357,0.15c-0.397,0.476-0.445,1.37-0.177,1.917c0.286,0.579,1.019,0.736,1.476,0.245
		c0.426-0.463,0.498-1.343,0.184-1.873c-0.215-0.363-0.697-0.325-0.922,0c-0.195,0.284-0.324,0.566-0.411,0.897
		c-0.156,0.596,0.651,0.92,0.976,0.413c0.18-0.283,0.291-0.589,0.412-0.899c0.246-0.642-0.785-0.92-1.03-0.283
		c-0.088,0.227-0.173,0.436-0.304,0.644c0.324,0.136,0.649,0.274,0.975,0.412c0.066-0.25,0.157-0.433,0.305-0.645h-0.922
		c0.053,0.086,0.043,0.203,0.037,0.305c0.001-0.02-0.121,0.789,0.195,0.348c-0.021,0.031,0.014-0.85,0.031-0.811
		c-0.008-0.014-0.203,0.026-0.186-0.026c-0.006,0.017,0.085,0.155,0.091,0.19c0.049,0.296,0.116,0.55,0.087,0.857
		c-0.031,0.309-0.18,0.857-0.495,0.452c-0.275-0.359-0.212-1.077-0.058-1.467c0.151-0.38,0.642-0.75,0.973-0.327
		c0.307,0.393,0.197,1.122,0.045,1.548c-0.324,0.902-1.216,1.004-1.498,0.05c-0.276-0.942,0.138-2.067,1.271-1.822
		C429.548,25.609,429.834,24.582,429.163,24.436"/>
	<path d="M466.497,25.072c-1.523-0.085-1.913,1.23-1.396,2.447c0.382,0.898,1.402,2.407,2.576,2.139
		c0.623-0.141,0.88-0.762,0.967-1.331c0.133-0.895-0.139-1.754-0.784-2.399c-0.491-0.489-1.347-0.917-1.95-0.349
		c-0.645,0.608-0.403,1.766-0.084,2.474c0.215,0.475,0.569,0.962,1.127,1.021c0.518,0.058,0.99-0.279,1.158-0.766
		c0.374-1.084-0.301-2.146-1.228-2.631c-0.318-0.167-0.667-0.016-0.784,0.32c-0.265,0.773-0.248,2.398,0.872,2.456
		c1.32,0.069,0.977-1.845,0.27-2.358c-0.309-0.226-0.668,0.032-0.783,0.316c-0.188,0.457-0.078,0.827,0.256,1.177
		c0.474,0.496,1.229-0.26,0.754-0.755c-0.131-0.139-0.089,0.127,0.018-0.139l-0.783,0.321c0.109,0.078,0.053,0.3,0.115,0.39
		c0.255,0.348,0.252-0.07,0.227-0.22c-0.049-0.285-0.008-0.63,0.088-0.904c-0.263,0.107-0.524,0.213-0.786,0.318
		c0.425,0.223,0.953,0.66,0.783,1.252c-0.06,0.212-0.064,0.199-0.205,0c-0.15-0.211-0.247-0.494-0.298-0.748
		c-0.041-0.197-0.105-0.563,0.015-0.742c0.039-0.06-0.004,0.005-0.046,0.012c0.031-0.001,0.115,0.016,0.154,0.043
		c0.369,0.262,0.662,0.545,0.809,0.994c0.131,0.403,0.024,0.776-0.076,1.152c-0.031,0.115-0.072,0.059-0.017,0.058
		c-0.013,0.001-0.082,0.004-0.165-0.038c-0.519-0.252-0.98-0.91-1.219-1.466c-0.112-0.266-0.188-0.615-0.157-0.785
		c0.013-0.085,0.03-0.112,0.091-0.139c0.105-0.058,0.316-0.059,0.483-0.049C467.183,26.178,467.181,25.113,466.497,25.072"/>
	<path d="M447.582,24.507c-4.735,0.033-12.581,2.4-12.025,8.601c0.617,6.857,11.612,7.599,16.463,6.727
		c4.324-0.778,11.14-3.321,8.951-8.956C459.055,25.952,452.223,24.627,447.582,24.507c-0.689-0.019-0.689,1.05,0,1.068
		c2.953,0.075,6.1,0.593,8.73,2.024c2.814,1.536,5.815,4.815,2.71,8.212c-1.267,1.387-3.402,2.011-5.149,2.513
		c-4.148,1.188-8.92,1.149-12.877-0.688c-3.58-1.661-5.685-5.889-2.275-9.199c2.34-2.275,5.756-2.844,8.861-2.862
		C448.268,25.569,448.269,24.501,447.582,24.507"/>
	<path d="M448.03,32.173c1.047-0.662,3.213-2.394,2.591-3.873c-0.512-1.213-2.619-1.283-3.73-1.222
		c-1.13,0.063-2.825,0.495-2.458,1.988c0.343,1.394,1.879,2.214,2.836,3.142c0.493,0.477,1.25-0.278,0.755-0.756
		c-0.581-0.559-1.256-1.01-1.815-1.599c-0.24-0.248-0.832-0.78-0.763-1.167c0.077-0.441,0.918-0.498,1.243-0.528
		c0.795-0.077,1.824-0.051,2.559,0.287c0.749,0.347,0.191,0.962-0.209,1.434c-0.447,0.521-0.965,1.004-1.547,1.369
		C446.913,31.617,447.447,32.542,448.03,32.173"/>
	<path d="M441.965,32.516c-0.218,1.556,0.93,2.707,2.469,2.811c1.716,0.113,3.046-1.396,3.728-2.812
		c0.295-0.615-0.624-1.158-0.923-0.538c-0.385,0.802-0.945,1.631-1.754,2.056c-0.912,0.482-2.678,0.104-2.49-1.231
		C443.089,32.128,442.06,31.838,441.965,32.516"/>
	<path d="M447.659,32.03c0.843,2.938,5.882,4.345,6.486,0.534c0.107-0.673-0.922-0.96-1.03-0.284
		c-0.429,2.707-3.86,1.448-4.428-0.531C448.499,31.089,447.467,31.37,447.659,32.03"/>
	<path d="M444.971,34.734c-0.021,0.753-0.108,1.506-0.18,2.255c-0.026,0.297,0.268,0.522,0.535,0.536
		c1.941,0.095,3.872-0.107,5.811-0.179c0.272-0.013,0.559-0.238,0.535-0.539c-0.068-0.857-0.104-1.744-0.375-2.57
		c-0.215-0.648-1.245-0.368-1.029,0.283c0.244,0.739,0.275,1.521,0.337,2.287c0.177-0.174,0.357-0.353,0.532-0.532
		c-1.938,0.075-3.869,0.276-5.811,0.181c0.176,0.178,0.355,0.354,0.532,0.533c0.071-0.749,0.158-1.502,0.179-2.255
		C446.056,34.046,444.99,34.046,444.971,34.734"/>
	<path d="M447.52,34.555c0,0.669,0.034,1.315,0.077,1.981c0.349-0.048,0.698-0.094,1.048-0.142c0.018,0.109,0.018,0.113,0.004,0.003
		c-0.074-0.675-1.143-0.682-1.067,0c0.011,0.094,0.021,0.186,0.035,0.28c0.087,0.592,1.087,0.454,1.048-0.142
		c-0.042-0.665-0.076-1.312-0.076-1.981C448.588,33.872,447.52,33.869,447.52,34.555"/>
	<path d="M437.455,14.606c0.965,1.674,2.078,3.911,4.024,4.619c1.619,0.584,2.655-0.56,2.933-2.071
		c0.121-0.67-0.906-0.961-1.029-0.283c-0.11,0.606-0.269,1.352-0.98,1.447c-0.572,0.072-1.178-0.414-1.566-0.766
		c-1.07-0.968-1.748-2.248-2.458-3.484C438.035,13.473,437.112,14.01,437.455,14.606"/>
	<path d="M442.815,16.614c1.19,1.426,3.545,4.313,5.684,4.028c2.443-0.326,1.52-3.376,0.57-4.675
		c-0.402-0.55-1.329-0.016-0.923,0.537c0.431,0.589,1.05,1.511,0.885,2.29c-0.271,1.284-1.446,0.647-2.131,0.2
		c-1.277-0.831-2.36-1.97-3.33-3.135C443.13,15.331,442.377,16.088,442.815,16.614"/>
	<path d="M447.738,16.081c1.083,1.198,2.364,2.481,3.958,2.949c0.849,0.251,2.251,0.582,3.022-0.018
		c1.729-1.347-0.698-4.685-1.808-5.702c-0.506-0.463-1.264,0.289-0.754,0.755c0.701,0.644,3.024,3.587,1.479,4.189
		c-0.658,0.255-2.098-0.396-2.604-0.686c-0.981-0.561-1.788-1.413-2.539-2.242C448.031,14.816,447.278,15.574,447.738,16.081"/>
	<path d="M424.266,15.156c-2.489-3.233-8.293-3.5-10.695,0.028c-1.086,1.593-1.27,3.703-0.556,5.485
		c0.912,2.273,2.819,3.195,5.071,3.729c0.668,0.159,0.953-0.871,0.283-1.026c-1.724-0.408-3.226-0.945-4.123-2.589
		c-0.787-1.445-0.799-3.278,0.023-4.71c1.783-3.101,6.969-3.116,9.074-0.382C423.758,16.23,424.685,15.7,424.266,15.156"/>
	<path d="M418.888,20.603c-0.948-0.37-1.488-1.542-1.261-2.516c0.264-1.129,1.693-1.297,2.568-0.729
		c1.441,0.935,0.215,3.9-1.498,3.137c-0.623-0.276-1.166,0.644-0.537,0.923c3.049,1.356,5.252-3.521,2.441-5.059
		c-1.413-0.775-3.465-0.363-3.963,1.297c-0.487,1.61,0.426,3.377,1.965,3.975C419.246,21.88,419.522,20.848,418.888,20.603"/>
	<path d="M424.075,15.883c12.684-9.451,32.029-9.941,44.465,0.189c0.529,0.431,1.289-0.322,0.756-0.755
		c-12.795-10.421-32.661-10.116-45.76-0.355C422.991,15.368,423.523,16.294,424.075,15.883"/>
	<path d="M469.293,16.201c0.975-3.075,4.416-4.912,7.439-3.766c2.117,0.804,3.645,2.695,3.79,4.988
		c0.126,2.005-1.174,4.372-3.43,4.428c-0.686,0.017-0.688,1.083,0,1.065c5.658-0.133,5.36-7.896,1.826-10.512
		c-3.817-2.823-9.223-1.01-10.654,3.512C468.058,16.573,469.087,16.855,469.293,16.201"/>
	<path d="M476.772,16.294c-0.619-1.408-2.728-1.687-3.929-0.954c-1.474,0.899-1.459,2.941-0.232,4.042
		c0.935,0.844,2.425,0.972,3.505,0.335C477.407,18.961,477.445,17.496,476.772,16.294c-0.338-0.6-1.26-0.06-0.924,0.54
		c0.377,0.67,0.504,1.456-0.22,1.929c-0.591,0.39-1.444,0.382-2.044,0.018c-0.886-0.534-1.188-1.905-0.203-2.521
		c0.744-0.464,2.084-0.306,2.467,0.574C476.124,17.462,477.045,16.921,476.772,16.294"/>
	<path d="M417.767,23.616c-0.921,1.707-1.676,3.592-1.906,5.537c-0.082,0.68,0.987,0.673,1.065,0
		c0.191-1.598,0.952-3.494,1.764-4.999C419.014,23.55,418.094,23.009,417.767,23.616"/>
	<path d="M417.62,29.459c-3.51-1.196-5.441-5.181-8.898-6.329c-2.143-0.711-4.246,0.676-4.1,2.96
		c0.172,2.651,2.587,4.81,4.589,6.237c1.708,1.216,5.288,3.549,7.54,2.9c0.659-0.187,0.379-1.215-0.285-1.026
		c-1.613,0.463-4.295-1.263-5.591-2.054c-1.739-1.063-4.613-3.054-5.009-5.263c-0.13-0.73,0.435-2.349,1.055-2.789
		c0.973-0.695,2.332,0.54,3.041,1.081c0.81,0.624,1.603,1.271,2.375,1.938c1.563,1.35,3.012,2.695,5,3.374
		C417.988,30.711,418.268,29.68,417.62,29.459"/>
	<path d="M480.184,32.351c3.285-2.105,6.414-6.079,10.395-6.829c1.76-0.331,2.557,0.85,1.732,2.548
		c-0.695,1.429-2.528,2.624-3.777,3.483c-2.436,1.668-4.962,3.257-7.83,4.029c-0.664,0.181-0.383,1.212,0.282,1.032
		c2.58-0.697,16.772-7.477,12.023-11.696c-1.648-1.464-4.32,0.104-5.828,1.01c-2.683,1.605-4.912,3.824-7.535,5.501
		C479.069,31.795,479.605,32.724,480.184,32.351"/>
	<path d="M476.715,22.76c1.967,2.224,2.887,5.553,3.614,8.379c0.171,0.668,1.201,0.386,1.028-0.281
		c-0.774-3.011-1.794-6.484-3.891-8.851C477.014,21.495,476.261,22.25,476.715,22.76"/>
	<path fill="#FFFFFF" d="M468.072,27.121c0,0.321-0.291,0.582-0.652,0.582c-0.36,0-0.649-0.261-0.649-0.582s0.289-0.579,0.649-0.579
		C467.781,26.542,468.072,26.799,468.072,27.121"/>
	<path fill="#FFFFFF" d="M429.686,26.36c0,0.319-0.291,0.581-0.652,0.581c-0.36,0-0.647-0.262-0.647-0.581
		c0-0.318,0.286-0.58,0.647-0.58C429.395,25.78,429.686,26.042,429.686,26.36"/>
	<path d="M414.971,34.922c-0.139,1.531-0.242,3.06-0.242,4.599c0,0.654,1.023,0.659,1.023,0v-0.095c0-0.66-1.023-0.661-1.023,0
		v0.095h1.023c0-1.541,0.104-3.067,0.241-4.599C416.052,34.266,415.03,34.268,414.971,34.922"/>
	<path d="M480.818,36.506c0.112,0.902,0.23,1.802,0.398,2.693c0.079,0.431,0.184,1.531,0.844,1.47c0.647-0.066,0.656-1.089,0-1.025
		c0.996-0.096,0.277,0.389,0.33,0.119c0.015-0.08-0.066-0.244-0.088-0.332c-0.076-0.327-0.133-0.661-0.188-0.993
		c-0.106-0.644-0.191-1.287-0.271-1.932C481.759,35.861,480.735,35.854,480.818,36.506"/>
	<path fill="#60A5A0" d="M553.358,735.606c-11.122-9.875-26.663-23.231-44.273-47.71c14.623,4.587,29.448,8.801,34.586,10.162
		c8.542,2.262,10.716,1.874,11.634-2.055c0.916-3.93,2.222-10.858,2.607-13.859c0.388-3,0.285-4.482-4.776-5.439
		c-4.814-0.909-12.652-1.821-50.053-13.827c4.954-5.767,9.91-11.809,14.806-18.116c3.088-3.98,8.15-7.158-3.209-18.03
		c-7.051-6.751-6.286-11.658-18.203,3.966c-4.802,6.298-11.291,14.327-19.055,23.059c-16.763-6.78-29.667-13.647-35.122-16.762
		c-3.359-1.917-5.757-2.395-8.611,2.739c-2.855,5.133-8.108,12.574-2.821,16.786c3.386,2.698,17.052,8.437,30.812,13.959
		c-14.784,14.813-32.233,29.808-50.679,40.715c-7.851,4.641,3.71,27.232,9.905,25.109c6.605-2.263,30.274-19.364,57.865-47.114
		c12.373,16.991,53.92,70.664,61.463,66.301C542.678,754.079,556.247,738.174,553.358,735.606z"/>
	<path fill="#EFD58B" d="M552.883,729.767c-11.123-9.875-26.664-23.231-44.273-47.71c14.623,4.587,29.447,8.801,34.586,10.162
		c8.542,2.262,10.716,1.874,11.633-2.055c0.917-3.929,2.222-10.858,2.608-13.859c0.387-3,0.284-4.482-4.777-5.439
		c-4.813-0.909-12.652-1.821-50.053-13.828c4.954-5.767,9.91-11.808,14.807-18.116c3.087-3.979,8.15-7.157-3.209-18.03
		c-7.052-6.751-6.286-11.658-18.203,3.966c-4.803,6.298-11.291,14.327-19.055,23.058c-16.764-6.78-29.667-13.647-35.123-16.762
		c-3.358-1.917-5.757-2.395-8.611,2.739c-2.855,5.134-8.108,12.575-2.821,16.786c3.386,2.698,17.053,8.437,30.813,13.96
		c-14.784,14.813-32.233,29.807-50.68,40.715c-7.85,4.642,3.711,27.232,9.905,25.11c6.605-2.263,30.274-19.364,57.865-47.114
		c12.372,16.993,53.919,70.664,61.462,66.301C542.203,748.24,555.771,732.335,552.883,729.767z"/>
	<path fill="#60A5A0" d="M553.322,258.223c-8.089-1.802-100.284-8.147-168.342-7.475c-6.647,0.065-6.232,31.615-7.136,79.47
		c-0.907,47.853-0.41,69.569,8.632,70.934c9.041,1.364,26.41,4.976,72.201,6.041c45.787,1.063,92.889,5.675,94.785-4.067
		c1.891-9.74,7.557-58.906,8.482-84.602C562.871,292.823,561.412,260.027,553.322,258.223z M526.918,385.299
		c-3.693,0.871-118.383-4.143-122.037-5.045c-3.659-0.9-1.357-103.594,3.859-103.506c64.275,1.085,112.757,5.49,124.371,6.656
		C538.914,283.986,530.608,384.428,526.918,385.299z"/>
	<path fill="#60A5A0" d="M500.964,446.34c-5.87-0.634-59.517-4.205-72.597-4.539c-5.214-0.134-9.881,1.975-9.831,6.615
		c0.051,4.64-0.366,20.902-0.366,20.902s0.603,6.406,9.984,7.3c12.573,1.2,57.971,1.904,64.318,2.327
		c8.525,0.569,13.15,0.983,15.114-9.197c2.033-10.548,2.549-16.507,2.549-16.507S510.606,447.38,500.964,446.34z M487.742,460.899
		c0.817,0.638,0.021,4.895,0.021,4.895l-47.988-3.055c0,0,0.252-4.177,0.541-4.392C443.462,456.016,486.814,460.175,487.742,460.899
		z"/>
	<path fill="#60A5A0" d="M458.343,222.777l0.566-9.591c0,0-0.883-5.209,5.427-4.837c6.31,0.372,24.175-0.64,24.762,2.833
		c0.591,3.473-0.785,13.36-0.785,13.36s42.455,2.5,52.386,3.085c11.518,0.679,10.343,5.766,10.476,10.242
		c0.132,4.477,0.834,12.768-3.131,12.879c-3.966,0.11-74.592-3.362-100.246-4.53c-25.65-1.166-48.82-1.5-48.82-1.5
		s-5.465-0.623-5.243-7.527c0.396-12.411,0.832-16.53,6.767-16.524C406.438,220.674,458.343,222.777,458.343,222.777z"/>
	<path fill="#60A5A0" d="M566.962,419.72c-4.792-1.802-163.769-8.481-176.724-9.515c-16.442-1.315-19.882-2.552-22.171,3.736
		c-2.291,6.289-8.479,49.405-8.888,51.766c-0.558,3.241,26.743,6.644,28.162,3.747c1.081-2.205,4.624-35.025,7.343-35.011
		c3.792,0.02,124.014,4.971,135.535,5.415c6.562,0.253,6.899,8.888,6.183,17.679l0,0c-0.388,4.074-2.031,5.262-6.771,5.087
		c-4.741-0.175-6.714,1.052-6.913,4.379c-0.197,3.327,0.714,12.756,1.779,15.586c0.987,2.627,38.119,5.954,40.685-6.129
		C566.641,468.706,573.48,422.171,566.962,419.72z"/>
	<path fill="#EFD58B" d="M547.764,252.871c-8.089-1.802-100.284-8.147-168.341-7.475c-6.647,0.065-6.232,31.615-7.136,79.47
		c-0.907,47.853-0.411,69.569,8.631,70.934c9.042,1.364,26.41,4.976,72.201,6.041c45.787,1.063,92.89,5.675,94.785-4.067
		c1.892-9.74,7.558-58.906,8.482-84.602C557.313,287.47,555.854,254.674,547.764,252.871z M521.361,379.947
		c-3.694,0.871-118.384-4.143-122.038-5.045c-3.658-0.9-1.357-103.594,3.859-103.506c64.274,1.085,112.757,5.49,124.371,6.656
		C533.356,278.634,525.051,379.075,521.361,379.947z"/>
	<path fill="#EFD58B" d="M495.9,442.22c-5.87-0.634-59.516-4.205-72.596-4.539c-5.214-0.134-9.882,1.975-9.831,6.615
		c0.051,4.639-0.367,20.902-0.367,20.902s0.604,6.406,9.984,7.3c12.574,1.2,57.971,1.904,64.319,2.327
		c8.525,0.569,13.149,0.983,15.115-9.197c2.033-10.548,2.549-16.507,2.549-16.507S505.542,443.26,495.9,442.22z M482.678,456.779
		c0.817,0.638,0.021,4.895,0.021,4.895l-47.988-3.055c0,0,0.252-4.178,0.541-4.392C438.398,451.896,481.75,456.055,482.678,456.779z
		"/>
	<path fill="#EFD58B" d="M452.785,217.677l0.566-9.591c0,0-0.884-5.209,5.426-4.837c6.311,0.372,24.176-0.64,24.763,2.833
		c0.59,3.473-0.786,13.36-0.786,13.36s42.455,2.5,52.386,3.085c11.519,0.679,10.343,5.766,10.476,10.242
		c0.133,4.477,0.835,12.768-3.131,12.879c-3.966,0.11-74.592-3.362-100.246-4.53c-25.65-1.166-48.82-1.5-48.82-1.5
		s-5.464-0.623-5.243-7.527c0.396-12.411,0.833-16.53,6.767-16.524C400.879,215.574,452.785,217.677,452.785,217.677z"/>
	<path fill="#EFD58B" d="M561.404,415.198c-4.791-1.802-163.768-8.481-176.724-9.515c-16.442-1.315-19.882-2.552-22.171,3.736
		c-2.29,6.289-8.478,49.405-8.887,51.766c-0.559,3.241,26.742,6.644,28.162,3.747c1.082-2.205,4.625-35.025,7.343-35.011
		c3.793,0.02,124.013,4.971,135.535,5.415c6.563,0.253,6.899,8.888,6.184,17.679l0,0c-0.389,4.074-2.031,5.262-6.772,5.087
		c-4.741-0.175-6.713,1.052-6.913,4.379c-0.197,3.327,0.715,12.756,1.78,15.586c0.987,2.627,38.119,5.954,40.685-6.129
		C561.083,464.184,567.922,417.649,561.404,415.198z"/>
	<path fill="#60A5A0" d="M475.997,608.595c-0.234-2.197-8.28-2.69-18.808-4.141c2.104-4.912,3.966-10.493,2.33-11.581
		c-2.922-1.945-17.351-3.908-20.813-4.402c-2.484-0.354-4.953,6.089-6.351,10.408c-13.069-4.226-23.671-9.109-30.307-12.538
		c2.927,0.005,5.417-0.011,7.267-0.054c14.23-0.333,55.02,0.302,58.033,0.004s2.255-5.059,2.255-5.059s0.272-6.834-0.256-10.917
		c-0.527-4.084-5.919-3.958-5.919-3.958s0.864-0.02-14.173-0.122c-9.233-0.063-46.225-0.505-74.294-0.816
		c-0.02-1.395-0.05-2.933-0.087-4.586c15.267-0.358,70.383-1.651,73.352-1.72c3.45-0.081,3.589-3.32,3.624-4.4
		c0.035-1.08-0.913-8.824-1.366-12.266c-0.452-3.441-2.286-2.967-4.6-3.343c-2.039-0.333-56.5,1.131-71.623,1.627
		c-0.063-1.778-0.126-3.552-0.191-5.301c16.516,0.535,74.305-2.415,75.416-2.44c1.293-0.03,1.33-16.859-0.446-18.975
		c-1.673-1.994-61.104-0.334-75.751,1.491c-0.146-3.552-0.24-5.735-0.24-5.735s66.645-3.511,77.084-4.412
		c3.128-0.27,2.748-16.028-0.628-20.12c-3.131-3.793-78.294,1.688-89.527,2.818c-9.427,0.949-10.609,7.584-10.959,11.045
		c-0.282,2.781,0.947,46.206,1.508,66.064c-4.923-0.044-8.134-0.064-8.805-0.049c-3.881,0.091-4.216,4.194-4.216,4.194
		s-0.871,8.896-0.79,12.308c0.08,3.411,5.049,3.75,5.696,3.735c0.16-0.004,3.427,0.071,8.469,0.181
		c0.348,9.73,1.287,32.139,1.231,34.094c-0.251,8.851,2.506,13.964,19.7,12.267c20.841-2.057,24.454-3.253,25.221-5.05
		c0,0-1.786-17.865-5.888-17.984c-4.101-0.12-13.678,1.588-14.38,0.049c-1.335-2.924-1.685-15.714-1.773-22.893
		c4.529,0.08,9.116,0.153,13.462,0.21c-8.154,9.739-7.085,10.723-1.222,15.246c6.151,4.746,31.435,15.659,45.335,19.648
		c13.9,3.989,40.44,7.107,42.425,5.909C476.975,625.831,476.364,612.038,475.997,608.595z"/>
	<path fill="#EFD58B" d="M472.394,603.851c-0.234-2.197-8.28-2.69-18.808-4.141c2.104-4.912,3.966-10.493,2.33-11.581
		c-2.922-1.945-17.351-3.908-20.813-4.402c-2.484-0.354-4.953,6.089-6.351,10.408c-13.069-4.226-23.67-9.109-30.307-12.538
		c2.927,0.005,5.417-0.011,7.267-0.054c14.23-0.334,55.02,0.302,58.033,0.004c3.013-0.298,2.255-5.059,2.255-5.059
		s0.272-6.833-0.256-10.917c-0.527-4.084-5.919-3.958-5.919-3.958s0.864-0.02-14.173-0.122c-9.233-0.063-46.225-0.505-74.294-0.816
		c-0.02-1.395-0.05-2.933-0.087-4.586c15.267-0.358,70.383-1.651,73.352-1.72c3.45-0.081,3.589-3.32,3.624-4.4
		c0.034-1.08-0.913-8.824-1.366-12.266c-0.452-3.441-2.286-2.967-4.6-3.343c-2.039-0.333-56.5,1.131-71.623,1.627
		c-0.063-1.778-0.126-3.552-0.191-5.301c16.516,0.535,74.305-2.415,75.417-2.44c1.293-0.03,1.33-16.859-0.446-18.975
		c-1.673-1.994-61.104-0.334-75.751,1.491c-0.146-3.552-0.24-5.735-0.24-5.735s66.645-3.511,77.084-4.412
		c3.128-0.27,2.749-16.028-0.628-20.121c-3.131-3.793-78.294,1.688-89.527,2.818c-9.427,0.949-10.609,7.584-10.959,11.045
		c-0.282,2.781,0.947,46.206,1.508,66.064c-4.923-0.044-8.134-0.064-8.805-0.049c-3.881,0.091-4.216,4.194-4.216,4.194
		s-0.871,8.896-0.79,12.308c0.08,3.411,5.049,3.75,5.696,3.735c0.16-0.004,3.427,0.071,8.469,0.181
		c0.348,9.73,1.287,32.139,1.231,34.094c-0.251,8.851,2.506,13.964,19.7,12.267c20.841-2.057,24.454-3.253,25.221-5.05
		c0,0-1.786-17.865-5.888-17.984c-4.101-0.12-13.678,1.588-14.38,0.049c-1.335-2.924-1.685-15.714-1.773-22.893
		c4.529,0.08,9.116,0.153,13.462,0.21c-8.154,9.739-7.085,10.723-1.222,15.246c6.151,4.746,31.435,15.659,45.335,19.648
		s40.44,7.107,42.425,5.909C473.372,621.088,472.761,607.294,472.394,603.851z"/>
	<path fill="#60A5A0" d="M352.704,128.66c0.093-5.813,0.425-7.395-5.272-8.848c-5.697-1.452-14.054-1.814-14.463,1.904
		c-0.408,3.717,0.383,14.951-4.907,36.851c-1.871,7.75-0.552,11.9,4.961,13.475c5.51,1.574,12.367,1.783,13.523-1.399
		C347.704,167.462,352.436,145.227,352.704,128.66z"/>
	<path fill="#60A5A0" d="M360.614,89.687c-2.508,0.815-4.139,1.266-4.033,7.684c0.103,6.417,1.973,38.572,1.166,67.234
		c-0.198,7.008-1.38,23.339-1.503,27.544c-0.124,4.205-1.032,10.543,5.456,10.684c7.76,0.169,14.982,2.438,16.326-0.775
		c1.345-3.214,2.258-40.324,1.771-69.358c-0.487-29.034-2.226-41.202-4.025-42.378C373.972,89.144,364.4,88.457,360.614,89.687z"/>
	<path fill="#60A5A0" d="M473.794,133.648c-3.892,0.403-5.642,0.164-5.642,0.164c-0.171-1.659-1.021-28.109-1.154-29.394
		c-0.132-1.285-0.718-8.979-5.782-9.294c-1.711-0.107-8.808,0.296-17.914,0.948c0.227-1.554,0.439-3.086,0.636-4.579
		c0.532-4.042,0.774-6.369-14.849-7.119c-7.958-0.383-6.448-1.221-8.725,13.517c-12.175,1.05-23.536,2.172-28.359,2.925
		c-4.574,0.714-4.842,3.854-4.37,8.417c0.472,4.563,0.41,12.65,2.889,13.745c1.674,0.74,13.479-0.314,25.266-1.501
		c-1.165,5.095-2.52,10.538-4.075,16.165c-11.248,0.559-21.207,1.024-22.508,0.985c-3.154-0.093-4.42-0.172-4.841,3.854
		c-0.423,4.027-1.831,16.749,2.816,17.106c1.792,0.138,8.988-0.189,17.879-0.707c-4.383,12.356-9.727,24.588-16.142,35.069
		c-3.913,6.396,13.686,17.546,17.394,13.576c3.869-4.144,14.063-20.934,23.076-50.225c6.667-0.471,12.531-0.917,16.119-1.229
		c12.673-1.101,25.66-1.187,29.601-1.594c3.94-0.408,4.384-4.226,4.14-8.603C479.006,141.493,478.979,133.112,473.794,133.648z
		 M445.704,121.461c0.365,3.526,0.651,14.396,0.651,14.396s-4.462,0.236-10.891,0.57c0.461-1.686,0.896-3.311,1.272-4.785
		c0.739-3.068,1.667-7.443,2.637-12.462c0,0,0.011-0.001,0.016-0.001C447.935,118.715,445.339,117.935,445.704,121.461z"/>
	<path fill="#60A5A0" d="M447.854,162.135c-2.565-1.975-4.991-3.667-7.201-0.714c-2.211,2.954-7.316,8.302-8.596,10.112
		c-1.281,1.809-2.54,3.826,2.932,8.08c5.47,4.256,19.007,12.791,31.989,17.456c4.353,1.565,9.604,3.687,11.971,0.217
		c2.365-3.469,9.461-13.205,6.737-15.229C482.96,180.034,465.619,175.818,447.854,162.135z"/>
	<path fill="#EFD58B" d="M348.63,125.349c0.093-5.813,0.426-7.395-5.272-8.847c-5.697-1.452-14.054-1.814-14.462,1.904
		c-0.409,3.717,0.382,14.951-4.908,36.852c-1.871,7.749-0.551,11.9,4.961,13.474c5.511,1.574,12.368,1.783,13.523-1.399
		C343.631,164.152,348.362,141.917,348.63,125.349z"/>
	<path fill="#EFD58B" d="M356.539,86.377c-2.507,0.815-4.138,1.266-4.033,7.684c0.103,6.417,1.972,38.572,1.165,67.234
		c-0.198,7.008-1.379,23.339-1.503,27.544c-0.123,4.205-1.031,10.543,5.457,10.683c7.759,0.169,14.981,2.439,16.325-0.775
		c1.345-3.214,2.258-40.324,1.771-69.358c-0.487-29.033-2.226-41.202-4.025-42.378C369.898,85.834,360.325,85.147,356.539,86.377z"
		/>
	<path fill="#EFD58B" d="M469.72,130.337c-3.893,0.403-5.643,0.164-5.643,0.164c-0.171-1.659-1.021-28.109-1.154-29.395
		c-0.133-1.285-0.719-8.979-5.782-9.294c-1.711-0.107-8.809,0.296-17.914,0.948c0.227-1.554,0.439-3.086,0.636-4.579
		c0.531-4.042,0.773-6.369-14.85-7.12c-7.958-0.382-6.448-1.221-8.724,13.517c-12.176,1.05-23.536,2.172-28.36,2.925
		c-4.574,0.714-4.841,3.854-4.37,8.417c0.472,4.563,0.41,12.65,2.889,13.744c1.675,0.74,13.479-0.313,25.266-1.501
		c-1.165,5.095-2.519,10.538-4.075,16.165c-11.247,0.559-21.207,1.024-22.508,0.985c-3.154-0.093-4.419-0.172-4.841,3.854
		c-0.422,4.027-1.831,16.749,2.817,17.106c1.792,0.138,8.988-0.189,17.878-0.707c-4.383,12.356-9.727,24.588-16.142,35.069
		c-3.913,6.395,13.686,17.545,17.394,13.576c3.87-4.144,14.063-20.935,23.076-50.225c6.668-0.471,12.531-0.917,16.12-1.229
		c12.672-1.101,25.659-1.187,29.6-1.594c3.94-0.408,4.384-4.226,4.141-8.603C474.933,138.183,474.905,129.801,469.72,130.337z
		 M441.63,118.15c0.364,3.526,0.651,14.396,0.651,14.396s-4.462,0.236-10.891,0.57c0.46-1.686,0.895-3.311,1.271-4.785
		c0.739-3.068,1.667-7.443,2.637-12.462c0,0,0.012-0.001,0.017-0.001C443.86,115.404,441.266,114.625,441.63,118.15z"/>
	<path fill="#EFD58B" d="M443.78,158.825c-2.565-1.975-4.99-3.667-7.201-0.714c-2.21,2.954-7.317,8.302-8.596,10.112
		c-1.28,1.809-2.54,3.826,2.932,8.08c5.471,4.256,19.007,12.791,31.989,17.456c4.353,1.564,9.605,3.687,11.971,0.217
		c2.365-3.469,9.462-13.205,6.737-15.229C478.886,176.724,461.546,172.508,443.78,158.825z"/>
	<path fill="#B77D99" d="M269.57,425.809c-4.286-4.606-27.916-12.671-29.9-9.37c-8.277,13.77-31.484,15.557-33.813,7.835
		c-1.385-4.586-2.071-8.196-2.398-10.914c23.36-2.332,40.544-4.787,41.329-6.944c2.409-6.607-2.654-99.204-6.36-132.183
		c-3.705-32.978-4.199-46.946-14.239-48.508c-10.042-1.56-133.879,12.061-160.121,12.331c-9.891,0.102-14.541,8.219-13.448,22.385
		c1.091,14.166,4.74,134.594,5.454,143.876c0.715,9.282-2.674,18.303,13.659,18.21c2.497-0.015,8.278-0.248,16.267-0.654
		c-6.335,6.908-16.977,13.403-36.282,13.214c-7.878-0.077-7.845,4.231-8.334,13.022c-0.489,8.791-2.376,14.614,8.921,15.654
		c12.562,1.155,58.013,2.371,74.519-44.179c15.276-0.997,32.01-2.19,48.009-3.487c0.516,17.197,3.538,40.832,37.877,41.09
		C259.03,457.551,273.301,429.819,269.57,425.809z M82.807,402.841c-0.009,0.001-0.018-0.013-0.027-0.014
		c-0.094,0.005-0.176,0.01-0.223,0.014c-0.043,0.003-0.106-0.236-0.182-0.652c-0.29-0.846-0.59-2.494-0.893-4.832
		c0.075-0.006-0.076,0.006,0,0c-0.807-6.749-1.723-17.543-1.979-19.988c-1.648-25.351-2.935-64.028-2.499-89.355
		c0.282-2.643,0.458-11.912,1.147-18.49c-0.176,0.018,0.17-0.018,0,0c0.362-3.392,0.838-5.655,1.44-6.506
		c0.068-0.228,0.133-0.369,0.193-0.384c12.17-2.905,90.679-9.061,118.632-9.008c3.524,0.002,6.271,0.1,8.005,0.313
		c0.985,0.121,1.959,2.23,2.906,5.829c-0.403,0.01,0.483-0.017,0,0c1.562,6.517,2.983,16.635,3.504,20.42
		c0.038-0.002-0.288,0.002-0.25,0c0.001,0.005,0.001,0.01,0.002,0.014c0.081-0.005,0.169-0.01,0.248-0.014
		c3.195,25.003,5.755,62.37,6.93,87.021c-0.078,0.007,0.081-0.007,0,0c0.021,1.982,0.547,13.3,0.691,20.018
		c0.149-0.016-0.143,0.016,0,0c0.027,2.733-0.02,4.5-0.15,5.027C218.961,397.609,86.287,402.574,82.807,402.841z"/>
	<path fill="#B77D99" d="M204.527,199.121c-14.146-12.307-35.165-29.945-58.586-66.254c7.235-7.217,14.537-14.982,21.712-23.252
		c3.214-3.707,8.486-6.546-3.332-17.587c-7.336-6.856-6.536-11.566-18.942,2.995c-16.13,18.934-50.479,54.465-88.974,73.91
		c-8.171,4.128,3.849,26.512,10.296,24.745c6.873-1.884,31.509-17.332,60.23-42.897c12.869,17.007,56.08,70.838,63.932,66.968
		C193.408,216.494,207.532,201.737,204.527,199.121z"/>
	<path fill="#EFD58B" d="M200.387,193.825c-14.146-12.307-35.165-29.945-58.586-66.254c7.235-7.217,14.537-14.982,21.712-23.252
		c3.214-3.707,8.486-6.546-3.332-17.587c-7.336-6.856-6.536-11.566-18.942,2.995c-16.13,18.934-50.479,54.466-88.974,73.91
		c-8.171,4.128,3.849,26.512,10.296,24.745c6.873-1.883,31.509-17.332,60.23-42.897c12.869,17.007,56.08,70.838,63.932,66.968
		C189.268,211.199,203.393,196.441,200.387,193.825z"/>
	<path fill="#B77D99" d="M200.38,537.669c-15.526-9.966-38.344-24.072-66.407-55.343c5.337-7.082,10.65-14.578,15.817-22.448
		c2.65-4.037,7.431-7.436-5.646-17.122c-8.118-6.014-7.973-10.785-18.162,5.05c-13.247,20.59-42.105,59.675-77.204,83.219
		c-7.451,4.997,7.361,25.939,13.442,23.477c6.71-2.717,30.105-21.967,55.837-52.287c16.821,16.27,65.217,60.637,72.046,55.83
		C192.382,556.442,203.744,539.83,200.38,537.669z"/>
	<path fill="#EFD58B" d="M196.24,532.374c-15.526-9.966-38.344-24.072-66.407-55.343c5.337-7.082,10.65-14.578,15.817-22.448
		c2.65-4.037,7.431-7.436-5.646-17.122c-8.119-6.014-7.974-10.785-18.162,5.05c-13.247,20.59-42.105,59.675-77.204,83.219
		c-7.451,4.997,7.361,25.939,13.442,23.477c6.71-2.717,30.105-21.967,55.837-52.287c16.821,16.27,65.217,60.637,72.046,55.83
		C188.242,551.147,199.605,534.534,196.24,532.374z"/>
	<path fill="#B77D99" d="M141.486,642.955c0.514,1.991,9.145,6.881,11.209,6.24c2.989-0.929,12.566-15.743,11.693-18.809
		c-0.995-3.488-9.915-6.122-11.814-5.034C150.677,626.436,140.365,638.618,141.486,642.955z"/>
	<path fill="#B77D99" d="M228.87,624.405c-2.194,0.398-7.134,6.794-6.584,8.9c0.796,3.049,15.884,14.701,19.279,15.379
		c2.694,0.537,8.973-8.255,7.929-10.221C248.451,636.5,233.651,623.537,228.87,624.405z"/>
	<path fill="#B77D99" d="M188.665,626.002c-1.745,0.677-5.329,8.514-4.449,9.997c1.278,2.148,17.383,7.132,20.058,6.026
		c3.045-1.258,5.574-8.553,4.308-9.845C207.32,630.888,192.469,624.526,188.665,626.002z"/>
	<path fill="#B77D99" d="M178.075,634.815c-1.317-3.133-2.736-3.598-6.56-2.01c-6.92,2.874-11.277,4.175-8.289,10.126
		c2.989,5.95,8.063,20.295,34.087,17.222c26.023-3.072,30.292-12.4,30.97-14.07c1.426-3.506-6.044-11.959-9.017-10.051
		c-3.049,1.957-11.123,7.897-21.351,8.654C188.092,645.413,182.227,644.696,178.075,634.815z"/>
	<path fill="#B77D99" d="M237.166,557.225c-4.438-1.536-4.763,3.021-21.375,7.52c-24.244,6.564-35.314,5.38-53.838,4.447
		c-13.601-0.685-13.297-1.892-15.043,4.782c-1.454,5.558-3.358,9.447,2.86,10.721c8.033,1.644,44.625,4.422,68.191-2.352
		c23.566-6.775,28.579-12.89,27.077-15.242C243.532,564.749,239.611,558.071,237.166,557.225z"/>
	<path fill="#B77D99" d="M163.209,588.647c-1.2,2.18-2.981,7.944-4.096,11.44c-1.112,3.495,0.376,4.783,2.084,5.313
		c1.71,0.528,10.828,4.048,12.001,1.75c1.168-2.299,2.647-8.209,3.483-10.793c0.838-2.584,1.841-5.026,1.008-5.741
		C176.857,589.9,164.825,585.707,163.209,588.647z"/>
	<path fill="#B77D99" d="M186.9,596.977c-0.524,1.915,0.837,2.873,7.374,6.317c6.541,3.441,9.68,5.559,11.128,3.716
		c1.449-1.841,6.813-9.752,5.319-11.148c-1.49-1.396-5.318-3.265-9.888-5.328c-4.569-2.064-7.043-3.646-8.652-2.135
		C190.573,589.912,187.393,595.171,186.9,596.977z"/>
	<path fill="#B77D99" d="M216.556,589.821c-0.911,1.643-1.912,2.501,1.025,5.563c2.936,3.062,11.085,10.502,13.268,9.474
		c2.183-1.028,9.616-7.588,8.98-10.115c-0.634-2.527-3.824-4.2-8.466-7.323c-4.642-3.122-6.035-4.244-8.353-3.026
		C220.695,585.612,217.114,588.813,216.556,589.821z"/>
	<path fill="#B77D99" d="M139.046,608.136c-3.173-0.299-5.691,0.212-6.809,7.558c-0.882,5.79-2.57,13.595,0,15.296
		c2.114,1.399,12.303,2.333,13.735,0c1.433-2.333,0-6.923,2.717-6.939c8.011-0.048,56.736,1.273,82.513-0.993
		c7.955-0.699,13.053-0.499,15.913-0.616c2.29-0.093-5.222,6.915-3.731,8.314c1.493,1.4,11.937,8.165,14.92,4.899
		c2.983-3.266,6.704-10.823,8.08-14.697c1.74-4.899-0.029-13.989-8.98-14.222c-8.951-0.233-36.978,2.688-66.638,3.155
		C161.176,610.358,145.322,608.726,139.046,608.136z"/>
	<path fill="#B77D99" d="M255.717,690.438c-2.983-0.144-21.816-0.697-34.899-3.064c-0.402-0.073-0.796-0.152-1.191-0.229
		c16.561-9.863,20.677-17.508,20.479-18.865c-0.407-2.81-1.86-10.94-5.044-10.828c-3.697,0.13-14.099,1.31-29.149,3.419
		c-9.379,1.314-22.43,2.096-32.445,2.549c0.681-1.652,0.863-2.909,0.261-3.405c-2.019-1.657-9.254-4.389-12.124-5.433
		c-1.308-0.476-5.459,6.424-8.788,10.141c-7.336,8.19-4.622,5.163-16.773,17.612c-1.979,2.027-0.842,3.699,1.216,5.82
		c2.057,2.123,6.565,6.371,7.732,6.009c1.167-0.362,15.001-13.011,18.959-17.106c0.216-0.223,0.434-0.457,0.653-0.696
		c0.256,0,0.516-0.001,0.78-0.003c2.739,2.457,8.58,7.158,17.312,12.02c-13.731,4.808-21.113,7.655-36.729,10.99
		c-2.173,0.464,3.058,11.423,5.337,13.308c1.002,0.829,14.861-2.289,33.485-9.477c4.824-1.861,12.18-4.808,16.137-6.56
		c19.257,6.867,50.357,7.892,51.72,8.095c2.779,0.414,3.67-4.196,4.489-7.672C257.761,694.415,258.7,690.582,255.717,690.438z
		 M189.256,674.794c13.97-1.312,27.176-2.935,26.999-2.699c-2.044,2.729-7.819,5.912-15.074,9.095
		C196.407,679.008,192.477,676.705,189.256,674.794z"/>
	<path fill="#EFD58B" d="M137.346,637.659c0.514,1.99,9.145,6.881,11.21,6.24c2.989-0.929,12.566-15.743,11.693-18.809
		c-0.995-3.488-9.916-6.122-11.814-5.034C146.538,621.14,136.225,633.322,137.346,637.659z"/>
	<path fill="#EFD58B" d="M224.731,619.109c-2.194,0.398-7.134,6.794-6.584,8.9c0.796,3.049,15.884,14.701,19.279,15.379
		c2.694,0.537,8.973-8.255,7.929-10.221C244.312,631.204,229.512,618.241,224.731,619.109z"/>
	<path fill="#EFD58B" d="M184.525,620.706c-1.745,0.677-5.329,8.514-4.449,9.997c1.278,2.148,17.383,7.132,20.058,6.026
		c3.045-1.258,5.574-8.553,4.308-9.845C203.181,625.592,188.329,619.23,184.525,620.706z"/>
	<path fill="#EFD58B" d="M173.935,629.52c-1.317-3.133-2.736-3.597-6.56-2.01c-6.92,2.874-11.278,4.175-8.289,10.126
		c2.989,5.95,8.063,20.294,34.087,17.222c26.023-3.072,30.292-12.4,30.97-14.07c1.426-3.506-6.044-11.959-9.018-10.051
		c-3.049,1.957-11.123,7.897-21.351,8.654C183.952,640.117,178.088,639.4,173.935,629.52z"/>
	<path fill="#EFD58B" d="M233.026,551.93c-4.438-1.536-4.763,3.021-21.375,7.52c-24.244,6.564-35.314,5.38-53.838,4.447
		c-13.601-0.686-13.297-1.893-15.043,4.782c-1.454,5.558-3.358,9.447,2.86,10.721c8.033,1.644,44.625,4.422,68.191-2.352
		c23.566-6.775,28.579-12.89,27.077-15.242C239.392,559.453,235.472,552.776,233.026,551.93z"/>
	<path fill="#EFD58B" d="M159.069,583.351c-1.2,2.18-2.981,7.944-4.096,11.44c-1.112,3.495,0.376,4.783,2.084,5.313
		c1.71,0.528,10.828,4.048,12.001,1.75c1.168-2.299,2.647-8.209,3.483-10.793c0.838-2.584,1.841-5.026,1.008-5.741
		C172.718,584.604,160.685,580.411,159.069,583.351z"/>
	<path fill="#EFD58B" d="M182.761,591.681c-0.524,1.915,0.837,2.873,7.374,6.317c6.541,3.441,9.68,5.559,11.128,3.716
		c1.449-1.841,6.813-9.752,5.319-11.148c-1.49-1.396-5.317-3.264-9.888-5.328c-4.569-2.064-7.043-3.646-8.652-2.134
		C186.434,584.616,183.254,589.875,182.761,591.681z"/>
	<path fill="#EFD58B" d="M212.417,584.525c-0.911,1.643-1.912,2.501,1.025,5.563c2.936,3.063,11.085,10.502,13.268,9.474
		c2.183-1.028,9.616-7.588,8.98-10.115c-0.634-2.527-3.824-4.2-8.466-7.323c-4.642-3.122-6.035-4.244-8.353-3.026
		C216.555,580.316,212.975,583.517,212.417,584.525z"/>
	<path fill="#EFD58B" d="M134.907,602.841c-3.173-0.299-5.691,0.213-6.809,7.558c-0.882,5.79-2.57,13.595,0,15.296
		c2.114,1.399,12.303,2.333,13.735,0c1.433-2.333,0-6.923,2.717-6.939c8.011-0.047,56.736,1.273,82.513-0.993
		c7.955-0.699,13.053-0.499,15.913-0.616c2.29-0.093-5.222,6.915-3.731,8.314c1.493,1.4,11.937,8.165,14.92,4.899
		c2.983-3.266,6.704-10.823,8.08-14.697c1.74-4.899-0.029-13.989-8.98-14.222c-8.951-0.233-36.978,2.688-66.638,3.155
		C157.037,605.063,141.182,603.43,134.907,602.841z"/>
	<path fill="#EFD58B" d="M251.578,685.142c-2.983-0.144-21.816-0.697-34.899-3.064c-0.402-0.073-0.796-0.152-1.191-0.229
		c16.561-9.863,20.677-17.508,20.479-18.865c-0.407-2.81-1.86-10.94-5.044-10.828c-3.697,0.13-14.099,1.31-29.149,3.418
		c-9.379,1.314-22.43,2.096-32.445,2.549c0.681-1.652,0.863-2.909,0.261-3.404c-2.019-1.657-9.254-4.389-12.124-5.433
		c-1.308-0.476-5.459,6.424-8.788,10.141c-7.336,8.19-4.623,5.164-16.773,17.612c-1.979,2.027-0.842,3.699,1.216,5.82
		c2.057,2.123,6.565,6.371,7.732,6.009c1.167-0.362,15.001-13.011,18.959-17.106c0.216-0.223,0.434-0.457,0.653-0.696
		c0.256,0,0.516-0.001,0.78-0.003c2.739,2.457,8.58,7.157,17.312,12.02c-13.731,4.808-21.113,7.655-36.729,10.99
		c-2.173,0.464,3.057,11.423,5.337,13.308c1.002,0.829,14.861-2.289,33.485-9.477c4.824-1.861,12.18-4.808,16.137-6.56
		c19.257,6.867,50.357,7.892,51.72,8.095c2.779,0.414,3.67-4.196,4.489-7.672C253.622,689.12,254.561,685.286,251.578,685.142z
		 M185.116,669.498c13.97-1.312,27.176-2.935,26.999-2.699c-2.043,2.729-7.819,5.912-15.074,9.095
		C192.268,673.713,188.338,671.409,185.116,669.498z"/>
	<path fill="#EFD58B" d="M264.321,419.093c-4.286-4.606-27.916-12.671-29.901-9.37c-8.277,13.77-31.484,15.557-33.813,7.835
		c-1.385-4.586-2.071-8.196-2.398-10.914c23.36-2.332,40.544-4.787,41.329-6.944c2.409-6.607-2.654-99.204-6.36-132.183
		c-3.705-32.978-4.199-46.946-14.239-48.508c-10.042-1.56-133.879,12.061-160.121,12.331c-9.891,0.102-14.541,8.219-13.448,22.385
		c1.091,14.166,4.74,134.594,5.454,143.876c0.715,9.282-2.674,18.303,13.659,18.21c2.497-0.015,8.278-0.248,16.267-0.654
		c-6.335,6.908-16.977,13.403-36.282,13.214c-7.878-0.077-7.845,4.231-8.334,13.022c-0.489,8.791-2.376,14.614,8.921,15.654
		c12.562,1.155,58.013,2.371,74.519-44.179c15.276-0.997,32.01-2.19,48.009-3.487c0.516,17.197,3.538,40.832,37.877,41.09
		C253.781,450.835,268.052,423.103,264.321,419.093z M77.558,396.126c-0.009,0.001-0.018-0.013-0.027-0.014
		c-0.094,0.005-0.176,0.01-0.223,0.014c-0.043,0.003-0.106-0.236-0.182-0.652c-0.29-0.846-0.59-2.494-0.893-4.832
		c0.075-0.006-0.076,0.006,0,0c-0.807-6.749-1.723-17.543-1.979-19.988c-1.648-25.351-2.935-64.028-2.499-89.355
		c0.282-2.643,0.458-11.912,1.147-18.49c-0.176,0.018,0.17-0.018,0,0c0.362-3.392,0.838-5.655,1.44-6.506
		c0.068-0.228,0.133-0.369,0.193-0.384c12.17-2.905,90.679-9.061,118.632-9.008c3.524,0.002,6.271,0.1,8.005,0.313
		c0.985,0.121,1.959,2.23,2.906,5.829c-0.403,0.01,0.483-0.017,0,0c1.562,6.517,2.983,16.635,3.504,20.42
		c0.038-0.002-0.288,0.002-0.25,0c0.001,0.005,0.001,0.01,0.002,0.014c0.081-0.005,0.169-0.01,0.248-0.014
		c3.195,25.003,5.755,62.37,6.93,87.021c-0.078,0.007,0.081-0.007,0,0c0.021,1.982,0.547,13.3,0.691,20.018
		c0.149-0.016-0.143,0.016,0,0c0.027,2.733-0.02,4.5-0.15,5.027C213.713,390.894,81.038,395.858,77.558,396.126z"/>
	<path fill="#FFFFFF" d="M-62.668,273.472c0.001,0.005,0.001,0.01,0.002,0.014c0.081-0.005,0.169-0.01,0.248-0.014"/>
</g>
</svg>
