<?xml version="1.0" encoding="utf-8"?>
<!-- Generator: Adobe Illustrator 21.1.0, SVG Export Plug-In . SVG Version: 6.00 Build 0)  -->
<svg version="1.1" id="Layer_1" xmlns="http://www.w3.org/2000/svg" xmlns:xlink="http://www.w3.org/1999/xlink" x="0px" y="0px"
	 viewBox="0 0 143.577 149.216" enable-background="new 0 0 143.577 149.216" xml:space="preserve">
<path fill="#F199C0" d="M5.889,149.216c-0.009,0.001-0.018-0.013-0.027-0.014c-0.094,0.005-0.176,0.01-0.223,0.014
	c-0.043,0.003-0.106-0.236-0.182-0.652c-0.29-0.846-0.59-2.494-0.893-4.832c0.075-0.006-0.076,0.006,0,0
	c-0.807-6.749-1.722-17.543-1.979-19.988C0.936,98.393-0.35,59.716,0.086,34.388c0.282-2.643,0.458-11.912,1.147-18.49
	c-0.176,0.018,0.17-0.018,0,0c0.362-3.392,0.838-5.655,1.44-6.506C2.74,9.164,2.805,9.023,2.866,9.009
	C15.036,6.104,93.545-0.053,121.497,0c3.524,0.002,6.271,0.1,8.005,0.313c0.985,0.122,1.959,2.23,2.906,5.83
	c-0.403,0.01,0.483-0.017,0,0c1.562,6.517,2.983,16.635,3.504,20.42c0.038-0.002-0.288,0.002-0.25,0
	c0.001,0.005,0.001,0.01,0.002,0.014c0.081-0.005,0.169-0.01,0.248-0.014c3.195,25.003,5.755,62.37,6.929,87.021
	c-0.078,0.007,0.081-0.007,0,0c0.021,1.982,0.547,13.3,0.691,20.018c0.149-0.016-0.143,0.016,0,0c0.027,2.733-0.02,4.5-0.15,5.027
	C142.043,143.984,9.368,148.948,5.889,149.216z"/>
<path fill="#FFFFFF" d="M23.566,53.517c1.091,0.757,1.687,1.872,1.786,3.346l0.452,6.693c0.088,1.315,0.211,2.252,0.369,2.812
	c0.158,0.56,0.238,0.87,0.243,0.93c0.016,0.239-0.162,0.426-0.532,0.561c-0.371,0.135-0.717,0.213-1.035,0.235
	c-0.279,0.019-0.494-0.122-0.644-0.422c-0.151-0.3-0.272-0.617-0.364-0.951c-0.093-0.334-0.152-0.55-0.18-0.648
	c-1.254,1.586-2.877,2.445-4.868,2.58c-1.534,0.104-2.795-0.191-3.782-0.886c-0.987-0.693-1.53-1.777-1.63-3.252
	c-0.106-1.573,0.287-2.786,1.181-3.637c0.893-0.85,2.019-1.437,3.378-1.758c1.359-0.321,3.024-0.559,4.995-0.712l-0.095-1.404
	c-0.05-0.737-0.35-1.322-0.899-1.756c-0.55-0.433-1.402-0.611-2.557-0.533c-0.877,0.059-1.637,0.216-2.28,0.469
	c-0.643,0.254-1.177,0.5-1.601,0.738c-0.425,0.239-0.657,0.36-0.696,0.362c-0.2,0.014-0.438-0.17-0.712-0.552
	c-0.276-0.382-0.422-0.672-0.435-0.871c-0.018-0.259,0.228-0.556,0.735-0.891c0.507-0.334,1.192-0.636,2.056-0.904
	c0.861-0.268,1.762-0.434,2.697-0.498C21.003,52.443,22.475,52.76,23.566,53.517z M19.432,60.984
	c-0.939,0.164-1.752,0.499-2.438,1.005c-0.686,0.506-0.997,1.238-0.933,2.194c0.055,0.797,0.309,1.39,0.766,1.779
	c0.456,0.39,1.104,0.556,1.939,0.5c0.977-0.066,1.806-0.302,2.489-0.708s1.371-0.962,2.063-1.67l-0.238-3.526
	C21.588,60.679,20.371,60.821,19.432,60.984z"/>
<path fill="#FFFFFF" d="M41.425,45.032l1.173,17.391c0.089,1.315,0.212,2.252,0.37,2.812c0.157,0.56,0.238,0.87,0.242,0.93
	c0.017,0.239-0.161,0.426-0.532,0.561s-0.716,0.213-1.035,0.235c-0.278,0.019-0.493-0.122-0.644-0.422
	c-0.15-0.3-0.272-0.617-0.364-0.951c-0.093-0.334-0.152-0.55-0.179-0.648c-1.334,1.591-2.867,2.445-4.601,2.562
	c-1.175,0.08-2.224-0.189-3.146-0.808c-0.923-0.618-1.659-1.52-2.209-2.703c-0.55-1.183-0.877-2.542-0.98-4.077
	c-0.114-1.693,0.042-3.159,0.469-4.399c0.427-1.239,1.077-2.199,1.952-2.878c0.875-0.679,1.91-1.06,3.105-1.141
	c0.876-0.059,1.657,0.02,2.341,0.232c0.686,0.214,1.363,0.549,2.034,1.003l-0.508-7.53c-0.029-0.438,0.354-0.684,1.151-0.738
	l0.119-0.008C40.981,44.401,41.395,44.594,41.425,45.032z M32.873,55.32c-0.613,0.992-0.86,2.384-0.739,4.177
	c0.131,1.932,0.55,3.4,1.258,4.403c0.708,1.003,1.649,1.464,2.825,1.385c0.677-0.045,1.357-0.271,2.04-0.678
	s1.302-0.958,1.854-1.656l-0.552-8.188c-1.137-0.824-2.392-1.189-3.767-1.097C34.46,53.777,33.486,54.328,32.873,55.32z"/>
<path fill="#FFFFFF" d="M58.307,43.893l1.174,17.391c0.088,1.315,0.212,2.252,0.369,2.812c0.158,0.56,0.238,0.869,0.243,0.929
	c0.016,0.239-0.162,0.426-0.532,0.562c-0.371,0.135-0.717,0.213-1.035,0.234c-0.279,0.019-0.494-0.122-0.644-0.421
	c-0.151-0.3-0.272-0.617-0.364-0.952c-0.094-0.333-0.152-0.549-0.179-0.648c-1.334,1.591-2.867,2.445-4.601,2.562
	c-1.176,0.079-2.225-0.19-3.146-0.808c-0.923-0.618-1.658-1.52-2.208-2.703c-0.55-1.183-0.877-2.542-0.98-4.077
	c-0.114-1.693,0.042-3.159,0.469-4.399c0.427-1.239,1.077-2.199,1.952-2.878c0.874-0.679,1.909-1.06,3.105-1.141
	c0.876-0.059,1.656,0.019,2.341,0.232c0.686,0.214,1.363,0.549,2.034,1.003l-0.508-7.53c-0.029-0.438,0.354-0.684,1.15-0.738
	l0.12-0.008C57.864,43.263,58.277,43.456,58.307,43.893z M49.756,54.181c-0.614,0.992-0.86,2.385-0.739,4.178
	c0.131,1.932,0.55,3.4,1.258,4.403s1.649,1.464,2.824,1.385c0.678-0.046,1.357-0.271,2.041-0.678
	c0.683-0.407,1.301-0.958,1.854-1.656l-0.552-8.188c-1.137-0.824-2.393-1.19-3.767-1.097C51.342,52.638,50.369,53.189,49.756,54.181
	z"/>
<path fill="#FFFFFF" d="M82.177,48.437c0,0,0.012,0.169,0.034,0.508c0.007,0.1-0.014,0.241-0.062,0.425l-6.307,20.867
	c-0.132,0.429-0.585,0.669-1.362,0.722l-0.448,0.03c-0.657,0.044-0.997-0.093-1.019-0.412c-0.005-0.08,0.033-0.253,0.116-0.518
	l2.101-6.235l-6.171-13.602c-0.072-0.175-0.11-0.303-0.116-0.383c-0.022-0.339,0.395-0.537,1.251-0.595l0.239-0.016
	c0.657-0.044,1.066,0.088,1.228,0.397l3.594,7.893c0.378,0.855,0.765,1.839,1.16,2.953l0.06-0.004l0.21-0.885l0.572-2.2l2.442-8.299
	c0.077-0.326,0.476-0.513,1.192-0.561l0.09-0.006C81.778,48.463,82.177,48.437,82.177,48.437z"/>
<path fill="#FFFFFF" d="M96.487,49.438c1.259,1.306,1.977,3.264,2.152,5.873c0.175,2.59-0.266,4.596-1.32,6.017
	c-1.056,1.422-2.698,2.208-4.929,2.359c-2.252,0.152-4.016-0.409-5.292-1.684c-1.276-1.274-2.002-3.197-2.175-5.767
	c-0.175-2.589,0.288-4.623,1.39-6.097c1.102-1.475,2.768-2.289,4.999-2.439C93.503,47.552,95.228,48.131,96.487,49.438z
	 M88.267,51.493c-0.614,0.992-0.854,2.495-0.718,4.506c0.135,1.993,0.572,3.439,1.314,4.339c0.74,0.901,1.838,1.302,3.293,1.204
	c1.453-0.098,2.497-0.644,3.131-1.637c0.633-0.993,0.883-2.486,0.749-4.479c-0.135-1.992-0.583-3.443-1.345-4.352
	c-0.762-0.909-1.87-1.315-3.323-1.217C89.913,49.956,88.879,50.501,88.267,51.493z"/>
<path fill="#FFFFFF" d="M113.864,46.96l0.716,10.607c0.089,1.315,0.212,2.252,0.37,2.812c0.157,0.56,0.238,0.869,0.242,0.929
	c0.017,0.239-0.161,0.426-0.532,0.562c-0.371,0.135-0.716,0.213-1.035,0.234c-0.278,0.019-0.493-0.122-0.644-0.421
	c-0.15-0.3-0.272-0.617-0.364-0.952c-0.093-0.333-0.152-0.549-0.179-0.648c-0.591,0.741-1.28,1.337-2.07,1.791
	c-0.79,0.454-1.604,0.708-2.44,0.765c-1.514,0.102-2.732-0.246-3.657-1.044c-0.924-0.798-1.438-1.954-1.54-3.468l-0.699-10.369
	c-0.029-0.438,0.354-0.685,1.151-0.739l0.119-0.008c0.797-0.054,1.21,0.139,1.239,0.577l0.684,10.13
	c0.062,0.916,0.374,1.61,0.937,2.083c0.562,0.472,1.331,0.676,2.308,0.61c0.677-0.046,1.336-0.28,1.979-0.704
	c0.642-0.423,1.19-0.971,1.645-1.642l-0.737-10.937c-0.03-0.438,0.354-0.685,1.151-0.739l0.119-0.008
	C113.421,46.329,113.835,46.522,113.864,46.96z"/>
<path fill="#FFFFFF" d="M126.145,45.681c0.313,0.199,0.481,0.468,0.505,0.806c0.022,0.339-0.014,0.696-0.108,1.073
	c-0.095,0.376-0.222,0.57-0.381,0.581c-0.1,0.006-0.298-0.035-0.594-0.125c-0.296-0.089-0.653-0.121-1.072-0.092
	c-0.458,0.031-0.882,0.194-1.272,0.491s-0.714,0.614-0.972,0.951c-0.257,0.338-0.384,0.526-0.382,0.566l0.738,10.937
	c0.029,0.438-0.354,0.685-1.151,0.739l-0.119,0.008c-0.797,0.054-1.21-0.139-1.24-0.577l-0.707-10.488
	c-0.089-1.315-0.212-2.252-0.37-2.812s-0.238-0.869-0.242-0.929c-0.017-0.239,0.161-0.426,0.532-0.562
	c0.37-0.134,0.716-0.213,1.034-0.234c0.279-0.019,0.493,0.112,0.643,0.392c0.148,0.281,0.269,0.578,0.36,0.892
	s0.149,0.521,0.176,0.618c0.955-1.565,2.061-2.39,3.315-2.475C125.395,45.401,125.832,45.482,126.145,45.681z"/>
<path fill="#FFFFFF" d="M45.349,87.858c0.913,0.629,1.639,1.531,2.179,2.705c0.539,1.175,0.861,2.539,0.966,4.092
	c0.114,1.693-0.042,3.156-0.47,4.385s-1.078,2.184-1.953,2.863c-0.875,0.68-1.909,1.059-3.104,1.14
	c-0.877,0.06-1.658-0.018-2.343-0.232c-0.685-0.213-1.362-0.548-2.033-1.003l0.465,6.903c0.03,0.438-0.354,0.684-1.15,0.738
	l-0.119,0.008c-0.798,0.054-1.21-0.138-1.24-0.577l-1.122-16.644c-0.089-1.315-0.213-2.252-0.37-2.812s-0.238-0.869-0.242-0.929
	c-0.017-0.239,0.161-0.426,0.531-0.561c0.371-0.135,0.717-0.214,1.035-0.235c0.279-0.019,0.493,0.112,0.642,0.392
	c0.149,0.281,0.269,0.578,0.36,0.891c0.092,0.315,0.15,0.521,0.177,0.619c1.334-1.591,2.867-2.444,4.601-2.562
	C43.371,86.956,44.436,87.229,45.349,87.858z M39.755,89.931c-0.683,0.406-1.301,0.958-1.854,1.656l0.552,8.188
	c1.137,0.824,2.402,1.188,3.797,1.094c1.313-0.108,2.276-0.658,2.89-1.651c0.613-0.991,0.86-2.384,0.739-4.177
	c-0.13-1.932-0.55-3.4-1.258-4.403s-1.649-1.465-2.824-1.386C41.118,89.299,40.437,89.525,39.755,89.931z"/>
<path fill="#FFFFFF" d="M54.511,80.17l0.544,8.068c0.558-0.638,1.216-1.178,1.977-1.619s1.58-0.692,2.457-0.751
	c1.254-0.085,2.384,0.195,3.388,0.837s1.567,1.87,1.689,3.683l0.699,10.368c0.029,0.438-0.354,0.685-1.15,0.739l-0.12,0.008
	c-0.797,0.054-1.21-0.139-1.239-0.577l-0.684-10.13c-0.061-0.896-0.367-1.586-0.92-2.069c-0.554-0.483-1.327-0.691-2.323-0.624
	c-0.658,0.044-1.256,0.24-1.792,0.586c-0.536,0.347-0.978,0.717-1.321,1.11s-0.514,0.61-0.511,0.649l0.737,10.937
	c0.029,0.438-0.354,0.685-1.15,0.739l-0.12,0.008c-0.797,0.054-1.21-0.139-1.239-0.577l-1.431-21.216
	c-0.03-0.438,0.354-0.684,1.15-0.738l0.12-0.008C54.067,79.541,54.48,79.733,54.511,80.17z"/>
<path fill="#FFFFFF" d="M80.29,86.551c1.259,1.306,1.977,3.264,2.152,5.874c0.175,2.59-0.266,4.596-1.32,6.018
	c-1.055,1.421-2.697,2.208-4.929,2.358c-2.252,0.152-4.016-0.41-5.292-1.684s-2.002-3.197-2.175-5.767
	c-0.175-2.589,0.288-4.623,1.391-6.097c1.101-1.475,2.766-2.288,4.998-2.438C77.307,84.666,79.031,85.245,80.29,86.551z
	 M72.069,88.607c-0.614,0.992-0.853,2.494-0.717,4.505c0.134,1.993,0.571,3.439,1.313,4.339c0.74,0.9,1.838,1.302,3.293,1.204
	c1.454-0.098,2.498-0.644,3.131-1.637c0.634-0.993,0.883-2.485,0.749-4.478c-0.135-1.991-0.583-3.443-1.345-4.352
	c-0.762-0.909-1.869-1.314-3.323-1.216S72.682,87.615,72.069,88.607z"/>
<path fill="#FFFFFF" d="M89.049,80.903l0.211,3.138l2.51-0.169c0.22-0.015,0.379,0.044,0.478,0.178c0.1,0.133,0.16,0.36,0.182,0.678
	l0.024,0.358c0.021,0.319-0.009,0.551-0.089,0.697s-0.229,0.225-0.449,0.24l-2.51,0.169l0.627,9.293
	c0.057,0.837,0.239,1.405,0.551,1.703c0.31,0.3,0.714,0.433,1.212,0.399c0.379-0.026,0.66-0.07,0.847-0.132
	c0.187-0.062,0.328-0.097,0.429-0.104c0.179-0.012,0.341,0.162,0.485,0.522c0.144,0.361,0.224,0.641,0.236,0.839
	c0.041,0.598-0.667,0.946-2.121,1.044c-0.996,0.067-1.907-0.176-2.735-0.731c-0.828-0.554-1.294-1.598-1.397-3.132l-0.643-9.532
	l-1.494,0.101c-0.199,0.013-0.354-0.046-0.462-0.179c-0.11-0.133-0.175-0.358-0.196-0.677l-0.024-0.358
	c-0.021-0.318,0.013-0.551,0.104-0.698c0.09-0.146,0.234-0.226,0.434-0.239l1.494-0.101l0.147-3.162
	c0.01-0.441,0.314-0.682,0.912-0.722l0.298-0.021C88.706,80.265,89.019,80.464,89.049,80.903z"/>
<path fill="#FFFFFF" d="M107.512,84.715c1.259,1.306,1.977,3.264,2.152,5.873c0.175,2.59-0.266,4.596-1.32,6.018
	c-1.056,1.421-2.698,2.208-4.929,2.358c-2.252,0.152-4.016-0.409-5.292-1.684c-1.276-1.274-2.002-3.197-2.175-5.767
	c-0.175-2.589,0.288-4.623,1.39-6.097c1.102-1.475,2.768-2.288,4.998-2.438C104.527,82.831,106.253,83.409,107.512,84.715z
	 M99.291,86.77c-0.614,0.992-0.854,2.495-0.718,4.506c0.135,1.993,0.572,3.439,1.314,4.339c0.739,0.901,1.838,1.302,3.293,1.204
	c1.453-0.098,2.497-0.644,3.131-1.637c0.633-0.993,0.883-2.486,0.749-4.479c-0.135-1.991-0.583-3.442-1.345-4.352
	s-1.87-1.314-3.323-1.216C100.937,85.234,99.903,85.779,99.291,86.77z"/>
</svg>
