<?xml version="1.0" encoding="utf-8"?>
<!-- Generator: Adobe Illustrator 21.1.0, SVG Export Plug-In . SVG Version: 6.00 Build 0)  -->
<svg version="1.1" id="Layer_1" xmlns="http://www.w3.org/2000/svg" xmlns:xlink="http://www.w3.org/1999/xlink" x="0px" y="0px"
	 viewBox="0 0 132.015 108.652" enable-background="new 0 0 132.015 108.652" xml:space="preserve">
<path fill="#96D5D2" d="M123.822,108.551c-3.693,0.871-118.383-4.143-122.037-5.045C-1.874,102.606,0.428-0.088,5.644,0
	c64.275,1.085,112.757,5.49,124.371,6.656C135.818,7.238,127.512,107.679,123.822,108.551z"/>
<g>
	<path fill="#FFFFFF" d="M22.788,28.704c0.988,0.887,1.44,2.068,1.353,3.543l-0.389,6.697c-0.077,1.316-0.072,2.261,0.014,2.836
		c0.087,0.575,0.127,0.893,0.125,0.953c-0.014,0.239-0.214,0.402-0.598,0.49c-0.385,0.088-0.738,0.122-1.056,0.104
		c-0.279-0.016-0.475-0.183-0.586-0.499c-0.112-0.317-0.193-0.646-0.242-0.989c-0.05-0.343-0.082-0.565-0.098-0.665
		c-1.443,1.417-3.16,2.066-5.152,1.951c-1.535-0.089-2.749-0.539-3.641-1.352c-0.893-0.811-1.296-1.954-1.21-3.43
		c0.092-1.574,0.633-2.728,1.627-3.461c0.992-0.732,2.183-1.173,3.571-1.322c1.388-0.149,3.07-0.176,5.045-0.082l0.081-1.405
		c0.043-0.737-0.182-1.355-0.672-1.855c-0.492-0.498-1.315-0.782-2.47-0.849c-0.877-0.051-1.651,0.01-2.321,0.18
		c-0.67,0.172-1.23,0.349-1.681,0.532c-0.452,0.184-0.697,0.275-0.736,0.272c-0.2-0.011-0.413-0.223-0.637-0.637
		c-0.226-0.414-0.335-0.719-0.323-0.919c0.015-0.259,0.296-0.523,0.841-0.792c0.545-0.268,1.262-0.482,2.153-0.64
		c0.888-0.158,1.802-0.21,2.738-0.157C20.38,27.318,21.8,27.816,22.788,28.704z M17.753,35.595
		c-0.952,0.045-1.801,0.276-2.545,0.692c-0.744,0.416-1.144,1.104-1.2,2.06c-0.045,0.798,0.133,1.418,0.537,1.861
		c0.404,0.444,1.026,0.69,1.861,0.739c0.978,0.057,1.83-0.074,2.558-0.391c0.728-0.317,1.481-0.783,2.256-1.399l0.205-3.528
		C19.93,35.562,18.705,35.551,17.753,35.595z"/>
	<path fill="#FFFFFF" d="M41.568,22.519L40.557,39.92c-0.076,1.316-0.071,2.261,0.015,2.836c0.086,0.575,0.127,0.893,0.124,0.953
		c-0.013,0.239-0.213,0.403-0.598,0.49c-0.385,0.088-0.737,0.122-1.056,0.104c-0.278-0.016-0.474-0.183-0.586-0.499
		c-0.111-0.316-0.193-0.646-0.242-0.989c-0.05-0.343-0.082-0.565-0.097-0.665c-1.523,1.412-3.15,2.067-4.885,1.966
		c-1.176-0.068-2.183-0.466-3.02-1.195c-0.838-0.729-1.456-1.716-1.854-2.958c-0.398-1.243-0.552-2.632-0.462-4.168
		c0.099-1.694,0.437-3.129,1.015-4.306c0.579-1.176,1.344-2.047,2.297-2.611s2.028-0.813,3.223-0.744
		c0.876,0.051,1.641,0.227,2.294,0.523c0.654,0.298,1.284,0.715,1.893,1.25l0.438-7.534c0.026-0.438,0.437-0.634,1.234-0.588
		l0.119,0.007C41.206,21.837,41.593,22.081,41.568,22.519z M31.797,31.657c-0.732,0.908-1.151,2.258-1.256,4.052
		c-0.112,1.933,0.12,3.442,0.697,4.526s1.453,1.659,2.63,1.727c0.677,0.04,1.38-0.099,2.109-0.418
		c0.729-0.318,1.412-0.788,2.047-1.411L38.5,31.94c-1.025-0.96-2.225-1.479-3.6-1.56C33.564,30.324,32.529,30.749,31.797,31.657z"/>
	<path fill="#FFFFFF" d="M58.46,23.5l-1.01,17.401c-0.077,1.316-0.071,2.261,0.014,2.836c0.087,0.575,0.127,0.892,0.125,0.952
		c-0.014,0.239-0.214,0.402-0.598,0.491c-0.385,0.088-0.738,0.122-1.056,0.103c-0.279-0.016-0.475-0.183-0.586-0.498
		c-0.112-0.317-0.193-0.646-0.242-0.99c-0.052-0.342-0.082-0.564-0.097-0.665c-1.523,1.412-3.15,2.067-4.885,1.966
		c-1.177-0.069-2.184-0.467-3.02-1.195c-0.838-0.729-1.455-1.715-1.853-2.958c-0.398-1.243-0.552-2.632-0.462-4.168
		c0.099-1.694,0.437-3.129,1.015-4.306c0.579-1.176,1.344-2.047,2.297-2.611c0.952-0.564,2.027-0.813,3.223-0.744
		c0.876,0.051,1.641,0.226,2.294,0.523c0.654,0.298,1.284,0.715,1.893,1.25l0.438-7.534c0.026-0.438,0.437-0.634,1.233-0.588
		l0.12,0.007C58.099,22.82,58.485,23.063,58.46,23.5z M48.689,32.638c-0.733,0.907-1.152,2.259-1.256,4.053
		c-0.112,1.933,0.12,3.442,0.697,4.526c0.577,1.084,1.453,1.659,2.629,1.727c0.678,0.039,1.38-0.099,2.11-0.417
		c0.729-0.318,1.411-0.788,2.047-1.411l0.476-8.193c-1.025-0.96-2.225-1.48-3.6-1.56C50.456,31.306,49.422,31.731,48.689,32.638z"/>
	<path fill="#FFFFFF" d="M81.574,30.994c0,0-0.009,0.169-0.03,0.508c-0.006,0.1-0.044,0.237-0.115,0.414l-8.867,19.914
		c-0.185,0.409-0.664,0.591-1.442,0.546l-0.448-0.026c-0.657-0.039-0.978-0.217-0.959-0.536c0.005-0.08,0.064-0.247,0.18-0.499
		l2.864-5.923l-4.421-14.267c-0.05-0.183-0.071-0.314-0.067-0.394c0.021-0.339,0.459-0.483,1.316-0.434l0.239,0.014
		c0.657,0.039,1.047,0.221,1.169,0.547l2.579,8.281c0.268,0.896,0.529,1.92,0.782,3.075l0.06,0.004l0.319-0.852l0.843-2.111
		l3.461-7.928c0.117-0.314,0.536-0.449,1.253-0.408l0.09,0.005C81.175,30.97,81.574,30.994,81.574,30.994z"/>
	<path fill="#FFFFFF" d="M95.647,33.777c1.086,1.453,1.553,3.486,1.401,6.096c-0.15,2.592-0.839,4.527-2.062,5.805
		c-1.226,1.279-2.953,1.853-5.185,1.724c-2.253-0.131-3.933-0.908-5.04-2.333c-1.107-1.424-1.586-3.422-1.437-5.994
		c0.15-2.591,0.864-4.551,2.142-5.875c1.278-1.326,3.033-1.925,5.265-1.795C92.922,31.533,94.561,32.323,95.647,33.777z
		 M87.234,34.788c-0.733,0.907-1.159,2.369-1.276,4.381c-0.115,1.994,0.137,3.484,0.761,4.469c0.622,0.986,1.661,1.522,3.117,1.606
		c1.454,0.085,2.558-0.327,3.311-1.233c0.752-0.906,1.187-2.356,1.303-4.35c0.115-1.993-0.148-3.489-0.79-4.486
		c-0.642-0.997-1.691-1.539-3.145-1.623C89.06,33.469,87.965,33.88,87.234,34.788z"/>
	<path fill="#FFFFFF" d="M113.197,33.492l-0.616,10.613c-0.076,1.316-0.071,2.261,0.015,2.836c0.086,0.575,0.127,0.892,0.124,0.952
		c-0.013,0.239-0.213,0.403-0.598,0.491c-0.385,0.088-0.737,0.122-1.056,0.103c-0.278-0.016-0.474-0.183-0.586-0.498
		c-0.111-0.316-0.193-0.646-0.242-0.99c-0.051-0.342-0.082-0.564-0.097-0.665c-0.679,0.661-1.437,1.166-2.278,1.518
		c-0.841,0.352-1.68,0.502-2.517,0.454c-1.515-0.088-2.68-0.586-3.498-1.493c-0.817-0.907-1.182-2.119-1.094-3.633l0.603-10.375
		c0.026-0.438,0.437-0.635,1.234-0.589l0.119,0.007c0.797,0.046,1.183,0.289,1.157,0.727l-0.588,10.136
		c-0.053,0.917,0.17,1.644,0.669,2.184c0.499,0.539,1.236,0.837,2.214,0.894c0.677,0.039,1.361-0.111,2.052-0.451
		c0.69-0.339,1.302-0.815,1.837-1.423l0.637-10.943c0.025-0.438,0.437-0.635,1.234-0.589l0.119,0.007
		C112.837,32.81,113.223,33.054,113.197,33.492z"/>
	<path fill="#FFFFFF" d="M125.542,33.759c0.286,0.237,0.419,0.524,0.4,0.863c-0.021,0.339-0.101,0.689-0.241,1.051
		c-0.141,0.361-0.292,0.538-0.451,0.529c-0.1-0.007-0.291-0.072-0.574-0.198c-0.283-0.125-0.633-0.202-1.052-0.225
		c-0.458-0.027-0.899,0.082-1.323,0.328c-0.424,0.246-0.785,0.52-1.083,0.822c-0.297,0.303-0.447,0.474-0.45,0.514l-0.636,10.943
		c-0.026,0.438-0.437,0.635-1.234,0.589l-0.119-0.007c-0.797-0.046-1.183-0.289-1.158-0.728l0.61-10.494
		c0.076-1.316,0.071-2.261-0.015-2.836c-0.087-0.575-0.127-0.892-0.124-0.952c0.013-0.239,0.213-0.403,0.598-0.491
		c0.384-0.087,0.737-0.122,1.055-0.103c0.279,0.016,0.475,0.173,0.589,0.469c0.112,0.297,0.195,0.607,0.246,0.93
		c0.051,0.323,0.083,0.536,0.097,0.635c1.143-1.433,2.344-2.113,3.599-2.041C124.833,33.387,125.256,33.522,125.542,33.759z"/>
	<path fill="#FFFFFF" d="M40.105,65.499c0.827,0.738,1.435,1.724,1.824,2.956c0.388,1.233,0.537,2.627,0.447,4.181
		c-0.099,1.694-0.436,3.126-1.015,4.292c-0.578,1.166-1.343,2.032-2.296,2.596c-0.953,0.565-2.026,0.812-3.222,0.743
		c-0.878-0.05-1.643-0.225-2.296-0.523c-0.653-0.297-1.283-0.714-1.892-1.249l-0.402,6.907c-0.025,0.438-0.437,0.634-1.233,0.588
		l-0.119-0.007c-0.798-0.046-1.183-0.288-1.158-0.728l0.968-16.654c0.076-1.316,0.07-2.261-0.015-2.836
		c-0.086-0.575-0.127-0.892-0.124-0.952c0.013-0.239,0.213-0.403,0.597-0.49c0.385-0.088,0.738-0.123,1.056-0.104
		c0.279,0.016,0.475,0.173,0.588,0.469c0.113,0.297,0.195,0.607,0.246,0.929c0.052,0.324,0.084,0.536,0.098,0.636
		c1.523-1.412,3.15-2.066,4.885-1.966C38.255,64.357,39.278,64.761,40.105,65.499z M34.296,66.857
		c-0.728,0.317-1.411,0.788-2.047,1.411l-0.476,8.193c1.025,0.96,2.235,1.479,3.63,1.56c1.316,0.057,2.34-0.368,3.074-1.277
		c0.732-0.907,1.151-2.258,1.256-4.052c0.113-1.933-0.12-3.442-0.697-4.526c-0.577-1.084-1.453-1.66-2.628-1.728
		C35.727,66.4,35.023,66.539,34.296,66.857z"/>
	<path fill="#FFFFFF" d="M50.157,59.018l-0.469,8.073c0.633-0.563,1.354-1.017,2.164-1.359s1.654-0.489,2.532-0.438
		c1.255,0.073,2.341,0.492,3.257,1.254s1.321,2.051,1.215,3.865l-0.603,10.374c-0.026,0.438-0.437,0.635-1.233,0.589l-0.12-0.007
		c-0.797-0.046-1.183-0.289-1.157-0.727l0.588-10.136c0.052-0.897-0.166-1.619-0.654-2.168c-0.489-0.549-1.23-0.852-2.227-0.91
		c-0.658-0.039-1.276,0.081-1.851,0.357c-0.575,0.277-1.06,0.589-1.449,0.936c-0.389,0.347-0.586,0.541-0.588,0.58l-0.637,10.943
		c-0.026,0.438-0.437,0.635-1.233,0.589l-0.12-0.007c-0.797-0.046-1.183-0.289-1.157-0.727l1.234-21.228
		c0.025-0.438,0.437-0.634,1.233-0.588L49,58.29C49.795,58.338,50.181,58.58,50.157,59.018z"/>
	<path fill="#FFFFFF" d="M74.935,68.573c1.086,1.453,1.553,3.486,1.4,6.097c-0.15,2.592-0.839,4.527-2.062,5.806
		c-1.224,1.278-2.952,1.853-5.185,1.723c-2.253-0.131-3.933-0.909-5.04-2.333c-1.107-1.424-1.586-3.422-1.437-5.994
		c0.15-2.591,0.864-4.551,2.143-5.875c1.277-1.326,3.03-1.924,5.264-1.794C72.211,66.329,73.849,67.12,74.935,68.573z
		 M66.522,69.584c-0.733,0.907-1.158,2.368-1.275,4.38c-0.116,1.994,0.136,3.483,0.76,4.469c0.622,0.985,1.661,1.522,3.117,1.606
		c1.455,0.085,2.559-0.327,3.311-1.233c0.753-0.906,1.187-2.355,1.303-4.349c0.115-1.992-0.148-3.489-0.79-4.486
		c-0.642-0.997-1.69-1.537-3.145-1.622C68.348,68.265,67.254,68.677,66.522,69.584z"/>
	<path fill="#FFFFFF" d="M84.332,64.065l-0.183,3.14l2.511,0.146c0.22,0.013,0.371,0.091,0.452,0.236
		c0.083,0.144,0.114,0.377,0.096,0.695l-0.021,0.358c-0.019,0.319-0.078,0.546-0.175,0.68c-0.098,0.135-0.255,0.195-0.475,0.182
		l-2.511-0.146l-0.54,9.298c-0.048,0.838,0.061,1.424,0.334,1.759c0.27,0.336,0.654,0.519,1.153,0.547
		c0.379,0.022,0.664,0.013,0.857-0.025c0.193-0.038,0.338-0.055,0.439-0.05c0.179,0.01,0.318,0.203,0.416,0.579
		c0.098,0.376,0.142,0.664,0.129,0.862c-0.034,0.598-0.78,0.855-2.235,0.771c-0.997-0.058-1.87-0.413-2.622-1.067
		c-0.752-0.653-1.084-1.747-0.994-3.282l0.554-9.538l-1.495-0.087c-0.199-0.012-0.345-0.09-0.436-0.235
		c-0.093-0.146-0.129-0.377-0.11-0.696l0.021-0.358c0.019-0.318,0.082-0.545,0.19-0.68c0.108-0.134,0.26-0.195,0.46-0.183
		l1.495,0.087l0.541-3.119c0.065-0.436,0.397-0.637,0.995-0.602l0.298,0.016C84.071,63.389,84.357,63.625,84.332,64.065z"/>
	<path fill="#FFFFFF" d="M102.173,70.156c1.086,1.453,1.553,3.486,1.401,6.096c-0.15,2.592-0.839,4.527-2.062,5.806
		c-1.225,1.278-2.953,1.853-5.185,1.723c-2.253-0.131-3.933-0.908-5.04-2.333c-1.107-1.424-1.586-3.422-1.437-5.994
		c0.15-2.591,0.864-4.551,2.142-5.875c1.278-1.326,3.032-1.924,5.264-1.794C99.447,67.913,101.087,68.703,102.173,70.156z
		 M93.76,71.166c-0.733,0.907-1.159,2.369-1.276,4.381c-0.115,1.994,0.137,3.484,0.761,4.469c0.621,0.986,1.661,1.522,3.117,1.606
		c1.454,0.085,2.558-0.327,3.311-1.233c0.752-0.906,1.187-2.356,1.303-4.35c0.115-1.992-0.148-3.488-0.79-4.486
		s-1.691-1.538-3.145-1.622C95.585,69.848,94.491,70.26,93.76,71.166z"/>
</g>
</svg>
