<?xml version="1.0" encoding="utf-8"?>
<!-- Generator: Adobe Illustrator 21.1.0, SVG Export Plug-In . SVG Version: 6.00 Build 0)  -->
<svg version="1.1" id="Layer_1" xmlns="http://www.w3.org/2000/svg" xmlns:xlink="http://www.w3.org/1999/xlink" x="0px" y="0px"
	 viewBox="0 0 255.1 147.1" style="enable-background:new 0 0 255.1 147.1;" xml:space="preserve">
<style type="text/css">
	.st0{fill:#FFFFFF;}
</style>
<g>
	<g>
		<path class="st0" d="M86.6,47.9c-0.8-0.8-1.3-1.8-1.6-2.8c-0.3-1-0.4-2.3-0.4-3.8c0-1.5,0.2-3.5,0.7-6c0.6-3.2,1.8-7.4,3.5-12.5
			c-0.8,0.1-2,0.3-3.5,0.6c-1.5,0.3-2.6,0.5-3.2,0.5c-1.9,8.6-5.2,15.3-10.1,20c-1.7,1.6-3.6,3-5.9,4c-2.3,1-4.8,1.5-7.5,1.5
			c-2.7,0-5-0.8-6.9-2.4c-1.9-1.6-2.8-3.7-2.8-6.3c0-2.6,1.1-5.4,3.2-8.2c-3.6-3.3-5.3-7.2-5.3-11.7c0-2.7,0.5-5.2,1.5-7.4
			c1-2.2,2.3-4.1,4-5.6C53.9,6.3,55.9,5,58,4c4.2-2,8.8-3,13.9-3h17.9c0.4,0,0.7,0.2,0.9,0.6c0,0.2-0.1,0.3-0.2,0.4
			c-0.1,0.1-0.2,0.3-0.2,0.4c-2.8,3.3-4.9,8-6.4,14c-0.4,1.3-0.8,3.1-1.3,5.3l7.2-1.2c3.6-7.6,7.4-12.6,11.6-15.1
			c1.4-0.8,2.7-1.2,3.9-1.2c1.3,0,2.3,0.3,3.1,0.9c0.8,0.6,1.3,1.6,1.3,3c0,1.4-0.5,2.8-1.5,4.4c-1,1.5-2.2,2.9-3.7,4
			c-3,2.3-6.1,4-9.3,5c-1,2.4-2.1,5.9-3.3,10.6c-1.2,4.7-1.7,8.1-1.7,10.1c0,2,0.4,3,1.3,3c1.3,0,2.9-1.4,5-4.3l1.8,1.7
			c-1.2,1.7-2.5,3.2-4,4.5c-1.5,1.3-3,1.9-4.4,1.9C88.5,49.2,87.4,48.7,86.6,47.9z M50.6,22.3c0,3.3,1,6.2,3.1,8.7
			c2.7-2.5,6.1-4.5,10.1-5.9c4-1.4,8.1-2.3,12.2-2.6c2.1-9.4,4.5-15.8,7.2-19.1C81.6,3.2,79.6,3,77.3,3c-2.3,0-4.4,0.1-6.4,0.4
			c-2,0.3-4,0.7-6,1.4c-2,0.6-3.8,1.4-5.5,2.5c-1.7,1.1-3.2,2.3-4.5,3.7C52.1,13.9,50.6,17.7,50.6,22.3z M53.9,33.9
			c-1.6,2.3-2.4,4.4-2.4,6.4c0,2,0.6,3.7,1.7,5c1.1,1.3,2.6,2,4.4,2c1.8,0,3.5-0.3,5-1c1.5-0.7,2.9-1.6,4.1-2.8
			c1.2-1.2,2.3-2.5,3.2-4c1-1.4,1.8-3,2.6-4.8c1.4-3.2,2.5-6.5,3.3-9.8c-9.2,0.8-16,3.3-20.3,7.5c1.8,1,3.5,1.5,5.1,1.5
			c1.5,0,2.6,0,3.1-0.1l0.8,1.7c-1.1,0.1-2.3,0.2-3.5,0.2C58.4,35.7,56,35.1,53.9,33.9z M106,6.3c-0.9,0-1.9,0.5-3,1.4
			c-1.1,1-2.1,2.2-3,3.6c-1.6,2.5-2.8,5-3.8,7.4c2.2-0.8,4.2-2,6-3.4c3.3-2.7,5-5.1,5-7.2C107.1,6.9,106.8,6.3,106,6.3z"/>
		<path class="st0" d="M118.8,29.2h5.1l-2.6,9.8c-0.4,1.4-0.6,2.6-0.6,3.8c0,1.1,0.2,1.7,0.6,1.7c0.4,0,0.9-0.3,1.6-1
			c0.7-0.7,1.3-1.4,1.8-2.1l0.8-1.1l1.4,1.3c-0.7,1.4-1.6,2.7-2.8,3.8c-2.2,2.3-4.1,3.4-5.7,3.4c-1.9,0-2.8-1.5-2.8-4.4
			c0-0.5,0-0.8,0.1-1.1c-0.3,1.1-1,2.1-1.9,3c-1.8,1.7-3.7,2.5-5.9,2.5c-2.2,0-4-0.7-5.3-2.3c-1.3-1.5-2-3.4-2-5.6
			c0-3.5,1.1-6.5,3.4-8.9c2.3-2.4,5-3.6,8-3.6c1.5,0,2.8,0.4,3.8,1.3c1,0.8,1.7,1.9,2,3.3L118.8,29.2z M113.3,31.3
			c-1.3,0-2.5,0.5-3.6,1.6c-1.1,1.1-2,2.3-2.5,3.8c-0.6,1.5-0.9,3-0.9,4.4c0,1.4,0.3,2.6,0.9,3.5c0.6,0.9,1.6,1.3,2.9,1.3
			c1.3,0,2.5-0.6,3.5-1.8c2-2.3,3-5,3-8.1C116.7,32.9,115.6,31.3,113.3,31.3z"/>
		<path class="st0" d="M151.3,42c-1,2-2.4,3.6-4.2,4.9c-1.8,1.3-3.9,1.9-6.2,1.9c-2.3,0-4.2-0.9-5.6-2.7c-1,4.1-1.9,6.9-2.6,8.7
			c-2.3,5.4-5.4,8.1-9.4,8.1c-1,0-1.8-0.3-2.4-1c-0.7-0.7-1-1.4-1-2.3s0.2-1.5,0.7-2c0.4-0.5,1-0.7,1.7-0.7c0.7,0,1.3,0.2,1.8,0.5
			c0.5,0.3,0.7,0.9,0.7,1.6c0,0.7-0.4,1.5-1.2,2.3l0.2,0.3c1.4,0,2.6-2,3.7-6c0.4-1.6,0.8-2.8,1-3.7c0.2-0.9,0.3-1.4,0.4-1.6
			l3.5-13.6c-1.1,0.7-2.4,2.1-4.1,4.1l-1.3-1.5c1-1.3,2.1-2.6,3.4-3.9c1.3-1.3,2.1-2.1,2.5-2.4c1.7-5.1,3.4-8.9,5-11.4
			c1.7-2.5,3.5-4.5,5.5-6l0.9,0.8c-1.4,1.6-2.6,3.7-3.5,6.3c-1,2.5-1.6,5-1.9,7.3c2.3-0.9,4.6-1.4,6.7-1.4c2.1,0,3.9,0.7,5.2,2
			c1.4,1.3,2.1,3.1,2.1,5.3C152.8,38,152.3,40.1,151.3,42z M138.4,32.9l-2.5,11c0.4,0.9,1.1,1.5,2,1.9c0.9,0.4,2,0.7,3.2,0.7
			c1.2,0,2.3-0.5,3.3-1.5c1.9-1.9,2.8-4.4,2.8-7.5c0-2.8-0.7-4.6-2.2-5.6c-0.6-0.4-1.4-0.6-2.4-0.6
			C141.7,31.2,140.3,31.8,138.4,32.9z"/>
		<path class="st0" d="M178.1,42c-1,2-2.4,3.6-4.2,4.9c-1.8,1.3-3.9,1.9-6.2,1.9c-2.3,0-4.2-0.9-5.6-2.7c-1,4.1-1.9,6.9-2.6,8.7
			c-2.3,5.4-5.4,8.1-9.4,8.1c-1,0-1.8-0.3-2.4-1c-0.7-0.7-1-1.4-1-2.3s0.2-1.5,0.7-2c0.4-0.5,1-0.7,1.7-0.7c0.7,0,1.3,0.2,1.8,0.5
			c0.5,0.3,0.7,0.9,0.7,1.6c0,0.7-0.4,1.5-1.1,2.3l0.2,0.3c1.4,0,2.6-2,3.7-6c0.4-1.6,0.8-2.8,1-3.7c0.2-0.9,0.3-1.4,0.4-1.6
			l3.5-13.6c-1.1,0.7-2.4,2.1-4.1,4.1l-1.3-1.5c1-1.3,2.1-2.6,3.4-3.9c1.3-1.3,2.1-2.1,2.5-2.4c1.7-5.1,3.4-8.9,5-11.4
			c1.7-2.5,3.5-4.5,5.5-6l0.9,0.8c-1.4,1.6-2.6,3.7-3.5,6.3c-1,2.5-1.6,5-1.9,7.3c2.3-0.9,4.6-1.4,6.7-1.4c2.1,0,3.9,0.7,5.2,2
			c1.4,1.3,2.1,3.1,2.1,5.3C179.6,38,179.1,40.1,178.1,42z M165.2,32.9l-2.5,11c0.4,0.9,1.1,1.5,2,1.9c0.9,0.4,2,0.7,3.2,0.7
			c1.2,0,2.3-0.5,3.3-1.5c1.9-1.9,2.8-4.4,2.8-7.5c0-2.8-0.7-4.6-2.2-5.6c-0.6-0.4-1.4-0.6-2.4-0.6
			C168.5,31.2,167.1,31.8,165.2,32.9z"/>
		<path class="st0" d="M183.8,37l-2.1-1.3c1.1-1.9,2.5-3.6,4.1-5c1.6-1.4,3.1-2.2,4.4-2.2c2.1,0,3.2,0.9,3.2,2.8
			c0,0.8-0.5,2.7-1.6,5.8c-1.1,3-1.6,5-1.6,5.8c0,0.8,0.1,1.3,0.2,1.6c0.1,0.2,0.4,0.3,0.7,0.3c2,0,4-0.8,6.2-2.3
			c2.1-1.5,3.5-3.2,4.1-5l2.3-6.7c0.2-0.7,0.6-1.2,1.1-1.6c0.5-0.4,1-0.6,1.5-0.6c0.5,0,0.9,0.2,1.2,0.5c0.3,0.3,0.4,0.7,0.4,1.2
			s-0.1,1-0.3,1.6l-2.5,7.3c-1.4,4.3-3.5,8.5-6.4,12.7c2.5,0.3,4.8,0.7,6.7,1.3l-0.3,1.8c-3-0.6-5.7-1-8-1.1
			c-2.1,2.7-4.3,4.9-6.5,6.6c-2.2,1.6-4.2,2.5-5.8,2.5c-1.7,0-2.9-0.3-3.7-1c-0.8-0.7-1.2-1.6-1.2-2.7c0-1.2,0.4-2.2,1.3-3.2
			c0.9-1,2-1.7,3.5-2.3c3-1.2,6.4-1.9,10.3-2.1c0.3-0.4,1-1.6,2.2-3.7c1.2-2.1,1.8-3.4,1.9-4c-3.9,3.3-7.3,4.9-10.3,4.9
			c-1.2,0-2.1-0.4-2.6-1.2c-0.5-0.8-0.8-1.8-0.8-3c0-1.2,0.5-3.3,1.4-6.2c0.9-2.9,1.4-4.6,1.4-5c0-0.4-0.1-0.6-0.3-0.6
			c-0.2,0-0.4,0-0.6,0.1c-0.2,0.1-0.4,0.3-0.6,0.5c-0.2,0.2-0.4,0.4-0.6,0.6c-0.2,0.2-0.4,0.4-0.6,0.8c-0.2,0.3-0.4,0.6-0.5,0.8
			C184.2,36.2,183.9,36.7,183.8,37z M193.3,54c-1.8,0.1-3.6,0.4-5.4,1c-3.6,1-5.3,2.2-5.3,3.5c0,0.8,0.5,1.2,1.5,1.2
			c1,0,2.6-0.7,4.9-2.2C191.2,56,192.7,54.9,193.3,54z"/>
	</g>
	<g>
		<path class="st0" d="M14.7,111.8L5.4,68.3h6.2l4.6,23.3l1.6,10.9l1.6-10.9L24,68.3h6.2l-9.3,43.5H14.7z"/>
		<path class="st0" d="M29.6,111.8l9.3-43.5h6.2l9.3,43.5h-6.2l-2.3-10.9h-7.8l-2.3,10.9H29.6z M38.9,96.3h6.2L42,77.7L38.9,96.3z"
			/>
		<path class="st0" d="M57.9,111.8V68.3h6.2v38.8H75v4.7H57.9z"/>
		<path class="st0" d="M77.9,111.8V68.3H95V73H84.1v14h7.8v4.7h-7.8v15.5H95v4.7H77.9z"/>
		<path class="st0" d="M98.8,111.8V68.3h4.7l10.9,26.9V68.3h6.2v43.5h-4.4L105,82.9v28.9H98.8z"/>
		<path class="st0" d="M131.3,111.8V73.9h-7.8v-5.5h21.7v5.5h-7.8v37.9H131.3z"/>
		<path class="st0" d="M148.7,111.8V68.3h6.2v43.5H148.7z"/>
		<path class="st0" d="M161.5,111.8V68.3h4.7L177,95.2V68.3h6.2v43.5h-4.4l-11.1-28.9v28.9H161.5z"/>
		<path class="st0" d="M189.5,111.8V68.3h17.1V73h-10.9v14h7.8v4.7h-7.8v15.5h10.9v4.7H189.5z"/>
		<path class="st0" d="M211.9,80.8l-1.6-3.1c1.1,0,1.9-0.2,2.4-0.7c0.5-0.5,0.7-1.3,0.7-2.4h-3.1v-6.2h6.2c0,2.3,0,4.3-0.1,5.9
			c0,0.9-0.1,1.6-0.1,2.2c-0.1,0.6-0.2,1.2-0.4,1.8c-0.2,0.6-0.5,1.1-0.8,1.4c-0.3,0.3-0.8,0.6-1.3,0.8
			C213.3,80.7,212.7,80.8,211.9,80.8z"/>
		<path class="st0" d="M234.1,112.2c-3.9,0-6.9-1.1-9-3.4c-2.1-2.3-3.2-5.4-3.5-9.4l6.2-1.6c0.3,6.2,2.4,9.3,6.2,9.3
			c3.1,0,4.7-1.6,4.7-4.7c0-0.9-0.1-1.8-0.4-2.6c-0.3-0.8-0.6-1.5-1.2-2.2c-0.5-0.7-1-1.2-1.4-1.6c-0.4-0.4-1-0.9-1.7-1.5l-7.8-6.2
			c-1.4-1.1-2.6-2.5-3.4-4.3c-0.8-1.7-1.3-3.7-1.3-5.9c0-3.2,1-5.7,3-7.6c2-1.9,4.6-2.8,7.9-2.8c3.5,0,6.3,0.9,8.4,2.6
			c2.1,1.7,3.4,4.2,3.8,7.3c0,0.3,0.1,0.8,0.2,1.4l-6.2,1.6c0-0.3-0.1-0.7-0.1-1.2c-0.3-2-0.9-3.6-1.9-4.7c-1-1.2-2.4-1.8-4.2-1.8
			c-1.5,0-2.6,0.4-3.4,1.3c-0.8,0.8-1.2,2-1.2,3.5c0,2.4,1,4.5,3.1,6.1l7.8,6.2c4.1,3.3,6.2,7.3,6.2,12c0,3.2-1,5.7-2.9,7.5
			C240,111.3,237.4,112.2,234.1,112.2z"/>
	</g>
	<g>
		<path class="st0" d="M101.4,146.1v-17.3h5.9c2.1,0,3.8,0.7,5.2,2c1.4,1.3,2.1,3.1,2.1,5.2v2.9c0,2.1-0.7,3.8-2.1,5.2
			c-1.4,1.3-3.1,2-5.2,2H101.4z M104.9,131.5v11.9h2.3c1.2,0,2.2-0.4,2.9-1.3c0.7-0.8,1.1-1.9,1.1-3.3V136c0-1.3-0.4-2.4-1.1-3.3
			c-0.7-0.8-1.7-1.3-2.9-1.3H104.9z"/>
		<path class="st0" d="M131.2,142.4h-6.1l-1.2,3.7h-3.5l5.9-17.3h3.5l5.9,17.3h-3.5L131.2,142.4z M126,139.6h4.4l-2.1-6.8h-0.1
			L126,139.6z"/>
		<path class="st0" d="M148.3,136.8L148.3,136.8l3.8-8h3.8l-5.9,11.2v6.1h-3.5v-6.3l-5.8-11h3.8L148.3,136.8z"/>
	</g>
	<path class="st0" d="M174.2,133.7c0,0,1.2-1.7,3-1.8c2.2-0.1,3.8,1.5,3.9,3.3c0.1,1.8-1.6,3.6-2.7,4.6c-2.3,2.2-3.3,2.9-4.1,3.6
		c-0.8-0.7-1.8-1.4-4.1-3.6c-1.1-1-2.8-2.8-2.7-4.6c0.1-1.8,1.6-3.4,3.9-3.3C173,132,174.2,133.7,174.2,133.7z"/>
	<path class="st0" d="M85.1,133.7c0,0,1.2-1.7,3-1.8c2.2-0.1,3.8,1.5,3.9,3.3c0.1,1.8-1.6,3.6-2.7,4.6c-2.3,2.2-3.3,2.9-4.1,3.6
		c-0.8-0.7-1.8-1.4-4.1-3.6c-1.1-1-2.8-2.8-2.7-4.6c0.1-1.8,1.6-3.4,3.9-3.3C83.9,132,85.1,133.7,85.1,133.7z"/>
	<g>
		<rect x="215.1" y="27.7" class="st0" width="37.6" height="1.6"/>
		<circle class="st0" cx="252.4" cy="28.6" r="2.8"/>
	</g>
	<g>
		<rect x="1.9" y="27.7" class="st0" width="37.6" height="1.6"/>
		<circle class="st0" cx="2.8" cy="28.6" r="2.8"/>
	</g>
	<g>
		<rect x="186.2" y="135.8" class="st0" width="37.6" height="1.6"/>
		<circle class="st0" cx="223.5" cy="136.6" r="2.8"/>
	</g>
	<g>
		<rect x="34.2" y="135.8" class="st0" width="37.6" height="1.6"/>
		<circle class="st0" cx="35" cy="136.6" r="2.8"/>
	</g>
</g>
<g>
</g>
<g>
</g>
<g>
</g>
<g>
</g>
<g>
</g>
<g>
</g>
</svg>
