<?xml version="1.0" encoding="utf-8"?>
<!-- Generator: Adobe Illustrator 21.1.0, SVG Export Plug-In . SVG Version: 6.00 Build 0)  -->
<svg version="1.1" id="Layer_1" xmlns="http://www.w3.org/2000/svg" xmlns:xlink="http://www.w3.org/1999/xlink" x="0px" y="0px"
	 viewBox="0 0 1388 1016" style="enable-background:new 0 0 1388 1016;" xml:space="preserve">
<style type="text/css">
	.st0{fill:none;stroke:#ED1380;stroke-width:1.5;stroke-linecap:round;stroke-linejoin:round;stroke-miterlimit:10;}
	.st1{fill:none;stroke:#0AA1C6;stroke-width:0.5;stroke-linecap:round;stroke-linejoin:round;stroke-miterlimit:10;}
	.st2{fill:none;stroke:#ED2224;stroke-width:0.5;stroke-linecap:round;stroke-linejoin:round;stroke-miterlimit:10;}
</style>
<path class="st0" d="M539.475,547.833l241.751-1.436h269.341l241.742,1.436l1.488,244.6h-233.969
	c-6.066,0-11.459,3.867-13.416,9.611l-14.588,42.834H799.968l-14.596-42.834c-1.956-5.744-7.35-9.611-13.416-9.611H537.996
	L539.475,547.833"/>
<polyline class="st0" points="537.204,172.56 534.413,211.581 493.903,261.289 492.766,428.427 572.22,507.88 1259.565,507.88 
	1339.026,428.427 1337.881,261.289 1297.371,211.581 1294.588,172.56 1050.619,171.122 781.167,171.122 537.204,172.56 "/>
<g>
	<line class="st1" x1="792.589" y1="789.604" x2="1039.204" y2="789.604"/>
	<line class="st1" x1="1039.204" y1="554.895" x2="1039.204" y2="789.604"/>
	<line class="st1" x1="1050.539" y1="554.895" x2="1050.539" y2="785.926"/>
	<line class="st1" x1="792.589" y1="554.895" x2="792.589" y2="789.604"/>
	<line class="st1" x1="781.247" y1="554.895" x2="781.247" y2="785.926"/>
</g>
<g>
	<line class="st1" x1="1039.204" y1="459.699" x2="792.589" y2="459.699"/>
	<line class="st1" x1="792.589" y1="219.32" x2="1039.204" y2="219.32"/>
	<line class="st1" x1="1039.204" y1="219.32" x2="1039.204" y2="459.699"/>
	<line class="st1" x1="1050.539" y1="219.32" x2="1050.539" y2="459.699"/>
	<line class="st1" x1="1050.539" y1="459.699" x2="1290.917" y2="459.699"/>
	<line class="st1" x1="1289.502" y1="220.742" x2="1050.539" y2="219.32"/>
	<line class="st1" x1="1056.546" y1="459.699" x2="1289.502" y2="226.72"/>
	<line class="st1" x1="1050.539" y1="453.691" x2="1283.487" y2="220.71"/>
	<line class="st1" x1="1290.917" y1="459.699" x2="1289.502" y2="220.742"/>
	<line class="st1" x1="792.589" y1="219.32" x2="792.589" y2="459.699"/>
	<line class="st1" x1="781.247" y1="219.32" x2="781.247" y2="459.699"/>
	<line class="st1" x1="781.247" y1="459.699" x2="540.868" y2="459.699"/>
	<line class="st1" x1="542.289" y1="220.742" x2="781.247" y2="219.32"/>
	<line class="st1" x1="775.24" y1="459.699" x2="542.289" y2="226.72"/>
	<line class="st1" x1="781.247" y1="453.691" x2="548.297" y2="220.71"/>
	<line class="st1" x1="540.868" y1="459.699" x2="542.289" y2="220.742"/>
</g>
<g>
	<line class="st2" x1="1050.539" y1="554.895" x2="781.247" y2="554.895"/>
	<line class="st2" x1="806.048" y1="836.378" x2="988.516" y2="836.378"/>
	<line class="st2" x1="1038.361" y1="799.305" x2="1025.737" y2="836.378"/>
	<line class="st2" x1="1285.239" y1="783.932" x2="1283.862" y2="556.288"/>
	<line class="st2" x1="1059.829" y1="783.932" x2="1285.239" y2="783.932"/>
	<line class="st2" x1="1283.862" y1="556.288" x2="1050.539" y2="554.895"/>
	<line class="st2" x1="1017.026" y1="835.866" x2="1008.459" y2="829.872"/>
	<line class="st2" x1="998.708" y1="829.872" x2="990.143" y2="835.866"/>
	<path class="st2" d="M1008.459,829.872c-2.93-2.051-6.828-2.051-9.751,0"/>
	<path class="st2" d="M1017.026,835.866c0.476,0.338,1.039,0.512,1.626,0.512"/>
	<path class="st2" d="M988.516,836.378c0.58,0,1.151-0.174,1.627-0.512"/>
	<line class="st2" x1="793.425" y1="799.305" x2="806.048" y2="836.378"/>
	<line class="st2" x1="546.545" y1="783.932" x2="547.93" y2="556.288"/>
	<line class="st2" x1="771.956" y1="783.932" x2="546.545" y2="783.932"/>
	<line class="st2" x1="547.93" y1="556.288" x2="781.247" y2="554.895"/>
	<path class="st2" d="M1059.829,783.932c-9.708,0-18.339,6.184-21.468,15.373"/>
	<path class="st2" d="M793.425,799.305c-3.129-9.189-11.76-15.373-21.469-15.373"/>
	<line class="st2" x1="1018.652" y1="836.378" x2="1025.737" y2="836.378"/>
</g>
<g>
	<line class="st2" x1="1256.042" y1="499.38" x2="1040.618" y2="499.38"/>
	<line class="st2" x1="1286.661" y1="181.013" x2="1050.596" y2="179.636"/>
	<line class="st2" x1="781.167" y1="179.636" x2="1050.596" y2="179.636"/>
	<line class="st2" x1="844.896" y1="498.867" x2="853.461" y2="492.874"/>
	<line class="st2" x1="863.213" y1="492.874" x2="871.778" y2="498.867"/>
	<path class="st2" d="M863.213,492.874c-2.923-2.051-6.82-2.051-9.752,0"/>
	<path class="st2" d="M843.269,499.38c0.586,0,1.15-0.176,1.627-0.514"/>
	<path class="st2" d="M871.778,498.867c0.476,0.338,1.048,0.514,1.627,0.514"/>
	<line class="st2" x1="1020.066" y1="499.38" x2="873.405" y2="499.38"/>
	<line class="st2" x1="1040.618" y1="461.808" x2="1040.618" y2="499.38"/>
	<line class="st2" x1="1039.292" y1="461.501" x2="1020.066" y2="499.38"/>
	<line class="st2" x1="1330.496" y1="424.925" x2="1329.397" y2="264.335"/>
	<line class="st2" x1="1286.661" y1="181.013" x2="1288.954" y2="213.078"/>
	<line class="st2" x1="1329.397" y1="264.335" x2="1290.213" y2="216.257"/>
	<line class="st2" x1="1256.042" y1="499.38" x2="1330.496" y2="424.925"/>
	<path class="st2" d="M1040.618,461.808c0-0.381-0.314-0.688-0.695-0.688c-0.264,0-0.506,0.146-0.631,0.381"/>
	<line class="st2" x1="575.744" y1="499.38" x2="791.167" y2="499.38"/>
	<line class="st2" x1="545.125" y1="181.013" x2="781.189" y2="179.636"/>
	<line class="st2" x1="791.167" y1="461.808" x2="791.167" y2="499.38"/>
	<line class="st2" x1="792.494" y1="461.501" x2="811.72" y2="499.38"/>
	<line class="st2" x1="575.744" y1="499.38" x2="501.295" y2="424.925"/>
	<path class="st2" d="M792.494,461.501c-0.176-0.352-0.593-0.484-0.938-0.309c-0.241,0.117-0.389,0.352-0.389,0.615"/>
	<path class="st2" d="M1288.954,213.078c0.08,1.156,0.52,2.27,1.26,3.18"/>
	<line class="st2" x1="545.125" y1="181.013" x2="542.831" y2="213.078"/>
	<line class="st2" x1="502.387" y1="264.335" x2="541.571" y2="216.257"/>
	<path class="st2" d="M541.571,216.257c0.74-0.91,1.18-2.023,1.26-3.18"/>
	<line class="st2" x1="501.295" y1="424.925" x2="502.387" y2="264.335"/>
	<line class="st2" x1="843.269" y1="499.38" x2="811.72" y2="499.38"/>
</g>
</svg>
