<?xml version="1.0" encoding="utf-8"?>
<!-- Generator: Adobe Illustrator 21.1.0, SVG Export Plug-In . SVG Version: 6.00 Build 0)  -->
<svg version="1.1" id="Layer_1" xmlns="http://www.w3.org/2000/svg" xmlns:xlink="http://www.w3.org/1999/xlink" x="0px" y="0px"
	 viewBox="0 0 1388 1016" style="enable-background:new 0 0 1388 1016;" xml:space="preserve">
<style type="text/css">
	.st0{fill:none;stroke:#ED1380;stroke-width:1.5;stroke-linecap:round;stroke-linejoin:round;stroke-miterlimit:10;}
	.st1{fill:none;stroke:#0AA1C6;stroke-width:0.5;stroke-linecap:round;stroke-linejoin:round;stroke-miterlimit:10;}
	.st2{fill:none;stroke:#ED2224;stroke-width:0.5;stroke-linecap:round;stroke-linejoin:round;stroke-miterlimit:10;}
</style>
<polygon class="st0" points="1381.688,80.76 1307.35,6.438 81.207,6.438 6.885,80.753 6.885,935.557 81.206,1009.902 
	1307.351,1009.902 1381.688,935.558 "/>
<g>
	<line class="st1" x1="1078.381" y1="961.716" x2="1078.381" y2="54.631"/>
	<line class="st1" x1="1333.501" y1="54.631" x2="55.07" y2="54.631"/>
	<line class="st1" x1="826.102" y1="54.631" x2="826.102" y2="961.716"/>
	<line class="st1" x1="55.07" y1="961.716" x2="1333.501" y2="961.716"/>
	<line class="st1" x1="811.933" y1="54.631" x2="811.933" y2="961.716"/>
	<line class="st1" x1="570.982" y1="54.631" x2="570.982" y2="961.716"/>
	<line class="st1" x1="556.813" y1="54.631" x2="556.813" y2="961.716"/>
	<line class="st1" x1="310.19" y1="54.631" x2="310.19" y2="961.716"/>
	<line class="st1" x1="296.021" y1="54.631" x2="296.021" y2="961.716"/>
	<line class="st1" x1="55.07" y1="54.631" x2="55.07" y2="961.716"/>
	<line class="st1" x1="1092.552" y1="961.716" x2="1092.552" y2="54.631"/>
	<line class="st1" x1="1333.501" y1="961.716" x2="1333.501" y2="54.631"/>
	<line class="st1" x1="1292.397" y1="819.985" x2="1292.397" y2="876.673"/>
	<line class="st1" x1="1292.397" y1="876.673" x2="1269.714" y2="876.673"/>
	<line class="st1" x1="1269.714" y1="876.673" x2="1269.714" y2="819.985"/>
	<line class="st1" x1="1269.714" y1="819.985" x2="1292.397" y2="819.985"/>
	<line class="st1" x1="1292.397" y1="139.666" x2="1292.397" y2="196.361"/>
	<line class="st1" x1="1292.397" y1="196.361" x2="1269.714" y2="196.361"/>
	<line class="st1" x1="1269.714" y1="196.361" x2="1269.714" y2="139.666"/>
	<line class="st1" x1="1269.714" y1="139.666" x2="1292.397" y2="139.666"/>
	<line class="st1" x1="243.575" y1="834.155" x2="243.575" y2="876.673"/>
	<line class="st1" x1="243.575" y1="876.673" x2="232.248" y2="876.673"/>
	<line class="st1" x1="232.248" y1="876.673" x2="232.248" y2="834.155"/>
	<line class="st1" x1="232.248" y1="834.155" x2="243.575" y2="834.155"/>
	<line class="st1" x1="243.575" y1="139.666" x2="243.575" y2="182.184"/>
	<line class="st1" x1="243.575" y1="182.184" x2="232.248" y2="182.184"/>
	<line class="st1" x1="232.248" y1="182.184" x2="232.248" y2="139.666"/>
	<line class="st1" x1="232.248" y1="139.666" x2="243.575" y2="139.666"/>
</g>
<g>
	<line class="st2" x1="337.651" y1="14.941" x2="84.729" y2="14.941"/>
	<line class="st2" x1="1303.828" y1="14.941" x2="367.78" y2="14.941"/>
	<line class="st2" x1="15.389" y1="84.275" x2="15.389" y2="932.035"/>
	<line class="st2" x1="1303.828" y1="1001.398" x2="1373.184" y2="932.035"/>
	<line class="st2" x1="1303.828" y1="14.941" x2="1373.184" y2="84.283"/>
	<line class="st2" x1="84.729" y1="1001.398" x2="15.389" y2="932.035"/>
	<line class="st2" x1="84.729" y1="14.941" x2="15.389" y2="84.275"/>
	<line class="st2" x1="366.153" y1="15.454" x2="357.596" y2="21.448"/>
	<line class="st2" x1="347.836" y1="21.448" x2="339.278" y2="15.454"/>
	<path class="st2" d="M347.836,21.448c2.932,2.051,6.829,2.051,9.76,0"/>
	<path class="st2" d="M367.78,14.941c-0.587,0-1.144,0.183-1.627,0.513"/>
	<path class="st2" d="M339.278,15.454c-0.483-0.33-1.055-0.513-1.627-0.513"/>
	<line class="st2" x1="366.153" y1="1000.884" x2="357.596" y2="994.892"/>
	<line class="st2" x1="347.836" y1="994.892" x2="339.278" y2="1000.884"/>
	<path class="st2" d="M357.596,994.892c-2.931-2.053-6.828-2.053-9.76,0"/>
	<path class="st2" d="M366.153,1000.884c0.483,0.338,1.04,0.514,1.627,0.514"/>
	<path class="st2" d="M337.651,1001.398c0.572,0,1.143-0.176,1.627-0.514"/>
	<line class="st2" x1="367.78" y1="1001.398" x2="1303.828" y2="1001.398"/>
	<line class="st2" x1="84.729" y1="1001.398" x2="337.651" y2="1001.398"/>
	<line class="st2" x1="1373.184" y1="932.035" x2="1373.184" y2="84.283"/>
</g>
</svg>
