<?xml version="1.0" encoding="utf-8"?>
<!-- Generator: Adobe Illustrator 21.1.0, SVG Export Plug-In . SVG Version: 6.00 Build 0)  -->
<svg version="1.1" id="Layer_1" xmlns="http://www.w3.org/2000/svg" xmlns:xlink="http://www.w3.org/1999/xlink" x="0px" y="0px"
	 viewBox="0 0 1388 1016" style="enable-background:new 0 0 1388 1016;" xml:space="preserve">
<style type="text/css">
	.st0{fill:none;stroke:#0AA1C6;stroke-width:0.5;stroke-linecap:round;stroke-linejoin:round;stroke-miterlimit:10;}
	.st1{fill:none;stroke:#ED2224;stroke-width:0.5;stroke-linecap:round;stroke-linejoin:round;stroke-miterlimit:10;}
</style>
<g>
	<line class="st0" x1="310.191" y1="953.209" x2="310.191" y2="63.137"/>
	<line class="st0" x1="55.071" y1="54.631" x2="1333.501" y2="54.631"/>
	<line class="st0" x1="562.469" y1="63.137" x2="562.469" y2="953.209"/>
	<line class="st0" x1="1333.501" y1="961.716" x2="55.071" y2="961.716"/>
	<line class="st0" x1="576.639" y1="63.137" x2="576.639" y2="953.209"/>
	<line class="st0" x1="817.589" y1="63.137" x2="817.589" y2="953.209"/>
	<line class="st0" x1="831.759" y1="63.137" x2="831.759" y2="953.209"/>
	<line class="st0" x1="1078.381" y1="63.137" x2="1078.381" y2="953.209"/>
	<line class="st0" x1="1092.551" y1="63.137" x2="1092.551" y2="953.209"/>
	<line class="st0" x1="1333.501" y1="54.631" x2="1333.501" y2="961.716"/>
	<line class="st0" x1="296.02" y1="953.209" x2="296.02" y2="63.137"/>
	<line class="st0" x1="55.071" y1="961.716" x2="55.071" y2="54.631"/>
	<line class="st0" x1="96.174" y1="819.985" x2="96.174" y2="876.673"/>
	<line class="st0" x1="96.174" y1="876.673" x2="118.858" y2="876.673"/>
	<line class="st0" x1="118.858" y1="876.673" x2="118.858" y2="819.985"/>
	<line class="st0" x1="118.858" y1="819.985" x2="96.174" y2="819.985"/>
	<line class="st0" x1="96.174" y1="139.666" x2="96.174" y2="196.361"/>
	<line class="st0" x1="96.174" y1="196.361" x2="118.858" y2="196.361"/>
	<line class="st0" x1="118.858" y1="196.361" x2="118.858" y2="139.666"/>
	<line class="st0" x1="118.858" y1="139.666" x2="96.174" y2="139.666"/>
	<line class="st0" x1="1144.996" y1="834.155" x2="1144.996" y2="876.673"/>
	<line class="st0" x1="1144.996" y1="876.673" x2="1156.324" y2="876.673"/>
	<line class="st0" x1="1156.324" y1="876.673" x2="1156.324" y2="834.155"/>
	<line class="st0" x1="1156.324" y1="834.155" x2="1144.996" y2="834.155"/>
	<line class="st0" x1="1144.996" y1="139.666" x2="1144.996" y2="182.184"/>
	<line class="st0" x1="1144.996" y1="182.184" x2="1156.324" y2="182.184"/>
	<line class="st0" x1="1156.324" y1="182.184" x2="1156.324" y2="139.666"/>
	<line class="st0" x1="1156.324" y1="139.666" x2="1144.996" y2="139.666"/>
</g>
<g>
	<line class="st1" x1="1325.001" y1="63.137" x2="1325.001" y2="953.209"/>
</g>
<g>
	<line class="st1" x1="63.57" y1="63.137" x2="63.57" y2="953.209"/>
	<line class="st1" x1="63.57" y1="953.209" x2="1325.001" y2="953.209"/>
	<line class="st1" x1="1325.001" y1="63.137" x2="63.57" y2="63.137"/>
</g>
</svg>
