<?xml version="1.0" encoding="utf-8"?>
<!-- Generator: Adobe Illustrator 21.1.0, SVG Export Plug-In . SVG Version: 6.00 Build 0)  -->
<svg version="1.1" id="Layer_4" xmlns="http://www.w3.org/2000/svg" xmlns:xlink="http://www.w3.org/1999/xlink" x="0px" y="0px"
	 viewBox="0 0 255.1 255.1" style="enable-background:new 0 0 255.1 255.1;" xml:space="preserve">
<style type="text/css">
	.st0{fill:#FFFFFF;}
	.st1{fill:url(#SVGID_1_);}
	.st2{fill:url(#SVGID_2_);}
	.st3{fill:url(#SVGID_3_);}
	.st4{fill:url(#SVGID_4_);}
	.st5{fill:url(#SVGID_5_);}
	.st6{fill:url(#SVGID_6_);}
	.st7{fill:url(#SVGID_7_);}
	.st8{fill:url(#SVGID_8_);}
	.st9{fill:url(#SVGID_9_);}
	.st10{fill:url(#SVGID_10_);}
	.st11{fill:url(#SVGID_11_);}
	.st12{fill:url(#SVGID_12_);}
	.st13{fill:url(#SVGID_13_);}
	.st14{fill:url(#SVGID_14_);}
	.st15{fill:url(#SVGID_15_);}
	.st16{fill:url(#SVGID_16_);}
	.st17{fill:url(#SVGID_17_);}
	.st18{fill:url(#SVGID_18_);}
	.st19{fill:url(#SVGID_19_);}
	.st20{fill:url(#SVGID_20_);}
	.st21{fill:url(#SVGID_21_);}
	.st22{fill:url(#SVGID_22_);}
	.st23{fill:url(#SVGID_23_);}
	.st24{fill:url(#SVGID_24_);}
	.st25{fill:url(#SVGID_25_);}
	.st26{fill:url(#SVGID_26_);}
	.st27{fill:url(#SVGID_27_);}
	.st28{fill:url(#SVGID_28_);}
	.st29{fill:url(#SVGID_29_);}
	.st30{fill:url(#SVGID_30_);}
	.st31{fill:url(#SVGID_31_);}
	.st32{fill:url(#SVGID_32_);}
	.st33{fill:url(#SVGID_33_);}
	.st34{fill:url(#SVGID_34_);}
	.st35{fill:url(#SVGID_35_);}
	.st36{fill:url(#SVGID_36_);}
	.st37{fill:url(#SVGID_37_);}
	.st38{fill:url(#SVGID_38_);}
	.st39{fill:url(#SVGID_39_);}
	.st40{fill:url(#SVGID_40_);}
	.st41{fill:url(#SVGID_41_);}
	.st42{fill:url(#SVGID_42_);}
	.st43{fill:url(#SVGID_43_);}
	.st44{fill:url(#SVGID_44_);}
	.st45{fill:url(#SVGID_45_);}
	.st46{fill:url(#SVGID_46_);}
	.st47{fill:url(#SVGID_47_);}
	.st48{fill:url(#SVGID_48_);}
	.st49{fill:url(#SVGID_49_);}
	.st50{fill:url(#SVGID_50_);}
	.st51{fill:url(#SVGID_51_);}
	.st52{fill:url(#SVGID_52_);}
	.st53{fill:url(#SVGID_53_);}
	.st54{fill:url(#SVGID_54_);}
	.st55{fill:url(#SVGID_55_);}
	.st56{fill:url(#SVGID_56_);}
	.st57{fill:url(#SVGID_57_);}
	.st58{fill:url(#SVGID_58_);}
	.st59{fill:url(#SVGID_59_);}
	.st60{fill:url(#SVGID_60_);}
	.st61{fill:url(#SVGID_61_);}
	.st62{fill:url(#SVGID_62_);}
</style>
<path class="st0" d="M167.8,139.1c-0.4,0-0.8-0.3-0.8-0.8c0-0.4,0.4-0.8,0.8-0.8c4.3,0,5.7-6.9,6.2-9.8c0-0.3,0-0.6-0.2-0.9
	c-1.5-2-2.3-5.1-2.3-8.9c0-3.8-2.3-4.7-3.3-4.9c-0.1,0-0.2,0-0.3,0c-0.3,0-0.5,0.1-0.7,0.2l-2.1,1.6c-0.4,0.3-0.6,0.8-0.5,1.2
	c0.1,0.6,0.2,1.2,0.2,1.9v14.2c0,0.4-0.4,0.8-0.8,0.8c-0.4,0-0.8-0.3-0.8-0.8V118c0-3.6-2.2-5-4.1-5c-0.4,0-0.8-0.4-0.8-0.8
	c0-0.4,0.4-0.7,0.8-0.7c0.8,0,2.6,0.4,4,1.7c0.2,0.2,0.5,0.3,0.8,0.3c0.3,0,0.5-0.1,0.7-0.2l2.2-1.6c0.1-0.1,0.3-0.2,0.5-0.2
	c0.1,0,5.7,0.1,5.7,6.5c0,1,0.1,2,0.2,3c0.1,0.5,0.4,0.9,0.9,1c0.1,0,0.2,0,0.3,0c0.4,0,0.7-0.2,0.9-0.5c1.1-1.5,2.8-2.3,4.7-2.3
	c3.2,0,5.9,2.6,5.9,5.7c0,3.1-2.6,5.7-5.9,5.7c-1.1,0-2.2-0.3-3.2-0.9c-0.2-0.1-0.4-0.2-0.6-0.2c-0.2,0-0.3,0-0.5,0.1
	c-0.4,0.1-0.6,0.5-0.7,0.8C174.2,134.4,172.2,139.1,167.8,139.1L167.8,139.1z M180.2,120.8c-2.3,0-4.2,1.8-4.2,4.1c0,0,0,0.1,0,0.2
	c0,2.3,1.9,4.1,4.3,4.1c2.3,0,4.3-1.9,4.3-4.2C184.4,122.6,182.5,120.8,180.2,120.8L180.2,120.8z"/>
<g>
	<radialGradient id="SVGID_1_" cx="141.3324" cy="124.3574" r="107.7678" gradientUnits="userSpaceOnUse">
		<stop  offset="0.2" style="stop-color:#FFFFFF"/>
		<stop  offset="0.7" style="stop-color:#FFFFFF;stop-opacity:0.6"/>
		<stop  offset="1" style="stop-color:#FFFFFF"/>
	</radialGradient>
	<path class="st1" d="M224.6,45c-0.2-2.8-0.9-6.1-2.5-9.3c-1.5-3.3-4-6.6-7.4-9.2c-0.9-0.6-1.8-1.2-2.7-1.8c-1-0.5-2-1-3.1-1.5
		c-2.1-0.8-4.4-1.4-6.8-1.7c-4.8-0.6-9.9-0.2-14.9,1c-5,1.2-10.1,3.2-14.9,5.6c-2.4,1.2-4.8,2.5-7,3.9c-2.3,1.4-4.4,3-6.4,4.6
		c-4,3.3-7.5,6.8-10.6,10.3c-6.2,7.1-10.7,14.4-13.8,20.8c-1.6,3.2-2.7,6.2-3.6,8.9c-0.5,1.6-0.9,3.1-1.1,4.4
		c-0.7-0.1-1.4-0.2-2.1-0.2c-1,0-2,0.2-2.9,0.5c-0.3-1.4-0.6-3-1.1-4.7c-0.8-2.7-1.9-5.7-3.4-8.9c-3-6.4-7.4-13.7-13.4-20.9
		c-3-3.6-6.5-7.1-10.5-10.4c-2-1.6-4.1-3.2-6.4-4.6c-2.3-1.4-4.6-2.7-7-3.9c-4.9-2.4-9.9-4.3-14.9-5.5c-5-1.2-10.1-1.6-14.9-0.9
		c-2.4,0.3-4.7,0.9-6.8,1.8c-2.1,0.8-4.1,2-5.8,3.3c-3.4,2.6-5.8,5.9-7.4,9.1c-1.5,3.3-2.2,6.5-2.5,9.3c-0.2,2.8,0,5.3,0.4,7.2
		c0.4,1.9,0.8,3.4,1.2,4.4c0.1,0.2,0.1,0.4,0.2,0.5c0.2,0.6,0.4,0.9,0.4,0.9s0-0.5-0.1-1.3c0-0.9-0.1-2.2,0-3.8
		c0.1-1.6,0.3-3.5,0.8-5.6c0-0.1,0.1-0.3,0.1-0.4c0-0.1,0-0.1,0.1-0.2c0.3-0.9,0.6-1.9,1-2.8c0,0,0,0,0,0v-0.1
		c0.6-1.3,1.4-2.6,2.4-3.8c0.2-0.2,0.3-0.4,0.5-0.5c0.1-0.1,0.1-0.1,0.2-0.2c1.8-1.9,4.2-3.4,7-4.4c3.2-1.2,6.9-1.6,10.7-1.6
		c3.9,0.1,7.9,0.7,12,1.8c4.1,1.1,8.2,2.7,12.1,4.8c2,1,3.8,2.2,5.5,3.5c1.7,1.3,3.3,2.8,4.7,4.3c2.9,3,5.4,6.3,7.6,9.5
		c4.3,6.5,7.2,13,8.4,18.8c0.6,2.9,0.8,5.6,0.6,7.9c0,0.3-0.1,0.6-0.1,0.9c-0.2,0.4-0.5,2.7-0.7,3.4l0.4-1.9
		c-0.1,0.7-0.3,1.4-0.5,2.1c0,0,0-0.1,0-0.1l0,0.2c-0.1,0.5-0.3,0.9-0.4,1.3c-0.1,0.4-0.3,0.8-0.5,1.2c-0.1,0.1-0.2,0.2-0.2,0.3
		c0-0.3-0.1-0.7-0.2-1.1c-0.1-0.5-0.8-1.8-1.2-2.5c-0.4-0.6-1-1.2-1.7-1.6c-0.7-0.5-1.5-0.9-2.3-1.2c-1.7-0.6-3.5-1-5.4-1.3
		c-1.9-0.3-3.7-0.5-5.3-0.8c-1.6-0.3-3-0.7-4-1.2c-1.1-0.5-1.9-1.1-2.4-1.6c-0.5-0.5-0.7-0.8-0.7-0.8c0,0,0.1,0.4,0.3,1.1
		c0.2,0.7,0.5,1.7,1,2.9c0.3,0.6,0.6,1.3,1.1,1.9c0.5,0.7,1,1.3,1.7,1.9c0.7,0.6,1.5,1.1,2.3,1.6c0.1,0,0.2,0.1,0.2,0.1c0,0,0,0,0,0
		c-0.1,0.5-0.2,1.3-0.1,2.3c0.1,1,0.4,2.2,1,3.4c0.3,0.6,0.7,1.2,1.1,1.8c0.2,0.3,0.5,0.6,0.7,0.8c0.1,0.1,0.3,0.3,0.4,0.4
		c0.1,0.1,0.2,0.2,0.2,0.2c0.1,0.1,0.2,0.1,0.3,0.2c0.7,0.5,1.4,0.8,2,1.1c0.6,0.3,1.3,0.5,1.8,0.7c1.2,0.4,2.2,0.8,2.9,1.3
		c0.7,0.5,1.1,1.1,1.2,1.6c0.1,0.5,0.1,0.8,0.1,0.8c0,0,0.2-0.3,0.2-0.8c0-0.3,0-0.7-0.2-1.1c-0.1-0.4-0.4-0.8-0.8-1.2
		c-0.7-0.8-1.7-1.4-2.8-2c-0.6-0.3-1.2-0.6-1.7-0.9c-0.6-0.3-1.2-0.6-1.7-1c-0.1,0-0.1-0.1-0.2-0.1c-0.1-0.1-0.1-0.1-0.2-0.2
		l-0.4-0.3c-0.2-0.2-0.5-0.5-0.7-0.7c-0.4-0.5-0.8-0.9-1.2-1.4c-0.7-0.9-1.2-1.9-1.5-2.8c-0.3-0.8-0.4-1.5-0.5-2
		c0.3,0.1,0.5,0.2,0.8,0.4c0.4,0.2,0.9,0.4,1.4,0.6c1,0.4,2,0.5,2.8,0.7c0.2,0,0.4,0.1,0.5,0.2c0.1,0,0.2,0.1,0.2,0.1l0.1,0.1
		l0.2,0.1c0.3,0.1,0.5,0.3,0.8,0.6c0.5,0.6,1,1.3,1.7,1.9c0.1,0.1,0.2,0.2,0.3,0.2c0.1,0.1,0.2,0.1,0.3,0.2c0.2,0.1,0.4,0.2,0.5,0.3
		c0.4,0.2,0.8,0.2,1.1,0.3c0.2,0,0.4,0,0.6,0c-0.6,0.4-1.1,0.7-1.6,1c-1.1,0.5-2.2,0.6-2.9,0.3c-0.8-0.3-1.3-0.9-1.6-1.2
		c-0.3-0.4-0.5-0.6-0.5-0.6s0,0.3,0.2,0.7c0.2,0.5,0.5,1.2,1.4,1.8c0.4,0.3,1,0.6,1.7,0.7c0.7,0.1,1.4,0.1,2.2-0.1
		c0.9-0.2,1.8-0.6,2.7-1c-0.2,0.6-0.3,1.2-0.4,1.8c-0.1,1,0,1.8,0.2,2.5c0.2,0.7,0.4,1.3,0.6,1.8c0.1,0.3,0.2,0.5,0.3,0.7
		c-0.1,0.1-0.2,0.1-0.4,0.2c-0.3,0.2-0.8,0.5-1.3,0.9c-0.5,0.4-1,0.9-1.4,1.5c-0.4,0.7-0.8,1.6-0.8,2.6c0,1,0.3,2.1,0.8,3
		c0.3,0.6,0.7,1.1,1.1,1.7c-0.1,0.1-0.1,0.2-0.2,0.3c-0.6,0.9-1.1,2.1-1.4,3.4c-0.6,2.7-0.5,5.9,0.3,9.4c0.4,1.7,1,3.5,1.9,5.3
		c0.4,0.9,0.9,1.8,1.5,2.6c0.2,0.2,0.3,0.4,0.5,0.6c0.2,0.2,0.3,0.4,0.5,0.6c0.3,0.4,0.7,0.8,1,1.2c2.8,3.1,5.9,5.3,8.8,7.2
		c0.6,0.4,1.2,0.8,1.8,1.2c0.2,0.2,0.4,0.4,0.6,0.7c0.3,0.3,0.6,0.7,1,1l0.5,0.5c0.2,0.2,0.4,0.4,0.6,0.5c2.9,2.5,5.7,4.6,7.9,6.9
		c0.7,0.8,1.4,1.6,2,2.4c-0.1,0.2-0.2,0.4-0.3,0.6c-0.6,1.4-0.9,2.9-0.8,4.2c0.1,1.3,0.6,2.4,1.1,3.3c0.2,0.3,0.3,0.5,0.5,0.7
		c-0.3,0.4-0.5,0.8-0.8,1.1c-0.9,1-1.5,1.6-1.4,1.6c0,0,0.6-0.4,1.7-1.4c0.3-0.3,0.6-0.6,0.8-0.9c0.3,0.4,0.6,0.6,0.8,0.9
		c1,1,1.7,1.4,1.6,1.4c0,0-0.6-0.5-1.4-1.6c-0.2-0.3-0.5-0.7-0.8-1.1c-0.1-0.2-0.2-0.3-0.3-0.5c-0.1-0.2-0.2-0.3-0.3-0.5
		c-0.4-0.9-0.7-1.9-0.7-3c0-1.1,0.4-2.3,1-3.4c0,0,0.1-0.1,0.1-0.2c0.2-0.4,0.4-0.8,0.7-1.1c0.6-0.8,1.2-1.6,2-2.4
		c2-2.1,4.5-4.1,7.2-6.3c1.8-1.2,3.9-2.6,6.2-4.1c1.4-1,3-2.2,4.4-3.4c0.7-0.6,1.5-1.3,2.2-2c0.4-0.3,0.7-0.7,1.1-1.1l0.5-0.5
		l0.3-0.3c0.1-0.1,0.2-0.2,0.3-0.3c0.7-0.9,1.3-1.8,1.8-2.7c0.5-0.9,0.9-1.9,1.3-2.8c0.7-1.9,1.2-3.7,1.5-5.5c0.6-3.6,0.5-7-0.2-9.6
		c-0.3-1.1-0.7-2.1-1.1-3c0.2-0.3,0.4-0.6,0.6-0.9c0.5-0.9,0.9-2,1-3c0.1-1-0.3-2-0.7-2.7c-0.4-0.7-1-1.2-1.4-1.6
		c-0.5-0.4-0.9-0.7-1.3-0.9c0,0-0.1,0-0.1-0.1c0-0.1,0-0.2,0.1-0.4c0.1-0.5,0.5-1.1,1.3-1.6c0.7-0.5,1.7-0.9,2.9-1.3
		c0.6-0.2,1.2-0.4,1.8-0.7c0.6-0.3,1.3-0.6,2-1.1c0.1-0.1,0.2-0.1,0.3-0.2c0.1-0.1,0.2-0.1,0.2-0.2c0.1-0.1,0.3-0.3,0.4-0.4
		c0.3-0.3,0.5-0.6,0.7-0.8c0.4-0.6,0.8-1.2,1.1-1.8c0.6-1.2,0.9-2.4,1-3.4c0.1-1,0-1.8-0.2-2.3c0,0,0-0.1,0-0.1
		c2.6-1.6,4.3-3.7,5.3-5.5c0.7-1.2,1-2.2,1.2-2.9c0.2-0.7,0.2-1.1,0.2-1.1c0,0-0.2,0.3-0.7,0.8c-0.5,0.5-1.3,1.1-2.4,1.6
		c-1.1,0.5-2.5,0.9-4,1.2c-1.6,0.3-3.4,0.5-5.3,0.8c-1.9,0.3-3.8,0.7-5.4,1.3c-0.8,0.3-1.6,0.7-2.3,1.2c-0.7,0.5-1.3,1-1.7,1.6
		c-0.4,0.6-0.6,1.2-0.7,1.8c0,0.2,0,0.4,0,0.6c-0.1-0.1-0.1-0.1-0.2-0.2c-0.1-0.4-0.2-0.8-0.3-1.2c-0.2-0.7-0.3-1.4-0.4-2.2
		c-0.1-0.8-0.2-1.6-0.2-2.4c0-0.4,0-0.8,0-1.3c0-1.2,0.1-2.6,0.3-4l0.1,0c0,0-0.1-0.1-0.1-0.1c0.2-1.2,0.4-2.3,0.7-3.6
		c0.1-0.4,0.2-0.7,0.3-1.1h0c0,0,0-0.1,0-0.1c1.5-5.4,4.4-11.3,8.4-17.2c2.2-3.2,4.7-6.3,7.7-9.3c1.5-1.5,3-2.9,4.8-4.1
		c1.7-1.3,3.6-2.4,5.5-3.4c3.9-2,8-3.6,12-4.6c4-1,8-1.6,11.9-1.7c3.8,0,7.4,0.5,10.6,1.6c2.7,1,5,2.5,6.7,4.3
		c0.1,0.1,0.2,0.2,0.3,0.3c0.2,0.2,0.4,0.5,0.6,0.7c0.9,1.1,1.6,2.3,2.2,3.5c0,0.1,0.1,0.2,0.1,0.3c0.4,0.9,0.7,1.8,1,2.7
		c0,0.1,0.1,0.3,0.1,0.4c0,0.1,0,0.2,0.1,0.3c0.5,2.1,0.7,4,0.8,5.6c0.1,1.7,0,2.9,0,3.8c0,0.4-0.1,0.8-0.1,1c0,0.2,0,0.3,0,0.3
		s0.2-0.2,0.3-0.7c0.1-0.2,0.2-0.4,0.3-0.7c0.4-1,0.8-2.4,1.2-4.4C224.6,50.3,224.8,47.9,224.6,45z M106.5,86.4l-0.3,1.5
		C106.3,87.4,106.4,86.8,106.5,86.4z M102.4,93.6c-0.2,0.1-0.4,0.1-0.6,0.2l0,0c0,0,0.1,0,0.1,0C102.1,93.7,102.3,93.6,102.4,93.6
		C102.4,93.6,102.4,93.6,102.4,93.6z M98.9,93.6c-0.3-0.1-0.5-0.2-0.8-0.4c-0.1-0.1-0.3-0.2-0.4-0.3c-0.1-0.1-0.1-0.1-0.2-0.1
		c-0.1,0-0.1-0.1-0.2-0.2c-0.4-0.4-0.7-1.1-1.3-1.9c-0.3-0.4-0.6-0.8-1.1-1.1l0,0c0,0,0,0,0,0l-0.1-0.1l-0.2-0.1
		c-0.1-0.1-0.2-0.2-0.4-0.2c-0.2-0.1-0.5-0.2-0.7-0.3c-1-0.3-1.9-0.5-2.7-0.8c-0.4-0.1-0.9-0.4-1.3-0.5c-0.4-0.2-0.9-0.4-1.3-0.6
		c-0.8-0.4-1.5-0.8-2.2-1.2c-1.3-0.9-2.2-2-3-3.1c-0.2-0.3-0.4-0.6-0.6-0.8c0.3,0.3,0.5,0.5,0.9,0.8c1.1,0.9,2.5,1.6,4.2,2.1
		c1.7,0.6,3.5,0.9,5.4,1.2c1.9,0.3,3.7,0.5,5.2,0.8c1.5,0.3,2.8,0.8,3.6,1.6c0.8,0.7,1.1,1.7,1.3,2.4c0.1,0.7,0.2,1.1,0.2,1.1
		c0,0.3,0,0.4,0.1,0.5c-0.1,0.2-0.2,0.3-0.3,0.5c-0.2,0.2-0.4,0.3-0.6,0.5c-0.2,0-0.5,0-0.8,0.1c-0.1,0-0.2,0-0.3,0
		c-0.3,0-0.6,0.1-1,0.1c0,0-0.1,0-0.1,0C99.9,93.7,99.4,93.7,98.9,93.6z M105.6,134.4c-0.3-0.4-0.6-0.7-0.9-1.1l-0.4-0.5
		c-0.1-0.2-0.3-0.3-0.4-0.5c-0.5-0.7-1-1.5-1.4-2.3c-0.8-1.6-1.5-3.2-2-4.7c-1-3.2-1.4-6.2-1.2-8.6c0.1-1.2,0.4-2.3,0.8-3.2
		c0,0,0,0,0-0.1c0.8,0.9,1.8,1.8,2.7,2.6c0.3,0.3,0.7,0.5,1,0.8c-0.3,0.5-0.5,0.9-0.7,1.4c-0.6,1.4-0.9,2.9-1,4.1
		c-0.1,1.3-0.1,2.5,0.1,3.4c0.1,1,0.4,1.7,0.6,2.2c0.2,0.5,0.4,0.8,0.4,0.8s-0.2-1.2,0-3c0.2-1.8,0.7-4.3,1.7-6.8
		c0.1-0.4,0.3-0.7,0.5-1c0.6,0.4,1.2,0.8,1.7,1.2c-0.4,0.2-0.8,0.4-1.2,0.9c-0.5,0.5-1,1.3-1.3,2.3c-0.3,1-0.4,2.1-0.2,3.2
		c0.2,2,1,3.7,1.7,4.8c0,0.2,0.1,0.5,0.1,0.7c0.4,2.2,1.5,4.5,3,6.9C108,136.8,106.7,135.6,105.6,134.4z M107.9,118.8
		c0,0-0.2,0.1-0.4,0.4C107.7,119,107.9,118.8,107.9,118.8C107.9,118.8,107.9,118.8,107.9,118.8z M127.6,155c-0.5-0.7-1-1.4-1.6-2.1
		c-0.8-0.9-1.6-1.8-2.6-2.7c-0.7-0.9-1.5-1.9-2.6-2.9c-0.8-0.8-1.7-1.6-2.7-2.4c1,0.5,2,0.7,2.9,0.9l0.7,0.1
		c0.2,0.1,0.4,0.1,0.6,0.2c0.4,0.1,0.7,0.3,1,0.5c0.7,0.4,1.2,0.8,1.7,1.3c0.9,1,1.4,2,1.6,2.7c0.2,0.7,0.2,1.2,0.2,1.2
		c0,0,0.1-0.4,0.1-1.2c0-0.8-0.3-2-1.2-3.3c-0.4-0.6-0.9-1.3-1.7-1.8c-0.4-0.3-0.8-0.5-1.2-0.8c-0.2-0.1-0.5-0.2-0.7-0.3l-0.7-0.2
		c-0.9-0.3-1.8-0.6-2.6-1c-0.8-0.4-1.4-1-1.9-1.8c-0.1-0.2-0.2-0.4-0.3-0.6c-0.1-0.2-0.2-0.4-0.3-0.7c-0.2-0.4-0.4-0.9-0.5-1.4
		c-0.3-0.9-0.6-1.8-0.7-2.7c0.4,0.4,0.9,0.8,1.4,1.1c0.4,0.3,0.9,0.5,1.4,0.8c0.2,0.7,0.7,1.6,1.5,2.5c0.9,1,2.1,2.2,3.7,3.1
		c0.8,0.5,1.7,0.9,2.7,1.3c0.5,0.2,1,0.3,1.6,0.3c0.3,0,0.6,0,0.9,0c0.2,0,0.5,0,0.8-0.1c1.1-0.1,2.1-0.3,3.1-0.7
		c1-0.4,1.9-0.9,2.6-1.5c1.5-1.2,2.4-2.7,2.9-3.9c0.2-0.5,0.4-0.9,0.5-1.3c0.4-0.2,0.8-0.4,1.1-0.6c0.2-0.1,0.4-0.2,0.5-0.4
		c-0.4,1.4-0.9,2.9-1.6,4.4c-0.5,1-0.9,1.9-1.4,2.4c-0.5,0.5-1.4,0.8-2.3,1.1l-0.7,0.2c-0.2,0.1-0.5,0.2-0.7,0.3
		c-0.4,0.2-0.8,0.4-1.2,0.7c-0.8,0.5-1.4,1.1-1.8,1.7c-0.9,1.2-1.2,2.4-1.3,3.2c-0.1,0.8-0.1,1.2-0.1,1.2c0,0,0.1-0.4,0.4-1.2
		c0.3-0.7,0.8-1.8,1.7-2.6c0.5-0.4,1.1-0.9,1.8-1.2c0.3-0.2,0.7-0.3,1.1-0.4c0.2-0.1,0.4-0.1,0.6-0.2l0.7-0.2
		c0.5-0.1,0.9-0.2,1.4-0.4c0.2-0.1,0.3-0.1,0.5-0.2c0,0-0.1,0.1-0.2,0.1c-2.8,2.4-5.6,4.7-7.8,7.3C128.6,153.6,128,154.3,127.6,155z
		 M118.5,138.4c0.3,0.1,0.6,0.2,0.9,0.3c1,0.3,2.1,0.5,3.3,0.5c1.2,0,2.4-0.1,3.6-0.8c0.6-0.3,1.2-0.8,1.5-1.5
		c0.1-0.1,0.1-0.2,0.2-0.3c0.4,0.5,0.8,1,1.4,1.2c1.2,0.7,2.5,0.9,3.6,1c1.2,0.1,2.3-0.1,3.4-0.4c0.3-0.1,0.5-0.1,0.7-0.2
		c-0.1,0.1-0.1,0.2-0.2,0.4c-0.8,1.1-1.8,2.2-3.1,3.2c-1.3,0.9-3,1.5-4.9,1.7c-0.2,0-0.5,0-0.7,0.1c-0.2,0-0.4,0-0.6,0
		c-0.4,0-0.8-0.1-1.3-0.2c-0.8-0.2-1.7-0.6-2.4-0.9c-1.5-0.7-2.8-1.6-3.8-2.4C119.4,139.4,118.9,138.8,118.5,138.4z M155.6,115.5
		c0.4,2.6,0.2,5.7-0.6,9c-0.4,1.6-0.9,3.4-1.7,5c-0.4,0.9-0.8,1.7-1.2,2.5c-0.5,0.8-1,1.6-1.5,2.3l-0.2,0.3l-0.2,0.3l-0.5,0.5
		c-0.3,0.3-0.7,0.7-1,1c-0.7,0.7-1.4,1.3-2.1,2c-0.7,0.7-1.5,1.3-2.2,1.9c0.3-0.4,0.6-0.9,0.9-1.3c1.8-2.7,3.2-5.5,3.7-8
		c0-0.2,0.1-0.5,0.1-0.7c0.7-1.2,1.5-2.8,1.7-4.8c0.1-1.1,0.1-2.2-0.2-3.2c-0.3-1-0.8-1.8-1.3-2.3c-0.4-0.4-0.8-0.7-1.2-0.8
		c0.5-0.4,1.1-0.8,1.7-1.2c0.2,0.3,0.3,0.7,0.4,1c1,2.5,1.5,5,1.7,6.8c0.2,1.8,0,3,0,3s0.2-0.3,0.4-0.8c0.2-0.5,0.4-1.3,0.6-2.2
		c0.1-1,0.2-2.1,0.1-3.4c-0.1-1.3-0.4-2.7-1-4.1c-0.2-0.5-0.4-1-0.7-1.4c0.2-0.2,0.4-0.3,0.6-0.5c1.2-1,2.3-2,3.3-3.2
		C155.3,113.8,155.5,114.6,155.6,115.5z M147.2,118.8C147.2,118.8,147.2,118.8,147.2,118.8c0,0,0.2,0,0.6,0.2
		C147.4,118.8,147.2,118.8,147.2,118.8z M164.8,90.8c-0.3,0.9-0.8,1.8-1.5,2.8c-0.3,0.5-0.7,1-1.2,1.4c-0.2,0.2-0.4,0.5-0.7,0.7
		l-0.4,0.3c-0.1,0.1-0.1,0.1-0.2,0.2c-0.1,0-0.1,0.1-0.2,0.1c-0.5,0.3-1.1,0.7-1.7,1c-0.6,0.3-1.2,0.6-1.8,0.9
		c-1.1,0.6-2.1,1.3-2.8,2c0,0,0,0.1-0.1,0.1c0,0,0-0.1,0-0.1c0.2-0.7,0.2-1.6,0.1-2.6c0-0.3-0.1-0.6-0.2-0.9c0.1,0,0.2,0,0.2,0.1
		c0.2,0.1,0.4,0.1,0.6,0.1c0.2,0.1,0.4,0.1,0.6,0.1c0.3,0,0.5,0,0.7,0c0.2,0,0.4,0,0.6,0c0.9,0,1.7-0.3,2.3-0.8
		c0.6-0.5,0.9-1,1.2-1.5c0.5-1,0.7-1.8,0.9-2.3l0.3-0.8c0,0-0.2,0.2-0.5,0.7c-0.3,0.4-0.7,1.1-1.4,1.9c-0.3,0.4-0.7,0.7-1.2,1
		c-0.5,0.2-1,0.3-1.6,0.2c-0.3,0-0.7-0.1-1-0.2l-0.5-0.2c-0.2-0.1-0.4-0.1-0.5-0.2c-0.2-0.1-0.5-0.2-0.7-0.3c0.3,0,0.7-0.1,1-0.3
		c0.2-0.1,0.4-0.1,0.6-0.2c0.2-0.1,0.4-0.2,0.6-0.4c0.7-0.6,1.2-1.3,1.7-1.9c0.2-0.3,0.5-0.5,0.7-0.6l0,0c0,0,0.1,0,0.1,0l0,0
		l0.1-0.1c0.1,0,0.2-0.1,0.2-0.1c0.2-0.1,0.4-0.1,0.5-0.2c0.8-0.2,1.7-0.4,2.8-0.7c0.8-0.3,1.6-0.7,2.3-1.1
		C165.2,89.3,165.1,90,164.8,90.8z M149.8,92.2c0.7,0.6,1,1.1,1.1,1.2c0,0,0,0,0,0C150.9,93.4,150.6,92.9,149.8,92.2z M151.4,88.4
		c0.8-0.7,2.1-1.2,3.6-1.6c1.5-0.3,3.3-0.5,5.2-0.8c1.9-0.3,3.8-0.7,5.4-1.2c1.7-0.6,3.1-1.3,4.2-2.1c0.4-0.3,0.7-0.6,1-1
		c-0.2,0.3-0.5,0.6-0.7,0.9c-0.8,1-1.9,2-3.2,3c-0.7,0.5-1.4,0.9-2.1,1.4c-0.4,0.2-0.8,0.4-1.2,0.6c-0.4,0.2-0.9,0.4-1.2,0.5
		c-0.8,0.3-1.8,0.4-2.7,0.8c-0.2,0.1-0.5,0.2-0.7,0.3c-0.1,0.1-0.2,0.1-0.4,0.2l-0.2,0.1l-0.1,0.1l0,0c0,0,0,0,0,0
		c-0.5,0.3-0.9,0.8-1.1,1.2c-0.5,0.8-0.8,1.5-1.3,1.9c-0.1,0.1-0.2,0.2-0.3,0.3c-0.1,0.1-0.3,0.2-0.4,0.3c-0.3,0.2-0.5,0.3-0.8,0.3
		c-0.5,0.2-1.1,0.1-1.6,0.1c0,0,0,0,0,0c-0.3-0.3-0.6-0.6-0.9-0.8c-0.5-0.9-1-1.7-1.7-2.4C150.3,89.8,150.7,89.1,151.4,88.4z
		 M223.8,52.2c-0.2,1.6-0.6,2.9-0.9,3.8c0-0.8,0-1.8,0-3c0-0.3,0-0.6,0-1c0.2-0.2,0.4-0.3,0.5-0.5c0.1-0.2,0.1-0.4,0.1-0.4
		c0,0-0.1,0-0.3-0.2c-0.1-0.1-0.2-0.2-0.4-0.4c0-1-0.2-2.1-0.4-3.3c0,0,0.1,0,0.1,0c0.4-0.2,0.6-0.4,0.7-0.6
		c0.2-0.4,0.2-0.7,0.2-0.7c0,0-0.2,0.1-0.6,0.2c-0.2,0-0.4,0-0.5-0.1c-0.1,0-0.1-0.1-0.2-0.2c-0.2-0.7-0.4-1.5-0.7-2.3
		c0.2-0.1,0.3-0.2,0.4-0.3c0.3-0.3,0.5-0.7,0.6-1c0.1-0.6,0-0.9,0-0.9c0,0-0.2,0.3-0.5,0.6c-0.3,0.2-0.7,0.3-1.1,0.3
		c-0.4-0.9-1-1.9-1.7-2.8c-0.1-0.1-0.2-0.3-0.3-0.4c0.1-0.1,0.2-0.2,0.3-0.2c0.5-0.4,0.7-0.9,0.8-1.2c0.1-0.4,0.1-0.7,0.1-0.9
		c0-0.2,0-0.3,0-0.3c0,0-0.2,0.4-0.6,0.8c-0.4,0.3-1,0.6-1.7,0.6c-0.6-0.6-1.3-1.2-2-1.8c-0.1,0-0.1-0.1-0.2-0.1
		c0.2-0.1,0.4-0.3,0.5-0.4c0.5-0.5,0.7-1.1,0.8-1.5c0.2-0.9,0-1.4,0-1.4c0,0-0.1,0.5-0.6,1.1c-0.2,0.3-0.6,0.6-1,0.9
		c-0.4,0.2-1,0.3-1.5,0.2c-0.7-0.4-1.5-0.8-2.3-1.2c0.3-0.3,0.6-0.7,0.7-1.1c0.4-0.9,0.5-1.6,0.5-2.2c0-1.2-0.3-1.8-0.3-1.8
		c0,0,0,0.6-0.4,1.7c-0.2,0.5-0.4,1.2-0.9,1.7c-0.2,0.3-0.5,0.5-0.8,0.7c-0.3,0.2-0.6,0.3-0.9,0.3c-0.7-0.2-1.5-0.5-2.3-0.6
		c0.3-0.5,0.4-0.9,0.5-1.4c0.1-0.9-0.1-1.6-0.2-2.1c-0.3-1.1-0.7-1.6-0.7-1.6c0,0,0.1,0.6,0.1,1.6c0,0.5-0.1,1.2-0.4,1.8
		c-0.1,0.3-0.3,0.6-0.5,0.8c-0.1,0.1-0.6,0.3-1,0.5c-0.7-0.1-1.4-0.2-2.1-0.3c0.2-0.7,0.2-1.4,0.1-2c-0.1-0.9-0.5-1.6-0.8-2.1
		c-0.3-0.5-0.7-0.8-0.9-1c-0.2-0.2-0.4-0.3-0.4-0.3c0,0,0.4,0.5,0.7,1.5c0.1,0.5,0.2,1.2,0.1,1.9c-0.1,0.6-0.2,1.3-0.6,1.9
		c-0.4,0-0.8,0-1.2,0c-0.4,0-0.8,0-1.1,0c0-0.5,0.1-1,0.1-1.5c0-0.4,0-0.8-0.1-1.2c-0.1-0.4-0.2-0.7-0.4-0.9c-0.3-0.5-0.6-0.8-0.8-1
		c-0.2-0.2-0.4-0.3-0.3-0.3c0,0,0.1,0.1,0.2,0.4c0.1,0.2,0.3,0.6,0.4,1.1c0.1,0.5,0.1,1-0.1,1.7c-0.1,0.5-0.3,1.1-0.5,1.7
		c-0.8,0-1.6,0.1-2.5,0.2c0-0.6,0-1.1-0.2-1.5c-0.3-0.9-0.7-1.6-1.1-2.1c-0.8-1-1.5-1.2-1.5-1.2c0,0,0.5,0.4,1,1.5
		c0.2,0.5,0.4,1.2,0.4,1.9c0,0.6-0.1,1.1-0.3,1.6c-0.9,0.1-1.9,0.3-2.8,0.5c-0.1-0.6-0.2-1.1-0.3-1.6c-0.3-0.9-0.7-1.6-1.1-2
		c-0.8-1-1.4-1.3-1.4-1.3c0,0,0.4,0.5,0.8,1.6c0.2,0.5,0.4,1.2,0.5,2c0,0.5,0,1.1-0.1,1.7c-0.3,0.1-0.6,0.1-1,0.2
		c-0.6,0.1-1.1,0.3-1.7,0.4c-0.1-0.3-0.1-0.5-0.2-0.8c-0.2-0.6-0.6-1.1-0.9-1.6c-0.7-0.9-1.4-1.4-2-1.9c-1.2-0.9-1.9-1.2-1.9-1.2
		c0,0,0.5,0.6,1.4,1.7c0.4,0.5,1,1.2,1.4,2.1c0.3,0.6,0.6,1.4,0.6,2.2c-0.8,0.3-1.6,0.5-2.4,0.8c-0.1-0.2-0.3-0.5-0.4-0.6
		c-0.4-0.6-0.8-1-1.2-1.4c-0.8-0.7-1.6-1.2-2.2-1.6c-1.3-0.8-2-1.2-2-1.2c0,0,0.5,0.6,1.6,1.7c0.5,0.5,1.1,1.2,1.7,2
		c0.4,0.5,0.8,1.1,1,1.8c-1,0.4-2,0.8-3,1.3c-0.3-0.7-0.7-1.2-1-1.8c-0.6-0.8-1.4-1.4-2-1.7c-0.6-0.3-1.2-0.4-1.5-0.5
		c-0.4,0-0.5,0-0.5-0.1c0,0,0.2,0.1,0.5,0.2c0.3,0.2,0.8,0.4,1.2,0.8c0.5,0.4,0.9,1,1.3,1.8c0.2,0.5,0.5,1.2,0.6,1.8
		c-0.2,0.1-0.5,0.3-0.8,0.4c-0.7,0.4-1.3,0.7-2,1.1c-0.3-0.5-0.6-0.9-1-1.2c-0.8-0.7-1.6-1-2.2-1.2c-0.7-0.1-1.2-0.2-1.5-0.2
		c-0.3,0-0.5,0-0.5,0c0,0,0.2,0,0.5,0.1c0.3,0.1,0.8,0.3,1.3,0.6c0.5,0.3,1.1,0.7,1.5,1.4c0.2,0.4,0.4,0.8,0.6,1.3
		c-0.9,0.5-1.7,1.1-2.5,1.7c0,0,0,0-0.1,0c-0.4-0.4-0.8-0.7-1.2-1c-0.8-0.5-1.5-0.8-2.1-1c-1.2-0.3-1.9-0.3-1.9-0.3
		c0,0,0.6,0.3,1.6,0.9c0.5,0.3,1,0.7,1.6,1.3c0.3,0.3,0.5,0.6,0.8,1c-1,0.8-1.9,1.6-2.7,2.5c-0.5-0.5-0.9-0.8-1.4-1.1
		c-0.9-0.6-1.8-0.9-2.5-1.2c-1.4-0.5-2.2-0.6-2.2-0.6c0,0,0.7,0.4,1.9,1.2c0.6,0.4,1.3,0.9,2,1.6c0.4,0.4,0.8,0.8,1.1,1.3
		c-0.8,0.8-1.5,1.6-2.2,2.5c-0.4-0.6-0.8-1.2-1.2-1.6c-0.8-0.8-1.8-1.3-2.5-1.6c-0.7-0.3-1.4-0.4-1.8-0.5c-0.4-0.1-0.6-0.1-0.6-0.1
		l0.6,0.2c0.4,0.2,0.9,0.4,1.5,0.9c0.6,0.4,1.3,1,1.9,1.8c0.4,0.6,0.8,1.4,1,2.3c-0.6,0.8-1.2,1.5-1.8,2.3c0,0-0.1-0.1-0.1-0.1
		c-0.5-0.6-1-1.2-1.6-1.6c-1.1-0.8-2.2-1.3-3.1-1.5c-0.9-0.2-1.7-0.1-2.1,0c-0.5,0.1-0.7,0.2-0.7,0.2c0,0,0.2,0,0.7,0
		c0.4,0,1.1,0.1,1.9,0.4c0.8,0.3,1.7,0.9,2.5,1.7c0.4,0.4,0.8,0.9,1.1,1.5c0.1,0.3,0.2,0.5,0.3,0.8c-0.5,0.7-0.9,1.3-1.3,2
		c-0.2,0.3-0.3,0.5-0.5,0.8c0,0-0.1-0.1-0.1-0.2c-0.5-0.6-1.1-1-1.6-1.4c-1.1-0.7-2.1-1-2.9-1.2c-1.7-0.4-2.6-0.4-2.6-0.5
		c0,0,0.9,0.3,2.3,1.1c0.7,0.4,1.6,0.9,2.4,1.6c0.4,0.4,0.8,0.8,1.1,1.3c0.2,0.3,0.3,0.7,0.4,1c-0.7,1.1-1.3,2.3-1.9,3.4
		c-0.1-0.1-0.1-0.2-0.2-0.3c-0.5-0.7-1-1.2-1.6-1.6c-1.1-0.8-2.2-1.1-3.1-1.3c-1.8-0.4-2.8-0.2-2.8-0.2c0,0,1,0.1,2.6,0.8
		c0.8,0.3,1.7,0.9,2.6,1.7c0.8,0.8,1.6,1.9,1.4,3.2h0.1c-0.4,0.9-0.8,1.8-1.2,2.7c-0.3-0.4-0.6-0.8-0.9-1.1c-0.6-0.6-1.3-1-2-1.4
		c-1.3-0.7-2.5-1.1-3.5-1.4c-2-0.5-3.1-0.6-3.1-0.6c0,0,1,0.3,2.8,1.2c0.9,0.4,1.9,1,3,1.8c0.5,0.4,1.1,0.9,1.5,1.4
		c0.3,0.4,0.9,1.6,1.2,2.5c-0.3,0.9-0.6,1.7-0.8,2.6c-0.1-0.2-0.2-0.3-0.3-0.5c-0.6-0.8-1.3-1.3-2-1.7c-1.4-0.8-2.7-1.2-3.8-1.4
		c-1.1-0.2-1.9-0.2-2.5-0.1c-0.6,0.1-0.8,0.2-0.8,0.2c0,0,0.3-0.1,0.8,0c0.5,0,1.3,0.1,2.3,0.5c1,0.4,2.1,0.9,3.2,1.8
		c0.5,0.4,1.1,1,1.4,1.6c0.4,0.6,0.8,2.9,0.7,3.6l0-0.2c-0.1,0.7-0.3,1.4-0.3,2.2c-0.9-1.2-1.9-2.1-2.9-2.7
		c-1.4-0.9-2.8-1.4-3.9-1.7c-1.1-0.3-2-0.3-2.7-0.3c-0.6,0-0.9,0-0.9,0s0.3,0,0.9,0.2c0.6,0.1,1.4,0.3,2.4,0.8c1,0.4,2.2,1,3.4,2.1
		c1.1,0.9,2.6,3,3.5,4.7c0,0.9,0,1.8,0,2.7c0,0.1,0,0.1,0,0.1c-0.1-0.1-0.2-0.2-0.2-0.3c-0.9-1-1.9-1.7-2.8-2.3
		c-2-1.1-3.9-1.5-5.4-1.7c-1.5-0.1-2.7,0.1-3.5,0.3c-0.8,0.2-1.1,0.4-1.2,0.4c0,0,0.4-0.1,1.2-0.2c0.8-0.1,1.9-0.2,3.4,0.1
		c1.4,0.3,3.1,0.9,4.8,2c0.8,0.6,1.6,1.3,2.3,2.2c0.6,0.8,1.8,3.1,2.3,4.6c0.1,0.2,0.1,0.4,0.2,0.6c0.1,0.2,0.2,0.5,0.2,0.7
		c-0.6-0.5-1.2-0.9-1.7-1.2c-1.9-1.1-3.6-1.6-5-2c-1.4-0.4-2.5-0.6-3.3-0.7c-0.8-0.1-1.2-0.2-1.2-0.2l1.1,0.4
		c0.7,0.2,1.8,0.6,3.1,1.2c1,0.4,2.1,0.9,3.3,1.7c-0.4-0.1-0.8-0.1-1.3-0.1c-1.3,0-2.5,0.3-3.6,0.8c-1,0.5-1.8,1.1-2.3,1.7
		c-0.5,0.6-0.8,1.2-1,1.6c-0.2,0.4-0.2,0.7-0.2,0.6c0,0,0.6-0.8,1.8-1.6c1.2-0.8,3.1-1.4,5.2-1.4c2,0,3.8,0.6,5,1.4
		c0.1,0.1,0.1,0.2,0.2,0.3c-1-0.1-2.1,0-3.1,0.4c-0.7,0.3-1.4,0.6-2,1c-0.2,0.1-0.3,0.2-0.5,0.3l-0.4,0.3c-0.2,0.2-0.5,0.3-0.8,0.5
		c-1.1,0.6-2.4,1.1-3.7,1.7c-1.2,0.6-2.4,1.2-3.5,1.9c-2.1,1.4-3.7,3.2-4.7,4.8c-1,1.6-1.5,3.1-1.8,4.1c-0.3,1-0.4,1.6-0.4,1.6
		s0.2-0.5,0.7-1.5c0.5-0.9,1.2-2.2,2.3-3.6c1.1-1.4,2.7-2.8,4.8-4c1-0.6,2.2-1.1,3.4-1.6c1.2-0.5,2.5-1,3.8-1.7
		c0.3-0.2,0.7-0.4,1-0.6l0.4-0.3c0.1-0.1,0.2-0.2,0.4-0.3c0.5-0.4,1-0.7,1.6-0.9c1.1-0.4,2.2-0.6,3.2-0.3c0.1,0,0.2,0.1,0.3,0.1
		c0.2,0.1,0.5,0.2,0.7,0.3c0.5,0.3,1,0.7,1.4,1.1l0.7,1.1c0.3,0.5,0.4,1,0.6,1.5c0.4,1.5,0.2,2.9,0,3.9c0,0,0,0,0,0.1
		c0,0.1,0,0.1,0,0.2c-0.1,0.3-0.2,0.5-0.2,0.7c-0.4-0.2-0.6-0.3-0.6-0.3c0,0,0.2,0.2,0.6,0.6c0,0,0,0.1,0.1,0.1
		c0.1,0.1,0.2,0.2,0.3,0.3c0.3,0.3,0.6,0.7,1,1.1c0.3,0.5,0.7,1,0.9,1.6c0.2,0.6,0.3,1.3,0.1,2c-0.2,0.7-0.5,1.4-1.1,2.1
		c0,0,0,0.1-0.1,0.1c-0.1,0.1-0.2,0.3-0.4,0.4c-1,1.2-2.4,2.4-3.9,3.6c-0.2,0.1-0.3,0.3-0.5,0.4c-0.4,0.4-0.8,0.7-1.2,1
		c-1.1,0.9-2.1,1.8-3.1,2.7c-1.5,1.4-2.7,2.7-3.6,4c-0.9,1.3-1.3,2.5-1.4,3.4c-0.1,0.9,0.1,1.3,0.1,1.3c0,0,0-0.5,0.3-1.2
		c0.3-0.8,0.9-1.7,2-2.7c1-1,2.4-2,4-3.2c0.3-0.3,0.7-0.5,1-0.7c0.2,0.3,0.5,0.6,0.7,1.1c0.3,0.6,0.4,1.3,0.5,2.1
		c0.1,0.8,0,1.7-0.1,2.6c-0.1,0.5-0.1,1.1-0.2,1.6c-0.3-0.6-0.7-1.2-1-1.5c-0.5-0.5-1-0.8-1.3-1c-0.3-0.2-0.5-0.2-0.5-0.2
		s0.2,0.1,0.4,0.3c0.3,0.2,0.7,0.6,1.1,1.1c0.4,0.5,0.8,1.3,0.9,2.2c0,0.2,0.1,0.5,0.1,0.7c-0.1,0.7-0.3,1.3-0.4,1.9
		c-0.2,0.8-0.3,1.4-0.4,1.8c-0.8,1.9-2.1,4-3.7,6.1c-1,1.3-2,2.6-3.2,3.9c-0.4,0.4-0.8,0.8-1.2,1.3c0.2-0.4,0.4-0.8,0.6-1.2
		c0.1-0.2,0.2-0.5,0.3-0.8c0.1-0.3,0.2-0.5,0.3-0.8c0.2-0.5,0.4-1,0.5-1.5c0.3-1,0.5-2,0.6-3c0-0.4,0.1-0.8,0.1-1.2
		c0.2-0.4,0.4-0.8,0.6-1.1c0.2-0.4,0.3-0.9,0.4-1.3c0.5-1.7,0.5-3.3,0.6-4.7c0.1-1.4,0.2-2.5,0.6-3.5c0.3-0.9,0.8-1.7,1.3-2.2
		c0.5-0.5,1-0.9,1.3-1.1c0.3-0.2,0.5-0.3,0.5-0.3s-0.2,0.1-0.6,0.2c-0.4,0.2-0.9,0.4-1.6,0.9c-0.6,0.5-1.4,1.3-1.9,2.3
		c-0.5,1.1-0.8,2.4-1.1,3.8c-0.2,0.9-0.3,1.7-0.5,2.6c-0.2-0.6-0.4-1-0.6-1.5c-0.3-0.5-0.6-0.9-1-1.2c-0.7-0.5-1.1-0.6-1.1-0.6
		c0,0,0.4,0.2,0.9,0.8c0.5,0.6,0.9,1.6,0.9,3c0,0.6,0,1.2,0,1.9c-0.1,0.1-0.1,0.2-0.2,0.4c-0.1,0.3-0.4,0.6-0.6,0.9
		c-0.5,0.6-1.1,1-1.9,1.4c-1.5,0.8-3.3,1.2-5.2,1.2c-0.9,0-1.8-0.2-2.5-0.7c-0.5-0.3-0.9-0.8-1.1-1.3c1.7-1.9,4.7-3.6,4.7-6.5
		c-0.1-0.8-0.4-1.3-0.7-1.7c-0.3-0.4-0.7-0.6-0.9-0.8c-0.5-0.3-0.9-0.4-0.9-0.4c0,0,0.2,0.3,0.6,0.8c0.2,0.3,0.4,0.6,0.5,1
		c0.1,0.4,0.2,0.8,0,1.1c-0.1-0.1-0.1-0.1-0.2-0.2c-0.3-0.2-0.6-0.3-1.1-0.2c-0.4,0-0.9,0.3-1.2,0.6c-0.3,0.4-0.5,0.8-0.5,1.2
		c0,0.4,0,0.7,0.1,1c0.1,0.2,0.2,0.4,0.3,0.5c-0.4,0.4-0.9,0.8-1.4,1.3c-0.3,0.3-0.6,0.7-0.9,1.1c0,0-0.1-0.1-0.1-0.1
		c-0.4-0.4-0.8-0.8-1.1-1c-0.3-0.3-0.6-0.5-0.9-0.7c0-0.1,0.1-0.2,0.1-0.4c0.1-0.5,0.1-1.3-0.4-2.1c-0.3-0.4-0.7-0.7-1.1-0.8
		c-0.5-0.2-1-0.1-1.3,0.1c-0.1,0.1-0.2,0.1-0.3,0.2c0-0.1,0-0.1,0-0.2c0-0.4,0.2-0.9,0.4-1.3c0.2-0.4,0.4-0.7,0.5-1l0.5-0.8
		c0,0-0.3,0.2-0.9,0.6c-0.3,0.2-0.6,0.5-1,0.8c-0.3,0.4-0.7,0.9-1,1.6c-0.1,0.4-0.2,0.8-0.1,1.2c0.1,0.4,0.2,0.9,0.5,1.3
		c0.5,0.8,1.1,1.4,1.8,1.9c0.7,0.5,1.4,1,2,1.4c0.6,0.4,1.1,0.8,1.4,1.2c-0.2,0.7-0.6,1.1-1.2,1.4c-0.8,0.3-1.7,0.4-2.7,0.4
		c-1.9-0.2-3.8-0.8-5.2-1.7c-0.7-0.5-1.4-1-1.8-1.6c-0.1-0.1-0.2-0.3-0.3-0.4c-0.1-0.1-0.2-0.3-0.3-0.5c-0.1-0.3-0.3-0.6-0.4-0.9
		c0-0.2,0-0.3,0-0.4c0-1.4,0.3-2.5,0.6-3.2c0.3-0.7,0.6-1.1,0.6-1.1c0,0-0.4,0.3-0.8,0.9c-0.3,0.4-0.7,1.1-0.9,1.9
		c-0.2-0.9-0.4-1.8-0.6-2.7c-0.3-1.4-0.7-2.7-1.3-3.7c-0.6-1-1.3-1.7-1.9-2.2c-0.6-0.4-1.2-0.7-1.5-0.9c-0.4-0.2-0.6-0.2-0.6-0.2
		c0,0,0.2,0.1,0.5,0.4c0.3,0.2,0.8,0.6,1.4,1.2c0.5,0.6,1.1,1.3,1.4,2.3c0.4,1,0.5,2.2,0.7,3.6c0.2,1.4,0.3,3,0.9,4.7
		c0.1,0.4,0.3,0.9,0.5,1.3c0,0,0,0,0,0.1c0,0.8,0,1.6,0.1,2.4c0.1,1,0.3,2,0.6,3c0.1,0.5,0.3,1,0.5,1.5c0.1,0.3,0.2,0.5,0.3,0.8
		c0.1,0.2,0.3,0.5,0.4,0.8c0.1,0.2,0.2,0.4,0.3,0.5c-0.2-0.2-0.4-0.3-0.7-0.5c-0.2-0.2-0.4-0.4-0.6-0.7c-1.2-1.3-2.2-2.6-3.2-3.9
		c-1.6-2.1-2.9-4.1-3.7-6.1c-0.1-0.4-0.2-1-0.4-1.8c-0.1-0.5-0.3-1.2-0.4-1.9c0-0.2,0-0.5,0.1-0.7c0.1-0.9,0.5-1.6,0.9-2.2
		c0.4-0.5,0.8-0.9,1.1-1.1c0.3-0.2,0.5-0.3,0.5-0.3s-0.2,0.1-0.5,0.2c-0.3,0.2-0.8,0.5-1.3,1c-0.4,0.4-0.8,0.9-1,1.5
		c-0.1-0.5-0.2-1.1-0.2-1.6c-0.1-0.9-0.2-1.8-0.1-2.6c0.1-0.8,0.2-1.5,0.5-2.1c0.2-0.5,0.5-0.9,0.8-1.2c0.2,0.1,0.3,0.2,0.5,0.3
		c1.5,1.1,2.9,2.1,3.9,3c1,0.9,1.7,1.8,2,2.5c0.3,0.7,0.3,1.2,0.3,1.2c0,0,0.2-0.4,0.1-1.3c-0.1-0.9-0.6-2.1-1.5-3.3
		c-0.9-1.2-2.1-2.5-3.6-3.8c-0.8-0.7-1.7-1.5-2.6-2.2c-0.4-0.3-0.8-0.7-1.3-1c-0.3-0.2-0.6-0.5-0.9-0.7c-1.1-0.9-2.1-1.8-3-2.7
		c-0.1-0.1-0.2-0.2-0.3-0.3c-0.3-0.4-0.6-0.7-0.9-1.1c-0.5-0.7-0.8-1.4-0.9-2c-0.1-0.7,0-1.3,0.2-1.9c0.2-0.6,0.6-1.1,0.9-1.6
		c0.3-0.5,0.7-0.8,0.9-1.1c0.1-0.1,0.2-0.2,0.2-0.2c0,0,0.1-0.1,0.1-0.1c0.4-0.4,0.6-0.6,0.6-0.6c0,0-0.2,0.1-0.6,0.3
		c-0.1-0.2-0.1-0.4-0.2-0.7c-0.2-1-0.5-2.4-0.1-4.1c0.2-0.8,0.5-1.7,1.1-2.4c0.4-0.6,1-1.1,1.6-1.4c0.2-0.1,0.4-0.2,0.6-0.3
		c0,0,0.1,0,0.1,0c1-0.3,2-0.3,3.1,0.1c0.5,0.2,1.1,0.4,1.6,0.8c0.3,0.2,0.5,0.3,0.8,0.5l0.4,0.3c0.2,0.1,0.3,0.2,0.5,0.3
		c1.3,0.8,2.5,1.4,3.6,1.9c1.2,0.6,2.2,1.1,3.2,1.7c2,1.2,3.5,2.6,4.6,3.9c1.1,1.4,1.7,2.7,2,3.6c0.4,0.9,0.5,1.5,0.5,1.5
		c0,0,0-0.6-0.2-1.6c-0.2-1-0.6-2.5-1.5-4.1c-0.5-0.8-1.1-1.6-1.8-2.5c-0.7-0.8-1.6-1.6-2.6-2.3c-1-0.7-2.1-1.4-3.3-2
		c-1.1-0.6-2.4-1.2-3.4-1.9c-0.1-0.1-0.3-0.2-0.4-0.2l-0.4-0.3c-0.3-0.2-0.6-0.4-0.9-0.6c-0.6-0.4-1.3-0.7-2-0.9
		c-0.9-0.3-1.8-0.4-2.7-0.2c0.6-0.8,1.2-1.5,1.9-2.1c0.2,0,0.5,0,0.7,0c0.7,0.1,1.5,0.3,2.4,0.6c1.7,0.6,3.2,1.4,4.3,2.1
		c1.1,0.6,1.7,1.2,1.7,1.2c0,0-0.3-0.8-1.1-1.9c-0.8-1-2.3-2.4-4.3-3.1c-0.5-0.2-1-0.3-1.5-0.4c1.1-0.6,2.1-1.1,3-1.5
		c1.3-0.5,2.4-0.9,3.1-1.2l1.1-0.4c0,0-0.4,0.1-1.1,0.2c-0.7,0.1-1.8,0.3-3.2,0.7c-1.4,0.4-3.1,1-5,2c-0.2,0.1-0.5,0.3-0.7,0.4
		c-0.5,0.2-0.9,0.5-1.2,0.8c0,0-0.1,0.1-0.1,0.2c0,0,0-0.1,0-0.1l0-0.1c0.4-1.3,2.3-5,2.9-5.8c0.7-0.9,1.5-1.6,2.3-2.2
		c1.7-1.2,3.4-1.8,4.8-2.1c1.4-0.3,2.6-0.2,3.4-0.1c0.8,0.1,1.2,0.2,1.2,0.2s-0.4-0.2-1.1-0.4c-0.8-0.2-1.9-0.4-3.5-0.3
		c-1.5,0.1-3.4,0.5-5.4,1.6c-1,0.6-2,1.3-2.9,2.2c-0.2,0.2-0.4,0.5-0.6,0.7c0.1-0.8,0.1-1.7,0.1-2.6c0.9-1.7,2.5-4.2,3.6-5.2
		c1.1-1,2.3-1.6,3.4-2.1c1-0.4,1.9-0.6,2.5-0.8c0.6-0.1,0.9-0.2,0.9-0.2s-0.3,0-0.9,0c-0.6,0-1.5,0.1-2.6,0.3
		c-1.1,0.3-2.5,0.7-3.9,1.7c-1.1,0.7-2.1,1.7-3.1,2.9c-0.1-0.5-0.1-1.1-0.2-1.6c-0.1-0.7,0.3-3.4,0.7-4.1c0.4-0.6,0.9-1.2,1.4-1.6
		c1.1-0.9,2.2-1.5,3.2-1.8c1-0.3,1.8-0.5,2.3-0.5c0.6-0.1,0.9,0,0.9,0c0,0-0.3-0.1-0.8-0.2c-0.6-0.1-1.4-0.1-2.5,0.1
		c-1.1,0.2-2.4,0.6-3.8,1.4c-0.7,0.4-1.4,1-2,1.7c-0.1,0.2-0.3,0.4-0.4,0.6c-0.2-0.8-0.5-1.6-0.7-2.4c0.2-0.9,0.7-2.3,1.1-2.7
		c0.5-0.6,1-1,1.5-1.4c1.1-0.8,2.1-1.4,3-1.8c1.8-0.8,2.9-1.2,2.8-1.2c0,0-1.1,0.1-3,0.6c-1,0.3-2.1,0.6-3.5,1.3
		c-0.7,0.4-1.3,0.8-2,1.4c-0.3,0.3-0.7,0.7-1,1.1c-0.4-0.9-0.7-1.8-1.1-2.7h0c-0.1-1.2,0.6-2.4,1.4-3.2c0.8-0.8,1.8-1.3,2.6-1.7
		c1.6-0.7,2.6-0.8,2.6-0.8c0,0-1-0.2-2.8,0.2c-0.9,0.2-2,0.6-3.1,1.3c-0.6,0.4-1.2,0.9-1.6,1.6c-0.1,0.1-0.1,0.2-0.2,0.3
		c-0.6-1.1-1.2-2.3-1.9-3.4c0.2-0.9,0.8-1.6,1.4-2.2c0.8-0.7,1.7-1.2,2.4-1.6c1.5-0.7,2.4-1.1,2.4-1.1c0,0-0.9,0-2.6,0.5
		c-0.8,0.2-1.8,0.5-2.9,1.2c-0.5,0.3-1.1,0.8-1.6,1.4c0,0-0.1,0.1-0.1,0.2c0,0,0,0,0,0c-0.6-0.9-1.2-1.8-1.8-2.8
		c0.1-0.2,0.2-0.5,0.3-0.7c0.3-0.5,0.7-1,1.1-1.5c0.8-0.9,1.7-1.4,2.5-1.8c0.8-0.3,1.5-0.4,1.9-0.4c0.5,0,0.7,0,0.7,0
		c0,0-0.2-0.1-0.7-0.2c-0.5-0.1-1.2-0.2-2.1,0c-0.9,0.2-2,0.6-3.1,1.4c-0.6,0.4-1.1,0.9-1.6,1.6c0,0-0.1,0.1-0.1,0.1
		c-0.5-0.7-1-1.4-1.6-2c0.2-0.9,0.5-1.7,0.9-2.4c0.5-0.8,1.1-1.4,1.7-1.9c0.6-0.4,1.1-0.7,1.5-0.9l0.6-0.3c0,0-0.2,0-0.6,0
		c-0.4,0.1-1,0.1-1.8,0.4c-0.8,0.3-1.7,0.7-2.6,1.5c-0.5,0.4-0.9,0.9-1.3,1.6c-0.5-0.6-1.1-1.2-1.6-1.8c-0.1-0.1-0.3-0.3-0.4-0.4
		c0.3-0.5,0.7-0.9,1-1.3c0.7-0.7,1.4-1.2,2-1.6c1.2-0.8,1.9-1.2,1.9-1.2c0,0-0.8,0.1-2.1,0.6c-0.7,0.2-1.5,0.6-2.5,1.2
		c-0.5,0.3-0.9,0.7-1.4,1.1c-0.9-0.9-1.8-1.7-2.7-2.5c0.2-0.3,0.5-0.7,0.7-0.9c0.5-0.6,1.1-1,1.6-1.3c1-0.7,1.6-0.9,1.6-0.9
		c0,0-0.7,0-1.9,0.3c-0.6,0.2-1.3,0.4-2.1,1c-0.4,0.2-0.8,0.6-1.2,0.9c-0.8-0.6-1.7-1.2-2.6-1.8c0.1-0.4,0.3-0.8,0.5-1.2
		c0.4-0.6,1-1.1,1.5-1.4c0.5-0.3,1-0.5,1.3-0.6c0.3-0.1,0.5-0.2,0.5-0.2c0,0-0.2,0-0.5,0c-0.3,0-0.8,0-1.5,0.2
		c-0.6,0.2-1.4,0.5-2.2,1.2c-0.4,0.3-0.7,0.7-1,1.2c-0.5-0.3-0.9-0.5-1.4-0.8c-0.4-0.2-0.9-0.5-1.4-0.7c0.2-0.7,0.4-1.3,0.6-1.8
		c0.4-0.8,0.8-1.4,1.3-1.8c0.5-0.4,0.9-0.7,1.2-0.8c0.3-0.2,0.5-0.2,0.5-0.2s-0.2,0-0.5,0c-0.3,0.1-0.9,0.2-1.5,0.5
		c-0.6,0.3-1.4,0.9-2,1.7c-0.4,0.5-0.7,1.1-1.1,1.8c-1-0.5-2-0.9-3-1.3c0.2-0.6,0.6-1.2,0.9-1.7c0.6-0.8,1.2-1.4,1.7-2
		c1-1,1.6-1.7,1.6-1.7c0,0-0.7,0.4-1.9,1.2c-0.6,0.4-1.4,0.9-2.2,1.6c-0.4,0.4-0.8,0.8-1.2,1.4c-0.1,0.2-0.3,0.4-0.4,0.6
		c-0.8-0.3-1.6-0.6-2.4-0.8c0-0.8,0.3-1.5,0.6-2.1c0.4-0.8,0.9-1.5,1.4-2.1c0.9-1.1,1.5-1.7,1.5-1.7c0,0-0.7,0.4-1.9,1.2
		c-0.6,0.4-1.3,1-2,1.8c-0.3,0.4-0.7,0.9-0.9,1.6c-0.1,0.2-0.2,0.5-0.3,0.8c-0.4-0.1-0.8-0.2-1.2-0.3c-0.5-0.1-1-0.2-1.5-0.4
		c-0.1-0.6-0.2-1.1-0.1-1.6c0.1-0.8,0.3-1.4,0.5-2c0.4-1.1,0.9-1.6,0.8-1.6c0,0-0.6,0.3-1.4,1.3c-0.4,0.5-0.8,1.1-1.1,2
		c-0.2,0.5-0.3,1-0.3,1.6c-1-0.2-1.9-0.3-2.8-0.5c-0.1-0.1-0.2-0.3-0.2-0.4c-0.1-0.3-0.1-0.7-0.1-1.1c0-0.7,0.2-1.4,0.4-1.9
		c0.4-1.1,1-1.5,1-1.5c0,0-0.2,0.1-0.4,0.2c-0.3,0.2-0.7,0.5-1.1,0.9c-0.4,0.5-0.8,1.1-1.1,2.1c-0.1,0.4-0.2,1-0.2,1.6
		c-0.8-0.1-1.6-0.1-2.5-0.2c-0.2-0.7-0.4-1.2-0.5-1.7c-0.2-0.7-0.2-1.2-0.1-1.7c0.1-0.5,0.3-0.9,0.4-1.1c0.1-0.3,0.2-0.4,0.2-0.4
		s-0.1,0.1-0.4,0.3c-0.2,0.2-0.5,0.5-0.8,1C56.2,28,56,28.8,56,29.6c0,0.5,0,1,0.1,1.6c-0.2,0-0.5,0-0.7,0c-0.6,0-1.1,0-1.7,0.1
		c-0.4-0.6-0.5-1.2-0.6-1.9c-0.1-0.7,0-1.3,0.1-1.9c0.3-1,0.7-1.6,0.7-1.6c0,0-0.1,0.1-0.4,0.3c-0.2,0.2-0.6,0.5-0.9,1
		c-0.3,0.5-0.6,1.2-0.8,2.1c-0.1,0.6-0.1,1.3,0.1,2.1c-0.7,0.1-1.3,0.2-2,0.3c-0.4-0.1-0.9-0.4-1.1-0.5c-0.2-0.2-0.4-0.4-0.5-0.7
		c-0.3-0.6-0.3-1.3-0.4-1.8c-0.1-1,0.1-1.7,0.1-1.7c0,0-0.4,0.5-0.7,1.6c-0.2,0.5-0.3,1.2-0.2,2.1c0.1,0.4,0.2,0.9,0.5,1.4
		c-0.8,0.2-1.5,0.4-2.2,0.6c-0.7-0.1-1.3-0.4-1.7-1c-0.4-0.5-0.7-1.2-0.9-1.7c-0.3-1.1-0.4-1.7-0.4-1.7c0,0-0.2,0.6-0.3,1.8
		c0,0.6,0.1,1.4,0.4,2.2c0.2,0.4,0.4,0.8,0.8,1.1c-0.8,0.4-1.6,0.8-2.3,1.2c0,0,0,0,0,0c-0.5,0-1.1-0.2-1.4-0.3
		c-0.4-0.2-0.8-0.5-1-0.9c-0.5-0.6-0.6-1.1-0.6-1.1c0,0-0.2,0.4,0,1.4c0.1,0.4,0.3,1,0.8,1.5c0.2,0.2,0.4,0.3,0.6,0.5
		c-0.8,0.6-1.5,1.2-2.1,1.9c-0.3,0-0.6,0-0.9-0.1c-0.4-0.1-0.7-0.3-0.9-0.5c-0.5-0.4-0.6-0.8-0.6-0.8c0,0,0,0.1,0,0.3
		c0,0.2,0,0.5,0.1,0.8c0.1,0.4,0.4,0.8,0.8,1.2c0.1,0.1,0.3,0.2,0.4,0.3c-0.1,0.1-0.1,0.2-0.2,0.3c-0.7,1-1.3,2-1.8,2.9
		c-0.4,0-0.8-0.1-1.1-0.3c-0.4-0.3-0.5-0.6-0.5-0.6c0,0-0.1,0.3,0,0.9c0.1,0.3,0.2,0.7,0.6,1c0.1,0.2,0.3,0.3,0.5,0.4
		c-0.3,0.7-0.5,1.4-0.7,2c-0.1,0.1-0.2,0.3-0.3,0.3c-0.1,0.1-0.3,0.1-0.5,0.1c-0.4,0-0.6-0.2-0.6-0.2c0,0,0,0.2,0.2,0.7
		c0.1,0.2,0.3,0.5,0.7,0.6c0.1,0,0.1,0,0.2,0.1c-0.2,1.1-0.3,2.2-0.4,3.2c-0.2,0.1-0.3,0.3-0.4,0.5c-0.2,0.2-0.3,0.2-0.3,0.2
		c0,0,0,0.2,0.1,0.4c0.1,0.2,0.3,0.4,0.6,0.6c0,0.3,0,0.6,0,0.9c0,1.2,0,2.3,0,3.1c-0.3-0.9-0.7-2.2-0.9-3.8c-0.2-1.9-0.3-4.3,0-7.1
		c0.4-2.7,1.2-5.8,2.8-8.8c1.6-3,4-6,7.2-8.3c3.2-2.3,7.4-3.8,11.8-4.3c4.5-0.5,9.3,0,14,1.2c4.8,1.2,9.6,3.1,14.3,5.4
		c2.4,1.2,4.7,2.4,6.9,3.8c2.2,1.3,4.2,2.8,6.2,4.3c3.9,3.1,7.3,6.5,10.4,9.9c6.1,6.9,10.7,13.9,13.9,20.1c1.6,3.1,2.8,6,3.8,8.6
		c0.6,1.7,1,3.2,1.4,4.6c0.1,0.4,0.2,0.8,0.3,1.1c0.1,0.4,0.2,0.7,0.2,1.1c0.4,1.9,0.5,3.4,0.5,4.5c0,1,0,1.6,0,1.6s0.1-0.5,0.1-1.6
		c0-1,0-2.6-0.3-4.5c0-0.4-0.1-0.8-0.2-1.2c0.8-0.2,1.7-0.4,2.7-0.4c0.6,0,1.3,0,1.9,0.1c-0.1,0.5-0.2,1-0.2,1.5
		c-0.3,2-0.3,3.5-0.3,4.6c0,1,0.1,1.6,0.1,1.6s0-0.5,0-1.6c0.1-1,0.2-2.6,0.6-4.5c0.1-0.5,0.2-0.9,0.3-1.4c0.1-0.4,0.2-0.8,0.3-1.2
		c0.4-1.3,0.8-2.7,1.4-4.2c1-2.6,2.3-5.5,3.9-8.6c3.3-6.2,8.1-13.1,14.3-19.9c3.1-3.4,6.6-6.8,10.5-9.9c2-1.5,4-3,6.2-4.3
		c2.2-1.3,4.5-2.6,6.9-3.8c4.7-2.4,9.6-4.3,14.4-5.5c4.8-1.2,9.6-1.7,14.1-1.2c4.5,0.5,8.6,2,11.9,4.3c3.3,2.3,5.7,5.3,7.3,8.3
		c1.6,3.1,2.5,6.1,2.8,8.8C224.1,47.9,224.1,50.3,223.8,52.2z M130.9,130.1c0.1-0.2,0.3-0.3,0.4-0.5c0.1-0.1,0.2-0.2,0.3-0.4
		c0.1-0.1,0.2-0.2,0.4-0.3C131.7,129.3,131.3,129.7,130.9,130.1z M123.6,130.4c-0.3-0.3-0.6-0.5-0.8-0.8c-0.1-0.1-0.2-0.3-0.2-0.4
		c0.1,0,0.2,0.1,0.3,0.1c0.2,0.1,0.3,0.2,0.3,0.4c0.1,0.2,0.2,0.3,0.3,0.6C123.6,130.3,123.6,130.3,123.6,130.4z"/>
	<radialGradient id="SVGID_2_" cx="141.3324" cy="124.3574" r="107.7678" gradientUnits="userSpaceOnUse">
		<stop  offset="0.2" style="stop-color:#FFFFFF"/>
		<stop  offset="0.7" style="stop-color:#FFFFFF;stop-opacity:0.6"/>
		<stop  offset="1" style="stop-color:#FFFFFF"/>
	</radialGradient>
	<path class="st2" d="M188.8,202c-0.2-1.1-0.5-2.3-1.2-3.4c-0.7-1.2-1.8-2.3-3.2-3.2c-1.4-0.9-3-1.5-4.7-1.9
		c-1.7-0.5-3.5-0.8-5.4-1.2c-1.8-0.3-3.7-0.7-5.6-1.3c-0.9-0.3-1.8-0.6-2.6-1c-0.4-0.2-0.8-0.4-1.2-0.7c-0.4-0.2-0.7-0.5-1.1-0.8
		c-1.4-1.2-2.7-2.4-3.9-3.6c-1.2-1.2-2.4-2.4-3.6-3.4c-1.2-1-2.5-1.9-3.7-2.4c-1.2-0.6-2.4-0.9-3.5-1c-1.1-0.1-2-0.2-2.7-0.1
		c-1.5,0.1-2.3,0.2-2.3,0.2c0,0,0.8,0,2.3,0.1c1.4,0.1,3.6,0.4,5.8,1.7c1.1,0.6,2.2,1.5,3.3,2.5c1.1,1,2.1,2.3,3.3,3.6
		c1.2,1.3,2.4,2.7,3.9,3.9c0.4,0.3,0.8,0.7,1.2,1c0.4,0.3,0.9,0.6,1.3,0.8c0.9,0.5,1.9,0.9,2.9,1.2c2,0.6,4,1,5.8,1.3
		c1.9,0.3,3.7,0.6,5.3,0.9c1.6,0.4,3.2,0.8,4.5,1.5c1.3,0.7,2.3,1.6,3.1,2.6c0.7,1,1.2,2.1,1.5,3c0.3,1,0.4,1.9,0.5,2.6
		c0.1,1.5,0.1,2.3,0.1,2.3c0,0,0.1-0.8,0.2-2.3C189,204,189,203.1,188.8,202z"/>
	<radialGradient id="SVGID_3_" cx="141.3324" cy="124.3574" r="107.7678" gradientUnits="userSpaceOnUse">
		<stop  offset="0.2" style="stop-color:#FFFFFF"/>
		<stop  offset="0.7" style="stop-color:#FFFFFF;stop-opacity:0.6"/>
		<stop  offset="1" style="stop-color:#FFFFFF"/>
	</radialGradient>
	<path class="st3" d="M187.3,214.6c0,0,0,0.3,0.1,0.9c0,0.6-0.1,1.4-0.4,2.5c-0.3,1-0.9,2.3-1.8,3.5c-0.9,1.3-2.1,2.6-3.6,3.8
		c-1.5,1.2-3.3,2.4-5.3,3.4c-2,1-4.3,1.8-6.8,2.4c-2.5,0.5-5.1,0.7-7.7,0.1c-0.6-0.1-1.3-0.3-1.9-0.5c-0.3-0.1-0.6-0.2-0.9-0.4
		l-0.2-0.1v0l0,0c0,0,0,0,0,0s0,0-0.1-0.1c0,0-0.1-0.1-0.1-0.1c0,0,0,0,0.1,0h0c0,0,0,0,0.1,0l0.2,0c0.4,0.1,0.7,0.1,1.1,0.2
		c0.7,0.1,1.4,0.1,2.1,0.1c2.1-0.1,4.1-0.5,5.9-1.1c2.3-0.2,4.9-0.8,7.3-1.9c2.5-1.2,4.7-2.8,6.3-4.5c1.7-1.7,2.8-3.6,3.5-5.2
		c0.7-1.6,1.1-3,1.2-4c0.2-1,0.2-1.5,0.2-1.5s-0.1,0.5-0.5,1.4c-0.3,0.9-0.9,2.2-1.8,3.6c-0.9,1.4-2.2,3-3.8,4.5
		c-1.4,1.2-3,2.4-4.9,3.4c3.1-2.5,5-5.2,5.6-7.4c0.3-1.1,0.3-2,0.2-2.6c-0.1-0.6-0.2-0.9-0.2-0.9c0,0,0.1,0.3,0.1,0.9
		c0,0.6-0.1,1.4-0.5,2.4c-0.8,2-3,4.5-6.2,6.7c-1.6,1.1-3.5,2.1-5.6,2.8c-1,0.4-2.1,0.7-3.2,0.9c-1.5,0.1-2.9,0.1-4.1-0.1
		c-1.7-0.2-3-0.6-4-0.9c-0.9-0.3-1.4-0.5-1.4-0.5c0,0,0.4,0.3,1.3,0.8c0.4,0.2,0.9,0.5,1.4,0.7l-0.1,0c-0.1,0-0.3-0.1-0.4-0.1
		l-0.5-0.1l-0.5-0.2c-0.2,0-0.3-0.1-0.5-0.2l-0.3-0.1l-0.3-0.2c-0.4-0.2-0.9-0.6-1.7-1.1L154,225c0.1,0,0.2,0.1,0.3,0.1
		c0.9,0.3,2.1,0.5,3.5,0.6c1.4,0.1,3,0,4.7-0.6c1.7-0.6,3.4-1.6,4.9-3.2c1.5-1.6,2.6-3.6,3.3-5.9c0.7-2.3,0.9-4.9,0.3-7.5
		c-0.3-1.3-0.9-2.6-1.8-3.8c-0.5-0.6-1-1.1-1.7-1.5c-0.3-0.2-0.7-0.4-1-0.6c-0.2-0.1-0.4-0.2-0.5-0.2l-0.4-0.2
		c-1.1-0.5-2.2-1-3.1-1.7c-1-0.6-1.8-1.4-2.6-2.3c-1.5-1.7-2.7-3.7-3.9-5.6c-1.2-1.9-2.4-3.7-3.7-5.3c-1.3-1.6-2.7-2.9-4.1-4
		c-1.4-1-2.9-1.7-4.2-2.1c-1.4-0.4-2.6-0.4-3.5-0.3c-1,0.1-1.7,0.3-2.2,0.5c-0.5,0.2-0.7,0.3-0.7,0.3s0.3-0.1,0.7-0.2
		c0.5-0.1,1.2-0.2,2.1-0.2c0.9,0,2.1,0.2,3.3,0.7c1.2,0.5,2.5,1.3,3.7,2.3c1.2,1.1,2.4,2.4,3.5,4c1.1,1.6,2.2,3.4,3.3,5.3
		c1.1,1.9,2.2,4.1,3.9,6.1c0.8,1,1.8,1.9,2.9,2.7c1.1,0.8,2.3,1.5,3.6,2l0.5,0.2c0.1,0.1,0.2,0.1,0.4,0.2c0.2,0.1,0.4,0.2,0.7,0.4
		c0.4,0.3,0.8,0.6,1.1,1c0.6,0.8,1.1,1.8,1.4,2.8c0.6,2.1,0.5,4.4,0,6.4c-0.5,2-1.4,3.9-2.5,5.3c-1.2,1.4-2.6,2.5-4.1,3.1
		c-1.5,0.6-2.9,0.9-4.2,1c-1.3,0.1-2.5,0-3.4-0.2c-0.3,0-0.6-0.1-0.8-0.1l-3.6-3.4l-0.6-0.6l-0.3-0.3c-0.1-0.1-0.3-0.3-0.2-0.2
		l0.1,0.3l0.2,0.5l0.3,0.9l0.2,0.6l0.2,0.4l0.1,0.3l0.1,0.2l0,0.1l0,0.1c0.1,0.2,0.1,0.2,0,0.2c0,0-0.1-0.2-0.3-0.5l-0.2-0.5
		l-0.1-0.3l-0.1-0.2l0.1,0.3l1,2.4c0.3,0.7,0.7,1.4,1.1,2.2c0.5,0.7,1,1.5,1.7,2.2c0.7,0.7,1.6,1.5,2.8,2.3c0.1,0.1,0.3,0.2,0.5,0.3
		c0.2,0.1,0.3,0.2,0.5,0.3l0.5,0.2l0.3,0.1c0.4,0.2,0.7,0.3,1.1,0.4c0.7,0.3,1.5,0.4,2.3,0.6c3,0.5,6,0.2,8.7-0.4
		c2.7-0.7,5.1-1.7,7.1-2.9c2.1-1.2,3.9-2.6,5.4-4c1-1,1.9-2,2.6-3c0-0.1,0.1-0.1,0.1-0.2c0.3-0.3,0.5-0.7,0.7-1c0.6-1,1-1.9,1.2-2.8
		c0,0,0,0,0-0.1c0.1-0.4,0.2-0.7,0.2-1c0.2-1.1,0.2-2,0.1-2.6C187.4,214.9,187.3,214.6,187.3,214.6z"/>
	<radialGradient id="SVGID_4_" cx="141.3324" cy="124.3574" r="107.7678" gradientUnits="userSpaceOnUse">
		<stop  offset="0.2" style="stop-color:#FFFFFF"/>
		<stop  offset="0.7" style="stop-color:#FFFFFF;stop-opacity:0.6"/>
		<stop  offset="1" style="stop-color:#FFFFFF"/>
	</radialGradient>
	<path class="st4" d="M161.1,121.1L161.1,121.1L161.1,121.1l0,0.1l0,0V121.1C161.1,121.1,161.1,121.1,161.1,121.1z"/>
	<radialGradient id="SVGID_5_" cx="141.3324" cy="124.3574" r="107.7678" gradientUnits="userSpaceOnUse">
		<stop  offset="0.2" style="stop-color:#FFFFFF"/>
		<stop  offset="0.7" style="stop-color:#FFFFFF;stop-opacity:0.6"/>
		<stop  offset="1" style="stop-color:#FFFFFF"/>
	</radialGradient>
	<path class="st5" d="M209,170.6c-0.4-0.6-1-1.1-1.6-1.5c-1.2-0.8-2.4-1.5-3.7-2.1c-1.5-0.7-3.1-1.4-4.6-2.1c-0.5-1-0.7-2.2-0.9-3.4
		c-0.2-1.5-0.4-2.9-0.6-4.3c-0.2-1.3-0.6-2.5-1.1-3.6c0.7-1.2,1.2-2.4,1.4-3.4c0-0.2,0-0.5,0-0.7c0.6-0.6,1.2-1.2,1.7-1.8
		c1-1.3,2-2.8,2.3-4.5c0.1-0.4,0.1-0.9,0.2-1.3c0-0.4,0-0.8,0-1.2c0-0.8-0.1-1.7-0.4-2.6c-0.2-0.5-0.4-0.9-0.8-1.3
		c-0.3-0.4-0.7-0.7-1-1c-0.3-0.3-0.5-0.5-0.7-0.7c-0.2-0.2-0.4-0.5-0.5-0.8c-0.1-0.3-0.3-0.6-0.4-0.9c0-0.2-0.1-0.3-0.1-0.5
		l-0.1-0.3c0,0,0,0,0,0c0,0,0,0,0,0c0,0,0,0,0,0c0,0,0.1-0.2,0.2-0.4c0.2-0.2,0.4-0.5,0.7-0.7c0.6-0.5,1.2-0.9,1.9-1.3
		c0.7-0.4,1.4-0.9,2-1.4c1.4-0.9,2.7-1.9,3.9-3.3c0.5-0.7,1-1.5,1.3-2.4c0.2-0.9,0.2-1.9,0-2.7c-0.3-0.9-0.7-1.6-1.2-2.3
		c-0.5-0.7-1.1-1.3-1.7-1.8c-0.6-0.5-1.2-1-1.9-1.5c-0.3-0.2-0.6-0.4-1-0.7l-1-0.6c-1.2-0.8-2.1-1.6-2.7-2.7
		c-0.3-0.5-0.5-1.1-0.6-1.8c-0.2-0.7-0.4-1.4-0.7-2.1c-0.3-0.7-0.7-1.4-1.2-2c-0.5-0.6-1-1.1-1.7-1.6c-1.2-0.9-2.7-1.6-4.2-1.9
		c-1.5-0.3-3-0.4-4.5-0.2c-1.5,0.2-2.8,0.5-4.1,1.1c-2.6,1-4.7,2.6-6.2,4.6c-0.3,0.4-0.9,1.3-1.2,2c-0.2,0.5-0.4,1-0.6,1.5
		c0.7-1.4,3.1-4.1,6.3-5.5c0.5-0.4,1.2-0.9,2.1-1.1c0.3-0.1,0.5-0.1,0.8-0.2c2.2-0.7,4.6-1,7-0.4c1.2,0.3,2.4,0.8,3.4,1.6
		c0.5,0.4,0.9,0.8,1.3,1.3c0.4,0.5,0.7,1,0.9,1.5c0.2,0.6,0.4,1.2,0.5,1.8c0.2,0.7,0.4,1.4,0.7,2.2c0.4,0.7,0.9,1.4,1.4,2
		c0.6,0.6,1.2,1.1,1.9,1.5l0.9,0.6c0.3,0.2,0.6,0.4,0.9,0.6c0.6,0.4,1.1,0.9,1.7,1.4c1,1,1.9,2,2.2,3.2c0.2,0.6,0.2,1.1,0,1.6
		c-0.2,0.5-0.5,1.1-0.9,1.6c-0.9,1-2.1,2-3.4,2.8c-0.7,0.4-1.3,0.9-2,1.3c-0.7,0.5-1.4,0.9-2.1,1.5c-0.3,0.3-0.7,0.6-1,1
		c-0.2,0.2-0.3,0.4-0.5,0.7c-0.1,0.3-0.2,0.6-0.3,1c0,0.1,0,0.2,0,0.3c0,0.1,0,0.1,0,0.1l0,0.1l0.1,0.3c0.1,0.2,0.1,0.4,0.2,0.6
		c0.1,0.4,0.3,0.9,0.5,1.3c0.2,0.4,0.5,0.8,0.8,1.2c0.3,0.4,0.7,0.7,1,1c0.6,0.5,0.9,0.8,1.1,1.4c0.2,0.5,0.3,1.2,0.3,1.9
		c0,0.4,0,0.7,0,1.1c0,0.3,0,0.7-0.1,1c-0.2,1.3-1,2.5-1.9,3.6c-0.2,0.3-0.4,0.5-0.7,0.8c0,0,0,0-0.1-0.1c-0.8-0.7-2-1.1-3-1.3
		c-1.1-0.2-2-0.3-2.8-0.3c-1.6,0-2.6,0.1-2.5,0.1c0,0,0.9,0,2.4,0.1c0.8,0.1,1.7,0.2,2.6,0.5c0.9,0.3,1.9,0.7,2.5,1.4
		c0.1,0.1,0.1,0.2,0.2,0.3c-0.6,0.6-1.2,1.2-1.8,1.8c-0.3,0.3-0.6,0.5-0.8,0.8c-0.8-0.5-1.7-0.9-2.5-1.1c-0.8-0.2-1.6-0.3-2.2-0.3
		c-1.2-0.1-1.8,0-1.8,0c0,0,0.7,0.1,1.8,0.3c0.6,0.1,1.3,0.3,2,0.6c0.7,0.3,1.4,0.6,2,1.1c-0.6,0.6-1.2,1.3-1.7,2
		c-0.5,0.7-0.9,1.4-1.2,2.1c-0.3,0.8-0.4,1.6-0.4,2.5c0,0.7,0.2,1.4,0.4,2c-0.9,1-1.9,2-2.8,3c-2.5,2.6-5.1,5-7.4,7.3
		c0.2-0.1,0.4-0.3,0.5-0.4l1.8-1.2c1.3-0.9,2.5-1.7,3.7-2.6c0.9-0.9,1.8-1.8,2.7-2.7c0.7-0.7,1.4-1.4,2-2.1c0,0,0,0.1,0.1,0.1
		c0.2,0.4,0.4,0.7,0.7,1c1,1.3,2.3,2.2,3.6,3c0.9,0.5,1.8,1,2.7,1.4c0,0.1,0.1,0.2,0.1,0.2c0.3,0.5,0.8,0.9,1.3,1.3
		c0.2,0.2,0.5,0.3,0.8,0.5l0.1,0l0,0c0,0,0,0,0,0h0h0c0,0,0,0,0,0c0,0,0,0,0,0c0,0.1,0,0.1,0,0.2c0,0.3-0.1,0.5-0.2,0.8
		c-0.2,0.5-0.6,1-1,1.3c-0.9,0.8-2,1.4-3.1,2c-1.1,0.6-2.1,1.2-3,1.9c-0.9,0.7-1.6,1.5-2.2,2.3c-0.5,0.8-0.9,1.6-1.1,2.3
		c-0.2,0.7-0.3,1.4-0.3,1.9c0,0.2,0,0.4,0,0.6c-0.6-0.3-1.1-0.5-1.7-0.8l-1.2-0.5c-0.4-0.2-0.8-0.4-1.2-0.6
		c-0.8-0.4-1.6-0.8-2.3-1.2c-1.5-0.9-2.8-1.9-3.9-3c-1.1-1.1-1.9-2.4-2.2-3.8c-0.4-1.4-0.4-2.8-0.1-4.2c0.2-1.3,1-2.5,1.9-3.6
		c0.9-1.1,2-2.1,3-3.1c1.1-1,2.1-2,3-3c0.9-1,1.8-2,2.4-3.2c0.6-1.1,1-2.4,0.8-3.6c-0.1-1.2-0.7-2.2-1.4-3c-0.3-0.4-0.8-0.8-1.2-1.1
		c-0.4-0.3-0.8-0.6-1.2-0.9c-0.8-0.5-1.5-1-2-1.6c-0.3-0.3-0.5-0.6-0.6-0.8c-0.1-0.3-0.1-0.6,0-0.9c0.2-0.5,0.7-0.9,1.1-1.2
		c0.4-0.3,0.8-0.5,1.1-0.6c0.6-0.3,1-0.4,1-0.4c0,0-0.4,0.1-1,0.4c-0.3,0.1-0.7,0.3-1.2,0.6c-0.4,0.3-1,0.6-1.3,1.2
		c-0.1,0.3-0.2,0.7-0.1,1c0.1,0.4,0.3,0.7,0.6,1c0.5,0.6,1.2,1.2,1.9,1.7c0.4,0.3,0.7,0.6,1.1,0.9c0.4,0.3,0.7,0.6,1,1
		c0.6,0.8,1,1.7,1,2.7c0.1,1-0.3,2-0.9,3c-0.6,1-1.4,1.9-2.4,2.8c-1,0.9-2,1.8-3.1,2.8c-1.1,1-2.2,2-3.3,3.1c-0.5,0.6-1,1.2-1.5,1.9
		c-0.4,0.7-0.8,1.5-0.9,2.3c-0.1,0.5-0.2,1-0.2,1.5c0,0,0,0,0,0c-0.4,0.1-2.1,0.5-4.6,0.4c-1.5-0.1-3.2-0.3-5.1-0.6
		c-0.1,0-0.2,0-0.3,0c0.6-0.1,1.2-0.2,1.8-0.3c1.9-0.4,3.6-1,4.9-1.9c1.3-0.9,1.9-1.9,2.3-2.7c0.3-0.8,0.4-1.2,0.4-1.2
		c0,0-0.2,0.4-0.7,1c-0.5,0.6-1.3,1.4-2.5,2c-1.2,0.6-2.8,0.9-4.6,1.1c-1.8,0.2-3.9,0.2-6.1,0.2c-2.2,0.1-4.3,0.2-6.2,0.5
		c-1.9,0.3-3.6,0.8-5,1.5c-1.3,0.7-2.2,1.5-2.8,2.1c-0.2,0.2-0.3,0.4-0.4,0.5c0,0,0-0.1,0.1-0.2c0,0,0-0.1,0-0.1
		c0.1-0.3,0.3-0.6,0.6-1c0.2-0.2,0.4-0.4,0.6-0.6c0.8-0.7,1.9-1.4,3.3-2c1.9-0.8,4.2-1.4,6.9-2c1.3-0.3,2.7-0.6,4.2-0.8l2.2-0.4
		l0.6-0.1l0.6-0.2l1.2-0.3c3.1-0.8,6-1.8,8.5-3.2c2.5-1.3,4.5-3,5.8-4.7c1.3-1.7,2.1-3.2,2.5-4.3c0.4-1.1,0.6-1.7,0.6-1.7
		c0,0-0.3,0.6-0.8,1.6c-0.6,1-1.5,2.4-2.9,3.8c-1.4,1.4-3.4,2.8-5.8,3.9c-2.4,1.1-5.2,2-8.2,2.8l-1.1,0.3l-0.5,0.1l-0.5,0.1
		c-0.8,0.2-1.5,0.3-2.2,0.5c-1.5,0.3-2.9,0.7-4.2,1.1c-2.7,0.8-5,1.7-6.9,2.7c-0.9,0.5-1.7,1-2.4,1.6c-0.1,0.1-0.1,0.1-0.2,0.2
		c-0.5,0.5-1,1-1.2,1.5c-0.2,0.3-0.3,0.6-0.3,0.8c-0.6,0.7-1.4,1.4-2.5,2c-1.1,0.6-2.4,1-3.8,1.3c0.1-0.1,0.2-0.2,0.3-0.3
		c0.4-0.4,0.8-0.8,1-1.4c0.5-1.1,0.4-2.3,0.3-3.6c-0.1-0.7-0.3-1.5-0.3-2.3c0,0-0.1,0.1-0.1,0.1c-0.5,0.6-0.7,1-0.8,1.4
		c-0.1,0.3-0.1,0.5-0.1,0.5s-0.1-0.2,0-0.5c0-0.3,0.2-0.9,0.6-1.5c0.1-0.2,0.2-0.3,0.4-0.5c0-0.5-0.1-0.9,0-1.4c0-0.2,0-0.4,0.1-0.5
		c0-0.2,0.1-0.3,0.1-0.5c0.1-0.4,0.2-0.7,0.4-1.1c0.3-0.5,0.6-1.1,1-1.6c0,0.2,0,0.4,0,0.6c-0.1,0.9-0.1,1.8-0.1,2.6
		c-0.1,1.7-0.2,3.1-0.3,4.1c-0.2,1-0.3,1.5-0.3,1.5c0,0,0.3-0.5,0.6-1.4c0.3-0.9,0.7-2.3,1-4.1c0.2-1.1,0.4-2.4,0.6-3.7
		c0-0.2,0.1-0.4,0.1-0.5c0.1-0.3,0.1-0.6,0.2-0.8c0.5-0.4,1-0.8,1.6-1.2c0.4-0.4,0.8-0.8,1.3-1.1c2-1.6,4.3-2.8,6.5-3.7
		c2.2-1,4.2-1.7,5.9-2.3c3.5-1.2,5.7-1.8,5.7-1.8l-5.1,2.4c-1.2,0.6-2.5,1.2-4,1.9c2.2-0.8,4.6-1.5,6.8-2.3c2.2-0.8,4.4-1.6,6.4-2.4
		c-0.8,0.7-1.7,1.4-2.6,2.1c-2.4,1.6-5.4,2.9-8.6,4.1l-1.2,0.4c-0.4,0.1-0.8,0.2-1.2,0.4c-0.8,0.2-1.6,0.4-2.4,0.7
		c-0.8,0.2-1.6,0.5-2.4,0.9c-0.8,0.4-1.5,0.8-2.1,1.3c-1.3,1-2.1,2.4-2.7,3.6c-0.5,1.1-0.8,2.3-1,3.3c0,0.1-0.1,0.2-0.1,0.2
		s0,0,0-0.1c0,0.1,0,0.2-0.1,0.3c-0.2,1.1-0.4,2.1-0.6,3c-0.2,0.9-0.5,1.6-0.8,2.1c-0.6,1.1-1.2,1.6-1.1,1.6c0,0,0.6-0.4,1.4-1.4
		c0.4-0.5,0.8-1.2,1.2-2.1c0.4-0.8,0.6-1.9,1-2.9c0.2-0.8,0.5-1.7,0.9-2.5c0.7-0.5,1.5-1.1,2.6-1.6c1.6-0.7,3.7-1.1,6.1-1.3
		c1.7-0.2,3.6-0.3,5.6-0.4c-1.6,0.5-3.1,1-4.6,1.6c-2.8,1-5.2,2.1-7.1,3.3c-1.9,1.2-3.2,2.5-3.9,3.5c-0.7,1-1,1.6-1,1.6
		c0,0,0.4-0.6,1.2-1.5c0.6-0.6,1.4-1.2,2.5-1.9c0,0,0,0,0,0c0.5-0.3,1.1-0.6,1.7-0.9c1.9-1,4.4-1.8,7.1-2.6c2.8-0.8,5.9-1.6,9.1-2.7
		c3.2-1.1,6.3-2.3,8.7-4.1c1.2-0.9,2.3-1.9,3.1-2.9c0.8-1.1,1.4-2.2,1.8-3.3c0.4-1.1,0.5-2.1,0.6-3c0.1-0.9,0-1.6-0.1-2.3
		c-0.1-1.2-0.3-1.9-0.3-1.9c0,0,0.1,0.7,0,1.9c-0.1,1.2-0.2,3-1.1,4.9c-0.4,1-1.1,1.9-1.9,2.8c-0.8,0.9-1.8,1.6-2.9,2.4
		c0.6-0.9,1.1-1.7,1.4-2.6c0.7-1.8,0.8-3.3,0.8-4.4c0-1,0-1.6,0-1.6c0,0-0.1,0.6-0.3,1.6c-0.2,1-0.6,2.4-1.4,4
		c-0.4,0.8-0.9,1.6-1.7,2.3c-0.7,0.7-1.6,1.4-2.6,1.9c-2,1-4.6,1.5-7.3,1.8c-2.7,0.3-5.4,0.5-7.8,0.9c-2.4,0.4-4.6,1.1-6.3,2
		c-0.5,0.3-0.9,0.6-1.3,0.9c0.6-0.8,1.2-1.6,2.1-2.3c0.3-0.2,0.6-0.4,0.9-0.6c0.6-0.3,1.3-0.6,2.1-0.8c0.3-0.1,0.7-0.2,1-0.3
		l2.4-0.6c0.4-0.1,0.8-0.2,1.3-0.4c0.1,0,0.2,0,0.3-0.1c0.3-0.1,0.7-0.2,1-0.3c1.9-0.7,3.7-1.4,5.3-2.3c1.3-0.7,2.5-1.4,3.6-2.2
		c1.2-0.9,2.3-2,3.2-3c0.5-0.6,0.9-1.2,1.3-1.8c1.3-0.7,2.5-1.5,3.4-2.4c1.5-1.3,2.4-2.7,2.9-4c0.5-1.3,0.6-2.5,0.5-3.6
		c-0.1-1.1-0.3-1.9-0.6-2.6c-0.5-1.4-1-2.2-1-2.2c0,0,0.3,0.8,0.6,2.2c0.1,0.7,0.2,1.6,0.1,2.6c0.2,0.9,0.2,1.7,0,2.4
		c-0.2,1-0.6,1.8-1.1,2.4c-0.5,0.7-1.1,1.1-1.6,1.5c-0.5,0.4-1,0.6-1.3,0.7c-0.3,0.2-0.5,0.2-0.5,0.2s0.2-0.1,0.5-0.2
		c0.3-0.2,0.7-0.4,1.2-0.8c0.5-0.4,1-0.9,1.5-1.5c0.4-0.7,0.8-1.5,0.9-2.4c0-0.2,0-0.3,0-0.5c-0.2,0.5-0.3,0.9-0.6,1.4
		c-0.6,1.2-1.6,2.4-3.1,3.5c-0.1,0.1-0.3,0.2-0.4,0.3c0.6-1.4,0.9-2.7,1.1-3.6c0.3-1.2,0.3-2,0.3-2c0,0-0.2,0.7-0.6,1.9
		c-0.4,1.2-1.1,2.8-2.3,4.6c-1,0.6-2.2,1.2-3.5,1.7c-2.1,0.9-4.5,1.7-7,2.5c-2.5,0.8-5.2,1.6-7.9,2.5c-2.6,1-5.2,2-7.4,3.3
		c-0.4,0.2-0.8,0.4-1.1,0.7c0,0,0,0,0-0.1c0.1-0.3,0.2-0.5,0.4-0.8c0.5-1,1.2-2,2-3c1.6-1.9,3.5-3.5,5.3-5c0.4-0.3,0.9-0.7,1.3-1
		c1.3-1,2.5-1.9,3.6-2.6l4.6-3.3c0,0-2,0.8-5.1,2.4c-1.6,0.8-3.4,1.8-5.3,3.1c-1.9,1.3-4,2.9-5.8,5c-0.4,0.5-0.8,1-1.1,1.5
		c-0.4,0.6-0.8,1.3-1.1,1.9c-0.1,0.3-0.3,0.6-0.4,0.9c-0.1,0.3-0.2,0.6-0.3,0.9c-0.1,0.5-0.3,0.9-0.3,1.4c-0.8,0.6-1.5,1.3-2.1,2
		c-0.7,0.8-1.2,1.7-1.5,2.5c-0.2,0.4-0.3,0.8-0.4,1.3c0,0.2-0.1,0.4-0.1,0.6c0,0.2,0,0.4,0,0.6c0,0.8,0.2,1.6,0.4,2.3l0.6,2
		c0.4,1.3,0.5,2.4,0.3,3.3c-0.2,0.8-0.7,1.5-1.4,1.9c-1.3,0.2-2.8,0.3-4.3,0.2c-3.7-0.1-7.8-0.8-12.4-1.6c-2.3-0.4-4.7-0.9-7.3-1.1
		c-2.6-0.2-5.2-0.3-8-0.1c-2.8,0.2-5.7,0.6-8.5,1.4c-1.9,0.5-3.9,1.3-5.7,2.3c-0.4-0.7-0.8-1.4-1.2-2.2c-1.3-2.7-2.3-6-2.6-9.5
		c-0.3-3.5,0-6.9,0.8-9.9c0.8-3,1.9-5.5,3.1-7.6c0.5-0.9,1-1.6,1.5-2.3c-0.1,0.6-0.1,1.1-0.1,1.7c0,1.4,0,2.8,0.3,4.3
		c0.1,0.4,0.2,0.8,0.3,1.1c0.1,0.2,0.1,0.4,0.2,0.6l0.2,0.5c0.2,0.7,0.5,1.4,0.8,2.2c1.2,2.9,2.8,5.4,4.7,7.4c1.9,2,4,3.3,5.9,4.1
		c1.9,0.8,3.5,1,4.7,1.1c1.1,0.1,1.7,0,1.7,0c0,0-0.6-0.1-1.7-0.4c-1-0.3-2.5-0.8-4.2-1.8c-1.6-1-3.3-2.4-4.9-4.4
		c-1.5-1.9-2.9-4.3-4-7c-0.3-0.7-0.5-1.3-0.8-2l-0.2-0.5c-0.1-0.1-0.1-0.3-0.2-0.5c-0.1-0.3-0.2-0.6-0.3-0.9
		c-0.3-1.3-0.5-2.6-0.5-3.8c-0.1-1.6,0-3,0.2-4.4c0-0.1,0-0.2,0-0.3c0.1-0.6,0.2-1.3,0.4-1.8c0.5-1.8,1.3-3.2,2-4
		c0.7-0.8,1.2-1.2,1.2-1.2c0,0-0.6,0.2-1.5,0.9c-0.4,0.3-1,0.8-1.5,1.5c-0.5,0.6-1,1.4-1.4,2.3c-0.6,1.2-1,2.6-1.3,4.2
		c-0.8,0.8-1.6,1.7-2.5,2.9c-1.4,2-2.9,4.5-3.9,7.7c-1,3.1-1.5,6.7-1.1,10.5c0.3,3.8,1.5,7.2,3.1,10.1c0.4,0.8,0.9,1.5,1.4,2.2
		c-0.5,0.3-1,0.6-1.4,0.9c-0.7,0.5-1.3,0.9-1.9,1.5c-0.6,0.6-1.2,1.1-1.7,1.7c-1.1,1.2-2.1,2.6-3,4c-1.7,2.9-2.9,6.2-3.5,9.6
		c-0.6,3.4-0.5,7.1,0.2,10.6c0.7,3.5,2.1,7,3.9,10.2c1.9,3.2,4.3,5.9,6.9,8.3c1.3,1.2,2.7,2.3,4.2,3.3c1.4,1,2.9,1.9,4.5,2.7
		c3.1,1.6,6.3,2.7,9.6,3.4c3.3,0.7,6.5,0.9,9.7,0.7c6.3-0.3,12.2-2.2,17-5.1c4.8-2.8,8.6-6.7,11-10.8c1.2-2.1,2.1-4.2,2.6-6.2
		c0.6-2.1,0.8-4.1,0.9-5.9c0.1-3.8-0.5-7-1.2-9.5c-0.7-2.5-1.6-4.4-2.1-5.6c-0.6-1.2-0.9-1.8-0.9-1.9c0,0,0.3,0.6,0.8,1.9
		c0.5,1.3,1.3,3.1,1.9,5.7c0.6,2.5,1.1,5.7,0.8,9.3c-0.3,3.6-1.4,7.7-3.8,11.6c-2.4,3.8-6.1,7.4-10.8,10c-4.7,2.6-10.3,4.2-16.3,4.4
		c-6,0.2-12.3-1-18-4.1c-5.7-3.1-11-7.6-14.5-13.5c-1.8-2.9-3-6.1-3.7-9.3c-0.7-3.2-0.7-6.6-0.3-9.7c0.5-3.2,1.5-6.2,3.1-8.8
		c0.8-1.3,1.7-2.6,2.7-3.7c0.5-0.6,1-1.1,1.5-1.6c0.5-0.5,1.1-1,1.7-1.4c0.5-0.4,1-0.7,1.5-1c0.4-0.2,0.7-0.4,1.1-0.7
		c1.6-0.9,3.4-1.6,5.1-2.1c2.7-0.8,5.5-1.3,8.1-1.5c2.7-0.2,5.3-0.2,7.8-0.1c2.5,0.1,4.9,0.5,7.2,0.9c4.6,0.7,8.8,1.2,12.6,1.2
		c1.2,0,2.4-0.1,3.5-0.3c-0.5,0.4-1,0.6-1.3,0.8c-0.5,0.2-0.7,0.3-0.7,0.3c0,0,0.3-0.1,0.8-0.2c0.5-0.2,1.2-0.4,2-1
		c0.3,0,0.6-0.1,1-0.2c1.6-0.4,3-0.9,4.1-1.6c0.9-0.5,1.6-1.2,2.2-1.8c0,0.1,0,0.2,0,0.2c-0.2,0.3-0.3,0.4-0.3,0.4s0.1-0.1,0.3-0.3
		c0,0,0,0,0,0s0,0,0,0c0.1-0.1,0.4-0.3,0.7-0.5c0.3-0.3,0.8-0.6,1.4-0.8c-0.2,0.2-0.4,0.4-0.6,0.6c-1.1,1.1-1.6,2.3-2,3
		c-0.3,0.8-0.5,1.2-0.5,1.2c0,0,0.2-0.4,0.7-1.1c0.5-0.7,1.2-1.6,2.3-2.5c1.1-0.9,2.6-1.6,4.4-2c1.8-0.4,3.9-0.3,6.1-0.2
		c2.2,0.2,4.4,0.4,6.3,0.6c2,0.1,3.8,0.2,5.3,0c1.5-0.1,2.7-0.5,3.5-0.8c0.6-0.2,0.9-0.4,1.1-0.5c0.1,0,0.1,0,0.1,0c0,0,0,0,0,0
		c0,0,0,0-0.1,0c-0.1,1.1,0,2.3,0.3,3.4c0.4,1.7,1.3,3.2,2.6,4.6c1.2,1.4,2.8,2.5,4.4,3.4c0.8,0.5,1.6,0.9,2.5,1.3
		c0.4,0.2,0.8,0.4,1.3,0.6l1.2,0.5c1.6,0.7,3.3,1.4,4.6,2.2c0.7,0.4,1.2,0.9,1.5,1.4c0.4,0.5,0.5,1.1,0.5,1.7c0,0.7-0.1,1.3-0.2,2
		c-0.1,0.3-0.2,0.7-0.3,1c-0.1,0.3-0.3,0.6-0.4,0.9c-0.3,0.6-0.7,1.2-1.1,1.9c-0.3,0.7-0.5,1.6-0.4,2.3c0,0.4,0.1,0.7,0.2,1.1
		c0.1,0.4,0.2,0.7,0.3,1.1c0.3,0.7,0.6,1.3,0.9,1.8c0.3,0.6,0.6,1.1,0.7,1.6c0.2,0.6,0.3,1.2,0.4,1.7c0.2,1.1,0.3,2.3,0.3,3.3
		c0,4.3-1.1,7.7-2.5,9.7c-0.7,1-1.4,1.7-1.9,2.2c-0.1,0.1-0.2,0.2-0.3,0.3c0,0,0,0,0,0.1c0.1-0.1,0.2-0.2,0.4-0.3
		c0.6-0.4,1.4-1.1,2.1-2.1c1.6-2,3-5.5,3.3-9.9c0.1-1.1,0-2.3-0.1-3.5c-0.1-0.6-0.2-1.2-0.3-1.8c-0.1-0.7-0.4-1.3-0.7-1.9
		c-0.3-0.6-0.6-1.2-0.8-1.8c-0.1-0.3-0.2-0.6-0.2-0.9c-0.1-0.3-0.1-0.6-0.1-0.9c0-0.6,0.1-1.1,0.4-1.7c0.3-0.6,0.7-1.1,1.1-1.8
		c0.2-0.3,0.4-0.7,0.5-1.1c0.2-0.4,0.3-0.8,0.4-1.1c0.2-0.8,0.4-1.5,0.3-2.4c0-0.8-0.2-1.8-0.8-2.6c-0.5-0.8-1.3-1.4-2.1-2
		c-1-0.6-2-1.1-3-1.6c0-0.2,0.1-0.4,0.1-0.6c0.2-1,0.6-2.4,1.8-3.7c0.6-0.7,1.3-1.3,2.2-1.8c0.9-0.6,1.9-1,3-1.6
		c1.1-0.5,2.3-1.1,3.5-2c0.6-0.5,1.1-1.1,1.5-1.8c0.2-0.4,0.3-0.8,0.4-1.2c0-0.1,0-0.2,0.1-0.3c0-0.2,0-0.3,0-0.5c0,0,0,0,0-0.1
		c0.3,0.1,0.6,0.3,0.9,0.4c1.3,0.5,2.4,1.1,3.5,1.8c1,0.7,1.7,1.5,1.9,2.4c0.1,0.5,0.1,1-0.1,1.5c-0.1,0.2-0.2,0.5-0.2,0.8
		c-0.1,0.2-0.2,0.5-0.4,0.7c-0.5,0.9-1.4,1.6-2.3,2.5c-0.4,0.4-0.9,0.9-1.2,1.4c-0.3,0.5-0.6,1.1-0.7,1.7c-0.1,0.6-0.2,1.2-0.1,1.8
		c0.1,0.6,0.3,1.1,0.5,1.6c0.4,1,0.9,1.8,1.1,2.7c0.1,0.2,0.1,0.4,0.1,0.7c0,0.2,0.1,0.5,0.1,0.7l0.2,1.4c0.3,1.8,0.4,3.5,0.2,5.1
		c-0.2,1.6-0.7,3-1.4,4.2c-0.7,1.2-1.5,2.2-2.3,3.1c-1.6,1.7-3.2,2.8-4.3,3.5c0,0-0.1,0-0.1,0.1c0,0.1-0.1,0.1-0.1,0.2
		c0.1-0.1,0.2-0.1,0.3-0.2c1.1-0.6,2.8-1.6,4.5-3.3c0.9-0.8,1.8-1.9,2.5-3.1c0.8-1.2,1.4-2.7,1.7-4.3c0.3-1.6,0.3-3.4,0.1-5.3
		l-0.2-1.4c0-0.2-0.1-0.5-0.1-0.7c0-0.2-0.1-0.5-0.1-0.8c-0.2-1-0.7-2-1-2.9c-0.4-0.9-0.6-1.8-0.3-2.7c0.2-0.9,0.9-1.7,1.7-2.5
		c0.8-0.8,1.8-1.5,2.6-2.7c0.2-0.3,0.3-0.6,0.5-0.9c0.1-0.3,0.2-0.6,0.3-0.9c0.2-0.6,0.3-1.4,0.1-2.1
		C209.8,171.9,209.5,171.2,209,170.6z M196.2,151c0.1-0.1,0.1-0.1,0.2-0.2c-0.2,0.5-0.4,1-0.7,1.5c-0.1-0.2-0.3-0.3-0.4-0.5
		C195.6,151.6,195.9,151.3,196.2,151z M191.9,157.6c0-1.2,0.5-2.3,1.3-3.4c0.4-0.5,0.8-1,1.3-1.5c0.2,0.3,0.3,0.6,0.5,0.9
		c-0.1,0.2-0.2,0.3-0.3,0.5C193.9,155.2,192.9,156.4,191.9,157.6C191.9,157.6,191.9,157.6,191.9,157.6z M193.2,160.9
		c-0.2-0.2-0.4-0.5-0.5-0.8c-0.2-0.3-0.3-0.6-0.4-0.8c0-0.1,0-0.1,0-0.2c0.8-0.9,1.5-1.7,2.1-2.5c0.1-0.1,0.1-0.2,0.2-0.4
		c0.3-0.7,0.5-1.2,0.5-1.2c0,0,0,0.3-0.1,0.9c0.2-0.3,0.4-0.6,0.6-0.9c0.2,0.8,0.4,1.6,0.5,2.5c0.2,1.3,0.3,2.8,0.4,4.3
		c0.1,0.6,0.2,1.3,0.3,1.9c-0.2-0.1-0.3-0.2-0.5-0.3C195,162.7,193.9,161.9,193.2,160.9z"/>
	<radialGradient id="SVGID_6_" cx="141.3324" cy="124.3574" r="107.7678" gradientUnits="userSpaceOnUse">
		<stop  offset="0.2" style="stop-color:#FFFFFF"/>
		<stop  offset="0.7" style="stop-color:#FFFFFF;stop-opacity:0.6"/>
		<stop  offset="1" style="stop-color:#FFFFFF"/>
	</radialGradient>
	<path class="st6" d="M205.1,163.3c0.5-0.5,1-1.1,1.3-1.6c0,0,0,0,0,0c0.1-0.3,0.2-0.5,0.3-0.8c0.4-1.2,0.5-2.7,0.3-4.3
		c-0.1-0.8-0.3-1.7-0.6-2.5c-0.4-0.9-0.9-1.8-1.8-2.5c-0.2-0.2-0.5-0.3-0.7-0.5c-0.1-0.1-0.3-0.1-0.4-0.2l-0.2-0.1l-0.1,0l-0.1,0
		c-0.3-0.1-0.6-0.1-0.8-0.1c-0.1,0-0.2,0-0.3,0.1c-0.6,0.3-1.1,0.7-1.7,1.2c-0.4,0.4-0.8,0.8-1.1,1.2l1-0.6l0.6-0.4
		c0.1-0.1,0.2-0.1,0.2-0.1l0.1,0l0.4-0.1l0.2-0.1l0.1,0c0.3-0.1,0.5-0.1,0.7-0.1c0.1,0,0.2,0,0.3,0c0.1,0,0.2,0,0.3,0
		c0,0,0.1,0,0.1,0l0.1,0l0.1,0.1c0.1,0,0.2,0.1,0.3,0.1c0.2,0.1,0.4,0.2,0.6,0.3c0.7,0.5,1.2,1.3,1.6,2c0.4,0.8,0.6,1.5,0.7,2.3
		c0.2,1.5,0.1,2.9-0.1,4.1C206,161.7,205.6,162.6,205.1,163.3z"/>
	<radialGradient id="SVGID_7_" cx="141.3324" cy="124.3574" r="107.7678" gradientUnits="userSpaceOnUse">
		<stop  offset="0.2" style="stop-color:#FFFFFF"/>
		<stop  offset="0.7" style="stop-color:#FFFFFF;stop-opacity:0.6"/>
		<stop  offset="1" style="stop-color:#FFFFFF"/>
	</radialGradient>
	<path class="st7" d="M141.2,180.3c0,0,0.8,0,2.2,0.2c0.7,0.1,1.5,0.3,2.5,0.6c0.9,0.3,2,0.7,3,1.4c1,0.7,2,1.6,2.9,2.7
		c0.9,1.1,1.7,2.5,2.6,3.9c0.9,1.4,1.8,3,3,4.5c1.2,1.5,2.7,2.9,4.4,4c1.7,1.1,3.3,2,4.9,2.9c1.6,0.9,3.1,1.8,4.4,2.7
		c1.3,0.9,2.5,1.9,3.4,3c0.9,1.1,1.5,2.3,1.5,3.4c0.1,1.2-0.3,2.2-0.7,3.1c-0.5,0.9-1,1.6-1.5,2.1c-0.9,1.1-1.5,1.6-1.5,1.6
		c0,0,0.7-0.4,1.7-1.4c0.5-0.5,1.2-1.1,1.7-2c0.6-0.9,1.1-2,1.2-3.4c0-0.7-0.1-1.4-0.3-2.1c-0.3-0.7-0.6-1.4-1.1-2
		c-0.9-1.3-2.2-2.5-3.5-3.5c-1.4-1.1-2.9-2.1-4.4-3c-1.6-1-3.2-1.9-4.8-2.9c-1.5-1-2.9-2.2-4-3.6c-1.2-1.3-2.1-2.8-3.1-4.1
		c-1-1.4-1.9-2.7-2.9-3.9c-1-1.2-2.2-2.1-3.4-2.7c-1.2-0.6-2.3-1-3.3-1.2c-1-0.2-1.9-0.3-2.6-0.3
		C141.9,180.1,141.2,180.3,141.2,180.3z"/>
	<radialGradient id="SVGID_8_" cx="141.3324" cy="124.3574" r="107.7678" gradientUnits="userSpaceOnUse">
		<stop  offset="0.2" style="stop-color:#FFFFFF"/>
		<stop  offset="0.7" style="stop-color:#FFFFFF;stop-opacity:0.6"/>
		<stop  offset="1" style="stop-color:#FFFFFF"/>
	</radialGradient>
	<path class="st8" d="M183.2,209.6c0.1-0.7,0.2-1.5,0.1-2.5c-0.1-1-0.4-2.1-1-3.3c-0.6-1.1-1.6-2.2-2.7-3.2c-1.2-0.9-2.5-1.8-4-2.5
		c-1.5-0.8-3-1.4-4.6-2.1c-1.6-0.7-3.3-1.4-4.8-2.2c-1.6-0.8-3-1.8-4.3-2.9c-1.3-1.1-2.4-2.3-3.5-3.5c-1.1-1.2-2.1-2.3-3.2-3.3
		c-1.1-1-2.2-1.9-3.2-2.5c-2.2-1.3-4.2-1.7-5.6-1.9c-1.4-0.1-2.1-0.1-2.1-0.1c0,0,0.8,0.1,2.1,0.4c1.3,0.3,3.2,1,5.1,2.4
		c0.9,0.7,1.9,1.6,2.8,2.6c0.9,1,1.9,2.2,2.9,3.5c1,1.2,2.1,2.5,3.5,3.8c0.7,0.6,1.4,1.2,2.2,1.8c0.8,0.6,1.6,1.1,2.5,1.5
		c1.7,0.9,3.4,1.6,5,2.2c1.6,0.6,3.2,1.2,4.6,1.9c1.4,0.6,2.8,1.3,3.9,2.1c1.1,0.8,2.1,1.7,2.7,2.6c0.7,0.9,1,1.9,1.3,2.9
		c0.2,0.9,0.2,1.7,0.2,2.4c0,1.3-0.2,2.1-0.2,2.1C182.7,211.6,183,210.9,183.2,209.6z"/>
	<radialGradient id="SVGID_9_" cx="141.3324" cy="124.3574" r="107.7678" gradientUnits="userSpaceOnUse">
		<stop  offset="0.2" style="stop-color:#FFFFFF"/>
		<stop  offset="0.7" style="stop-color:#FFFFFF;stop-opacity:0.6"/>
		<stop  offset="1" style="stop-color:#FFFFFF"/>
	</radialGradient>
	<path class="st9" d="M148.9,176.6c-0.8,0.1-1.3,0.2-1.3,0.2c0,0,0.4,0,1.3,0.1c0.8,0.1,2,0.2,3.4,0.6c1.4,0.4,3,1,4.6,2
		c0.8,0.5,1.6,1,2.5,1.7c0.4,0.3,0.8,0.7,1.2,1l0.6,0.5l0.7,0.6l0.5,0.4l0.5,0.3c0.3,0.2,0.6,0.4,0.9,0.7c2.2,1.4,4.5,2.5,6.6,3.3
		c2.1,0.8,4,1.3,5.6,1.9c3.2,1.1,5.1,2,5.1,1.9c0,0-1.7-1.3-4.7-2.8c-1.5-0.8-3.4-1.6-5.4-2.5c-2-0.9-4.1-2-6.2-3.4
		c-0.3-0.2-0.6-0.4-0.9-0.6l-0.9-0.6l-0.6-0.5c-0.2-0.2-0.4-0.4-0.7-0.5c-0.5-0.3-0.9-0.7-1.4-1c-0.9-0.6-1.8-1.2-2.8-1.6
		c-1.8-0.9-3.6-1.3-5.1-1.5C150.9,176.5,149.7,176.5,148.9,176.6z"/>
	<radialGradient id="SVGID_10_" cx="141.3324" cy="124.3574" r="107.7678" gradientUnits="userSpaceOnUse">
		<stop  offset="0.2" style="stop-color:#FFFFFF"/>
		<stop  offset="0.7" style="stop-color:#FFFFFF;stop-opacity:0.6"/>
		<stop  offset="1" style="stop-color:#FFFFFF"/>
	</radialGradient>
	<path class="st10" d="M162.5,177.9c1.5,0.8,3,1.9,4.6,3.2c1.5,1.3,3,2.7,4.4,3.8c1.4,1.1,2.9,2,4.1,2.7c1.3,0.6,2.3,1,3.1,1.2
		c0.7,0.2,1.2,0.3,1.2,0.3c0,0-1.6-0.7-3.7-2.3c-1.1-0.8-2.3-1.8-3.6-3.1c-1.3-1.2-2.6-2.6-4.2-4c-1.6-1.4-3.4-2.6-5.2-3.3
		c-1.8-0.7-3.5-0.9-4.9-0.9c-1.4,0.1-2.5,0.3-3.3,0.5c-0.8,0.2-1.1,0.3-1.1,0.3s0.4,0,1.2,0c0.8,0,1.9,0,3.2,0.2
		C159.5,176.7,161,177.2,162.5,177.9z"/>
	<radialGradient id="SVGID_11_" cx="141.3324" cy="124.3574" r="107.7678" gradientUnits="userSpaceOnUse">
		<stop  offset="0.2" style="stop-color:#FFFFFF"/>
		<stop  offset="0.7" style="stop-color:#FFFFFF;stop-opacity:0.6"/>
		<stop  offset="1" style="stop-color:#FFFFFF"/>
	</radialGradient>
	<path class="st11" d="M109.6,182.9c-0.2,0.3-0.4,0.4-0.6,0.5c-0.2,0.1-0.6,0.1-0.9,0.1c-0.6-0.1-1.1-0.3-1.1-0.3c0,0,0,0.1,0.1,0.3
		c0.1,0.2,0.2,0.5,0.5,0.8c0.1,0.1,0.3,0.3,0.5,0.4c-0.5,0.3-1,0.6-1.4,1c-0.3,0.2-0.5,0.4-0.7,0.6c0.1-0.2,0.1-0.5,0.1-0.7
		c0-0.7-0.2-1.1-0.2-1.1c0,0-0.3,0.4-0.7,0.7c-0.4,0.4-0.9,0.7-1.5,0.9c-0.5,0.2-1,0.4-1.6,0.4c-0.5,0-1-0.1-1-0.1c0,0,0,0.4,0.5,1
		c0.3,0.3,0.6,0.5,1.1,0.6c0.5,0.1,1.1,0.1,1.6-0.2c0,0,0,0,0.1,0c-0.7,1-1.3,2-1.6,3.1c-0.7,2-0.7,4-0.4,5.8
		c0.1,0.7,0.3,1.4,0.6,2.1c-0.2,0.2-0.4,0.4-0.7,0.6c-0.6,0.4-1.4,0.5-2.3,0.2c-0.9-0.3-1.6-0.8-1.9-1.4c-0.3-0.7-0.3-1.3-0.4-1.3
		c0,0-0.1,0.1-0.2,0.3c-0.1,0.2-0.3,0.6-0.3,1.1c0,0.5,0.1,1.1,0.4,1.8c0.4,0.6,1,1.1,1.8,1.4c0.8,0.2,1.6,0.2,2.3-0.1
		c0.7-0.3,1.1-0.8,1.3-1.3c0.1-0.2,0.2-0.4,0.2-0.6c0.3,0.7,0.7,1.4,1.1,2c0.9,1.3,1.9,2.2,2.9,2.9c1,0.7,1.9,1.1,2.7,1.4
		c0.8,0.3,1.4,0.4,1.8,0.5c0.4,0.1,0.7,0.1,0.7,0.1s-0.2-0.1-0.6-0.2c-0.4-0.1-1-0.3-1.7-0.7c-0.7-0.4-1.6-0.9-2.5-1.6
		c-0.9-0.7-1.7-1.7-2.5-2.9c-0.7-1.2-1.3-2.7-1.4-4.3c-0.2-1.6-0.1-3.4,0.6-5.1c0.7-1.7,1.8-3.2,3.4-4.4c1.6-1.2,3.5-2,5.6-2.5
		c2.1-0.4,4.2-0.5,6.3-0.6c2.1,0,4.2-0.1,6.1-0.2c2-0.1,3.9-0.3,5.6-0.6c1.7-0.3,3.3-0.8,4.7-1.4c2.8-1.2,4.7-2.8,5.8-4
		c1.2-1.2,1.6-2,1.7-2c0,0-0.2,0.3-0.7,0.7c0.4-0.6,0.5-1.4,0.5-1.4c0,0-1.3-0.3-2.1,0.4c-0.4,0.3-0.7,0.9-0.8,1.3
		c-0.1,0.4-0.1,0.7-0.1,0.7c0,0,0.3,0,0.7-0.1c0.3,0,0.7-0.1,1-0.3c-0.1,0.1-0.3,0.2-0.4,0.3c-1,0.9-2.6,1.9-4.6,2.8
		c0.1-0.3,0.2-0.7,0.2-0.9c0-0.7-0.2-1-0.2-1c0,0-0.3,0.3-0.7,0.7c-0.4,0.4-0.9,0.8-1.4,1c-0.2,0.1-0.4,0.2-0.6,0.3
		c-0.2,0.1-0.5,0.1-0.8,0.1c-0.5,0-1-0.2-1-0.2c0,0,0,0.4,0.5,1c0.1,0.1,0.1,0.2,0.2,0.2c-0.7,0.2-1.4,0.3-2.2,0.4c0,0-0.1,0-0.1,0
		c0.1-0.1,0.2-0.1,0.3-0.2c0.3-0.3,0.5-0.6,0.7-0.9c0.2-0.6,0.1-1,0.2-1c0,0-0.4,0.2-0.8,0.3c-0.5,0.2-1,0.2-1.5,0.3
		c-0.2,0-0.4,0-0.6,0c-0.2,0-0.5-0.1-0.7-0.2c-0.4-0.2-0.8-0.5-0.8-0.4c0,0-0.2,0.4,0,1c0.1,0.3,0.3,0.7,0.7,1
		c0.1,0.1,0.3,0.2,0.5,0.3c-1,0.1-2.1,0.1-3.2,0.1c-0.2,0-0.3,0-0.5,0c0.1-0.1,0.2-0.2,0.2-0.3c0.3-0.4,0.3-0.8,0.4-0.8
		c0,0-0.4,0-0.8-0.1c-0.2,0-0.4-0.1-0.6-0.1c-0.2,0-0.4-0.1-0.5-0.1c-0.2,0-0.3-0.1-0.5-0.1c-0.2,0-0.4-0.1-0.6-0.2
		c-0.4-0.1-0.7-0.3-0.7-0.3c0,0-0.1,0.3,0,0.9c0.1,0.3,0.2,0.6,0.4,0.9c0,0,0.1,0.1,0.1,0.1c-0.9,0-1.9,0-2.9,0c-0.4,0-0.9,0-1.4,0
		c0,0,0,0,0,0c0.3-0.4,0.5-0.9,0.5-1.2c0-0.3,0-0.5,0-0.7c0.2,0.2,0.5,0.3,0.8,0.4c0.5,0.1,1,0.1,1.4,0c0.4-0.1,0.7-0.3,0.9-0.5
		c0.4-0.4,0.6-0.8,0.6-0.8c0,0-0.4,0-0.9-0.1c-0.3-0.1-0.5-0.1-0.8-0.2c-0.3-0.1-0.5-0.1-0.8-0.2c-0.2-0.1-0.5-0.1-0.7-0.2
		c-0.2-0.1-0.5-0.2-0.7-0.3c-0.4-0.2-0.8-0.4-0.8-0.4c0,0-0.1,0.4,0,1c0.1,0.3,0.2,0.7,0.5,1c0,0,0.1,0.1,0.1,0.1
		c-0.1,0.1-0.3,0.3-0.6,0.5c-0.2,0.2-0.5,0.3-0.7,0.4c-0.3,0.1-0.5,0.2-0.8,0.2c-0.3,0-0.5,0-0.9,0c-0.3,0-0.6-0.1-0.9-0.2
		c-0.3-0.1-0.6-0.2-0.7-0.3c0.4-0.2,0.6-0.5,0.8-0.8c0.3-0.5,0.3-1,0.3-1c0,0-0.4,0.1-0.9,0.2c-0.5,0.1-1,0-1.6,0
		c-0.6,0-1.2,0-1.8,0l-0.9,0c0,0,0.1,0.4,0.5,0.8c0.1,0.1,0.3,0.3,0.5,0.5c-0.1,0.1-0.1,0.2-0.2,0.3
		C110.6,181.6,110.1,182.4,109.6,182.9z M112.7,181.2c0.4,0,0.8-0.1,1.2-0.3c0,0.2,0.1,0.5,0.3,0.9c0.1,0.2,0.3,0.5,0.6,0.7
		c-0.6,0.1-1.2,0.2-1.8,0.3c-0.4,0.1-0.9,0.2-1.3,0.4c0.1-0.2,0.1-0.4,0.2-0.6c0.1-0.5,0.1-1,0-1.4c0,0,0,0,0,0
		C112.1,181.2,112.4,181.2,112.7,181.2z"/>
	<radialGradient id="SVGID_12_" cx="141.3324" cy="124.3574" r="107.7678" gradientUnits="userSpaceOnUse">
		<stop  offset="0.2" style="stop-color:#FFFFFF"/>
		<stop  offset="0.7" style="stop-color:#FFFFFF;stop-opacity:0.6"/>
		<stop  offset="1" style="stop-color:#FFFFFF"/>
	</radialGradient>
	<path class="st12" d="M97.9,192.6c0,0,0,0.1,0,0.3c0,0.2,0.1,0.5,0.3,0.9c0.1,0.2,0.3,0.4,0.6,0.5c0.3,0.2,0.6,0.3,1,0.3
		c0.7,0,1.3-0.3,1.8-0.8c0.9-0.9,1.1-2,1.1-2.8c0-0.8-0.3-1.2-0.3-1.2c0,0-0.2,0.4-0.6,1c-0.4,0.5-0.9,1.2-1.5,1.7
		c-0.3,0.3-0.5,0.5-0.7,0.6c-0.1,0.1-0.2,0.1-0.3,0.1c-0.1,0-0.2,0-0.4,0c-0.3-0.1-0.5-0.2-0.7-0.3L97.9,192.6z"/>
	<radialGradient id="SVGID_13_" cx="141.3324" cy="124.3574" r="107.7678" gradientUnits="userSpaceOnUse">
		<stop  offset="0.2" style="stop-color:#FFFFFF"/>
		<stop  offset="0.7" style="stop-color:#FFFFFF;stop-opacity:0.6"/>
		<stop  offset="1" style="stop-color:#FFFFFF"/>
	</radialGradient>
	<path class="st13" d="M111.4,211.4c0.9-0.4,1.5-1,1.9-1.7c0.4-0.6,0.6-1.3,0.7-1.9c0.1-1.1-0.2-1.8-0.2-1.8c0,0-0.2,0.7-0.7,1.4
		c-0.5,0.8-1.4,1.7-2.5,2.2c-0.5,0.3-1.1,0.4-1.5,0.4c-0.4,0-0.9-0.2-1.2-0.5c-0.3-0.3-0.6-0.6-0.7-0.9c-0.2-0.2-0.2-0.4-0.2-0.4
		c0,0,0,0.2-0.1,0.5c0,0.3,0,0.8,0.2,1.3c0.1,0.3,0.3,0.6,0.5,0.9c0.3,0.3,0.6,0.5,1,0.7C109.6,211.9,110.6,211.8,111.4,211.4z"/>
	<radialGradient id="SVGID_14_" cx="141.3324" cy="124.3574" r="107.7678" gradientUnits="userSpaceOnUse">
		<stop  offset="0.2" style="stop-color:#FFFFFF"/>
		<stop  offset="0.7" style="stop-color:#FFFFFF;stop-opacity:0.6"/>
		<stop  offset="1" style="stop-color:#FFFFFF"/>
	</radialGradient>
	<path class="st14" d="M121.6,209.6c0.9-0.6,1.6-1.6,1.9-2.5c0.3-1,0.1-1.9-0.2-2.5c-0.3-0.6-0.7-1-1-1.3c-0.3-0.2-0.5-0.3-0.5-0.3
		c0,0,0.1,0.2,0.2,0.5c0.1,0.3,0.3,0.8,0.3,1.3c0,0.5-0.1,1.1-0.4,1.7c-0.3,0.6-0.8,1.1-1.4,1.5c-0.6,0.4-1.3,0.7-1.9,0.7
		c-0.6,0.1-1.3-0.1-1.8-0.3c-0.5-0.2-0.9-0.5-1.2-0.7c-0.3-0.2-0.4-0.3-0.4-0.3s0,0.2,0.2,0.5c0.1,0.3,0.4,0.8,0.9,1.3
		c0.5,0.5,1.3,1,2.2,1.1C119.5,210.5,120.6,210.2,121.6,209.6z"/>
	<radialGradient id="SVGID_15_" cx="141.3324" cy="124.3574" r="107.7678" gradientUnits="userSpaceOnUse">
		<stop  offset="0.2" style="stop-color:#FFFFFF"/>
		<stop  offset="0.7" style="stop-color:#FFFFFF;stop-opacity:0.6"/>
		<stop  offset="1" style="stop-color:#FFFFFF"/>
	</radialGradient>
	<path class="st15" d="M120.7,201.5c0.3,0.4,0.8,0.9,1.5,1.2c0.8,0.3,1.7,0.2,2.5-0.1c0.8-0.4,1.4-1,1.7-1.7
		c0.4-0.6,0.5-1.3,0.5-1.8c0-0.5-0.1-0.9-0.2-1.2c-0.1-0.3-0.2-0.4-0.2-0.4c0,0-0.1,0.6-0.6,1.4c-0.4,0.7-1.2,1.6-2.2,2
		c-0.5,0.2-0.9,0.3-1.4,0.3c-0.4,0-0.9-0.2-1.3-0.4c-0.8-0.4-1.2-0.9-1.2-0.8c0,0,0,0.2,0.1,0.4
		C120.3,200.7,120.4,201.1,120.7,201.5z"/>
	<radialGradient id="SVGID_16_" cx="141.3324" cy="124.3574" r="107.7678" gradientUnits="userSpaceOnUse">
		<stop  offset="0.2" style="stop-color:#FFFFFF"/>
		<stop  offset="0.7" style="stop-color:#FFFFFF;stop-opacity:0.6"/>
		<stop  offset="1" style="stop-color:#FFFFFF"/>
	</radialGradient>
	<path class="st16" d="M126.8,195.3c-0.6,0.4-1.4,0.7-2,0.7c-0.7,0-1.3-0.1-1.8-0.4c-0.5-0.2-0.9-0.6-1.2-0.8
		c-0.3-0.2-0.4-0.4-0.4-0.4s0,0.2,0.2,0.6c0.1,0.3,0.4,0.9,0.9,1.4c0.5,0.5,1.3,1,2.3,1.2c1,0.2,2.2-0.1,3.2-0.7
		c1-0.7,1.7-1.7,1.9-2.7c0.3-1,0.1-1.9-0.1-2.6c-0.2-0.5-0.5-0.9-0.7-1.2c0.1,0,0.2,0,0.3,0c0.6-0.1,1.2-0.3,1.6-0.7
		c0.4-0.4,0.7-0.8,0.8-1.2c0.2-0.8,0-1.2,0.1-1.2c0,0-0.3,0.4-0.8,0.7c-0.3,0.2-0.5,0.3-0.8,0.4c-0.3,0.1-0.6,0.1-1,0.2
		c-1.5,0.1-3.4,0.2-3.4,0.2c0,0,0.2,0.4,0.8,0.9c0.3,0.2,0.7,0.4,1.1,0.6c0.3,0.1,0.6,0.2,1,0.2c0.1,0.4,0.2,0.9,0.1,1.4
		c0,0.6-0.1,1.3-0.4,1.9C127.9,194.3,127.4,194.9,126.8,195.3z"/>
	<radialGradient id="SVGID_17_" cx="141.3324" cy="124.3574" r="107.7678" gradientUnits="userSpaceOnUse">
		<stop  offset="0.2" style="stop-color:#FFFFFF"/>
		<stop  offset="0.7" style="stop-color:#FFFFFF;stop-opacity:0.6"/>
		<stop  offset="1" style="stop-color:#FFFFFF"/>
	</radialGradient>
	<path class="st17" d="M125.6,179.6c0.3,0.3,0.8,0.5,1.3,0.5c0.5,0,0.9-0.1,1.2-0.3c0.3-0.2,0.6-0.4,0.7-0.7
		c0.3-0.4,0.4-0.8,0.4-0.8c0,0-0.4,0-0.8,0c-0.5,0-1-0.1-1.4-0.1c-0.2,0-0.4,0-0.6,0c-0.2,0-0.4,0-0.6-0.1c-0.4-0.2-0.7-0.4-0.7-0.4
		c0,0-0.2,0.3-0.1,0.9C125.1,179,125.3,179.3,125.6,179.6z"/>
	<radialGradient id="SVGID_18_" cx="141.3324" cy="124.3574" r="107.7678" gradientUnits="userSpaceOnUse">
		<stop  offset="0.2" style="stop-color:#FFFFFF"/>
		<stop  offset="0.7" style="stop-color:#FFFFFF;stop-opacity:0.6"/>
		<stop  offset="1" style="stop-color:#FFFFFF"/>
	</radialGradient>
	<path class="st18" d="M98.5,185c-0.3,0.1-0.5,0.1-0.7,0.2c-0.2,0-0.4,0.1-0.7,0.1c-0.3,0-0.5-0.1-0.8-0.1c-0.5-0.1-0.9-0.3-0.9-0.3
		c0,0,0,0.4,0.3,1c0.2,0.3,0.4,0.6,0.8,0.9c0.4,0.3,1,0.4,1.6,0.3c0.6-0.1,1.1-0.4,1.4-0.7c0.3-0.3,0.5-0.7,0.6-1
		c0.2-0.6,0.1-1,0.1-1c0,0-0.3,0.2-0.8,0.4C99,184.9,98.8,185,98.5,185z"/>
	<radialGradient id="SVGID_19_" cx="141.3324" cy="124.3574" r="107.7678" gradientUnits="userSpaceOnUse">
		<stop  offset="0.2" style="stop-color:#FFFFFF"/>
		<stop  offset="0.7" style="stop-color:#FFFFFF;stop-opacity:0.6"/>
		<stop  offset="1" style="stop-color:#FFFFFF"/>
	</radialGradient>
	<path class="st19" d="M98,189.7c0.2-0.4,0.3-0.8,0.4-1.1c0-0.3,0-0.4,0-0.4c0,0-0.4,0.4-1.1,0.9c-0.7,0.4-1.7,0.9-2.8,1.4
		c-0.5,0.2-1,0.5-1.5,0.6c-0.2,0.1-0.4,0.1-0.5,0.1c-0.1,0-0.2,0-0.3-0.1c-0.2-0.2-0.3-0.6-0.3-0.8c0-0.2-0.1-0.4-0.1-0.4
		c0,0-0.1,0.1-0.2,0.3c-0.1,0.1-0.1,0.3-0.2,0.5c-0.1,0.2-0.1,0.4,0,0.8c0.1,0.3,0.3,0.7,0.6,0.9c0.3,0.2,0.7,0.3,1.1,0.3
		c0.8,0,1.5-0.1,2.2-0.4C96.7,191.6,97.6,190.5,98,189.7z"/>
	<radialGradient id="SVGID_20_" cx="141.3324" cy="124.3574" r="107.7678" gradientUnits="userSpaceOnUse">
		<stop  offset="0.2" style="stop-color:#FFFFFF"/>
		<stop  offset="0.7" style="stop-color:#FFFFFF;stop-opacity:0.6"/>
		<stop  offset="1" style="stop-color:#FFFFFF"/>
	</radialGradient>
	<path class="st20" d="M95.7,194.9c-0.1,0.2-0.4,0.5-0.7,0.8c-0.3,0.3-0.7,0.5-1.2,0.6c-0.4,0.1-0.9,0.1-1.5,0
		c-1-0.2-1.8-0.9-2.2-1.6c-0.2-0.4-0.2-0.8-0.3-1c0-0.3,0-0.4,0-0.4s-0.1,0.1-0.2,0.4c-0.1,0.2-0.3,0.6-0.4,1.2
		c-0.1,0.6,0.1,1.3,0.6,1.9c0.5,0.7,1.2,1.2,2.1,1.4c0.9,0.2,1.8,0.1,2.5-0.3c0.7-0.4,1.1-1,1.3-1.5c0.2-0.5,0.2-1,0.2-1.3
		c0-0.3-0.1-0.4,0-0.4C96,194.5,95.9,194.6,95.7,194.9z"/>
	<radialGradient id="SVGID_21_" cx="141.3324" cy="124.3574" r="107.7678" gradientUnits="userSpaceOnUse">
		<stop  offset="0.2" style="stop-color:#FFFFFF"/>
		<stop  offset="0.7" style="stop-color:#FFFFFF;stop-opacity:0.6"/>
		<stop  offset="1" style="stop-color:#FFFFFF"/>
	</radialGradient>
	<path class="st21" d="M96.2,205.3c0.6-0.6,0.9-1.2,1-1.7c0.1-0.5,0.1-1,0.1-1.3c0-0.3-0.1-0.4,0-0.4c0,0-0.3,0.6-0.9,1.3
		c-0.3,0.3-0.7,0.6-1.1,0.8c-0.4,0.2-1,0.3-1.5,0.3c-1.1,0-2.2-0.4-2.6-1.1c-0.2-0.3-0.3-0.7-0.3-0.9c0-0.3,0.1-0.4,0.1-0.4
		c0,0-0.1,0.1-0.3,0.3c-0.2,0.2-0.4,0.7-0.4,1.3c0.1,0.6,0.4,1.3,1.1,1.8c0.6,0.5,1.5,0.8,2.4,0.9C94.7,206.2,95.6,205.9,96.2,205.3
		z"/>
	<radialGradient id="SVGID_22_" cx="141.3324" cy="124.3574" r="107.7678" gradientUnits="userSpaceOnUse">
		<stop  offset="0.2" style="stop-color:#FFFFFF"/>
		<stop  offset="0.7" style="stop-color:#FFFFFF;stop-opacity:0.6"/>
		<stop  offset="1" style="stop-color:#FFFFFF"/>
	</radialGradient>
	<path class="st22" d="M101.3,208.3c0.1,0.1,0.3,0.2,0.4,0.2c0.7,0.3,1.5,0.4,2.3,0.2c0.8-0.3,1.5-0.8,1.9-1.4
		c0.4-0.6,0.5-1.2,0.5-1.7c0-1-0.3-1.5-0.3-1.5c0,0-0.2,0.6-0.6,1.2c-0.4,0.7-1.1,1.3-2,1.5c-0.9,0.3-1.7,0.2-2.4-0.2
		c0-0.1,0-0.1-0.1-0.2c-0.1-0.3-0.2-0.5-0.2-0.5c0,0,0,0.2-0.1,0.4c-0.5-0.4-0.7-0.7-0.7-0.7c0,0,0,0.1,0,0.4c0,0.3,0.1,0.7,0.3,1.1
		c0,0.1,0.1,0.1,0.1,0.2c0,0.1-0.1,0.2-0.1,0.2c-0.2,0.5-0.5,1-0.9,1.5c-0.4,0.5-0.9,1-1.4,1.3c-0.6,0.4-1.1,0.5-1.7,0.3
		c-0.6-0.2-1.1-0.5-1.5-0.9c0-0.1,0-0.1,0-0.2c0-0.1,0.1-0.2,0.2-0.2c0.2-0.1,0.3-0.2,0.3-0.2s-0.1,0.1-0.3,0c-0.1,0-0.3,0-0.5,0.1
		c-0.2,0.2-0.3,0.4-0.3,0.7l0,0.1l0.1,0.2c0.1,0.3,0.3,0.6,0.5,0.9c0.2,0.3,0.5,0.7,1,0.9c0.4,0.3,1,0.5,1.6,0.5
		c0.6,0,1.2-0.2,1.8-0.5c0.9-0.6,1.4-1.4,1.7-2.1C101.2,209.4,101.3,208.8,101.3,208.3z"/>
	<radialGradient id="SVGID_23_" cx="141.3324" cy="124.3574" r="107.7678" gradientUnits="userSpaceOnUse">
		<stop  offset="0.2" style="stop-color:#FFFFFF"/>
		<stop  offset="0.7" style="stop-color:#FFFFFF;stop-opacity:0.6"/>
		<stop  offset="1" style="stop-color:#FFFFFF"/>
	</radialGradient>
	<path class="st23" d="M108,214.9c0.3-0.3,0.5-0.8,0.6-1.2c0.1-0.4,0-0.8-0.1-1.1c-0.1-0.3-0.2-0.6-0.4-0.8
		c-0.3-0.4-0.6-0.7-0.8-0.8c-0.2-0.2-0.3-0.2-0.3-0.2l0.1,0.4c0.1,0.2,0.1,0.6,0.2,1c0,0.4,0,0.9-0.2,1.2c-0.2,0.3-0.4,0.5-0.9,0.7
		c-0.4,0.2-1,0.3-1.5,0.4c-0.5,0.1-1,0.1-1.5,0.2c-0.9,0-1.5,0-1.5,0c0,0,0.4,0.5,1.3,1c0.4,0.2,1,0.4,1.7,0.5
		c0.7,0.1,1.5,0.1,2.3-0.3C107.4,215.6,107.7,215.3,108,214.9z"/>
	<radialGradient id="SVGID_24_" cx="141.3324" cy="124.3574" r="107.7678" gradientUnits="userSpaceOnUse">
		<stop  offset="0.2" style="stop-color:#FFFFFF"/>
		<stop  offset="0.7" style="stop-color:#FFFFFF;stop-opacity:0.6"/>
		<stop  offset="1" style="stop-color:#FFFFFF"/>
	</radialGradient>
	<path class="st24" d="M117.9,215c0.2-0.7,0.2-1.4,0.1-1.9c-0.2-1-0.6-1.5-0.6-1.5c0,0-0.1,0.6-0.4,1.5c-0.1,0.4-0.3,0.9-0.6,1.3
		c-0.3,0.4-0.6,0.7-1.1,0.9c-0.9,0.5-2.1,0.5-3,0.5c-0.9,0-1.6-0.1-1.6-0.1c0,0,0.4,0.5,1.3,1c0.4,0.3,1,0.5,1.7,0.6
		c0.7,0.1,1.6,0.1,2.4-0.4C117.1,216.5,117.7,215.7,117.9,215z"/>
	<radialGradient id="SVGID_25_" cx="141.3324" cy="124.3574" r="107.7678" gradientUnits="userSpaceOnUse">
		<stop  offset="0.2" style="stop-color:#FFFFFF"/>
		<stop  offset="0.7" style="stop-color:#FFFFFF;stop-opacity:0.6"/>
		<stop  offset="1" style="stop-color:#FFFFFF"/>
	</radialGradient>
	<path class="st25" d="M119.1,213.1c0.2,0.3,0.4,0.6,0.8,0.8c0.4,0.2,0.8,0.4,1.3,0.4c0.9,0,1.8-0.4,2.5-1c1.4-1.1,2.1-2.7,2.3-3.8
		c0.1-0.6,0.1-1,0-1.3c-0.1-0.3-0.1-0.5-0.1-0.5c0,0-0.2,0.7-0.8,1.5c-0.6,0.8-1.5,1.8-2.6,2.7c-0.5,0.4-1.1,0.7-1.5,0.9
		c-0.2,0.1-0.4,0.1-0.6,0c-0.2,0-0.4-0.1-0.6-0.2c-0.4-0.3-0.6-0.6-0.8-0.8c-0.2-0.2-0.3-0.4-0.3-0.4s0,0.2,0,0.5
		C118.8,212,118.8,212.5,119.1,213.1z"/>
	<radialGradient id="SVGID_26_" cx="141.3324" cy="124.3574" r="107.7678" gradientUnits="userSpaceOnUse">
		<stop  offset="0.2" style="stop-color:#FFFFFF"/>
		<stop  offset="0.7" style="stop-color:#FFFFFF;stop-opacity:0.6"/>
		<stop  offset="1" style="stop-color:#FFFFFF"/>
	</radialGradient>
	<path class="st26" d="M128.2,207.6c0.5,0.2,1.3,0.4,2.1,0.2c0.8-0.2,1.7-0.7,2.3-1.4c0.6-0.8,0.9-1.7,0.9-2.5c0-0.8-0.3-1.5-0.6-2
		c-0.3-0.5-0.6-0.8-0.9-1c-0.3-0.2-0.4-0.3-0.4-0.3c0,0,0.3,0.6,0.4,1.6c0.1,1-0.2,2.2-0.9,3.1c-0.4,0.5-0.8,0.8-1.3,1.1
		c-0.5,0.3-1,0.4-1.5,0.4c-0.9,0.1-1.6-0.1-1.6-0.1c0,0,0.1,0.1,0.3,0.3C127.3,207.1,127.7,207.4,128.2,207.6z"/>
	<radialGradient id="SVGID_27_" cx="141.3324" cy="124.3574" r="107.7678" gradientUnits="userSpaceOnUse">
		<stop  offset="0.2" style="stop-color:#FFFFFF"/>
		<stop  offset="0.7" style="stop-color:#FFFFFF;stop-opacity:0.6"/>
		<stop  offset="1" style="stop-color:#FFFFFF"/>
	</radialGradient>
	<path class="st27" d="M136.2,197.4c0.2-0.8,0-1.7-0.4-2.3c-0.4-0.6-0.9-1-1.4-1.2c-0.5-0.2-0.9-0.2-1.1-0.2c-0.3,0-0.4,0-0.4,0
		c0,0,0.5,0.3,1,1c0.2,0.3,0.4,0.7,0.5,1.1c0.1,0.4,0.1,0.9,0,1.3c-0.2,0.9-0.7,1.7-1.4,2.1c-0.7,0.4-1.3,0.5-1.3,0.5
		c0,0,0.1,0.1,0.4,0.2c0.2,0.1,0.6,0.2,1.2,0.2c0.5,0,1.2-0.2,1.7-0.7C135.5,199,136,198.3,136.2,197.4z"/>
	<radialGradient id="SVGID_28_" cx="141.3324" cy="124.3574" r="107.7678" gradientUnits="userSpaceOnUse">
		<stop  offset="0.2" style="stop-color:#FFFFFF"/>
		<stop  offset="0.7" style="stop-color:#FFFFFF;stop-opacity:0.6"/>
		<stop  offset="1" style="stop-color:#FFFFFF"/>
	</radialGradient>
	<path class="st28" d="M137.9,191.7c0.1-0.6-0.1-1.1-0.3-1.5c-0.2-0.4-0.6-0.6-0.8-0.8c-0.6-0.3-1-0.2-1-0.2c0,0,0.2,0.4,0.2,0.9
		c0,0.2,0.1,0.5,0.1,0.7c0,0.2,0,0.4-0.1,0.6c0,0.2,0,0.3-0.1,0.5c-0.1,0.2-0.2,0.4-0.3,0.6c-0.3,0.3-0.6,0.6-0.6,0.6
		c0,0,0.3,0.3,0.9,0.3c0.3,0,0.8-0.1,1.2-0.3C137.5,192.8,137.8,192.3,137.9,191.7z"/>
	<radialGradient id="SVGID_29_" cx="141.3324" cy="124.3574" r="107.7678" gradientUnits="userSpaceOnUse">
		<stop  offset="0.2" style="stop-color:#FFFFFF"/>
		<stop  offset="0.7" style="stop-color:#FFFFFF;stop-opacity:0.6"/>
		<stop  offset="1" style="stop-color:#FFFFFF"/>
	</radialGradient>
	<path class="st29" d="M92.6,185.9c-0.2,0-0.4-0.1-0.6-0.1c-0.2-0.1-0.4-0.1-0.5-0.1c-0.2-0.1-0.4-0.1-0.5-0.3
		c-0.3-0.3-0.4-0.7-0.4-0.7c0,0-0.1,0-0.2,0.2c-0.1,0.1-0.3,0.3-0.3,0.7c-0.1,0.3,0,0.8,0.3,1.2c0.3,0.4,0.7,0.8,1.2,0.9
		c0.5,0.1,1.1,0.1,1.5-0.1c0.4-0.2,0.7-0.5,0.8-0.8c0.3-0.6,0.2-0.9,0.3-0.9c0,0-0.4,0.1-0.8,0.2C93,185.9,92.8,185.9,92.6,185.9z"
		/>
	<radialGradient id="SVGID_30_" cx="141.3324" cy="124.3574" r="107.7678" gradientUnits="userSpaceOnUse">
		<stop  offset="0.2" style="stop-color:#FFFFFF"/>
		<stop  offset="0.7" style="stop-color:#FFFFFF;stop-opacity:0.6"/>
		<stop  offset="1" style="stop-color:#FFFFFF"/>
	</radialGradient>
	<path class="st30" d="M89.1,190.5c-0.2,0.1-0.5,0.1-0.7,0.2c-0.2,0-0.4,0-0.6,0c-0.2,0-0.3,0-0.4,0c-0.2,0-0.4-0.2-0.5-0.3
		c-0.3-0.4-0.5-0.7-0.5-0.7c0,0-0.3,0.2-0.4,0.9c-0.1,0.3,0,0.8,0.3,1.2c0.3,0.5,0.9,0.8,1.5,0.8c0.6,0,1.1-0.2,1.5-0.5
		c0.4-0.3,0.6-0.6,0.7-0.9c0.2-0.6,0.1-1,0.1-1C89.9,190.1,89.6,190.3,89.1,190.5z"/>
	<radialGradient id="SVGID_31_" cx="141.3324" cy="124.3574" r="107.7678" gradientUnits="userSpaceOnUse">
		<stop  offset="0.2" style="stop-color:#FFFFFF"/>
		<stop  offset="0.7" style="stop-color:#FFFFFF;stop-opacity:0.6"/>
		<stop  offset="1" style="stop-color:#FFFFFF"/>
	</radialGradient>
	<path class="st31" d="M85.3,196.8c0,0.3,0,0.7,0.2,1.1c0.2,0.4,0.6,0.8,1.2,1c0.6,0.2,1.3,0,1.6-0.3c0.4-0.3,0.6-0.7,0.7-1
		c0.2-0.6,0.1-1,0.1-1c0,0-0.3,0.2-0.8,0.4c-0.2,0.1-0.5,0.1-0.7,0.1c-0.2,0-0.3-0.1-0.4-0.1c-0.1,0-0.3-0.1-0.5-0.2
		c-0.2-0.1-0.4-0.3-0.6-0.4c-0.4-0.3-0.6-0.6-0.6-0.6C85.6,195.9,85.3,196.2,85.3,196.8z"/>
	<radialGradient id="SVGID_32_" cx="141.3324" cy="124.3574" r="107.7678" gradientUnits="userSpaceOnUse">
		<stop  offset="0.2" style="stop-color:#FFFFFF"/>
		<stop  offset="0.7" style="stop-color:#FFFFFF;stop-opacity:0.6"/>
		<stop  offset="1" style="stop-color:#FFFFFF"/>
	</radialGradient>
	<path class="st32" d="M87.6,205.2c0.8,0,1.4-0.4,1.8-0.8c0.4-0.4,0.6-0.9,0.7-1.3c0.2-0.8,0-1.3,0-1.3c0,0-0.3,0.4-0.8,0.8
		c-0.3,0.2-0.6,0.4-0.9,0.5c-0.3,0.1-0.6,0.2-0.9,0.2c-0.3,0-0.5,0-0.7-0.1c-0.1,0-0.2-0.1-0.2-0.2c-0.1-0.1-0.1-0.2-0.1-0.3
		c0-0.3,0-0.6,0-0.8l0.1-0.3c0,0-0.1,0-0.3,0.1c-0.2,0.1-0.4,0.3-0.7,0.7c-0.1,0.2-0.2,0.4-0.2,0.8c0,0.3,0,0.7,0.3,1
		C86.1,204.9,86.9,205.3,87.6,205.2z"/>
	<radialGradient id="SVGID_33_" cx="141.3324" cy="124.3574" r="107.7678" gradientUnits="userSpaceOnUse">
		<stop  offset="0.2" style="stop-color:#FFFFFF"/>
		<stop  offset="0.7" style="stop-color:#FFFFFF;stop-opacity:0.6"/>
		<stop  offset="1" style="stop-color:#FFFFFF"/>
	</radialGradient>
	<path class="st33" d="M90.9,211.3c0.7,0.2,1.4,0,1.8-0.4c0.4-0.3,0.7-0.8,0.8-1.1c0.2-0.7,0.1-1.1,0.1-1.1c0,0-0.4,0.3-0.8,0.5
		c-0.2,0.1-0.5,0.2-0.7,0.2c-0.2,0-0.4,0-0.6-0.1c-0.2,0-0.4-0.1-0.6-0.3c-0.2-0.1-0.5-0.3-0.7-0.5c-0.4-0.4-0.6-0.8-0.6-0.7
		c0,0-0.2,0.4-0.2,1.1c0,0.3,0.1,0.8,0.3,1.2C89.7,210.7,90.2,211.2,90.9,211.3z"/>
	<radialGradient id="SVGID_34_" cx="141.3324" cy="124.3574" r="107.7678" gradientUnits="userSpaceOnUse">
		<stop  offset="0.2" style="stop-color:#FFFFFF"/>
		<stop  offset="0.7" style="stop-color:#FFFFFF;stop-opacity:0.6"/>
		<stop  offset="1" style="stop-color:#FFFFFF"/>
	</radialGradient>
	<path class="st34" d="M97.4,215.4c-0.7-0.2-1.4-0.4-1.8-0.8c-0.4-0.4-0.4-0.9-0.5-0.9c0,0-0.1,0.1-0.2,0.3c-0.1,0.2-0.3,0.5-0.2,1
		c0,0.4,0.3,1,0.7,1.4c0.4,0.4,0.9,0.8,1.6,0.9c0.6,0.2,1.3,0.1,1.8-0.1c0.5-0.2,1-0.5,1.2-0.9c0.3-0.3,0.3-0.7,0.4-0.9
		c0-0.2,0-0.3,0-0.3c0,0-0.4,0.3-1,0.5C98.8,215.7,98.2,215.6,97.4,215.4z"/>
	<radialGradient id="SVGID_35_" cx="141.3324" cy="124.3574" r="107.7678" gradientUnits="userSpaceOnUse">
		<stop  offset="0.2" style="stop-color:#FFFFFF"/>
		<stop  offset="0.7" style="stop-color:#FFFFFF;stop-opacity:0.6"/>
		<stop  offset="1" style="stop-color:#FFFFFF"/>
	</radialGradient>
	<path class="st35" d="M101.6,219.8c0.4,0.4,1,0.6,1.6,0.7c1.2,0.2,2.3-0.3,2.8-0.8c0.6-0.6,0.6-1,0.6-1c0,0-0.5,0.2-1.1,0.2
		c-0.6,0-1.4,0-2.1-0.2c-0.8-0.1-1.4-0.2-1.8-0.6c-0.2-0.1-0.3-0.3-0.4-0.5c-0.1-0.2-0.1-0.3-0.1-0.3s-0.1,0.1-0.2,0.3
		c-0.1,0.2-0.2,0.5-0.1,1C100.9,219,101.2,219.4,101.6,219.8z"/>
	<radialGradient id="SVGID_36_" cx="141.3324" cy="124.3574" r="107.7678" gradientUnits="userSpaceOnUse">
		<stop  offset="0.2" style="stop-color:#FFFFFF"/>
		<stop  offset="0.7" style="stop-color:#FFFFFF;stop-opacity:0.6"/>
		<stop  offset="1" style="stop-color:#FFFFFF"/>
	</radialGradient>
	<path class="st36" d="M110.3,221.6c0.6,0.4,1.3,0.6,2,0.7c1.5,0.1,2.8-0.4,3.5-1.1c0.8-0.6,0.9-1.2,0.9-1.2c0,0-0.5,0.2-1.3,0.4
		c-0.8,0.1-1.9,0.1-3,0c-1.1-0.1-2.1-0.3-2.6-0.7c-0.3-0.2-0.5-0.5-0.6-0.7c-0.1-0.2-0.1-0.4-0.1-0.4s-0.1,0.1-0.2,0.4
		c-0.1,0.3-0.1,0.7,0.1,1.2C109.3,220.8,109.7,221.3,110.3,221.6z"/>
	<radialGradient id="SVGID_37_" cx="141.3324" cy="124.3574" r="107.7678" gradientUnits="userSpaceOnUse">
		<stop  offset="0.2" style="stop-color:#FFFFFF"/>
		<stop  offset="0.7" style="stop-color:#FFFFFF;stop-opacity:0.6"/>
		<stop  offset="1" style="stop-color:#FFFFFF"/>
	</radialGradient>
	<path class="st37" d="M128.8,217.4c0.7,0.1,1.6,0.1,2.4-0.2c0.8-0.3,1.5-0.9,2-1.4c0.5-0.6,0.7-1.2,0.8-1.7
		c0.2-1.1,0.1-1.7,0.1-1.7c0,0-0.3,0.6-0.9,1.3c-0.6,0.7-1.5,1.4-2.6,1.8c-1.1,0.4-2.3,0.4-3.2,0.3c-0.9-0.1-1.5-0.4-1.5-0.4
		c0,0,0.1,0.3,0.5,0.6c-0.1,0.2-0.4,0.7-0.8,1.4c-0.6,0.8-1.5,1.8-2.5,2.4c-0.5,0.3-1,0.4-1.5,0.4c-0.5,0-1-0.2-1.4-0.4
		c-0.4-0.2-0.8-0.5-1-0.7l-0.4-0.3c0,0,0,0.2,0.1,0.5c0.1,0.3,0.2,0.7,0.6,1.2c0.3,0.5,0.9,1,1.7,1.3c0.4,0.1,0.9,0.2,1.4,0.2
		c0.5,0,1-0.2,1.4-0.4c0.9-0.5,1.5-1.1,1.9-1.8c0.4-0.7,0.6-1.3,0.7-1.9c0.1-0.8,0.1-1.4,0-1.6c0.2,0.2,0.3,0.3,0.6,0.5
		C127.5,216.9,128.1,217.2,128.8,217.4z"/>
	<radialGradient id="SVGID_38_" cx="141.3324" cy="124.3574" r="107.7678" gradientUnits="userSpaceOnUse">
		<stop  offset="0.2" style="stop-color:#FFFFFF"/>
		<stop  offset="0.7" style="stop-color:#FFFFFF;stop-opacity:0.6"/>
		<stop  offset="1" style="stop-color:#FFFFFF"/>
	</radialGradient>
	<path class="st38" d="M136.7,211.7c0.7-0.2,1.5-0.7,2-1.4c0.5-0.7,0.8-1.5,0.8-2.2c0.1-0.7,0-1.3-0.2-1.8c-0.3-1-0.8-1.4-0.7-1.4
		c0,0,0,0.6-0.2,1.5c-0.2,0.9-0.6,1.9-1.2,2.8c-0.3,0.4-0.7,0.8-1.1,1c-0.4,0.3-0.8,0.4-1.3,0.5c-0.8,0.2-1.5,0.2-1.5,0.2
		c0,0,0.4,0.4,1.4,0.8C135.3,211.9,135.9,211.9,136.7,211.7z"/>
	<radialGradient id="SVGID_39_" cx="141.3324" cy="124.3574" r="107.7678" gradientUnits="userSpaceOnUse">
		<stop  offset="0.2" style="stop-color:#FFFFFF"/>
		<stop  offset="0.7" style="stop-color:#FFFFFF;stop-opacity:0.6"/>
		<stop  offset="1" style="stop-color:#FFFFFF"/>
	</radialGradient>
	<path class="st39" d="M141,204.1c0.3-0.1,0.6-0.4,0.9-0.6c0.5-0.6,0.7-1.4,0.7-2.1c0-1.5-0.8-2.6-1.4-3.2c-0.7-0.6-1.3-0.7-1.3-0.7
		c0,0,0.3,0.5,0.4,1.2c0.2,0.7,0.3,1.7,0.3,2.7c0,0.5,0,0.9-0.1,1.2c0,0.2-0.1,0.3-0.2,0.4c-0.1,0.1-0.2,0.2-0.4,0.3
		c-0.3,0.1-0.6,0.2-0.9,0.2c-0.2,0-0.4,0-0.4,0s0.1,0.1,0.3,0.2c0.2,0.1,0.5,0.4,1,0.4C140.4,204.3,140.7,204.2,141,204.1z"/>
	<radialGradient id="SVGID_40_" cx="141.3324" cy="124.3574" r="107.7678" gradientUnits="userSpaceOnUse">
		<stop  offset="0.2" style="stop-color:#FFFFFF"/>
		<stop  offset="0.7" style="stop-color:#FFFFFF;stop-opacity:0.6"/>
		<stop  offset="1" style="stop-color:#FFFFFF"/>
	</radialGradient>
	<path class="st40" d="M143.7,195.8c0.3-0.6,0.4-1.4,0.2-2.2c-0.2-1.5-1.2-2.6-2-3.1c-0.8-0.5-1.4-0.5-1.4-0.5c0,0,0.4,0.4,0.7,1.1
		c0.4,0.7,0.7,1.7,0.8,2.7c0.2,1,0.1,1.9-0.2,2.6c-0.3,0.7-0.8,1-0.8,1c0,0,0.1,0,0.4,0c0.3,0,0.6-0.1,1.1-0.4
		C143,196.9,143.4,196.4,143.7,195.8z"/>
	<radialGradient id="SVGID_41_" cx="141.3324" cy="124.3574" r="107.7678" gradientUnits="userSpaceOnUse">
		<stop  offset="0.2" style="stop-color:#FFFFFF"/>
		<stop  offset="0.7" style="stop-color:#FFFFFF;stop-opacity:0.6"/>
		<stop  offset="1" style="stop-color:#FFFFFF"/>
	</radialGradient>
	<path class="st41" d="M118.6,191.3c0.3,0.4,0.6,0.8,1.3,1.1c0.3,0.2,0.7,0.3,1.1,0.3c0.4,0,0.9-0.1,1.3-0.3
		c0.4-0.2,0.7-0.5,0.9-0.9c0.2-0.3,0.3-0.6,0.4-1c0.1-0.6,0.1-1.2,0-1.6c-0.2-0.9-0.5-1.3-0.5-1.3c0,0-0.1,0.5-0.4,1.2
		c-0.1,0.4-0.3,0.7-0.5,1.1c-0.2,0.3-0.5,0.6-0.7,0.8c-0.2,0.1-0.5,0.2-0.9,0.2c-0.4,0-0.8-0.2-1.1-0.3c-0.7-0.3-1.2-0.5-1.2-0.5
		C118,190.1,118.1,190.6,118.6,191.3z"/>
	<radialGradient id="SVGID_42_" cx="141.3324" cy="124.3574" r="107.7678" gradientUnits="userSpaceOnUse">
		<stop  offset="0.2" style="stop-color:#FFFFFF"/>
		<stop  offset="0.7" style="stop-color:#FFFFFF;stop-opacity:0.6"/>
		<stop  offset="1" style="stop-color:#FFFFFF"/>
	</radialGradient>
	<path class="st42" d="M120.3,197.3c0.3-0.4,0.3-0.9,0.3-1.2c0-0.7-0.3-1-0.3-1c0,0-0.3,0.4-0.6,0.7c-0.2,0.2-0.4,0.4-0.6,0.5
		c-0.2,0.1-0.4,0.2-0.6,0.2c-0.2,0.1-0.4,0.1-0.6,0.1c-0.2,0-0.5-0.1-0.7-0.2c-0.5-0.2-0.8-0.5-0.8-0.5c0,0-0.1,0.4,0.1,1.1
		c0.1,0.3,0.3,0.7,0.8,1c0.4,0.3,1.1,0.5,1.7,0.3C119.6,198.2,120.1,197.7,120.3,197.3z"/>
	<radialGradient id="SVGID_43_" cx="141.3324" cy="124.3574" r="107.7678" gradientUnits="userSpaceOnUse">
		<stop  offset="0.2" style="stop-color:#FFFFFF"/>
		<stop  offset="0.7" style="stop-color:#FFFFFF;stop-opacity:0.6"/>
		<stop  offset="1" style="stop-color:#FFFFFF"/>
	</radialGradient>
	<path class="st43" d="M118.8,202.9c-0.5,0.4-1.1,0.7-1.6,0.9c-0.3,0.1-0.5,0.1-0.7,0c-0.2,0-0.5-0.2-0.8-0.4
		c-0.5-0.4-0.8-0.7-0.8-0.7c0,0-0.2,0.4,0,1.2c0.1,0.4,0.3,0.9,0.8,1.3c0.5,0.4,1.3,0.6,2,0.5c0.7-0.2,1.2-0.6,1.5-1
		c0.3-0.4,0.5-0.9,0.5-1.3c0.1-0.8-0.1-1.2-0.1-1.2C119.6,202.2,119.3,202.5,118.8,202.9z"/>
	<radialGradient id="SVGID_44_" cx="141.3324" cy="124.3574" r="107.7678" gradientUnits="userSpaceOnUse">
		<stop  offset="0.2" style="stop-color:#FFFFFF"/>
		<stop  offset="0.7" style="stop-color:#FFFFFF;stop-opacity:0.6"/>
		<stop  offset="1" style="stop-color:#FFFFFF"/>
	</radialGradient>
	<path class="st44" d="M132.4,187.9c0.5,0.4,1.2,0.6,1.9,0.5c0.7-0.1,1.2-0.4,1.6-0.8c0.4-0.4,0.6-0.8,0.7-1.2
		c0.2-0.8,0-1.2,0.1-1.2c0,0-0.3,0.3-0.8,0.7c-0.5,0.3-1.2,0.6-1.8,0.7c-0.3,0-0.6,0-0.8,0c-0.2,0-0.5-0.2-0.8-0.3
		c-0.5-0.3-0.7-0.8-0.8-0.7c0,0-0.2,0.4-0.1,1.2C131.7,187,131.9,187.5,132.4,187.9z"/>
	<radialGradient id="SVGID_45_" cx="141.3324" cy="124.3574" r="107.7678" gradientUnits="userSpaceOnUse">
		<stop  offset="0.2" style="stop-color:#FFFFFF"/>
		<stop  offset="0.7" style="stop-color:#FFFFFF;stop-opacity:0.6"/>
		<stop  offset="1" style="stop-color:#FFFFFF"/>
	</radialGradient>
	<path class="st45" d="M140.1,187.5c0.3,0,0.7-0.2,1-0.5c0.3-0.3,0.4-0.6,0.4-0.9c0-0.3,0-0.5-0.1-0.7c-0.1-0.4-0.3-0.6-0.3-0.6
		c0,0-0.3,0.2-0.6,0.3c-0.3,0.2-0.7,0.4-0.8,0.6c-0.1,0.1-0.1,0.1-0.1,0.2c0,0.1-0.1,0.2-0.3,0.4c-0.2,0.2-0.5,0.4-0.5,0.4
		c0,0,0.1,0.3,0.5,0.5C139.5,187.4,139.8,187.5,140.1,187.5z"/>
	<radialGradient id="SVGID_46_" cx="141.3324" cy="124.3574" r="107.7678" gradientUnits="userSpaceOnUse">
		<stop  offset="0.2" style="stop-color:#FFFFFF"/>
		<stop  offset="0.7" style="stop-color:#FFFFFF;stop-opacity:0.6"/>
		<stop  offset="1" style="stop-color:#FFFFFF"/>
	</radialGradient>
	<path class="st46" d="M120.8,187.5c0.5,0.1,0.9,0,1.3-0.2c0.4-0.1,0.7-0.4,0.9-0.6c0.4-0.4,0.5-0.8,0.5-0.8c0,0-0.4,0-0.9-0.1
		c-0.5-0.1-1-0.2-1.5-0.3c-0.2,0-0.5-0.1-0.7-0.1c-0.2,0-0.5-0.1-0.7-0.1c-0.5-0.1-0.8-0.3-0.8-0.3c0,0-0.1,0.4,0.2,0.9
		c0.1,0.3,0.3,0.6,0.6,0.9C119.9,187.2,120.3,187.5,120.8,187.5z"/>
	<radialGradient id="SVGID_47_" cx="141.3324" cy="124.3574" r="107.7678" gradientUnits="userSpaceOnUse">
		<stop  offset="0.2" style="stop-color:#FFFFFF"/>
		<stop  offset="0.7" style="stop-color:#FFFFFF;stop-opacity:0.6"/>
		<stop  offset="1" style="stop-color:#FFFFFF"/>
	</radialGradient>
	<path class="st47" d="M97.1,181.9c-0.2,0-0.4,0-0.7,0l-0.5-0.1c-0.2,0-0.3,0-0.5,0c-0.2,0-0.4-0.1-0.6-0.1
		c-0.4-0.1-0.7-0.3-0.7-0.3c0,0-0.1,0.3,0,0.9c0.1,0.3,0.2,0.6,0.5,0.9c0.3,0.3,0.7,0.5,1.2,0.6c0.5,0.1,0.9-0.1,1.3-0.3
		c0.3-0.2,0.5-0.5,0.7-0.7c0.1-0.2,0.1-0.3,0.2-0.4c0.1-0.2,0.1-0.4,0.1-0.4C97.9,181.8,97.6,181.9,97.1,181.9
		C97.1,181.9,97.1,181.9,97.1,181.9z"/>
	<radialGradient id="SVGID_48_" cx="141.3324" cy="124.3574" r="107.7678" gradientUnits="userSpaceOnUse">
		<stop  offset="0.2" style="stop-color:#FFFFFF"/>
		<stop  offset="0.7" style="stop-color:#FFFFFF;stop-opacity:0.6"/>
		<stop  offset="1" style="stop-color:#FFFFFF"/>
	</radialGradient>
	<path class="st48" d="M102.4,179.3c-0.2,0-0.4,0-0.6-0.1c-0.2,0-0.2-0.1-0.2-0.1c0,0-0.1,0-0.2-0.1c-0.1-0.1-0.3-0.2-0.5-0.3
		c-0.3-0.2-0.6-0.4-0.6-0.4c0,0-0.2,0.3-0.3,0.7c-0.1,0.2-0.1,0.5,0,0.9c0,0.2,0.1,0.4,0.3,0.5c0.1,0.2,0.4,0.3,0.6,0.4
		c0.3,0.1,0.5,0.1,0.8,0.1c0.2,0,0.4-0.1,0.6-0.2c0.2-0.1,0.3-0.2,0.4-0.3c0,0.2-0.1,0.4,0,0.6c0,0.4,0.2,0.9,0.6,1.3
		c0.4,0.4,1,0.7,1.6,0.7c0.6,0,1.2-0.1,1.6-0.4c0.4-0.2,0.8-0.5,1-0.9c0.4-0.6,0.4-1.1,0.4-1.1c0,0-0.4,0.2-1,0.3
		c-0.6,0.1-1.3,0.1-1.9,0.1c-0.3,0-0.6-0.1-0.8-0.1c-0.2-0.1-0.5-0.2-0.7-0.3c-0.3-0.2-0.4-0.5-0.5-0.7c0.2-0.4,0.2-0.7,0.2-0.7
		L102.4,179.3z"/>
	<radialGradient id="SVGID_49_" cx="141.3324" cy="124.3574" r="107.7678" gradientUnits="userSpaceOnUse">
		<stop  offset="0.2" style="stop-color:#FFFFFF"/>
		<stop  offset="0.7" style="stop-color:#FFFFFF;stop-opacity:0.6"/>
		<stop  offset="1" style="stop-color:#FFFFFF"/>
	</radialGradient>
	<path class="st49" d="M106.3,179.1c0.3,0.1,0.6,0.1,0.9,0c0.2-0.1,0.4-0.2,0.5-0.3c0.3-0.3,0.3-0.6,0.3-0.6l-0.5-0.4
		c-0.3-0.2-0.5-0.4-0.5-0.5c-0.1,0-0.1,0-0.2,0c-0.1,0-0.2,0-0.4,0c-0.3-0.1-0.6-0.2-0.6-0.2c0,0-0.2,0.2-0.3,0.6
		c0,0.2,0,0.4,0.1,0.7C105.8,178.7,106,179,106.3,179.1z"/>
	<radialGradient id="SVGID_50_" cx="141.3324" cy="124.3574" r="107.7678" gradientUnits="userSpaceOnUse">
		<stop  offset="0.2" style="stop-color:#FFFFFF"/>
		<stop  offset="0.7" style="stop-color:#FFFFFF;stop-opacity:0.6"/>
		<stop  offset="1" style="stop-color:#FFFFFF"/>
	</radialGradient>
	<path class="st50" d="M111.1,178.8c0.3,0.1,0.6,0.1,0.8,0.1c0.2-0.1,0.4-0.2,0.5-0.3c0.3-0.3,0.3-0.5,0.3-0.5s-0.2-0.2-0.4-0.4
		c-0.2-0.2-0.3-0.5-0.4-0.5c-0.1,0-0.1,0-0.2,0c-0.1,0-0.2,0-0.4,0c-0.3,0-0.5-0.2-0.5-0.2c0,0-0.3,0.1-0.4,0.5
		c-0.1,0.2-0.1,0.5,0.1,0.7C110.6,178.4,110.8,178.6,111.1,178.8z"/>
	<radialGradient id="SVGID_51_" cx="141.3324" cy="124.3574" r="107.7678" gradientUnits="userSpaceOnUse">
		<stop  offset="0.2" style="stop-color:#FFFFFF"/>
		<stop  offset="0.7" style="stop-color:#FFFFFF;stop-opacity:0.6"/>
		<stop  offset="1" style="stop-color:#FFFFFF"/>
	</radialGradient>
	<path class="st51" d="M115.7,178.7c0.3,0.1,0.5-0.1,0.8-0.3c0.2-0.2,0.4-0.4,0.4-0.4s0-0.3-0.2-0.5c-0.1-0.3-0.3-0.6-0.6-0.6
		c-0.3-0.1-0.5,0.1-0.7,0.3l-0.4,0.3c0,0,0,0.3,0.1,0.6C115.2,178.3,115.4,178.6,115.7,178.7z"/>
	<radialGradient id="SVGID_52_" cx="141.3324" cy="124.3574" r="107.7678" gradientUnits="userSpaceOnUse">
		<stop  offset="0.2" style="stop-color:#FFFFFF"/>
		<stop  offset="0.7" style="stop-color:#FFFFFF;stop-opacity:0.6"/>
		<stop  offset="1" style="stop-color:#FFFFFF"/>
	</radialGradient>
	<path class="st52" d="M120.9,178.7c0.2,0,0.5-0.2,0.7-0.3c0.2-0.2,0.4-0.4,0.4-0.4s0-0.3-0.2-0.6c-0.1-0.3-0.4-0.6-0.8-0.6
		c-0.7-0.1-1.2,0.9-1.2,0.9C119.9,177.7,120.4,178.7,120.9,178.7z"/>
	<radialGradient id="SVGID_53_" cx="141.3324" cy="124.3574" r="107.7678" gradientUnits="userSpaceOnUse">
		<stop  offset="0.2" style="stop-color:#FFFFFF"/>
		<stop  offset="0.7" style="stop-color:#FFFFFF;stop-opacity:0.6"/>
		<stop  offset="1" style="stop-color:#FFFFFF"/>
	</radialGradient>
	<path class="st53" d="M131.2,179c0.4,0.1,0.7-0.1,1-0.3c0.3-0.2,0.4-0.5,0.4-0.5s-0.1-0.2-0.3-0.5c-0.2-0.2-0.3-0.5-0.6-0.6
		c-0.2-0.1-0.5,0.1-0.8,0.2c-0.3,0.2-0.5,0.3-0.5,0.3s0,0.3,0.1,0.6C130.6,178.6,130.8,178.9,131.2,179z"/>
	<radialGradient id="SVGID_54_" cx="141.3324" cy="124.3574" r="107.7678" gradientUnits="userSpaceOnUse">
		<stop  offset="0.2" style="stop-color:#FFFFFF"/>
		<stop  offset="0.7" style="stop-color:#FFFFFF;stop-opacity:0.6"/>
		<stop  offset="1" style="stop-color:#FFFFFF"/>
	</radialGradient>
	<path class="st54" d="M138.4,178.1c0.4,0,0.7-0.3,0.9-0.6c0.2-0.3,0.3-0.6,0.3-0.6s-0.2-0.2-0.5-0.4c-0.3-0.2-0.6-0.4-1-0.3
		c-0.4,0.1-0.7,0.3-0.9,0.6c-0.2,0.3-0.3,0.6-0.3,0.6c0,0,0.2,0.2,0.5,0.4C137.7,178,138.1,178.2,138.4,178.1z"/>
	<radialGradient id="SVGID_55_" cx="141.3324" cy="124.3574" r="107.7678" gradientUnits="userSpaceOnUse">
		<stop  offset="0.2" style="stop-color:#FFFFFF"/>
		<stop  offset="0.7" style="stop-color:#FFFFFF;stop-opacity:0.6"/>
		<stop  offset="1" style="stop-color:#FFFFFF"/>
	</radialGradient>
	<path class="st55" d="M133.8,178.9c0.3,0,0.5-0.2,0.7-0.4c0.1-0.2,0.2-0.5,0.2-0.5c0,0-0.4-0.9-0.5-1c-0.1,0-0.3,0.2-0.5,0.4
		c-0.2,0.2-0.4,0.3-0.4,0.3c0,0,0,0.2,0,0.5C133.4,178.5,133.5,178.8,133.8,178.9z"/>
	<radialGradient id="SVGID_56_" cx="141.3324" cy="124.3574" r="107.7678" gradientUnits="userSpaceOnUse">
		<stop  offset="0.2" style="stop-color:#FFFFFF"/>
		<stop  offset="0.7" style="stop-color:#FFFFFF;stop-opacity:0.6"/>
		<stop  offset="1" style="stop-color:#FFFFFF"/>
	</radialGradient>
	<path class="st56" d="M178,213.7c-0.9,1.6-2.2,3.1-3.7,4.5c-1.6,1.4-3.2,2.6-4.8,3.5c-1.6,1-3.1,1.8-4.4,2.4
		c-2.6,1.2-4.3,1.7-4.3,1.8c0,0,1.8-0.1,4.6-0.9c1.4-0.4,3.1-1,4.8-1.8c1.7-0.9,3.6-2,5.3-3.5c1.7-1.5,3.1-3.3,3.9-5.2
		c0.8-1.9,1.1-3.7,0.9-5.2c-0.1-1.5-0.5-2.6-0.9-3.4c-0.3-0.7-0.6-1.1-0.6-1.1s0.1,0.4,0.3,1.2c0.2,0.8,0.3,1.9,0.2,3.3
		C179.3,210.6,178.9,212.1,178,213.7z"/>
	<radialGradient id="SVGID_57_" cx="141.3324" cy="124.3574" r="107.7678" gradientUnits="userSpaceOnUse">
		<stop  offset="0.2" style="stop-color:#FFFFFF"/>
		<stop  offset="0.7" style="stop-color:#FFFFFF;stop-opacity:0.6"/>
		<stop  offset="1" style="stop-color:#FFFFFF"/>
	</radialGradient>
	<path class="st57" d="M178,114.4l-0.6,0.3c0.1,0,0.3,0.1,0.3,0.1c0.1,0,0.2-0.1,0.4-0.1c0.5-0.1,1.1-0.3,1.9-0.5
		c0.7-0.2,1.5-0.2,2.4-0.1c0.9,0.2,1.7,0.6,2.7,1.2c0.9,0.6,1.8,1.3,2.7,2.1c0.9,0.8,1.6,1.8,2.2,2.9c0.3,0.6,0.5,1.1,0.6,1.8
		c0.1,0.3,0.1,0.6,0.2,0.9c0,0.3,0.1,0.7,0.1,0.9c-0.1,2.6-1.4,5.2-1.5,8c0,0.7,0.1,1.4,0.2,2c0,0.1,0.1,0.3,0.2,0.5
		c0.1,0.2,0.1,0.3,0.2,0.4c0.1,0.3,0.3,0.5,0.4,0.8c0.6,1,1.3,1.8,1.7,2.6c0.2,0.4,0.3,0.7,0.3,1.1c0,0.3-0.1,0.6-0.4,0.9
		c-0.4,0.5-1,0.9-1.4,1.2c-0.9,0.6-1.4,0.8-1.4,0.8c0,0,0.6-0.1,1.6-0.5c0.5-0.2,1.1-0.5,1.7-1c0.3-0.3,0.6-0.7,0.7-1.2
		c0.1-0.5-0.1-1.1-0.2-1.5c-0.4-1-1-1.8-1.4-2.8c-0.1-0.2-0.2-0.5-0.3-0.7c-0.1-0.1-0.1-0.3-0.1-0.4c0-0.1-0.1-0.2-0.1-0.3
		c-0.1-0.5-0.1-1.1-0.1-1.6c0.1-1.1,0.5-2.3,0.9-3.6c0.4-1.3,0.8-2.7,0.9-4.4c0-0.4,0-0.8-0.1-1.2c-0.1-0.4-0.1-0.8-0.2-1.1
		c-0.2-0.8-0.5-1.5-0.8-2.1c-0.7-1.3-1.7-2.4-2.7-3.2c-1-0.9-2.1-1.5-3.1-2c-0.8-0.4-1.5-0.7-2.3-0.8c-0.2,0-0.4,0-0.5,0
		c-0.9,0-1.8,0.1-2.7,0.2c-0.1,0-0.2,0.1-0.3,0.1C179,113.9,178.5,114.2,178,114.4z"/>
	<radialGradient id="SVGID_58_" cx="141.3324" cy="124.3574" r="107.7678" gradientUnits="userSpaceOnUse">
		<stop  offset="0.2" style="stop-color:#FFFFFF"/>
		<stop  offset="0.7" style="stop-color:#FFFFFF;stop-opacity:0.6"/>
		<stop  offset="1" style="stop-color:#FFFFFF"/>
	</radialGradient>
	<path class="st58" d="M211.6,153.6c-0.1-3.3-0.3-6.5-1-9.3c-0.6-2.8-1.7-5.2-2.9-7c-1.2-1.8-2.4-3-3.2-3.7
		c-0.1-0.1-0.2-0.2-0.3-0.3c0.1,0.3,0.3,0.6,0.4,1c0.7,0.9,1.5,2.1,2.3,3.6c0.9,1.8,1.7,4.1,2.1,6.8c0.2,1.2,0.3,2.6,0.4,3.9
		c0.8,3.1,1.5,6.1,2.2,8.9c0-0.5,0-1,0-1.5C211.6,155.3,211.6,154.4,211.6,153.6z"/>
	<radialGradient id="SVGID_59_" cx="141.3324" cy="124.3574" r="107.7678" gradientUnits="userSpaceOnUse">
		<stop  offset="0.2" style="stop-color:#FFFFFF"/>
		<stop  offset="0.7" style="stop-color:#FFFFFF;stop-opacity:0.6"/>
		<stop  offset="1" style="stop-color:#FFFFFF"/>
	</radialGradient>
	<path class="st59" d="M184.6,109.8c1.4,0.2,3,0.6,4.5,1.5c1.5,0.9,2.8,2.4,4.1,4.1c0,0.1,0.1,0.1,0.1,0.2c1.5,1,3.1,2.3,4.5,3.6
		c0.3,0.2,0.5,0.5,0.8,0.7c-0.1-0.2-0.3-0.4-0.4-0.5c-1.1-1.5-2.2-3.3-3.5-5.1c-0.7-0.9-1.4-1.7-2.2-2.5c-0.8-0.7-1.7-1.4-2.6-1.8
		c-0.9-0.5-1.9-0.8-2.8-0.9c-0.9-0.2-1.7-0.2-2.5-0.2c-1.5,0.1-2.7,0.4-3.4,0.6c-0.8,0.2-1.2,0.4-1.2,0.4c0,0,0.4-0.1,1.2-0.1
		C182,109.7,183.2,109.7,184.6,109.8z"/>
	<radialGradient id="SVGID_60_" cx="141.3324" cy="124.3574" r="107.7678" gradientUnits="userSpaceOnUse">
		<stop  offset="0.2" style="stop-color:#FFFFFF"/>
		<stop  offset="0.7" style="stop-color:#FFFFFF;stop-opacity:0.6"/>
		<stop  offset="1" style="stop-color:#FFFFFF"/>
	</radialGradient>
	<path class="st60" d="M162.2,171.7l-2.7-0.3c-0.8-0.1-1.8-0.2-2.9-0.3c-1.1-0.1-2.3-0.1-3.6,0.1c-1.3,0.1-2.6,0.5-3.6,1
		c-1.1,0.5-1.9,1.2-2.5,1.9c-0.6,0.6-0.9,1.3-1.1,1.7c-0.2,0.4-0.3,0.7-0.3,0.7s0.2-0.2,0.5-0.5c0.3-0.3,0.9-0.7,1.5-1.1
		c0.7-0.4,1.5-0.8,2.5-1.1c1-0.3,2.1-0.5,3.3-0.6c1.1-0.1,2.3-0.2,3.3-0.3c-0.3,0-0.7,0.1-1,0.2c-2.3,0.4-4,1-5.1,1.7
		c-1.1,0.6-1.6,1.2-1.6,1.2c0,0,0.5-0.5,1.7-0.9c1.1-0.5,2.9-0.9,5.1-1c2.2-0.1,4.8-0.1,7.7,0.4c1.4,0.2,2.9,0.5,4.4,1
		c0.7,0.2,1.4,0.5,2.1,0.9c0.7,0.4,1.3,0.8,2,1.3c2.6,2,4.9,4.4,7.5,6.1c1.3,0.8,2.5,1.5,3.5,2.2c1,0.7,1.9,1.5,2.5,2.4
		c0.7,0.8,1.1,1.7,1.5,2.5c0.4,0.8,0.6,1.5,0.8,2.1c0.4,1.2,0.6,1.8,0.6,1.8s-0.1-0.7-0.4-1.9c-0.1-0.6-0.3-1.4-0.6-2.2
		c-0.3-0.9-0.6-1.9-1.2-2.9c-0.6-1-1.5-2-2.5-2.9c-1-0.9-2.2-1.7-3.4-2.5c-1.2-0.8-2.3-1.8-3.4-2.9c-1.2-1.1-2.4-2.3-3.8-3.3
		c-0.7-0.5-1.5-1-2.3-1.4c-0.8-0.4-1.6-0.7-2.4-1c-1.6-0.5-3.2-0.7-4.7-0.9c-2-0.2-3.8-0.2-5.5,0c0.5-0.1,1-0.1,1.5-0.2
		C161.2,172,162.2,171.7,162.2,171.7z"/>
	<radialGradient id="SVGID_61_" cx="141.3324" cy="124.3574" r="107.7678" gradientUnits="userSpaceOnUse">
		<stop  offset="0.2" style="stop-color:#FFFFFF"/>
		<stop  offset="0.7" style="stop-color:#FFFFFF;stop-opacity:0.6"/>
		<stop  offset="1" style="stop-color:#FFFFFF"/>
	</radialGradient>
	<path class="st61" d="M117.3,106.9c-0.2-0.4-0.4-0.8-0.6-1.1c-0.4-0.7-0.9-1.3-1.4-1.9c-1-1.2-2-2.3-3-3.2c-1-0.9-2.1-1.7-3.1-2.3
		c-1.1-0.6-2.1-1.1-3.2-1.2c-0.5-0.1-1.1-0.1-1.7,0.1c-0.5,0.2-1,0.5-1.2,0.9c-0.2,0.4-0.4,0.8-0.4,1.1c-0.1,0.3-0.1,0.6-0.1,0.9
		c0,0.5,0.1,0.9,0.1,1.2c0.1,0.3,0.1,0.4,0.1,0.4c0,0,0-0.6,0.3-1.6c0.1-0.3,0.2-0.5,0.3-0.8c0.1-0.3,0.3-0.5,0.5-0.7
		c0.2-0.2,0.5-0.3,0.8-0.3c0.3,0,0.7,0.1,1.1,0.2c0.8,0.3,1.6,0.8,2.5,1.5c0.9,0.7,1.8,1.4,2.7,2.3c0.7,0.7,1.5,1.5,2.2,2.3
		c-0.3-0.1-0.6-0.2-0.9-0.3c-0.9-0.3-1.8-0.5-2.7-0.7c-0.9-0.2-1.8-0.4-2.5-0.6c-0.7-0.3-1.3-0.6-1.8-1c-0.5-0.4-0.8-0.8-1-1.1
		c-0.2-0.3-0.3-0.5-0.3-0.5c0,0,0,0.2,0,0.6c0,0.4,0.2,0.9,0.5,1.6c0.4,0.6,1,1.3,1.8,1.8c0.8,0.5,1.8,0.8,2.8,1
		c0.9,0.2,1.7,0.3,2.4,0.4c-0.3,0-0.6,0.1-0.8,0.1c-1.1,0.1-2,0.4-2.8,0.4c-0.8,0.1-1.4,0-1.9-0.3c-0.5-0.3-0.9-0.8-1.1-1.2
		c-0.3-0.5-0.4-1-0.6-1.3c-0.3-0.8-0.4-1.2-0.4-1.2c0,0-0.1,0.5-0.1,1.4c0,0.4,0,1,0.2,1.7c0.1,0.3,0.2,0.7,0.4,1
		c0.2,0.4,0.5,0.7,0.9,1c0.4,0.3,0.9,0.5,1.4,0.7c0.5,0.1,1,0.2,1.5,0.2c1,0,2-0.1,3-0.2c1-0.1,2-0.1,2.7,0.2
		c0.4,0.1,0.8,0.3,1.1,0.6c0.3,0.2,1.5,1.9,2.1,2.8c0.1,1.1,0.1,2.2,0.1,3.4c0,2.9-0.2,5.5-0.6,7.4c-0.4,1.9-0.9,3-0.9,3
		c0,0,0.9-0.9,1.8-2.7c0.9-1.8,1.6-4.6,1.6-7.7c0-3-0.6-5.6-1.5-7.5C117.5,107.4,117.4,107.2,117.3,106.9z M114.8,106.8
		C114.8,106.8,114.8,106.8,114.8,106.8c0.1,0.1,0.1,0.2,0.2,0.3C115,107.1,114.9,106.9,114.8,106.8z"/>
	<radialGradient id="SVGID_62_" cx="141.3324" cy="124.3574" r="107.7678" gradientUnits="userSpaceOnUse">
		<stop  offset="0.2" style="stop-color:#FFFFFF"/>
		<stop  offset="0.7" style="stop-color:#FFFFFF;stop-opacity:0.6"/>
		<stop  offset="1" style="stop-color:#FFFFFF"/>
	</radialGradient>
	<path class="st62" d="M137.6,121.6c0.7,1.8,1.5,2.8,1.5,2.8c0,0-0.3-1.2-0.6-3c-0.3-1.9-0.3-4.4-0.1-7.2c0.1-0.7,0.1-1.3,0.2-1.9
		c0.7-1.1,2-2.8,2.2-3c0.3-0.3,0.7-0.5,1.1-0.7c0.8-0.3,1.7-0.3,2.7-0.2c1,0.1,2,0.2,3,0.1c0.5,0,1-0.1,1.5-0.4
		c0.5-0.2,0.9-0.5,1.2-0.8c0.6-0.7,0.8-1.5,0.9-2.1c0.1-0.6,0.1-1.1,0.1-1.5c0-0.8-0.1-1.3-0.1-1.3c0,0-0.1,0.5-0.4,1.3
		c-0.1,0.4-0.3,0.9-0.6,1.4c-0.3,0.5-0.6,1-1.1,1.3c-0.5,0.3-1.1,0.4-1.8,0.3c-0.8-0.1-1.7-0.3-2.7-0.4c-0.5-0.1-1.1-0.1-1.7-0.1
		c-0.6,0-1.3,0.2-1.9,0.5c-0.2,0.1-0.3,0.2-0.5,0.3c0,0,0-0.1,0.1-0.1c0.1-0.1,0.3-0.2,0.4-0.3c0.5-0.3,1.2-0.5,2-0.7
		c0.8-0.2,1.7-0.3,2.7-0.6c1-0.2,2-0.6,2.8-1.1c0.8-0.5,1.5-1.1,1.9-1.7c0.4-0.6,0.7-1.1,0.8-1.5c0.1-0.4,0.2-0.6,0.2-0.6
		c0,0-0.6,0.7-1.6,1.4c-0.5,0.3-1.2,0.6-2,0.9c-0.8,0.3-1.7,0.4-2.6,0.7c-0.9,0.2-1.8,0.5-2.6,0.8c0.9-1,1.7-1.8,2.6-2.6
		c0.9-0.9,1.9-1.6,2.7-2.2c0.9-0.6,1.8-1.1,2.5-1.1c0.4,0,0.6,0,0.9,0.2c0.2,0.2,0.4,0.4,0.6,0.7c0.3,0.6,0.4,1.2,0.5,1.7
		c0.2,1,0.2,1.6,0.2,1.6c0,0,0.2-0.6,0.2-1.7c0-0.6,0.1-1.3-0.2-2.1c-0.1-0.4-0.4-0.9-0.8-1.3c-0.4-0.4-1.1-0.6-1.7-0.6
		c-0.6,0-1.2,0.1-1.8,0.3c-0.6,0.2-1.1,0.5-1.7,0.8c-1.1,0.6-2.1,1.4-3.2,2.3c-1,0.9-2,1.9-3,3.1c-0.5,0.6-0.9,1.2-1.4,1.8
		c-0.2,0.3-0.4,0.7-0.6,1c-0.1,0.2-0.2,0.4-0.3,0.6c0,0.1-0.1,0.2-0.1,0.4c0,0.1-0.3,1.1-0.5,2.1c-0.6,1.4-1,3.1-1.2,4.9
		c-0.1,1.5-0.1,3,0.1,4.3C136.9,119.6,137.2,120.7,137.6,121.6z M140.1,107.5C140.1,107.5,140.1,107.5,140.1,107.5
		C140.1,107.5,140.1,107.6,140.1,107.5L140.1,107.5z M139.3,109.3c0,0.1-0.1,0.1-0.1,0.2C139.2,109.4,139.2,109.4,139.3,109.3z"/>
</g>
</svg>
