<?xml version="1.0" encoding="utf-8"?>
<!-- Generator: Adobe Illustrator 21.1.0, SVG Export Plug-In . SVG Version: 6.00 Build 0)  -->
<svg version="1.1" id="Layer_10" xmlns="http://www.w3.org/2000/svg" xmlns:xlink="http://www.w3.org/1999/xlink" x="0px" y="0px"
	 viewBox="0 0 255.1 255.1" style="enable-background:new 0 0 255.1 255.1;" xml:space="preserve">
<style type="text/css">
	.st0{fill:url(#SVGID_1_);}
	.st1{fill:url(#SVGID_2_);}
	.st2{fill:url(#SVGID_3_);}
	.st3{fill:url(#SVGID_4_);}
	.st4{fill:url(#SVGID_5_);}
	.st5{fill:url(#SVGID_6_);}
	.st6{fill:url(#SVGID_7_);}
	.st7{fill:url(#SVGID_8_);}
	.st8{fill:url(#SVGID_9_);}
	.st9{fill:url(#SVGID_10_);}
	.st10{fill:url(#SVGID_11_);}
	.st11{fill:url(#SVGID_12_);}
	.st12{fill:url(#SVGID_13_);}
	.st13{fill:#FFFFFF;}
</style>
<g>
	<radialGradient id="SVGID_1_" cx="129.4991" cy="123.0241" r="114.3495" gradientUnits="userSpaceOnUse">
		<stop  offset="0.2" style="stop-color:#FFFFFF"/>
		<stop  offset="0.7" style="stop-color:#FFFFFF;stop-opacity:0.6"/>
		<stop  offset="1" style="stop-color:#FFFFFF"/>
	</radialGradient>
	<path class="st0" d="M44.9,105.1c1,1.6,3.4,5.6,4.8,7.5c0.1,0.5,0.3,1,0.5,1.4c0.7,1.9,1.5,3.8,2.4,5.5c0.9,1.7,1.9,3.4,2.9,4.9
		c0.5,0.8,1.1,1.5,1.7,2.2l0.2,0.3l0.3,0.3c0.3,0.3,0.6,0.5,0.8,0.8c0.3,0.2,0.6,0.4,0.8,0.6l0.4,0.3l0.2,0.1c0.1,0,0.1,0.1,0.2,0.1
		c0.1-0.6,0.3-1.2,0.4-1.8c-0.2,1.4-0.2,2.9,0,4.3c0.2,1,0.4,2,0.9,2.9c0.2,0.5,0.5,0.9,0.7,1.3c0.1,0.1,0.1,0.2,0.2,0.3l0.1,0.2
		c0.1,0.1,0.1,0.2,0.2,0.3c0.3,0.3,0.6,0.6,0.8,1c0.4-0.1,0.7-0.3,1.1-0.4l0.3-0.1l0.2-0.1c0.3-0.1,0.6-0.1,1-0.1c0.7,0,1.4,0,2,0.1
		c1.4,0.2,2.7,0.6,4,1c2.5,0.8,4.9,1.5,6.9,1.8c2,0.3,3.7,0.3,4.7,0.1c0.1,0,0.2,0,0.3-0.1c1.7,2.4,3.4,4.1,4.7,5.3
		c1.6,1.5,2.6,2.2,2.6,2.2c0,0-0.9-0.8-2.3-2.4c-1.1-1.3-2.5-3-3.9-5.3c0,0,0,0,0-0.1c-0.4-0.6-0.8-1.3-1.1-2c0,0,0-0.1-0.1-0.1
		c0-0.1-0.1-0.1-0.1-0.2c-0.8-1.6-1.5-3.4-2-5.4c-0.5-2.1-0.8-4.5-0.5-6.9c0.1-1.2,0.5-2.4,1-3.5c0.5-1.1,1.2-2.1,2.1-3.1
		c1.7-2,4-3.7,6.2-5.6l0.4-0.4l0.2-0.2l0.1,0l0,0c0,0,0,0,0.1-0.1c0.3-0.2,0.6-0.5,0.9-0.8c0.6-0.5,1.1-1.1,1.6-1.6
		c1-1.1,1.8-2.2,2.8-3c0.5-0.4,1-0.8,1.5-1.1c0.3-0.2,0.5-0.3,0.8-0.4c0.3-0.1,0.5-0.3,0.8-0.4c1-0.3,2-0.5,3.1-0.5
		c0.6,0.7,1.1,1.4,1.5,2c0.4,0.8,0.4,1.5-0.1,2.1c-0.5,0.6-1.2,1-1.8,1.3c-0.6,0.3-1.2,0.5-1.7,0.7c-1,0.3-1.5,0.5-1.5,0.5
		c0,0,0.6,0,1.6-0.2c0.5-0.1,1.1-0.2,1.9-0.4c0.4-0.1,0.7-0.2,1.2-0.4c0.4-0.2,0.8-0.4,1.2-0.8c0.4-0.4,0.8-0.9,0.9-1.6
		c0.1-0.7,0-1.3-0.2-1.9c-0.2-0.5-0.4-1-0.7-1.4c-0.4-0.6-0.8-1.1-1.2-1.7c0-0.1-0.1-0.1-0.1-0.2c-0.7-0.9-1.5-1.8-2.1-2.8
		c-0.3-0.5-0.6-1-0.7-1.4c-0.1-0.2-0.1-0.4,0-0.5c0-0.1,0.1-0.2,0.2-0.4c0.1-0.1,0.3-0.3,0.5-0.4c0.2-0.1,0.5-0.3,0.7-0.4
		c0.2-0.1,0.5-0.2,0.6-0.2c0.2,0,0.3,0,0.5,0.1c0.3,0.1,0.6,0.4,0.9,0.9c0.3,0.4,0.5,1,0.7,1.5c0.5,1.2,0.9,2.5,1.3,3.6
		c0.2,0.6,0.5,1.2,0.8,1.7c0.1,0.2,0.3,0.4,0.4,0.7c0.5,0.8,1.2,1.5,2,1.8c0.8,0.3,1.5,0.3,2,0.2c0.5-0.1,0.9-0.3,1.1-0.4
		c0.2-0.1,0.4-0.2,0.4-0.2c0,0-0.5,0.2-1.5,0.2c-0.5,0-1.1-0.1-1.6-0.5c-0.5-0.4-1-1-1.3-1.7c-0.1-0.1-0.1-0.2-0.1-0.3
		c0,0,0.1,0,0.1,0c0.2,0,0.3-0.1,0.5-0.2c0.6-0.2,1.2-0.6,1.7-0.9c1-0.7,1.8-1.5,2.6-2.1c0.8-0.7,1.5-1.3,2.3-1.8
		c0.4-0.2,0.8-0.4,1.2-0.6c0.2-0.1,0.4-0.1,0.6-0.2c0.2-0.1,0.4-0.1,0.6-0.1c0.6,0,1.2,0.1,1.7,0.3c-0.1,0.6-0.3,1.3-0.5,1.9
		c-0.7,2-0.8,5-2.5,6.6c2-1.7,3.5-4,4.2-6.3c0.2-0.5,0.3-1,0.4-1.6c0.3,0.1,0.6,0.2,0.8,0.3c0.7,0.2,1.3,0.2,1.9,0.1
		c0.6-0.2,1-0.5,1.3-0.8c0.3-0.3,0.5-0.6,0.7-0.8c0.1-0.1,0.1-0.2,0.1-0.2c0.3,0.2,0.6,0.4,0.7,0.6c0,0.1,0,0.2,0,0.2
		c0,0,0,0,0.1-0.1c0.2,0.4,0.2,0.6,0.2,0.6c0,0,0.2-0.2,0.2-0.7c0-0.1,0-0.1,0-0.2c0,0,0,0,0,0c0.3-0.2,0.8-0.4,1.4-0.6
		c0.1,0.1,0.2,0.3,0.3,0.5c0.2,0.2,0.3,0.5,0.6,0.8c0.3,0.3,0.7,0.6,1.3,0.8c0.6,0.2,1.2,0.1,1.9-0.1c0.3-0.1,0.5-0.2,0.8-0.3
		c0.2,0.6,0.3,1.2,0.6,1.9c0.8,2.2,2.2,4.4,4.1,6c-1.7-1.7-1.9-4.8-2.6-6.9c-0.2-0.5-0.3-1.1-0.4-1.6c0.6-0.2,1.2-0.3,1.7-0.3
		c0.2,0,0.4,0.1,0.6,0.1c0.2,0.1,0.4,0.1,0.6,0.2c0.4,0.2,0.8,0.4,1.2,0.6c0.8,0.5,1.5,1.1,2.3,1.8c0.8,0.7,1.6,1.5,2.6,2.1
		c0.5,0.3,1,0.7,1.7,0.9c0.2,0.1,0.3,0.1,0.5,0.2c0,0,0.1,0,0.1,0c0,0.1-0.1,0.2-0.1,0.3c-0.3,0.8-0.8,1.4-1.3,1.7
		c-0.5,0.4-1.1,0.5-1.6,0.5c-1,0-1.5-0.2-1.5-0.2c0,0,0.1,0.1,0.4,0.2c0.2,0.1,0.6,0.3,1.1,0.4c0.5,0.1,1.2,0.2,2-0.2
		c0.8-0.3,1.4-1,2-1.8c0.1-0.2,0.3-0.4,0.4-0.7c0.3-0.5,0.5-1.1,0.8-1.7c0.5-1.2,0.9-2.4,1.3-3.6c0.2-0.5,0.4-1.1,0.7-1.5
		c0.3-0.4,0.6-0.8,0.9-0.9c0.1-0.1,0.3-0.1,0.5-0.1c0.2,0,0.4,0.1,0.6,0.2c0.2,0.1,0.5,0.2,0.7,0.4c0.2,0.1,0.4,0.3,0.5,0.4
		c0.1,0.1,0.2,0.3,0.2,0.4c0,0.1,0,0.3,0,0.5c-0.1,0.4-0.4,0.9-0.7,1.4c-0.6,0.9-1.4,1.9-2.1,2.8c0,0.1-0.1,0.1-0.1,0.2
		c-0.4,0.6-0.8,1.1-1.2,1.7c-0.3,0.5-0.5,0.9-0.7,1.4c-0.2,0.6-0.3,1.2-0.2,1.9c0.1,0.7,0.5,1.2,0.9,1.6c0.4,0.4,0.8,0.6,1.2,0.8
		c0.4,0.2,0.8,0.3,1.1,0.4c0.7,0.2,1.3,0.3,1.9,0.4c1,0.1,1.6,0.2,1.6,0.2c0,0-0.5-0.2-1.5-0.5c-0.5-0.2-1.1-0.4-1.7-0.7
		c-0.6-0.3-1.3-0.7-1.8-1.3c-0.5-0.6-0.5-1.3-0.1-2.1c0.3-0.6,0.9-1.3,1.5-2c1.1,0,2.1,0.1,3.1,0.5c0.3,0.1,0.5,0.2,0.8,0.4
		c0.3,0.1,0.6,0.3,0.8,0.4c0.5,0.3,1,0.7,1.5,1.1c0.9,0.9,1.8,1.9,2.8,3c0.5,0.6,1,1.1,1.6,1.6c0.3,0.3,0.6,0.5,0.9,0.8
		c0,0,0.1,0,0.1,0.1l0,0l0.1,0l0.2,0.2l0.4,0.4c2.3,1.9,4.5,3.7,6.2,5.6c0.9,1,1.6,2,2.1,3.1c0.5,1.1,0.8,2.3,1,3.5
		c0.3,2.4,0,4.7-0.5,6.9c-0.5,2-1.2,3.8-2,5.4c0,0.1-0.1,0.1-0.1,0.2c0,0,0,0.1-0.1,0.1c-0.4,0.7-0.7,1.4-1.1,2c0,0,0,0,0,0.1
		c-1.4,2.3-2.8,4.1-3.9,5.3c-1.4,1.6-2.3,2.4-2.3,2.4c0,0,1-0.7,2.6-2.2c1.3-1.2,3-2.9,4.7-5.3c0.1,0,0.2,0,0.3,0.1
		c1.1,0.2,2.7,0.2,4.7-0.1c2-0.3,4.3-1.1,6.9-1.8c1.3-0.4,2.6-0.8,4-1c0.7-0.1,1.4-0.1,2-0.1c0.3,0,0.7,0.1,1,0.1l0.2,0.1l0.3,0.1
		c0.4,0.1,0.7,0.3,1.1,0.4c0.3-0.3,0.6-0.6,0.9-1c0.1-0.1,0.1-0.2,0.2-0.3l0.1-0.2c0.1-0.1,0.1-0.2,0.2-0.3c0.3-0.4,0.5-0.9,0.7-1.3
		c0.4-0.9,0.7-1.9,0.9-2.9c0.2-1.5,0.2-2.9,0-4.3c0.1,0.6,0.3,1.2,0.4,1.8c0.1,0,0.1,0,0.2-0.1l0.2-0.1l0.4-0.3
		c0.3-0.2,0.5-0.4,0.8-0.6c0.3-0.2,0.6-0.5,0.8-0.8l0.3-0.3l0.2-0.3c0.6-0.7,1.2-1.4,1.7-2.2c1.1-1.5,2-3.2,2.9-4.9
		c0.9-1.7,1.7-3.6,2.4-5.5c0.2-0.5,0.3-0.9,0.4-1.4c1.4-1.9,3.8-5.9,4.9-7.6c1.3-2,2.5-4.6,3.4-7.9c0.8-3.3,1.3-7.1,1.2-11.4
		c-0.2-4.2-0.8-8.9-2.6-13.5c-0.9-2.3-2.1-4.6-3.8-6.7c-0.4-0.5-0.9-1-1.4-1.5c-0.5-0.5-1-0.9-1.7-1.3c-0.3-0.2-0.7-0.4-1.1-0.5
		c-0.4-0.1-0.8-0.1-1.2,0c0-0.1,0.1-0.1,0.1-0.2c0.5-0.8,0.9-1.7,1.3-2.7c0.3-1,0.5-2.2,0.6-3.4c0-0.6,0.1-1.2,0.1-1.9
		c0-0.3,0-0.6,0-1c0-0.3,0-0.7,0-1c0-2.7-0.5-5.7-1.7-8.6c-0.6-1.5-1.4-2.9-2.3-4.3c-0.5-0.7-1-1.4-1.5-2c-0.5-0.7-1.1-1.3-1.7-2
		c-1.2-1.3-2.7-2.3-4.2-3.3c-1.5-0.9-3.2-1.8-4.9-2.4c-1.7-0.7-3.6-1.2-5.4-1.6c-1.9-0.4-3.9-0.6-5.9-0.5c-1.8,0.1-3.6,0.4-5.3,1
		c-1.7,0.6-3.3,1.7-4.6,3.1c-0.3,0.3-0.6,0.7-0.9,1.1l-0.2,0.3c-0.1,0.1-0.1,0.1-0.2,0.4c-0.2,0.3-0.4,0.7-0.6,1.1
		c-0.7,1.4-1,2.6-1.2,3.7l-0.3,1.7l-0.1,0.4l-0.1,0.2l0,0.1l0,0c0-0.1,0.1-0.2,0.1-0.2c0-0.1,0.1-0.2,0.1,0c0,0.1,0,0.3-0.1,0.7
		c-0.1,0.4-0.2,1.1-0.5,2.9l2.9-5.3l0.5-0.9c0.1-0.1,0.1-0.1,0.1-0.1l0.1-0.1l0.2-0.2c0.4-0.5,0.7-0.7,1-0.8
		c0.1-0.1,0.3-0.1,0.4-0.2c0.1,0,0.1,0,0.2,0c0.1,0,0.2,0,0.3,0c0.5,0,1,0.1,1.4,0.4c1,0.5,1.8,1.4,2.5,2.3c1.5,1.9,2.6,4,3.4,6
		c0.4,1,0.7,2.1,0.9,3l0,0.2c0,0,0,0.1,0,0.1l0,0.1l0.1,0.4c0,0.3,0.1,0.5,0.1,0.8c0.1,0.5,0.1,1,0.2,1.5c0.2,2,0.3,3.9,0.6,5.5
		c0.3,1.7,0.7,3.2,1.3,4.3c0.3,0.6,0.7,1.1,1.1,1.4c0.4,0.4,0.9,0.6,1.3,0.8c0.5,0.2,1,0.2,1.3,0.3c-0.2,0.1-0.4,0.2-0.6,0.4
		c-0.6,0.4-1.2,0.9-1.6,1.7c-0.5,0.7-0.8,1.7-0.9,2.7c0,0.6,0.1,1.2,0.3,1.8c-0.3-0.2-0.6-0.4-0.9-0.7c-2.2-1.7-4.2-4-5.9-6.5
		c-1.8-2.7-3.3-5.7-4.1-8.8c-0.4-1.5-0.7-3.1-0.7-4.6c0-0.8,0.1-1.5,0.2-2.2l0.1-0.3l0.1-0.3l0.1-0.3c0.1-0.4,0.3-0.8,0.5-1.2
		c0.5-0.9,1.2-2.1,1.9-3.3l-0.6,0.3l-0.2,0.1l-0.3,0.1l-1.4,0.6c-0.5,0.2-0.9,0.4-1.4,0.7c0.1-0.1,0.1-0.1,0.1-0.1
		c0,0,0,0.1-0.1,0.2c-0.5,0.3-1,0.6-1.4,0.9l-0.2,0.1l-0.1,0.1l-0.2,0.2c-0.1,0.1-0.3,0.2-0.4,0.3c-0.3,0.2-0.5,0.5-0.7,0.7
		c-0.5,0.5-0.9,1-1.3,1.6c-1.6,2.2-2.4,4.8-2.8,7.3c-0.4,2.5-0.4,4.9-0.2,7.2c0.2,2.3,0.6,4.6,1.1,6.7c1,4.3,2.4,8.1,3.9,11.6
		c1.5,3.5,3.2,6.6,4.8,9.2c3.3,5.4,8,11.5,10.7,13.5c0.5,0.4,1,0.5,1.6,0.5c0.4,0.1,0.7,0.3,0.3,0.2c-1-0.1-2.5,1.3-4.3,0.6
		c-1.6,0.6-3,1.3-4.1,2.2c-0.7,0.6-1.2,1.3-1.5,2.1c-0.2,0.8,0,1.5,0.2,2.1c0.3,0.6,0.6,1,0.9,1.3c0.1,0.1,0.3,0.3,0.4,0.4
		c0.1,0.7,0.3,1.3,0.5,1.7c0.2,0.6,0.4,0.9,0.4,0.9s0.1,0,0.1,0c-0.8,1-1.5,1.7-2.3,2.3c-0.1,0.1-0.3,0.2-0.4,0.3
		c-0.2-0.3-0.4-0.5-0.6-0.8c-1.9-2.3-4.2-4.1-6.4-6l-0.4-0.4l-0.2-0.2l-0.1-0.1l-0.1-0.1c-0.3-0.2-0.5-0.4-0.8-0.6
		c-0.5-0.4-1-0.9-1.4-1.5c-0.9-1-1.9-2.2-3-3.2c-0.6-0.5-1.2-0.9-1.9-1.3c-0.3-0.2-0.7-0.4-1-0.5c-0.3-0.1-0.7-0.3-1-0.4
		c-0.7-0.2-1.4-0.3-2.1-0.4c0.4-0.5,0.9-1,1.3-1.6c0.4-0.6,0.8-1.2,1.1-2.1c0.1-0.4,0.2-1,0.1-1.5c-0.1-0.6-0.4-1.1-0.7-1.4
		c-0.3-0.4-0.7-0.7-1.1-0.9c-0.3-0.2-0.7-0.4-1.1-0.5c-0.4-0.1-0.8-0.3-1.3-0.3c-0.5,0-1,0.1-1.5,0.3c-0.5,0.2-0.8,0.5-1.1,0.9
		c-0.3,0.3-0.5,0.7-0.7,1c-0.3,0.7-0.5,1.3-0.7,1.9c-0.4,1.2-0.6,2.3-0.8,3.4c-0.1,0.3-0.1,0.5-0.2,0.8c-0.2,0-0.4-0.1-0.6-0.1
		c-0.5-0.2-0.9-0.4-1.4-0.7c-1.8-1.1-3.3-2.6-5.1-3.6c0.1,0,0.2-0.1,0.2-0.2c0.2-0.1,0.3-0.3,0.4-0.5c0.1-0.2,0.1-0.5,0.1-0.7
		c-0.1-0.5-0.6-0.9-1.3-1.3l-0.4-0.2c-0.1-0.1-0.2-0.1-0.4-0.2c-0.2-0.1-0.5-0.2-0.8-0.2c-1-0.3-2-0.4-3.1-0.4c0-0.2,0-0.5,0-0.7
		c0-4,0.9-7.6,1.9-10.4c1-2.8,2-4.9,2.8-6.4c0.8-1.4,1.3-2.1,1.3-2.1c0,0-0.7,0.7-1.7,2.1c-1,1.4-2.4,3.5-3.6,6.4
		c-0.6,1.4-1.2,3.1-1.6,4.9c-0.4,1.8-0.7,3.8-0.7,5.9c0,0.1,0,0.2,0,0.3c-1.9,0.2-3.5,0.8-4.7,1.6c-0.6,0.4-1,0.9-1.2,1.3
		c0-0.1-0.1-0.1-0.1-0.2c-0.2-0.3-0.5-0.6-0.8-0.9c-1-0.8-2.6-1.4-4.3-1.6c0-0.3,0-0.6,0-0.9c-0.1-2.2-0.4-4.2-0.9-5.9
		c-0.4-1.8-1-3.4-1.7-4.8c-1.2-2.8-2.6-4.8-3.6-6.2c-1-1.3-1.6-1.9-1.6-1.9c0,0,0.5,0.8,1.4,2.3c0.8,1.5,1.9,3.7,2.8,6.6
		c0.9,2.9,1.8,6.4,1.7,10.4c0,0.1,0,0.2,0,0.3c-0.1,0-0.2,0-0.3,0c-1.3,0-2.5,0.2-3.5,0.5c-0.5,0.2-1,0.4-1.5,0.6
		c-0.2,0.1-0.4,0.3-0.6,0.4c-0.2,0.2-0.4,0.3-0.6,0.5c-0.4,0.4-0.5,1-0.4,1.4c0.1,0.4,0.4,0.6,0.6,0.8c0,0,0,0,0,0
		c-1.4,0.9-2.6,2-4,2.9c-0.5,0.3-0.9,0.5-1.4,0.7c-0.2,0.1-0.4,0.1-0.6,0.1c-0.1-0.2-0.1-0.5-0.2-0.8c-0.2-1-0.5-2.1-0.8-3.4
		c-0.2-0.6-0.4-1.2-0.7-1.9c-0.2-0.3-0.4-0.7-0.7-1c-0.3-0.3-0.6-0.6-1.1-0.9c-0.5-0.2-1-0.3-1.5-0.3c-0.5,0-0.9,0.1-1.3,0.3
		c-0.4,0.1-0.8,0.3-1.1,0.5c-0.4,0.2-0.7,0.5-1.1,0.9c-0.3,0.4-0.6,0.9-0.7,1.4c-0.1,0.6,0,1.1,0.1,1.5c0.3,0.9,0.7,1.5,1.1,2.1
		c0.4,0.6,0.9,1.1,1.3,1.6c-0.7,0.1-1.4,0.2-2.1,0.4c-0.4,0.1-0.7,0.3-1,0.4c-0.3,0.1-0.7,0.3-1,0.5c-0.7,0.4-1.3,0.8-1.8,1.3
		c-1.1,1-2.1,2.1-3,3.2c-0.5,0.5-0.9,1-1.4,1.5c-0.2,0.2-0.5,0.4-0.8,0.6l-0.2,0.1l-0.1,0.1l-0.2,0.2l-0.4,0.4
		c-2.2,1.9-4.5,3.7-6.4,6c-0.2,0.2-0.4,0.5-0.6,0.8c-0.1-0.1-0.3-0.2-0.4-0.3c-0.7-0.5-1.5-1.3-2.2-2.2c0.1,0,0.1,0,0.1,0
		c0,0,0.2-0.3,0.4-0.9c0.1-0.4,0.3-1,0.4-1.7c0.1-0.1,0.3-0.2,0.4-0.4c0.3-0.3,0.7-0.8,0.9-1.3c0.3-0.6,0.4-1.3,0.2-2.1
		c-0.2-0.8-0.8-1.5-1.4-2.1c-1-0.8-2.3-1.5-3.7-2c-1.6,0.5-4.2-0.5-4-1.1c0.4-0.1,0.8-0.2,1.2-0.5c2.7-2,7.4-8.1,10.7-13.5
		c1.7-2.7,3.3-5.8,4.8-9.2c1.5-3.5,2.9-7.3,3.9-11.6c0.5-2.1,0.9-4.4,1.1-6.7c0.2-2.3,0.2-4.8-0.2-7.2c-0.4-2.5-1.2-5-2.8-7.3
		c-0.4-0.5-0.8-1.1-1.3-1.6c-0.2-0.2-0.5-0.5-0.7-0.7c-0.1-0.1-0.3-0.2-0.4-0.3l-0.2-0.2L89,44.6l-0.2-0.1c-0.5-0.3-1-0.6-1.4-0.9
		c-0.1-0.1-0.1-0.1-0.1-0.2c0,0,0,0.1,0.1,0.1c-0.5-0.3-1-0.5-1.4-0.7l-1.4-0.6l-0.3-0.1L84,42.1l-0.6-0.3c0.7,1.2,1.4,2.4,1.9,3.3
		c0.2,0.4,0.4,0.8,0.5,1.2l0.1,0.3l0.1,0.3l0.1,0.3c0.2,0.7,0.2,1.5,0.2,2.2c0,1.5-0.2,3.1-0.7,4.6c-0.8,3.1-2.3,6-4.1,8.8
		c-1.7,2.5-3.7,4.7-5.9,6.5c-0.3,0.2-0.6,0.5-0.9,0.7c0.2-0.6,0.3-1.2,0.3-1.8c0-1.1-0.4-2-0.9-2.7c-0.5-0.7-1.1-1.3-1.6-1.7
		c-0.2-0.1-0.4-0.3-0.6-0.4c0.4,0,0.8-0.1,1.3-0.3c0.4-0.2,0.9-0.4,1.3-0.8c0.4-0.4,0.8-0.9,1.1-1.4c0.7-1.2,1.1-2.7,1.3-4.3
		c0.3-1.7,0.4-3.6,0.6-5.5c0-0.5,0.1-1,0.2-1.5c0-0.2,0.1-0.5,0.1-0.8l0.1-0.4l0-0.1c0,0,0-0.1,0-0.1l0-0.2c0.2-1,0.5-2,0.9-3
		c0.8-2,1.9-4.2,3.4-6c0.7-0.9,1.6-1.8,2.5-2.3c0.5-0.2,1-0.4,1.4-0.4c0.1,0,0.2,0,0.3,0c0.1,0,0.1,0,0.2,0c0.1,0,0.2,0.1,0.4,0.2
		c0.3,0.2,0.6,0.4,1,0.8l0.2,0.2l0.1,0.1c0,0,0,0.1,0.1,0.1l0.5,0.9l2.9,5.3c-0.4-1.8-0.5-2.4-0.5-2.9c-0.1-0.4-0.1-0.6-0.1-0.7
		c0-0.2,0-0.1,0.1,0c0,0.1,0,0.1,0.1,0.2l0,0l0-0.1l-0.1-0.2L91,39.7L90.7,38c-0.2-1.1-0.5-2.3-1.2-3.7c-0.2-0.3-0.4-0.7-0.6-1.1
		c-0.1-0.2-0.2-0.2-0.2-0.4l-0.2-0.3c-0.3-0.4-0.6-0.7-0.9-1.1c-1.3-1.4-2.9-2.4-4.6-3.1c-1.7-0.6-3.5-1-5.3-1c-2-0.1-4,0.1-5.9,0.5
		c-1.9,0.4-3.7,0.9-5.4,1.6c-1.7,0.7-3.4,1.5-4.9,2.4c-1.5,0.9-3,2-4.2,3.3c-0.6,0.7-1.2,1.3-1.7,2c-0.5,0.7-1,1.3-1.5,2
		c-0.9,1.4-1.7,2.8-2.3,4.3c-1.2,2.9-1.6,5.9-1.7,8.6c0,0.3,0,0.7,0,1c0,0.3,0,0.6,0,1c0,0.6,0,1.3,0.1,1.9c0.1,1.2,0.3,2.4,0.6,3.4
		c0.3,1,0.8,2,1.3,2.7c0,0.1,0.1,0.1,0.1,0.2c-0.4-0.1-0.9-0.1-1.2,0c-0.4,0.1-0.8,0.3-1.1,0.5c-0.6,0.4-1.2,0.8-1.7,1.3
		c-0.5,0.5-0.9,0.9-1.4,1.5c-1.7,2-2.9,4.4-3.8,6.7c-1.8,4.6-2.5,9.3-2.6,13.5c-0.1,4.2,0.3,8.1,1.2,11.4
		C42.4,100.5,43.6,103.1,44.9,105.1z M203.2,64.2c0.2-0.1,0.4-0.1,0.6,0c0.2,0,0.4,0.1,0.7,0.3c0.9,0.5,1.8,1.5,2.6,2.4
		c1.6,1.8,2.8,4,3.7,6.1c1.8,4.4,2.6,8.9,2.9,13c0.3,4.1-0.1,7.9-0.8,11.1c-0.7,3.2-1.8,5.9-3,7.9c-1.2,2-2.4,3.3-3.3,4.2
		c-0.2,0.2-0.3,0.3-0.5,0.4c0.1-0.5,0.2-1.1,0.3-1.6c-0.1,0.2-0.1-0.7,0-1.7c1-1.8,2.4-4.4,2.7-5.2c1-2.3,1.7-5.3,2.1-8.6
		c0.2-1.7,0.3-3.4,0.3-5.2c0-0.4,0-0.9,0-1.4l0-0.7c0-0.2,0-0.5,0-0.7c-0.1-1-0.2-1.9-0.4-2.9c-0.4-1.9-0.9-3.7-1.5-5.3
		c-0.6-1.7-1.3-3.3-2.1-4.7c-0.8-1.4-1.6-2.7-2.6-3.8c-1-1.1-2.1-1.9-3.3-2.3c0.1-0.1,0.2-0.2,0.3-0.3
		C202.4,64.7,202.8,64.3,203.2,64.2z M182.2,62.8c-0.8-0.4-1.6-1.1-2.1-2.2c-0.5-1.1-0.8-2.6-1-4.2c-0.2-1.6-0.2-3.5-0.3-5.5
		c0-0.5,0-1-0.1-1.6c0-0.3,0-0.5-0.1-0.8l-0.1-0.4l0-0.1c0,0,0,0,0-0.1l0-0.2c-0.1-1.2-0.4-2.3-0.8-3.4c-0.8-2.2-1.8-4.5-3.4-6.6
		c-0.8-1-1.7-2.1-3-2.8c-0.6-0.4-1.4-0.6-2.3-0.6c-0.2,0-0.4,0-0.6,0.1c-0.1,0-0.2,0-0.3,0.1l-0.1,0c0,0-0.1,0-0.1,0
		c-0.1,0-0.1,0.1-0.1,0.1l0,0l0-0.1c0,0,0-0.1,0.1-0.1c0-0.1,0.1-0.1,0.1-0.2l0,0c0,0,0.1-0.1,0.1-0.2l0.2-0.2
		c0.2-0.3,0.5-0.6,0.7-0.9c1-1.1,2.3-1.9,3.8-2.5c1.5-0.5,3.1-0.8,4.7-0.9c3.7-0.1,7.3,0.7,10.6,1.9c1.6,0.6,3.2,1.4,4.7,2.2
		c1.5,0.9,2.8,1.8,4,2.9c0.6,0.5,1.1,1.2,1.6,1.8c0.5,0.6,1,1.2,1.5,1.9c0.9,1.3,1.7,2.6,2.3,3.9c1.2,2.7,1.8,5.5,1.9,8
		c0,0.3,0,0.6,0,1c0,0.3,0,0.6,0,1c0,0.6,0,1.2,0,1.8c0,1.2-0.1,2.3-0.4,3.3c-0.3,1.3-0.8,2.4-1.4,3.3c-0.2,0.1-0.4,0.2-0.6,0.4
		c-0.3,0.2-0.6,0.5-0.9,0.8c-0.5,0.5-1,1-1.4,1.5c-0.2,0.2-0.4,0.5-0.7,0.7c-0.3,0.3-0.5,0.5-0.8,0.8c-0.5,0.5-1,0.9-1.5,1.3
		c-0.2,0.1-0.4,0.3-0.6,0.4c0.3-0.4,0.5-0.7,0.5-0.7s-0.3,0.3-0.9,0.7c0,0,0,0,0,0c-0.1,0-0.1,0.1-0.2,0.1c-0.5,0.4-1.1,0.8-1.9,1.3
		c-1.6,0.8-3.3,1.5-5,1.8c-0.2,0-0.5-0.1-0.7-0.2c-0.5-0.2-1.1-0.5-1.6-1c-0.5-0.5-0.8-1.2-0.9-2.1c-0.1-0.8,0.1-1.8,0.6-2.7
		c0.4-0.9,1.1-1.7,1.9-2.4c0.2-0.2,0.4-0.3,0.7-0.5c0.1-0.1,0.2-0.1,0.3-0.2l0.2-0.1c0.1-0.1,0.2-0.1,0.3-0.2c0.5-0.2,1-0.4,2-0.6
		l3-0.6c-0.5-0.1-1.4-0.3-2.3-0.4l-1.3-0.2l-0.6-0.1l-0.6-0.2c-0.2-0.1-0.3-0.1-0.5-0.2c-0.1,0-0.1,0-0.2-0.1l-0.1-0.1
		c-0.2-0.1-0.4-0.1-0.5-0.2c-0.4-0.2-0.7-0.3-1-0.5c-1.3-0.8-2.4-2-3.1-3.6c-0.8-1.6-1.2-3.4-1.6-5.1c-0.3-1.7-0.6-3.5-0.9-5.1
		c-0.3-1.6-0.6-3.2-1-4.6c-0.4-1.4-1-2.7-1.7-3.8c-0.7-1.1-1.5-1.9-2.3-2.5c-0.8-0.6-1.6-0.9-2.2-1.2c-1.3-0.5-2-0.5-2-0.6
		c0,0,0.7,0.2,1.9,0.8c0.6,0.3,1.3,0.7,2,1.3c0.7,0.6,1.4,1.4,2,2.5c0.6,1,1,2.3,1.4,3.7c0.3,1.4,0.6,2.9,0.8,4.6
		c0.2,1.6,0.4,3.4,0.7,5.2c0.3,1.8,0.8,3.7,1.6,5.5c0.4,0.9,1,1.7,1.6,2.4c0.6,0.7,1.3,1.3,2.1,1.7c0.4,0.2,0.8,0.4,1.2,0.6
		c0.2,0.1,0.4,0.2,0.6,0.2l0.3,0.1l0.1,0l0.1,0l0.1,0c0,0,0,0,0,0l0,0c0,0-0.1,0.1-0.2,0.1l-0.1,0l-0.2,0.1
		c-0.1,0.1-0.3,0.2-0.4,0.3c-0.3,0.2-0.5,0.4-0.7,0.6c0,0-0.1,0.1-0.1,0.1c-0.1,0-0.4-0.1-1.1,0c-0.5,0-1.3,0.2-2.1,0.6
		C183.2,63.2,182.7,63.1,182.2,62.8z M182.5,66.1c0.3-0.6,0.6-1.1,1-1.5c0.8-0.9,1.7-1.3,2.3-1.6c0.6-0.2,0.9-0.3,1-0.3
		c-0.9,0.8-1.5,1.8-2,2.8c-0.4,1-0.6,2.1-0.5,3.1c0.1,1,0.6,1.8,1.2,2.3c0.6,0.5,1.2,0.8,1.8,0.9c0,0-0.1,0-0.1,0
		c-0.9,0-1.8-0.2-2.7-0.6c-0.2-0.1-0.3-0.2-0.5-0.3c-0.2-0.1-0.3-0.2-0.5-0.3c-0.3-0.2-0.6-0.5-0.8-0.8c-0.4-0.5-0.7-1.2-0.7-1.8
		C182,67.3,182.2,66.7,182.5,66.1z M172,64.1c1.8,2.6,3.9,5,6.4,6.9c1.2,0.9,2.6,1.8,4.1,2.3c1.5,0.6,3.1,0.8,4.7,0.6
		c1.6-0.1,3-0.5,4.5-1.1c1.4-0.5,2.7-1.2,4-2c0.3-0.2,0.6-0.4,0.9-0.6c0.3-0.2,0.6-0.4,0.9-0.6c0.6-0.5,1.2-0.9,1.7-1.5
		c0.7-0.7,1.4-1.5,2-2.2c0.1,0,0.2,0,0.2,0.1c1,0.4,2,1.2,2.8,2.3c0.8,1.1,1.6,2.3,2.3,3.7c1.4,2.8,2.5,6.2,3.2,9.8
		c0.2,0.9,0.3,1.8,0.4,2.7c0,0.2,0,0.4,0,0.7l0,0.7l0,1.3c0,1.8-0.1,3.5-0.2,5.1c-0.2,3.2-0.7,6.1-1.5,8.4c-0.4,1.2-0.9,2.2-1.4,3
		c-0.2,0.3-0.4,0.5-0.5,0.7c0,0,0,0,0-0.1c0-0.2,0-0.3,0-0.5c0,0,0,0,0-0.1c0-0.4-0.1-0.8-0.2-1.2c-0.1-0.6-0.3-1.1-0.5-1.7
		c-0.2,0.6-0.3,1.1-0.4,1.3c-0.3,0.7,0-1.4-0.1-2.3c-0.1-0.1-0.1-0.2-0.2-0.3c-0.1-0.1-0.1-0.2-0.1-0.2c-0.4-0.6-0.9-1.1-1.4-1.5
		c-0.1-0.1-0.2-0.1-0.3-0.2l-0.1-0.1c0,0-0.1-0.1-0.2-0.1c-0.3-0.2-0.6-0.3-0.9-0.3c-0.5-0.1-1-0.1-1.4,0c-0.9,0.1-1.6,0.3-2.4,0.5
		c-1.5,0.4-2.9,1-4.2,1.5c-1.3,0.5-2.6,1.1-3.9,1.6c-0.3,0.1-0.7,0.3-1,0.4c-0.1,0-0.2,0.1-0.3,0.1c0,0-0.1,0-0.1,0.1
		c-0.1,0-0.1,0.1-0.2,0.2c-1.4-0.7-3-1.7-4.8-3.1c-2.5-2-5.2-4.7-7.7-8.1c-2.5-3.4-4.9-7.5-6.9-12c-1.9-4.5-3.3-9.1-4-13.4
		c-0.7-4.2-0.8-8.2-0.4-11.4c0,0.2,0.1,0.4,0.1,0.6c0.1,0.4,0.3,0.9,0.5,1.3c0.1,0.2,0.2,0.4,0.4,0.6l0.2,0.2c0,0,0.1,0.1,0.1,0.1
		c0,0,0,0.1-0.1,0.1c0,0,0,0-0.1,0.1c-0.1,0.2-0.2,0.4-0.3,0.6c-0.2,0.4-0.3,0.9-0.4,1.4c-0.2,1-0.1,2,0.2,3c0.3,1,1,1.9,1.9,2.5
		c0.4,0.3,0.9,0.5,1.4,0.7c0.1,0,0.3,0.1,0.4,0.1l0.2,0l0.1,0l0,0l0,0l0,0l0,0l-0.1,0.2c0,0.1-0.1,0.3-0.1,0.4
		c-0.1,0.5-0.2,1-0.2,1.6c-0.1,1.1,0.1,2.1,0.4,3.2c0.2,0.8,0.6,1.5,1.1,2.1c0.5,0.6,1.1,1.2,1.8,1.6c0.7,0.4,1.5,0.5,2.2,0.5
		c0.4,0,0.8-0.1,1.1-0.2c0.1,0,0.2,0,0.3-0.1c0.1,0,0,0,0.1,0l0,0l0,0l0,0l0,0l0,0.1c0,0.1,0.1,0.2,0.1,0.3c0.2,0.4,0.3,0.7,0.5,1.1
		c0.4,0.7,0.9,1.2,1.5,1.7c1.2,0.9,2.5,1.2,3.8,1.3c1.3,0.1,2.4-0.1,3.5-0.4c1.1-0.3,2-0.7,2.8-1.1c1.6-0.9,2.7-2,3.3-2.8
		c0.6-0.8,0.8-1.3,0.8-1.3c0,0-0.3,0.5-0.9,1.2c-0.7,0.7-1.8,1.7-3.4,2.4c-0.8,0.4-1.7,0.7-2.7,0.9c-1,0.2-2.1,0.3-3.2,0.1
		c-1.1-0.1-2.3-0.5-3.2-1.3c-0.5-0.4-0.9-0.9-1.2-1.4c-0.2-0.3-0.3-0.6-0.4-0.9l-0.1-0.2l-0.1-0.4l-0.2-1.1l-0.9,0.3
		c-0.1,0-0.1,0.1-0.2,0.1l-0.2,0.1c-0.1,0-0.1,0-0.2,0c-0.3,0.1-0.6,0.1-0.8,0.1c-0.6,0-1.1-0.1-1.6-0.4c-1-0.5-1.7-1.6-2.1-2.9
		c-0.3-0.9-0.4-1.8-0.3-2.7c0-0.4,0.1-0.9,0.2-1.3c0-0.1,0.1-0.2,0.1-0.3l0-0.2l0.1-0.3c0.2-0.5,0.4-0.9,0.6-1.3c-0.5,0-1,0-1.5-0.1
		c-0.1,0-0.1,0-0.2,0l-0.1,0l-0.2,0c-0.1,0-0.2,0-0.3-0.1c-0.4-0.1-0.8-0.3-1.1-0.5c-0.7-0.4-1.2-1.1-1.5-1.8
		c-0.3-0.7-0.4-1.6-0.3-2.4c0.1-0.4,0.1-0.8,0.3-1.2c0.1-0.2,0.1-0.4,0.2-0.5c0.1-0.3,0.3-0.6,0.5-0.9c-0.1-0.1-0.3-0.2-0.5-0.3
		c-0.1-0.1-0.1-0.1-0.2-0.2c0,0-0.1-0.1-0.1-0.1c-0.1-0.1-0.2-0.3-0.3-0.5c-0.2-0.3-0.4-0.7-0.5-1.1c-0.2-0.7-0.3-1.5-0.3-2.2
		c0-0.5,0-0.9,0-1.3c0.3-1.3,0.6-2.4,1-3.4c0.1-0.1,0.3-0.3,0.4-0.4c0.1-0.1,0.2-0.2,0.3-0.3l0.2-0.1l0.1-0.1c0,0,0,0,0,0
		c0,0,0.1,0,0.1-0.1l0,0c0,0,0,0,0,0c0,0,0,0,0,0.1l0,0l0,0l0,0l0,0l-0.1,0.3c-0.2,0.9-0.3,1.8-0.3,2.7c0,1.8,0.2,3.5,0.7,5.2
		C168.5,58,170.1,61.2,172,64.1z M179.8,100.4c-2.6-2.1-5.8-6-8.9-11.4c-1.5-2.7-3.1-5.8-4.5-9.3c-1.4-3.5-2.6-7.3-3.5-11.5
		c-0.4-2.1-0.8-4.3-0.9-6.5c-0.1-2.2-0.1-4.5,0.3-6.8c0.4-2.3,1.2-4.5,2.5-6.4c0.1-0.2,0.3-0.3,0.4-0.5c-0.2,0.6-0.4,1.4-0.5,2.2
		c-0.3,1-0.5,2.1-0.7,3.3c-0.6,3.3-0.7,7.4-0.1,11.8c0.6,4.4,1.9,9.2,3.9,13.8c2,4.7,4.5,8.8,7.2,12.2c2.7,3.4,5.6,6,8.2,7.9
		c1.6,1.1,3,2.2,4.2,3.1c-0.2,0-0.4,0-0.6-0.1c-0.1,0-0.2,0.1-0.3,0.1l-0.4,0.1c-0.1,0-0.3,0.1-0.3,0.1c-0.3,0-0.6,0.1-0.9,0.1
		c-0.3,0-0.5,0.1-0.8,0.1c-0.2-0.1-0.6-0.2-1.1-0.4C182.3,102.2,181.1,101.5,179.8,100.4z M175.1,113c0,0,0-0.1,0-0.1
		c0-0.4,0-0.9,0.1-1.3c0.1-0.5,0.3-1,0.7-1.5c0.3-0.4,0.8-0.8,1.5-1c1.2-0.5,2.8-0.5,4.4-0.4c1.6,0.1,3.2,0.4,4.6,0.8
		c1.4,0.3,2.7,0.7,3.7,1.1c1.1,0.4,1.9,0.7,2.5,1c0.6,0.3,0.9,0.5,0.9,0.5c0,0-0.2-0.3-0.7-0.7c-0.5-0.4-1.3-0.9-2.3-1.5
		c-1-0.5-2.2-1.1-3.7-1.6c-1.4-0.5-3.1-0.9-4.9-1.1c-1.8-0.1-3.6,0-5.1,0.7c-0.7,0.4-1.4,0.9-1.8,1.6c-0.4,0.7-0.5,1.4-0.5,2
		c0,0.3,0,0.5,0,0.7c-0.1-0.1-0.1-0.2-0.2-0.2c-0.3-0.4-0.6-0.8-0.8-1.4c-0.2-0.5-0.3-1.2-0.1-1.8c0.2-0.6,0.7-1.2,1.4-1.7
		c1.3-0.9,3.2-1.6,5.2-2.1c1-0.3,2.1-0.5,3.3-0.7c0.6-0.1,1.2-0.2,1.7-0.2c0.3,0,0.6-0.1,0.9-0.1c0.3,0,0.4-0.1,0.6-0.1l0.5-0.1
		c0.6-0.2,1.3-0.4,1.9-0.6c0.3,0.1,0.5,0.2,0.7,0.3c0.3,0.1,0.7-0.4,1-0.5c0.1,0,0.1,0,0.1,0c0.1,0,0.2,0,0.3,0
		c-0.2-0.1-0.5-0.2-0.7-0.3c0.1,0,0.2-0.1,0.4-0.1c1.3-0.5,2.6-1,3.9-1.4c1.3-0.5,2.7-0.9,4.1-1.3c0.7-0.2,1.4-0.3,2-0.4
		c0.3,0,0.6,0,0.8,0c0.1,0,0.2,0.1,0.2,0.1c0,0,0,0,0.1,0l0.1,0.1c0.1,0.1,0.1,0.1,0.2,0.1c0.5,0.4,0.9,0.9,1.2,1.5
		c-0.1,0.1-0.1,0.1-0.1,0.1s0.1,0,0.2-0.1c0.3,0.6,0.5,1.2,0.6,1.9c0.3,1.4,0.2,2.9,0,4.5c-0.3,1.9-0.8,3.8-1.4,5.7
		c-0.6,1.8-1.3,3.6-2.1,5.3c-0.8,1.7-1.7,3.3-2.6,4.7c-0.5,0.7-1,1.4-1.5,2.1l-0.2,0.2l-0.1,0.1l0,0l-0.1,0.1c0,0-0.1,0.1-0.1,0.1
		l-0.1,0.1l0,0c0,0,0,0,0,0l-0.1-0.3l0-0.1l-0.1-0.3l-0.2-0.6c-0.3-0.9-0.6-1.7-1-2.5c-0.7-1.6-1.5-3-2.4-4.3
		c-1.7-2.6-3.7-4.5-5.6-5.7c-1.6-1-3.1-1.3-4.3-1.5c-0.2-0.1-0.4-0.1-0.6-0.2c-0.3-0.1-0.5-0.1-0.7-0.1c0-0.2-0.1-0.3-0.3-0.4
		c-0.1-0.2-0.4-0.3-0.6-0.3c-0.3,0-0.5,0.1-0.7,0.3c-0.2,0.2-0.2,0.3-0.3,0.5c-0.1,0.3-0.1,0.5-0.1,0.6c-0.2,0.2-0.5,0.5-0.8,0.9
		c-0.6,0.6-1.2,1.4-1.8,2.2C175.9,113.8,175.1,113.4,175.1,113z M188.3,114.7c-0.5-0.5-1-0.9-1.5-1.3c-0.5-0.4-1.1-0.8-1.6-1.2
		c0.3,0.2,0.5,0.3,0.8,0.5C186.8,113.3,187.6,113.9,188.3,114.7z M173.6,118.5c0.6,0,1.2-0.2,1.9-0.6c0.7-0.4,1.4-0.9,1.9-1.6
		c1.1-1.4,1.4-2.8,1.7-3.8c0.1-0.4,0.1-0.8,0.2-1.1c0.1,0,0.1,0.1,0.2,0.1c0.1,0.1,0.3,0.2,0.3,0.3c0.1,0.1,0.1,0.2,0.1,0.2
		c0,0,0-0.1,0.1-0.2c0.1-0.1,0.2-0.2,0.3-0.3c0.3-0.2,0.5-0.4,0.5-0.4s0-0.2,0-0.4c0.1,0,0.2,0,0.3,0c0.1,0,0.2,0.1,0.3,0.1
		c1.3,0.5,3,1.5,4.7,3.3c1.7,1.8,3.3,4.2,4.5,7.1c0.6,1.5,1.1,3.1,1.4,4.8c0.3,1.7,0.4,3.4,0.1,5.2c-0.1,0.8-0.4,1.6-0.7,2.4
		c-0.2,0.4-0.3,0.7-0.6,1.1l-0.2,0.2l0,0.1l0,0c0,0,0,0,0,0s0,0,0,0c0,0,0,0,0,0l0,0c0,0-0.1,0-0.2-0.1l-0.3-0.1
		c-0.4-0.1-0.9-0.1-1.3-0.1c-0.9,0-1.7,0.1-2.5,0.3c-1.5,0.3-2.9,0.8-4.2,1.3c-2.5,1-4.7,1.9-6.5,2.5c-1.9,0.6-3.4,0.7-4.5,0.7
		c-0.1,0-0.1,0-0.2,0c0.3-0.5,0.7-1,1-1.6c0.1-0.2,0.2-0.4,0.3-0.6c0.8,0,1.8-0.1,2.9-0.3c1.7-0.3,3.6-0.9,5.7-1.7
		c2-0.8,4.2-1.8,6.3-3.1c0.1,0,0.2,0.1,0.3,0.1c0.2,0.1,0.3,0.1,0.5,0.1l0.1,0l0.1,0l0.1,0l0.6,0c0.1-0.1,0.2-0.2,0.4-0.4
		c0.3-0.4,0.4-0.5,0.4-0.8c0.1-0.2,0.1-0.5,0.1-0.7c0-0.4-0.1-0.8-0.1-1c0-0.1,0-0.1-0.1-0.2c0.1-0.2,0.2-0.4,0.2-0.6
		c0.5-1.3,0.5-2.6,0.3-3.7c-0.2-1.2-0.6-2.2-1-3.1c-0.4-0.9-0.9-1.7-1.4-2.4c-1-1.4-1.9-2.4-2.6-3.1c-0.7-0.7-1.1-1-1-1
		c0,0,0.3,0.4,0.9,1.2c0.5,0.8,1.3,1.9,2.1,3.3c0.8,1.4,1.6,3.2,1.8,5.3c0.1,1,0,2.1-0.3,3.1c-0.2,0.5-0.5,0.9-0.8,1.4
		c-0.2,0.2-0.4,0.4-0.6,0.6c-0.1,0.1-0.2,0.2-0.3,0.3c-0.1,0.1-0.2,0.2-0.3,0.2c-2.1,1.3-4.2,2.4-6.2,3.3c-2,0.9-3.8,1.6-5.3,2.1
		c-0.9,0.3-1.8,0.5-2.5,0.6c0.8-1.4,1.5-3.1,2.1-4.9c0.3-1.1,0.6-2.3,0.8-3.5c0.2-1.3,0.2-2.6,0.1-3.9c-0.1-1.4-0.4-2.8-1-4.1
		c-0.3-0.7-0.7-1.5-1.2-2.2C173.5,118.5,173.5,118.5,173.6,118.5z M137.6,96.5c0.2,0,0.5,0,0.7,0.1l0.3,0c0.1,0,0.2,0,0.3,0
		c0.2,0,0.4,0,0.6,0.1c0.2,0.2,0.2,0.4,0.1,0.6c0,0.1-0.1,0.1-0.1,0.2c-0.3-0.1-0.6-0.3-0.9-0.4c-0.2-0.1-0.5-0.1-0.7-0.2
		c-0.2-0.1-0.5-0.1-0.8-0.1c-0.7,0-1.4,0.2-1.9,0.5c-0.1-0.3-0.1-0.6-0.1-0.9C135.9,96.4,136.8,96.5,137.6,96.5z M128.9,96.9
		c1.1-0.3,2.6-0.4,4.3-0.4c0.1,0.5,0.2,1.1,0.3,1.6c-0.3,0.1-0.6,0.3-0.8,0.4c-0.6,0.2-1.1,0.3-1.6,0.2c-0.5-0.1-0.9-0.3-1.2-0.6
		c-0.3-0.3-0.5-0.5-0.7-0.8c-0.1-0.2-0.2-0.3-0.3-0.4C128.8,96.9,128.9,96.9,128.9,96.9z M125.7,96.9c0.2,0.1,0.3,0.1,0.5,0.2
		c-0.1,0.1-0.1,0.1-0.2,0.2c-0.2,0.2-0.4,0.5-0.7,0.8c-0.3,0.3-0.7,0.5-1.2,0.6c-0.5,0.1-1.1,0-1.7-0.2c-0.3-0.1-0.6-0.2-0.8-0.4
		c0.1-0.5,0.2-1.1,0.3-1.6C123.4,96.5,124.8,96.6,125.7,96.9z M114.2,98.2c-0.1-0.2-0.2-0.4-0.1-0.6c0-0.2,0.2-0.4,0.4-0.5
		c0.1,0,0.3-0.1,0.4-0.2c0.2-0.1,0.4-0.1,0.6-0.1c0.4-0.1,0.9-0.1,1.3-0.2c1-0.1,2-0.1,3.2-0.1c0,0,0,0,0.1,0c0,0.3-0.1,0.6-0.1,0.8
		c-0.6-0.2-1.2-0.4-1.9-0.4c-0.2,0-0.5,0-0.7,0.1c-0.2,0-0.5,0.1-0.7,0.2c-0.5,0.2-0.9,0.3-1.4,0.6
		C114.9,97.9,114.6,98.1,114.2,98.2C114.3,98.2,114.3,98.2,114.2,98.2z M81.5,118.5c0.1,0,0.1,0,0.2,0c-0.4,0.7-0.8,1.4-1.2,2.2
		c-0.6,1.3-0.9,2.7-1,4.1c-0.1,1.4,0,2.7,0.1,3.9c0.2,1.2,0.4,2.4,0.8,3.5c0.6,1.8,1.3,3.4,2,4.9c-0.7-0.1-1.6-0.3-2.5-0.6
		c-1.6-0.5-3.4-1.2-5.4-2.1c-1.9-0.9-4.1-2-6.2-3.3c-0.1-0.1-0.2-0.2-0.3-0.2c-0.1-0.1-0.2-0.2-0.3-0.3c-0.2-0.2-0.4-0.4-0.6-0.6
		c-0.3-0.4-0.6-0.9-0.8-1.4c-0.4-1-0.5-2-0.3-3.1c0.2-2,1.1-3.8,1.8-5.3c0.8-1.4,1.5-2.5,2.1-3.3c0.5-0.8,0.9-1.2,0.9-1.2
		c0,0-0.4,0.3-1,1c-0.7,0.7-1.6,1.7-2.6,3.1c-0.5,0.7-1,1.5-1.4,2.4c-0.4,0.9-0.8,1.9-1,3.1c-0.2,1.2-0.2,2.5,0.3,3.7
		c0.1,0.1,0.1,0.3,0.2,0.4c-0.1,0.1-0.1,0.2-0.2,0.4c-0.1,0.3-0.3,0.7-0.3,1.1c0,0.2,0,0.5,0.1,0.7c0.1,0.4,0.3,0.7,0.6,1
		c0.1,0.1,0.3,0.3,0.4,0.4c0.4,0,0.8,0,1.1-0.1c0.1,0,0.1,0,0.2,0l0.1,0c0.1,0,0.2-0.1,0.3-0.1c0.2-0.1,0.4-0.2,0.5-0.3
		c2.1,1.3,4.1,2.2,6.1,3c2.1,0.8,4,1.4,5.7,1.7c1.1,0.2,2.1,0.3,2.9,0.3c0.1,0.2,0.2,0.4,0.3,0.6c0.3,0.6,0.7,1.1,1,1.6
		c-0.1,0-0.1,0-0.2,0c-1.1,0-2.6-0.2-4.5-0.7c-1.9-0.5-4-1.5-6.5-2.5c-1.3-0.5-2.6-1-4.2-1.3c-0.8-0.2-1.6-0.3-2.5-0.3
		c-0.4,0-0.9,0-1.3,0.1l-0.3,0.1c-0.1,0-0.3,0.1-0.2,0.1l0,0c0,0,0,0,0,0c0,0,0,0,0,0s0,0,0,0l0,0l0-0.1l-0.2-0.2
		c-0.2-0.3-0.4-0.7-0.5-1.1c-0.3-0.7-0.5-1.5-0.7-2.4c-0.3-1.7-0.2-3.5,0.1-5.2c0.3-1.7,0.8-3.3,1.4-4.8c1.2-2.9,2.9-5.4,4.5-7.1
		c1.7-1.8,3.4-2.8,4.7-3.3c0.1,0,0.2-0.1,0.3-0.1c0.1,0,0.2,0,0.3,0c0,0.2,0,0.4,0,0.4c0,0,0.2,0.2,0.5,0.4c0.1,0.1,0.5,0.4,0.5,0.4
		c0,0,0.1-0.1,0.1-0.2c0.1-0.1,0.2-0.2,0.3-0.3c0.1,0,0.1-0.1,0.2-0.1c0,0.3,0.1,0.6,0.2,1c0.2,1,0.6,2.5,1.7,3.8
		c0.5,0.7,1.2,1.2,1.9,1.6C80.3,118.3,80.9,118.4,81.5,118.5z M66.8,114.7c0.7-0.8,1.5-1.5,2.2-2c0.3-0.2,0.5-0.4,0.8-0.5
		c-0.5,0.3-1,0.7-1.6,1.2C67.8,113.8,67.3,114.2,66.8,114.7z M75,105c2,0.5,3.9,1.2,5.2,2.1c0.7,0.5,1.2,1,1.4,1.7
		c0.2,0.6,0.1,1.3-0.1,1.8c-0.2,0.5-0.5,1-0.8,1.4c-0.1,0.1-0.1,0.2-0.2,0.2c0-0.2,0-0.5,0-0.7c0-0.6-0.2-1.3-0.5-2
		c-0.4-0.7-1-1.2-1.8-1.6c-1.5-0.7-3.3-0.9-5.1-0.7c-1.8,0.2-3.4,0.6-4.9,1.1c-1.4,0.5-2.7,1.1-3.7,1.6c-1,0.5-1.8,1.1-2.3,1.5
		c-0.5,0.4-0.7,0.7-0.7,0.7c0,0,0.3-0.2,0.9-0.5c0.6-0.3,1.4-0.6,2.5-1c1.1-0.4,2.3-0.7,3.7-1.1c1.4-0.3,3-0.6,4.6-0.8
		c1.6-0.1,3.2-0.1,4.4,0.4c0.6,0.2,1.1,0.6,1.4,1c0.3,0.4,0.6,1,0.7,1.5c0.1,0.5,0.1,0.9,0.1,1.3c0,0,0,0.1,0,0.1
		c0,0.3-0.6,0.9-1,1.3c-0.7-0.9-1.4-1.7-1.9-2.3c-0.3-0.4-0.6-0.7-0.8-0.9c0-0.1,0-0.3-0.1-0.6c-0.1-0.2-0.1-0.4-0.3-0.5
		c-0.2-0.2-0.4-0.3-0.7-0.3c-0.3,0-0.5,0.1-0.7,0.3c-0.1,0.1-0.2,0.3-0.3,0.4c-0.2,0-0.4,0.1-0.7,0.1c-0.2,0-0.4,0.1-0.6,0.2
		c-1.1,0.1-2.7,0.5-4.3,1.5c-1.9,1.1-3.9,3.1-5.6,5.7c-0.9,1.3-1.6,2.7-2.3,4.3c-0.4,0.8-0.7,1.6-1,2.5l-0.2,0.6l-0.1,0.3l0,0.1
		l-0.1,0.3c0,0,0,0,0,0l0,0l-0.1-0.1c0,0-0.1-0.1-0.1-0.1l-0.1-0.1l0,0l-0.1-0.1l-0.2-0.2c-0.5-0.6-1-1.3-1.5-2.1
		c-1-1.5-1.8-3.1-2.6-4.7c-0.8-1.7-1.5-3.4-2.1-5.3c-0.6-1.8-1.1-3.7-1.4-5.7c-0.2-1.5-0.2-3.1,0-4.5c0.1-0.7,0.3-1.3,0.6-1.9
		c0.1,0.1,0.1,0.1,0.1,0.1c0,0,0,0-0.1-0.1c0.3-0.6,0.7-1.1,1.2-1.5c0.1-0.1,0.1-0.1,0.2-0.1l0.1-0.1c0,0,0.1,0,0.1,0
		c0,0,0.1,0,0.2-0.1c0.2,0,0.5-0.1,0.8,0c0.6,0,1.4,0.2,2,0.4c1.4,0.4,2.7,0.8,4.1,1.3c1.3,0.5,2.6,1,3.9,1.4c0.1,0,0.2,0.1,0.4,0.1
		c-0.2,0.1-0.5,0.2-0.7,0.3c0.1,0,0.2,0,0.3,0c0,0,0.1,0,0.1,0c0.3,0.1,0.8,0.6,1,0.5c0.2-0.1,0.5-0.2,0.7-0.3
		c0.6,0.2,1.3,0.4,1.9,0.6l0.5,0.1l0.2,0.1l0.1,0c0.1,0,0.1,0,0.2,0c0.3,0,0.6,0.1,0.9,0.1c0.6,0.1,1.2,0.1,1.7,0.2
		C72.9,104.6,74,104.8,75,105z M90.2,48.6c1.3,1.9,2.1,4.1,2.5,6.4c0.4,2.3,0.4,4.6,0.3,6.8c-0.1,2.2-0.5,4.4-0.9,6.5
		c-0.9,4.2-2.1,8-3.5,11.5c-1.4,3.5-2.9,6.6-4.5,9.3c-3.1,5.4-6.3,9.3-8.9,11.4c-1.3,1.1-2.4,1.7-3.3,2.1c-0.5,0.2-0.9,0.3-1.1,0.4
		c-0.3,0-0.5-0.1-0.8-0.1c-0.3,0-0.6-0.1-0.9-0.1c0,0,0,0,0,0l-0.1,0l-0.2-0.1l-0.4-0.1c-0.2-0.1-0.4-0.1-0.6-0.2
		c1.2-0.8,2.5-1.8,3.9-2.9c2.7-1.8,5.5-4.5,8.2-7.9c2.7-3.4,5.2-7.5,7.2-12.2c2-4.7,3.3-9.4,3.9-13.8c0.6-4.4,0.5-8.5-0.1-11.8
		c-0.2-1.2-0.4-2.3-0.7-3.3c-0.1-0.8-0.3-1.6-0.5-2.2C90,48.3,90.1,48.4,90.2,48.6z M76.7,71c2.5-1.9,4.6-4.3,6.4-6.9
		c1.9-2.9,3.5-6,4.4-9.4c0.4-1.7,0.7-3.4,0.7-5.2c0-0.9-0.1-1.8-0.3-2.7l-0.1-0.3l0,0l0,0l0,0l0,0c0,0,0,0,0-0.1c0,0,0-0.1,0,0l0,0
		c0,0,0.1,0,0.1,0.1c0,0,0,0,0,0l0.1,0.1l0.2,0.1c0.1,0.1,0.2,0.2,0.3,0.3c0.2,0.1,0.3,0.3,0.4,0.4c0.3,1,0.7,2.1,1,3.4
		c0,0.4,0,0.9,0,1.3c0,0.7-0.1,1.5-0.3,2.2c-0.1,0.4-0.3,0.7-0.5,1.1c-0.1,0.2-0.2,0.3-0.3,0.5c0,0-0.1,0.1-0.1,0.1
		c-0.1,0.1-0.1,0.1-0.2,0.2c-0.2,0.1-0.3,0.2-0.5,0.3c0.1,0.3,0.3,0.6,0.5,0.9c0.1,0.2,0.2,0.4,0.2,0.5c0.1,0.4,0.2,0.8,0.3,1.2
		c0.1,0.8,0,1.6-0.3,2.4c-0.3,0.7-0.8,1.4-1.5,1.8c-0.3,0.2-0.7,0.4-1.1,0.5c-0.1,0-0.2,0-0.3,0.1l-0.2,0l-0.1,0c-0.1,0-0.1,0-0.2,0
		c-0.5,0.1-1,0.1-1.5,0.1c0.2,0.4,0.4,0.9,0.6,1.3l0.1,0.3l0,0.2c0,0.1,0.1,0.2,0.1,0.3c0.1,0.4,0.2,0.9,0.2,1.3
		c0,0.9-0.1,1.8-0.3,2.7c-0.4,1.2-1.1,2.4-2.1,2.9c-0.5,0.3-1,0.4-1.6,0.4c-0.3,0-0.6,0-0.8-0.1c-0.1,0-0.1,0-0.2,0l-0.2-0.1
		c-0.1,0-0.1,0-0.2-0.1l-0.9-0.3l-0.2,1.1L78,74l-0.1,0.2c-0.1,0.3-0.2,0.6-0.4,0.9c-0.3,0.6-0.7,1-1.2,1.4
		c-0.9,0.8-2.1,1.2-3.2,1.3c-1.1,0.1-2.2,0.1-3.2-0.1c-1-0.2-1.9-0.5-2.7-0.9c-1.6-0.7-2.7-1.7-3.4-2.4c-0.7-0.7-0.9-1.2-0.9-1.2
		c0,0,0.2,0.5,0.8,1.3c0.6,0.8,1.7,1.9,3.3,2.8c0.8,0.4,1.7,0.8,2.8,1.1c1,0.3,2.2,0.5,3.5,0.4c1.2-0.1,2.6-0.4,3.8-1.3
		c0.6-0.4,1.1-1,1.5-1.7c0.2-0.3,0.4-0.7,0.5-1.1c0-0.1,0.1-0.2,0.1-0.3l0-0.1l0,0l0,0l0,0l0,0c0,0,0,0,0.1,0c0.1,0,0.2,0,0.3,0.1
		c0.4,0.1,0.7,0.1,1.1,0.2c0.8,0,1.5-0.1,2.2-0.5c0.7-0.4,1.3-0.9,1.8-1.6c0.5-0.6,0.8-1.4,1.1-2.1c0.3-1,0.4-2.1,0.4-3.2
		c0-0.5-0.1-1.1-0.2-1.6c0-0.1-0.1-0.3-0.1-0.4L85.8,65l0,0l0,0l0,0l0,0l0.1,0l0.2,0c0.1,0,0.3-0.1,0.4-0.1c0.5-0.2,1-0.4,1.4-0.7
		c0.9-0.6,1.6-1.5,1.9-2.5c0.3-1,0.4-2,0.2-3c-0.1-0.5-0.2-0.9-0.4-1.4c-0.1-0.2-0.2-0.4-0.3-0.6c0-0.1,0-0.1-0.1-0.1
		c0,0,0-0.1-0.1-0.1c0,0,0.1,0,0.1-0.1l0.2-0.2c0.2-0.2,0.3-0.4,0.4-0.6c0.2-0.4,0.4-0.9,0.5-1.3c0-0.2,0.1-0.4,0.1-0.6
		C90.8,57,90.7,61,90,65.2c-0.7,4.3-2,8.9-4,13.4c-2,4.5-4.3,8.6-6.9,12c-2.5,3.4-5.2,6.1-7.7,8.1c-1.7,1.3-3.3,2.3-4.7,3
		c-0.2-0.1-0.3-0.1-0.5-0.2c-0.1,0-0.2-0.1-0.3-0.1c-0.3-0.1-0.7-0.3-1-0.4c-1.2-0.5-2.5-1.1-3.9-1.6c-1.3-0.5-2.7-1.1-4.2-1.5
		c-0.8-0.2-1.5-0.4-2.4-0.5c-0.4,0-0.9-0.1-1.4,0c-0.3,0-0.6,0.1-0.9,0.3C52,97.7,52,97.7,52,97.8l-0.1,0.1
		c-0.1,0.1-0.2,0.1-0.3,0.2c-0.3,0.2-0.5,0.4-0.7,0.7c0.3,0.3,0.7,0.6,0.9,0.9c0,0.1-1,0.1-1.5,0.2c0-0.1-0.1-0.1-0.1-0.2
		c0,0.1-0.1,0.2-0.2,0.2c-0.1,0.1-0.2,0.2-0.2,0.4c-0.4,0.7-0.6,1.4-0.8,2.2c0.5,0.6,1,1.1,1.2,1.4c0.2,0.4-1.3,0-1.5,0.1
		c0,0,0,0,0,0.1c0,0,0,0,0,0.1c0,0.2,0,0.3,0,0.5c-0.2-0.2-0.3-0.5-0.5-0.7c-0.5-0.8-1-1.8-1.4-3c-0.8-2.3-1.3-5.2-1.5-8.4
		C45.1,90.7,45,89,45,87.3l0-1.3l0-0.7c0-0.2,0-0.4,0-0.7c0.1-0.9,0.2-1.8,0.4-2.7c0.7-3.6,1.8-6.9,3.2-9.8c0.7-1.4,1.4-2.7,2.3-3.7
		c0.8-1.1,1.8-1.9,2.8-2.3c0.1,0,0.1-0.1,0.2-0.1c0.6,0.7,1.3,1.5,2,2.2c0.5,0.5,1.1,1,1.7,1.5c0.3,0.2,0.6,0.4,0.9,0.6
		c0.3,0.2,0.6,0.4,0.9,0.6c1.3,0.7,2.6,1.4,4,2c1.4,0.5,2.9,0.9,4.5,1.1c1.6,0.1,3.2-0.1,4.7-0.6C74.1,72.7,75.5,71.9,76.7,71z
		 M72.7,66.1c0.3,0.6,0.4,1.3,0.3,1.9c0,0.7-0.3,1.3-0.7,1.8c-0.2,0.3-0.5,0.5-0.8,0.8c-0.1,0.1-0.3,0.2-0.5,0.3
		c-0.2,0.1-0.3,0.2-0.5,0.3c-0.9,0.4-1.8,0.6-2.7,0.6c-0.1,0-0.1,0-0.1,0c0.6-0.1,1.2-0.4,1.8-0.9c0.6-0.5,1.1-1.4,1.2-2.3
		c0.1-1,0-2.1-0.5-3.1c-0.4-1-1.1-2-2-2.8c0.1,0,0.5,0.1,1,0.3c0.6,0.3,1.5,0.7,2.3,1.6C72.1,64.9,72.4,65.5,72.7,66.1z M51.4,59.3
		c-0.2-1-0.4-2.1-0.4-3.3c0-0.6,0-1.2,0-1.8c0-0.3,0-0.6,0-1c0-0.3,0-0.6,0-1c0.1-2.6,0.7-5.4,1.9-8c0.6-1.3,1.4-2.7,2.3-3.9
		c0.5-0.6,0.9-1.3,1.5-1.9c0.5-0.6,1.1-1.2,1.6-1.8c1.2-1.1,2.5-2.1,4-2.9c1.5-0.9,3-1.6,4.7-2.2c3.3-1.2,6.9-2,10.6-1.9
		c1.6,0.1,3.2,0.3,4.7,0.9c1.5,0.5,2.8,1.4,3.8,2.5c0.3,0.3,0.5,0.6,0.7,0.9l0.2,0.2c0,0.1,0.1,0.2,0.1,0.2l0,0c0,0,0.1,0.1,0.1,0.2
		c0,0,0,0.1,0.1,0.1l0,0.1l0,0c0,0-0.1-0.1-0.1-0.1c0,0-0.1,0-0.1,0l-0.1,0c-0.1,0-0.2-0.1-0.3-0.1c-0.2,0-0.4-0.1-0.6-0.1
		c-0.9,0-1.6,0.3-2.3,0.6c-1.3,0.7-2.2,1.8-3,2.8c-1.5,2.1-2.6,4.3-3.4,6.6c-0.4,1.1-0.7,2.2-0.8,3.4l0,0.2c0,0,0,0,0,0.1l0,0.1
		l-0.1,0.4c0,0.3-0.1,0.5-0.1,0.8c0,0.5-0.1,1-0.1,1.6c-0.1,2-0.1,3.9-0.3,5.5c-0.2,1.6-0.5,3.1-1,4.2c-0.5,1.1-1.3,1.9-2.1,2.2
		c-0.5,0.2-1,0.3-1.4,0.4c-0.8-0.4-1.6-0.5-2.1-0.6c-0.6,0-1,0-1.1,0c0,0-0.1-0.1-0.1-0.1c-0.2-0.2-0.5-0.4-0.7-0.6
		c-0.1-0.1-0.3-0.2-0.4-0.3l-0.2-0.1l-0.1,0c-0.1-0.1-0.2-0.1-0.2-0.1l0,0c0,0,0,0,0,0l0.1,0l0.1,0l0.1,0l0.3-0.1
		c0.2-0.1,0.4-0.1,0.6-0.2c0.4-0.2,0.8-0.4,1.2-0.6c0.8-0.5,1.5-1,2.1-1.7c0.6-0.7,1.2-1.5,1.6-2.4c0.9-1.8,1.3-3.7,1.6-5.5
		c0.3-1.8,0.5-3.5,0.7-5.2c0.2-1.6,0.4-3.2,0.8-4.6c0.3-1.4,0.8-2.6,1.4-3.7c0.6-1,1.3-1.9,2-2.5c0.7-0.6,1.4-1,2-1.3
		c1.2-0.6,1.9-0.8,1.9-0.8c0,0-0.7,0.1-2,0.6c-0.6,0.2-1.4,0.6-2.2,1.2c-0.8,0.6-1.6,1.4-2.3,2.5c-0.7,1.1-1.3,2.4-1.7,3.8
		c-0.4,1.4-0.8,3-1,4.6c-0.3,1.6-0.5,3.4-0.9,5.1c-0.3,1.7-0.8,3.5-1.6,5.1c-0.8,1.5-1.8,2.8-3.1,3.6c-0.3,0.2-0.7,0.4-1,0.5
		c-0.2,0.1-0.4,0.2-0.5,0.2L66.6,60c0,0-0.1,0-0.2,0.1c-0.2,0.1-0.3,0.1-0.5,0.2l-0.6,0.2l-0.6,0.1l-1.3,0.2
		c-0.9,0.2-1.8,0.3-2.3,0.4l3,0.6c0.9,0.2,1.5,0.4,2,0.6c0.1,0.1,0.2,0.1,0.3,0.2l0.2,0.1c0.1,0.1,0.2,0.1,0.4,0.2
		c0.2,0.1,0.5,0.3,0.7,0.5c0.8,0.7,1.5,1.5,1.9,2.4c0.4,0.9,0.6,1.8,0.6,2.7c0,0.8-0.4,1.6-0.9,2.1c-0.5,0.5-1.1,0.8-1.6,1
		c-0.2,0.1-0.5,0.1-0.7,0.2c-1.7-0.3-3.4-0.9-5-1.8c-0.8-0.5-1.4-0.9-1.9-1.3c-0.1,0-0.1-0.1-0.2-0.1c0,0,0,0,0,0
		c-0.6-0.4-0.9-0.7-0.9-0.7s0.2,0.3,0.5,0.7c-0.2-0.1-0.4-0.3-0.6-0.4c-0.5-0.4-1-0.8-1.5-1.3c-0.3-0.3-0.5-0.5-0.8-0.8
		c-0.2-0.2-0.4-0.5-0.7-0.7c-0.4-0.5-0.9-1-1.4-1.5c-0.3-0.3-0.5-0.5-0.9-0.8c-0.2-0.1-0.4-0.3-0.6-0.4
		C52.3,61.7,51.8,60.6,51.4,59.3z M41.5,85.9c0.3-4.1,1.1-8.6,2.9-13c0.9-2.2,2.1-4.3,3.7-6.1c0.8-0.9,1.7-1.8,2.6-2.4
		c0.2-0.1,0.5-0.2,0.7-0.3c0.2,0,0.4,0,0.6,0c0.4,0.1,0.8,0.4,1.2,0.9c0.1,0.1,0.2,0.2,0.3,0.3c-1.2,0.4-2.3,1.2-3.3,2.3
		c-1,1.1-1.8,2.4-2.6,3.8c-0.8,1.4-1.5,3-2.1,4.7c-0.6,1.7-1.1,3.5-1.5,5.3c-0.2,0.9-0.3,1.9-0.4,2.9c0,0.2,0,0.5,0,0.7l0,0.7
		c0,0.5,0,0.9,0,1.4c0,1.8,0.2,3.5,0.3,5.2c0.4,3.3,1.1,6.3,2.1,8.6c0.3,0.7,1.5,3.1,2.5,4.9c0,0.7,0.1,1.4,0.2,2
		c0.1,0.5,0.2,1.1,0.3,1.6c-0.1-0.1-0.3-0.3-0.5-0.4c-0.9-0.8-2.1-2.2-3.3-4.2c-1.2-2-2.3-4.7-3-7.9C41.5,93.8,41.2,90,41.5,85.9z"
		/>
	<radialGradient id="SVGID_2_" cx="129.4991" cy="123.0241" r="114.3495" gradientUnits="userSpaceOnUse">
		<stop  offset="0.2" style="stop-color:#FFFFFF"/>
		<stop  offset="0.7" style="stop-color:#FFFFFF;stop-opacity:0.6"/>
		<stop  offset="1" style="stop-color:#FFFFFF"/>
	</radialGradient>
	<path class="st1" d="M168.2,187.8c-0.4-1-0.7-1.5-0.7-1.5s0.2,0.6,0.4,1.6c0.2,1.1,0.4,2.6,0.5,4.5c0,0.9,0,1.9-0.2,3
		c-0.1,0.5-0.2,1-0.4,1.5c-0.1,0.2-0.2,0.5-0.3,0.7c-0.1,0.1-0.1,0.2-0.2,0.3l0,0c0,0,0,0.1-0.1,0.1l-0.1,0.1l-0.1,0.2
		c-0.6,0.8-1.5,1.6-2.6,2.2c-0.5,0.3-1.1,0.5-1.7,0.6c-0.6,0.1-1.1,0.1-1.6,0c0.5-0.6,1-1.3,1.5-2.2c0.5-1,1-2.1,1.2-3.4
		c0.5-2.5,0.4-4.8,0.3-6.4c-0.1-1.6-0.2-2.6-0.2-2.6s-0.2,1-0.5,2.6c-0.3,1.6-0.5,3.8-1,6.1c-0.4,2.3-1.3,4.2-2,5.6
		c-0.3-0.2-0.6-0.6-0.7-1c0,0,0,0,0,0c0-0.1,0-0.2,0.1-0.4c0-0.3,0.1-0.6,0.2-0.8c0.1-0.6,0.3-1.1,0.4-1.7c0.3-1.1,0.6-2.2,0.8-3.3
		c0.1-0.3,0.1-0.6,0.1-0.8c0-0.1,0-0.2,0-0.2c0,0.1,0.1,0.2,0.1,0.2c0.3,0.6,0.6,1.1,0.6,1.1s0.3-0.4,0.5-1.1
		c0.2-0.7,0.4-1.7,0.2-2.8c-0.2-1-0.6-1.9-0.9-2.5c-0.3-0.6-0.6-1.1-0.6-1.1s-0.3,0.4-0.5,1.1c-0.2-0.8-0.4-1.5-0.7-2.1
		c0.1,0.1,0.3,0.1,0.4,0.2l0.3,0.1l0.2,0c0,0,0,0,0,0c0,0,0,0,0,0c0.4,0.1,0.8,0.3,1.2,0.4c0.8,0.2,1.7,0.4,2.7,0.4
		c0.5,0,1-0.1,1.5-0.3c0.5-0.2,1-0.6,1.3-1.2c0.3-0.5,0.4-1.1,0.5-1.6c0-0.5,0-0.9-0.1-1.4c-0.2-0.8-0.5-1.5-0.8-2.2
		c-0.4-0.7-0.9-1.3-1.4-1.8c-0.5-0.5-1-1-1.5-1.4c-1-0.8-2-1.5-2.9-2.1c-0.6-0.4-1.2-0.7-1.7-1c-0.2-0.2-0.5-0.5-0.8-0.8
		c-0.9-0.9-2.3-2-4-2.9c-0.5-0.3-1.1-0.5-1.6-0.7c0,0-0.2-0.2-0.4-0.4c-0.3-0.3-0.7-0.7-1.4-1c-0.7-0.3-1.6-0.5-2.6-0.5
		c-1,0.1-2.1,0.4-3.1,1.2c-1,0.7-1.6,1.7-2,2.6c-0.4,1-0.4,1.9-0.3,2.6c0,0.2,0.1,0.4,0.1,0.6c-0.3,0.3-0.7,0.7-1.3,1.1
		c-0.7,0.5-1.6,0.8-2.6,1.1c-1,0.2-2.2,0.3-3.5,0.4c-2.5,0-5-0.1-6.7-0.2c-0.4,0-0.8,0-1.1,0c0,0,0,0,0,0c0,0-0.3,0-0.9,0
		c-0.6,0-0.9,0-0.9,0c0,0,0,0,0,0c-0.3,0-0.7,0-1.1,0c-1.8,0.1-4.2,0.2-6.7,0.2c-1.3,0-2.4-0.1-3.5-0.4c-1-0.2-1.9-0.6-2.6-1.1
		c-0.6-0.4-1-0.8-1.3-1.1c0-0.2,0.1-0.4,0.1-0.6c0.1-0.7,0-1.7-0.3-2.6c-0.4-0.9-1-1.9-2-2.6c-1-0.7-2.1-1.1-3.1-1.2
		c-1-0.1-1.9,0.1-2.6,0.5c-0.7,0.3-1.1,0.7-1.4,1c-0.2,0.2-0.3,0.4-0.4,0.4c-0.5,0.2-1.1,0.4-1.6,0.7c-1.8,0.9-3.1,2-4,2.9
		c-0.3,0.3-0.6,0.6-0.8,0.8c-0.4,0.5-0.7,0.7-0.7,0.7c0,0,0,0,0,0s0.2-0.3,0.7-0.7c-0.6,0.3-1.1,0.6-1.7,1c-0.9,0.6-1.9,1.2-2.9,2.1
		c-0.5,0.4-1,0.9-1.5,1.4c-0.5,0.5-1,1.1-1.4,1.8c-0.4,0.7-0.6,1.4-0.8,2.2c-0.1,0.4-0.2,0.9-0.1,1.4c0,0.5,0.1,1,0.5,1.6
		c0.3,0.5,0.8,0.9,1.3,1.2c0.5,0.2,1,0.3,1.5,0.3c1,0,1.9-0.1,2.7-0.4c0.4-0.1,0.8-0.3,1.2-0.4c0,0,0,0,0,0c0,0,0,0,0,0l0.2,0
		l0.3-0.1c0.1,0,0.3-0.1,0.4-0.2c-0.3,0.6-0.5,1.3-0.7,2.1c-0.2-0.7-0.5-1.1-0.5-1.1s-0.3,0.4-0.6,1.1c-0.3,0.6-0.7,1.5-0.9,2.5
		c-0.2,1,0,2.1,0.2,2.8c0.2,0.7,0.5,1.1,0.5,1.1s0.3-0.4,0.6-1.1c0-0.1,0.1-0.2,0.1-0.2c0,0.1,0,0.2,0,0.2c0,0.3,0.1,0.6,0.1,0.8
		c0.2,1.1,0.5,2.2,0.8,3.3c0.2,0.6,0.3,1.1,0.4,1.7c0.1,0.3,0.1,0.6,0.2,0.8c0,0.1,0,0.3,0,0.4c0,0,0,0,0,0c-0.2,0.4-0.4,0.8-0.7,1
		c-0.7-1.4-1.6-3.3-2-5.6c-0.5-2.3-0.7-4.5-1-6.1c-0.3-1.6-0.5-2.6-0.5-2.6s-0.1,1-0.2,2.6c-0.1,1.6-0.2,3.9,0.3,6.4
		c0.3,1.2,0.7,2.4,1.2,3.4c0.5,0.9,1,1.6,1.5,2.2c-0.5,0.1-1,0.1-1.6,0c-0.6-0.1-1.1-0.3-1.7-0.6c-1.1-0.5-2-1.3-2.6-2.2l-0.1-0.2
		l-0.1-0.1c0,0,0-0.1-0.1-0.1l0,0c-0.1-0.1-0.1-0.2-0.2-0.3c-0.1-0.2-0.2-0.5-0.3-0.7c-0.2-0.5-0.3-1-0.4-1.5c-0.2-1-0.2-2-0.2-3
		c0-1.9,0.3-3.4,0.5-4.5c0.2-1,0.3-1.6,0.3-1.6c0,0-0.3,0.5-0.7,1.5c-0.4,1-0.9,2.5-1.2,4.4c-0.2,1-0.3,2.1-0.2,3.3
		c0,0.6,0.1,1.2,0.3,1.9c0.1,0.3,0.2,0.7,0.3,1c0.1,0.2,0.2,0.3,0.2,0.5l0,0.1c0,0,0,0,0,0l0.1,0.1c0,0.1,0.1,0.2,0.1,0.3
		c0.8,1.3,1.9,2.3,3.3,3.1c0.7,0.4,1.4,0.7,2.2,0.9c0.1,0.2,0.2,0.4,0.3,0.6c0.5,1.2,1.4,2.9,2.7,4.9c1.3,2,3,4.2,5.4,6.3
		c0.6,0.5,1.2,1,1.9,1.5c0.3,0.2,0.7,0.5,1.1,0.7c0.2,0.1,0.4,0.2,0.6,0.3l0.3,0.2c0.2,0.1,0.4,0.2,0.5,0.3c1.5,0.7,2.9,1.2,4.1,1.5
		c1.2,0.3,2.2,0.4,3.4,0.6l2.6,0.4l-3.1-2.6c-1-0.9-2.3-1.8-3.6-2.7l-2.6-1.9c-0.6-0.4-1.2-0.9-1.7-1.3c-2.2-1.7-4-3.4-5.3-5.1
		c-1.3-1.6-1.9-3.2-2.1-4.4c0-0.1,0-0.2-0.1-0.3c0.1-0.1,0.1-0.1,0.2-0.1c0.5-0.5,0.9-1.2,1.1-1.8l-0.1,0.1c0.2-0.4,0.1-0.5,0.2-0.7
		c0-0.1,0-0.3,0-0.4c0-0.2-0.1-0.4-0.1-0.6c-0.1-0.3-0.2-0.7-0.3-1c-0.2-0.6-0.4-1.2-0.6-1.8c-0.4-1.1-0.8-2.2-1.1-3.2
		c-0.1-0.5-0.3-1-0.3-1.3l-0.1-1.5c0-0.9-0.1-1.8,0-2.6c0.1-1.1,0.2-2.1,0.5-2.8c0.6-0.3,1.2-0.7,1.7-1.1c1.3-1,2.3-2,3.3-3
		c1-1,1.9-1.9,2.8-2.7c0.9-0.8,1.8-1.3,2.7-1.7c1.8-0.7,3.5-0.5,4.7-0.3c0.5,0.1,0.9,0.2,1.1,0.3c0.6,0.7,1.5,1.4,2.6,1.9
		c1.2,0.5,2.6,0.8,4,0.8c2.9,0.1,5.3-0.7,7-1.3c0.7-0.3,1.3-0.5,1.8-0.7c0.5,0.2,1,0.5,1.8,0.7c1.7,0.6,4.1,1.4,7,1.3
		c1.4,0,2.8-0.3,4-0.8c1.1-0.5,2-1.2,2.6-1.9c0.3-0.1,0.7-0.2,1.1-0.3c1.1-0.2,2.8-0.4,4.7,0.3c0.9,0.4,1.8,0.9,2.7,1.7
		c0.9,0.8,1.8,1.7,2.8,2.7c1,1,2,2.1,3.3,3c0.5,0.4,1.1,0.8,1.7,1.1c0.2,0.8,0.4,1.7,0.5,2.8c0,0.8,0,1.6,0,2.6l-0.1,1.5
		c0,0.4-0.2,0.8-0.3,1.3c-0.3,1-0.7,2.1-1.1,3.2c-0.2,0.6-0.4,1.1-0.6,1.8c-0.1,0.3-0.2,0.6-0.3,1c0,0.2-0.1,0.4-0.1,0.6
		c0,0.1,0,0.2,0,0.4c0,0.2,0,0.3,0.2,0.7l-0.1-0.1c0.2,0.6,0.6,1.2,1.1,1.8c0.1,0.1,0.1,0.1,0.2,0.1c0,0.1,0,0.2-0.1,0.3
		c-0.3,1.1-0.9,2.7-2.1,4.4c-1.2,1.7-3,3.4-5.3,5.1c-0.6,0.4-1.1,0.9-1.7,1.3l-2.6,1.9c-1.2,0.9-2.5,1.9-3.6,2.7l-3.1,2.6l2.6-0.4
		c1.2-0.2,2.1-0.3,3.4-0.6c1.2-0.3,2.7-0.8,4.1-1.6c0.2-0.1,0.4-0.2,0.5-0.3l0.3-0.2c0.2-0.1,0.4-0.2,0.5-0.3
		c0.4-0.2,0.7-0.5,1.1-0.7c0.7-0.5,1.3-1,1.9-1.5c2.4-2.1,4.2-4.4,5.4-6.3c1.3-2,2.1-3.7,2.7-4.9c0.1-0.2,0.2-0.4,0.3-0.6
		c0.8-0.2,1.6-0.5,2.2-0.9c1.3-0.8,2.5-1.8,3.2-3.1c0-0.1,0.1-0.2,0.1-0.3l0.1-0.1l0,0l0-0.1c0.1-0.2,0.2-0.3,0.2-0.5
		c0.1-0.3,0.3-0.7,0.3-1c0.2-0.6,0.3-1.3,0.3-1.9c0.1-1.2,0-2.3-0.2-3.3C169.1,190.3,168.6,188.8,168.2,187.8z M96.2,202.7
		c0.1,1.2,0.4,3,1.6,4.9c1.1,1.9,2.8,3.9,5,5.9c0.5,0.5,1.1,1,1.7,1.5l0.9,0.7l0.1,0c0,0,0,0,0,0l0,0l0,0l0,0c0,0.1,0,0.1-0.1,0l0,0
		c0,0,0.1,0,0,0c0,0,0,0,0,0c0,0,0,0,0,0l-0.1,0l-0.1-0.1l-0.5-0.3c-0.3-0.2-0.7-0.4-1-0.6c-0.7-0.4-1.3-0.8-1.9-1.3
		c-2.4-1.8-4.3-3.8-5.7-5.5c-1.5-1.8-2.5-3.3-3.3-4.4c-0.1-0.1-0.2-0.3-0.3-0.4c0.7,0.1,1.5,0.2,2.3-0.1c0.4-0.1,0.8-0.3,1.1-0.5
		c0.2,0.2,0.3,0.3,0.3,0.3c0,0-0.1-0.1-0.2-0.4c0.1,0,0.1-0.1,0.2-0.1C96.2,202.6,96.2,202.6,96.2,202.7z M109,175
		c-0.9-0.1-1.9-0.1-3,0.1c-1.1,0.3-2.2,0.8-3.3,1.5c-1.1,0.7-2.1,1.6-3.2,2.5c-1.1,0.9-2.1,1.9-3.3,2.7c-0.6,0.4-1.2,0.7-1.8,1
		c-0.2,0.1-0.3,0.1-0.5,0.2l-0.6,0.2c-0.3,0.1-0.7,0.2-1,0.4c-0.7,0.2-1.4,0.3-2,0.3c-0.3,0-0.5,0-0.7-0.1c-0.2-0.1-0.3-0.2-0.4-0.3
		c-0.2-0.2-0.3-0.8-0.2-1.4c0.1-0.6,0.3-1.2,0.5-1.8c0.2-0.5,0.6-1,1-1.5c0.4-0.5,0.8-0.9,1.2-1.4c0.8-0.9,1.7-1.6,2.5-2.3
		c0.8-0.6,1.4-1.2,2.1-1.6c0.1,0,0.2-0.1,0.4-0.1c1.2-0.4,2.8-1,4.5-1.8c1.6-0.8,3-1.7,4.1-2.3l0.6-0.3c0.7,0.2,1.3,0.6,1.9,1.1
		c1.3,1,2.2,2.3,2.5,3.4c-0.5-0.1-1.2-0.1-2.1-0.1c-1.8,0-4.3,0.5-6.8,1.6c-2.5,1.1-4.6,2.4-6,3.4c-1.4,1-2.3,1.7-2.3,1.7
		c0,0,1-0.3,2.7-1c1.6-0.7,3.8-1.7,6.3-2.7c2.4-1,4.6-1.8,6.3-2.2c0.9-0.2,1.6-0.3,2.1-0.4c0.2,0.8,0.3,1.5,0.3,1.7
		C110.3,175.3,109.7,175.1,109,175z M111.1,175.6c-0.1,0-0.2-0.1-0.2-0.1c0.1-0.1,0.1-0.2,0.2-0.4c0-0.1,0.1-0.2,0.1-0.3
		c0.2,0.4,0.4,0.8,0.7,1.2C111.7,175.9,111.4,175.8,111.1,175.6z M144,175.6c-0.3,0.1-0.6,0.3-0.8,0.4c0.3-0.4,0.5-0.8,0.7-1.2
		c0,0.1,0.1,0.2,0.1,0.3c0.1,0.2,0.2,0.3,0.2,0.4C144.2,175.6,144.1,175.6,144,175.6z M155.6,179.2c-1-0.9-2.1-1.8-3.2-2.5
		c-1.1-0.7-2.2-1.3-3.3-1.5c-1.1-0.3-2.1-0.3-3-0.1c-0.7,0.1-1.3,0.3-1.8,0.5c0-0.3,0-0.9,0.3-1.7c0.5,0.1,1.2,0.2,2,0.4
		c1.7,0.4,3.9,1.2,6.3,2.2c2.4,1,4.6,2,6.3,2.7c1.6,0.7,2.7,1,2.7,1c0,0-0.9-0.7-2.3-1.7c-1.5-1-3.5-2.4-6-3.4
		c-2.5-1.1-5-1.6-6.8-1.6c-0.9,0-1.6,0.1-2.1,0.1c0.4-1.2,1.2-2.5,2.5-3.4c0.6-0.5,1.3-0.8,2-1.1l0.6,0.3c1.1,0.6,2.5,1.4,4.1,2.3
		c1.6,0.8,3.2,1.4,4.5,1.8c0.1,0,0.2,0.1,0.4,0.1c1,0.3,1.6,0.4,1.7,0.4l0,0c0,0-0.7-0.1-1.7-0.4c0.6,0.5,1.3,1,2.1,1.6
		c0.8,0.7,1.6,1.4,2.5,2.3c0.4,0.4,0.8,0.9,1.2,1.4c0.4,0.5,0.7,1,1,1.5c0.2,0.5,0.4,1.2,0.5,1.8c0.1,0.6,0,1.2-0.1,1.4
		c-0.1,0.1-0.2,0.2-0.4,0.3c-0.2,0.1-0.4,0.1-0.7,0.1c-0.6,0-1.3-0.1-2-0.3c-0.3-0.1-0.7-0.2-1-0.4l-0.6-0.2
		c-0.2-0.1-0.3-0.1-0.5-0.2c-0.6-0.3-1.2-0.6-1.8-1C157.7,181.1,156.6,180.1,155.6,179.2z M159.1,202.7c-0.2,0.2-0.2,0.3-0.2,0.4
		c0-0.1,0-0.2,0-0.4c0,0,0-0.1,0-0.1C159,202.6,159.1,202.6,159.1,202.7z M162.5,203.7c-0.7,1.1-1.8,2.6-3.3,4.4
		c-1.5,1.8-3.4,3.7-5.7,5.5c-0.6,0.4-1.2,0.9-1.9,1.3c-0.3,0.2-0.7,0.4-1,0.6l-0.5,0.3l-0.1,0.1c0,0-0.1,0-0.1,0c0,0,0,0,0,0
		c-0.1,0,0-0.1,0,0l0,0c-0.1,0-0.1,0-0.1,0l0,0l0,0l0,0c0,0,0,0,0,0l0.1,0l0.9-0.7c0.6-0.5,1.1-1,1.7-1.5c2.2-1.9,3.9-4,5-5.9
		c1-1.7,1.4-3.4,1.5-4.6c0,0,0.1-0.1,0.4-0.3c0.4,0.2,0.7,0.4,1.1,0.5c0.8,0.2,1.6,0.2,2.3,0.1C162.7,203.4,162.6,203.5,162.5,203.7
		z"/>
	<radialGradient id="SVGID_3_" cx="129.4991" cy="123.0241" r="114.3495" gradientUnits="userSpaceOnUse">
		<stop  offset="0.2" style="stop-color:#FFFFFF"/>
		<stop  offset="0.7" style="stop-color:#FFFFFF;stop-opacity:0.6"/>
		<stop  offset="1" style="stop-color:#FFFFFF"/>
	</radialGradient>
	<path class="st2" d="M215.1,191.9c-0.2-0.7-0.4-1.6-0.6-2.1c-0.3-0.8-0.6-1.6-0.9-2.3c-1.2-2.9-2.8-5.4-4.2-7.2
		c-1.4-1.9-2.8-3.2-3.8-4.1c-0.6-0.5-1-0.9-1.3-1.1c0,0,0-0.1,0-0.1c0-0.9-0.2-1.7-0.5-2.5c-0.3-0.8-0.7-1.5-1.2-2.2
		c-0.5-0.6-1.1-1.1-1.7-1.5c-1.2-0.8-2.4-1.4-3.5-1.9c-1.1-0.5-2.2-0.9-3.2-1.2c-1.9-0.6-3.5-1.1-4.6-1.4c-0.8-0.2-1.4-0.4-1.6-0.5
		c-0.1-0.2-0.2-0.4-0.3-0.6c-0.3-0.4-0.6-0.8-0.9-1.2c0,0-0.1-0.1-0.1-0.1l-0.1-0.1l-0.1-0.1c-0.1-0.1-0.2-0.2-0.3-0.3
		c-0.2-0.2-0.4-0.3-0.6-0.5c-0.8-0.6-1.6-1-2.5-1.4c-1.7-0.7-3.3-1.1-4.8-1.5c-1.5-0.3-2.9-0.5-4.2-0.7c-2.6-0.4-4.6-0.6-6.1-0.9
		c-1.4-0.3-2.2-0.5-2.2-0.5s0.7,0.4,2.1,0.8c1.4,0.5,3.4,1,5.9,1.7c1.2,0.3,2.6,0.7,4,1.1c1.4,0.4,2.9,1,4.4,1.7
		c0.7,0.4,1.4,0.8,2,1.3c0.2,0.1,0.3,0.3,0.4,0.4c0.1,0.1,0.1,0.1,0.2,0.2l0.1,0.1l0,0c0,0,0,0,0,0c0.2,0.3,0.5,0.7,0.7,1
		c0.4,0.7,0.7,1.5,0.6,1.9c0,0.2-0.1,0.4-0.3,0.6c-0.2,0.2-0.5,0.4-0.9,0.5c-0.7,0.3-1.6,0.4-2.5,0.4c-0.9,0-1.7-0.1-2.6-0.3
		c-0.4-0.1-0.8-0.2-1.2-0.3c-0.4-0.1-0.8-0.3-1.3-0.4c-0.8-0.3-1.6-0.6-2.4-0.8c-3.2-1.2-6-2.4-8.4-3.4c-2.4-1-4.4-1.7-5.8-2.1
		c-0.4-0.1-0.8-0.2-1.1-0.3c0-0.2,0-0.4,0-0.6c0.1-0.5,0.2-0.9,0.5-1.4c0.5,0.3,1.3,0.7,2.3,1.2c1.9,1,4.6,2.2,7.6,3.4l7.6,3.1
		l3.2,1.3c0,0-1-0.8-2.8-2c-1.8-1.1-4.4-2.6-7.4-3.8c-3-1.2-5.8-2.1-7.9-2.7c-1-0.3-1.9-0.5-2.5-0.7c0-0.1,0.1-0.1,0.1-0.2
		c0.4-0.5,0.8-1,1.4-1.3c0.5-0.3,1.1-0.5,1.6-0.6c1.1-0.2,1.9,0,1.9-0.1c0,0-0.5-0.6-1.8-1.1c-0.6-0.2-1.5-0.3-2.4-0.1
		c-0.9,0.2-1.9,0.8-2.6,1.8c-0.7,0.9-0.9,2.1-0.7,3.1c0.1,1,0.6,1.7,1.1,2.2c0.5,0.5,0.9,0.8,1.2,0.9c0.3,0.2,0.5,0.2,0.5,0.2
		c0,0-0.5-0.7-0.8-1.7c-0.1-0.3-0.1-0.6-0.1-1c0.3,0.1,0.6,0.3,1,0.5c1.3,0.6,3.2,1.6,5.4,2.8c2.3,1.2,5,2.7,8.1,4.1
		c0.8,0.4,1.6,0.7,2.5,1c0.4,0.2,0.9,0.3,1.3,0.5c0.4,0.2,0.9,0.3,1.4,0.4c1,0.2,2,0.4,3,0.4c1,0,2.1-0.1,3.3-0.5
		c0.1,0,0.1-0.1,0.2-0.1c0.2,0.1,0.3,0.2,0.5,0.4c0.9,0.7,2.1,1.8,3.5,3.2c1.4,1.4,3,3.2,5,5.1c0.5,0.5,1.1,0.9,1.7,1.4
		c0.6,0.4,1.3,0.9,2.3,1.1c0.2,0.1,0.5,0.1,0.8,0.1c0.1,0,0.4,0,0.5-0.1c0.1,0,0.2-0.1,0.3-0.1c0.4-0.1,0.9-0.3,1.3-0.6
		c0.2-0.1,0.4-0.2,0.5-0.4c0.5,0.8,1.4,2,2.7,3.7c1,1.4,2.2,3.1,3.5,5c0.6,1,1.2,2,1.8,3.1l0.3,0.6c0.1,0.3,0.3,0.5,0.4,0.8
		c0.3,0.6,0.6,1.2,0.8,1.9c0.1,0.4,0.3,0.7,0.4,1.2l0.1,0.3c0,0.1,0.1,0.2,0.1,0.4l0.3,0.9l0.1,0.2c0,0.1,0.1,0.2,0.1,0.4l0.2,0.7
		l0.4,1.7l1.2,5.2c0.2-1.5,0.3-2.1,0.3-2.4c0.1-0.4,0.1-0.5,0.1-0.6c0-0.1,0-0.1,0,0l0.2-2c0.1-1,0.2-1.9,0.2-2.9
		c0-1-0.1-2.2-0.3-3.6C215.5,193.4,215.3,192.6,215.1,191.9z M208,180c-0.1-0.1-0.1-0.2-0.2-0.3c-1.1-1.3-2.4-2.2-3.3-2.9
		c-0.1-0.1-0.2-0.1-0.3-0.2c0.1-0.5,0.1-1.1,0.1-1.6C204.9,175.8,206.4,177.4,208,180z M201.8,176.9c-0.2,0.5-0.5,1-0.9,1.2
		c-0.2,0.1-0.4,0.2-0.7,0.3c-0.1,0-0.1,0-0.2,0.1c0,0,0,0-0.1,0c-0.1,0-0.2,0-0.3,0c-0.5-0.1-1.1-0.4-1.6-0.7
		c-0.5-0.3-1.1-0.7-1.6-1.1c-2.1-1.6-3.9-3.2-5.5-4.5c-1.6-1.3-3-2.2-4.1-2.7c-0.1-0.1-0.3-0.1-0.4-0.2c0.2-0.1,0.5-0.3,0.7-0.4
		c0.1,0.1,0.2,0.1,0.3,0.2c0.9,0.5,2,1.2,3.2,2.1c1.2,0.9,2.4,1.7,3.2,2.3c0.9,0.6,1.4,0.9,1.4,0.9s-0.3-0.6-0.9-1.4
		c-0.6-0.9-1.5-2-2.9-3c-1.3-1-2.7-1.5-3.8-1.6c0.4-0.5,0.7-1.1,0.8-1.7c0.1-0.7,0-1.4-0.2-1.9c-0.1-0.3-0.2-0.6-0.4-0.9
		c0.2,0.1,0.7,0.4,1.4,0.8c1,0.5,2.5,1.2,4.3,2.1c0.9,0.4,1.9,0.9,2.9,1.5c1,0.6,2.1,1.2,3,2c0.5,0.4,0.9,0.8,1.3,1.3
		c0.3,0.4,0.6,1,0.8,1.6C202.1,174.4,202.2,175.8,201.8,176.9z M212.6,190.6C212.6,190.7,212.6,190.7,212.6,190.6
		C212.6,190.7,212.5,190.6,212.6,190.6c-0.1,0,0,0.2,0,0.2c0,0,0,0-0.1,0c0,0,0,0-0.1-0.1l0,0c0,0,0,0,0,0l-0.1-0.2
		c-0.7-1.1-1.4-2.2-2.2-3.1c-1.5-1.9-2.9-3.4-4.1-4.6c-1.4-1.5-2.5-2.6-3.2-3.3c0.4-0.4,0.8-0.9,1.1-1.5c0.5,1,1.3,2.2,2.3,3.3
		c1.1,1.2,2.1,2.2,2.8,3.1l1.2,1.4c0,0,0.1-0.7-0.2-1.9c-0.1-0.3-0.2-0.6-0.3-1c0.8,1.6,1.6,3.4,2.3,5.3c0.2,0.7,0.5,1.4,0.7,2.2
		C212.6,190.7,212.6,190.6,212.6,190.6z"/>
	<radialGradient id="SVGID_4_" cx="129.4991" cy="123.0241" r="114.3495" gradientUnits="userSpaceOnUse">
		<stop  offset="0.2" style="stop-color:#FFFFFF"/>
		<stop  offset="0.7" style="stop-color:#FFFFFF;stop-opacity:0.6"/>
		<stop  offset="1" style="stop-color:#FFFFFF"/>
	</radialGradient>
	<path class="st3" d="M233.1,171.1l-0.1-0.3l-0.5-1.3l-0.7-1.7c-0.2-0.5-0.5-1.1-0.8-1.7c-0.6-1.2-1.6-2.7-2.7-4.2
		c-0.1-0.2-0.3-0.4-0.4-0.5l-0.4-0.5l-0.5-0.6c-0.3-0.4-0.7-0.7-1-1.1c-0.7-0.7-1.4-1.3-2-1.9c-2.8-2.4-5.6-4.1-8.2-5.2
		c-2.5-1.1-4.8-1.5-6.3-1.5c0,0,0,0,0,0c-0.5-0.5-0.9-0.9-1.4-1.3l-0.5-0.4c-0.2-0.1-0.4-0.3-0.5-0.4c-0.4-0.2-0.8-0.4-1.1-0.6
		c-0.8-0.3-1.5-0.5-2.3-0.6c-1.5-0.2-2.8-0.2-4.1-0.2c-1.3,0.1-2.4,0.2-3.4,0.3c-2.1,0.2-3.8,0.5-4.9,0.5c-0.1,0-0.2,0-0.3,0
		c-0.1-0.2-0.3-0.4-0.5-0.6c-0.5-0.5-1-0.7-1.4-1c-0.5-0.2-1-0.4-1.4-0.5c-1.9-0.5-3.6-0.7-5.3-0.7c-3.3-0.2-6.3,0-8.8,0.3
		c-1.5,0.1-2.8,0.3-3.9,0.4c-0.3,0-0.7-0.1-1.1,0c-0.6,0-1.4,0.2-2.2,0.5l-0.8,0.1c0,0,0.2,0,0.5,0c-0.9,0.4-1.9,1-2.7,1.9
		c-0.8,0.9-1.4,2-1.4,3.2c0,0.6,0.2,1.3,0.6,1.7c0.4,0.5,0.8,0.7,1.2,0.8c0.8,0.2,1.4,0.2,1.8,0.1c0.4-0.1,0.6-0.1,0.6-0.1
		s-0.2-0.1-0.6-0.2c-0.1,0-0.1-0.1-0.2-0.1c0.1,0,0.3,0,0.4,0c1.4,0.1,3.4,0.3,5.8,0.6c2.5,0.3,5.4,0.7,8.7,0.8c1.7,0,3.5,0,5.3-0.4
		c0.9-0.2,1.9-0.5,2.8-1c0.5-0.3,0.9-0.6,1.4-1c1,0.2,2.2,0.6,3.6,0.9c2,0.5,4.4,1.2,7.2,1.6c0.7,0.1,1.4,0.2,2.2,0.2l0.6,0l0.3,0
		c0,0,0,0,0,0l0.1,0l0.1,0c0.4,0,0.8,0.1,1.1,0.1c0.8,0,1.6,0.1,2.4,0c0,0,0.1,0,0.1,0c1.2,0.4,2.9,1,4.9,1.8c2.1,0.9,4.6,2,7.3,3.5
		c1.3,0.8,2.7,1.6,4,2.6l0.5,0.4l0.9,0.6c0.7,0.5,1.3,1.1,2.1,1.7c0.4,0.3,0.8,0.7,1.2,1.1c0.5,0.5,0.9,0.9,1.5,1.5l4,4.2
		L233.1,171.1z M191.1,148.3c1.2,0.2,2.9,0.2,5,0.3c1,0,2.2,0.1,3.4,0.1c1.2,0.1,2.5,0.2,3.7,0.5c0.6,0.1,1.2,0.3,1.8,0.6
		c0.3,0.1,0.5,0.3,0.8,0.5c0.1,0.1,0.2,0.2,0.4,0.3l0.4,0.3c0.1,0.1,0.2,0.2,0.3,0.3c-0.4,0.1-0.8,0.2-1.3,0.3
		c-0.8,0.2-1.8,0.3-2.9,0.3c-1.1,0.1-2.3,0-3.5-0.2c-2.5-0.3-4.7-0.9-6.4-1.3l-1.6-0.4c0-0.2,0-0.3,0-0.5
		C191.2,149,191.1,148.6,191.1,148.3C191,148.3,191,148.3,191.1,148.3z M163.7,151.7c0.1-0.5,0.6-1.2,1.2-1.9
		c1.2-1.3,2.6-2.3,3.8-2.9c0.4-0.2,0.7-0.3,1-0.4l3.8,0.1c2.5,0.1,5.4,0.2,8.6,0.5c1.6,0.2,3.3,0.4,4.8,0.9c0.8,0.2,1.5,0.6,1.9,1
		c0.2,0.2,0.2,0.3,0.2,0.5c0,0.1,0,0.3-0.1,0.5c-0.6,0.4-1.4,0.9-2.6,1.2c-1.2,0.3-2.7,0.3-4.4,0.1c-1.7-0.2-3.5-0.5-5.5-0.8
		c-2-0.3-3.9-0.5-5.7-0.5c-1.8,0-3.4,0.3-4.7,0.8c-1.2,0.5-1.9,1.3-2.4,1.9c0-0.1,0-0.1-0.1-0.2C163.6,152.2,163.6,152,163.7,151.7z
		 M185,152.6c-1.6,0.4-3.3,0.5-4.9,0.6c-3.2,0.1-6.2,0-8.6,0c-2.5,0-4.5,0-5.9,0.2c-0.3,0-0.6,0.1-0.9,0.1c-0.2-0.1-0.5-0.3-0.7-0.5
		c-0.1-0.1-0.2-0.1-0.2-0.2c0.5-0.5,1.3-1.1,2.5-1.4c1.2-0.3,2.7-0.4,4.4-0.3c1.7,0.1,3.5,0.5,5.5,0.8c2,0.3,3.9,0.6,5.6,0.6
		c1.8,0,3.4-0.1,4.7-0.6c0.8-0.3,1.4-0.6,1.8-1c-0.3,0.3-0.7,0.6-1.1,0.9C186.6,152.1,185.8,152.4,185,152.6z M193.6,152.5
		c-1.3-0.2-2.4-0.3-3.3-0.3c0.2-0.3,0.4-0.5,0.6-0.8c0.2-0.3,0.3-0.7,0.4-1.1c0.4,0.2,0.8,0.5,1.4,0.8c1.5,0.8,3.8,1.8,6.5,2.1
		C197,153,195.2,152.7,193.6,152.5z M204,153.4l-0.1,0l-0.1,0c0,0-0.1,0-0.1,0l-0.3,0l-0.5,0c-0.7,0-1.4,0-2-0.1
		c-0.5,0-1.1-0.1-1.6-0.1c1.3,0.1,2.5,0.1,3.7-0.1c1.2-0.2,2.2-0.5,3-0.9c0.5-0.3,1-0.5,1.3-0.7c0.3,0.3,0.6,0.6,0.9,0.9
		c0.2,0.2,0.4,0.5,0.5,0.7c0,0,0,0,0,0c0,0,0,0,0,0c-0.1,0-0.2,0.1-0.3,0.1c-0.3,0.1-0.6,0.1-1,0.2c-0.7,0.1-1.4,0.1-2.1,0.1
		C204.7,153.4,204.3,153.4,204,153.4z M208.6,155.4c0.1,0,0.1,0,0.2,0c0.3-0.1,0.5-0.1,0.8-0.3c0,0,0.1-0.1,0.1-0.1c0,0,0,0,0,0
		c0.6,0.3,1.2,0.7,2,1.1C210.5,155.8,209.4,155.6,208.6,155.4z M225.7,162.2C225.7,162.2,225.7,162.3,225.7,162.2
		C225.7,162.3,225.7,162.3,225.7,162.2l-0.1,0c0,0,0,0,0,0l-0.1-0.1l-0.5-0.4c-1.5-1-2.9-1.8-4.4-2.4c-0.7-0.4-1.5-0.7-2.2-1
		c0.4,0.1,0.8,0.2,1.2,0.2c1.3,0.3,2.2,0.4,2.2,0.4c0,0-0.6-0.6-1.8-1.4c-1.1-0.8-2.8-1.7-4.8-2.4c-1.7-0.6-3.3-0.9-4.6-1.1
		c0.1-0.2,0.2-0.5,0.2-0.8c0-0.4-0.1-0.8-0.2-1.1c-0.2-0.5-0.5-0.9-0.8-1.2c1.4,0.3,3.3,0.9,5.4,2.1c2.3,1.3,4.9,3.1,7.3,5.6
		c0.6,0.6,1.2,1.3,1.8,1.9c0.3,0.3,0.6,0.7,0.9,1l0.4,0.5c0,0,0,0,0,0v0l0,0C225.7,162.1,225.7,162.1,225.7,162.2
		C225.7,162.2,225.7,162.2,225.7,162.2C225.7,162.2,225.7,162.2,225.7,162.2z"/>
	<radialGradient id="SVGID_5_" cx="129.4991" cy="123.0241" r="114.3495" gradientUnits="userSpaceOnUse">
		<stop  offset="0.2" style="stop-color:#FFFFFF"/>
		<stop  offset="0.7" style="stop-color:#FFFFFF;stop-opacity:0.6"/>
		<stop  offset="1" style="stop-color:#FFFFFF"/>
	</radialGradient>
	<path class="st4" d="M193.5,193.3l-0.1,1.1c0,0,0,0,0-0.1c-0.2-0.7-0.5-1.2-0.7-1.5c0.3-0.3,0.5-0.6,0.7-0.9
		c0.3-0.5,0.4-0.9,0.5-1.4c0.2-0.9,0.1-1.8,0-2.6c0-0.2-0.1-0.4-0.1-0.6c0-0.2-0.1-0.4-0.2-0.6c-0.1-0.4-0.3-0.7-0.5-1.1
		c-0.8-1.3-1.8-2.3-2.7-3.2c-0.9-0.8-1.9-1.5-2.7-2.2c-1.7-1.3-3-2.2-3.9-3c-0.1-0.1-0.2-0.2-0.3-0.3c0,0,0-0.1,0-0.1
		c0-0.4,0-0.8-0.1-1.2c-0.2-0.7-0.5-1.2-0.9-1.7c-0.4-0.5-0.7-0.9-1.1-1.3c-0.8-0.7-1.6-1.4-2.5-1.9c-0.8-0.5-1.7-1-2.5-1.4
		c-3.3-1.7-6.5-2.7-9.1-3.6c-2.6-0.8-4.7-1.5-6.2-2c-1.4-0.5-2.2-0.9-2.2-0.8c0,0,0.7,0.5,2.1,1.2c1.4,0.7,3.4,1.7,5.9,2.8
		c2.5,1.1,5.5,2.4,8.6,4.2c0.8,0.5,1.5,0.9,2.3,1.5c0.8,0.5,1.5,1.1,2.1,1.7c0.3,0.3,0.6,0.6,0.8,1c0.2,0.3,0.4,0.7,0.5,1
		c0,0.1,0,0.3,0,0.4c0,0.1,0,0.1,0,0.1c0,0-0.2,0.2-0.6,0.2c-0.7,0.1-1.7-0.1-2.6-0.3c-0.5-0.1-0.9-0.3-1.4-0.4
		c-0.2-0.1-0.4-0.2-0.6-0.3l-0.7-0.3c-1.8-0.7-3.6-1.4-5.3-2.1c-3.4-1.3-6.4-2.4-8.9-3.5c-2.5-1.1-4.4-2.1-5.7-3
		c-0.6-0.4-1-0.7-1.4-1c0-0.1,0-0.2,0-0.4c0.2,0.1,0.5,0.3,0.8,0.4c1.6,0.8,3.7,2,6.1,3.2c2.4,1.2,4.6,2.2,6.3,2.8
		c1.7,0.6,2.7,0.9,2.7,0.9s-0.9-0.6-2.4-1.6c-1.5-1-3.6-2.3-6-3.5c-2.4-1.2-4.7-2.1-6.5-2.6c-0.4-0.1-0.7-0.2-1-0.3
		c0.1-0.7,0.4-1.4,0.8-1.9c0.3-0.4,0.7-0.7,1.2-0.8c0.5-0.2,1-0.2,1.5-0.2c1,0.1,1.7,0.3,1.7,0.2c0,0-0.1-0.2-0.3-0.4
		c-0.2-0.2-0.5-0.6-1-0.9c-0.5-0.3-1.2-0.6-2.1-0.6c-0.5,0-1,0.1-1.4,0.3c-0.5,0.2-0.9,0.5-1.3,1c-0.7,0.9-0.9,1.9-0.9,2.8
		c0,0.1,0,0.2,0,0.3c0,0-0.1,0-0.1,0s0,0,0.1,0c0.1,0.7,0.3,1.3,0.6,1.8c0.7,1,1.3,1.3,1.3,1.3c0,0-0.2-0.7-0.2-1.7c0,0,0,0,0-0.1
		c0.3,0.3,0.7,0.6,1.1,1.1c1.2,1,3,2.3,5.4,3.7c2.4,1.4,5.4,2.8,8.7,4.3l5.2,2.3l0.7,0.3c0.2,0.1,0.5,0.2,0.7,0.3
		c0.1,0,0.2,0.1,0.3,0.1c0.7,0.7,1.6,1.7,2.3,2.9c0.5,0.9,1,1.9,1.6,3c0.5,1.1,1.1,2.3,1.8,3.5c0.7,1.3,1.6,2.6,2.8,3.7
		c0.3,0.3,0.6,0.5,1,0.8l0.3,0.2c0,0,0.1,0.1,0.1,0.1l0.1,0.1l0.1,0.1c0.2,0.1,0.4,0.2,0.6,0.3c0.2,0.1,0.5,0.2,0.7,0.3
		c0.4,0.9,1.2,2.8,1.7,5.7c0.3,2,0.6,4.4,0.6,7l0,1l0,1.3c0,1.3-0.1,2.7-0.2,4.4c-0.1,0.8-0.1,1.7-0.2,2.6l-0.3,3.1l-0.7,7l0.6-1.4
		l0.4-0.8l1.3-2.9c0.4-0.9,0.8-1.8,1.1-2.7c0.4-1,0.7-2,1-3.3c0.3-1.2,0.6-2.6,0.8-4c0.1-0.7,0.2-1.4,0.3-2.1l0.1-0.6l0.1-0.6
		c0.1-0.7,0.1-1.5,0.1-2.2c0-1.4,0-2.7,0-3.9c0-0.2,0-0.3,0-0.5c0-0.4,0.1-0.8,0.1-1.3c0.1-1.5-0.1-2.9-0.4-4L193.5,193.3z
		 M192.3,193.1c0,0.3-0.1,0.8-0.1,1.4c-0.1,1.1-0.3,2.4-0.4,3.9c0-0.1,0-0.2,0-0.4c-0.1-1.6-0.8-3.1-1.5-4c-0.1-0.1-0.1-0.2-0.2-0.2
		C190.8,193.8,191.6,193.6,192.3,193.1C192.3,193.1,192.3,193.1,192.3,193.1z M186.9,190.8l-0.2-0.1c-0.3-0.2-0.5-0.4-0.8-0.6
		c-1-0.9-1.8-1.9-2.6-3.1c-0.7-1.1-1.4-2.2-2-3.3c-0.7-1.1-1.3-2-2-2.9c-0.6-0.7-1.2-1.3-1.7-1.8c0.4,0.1,0.9,0.2,1.3,0.3
		c0.2,0.2,0.6,0.5,0.9,0.9c0.8,0.8,1.7,2,2.5,3.4c0.9,1.4,1.7,2.7,2.4,3.7c0.7,0.9,1.2,1.5,1.2,1.5s-0.2-0.7-0.5-1.8
		c-0.3-1.1-0.9-2.6-1.8-4.2c-1-1.5-2.3-2.7-3.4-3.2c-0.1-0.1-0.2-0.1-0.4-0.2c0.3,0,0.6,0,0.9-0.1c0.3,0,0.7-0.1,1.1-0.3
		c0.4-0.2,0.7-0.4,1-0.8c0.2-0.2,0.3-0.5,0.4-0.8c0,0.1,0.1,0.1,0.1,0.2c0.7,0.9,1.9,2.2,3.4,3.6c0.7,0.7,1.5,1.5,2.3,2.4
		c0.8,0.9,1.6,1.9,2.1,3c0.1,0.3,0.2,0.6,0.3,0.8c0,0.1,0.1,0.3,0.1,0.4c0,0.2,0.1,0.3,0.1,0.5c0.1,0.6,0.1,1.3-0.1,1.8
		c-0.1,0.5-0.4,1-0.8,1.2c-0.4,0.3-0.9,0.4-1.5,0.3c-0.6-0.1-1.3-0.2-1.9-0.5c-0.2-0.1-0.3-0.1-0.5-0.2L186.9,190.8z M188.1,194.4
		c-0.2-0.4-0.4-0.7-0.6-0.9c0.5,0.2,1,0.3,1.6,0.4c0,0.2,0.1,0.4,0.1,0.7c0.1,0.7,0.1,1.6,0.2,2.7C189,196,188.5,195.1,188.1,194.4z
		 M192.1,207l-0.1,0.5l0,0.3l0,0.1l0,0.1c0,0,0,0,0,0c0,0.1-0.1,0.1-0.1,0.2c-0.1,0.2-0.1,0.2-0.2,0c0-0.1,0-0.3,0-0.3l0,0.1
		c0,0.1-0.1,0.2-0.1,0.1c0,0,0-0.1-0.1-0.2c0,0,0,0,0-0.1l0-0.3l0-0.5l-0.1-1c-0.1-1.1-0.2-2.2-0.4-3.2c0.1-0.2,0.2-0.5,0.3-0.7
		c0.2-0.6,0.4-1.3,0.5-2.1c0,1.5,0.2,2.9,0.4,4c0.1,0.3,0.1,0.6,0.2,0.8C192.3,205.5,192.2,206.2,192.1,207z"/>
	<radialGradient id="SVGID_6_" cx="129.4991" cy="123.0241" r="114.3495" gradientUnits="userSpaceOnUse">
		<stop  offset="0.2" style="stop-color:#FFFFFF"/>
		<stop  offset="0.7" style="stop-color:#FFFFFF;stop-opacity:0.6"/>
		<stop  offset="1" style="stop-color:#FFFFFF"/>
	</radialGradient>
	<path class="st5" d="M193.9,118.1c0.2,0.5,0.5,1.1,0.8,1.7c0.2,0.3,0.3,0.6,0.5,0.9l0.1,0.1l0.1,0.2c0.1,0.1,0.2,0.3,0.2,0.4
		l0.5,0.8c0.4-0.3,0.8-0.6,1.1-0.9l0.4-0.3l0.3-0.3c0.4-0.4,0.8-0.9,1.2-1.4c0.7-1,1.4-2.1,1.9-3.3c1-2.2,1.6-4.4,1.7-6.5
		c0.2-2.1-0.2-4-0.8-5.4c-0.7-1.5-1.6-2.4-2.3-2.9c-0.7-0.5-1.1-0.7-1.1-0.7c0,0,0.4,0.3,1,0.8c0.6,0.6,1.3,1.6,1.7,2.9
		c0.4,1.4,0.5,3.1,0.3,5c-0.3,1.9-0.9,3.9-1.8,6c-0.5,1.1-1.1,2.1-1.7,3.1c-0.3,0.5-0.7,0.9-1,1.3l-0.3,0.3l-0.1,0.1l-0.1,0.1l0,0
		c0,0-0.1,0.1-0.1,0.1c0,0,0,0-0.1-0.1c0,0,0,0,0,0c0,0,0,0,0,0l-0.1-0.1c-0.2-0.3-0.4-0.5-0.5-0.8c-0.3-0.5-0.6-1.1-0.9-1.6
		c-0.6-1-1.1-1.9-1.6-2.6c-1-1.4-1.8-2.1-1.7-2.1c0,0,0.6,0.8,1.3,2.3C193,116.1,193.4,117,193.9,118.1z"/>
	<radialGradient id="SVGID_7_" cx="129.4991" cy="123.0241" r="114.3495" gradientUnits="userSpaceOnUse">
		<stop  offset="0.2" style="stop-color:#FFFFFF"/>
		<stop  offset="0.7" style="stop-color:#FFFFFF;stop-opacity:0.6"/>
		<stop  offset="1" style="stop-color:#FFFFFF"/>
	</radialGradient>
	<path class="st6" d="M151.6,157.1c1.2-0.9,2.6-1.7,4.1-2.7c1.5-1,2.9-2,4.1-3.1c1.2-1.1,2.2-2.1,2.9-3.1c1.4-2,1.8-3.5,1.8-3.5
		c0,0-0.9,1.2-2.6,2.7c-0.9,0.7-2,1.6-3.2,2.4c-1.3,0.8-2.7,1.7-4.2,2.7c-1.5,1-2.9,2-4.1,3.2c-1.2,1.1-2.1,2.3-2.7,3.4
		c-0.2,0.4-0.4,0.7-0.5,1c-0.1-0.2-0.1-0.5-0.2-0.6c-0.1-0.6-0.1-1,0.1-1.5c0-0.1,0.1-0.1,0.1-0.2l0.1-0.1c0.1-0.1,0.1-0.1,0.1-0.2
		c0.1-0.1,0.1-0.2,0.2-0.3c0.2-0.2,0.4-0.5,0.6-0.7c0.5-0.5,1.1-0.9,1.7-1.3c1.2-0.8,2.6-1.6,3.9-2.4c0.7-0.4,1.4-0.8,2.1-1.3
		c0.4-0.2,0.7-0.5,1.1-0.7c0.2-0.1,0.4-0.3,0.5-0.4l0.1-0.1l0.1-0.1c0,0,0.1-0.1,0.1-0.1l0.2-0.2c1.2-1.2,2.4-2.4,3.5-3.6
		c2.3-2.5,4.5-5.1,6.3-7.9c1.7-2.8,3.1-5.8,3.5-8.9c0.2-1.6,0.1-3.2-0.4-4.6c-0.2-0.7-0.5-1.5-1-2.1c-0.4-0.6-0.9-1.2-1.5-1.6
		c-1.1-0.9-2.2-1.5-3.2-2.2c-1-0.6-1.9-1.3-2.7-2c-0.2-0.2-0.3-0.3-0.5-0.5c-0.1-0.2-0.3-0.4-0.4-0.6c-0.3-0.4-0.5-0.9-0.7-1.3
		c-0.4-0.9-0.7-1.8-1-2.6c-0.6-1.7-1.3-3.1-2.2-4c-0.9-0.9-1.8-1.3-2.5-1.5c-0.6-0.2-1-0.2-1-0.2c0,0,0.3,0.1,1,0.3
		c0.6,0.2,1.5,0.7,2.2,1.7c0.8,0.9,1.3,2.3,1.8,4c0.2,0.8,0.5,1.8,0.8,2.7c0.2,0.5,0.4,1,0.6,1.5c0.1,0.2,0.3,0.5,0.4,0.7
		c0.1,0.1,0.2,0.3,0.3,0.4l0.3,0.3c0.8,0.9,1.7,1.6,2.8,2.3c1,0.7,2.1,1.4,2.9,2.2c0.9,0.8,1.5,1.8,1.8,3c0.3,1.2,0.4,2.6,0.2,3.9
		c-0.4,2.7-1.7,5.4-3.4,8c-1.7,2.6-3.8,5.1-6.1,7.5c-1.1,1.2-2.3,2.4-3.5,3.6l-0.2,0.2v0l-0.1,0l-0.1,0.1c-0.1,0.1-0.3,0.2-0.4,0.3
		c-0.3,0.2-0.6,0.5-1,0.7c-0.7,0.4-1.3,0.9-2,1.3c-1.3,0.8-2.7,1.7-4,2.6c-0.6,0.5-1.3,1-1.9,1.6c-0.3,0.3-0.6,0.6-0.8,1
		c-0.1,0.2-0.3,0.4-0.4,0.6c0,0,0,0,0,0l-0.1,0.1c-0.1,0.1-0.1,0.2-0.2,0.3c-0.2,0.4-0.3,0.9-0.4,1.4c0,0.5,0.1,1,0.2,1.4
		c0.2,0.8,0.6,1.4,0.6,1.8c0,0.1,0,0.2,0,0.2c0,0,0,0-0.1,0.2l-0.1,0.2c-0.1,0.3-0.2,0.5-0.4,0.7c-0.3,0.4-0.7,0.6-1.3,0.8
		c-0.6,0.2-1.3,0.4-2,0.9c-0.3,0.2-0.6,0.5-0.8,0.8c-0.2,0.3-0.4,0.6-0.5,0.9c-0.6,1.1-1,2.3-1.2,3.4c-0.1,0.5-0.2,1.1-0.4,1.4
		c-0.2,0.4-0.5,0.6-0.9,0.8c-0.8,0.4-1.7,0.6-2.6,0.7l-1.2,0.2c-0.4,0-0.8,0.1-1.1,0.1c-0.7,0-1.4-0.1-2.1-0.1
		c-1.2-0.1-2.2,0-2.9,0.1c-0.3,0.1-0.5,0.1-0.7,0.2c-0.2,0-0.4-0.1-0.7-0.2c-0.7-0.1-1.6-0.2-2.9-0.1c-0.6,0-1.3,0.1-2,0.1
		c-0.4,0-0.8,0-1.1-0.1l-1.2-0.2c-0.8-0.2-1.8-0.3-2.6-0.7c-0.4-0.2-0.7-0.5-0.9-0.8c-0.2-0.4-0.3-0.9-0.4-1.4
		c-0.2-1.1-0.6-2.3-1.2-3.4c-0.2-0.3-0.3-0.6-0.5-0.9c-0.2-0.3-0.5-0.6-0.8-0.8c-0.6-0.5-1.4-0.7-2-0.9c-0.6-0.2-1-0.4-1.3-0.8
		c-0.2-0.2-0.3-0.4-0.4-0.7l-0.1-0.2c-0.1-0.2-0.1-0.2-0.1-0.2c0-0.1,0-0.1,0-0.2c0-0.4,0.3-1,0.6-1.8c0.1-0.4,0.2-0.9,0.2-1.4
		c0-0.5-0.2-1-0.4-1.4c-0.1-0.1-0.1-0.2-0.2-0.3l-0.1-0.1c0,0,0,0,0,0c-0.1-0.2-0.2-0.4-0.4-0.6c-0.3-0.4-0.5-0.7-0.8-1
		c-0.6-0.6-1.2-1.1-1.9-1.6c-1.3-0.9-2.6-1.8-4-2.6c-0.7-0.4-1.4-0.8-2-1.3c-0.3-0.2-0.7-0.4-1-0.7c-0.1-0.1-0.3-0.2-0.4-0.3
		l-0.1-0.1l0,0c0,0,0,0,0,0l-0.2-0.2c-1.2-1.2-2.3-2.4-3.5-3.6c-2.3-2.5-4.4-4.9-6.1-7.5c-1.7-2.6-3-5.3-3.4-8
		c-0.2-1.3-0.1-2.7,0.2-3.9c0.3-1.2,0.9-2.2,1.8-3c0.9-0.8,1.9-1.5,2.9-2.2c1-0.7,2-1.5,2.7-2.3l0.3-0.3c0.1-0.1,0.2-0.3,0.3-0.4
		c0.2-0.2,0.3-0.5,0.4-0.7c0.3-0.5,0.5-1,0.6-1.5c0.3-1,0.6-1.9,0.8-2.7c0.5-1.7,1-3.1,1.8-4c0.8-0.9,1.6-1.4,2.2-1.7
		c0.6-0.2,1-0.3,1-0.3c0,0-0.3,0-1,0.2c-0.6,0.2-1.6,0.6-2.5,1.5c-0.9,0.9-1.6,2.4-2.2,4c-0.3,0.8-0.6,1.7-1,2.6
		c-0.2,0.4-0.4,0.9-0.7,1.3c-0.1,0.2-0.3,0.4-0.4,0.6c-0.2,0.2-0.3,0.3-0.5,0.5c-0.8,0.7-1.7,1.4-2.7,2c-1,0.6-2.1,1.3-3.2,2.2
		c-0.5,0.5-1.1,1-1.5,1.6c-0.4,0.6-0.7,1.4-1,2.1c-0.4,1.4-0.6,3-0.4,4.6c0.4,3.2,1.8,6.2,3.5,8.9c1.8,2.8,3.9,5.4,6.3,7.9
		c1.2,1.3,2.4,2.5,3.5,3.6l0.2,0.2c0,0,0.1,0.1,0.1,0.1l0.1,0.1l0.1,0.1c0.2,0.1,0.4,0.3,0.5,0.4c0.4,0.3,0.7,0.5,1.1,0.7
		c0.7,0.5,1.4,0.9,2.1,1.3c1.4,0.8,2.7,1.6,3.9,2.4c0.6,0.4,1.2,0.9,1.7,1.3c0.2,0.2,0.5,0.5,0.6,0.7c0.1,0.1,0.2,0.2,0.2,0.3
		c0,0.1,0.1,0.2,0.1,0.2l0.1,0.1c0,0.1,0.1,0.1,0.1,0.2c0.2,0.5,0.3,0.9,0.1,1.5c0,0.2-0.1,0.4-0.2,0.6c-0.1-0.3-0.3-0.7-0.5-1
		c-0.6-1.1-1.5-2.3-2.7-3.4c-1.2-1.1-2.6-2.2-4.1-3.2c-1.5-1-2.9-1.9-4.2-2.7c-1.3-0.8-2.4-1.6-3.2-2.4c-1.7-1.5-2.6-2.7-2.6-2.7
		c0,0,0.4,1.5,1.8,3.5c0.7,1,1.7,2.1,2.9,3.1c1.2,1.1,2.6,2.1,4.1,3.1c1.5,1,2.9,1.9,4.1,2.7c1.2,0.9,2.2,1.7,3,2.6
		c0.5,0.5,0.8,1,1.1,1.4c0,0.2-0.1,0.4-0.1,0.6c0,0.3,0,0.5,0.1,0.8c0,0.1,0.1,0.3,0.1,0.3c0,0.1,0.1,0.2,0.1,0.3
		c0.2,0.4,0.4,0.7,0.7,1.1c0.3,0.3,0.6,0.6,1,0.8c0.4,0.2,0.7,0.3,1.1,0.4c0.7,0.2,1.2,0.3,1.6,0.6c0.2,0.1,0.4,0.3,0.5,0.5
		c0.1,0.2,0.3,0.4,0.5,0.7c0.6,1,1,2,1.3,3.1c0.2,0.5,0.3,1.1,0.6,1.6c0.3,0.6,0.9,1,1.4,1.2c1,0.4,2,0.5,2.9,0.6
		c0.5,0,0.8,0.1,1.3,0.1c0.4,0,0.8,0,1.2,0c0.8-0.1,1.4-0.2,2.1-0.3c1.2-0.2,2.2-0.2,2.8-0.2c0.3,0,0.5,0.1,0.7,0.1
		c-0.1,0-0.2,0.1-0.2,0.1c0,0,0.1,0,0.3-0.1c0.2,0,0.3,0.1,0.3,0.1c0,0-0.1,0-0.2-0.1c0.2,0,0.4-0.1,0.7-0.1c0.6-0.1,1.6,0,2.8,0.2
		c0.6,0.1,1.3,0.2,2.1,0.3c0.4,0,0.8,0.1,1.2,0c0.4,0,0.8-0.1,1.3-0.1c0.9-0.1,1.8-0.2,2.9-0.6c0.5-0.2,1.1-0.6,1.4-1.2
		c0.3-0.6,0.5-1.1,0.6-1.6c0.3-1.1,0.7-2.1,1.3-3.1c0.1-0.2,0.3-0.5,0.4-0.7c0.2-0.2,0.3-0.4,0.5-0.5c0.4-0.3,0.9-0.4,1.6-0.6
		c0.3-0.1,0.7-0.2,1.1-0.4c0.4-0.2,0.7-0.5,1-0.8c0.3-0.3,0.5-0.7,0.7-1.1c0-0.1,0.1-0.2,0.1-0.3c0,0,0.1-0.1,0.1-0.3
		c0.1-0.3,0.1-0.5,0.1-0.8c0-0.2,0-0.4-0.1-0.6c0.3-0.4,0.7-0.9,1.1-1.4C149.4,158.8,150.4,158,151.6,157.1z"/>
	<radialGradient id="SVGID_8_" cx="129.4991" cy="123.0241" r="114.3495" gradientUnits="userSpaceOnUse">
		<stop  offset="0.2" style="stop-color:#FFFFFF"/>
		<stop  offset="0.7" style="stop-color:#FFFFFF;stop-opacity:0.6"/>
		<stop  offset="1" style="stop-color:#FFFFFF"/>
	</radialGradient>
	<path class="st7" d="M94.6,171.2c2.4-1.4,4.2-2.7,5.4-3.7c0.5-0.4,0.9-0.8,1.2-1.1c0,0,0,0,0,0.1c0,1-0.2,1.7-0.2,1.7
		c0,0,0.7-0.3,1.3-1.3c0.3-0.4,0.5-1.1,0.6-1.8l0.1-0.1c0,0,0,0-0.1,0c0-0.1,0-0.2,0-0.3c0-0.9-0.2-1.9-0.9-2.8
		c-0.4-0.4-0.8-0.8-1.3-1c-0.5-0.2-1-0.3-1.4-0.3c-0.9,0-1.6,0.3-2.1,0.6c-0.5,0.3-0.8,0.7-1,0.9c-0.2,0.2-0.3,0.4-0.3,0.4
		c0,0,0.7-0.2,1.7-0.2c0.5,0,1,0,1.5,0.2c0.5,0.2,0.9,0.4,1.2,0.8c0.4,0.5,0.7,1.1,0.8,1.8c-0.3,0.1-0.7,0.1-1,0.2
		c-1.8,0.4-4.2,1.2-6.6,2.4c-2.4,1.2-4.4,2.6-5.9,3.7c-1.4,1.1-2.3,1.8-2.3,1.8c0,0,1.1-0.2,2.8-0.7c1.7-0.5,4-1.4,6.4-2.7
		c2.4-1.2,4.4-2.5,6-3.4l0.7-0.4c0,0.1,0,0.1,0,0.2c-0.3,0.2-0.8,0.6-1.4,1c-1.3,0.8-3.2,1.9-5.7,3c-2.5,1.1-5.5,2.3-8.9,3.5
		c-1.7,0.6-3.5,1.3-5.3,2.1l-0.7,0.3c-0.2,0.1-0.4,0.2-0.7,0.3c-0.4,0.2-0.9,0.3-1.4,0.4c-0.9,0.2-1.9,0.4-2.6,0.3
		c-0.4,0-0.6-0.2-0.6-0.2c0,0,0,0,0-0.1c0-0.1,0-0.2,0-0.4c0.1-0.3,0.3-0.7,0.5-1c0.2-0.3,0.5-0.7,0.8-1c0.6-0.6,1.3-1.2,2.1-1.7
		c0.8-0.5,1.5-1,2.3-1.5c3-1.8,6-3.1,8.6-4.2c2.5-1.1,4.5-2.1,5.9-2.8c1.4-0.7,2.1-1.2,2.1-1.2c0,0-0.8,0.3-2.2,0.8
		c-1.4,0.5-3.6,1.2-6.2,2c-2.6,0.9-5.8,1.9-9.1,3.6c-0.8,0.4-1.7,0.9-2.5,1.4c-0.8,0.5-1.7,1.1-2.5,1.9c-0.4,0.4-0.8,0.8-1.1,1.3
		c-0.3,0.5-0.7,1-0.9,1.7c-0.1,0.3-0.2,0.7-0.1,1.2c0,0,0,0.1,0,0.1c-0.1,0.1-0.2,0.2-0.3,0.3c-0.9,0.8-2.2,1.8-3.9,3
		c-0.8,0.6-1.8,1.3-2.7,2.2c-0.9,0.9-1.9,1.8-2.7,3.2c-0.2,0.3-0.4,0.7-0.5,1.1c-0.1,0.2-0.1,0.4-0.2,0.6c-0.1,0.2-0.1,0.4-0.1,0.6
		c-0.2,0.8-0.2,1.7,0,2.6c0.1,0.5,0.3,0.9,0.5,1.4c0.2,0.3,0.4,0.6,0.7,0.9c-0.2,0.3-0.4,0.8-0.7,1.5c0,0,0,0.1,0,0.1l-0.1-1.1
		l-0.2,2c-0.3,1.1-0.5,2.5-0.4,4c0,0.4,0.1,0.9,0.1,1.3c0,0.2,0,0.3,0,0.5c0,1.2,0,2.5,0,3.9c0,0.7,0.1,1.4,0.1,2.2l0,0.6l0.1,0.6
		c0.1,0.7,0.2,1.4,0.3,2.1c0.2,1.4,0.5,2.8,0.8,4c0.3,1.2,0.7,2.3,1,3.3c0.4,1,0.7,1.8,1.1,2.7l1.3,2.9l0.4,0.8l0.7,1.4l-0.7-7
		l-0.3-3.1c-0.1-0.9-0.2-1.8-0.2-2.6c-0.1-1.6-0.2-3-0.2-4.4l0-1.3l0-1c0-2.7,0.2-5.1,0.6-7c0.5-2.9,1.3-4.8,1.7-5.7
		c0.3-0.1,0.5-0.2,0.7-0.3c0.2-0.1,0.4-0.2,0.6-0.3l0.1-0.1l0.1-0.1c0,0,0.1,0,0.1-0.1l0.3-0.2c0.3-0.3,0.7-0.5,1-0.8
		c1.2-1.1,2.1-2.4,2.8-3.7c0.7-1.2,1.2-2.4,1.7-3.5c0.5-1.1,1-2.1,1.6-3c0.8-1.3,1.6-2.2,2.3-2.9c0.1,0,0.2-0.1,0.3-0.1
		c0.3-0.1,0.5-0.2,0.7-0.3l0.7-0.3l5.2-2.3C89.3,174,92.2,172.6,94.6,171.2z M62.9,193.2c0.7,0.5,1.4,0.7,2.1,0.7
		c-0.1,0.1-0.1,0.1-0.2,0.2c-0.7,0.9-1.3,2.3-1.5,4c0,0.1,0,0.2,0,0.4c-0.1-1.5-0.3-2.9-0.4-3.9C62.9,193.9,62.8,193.4,62.9,193.2
		C62.8,193.1,62.8,193.1,62.9,193.2z M63.8,206.1l-0.1,1l0,0.5l0,0.3c0,0,0,0,0,0.1c0,0.1,0,0.2-0.1,0.2c0,0.1-0.1,0-0.1-0.1l0-0.1
		c0,0.1,0,0.2,0,0.2c0,0.1-0.1,0.1-0.1-0.1c0,0,0-0.1-0.1-0.2c0,0,0,0,0,0l0-0.1l0-0.1l0-0.3l-0.1-0.5c-0.1-0.7-0.2-1.4-0.3-2.1
		c0.1-0.2,0.1-0.5,0.2-0.8c0.3-1.1,0.4-2.5,0.4-4c0.1,0.8,0.3,1.6,0.5,2.1c0.1,0.3,0.2,0.5,0.3,0.7C64,203.9,63.9,205,63.8,206.1z
		 M67,194.4c-0.4,0.7-0.9,1.6-1.3,2.8c0.1-1,0.1-1.9,0.2-2.7c0-0.2,0-0.5,0.1-0.7c0.6-0.1,1.1-0.2,1.6-0.4
		C67.4,193.7,67.2,194,67,194.4z M75.8,180.8c-0.7,0.8-1.3,1.8-2,2.9c-0.6,1.1-1.3,2.2-2,3.3c-0.7,1.1-1.6,2.2-2.6,3.1
		c-0.3,0.2-0.5,0.4-0.8,0.6l-0.2,0.1l-0.2,0.1c-0.2,0.1-0.3,0.1-0.5,0.2c-0.6,0.3-1.3,0.5-1.9,0.5c-0.6,0.1-1.2-0.1-1.5-0.3
		c-0.4-0.2-0.6-0.7-0.8-1.2c-0.1-0.5-0.1-1.2,0-1.8c0-0.1,0-0.3,0.1-0.5c0-0.2,0.1-0.3,0.1-0.4c0.1-0.3,0.2-0.6,0.3-0.8
		c0.5-1.1,1.3-2.1,2.1-3c0.8-0.9,1.6-1.7,2.3-2.4c1.5-1.5,2.7-2.7,3.4-3.6c0-0.1,0.1-0.1,0.1-0.2c0.1,0.3,0.2,0.6,0.4,0.8
		c0.3,0.4,0.7,0.7,1,0.8c0.4,0.2,0.7,0.3,1.1,0.3c0.3,0,0.6,0.1,0.9,0.1c-0.1,0.1-0.2,0.1-0.4,0.2c-1.1,0.5-2.4,1.7-3.4,3.2
		c-1,1.5-1.5,3.1-1.8,4.2c-0.3,1.1-0.5,1.8-0.5,1.8s0.5-0.5,1.2-1.5c0.7-0.9,1.5-2.3,2.4-3.7c0.9-1.4,1.8-2.6,2.6-3.4
		c0.4-0.4,0.7-0.7,0.9-0.9c0.4-0.1,0.9-0.2,1.3-0.3C76.9,179.5,76.3,180.1,75.8,180.8z"/>
	<radialGradient id="SVGID_9_" cx="129.4991" cy="123.0241" r="114.3495" gradientUnits="userSpaceOnUse">
		<stop  offset="0.2" style="stop-color:#FFFFFF"/>
		<stop  offset="0.7" style="stop-color:#FFFFFF;stop-opacity:0.6"/>
		<stop  offset="1" style="stop-color:#FFFFFF"/>
	</radialGradient>
	<path class="st8" d="M64.9,173.1c1.4-1.4,2.6-2.6,3.5-3.2c0.2-0.1,0.3-0.2,0.5-0.4c0.1,0,0.1,0.1,0.2,0.1c1.1,0.4,2.2,0.5,3.3,0.5
		c1.1,0,2.1-0.2,3-0.4c0.5-0.1,1-0.3,1.4-0.4c0.5-0.1,0.9-0.3,1.3-0.5c0.9-0.3,1.7-0.7,2.5-1c3.2-1.4,5.9-2.9,8.1-4.1
		c2.3-1.2,4.1-2.2,5.4-2.8c0.4-0.2,0.7-0.3,1-0.5c0,0.3-0.1,0.7-0.2,1c-0.3,1-0.8,1.7-0.8,1.7c0,0,0.2-0.1,0.5-0.2
		c0.3-0.2,0.8-0.4,1.2-0.9c0.5-0.5,0.9-1.3,1.1-2.2c0.2-1-0.1-2.1-0.7-3.1c-0.7-1-1.6-1.6-2.6-1.8c-0.9-0.2-1.8-0.1-2.4,0.1
		c-1.3,0.4-1.8,1.1-1.8,1.1c0,0,0.8-0.1,1.9,0.1c0.5,0.1,1.1,0.3,1.7,0.6c0.5,0.3,1,0.7,1.4,1.3c0,0.1,0.1,0.1,0.1,0.2
		c-0.6,0.1-1.4,0.4-2.5,0.7c-2,0.6-4.9,1.5-7.9,2.7s-5.6,2.7-7.4,3.8c-1.8,1.1-2.8,2-2.8,2l3.2-1.3l7.7-3.1c3-1.2,5.6-2.4,7.6-3.4
		c1-0.5,1.8-0.9,2.3-1.2c0.2,0.4,0.4,0.9,0.5,1.4c0,0.2,0,0.4,0,0.6c-0.3,0.1-0.7,0.2-1.1,0.3c-1.4,0.4-3.4,1.1-5.8,2.1
		c-2.4,1-5.2,2.2-8.4,3.4c-0.8,0.3-1.6,0.6-2.4,0.8c-0.4,0.1-0.8,0.3-1.3,0.4c-0.4,0.1-0.9,0.3-1.3,0.3c-0.8,0.2-1.7,0.3-2.6,0.3
		c-0.9,0-1.7-0.1-2.5-0.4c-0.4-0.1-0.7-0.3-0.9-0.5c-0.2-0.2-0.3-0.4-0.4-0.6c-0.1-0.5,0.2-1.3,0.6-1.9c0.2-0.3,0.4-0.7,0.7-1
		c0,0,0,0,0,0l0,0l0.1-0.1c0.1-0.1,0.1-0.1,0.2-0.2c0.1-0.1,0.3-0.3,0.4-0.4c0.6-0.5,1.3-0.9,2-1.3c1.4-0.7,3-1.2,4.4-1.7
		c1.4-0.4,2.8-0.8,4-1.1c2.5-0.7,4.5-1.2,5.9-1.7c1.4-0.5,2.1-0.8,2.1-0.8c0,0-0.8,0.2-2.2,0.5c-1.4,0.3-3.5,0.5-6,0.9
		c-1.3,0.2-2.7,0.4-4.2,0.7c-1.5,0.3-3.1,0.7-4.8,1.5c-0.8,0.4-1.7,0.8-2.5,1.4c-0.2,0.1-0.4,0.3-0.6,0.5c-0.1,0.1-0.2,0.2-0.3,0.3
		l-0.1,0.1l-0.1,0.1c0,0-0.1,0.1-0.1,0.1c-0.3,0.4-0.6,0.8-0.9,1.2c-0.1,0.2-0.2,0.4-0.3,0.6c-0.2,0.1-0.8,0.2-1.6,0.5
		c-1.1,0.3-2.7,0.7-4.6,1.4c-1,0.3-2,0.7-3.2,1.2c-1.1,0.5-2.3,1-3.5,1.9c-0.6,0.4-1.2,0.9-1.7,1.5c-0.5,0.6-0.9,1.4-1.2,2.2
		c-0.3,0.8-0.5,1.6-0.5,2.5c0,0,0,0.1,0,0.1c-0.3,0.2-0.7,0.5-1.3,1.1c-1,0.9-2.4,2.2-3.8,4.1c-1.5,1.9-3,4.3-4.2,7.2
		c-0.3,0.7-0.6,1.5-0.9,2.3c-0.2,0.5-0.4,1.3-0.6,2.1c-0.2,0.8-0.3,1.5-0.4,2.2c-0.2,1.4-0.3,2.6-0.3,3.6c0,1.1,0.1,1.9,0.2,2.9
		l0.2,2c0-0.1,0-0.1,0,0c0,0.1,0.1,0.2,0.1,0.6c0.1,0.4,0.2,1,0.3,2.4l1.2-5.2l0.4-1.7l0.2-0.7l0-0.2c0-0.1,0-0.1,0-0.2l0.1-0.2
		l0.3-0.9c0-0.2,0.1-0.3,0.1-0.4l0.1-0.3c0.2-0.5,0.3-0.8,0.5-1.2c0.3-0.7,0.6-1.3,0.8-1.9c0.1-0.3,0.3-0.6,0.4-0.8l0.3-0.6
		c0.6-1.1,1.2-2.1,1.8-3.1c1.2-1.9,2.5-3.6,3.5-5c1.2-1.7,2.1-3,2.7-3.7c0.2,0.1,0.3,0.3,0.5,0.4c0.4,0.3,0.9,0.5,1.3,0.6
		c0.1,0,0.2,0.1,0.3,0.1c0.1,0,0.4,0,0.5,0.1c0.3,0,0.5,0,0.8-0.1c1-0.2,1.6-0.7,2.3-1.1c0.6-0.4,1.2-0.9,1.7-1.4
		C61.9,176.3,63.5,174.5,64.9,173.1z M50.8,175.2c0,0.5,0,1,0.1,1.6c-0.1,0.1-0.2,0.1-0.3,0.2c-0.9,0.6-2.2,1.5-3.3,2.9
		c-0.1,0.1-0.1,0.2-0.2,0.3C48.7,177.4,50.2,175.8,50.8,175.2z M49.2,182.7c-1.2,1.3-2.6,2.8-4.1,4.6c-0.7,0.9-1.5,2-2.2,3.1
		l-0.1,0.2c0,0,0,0,0,0l0,0c0,0-0.1,0.1-0.1,0.1c0,0-0.1,0-0.1,0c0,0,0-0.3,0-0.3c0,0,0,0.1-0.1,0.1c0,0,0,0,0,0c0,0,0,0,0-0.3
		c0.2-0.8,0.4-1.5,0.7-2.2c0.7-2,1.5-3.8,2.3-5.3c-0.1,0.3-0.2,0.7-0.3,1c-0.3,1.2-0.2,1.9-0.2,1.9l1.2-1.4c0.7-0.8,1.7-1.8,2.8-3.1
		c1-1.1,1.7-2.3,2.3-3.3c0.2,0.5,0.6,1.1,1,1.5C51.7,180.1,50.6,181.2,49.2,182.7z M58.7,176.7c-0.5,0.4-1.1,0.8-1.6,1.1
		c-0.5,0.3-1.1,0.6-1.6,0.7c-0.1,0-0.2,0-0.3,0c-0.1,0,0,0,0,0c-0.1,0-0.1,0-0.2-0.1c-0.3-0.1-0.5-0.2-0.7-0.3
		c-0.4-0.3-0.7-0.7-0.9-1.2c-0.4-1.1-0.3-2.5,0-3.7c0.2-0.6,0.4-1.1,0.8-1.6c0.3-0.5,0.8-0.9,1.3-1.3c1-0.8,2-1.4,3-2
		c1-0.6,2-1.1,2.9-1.5c1.8-0.9,3.3-1.6,4.3-2.1c0.7-0.4,1.2-0.6,1.4-0.8c-0.1,0.3-0.2,0.5-0.3,0.9c-0.2,0.6-0.3,1.2-0.2,1.9
		c0.1,0.6,0.4,1.2,0.8,1.7c-1.1,0.1-2.5,0.6-3.8,1.6c-1.3,1-2.2,2.1-2.9,3c-0.6,0.9-0.9,1.4-0.9,1.4s0.6-0.3,1.5-0.9
		c0.9-0.6,2-1.4,3.2-2.3c1.2-0.9,2.3-1.7,3.2-2.1c0.1-0.1,0.2-0.1,0.3-0.2c0.2,0.2,0.5,0.3,0.7,0.4c-0.1,0.1-0.2,0.1-0.4,0.2
		c-1,0.5-2.4,1.4-4.1,2.7C62.6,173.5,60.7,175.1,58.7,176.7z"/>
	<radialGradient id="SVGID_10_" cx="129.4991" cy="123.0241" r="114.3495" gradientUnits="userSpaceOnUse">
		<stop  offset="0.2" style="stop-color:#FFFFFF"/>
		<stop  offset="0.7" style="stop-color:#FFFFFF;stop-opacity:0.6"/>
		<stop  offset="1" style="stop-color:#FFFFFF"/>
	</radialGradient>
	<path class="st9" d="M47.6,155.6c0,0,0.1,0,0.1,0c0.9,0.1,1.7,0,2.4,0c0.4,0,0.8-0.1,1.1-0.1l0.1,0l0.1,0l0,0l0.3,0l0.6,0
		c0.7,0,1.5-0.1,2.2-0.2c2.8-0.4,5.2-1.1,7.3-1.6c1.4-0.4,2.6-0.7,3.6-0.9c0.4,0.4,0.9,0.7,1.4,1c0.9,0.5,1.9,0.8,2.8,1
		c1.9,0.4,3.7,0.5,5.3,0.4c3.4-0.1,6.3-0.5,8.7-0.8c2.5-0.3,4.4-0.6,5.8-0.6c0.2,0,0.3,0,0.5,0c-0.1,0-0.1,0.1-0.2,0.1
		c-0.4,0.2-0.6,0.2-0.6,0.2c0,0,0.2,0.1,0.6,0.1c0.4,0.1,1,0.1,1.8-0.1c0.4-0.1,0.8-0.3,1.2-0.8c0.4-0.4,0.6-1.1,0.6-1.7
		c0-1.3-0.6-2.4-1.4-3.2c-0.8-0.9-1.7-1.5-2.7-1.9c0.3,0,0.5,0,0.5,0l-0.8-0.1c-0.8-0.3-1.6-0.4-2.2-0.5c-0.4,0-0.8,0-1.1,0
		c-1.1-0.1-2.4-0.3-3.9-0.4c-2.5-0.2-5.5-0.4-8.8-0.3c-1.7,0.1-3.4,0.2-5.3,0.7c-0.5,0.1-0.9,0.3-1.4,0.5c-0.5,0.2-1,0.5-1.4,1
		c-0.2,0.2-0.3,0.4-0.5,0.6c-0.1,0-0.2,0-0.3,0c-1.2-0.1-2.8-0.3-4.9-0.5c-1-0.1-2.2-0.2-3.4-0.3c-1.3-0.1-2.6-0.1-4.1,0.2
		c-0.7,0.1-1.5,0.3-2.3,0.6c-0.4,0.1-0.8,0.3-1.1,0.6c-0.2,0.1-0.4,0.2-0.6,0.4l-0.5,0.4c-0.5,0.4-1,0.8-1.4,1.3c0,0,0,0,0,0
		c-1.5,0-3.8,0.4-6.3,1.5c-2.5,1.1-5.4,2.8-8.2,5.2c-0.7,0.6-1.4,1.2-2,1.9c-0.3,0.3-0.7,0.7-1,1.1l-0.5,0.6l-0.4,0.5
		c-0.1,0.2-0.3,0.4-0.4,0.5c-1.2,1.5-2.1,3-2.7,4.2c-0.3,0.6-0.6,1.2-0.8,1.7l-0.7,1.7l-0.5,1.3l-0.1,0.3l-0.8,1.9l4-4.2
		c0.6-0.6,1-1,1.5-1.5c0.4-0.4,0.8-0.8,1.2-1.1c0.8-0.7,1.4-1.2,2.1-1.7l0.9-0.6l0.5-0.4c1.3-1,2.7-1.8,4-2.6
		c2.6-1.5,5.2-2.6,7.3-3.5C44.7,156.6,46.4,156,47.6,155.6z M43.5,156.1c0.8-0.4,1.4-0.7,2-1.1c0,0,0,0,0,0c0,0,0.1,0.1,0.1,0.1
		c0.3,0.1,0.5,0.2,0.8,0.3c0.1,0,0.1,0,0.2,0C45.7,155.6,44.7,155.8,43.5,156.1z M54.3,153.3c-0.7,0-1.4,0.1-2.1,0.1l-0.5,0l-0.3,0
		c-0.1,0-0.1,0-0.1,0l-0.1,0l-0.1,0c-0.4,0-0.7,0-1.1,0c-0.7,0-1.5,0-2.1-0.1c-0.3,0-0.7-0.1-1-0.2c-0.1,0-0.3-0.1-0.3-0.1
		c0,0,0,0,0,0c0,0,0,0,0,0c0.1-0.2,0.3-0.5,0.5-0.7c0.3-0.3,0.6-0.6,0.9-0.9c0.4,0.2,0.8,0.5,1.3,0.7c0.8,0.4,1.8,0.7,3,0.9
		c1.1,0.2,2.4,0.2,3.7,0.1C55.4,153.2,54.9,153.3,54.3,153.3z M61.6,152.5c-1.6,0.2-3.4,0.5-5.4,0.6c2.7-0.3,4.9-1.3,6.4-2.1
		c0.5-0.3,1-0.6,1.4-0.8c0.1,0.4,0.2,0.8,0.4,1.1c0.2,0.3,0.4,0.6,0.6,0.8C63.9,152.2,62.8,152.3,61.6,152.5z M89.5,153.4
		c-1.4-0.2-3.4-0.2-5.9-0.2c-2.5,0-5.4,0.2-8.6,0c-1.6-0.1-3.3-0.2-4.9-0.6c-0.8-0.2-1.6-0.5-2.2-0.9c-0.4-0.2-0.8-0.5-1.1-0.9
		c0.5,0.4,1.1,0.7,1.8,1c1.3,0.5,2.9,0.7,4.7,0.6c1.8,0,3.7-0.3,5.6-0.6c2-0.3,3.8-0.6,5.5-0.8c1.7-0.1,3.2-0.1,4.4,0.3
		c1.1,0.3,2,0.9,2.5,1.4c-0.1,0.1-0.1,0.2-0.2,0.2c-0.2,0.2-0.4,0.3-0.7,0.5C90.1,153.4,89.8,153.4,89.5,153.4z M66.4,149
		c0.4-0.4,1.1-0.7,1.9-1c1.5-0.5,3.2-0.7,4.8-0.9c3.2-0.3,6.1-0.4,8.6-0.5l3.8-0.1c0.3,0.1,0.6,0.2,1,0.4c1.2,0.6,2.6,1.6,3.8,2.9
		c0.6,0.6,1,1.3,1.2,1.9c0.1,0.3,0.1,0.5,0,0.7c0,0.1,0,0.1-0.1,0.2c-0.4-0.6-1.2-1.3-2.4-1.9c-1.3-0.6-2.9-0.8-4.7-0.8
		c-1.8,0-3.7,0.2-5.6,0.5c-2,0.3-3.8,0.6-5.5,0.8c-1.7,0.2-3.2,0.2-4.4-0.1c-1.2-0.2-2-0.7-2.6-1.2c-0.1-0.2-0.1-0.4-0.1-0.5
		C66.1,149.3,66.2,149.2,66.4,149z M48.6,150.9l0.4-0.3c0.1-0.1,0.2-0.2,0.4-0.3c0.2-0.2,0.5-0.3,0.8-0.5c0.6-0.3,1.2-0.5,1.8-0.6
		c1.2-0.3,2.5-0.4,3.7-0.5c1.2-0.1,2.3-0.1,3.4-0.1c2.1,0,3.8-0.1,5-0.3c0,0,0.1,0,0.1,0c-0.1,0.3-0.3,0.7-0.3,1c0,0.2,0,0.3,0,0.5
		l-1.6,0.4c-1.6,0.4-3.9,1-6.4,1.3c-1.2,0.1-2.4,0.2-3.5,0.2c-1.1,0-2.1-0.2-2.9-0.3c-0.5-0.1-0.9-0.2-1.3-0.3
		C48.4,151.1,48.5,151,48.6,150.9z M34.6,159.3c-1.4,0.7-2.9,1.5-4.4,2.4l-0.5,0.4l-0.1,0.1c0,0,0,0,0,0l0,0c0,0,0,0-0.1,0
		c0,0,0,0,0,0c0,0,0-0.1,0-0.1s-0.1,0.1-0.1,0c0,0,0,0,0,0l0,0l0,0c0,0,0,0,0,0l0.4-0.5c0.3-0.4,0.6-0.7,0.9-1
		c0.6-0.7,1.2-1.3,1.8-1.9c2.5-2.4,5-4.3,7.3-5.6c2.1-1.1,4-1.8,5.4-2.1c-0.3,0.3-0.6,0.7-0.8,1.2c-0.1,0.3-0.3,0.7-0.2,1.1
		c0,0.3,0.1,0.5,0.2,0.8c-1.3,0.2-2.9,0.5-4.6,1.1c-2,0.7-3.6,1.6-4.8,2.4c-1.1,0.8-1.8,1.4-1.8,1.4c0,0,0.9-0.1,2.2-0.4
		c0.4-0.1,0.8-0.2,1.2-0.2C36,158.6,35.3,159,34.6,159.3z"/>
	<radialGradient id="SVGID_11_" cx="63.4562" cy="207.9794" r="1.331883e-02" gradientUnits="userSpaceOnUse">
		<stop  offset="0.2" style="stop-color:#FFFFFF"/>
		<stop  offset="0.7" style="stop-color:#FFFFFF;stop-opacity:0.6"/>
		<stop  offset="1" style="stop-color:#FFFFFF"/>
	</radialGradient>
	<path class="st10" d="M63.5,208C63.5,208,63.5,208,63.5,208L63.5,208z"/>
	<radialGradient id="SVGID_12_" cx="129.4991" cy="123.0241" r="114.3495" gradientUnits="userSpaceOnUse">
		<stop  offset="0.2" style="stop-color:#FFFFFF"/>
		<stop  offset="0.7" style="stop-color:#FFFFFF;stop-opacity:0.6"/>
		<stop  offset="1" style="stop-color:#FFFFFF"/>
	</radialGradient>
	<path class="st11" d="M59.6,119.3c-0.2,0.3-0.4,0.5-0.5,0.8l-0.1,0.1c0,0,0,0,0,0c0,0,0,0,0,0c0,0,0,0-0.1,0.1c0,0-0.1-0.1-0.1-0.1
		l0,0l-0.1-0.1l-0.1-0.1l-0.3-0.3c-0.4-0.4-0.7-0.8-1-1.3c-0.6-0.9-1.2-2-1.7-3.1c-0.9-2-1.6-4.1-1.8-6c-0.3-1.9-0.2-3.6,0.3-5
		c0.4-1.4,1.2-2.4,1.7-2.9c0.6-0.6,1-0.8,1-0.8c0,0-0.4,0.2-1.1,0.7c-0.7,0.5-1.6,1.4-2.3,2.9c-0.7,1.4-1,3.4-0.8,5.4
		c0.1,2.1,0.7,4.3,1.7,6.5c0.5,1.2,1.2,2.3,1.9,3.3c0.4,0.5,0.8,1,1.2,1.4l0.3,0.3l0.4,0.3c0.4,0.3,0.8,0.6,1.1,0.9l0.5-0.8
		c0.1-0.1,0.2-0.3,0.2-0.4l0.1-0.2l0.1-0.1c0.2-0.3,0.3-0.6,0.5-0.9c0.3-0.6,0.5-1.2,0.8-1.7c0.5-1.1,0.9-2,1.2-2.8
		c0.7-1.5,1.4-2.3,1.4-2.3c0,0-0.8,0.7-1.7,2.1c-0.5,0.7-1,1.6-1.6,2.6C60.2,118.3,59.9,118.8,59.6,119.3z"/>
	<radialGradient id="SVGID_13_" cx="129.4991" cy="123.0241" r="114.3495" gradientUnits="userSpaceOnUse">
		<stop  offset="0.2" style="stop-color:#FFFFFF"/>
		<stop  offset="0.7" style="stop-color:#FFFFFF;stop-opacity:0.6"/>
		<stop  offset="1" style="stop-color:#FFFFFF"/>
	</radialGradient>
	<path class="st12" d="M93.5,128.4c1-0.5,2-0.8,3-1.1c1.9-0.5,3.6-0.9,5-1.3c1.4-0.4,2.4-0.8,3.1-1.1c0.7-0.3,1-0.6,1-0.6
		c0,0-0.3,0.2-1,0.5c-0.7,0.3-1.7,0.6-3.1,0.9c-1.4,0.3-3.1,0.6-5.1,1.1c-1,0.2-2,0.5-3.1,1c-0.5,0.2-1.1,0.5-1.6,0.9
		c-0.5,0.4-1,0.8-1.4,1.4c-0.4,0.6-0.7,1.3-0.8,2c-0.1,0.7,0,1.5,0.2,2.2c0,0.2,0.1,0.3,0.1,0.5c0.1,0.2,0.1,0.4,0.2,0.5
		c0.2,0.4,0.3,0.7,0.5,1c0.4,0.6,0.8,1.3,1.3,1.9c1.8,2.4,4,4.8,6.4,7.2c0.6,0.6,1.2,1.2,1.9,1.8c0.3,0.3,0.7,0.6,1,0.9l0.3,0.2
		l0.1,0.1l0,0l0.1,0.1c0.2,0.2,0.3,0.3,0.5,0.5c1.4,1.2,3,2.2,4.8,2.9c1.8,0.6,3.8,0.8,5.8,0.7c2-0.2,3.9-0.6,5.8-1.1
		c2-0.6,3.9-1.1,5.8-1.6c0.4-0.1,0.8-0.2,1.2-0.3c0.1,0.1,0.3,0.2,0.4,0.3c0,0,0,0,0.1,0c-1.4,0.5-2.8,0.8-4.2,1.1
		c-1.4,0.4-2.9,0.7-4.2,1.2c-1.4,0.5-2.7,1.3-3.6,2.4c-0.5,0.6-0.8,1.3-1,1.9c-0.2,0.7-0.3,1.4-0.3,2c0,0.3,0,0.6,0,1
		c0.1,0.4,0.1,0.7,0.2,1c0.2,0.6,0.4,1.2,0.7,1.7c1.2,2.1,2.9,3.7,4.5,4.8c3.3,2.3,6.6,3.1,8.8,2.9c0.2,0,0.4,0,0.6-0.1
		c0.2,0,0.4,0.1,0.6,0.1c2.2,0.2,5.5-0.5,8.8-2.9c1.6-1.2,3.3-2.7,4.5-4.8c0.3-0.5,0.6-1.1,0.7-1.7c0.1-0.3,0.2-0.6,0.2-1
		c0-0.3,0-0.7,0-1c0-0.7-0.1-1.4-0.3-2c-0.2-0.7-0.5-1.3-1-1.9c-0.9-1.2-2.3-1.9-3.6-2.4c-1.4-0.5-2.8-0.9-4.2-1.2
		c-1.4-0.3-2.8-0.7-4.2-1.1c0,0,0,0,0.1,0c0.1-0.1,0.3-0.2,0.4-0.3c0.4,0.1,0.8,0.2,1.2,0.3c1.9,0.5,3.8,1.1,5.8,1.6
		c1.9,0.5,3.8,1,5.8,1.1c2,0.2,4,0,5.8-0.7c1.8-0.6,3.4-1.7,4.8-2.9c0.2-0.1,0.3-0.3,0.5-0.5l0.1-0.1l0,0l0.1-0.1l0.3-0.2
		c0.3-0.3,0.7-0.6,1-0.9c0.7-0.6,1.3-1.2,1.9-1.8c2.4-2.4,4.6-4.7,6.4-7.2c0.5-0.6,0.9-1.2,1.3-1.9c0.2-0.3,0.4-0.7,0.5-1
		c0.1-0.2,0.1-0.4,0.2-0.5c0-0.2,0.1-0.3,0.1-0.5c0.2-0.7,0.3-1.4,0.2-2.2c-0.1-0.7-0.3-1.4-0.7-2c-0.4-0.6-0.9-1-1.4-1.4
		c-0.5-0.4-1.1-0.6-1.6-0.9c-1.1-0.4-2.1-0.7-3.1-1c-2-0.5-3.7-0.8-5.1-1.1c-1.4-0.3-2.4-0.6-3.1-0.9c-0.7-0.3-1-0.5-1-0.5
		c0,0,0.3,0.2,1,0.6c0.7,0.3,1.7,0.7,3.1,1.1c1.4,0.4,3.1,0.8,5,1.3c1,0.3,2,0.6,3,1.1c1,0.5,2,1.1,2.7,2.1c0.6,1,0.7,2.3,0.3,3.5
		l-0.1,0.5c-0.1,0.2-0.1,0.3-0.2,0.4c-0.1,0.3-0.3,0.6-0.5,0.9c-0.4,0.6-0.8,1.2-1.3,1.7c-1.8,2.3-4.1,4.6-6.5,6.9
		c-0.6,0.6-1.2,1.1-1.9,1.7c-0.3,0.3-0.7,0.5-1,0.8l-0.3,0.2l-0.1,0c0,0-0.1,0.1-0.1,0.1l-0.1,0.1c-0.2,0.1-0.3,0.3-0.5,0.4
		c-1.3,1.1-2.8,2-4.4,2.5c-1.6,0.6-3.4,0.7-5.2,0.6c-1.8-0.1-3.6-0.6-5.5-1.1c-2-0.5-3.9-1.1-5.9-1.6c0,0-0.1,0-0.1,0
		c-0.9-0.2-1.9-0.4-2.8-0.5l-0.5-0.1l-0.2,0l-0.5-0.1c-0.5,0-0.9-0.1-1.3-0.1l-1.8,0.6l0.2,0.2c0,0-0.1,0-0.1,0
		c-2,0.5-3.9,1.1-5.8,1.6c-1.8,0.5-3.7,0.9-5.5,1.1c-1.8,0.2-3.6,0-5.2-0.6c-1.6-0.5-3.1-1.4-4.4-2.5c-0.2-0.1-0.3-0.3-0.5-0.4
		l-0.1-0.1c0,0-0.1-0.1-0.1-0.1l-0.1,0l-0.3-0.2c-0.3-0.3-0.7-0.5-1-0.8c-0.6-0.5-1.3-1.1-1.9-1.7c-2.4-2.3-4.7-4.6-6.5-6.9
		c-0.5-0.6-0.9-1.2-1.3-1.7c-0.2-0.3-0.4-0.6-0.5-0.9c-0.1-0.2-0.1-0.3-0.2-0.4l-0.1-0.5c-0.4-1.3-0.3-2.6,0.3-3.5
		C91.5,129.5,92.5,128.8,93.5,128.4z M133.1,152c1.4,0.3,2.8,0.6,4.1,1.1c1.3,0.5,2.4,1.1,3.2,2c0.8,0.9,1.1,2.1,1.1,3.3
		c0,0.3,0,0.6,0,0.9c0,0.3-0.1,0.6-0.2,0.8c-0.1,0.5-0.4,1.1-0.6,1.6c-1,2-2.6,3.6-4.1,4.8c-3.1,2.4-6.3,3.3-8.4,3.2
		c-0.1,0-0.1,0-0.1,0c0.5-0.1,1-0.3,1.3-0.5c0.5-0.3,0.7-0.5,0.7-0.4c0,0-0.2,0.2-0.8,0.4c-0.4,0.2-1,0.4-1.8,0.5
		c-0.8-0.1-1.4-0.3-1.8-0.5c-0.5-0.2-0.8-0.4-0.8-0.4c0,0,0.2,0.2,0.8,0.4c0.3,0.2,0.7,0.3,1.3,0.5c0,0-0.1,0-0.1,0
		c-2.1,0.1-5.3-0.8-8.4-3.2c-1.5-1.2-3.1-2.8-4.1-4.8c-0.3-0.5-0.5-1-0.6-1.6c-0.1-0.3-0.1-0.6-0.2-0.8c0-0.3,0-0.6,0-0.9
		c0-1.2,0.4-2.4,1.1-3.3c0.8-0.9,1.9-1.6,3.2-2c1.3-0.5,2.7-0.8,4.1-1.1c1.4-0.3,2.9-0.6,4.4-1.1c0.4-0.1,0.7-0.3,1.1-0.4
		c0.4,0.1,0.7,0.3,1.1,0.4C130.2,151.4,131.7,151.7,133.1,152z"/>
</g>
<path class="st13" d="M127.5,138.4c-3.3,0-6.4-1-9.1-2.9c-1.8-1.3-3.3-3-4.4-4.9c-0.1-0.2-0.1-0.3-0.1-0.5c0-0.2,0.2-0.3,0.3-0.4
	c0.1-0.1,0.2-0.1,0.3-0.1c0.3,0,0.5,0.1,0.6,0.4c1,1.8,2.4,3.3,4,4.5c2.4,1.7,5.3,2.6,8.2,2.6c2,0,3.8-0.4,5.6-1.1
	c0.4-0.2,0.7-0.6,0.7-1.1c0-0.5-0.3-0.9-0.7-1.1c-0.4-0.2-0.7-0.4-1-0.6c-1.2-0.9-2.1-2.2-2.3-3.7c-0.2-1.5,0.1-3,1-4.2
	c1.1-1.5,2.8-2.3,4.7-2.3c1.2,0,2.4,0.4,3.4,1.1c1.2,0.9,2.1,2.2,2.3,3.7c0.2,1.5-0.1,3-1,4.2c0,0,0,0-0.1,0.1c0,0,0,0.1-0.1,0.1
	c0,0,0,0.1-0.1,0.1C137.2,136,132.5,138.4,127.5,138.4L127.5,138.4z M135.6,124.2c-1.4,0-2.7,0.6-3.5,1.8c-0.7,0.9-1,2.1-0.8,3.2
	c0.2,1.1,0.8,2.1,1.8,2.8c0.7,0.5,1.6,0.8,2.5,0.8c1.4,0,2.7-0.6,3.5-1.8c0.7-0.9,1-2.1,0.8-3.2c-0.2-1.1-0.8-2.1-1.7-2.8
	C137.4,124.5,136.5,124.2,135.6,124.2L135.6,124.2z M119.5,126.2c-1.2,0-2.4-0.4-3.4-1.1c-1.2-0.9-2.1-2.2-2.3-3.7
	c-0.2-1.5,0.1-3,1-4.2l0.1-0.1c0,0,0.1-0.1,0.1-0.1c0,0,0-0.1,0-0.1c2.9-3.9,7.6-6.2,12.5-6.2c3.3,0,6.4,1,9.1,2.9
	c1.9,1.3,3.3,3,4.4,4.9c0.1,0.2,0.1,0.3,0.1,0.5c0,0.2-0.2,0.3-0.3,0.4c-0.1,0.1-0.2,0.1-0.3,0.1c-0.3,0-0.5-0.1-0.6-0.4
	c-1-1.8-2.4-3.3-4-4.5c-2.4-1.7-5.3-2.6-8.2-2.6c-2,0-3.9,0.4-5.6,1.1c-0.4,0.2-0.7,0.6-0.7,1.1c0,0.5,0.3,0.9,0.7,1.1
	c0.4,0.2,0.7,0.4,1,0.5c1.2,0.9,2.1,2.2,2.3,3.7c0.2,1.5-0.1,3-1,4.2C123.1,125.3,121.4,126.2,119.5,126.2L119.5,126.2z
	 M119.5,116.3c-1.4,0-2.7,0.6-3.5,1.8c-0.7,0.9-1,2.1-0.8,3.2c0.2,1.1,0.8,2.1,1.8,2.8c0.7,0.5,1.6,0.8,2.5,0.8
	c1.4,0,2.7-0.6,3.5-1.8c0.7-0.9,1-2.1,0.8-3.2c-0.2-1.1-0.8-2.1-1.8-2.8C121.3,116.5,120.4,116.3,119.5,116.3L119.5,116.3z"/>
</svg>
