<?xml version="1.0" encoding="utf-8"?>
<!-- Generator: Adobe Illustrator 21.1.0, SVG Export Plug-In . SVG Version: 6.00 Build 0)  -->
<svg version="1.1" id="Layer_11" xmlns="http://www.w3.org/2000/svg" xmlns:xlink="http://www.w3.org/1999/xlink" x="0px" y="0px"
	 viewBox="0 0 601 153.1" style="enable-background:new 0 0 601 153.1;" xml:space="preserve">
<style type="text/css">
	.st0{fill:url(#SVGID_1_);}
	.st1{fill:url(#SVGID_2_);}
	.st2{fill:url(#SVGID_3_);}
	.st3{fill:url(#SVGID_4_);}
	.st4{fill:url(#SVGID_5_);}
	.st5{fill:url(#SVGID_6_);}
	.st6{fill:url(#SVGID_7_);}
	.st7{fill:url(#SVGID_8_);}
	.st8{fill:url(#SVGID_9_);}
	.st9{fill:url(#SVGID_10_);}
	.st10{fill:url(#SVGID_11_);}
	.st11{fill:url(#SVGID_12_);}
	.st12{fill:url(#SVGID_13_);}
	.st13{fill:url(#SVGID_14_);}
	.st14{fill:url(#SVGID_15_);}
	.st15{fill:url(#SVGID_16_);}
	.st16{fill:url(#SVGID_17_);}
	.st17{fill:url(#SVGID_18_);}
	.st18{fill:url(#SVGID_19_);}
	.st19{fill:url(#SVGID_20_);}
	.st20{fill:url(#SVGID_21_);}
	.st21{fill:url(#SVGID_22_);}
	.st22{fill:url(#SVGID_23_);}
	.st23{fill:url(#SVGID_24_);}
</style>
<g>
	<g>
		<linearGradient id="SVGID_1_" gradientUnits="userSpaceOnUse" x1="194.1575" y1="47.018" x2="196.5439" y2="115.3533">
			<stop  offset="0" style="stop-color:#414042"/>
			<stop  offset="8.924593e-02" style="stop-color:#434344"/>
			<stop  offset="0.1376" style="stop-color:#4B4B4D"/>
			<stop  offset="0.1761" style="stop-color:#57575A"/>
			<stop  offset="0.2094" style="stop-color:#67686B"/>
			<stop  offset="0.2394" style="stop-color:#7A7C7F"/>
			<stop  offset="0.267" style="stop-color:#919396"/>
			<stop  offset="0.2923" style="stop-color:#ADAFB2"/>
			<stop  offset="0.303" style="stop-color:#BCBEC0"/>
			<stop  offset="0.3959" style="stop-color:#818385"/>
			<stop  offset="0.4723" style="stop-color:#555557"/>
			<stop  offset="0.5091" style="stop-color:#414042"/>
			<stop  offset="0.5311" style="stop-color:#67696B"/>
			<stop  offset="0.5626" style="stop-color:#929497"/>
			<stop  offset="0.5919" style="stop-color:#B5B7BA"/>
			<stop  offset="0.6178" style="stop-color:#D0D2D3"/>
			<stop  offset="0.6395" style="stop-color:#E0E1E3"/>
			<stop  offset="0.6544" style="stop-color:#E6E7E8"/>
			<stop  offset="0.6615" style="stop-color:#D1D2D4"/>
			<stop  offset="0.6767" style="stop-color:#9B9DA0"/>
			<stop  offset="0.6987" style="stop-color:#474749"/>
			<stop  offset="0.7052" style="stop-color:#000000"/>
			<stop  offset="0.8126" style="stop-color:#080808"/>
			<stop  offset="0.8581" style="stop-color:#202020"/>
			<stop  offset="0.8918" style="stop-color:#3B3A3C"/>
			<stop  offset="0.9198" style="stop-color:#4E4E50"/>
			<stop  offset="0.9442" style="stop-color:#626365"/>
			<stop  offset="0.9661" style="stop-color:#787A7C"/>
			<stop  offset="0.9857" style="stop-color:#909295"/>
			<stop  offset="1" style="stop-color:#A7A9AC"/>
		</linearGradient>
		<path class="st0" d="M173.7,108.9v-7.1h7V59.4h-7v-7.1h24.4c2.9,0,5.6,0.4,8,1.1c2.4,0.7,4.4,1.9,6.2,3.5c3.5,3,5.2,7.2,5.2,12.8
			c0,5.3-1.7,9.4-5.1,12.6c-3.4,3.1-7.9,4.7-13.5,4.7h-10.3v21.9H173.7z M197.4,80c2.1,0,4-0.2,5.5-0.6c1.5-0.4,2.8-1,3.8-1.9
			c1.9-1.5,2.9-3.9,2.9-7.2c0-2.1-0.3-3.8-0.7-5.1c-0.5-1.3-1.2-2.4-2-3.1c-1.9-1.7-4.9-2.5-9.5-2.5h-8.7V80H197.4z"/>
		<linearGradient id="SVGID_2_" gradientUnits="userSpaceOnUse" x1="224.8685" y1="45.9449" x2="227.2549" y2="114.2804">
			<stop  offset="0" style="stop-color:#414042"/>
			<stop  offset="8.924593e-02" style="stop-color:#434344"/>
			<stop  offset="0.1376" style="stop-color:#4B4B4D"/>
			<stop  offset="0.1761" style="stop-color:#57575A"/>
			<stop  offset="0.2094" style="stop-color:#67686B"/>
			<stop  offset="0.2394" style="stop-color:#7A7C7F"/>
			<stop  offset="0.267" style="stop-color:#919396"/>
			<stop  offset="0.2923" style="stop-color:#ADAFB2"/>
			<stop  offset="0.303" style="stop-color:#BCBEC0"/>
			<stop  offset="0.3959" style="stop-color:#818385"/>
			<stop  offset="0.4723" style="stop-color:#555557"/>
			<stop  offset="0.5091" style="stop-color:#414042"/>
			<stop  offset="0.5311" style="stop-color:#67696B"/>
			<stop  offset="0.5626" style="stop-color:#929497"/>
			<stop  offset="0.5919" style="stop-color:#B5B7BA"/>
			<stop  offset="0.6178" style="stop-color:#D0D2D3"/>
			<stop  offset="0.6395" style="stop-color:#E0E1E3"/>
			<stop  offset="0.6544" style="stop-color:#E6E7E8"/>
			<stop  offset="0.6615" style="stop-color:#D1D2D4"/>
			<stop  offset="0.6767" style="stop-color:#9B9DA0"/>
			<stop  offset="0.6987" style="stop-color:#474749"/>
			<stop  offset="0.7052" style="stop-color:#000000"/>
			<stop  offset="0.8126" style="stop-color:#080808"/>
			<stop  offset="0.8581" style="stop-color:#202020"/>
			<stop  offset="0.8918" style="stop-color:#3B3A3C"/>
			<stop  offset="0.9198" style="stop-color:#4E4E50"/>
			<stop  offset="0.9442" style="stop-color:#626365"/>
			<stop  offset="0.9661" style="stop-color:#787A7C"/>
			<stop  offset="0.9857" style="stop-color:#909295"/>
			<stop  offset="1" style="stop-color:#A7A9AC"/>
		</linearGradient>
		<path class="st1" d="M216.3,108.9v-7.1h6.6V52.4h7.9v49.5h6.7v7.1H216.3z M222.9,51.9v-8.5h7.9v8.5H222.9z"/>
		<linearGradient id="SVGID_3_" gradientUnits="userSpaceOnUse" x1="257.6093" y1="44.8079" x2="259.9956" y2="113.1436">
			<stop  offset="0" style="stop-color:#414042"/>
			<stop  offset="8.924593e-02" style="stop-color:#434344"/>
			<stop  offset="0.1376" style="stop-color:#4B4B4D"/>
			<stop  offset="0.1761" style="stop-color:#57575A"/>
			<stop  offset="0.2094" style="stop-color:#67686B"/>
			<stop  offset="0.2394" style="stop-color:#7A7C7F"/>
			<stop  offset="0.267" style="stop-color:#919396"/>
			<stop  offset="0.2923" style="stop-color:#ADAFB2"/>
			<stop  offset="0.303" style="stop-color:#BCBEC0"/>
			<stop  offset="0.3959" style="stop-color:#818385"/>
			<stop  offset="0.4723" style="stop-color:#555557"/>
			<stop  offset="0.5091" style="stop-color:#414042"/>
			<stop  offset="0.5311" style="stop-color:#67696B"/>
			<stop  offset="0.5626" style="stop-color:#929497"/>
			<stop  offset="0.5919" style="stop-color:#B5B7BA"/>
			<stop  offset="0.6178" style="stop-color:#D0D2D3"/>
			<stop  offset="0.6395" style="stop-color:#E0E1E3"/>
			<stop  offset="0.6544" style="stop-color:#E6E7E8"/>
			<stop  offset="0.6615" style="stop-color:#D1D2D4"/>
			<stop  offset="0.6767" style="stop-color:#9B9DA0"/>
			<stop  offset="0.6987" style="stop-color:#474749"/>
			<stop  offset="0.7052" style="stop-color:#000000"/>
			<stop  offset="0.8126" style="stop-color:#080808"/>
			<stop  offset="0.8581" style="stop-color:#202020"/>
			<stop  offset="0.8918" style="stop-color:#3B3A3C"/>
			<stop  offset="0.9198" style="stop-color:#4E4E50"/>
			<stop  offset="0.9442" style="stop-color:#626365"/>
			<stop  offset="0.9661" style="stop-color:#787A7C"/>
			<stop  offset="0.9857" style="stop-color:#909295"/>
			<stop  offset="1" style="stop-color:#A7A9AC"/>
		</linearGradient>
		<path class="st2" d="M260.3,109.7c-3.2,0-6.3-0.7-9.2-2.2c-1.4-0.7-2.7-1.6-3.9-2.6v4h-7.1V87.2h7.1v3.6c0,3,1.3,5.6,3.8,8
			c2.6,2.3,5.8,3.5,9.4,3.5c3.1,0,5.7-0.9,7.7-2.8c2-1.7,3-4,3-6.8c0-2.4-0.9-4.3-2.7-5.6c-1-0.8-2.4-1.5-4.2-2.2
			c-1.8-0.7-4.1-1.4-6.9-2.1c-2.9-0.7-5.4-1.6-7.5-2.5c-2.2-0.9-4-2.1-5.4-3.4c-2.9-2.6-4.4-6.1-4.4-10.8c0-4.1,1.7-7.6,5.1-10.5
			c3.4-2.8,7.3-4.2,12.1-4.2c1.4,0,2.8,0.1,4.2,0.3c1.4,0.2,2.9,0.6,4.3,1.2c1.3,0.6,2.4,1.2,3.4,1.8c1,0.6,2.1,1.5,3.2,2.6
			c0.6,0.7,1.1,1.3,1.5,1.8c0.4,0.5,0.8,1.2,1.2,2.1c0.3,0.6,0.6,1.5,0.7,2.5c0.2,0.9,0.3,1.9,0.4,2.7c0.1,0.5,0.1,1.1,0.2,1.8
			l0.1,2h-7.7v-2.8c0-0.3-0.1-0.8-0.2-1.4c-0.1-0.6-0.3-1.2-0.5-1.8c-0.2-0.6-0.5-1.3-0.9-1.8c-0.4-0.6-0.8-1.1-1.3-1.5
			c-1.1-0.8-2.3-1.4-3.8-1.6c-1.4-0.2-3.1-0.4-5-0.4c-2.8,0-5.1,0.7-6.8,2.2c-1.7,1.4-2.5,3.2-2.5,5.3c0,2.4,0.9,4.2,2.7,5.4
			c1,0.7,2.3,1.4,3.7,1.9c1.5,0.6,3.1,1.1,5,1.5c3.6,0.9,6.7,1.9,9.3,3c2.6,1.1,4.6,2.3,6.1,3.7c3,2.8,4.5,6.5,4.5,11.3
			c0,4.7-1.9,8.7-5.6,11.8C270,108.1,265.5,109.7,260.3,109.7L260.3,109.7z"/>
		<linearGradient id="SVGID_4_" gradientUnits="userSpaceOnUse" x1="309.1214" y1="43.0037" x2="311.5078" y2="111.3391">
			<stop  offset="0" style="stop-color:#414042"/>
			<stop  offset="8.924593e-02" style="stop-color:#434344"/>
			<stop  offset="0.1376" style="stop-color:#4B4B4D"/>
			<stop  offset="0.1761" style="stop-color:#57575A"/>
			<stop  offset="0.2094" style="stop-color:#67686B"/>
			<stop  offset="0.2394" style="stop-color:#7A7C7F"/>
			<stop  offset="0.267" style="stop-color:#919396"/>
			<stop  offset="0.2923" style="stop-color:#ADAFB2"/>
			<stop  offset="0.303" style="stop-color:#BCBEC0"/>
			<stop  offset="0.3959" style="stop-color:#818385"/>
			<stop  offset="0.4723" style="stop-color:#555557"/>
			<stop  offset="0.5091" style="stop-color:#414042"/>
			<stop  offset="0.5311" style="stop-color:#67696B"/>
			<stop  offset="0.5626" style="stop-color:#929497"/>
			<stop  offset="0.5919" style="stop-color:#B5B7BA"/>
			<stop  offset="0.6178" style="stop-color:#D0D2D3"/>
			<stop  offset="0.6395" style="stop-color:#E0E1E3"/>
			<stop  offset="0.6544" style="stop-color:#E6E7E8"/>
			<stop  offset="0.6615" style="stop-color:#D1D2D4"/>
			<stop  offset="0.6767" style="stop-color:#9B9DA0"/>
			<stop  offset="0.6987" style="stop-color:#474749"/>
			<stop  offset="0.7052" style="stop-color:#000000"/>
			<stop  offset="0.8126" style="stop-color:#080808"/>
			<stop  offset="0.8581" style="stop-color:#202020"/>
			<stop  offset="0.8918" style="stop-color:#3B3A3C"/>
			<stop  offset="0.9198" style="stop-color:#4E4E50"/>
			<stop  offset="0.9442" style="stop-color:#626365"/>
			<stop  offset="0.9661" style="stop-color:#787A7C"/>
			<stop  offset="0.9857" style="stop-color:#909295"/>
			<stop  offset="1" style="stop-color:#A7A9AC"/>
		</linearGradient>
		<path class="st3" d="M311.2,109.7c-8.3,0-15.2-2.7-20.4-8c-5.2-5.3-7.8-12.4-7.8-21.1c0-8.4,2.6-15.5,7.8-21
			c5.3-5.4,12.1-8.1,20.3-8.1c3.6,0,7.3,0.8,11,2.4c2.3,1,4.5,2.5,6.6,4.3V57h7.1v15.8h-6.8l-0.4-1.4c-0.5-2-1.2-3.7-2.1-5.1
			c-1-1.6-2.4-2.9-4.1-4c-3.5-2.3-7.3-3.4-11.5-3.4c-5.8,0-10.7,2-14.4,6c-3.7,4-5.6,9.3-5.6,15.7c0,6.4,1.9,11.6,5.8,15.6
			c3.8,4,8.7,6.1,14.6,6.1c4.5,0,8.4-1.2,11.6-3.5c1.5-1.1,3-2.7,4.3-4.7c1.2-1.8,2.3-4.1,3.5-7l0.8-2l6.7,4l-0.6,1.5
			c-1.4,3.4-2.9,6.2-4.5,8.5c-1.8,2.5-3.9,4.6-6.2,6.1C322.3,108.2,317,109.7,311.2,109.7L311.2,109.7z"/>
		<linearGradient id="SVGID_5_" gradientUnits="userSpaceOnUse" x1="361.0705" y1="41.1904" x2="363.4568" y2="109.5256">
			<stop  offset="0" style="stop-color:#414042"/>
			<stop  offset="8.924593e-02" style="stop-color:#434344"/>
			<stop  offset="0.1376" style="stop-color:#4B4B4D"/>
			<stop  offset="0.1761" style="stop-color:#57575A"/>
			<stop  offset="0.2094" style="stop-color:#67686B"/>
			<stop  offset="0.2394" style="stop-color:#7A7C7F"/>
			<stop  offset="0.267" style="stop-color:#919396"/>
			<stop  offset="0.2923" style="stop-color:#ADAFB2"/>
			<stop  offset="0.303" style="stop-color:#BCBEC0"/>
			<stop  offset="0.3959" style="stop-color:#818385"/>
			<stop  offset="0.4723" style="stop-color:#555557"/>
			<stop  offset="0.5091" style="stop-color:#414042"/>
			<stop  offset="0.5311" style="stop-color:#67696B"/>
			<stop  offset="0.5626" style="stop-color:#929497"/>
			<stop  offset="0.5919" style="stop-color:#B5B7BA"/>
			<stop  offset="0.6178" style="stop-color:#D0D2D3"/>
			<stop  offset="0.6395" style="stop-color:#E0E1E3"/>
			<stop  offset="0.6544" style="stop-color:#E6E7E8"/>
			<stop  offset="0.6615" style="stop-color:#D1D2D4"/>
			<stop  offset="0.6767" style="stop-color:#9B9DA0"/>
			<stop  offset="0.6987" style="stop-color:#474749"/>
			<stop  offset="0.7052" style="stop-color:#000000"/>
			<stop  offset="0.8126" style="stop-color:#080808"/>
			<stop  offset="0.8581" style="stop-color:#202020"/>
			<stop  offset="0.8918" style="stop-color:#3B3A3C"/>
			<stop  offset="0.9198" style="stop-color:#4E4E50"/>
			<stop  offset="0.9442" style="stop-color:#626365"/>
			<stop  offset="0.9661" style="stop-color:#787A7C"/>
			<stop  offset="0.9857" style="stop-color:#909295"/>
			<stop  offset="1" style="stop-color:#A7A9AC"/>
		</linearGradient>
		<polygon class="st4" points="345.4,108.9 345.4,59.4 338.7,59.4 338.7,52.4 384.5,52.4 384.5,68.8 377.5,68.8 377.5,59.4 
			353.3,59.4 353.3,76.5 375.3,76.5 375.3,83.5 353.3,83.5 353.3,101.8 384.6,101.8 384.6,108.9 		"/>
		<linearGradient id="SVGID_6_" gradientUnits="userSpaceOnUse" x1="405.6763" y1="39.6305" x2="408.0627" y2="107.9661">
			<stop  offset="0" style="stop-color:#414042"/>
			<stop  offset="8.924593e-02" style="stop-color:#434344"/>
			<stop  offset="0.1376" style="stop-color:#4B4B4D"/>
			<stop  offset="0.1761" style="stop-color:#57575A"/>
			<stop  offset="0.2094" style="stop-color:#67686B"/>
			<stop  offset="0.2394" style="stop-color:#7A7C7F"/>
			<stop  offset="0.267" style="stop-color:#919396"/>
			<stop  offset="0.2923" style="stop-color:#ADAFB2"/>
			<stop  offset="0.303" style="stop-color:#BCBEC0"/>
			<stop  offset="0.3959" style="stop-color:#818385"/>
			<stop  offset="0.4723" style="stop-color:#555557"/>
			<stop  offset="0.5091" style="stop-color:#414042"/>
			<stop  offset="0.5311" style="stop-color:#67696B"/>
			<stop  offset="0.5626" style="stop-color:#929497"/>
			<stop  offset="0.5919" style="stop-color:#B5B7BA"/>
			<stop  offset="0.6178" style="stop-color:#D0D2D3"/>
			<stop  offset="0.6395" style="stop-color:#E0E1E3"/>
			<stop  offset="0.6544" style="stop-color:#E6E7E8"/>
			<stop  offset="0.6615" style="stop-color:#D1D2D4"/>
			<stop  offset="0.6767" style="stop-color:#9B9DA0"/>
			<stop  offset="0.6987" style="stop-color:#474749"/>
			<stop  offset="0.7052" style="stop-color:#000000"/>
			<stop  offset="0.8126" style="stop-color:#080808"/>
			<stop  offset="0.8581" style="stop-color:#202020"/>
			<stop  offset="0.8918" style="stop-color:#3B3A3C"/>
			<stop  offset="0.9198" style="stop-color:#4E4E50"/>
			<stop  offset="0.9442" style="stop-color:#626365"/>
			<stop  offset="0.9661" style="stop-color:#787A7C"/>
			<stop  offset="0.9857" style="stop-color:#909295"/>
			<stop  offset="1" style="stop-color:#A7A9AC"/>
		</linearGradient>
		<path class="st5" d="M408.6,109.7c-3.2,0-6.3-0.7-9.2-2.2c-1.4-0.7-2.7-1.6-3.9-2.6v4h-7.1V87.2h7.1v3.6c0,3,1.3,5.6,3.8,8
			c2.6,2.3,5.8,3.5,9.4,3.5c3.1,0,5.7-0.9,7.8-2.8c2-1.7,3-4,3-6.8c0-2.4-0.9-4.3-2.7-5.6c-1-0.8-2.4-1.5-4.2-2.2
			c-1.8-0.7-4.1-1.4-6.9-2.1c-2.8-0.7-5.4-1.6-7.5-2.5c-2.2-1-4-2.1-5.4-3.4c-2.9-2.6-4.4-6.1-4.4-10.8c0-4.1,1.7-7.6,5.1-10.5
			c3.4-2.8,7.3-4.2,12.1-4.2c1.4,0,2.8,0.1,4.2,0.3c1.4,0.2,2.8,0.6,4.3,1.2c1.3,0.6,2.4,1.2,3.4,1.8c1,0.6,2.1,1.5,3.2,2.6
			c0.6,0.7,1.1,1.3,1.5,1.8c0.4,0.5,0.8,1.2,1.2,2.1c0.3,0.6,0.6,1.5,0.7,2.5c0.2,0.9,0.3,1.8,0.4,2.7c0.1,0.5,0.1,1.1,0.2,1.8
			l0.1,2h-7.7v-2.8c0-0.3-0.1-0.8-0.1-1.4c-0.1-0.6-0.3-1.2-0.5-1.8c-0.2-0.6-0.5-1.3-0.9-1.8c-0.4-0.6-0.8-1.1-1.3-1.5
			c-1.1-0.8-2.4-1.4-3.8-1.6c-1.4-0.2-3.1-0.4-5-0.4c-2.8,0-5.1,0.7-6.8,2.2c-1.7,1.4-2.5,3.2-2.5,5.3c0,2.4,0.9,4.2,2.7,5.4
			c1,0.7,2.3,1.4,3.7,1.9c1.5,0.6,3.1,1.1,5,1.5c3.6,0.9,6.7,1.9,9.3,3c2.6,1.1,4.6,2.4,6.1,3.7c3,2.8,4.5,6.5,4.5,11.3
			c0,4.7-1.9,8.7-5.6,11.8C418.2,108.1,413.7,109.7,408.6,109.7L408.6,109.7z"/>
	</g>
	<g>
		<linearGradient id="SVGID_7_" gradientUnits="userSpaceOnUse" x1="193.1733" y1="44.4652" x2="195.6349" y2="114.9556">
			<stop  offset="0" style="stop-color:#F1F2F2"/>
			<stop  offset="0.1266" style="stop-color:#D4D6D7"/>
			<stop  offset="0.2904" style="stop-color:#B3B5B8"/>
			<stop  offset="0.3758" style="stop-color:#A7A9AC"/>
			<stop  offset="0.4229" style="stop-color:#818386"/>
			<stop  offset="0.4693" style="stop-color:#616264"/>
			<stop  offset="0.5056" style="stop-color:#4A4A4C"/>
			<stop  offset="0.5273" style="stop-color:#414042"/>
			<stop  offset="0.5316" style="stop-color:#565759"/>
			<stop  offset="0.5396" style="stop-color:#747578"/>
			<stop  offset="0.5486" style="stop-color:#8C8E90"/>
			<stop  offset="0.5585" style="stop-color:#A0A3A5"/>
			<stop  offset="0.5697" style="stop-color:#B2B4B7"/>
			<stop  offset="0.5828" style="stop-color:#C0C2C4"/>
			<stop  offset="0.599" style="stop-color:#CACCCD"/>
			<stop  offset="0.6218" style="stop-color:#D0D1D3"/>
			<stop  offset="0.6848" style="stop-color:#D1D3D4"/>
			<stop  offset="0.7393" style="stop-color:#C4C6C8"/>
			<stop  offset="0.8453" style="stop-color:#A2A4A7"/>
			<stop  offset="0.9914" style="stop-color:#707274"/>
			<stop  offset="1" style="stop-color:#6D6E71"/>
		</linearGradient>
		<path class="st6" d="M173.8,106.8v-5h6.5c0.3,0,0.5-0.2,0.5-0.5V57.9c0-0.3-0.2-0.5-0.5-0.5h-6.5v-5h23.4c2.8,0,5.4,0.4,7.7,1.1
			c2.2,0.7,4.2,1.8,5.8,3.2c3.3,2.8,4.9,6.8,4.9,12c0,4.9-1.6,8.8-4.8,11.9c-3.2,2.9-7.5,4.4-12.7,4.4h-10.8c-0.3,0-0.5,0.2-0.5,0.5
			v21.3H173.8z M187.2,57.4c-0.3,0-0.5,0.2-0.5,0.5v21.6c0,0.3,0.2,0.5,0.5,0.5h9.3c2.2,0,4.2-0.2,5.8-0.7c1.6-0.5,3-1.1,4.2-2.1
			c2.2-1.7,3.3-4.4,3.3-8c0-2.2-0.3-4-0.8-5.5c-0.5-1.5-1.3-2.7-2.3-3.5c-2-1.9-5.4-2.8-10.1-2.8H187.2z"/>
		<linearGradient id="SVGID_8_" gradientUnits="userSpaceOnUse" x1="223.8677" y1="43.3858" x2="226.3293" y2="113.8753">
			<stop  offset="0" style="stop-color:#F1F2F2"/>
			<stop  offset="0.1266" style="stop-color:#D4D6D7"/>
			<stop  offset="0.2904" style="stop-color:#B3B5B8"/>
			<stop  offset="0.3758" style="stop-color:#A7A9AC"/>
			<stop  offset="0.4229" style="stop-color:#818386"/>
			<stop  offset="0.4693" style="stop-color:#616264"/>
			<stop  offset="0.5056" style="stop-color:#4A4A4C"/>
			<stop  offset="0.5273" style="stop-color:#414042"/>
			<stop  offset="0.5316" style="stop-color:#565759"/>
			<stop  offset="0.5396" style="stop-color:#747578"/>
			<stop  offset="0.5486" style="stop-color:#8C8E90"/>
			<stop  offset="0.5585" style="stop-color:#A0A3A5"/>
			<stop  offset="0.5697" style="stop-color:#B2B4B7"/>
			<stop  offset="0.5828" style="stop-color:#C0C2C4"/>
			<stop  offset="0.599" style="stop-color:#CACCCD"/>
			<stop  offset="0.6218" style="stop-color:#D0D1D3"/>
			<stop  offset="0.6848" style="stop-color:#D1D3D4"/>
			<stop  offset="0.7393" style="stop-color:#C4C6C8"/>
			<stop  offset="0.8453" style="stop-color:#A2A4A7"/>
			<stop  offset="0.9914" style="stop-color:#707274"/>
			<stop  offset="1" style="stop-color:#6D6E71"/>
		</linearGradient>
		<path class="st7" d="M216.4,106.8v-5h6.1c0.3,0,0.5-0.2,0.5-0.5V52.4h5.8v48.9c0,0.3,0.2,0.5,0.5,0.5h6.2v5H216.4z M223,49.9v-6.5
			h5.8v6.5H223z"/>
		<linearGradient id="SVGID_9_" gradientUnits="userSpaceOnUse" x1="256.6252" y1="42.2509" x2="259.0867" y2="112.7408">
			<stop  offset="0" style="stop-color:#F1F2F2"/>
			<stop  offset="0.1266" style="stop-color:#D4D6D7"/>
			<stop  offset="0.2904" style="stop-color:#B3B5B8"/>
			<stop  offset="0.3758" style="stop-color:#A7A9AC"/>
			<stop  offset="0.4229" style="stop-color:#818386"/>
			<stop  offset="0.4693" style="stop-color:#616264"/>
			<stop  offset="0.5056" style="stop-color:#4A4A4C"/>
			<stop  offset="0.5273" style="stop-color:#414042"/>
			<stop  offset="0.5316" style="stop-color:#565759"/>
			<stop  offset="0.5396" style="stop-color:#747578"/>
			<stop  offset="0.5486" style="stop-color:#8C8E90"/>
			<stop  offset="0.5585" style="stop-color:#A0A3A5"/>
			<stop  offset="0.5697" style="stop-color:#B2B4B7"/>
			<stop  offset="0.5828" style="stop-color:#C0C2C4"/>
			<stop  offset="0.599" style="stop-color:#CACCCD"/>
			<stop  offset="0.6218" style="stop-color:#D0D1D3"/>
			<stop  offset="0.6848" style="stop-color:#D1D3D4"/>
			<stop  offset="0.7393" style="stop-color:#C4C6C8"/>
			<stop  offset="0.8453" style="stop-color:#A2A4A7"/>
			<stop  offset="0.9914" style="stop-color:#707274"/>
			<stop  offset="1" style="stop-color:#6D6E71"/>
		</linearGradient>
		<path class="st8" d="M259.4,107.5c-3,0-6-0.7-8.7-2.1c-1.7-0.8-3.2-1.9-4.5-3.3l-0.9-0.9l0.3,0.8c-0.2,0.1-0.3,0.3-0.3,0.5v4.2
			h-5.1V87.1h5.1v2.6c0,3.2,1.4,6.2,4.1,8.7c2.8,2.5,6.2,3.8,10.1,3.8c3.3,0,6.2-1,8.4-3c2.2-1.9,3.4-4.5,3.4-7.5
			c0-2.8-1-4.9-3.1-6.4c-1.1-0.8-2.5-1.6-4.4-2.3c-1.9-0.7-4.2-1.5-7-2.1c-2.8-0.7-5.2-1.6-7.3-2.5c-2.1-0.9-3.8-2-5.1-3.2
			c-2.7-2.4-4-5.7-4-10c0-3.8,1.6-7,4.7-9.7c3.2-2.6,6.9-3.9,11.4-3.9c1.3,0,2.7,0.1,4.1,0.3c1.3,0.2,2.7,0.5,4,1.1
			c1.2,0.6,2.3,1.1,3.3,1.7c0.9,0.5,1.9,1.4,2.9,2.4c0.5,0.6,1,1.2,1.4,1.7c0.4,0.5,0.7,1.1,1.1,1.9c0.3,0.6,0.5,1.3,0.7,2.2
			c0.2,0.9,0.3,1.8,0.4,2.7c0.1,0.5,0.1,1.1,0.2,1.7l0.1,0.9h-5.6v-1.8c0-0.4-0.1-0.9-0.2-1.5c-0.1-0.6-0.3-1.3-0.5-2
			c-0.2-0.7-0.6-1.4-1-2.1c-0.4-0.7-0.9-1.3-1.6-1.8c-1.2-0.9-2.7-1.5-4.2-1.8c-1.5-0.3-3.2-0.4-5.2-0.4c-3,0-5.5,0.8-7.5,2.4
			c-1.9,1.6-2.9,3.6-2.9,6.1c0,2.7,1,4.8,3.1,6.3c1.1,0.8,2.5,1.4,4,2c1.5,0.6,3.3,1.1,5.2,1.6c3.5,0.9,6.6,1.9,9.1,2.9
			c2.5,1.1,4.4,2.2,5.8,3.5c2.8,2.6,4.1,6.1,4.1,10.5c0,4.5-1.7,8.1-5.2,11C268.5,106,264.3,107.5,259.4,107.5L259.4,107.5z"/>
		<linearGradient id="SVGID_10_" gradientUnits="userSpaceOnUse" x1="307.9828" y1="40.4552" x2="310.4444" y2="110.9452">
			<stop  offset="0" style="stop-color:#F1F2F2"/>
			<stop  offset="0.1266" style="stop-color:#D4D6D7"/>
			<stop  offset="0.2904" style="stop-color:#B3B5B8"/>
			<stop  offset="0.3758" style="stop-color:#A7A9AC"/>
			<stop  offset="0.4229" style="stop-color:#818386"/>
			<stop  offset="0.4693" style="stop-color:#616264"/>
			<stop  offset="0.5056" style="stop-color:#4A4A4C"/>
			<stop  offset="0.5273" style="stop-color:#414042"/>
			<stop  offset="0.5316" style="stop-color:#565759"/>
			<stop  offset="0.5396" style="stop-color:#747578"/>
			<stop  offset="0.5486" style="stop-color:#8C8E90"/>
			<stop  offset="0.5585" style="stop-color:#A0A3A5"/>
			<stop  offset="0.5697" style="stop-color:#B2B4B7"/>
			<stop  offset="0.5828" style="stop-color:#C0C2C4"/>
			<stop  offset="0.599" style="stop-color:#CACCCD"/>
			<stop  offset="0.6218" style="stop-color:#D0D1D3"/>
			<stop  offset="0.6848" style="stop-color:#D1D3D4"/>
			<stop  offset="0.7393" style="stop-color:#C4C6C8"/>
			<stop  offset="0.8453" style="stop-color:#A2A4A7"/>
			<stop  offset="0.9914" style="stop-color:#707274"/>
			<stop  offset="1" style="stop-color:#6D6E71"/>
		</linearGradient>
		<path class="st9" d="M310.2,107.5c-8,0-14.6-2.6-19.7-7.7c-5-5.1-7.5-11.9-7.5-20.3c0-8.1,2.5-14.9,7.5-20.2
			c5.1-5.2,11.7-7.8,19.6-7.8c3.5,0,7.1,0.8,10.6,2.3c2.6,1.1,5,2.8,7.2,5l0.9,0.9l-0.3-0.8c0.2-0.1,0.3-0.3,0.3-0.5V57h5.1v13.7h-5
			l-0.2-0.6c-0.5-2.1-1.3-4-2.2-5.4c-1.1-1.7-2.6-3.1-4.4-4.3c-3.6-2.4-7.7-3.6-12-3.6c-6.1,0-11.2,2.1-15.2,6.3
			c-3.9,4.2-5.9,9.7-5.9,16.4c0,6.6,2,12.1,6.1,16.3c4,4.2,9.1,6.4,15.3,6.4c4.7,0,8.8-1.2,12.2-3.7c1.6-1.2,3.2-2.8,4.6-5
			c1.2-1.8,2.4-4.2,3.6-7.1l0.4-0.9l4.9,2.9l-0.3,0.7c-1.3,3.3-2.8,6-4.3,8.2c-1.7,2.4-3.7,4.4-5.9,5.8
			C321,106.1,315.9,107.5,310.2,107.5L310.2,107.5z"/>
		<linearGradient id="SVGID_11_" gradientUnits="userSpaceOnUse" x1="360.0656" y1="38.6371" x2="362.5272" y2="109.1277">
			<stop  offset="0" style="stop-color:#F1F2F2"/>
			<stop  offset="0.1266" style="stop-color:#D4D6D7"/>
			<stop  offset="0.2904" style="stop-color:#B3B5B8"/>
			<stop  offset="0.3758" style="stop-color:#A7A9AC"/>
			<stop  offset="0.4229" style="stop-color:#818386"/>
			<stop  offset="0.4693" style="stop-color:#616264"/>
			<stop  offset="0.5056" style="stop-color:#4A4A4C"/>
			<stop  offset="0.5273" style="stop-color:#414042"/>
			<stop  offset="0.5316" style="stop-color:#565759"/>
			<stop  offset="0.5396" style="stop-color:#747578"/>
			<stop  offset="0.5486" style="stop-color:#8C8E90"/>
			<stop  offset="0.5585" style="stop-color:#A0A3A5"/>
			<stop  offset="0.5697" style="stop-color:#B2B4B7"/>
			<stop  offset="0.5828" style="stop-color:#C0C2C4"/>
			<stop  offset="0.599" style="stop-color:#CACCCD"/>
			<stop  offset="0.6218" style="stop-color:#D0D1D3"/>
			<stop  offset="0.6848" style="stop-color:#D1D3D4"/>
			<stop  offset="0.7393" style="stop-color:#C4C6C8"/>
			<stop  offset="0.8453" style="stop-color:#A2A4A7"/>
			<stop  offset="0.9914" style="stop-color:#707274"/>
			<stop  offset="1" style="stop-color:#6D6E71"/>
		</linearGradient>
		<path class="st10" d="M345.5,106.8V57.9c0-0.3-0.2-0.5-0.5-0.5h-6.3v-5h43.8v14.3h-5v-8.8c0-0.3-0.2-0.5-0.5-0.5h-25.2
			c-0.3,0-0.5,0.2-0.5,0.5v18.1c0,0.3,0.2,0.5,0.5,0.5h21.5v5h-21.5c-0.3,0-0.5,0.2-0.5,0.5v19.3c0,0.3,0.2,0.5,0.5,0.5h30.7v5
			H345.5z"/>
		<linearGradient id="SVGID_12_" gradientUnits="userSpaceOnUse" x1="404.6929" y1="37.0779" x2="407.1545" y2="107.5679">
			<stop  offset="0" style="stop-color:#F1F2F2"/>
			<stop  offset="0.1266" style="stop-color:#D4D6D7"/>
			<stop  offset="0.2904" style="stop-color:#B3B5B8"/>
			<stop  offset="0.3758" style="stop-color:#A7A9AC"/>
			<stop  offset="0.4229" style="stop-color:#818386"/>
			<stop  offset="0.4693" style="stop-color:#616264"/>
			<stop  offset="0.5056" style="stop-color:#4A4A4C"/>
			<stop  offset="0.5273" style="stop-color:#414042"/>
			<stop  offset="0.5316" style="stop-color:#565759"/>
			<stop  offset="0.5396" style="stop-color:#747578"/>
			<stop  offset="0.5486" style="stop-color:#8C8E90"/>
			<stop  offset="0.5585" style="stop-color:#A0A3A5"/>
			<stop  offset="0.5697" style="stop-color:#B2B4B7"/>
			<stop  offset="0.5828" style="stop-color:#C0C2C4"/>
			<stop  offset="0.599" style="stop-color:#CACCCD"/>
			<stop  offset="0.6218" style="stop-color:#D0D1D3"/>
			<stop  offset="0.6848" style="stop-color:#D1D3D4"/>
			<stop  offset="0.7393" style="stop-color:#C4C6C8"/>
			<stop  offset="0.8453" style="stop-color:#A2A4A7"/>
			<stop  offset="0.9914" style="stop-color:#707274"/>
			<stop  offset="1" style="stop-color:#6D6E71"/>
		</linearGradient>
		<path class="st11" d="M407.6,107.5c-3,0-6-0.7-8.7-2.1c-1.7-0.8-3.2-1.9-4.5-3.3l-0.9-0.9l0.3,0.8c-0.2,0.1-0.3,0.3-0.3,0.5v4.2
			h-5.1V87.1h5.1v2.6c0,3.2,1.4,6.2,4.1,8.7c2.8,2.5,6.2,3.8,10.1,3.8c3.3,0,6.2-1,8.4-3c2.2-1.9,3.4-4.5,3.4-7.5
			c0-2.8-1-4.9-3.1-6.4c-1.1-0.8-2.5-1.6-4.4-2.3c-1.8-0.7-4.2-1.4-7-2.1c-2.8-0.7-5.2-1.5-7.3-2.5c-2.1-0.9-3.8-2-5.1-3.2
			c-2.7-2.4-4-5.7-4-10c0-3.8,1.5-7,4.7-9.7c3.2-2.6,6.9-3.9,11.4-3.9c1.3,0,2.7,0.1,4.1,0.3c1.3,0.2,2.7,0.5,4,1.1
			c1.2,0.6,2.3,1.1,3.3,1.7c0.9,0.5,1.9,1.4,2.9,2.4c0.5,0.6,1,1.2,1.4,1.7c0.4,0.5,0.7,1.1,1.1,1.9c0.3,0.6,0.5,1.3,0.7,2.2
			c0.1,0.9,0.3,1.8,0.4,2.7c0.1,0.5,0.1,1.1,0.2,1.7l0.1,0.9h-5.6v-1.8c0-0.4-0.1-0.9-0.2-1.5c-0.1-0.6-0.3-1.3-0.5-2
			c-0.3-0.7-0.6-1.4-1-2.1c-0.4-0.7-0.9-1.3-1.5-1.7c-1.3-0.9-2.7-1.5-4.2-1.8c-1.5-0.3-3.2-0.4-5.2-0.4c-3,0-5.5,0.8-7.5,2.4
			c-1.9,1.6-2.9,3.6-2.9,6.1c0,2.7,1,4.8,3.1,6.3c1.1,0.8,2.5,1.4,4,2c1.5,0.6,3.3,1.1,5.2,1.6c3.5,0.9,6.6,1.8,9.1,2.9
			c2.5,1.1,4.4,2.2,5.8,3.5c2.8,2.6,4.1,6.1,4.1,10.5c0,4.5-1.7,8.1-5.2,11C416.8,106,412.5,107.5,407.6,107.5L407.6,107.5z"/>
	</g>
	<g>
		<linearGradient id="SVGID_13_" gradientUnits="userSpaceOnUse" x1="194.0687" y1="45.987" x2="195.3715" y2="110.9161">
			<stop  offset="0" style="stop-color:#FFFFFF"/>
			<stop  offset="1" style="stop-color:#D1D3D4"/>
		</linearGradient>
		<path class="st12" d="M175.4,105.9v-2.2h5.1c1.1,0,1.9-0.9,1.9-1.9V58.4c0-1.1-0.9-1.9-1.9-1.9h-5.1v-2.1h22c2.7,0,5.1,0.3,7.3,1
			c2,0.6,3.8,1.6,5.2,2.9c3,2.6,4.4,6.1,4.4,11c0,4.5-1.4,8.1-4.4,10.8c-2.9,2.7-6.9,4-11.8,4h-10.8c-1.1,0-1.9,0.9-1.9,1.9v19.9
			H175.4z M187.4,56.5c-1.1,0-1.9,0.9-1.9,1.9V80c0,1.1,0.9,1.9,1.9,1.9h9.3c2.3,0,4.4-0.2,6.2-0.7c1.8-0.5,3.4-1.3,4.7-2.3
			c2.5-2,3.8-5.1,3.8-9.1c0-2.3-0.3-4.3-0.9-6c-0.6-1.7-1.5-3.1-2.7-4.1c-2.3-2.1-5.9-3.1-11.1-3.1H187.4z"/>
		<linearGradient id="SVGID_14_" gradientUnits="userSpaceOnUse" x1="225.0249" y1="45.3616" x2="226.3277" y2="110.2903">
			<stop  offset="0" style="stop-color:#FFFFFF"/>
			<stop  offset="1" style="stop-color:#D1D3D4"/>
		</linearGradient>
		<path class="st13" d="M218.1,105.9v-2.2h4.7c1.1,0,1.9-0.9,1.9-1.9V54.3h3v47.5c0,1.1,0.9,1.9,1.9,1.9h4.8v2.2H218.1z M224.6,49
			v-3.6h3V49H224.6z"/>
		<linearGradient id="SVGID_15_" gradientUnits="userSpaceOnUse" x1="257.7471" y1="44.7104" x2="259.05" y2="109.639">
			<stop  offset="0" style="stop-color:#FFFFFF"/>
			<stop  offset="1" style="stop-color:#D1D3D4"/>
		</linearGradient>
		<path class="st14" d="M259.6,106.6c-2.8,0-5.5-0.6-8.1-1.9c-1.5-0.7-2.9-1.7-4.2-3c-0.4-0.4-0.8-0.6-1.4-0.6c-0.3,0-0.5,0-0.7,0.1
			c-0.7,0.3-1.2,1-1.2,1.8v2.8h-2.2V89.1h2.2v1.2c0,3.7,1.5,6.9,4.6,9.8c3.1,2.8,6.8,4.2,11,4.2c3.7,0,6.8-1.1,9.4-3.4
			c2.6-2.2,3.8-5.1,3.8-8.6c0-3.2-1.2-5.8-3.7-7.6c-1.2-0.9-2.7-1.7-4.7-2.5c-1.9-0.8-4.3-1.5-7.2-2.2c-2.7-0.7-5.1-1.5-7.1-2.4
			c-1.9-0.8-3.5-1.8-4.7-2.9c-2.4-2.1-3.6-5.1-3.6-8.9c0-3.4,1.4-6.2,4.2-8.7c2.9-2.4,6.3-3.6,10.5-3.6c1.3,0,2.6,0.1,3.9,0.3
			c1.2,0.2,2.4,0.5,3.6,1c1.1,0.5,2.2,1.1,3.1,1.6c0.8,0.5,1.7,1.2,2.6,2.2c0.5,0.6,0.9,1.1,1.3,1.6c0.3,0.4,0.6,0.9,0.9,1.6
			c0.3,0.5,0.4,1.1,0.6,1.9c0.2,0.9,0.3,1.8,0.4,2.6c0,0.3,0.1,0.6,0.1,1h-2.7v-0.3c0-0.4-0.1-1-0.2-1.8c-0.1-0.7-0.3-1.4-0.6-2.2
			c-0.3-0.8-0.7-1.6-1.1-2.3c-0.5-0.8-1.1-1.5-1.9-2.1c-1.5-1.1-3.1-1.8-4.9-2.1c-1.6-0.3-3.4-0.4-5.4-0.4c-3.4,0-6.2,0.9-8.4,2.8
			c-2.3,1.9-3.4,4.3-3.4,7.2c0,3.2,1.2,5.7,3.7,7.4c1.2,0.8,2.7,1.6,4.2,2.2c1.6,0.6,3.4,1.2,5.4,1.6c3.4,0.8,6.4,1.8,8.8,2.8
			c2.3,1,4.1,2.1,5.4,3.2c2.5,2.3,3.7,5.4,3.7,9.5c0,4-1.5,7.3-4.7,9.9C268.1,105.3,264.2,106.6,259.6,106.6L259.6,106.6z"/>
		<linearGradient id="SVGID_16_" gradientUnits="userSpaceOnUse" x1="308.7329" y1="43.6923" x2="310.0357" y2="108.6208">
			<stop  offset="0" style="stop-color:#FFFFFF"/>
			<stop  offset="1" style="stop-color:#D1D3D4"/>
		</linearGradient>
		<path class="st15" d="M310.5,106.6c-7.6,0-13.9-2.5-18.6-7.3c-4.7-4.8-7.1-11.3-7.1-19.3c0-7.8,2.4-14.2,7.1-19.2
			c4.8-4.9,11-7.3,18.5-7.3c3.3,0,6.7,0.7,10,2.2c2.4,1,4.7,2.6,6.7,4.7c0.4,0.4,0.8,0.6,1.4,0.6c0.2,0,0.5,0,0.7-0.1
			c0.7-0.3,1.2-1,1.2-1.7h2.2v10.9h-2.5c-0.6-2.1-1.3-3.9-2.3-5.4c-1.2-1.9-2.8-3.4-4.8-4.7c-3.9-2.5-8.2-3.8-12.8-3.8
			c-6.6,0-12,2.3-16.2,6.8c-4.2,4.5-6.3,10.3-6.3,17.4c0,7,2.2,12.9,6.5,17.3c4.2,4.5,9.7,6.8,16.3,6.8c5,0,9.4-1.3,13-3.9
			c1.8-1.3,3.4-3.1,5-5.3c1.2-1.8,2.3-4,3.4-6.7l2.4,1.4c-1.2,3-2.6,5.5-4,7.5c-1.6,2.3-3.5,4.1-5.6,5.5
			C320.6,105.3,315.8,106.6,310.5,106.6L310.5,106.6z"/>
		<linearGradient id="SVGID_17_" gradientUnits="userSpaceOnUse" x1="360.6011" y1="42.6521" x2="361.9039" y2="107.5811">
			<stop  offset="0" style="stop-color:#FFFFFF"/>
			<stop  offset="1" style="stop-color:#D1D3D4"/>
		</linearGradient>
		<path class="st16" d="M347.2,105.9V58.4c0-1.1-0.9-1.9-1.9-1.9h-4.9v-2.1h40.9v11.5h-2.2v-7.4c0-1.1-0.9-1.9-1.9-1.9h-25.2
			c-1.1,0-1.9,0.9-1.9,1.9v18.1c0,1.1,0.9,1.9,1.9,1.9h20v2.2h-20c-1.1,0-1.9,0.9-1.9,1.9v19.3c0,1.1,0.9,1.9,1.9,1.9h29.3v2.2
			H347.2z"/>
		<linearGradient id="SVGID_18_" gradientUnits="userSpaceOnUse" x1="405.9358" y1="41.7352" x2="407.2386" y2="106.6637">
			<stop  offset="0" style="stop-color:#FFFFFF"/>
			<stop  offset="1" style="stop-color:#D1D3D4"/>
		</linearGradient>
		<path class="st17" d="M407.8,106.6c-2.8,0-5.5-0.6-8.1-1.9c-1.5-0.7-2.9-1.7-4.2-3c-0.4-0.4-0.8-0.6-1.4-0.6c-0.2,0-0.5,0-0.7,0.1
			c-0.7,0.3-1.2,1-1.2,1.8v2.8H390V89.1h2.2v1.2c0,3.7,1.5,6.9,4.6,9.8c3.1,2.8,6.8,4.2,11,4.2c3.7,0,6.8-1.1,9.4-3.4
			c2.6-2.2,3.9-5.1,3.9-8.6c0-3.2-1.2-5.8-3.7-7.6c-1.2-0.9-2.7-1.7-4.7-2.5c-1.9-0.8-4.3-1.5-7.2-2.2c-2.7-0.7-5.1-1.5-7.1-2.4
			c-1.9-0.8-3.5-1.8-4.7-2.9c-2.4-2.1-3.6-5.1-3.6-9c0-3.4,1.4-6.2,4.2-8.7c2.9-2.4,6.3-3.6,10.5-3.6c1.3,0,2.6,0.1,3.9,0.3
			c1.2,0.2,2.4,0.5,3.6,1c1.1,0.5,2.2,1.1,3.1,1.6c0.8,0.5,1.7,1.2,2.6,2.2c0.5,0.6,0.9,1.1,1.3,1.6c0.3,0.4,0.6,0.9,0.9,1.6
			c0.3,0.5,0.4,1.1,0.6,1.9c0.1,0.9,0.3,1.8,0.4,2.6c0,0.3,0.1,0.6,0.1,1h-2.7v-0.3c0-0.4-0.1-1-0.2-1.8c-0.1-0.7-0.3-1.4-0.6-2.2
			c-0.3-0.8-0.7-1.6-1.1-2.3c-0.5-0.8-1.1-1.5-1.9-2.1c-1.5-1.1-3.1-1.8-4.9-2.1c-1.6-0.3-3.4-0.4-5.4-0.4c-3.4,0-6.2,0.9-8.4,2.8
			c-2.3,1.9-3.4,4.3-3.4,7.2c0,3.2,1.2,5.7,3.7,7.4c1.2,0.8,2.7,1.6,4.2,2.2c1.6,0.6,3.4,1.2,5.4,1.6c3.4,0.8,6.4,1.8,8.8,2.8
			c2.3,1,4.1,2.1,5.4,3.2c2.5,2.3,3.7,5.4,3.7,9.5c0,4-1.5,7.3-4.7,9.9C416.3,105.3,412.4,106.6,407.8,106.6L407.8,106.6z"/>
	</g>
	<g>
		<linearGradient id="SVGID_19_" gradientUnits="userSpaceOnUse" x1="195.4961" y1="46.2326" x2="195.4961" y2="106.5758">
			<stop  offset="0" style="stop-color:#FFFFFF"/>
			<stop  offset="0.4" style="stop-color:#F1F2F2"/>
			<stop  offset="0.4334" style="stop-color:#414042"/>
			<stop  offset="0.5082" style="stop-color:#606164"/>
			<stop  offset="0.5996" style="stop-color:#7C7E81"/>
			<stop  offset="0.6739" style="stop-color:#8D8F92"/>
			<stop  offset="0.7212" style="stop-color:#939598"/>
			<stop  offset="0.7259" style="stop-color:#97999C"/>
			<stop  offset="0.7588" style="stop-color:#B0B2B4"/>
			<stop  offset="0.7908" style="stop-color:#C2C4C6"/>
			<stop  offset="0.8212" style="stop-color:#CDCFD1"/>
			<stop  offset="0.8485" style="stop-color:#D1D3D4"/>
			<stop  offset="0.8897" style="stop-color:#DEDFE0"/>
			<stop  offset="0.953" style="stop-color:#ECEDED"/>
			<stop  offset="1" style="stop-color:#F1F2F2"/>
		</linearGradient>
		<path class="st18" d="M176.5,105.8v-1.2h4.6c1.3,0,2.4-1.1,2.4-2.4V58.8c0-1.3-1.1-2.4-2.4-2.4h-4.6v-1.2H198c2.7,0,5,0.3,7.1,1
			c2,0.6,3.7,1.6,5.1,2.8c2.9,2.5,4.3,6,4.3,10.6c0,4.4-1.4,7.8-4.2,10.5c-2.8,2.6-6.7,3.9-11.5,3.9H188c-1.3,0-2.4,1.1-2.4,2.4
			v19.4H176.5z M188,56.4c-1.3,0-2.4,1.1-2.4,2.4v21.6c0,1.3,1.1,2.4,2.4,2.4h9.3c2.4,0,4.5-0.3,6.3-0.7c1.9-0.5,3.5-1.3,4.9-2.4
			c2.7-2.1,4-5.3,4-9.5c0-2.4-0.3-4.5-0.9-6.1c-0.7-1.8-1.6-3.2-2.8-4.3c-2.4-2.2-6.1-3.2-11.4-3.2H188z"/>
		<linearGradient id="SVGID_20_" gradientUnits="userSpaceOnUse" x1="226.8132" y1="46.2324" x2="226.8132" y2="106.5759">
			<stop  offset="0" style="stop-color:#FFFFFF"/>
			<stop  offset="0.4" style="stop-color:#F1F2F2"/>
			<stop  offset="0.4334" style="stop-color:#414042"/>
			<stop  offset="0.5082" style="stop-color:#606164"/>
			<stop  offset="0.5996" style="stop-color:#7C7E81"/>
			<stop  offset="0.6739" style="stop-color:#8D8F92"/>
			<stop  offset="0.7212" style="stop-color:#939598"/>
			<stop  offset="0.7259" style="stop-color:#97999C"/>
			<stop  offset="0.7588" style="stop-color:#B0B2B4"/>
			<stop  offset="0.7908" style="stop-color:#C2C4C6"/>
			<stop  offset="0.8212" style="stop-color:#CDCFD1"/>
			<stop  offset="0.8485" style="stop-color:#D1D3D4"/>
			<stop  offset="0.8897" style="stop-color:#DEDFE0"/>
			<stop  offset="0.953" style="stop-color:#ECEDED"/>
			<stop  offset="1" style="stop-color:#F1F2F2"/>
		</linearGradient>
		<path class="st19" d="M219.1,105.8v-1.2h4.2c1.3,0,2.4-1.1,2.4-2.4v-47h2.1v47c0,1.3,1.1,2.4,2.4,2.4h4.3v1.2H219.1z M225.7,48.9
			v-2.7h2.1v2.7H225.7z"/>
		<linearGradient id="SVGID_21_" gradientUnits="userSpaceOnUse" x1="259.4361" y1="46.2321" x2="259.4361" y2="106.5755">
			<stop  offset="0" style="stop-color:#FFFFFF"/>
			<stop  offset="0.4" style="stop-color:#F1F2F2"/>
			<stop  offset="0.4334" style="stop-color:#414042"/>
			<stop  offset="0.5082" style="stop-color:#606164"/>
			<stop  offset="0.5996" style="stop-color:#7C7E81"/>
			<stop  offset="0.6739" style="stop-color:#8D8F92"/>
			<stop  offset="0.7212" style="stop-color:#939598"/>
			<stop  offset="0.7259" style="stop-color:#97999C"/>
			<stop  offset="0.7588" style="stop-color:#B0B2B4"/>
			<stop  offset="0.7908" style="stop-color:#C2C4C6"/>
			<stop  offset="0.8212" style="stop-color:#CDCFD1"/>
			<stop  offset="0.8485" style="stop-color:#D1D3D4"/>
			<stop  offset="0.8897" style="stop-color:#DEDFE0"/>
			<stop  offset="0.953" style="stop-color:#ECEDED"/>
			<stop  offset="1" style="stop-color:#F1F2F2"/>
		</linearGradient>
		<path class="st20" d="M260.2,106.6c-2.7,0-5.4-0.6-7.9-1.9c-1.5-0.7-2.8-1.7-4-2.9c-0.5-0.5-1.1-0.7-1.7-0.7
			c-0.3,0-0.6,0.1-0.9,0.2c-0.9,0.4-1.5,1.2-1.5,2.2v2.3h-1.3V89.9h1.3v0.7c0,3.8,1.6,7.2,4.7,10.1c3.2,2.8,7,4.3,11.4,4.3
			c3.8,0,7-1.2,9.7-3.5c2.7-2.3,4-5.3,4-9c0-3.4-1.3-6.1-3.9-7.9c-1.2-0.9-2.8-1.7-4.8-2.5c-1.9-0.8-4.4-1.5-7.3-2.2
			c-2.7-0.7-5-1.5-7-2.4c-1.9-0.8-3.4-1.8-4.6-2.8c-2.3-2.1-3.4-4.9-3.4-8.6c0-3.2,1.3-6,4.1-8.3c2.8-2.3,6.1-3.5,10.2-3.5
			c1.3,0,2.5,0.1,3.8,0.3c1.2,0.2,2.4,0.5,3.5,1c1.1,0.5,2.1,1,3.1,1.6c0.8,0.5,1.6,1.2,2.5,2.1c0.4,0.5,0.9,1.1,1.3,1.6
			c0.3,0.4,0.6,0.9,0.8,1.6c0.3,0.5,0.4,1.1,0.5,1.8c0.2,0.9,0.3,1.8,0.4,2.6c0,0.2,0,0.3,0.1,0.5h-1.7c0-0.4-0.1-1-0.2-1.7
			c-0.1-0.7-0.3-1.5-0.6-2.3c-0.3-0.8-0.7-1.7-1.2-2.4c-0.5-0.8-1.2-1.6-2-2.2c-1.5-1.1-3.2-1.9-5.1-2.2c-1.6-0.3-3.5-0.4-5.5-0.4
			c-3.5,0-6.4,1-8.7,2.9c-2.4,2-3.6,4.5-3.6,7.5c0,3.4,1.3,6,3.9,7.8c1.3,0.9,2.7,1.6,4.3,2.2c1.6,0.7,3.5,1.2,5.5,1.6
			c3.4,0.8,6.3,1.8,8.8,2.8c2.3,1,4,2,5.2,3.1c2.4,2.2,3.5,5.2,3.5,9.2c0,3.9-1.5,7-4.5,9.6C268.5,105.2,264.7,106.6,260.2,106.6
			L260.2,106.6z"/>
		<linearGradient id="SVGID_22_" gradientUnits="userSpaceOnUse" x1="310.0988" y1="46.2321" x2="310.0988" y2="106.5755">
			<stop  offset="0" style="stop-color:#FFFFFF"/>
			<stop  offset="0.4" style="stop-color:#F1F2F2"/>
			<stop  offset="0.4334" style="stop-color:#414042"/>
			<stop  offset="0.5082" style="stop-color:#606164"/>
			<stop  offset="0.5996" style="stop-color:#7C7E81"/>
			<stop  offset="0.6739" style="stop-color:#8D8F92"/>
			<stop  offset="0.7212" style="stop-color:#939598"/>
			<stop  offset="0.7259" style="stop-color:#97999C"/>
			<stop  offset="0.7588" style="stop-color:#B0B2B4"/>
			<stop  offset="0.7908" style="stop-color:#C2C4C6"/>
			<stop  offset="0.8212" style="stop-color:#CDCFD1"/>
			<stop  offset="0.8485" style="stop-color:#D1D3D4"/>
			<stop  offset="0.8897" style="stop-color:#DEDFE0"/>
			<stop  offset="0.953" style="stop-color:#ECEDED"/>
			<stop  offset="1" style="stop-color:#F1F2F2"/>
		</linearGradient>
		<path class="st21" d="M311.1,106.6c-7.5,0-13.7-2.4-18.3-7.2c-4.6-4.8-6.9-11.1-6.9-19c0-7.6,2.4-14,7-18.9
			c4.7-4.8,10.8-7.2,18.2-7.2c3.2,0,6.5,0.7,9.8,2.1c2.4,1,4.6,2.6,6.6,4.6c0.4,0.5,1,0.7,1.7,0.7c0.3,0,0.6-0.1,0.9-0.2
			c0.7-0.3,1.3-0.9,1.4-1.7h1.4v9.9h-1.7c-0.6-2-1.3-3.7-2.3-5.2c-1.2-1.9-2.9-3.5-4.9-4.9c-4-2.6-8.4-3.9-13.1-3.9
			c-6.7,0-12.2,2.3-16.5,6.9c-4.3,4.6-6.4,10.5-6.4,17.7c0,7.2,2.2,13.1,6.6,17.6c4.3,4.6,9.9,7,16.7,7c5.1,0,9.6-1.4,13.3-4
			c1.8-1.3,3.5-3.1,5.1-5.5c1.1-1.7,2.2-3.8,3.3-6.3l1.6,1c-1.2,2.8-2.4,5.1-3.8,7c-1.6,2.2-3.4,4-5.5,5.4
			C321.1,105.2,316.3,106.6,311.1,106.6L311.1,106.6z"/>
		<linearGradient id="SVGID_23_" gradientUnits="userSpaceOnUse" x1="361.4908" y1="46.2326" x2="361.4908" y2="106.5758">
			<stop  offset="0" style="stop-color:#FFFFFF"/>
			<stop  offset="0.4" style="stop-color:#F1F2F2"/>
			<stop  offset="0.4334" style="stop-color:#414042"/>
			<stop  offset="0.5082" style="stop-color:#606164"/>
			<stop  offset="0.5996" style="stop-color:#7C7E81"/>
			<stop  offset="0.6739" style="stop-color:#8D8F92"/>
			<stop  offset="0.7212" style="stop-color:#939598"/>
			<stop  offset="0.7259" style="stop-color:#97999C"/>
			<stop  offset="0.7588" style="stop-color:#B0B2B4"/>
			<stop  offset="0.7908" style="stop-color:#C2C4C6"/>
			<stop  offset="0.8212" style="stop-color:#CDCFD1"/>
			<stop  offset="0.8485" style="stop-color:#D1D3D4"/>
			<stop  offset="0.8897" style="stop-color:#DEDFE0"/>
			<stop  offset="0.953" style="stop-color:#ECEDED"/>
			<stop  offset="1" style="stop-color:#F1F2F2"/>
		</linearGradient>
		<path class="st22" d="M348.2,105.8v-47c0-1.3-1.1-2.4-2.4-2.4h-4.4v-1.2h40v10.6h-1.2v-7c0-1.3-1.1-2.4-2.4-2.4h-25.2
			c-1.3,0-2.4,1.1-2.4,2.4v18.1c0,1.3,1.1,2.4,2.4,2.4h19.6v1.2h-19.6c-1.3,0-2.4,1.1-2.4,2.4v19.3c0,1.3,1.1,2.4,2.4,2.4h28.9v1.2
			H348.2z"/>
		<linearGradient id="SVGID_24_" gradientUnits="userSpaceOnUse" x1="407.6842" y1="46.2321" x2="407.6842" y2="106.5755">
			<stop  offset="0" style="stop-color:#FFFFFF"/>
			<stop  offset="0.4" style="stop-color:#F1F2F2"/>
			<stop  offset="0.4334" style="stop-color:#414042"/>
			<stop  offset="0.5082" style="stop-color:#606164"/>
			<stop  offset="0.5996" style="stop-color:#7C7E81"/>
			<stop  offset="0.6739" style="stop-color:#8D8F92"/>
			<stop  offset="0.7212" style="stop-color:#939598"/>
			<stop  offset="0.7259" style="stop-color:#97999C"/>
			<stop  offset="0.7588" style="stop-color:#B0B2B4"/>
			<stop  offset="0.7908" style="stop-color:#C2C4C6"/>
			<stop  offset="0.8212" style="stop-color:#CDCFD1"/>
			<stop  offset="0.8485" style="stop-color:#D1D3D4"/>
			<stop  offset="0.8897" style="stop-color:#DEDFE0"/>
			<stop  offset="0.953" style="stop-color:#ECEDED"/>
			<stop  offset="1" style="stop-color:#F1F2F2"/>
		</linearGradient>
		<path class="st23" d="M408.4,106.6c-2.7,0-5.4-0.6-7.9-1.9c-1.5-0.7-2.8-1.7-4-2.9c-0.5-0.5-1.1-0.7-1.7-0.7
			c-0.3,0-0.6,0.1-0.9,0.2c-0.9,0.4-1.5,1.2-1.5,2.2v2.3h-1.3V89.9h1.3v0.7c0,3.8,1.6,7.2,4.7,10.1c3.2,2.9,7,4.3,11.4,4.3
			c3.8,0,7.1-1.2,9.7-3.5c2.7-2.3,4-5.3,4-9c0-3.4-1.3-6.1-3.9-7.9c-1.2-0.9-2.8-1.7-4.8-2.5c-1.9-0.8-4.3-1.5-7.3-2.2
			c-2.6-0.7-5-1.5-7-2.4c-1.9-0.8-3.4-1.8-4.5-2.8c-2.3-2.1-3.4-4.9-3.4-8.6c0-3.2,1.3-6,4.1-8.3c2.8-2.3,6.1-3.5,10.2-3.5
			c1.3,0,2.5,0.1,3.8,0.3c1.2,0.2,2.3,0.5,3.5,1c1.1,0.5,2.2,1,3.1,1.6c0.8,0.5,1.6,1.2,2.5,2.1c0.4,0.5,0.9,1.1,1.3,1.6
			c0.3,0.4,0.6,0.9,0.9,1.6c0.3,0.5,0.4,1.1,0.5,1.8c0.1,0.9,0.3,1.8,0.4,2.6c0,0.2,0,0.3,0.1,0.5h-1.7c0-0.4-0.1-1-0.2-1.7
			c-0.1-0.7-0.3-1.5-0.6-2.3c-0.3-0.9-0.7-1.7-1.2-2.4c-0.5-0.8-1.2-1.6-1.9-2.2c-1.6-1.2-3.3-1.9-5.1-2.2c-1.6-0.3-3.5-0.4-5.5-0.4
			c-3.5,0-6.4,1-8.7,2.9c-2.4,2-3.6,4.5-3.6,7.5c0,3.4,1.3,6,3.9,7.8c1.3,0.9,2.7,1.6,4.3,2.2c1.6,0.7,3.5,1.2,5.5,1.6
			c3.4,0.8,6.3,1.8,8.8,2.8c2.3,1,4,2,5.2,3.1c2.4,2.2,3.5,5.2,3.5,9.1c0,3.9-1.5,7-4.5,9.6C416.7,105.2,412.9,106.6,408.4,106.6
			L408.4,106.6z"/>
	</g>
</g>
</svg>
