<?xml version="1.0" encoding="utf-8"?>
<!-- Generator: Adobe Illustrator 21.1.0, SVG Export Plug-In . SVG Version: 6.00 Build 0)  -->
<svg version="1.1" id="Layer_3" xmlns="http://www.w3.org/2000/svg" xmlns:xlink="http://www.w3.org/1999/xlink" x="0px" y="0px"
	 viewBox="0 0 601 153.1" style="enable-background:new 0 0 601 153.1;" xml:space="preserve">
<style type="text/css">
	.st0{fill:url(#SVGID_1_);}
	.st1{fill:url(#SVGID_2_);}
	.st2{fill:url(#SVGID_3_);}
	.st3{fill:url(#SVGID_4_);}
	.st4{fill:url(#SVGID_5_);}
	.st5{fill:url(#SVGID_6_);}
	.st6{fill:url(#SVGID_7_);}
	.st7{fill:url(#SVGID_8_);}
	.st8{fill:url(#SVGID_9_);}
	.st9{fill:url(#SVGID_10_);}
	.st10{fill:url(#SVGID_11_);}
	.st11{fill:url(#SVGID_12_);}
	.st12{fill:url(#SVGID_13_);}
	.st13{fill:url(#SVGID_14_);}
	.st14{fill:url(#SVGID_15_);}
	.st15{fill:url(#SVGID_16_);}
	.st16{fill:url(#SVGID_17_);}
	.st17{fill:url(#SVGID_18_);}
	.st18{fill:url(#SVGID_19_);}
	.st19{fill:url(#SVGID_20_);}
	.st20{fill:url(#SVGID_21_);}
	.st21{fill:url(#SVGID_22_);}
	.st22{fill:url(#SVGID_23_);}
	.st23{fill:url(#SVGID_24_);}
</style>
<g>
	<g>
		<linearGradient id="SVGID_1_" gradientUnits="userSpaceOnUse" x1="168.188" y1="53.9462" x2="170.4019" y2="117.3435">
			<stop  offset="0" style="stop-color:#414042"/>
			<stop  offset="8.924593e-02" style="stop-color:#434344"/>
			<stop  offset="0.1376" style="stop-color:#4B4B4D"/>
			<stop  offset="0.1761" style="stop-color:#57575A"/>
			<stop  offset="0.2094" style="stop-color:#67686B"/>
			<stop  offset="0.2394" style="stop-color:#7A7C7F"/>
			<stop  offset="0.267" style="stop-color:#919396"/>
			<stop  offset="0.2923" style="stop-color:#ADAFB2"/>
			<stop  offset="0.303" style="stop-color:#BCBEC0"/>
			<stop  offset="0.3959" style="stop-color:#818385"/>
			<stop  offset="0.4723" style="stop-color:#555557"/>
			<stop  offset="0.5091" style="stop-color:#414042"/>
			<stop  offset="0.5311" style="stop-color:#67696B"/>
			<stop  offset="0.5626" style="stop-color:#929497"/>
			<stop  offset="0.5919" style="stop-color:#B5B7BA"/>
			<stop  offset="0.6178" style="stop-color:#D0D2D3"/>
			<stop  offset="0.6395" style="stop-color:#E0E1E3"/>
			<stop  offset="0.6544" style="stop-color:#E6E7E8"/>
			<stop  offset="0.6615" style="stop-color:#D1D2D4"/>
			<stop  offset="0.6767" style="stop-color:#9B9DA0"/>
			<stop  offset="0.6987" style="stop-color:#474749"/>
			<stop  offset="0.7052" style="stop-color:#000000"/>
			<stop  offset="0.8126" style="stop-color:#080808"/>
			<stop  offset="0.8581" style="stop-color:#202020"/>
			<stop  offset="0.8918" style="stop-color:#3B3A3C"/>
			<stop  offset="0.9198" style="stop-color:#4E4E50"/>
			<stop  offset="0.9442" style="stop-color:#626365"/>
			<stop  offset="0.9661" style="stop-color:#787A7C"/>
			<stop  offset="0.9857" style="stop-color:#909295"/>
			<stop  offset="1" style="stop-color:#A7A9AC"/>
		</linearGradient>
		<path class="st0" d="M169.9,109.7c-8.3,0-15.2-2.7-20.4-8c-5.2-5.3-7.8-12.4-7.8-21.1c0-8.4,2.6-15.5,7.8-21
			c5.3-5.4,12.1-8.1,20.3-8.1c3.6,0,7.3,0.8,11,2.4c2.3,1,4.5,2.5,6.6,4.3V57h7.1v15.8h-6.8l-0.3-1.4c-0.5-2-1.2-3.8-2.1-5.1
			c-1-1.6-2.4-2.9-4.1-4c-3.5-2.3-7.3-3.4-11.5-3.4c-5.8,0-10.7,2-14.4,6c-3.7,4-5.6,9.3-5.6,15.7c0,6.4,1.9,11.6,5.8,15.6
			c3.8,4,8.7,6.1,14.6,6.1c4.5,0,8.4-1.2,11.6-3.5c1.6-1.1,3-2.7,4.3-4.7c1.2-1.7,2.3-4.1,3.5-7l0.8-2l6.7,4l-0.6,1.5
			c-1.4,3.3-2.9,6.2-4.5,8.4c-1.8,2.5-3.9,4.6-6.2,6.1C181,108.1,175.7,109.7,169.9,109.7L169.9,109.7z"/>
		<linearGradient id="SVGID_2_" gradientUnits="userSpaceOnUse" x1="221.3889" y1="52.0817" x2="223.6028" y2="115.4789">
			<stop  offset="0" style="stop-color:#414042"/>
			<stop  offset="8.924593e-02" style="stop-color:#434344"/>
			<stop  offset="0.1376" style="stop-color:#4B4B4D"/>
			<stop  offset="0.1761" style="stop-color:#57575A"/>
			<stop  offset="0.2094" style="stop-color:#67686B"/>
			<stop  offset="0.2394" style="stop-color:#7A7C7F"/>
			<stop  offset="0.267" style="stop-color:#919396"/>
			<stop  offset="0.2923" style="stop-color:#ADAFB2"/>
			<stop  offset="0.303" style="stop-color:#BCBEC0"/>
			<stop  offset="0.3959" style="stop-color:#818385"/>
			<stop  offset="0.4723" style="stop-color:#555557"/>
			<stop  offset="0.5091" style="stop-color:#414042"/>
			<stop  offset="0.5311" style="stop-color:#67696B"/>
			<stop  offset="0.5626" style="stop-color:#929497"/>
			<stop  offset="0.5919" style="stop-color:#B5B7BA"/>
			<stop  offset="0.6178" style="stop-color:#D0D2D3"/>
			<stop  offset="0.6395" style="stop-color:#E0E1E3"/>
			<stop  offset="0.6544" style="stop-color:#E6E7E8"/>
			<stop  offset="0.6615" style="stop-color:#D1D2D4"/>
			<stop  offset="0.6767" style="stop-color:#9B9DA0"/>
			<stop  offset="0.6987" style="stop-color:#474749"/>
			<stop  offset="0.7052" style="stop-color:#000000"/>
			<stop  offset="0.8126" style="stop-color:#080808"/>
			<stop  offset="0.8581" style="stop-color:#202020"/>
			<stop  offset="0.8918" style="stop-color:#3B3A3C"/>
			<stop  offset="0.9198" style="stop-color:#4E4E50"/>
			<stop  offset="0.9442" style="stop-color:#626365"/>
			<stop  offset="0.9661" style="stop-color:#787A7C"/>
			<stop  offset="0.9857" style="stop-color:#909295"/>
			<stop  offset="1" style="stop-color:#A7A9AC"/>
		</linearGradient>
		<path class="st1" d="M231.3,108.9v-7.1h5.9l-4.5-13.1h-18.9l-5.1,15l0,5.1h-14.6v-7.1h7.2l15.5-44.8l1.5-4.7h18.1v7.1h-5.9
			l14.8,42.4h7.1v7.1H231.3z M230.3,81.7l-7-20.5l-7,20.5H230.3z"/>
		<linearGradient id="SVGID_3_" gradientUnits="userSpaceOnUse" x1="276.8144" y1="50.1459" x2="279.0283" y2="113.5435">
			<stop  offset="0" style="stop-color:#414042"/>
			<stop  offset="8.924593e-02" style="stop-color:#434344"/>
			<stop  offset="0.1376" style="stop-color:#4B4B4D"/>
			<stop  offset="0.1761" style="stop-color:#57575A"/>
			<stop  offset="0.2094" style="stop-color:#67686B"/>
			<stop  offset="0.2394" style="stop-color:#7A7C7F"/>
			<stop  offset="0.267" style="stop-color:#919396"/>
			<stop  offset="0.2923" style="stop-color:#ADAFB2"/>
			<stop  offset="0.303" style="stop-color:#BCBEC0"/>
			<stop  offset="0.3959" style="stop-color:#818385"/>
			<stop  offset="0.4723" style="stop-color:#555557"/>
			<stop  offset="0.5091" style="stop-color:#414042"/>
			<stop  offset="0.5311" style="stop-color:#67696B"/>
			<stop  offset="0.5626" style="stop-color:#929497"/>
			<stop  offset="0.5919" style="stop-color:#B5B7BA"/>
			<stop  offset="0.6178" style="stop-color:#D0D2D3"/>
			<stop  offset="0.6395" style="stop-color:#E0E1E3"/>
			<stop  offset="0.6544" style="stop-color:#E6E7E8"/>
			<stop  offset="0.6615" style="stop-color:#D1D2D4"/>
			<stop  offset="0.6767" style="stop-color:#9B9DA0"/>
			<stop  offset="0.6987" style="stop-color:#474749"/>
			<stop  offset="0.7052" style="stop-color:#000000"/>
			<stop  offset="0.8126" style="stop-color:#080808"/>
			<stop  offset="0.8581" style="stop-color:#202020"/>
			<stop  offset="0.8918" style="stop-color:#3B3A3C"/>
			<stop  offset="0.9198" style="stop-color:#4E4E50"/>
			<stop  offset="0.9442" style="stop-color:#626365"/>
			<stop  offset="0.9661" style="stop-color:#787A7C"/>
			<stop  offset="0.9857" style="stop-color:#909295"/>
			<stop  offset="1" style="stop-color:#A7A9AC"/>
		</linearGradient>
		<path class="st2" d="M291.8,109.6l-29.1-44.7v36.9h7.5v7.1h-14.7V59.4h-7.1v-7.1h15.2l0.5,0.9c2.6,4.1,5.1,8.1,7.6,11.9
			c2.5,4,5.1,7.9,7.7,11.7c2.2,3.3,4.4,6.6,6.5,9.9c1.8,2.8,3.7,5.7,5.5,8.6V52.3h14.1v7.1h-6.9v50.2H291.8z"/>
		<linearGradient id="SVGID_4_" gradientUnits="userSpaceOnUse" x1="333.0474" y1="48.1854" x2="335.2613" y2="111.5827">
			<stop  offset="0" style="stop-color:#414042"/>
			<stop  offset="8.924593e-02" style="stop-color:#434344"/>
			<stop  offset="0.1376" style="stop-color:#4B4B4D"/>
			<stop  offset="0.1761" style="stop-color:#57575A"/>
			<stop  offset="0.2094" style="stop-color:#67686B"/>
			<stop  offset="0.2394" style="stop-color:#7A7C7F"/>
			<stop  offset="0.267" style="stop-color:#919396"/>
			<stop  offset="0.2923" style="stop-color:#ADAFB2"/>
			<stop  offset="0.303" style="stop-color:#BCBEC0"/>
			<stop  offset="0.3959" style="stop-color:#818385"/>
			<stop  offset="0.4723" style="stop-color:#555557"/>
			<stop  offset="0.5091" style="stop-color:#414042"/>
			<stop  offset="0.5311" style="stop-color:#67696B"/>
			<stop  offset="0.5626" style="stop-color:#929497"/>
			<stop  offset="0.5919" style="stop-color:#B5B7BA"/>
			<stop  offset="0.6178" style="stop-color:#D0D2D3"/>
			<stop  offset="0.6395" style="stop-color:#E0E1E3"/>
			<stop  offset="0.6544" style="stop-color:#E6E7E8"/>
			<stop  offset="0.6615" style="stop-color:#D1D2D4"/>
			<stop  offset="0.6767" style="stop-color:#9B9DA0"/>
			<stop  offset="0.6987" style="stop-color:#474749"/>
			<stop  offset="0.7052" style="stop-color:#000000"/>
			<stop  offset="0.8126" style="stop-color:#080808"/>
			<stop  offset="0.8581" style="stop-color:#202020"/>
			<stop  offset="0.8918" style="stop-color:#3B3A3C"/>
			<stop  offset="0.9198" style="stop-color:#4E4E50"/>
			<stop  offset="0.9442" style="stop-color:#626365"/>
			<stop  offset="0.9661" style="stop-color:#787A7C"/>
			<stop  offset="0.9857" style="stop-color:#909295"/>
			<stop  offset="1" style="stop-color:#A7A9AC"/>
		</linearGradient>
		<path class="st3" d="M334.9,109.7c-8.3,0-15.2-2.7-20.4-8c-5.2-5.3-7.8-12.4-7.8-21.1c0-8.4,2.6-15.5,7.8-21
			c5.3-5.4,12.1-8.1,20.3-8.1c3.6,0,7.3,0.8,11,2.4c2.3,1,4.6,2.5,6.6,4.3V57h7.1v15.8h-6.8l-0.3-1.4c-0.5-2-1.2-3.8-2.1-5.1
			c-1-1.6-2.4-2.9-4.1-4c-3.5-2.3-7.3-3.4-11.5-3.4c-5.8,0-10.7,2-14.4,6c-3.7,4-5.6,9.3-5.6,15.7c0,6.4,1.9,11.6,5.8,15.6
			c3.8,4,8.7,6.1,14.6,6.1c4.5,0,8.4-1.2,11.6-3.5c1.6-1.1,3-2.7,4.3-4.7c1.2-1.7,2.3-4.1,3.5-7l0.8-2l6.7,4l-0.6,1.5
			c-1.4,3.3-2.9,6.2-4.5,8.4c-1.8,2.5-3.9,4.6-6.2,6.1C346.1,108.1,340.8,109.7,334.9,109.7L334.9,109.7z"/>
		<linearGradient id="SVGID_5_" gradientUnits="userSpaceOnUse" x1="384.9945" y1="46.3677" x2="387.2084" y2="109.7648">
			<stop  offset="0" style="stop-color:#414042"/>
			<stop  offset="8.924593e-02" style="stop-color:#434344"/>
			<stop  offset="0.1376" style="stop-color:#4B4B4D"/>
			<stop  offset="0.1761" style="stop-color:#57575A"/>
			<stop  offset="0.2094" style="stop-color:#67686B"/>
			<stop  offset="0.2394" style="stop-color:#7A7C7F"/>
			<stop  offset="0.267" style="stop-color:#919396"/>
			<stop  offset="0.2923" style="stop-color:#ADAFB2"/>
			<stop  offset="0.303" style="stop-color:#BCBEC0"/>
			<stop  offset="0.3959" style="stop-color:#818385"/>
			<stop  offset="0.4723" style="stop-color:#555557"/>
			<stop  offset="0.5091" style="stop-color:#414042"/>
			<stop  offset="0.5311" style="stop-color:#67696B"/>
			<stop  offset="0.5626" style="stop-color:#929497"/>
			<stop  offset="0.5919" style="stop-color:#B5B7BA"/>
			<stop  offset="0.6178" style="stop-color:#D0D2D3"/>
			<stop  offset="0.6395" style="stop-color:#E0E1E3"/>
			<stop  offset="0.6544" style="stop-color:#E6E7E8"/>
			<stop  offset="0.6615" style="stop-color:#D1D2D4"/>
			<stop  offset="0.6767" style="stop-color:#9B9DA0"/>
			<stop  offset="0.6987" style="stop-color:#474749"/>
			<stop  offset="0.7052" style="stop-color:#000000"/>
			<stop  offset="0.8126" style="stop-color:#080808"/>
			<stop  offset="0.8581" style="stop-color:#202020"/>
			<stop  offset="0.8918" style="stop-color:#3B3A3C"/>
			<stop  offset="0.9198" style="stop-color:#4E4E50"/>
			<stop  offset="0.9442" style="stop-color:#626365"/>
			<stop  offset="0.9661" style="stop-color:#787A7C"/>
			<stop  offset="0.9857" style="stop-color:#909295"/>
			<stop  offset="1" style="stop-color:#A7A9AC"/>
		</linearGradient>
		<polygon class="st4" points="369.2,108.9 369.2,59.4 362.4,59.4 362.4,52.3 408.3,52.3 408.3,68.8 401.2,68.8 401.2,59.4 
			377.1,59.4 377.1,76.4 399.1,76.4 399.1,83.5 377.1,83.5 377.1,101.8 408.3,101.8 408.3,108.9 		"/>
		<linearGradient id="SVGID_6_" gradientUnits="userSpaceOnUse" x1="433.5285" y1="44.673" x2="435.7424" y2="108.0706">
			<stop  offset="0" style="stop-color:#414042"/>
			<stop  offset="8.924593e-02" style="stop-color:#434344"/>
			<stop  offset="0.1376" style="stop-color:#4B4B4D"/>
			<stop  offset="0.1761" style="stop-color:#57575A"/>
			<stop  offset="0.2094" style="stop-color:#67686B"/>
			<stop  offset="0.2394" style="stop-color:#7A7C7F"/>
			<stop  offset="0.267" style="stop-color:#919396"/>
			<stop  offset="0.2923" style="stop-color:#ADAFB2"/>
			<stop  offset="0.303" style="stop-color:#BCBEC0"/>
			<stop  offset="0.3959" style="stop-color:#818385"/>
			<stop  offset="0.4723" style="stop-color:#555557"/>
			<stop  offset="0.5091" style="stop-color:#414042"/>
			<stop  offset="0.5311" style="stop-color:#67696B"/>
			<stop  offset="0.5626" style="stop-color:#929497"/>
			<stop  offset="0.5919" style="stop-color:#B5B7BA"/>
			<stop  offset="0.6178" style="stop-color:#D0D2D3"/>
			<stop  offset="0.6395" style="stop-color:#E0E1E3"/>
			<stop  offset="0.6544" style="stop-color:#E6E7E8"/>
			<stop  offset="0.6615" style="stop-color:#D1D2D4"/>
			<stop  offset="0.6767" style="stop-color:#9B9DA0"/>
			<stop  offset="0.6987" style="stop-color:#474749"/>
			<stop  offset="0.7052" style="stop-color:#000000"/>
			<stop  offset="0.8126" style="stop-color:#080808"/>
			<stop  offset="0.8581" style="stop-color:#202020"/>
			<stop  offset="0.8918" style="stop-color:#3B3A3C"/>
			<stop  offset="0.9198" style="stop-color:#4E4E50"/>
			<stop  offset="0.9442" style="stop-color:#626365"/>
			<stop  offset="0.9661" style="stop-color:#787A7C"/>
			<stop  offset="0.9857" style="stop-color:#909295"/>
			<stop  offset="1" style="stop-color:#A7A9AC"/>
		</linearGradient>
		<path class="st5" d="M418,109V59.4h-7.8v-7.1H438c4.7,0,8.5,1.3,11.5,4c3.1,2.8,4.6,6.2,4.6,10.5c0,4-1.1,7.2-3.3,9.9
			c-1.9,2.1-4.6,3.7-8.1,4.8l9.2,20.4h7.4v7.1h-12.7l-11.9-26.5h-8.8V109H418z M435.7,75.4c3.5,0,6.2-0.7,8-2.2
			c1.7-1.3,2.5-3.3,2.5-6c0-2.5-0.8-4.3-2.4-5.6c-1.6-1.5-3.8-2.2-6.8-2.2h-11.2v16H435.7z"/>
	</g>
	<g>
		<linearGradient id="SVGID_7_" gradientUnits="userSpaceOnUse" x1="167.0506" y1="51.5309" x2="169.3295" y2="116.788">
			<stop  offset="0" style="stop-color:#F1F2F2"/>
			<stop  offset="0.1266" style="stop-color:#D4D6D7"/>
			<stop  offset="0.2904" style="stop-color:#B3B5B8"/>
			<stop  offset="0.3758" style="stop-color:#A7A9AC"/>
			<stop  offset="0.4229" style="stop-color:#818386"/>
			<stop  offset="0.4693" style="stop-color:#616264"/>
			<stop  offset="0.5056" style="stop-color:#4A4A4C"/>
			<stop  offset="0.5273" style="stop-color:#414042"/>
			<stop  offset="0.5316" style="stop-color:#565759"/>
			<stop  offset="0.5396" style="stop-color:#747578"/>
			<stop  offset="0.5486" style="stop-color:#8C8E90"/>
			<stop  offset="0.5585" style="stop-color:#A0A3A5"/>
			<stop  offset="0.5697" style="stop-color:#B2B4B7"/>
			<stop  offset="0.5828" style="stop-color:#C0C2C4"/>
			<stop  offset="0.599" style="stop-color:#CACCCD"/>
			<stop  offset="0.6218" style="stop-color:#D0D1D3"/>
			<stop  offset="0.6848" style="stop-color:#D1D3D4"/>
			<stop  offset="0.7393" style="stop-color:#C4C6C8"/>
			<stop  offset="0.8453" style="stop-color:#A2A4A7"/>
			<stop  offset="0.9914" style="stop-color:#707274"/>
			<stop  offset="1" style="stop-color:#6D6E71"/>
		</linearGradient>
		<path class="st6" d="M168.9,107.5c-8,0-14.6-2.6-19.7-7.7c-5-5.1-7.5-11.9-7.5-20.3c0-8.1,2.5-14.9,7.5-20.2
			c5.1-5.2,11.7-7.8,19.6-7.8c3.5,0,7,0.8,10.6,2.3c2.6,1.1,5,2.8,7.2,5l0.9,0.9l-0.3-0.8c0.2-0.1,0.3-0.3,0.3-0.5V57h5.1v13.7h-5
			l-0.2-0.6c-0.5-2.1-1.3-4-2.2-5.4c-1.1-1.7-2.6-3.1-4.4-4.3c-3.6-2.4-7.7-3.6-12-3.6c-6.1,0-11.2,2.1-15.2,6.3
			c-3.9,4.2-5.9,9.7-5.9,16.4c0,6.6,2,12.1,6.1,16.3c4,4.2,9.1,6.4,15.3,6.4c4.7,0,8.8-1.2,12.2-3.7c1.6-1.2,3.2-2.8,4.6-5
			c1.2-1.8,2.4-4.2,3.6-7.1l0.4-0.9l4.9,2.9l-0.3,0.7c-1.3,3.3-2.8,6-4.4,8.2c-1.7,2.4-3.7,4.4-5.9,5.8
			C179.6,106,174.6,107.5,168.9,107.5L168.9,107.5z"/>
		<linearGradient id="SVGID_8_" gradientUnits="userSpaceOnUse" x1="220.3888" y1="49.6733" x2="222.6676" y2="114.9297">
			<stop  offset="0" style="stop-color:#F1F2F2"/>
			<stop  offset="0.1266" style="stop-color:#D4D6D7"/>
			<stop  offset="0.2904" style="stop-color:#B3B5B8"/>
			<stop  offset="0.3758" style="stop-color:#A7A9AC"/>
			<stop  offset="0.4229" style="stop-color:#818386"/>
			<stop  offset="0.4693" style="stop-color:#616264"/>
			<stop  offset="0.5056" style="stop-color:#4A4A4C"/>
			<stop  offset="0.5273" style="stop-color:#414042"/>
			<stop  offset="0.5316" style="stop-color:#565759"/>
			<stop  offset="0.5396" style="stop-color:#747578"/>
			<stop  offset="0.5486" style="stop-color:#8C8E90"/>
			<stop  offset="0.5585" style="stop-color:#A0A3A5"/>
			<stop  offset="0.5697" style="stop-color:#B2B4B7"/>
			<stop  offset="0.5828" style="stop-color:#C0C2C4"/>
			<stop  offset="0.599" style="stop-color:#CACCCD"/>
			<stop  offset="0.6218" style="stop-color:#D0D1D3"/>
			<stop  offset="0.6848" style="stop-color:#D1D3D4"/>
			<stop  offset="0.7393" style="stop-color:#C4C6C8"/>
			<stop  offset="0.8453" style="stop-color:#A2A4A7"/>
			<stop  offset="0.9914" style="stop-color:#707274"/>
			<stop  offset="1" style="stop-color:#6D6E71"/>
		</linearGradient>
		<path class="st7" d="M231.4,106.7v-5h5.6c0.2,0,0.3-0.1,0.4-0.2c0.1-0.1,0.1-0.3,0.1-0.5L232.5,87c-0.1-0.2-0.3-0.3-0.5-0.3h-19.6
			c-0.2,0-0.4,0.1-0.5,0.3l-5.2,15.4l0,4.4h-12.5v-5h6.6c0.2,0,0.4-0.1,0.5-0.3l15.6-45l1.3-4h16.3v5h-5.6c-0.2,0-0.3,0.1-0.4,0.2
			c-0.1,0.1-0.1,0.3-0.1,0.5l15.2,43.4c0.1,0.2,0.3,0.3,0.5,0.3h6.4v5H231.4z M222.3,58c-0.2,0-0.4,0.1-0.5,0.3L214.1,81
			c-0.1,0.2,0,0.3,0.1,0.5c0.1,0.1,0.2,0.2,0.4,0.2H230c0.2,0,0.3-0.1,0.4-0.2c0.1-0.1,0.1-0.3,0.1-0.5l-7.7-22.6
			C222.7,58.2,222.5,58,222.3,58L222.3,58z"/>
		<linearGradient id="SVGID_9_" gradientUnits="userSpaceOnUse" x1="275.8104" y1="47.7374" x2="278.0892" y2="112.994">
			<stop  offset="0" style="stop-color:#F1F2F2"/>
			<stop  offset="0.1266" style="stop-color:#D4D6D7"/>
			<stop  offset="0.2904" style="stop-color:#B3B5B8"/>
			<stop  offset="0.3758" style="stop-color:#A7A9AC"/>
			<stop  offset="0.4229" style="stop-color:#818386"/>
			<stop  offset="0.4693" style="stop-color:#616264"/>
			<stop  offset="0.5056" style="stop-color:#4A4A4C"/>
			<stop  offset="0.5273" style="stop-color:#414042"/>
			<stop  offset="0.5316" style="stop-color:#565759"/>
			<stop  offset="0.5396" style="stop-color:#747578"/>
			<stop  offset="0.5486" style="stop-color:#8C8E90"/>
			<stop  offset="0.5585" style="stop-color:#A0A3A5"/>
			<stop  offset="0.5697" style="stop-color:#B2B4B7"/>
			<stop  offset="0.5828" style="stop-color:#C0C2C4"/>
			<stop  offset="0.599" style="stop-color:#CACCCD"/>
			<stop  offset="0.6218" style="stop-color:#D0D1D3"/>
			<stop  offset="0.6848" style="stop-color:#D1D3D4"/>
			<stop  offset="0.7393" style="stop-color:#C4C6C8"/>
			<stop  offset="0.8453" style="stop-color:#A2A4A7"/>
			<stop  offset="0.9914" style="stop-color:#707274"/>
			<stop  offset="1" style="stop-color:#6D6E71"/>
		</linearGradient>
		<path class="st8" d="M291.4,107.4l-29.8-45.7c-0.1-0.1-0.3-0.2-0.4-0.2c-0.4,0.1-0.5,0.3-0.5,0.5v39.2c0,0.3,0.2,0.5,0.5,0.5h7v5
			h-12.6V57.8c0-0.3-0.2-0.5-0.5-0.5h-6.6v-5h13.6l0.2,0.4c2.6,4.1,5.1,8.1,7.6,11.8c2.5,3.9,5.1,7.8,7.7,11.7
			c2.2,3.3,4.3,6.5,6.5,9.9c2.2,3.3,4.3,6.7,6.5,10.1c0.1,0.1,0.3,0.2,0.4,0.2c0.4-0.1,0.5-0.3,0.5-0.5V52.4h12v5h-6.3
			c-0.3,0-0.5,0.2-0.5,0.5v49.6H291.4z"/>
		<linearGradient id="SVGID_10_" gradientUnits="userSpaceOnUse" x1="331.9106" y1="45.7808" x2="334.1895" y2="111.038">
			<stop  offset="0" style="stop-color:#F1F2F2"/>
			<stop  offset="0.1266" style="stop-color:#D4D6D7"/>
			<stop  offset="0.2904" style="stop-color:#B3B5B8"/>
			<stop  offset="0.3758" style="stop-color:#A7A9AC"/>
			<stop  offset="0.4229" style="stop-color:#818386"/>
			<stop  offset="0.4693" style="stop-color:#616264"/>
			<stop  offset="0.5056" style="stop-color:#4A4A4C"/>
			<stop  offset="0.5273" style="stop-color:#414042"/>
			<stop  offset="0.5316" style="stop-color:#565759"/>
			<stop  offset="0.5396" style="stop-color:#747578"/>
			<stop  offset="0.5486" style="stop-color:#8C8E90"/>
			<stop  offset="0.5585" style="stop-color:#A0A3A5"/>
			<stop  offset="0.5697" style="stop-color:#B2B4B7"/>
			<stop  offset="0.5828" style="stop-color:#C0C2C4"/>
			<stop  offset="0.599" style="stop-color:#CACCCD"/>
			<stop  offset="0.6218" style="stop-color:#D0D1D3"/>
			<stop  offset="0.6848" style="stop-color:#D1D3D4"/>
			<stop  offset="0.7393" style="stop-color:#C4C6C8"/>
			<stop  offset="0.8453" style="stop-color:#A2A4A7"/>
			<stop  offset="0.9914" style="stop-color:#707274"/>
			<stop  offset="1" style="stop-color:#6D6E71"/>
		</linearGradient>
		<path class="st9" d="M334,107.5c-8,0-14.6-2.6-19.7-7.7c-5-5.1-7.5-11.9-7.5-20.3c0-8.1,2.5-14.9,7.5-20.2
			c5.1-5.2,11.7-7.8,19.6-7.8c3.5,0,7,0.8,10.6,2.3c2.6,1.1,5,2.8,7.2,5l0.9,0.9l-0.3-0.8c0.2-0.1,0.3-0.3,0.3-0.5V57h5.1v13.7h-5
			l-0.2-0.6c-0.5-2.1-1.3-4-2.2-5.4c-1.1-1.7-2.6-3.1-4.4-4.3c-3.6-2.4-7.7-3.6-12-3.6c-6.1,0-11.2,2.1-15.2,6.3
			c-3.9,4.2-5.9,9.7-5.9,16.4c0,6.6,2,12.1,6.1,16.3c4,4.2,9.1,6.4,15.3,6.4c4.7,0,8.8-1.2,12.2-3.7c1.6-1.2,3.2-2.8,4.6-5
			c1.2-1.8,2.4-4.2,3.6-7.1l0.4-0.9l4.9,2.9l-0.3,0.7c-1.3,3.3-2.8,6-4.4,8.2c-1.7,2.4-3.7,4.4-5.9,5.8
			C344.7,106,339.6,107.5,334,107.5L334,107.5z"/>
		<linearGradient id="SVGID_11_" gradientUnits="userSpaceOnUse" x1="383.9905" y1="43.9595" x2="386.2693" y2="109.2157">
			<stop  offset="0" style="stop-color:#F1F2F2"/>
			<stop  offset="0.1266" style="stop-color:#D4D6D7"/>
			<stop  offset="0.2904" style="stop-color:#B3B5B8"/>
			<stop  offset="0.3758" style="stop-color:#A7A9AC"/>
			<stop  offset="0.4229" style="stop-color:#818386"/>
			<stop  offset="0.4693" style="stop-color:#616264"/>
			<stop  offset="0.5056" style="stop-color:#4A4A4C"/>
			<stop  offset="0.5273" style="stop-color:#414042"/>
			<stop  offset="0.5316" style="stop-color:#565759"/>
			<stop  offset="0.5396" style="stop-color:#747578"/>
			<stop  offset="0.5486" style="stop-color:#8C8E90"/>
			<stop  offset="0.5585" style="stop-color:#A0A3A5"/>
			<stop  offset="0.5697" style="stop-color:#B2B4B7"/>
			<stop  offset="0.5828" style="stop-color:#C0C2C4"/>
			<stop  offset="0.599" style="stop-color:#CACCCD"/>
			<stop  offset="0.6218" style="stop-color:#D0D1D3"/>
			<stop  offset="0.6848" style="stop-color:#D1D3D4"/>
			<stop  offset="0.7393" style="stop-color:#C4C6C8"/>
			<stop  offset="0.8453" style="stop-color:#A2A4A7"/>
			<stop  offset="0.9914" style="stop-color:#707274"/>
			<stop  offset="1" style="stop-color:#6D6E71"/>
		</linearGradient>
		<path class="st10" d="M369.3,106.7V57.8c0-0.3-0.2-0.5-0.5-0.5h-6.3v-5h43.8v14.3h-5v-8.8c0-0.3-0.2-0.5-0.5-0.5h-25.2
			c-0.3,0-0.5,0.2-0.5,0.5v18.1c0,0.3,0.2,0.5,0.5,0.5h21.5v5h-21.5c-0.3,0-0.5,0.2-0.5,0.5v19.3c0,0.3,0.2,0.5,0.5,0.5h30.7v5
			H369.3z"/>
		<linearGradient id="SVGID_12_" gradientUnits="userSpaceOnUse" x1="432.5263" y1="42.2647" x2="434.8051" y2="107.5208">
			<stop  offset="0" style="stop-color:#F1F2F2"/>
			<stop  offset="0.1266" style="stop-color:#D4D6D7"/>
			<stop  offset="0.2904" style="stop-color:#B3B5B8"/>
			<stop  offset="0.3758" style="stop-color:#A7A9AC"/>
			<stop  offset="0.4229" style="stop-color:#818386"/>
			<stop  offset="0.4693" style="stop-color:#616264"/>
			<stop  offset="0.5056" style="stop-color:#4A4A4C"/>
			<stop  offset="0.5273" style="stop-color:#414042"/>
			<stop  offset="0.5316" style="stop-color:#565759"/>
			<stop  offset="0.5396" style="stop-color:#747578"/>
			<stop  offset="0.5486" style="stop-color:#8C8E90"/>
			<stop  offset="0.5585" style="stop-color:#A0A3A5"/>
			<stop  offset="0.5697" style="stop-color:#B2B4B7"/>
			<stop  offset="0.5828" style="stop-color:#C0C2C4"/>
			<stop  offset="0.599" style="stop-color:#CACCCD"/>
			<stop  offset="0.6218" style="stop-color:#D0D1D3"/>
			<stop  offset="0.6848" style="stop-color:#D1D3D4"/>
			<stop  offset="0.7393" style="stop-color:#C4C6C8"/>
			<stop  offset="0.8453" style="stop-color:#A2A4A7"/>
			<stop  offset="0.9914" style="stop-color:#707274"/>
			<stop  offset="1" style="stop-color:#6D6E71"/>
		</linearGradient>
		<path class="st11" d="M418.1,106.8v-49c0-0.3-0.2-0.5-0.5-0.5h-7.3v-5h26.8c4.4,0,8,1.2,10.8,3.8c2.9,2.6,4.3,5.7,4.3,9.7
			c0,3.8-1,6.8-3.1,9.2c-1.8,2.1-4.6,3.6-8.2,4.6l-0.3,0.7l9.6,21.2c0.1,0.2,0.3,0.3,0.5,0.3h6.7v5h-11l-11.8-26.1
			c-0.1-0.2-0.3-0.3-0.5-0.3h-9.7c-0.3,0-0.5,0.2-0.5,0.5v26H418.1z M424.4,57.3c-0.3,0-0.5,0.2-0.5,0.5v17c0,0.3,0.2,0.5,0.5,0.5
			h10.3c3.7,0,6.6-0.8,8.6-2.4c1.9-1.5,2.9-3.8,2.9-6.8c0-2.7-0.9-4.9-2.8-6.4c-1.8-1.6-4.2-2.5-7.4-2.5H424.4z"/>
	</g>
	<g>
		<linearGradient id="SVGID_13_" gradientUnits="userSpaceOnUse" x1="167.611" y1="53.4655" x2="168.7776" y2="111.6075">
			<stop  offset="0" style="stop-color:#FFFFFF"/>
			<stop  offset="1" style="stop-color:#D1D3D4"/>
		</linearGradient>
		<path class="st12" d="M169.1,106.6c-7.6,0-13.9-2.5-18.6-7.3c-4.7-4.8-7.1-11.3-7.1-19.3c0-7.8,2.4-14.2,7.1-19.2
			c4.8-4.9,11-7.3,18.5-7.3c3.3,0,6.7,0.7,10,2.2c2.4,1,4.7,2.6,6.7,4.7c0.4,0.4,0.8,0.6,1.4,0.6c0.3,0,0.5-0.1,0.7-0.1
			c0.7-0.3,1.2-1,1.2-1.7h2.2v10.9h-2.5c-0.6-2.1-1.3-3.9-2.3-5.4c-1.2-1.9-2.8-3.4-4.8-4.7c-3.9-2.5-8.2-3.8-12.8-3.8
			c-6.6,0-12,2.3-16.2,6.8c-4.2,4.5-6.3,10.3-6.3,17.4c0,7,2.2,12.8,6.5,17.3c4.2,4.5,9.7,6.8,16.3,6.8c5,0,9.4-1.3,13-3.9
			c1.8-1.3,3.5-3.1,5-5.3c1.2-1.7,2.3-4,3.4-6.7l2.4,1.4c-1.2,3-2.6,5.5-4,7.5c-1.6,2.3-3.5,4.1-5.6,5.5
			C179.3,105.2,174.5,106.6,169.1,106.6L169.1,106.6z"/>
		<linearGradient id="SVGID_14_" gradientUnits="userSpaceOnUse" x1="221.4692" y1="52.3906" x2="222.6358" y2="110.5326">
			<stop  offset="0" style="stop-color:#FFFFFF"/>
			<stop  offset="1" style="stop-color:#D1D3D4"/>
		</linearGradient>
		<path class="st13" d="M233,105.8v-2.2h4.2c0.6,0,1.2-0.3,1.6-0.8c0.4-0.5,0.5-1.2,0.2-1.7L234.1,87c-0.3-0.8-1-1.3-1.8-1.3h-19.6
			c-0.8,0-1.6,0.5-1.8,1.3l-5.2,15.3c-0.1,0.2-0.1,0.4-0.1,0.6v2.8h-9.7v-2.2h5.2c0.8,0,1.5-0.5,1.8-1.3l15.6-45l1-3.1h13.8v2.1H229
			c-0.6,0-1.2,0.3-1.6,0.8c-0.4,0.5-0.5,1.2-0.2,1.8l15.2,43.4c0.3,0.8,1,1.3,1.8,1.3h5v2.2H233z M222.6,57.2
			c-0.8,0-1.6,0.5-1.8,1.3L212.9,81c-0.2,0.6-0.1,1.2,0.3,1.7c0.4,0.5,0.9,0.8,1.6,0.8h15.5c0.6,0,1.2-0.3,1.6-0.8
			c0.4-0.5,0.5-1.2,0.3-1.7l-7.7-22.6C224.1,57.7,223.4,57.2,222.6,57.2L222.6,57.2z"/>
		<linearGradient id="SVGID_15_" gradientUnits="userSpaceOnUse" x1="276.2031" y1="51.2961" x2="277.3698" y2="109.4383">
			<stop  offset="0" style="stop-color:#FFFFFF"/>
			<stop  offset="1" style="stop-color:#D1D3D4"/>
		</linearGradient>
		<path class="st14" d="M292.4,106.5l-29.3-45c-0.4-0.5-1-0.9-1.6-0.9c-0.1,0-0.5,0.1-0.6,0.1c-0.8,0.2-1.4,1-1.4,1.8v39.2
			c0,1.1,0.9,1.9,1.9,1.9h5.6v2.2h-9.8V58.4c0-1.1-0.9-1.9-1.9-1.9h-5.2v-2.1h11.4c2.6,4,5,7.9,7.4,11.6c2.6,4,5.1,7.9,7.7,11.7
			c2.2,3.3,4.3,6.5,6.5,9.8c2.1,3.3,4.3,6.6,6.5,10.1c0.4,0.6,1,0.9,1.6,0.9c0.1,0,0.5-0.1,0.5-0.1c0.8-0.2,1.4-1,1.4-1.8V54.3h9.2
			v2.1h-4.9c-1.1,0-1.9,0.9-1.9,1.9v48.2H292.4z"/>
		<linearGradient id="SVGID_16_" gradientUnits="userSpaceOnUse" x1="332.6051" y1="50.1637" x2="333.7717" y2="108.3058">
			<stop  offset="0" style="stop-color:#FFFFFF"/>
			<stop  offset="1" style="stop-color:#D1D3D4"/>
		</linearGradient>
		<path class="st15" d="M334.2,106.6c-7.6,0-13.9-2.5-18.6-7.3c-4.7-4.8-7.1-11.3-7.1-19.3c0-7.8,2.4-14.2,7.1-19.2
			c4.8-4.9,11-7.3,18.5-7.3c3.3,0,6.7,0.7,10,2.2c2.4,1,4.7,2.6,6.7,4.7c0.4,0.4,0.8,0.6,1.4,0.6c0.3,0,0.5-0.1,0.7-0.1
			c0.7-0.3,1.2-1,1.2-1.7h2.2v10.9h-2.5c-0.6-2.1-1.3-3.9-2.3-5.4c-1.2-1.9-2.8-3.4-4.8-4.7c-3.9-2.5-8.2-3.8-12.8-3.8
			c-6.6,0-12,2.3-16.2,6.8c-4.2,4.5-6.3,10.3-6.3,17.4c0,7,2.2,12.8,6.5,17.3c4.2,4.5,9.7,6.8,16.3,6.8c5,0,9.4-1.3,13-3.9
			c1.8-1.3,3.5-3.1,5-5.3c1.2-1.7,2.3-4,3.4-6.7l2.4,1.4c-1.2,3-2.6,5.5-4,7.5c-1.6,2.3-3.5,4.1-5.6,5.5
			C344.4,105.2,339.6,106.6,334.2,106.6L334.2,106.6z"/>
		<linearGradient id="SVGID_17_" gradientUnits="userSpaceOnUse" x1="384.4713" y1="49.1236" x2="385.6379" y2="107.2657">
			<stop  offset="0" style="stop-color:#FFFFFF"/>
			<stop  offset="1" style="stop-color:#D1D3D4"/>
		</linearGradient>
		<path class="st16" d="M370.9,105.8V58.4c0-1.1-0.9-1.9-1.9-1.9h-4.9v-2.1h40.9v11.5h-2.2v-7.4c0-1.1-0.9-1.9-1.9-1.9h-25.2
			c-1.1,0-1.9,0.9-1.9,1.9v18.1c0,1.1,0.9,1.9,1.9,1.9h20v2.2h-20c-1.1,0-1.9,0.9-1.9,1.9v19.3c0,1.1,0.9,1.9,1.9,1.9h29.3v2.2
			H370.9z"/>
		<linearGradient id="SVGID_18_" gradientUnits="userSpaceOnUse" x1="433.4135" y1="48.1347" x2="434.5801" y2="106.2767">
			<stop  offset="0" style="stop-color:#FFFFFF"/>
			<stop  offset="1" style="stop-color:#D1D3D4"/>
		</linearGradient>
		<path class="st17" d="M419.7,105.9V58.4c0-1.1-0.9-1.9-1.9-1.9h-5.9v-2.1h25.3c4.1,0,7.3,1.1,9.9,3.4c2.6,2.3,3.8,5.1,3.8,8.6
			c0,3.4-0.9,6.1-2.7,8.3c-1.6,1.9-4.1,3.3-7.5,4.1c-0.5,0.1-1,0.5-1.2,1c-0.2,0.5-0.2,1.1,0,1.6l9.6,21.2c0.3,0.7,1,1.1,1.8,1.1
			h5.3v2.2h-8.7l-11.4-25.3c-0.3-0.7-1-1.1-1.8-1.1h-9.7c-1.1,0-1.9,0.9-1.9,1.9v24.6H419.7z M424.7,56.5c-1.1,0-1.9,0.9-1.9,1.9v17
			c0,1.1,0.9,1.9,1.9,1.9h10.3c4.1,0,7.3-0.9,9.5-2.7c2.3-1.8,3.5-4.4,3.5-7.9c0-3.2-1.1-5.7-3.3-7.5c-1.9-1.8-4.8-2.8-8.3-2.8
			H424.7z"/>
	</g>
	<g>
		<linearGradient id="SVGID_19_" gradientUnits="userSpaceOnUse" x1="168.7806" y1="54.3051" x2="168.7806" y2="106.551">
			<stop  offset="0" style="stop-color:#FFFFFF"/>
			<stop  offset="0.4" style="stop-color:#F1F2F2"/>
			<stop  offset="0.4334" style="stop-color:#414042"/>
			<stop  offset="0.5082" style="stop-color:#606164"/>
			<stop  offset="0.5996" style="stop-color:#7C7E81"/>
			<stop  offset="0.6739" style="stop-color:#8D8F92"/>
			<stop  offset="0.7212" style="stop-color:#939598"/>
			<stop  offset="0.7259" style="stop-color:#97999C"/>
			<stop  offset="0.7588" style="stop-color:#B0B2B4"/>
			<stop  offset="0.7908" style="stop-color:#C2C4C6"/>
			<stop  offset="0.8212" style="stop-color:#CDCFD1"/>
			<stop  offset="0.8485" style="stop-color:#D1D3D4"/>
			<stop  offset="0.8897" style="stop-color:#DEDFE0"/>
			<stop  offset="0.953" style="stop-color:#ECEDED"/>
			<stop  offset="1" style="stop-color:#F1F2F2"/>
		</linearGradient>
		<path class="st18" d="M169.7,106.6c-7.5,0-13.7-2.4-18.3-7.2c-4.6-4.8-7-11.1-7-19c0-7.6,2.4-14,7-18.9c4.7-4.8,10.8-7.2,18.2-7.2
			c3.2,0,6.5,0.7,9.8,2.1c2.4,1,4.6,2.6,6.6,4.6c0.4,0.4,1.1,0.7,1.7,0.7c0.3,0,0.6-0.1,0.9-0.2c0.7-0.3,1.3-0.9,1.4-1.7h1.4v9.9
			h-1.7c-0.6-2-1.3-3.7-2.3-5.2c-1.2-1.9-2.9-3.5-4.9-4.9c-3.9-2.6-8.3-3.9-13.1-3.9c-6.7,0-12.2,2.3-16.5,6.9
			c-4.3,4.6-6.4,10.5-6.4,17.7c0,7.2,2.2,13.1,6.6,17.6c4.3,4.6,9.9,7,16.7,7c5.1,0,9.6-1.4,13.3-4c1.8-1.3,3.5-3.1,5.1-5.5
			c1.1-1.7,2.2-3.8,3.3-6.3l1.6,1c-1.2,2.8-2.4,5.1-3.8,7c-1.6,2.2-3.4,4-5.4,5.4C179.8,105.2,175,106.6,169.7,106.6L169.7,106.6z"
			/>
		<linearGradient id="SVGID_20_" gradientUnits="userSpaceOnUse" x1="223.1157" y1="54.3051" x2="223.1157" y2="106.5504">
			<stop  offset="0" style="stop-color:#FFFFFF"/>
			<stop  offset="0.4" style="stop-color:#F1F2F2"/>
			<stop  offset="0.4334" style="stop-color:#414042"/>
			<stop  offset="0.5082" style="stop-color:#606164"/>
			<stop  offset="0.5996" style="stop-color:#7C7E81"/>
			<stop  offset="0.6739" style="stop-color:#8D8F92"/>
			<stop  offset="0.7212" style="stop-color:#939598"/>
			<stop  offset="0.7259" style="stop-color:#97999C"/>
			<stop  offset="0.7588" style="stop-color:#B0B2B4"/>
			<stop  offset="0.7908" style="stop-color:#C2C4C6"/>
			<stop  offset="0.8212" style="stop-color:#CDCFD1"/>
			<stop  offset="0.8485" style="stop-color:#D1D3D4"/>
			<stop  offset="0.8897" style="stop-color:#DEDFE0"/>
			<stop  offset="0.953" style="stop-color:#ECEDED"/>
			<stop  offset="1" style="stop-color:#F1F2F2"/>
		</linearGradient>
		<path class="st19" d="M234.1,105.8v-1.2h3.7c0.8,0,1.5-0.4,1.9-1c0.4-0.6,0.6-1.4,0.3-2.2l-4.9-14.1c-0.3-1-1.2-1.6-2.3-1.6h-19.6
			c-1,0-1.9,0.7-2.3,1.6l-5.2,15.3c-0.1,0.3-0.1,0.5-0.1,0.8v2.4h-8.8v-1.2h4.7c1,0,1.9-0.6,2.3-1.6l15.6-45l0.9-2.8h13v1.2h-3.7
			c-0.8,0-1.5,0.4-1.9,1c-0.5,0.6-0.6,1.4-0.3,2.2l15.2,43.4c0.3,1,1.2,1.6,2.3,1.6h4.5v1.2H234.1z M223.2,57.1
			c-1,0-1.9,0.6-2.3,1.6l-7.8,22.6c-0.3,0.7-0.1,1.5,0.3,2.2c0.4,0.6,1.2,1,1.9,1h15.5c0.8,0,1.5-0.4,1.9-1c0.4-0.6,0.6-1.4,0.3-2.2
			l-7.7-22.6C225.1,57.7,224.2,57.1,223.2,57.1L223.2,57.1z"/>
		<linearGradient id="SVGID_21_" gradientUnits="userSpaceOnUse" x1="276.8809" y1="54.3051" x2="276.8809" y2="106.551">
			<stop  offset="0" style="stop-color:#FFFFFF"/>
			<stop  offset="0.4" style="stop-color:#F1F2F2"/>
			<stop  offset="0.4334" style="stop-color:#414042"/>
			<stop  offset="0.5082" style="stop-color:#606164"/>
			<stop  offset="0.5996" style="stop-color:#7C7E81"/>
			<stop  offset="0.6739" style="stop-color:#8D8F92"/>
			<stop  offset="0.7212" style="stop-color:#939598"/>
			<stop  offset="0.7259" style="stop-color:#97999C"/>
			<stop  offset="0.7588" style="stop-color:#B0B2B4"/>
			<stop  offset="0.7908" style="stop-color:#C2C4C6"/>
			<stop  offset="0.8212" style="stop-color:#CDCFD1"/>
			<stop  offset="0.8485" style="stop-color:#D1D3D4"/>
			<stop  offset="0.8897" style="stop-color:#DEDFE0"/>
			<stop  offset="0.953" style="stop-color:#ECEDED"/>
			<stop  offset="1" style="stop-color:#F1F2F2"/>
		</linearGradient>
		<path class="st20" d="M293.3,106.5l-29.2-44.8c-0.4-0.7-1.2-1.1-2-1.1c-0.1,0-0.6,0.1-0.7,0.1c-1,0.3-1.7,1.2-1.7,2.3v39.2
			c0,1.3,1.1,2.4,2.4,2.4h5.1v1.2h-8.9v-47c0-1.3-1.1-2.4-2.4-2.4h-4.7v-1.2h10.7c2.5,4,4.9,7.7,7.3,11.4c2.6,4,5.1,7.9,7.7,11.7
			c2.2,3.3,4.3,6.5,6.5,9.8c2.1,3.3,4.3,6.6,6.5,10.1c0.4,0.7,1.2,1.1,2,1.1c0.1,0,0.6-0.1,0.7-0.1c1-0.3,1.7-1.2,1.7-2.3V55.2h8.2
			v1.2h-4.5c-1.3,0-2.4,1.1-2.4,2.4v47.7H293.3z"/>
		<linearGradient id="SVGID_22_" gradientUnits="userSpaceOnUse" x1="333.8406" y1="54.3051" x2="333.8406" y2="106.551">
			<stop  offset="0" style="stop-color:#FFFFFF"/>
			<stop  offset="0.4" style="stop-color:#F1F2F2"/>
			<stop  offset="0.4334" style="stop-color:#414042"/>
			<stop  offset="0.5082" style="stop-color:#606164"/>
			<stop  offset="0.5996" style="stop-color:#7C7E81"/>
			<stop  offset="0.6739" style="stop-color:#8D8F92"/>
			<stop  offset="0.7212" style="stop-color:#939598"/>
			<stop  offset="0.7259" style="stop-color:#97999C"/>
			<stop  offset="0.7588" style="stop-color:#B0B2B4"/>
			<stop  offset="0.7908" style="stop-color:#C2C4C6"/>
			<stop  offset="0.8212" style="stop-color:#CDCFD1"/>
			<stop  offset="0.8485" style="stop-color:#D1D3D4"/>
			<stop  offset="0.8897" style="stop-color:#DEDFE0"/>
			<stop  offset="0.953" style="stop-color:#ECEDED"/>
			<stop  offset="1" style="stop-color:#F1F2F2"/>
		</linearGradient>
		<path class="st21" d="M334.8,106.6c-7.5,0-13.7-2.4-18.3-7.2c-4.6-4.8-7-11.1-7-19c0-7.6,2.4-14,7-18.9c4.7-4.8,10.8-7.2,18.2-7.2
			c3.2,0,6.5,0.7,9.8,2.1c2.4,1,4.6,2.6,6.6,4.6c0.4,0.4,1,0.7,1.7,0.7c0.3,0,0.6-0.1,0.9-0.2c0.7-0.3,1.3-0.9,1.4-1.7h1.4v9.9h-1.7
			c-0.6-2-1.3-3.7-2.3-5.2c-1.2-1.9-2.9-3.5-4.9-4.9c-3.9-2.6-8.3-3.9-13.1-3.9c-6.7,0-12.2,2.3-16.5,6.9
			c-4.3,4.6-6.4,10.5-6.4,17.7c0,7.2,2.2,13.1,6.6,17.6c4.3,4.6,9.9,7,16.7,7c5.1,0,9.6-1.4,13.3-4c1.8-1.3,3.5-3.1,5.1-5.5
			c1.1-1.7,2.2-3.8,3.3-6.3l1.6,1c-1.2,2.8-2.4,5.1-3.8,7c-1.6,2.2-3.4,4-5.4,5.4C344.8,105.2,340.1,106.6,334.8,106.6L334.8,106.6z
			"/>
		<linearGradient id="SVGID_23_" gradientUnits="userSpaceOnUse" x1="385.2306" y1="54.3051" x2="385.2306" y2="106.5504">
			<stop  offset="0" style="stop-color:#FFFFFF"/>
			<stop  offset="0.4" style="stop-color:#F1F2F2"/>
			<stop  offset="0.4334" style="stop-color:#414042"/>
			<stop  offset="0.5082" style="stop-color:#606164"/>
			<stop  offset="0.5996" style="stop-color:#7C7E81"/>
			<stop  offset="0.6739" style="stop-color:#8D8F92"/>
			<stop  offset="0.7212" style="stop-color:#939598"/>
			<stop  offset="0.7259" style="stop-color:#97999C"/>
			<stop  offset="0.7588" style="stop-color:#B0B2B4"/>
			<stop  offset="0.7908" style="stop-color:#C2C4C6"/>
			<stop  offset="0.8212" style="stop-color:#CDCFD1"/>
			<stop  offset="0.8485" style="stop-color:#D1D3D4"/>
			<stop  offset="0.8897" style="stop-color:#DEDFE0"/>
			<stop  offset="0.953" style="stop-color:#ECEDED"/>
			<stop  offset="1" style="stop-color:#F1F2F2"/>
		</linearGradient>
		<path class="st22" d="M372,105.8v-47c0-1.3-1.1-2.4-2.4-2.4h-4.4v-1.2h40v10.6H404v-7c0-1.3-1.1-2.4-2.4-2.4h-25.2
			c-1.3,0-2.4,1.1-2.4,2.4v18.1c0,1.3,1.1,2.4,2.4,2.4H396v1.2h-19.6c-1.3,0-2.4,1.1-2.4,2.4v19.3c0,1.3,1.1,2.4,2.4,2.4h28.9v1.2
			H372z"/>
		<linearGradient id="SVGID_24_" gradientUnits="userSpaceOnUse" x1="434.6499" y1="54.3051" x2="434.6499" y2="106.5505">
			<stop  offset="0" style="stop-color:#FFFFFF"/>
			<stop  offset="0.4" style="stop-color:#F1F2F2"/>
			<stop  offset="0.4334" style="stop-color:#414042"/>
			<stop  offset="0.5082" style="stop-color:#606164"/>
			<stop  offset="0.5996" style="stop-color:#7C7E81"/>
			<stop  offset="0.6739" style="stop-color:#8D8F92"/>
			<stop  offset="0.7212" style="stop-color:#939598"/>
			<stop  offset="0.7259" style="stop-color:#97999C"/>
			<stop  offset="0.7588" style="stop-color:#B0B2B4"/>
			<stop  offset="0.7908" style="stop-color:#C2C4C6"/>
			<stop  offset="0.8212" style="stop-color:#CDCFD1"/>
			<stop  offset="0.8485" style="stop-color:#D1D3D4"/>
			<stop  offset="0.8897" style="stop-color:#DEDFE0"/>
			<stop  offset="0.953" style="stop-color:#ECEDED"/>
			<stop  offset="1" style="stop-color:#F1F2F2"/>
		</linearGradient>
		<path class="st23" d="M420.8,105.9V58.8c0-1.3-1.1-2.4-2.4-2.4H413v-1.2h24.9c4,0,7.1,1.1,9.6,3.3c2.4,2.2,3.6,4.9,3.6,8.3
			c0,3.3-0.9,5.9-2.6,8c-1.6,1.8-4,3.1-7.2,4c-0.7,0.2-1.2,0.7-1.5,1.3c-0.3,0.6-0.3,1.4,0,2l9.6,21.2c0.4,0.9,1.2,1.4,2.2,1.4h4.9
			v1.2h-7.9l-11.3-25c-0.4-0.9-1.2-1.4-2.2-1.4h-9.7c-1.3,0-2.4,1.1-2.4,2.4v24.1H420.8z M425.3,56.4c-1.3,0-2.4,1.1-2.4,2.4v17
			c0,1.3,1.1,2.4,2.4,2.4h10.3c4.2,0,7.5-0.9,9.8-2.8c2.4-1.9,3.6-4.7,3.6-8.3c0-3.3-1.2-6-3.4-7.8c-2-1.9-4.9-2.9-8.6-2.9H425.3z"
			/>
	</g>
</g>
</svg>
