<?xml version="1.0" encoding="utf-8"?>
<!-- Generator: Adobe Illustrator 21.1.0, SVG Export Plug-In . SVG Version: 6.00 Build 0)  -->
<svg version="1.1" id="Layer_13" xmlns="http://www.w3.org/2000/svg" xmlns:xlink="http://www.w3.org/1999/xlink" x="0px" y="0px"
	 viewBox="0 0 255.1 255.1" style="enable-background:new 0 0 255.1 255.1;" xml:space="preserve">
<style type="text/css">
	.st0{fill:url(#SVGID_1_);}
	.st1{fill:url(#SVGID_2_);}
	.st2{fill:url(#SVGID_3_);}
	.st3{fill:url(#SVGID_4_);}
	.st4{fill:url(#SVGID_5_);}
	.st5{fill:#FFFFFF;}
</style>
<g>
	<radialGradient id="SVGID_1_" cx="149.8471" cy="122.3528" r="7.7871" gradientUnits="userSpaceOnUse">
		<stop  offset="0" style="stop-color:#FFFFFF"/>
		<stop  offset="0.6378" style="stop-color:#FFFFFF;stop-opacity:0.6"/>
		<stop  offset="1" style="stop-color:#FFFFFF"/>
	</radialGradient>
	<path class="st0" d="M147.6,120c1.1-1.1,2.2-2.1,3.4-2.8c1.1-0.7,2.3-1.2,3.3-1.5c1-0.3,1.9-0.4,2.5-0.5c0.6,0,1,0,1,0
		c0,0-0.3-0.1-0.9-0.3c-0.6-0.1-1.5-0.3-2.7-0.2c-1.2,0.1-2.5,0.3-3.9,1c-1.4,0.6-2.8,1.6-4,2.9c-1.2,1.3-2.1,2.7-2.8,4.1
		c-0.6,1.4-1,2.7-1.2,3.8c-0.4,2.2-0.1,3.6-0.1,3.6c0,0,0.2-1.4,1.1-3.3C144,124.8,145.5,122.2,147.6,120z"/>
	<radialGradient id="SVGID_2_" cx="128.3324" cy="127.3574" r="124.9111" gradientUnits="userSpaceOnUse">
		<stop  offset="0.2" style="stop-color:#FFFFFF"/>
		<stop  offset="0.7" style="stop-color:#FFFFFF;stop-opacity:0.6"/>
		<stop  offset="1" style="stop-color:#FFFFFF"/>
	</radialGradient>
	<path class="st1" d="M233.8,102.8c-0.3-6.9-1.3-13.8-3.3-20.6c-0.5-1.7-1-3.4-1.6-5.1c-0.3-0.8-0.6-1.7-1-2.5
		c-0.3-0.8-0.7-1.7-1.1-2.5c-1.6-3.2-3.8-6.2-6.2-8.9c-4.9-5.4-11-9.8-17.6-13c-3.3-1.6-6.8-2.9-10.5-3.9c-3.6-0.9-7.4-1.5-11.2-1.6
		c-1.9,0-3.8,0.1-5.7,0.3c-0.9,0.1-1.9,0.3-2.8,0.5c-0.5,0.1-0.9,0.2-1.4,0.3l-1.4,0.4c-3.6,1-7.2,2.4-10.7,4
		c-3.5,1.6-6.8,3.6-9.9,5.9c-3.1,2.3-6,5-8.5,8c-1.6,2-3,4.2-4.2,6.5h0c0,0,0,0,0,0.1c-0.6,1.2-1.2,2.4-1.6,3.7
		c-1,2.7-1.7,5.6-2,8.5c-1.7-0.4-3.5-0.6-5.4-0.6c-2,0-3.9,0.3-5.6,0.8c-0.3-3.2-1-6.4-2.2-9.4c-0.4-1.1-0.9-2.1-1.4-3.1
		c0,0,0,0,0-0.1h0c-1.4-2.7-3.1-5.1-5-7.4c-2.7-3.1-5.8-5.8-9.1-8.1c-3.3-2.3-6.9-4.2-10.5-5.8c-3.7-1.6-7.4-2.8-11.3-3.7
		c-3.9-0.9-7.9-1-11.9-0.6c-3.9,0.4-7.7,1.2-11.4,2.4c-3.7,1.2-7.2,2.8-10.5,4.7c-3.3,1.9-6.5,4.1-9.3,6.5c-2.9,2.5-5.5,5.2-7.7,8.2
		c-1.1,1.5-2.1,3.1-3,4.8c-0.4,0.8-0.8,1.7-1.2,2.5c-0.4,0.9-0.7,1.7-1,2.6c-1.3,3.4-2.3,6.9-3.1,10.5c-1.5,7-2.2,14.2-2.1,21.2
		c0.2,7,1.1,13.9,3,20.5c0.9,3.2,2.1,6.4,3.5,9.4c-0.1,1.4-0.1,2.8,0,4.2c0.2,3.6,0.8,6.9,1.8,10c2,6.2,5.4,11.3,9.3,14.9
		c3.8,3.7,8.1,5.9,11.9,7.1c2.3,0.8,4.4,1.2,6.3,1.4l0,0c0,0,0.1,0,0.1,0c0.3,0,0.6,0.1,0.9,0.1c0.1,0,0.1,0,0.2,0
		c1.4,0.1,2.6,0.1,2.9,0c0.8-0.1,1.8-0.3,2.5-0.6c0.6-0.3,2.4-1.4,1.8-1.7c-0.8,0.3-3.7,0.2-4.8,0.1c-2.2-0.3-4.1-0.6-4.7-0.7
		c-0.2-0.1-0.5-0.1-0.7-0.2c-0.5-0.1-1-0.3-1.6-0.5c-4.2-1.5-7.4-4-9.6-5.9c-0.1-0.1-0.1-0.1-0.2-0.2c-0.6-0.6-1.1-1.2-1.7-1.9
		c0-0.1-0.1-0.1-0.1-0.2c0,0,0,0,0,0l0,0c-2.3-3-4.2-6.8-5.2-11.1c-0.1-0.4-0.2-0.9-0.3-1.4c0.9,0.9,1.8,1.9,2.8,2.7
		c2.4,2.2,5.1,4.1,7.9,5.6c5.7,3.1,11.9,4.8,18.1,5.3c6.3,0.6,12.6-1,17.7-4.3c2.6-1.6,4.8-3.7,6.6-6c1.8-2.3,3.2-5,4.1-7.8
		c0.9-2.8,1.2-5.7,1-8.6c0-0.7-0.1-1.4-0.2-2c0.2,0.5,0.5,0.9,0.8,1.4c0.9,1.6,2,2.9,3.1,4.2c2.1,2.5,4.1,4.5,5.5,6.5
		c1.3,1.7,2,3.3,2.5,4.5c0,0.6,0.1,1.2,0.1,1.9c0.1,2.9,0.1,6,0.4,9.4c0.2,1.7,0.4,3.3,0.9,4.9c0,0.6,0.1,1.2,0.2,1.8
		c0.3,2.4,0.6,5.1,1.5,7.8c0.9,2.7,2.2,5.2,4.1,7c0.9,0.9,1.9,1.6,2.9,2.1c1,0.5,2,0.8,2.9,1c1.8,0.4,3.4,0.3,4.4,0.3
		c1-0.1,1.6-0.2,1.6-0.2c0,0-0.6,0-1.6-0.1c-1-0.1-2.4-0.3-4.1-0.9c-1.6-0.6-3.4-1.7-4.8-3.4c-0.7-0.8-1.4-1.8-1.9-2.9
		c0.9,1.1,1.9,1.9,2.7,2.3c1.1,0.7,1.9,0.9,1.9,0.9c0,0-0.5-0.6-1.2-1.6c-0.7-1-1.6-2.4-2.5-3.9c-0.7-1.2-1.4-2.3-1.9-3.2
		c0.3,0.2,0.5,0.5,0.8,0.7c1.1,0.8,2.2,1.4,3.3,1.8c0.3,0.1,0.6,0.2,1,0.3c0.4,0.4,0.8,1,1.4,1.5c0.9,0.9,2,1.9,3.7,2.8
		c0.8,0.4,1.8,0.8,2.9,0.9c0.7,0.1,1.5,0.1,2.3,0c1.1,0.3,2.3,0.3,3.3,0.2c1.1-0.2,2-0.6,2.8-1c1.6-0.9,2.7-1.9,3.6-2.8
		c0.6-0.6,1.1-1.2,1.4-1.6c0.3-0.1,0.6-0.2,0.9-0.3c0.9-0.4,1.8-0.8,2.7-1.4l-0.1,0.2c-0.4,1-1.1,2.2-1.8,3.5
		c-0.7,1.3-1.4,2.6-1.9,3.5c-0.5,1-0.7,1.6-0.7,1.6s0.6-0.3,1.5-1c0.9-0.7,2-1.7,2.9-3.2c0.6-1.1,1.9-4.1,2.6-6.1
		c-0.2,0.8-0.4,1.6-0.7,2.4c-0.8,2.5-1.9,4.8-3.4,6.5c-1.4,1.7-3.2,2.8-4.8,3.4c-1.6,0.6-3.1,0.8-4.1,0.9c-1,0.1-1.6,0.1-1.6,0.1
		c0,0,0.6,0.1,1.6,0.2c1,0.1,2.5,0.1,4.4-0.3c0.9-0.2,1.9-0.5,2.9-1.1c1-0.5,2-1.2,2.9-2.1c0.7-0.7,1.4-1.5,1.9-2.4
		c0.6,1.5-1,4.7-2.4,6.1c-0.7,0.7-1.5,1.4-2.4,2c-0.4,0.3-0.9,0.6-1.4,0.9l-0.8,0.4c-0.3,0.2-0.6,0.3-0.8,0.5
		c-2.2,1.5-3.7,3.5-4.7,5.6c-1,2-1.3,4.2-0.8,5.9c0.2,0.9,0.7,1.6,1.2,2c0.5,0.5,1,0.8,1.4,1c0.8,0.4,1.3,0.4,1.3,0.4
		c0,0-0.5-0.2-1.2-0.7c-0.3-0.3-0.7-0.6-1.1-1.1c-0.3-0.5-0.6-1.1-0.7-1.8c-0.2-1.4,0.3-3.2,1.3-4.9c1-1.7,2.5-3.4,4.3-4.7
		c0.2-0.2,0.5-0.3,0.7-0.5l0.8-0.5c0.5-0.3,1-0.7,1.5-1.1c1-0.7,1.8-1.6,2.5-2.4c1.4-1.7,2.2-3.7,2.4-5.4c0.2-1.6,0-2.9-0.3-3.8
		c0.4-0.9,0.8-1.8,1.1-2.7c0.9-2.7,1.3-5.4,1.5-7.8c0.1-0.6,0.1-1.2,0.2-1.8c0.4-1.6,0.7-3.2,0.9-4.8c0.3-3.4,0.3-6.6,0.4-9.4
		c0-0.6,0-1.3,0.1-1.9c0.4-1.2,1.2-2.8,2.5-4.5c1.4-1.9,3.4-4,5.5-6.5c1.1-1.2,2.1-2.6,3.1-4.2c0.3-0.5,0.5-0.9,0.8-1.4
		c-0.4,2.6-0.4,5.3,0.1,8c0.5,2.8,1.6,5.6,3.1,8.1c3.1,5,8,9,13.8,11c2.9,1,5.9,1.6,9,1.7c0.8,0,1.5,0,2.3,0c0.4,0,0.8-0.1,1.2-0.1
		l1.1-0.1c1.5-0.2,3.1-0.4,4.6-0.7c3-0.6,6.1-1.6,8.9-2.9c2.9-1.3,5.7-2.9,8.2-4.9c2-1.5,3.8-3.2,5.5-5c-0.2,1.1-0.5,2.2-0.8,3.3
		c-1.2,4.2-3.3,7.7-5.8,10.5c-0.3,0.3-0.6,0.7-0.9,1c-1.1,1-2.4,2.1-4,3.1c-1.6,1.1-3.5,2.1-5.6,2.8c-0.5,0.2-1,0.4-1.6,0.5
		c-0.3,0.1-0.5,0.1-0.8,0.2c-0.2,0.1-0.5,0.1-0.8,0.1c-1.3,0.3-1.9,0.3-2.6,0.4c-0.2,0-0.4,0-0.6,0.1c-1,0.1-4,0.2-4.8-0.1
		c-0.6,0.3,1.2,1.4,1.8,1.7c0.7,0.3,1.7,0.6,2.5,0.6c0.4,0,2,0,3.9-0.2l0.2,0c2.1-0.3,4.5-0.8,7-1.8c4-1.5,8.3-4,12.1-8.1
		c3.8-4,7-9.6,8.6-16.2c0.8-3.3,1.2-6.8,1.1-10.5c0-0.3,0-0.7-0.1-1c0.6-1.3,1.1-2.5,1.6-3.8l0.2,0c-0.1,0-0.1,0-0.2,0
		c1.4-3.6,2.5-7.4,3.3-11.3C233.6,116.5,234.1,109.7,233.8,102.8z M144.1,182.6c0.1-0.1,0.2-0.3,0.2-0.4
		C144.3,182.4,144.2,182.5,144.1,182.6z M135.2,83.5c0.1-0.8,0.2-1.5,0.4-2.3l-0.2-0.1c0.4-2.2,1-4.4,1.8-6.4
		c0.1,0.7,0.3,1.4,0.4,1.9c0.1,0.6,0.3,1,0.4,1.4c0,0.1,0,0.3,0.1,0.4c0.2,1.3,0.6,2.8,1.2,4.5c0.4,1.1,1,2.3,1.6,3.6
		c0.3,0.5,0.5,1.1,0.8,1.6c0,0.1,0.1,0.1,0.1,0.2c0.5,0.9,0.9,1.8,1.5,2.7c0.6,1,1.3,2,2,3c1.5,2,3.5,4,5.7,5.7
		c2,1.6,4.3,3.1,6.6,4.6c-0.8,0.7-1.5,1.4-2.1,2.2c-0.7,0.9-1.2,1.8-1.5,2.5c-0.7-0.2-1.5-0.4-2.3-0.7c-1.4-0.5-2.9-1.3-4.4-2.4
		c-3-2.1-6.2-5.4-8.7-9.7c-1.2-2.1-2.3-4.5-2.9-7.1c-0.3-1.1-0.5-2.3-0.5-3.6C135.1,85,135.2,84.3,135.2,83.5z M117.1,78.1
		c0.1-0.3,0.3-0.8,0.4-1.4c0.1-0.6,0.3-1.2,0.4-2c0,0.1,0.1,0.2,0.1,0.4c0.7,2,1.3,4,1.6,6.1l-0.2,0.1c0.2,0.9,0.4,1.7,0.4,2.6
		c0.1,0.8,0,1.5,0,2.3c-0.1,1.2-0.3,2.4-0.6,3.5c-0.7,2.7-1.8,5.1-3.1,7.2c-2.6,4.3-5.9,7.4-8.9,9.5c-1.5,1-3,1.8-4.3,2.3
		c-0.7,0.3-1.4,0.5-2,0.6c-0.4-0.8-0.8-1.6-1.5-2.5c-0.6-0.7-1.3-1.5-2.1-2.2c2.3-1.5,4.5-3,6.5-4.5c2.2-1.7,4.2-3.6,5.7-5.6
		c0.8-1,1.4-2,2-3c0.3-0.5,0.6-1,0.8-1.5l0.4-0.8l0.3-0.7c0.1-0.2,0.2-0.3,0.2-0.5c0.9-1.7,1.6-3.3,2.2-4.8c0.6-1.6,1.1-3.2,1.3-4.5
		C117.1,78.5,117.1,78.3,117.1,78.1z M25.2,122.6c-0.1-0.5-0.2-1.1-0.3-1.6c0.4,0,0.8,0,1.2,0c0.7,0,1.2-0.1,1.2-0.1
		c0,0-0.3-0.2-1-0.6c-0.4-0.2-1-0.5-1.6-0.9c-0.7-4.4-1-9-1-13.5c0.7,0.3,1.4,0.5,1.9,0.6c0.9,0.2,1.4,0.2,1.4,0.2
		c0,0-0.4-0.3-1.1-0.8c-0.6-0.5-1.4-1.2-2.2-2.1c0-0.3,0-0.6,0-0.9c0.2-4.4,0.7-8.8,1.5-13.1c0.1,0.1,0.2,0.3,0.3,0.4
		c0.6,0.9,1.2,1.7,1.7,2.3c1,1.2,1.7,1.7,1.7,1.7c0,0-0.5-0.7-1.1-2.1c-0.3-0.7-0.7-1.5-1.1-2.6c-0.3-0.7-0.6-1.5-0.9-2.4
		c0.3-1.5,0.7-2.9,1.1-4.4c0.5-1.6,1-3.3,1.6-4.9c0.3-0.8,0.6-1.6,0.9-2.4c0.3-0.8,0.7-1.5,1.1-2.3c0.5-0.9,1-1.9,1.6-2.8
		c1.3,1.8,2.3,3.3,3.1,4.4c1,1.4,1.5,2.3,1.5,2.3c0,0-0.2-0.9-0.9-2.6c-0.5-1.4-1.4-3.4-2.6-5.8c1-1.4,2-2.7,3.2-4
		c1.4-1.5,2.9-3,4.4-4.3c1.4,1.9,2.6,3.4,3.6,4.5c1.1,1.3,1.7,1.9,1.7,2L45,64.6c-0.6-1.3-1.5-3.2-2.7-5.4c3.3-2.7,7-5,11-6.9
		c0.1,0,0.1-0.1,0.2-0.1c1.2,1.1,2.2,2.1,2.9,2.9l1.4,1.5c0,0-0.2-0.7-0.8-1.9c-0.4-0.9-1-2-1.9-3.3c2.6-1.2,5.4-2.1,8.2-2.9
		c1.7-0.5,3.5-0.8,5.3-1.1c0.9,0.9,1.6,1.8,2.1,2.4c0.6,0.7,1,1.1,1,1.1s-0.1-0.5-0.4-1.4c-0.2-0.6-0.4-1.4-0.8-2.3
		c1.2-0.1,2.3-0.2,3.5-0.2c1.8,0,3.6,0.1,5.4,0.3c0.9,0.1,1.8,0.3,2.6,0.4c0.4,0.1,0.9,0.2,1.3,0.3l1.3,0.4c1.3,0.4,2.6,0.8,3.8,1.2
		c0.7,1.3,1.3,2.2,1.8,2.9l0.8,1.3c0,0,0-0.5-0.2-1.5c-0.1-0.5-0.2-1.2-0.4-1.9c1.5,0.6,3,1.2,4.5,1.9c3.3,1.6,6.6,3.4,9.6,5.6
		c0.3,0.2,0.6,0.4,0.8,0.6c0.3,1.6,0.6,3,0.7,4c0.2,1.2,0.4,1.8,0.4,1.8s0.2-0.6,0.3-1.8c0.1-0.7,0.2-1.5,0.3-2.6
		c2,1.7,3.9,3.5,5.5,5.6c1.5,1.9,2.9,3.9,4,6c0.1,0.9,0.1,1.6,0.2,2.3c-0.1-0.3-0.2-0.5-0.3-0.7c-0.2-0.4-0.4-0.6-0.4-0.6
		c0,0,0.1,0.2,0.3,0.6c0.1,0.3,0.3,0.7,0.4,1.2c0.1,0.8,0.1,1.6,0.1,2.2c0,0.2,0,0.5,0,0.7c0,0.4-0.1,0.8-0.2,1.2
		c-0.3,1.3-0.8,2.7-1.5,4.3c-0.7,1.6-1.6,3.2-2.7,5c-0.5,0.9-1.1,1.9-1.7,2.8c-0.6,0.9-1.3,1.9-2.1,2.8c-1.5,1.9-3.5,3.6-5.7,5.2
		c-2.2,1.6-4.7,3.1-7.3,4.7c-0.6-0.4-1.1-0.7-1.8-1.1c-0.4-0.2-0.9-0.4-1.3-0.7c-0.2-1.7-0.6-3.4-1.1-5c-0.3-0.8-0.6-1.5-0.9-2.3
		c3.9-3,7.2-6.2,9.7-9.3c2.6-3.4,4.3-6.7,5.1-9.6c0.9-2.9,0.9-5.3,0.9-6.8c-0.1-1.6-0.3-2.4-0.2-2.4c0,0,0.1,0.8,0,2.3
		c-0.1,1.5-0.3,3.8-1.3,6.5c-1,2.7-2.8,5.8-5.5,9c-2.5,2.9-5.7,5.8-9.6,8.5c-0.5-0.8-1-1.7-1.5-2.4c-1.4-1.9-3-3.7-4.9-5.1
		c3.1-3.5,5.1-7.4,6.4-10.9c1.3-3.8,1.8-7.3,1.8-10.1c0-2.8-0.3-5-0.7-6.4c-0.3-1.4-0.6-2.2-0.6-2.2c0,0,0.2,0.7,0.4,2.2
		c0.2,1.4,0.4,3.5,0.2,6.3c-0.2,2.7-0.8,6-2.3,9.6c-1.4,3.4-3.5,7.1-6.8,10.3c-1.5-1-3.1-1.8-4.8-2.4c-0.7-0.2-1.4-0.4-2-0.6
		c0.8-1.5,1.4-3,1.8-4.5c0.5-2,0.7-3.9,0.7-5.7c0-3.6-0.6-6.6-1.2-9c-0.7-2.4-1.5-4.1-2-5.3c-0.6-1.2-0.9-1.7-0.9-1.7
		c0,0,0.3,0.6,0.7,1.8c0.4,1.2,1,3,1.5,5.3c0.5,2.4,0.8,5.3,0.6,8.7c-0.1,1.7-0.4,3.5-1,5.3c-0.5,1.6-1.2,3.2-2.2,4.6
		c-1-0.1-2-0.2-3-0.2c-1.1,0-2.1,0.1-3.1,0.2c-0.1-1.4-0.4-2.7-0.7-4c-0.4-1.6-0.9-3.1-1.4-4.4c-1-2.7-2.1-4.9-3-6.7
		c-1.8-3.6-2.7-5.6-2.7-5.6c0,0,0.6,2.1,2,5.8c0.7,1.9,1.5,4.1,2.3,6.8c0.4,1.3,0.8,2.8,1.1,4.3c0.2,1.3,0.4,2.7,0.4,4.1
		c-0.7,0.2-1.3,0.4-1.9,0.6c-1.7,0.6-3.3,1.5-4.8,2.5c-1.9-1.7-3.3-3.6-4.4-5.4c-1.2-1.9-2.1-3.7-2.8-5.2c-1.5-2.9-2.4-4.5-2.4-4.5
		c0,0,0.7,1.6,1.8,4.7c0.6,1.5,1.2,3.4,2.2,5.6c0.9,1.9,2.1,4,4,6c-1.7,1.4-3.2,3-4.4,4.8c-0.3,0.3-0.5,0.7-0.7,1.1
		c-1.6-1-3-2-4.1-3.1c-1.4-1.3-2.6-2.5-3.5-3.6l-2.9-3.2c0,0,0.8,1.3,2.3,3.6c0.8,1.2,1.7,2.6,3.1,4.1c1.1,1.3,2.5,2.6,4.1,3.8
		c-1.3,2.2-2.3,4.5-3,6.9c-0.9,0.1-1.7,0.1-2.6,0c-1-0.1-2-0.4-2.8-0.6c-1.8-0.6-3.3-1.2-4.5-1.7c-2.5-1.1-3.9-1.6-3.9-1.6
		c0,0,1.2,0.8,3.5,2.2c1.1,0.7,2.6,1.6,4.4,2.4c0.9,0.4,1.9,0.8,3,1.1c0.7,0.2,1.5,0.3,2.4,0.3c0,0.2-0.1,0.4-0.1,0.5
		c-0.4,1.7-0.7,3.4-0.9,5.1c-2.2,0.6-4.3,0.7-6.2,0.7c-2,0-3.7-0.2-5.1-0.4c-2.8-0.4-4.3-0.9-4.3-0.8c0,0,1.4,0.7,4.1,1.5
		c1.4,0.4,3.1,0.8,5.2,1c1,0.1,2.1,0.2,3.3,0.2c0.9,0,1.9-0.1,2.9-0.2c-0.1,0.7-0.1,1.5-0.1,2.2c-0.6,0.3-1.1,0.6-1.7,0.9
		c-3.7,2.1-6.8,4.9-9.2,8c-0.2,0-0.4,0-0.6,0c-3.1,0.2-4.8-0.1-4.8-0.1c0,0,1.6,0.6,4.7,0.8c0,0,0.1,0,0.1,0
		c-2.4,3.3-4,6.9-4.9,10.5c-0.2,0.7-0.4,1.4-0.5,2.2C27,130.1,26,126.4,25.2,122.6z M52.3,173.2l0.6-0.5c0.2,0.1,0.5,0.2,0.7,0.2
		c0.5,0.2,0.9,0.3,1.4,0.5c0.3,0.1,0.5,0.1,0.8,0.2c0.2,0.1,0.5,0.1,0.7,0.1c0.1,0,0.2,0,0.3,0c0.8,0.1,0.4,0.1,0.8,0.1
		c0.1,0,0.3,0,0.5,0c0.6,0.3,0.8,1,0.8,1s0.1-0.6,0.7-0.8c0.6,0.1,2.1,0.2,2.5,0.2c0.7,0,2,0.1,2,0.1c0.1,0.2-1.4,0.8-4,0.9
		c-0.2,0-0.6,0-1,0c-1.7-0.2-3.5-0.5-5.3-0.9c-0.7-0.2-1.4-0.4-2-0.6C51.9,173.8,52.1,173.3,52.3,173.2z M92.9,141.9
		c-0.5,0-0.9,0.1-1.2,0.1c-0.6,0.1-1,0.3-1,0.3c0,0,0.3,0.1,0.9,0.4c0.3,0.1,0.7,0.3,1.1,0.6c0,0.3-0.1,0.6-0.2,0.9
		c-0.5,2.6-1.5,5.1-2.9,7.4c-0.7,1.1-1.5,2.1-2.3,3.1c-0.1-0.1-0.3-0.2-0.4-0.2c-0.5-0.3-0.8-0.3-0.8-0.3c0,0,0.2,0.3,0.3,0.7
		c0.1,0.2,0.1,0.4,0.1,0.7c-2.6,2.7-6,4.8-9.6,6.1c-1,0.4-2,0.6-3.1,0.9c-0.3-0.6-0.5-1.1-0.8-1.5c-0.3-0.6-0.6-0.9-0.6-0.9
		s-0.1,0.4-0.1,1.1c0,0.4-0.1,1-0.1,1.6c-1.2,0.2-2.5,0.3-3.8,0.3c-0.7,0-1.4,0-2.2-0.1c-0.4,0-0.7-0.1-1.1-0.1l-1.1-0.1
		c-0.4,0-0.7-0.1-1.1-0.1c-0.2-2.1,0-3.5,0-3.5c0,0-0.3,0.4-0.7,1.2c-0.3,0.5-0.6,1.2-0.8,2.1c-0.6-0.1-1.2-0.2-1.7-0.3
		c-3.6-0.8-7.2-2-10.6-3.8c-0.2-2.5,0.3-4.2,0.2-4.2c0,0-0.4,0.4-0.9,1.2c-0.3,0.5-0.7,1.2-0.9,2.2c-1.4-0.8-2.8-1.7-4.1-2.7
		c-1.4-1.1-2.7-2.3-4-3.5c-0.1-0.3-0.1-0.6-0.1-0.9c-0.1-0.5-0.1-0.9,0-1.3c0-0.7,0.2-1.1,0.1-1.1c0,0-0.3,0.2-0.8,0.9
		c-0.2,0.3-0.4,0.6-0.5,1c-0.7-0.7-1.3-1.5-2-2.3c-0.1-2.9,0.2-5.9,1.1-8.9c0.7-2.4,1.7-4.8,3.1-7.1c0.9-0.5,1.9-1,3.1-1.5
		c1.2-0.5,2.6-1.1,4.1-1.7c0.7,2,1.5,3.9,2.4,5.7c-1.4,0.7-2.6,1.5-3.5,2.4c-1.4,1.2-2.3,2.5-3,3.6c-0.7,1.1-1.1,2-1.4,2.6
		c-0.3,0.6-0.4,0.9-0.4,0.9c0,0,0.2-0.3,0.5-0.8c0.4-0.5,0.9-1.3,1.7-2.3c0.8-0.9,1.9-2,3.3-3c1-0.7,2.2-1.4,3.6-1.9
		c0.5,0.8,1,1.6,1.6,2.4c0.8,1.1,1.7,2,2.6,3c-0.6,0.6-1.1,1.3-1.4,1.9c-0.5,1-0.8,1.8-1,2.5c-0.4,1.4-0.7,2.2-0.7,2.2
		c0,0,0.5-0.6,1.3-1.8c0.7-1,1.6-2.6,3.2-3.5c0.1,0.1,0.2,0.1,0.2,0.2c1.6,1.3,3.3,2.3,5.2,3.1c0.3,0.1,0.6,0.2,0.9,0.4
		c-0.2,1.7-0.2,3.1-0.1,4c0.1,1.1,0.3,1.7,0.3,1.7s0.1-0.6,0.4-1.6c0.2-0.9,0.6-2.1,1.2-3.5c1,0.3,2,0.5,3,0.6
		c0.4,0.1,0.9,0.1,1.3,0.2c0.3,0.9,0.5,1.8,0.7,2.5c0.2,0.9,0.4,1.6,0.6,2.2c0.4,1.2,0.7,1.9,0.7,1.9c0,0,0-0.7,0-1.9l0-2.3
		c0-0.7,0-1.4-0.1-2.3c0.3,0,0.7,0,1,0c0.5,0,1,0,1.5-0.1c0.8-0.1,1.7-0.3,2.5-0.6c0.8,0.4,1.5,1,2.2,1.6c0.7,0.7,1.3,1.3,1.9,1.7
		c1.1,1,1.8,1.3,1.8,1.3c0,0-0.5-0.6-1.2-1.8c-0.4-0.6-0.8-1.3-1.4-2.2c-0.3-0.4-0.6-0.9-1-1.3c-0.1-0.1-0.2-0.2-0.3-0.3
		c0.4-0.3,0.8-0.6,1.2-1c0.7-0.7,1.3-1.6,1.7-2.6c0.1-0.2,0.1-0.4,0.2-0.5c0.8,0.1,1.6,0.2,2.4,0.2c1,0.1,1.9,0.1,2.6,0
		c1.4-0.1,2.2-0.3,2.2-0.2c0,0-0.8-0.1-2.1-0.5c-0.7-0.2-1.5-0.4-2.4-0.7c-0.7-0.2-1.4-0.4-2.2-0.7c0-0.2,0-0.4,0.1-0.6
		c0.1-1.7-0.2-3.4-0.7-5c1.6-0.8,2.9-1.3,3.9-1.8l1.8-0.8c0,0-0.7,0-1.9,0.1c-1.1,0.1-2.6,0.3-4.4,0.7c-0.6-1.3-1.3-2.5-2.2-3.7
		c-0.2-0.3-0.4-0.5-0.6-0.8c0.8-1.2,1.7-2.2,2.3-2.9l1.1-1.2c0,0-0.6,0.2-1.5,0.7c-0.8,0.4-1.9,1-3.1,2.1c-1.4-1.4-3-2.5-4.7-3.4
		c0.5-1,1-1.8,1.3-2.4c0.4-0.7,0.7-1.2,0.7-1.2c0,0-0.4,0.2-1.2,0.7c-0.7,0.4-1.6,1.1-2.6,2.2c0,0,0,0,0,0c-0.8-0.3-1.6-0.6-2.4-0.8
		c-0.6-0.1-1.1-0.2-1.7-0.3c-0.1-1.1,0.2-2.1,0.5-2.8c0.3-0.8,0.6-1.3,0.6-1.3c0,0-0.5,0.2-1.1,0.8c-0.3,0.3-0.7,0.8-1.1,1.4
		c-0.2,0.4-0.5,0.9-0.6,1.5c-1.3-0.2-2.5-0.3-3.8-0.3c-0.2,0-0.5,0-0.7,0c0-1.3,0.1-2.5,0.2-3.3c0.2-1.1,0.3-1.7,0.3-1.7
		c0,0-0.4,0.5-0.9,1.5c-0.4,0.8-1,2-1.3,3.6c-1.8,0-3.5,0.2-5.2,0.5c-0.5-1.4-0.8-2.6-1-3.5c-0.3-1.2-0.4-1.8-0.4-1.8
		c0,0-0.2,0.6-0.3,1.9c-0.1,0.9-0.1,2.3,0,3.9c0,0,0,0-0.1,0c-0.7,0.2-1.3,0.4-2,0.6c-0.8,0.3-1.5,0.6-2.3,1c0,0,0,0-0.1,0
		c-0.4,0.2-0.8,0.5-1.2,0.7c-0.7-0.7-1.2-1.5-1.6-2c-0.5-0.6-0.8-1-0.8-1c0,0,0,0.4,0.1,1.2c0.1,0.7,0.3,1.7,0.8,2.9
		c-0.3,0.3-0.7,0.6-1,0.9c-1,1.1-1.9,2.2-2.6,3.3c-0.6,0-1.3-0.3-1.8-0.5c-0.6-0.3-1.2-0.6-1.6-0.9c-0.9-0.6-1.3-1-1.3-1
		c0,0,0.2,0.5,0.8,1.4c0.3,0.5,0.7,1,1.3,1.5c0.4,0.4,0.9,0.8,1.6,1.1c-0.3,0.5-0.5,0.9-0.8,1.4c-0.6,0.7-0.9,1.1-0.9,1.1
		c0,0,0.2-0.2,0.6-0.5c-0.7,1.5-1.3,3-1.7,4.6c-2.2-0.6-3.7-0.4-3.7-0.4c0,0,1.3,0.9,3.2,2.3c-0.1,0.4-0.2,0.8-0.2,1.1
		c-0.2,1.4-0.4,2.7-0.4,4c-0.3,0-0.5,0-0.7,0c-0.9,0-1.8,0.1-2.4,0.2c-0.1,0-0.2,0-0.3,0c-0.8,0.1-1.2,0.3-1.2,0.3l1.4,0.4
		c0.1,0,0.2,0.1,0.3,0.1c0.8,0.2,1.7,0.5,2.9,0.9c0,1.1,0.1,2.2,0.3,3.3c0.1,0.6,0.2,1.3,0.3,1.9c-0.4,0.2-0.7,0.5-1,0.7
		c-0.3,0.2-0.6,0.4-0.8,0.6c-0.5,0.3-0.8,0.4-0.8,0.4c0,0,0.3,0.2,0.9,0.2c0.3,0,0.7,0,1.1,0c0.3,0,0.7-0.1,1-0.1
		c0.1,0.5,0.3,1,0.4,1.4c0.3,1,0.7,2.1,1.2,3c-0.4,0.3-0.8,0.6-1,0.9c-0.4,0.4-0.5,0.7-0.5,0.7c0,0,0.3,0,0.8-0.1
		c0.4,0,0.9,0,1.4-0.1c0.6,1.2,1.4,2.4,2.1,3.5l-0.2-0.1c0,0.1,0.1,0.3,0,0.5c-0.1,0.2-0.1,0.4-0.2,0.5c-0.2,0.3-0.3,0.5-0.3,0.5
		c0,0,0.2,0.1,0.6,0.1c0.2,0,0.4,0,0.7-0.1c0.1,0,0.2-0.1,0.3-0.2c0.4,0.5,0.8,0.9,1.2,1.4c0.5,0.6,1.1,1.1,1.6,1.6
		c0,0.4-0.1,0.9-0.3,1.2c-0.1,0.4-0.3,0.6-0.3,0.6s0.2,0.1,0.7,0c0.3-0.1,0.8-0.2,1.2-0.6c1.8,1.4,3.6,2.5,5.4,3.3
		c0.2,0.1,0.4,0.2,0.6,0.3c0,0.1,0,0.3,0,0.4c0,0.3,0,0.5,0,0.6c0,0.2,0.1,0.4,0.1,0.5c-3.4-1-6.2-2.4-8.3-3.7
		c-1.1-0.7-2-1.3-2.7-1.8c-1-0.9-2-1.8-2.9-2.8c-3.7-4-6.8-9.5-8.3-16c-0.7-3-1.1-6.3-1-9.6c0-0.2,0-0.5,0-0.7
		c0.1-1.3,0.2-2.6,0.4-3.9c0.4-2.3,1-4.7,1.9-7c1-2.6,2.4-5.1,4.2-7.4c0.3-0.3,0.5-0.7,0.8-1c0.5-0.5,0.9-1.1,1.5-1.6
		c2.2-2.2,4.8-4.1,7.7-5.6c0.8-0.4,1.6-0.8,2.4-1.1c0.1-0.1,0.3-0.1,0.4-0.2c0.5-0.2,1-0.4,1.5-0.6c0.5-0.2,1-0.3,1.6-0.5
		c0,0,0,0,0,0c0,0.1-0.1,0.2-0.1,0.4c-0.1,0.5-0.1,1-0.1,1.4c0,0.7,0.1,1.1,0.1,1.1c0,0,0.2-0.3,0.6-1c0.4-0.6,0.9-1.4,1.7-2.1
		l-0.3-0.2c0.4-0.1,0.9-0.2,1.4-0.3c2.1-0.3,4.3-0.5,6.5-0.4c0,0.7,0.1,1.1,0.1,1.1s0.7-0.3,1.5-1c2.3,0.2,4.6,0.7,6.9,1.4
		c-0.1,0.3-0.2,0.6-0.3,0.8c-0.1,0.5-0.1,0.8-0.1,0.8l0.7-0.4c0.3-0.2,0.8-0.4,1.4-0.7c1.3,0.5,2.5,1,3.8,1.6c0.6,0.3,1.3,0.7,1.9,1
		c0.8,0.5,1.6,1,2.4,1.5c-0.4,0.3-0.7,0.5-1,0.7c-0.2,0.2-0.4,0.3-0.6,0.5c-0.6,0.5-0.9,0.8-0.9,0.8s0.4,0,1.1-0.1
		c0.3-0.1,0.7-0.1,1.1-0.2c0.5-0.1,1.1-0.2,1.8-0.4c1.6,1.3,3.2,2.8,4.6,4.4c0.1,0.1,0.2,0.2,0.3,0.3c-0.4,0.3-0.7,0.5-1,0.7
		c-0.5,0.4-0.8,0.7-0.8,0.7l1-0.1c0.4,0,1-0.1,1.7-0.2c1.6,2.1,3,4.4,4,6.9c-0.3,0.2-0.5,0.3-0.7,0.5c-0.4,0.3-0.7,0.6-0.7,0.6
		s0.3,0,0.8,0.1l0.9,0.1c0,0,0.1,0,0.1,0c0.7,1.8,1.2,3.6,1.5,5.4C92.9,138.1,93,140,92.9,141.9z M41.8,129.7
		c0.3-0.5,0.7-0.9,1.1-1.4c0.2-0.3,0.5-0.5,0.7-0.8c0.2-0.3,0.5-0.5,0.7-0.7c0.5-0.5,1-0.9,1.6-1.2c0.3-0.2,0.5-0.3,0.8-0.5
		c0.1,0.5,0.2,1,0.4,1.4c-1.5,0.8-2.9,1.6-4.1,2.3C42.6,129.2,42.2,129.4,41.8,129.7z M48.9,124.1c1.6-0.6,3.3-1,5-1.2
		c2.9-0.4,6-0.3,9.1,0.1c0.8,0.1,1.5,0.2,2.3,0.4c0.8,0.2,1.5,0.3,2.3,0.5c1.5,0.4,2.9,1.1,4.2,1.9c2.6,1.7,4.9,4.1,6.2,7
		c0.7,1.4,1.2,3,1.3,4.6c0.1,1.6-0.1,3.2-0.8,4.5c-0.7,1.3-2,2.3-3.5,2.7c-0.8,0.2-1.6,0.4-2.4,0.4c-0.8,0-1.7,0-2.6,0
		c-3.5-0.2-7-1.2-9.9-3.2c-3-1.9-5.5-4.7-7.3-7.9C51,131,49.7,127.6,48.9,124.1z M92.9,129.1c0,0.2,0,0.4,0,0.6c0,0.2,0,0.4,0,0.6
		c-1.1-3-2.7-5.8-4.6-8.3c0.6,0.2,1.1,0.3,1.6,0.5c0.6,0.2,1.1,0.4,1.6,0.7c0.2,0.3,0.5,0.7,0.7,1.1c0.3,0.5,0.5,1.2,0.5,1.8l0.2,0
		c0,0.1,0,0.2,0,0.3c0,0.8-0.1,1.8-0.2,2.8H92.9z M93.9,115.1c-0.7-1.1-1.5-2.1-2.2-2.9c-0.8-0.8-1.6-1.4-2.3-1.9
		c-1.5-1-2.8-1.6-3.6-2c-0.9-0.3-1.4-0.5-1.4-0.5c0,0,0.4,0.2,1.2,0.6c0.1,0.1,0.2,0.1,0.3,0.2c0.5,0.4,1.5,1.3,2.8,2.7
		c0.9,1,2,2.4,3,4.1c0.5,0.8,1,1.8,1.3,2.8c0.1,0.3,0.2,0.6,0.2,0.9c-0.5-1-1.2-1.8-1.8-2.4c-1.6-1.6-3.2-2.6-4.4-3.5
		c-1.3-0.8-2.3-1.4-3-1.8l-1.1-0.6l0.9,0.8c0.6,0.5,1.5,1.2,2.7,2.2c1.1,0.9,2.4,2.1,3.7,3.6c-1-0.8-1.9-1.3-2.7-1.7
		c-1-0.5-1.8-0.8-2.3-1c-0.6-0.2-0.8-0.3-0.8-0.3l0.7,0.5c0.5,0.3,1.2,0.8,2,1.4c0.8,0.7,1.9,1.5,2.8,2.7c0.1,0.2,0.3,0.3,0.4,0.5
		c-0.2-0.1-0.4-0.2-0.6-0.3c-1.7-0.8-3.1-1.4-4.2-2.1c-1.1-0.6-1.8-1.3-2.2-1.8c-0.4-0.5-0.6-0.9-0.6-0.9c0,0,0.1,0.3,0.4,0.9
		c0.3,0.6,0.9,1.4,2,2.3c1,0.8,2.4,1.7,3.9,2.7c0.7,0.5,1.5,1,2.1,1.7c-0.2-0.1-0.5-0.3-0.7-0.4c-0.9-0.4-1.9-0.8-3-1.3
		c-0.2-0.1-0.4-0.2-0.6-0.3c-0.9-1-1.8-1.9-2.7-2.7c-1.6-1.5-3.4-2.8-5.3-4c0,0,0,0,0,0c-0.3-0.6-0.6-1.3-0.9-1.9l-0.2-0.5l-0.1-0.2
		c0,0,0-0.1-0.1-0.1l0-0.1l-0.1-0.1c-0.2-0.3-0.3-0.6-0.4-0.9c-0.6-1.2-1-2.5-1.4-3.7c-0.8-2.4-1.2-4.7-1.6-6.6l-0.9-4.5
		c0.3,0.7,0.8,1.4,1.3,2.1c1.1,1.4,2.6,2.9,4.3,4.5c1.7,1.5,3.8,3,5.9,4.6c2.1,1.5,4.1,2.9,5.8,4.3c1.7,1.4,3.1,2.7,4,4.1
		c0.4,0.7,0.7,1.3,0.8,1.9c0,0.1,0,0.2,0,0.3c0,0.3-0.1,0.7-0.1,1.1C94.6,116.5,94.3,115.8,93.9,115.1z M110.5,174.9
		c0-0.1,0-0.2-0.1-0.2c0,0,0,0.1,0.1,0.1C110.5,174.8,110.5,174.9,110.5,174.9z M142.7,176.6c0.1-0.1,0.1-0.1,0.2-0.2
		C142.8,176.6,142.7,176.7,142.7,176.6z M159.9,132.2c-0.3,1.7-1,3.3-1.8,4.7c-0.8,1.5-1.8,2.8-2.7,4.1c-1.9,2.5-3.8,4.8-5,7
		c-0.6,1.1-1.1,2.2-1.5,3.1c0.1-1.3,0.3-2.6,0.5-3.7c0.4-2.1,1.1-3.7,1.7-4.8c0.6-1.1,1-1.6,1-1.6c0,0-0.5,0.5-1.2,1.5
		c-0.7,1-1.7,2.6-2.4,4.7c-0.6,1.7-1,3.8-1.3,6.1c-0.1-1.2-0.2-2.4-0.4-3.7c-0.5-2.7-1.4-5.6-2.4-8.6c-1-3-2.1-5.7-2.9-8.2
		c-0.8-2.5-1.4-4.8-1.6-6.8c-0.3-2-0.3-3.6-0.3-4.8c0-1.1,0.1-1.8,0.1-1.8c0,0-0.2,0.6-0.5,1.7c-0.3,1.1-0.6,2.8-0.7,4.9
		c-0.1,2.1,0.2,4.6,0.8,7.3c0.6,2.7,1.5,5.6,2.5,8.5c1,2.9,2,5.7,2.7,8.2c0.7,2.5,1.1,4.9,1.3,6.8c0.1,2,0,3.6-0.1,4.8
		c-0.1,1.1-0.3,1.8-0.3,1.8c0,0,0.3-0.6,0.7-1.7c0.2-0.5,0.4-1.2,0.6-1.9c-0.1,1.4-0.2,2.9-0.3,4.4c-0.3,3.2-1,6.2-2.3,8.6
		c-0.7,1.2-1.5,2.2-2.4,3c-0.9,0.8-1.9,1.5-2.8,2c-1.9,1-3.6,1.5-4.7,1.9c-1.2,0.3-1.8,0.5-1.8,0.5c0,0,0.7,0,1.9-0.1
		c0.9-0.1,2-0.3,3.4-0.7c-0.3,0.2-0.6,0.5-1,0.8c-1,0.7-2.2,1.5-3.7,2.1c-0.7,0.3-1.6,0.5-2.4,0.5c-0.6-0.3-1.2-0.8-1.5-1.3
		c0-0.2-0.1-0.4-0.1-0.7c-0.1-0.7-0.2-1.8,0.3-2.9c0.4-1.1,1.3-2.3,2.5-3.4c1.2-1.2,2.7-2.3,4.2-3.6c0.4-0.3,0.8-0.7,1.1-1.1
		c0.4-0.4,0.7-0.8,1-1.2c0.6-0.9,1.1-1.8,1.2-2.9c0.1-0.5,0-1.1-0.2-1.6c-0.2-0.5-0.6-1-1-1.3c-0.8-0.6-1.7-0.7-2.4-0.7
		c-1.4-0.1-2.5,0.2-3.2,0.4c-0.7,0.2-1.1,0.3-1.1,0.3s0.4,0,1.2,0c0.7,0,1.8,0,3,0.3c0.6,0.2,1.2,0.4,1.6,0.8
		c0.4,0.4,0.5,0.9,0.4,1.6c-0.1,0.6-0.5,1.4-1.1,2c-0.1,0.1-0.1,0.1-0.2,0.2c-0.1-0.1-0.3-0.3-0.6-0.5c-0.3-0.2-0.7-0.4-1.3-0.5
		c-0.3,0-0.6,0-1,0.1c-0.3,0.1-0.7,0.4-0.9,0.7c-0.5,0.6-0.6,1.2-0.6,1.7c0,0.5,0.1,0.9,0.2,1.2c0.1,0.5,0.3,0.8,0.3,1
		c-0.7,0.6-1.3,1.3-1.9,2c-1.6,0.5-3.5,0.4-5.1-0.2c-0.6-0.6-1.3-1.3-2-1.9c0.1-0.2,0.2-0.5,0.3-0.9c0.1-0.3,0.2-0.7,0.2-1.2
		c0-0.5-0.1-1.1-0.6-1.7c-0.2-0.3-0.6-0.5-0.9-0.7c-0.3-0.1-0.7-0.2-1-0.1c-0.6,0.1-1,0.3-1.3,0.5c-0.3,0.2-0.5,0.4-0.6,0.5
		c0,0,0-0.1-0.1-0.1c-0.5-0.7-1-1.4-1.1-2c-0.2-0.7-0.1-1.2,0.3-1.6c0.4-0.4,1-0.7,1.6-0.8c1.2-0.3,2.3-0.3,3.1-0.3
		c0.8,0,1.2,0,1.2,0s-0.4-0.2-1.1-0.3c-0.7-0.2-1.8-0.5-3.3-0.4c-0.4,0-0.7,0.1-1.2,0.2c-0.4,0.1-0.8,0.3-1.2,0.6
		c-0.4,0.3-0.8,0.8-0.9,1.3c-0.2,0.5-0.2,1.1-0.1,1.7c0.2,1.1,0.7,2.1,1.3,2.9c0.3,0.4,0.7,0.8,1,1.2c0.2,0.2,0.4,0.4,0.6,0.6
		c0.2,0.2,0.4,0.3,0.6,0.5c1.6,1.4,3.2,2.5,4.5,3.6c1.3,1.1,2.3,2.2,2.9,3.3c0.5,1,0.6,2,0.5,2.8l-1.7,1.9c-1.1,0.1-2.3-0.1-3.3-0.4
		c-1.5-0.5-2.8-1.3-3.7-2c-0.4-0.3-0.7-0.5-1.1-0.8c1.3,0.4,2.5,0.5,3.3,0.6c1.2,0.1,1.9,0.1,1.9,0.1c0,0-0.7-0.1-1.8-0.5
		c-1.2-0.3-2.9-0.9-4.7-1.9c-0.9-0.5-1.9-1.2-2.8-2c-0.9-0.8-1.7-1.8-2.4-3c-1.3-2.3-2-5.4-2.3-8.6c-0.2-1.5-0.3-2.9-0.3-4.4
		c0.2,0.8,0.4,1.4,0.6,1.9c0.4,1.1,0.7,1.7,0.7,1.7c0,0-0.1-0.6-0.3-1.8c-0.1-1.1-0.3-2.8-0.1-4.8c0.1-2,0.6-4.3,1.3-6.8
		c0.7-2.5,1.7-5.3,2.7-8.2c1-2.9,1.9-5.8,2.5-8.5c0.6-2.7,0.8-5.2,0.8-7.3c-0.1-2.1-0.4-3.8-0.7-4.9c-0.3-1.1-0.5-1.7-0.5-1.7
		c0,0,0.1,0.6,0.1,1.8c0,1.1,0,2.8-0.3,4.8c-0.3,2-0.8,4.3-1.6,6.8c-0.8,2.5-1.8,5.3-2.9,8.2c-1,2.9-1.9,5.9-2.4,8.6
		c-0.2,1.3-0.4,2.6-0.4,3.7c-0.3-2.3-0.7-4.3-1.3-6.1c-0.7-2.1-1.6-3.7-2.4-4.7c-0.7-1-1.3-1.4-1.2-1.5c0,0,0.4,0.6,1,1.6
		c0.6,1.1,1.2,2.7,1.7,4.8c0.2,1.1,0.4,2.3,0.5,3.6c-0.3-1-0.8-2-1.5-3.1c-1.2-2.2-3.1-4.5-5-7c-1-1.3-1.9-2.6-2.7-4.1
		c-0.8-1.5-1.5-3-1.8-4.7c-0.2-0.8-0.3-1.7-0.3-2.5c0-0.5,0-0.9,0-1.4c0.3,0.6,0.7,1.1,1.2,1.7c-0.1,0.4-0.2,0.9-0.2,1.6
		c0,1.4,0.5,3.3,1.6,5.1c1.1,1.8,2.5,3.1,3.7,3.8c1.1,0.8,2,1,2,1c0,0-0.5-0.7-1.3-1.7c-0.7-1.1-1.6-2.5-2.6-4.2
		c-1-1.6-1.8-3.1-2.3-4.2c-0.2-0.4-0.3-0.7-0.4-1c0.8,0.7,1.7,1.3,2.7,1.6c0.1,0,0.1,0,0.2,0.1c0.1,0,0.2,0.1,0.3,0.1
		c0.2,0,0.3,0,0.4,0c0.3,0,0.6,0,0.9,0c0.6,0,1.1-0.1,1.6-0.2c1-0.2,1.8-0.5,2.7-0.8c1.6-0.6,3-1,4.1-1c0.3,0,0.5,0.1,0.7,0.1
		c0.3,0.2,0.5,0.5,0.8,0.7c0.4,0.4,0.7,0.9,0.8,1.3c0.2,0.4,0.2,0.9,0.2,1.2c0,0.7-0.1,1.1-0.1,1.1c0,0,0.2-0.3,0.4-1.1
		c0.1-0.4,0.2-0.8,0.1-1.4c-0.1-0.6-0.3-1.2-0.6-1.8c-0.7-1.2-1.9-2.3-3.3-3.3c-0.7-0.5-1.4-1.1-2-1.6c-0.3-0.3-0.6-0.6-0.9-0.9
		c-0.1-0.1-0.1-0.2-0.2-0.2c0,0-0.1-0.1-0.1-0.1l-0.1-0.1c0-0.1-0.1-0.1-0.1-0.1c-0.1-0.2-0.3-0.3-0.4-0.5c-0.5-0.7-1-1.5-1.6-2.3
		c-0.5-0.8-1.1-1.5-1.6-2.2c-0.6-0.7-1.2-1.3-2.1-1.7c-0.4-0.2-0.9-0.3-1.4-0.3c-0.5,0.1-0.9,0.3-1.2,0.6c-0.4,0.3-0.6,0.7-0.8,1
		c0.2-1.8,0.2-3.6-0.1-5.1c-0.2-1.3-0.6-2.4-1.1-3.2c-0.5-0.9-1.1-1.5-1.6-2c-0.5-0.5-1-0.8-1.3-1c-0.3-0.2-0.5-0.3-0.5-0.3
		s0.1,0.1,0.4,0.3c0.3,0.2,0.7,0.6,1.1,1.1c0.4,0.5,0.9,1.2,1.2,2.1c0.2,0.5,0.4,1.1,0.5,1.8c-0.7-1.4-1.8-2.8-3.1-4.1
		c-1.7-1.7-3.6-3.3-5.8-4.8c-2.1-1.5-4.2-2.9-6.1-4.2c-1.8-1.3-3.5-2.4-4.7-3.5c-1.2-1.1-2.1-2.2-2.5-3c-0.4-0.8-0.5-1.4-0.5-1.4
		c0,0-0.1,0.5,0.1,1.5c0.1,0.3,0.1,0.5,0.2,0.8l0,0.8c0,1.1,0,2.7,0.2,4.7c0.1,2,0.3,4.3,1,6.9c0.3,1.3,0.7,2.6,1.3,4
		c0.1,0.3,0.3,0.7,0.4,1l0.1,0.1l0,0.1c0,0,0,0,0,0l0.1,0.2c-1.6-0.8-3.2-1.4-4.8-2c-7.8-2.6-16.2-2.2-23.1,0.6
		c0.1-1.5,0.2-2.9,0.4-4.4c0.3-2,0.7-3.9,1.3-5.8c1.2-3.8,3.1-7.5,5.8-10.5c2.6-3.1,6.1-5.5,10-6.5c3.9-1,8.2-0.7,12,0.9
		c3.8,1.6,7.2,4.5,9.6,8c1.8,2.6,3.1,5.6,3.7,8.7c-1.4-0.6-2.9-1.1-4.5-1.6c-1.8-0.6-3.5-1.2-5.1-1.9c-1.6-0.7-3-1.4-4.2-2.3
		c-1.2-0.9-2.1-1.9-2.8-2.9c-0.7-1-1.1-2.1-1.4-3l-0.8-2.7l0.2,2.8c0.1,1.2,0.4,2.1,0.6,2.7c0.2,0.6,0.4,0.9,0.4,0.9l0-0.2
		c0,0,0,0.1,0,0.1c0.6,1.2,1.5,2.5,2.7,3.6c1.2,1.1,2.7,2,4.4,2.8c1.6,0.8,3.4,1.4,5.2,2.1c1.9,0.6,3.7,1.2,5.4,1.9
		c0.7,0.3,1.4,0.5,2.1,0.8c0.1,0.1,0.3,0.1,0.4,0.2c2.3,1,4.2,2.3,5.5,3.7c0.7,0.7,1.2,1.3,1.6,2c0.2,0.2,0.3,0.4,0.4,0.6
		c0.2,0,0.4,0,0.6,0c0.7-0.1,1.5-0.2,2.3-0.4c1.5-0.4,3.2-1.1,4.9-2.1c3.4-2,7.1-5.3,9.9-9.8c1.4-2.3,2.6-4.9,3.2-7.8
		c0.3-1.2,0.4-2.5,0.5-3.8h0c0,0,0-0.1,0-0.1c0-0.1,0-0.2,0-0.3c1.7-0.3,3.6-0.5,5.5-0.5c1.8,0,3.5,0.1,5.2,0.3c0,0.1,0,0.1,0,0.2
		c0,1.6,0.2,3.2,0.6,4.7c0.7,3,2,5.6,3.4,7.9c2.9,4.6,6.6,7.7,10,9.6c1.7,0.9,3.4,1.5,4.8,1.9c0.7,0.2,1.4,0.3,2,0.3
		c0.2,0,0.4,0,0.6,0c0.1-0.2,0.3-0.4,0.4-0.6c0.4-0.6,1-1.3,1.6-2c1.3-1.4,3.2-2.6,5.5-3.7c0.1-0.1,0.3-0.1,0.4-0.2
		c0.7-0.3,1.4-0.6,2.1-0.8c1.7-0.6,3.5-1.2,5.4-1.8c1.8-0.6,3.6-1.3,5.2-2.1c1.6-0.8,3.1-1.7,4.4-2.8c1.2-1.1,2.2-2.4,2.7-3.6
		c0,0,0-0.1,0-0.1l0,0.2c0,0,0.1-0.3,0.4-0.9c0.2-0.6,0.6-1.5,0.6-2.7l0.2-2.8l-0.8,2.7c-0.3,0.9-0.7,2-1.4,3c-0.7,1-1.6,2-2.8,2.9
		c-1.2,0.9-2.6,1.6-4.2,2.3c-1.6,0.7-3.3,1.2-5.1,1.9c-1.5,0.5-3,1-4.5,1.6c0.6-3.4,2-6.6,4-9.3c2.6-3.6,6.3-6.5,10.3-7.9
		c4.1-1.4,8.6-1.5,12.5,0c4,1.5,7.3,4.3,9.7,7.7c2.5,3.4,4.1,7.3,5.1,11.3c0.6,2.6,0.9,5.2,1,7.8c-0.5-0.2-1-0.4-1.5-0.6
		c-0.5-0.2-1.1-0.4-1.6-0.5c-1.1-0.3-2.2-0.6-3.4-0.8c-2.3-0.4-4.7-0.6-7.1-0.5c-4.8,0.2-9.7,1.4-14.3,3.7c0,0,0,0-0.1,0v0l0.1-0.3
		c0,0,0,0,0,0l0-0.1l0.1-0.1c0.2-0.3,0.3-0.7,0.5-1c0.6-1.4,1-2.7,1.3-4c0.6-2.6,0.8-5,1-6.9c0.1-2,0.1-3.6,0.2-4.7l0-0.8
		c0.1-0.3,0.2-0.6,0.2-0.8c0.2-1,0.1-1.5,0.1-1.5c0,0-0.1,0.5-0.5,1.4c-0.4,0.8-1.3,1.9-2.5,3c-1.2,1.1-2.9,2.3-4.7,3.5
		c-1.8,1.3-3.9,2.6-6.1,4.2c-2.1,1.5-4.1,3.1-5.8,4.8c-1.3,1.3-2.4,2.7-3.1,4.1c0.1-0.6,0.3-1.3,0.5-1.8c0.3-0.9,0.8-1.6,1.2-2.1
		c0.4-0.5,0.8-0.9,1.1-1.1c0.3-0.2,0.4-0.4,0.4-0.4s-0.2,0.1-0.5,0.3c-0.3,0.2-0.7,0.5-1.3,1c-0.5,0.5-1.1,1.1-1.6,2
		c-0.5,0.9-0.9,2-1.1,3.2c-0.3,1.5-0.3,3.3-0.1,5.1c-0.2-0.3-0.4-0.7-0.8-1c-0.3-0.3-0.7-0.5-1.2-0.6c-0.5-0.1-1,0.1-1.4,0.3
		c-0.8,0.4-1.5,1.1-2.1,1.7c-0.6,0.7-1.1,1.4-1.6,2.2c-0.5,0.8-1,1.6-1.6,2.3c-0.1,0.2-0.3,0.4-0.4,0.5c0,0-0.1,0.1-0.1,0.1l0,0.1
		c0,0-0.1,0.1-0.1,0.1c-0.1,0.1-0.1,0.2-0.2,0.2c-0.3,0.3-0.6,0.6-0.9,0.9c-0.6,0.6-1.3,1.1-2,1.6c-1.3,1.1-2.6,2.1-3.3,3.3
		c-0.4,0.6-0.6,1.2-0.6,1.8c-0.1,0.6,0,1,0.1,1.4c0.2,0.7,0.4,1.1,0.4,1.1c0,0-0.1-0.4-0.1-1.1c0-0.3,0.1-0.8,0.2-1.2
		c0.2-0.4,0.4-0.9,0.8-1.3c0.2-0.2,0.5-0.5,0.8-0.7c0.2-0.1,0.5-0.1,0.7-0.1c1.1-0.1,2.5,0.4,4.1,1c0.8,0.3,1.7,0.6,2.6,0.8
		c0.5,0.1,1,0.2,1.6,0.2c0.3,0,0.6,0,0.9,0c0.1,0,0.3,0,0.4,0c0.1,0,0.3,0,0.3-0.1c0.1,0,0.1,0,0.2-0.1c0.8-0.3,1.5-0.6,2.2-1.1
		c-0.3,0.8-0.6,1.7-1,2.7c-0.5,1.4-1,2.6-1.5,3.6c-0.5,0.9-0.8,1.5-0.8,1.5c0,0,0.7-0.2,1.6-0.8c0.9-0.7,2-1.9,2.6-3.5
		c0.6-1.6,0.6-3.2,0.4-4.3c0-0.1,0-0.2-0.1-0.3c0.4-0.4,0.7-0.9,0.9-1.4c0,0.5,0,0.9,0,1.4C160.2,130.5,160.1,131.4,159.9,132.2z
		 M132.6,170.8c0.1-0.1,0.2-0.3,0.3-0.4c0.2-0.3,0.3-0.6,0.5-1c0.2-0.3,0.4-0.6,0.5-0.8c0.1-0.1,0.1-0.1,0.2-0.2
		c0.1-0.1,0.2-0.1,0.3-0.2c0.3-0.1,0.6-0.2,0.9-0.3c0.2,0,0.4-0.1,0.5-0.1c-0.1,0.1-0.2,0.3-0.4,0.4c-0.3,0.3-0.7,0.6-1,1
		C133.7,169.8,133.1,170.3,132.6,170.8z M122.5,170.6c-0.5-0.4-1-0.8-1.4-1.2l-0.6-0.5c-0.2-0.2-0.4-0.3-0.5-0.5
		c-0.2-0.2-0.4-0.4-0.5-0.5c0.2,0,0.3,0.1,0.5,0.1c0.3,0.1,0.6,0.2,0.9,0.3c0.1,0.1,0.2,0.1,0.3,0.2c0.1,0.1,0.1,0.1,0.2,0.2
		c0.1,0.1,0.3,0.4,0.5,0.8c0.2,0.3,0.3,0.7,0.5,1C122.4,170.5,122.4,170.6,122.5,170.6z M96.4,119.6c0,0,0.1-0.1,0.1-0.1
		c0.3-0.4,0.7-0.8,1.1-1.1c0.3-0.2,0.6-0.2,1-0.1c-1,1.3-0.6,4.3-0.2,5.9c0.2,1.2,0.6,2.3,1.4,3.1c-0.7-2.1-0.5-4.9,0.8-6.7
		c0.3,0.5,0.7,1.1,1,1.7c0.5,0.8,0.9,1.6,1.6,2.5c0.2,0.2,0.3,0.4,0.5,0.6c0,0,0,0,0,0l0,0c0,0.1,0.1,0.1,0.1,0.2
		c0.1,0.1,0.2,0.2,0.3,0.3c0.4,0.4,0.8,0.8,1.1,1.1c0,0,0.1,0.1,0.1,0.1c-0.1,0-0.3,0.1-0.4,0.1c-1.3,0.4-2.4,0.9-3.4,1
		c-0.2,0-0.5,0-0.7,0c-0.2,0-0.5-0.1-0.7-0.1c-0.5-0.1-0.9-0.3-1.3-0.6c-0.8-0.5-1.4-1-2-1.6c-0.7-0.8-1.2-1.6-1.5-2.3
		c0.1-0.5,0.2-0.9,0.2-1.4c0.1-0.6,0.2-1.1,0.2-1.6c0-0.1,0.1-0.1,0.1-0.2c0.3-0.6,0.6-0.9,0.6-1C96.7,119.4,96.6,119.5,96.4,119.6z
		 M96.4,126.2c0.5,0.7,1.1,1.4,1.9,2c0.8,0.6,1.9,1.2,3.3,1.3c1.3,0,2.6-0.4,3.8-0.7c0.6-0.1,1.2-0.2,1.7-0.1c0.3,0,0.5,0.1,0.7,0.3
		c-0.1,0-0.3,0-0.4,0c-0.8,0.1-1.6,0.2-2.5,0.4c-0.8,0.2-1.7,0.4-2.6,0.5c-0.4,0.1-0.9,0.1-1.3,0.1c-0.2,0-0.4,0-0.6,0
		c-0.1,0-0.2,0-0.3,0l-0.2-0.1c-1.6-0.5-2.9-1.7-3.7-3c-0.5-0.8-0.8-1.7-0.9-2.5c0-0.1,0-0.2,0-0.3
		C95.6,124.9,95.9,125.6,96.4,126.2z M157.2,118.3c0.1,0,0.2,0.1,0.3,0.1c0.4,0.3,0.8,0.7,1.1,1.1c0,0,0.1,0.1,0.1,0.1
		c-0.2-0.1-0.3-0.2-0.3-0.2c0,0,0.3,0.3,0.6,1c0,0.1,0.1,0.1,0.1,0.2c0.1,0.5,0.1,1.1,0.2,1.6c0.1,0.5,0.1,0.9,0.2,1.4
		c-0.3,0.7-0.7,1.4-1.4,2.2c-0.5,0.6-1.2,1.2-1.9,1.6c-0.8,0.5-1.7,0.8-2.7,0.7c-1-0.1-2.1-0.6-3.4-1c-0.2,0-0.3-0.1-0.5-0.1
		c0,0,0.1-0.1,0.1-0.1c0.4-0.3,0.8-0.6,1.1-1.1c0.1-0.1,0.2-0.2,0.3-0.3c0-0.1,0.1-0.1,0.1-0.2l0,0c0,0,0,0,0,0
		c0.2-0.2,0.3-0.4,0.5-0.6c0.6-0.8,1.1-1.7,1.6-2.5c0.4-0.6,0.7-1.2,1.1-1.8c1.7,1.1,2.1,4.1,2.1,5.9
		C157.2,125,158,120.5,157.2,118.3z M149.7,128.9c1.2,0.2,2.4,0.7,3.7,0.7c1.4,0,2.5-0.6,3.3-1.2c0.8-0.6,1.5-1.3,2-2
		c0.5-0.7,0.8-1.4,1-2c0,0.1,0,0.2,0,0.3c-0.1,0.8-0.4,1.7-0.9,2.5c-0.8,1.3-2.1,2.4-3.7,3l-0.2,0.1c-0.1,0-0.2,0-0.3,0
		c-0.2,0-0.4,0-0.6,0c-0.4,0-0.8-0.1-1.3-0.1c-0.9-0.1-1.7-0.4-2.6-0.5c-0.8-0.2-1.7-0.4-2.5-0.4c-0.1,0-0.3,0-0.4,0
		c0.2-0.1,0.4-0.2,0.7-0.3C148.5,128.7,149.1,128.8,149.7,128.9z M169.5,108.3c-0.9,0.3-2.1,0.9-3.6,1.9c-1.5,1-3.2,2.5-4.6,4.8
		c-0.4,0.7-0.8,1.5-1.1,2.3c0-0.4-0.1-0.7-0.1-1.1c0-0.1,0-0.2,0-0.3c0.1-0.6,0.4-1.3,0.8-1.9c0.8-1.3,2.2-2.7,4-4.1
		c1.7-1.4,3.7-2.8,5.8-4.3c2.1-1.5,4.1-3,5.9-4.6c1.7-1.5,3.2-3,4.3-4.5c0.6-0.7,1-1.5,1.3-2.1l-0.9,4.5c-0.4,1.9-0.9,4.2-1.6,6.6
		c-0.4,1.2-0.8,2.4-1.4,3.7c-0.1,0.3-0.3,0.6-0.4,0.9l-0.1,0.1l0,0.1c0,0,0,0.1-0.1,0.1l-0.1,0.2l-0.2,0.5c-0.3,0.7-0.6,1.3-0.9,1.9
		c0,0,0,0.1,0,0.1c-2.9,1.8-5.6,4-7.9,6.7c-0.2,0.1-0.5,0.2-0.7,0.3c-1.1,0.4-2.1,0.8-3,1.3c-0.2,0.1-0.5,0.2-0.7,0.4
		c0.6-0.6,1.3-1.2,2-1.7c1.5-1,2.9-1.8,3.9-2.7c1-0.8,1.7-1.7,2-2.3c0.3-0.6,0.4-1,0.4-1c0,0-0.1,0.3-0.6,0.8
		c-0.4,0.5-1.1,1.2-2.2,1.8c-1.1,0.6-2.5,1.2-4.2,2.1c-0.2,0.1-0.4,0.2-0.6,0.3c0.1-0.2,0.2-0.3,0.3-0.4c0.9-1.1,1.9-2,2.8-2.7
		c0.8-0.7,1.6-1.1,2-1.5l0.7-0.5c0,0-0.3,0.1-0.8,0.3c-0.5,0.2-1.3,0.5-2.3,1c-0.8,0.4-1.7,1-2.7,1.8c1.2-1.5,2.5-2.6,3.6-3.6
		c1.2-1,2.1-1.7,2.7-2.2l1-0.8l-1,0.6c-0.7,0.4-1.7,1-3,1.8c-1.3,0.8-2.9,1.8-4.4,3.4c-0.7,0.7-1.3,1.5-1.9,2.5
		c0-0.3,0.1-0.6,0.2-0.9c0.3-1,0.8-1.9,1.3-2.8c1-1.7,2.1-3,3-4.1c1.3-1.4,2.3-2.3,2.8-2.7c0.1,0,0.2-0.1,0.2-0.1
		c0.8-0.5,1.3-0.6,1.3-0.6C170.8,107.9,170.3,108,169.5,108.3z M162.3,129.1h0.2c-0.1-1.1-0.2-2-0.2-2.8c0-0.1,0-0.2,0-0.3l0.2,0
		c0-0.6,0.2-1.3,0.5-1.8c0.2-0.4,0.5-0.8,0.7-1.1c0.5-0.2,1-0.5,1.6-0.7c0.5-0.2,1.1-0.3,1.7-0.5c-1.9,2.5-3.5,5.3-4.7,8.4
		c0-0.2,0-0.4,0-0.6C162.3,129.5,162.3,129.3,162.3,129.1z M226.5,142.3c-0.1,3.5-0.7,6.8-1.7,9.8c-1.9,6.1-5.2,11.1-8.9,14.7
		c-0.6,0.6-1.2,1.1-1.8,1.7c-0.6,0.4-1.4,1-2.4,1.6c-2.1,1.2-4.9,2.6-8.3,3.7c0,0-0.1,0-0.1,0c-0.6,0.2-1.3,0.4-1.9,0.5
		c-2,0.5-3.8,0.8-5.6,1c-0.1,0-0.2,0-0.2,0c-1.5,0.2-4.3-0.8-4-0.9c0,0-0.3-0.3,2-0.1c0.3,0,1.3,0,2-0.1c0.4,0.5,0.7,0.8,0.7,0.8
		s0.5-0.4,0.9-0.9c0.4,0,0.9-0.2,1.1-0.2c0.4,0,1.5-0.3,1.7-0.3c0.5-0.1,1.1-0.3,1.6-0.5c0.1-0.1,0.3-0.1,0.4-0.2
		c0.1,0,0.2-0.1,0.3-0.1c0.1,0,0.2-0.1,0.2-0.1c0.1,0.1,0.1,0.2,0.2,0.2l0.6,0.6c0.2,0.1,0,0,0.1,0c0,0,0.1,0,0.1,0
		c0-0.1,0.1-0.2,0.1-0.5c0-0.2,0-0.4,0-0.6c0,0,0,0,0,0c0.5-0.2,1-0.5,1.6-0.7c1.5-0.7,2.9-1.6,4.3-2.8c0.5,0.4,0.9,0.5,1.2,0.6
		c0.4,0.1,0.7,0,0.7,0c0,0-0.1-0.2-0.2-0.6c-0.1-0.3-0.3-0.8-0.3-1.2c0.9-0.8,1.8-1.8,2.6-2.8c0-0.1,0.1-0.1,0.1-0.2
		c0.1,0.1,0.2,0.1,0.4,0.2c0.3,0.1,0.6,0.1,0.7,0.1c0.4,0,0.6-0.1,0.6-0.1c0,0-0.1-0.2-0.3-0.5c-0.1-0.2-0.1-0.2-0.2-0.4
		c0-0.1-0.2-0.3-0.3-0.5c0,0,0.1-0.1,0.1-0.1c0.8-1.1,1.5-2.2,2.1-3.5c0.6,0,1.1,0,1.5,0.1c0.5,0,0.8,0.1,0.8,0.1
		c0,0-0.1-0.3-0.5-0.7c-0.2-0.3-0.6-0.6-1.1-1c0.6-1.4,1.2-2.9,1.6-4.5c0.3,0,0.7,0.1,1,0.1c0.4,0,0.8,0,1.1,0
		c0.6-0.1,0.9-0.3,0.9-0.2c0,0-0.3-0.1-0.8-0.4c-0.2-0.1-0.5-0.3-0.8-0.6c-0.3-0.2-0.6-0.4-1-0.7c0.1-0.6,0.2-1.2,0.3-1.9
		c0.1-1.1,0.2-2.2,0.3-3.3c1.2-0.4,2.1-0.7,2.9-0.9c0.1,0,0.2-0.1,0.3-0.1l1.4-0.4c0,0-0.4-0.1-1.2-0.3c-0.1,0-0.2,0-0.2,0
		c-0.6-0.1-1.4-0.2-2.4-0.2c-0.2,0-0.5,0-0.8,0c-0.1-1.7-0.3-3.5-0.7-5.3l0,0.1c1.9-1.4,3.2-2.3,3.2-2.3c0,0-1.5-0.2-3.8,0.4
		c-0.4-1.6-1-3.1-1.8-4.6c-0.1-0.2-0.2-0.4-0.3-0.6c-0.2-0.5-0.5-0.9-0.8-1.4c0.6-0.3,1.2-0.7,1.6-1.1c0.6-0.6,1-1.1,1.3-1.5
		c0.6-0.9,0.8-1.5,0.8-1.5c0,0-0.5,0.4-1.3,1c-0.4,0.3-1,0.6-1.6,0.9c-0.6,0.3-1.2,0.5-1.9,0.5c-0.5-0.8-1.1-1.5-1.7-2.3
		c-0.2-0.3-0.5-0.6-0.7-0.8c-0.2-0.3-0.5-0.6-0.8-0.8c-0.1-0.1-0.2-0.2-0.4-0.3c0.6-1.2,0.7-2.2,0.8-2.9l-0.6-0.3
		c-0.4,0.5-1,1.3-1.7,2c-0.4-0.3-0.8-0.5-1.2-0.7c-0.7-0.4-1.5-0.7-2.3-1c-0.7-0.2-1.3-0.5-2-0.6c0.1-1.6,0.1-2.9,0-3.8
		c-0.1-1.2-0.3-1.9-0.3-1.9c0,0-0.1,0.7-0.4,1.8c-0.2,0.9-0.5,2.1-1,3.5c-0.5-0.1-0.9-0.2-1.4-0.2c-1.2-0.2-2.5-0.3-3.7-0.3
		c-0.3-1.6-0.9-2.8-1.3-3.6c-0.6-1-1-1.5-1-1.5c0,0,0.1,0.6,0.3,1.7c0.1,0.9,0.3,2,0.2,3.4c-1.3,0-2.7,0.1-4,0.3
		c-0.1,0-0.3,0-0.4,0.1c-0.1-0.6-0.4-1.1-0.6-1.5c-0.3-0.6-0.7-1.1-1.1-1.4c-0.7-0.7-1.2-0.9-1.2-0.9c0,0,0.3,0.4,0.6,1.2
		c0.1,0.4,0.3,0.9,0.4,1.5c0.1,0.4,0.1,0.9,0.1,1.3c0,0-0.1,0-0.1,0c-0.4,0.1-0.8,0.2-1.2,0.2c-0.4,0.1-0.8,0.2-1.2,0.3
		c-0.5,0.2-1,0.3-1.5,0.5c-0.9-1.1-1.9-1.7-2.6-2.2c-0.7-0.5-1.2-0.7-1.2-0.7s0.2,0.4,0.7,1.2c0.4,0.6,0.9,1.5,1.3,2.5
		c-0.5,0.3-1,0.5-1.4,0.8c-1.2,0.7-2.3,1.6-3.3,2.6c-1.2-1-2.3-1.6-3.1-2.1c-1-0.5-1.5-0.7-1.5-0.7l1.1,1.2c0.6,0.7,1.5,1.7,2.3,2.9
		c-1,1.2-1.8,2.5-2.5,3.9c-0.1,0.2-0.2,0.4-0.2,0.5c-1.8-0.4-3.3-0.6-4.4-0.7c-1.2-0.1-1.9-0.1-1.9-0.1l1.8,0.8c1,0.4,2.3,1,3.9,1.8
		c-0.3,1-0.5,2-0.6,3c-0.1,0.8-0.1,1.7,0,2.5c-1.9,0.6-3.5,1.1-4.6,1.4c-1.4,0.3-2.1,0.4-2.1,0.5c0,0,0.8,0.2,2.2,0.2
		c0.7,0,1.6,0,2.6,0c0.7,0,1.5-0.1,2.4-0.2c0.2,0.5,0.4,0.9,0.6,1.4c0.5,0.9,1.2,1.7,2,2.4c0.1,0.1,0.3,0.2,0.5,0.3
		c-0.1,0.1-0.2,0.2-0.3,0.3c-0.4,0.5-0.7,0.9-1,1.3c-0.6,0.8-1,1.6-1.4,2.2c-0.7,1.2-1.2,1.8-1.2,1.8c0,0,0.7-0.4,1.8-1.3
		c0.5-0.5,1.2-1.1,1.9-1.7c0.6-0.6,1.4-1.2,2.2-1.6c0.1,0,0.3,0.1,0.4,0.1c1,0.3,2,0.5,2.9,0.5c0.6,0,1.1,0,1.7,0
		c-0.1,0.8-0.1,1.6-0.1,2.3c0,0.9,0,1.7,0,2.3c0,1.2,0,2,0,2s0.3-0.6,0.7-1.8c0.2-0.6,0.4-1.4,0.6-2.2c0.2-0.8,0.4-1.7,0.7-2.6
		c1.4-0.1,2.9-0.4,4.3-0.8c0.6,1.4,0.9,2.6,1.2,3.5c0.3,1,0.4,1.6,0.4,1.6c0,0,0.2-0.6,0.3-1.6c0.1-1,0.2-2.4-0.1-4.1
		c1.4-0.5,2.8-1.2,4.1-2c0.8-0.5,1.5-1,2.2-1.6c1.6,0.9,2.5,2.4,3.2,3.5c0.8,1.2,1.3,1.9,1.3,1.9c0,0-0.3-0.8-0.7-2.1
		c-0.2-0.7-0.5-1.6-1-2.5c-0.3-0.5-0.6-1-1.1-1.5c-0.1-0.1-0.3-0.3-0.4-0.4c1.6-1.6,3-3.4,4.2-5.3c1.4,0.5,2.6,1.1,3.6,1.8
		c1.4,1,2.5,2,3.3,3c0.8,0.9,1.4,1.7,1.8,2.3c0.4,0.6,0.6,0.9,0.6,0.8c0,0-0.1-0.3-0.4-0.9c-0.3-0.6-0.7-1.5-1.3-2.6
		c-0.7-1.1-1.6-2.4-3-3.6c-1-0.9-2.2-1.7-3.6-2.4c1-1.8,1.8-3.7,2.4-5.7c1.5,0.6,2.8,1.1,4,1.7c1.2,0.5,2.3,1,3.1,1.5
		c0.5,0.8,0.9,1.5,1.3,2.3c1.2,2.3,2,4.8,2.4,7.2c0.4,2.2,0.6,4.4,0.5,6.5c-0.6,0.8-1.3,1.5-1.9,2.3c-0.2-0.4-0.3-0.7-0.5-1
		c-0.4-0.7-0.8-0.9-0.8-0.9c0,0,0.1,0.4,0.1,1.1c0,0.4,0,0.8,0,1.3c0,0.3-0.1,0.6-0.1,0.9c-2.5,2.4-5.2,4.6-8.1,6.3
		c-0.3-0.9-0.6-1.6-0.9-2.1c-0.5-0.8-0.9-1.2-0.9-1.2c0,0,0.4,1.6,0.2,4.2c-3.9,2-8.1,3.4-12.3,4.1c-0.2-0.8-0.5-1.5-0.8-2
		c-0.4-0.8-0.8-1.2-0.8-1.2c0,0,0.2,1.3,0,3.4c-0.8,0.1-1.7,0.2-2.5,0.3c-2.3,0.2-4.5,0.1-6.7-0.2c0-0.6,0-1.2-0.1-1.6
		c-0.1-0.7-0.1-1.1-0.1-1.1s-0.2,0.3-0.6,0.9c-0.2,0.4-0.5,0.9-0.8,1.5c-2.9-0.6-5.7-1.8-8.2-3.3c-1.7-1-3.2-2.3-4.5-3.7
		c0-0.2,0.1-0.4,0.1-0.6c0.1-0.4,0.3-0.7,0.3-0.7c0,0-0.3,0-0.8,0.2c-0.1,0.1-0.2,0.1-0.4,0.2c-0.3-0.3-0.6-0.7-0.9-1
		c-1.7-2.1-3-4.6-3.8-7.1c-0.3-1.1-0.6-2.2-0.8-3.3c0.4-0.2,0.8-0.4,1.1-0.6c0.5-0.3,0.9-0.4,0.9-0.4c0,0-0.3-0.2-1-0.3
		c-0.3-0.1-0.7-0.1-1.2-0.1c-0.1-1-0.1-2.1,0-3.1c0.1-2.6,0.8-5.2,1.7-7.6c0-0.1,0.1-0.1,0.1-0.2c0,0,0.1,0,0.1,0l0.9-0.1
		c0.5-0.1,0.8-0.1,0.8-0.1s-0.2-0.2-0.6-0.6c-0.2-0.1-0.4-0.3-0.7-0.5c1.1-2.5,2.4-4.8,4-6.9c0.7,0.1,1.2,0.1,1.7,0.2l1,0.1
		c0,0-0.2-0.3-0.8-0.7c-0.3-0.2-0.6-0.5-1-0.7c0.1-0.1,0.2-0.2,0.3-0.4c0.8-0.9,1.7-1.8,2.5-2.6c0.6-0.6,1.3-1.2,2-1.7
		c0.7,0.2,1.3,0.3,1.8,0.4c0.4,0.1,0.8,0.1,1.1,0.2c0.7,0.1,1.1,0.2,1.1,0.2c0,0-0.3-0.3-0.8-0.8c-0.2-0.1-0.4-0.3-0.6-0.5
		c-0.3-0.2-0.6-0.5-1-0.7c0.8-0.5,1.6-1,2.4-1.5c1.8-1.1,3.7-2,5.7-2.7c0.5,0.3,1,0.5,1.3,0.7l0.7,0.4c0,0,0-0.3-0.1-0.8
		c-0.1-0.2-0.2-0.5-0.3-0.8c2.3-0.7,4.6-1.2,6.9-1.4c0.8,0.7,1.4,1,1.4,1s0.1-0.4,0.1-1.1c2.7-0.1,5.3,0.1,7.9,0.6l-0.3,0.2
		c0.8,0.7,1.3,1.5,1.7,2.1c0.4,0.6,0.6,1,0.6,1c0,0,0.1-0.4,0.1-1.1c0-0.4,0-0.8-0.1-1.4c0-0.1,0-0.2-0.1-0.4
		c1.2,0.3,2.4,0.7,3.6,1.2c0.8,0.3,1.6,0.7,2.4,1.1c0.3,0.2,0.7,0.4,1,0.5c3.2,1.8,5.9,4.1,8.2,6.7c0.3,0.3,0.5,0.7,0.8,1
		c0.1,0.1,0.2,0.2,0.3,0.4c2.4,3.2,4.1,6.7,5.1,10.3c0.3,1.2,0.6,2.4,0.8,3.7c0.3,1.6,0.4,3.1,0.4,4.6
		C226.5,140.8,226.5,141.6,226.5,142.3z M213.3,129.7c-0.3-0.2-0.7-0.5-1.1-0.7c-1.2-0.8-2.6-1.5-4.2-2.4c0.1-0.5,0.3-0.9,0.4-1.4
		c1.1,0.6,2.1,1.3,2.9,2.2C212,128.1,212.7,128.9,213.3,129.7z M206.2,124.1c-0.2,0.8-0.4,1.5-0.6,2.2c-1.1,3.8-2.7,7.3-4.9,10.3
		c-2.2,3-5.1,5.4-8.4,6.8c-1.6,0.7-3.4,1.2-5.1,1.4c-0.9,0.1-1.8,0.2-2.6,0.2c-0.4,0-0.9,0-1.3,0c-0.4,0-0.8,0-1.3-0.1
		c-1.6-0.2-3.2-0.8-4.2-1.8c-1.1-1.1-1.6-2.6-1.8-4.1c-0.1-1.6,0.2-3.2,0.7-4.7c0.5-1.5,1.3-3,2.3-4.2c1.9-2.6,4.5-4.6,7.4-5.7
		c0.7-0.3,1.5-0.5,2.2-0.7c0.8-0.2,1.5-0.3,2.3-0.5c1.5-0.3,3.1-0.4,4.6-0.5c3-0.2,6.1,0,8.8,0.7
		C204.8,123.7,205.5,123.9,206.2,124.1z M231.4,108.2c-0.1,3.8-0.4,7.6-1,11.2c-0.6,0.3-1.2,0.6-1.6,0.9c-0.7,0.4-1,0.6-1,0.6
		s0.4,0,1.2,0.1c0.3,0,0.7,0,1.2,0c-0.4,2.4-1,4.7-1.6,7.1c-0.5,1.9-1.1,3.7-1.8,5.5c-0.4-1.9-0.9-3.8-1.6-5.6
		c-0.9-2.4-2.2-4.8-3.8-7c0,0,0,0,0.1,0c3.1-0.2,4.8-0.8,4.8-0.8c0,0-1.7,0.3-4.7,0.1c-0.2,0-0.5,0-0.7,0c-0.7-0.9-1.4-1.8-2.2-2.6
		c-2.4-2.5-5.3-4.6-8.6-6.2c0-0.8-0.1-1.5-0.1-2.3c2.3,0.3,4.3,0.2,6.1,0c2-0.2,3.8-0.6,5.2-1c2.8-0.8,4.2-1.5,4.2-1.5
		c0,0-1.5,0.4-4.3,0.8c-1.4,0.2-3.1,0.4-5.1,0.4c-1.9,0-4.1-0.1-6.3-0.7c-0.1-0.5-0.1-1-0.2-1.5c-0.2-1.4-0.5-2.8-0.8-4.2
		c0.8,0,1.6-0.1,2.3-0.3c1.1-0.3,2.1-0.6,3-1c1.8-0.8,3.2-1.7,4.4-2.4c2.3-1.4,3.6-2.2,3.6-2.2c0,0-1.4,0.5-3.8,1.6
		c-1.2,0.5-2.7,1.2-4.5,1.7c-0.9,0.3-1.8,0.5-2.9,0.7c-0.8,0.1-1.7,0.1-2.6,0c0,0,0-0.1,0-0.1c-0.8-2.4-1.8-4.7-3-6.8
		c1.7-1.2,3-2.5,4.1-3.8c1.3-1.5,2.3-2.9,3.1-4.1c1.5-2.3,2.3-3.7,2.3-3.7l-2.8,3.2c-0.9,1-2.1,2.3-3.5,3.6
		c-1.2,1.1-2.6,2.2-4.2,3.1c-0.7-1-1.4-2-2.2-2.9c-0.9-1-1.9-2-3-2.9c1.8-1.9,3.1-4,4-5.9c1-2.1,1.7-4,2.3-5.6
		c1.1-3.1,1.8-4.8,1.8-4.8c0,0-0.9,1.5-2.4,4.4c-0.7,1.4-1.6,3.2-2.8,5.2c-1.1,1.8-2.5,3.8-4.4,5.4c-0.1-0.1-0.3-0.2-0.4-0.3
		c-1.9-1.2-4-2.2-6.2-2.8c0,0-0.1,0-0.1,0c0-1.4,0.2-2.7,0.4-4c0.3-1.5,0.6-3,1-4.3c0.8-2.7,1.7-5,2.3-6.8c1.4-3.8,2-5.9,2-5.9
		c0,0-0.9,2-2.6,5.5c-0.9,1.8-1.9,4-3,6.7c-0.5,1.3-1,2.8-1.4,4.4c-0.3,1.3-0.6,2.6-0.7,4c-2-0.3-4.1-0.3-6.1,0
		c-1-1.4-1.7-3-2.2-4.6c-0.6-1.8-0.9-3.6-1-5.3c-0.3-3.4,0.1-6.4,0.5-8.7c0.5-2.4,1.1-4.2,1.5-5.4c0.5-1.2,0.8-1.8,0.8-1.8
		c0,0-0.3,0.6-0.9,1.7c-0.6,1.1-1.3,2.9-2,5.2c-0.7,2.4-1.3,5.4-1.3,8.9c0,1.8,0.2,3.7,0.7,5.7c0.4,1.5,0.9,3.1,1.8,4.6
		c-1.1,0.3-2.2,0.7-3.3,1.1c-1.2,0.5-2.4,1.2-3.5,1.9c-3.2-3.2-5.3-6.8-6.7-10.2c-1.5-3.6-2.1-6.9-2.4-9.6c-0.2-2.7,0-4.9,0.2-6.3
		c0.2-1.5,0.4-2.2,0.4-2.2c0,0-0.3,0.7-0.6,2.1c-0.3,1.4-0.7,3.5-0.7,6.3c0,2.8,0.4,6.2,1.7,10.1c1.2,3.6,3.2,7.5,6.4,11.1
		c-2,1.6-3.8,3.6-5.3,5.7c-0.4,0.6-0.8,1.2-1.1,1.8c-3.8-2.7-7.1-5.5-9.5-8.4c-2.7-3.1-4.5-6.2-5.5-9c-1-2.7-1.3-5-1.3-6.6
		c0-1.6,0.1-2.4,0-2.4c0,0-0.2,0.8-0.2,2.3c-0.1,1.5,0,3.9,0.8,6.7c0.8,2.9,2.5,6.2,5.1,9.6c2.5,3.2,5.8,6.4,9.8,9.5
		c-0.4,0.9-0.7,1.7-1,2.6c-0.5,1.5-0.8,3.1-1,4.6c-0.4,0.2-0.9,0.4-1.3,0.7c-0.6,0.3-1.2,0.7-1.8,1.1c-2.6-1.6-5-3-7.2-4.6
		c-2.2-1.6-4.1-3.3-5.7-5.1c-0.8-0.9-1.5-1.8-2.1-2.8c-0.3-0.5-0.6-0.9-0.9-1.4l-0.8-1.4c-1.1-1.8-2-3.5-2.7-5.1
		c-0.7-1.6-1.2-3-1.5-4.3c-0.1-0.5-0.2-0.9-0.2-1.3c0-0.2,0-0.4,0-0.6c0-0.6,0.1-1.4,0.1-2.2c0.1-0.5,0.3-0.9,0.4-1.2
		c0.2-0.4,0.3-0.6,0.3-0.6c0,0-0.1,0.2-0.4,0.6c-0.1,0.2-0.2,0.4-0.3,0.7c0.1-0.7,0.1-1.5,0.2-2.3c1.3-2.5,2.9-4.8,4.7-6.9
		c1.5-1.7,3.1-3.2,4.8-4.7c0.1,1,0.2,1.9,0.3,2.5c0.2,1.2,0.3,1.8,0.3,1.8s0.1-0.6,0.4-1.8c0.2-1,0.4-2.4,0.7-4
		c0.7-0.6,1.5-1.1,2.2-1.6c3.2-2.2,6.6-4,10.2-5.5c0.8-0.3,1.6-0.7,2.5-1c-0.2,0.7-0.3,1.4-0.4,1.9c-0.2,1-0.2,1.5-0.2,1.5l0.8-1.2
		c0.5-0.7,1.1-1.6,1.8-2.9c2.1-0.7,4.3-1.3,6.4-1.8c3.7-0.8,7.4-0.9,11.1-0.6c0.1,0,0.3,0,0.4,0c-0.4,0.9-0.6,1.6-0.8,2.2
		c-0.3,0.9-0.4,1.4-0.4,1.4s0.4-0.4,1-1.1c0.5-0.6,1.2-1.5,2.1-2.4c2.9,0.4,5.8,1.1,8.6,2.1c1.7,0.6,3.3,1.2,4.9,1.9
		c-0.9,1.3-1.5,2.4-1.9,3.3c-0.6,1.2-0.8,1.9-0.8,1.9l1.4-1.5c0.7-0.8,1.7-1.8,2.9-2.9c1.2,0.6,2.4,1.2,3.6,1.9
		c2.7,1.5,5.2,3.2,7.6,5.1c-1.2,2.2-2.1,4-2.7,5.3l-1.1,2.3c0,0,0.6-0.7,1.7-1.9c0.9-1.1,2.1-2.6,3.6-4.5c2.7,2.3,5.1,4.9,7.2,7.8
		c0.1,0.2,0.3,0.4,0.4,0.6c-1.2,2.3-2.1,4.3-2.6,5.8c-0.6,1.7-0.9,2.6-0.9,2.6c0,0,0.5-0.8,1.5-2.2c0.8-1.1,1.8-2.6,3.1-4.5
		c0.5,0.7,0.9,1.5,1.3,2.2c0.8,1.6,1.5,3.1,2.1,4.8c1.2,3.2,2.1,6.4,2.9,9.7c-0.3,0.8-0.7,1.6-0.9,2.3c-0.4,1-0.8,1.9-1.1,2.6
		c-0.7,1.4-1.2,2.1-1.1,2.1c0,0,0.7-0.5,1.7-1.7c0.5-0.6,1.1-1.4,1.7-2.3c0.1-0.1,0.2-0.3,0.3-0.4c0.9,4.7,1.4,9.4,1.6,14.1
		c-0.8,0.9-1.6,1.6-2.2,2.1c-0.7,0.5-1.1,0.8-1.1,0.8c0,0,0.5,0,1.4-0.2c0.5-0.1,1.2-0.3,1.9-0.6
		C231.4,106.7,231.4,107.5,231.4,108.2z"/>
	<radialGradient id="SVGID_3_" cx="105.2717" cy="122.3528" r="7.7856" gradientUnits="userSpaceOnUse">
		<stop  offset="0" style="stop-color:#FFFFFF"/>
		<stop  offset="0.6378" style="stop-color:#FFFFFF;stop-opacity:0.6"/>
		<stop  offset="1" style="stop-color:#FFFFFF"/>
	</radialGradient>
	<path class="st2" d="M111.8,122.6c-0.6-1.4-1.5-2.8-2.8-4.1c-1.2-1.3-2.6-2.3-4-2.9c-1.4-0.6-2.8-0.9-3.9-1
		c-1.1-0.1-2.1,0.1-2.7,0.2c-0.6,0.2-0.9,0.3-0.9,0.3s0.3,0,1,0c0.6,0,1.5,0.2,2.5,0.5c1,0.3,2.1,0.8,3.3,1.5
		c1.1,0.7,2.3,1.7,3.4,2.8c2.2,2.3,3.6,4.8,4.5,6.8c0.8,2,1.1,3.3,1.1,3.3c0,0,0.3-1.4-0.1-3.6C112.8,125.3,112.4,124,111.8,122.6z"
		/>
	<radialGradient id="SVGID_4_" cx="120.9359" cy="197.1863" r="11.1643" gradientUnits="userSpaceOnUse">
		<stop  offset="0" style="stop-color:#FFFFFF"/>
		<stop  offset="0.6378" style="stop-color:#FFFFFF;stop-opacity:0.6"/>
		<stop  offset="1" style="stop-color:#FFFFFF"/>
	</radialGradient>
	<path class="st3" d="M126.3,206.5c-0.4-0.6-0.8-1.4-1-2.2c-0.2-0.8-0.2-1.7,0.1-2.6c0.1-0.2,0.1-0.4,0.2-0.7c0-0.1,0.1-0.2,0.2-0.3
		l0.2-0.4c0.3-0.5,0.5-1.1,0.7-1.7c0.2-0.6,0.3-1.3,0.3-2.1c-0.1-0.8-0.4-1.6-0.9-2.2c-0.5-0.6-1.1-1-1.7-1.4
		c-0.6-0.3-1.2-0.6-1.8-0.8c-1.1-0.4-2.2-0.7-3.2-1.1c-1-0.3-1.9-0.7-2.7-1.1c-0.8-0.4-1.5-0.9-2.1-1.4c-1.1-1-1.7-2.2-2.1-3
		c-0.3-0.8-0.5-1.3-0.5-1.3c0,0,0,0.5,0.2,1.4c0.2,0.9,0.5,2.3,1.6,3.6c0.5,0.7,1.3,1.3,2.1,1.9c0.8,0.6,1.8,1.1,2.8,1.5
		c1,0.4,2.1,0.8,3.1,1.3c1,0.4,2,1,2.6,1.7c0.3,0.3,0.4,0.7,0.5,1.1c0,0.4,0,0.9-0.1,1.4c-0.1,0.5-0.3,1-0.5,1.5l-0.1,0.4
		c-0.1,0.1-0.1,0.3-0.2,0.4c-0.1,0.3-0.2,0.6-0.2,0.9c-0.3,1.2-0.1,2.4,0.3,3.4c0.4,1,1,1.8,1.5,2.4c1.2,1.3,2.3,1.9,3.1,2.4
		c0.8,0.5,1.3,0.7,1.3,0.7c0,0-0.4-0.3-1.1-0.9C128.1,208.7,127.1,207.8,126.3,206.5z"/>
	<radialGradient id="SVGID_5_" cx="131.7798" cy="200.3996" r="7.7136" gradientUnits="userSpaceOnUse">
		<stop  offset="0" style="stop-color:#FFFFFF"/>
		<stop  offset="0.6378" style="stop-color:#FFFFFF;stop-opacity:0.6"/>
		<stop  offset="1" style="stop-color:#FFFFFF"/>
	</radialGradient>
	<path class="st4" d="M132.7,209.1c-1-0.5-1.9-1.3-2.5-2.5c-0.6-1.2-0.9-2.7-0.8-4.3c0-0.2,0-0.4,0-0.6c0-0.1,0-0.2,0-0.3l0-0.3
		c0-0.4,0.1-0.8,0.2-1.1c0.2-0.8,0.4-1.5,0.6-2.2c0.2-0.7,0.4-1.5,0.5-2.2c0.1-0.7,0.1-1.5-0.2-2.2c-0.2-0.6-0.6-1.1-0.9-1.5
		c-0.3-0.4-0.7-0.6-0.9-0.8c-0.5-0.4-0.9-0.6-0.9-0.6c0,0,0.3,0.3,0.6,0.8c0.4,0.5,0.9,1.3,1,2.3c0.1,0.5,0,1-0.2,1.6
		c-0.2,0.6-0.5,1.2-0.8,1.9c-0.3,0.7-0.6,1.5-0.9,2.4c-0.1,0.4-0.2,0.9-0.3,1.4c0,0.1,0,0.2,0,0.4c0,0.1,0,0.2,0,0.3
		c0,0.2,0,0.5-0.1,0.7c-0.1,1.9,0.3,3.9,1.4,5.3c0.5,0.7,1.1,1.3,1.8,1.7c0.6,0.4,1.3,0.7,1.9,0.8c1.2,0.3,2.2,0.3,2.9,0.3
		c0.7,0,1-0.1,1-0.1c0,0-0.4-0.1-1-0.2C134.6,209.9,133.7,209.6,132.7,209.1z"/>
</g>
<path class="st5" d="M127.5,128.4c-0.4,0-0.7-0.3-0.7-0.7l0-1.4c0-5.1,0-11.5-1.5-15.6c-0.9-2.4-2.8-4.1-4.8-4.4
	c-0.3,0-0.6-0.1-0.8-0.1c-1.7,0-3.2,0.8-4.3,2.2c-1.2,1.7-1.4,3.7-0.5,5.5c0.4,0.7,1.1,1.1,1.8,1.1c0.3,0,0.6-0.1,0.8-0.2
	c1-0.5,1.5-1.6,1-2.6c-0.1-0.2-0.1-0.4,0-0.5c0.1-0.2,0.2-0.3,0.4-0.4c0.1,0,0.2-0.1,0.3-0.1c0.3,0,0.6,0.2,0.7,0.4
	c0.7,1.7-0.1,3.6-1.8,4.4c-0.5,0.2-1,0.3-1.5,0.3c-1.4,0-2.6-0.7-3.2-1.9c-1.2-2.3-1-4.8,0.6-6.9c1.3-1.8,3.3-2.8,5.5-2.8
	c0.3,0,0.7,0,1,0.1c2.5,0.3,4.6,2.1,5.8,4.8c0.2,0.4,0.6,0.7,1.1,0.7h0c0.5,0,0.9-0.3,1.1-0.7c1.2-2.7,3.4-4.5,5.8-4.8
	c0.3,0,0.7-0.1,1-0.1c2.2,0,4.2,1,5.5,2.8c1.5,2.1,1.8,4.6,0.6,6.9c-0.6,1.2-1.8,1.9-3.2,1.9l0,0c-0.5,0-1-0.1-1.5-0.3
	c-1.7-0.8-2.5-2.7-1.8-4.4c0.1-0.3,0.4-0.4,0.7-0.4c0.1,0,0.2,0,0.3,0.1c0.2,0.1,0.3,0.2,0.4,0.4c0,0.1,0.1,0.3,0,0.5
	c-0.4,1,0,2.2,1,2.6c0.3,0.1,0.6,0.2,0.8,0.2c0.8,0,1.5-0.4,1.8-1.1c0.9-1.8,0.8-3.9-0.5-5.5c-1-1.4-2.5-2.2-4.3-2.2
	c-0.3,0-0.5,0-0.8,0.1c-2,0.3-3.9,1.9-4.8,4.4c-1.6,4.2-1.6,10.5-1.5,15.6l0,1.4C128.3,128,128,128.3,127.5,128.4
	C127.6,128.4,127.5,128.4,127.5,128.4z"/>
</svg>
