<?xml version="1.0" encoding="utf-8"?>
<!-- Generator: Adobe Illustrator 21.1.0, SVG Export Plug-In . SVG Version: 6.00 Build 0)  -->
<svg version="1.1" id="Layer_4" xmlns="http://www.w3.org/2000/svg" xmlns:xlink="http://www.w3.org/1999/xlink" x="0px" y="0px"
	 viewBox="0 0 601 153.1" style="enable-background:new 0 0 601 153.1;" xml:space="preserve">
<style type="text/css">
	.st0{fill:url(#SVGID_1_);}
	.st1{fill:url(#SVGID_2_);}
	.st2{fill:url(#SVGID_3_);}
	.st3{fill:url(#SVGID_4_);}
	.st4{fill:url(#SVGID_5_);}
	.st5{fill:url(#SVGID_6_);}
	.st6{fill:url(#SVGID_7_);}
	.st7{fill:url(#SVGID_8_);}
	.st8{fill:url(#SVGID_9_);}
	.st9{fill:url(#SVGID_10_);}
	.st10{fill:url(#SVGID_11_);}
	.st11{fill:url(#SVGID_12_);}
	.st12{fill:url(#SVGID_13_);}
	.st13{fill:url(#SVGID_14_);}
	.st14{fill:url(#SVGID_15_);}
	.st15{fill:url(#SVGID_16_);}
	.st16{fill:url(#SVGID_17_);}
	.st17{fill:url(#SVGID_18_);}
	.st18{fill:url(#SVGID_19_);}
	.st19{fill:url(#SVGID_20_);}
	.st20{fill:url(#SVGID_21_);}
	.st21{fill:url(#SVGID_22_);}
	.st22{fill:url(#SVGID_23_);}
	.st23{fill:url(#SVGID_24_);}
	.st24{fill:url(#SVGID_25_);}
	.st25{fill:url(#SVGID_26_);}
	.st26{fill:url(#SVGID_27_);}
	.st27{fill:url(#SVGID_28_);}
</style>
<g>
	<g>
		<linearGradient id="SVGID_1_" gradientUnits="userSpaceOnUse" x1="154.2816" y1="53.9284" x2="156.5132" y2="117.8336">
			<stop  offset="0" style="stop-color:#414042"/>
			<stop  offset="8.924593e-02" style="stop-color:#434344"/>
			<stop  offset="0.1376" style="stop-color:#4B4B4D"/>
			<stop  offset="0.1761" style="stop-color:#57575A"/>
			<stop  offset="0.2094" style="stop-color:#67686B"/>
			<stop  offset="0.2394" style="stop-color:#7A7C7F"/>
			<stop  offset="0.267" style="stop-color:#919396"/>
			<stop  offset="0.2923" style="stop-color:#ADAFB2"/>
			<stop  offset="0.303" style="stop-color:#BCBEC0"/>
			<stop  offset="0.3959" style="stop-color:#818385"/>
			<stop  offset="0.4723" style="stop-color:#555557"/>
			<stop  offset="0.5091" style="stop-color:#414042"/>
			<stop  offset="0.5311" style="stop-color:#67696B"/>
			<stop  offset="0.5626" style="stop-color:#929497"/>
			<stop  offset="0.5919" style="stop-color:#B5B7BA"/>
			<stop  offset="0.6178" style="stop-color:#D0D2D3"/>
			<stop  offset="0.6395" style="stop-color:#E0E1E3"/>
			<stop  offset="0.6544" style="stop-color:#E6E7E8"/>
			<stop  offset="0.6615" style="stop-color:#D1D2D4"/>
			<stop  offset="0.6767" style="stop-color:#9B9DA0"/>
			<stop  offset="0.6987" style="stop-color:#474749"/>
			<stop  offset="0.7052" style="stop-color:#000000"/>
			<stop  offset="0.8126" style="stop-color:#080808"/>
			<stop  offset="0.8581" style="stop-color:#202020"/>
			<stop  offset="0.8918" style="stop-color:#3B3A3C"/>
			<stop  offset="0.9198" style="stop-color:#4E4E50"/>
			<stop  offset="0.9442" style="stop-color:#626365"/>
			<stop  offset="0.9661" style="stop-color:#787A7C"/>
			<stop  offset="0.9857" style="stop-color:#909295"/>
			<stop  offset="1" style="stop-color:#A7A9AC"/>
		</linearGradient>
		<path class="st0" d="M156.7,109.7c-3.2,0-6.3-0.7-9.2-2.2c-1.4-0.7-2.7-1.6-3.9-2.6v4h-7.1V87.2h7.1v3.6c0,3,1.3,5.6,3.8,8
			c2.6,2.3,5.8,3.5,9.4,3.5c3.1,0,5.7-0.9,7.8-2.8c2-1.7,3-4,3-6.8c0-2.4-0.9-4.3-2.7-5.6c-1-0.8-2.4-1.5-4.2-2.2
			c-1.8-0.7-4.1-1.4-6.9-2.1c-2.8-0.7-5.4-1.6-7.5-2.5c-2.2-1-4-2.1-5.4-3.4c-2.9-2.6-4.4-6.1-4.4-10.8c0-4.1,1.7-7.6,5.1-10.5
			c3.4-2.8,7.3-4.2,12.1-4.2c1.4,0,2.8,0.1,4.2,0.3c1.4,0.2,2.8,0.6,4.3,1.2c1.3,0.6,2.4,1.2,3.4,1.8c1,0.6,2.1,1.5,3.2,2.6
			c0.6,0.7,1.1,1.3,1.5,1.8c0.4,0.5,0.8,1.2,1.2,2.1c0.3,0.6,0.6,1.5,0.7,2.5c0.2,0.9,0.3,1.8,0.4,2.7c0.1,0.5,0.1,1.1,0.2,1.8
			l0.1,2h-7.7v-2.8c0-0.3-0.1-0.8-0.1-1.4c-0.1-0.6-0.3-1.2-0.5-1.8c-0.2-0.6-0.5-1.3-0.9-1.8c-0.4-0.6-0.8-1.1-1.3-1.5
			c-1.1-0.8-2.4-1.4-3.8-1.6c-1.4-0.2-3.1-0.4-5-0.4c-2.8,0-5.1,0.7-6.8,2.2c-1.7,1.4-2.5,3.2-2.5,5.3c0,2.4,0.9,4.2,2.7,5.4
			c1,0.7,2.3,1.4,3.7,1.9c1.5,0.6,3.1,1.1,5,1.5c3.6,0.9,6.7,1.9,9.3,3c2.6,1.1,4.6,2.4,6.1,3.7c3,2.8,4.5,6.5,4.5,11.3
			c0,4.7-1.9,8.7-5.6,11.8C166.3,108.1,161.9,109.7,156.7,109.7L156.7,109.7z"/>
		<linearGradient id="SVGID_2_" gradientUnits="userSpaceOnUse" x1="205.7956" y1="52.1288" x2="208.0272" y2="116.0339">
			<stop  offset="0" style="stop-color:#414042"/>
			<stop  offset="8.924593e-02" style="stop-color:#434344"/>
			<stop  offset="0.1376" style="stop-color:#4B4B4D"/>
			<stop  offset="0.1761" style="stop-color:#57575A"/>
			<stop  offset="0.2094" style="stop-color:#67686B"/>
			<stop  offset="0.2394" style="stop-color:#7A7C7F"/>
			<stop  offset="0.267" style="stop-color:#919396"/>
			<stop  offset="0.2923" style="stop-color:#ADAFB2"/>
			<stop  offset="0.303" style="stop-color:#BCBEC0"/>
			<stop  offset="0.3959" style="stop-color:#818385"/>
			<stop  offset="0.4723" style="stop-color:#555557"/>
			<stop  offset="0.5091" style="stop-color:#414042"/>
			<stop  offset="0.5311" style="stop-color:#67696B"/>
			<stop  offset="0.5626" style="stop-color:#929497"/>
			<stop  offset="0.5919" style="stop-color:#B5B7BA"/>
			<stop  offset="0.6178" style="stop-color:#D0D2D3"/>
			<stop  offset="0.6395" style="stop-color:#E0E1E3"/>
			<stop  offset="0.6544" style="stop-color:#E6E7E8"/>
			<stop  offset="0.6615" style="stop-color:#D1D2D4"/>
			<stop  offset="0.6767" style="stop-color:#9B9DA0"/>
			<stop  offset="0.6987" style="stop-color:#474749"/>
			<stop  offset="0.7052" style="stop-color:#000000"/>
			<stop  offset="0.8126" style="stop-color:#080808"/>
			<stop  offset="0.8581" style="stop-color:#202020"/>
			<stop  offset="0.8918" style="stop-color:#3B3A3C"/>
			<stop  offset="0.9198" style="stop-color:#4E4E50"/>
			<stop  offset="0.9442" style="stop-color:#626365"/>
			<stop  offset="0.9661" style="stop-color:#787A7C"/>
			<stop  offset="0.9857" style="stop-color:#909295"/>
			<stop  offset="1" style="stop-color:#A7A9AC"/>
		</linearGradient>
		<path class="st1" d="M207.5,109.7c-8.3,0-15.2-2.7-20.4-8c-5.2-5.3-7.8-12.4-7.8-21.1c0-8.4,2.6-15.5,7.8-21
			c5.3-5.4,12.1-8.1,20.3-8.1c3.6,0,7.3,0.8,11,2.4c2.3,1,4.5,2.5,6.6,4.3V57h7.1v15.8h-6.8l-0.4-1.4c-0.5-2-1.2-3.7-2.1-5.1
			c-1-1.6-2.4-2.9-4.1-4c-3.5-2.3-7.3-3.4-11.5-3.4c-5.8,0-10.7,2-14.4,6c-3.7,4-5.6,9.3-5.6,15.7c0,6.4,1.9,11.6,5.8,15.6
			c3.8,4,8.7,6.1,14.6,6.1c4.5,0,8.4-1.2,11.6-3.5c1.5-1.1,3-2.7,4.3-4.7c1.2-1.8,2.3-4.1,3.5-7l0.8-2l6.7,4l-0.6,1.5
			c-1.4,3.4-2.9,6.2-4.5,8.5c-1.8,2.5-3.9,4.6-6.2,6.1C218.7,108.2,213.4,109.7,207.5,109.7L207.5,109.7z"/>
		<linearGradient id="SVGID_3_" gradientUnits="userSpaceOnUse" x1="264.374" y1="50.0826" x2="266.6056" y2="113.9879">
			<stop  offset="0" style="stop-color:#414042"/>
			<stop  offset="8.924593e-02" style="stop-color:#434344"/>
			<stop  offset="0.1376" style="stop-color:#4B4B4D"/>
			<stop  offset="0.1761" style="stop-color:#57575A"/>
			<stop  offset="0.2094" style="stop-color:#67686B"/>
			<stop  offset="0.2394" style="stop-color:#7A7C7F"/>
			<stop  offset="0.267" style="stop-color:#919396"/>
			<stop  offset="0.2923" style="stop-color:#ADAFB2"/>
			<stop  offset="0.303" style="stop-color:#BCBEC0"/>
			<stop  offset="0.3959" style="stop-color:#818385"/>
			<stop  offset="0.4723" style="stop-color:#555557"/>
			<stop  offset="0.5091" style="stop-color:#414042"/>
			<stop  offset="0.5311" style="stop-color:#67696B"/>
			<stop  offset="0.5626" style="stop-color:#929497"/>
			<stop  offset="0.5919" style="stop-color:#B5B7BA"/>
			<stop  offset="0.6178" style="stop-color:#D0D2D3"/>
			<stop  offset="0.6395" style="stop-color:#E0E1E3"/>
			<stop  offset="0.6544" style="stop-color:#E6E7E8"/>
			<stop  offset="0.6615" style="stop-color:#D1D2D4"/>
			<stop  offset="0.6767" style="stop-color:#9B9DA0"/>
			<stop  offset="0.6987" style="stop-color:#474749"/>
			<stop  offset="0.7052" style="stop-color:#000000"/>
			<stop  offset="0.8126" style="stop-color:#080808"/>
			<stop  offset="0.8581" style="stop-color:#202020"/>
			<stop  offset="0.8918" style="stop-color:#3B3A3C"/>
			<stop  offset="0.9198" style="stop-color:#4E4E50"/>
			<stop  offset="0.9442" style="stop-color:#626365"/>
			<stop  offset="0.9661" style="stop-color:#787A7C"/>
			<stop  offset="0.9857" style="stop-color:#909295"/>
			<stop  offset="1" style="stop-color:#A7A9AC"/>
		</linearGradient>
		<path class="st2" d="M265.4,109.7c-8.2,0-15-2.8-20.3-8.3c-5.4-5.5-8.1-12.5-8.1-20.8c0-8.3,2.7-15.3,8.1-20.8
			c5.3-5.5,12.2-8.3,20.3-8.3c8.2,0,15,2.8,20.3,8.3c5.4,5.5,8.1,12.5,8.1,20.8c0,8.3-2.7,15.3-8.1,20.8
			C280.4,107,273.7,109.7,265.4,109.7L265.4,109.7z M265.4,58.9c-5.9,0-10.9,2.1-14.6,6.1c-3.9,4.1-5.9,9.3-5.9,15.6
			c0,6.3,2,11.5,5.9,15.6c3.8,4.1,8.7,6.2,14.6,6.2c5.9,0,10.8-2,14.7-6.1c3.8-4.1,5.8-9.4,5.8-15.6c0-6.2-1.9-11.5-5.8-15.6
			C276.3,60.9,271.3,58.9,265.4,58.9L265.4,58.9z"/>
		<linearGradient id="SVGID_4_" gradientUnits="userSpaceOnUse" x1="317.0291" y1="48.2441" x2="319.2607" y2="112.1496">
			<stop  offset="0" style="stop-color:#414042"/>
			<stop  offset="8.924593e-02" style="stop-color:#434344"/>
			<stop  offset="0.1376" style="stop-color:#4B4B4D"/>
			<stop  offset="0.1761" style="stop-color:#57575A"/>
			<stop  offset="0.2094" style="stop-color:#67686B"/>
			<stop  offset="0.2394" style="stop-color:#7A7C7F"/>
			<stop  offset="0.267" style="stop-color:#919396"/>
			<stop  offset="0.2923" style="stop-color:#ADAFB2"/>
			<stop  offset="0.303" style="stop-color:#BCBEC0"/>
			<stop  offset="0.3959" style="stop-color:#818385"/>
			<stop  offset="0.4723" style="stop-color:#555557"/>
			<stop  offset="0.5091" style="stop-color:#414042"/>
			<stop  offset="0.5311" style="stop-color:#67696B"/>
			<stop  offset="0.5626" style="stop-color:#929497"/>
			<stop  offset="0.5919" style="stop-color:#B5B7BA"/>
			<stop  offset="0.6178" style="stop-color:#D0D2D3"/>
			<stop  offset="0.6395" style="stop-color:#E0E1E3"/>
			<stop  offset="0.6544" style="stop-color:#E6E7E8"/>
			<stop  offset="0.6615" style="stop-color:#D1D2D4"/>
			<stop  offset="0.6767" style="stop-color:#9B9DA0"/>
			<stop  offset="0.6987" style="stop-color:#474749"/>
			<stop  offset="0.7052" style="stop-color:#000000"/>
			<stop  offset="0.8126" style="stop-color:#080808"/>
			<stop  offset="0.8581" style="stop-color:#202020"/>
			<stop  offset="0.8918" style="stop-color:#3B3A3C"/>
			<stop  offset="0.9198" style="stop-color:#4E4E50"/>
			<stop  offset="0.9442" style="stop-color:#626365"/>
			<stop  offset="0.9661" style="stop-color:#787A7C"/>
			<stop  offset="0.9857" style="stop-color:#909295"/>
			<stop  offset="1" style="stop-color:#A7A9AC"/>
		</linearGradient>
		<path class="st3" d="M301.4,109V59.4h-7.8v-7.1h27.8c4.7,0,8.5,1.3,11.5,4c3.1,2.7,4.6,6.3,4.6,10.5c0,4-1.1,7.3-3.3,9.9
			c-1.9,2.1-4.6,3.7-8.1,4.8l9.2,20.4h7.4v7.1H330l-11.9-26.5h-8.8V109H301.4z M319.1,75.4c3.5,0,6.2-0.7,8-2.2
			c1.7-1.3,2.5-3.3,2.5-6c0-2.5-0.8-4.3-2.4-5.6c-1.6-1.5-3.8-2.2-6.7-2.2h-11.2v16H319.1z"/>
		<linearGradient id="SVGID_5_" gradientUnits="userSpaceOnUse" x1="363.3148" y1="46.6296" x2="365.5464" y2="110.5348">
			<stop  offset="0" style="stop-color:#414042"/>
			<stop  offset="8.924593e-02" style="stop-color:#434344"/>
			<stop  offset="0.1376" style="stop-color:#4B4B4D"/>
			<stop  offset="0.1761" style="stop-color:#57575A"/>
			<stop  offset="0.2094" style="stop-color:#67686B"/>
			<stop  offset="0.2394" style="stop-color:#7A7C7F"/>
			<stop  offset="0.267" style="stop-color:#919396"/>
			<stop  offset="0.2923" style="stop-color:#ADAFB2"/>
			<stop  offset="0.303" style="stop-color:#BCBEC0"/>
			<stop  offset="0.3959" style="stop-color:#818385"/>
			<stop  offset="0.4723" style="stop-color:#555557"/>
			<stop  offset="0.5091" style="stop-color:#414042"/>
			<stop  offset="0.5311" style="stop-color:#67696B"/>
			<stop  offset="0.5626" style="stop-color:#929497"/>
			<stop  offset="0.5919" style="stop-color:#B5B7BA"/>
			<stop  offset="0.6178" style="stop-color:#D0D2D3"/>
			<stop  offset="0.6395" style="stop-color:#E0E1E3"/>
			<stop  offset="0.6544" style="stop-color:#E6E7E8"/>
			<stop  offset="0.6615" style="stop-color:#D1D2D4"/>
			<stop  offset="0.6767" style="stop-color:#9B9DA0"/>
			<stop  offset="0.6987" style="stop-color:#474749"/>
			<stop  offset="0.7052" style="stop-color:#000000"/>
			<stop  offset="0.8126" style="stop-color:#080808"/>
			<stop  offset="0.8581" style="stop-color:#202020"/>
			<stop  offset="0.8918" style="stop-color:#3B3A3C"/>
			<stop  offset="0.9198" style="stop-color:#4E4E50"/>
			<stop  offset="0.9442" style="stop-color:#626365"/>
			<stop  offset="0.9661" style="stop-color:#787A7C"/>
			<stop  offset="0.9857" style="stop-color:#909295"/>
			<stop  offset="1" style="stop-color:#A7A9AC"/>
		</linearGradient>
		<path class="st4" d="M342.9,108.9v-7.1h7V59.4h-7v-7.1h24.4c2.9,0,5.6,0.4,8,1.1c2.4,0.7,4.4,1.9,6.2,3.5c3.5,3,5.2,7.2,5.2,12.8
			c0,5.3-1.7,9.4-5.1,12.6c-3.4,3.1-7.9,4.7-13.5,4.7h-10.3v21.9H342.9z M366.6,80c2.1,0,4-0.2,5.5-0.6c1.5-0.4,2.8-1,3.8-1.9
			c1.9-1.5,2.9-3.9,2.9-7.2c0-2-0.3-3.8-0.7-5.1c-0.5-1.3-1.2-2.4-2-3.1c-1.9-1.7-4.9-2.5-9.5-2.5h-8.7V80H366.6z"/>
		<linearGradient id="SVGID_6_" gradientUnits="userSpaceOnUse" x1="394.0256" y1="45.556" x2="396.2572" y2="109.4615">
			<stop  offset="0" style="stop-color:#414042"/>
			<stop  offset="8.924593e-02" style="stop-color:#434344"/>
			<stop  offset="0.1376" style="stop-color:#4B4B4D"/>
			<stop  offset="0.1761" style="stop-color:#57575A"/>
			<stop  offset="0.2094" style="stop-color:#67686B"/>
			<stop  offset="0.2394" style="stop-color:#7A7C7F"/>
			<stop  offset="0.267" style="stop-color:#919396"/>
			<stop  offset="0.2923" style="stop-color:#ADAFB2"/>
			<stop  offset="0.303" style="stop-color:#BCBEC0"/>
			<stop  offset="0.3959" style="stop-color:#818385"/>
			<stop  offset="0.4723" style="stop-color:#555557"/>
			<stop  offset="0.5091" style="stop-color:#414042"/>
			<stop  offset="0.5311" style="stop-color:#67696B"/>
			<stop  offset="0.5626" style="stop-color:#929497"/>
			<stop  offset="0.5919" style="stop-color:#B5B7BA"/>
			<stop  offset="0.6178" style="stop-color:#D0D2D3"/>
			<stop  offset="0.6395" style="stop-color:#E0E1E3"/>
			<stop  offset="0.6544" style="stop-color:#E6E7E8"/>
			<stop  offset="0.6615" style="stop-color:#D1D2D4"/>
			<stop  offset="0.6767" style="stop-color:#9B9DA0"/>
			<stop  offset="0.6987" style="stop-color:#474749"/>
			<stop  offset="0.7052" style="stop-color:#000000"/>
			<stop  offset="0.8126" style="stop-color:#080808"/>
			<stop  offset="0.8581" style="stop-color:#202020"/>
			<stop  offset="0.8918" style="stop-color:#3B3A3C"/>
			<stop  offset="0.9198" style="stop-color:#4E4E50"/>
			<stop  offset="0.9442" style="stop-color:#626365"/>
			<stop  offset="0.9661" style="stop-color:#787A7C"/>
			<stop  offset="0.9857" style="stop-color:#909295"/>
			<stop  offset="1" style="stop-color:#A7A9AC"/>
		</linearGradient>
		<path class="st5" d="M385.5,108.9v-7.1h6.6V52.4h7.9v49.5h6.7v7.1H385.5z M392,51.9v-8.5h7.9v8.5H392z"/>
		<linearGradient id="SVGID_7_" gradientUnits="userSpaceOnUse" x1="434.9171" y1="44.1281" x2="437.1487" y2="108.0334">
			<stop  offset="0" style="stop-color:#414042"/>
			<stop  offset="8.924593e-02" style="stop-color:#434344"/>
			<stop  offset="0.1376" style="stop-color:#4B4B4D"/>
			<stop  offset="0.1761" style="stop-color:#57575A"/>
			<stop  offset="0.2094" style="stop-color:#67686B"/>
			<stop  offset="0.2394" style="stop-color:#7A7C7F"/>
			<stop  offset="0.267" style="stop-color:#919396"/>
			<stop  offset="0.2923" style="stop-color:#ADAFB2"/>
			<stop  offset="0.303" style="stop-color:#BCBEC0"/>
			<stop  offset="0.3959" style="stop-color:#818385"/>
			<stop  offset="0.4723" style="stop-color:#555557"/>
			<stop  offset="0.5091" style="stop-color:#414042"/>
			<stop  offset="0.5311" style="stop-color:#67696B"/>
			<stop  offset="0.5626" style="stop-color:#929497"/>
			<stop  offset="0.5919" style="stop-color:#B5B7BA"/>
			<stop  offset="0.6178" style="stop-color:#D0D2D3"/>
			<stop  offset="0.6395" style="stop-color:#E0E1E3"/>
			<stop  offset="0.6544" style="stop-color:#E6E7E8"/>
			<stop  offset="0.6615" style="stop-color:#D1D2D4"/>
			<stop  offset="0.6767" style="stop-color:#9B9DA0"/>
			<stop  offset="0.6987" style="stop-color:#474749"/>
			<stop  offset="0.7052" style="stop-color:#000000"/>
			<stop  offset="0.8126" style="stop-color:#080808"/>
			<stop  offset="0.8581" style="stop-color:#202020"/>
			<stop  offset="0.8918" style="stop-color:#3B3A3C"/>
			<stop  offset="0.9198" style="stop-color:#4E4E50"/>
			<stop  offset="0.9442" style="stop-color:#626365"/>
			<stop  offset="0.9661" style="stop-color:#787A7C"/>
			<stop  offset="0.9857" style="stop-color:#909295"/>
			<stop  offset="1" style="stop-color:#A7A9AC"/>
		</linearGradient>
		<path class="st6" d="M436.2,109.7c-8.2,0-15-2.8-20.3-8.3c-5.4-5.5-8.1-12.5-8.1-20.8c0-8.3,2.7-15.3,8.1-20.8
			c5.3-5.5,12.2-8.3,20.3-8.3c8.2,0,15,2.8,20.3,8.3c5.4,5.5,8.1,12.5,8.1,20.8c0,8.3-2.7,15.3-8.1,20.8
			C451.1,107,444.5,109.7,436.2,109.7L436.2,109.7z M436.2,58.9c-5.9,0-10.9,2.1-14.6,6.1c-3.9,4.1-5.9,9.3-5.9,15.6
			c0,6.3,2,11.5,5.9,15.6c3.8,4.1,8.7,6.2,14.6,6.2c5.9,0,10.8-2,14.7-6.1c3.8-4.1,5.8-9.4,5.8-15.6c0-6.2-1.9-11.5-5.8-15.6
			C447,60.9,442.1,58.9,436.2,58.9L436.2,58.9z"/>
	</g>
	<g>
		<linearGradient id="SVGID_8_" gradientUnits="userSpaceOnUse" x1="153.3015" y1="51.4844" x2="155.6003" y2="117.3154">
			<stop  offset="0" style="stop-color:#F1F2F2"/>
			<stop  offset="0.1266" style="stop-color:#D4D6D7"/>
			<stop  offset="0.2904" style="stop-color:#B3B5B8"/>
			<stop  offset="0.3758" style="stop-color:#A7A9AC"/>
			<stop  offset="0.4229" style="stop-color:#818386"/>
			<stop  offset="0.4693" style="stop-color:#616264"/>
			<stop  offset="0.5056" style="stop-color:#4A4A4C"/>
			<stop  offset="0.5273" style="stop-color:#414042"/>
			<stop  offset="0.5316" style="stop-color:#565759"/>
			<stop  offset="0.5396" style="stop-color:#747578"/>
			<stop  offset="0.5486" style="stop-color:#8C8E90"/>
			<stop  offset="0.5585" style="stop-color:#A0A3A5"/>
			<stop  offset="0.5697" style="stop-color:#B2B4B7"/>
			<stop  offset="0.5828" style="stop-color:#C0C2C4"/>
			<stop  offset="0.599" style="stop-color:#CACCCD"/>
			<stop  offset="0.6218" style="stop-color:#D0D1D3"/>
			<stop  offset="0.6848" style="stop-color:#D1D3D4"/>
			<stop  offset="0.7393" style="stop-color:#C4C6C8"/>
			<stop  offset="0.8453" style="stop-color:#A2A4A7"/>
			<stop  offset="0.9914" style="stop-color:#707274"/>
			<stop  offset="1" style="stop-color:#6D6E71"/>
		</linearGradient>
		<path class="st7" d="M155.7,107.5c-3,0-6-0.7-8.7-2.1c-1.7-0.8-3.2-1.9-4.5-3.3l-0.9-0.9l0.3,0.8c-0.2,0.1-0.3,0.3-0.3,0.5v4.2
			h-5.1V87.1h5.1v2.6c0,3.2,1.4,6.2,4.1,8.7c2.8,2.5,6.2,3.8,10.1,3.8c3.3,0,6.2-1,8.4-3c2.2-1.9,3.4-4.4,3.4-7.5
			c0-2.8-1-4.9-3.1-6.4c-1.1-0.8-2.5-1.6-4.4-2.3c-1.8-0.7-4.2-1.4-7-2.1c-2.8-0.7-5.2-1.5-7.3-2.5c-2.1-0.9-3.8-2-5.1-3.2
			c-2.7-2.4-4-5.7-4-10c0-3.8,1.5-7,4.7-9.7c3.2-2.6,6.9-3.9,11.4-3.9c1.3,0,2.7,0.1,4.1,0.3c1.3,0.2,2.7,0.5,4,1.1
			c1.2,0.6,2.3,1.1,3.3,1.7c0.9,0.5,1.9,1.4,2.9,2.4c0.5,0.6,1,1.2,1.4,1.7c0.4,0.5,0.7,1.1,1.1,1.9c0.3,0.6,0.5,1.3,0.7,2.2
			c0.1,0.9,0.3,1.8,0.4,2.7c0.1,0.5,0.1,1.1,0.2,1.7l0.1,0.9h-5.6v-1.8c0-0.4-0.1-0.9-0.2-1.5c-0.1-0.6-0.3-1.3-0.5-2
			c-0.3-0.7-0.6-1.4-1-2.1c-0.4-0.7-0.9-1.3-1.5-1.7c-1.3-0.9-2.7-1.5-4.2-1.8c-1.5-0.3-3.2-0.4-5.2-0.4c-3,0-5.5,0.8-7.5,2.4
			c-1.9,1.6-2.9,3.6-2.9,6.1c0,2.7,1,4.8,3.1,6.3c1.1,0.8,2.5,1.4,4,2c1.5,0.6,3.3,1.1,5.2,1.6c3.5,0.9,6.6,1.8,9.1,2.9
			c2.5,1.1,4.4,2.2,5.8,3.5c2.8,2.6,4.1,6.1,4.1,10.5c0,4.5-1.7,8.1-5.2,11C164.9,106,160.6,107.5,155.7,107.5L155.7,107.5z"/>
		<linearGradient id="SVGID_9_" gradientUnits="userSpaceOnUse" x1="204.6617" y1="49.6986" x2="206.9605" y2="115.5295">
			<stop  offset="0" style="stop-color:#F1F2F2"/>
			<stop  offset="0.1266" style="stop-color:#D4D6D7"/>
			<stop  offset="0.2904" style="stop-color:#B3B5B8"/>
			<stop  offset="0.3758" style="stop-color:#A7A9AC"/>
			<stop  offset="0.4229" style="stop-color:#818386"/>
			<stop  offset="0.4693" style="stop-color:#616264"/>
			<stop  offset="0.5056" style="stop-color:#4A4A4C"/>
			<stop  offset="0.5273" style="stop-color:#414042"/>
			<stop  offset="0.5316" style="stop-color:#565759"/>
			<stop  offset="0.5396" style="stop-color:#747578"/>
			<stop  offset="0.5486" style="stop-color:#8C8E90"/>
			<stop  offset="0.5585" style="stop-color:#A0A3A5"/>
			<stop  offset="0.5697" style="stop-color:#B2B4B7"/>
			<stop  offset="0.5828" style="stop-color:#C0C2C4"/>
			<stop  offset="0.599" style="stop-color:#CACCCD"/>
			<stop  offset="0.6218" style="stop-color:#D0D1D3"/>
			<stop  offset="0.6848" style="stop-color:#D1D3D4"/>
			<stop  offset="0.7393" style="stop-color:#C4C6C8"/>
			<stop  offset="0.8453" style="stop-color:#A2A4A7"/>
			<stop  offset="0.9914" style="stop-color:#707274"/>
			<stop  offset="1" style="stop-color:#6D6E71"/>
		</linearGradient>
		<path class="st8" d="M206.6,107.5c-8,0-14.6-2.6-19.7-7.7c-5-5.1-7.5-11.9-7.5-20.3c0-8.1,2.5-14.9,7.5-20.2
			c5.1-5.2,11.7-7.8,19.6-7.8c3.5,0,7.1,0.8,10.6,2.3c2.6,1.1,5,2.8,7.2,5l0.9,0.9l-0.3-0.8c0.2-0.1,0.3-0.3,0.3-0.5V57h5.1v13.7h-5
			l-0.2-0.6c-0.5-2.1-1.3-4-2.2-5.4c-1.1-1.7-2.6-3.1-4.4-4.3c-3.6-2.4-7.7-3.6-12-3.6c-6.1,0-11.2,2.1-15.2,6.3
			c-3.9,4.2-5.9,9.7-5.9,16.4c0,6.6,2,12.1,6.1,16.3c4,4.2,9.1,6.4,15.3,6.4c4.7,0,8.8-1.2,12.2-3.7c1.6-1.2,3.2-2.8,4.6-5
			c1.2-1.8,2.4-4.2,3.6-7.1l0.4-0.9l4.9,2.9l-0.3,0.7c-1.3,3.3-2.8,6-4.3,8.2c-1.7,2.4-3.7,4.4-5.9,5.8
			C217.3,106.1,212.2,107.5,206.6,107.5L206.6,107.5z"/>
		<linearGradient id="SVGID_10_" gradientUnits="userSpaceOnUse" x1="263.3752" y1="47.6481" x2="265.674" y2="113.479">
			<stop  offset="0" style="stop-color:#F1F2F2"/>
			<stop  offset="0.1266" style="stop-color:#D4D6D7"/>
			<stop  offset="0.2904" style="stop-color:#B3B5B8"/>
			<stop  offset="0.3758" style="stop-color:#A7A9AC"/>
			<stop  offset="0.4229" style="stop-color:#818386"/>
			<stop  offset="0.4693" style="stop-color:#616264"/>
			<stop  offset="0.5056" style="stop-color:#4A4A4C"/>
			<stop  offset="0.5273" style="stop-color:#414042"/>
			<stop  offset="0.5316" style="stop-color:#565759"/>
			<stop  offset="0.5396" style="stop-color:#747578"/>
			<stop  offset="0.5486" style="stop-color:#8C8E90"/>
			<stop  offset="0.5585" style="stop-color:#A0A3A5"/>
			<stop  offset="0.5697" style="stop-color:#B2B4B7"/>
			<stop  offset="0.5828" style="stop-color:#C0C2C4"/>
			<stop  offset="0.599" style="stop-color:#CACCCD"/>
			<stop  offset="0.6218" style="stop-color:#D0D1D3"/>
			<stop  offset="0.6848" style="stop-color:#D1D3D4"/>
			<stop  offset="0.7393" style="stop-color:#C4C6C8"/>
			<stop  offset="0.8453" style="stop-color:#A2A4A7"/>
			<stop  offset="0.9914" style="stop-color:#707274"/>
			<stop  offset="1" style="stop-color:#6D6E71"/>
		</linearGradient>
		<path class="st9" d="M264.5,107.5c-7.9,0-14.5-2.7-19.6-8c-5.2-5.3-7.8-12.1-7.8-20.1c0-8,2.6-14.7,7.8-20.1
			c5.1-5.3,11.7-8,19.6-8c7.9,0,14.5,2.7,19.6,8c5.2,5.3,7.8,12.1,7.8,20.1c0,8-2.6,14.7-7.8,20.1
			C278.9,104.9,272.5,107.5,264.5,107.5L264.5,107.5z M264.5,56.8c-6.2,0-11.4,2.2-15.4,6.5C245,67.5,243,73,243,79.5
			c0,6.5,2.1,12,6.1,16.2c4,4.3,9.1,6.5,15.4,6.5c6.2,0,11.4-2.1,15.5-6.4c4-4.3,6.1-9.8,6.1-16.3c0-6.5-2-12-6.1-16.3
			C275.9,59,270.7,56.8,264.5,56.8L264.5,56.8z"/>
		<linearGradient id="SVGID_11_" gradientUnits="userSpaceOnUse" x1="316.0308" y1="45.8097" x2="318.3297" y2="111.6407">
			<stop  offset="0" style="stop-color:#F1F2F2"/>
			<stop  offset="0.1266" style="stop-color:#D4D6D7"/>
			<stop  offset="0.2904" style="stop-color:#B3B5B8"/>
			<stop  offset="0.3758" style="stop-color:#A7A9AC"/>
			<stop  offset="0.4229" style="stop-color:#818386"/>
			<stop  offset="0.4693" style="stop-color:#616264"/>
			<stop  offset="0.5056" style="stop-color:#4A4A4C"/>
			<stop  offset="0.5273" style="stop-color:#414042"/>
			<stop  offset="0.5316" style="stop-color:#565759"/>
			<stop  offset="0.5396" style="stop-color:#747578"/>
			<stop  offset="0.5486" style="stop-color:#8C8E90"/>
			<stop  offset="0.5585" style="stop-color:#A0A3A5"/>
			<stop  offset="0.5697" style="stop-color:#B2B4B7"/>
			<stop  offset="0.5828" style="stop-color:#C0C2C4"/>
			<stop  offset="0.599" style="stop-color:#CACCCD"/>
			<stop  offset="0.6218" style="stop-color:#D0D1D3"/>
			<stop  offset="0.6848" style="stop-color:#D1D3D4"/>
			<stop  offset="0.7393" style="stop-color:#C4C6C8"/>
			<stop  offset="0.8453" style="stop-color:#A2A4A7"/>
			<stop  offset="0.9914" style="stop-color:#707274"/>
			<stop  offset="1" style="stop-color:#6D6E71"/>
		</linearGradient>
		<path class="st10" d="M301.5,106.8v-49c0-0.3-0.2-0.5-0.5-0.5h-7.3v-5h26.8c4.4,0,8,1.2,10.8,3.8c2.9,2.6,4.3,5.7,4.3,9.7
			c0,3.8-1,6.8-3.1,9.2c-1.8,2.1-4.6,3.6-8.2,4.6l-1.1,1l0.7-0.3l9.6,21.2c0.1,0.2,0.3,0.3,0.5,0.3h6.7v5h-11l-11.8-26.1
			c-0.1-0.2-0.3-0.3-0.5-0.3h-9.7c-0.3,0-0.5,0.2-0.5,0.5v26H301.5z M307.8,57.4c-0.3,0-0.5,0.2-0.5,0.5v17c0,0.3,0.2,0.5,0.5,0.5
			h10.3c3.7,0,6.6-0.8,8.6-2.4c1.9-1.5,2.9-3.8,2.9-6.8c0-2.7-0.9-4.9-2.8-6.4c-1.7-1.6-4.2-2.5-7.4-2.5H307.8z"/>
		<linearGradient id="SVGID_12_" gradientUnits="userSpaceOnUse" x1="362.3341" y1="44.1994" x2="364.633" y2="110.0305">
			<stop  offset="0" style="stop-color:#F1F2F2"/>
			<stop  offset="0.1266" style="stop-color:#D4D6D7"/>
			<stop  offset="0.2904" style="stop-color:#B3B5B8"/>
			<stop  offset="0.3758" style="stop-color:#A7A9AC"/>
			<stop  offset="0.4229" style="stop-color:#818386"/>
			<stop  offset="0.4693" style="stop-color:#616264"/>
			<stop  offset="0.5056" style="stop-color:#4A4A4C"/>
			<stop  offset="0.5273" style="stop-color:#414042"/>
			<stop  offset="0.5316" style="stop-color:#565759"/>
			<stop  offset="0.5396" style="stop-color:#747578"/>
			<stop  offset="0.5486" style="stop-color:#8C8E90"/>
			<stop  offset="0.5585" style="stop-color:#A0A3A5"/>
			<stop  offset="0.5697" style="stop-color:#B2B4B7"/>
			<stop  offset="0.5828" style="stop-color:#C0C2C4"/>
			<stop  offset="0.599" style="stop-color:#CACCCD"/>
			<stop  offset="0.6218" style="stop-color:#D0D1D3"/>
			<stop  offset="0.6848" style="stop-color:#D1D3D4"/>
			<stop  offset="0.7393" style="stop-color:#C4C6C8"/>
			<stop  offset="0.8453" style="stop-color:#A2A4A7"/>
			<stop  offset="0.9914" style="stop-color:#707274"/>
			<stop  offset="1" style="stop-color:#6D6E71"/>
		</linearGradient>
		<path class="st11" d="M343,106.8v-5h6.5c0.3,0,0.5-0.2,0.5-0.5V57.9c0-0.3-0.2-0.5-0.5-0.5H343v-5h23.4c2.8,0,5.4,0.4,7.7,1.1
			c2.2,0.7,4.2,1.8,5.8,3.2c3.3,2.8,4.9,6.8,4.9,12c0,4.9-1.6,8.8-4.8,11.9c-3.2,2.9-7.5,4.4-12.7,4.4h-10.8c-0.3,0-0.5,0.2-0.5,0.5
			v21.3H343z M356.3,57.4c-0.3,0-0.5,0.2-0.5,0.5v21.6c0,0.3,0.2,0.5,0.5,0.5h9.3c2.2,0,4.1-0.2,5.8-0.7c1.6-0.4,3-1.1,4.2-2.1
			c2.2-1.7,3.3-4.4,3.3-8c0-2.2-0.3-4-0.8-5.5c-0.5-1.5-1.3-2.7-2.3-3.6c-2-1.9-5.4-2.8-10.2-2.8H356.3z"/>
		<linearGradient id="SVGID_13_" gradientUnits="userSpaceOnUse" x1="393.0283" y1="43.1216" x2="395.3272" y2="108.9533">
			<stop  offset="0" style="stop-color:#F1F2F2"/>
			<stop  offset="0.1266" style="stop-color:#D4D6D7"/>
			<stop  offset="0.2904" style="stop-color:#B3B5B8"/>
			<stop  offset="0.3758" style="stop-color:#A7A9AC"/>
			<stop  offset="0.4229" style="stop-color:#818386"/>
			<stop  offset="0.4693" style="stop-color:#616264"/>
			<stop  offset="0.5056" style="stop-color:#4A4A4C"/>
			<stop  offset="0.5273" style="stop-color:#414042"/>
			<stop  offset="0.5316" style="stop-color:#565759"/>
			<stop  offset="0.5396" style="stop-color:#747578"/>
			<stop  offset="0.5486" style="stop-color:#8C8E90"/>
			<stop  offset="0.5585" style="stop-color:#A0A3A5"/>
			<stop  offset="0.5697" style="stop-color:#B2B4B7"/>
			<stop  offset="0.5828" style="stop-color:#C0C2C4"/>
			<stop  offset="0.599" style="stop-color:#CACCCD"/>
			<stop  offset="0.6218" style="stop-color:#D0D1D3"/>
			<stop  offset="0.6848" style="stop-color:#D1D3D4"/>
			<stop  offset="0.7393" style="stop-color:#C4C6C8"/>
			<stop  offset="0.8453" style="stop-color:#A2A4A7"/>
			<stop  offset="0.9914" style="stop-color:#707274"/>
			<stop  offset="1" style="stop-color:#6D6E71"/>
		</linearGradient>
		<path class="st12" d="M385.6,106.8v-5h6.1c0.3,0,0.5-0.2,0.5-0.5V52.4h5.8v48.9c0,0.3,0.2,0.5,0.5,0.5h6.2v5H385.6z M392.1,49.9
			v-6.5h5.8v6.5H392.1z"/>
		<linearGradient id="SVGID_14_" gradientUnits="userSpaceOnUse" x1="433.9185" y1="41.6936" x2="436.2174" y2="107.5245">
			<stop  offset="0" style="stop-color:#F1F2F2"/>
			<stop  offset="0.1266" style="stop-color:#D4D6D7"/>
			<stop  offset="0.2904" style="stop-color:#B3B5B8"/>
			<stop  offset="0.3758" style="stop-color:#A7A9AC"/>
			<stop  offset="0.4229" style="stop-color:#818386"/>
			<stop  offset="0.4693" style="stop-color:#616264"/>
			<stop  offset="0.5056" style="stop-color:#4A4A4C"/>
			<stop  offset="0.5273" style="stop-color:#414042"/>
			<stop  offset="0.5316" style="stop-color:#565759"/>
			<stop  offset="0.5396" style="stop-color:#747578"/>
			<stop  offset="0.5486" style="stop-color:#8C8E90"/>
			<stop  offset="0.5585" style="stop-color:#A0A3A5"/>
			<stop  offset="0.5697" style="stop-color:#B2B4B7"/>
			<stop  offset="0.5828" style="stop-color:#C0C2C4"/>
			<stop  offset="0.599" style="stop-color:#CACCCD"/>
			<stop  offset="0.6218" style="stop-color:#D0D1D3"/>
			<stop  offset="0.6848" style="stop-color:#D1D3D4"/>
			<stop  offset="0.7393" style="stop-color:#C4C6C8"/>
			<stop  offset="0.8453" style="stop-color:#A2A4A7"/>
			<stop  offset="0.9914" style="stop-color:#707274"/>
			<stop  offset="1" style="stop-color:#6D6E71"/>
		</linearGradient>
		<path class="st13" d="M435.2,107.5c-7.9,0-14.5-2.7-19.6-8c-5.2-5.3-7.8-12.1-7.8-20.1c0-8,2.6-14.7,7.8-20.1
			c5.1-5.3,11.7-8,19.6-8c7.9,0,14.5,2.7,19.6,8c5.2,5.3,7.8,12.1,7.8,20.1c0,8-2.6,14.7-7.8,20.1
			C449.6,104.9,443.2,107.5,435.2,107.5L435.2,107.5z M435.2,56.8c-6.2,0-11.4,2.2-15.4,6.5c-4.1,4.2-6.1,9.7-6.1,16.2
			c0,6.5,2.1,12,6.1,16.2c4,4.3,9.2,6.5,15.4,6.5c6.2,0,11.4-2.1,15.5-6.4c4-4.3,6.1-9.8,6.1-16.3c0-6.5-2-12-6.1-16.3
			C446.6,59,441.4,56.8,435.2,56.8L435.2,56.8z"/>
	</g>
	<g>
		<linearGradient id="SVGID_15_" gradientUnits="userSpaceOnUse" x1="154.2108" y1="50.1841" x2="155.4567" y2="112.2776">
			<stop  offset="0" style="stop-color:#FFFFFF"/>
			<stop  offset="1" style="stop-color:#D1D3D4"/>
		</linearGradient>
		<path class="st14" d="M155.9,106.6c-2.8,0-5.5-0.6-8.1-1.9c-1.5-0.7-2.9-1.7-4.2-3c-0.4-0.4-0.8-0.6-1.4-0.6c-0.2,0-0.5,0-0.7,0.1
			c-0.7,0.3-1.2,1-1.2,1.8v2.8h-2.2V89.1h2.2v1.2c0,3.7,1.5,6.9,4.6,9.8c3.1,2.8,6.8,4.2,11,4.2c3.7,0,6.8-1.1,9.4-3.4
			c2.6-2.2,3.8-5.1,3.8-8.6c0-3.2-1.2-5.8-3.7-7.6c-1.2-0.9-2.7-1.7-4.7-2.5c-1.9-0.8-4.3-1.5-7.2-2.2c-2.7-0.7-5.1-1.5-7.1-2.4
			c-1.9-0.8-3.5-1.8-4.7-2.9c-2.4-2.1-3.6-5.1-3.6-9c0-3.4,1.4-6.2,4.2-8.7c2.9-2.4,6.3-3.6,10.5-3.6c1.3,0,2.6,0.1,3.9,0.3
			c1.2,0.2,2.4,0.5,3.6,1c1.1,0.5,2.2,1.1,3.1,1.6c0.8,0.5,1.7,1.2,2.6,2.2c0.5,0.6,0.9,1.1,1.3,1.6c0.3,0.4,0.6,0.9,0.9,1.6
			c0.3,0.5,0.4,1.1,0.6,1.9c0.1,0.9,0.3,1.8,0.4,2.6c0,0.3,0.1,0.6,0.1,1h-2.7v-0.3c0-0.4-0.1-1-0.2-1.8c-0.1-0.7-0.3-1.4-0.6-2.2
			c-0.3-0.8-0.7-1.6-1.1-2.3c-0.5-0.8-1.1-1.5-1.9-2.1c-1.5-1.1-3.1-1.8-4.9-2.1c-1.6-0.3-3.4-0.4-5.4-0.4c-3.4,0-6.2,0.9-8.4,2.8
			c-2.3,1.9-3.4,4.3-3.4,7.2c0,3.2,1.2,5.7,3.7,7.4c1.2,0.8,2.7,1.6,4.2,2.2c1.6,0.6,3.4,1.2,5.4,1.6c3.4,0.8,6.4,1.8,8.8,2.8
			c2.3,1,4.1,2.1,5.4,3.2c2.5,2.3,3.7,5.4,3.7,9.5c0,4-1.5,7.3-4.7,9.9C164.4,105.3,160.5,106.6,155.9,106.6L155.9,106.6z"/>
		<linearGradient id="SVGID_16_" gradientUnits="userSpaceOnUse" x1="205.1984" y1="49.1611" x2="206.4443" y2="111.2547">
			<stop  offset="0" style="stop-color:#FFFFFF"/>
			<stop  offset="1" style="stop-color:#D1D3D4"/>
		</linearGradient>
		<path class="st15" d="M206.8,106.6c-7.6,0-13.9-2.5-18.6-7.3c-4.7-4.8-7.1-11.3-7.1-19.3c0-7.8,2.4-14.2,7.1-19.2
			c4.8-4.9,11-7.3,18.5-7.3c3.3,0,6.7,0.7,10,2.2c2.4,1,4.7,2.6,6.7,4.7c0.4,0.4,0.8,0.6,1.4,0.6c0.2,0,0.5,0,0.7-0.1
			c0.7-0.3,1.2-1,1.2-1.7h2.2v10.9h-2.5c-0.6-2.1-1.3-3.9-2.3-5.4c-1.2-1.9-2.8-3.4-4.8-4.7c-3.9-2.5-8.2-3.8-12.8-3.8
			c-6.6,0-12,2.3-16.2,6.8c-4.2,4.5-6.3,10.3-6.3,17.4c0,7,2.2,12.9,6.5,17.3c4.2,4.5,9.7,6.8,16.3,6.8c5,0,9.4-1.3,13-3.9
			c1.8-1.3,3.4-3.1,5-5.3c1.2-1.8,2.3-4,3.4-6.7l2.4,1.4c-1.2,3-2.6,5.5-4,7.5c-1.6,2.3-3.5,4.1-5.6,5.5
			C217,105.3,212.2,106.6,206.8,106.6L206.8,106.6z"/>
		<linearGradient id="SVGID_17_" gradientUnits="userSpaceOnUse" x1="264.0685" y1="47.9734" x2="265.3144" y2="110.0669">
			<stop  offset="0" style="stop-color:#FFFFFF"/>
			<stop  offset="1" style="stop-color:#D1D3D4"/>
		</linearGradient>
		<path class="st16" d="M264.7,106.6c-7.5,0-13.7-2.5-18.6-7.5c-4.9-5.1-7.4-11.5-7.4-19.1c0-7.6,2.5-14,7.4-19.1
			c4.8-5,11.1-7.5,18.6-7.5c7.5,0,13.7,2.5,18.6,7.5c4.9,5.1,7.4,11.5,7.4,19.1c0,7.6-2.5,14-7.4,19.1
			C278.4,104.2,272.3,106.6,264.7,106.6L264.7,106.6z M264.7,55.9c-6.7,0-12.2,2.3-16.4,6.9c-4.3,4.5-6.5,10.3-6.5,17.2
			c0,6.9,2.2,12.7,6.5,17.2c4.2,4.6,9.8,6.9,16.4,6.9c6.6,0,12.1-2.3,16.5-6.8c4.3-4.6,6.5-10.5,6.5-17.3c0-6.9-2.2-12.7-6.4-17.3
			C276.9,58.2,271.3,55.9,264.7,55.9L264.7,55.9z"/>
		<linearGradient id="SVGID_18_" gradientUnits="userSpaceOnUse" x1="316.7674" y1="46.917" x2="318.0133" y2="109.0097">
			<stop  offset="0" style="stop-color:#FFFFFF"/>
			<stop  offset="1" style="stop-color:#D1D3D4"/>
		</linearGradient>
		<path class="st17" d="M303.1,105.9V58.4c0-1.1-0.9-1.9-1.9-1.9h-5.9v-2.1h25.3c4.1,0,7.3,1.1,9.9,3.4c2.6,2.3,3.8,5.1,3.8,8.6
			c0,3.4-0.9,6.1-2.7,8.3c-1.6,1.9-4.2,3.3-7.5,4.1c-0.5,0.1-1,0.5-1.2,1c-0.2,0.5-0.2,1.1,0,1.6l9.6,21.2c0.3,0.7,1,1.1,1.8,1.1
			h5.3v2.2h-8.7l-11.4-25.3c-0.3-0.7-1-1.1-1.8-1.1H308c-1.1,0-1.9,0.9-1.9,1.9v24.6H303.1z M308,56.5c-1.1,0-1.9,0.9-1.9,1.9v17
			c0,1.1,0.9,1.9,1.9,1.9h10.3c4.1,0,7.3-0.9,9.5-2.7c2.3-1.8,3.5-4.4,3.5-7.9c0-3.2-1.1-5.7-3.3-7.5c-1.9-1.8-4.8-2.8-8.3-2.8H308z
			"/>
		<linearGradient id="SVGID_19_" gradientUnits="userSpaceOnUse" x1="363.239" y1="45.983" x2="364.4849" y2="108.0759">
			<stop  offset="0" style="stop-color:#FFFFFF"/>
			<stop  offset="1" style="stop-color:#D1D3D4"/>
		</linearGradient>
		<path class="st18" d="M344.6,105.9v-2.2h5.1c1.1,0,1.9-0.9,1.9-1.9V58.4c0-1.1-0.9-1.9-1.9-1.9h-5.1v-2.1h22c2.7,0,5.1,0.3,7.3,1
			c2,0.6,3.8,1.6,5.2,2.9c3,2.6,4.4,6.1,4.4,11c0,4.5-1.4,8.1-4.4,10.8c-2.9,2.7-6.9,4-11.8,4h-10.8c-1.1,0-1.9,0.9-1.9,1.9v19.9
			H344.6z M356.6,56.5c-1.1,0-1.9,0.9-1.9,1.9V80c0,1.1,0.9,1.9,1.9,1.9h9.3c2.3,0,4.4-0.2,6.2-0.7c1.8-0.5,3.4-1.3,4.7-2.3
			c2.5-2,3.8-5,3.8-9.1c0-2.3-0.3-4.3-0.9-6c-0.6-1.7-1.5-3.1-2.7-4.1c-2.3-2.1-5.9-3.1-11.1-3.1H356.6z"/>
		<linearGradient id="SVGID_20_" gradientUnits="userSpaceOnUse" x1="394.1952" y1="45.3614" x2="395.4411" y2="107.4543">
			<stop  offset="0" style="stop-color:#FFFFFF"/>
			<stop  offset="1" style="stop-color:#D1D3D4"/>
		</linearGradient>
		<path class="st19" d="M387.2,105.9v-2.2h4.7c1.1,0,1.9-0.9,1.9-1.9V54.3h3v47.5c0,1.1,0.9,1.9,1.9,1.9h4.8v2.2H387.2z M393.8,49
			v-3.6h3V49H393.8z"/>
		<linearGradient id="SVGID_21_" gradientUnits="userSpaceOnUse" x1="434.7513" y1="44.5545" x2="435.9973" y2="106.648">
			<stop  offset="0" style="stop-color:#FFFFFF"/>
			<stop  offset="1" style="stop-color:#D1D3D4"/>
		</linearGradient>
		<path class="st20" d="M435.5,106.6c-7.5,0-13.7-2.5-18.6-7.5c-4.9-5.1-7.4-11.5-7.4-19.1c0-7.6,2.5-14,7.4-19.1
			c4.8-5,11.1-7.5,18.6-7.5c7.5,0,13.7,2.5,18.6,7.5c4.9,5.1,7.4,11.5,7.4,19.1c0,7.6-2.5,14-7.4,19.1
			C449.1,104.2,443,106.6,435.5,106.6L435.5,106.6z M435.5,55.9c-6.7,0-12.2,2.3-16.4,6.9c-4.3,4.5-6.5,10.3-6.5,17.2
			c0,6.9,2.2,12.7,6.5,17.2c4.2,4.6,9.8,6.9,16.4,6.9c6.6,0,12.1-2.3,16.5-6.8c4.3-4.6,6.5-10.5,6.5-17.3c0-6.9-2.2-12.7-6.4-17.3
			C447.6,58.2,442.1,55.9,435.5,55.9L435.5,55.9z"/>
	</g>
	<g>
		<linearGradient id="SVGID_22_" gradientUnits="userSpaceOnUse" x1="155.7896" y1="46.2323" x2="155.7896" y2="106.5757">
			<stop  offset="0" style="stop-color:#FFFFFF"/>
			<stop  offset="0.4" style="stop-color:#F1F2F2"/>
			<stop  offset="0.4334" style="stop-color:#414042"/>
			<stop  offset="0.5082" style="stop-color:#606164"/>
			<stop  offset="0.5996" style="stop-color:#7C7E81"/>
			<stop  offset="0.6739" style="stop-color:#8D8F92"/>
			<stop  offset="0.7212" style="stop-color:#939598"/>
			<stop  offset="0.7259" style="stop-color:#97999C"/>
			<stop  offset="0.7588" style="stop-color:#B0B2B4"/>
			<stop  offset="0.7908" style="stop-color:#C2C4C6"/>
			<stop  offset="0.8212" style="stop-color:#CDCFD1"/>
			<stop  offset="0.8485" style="stop-color:#D1D3D4"/>
			<stop  offset="0.8897" style="stop-color:#DEDFE0"/>
			<stop  offset="0.953" style="stop-color:#ECEDED"/>
			<stop  offset="1" style="stop-color:#F1F2F2"/>
		</linearGradient>
		<path class="st21" d="M156.5,106.6c-2.7,0-5.4-0.6-7.9-1.9c-1.5-0.7-2.8-1.7-4-2.9c-0.5-0.5-1.1-0.7-1.7-0.7
			c-0.3,0-0.6,0.1-0.9,0.2c-0.9,0.4-1.5,1.2-1.5,2.2v2.3h-1.3V89.9h1.3v0.7c0,3.8,1.6,7.2,4.7,10.1c3.2,2.9,7,4.3,11.4,4.3
			c3.8,0,7.1-1.2,9.7-3.5c2.7-2.3,4-5.3,4-9c0-3.4-1.3-6.1-3.9-7.9c-1.2-0.9-2.8-1.7-4.8-2.5c-1.9-0.8-4.3-1.5-7.3-2.2
			c-2.7-0.7-5-1.5-7-2.4c-1.9-0.8-3.4-1.8-4.5-2.8c-2.3-2.1-3.4-4.9-3.4-8.6c0-3.2,1.3-6,4.1-8.3c2.8-2.3,6.1-3.5,10.2-3.5
			c1.3,0,2.5,0.1,3.8,0.3c1.2,0.2,2.3,0.5,3.5,1c1.1,0.5,2.2,1,3.1,1.6c0.8,0.5,1.6,1.2,2.5,2.1c0.4,0.5,0.9,1.1,1.3,1.6
			c0.3,0.4,0.6,0.9,0.9,1.6c0.3,0.5,0.4,1.1,0.5,1.8c0.1,0.9,0.3,1.8,0.4,2.6c0,0.2,0,0.3,0.1,0.5H168c0-0.4-0.1-1-0.2-1.7
			c-0.1-0.7-0.3-1.5-0.6-2.3c-0.3-0.9-0.7-1.7-1.2-2.4c-0.5-0.8-1.2-1.6-1.9-2.2c-1.6-1.2-3.3-1.9-5.1-2.2c-1.6-0.3-3.5-0.4-5.5-0.4
			c-3.5,0-6.4,1-8.7,2.9c-2.4,2-3.6,4.5-3.6,7.5c0,3.4,1.3,6,3.9,7.8c1.3,0.9,2.7,1.6,4.3,2.2c1.6,0.7,3.5,1.2,5.5,1.6
			c3.4,0.8,6.3,1.8,8.8,2.8c2.3,1,4,2,5.2,3.1c2.4,2.2,3.5,5.2,3.5,9.1c0,3.9-1.5,7-4.5,9.6C164.8,105.2,161,106.6,156.5,106.6
			L156.5,106.6z"/>
		<linearGradient id="SVGID_23_" gradientUnits="userSpaceOnUse" x1="206.4546" y1="46.2323" x2="206.4546" y2="106.5757">
			<stop  offset="0" style="stop-color:#FFFFFF"/>
			<stop  offset="0.4" style="stop-color:#F1F2F2"/>
			<stop  offset="0.4334" style="stop-color:#414042"/>
			<stop  offset="0.5082" style="stop-color:#606164"/>
			<stop  offset="0.5996" style="stop-color:#7C7E81"/>
			<stop  offset="0.6739" style="stop-color:#8D8F92"/>
			<stop  offset="0.7212" style="stop-color:#939598"/>
			<stop  offset="0.7259" style="stop-color:#97999C"/>
			<stop  offset="0.7588" style="stop-color:#B0B2B4"/>
			<stop  offset="0.7908" style="stop-color:#C2C4C6"/>
			<stop  offset="0.8212" style="stop-color:#CDCFD1"/>
			<stop  offset="0.8485" style="stop-color:#D1D3D4"/>
			<stop  offset="0.8897" style="stop-color:#DEDFE0"/>
			<stop  offset="0.953" style="stop-color:#ECEDED"/>
			<stop  offset="1" style="stop-color:#F1F2F2"/>
		</linearGradient>
		<path class="st22" d="M207.4,106.6c-7.5,0-13.7-2.4-18.3-7.2c-4.6-4.7-6.9-11.1-6.9-19c0-7.6,2.4-14,7-18.9
			c4.7-4.8,10.8-7.2,18.2-7.2c3.2,0,6.5,0.7,9.8,2.1c2.4,1,4.6,2.6,6.6,4.6c0.4,0.5,1,0.7,1.7,0.7c0.3,0,0.6-0.1,0.9-0.2
			c0.7-0.3,1.3-0.9,1.4-1.7h1.4v9.9h-1.7c-0.6-2-1.3-3.7-2.3-5.2c-1.2-1.9-2.9-3.5-4.9-4.9c-4-2.6-8.4-3.9-13.1-3.9
			c-6.7,0-12.2,2.3-16.5,6.9c-4.3,4.6-6.4,10.5-6.4,17.7c0,7.2,2.2,13.1,6.6,17.6c4.3,4.6,9.9,7,16.7,7c5.1,0,9.6-1.4,13.3-4
			c1.8-1.3,3.5-3.1,5.1-5.5c1.1-1.7,2.2-3.8,3.3-6.3l1.6,1c-1.2,2.8-2.4,5.1-3.8,7c-1.6,2.2-3.4,4-5.5,5.4
			C217.4,105.2,212.7,106.6,207.4,106.6L207.4,106.6z"/>
		<linearGradient id="SVGID_24_" gradientUnits="userSpaceOnUse" x1="265.3081" y1="46.2323" x2="265.3081" y2="106.5757">
			<stop  offset="0" style="stop-color:#FFFFFF"/>
			<stop  offset="0.4" style="stop-color:#F1F2F2"/>
			<stop  offset="0.4334" style="stop-color:#414042"/>
			<stop  offset="0.5082" style="stop-color:#606164"/>
			<stop  offset="0.5996" style="stop-color:#7C7E81"/>
			<stop  offset="0.6739" style="stop-color:#8D8F92"/>
			<stop  offset="0.7212" style="stop-color:#939598"/>
			<stop  offset="0.7259" style="stop-color:#97999C"/>
			<stop  offset="0.7588" style="stop-color:#B0B2B4"/>
			<stop  offset="0.7908" style="stop-color:#C2C4C6"/>
			<stop  offset="0.8212" style="stop-color:#CDCFD1"/>
			<stop  offset="0.8485" style="stop-color:#D1D3D4"/>
			<stop  offset="0.8897" style="stop-color:#DEDFE0"/>
			<stop  offset="0.953" style="stop-color:#ECEDED"/>
			<stop  offset="1" style="stop-color:#F1F2F2"/>
		</linearGradient>
		<path class="st23" d="M265.3,106.6c-7.3,0-13.5-2.5-18.2-7.4c-4.8-5-7.3-11.3-7.3-18.7c0-7.5,2.4-13.8,7.3-18.7
			c4.8-4.9,10.9-7.4,18.2-7.4c7.3,0,13.5,2.5,18.2,7.4c4.8,5,7.3,11.3,7.3,18.7c0,7.5-2.4,13.8-7.3,18.7
			C278.7,104.2,272.8,106.6,265.3,106.6L265.3,106.6z M265.3,55.9c-6.8,0-12.4,2.4-16.8,7.1c-4.4,4.6-6.6,10.5-6.6,17.5
			c0,7,2.2,13,6.7,17.5c4.3,4.7,10,7,16.8,7c6.7,0,12.4-2.3,16.8-7c4.4-4.7,6.6-10.7,6.6-17.6c0-7-2.2-12.9-6.6-17.6
			C277.7,58.2,272,55.9,265.3,55.9L265.3,55.9z"/>
		<linearGradient id="SVGID_25_" gradientUnits="userSpaceOnUse" x1="318.0293" y1="46.2322" x2="318.0293" y2="106.5759">
			<stop  offset="0" style="stop-color:#FFFFFF"/>
			<stop  offset="0.4" style="stop-color:#F1F2F2"/>
			<stop  offset="0.4334" style="stop-color:#414042"/>
			<stop  offset="0.5082" style="stop-color:#606164"/>
			<stop  offset="0.5996" style="stop-color:#7C7E81"/>
			<stop  offset="0.6739" style="stop-color:#8D8F92"/>
			<stop  offset="0.7212" style="stop-color:#939598"/>
			<stop  offset="0.7259" style="stop-color:#97999C"/>
			<stop  offset="0.7588" style="stop-color:#B0B2B4"/>
			<stop  offset="0.7908" style="stop-color:#C2C4C6"/>
			<stop  offset="0.8212" style="stop-color:#CDCFD1"/>
			<stop  offset="0.8485" style="stop-color:#D1D3D4"/>
			<stop  offset="0.8897" style="stop-color:#DEDFE0"/>
			<stop  offset="0.953" style="stop-color:#ECEDED"/>
			<stop  offset="1" style="stop-color:#F1F2F2"/>
		</linearGradient>
		<path class="st24" d="M304.2,105.9V58.8c0-1.3-1.1-2.4-2.4-2.4h-5.4v-1.2h24.9c4,0,7.1,1.1,9.6,3.3c2.4,2.2,3.6,4.9,3.6,8.3
			c0,3.3-0.9,5.9-2.6,8c-1.6,1.8-4,3.1-7.2,4c-0.7,0.2-1.2,0.6-1.5,1.3c-0.3,0.6-0.3,1.4,0,2l9.6,21.2c0.4,0.9,1.2,1.4,2.2,1.4h4.9
			v1.2h-7.9l-11.3-25c-0.4-0.9-1.2-1.4-2.2-1.4h-9.7c-1.3,0-2.4,1.1-2.4,2.4v24.1H304.2z M308.6,56.4c-1.3,0-2.4,1.1-2.4,2.4v17
			c0,1.3,1.1,2.4,2.4,2.4h10.3c4.2,0,7.5-0.9,9.8-2.8c2.4-1.9,3.6-4.6,3.6-8.3c0-3.3-1.2-6-3.4-7.8c-2-1.9-4.9-2.9-8.6-2.9H308.6z"
			/>
		<linearGradient id="SVGID_26_" gradientUnits="userSpaceOnUse" x1="364.6665" y1="46.2322" x2="364.6665" y2="106.5761">
			<stop  offset="0" style="stop-color:#FFFFFF"/>
			<stop  offset="0.4" style="stop-color:#F1F2F2"/>
			<stop  offset="0.4334" style="stop-color:#414042"/>
			<stop  offset="0.5082" style="stop-color:#606164"/>
			<stop  offset="0.5996" style="stop-color:#7C7E81"/>
			<stop  offset="0.6739" style="stop-color:#8D8F92"/>
			<stop  offset="0.7212" style="stop-color:#939598"/>
			<stop  offset="0.7259" style="stop-color:#97999C"/>
			<stop  offset="0.7588" style="stop-color:#B0B2B4"/>
			<stop  offset="0.7908" style="stop-color:#C2C4C6"/>
			<stop  offset="0.8212" style="stop-color:#CDCFD1"/>
			<stop  offset="0.8485" style="stop-color:#D1D3D4"/>
			<stop  offset="0.8897" style="stop-color:#DEDFE0"/>
			<stop  offset="0.953" style="stop-color:#ECEDED"/>
			<stop  offset="1" style="stop-color:#F1F2F2"/>
		</linearGradient>
		<path class="st25" d="M345.7,105.8v-1.2h4.6c1.3,0,2.4-1.1,2.4-2.4V58.8c0-1.3-1.1-2.4-2.4-2.4h-4.6v-1.2h21.5c2.6,0,5,0.3,7.1,1
			c2,0.6,3.7,1.6,5.1,2.8c2.9,2.5,4.3,6,4.3,10.6c0,4.4-1.4,7.8-4.2,10.5c-2.8,2.6-6.7,3.9-11.5,3.9h-10.8c-1.3,0-2.4,1.1-2.4,2.4
			v19.4H345.7z M357.2,56.4c-1.3,0-2.4,1.1-2.4,2.4v21.6c0,1.3,1.1,2.4,2.4,2.4h9.3c2.4,0,4.5-0.3,6.3-0.7c1.9-0.5,3.5-1.3,4.9-2.4
			c2.7-2.1,4-5.3,4-9.5c0-2.4-0.3-4.4-0.9-6.1c-0.7-1.8-1.6-3.2-2.8-4.3c-2.4-2.2-6.1-3.3-11.4-3.3H357.2z"/>
		<linearGradient id="SVGID_27_" gradientUnits="userSpaceOnUse" x1="395.9833" y1="46.2321" x2="395.9833" y2="106.5762">
			<stop  offset="0" style="stop-color:#FFFFFF"/>
			<stop  offset="0.4" style="stop-color:#F1F2F2"/>
			<stop  offset="0.4334" style="stop-color:#414042"/>
			<stop  offset="0.5082" style="stop-color:#606164"/>
			<stop  offset="0.5996" style="stop-color:#7C7E81"/>
			<stop  offset="0.6739" style="stop-color:#8D8F92"/>
			<stop  offset="0.7212" style="stop-color:#939598"/>
			<stop  offset="0.7259" style="stop-color:#97999C"/>
			<stop  offset="0.7588" style="stop-color:#B0B2B4"/>
			<stop  offset="0.7908" style="stop-color:#C2C4C6"/>
			<stop  offset="0.8212" style="stop-color:#CDCFD1"/>
			<stop  offset="0.8485" style="stop-color:#D1D3D4"/>
			<stop  offset="0.8897" style="stop-color:#DEDFE0"/>
			<stop  offset="0.953" style="stop-color:#ECEDED"/>
			<stop  offset="1" style="stop-color:#F1F2F2"/>
		</linearGradient>
		<path class="st26" d="M388.3,105.8v-1.2h4.2c1.3,0,2.4-1.1,2.4-2.4v-47h2.1v47c0,1.3,1.1,2.4,2.4,2.4h4.3v1.2H388.3z M394.8,48.9
			v-2.7h2.1v2.7H394.8z"/>
		<linearGradient id="SVGID_28_" gradientUnits="userSpaceOnUse" x1="436.0596" y1="46.2323" x2="436.0596" y2="106.5757">
			<stop  offset="0" style="stop-color:#FFFFFF"/>
			<stop  offset="0.4" style="stop-color:#F1F2F2"/>
			<stop  offset="0.4334" style="stop-color:#414042"/>
			<stop  offset="0.5082" style="stop-color:#606164"/>
			<stop  offset="0.5996" style="stop-color:#7C7E81"/>
			<stop  offset="0.6739" style="stop-color:#8D8F92"/>
			<stop  offset="0.7212" style="stop-color:#939598"/>
			<stop  offset="0.7259" style="stop-color:#97999C"/>
			<stop  offset="0.7588" style="stop-color:#B0B2B4"/>
			<stop  offset="0.7908" style="stop-color:#C2C4C6"/>
			<stop  offset="0.8212" style="stop-color:#CDCFD1"/>
			<stop  offset="0.8485" style="stop-color:#D1D3D4"/>
			<stop  offset="0.8897" style="stop-color:#DEDFE0"/>
			<stop  offset="0.953" style="stop-color:#ECEDED"/>
			<stop  offset="1" style="stop-color:#F1F2F2"/>
		</linearGradient>
		<path class="st27" d="M436.1,106.6c-7.4,0-13.5-2.5-18.2-7.4c-4.8-5-7.3-11.3-7.3-18.7c0-7.5,2.4-13.8,7.3-18.7
			c4.8-4.9,10.9-7.4,18.2-7.4c7.3,0,13.5,2.5,18.2,7.4c4.8,5,7.3,11.3,7.3,18.7c0,7.5-2.4,13.8-7.3,18.7
			C449.5,104.2,443.5,106.6,436.1,106.6L436.1,106.6z M436.1,55.9c-6.8,0-12.4,2.4-16.8,7.1c-4.4,4.6-6.6,10.5-6.6,17.5
			c0,7,2.2,13,6.7,17.5c4.3,4.7,10,7,16.8,7c6.7,0,12.4-2.3,16.8-7c4.4-4.7,6.6-10.7,6.6-17.6c0-7-2.2-12.9-6.6-17.6
			C448.4,58.2,442.8,55.9,436.1,55.9L436.1,55.9z"/>
	</g>
</g>
</svg>
