<?xml version="1.0" encoding="utf-8"?>
<!-- Generator: Adobe Illustrator 21.1.0, SVG Export Plug-In . SVG Version: 6.00 Build 0)  -->
<svg version="1.1" id="Layer_3" xmlns="http://www.w3.org/2000/svg" xmlns:xlink="http://www.w3.org/1999/xlink" x="0px" y="0px"
	 viewBox="0 0 255.1 255.1" style="enable-background:new 0 0 255.1 255.1;" xml:space="preserve">
<style type="text/css">
	.st0{fill:url(#SVGID_1_);}
	.st1{fill:url(#SVGID_2_);}
	.st2{fill:url(#SVGID_3_);}
	.st3{fill:url(#SVGID_4_);}
	.st4{fill:url(#SVGID_5_);}
	.st5{fill:url(#SVGID_6_);}
	.st6{fill:url(#SVGID_7_);}
	.st7{fill:url(#SVGID_8_);}
	.st8{fill:url(#SVGID_9_);}
	.st9{fill:url(#SVGID_10_);}
	.st10{fill:url(#SVGID_11_);}
	.st11{fill:#FFFFFF;}
</style>
<g>
	<radialGradient id="SVGID_1_" cx="162.9991" cy="73.6907" r="160.6127" gradientUnits="userSpaceOnUse">
		<stop  offset="0.2" style="stop-color:#FFFFFF"/>
		<stop  offset="0.7" style="stop-color:#FFFFFF;stop-opacity:0.6"/>
		<stop  offset="1" style="stop-color:#FFFFFF"/>
	</radialGradient>
	<path class="st0" d="M212.2,89.4c2.4-2.8,4.3-5.7,5.7-8.6c1.4-2.9,2.1-5.7,2.4-8.1c0.3-2.5,0.1-4.7-0.3-6.4c-0.4-1.7-0.9-3-1.2-3.8
		c-0.4-0.8-0.6-1.2-0.6-1.2c0,0,0.2,0.4,0.4,1.3c0.3,0.9,0.6,2.1,0.8,3.8c0.2,1.7,0.2,3.8-0.3,6.1c-0.5,2.3-1.4,4.9-2.9,7.4
		c-1.5,2.7-3.7,5.4-6.2,8c0.3-1.7,0.4-3.3,0.4-5c0-1.2,0-2.3-0.1-3.4c0.4-0.7,0.8-1.4,1.1-2.1c1.2-2.4,1.9-4.7,2.2-6.8
		c0.4-2.1,0.3-3.9,0.2-5.4c-0.2-1.5-0.4-2.6-0.6-3.3c-0.2-0.7-0.4-1.1-0.4-1.1c0,0,0.1,0.4,0.3,1.1c0.1,0.7,0.3,1.9,0.4,3.3
		c0,1.4-0.1,3.2-0.5,5.2c-0.5,2-1.3,4.2-2.6,6.4c-0.1,0.2-0.2,0.3-0.3,0.5c-0.1-1.3-0.3-2.6-0.6-3.9c-1.1-5.9-3.1-10.8-5.3-14.5
		c-2.2-3.7-4.6-6.2-6.4-7.7c-1.8-1.4-3-1.9-3-1.9c0,0,1.1,0.8,2.7,2.5c1.6,1.7,3.6,4.5,5.3,8.4c1.7,3.8,3.2,8.7,4.1,14.3
		c0.3,2.1,0.5,4.2,0.6,6.5c-2.4,3.1-5.6,6.2-9.3,9c-2.7,2.1-5.7,4-8.9,5.8c-3.2,1.8-6.7,3.4-10.3,4.8c-0.9,0.3-1.8,0.6-2.7,0.9
		c-0.5,0.1-0.9,0.3-1.3,0.4c-0.5,0.1-0.9,0.2-1.4,0.3c-1.8,0.4-3.7,0.5-5.5,0.6h0c0.1-0.8,0.2-1.6,0.2-2.4c0.2-3.5,0.1-6.8-0.2-10
		c-0.6-6.2-2.2-11.6-4.1-15.7c-1.9-4.1-4.2-7-6-8.7c-1.8-1.7-3-2.3-3-2.3c0,0,1.1,0.9,2.6,2.8c1.5,2,3.4,5.1,4.8,9.3
		c1.4,4.2,2.5,9.5,2.9,15.4c0.2,3,0.2,6.1,0.1,9.3c0,0.7-0.1,1.4-0.2,2.1c-2.7-0.1-5.3-0.4-7.9-0.8c-3.2-0.5-6.3-1-9.3-1.3
		c0.1-0.3,0.1-0.7,0.2-1c0.4-2.7,0.1-5.3-0.4-7.6c-1-4.7-2.7-8.4-4.4-11.3c-1.7-2.9-3.4-4.9-4.7-6.2c-1.3-1.3-2.1-1.8-2.1-1.8
		c0,0,0.7,0.8,1.7,2.3c1,1.5,2.4,3.9,3.7,6.9c1.3,3,2.6,6.8,3.3,11c0.3,2.1,0.5,4.4,0.2,6.6c0,0.2-0.1,0.5-0.1,0.7
		c-2.2-0.2-4.3-0.2-6.3-0.1c-2.6,0.1-5,0.6-7,1.3c-2,0.7-3.6,1.5-4.9,2.2c-1.3,0.8-2.2,1.5-2.8,1.9c-0.6,0.5-0.9,0.8-0.9,0.8
		s0.3-0.2,1-0.7c0.6-0.4,1.6-1,2.9-1.7c1.3-0.7,2.9-1.3,4.9-1.8c2-0.5,4.3-0.8,6.8-0.8c1.9,0,3.8,0.2,5.9,0.4
		c-0.3,1.1-0.8,2.2-1.5,3.2c-0.3-0.1-0.7-0.1-1-0.2c-1.9-0.3-3.7-0.3-5.5-0.3c-1.7,0.1-3.4,0.3-4.9,0.7c-3.1,0.7-5.8,1.9-7.8,3.5
		c-1,0.8-1.8,1.7-2.4,2.6c-0.2,0.2-0.3,0.5-0.4,0.7c0-0.1,0-0.2,0-0.4c0.2-2.3,0-4.6-0.3-6.9c-0.1-0.7-0.2-1.3-0.3-2
		c-0.1-0.3-0.1-0.6-0.2-0.9c-0.2-1.2-0.5-2.5-0.8-3.7c-0.1-0.4-0.2-0.8-0.3-1.1c-0.2-0.9-0.5-1.8-0.8-2.6c0-0.2-0.1-0.3-0.2-0.5
		c-0.2-0.5-0.3-1-0.5-1.5c-0.1-0.3-0.2-0.6-0.3-0.8c0-0.1,0-0.1-0.1-0.2c-0.3-0.8-0.6-1.5-0.9-2.3c0-0.1,0-0.1-0.1-0.2
		c-0.2-0.6-0.5-1.2-0.7-1.7c-0.1-0.2-0.2-0.4-0.3-0.7c-0.6-1.3-1.2-2.7-1.9-4c-0.1-0.2-0.2-0.4-0.3-0.7c-0.4-0.7-0.8-1.4-1.2-2.1
		c-0.1-0.2-0.2-0.3-0.3-0.5c0,0,0,0,0-0.1c-1.2-2-2.5-3.8-4-5.6c0-0.1-0.1-0.1-0.2-0.2c0.2,0.1,0.4,0.1,0.6,0.1
		c0.1,0.1,0.3,0.1,0.4,0.1c1.1,0.3,2.3,0.4,3.6,0.4c2.6-0.1,5.4-1,8.3-2.5c1.4-0.8,2.9-1.7,4.3-2.8c1.1-0.9,2.2-1.8,3.2-2.9
		c1.5,0.9,2.6,1.5,3.5,2.1c1,0.7,1.7,1.4,1.7,1.3c0,0,0.1-0.2,0.1-0.7c0-0.4-0.1-1.1-0.4-1.8c-0.3-0.7-0.9-1.6-1.8-2.2
		c-0.4-0.3-0.9-0.6-1.5-0.8c0.1-0.2,0.2-0.4,0.4-0.5l0.4-0.6c0.5-0.8,1.1-1.6,1.7-2.3c1.2-1.6,2.5-3.1,3.8-4.7
		c1.4-1.6,2.9-3.2,4.5-4.7c1.6,0.9,3.1,1.8,4.3,2.6c1.5,1,2.7,2,3.6,2.9c1,0.9,1.7,1.7,2.2,2.3l0.8,0.9c0,0,0-0.4-0.3-1.2
		c-0.2-0.8-0.6-1.9-1.4-3.2c-0.8-1.3-1.9-2.7-3.5-3.9c-1-0.8-2.1-1.5-3.3-2c1.3-0.9,2.6-2,3.7-3.1c0.3-0.3,0.6-0.6,0.9-0.9
		c0.1-0.1,0.1-0.1,0.2-0.2c1.1-0.7,2.1-1.3,3.3-1.8c0.3-0.1,0.5-0.2,0.8-0.3l0.8-0.3c0.5-0.2,1.1-0.4,1.6-0.6c1.1-0.4,2.2-0.7,3.4-1
		c4.6-1.2,9.2-1.8,13.6-2.1c4.5-0.2,8.8,0,12.9,0.5c8.2,1,15.3,3.5,20.7,6.6c2.7,1.6,4.9,3.3,6.7,5.1c1.8,1.7,3,3.5,3.9,5
		c0.9,1.5,1.4,2.8,1.7,3.7c0.3,0.9,0.4,1.4,0.4,1.3c0,0-0.1-0.5-0.4-1.4c-0.3-0.9-0.7-2.2-1.5-3.8c-0.8-1.6-2-3.4-3.7-5.3
		c-1.7-1.9-3.9-3.8-6.6-5.5c-5.4-3.5-12.7-6.3-21-7.6c-4.2-0.6-8.6-0.9-13.3-0.8c-4.6,0.2-9.4,0.8-14.1,2c-1.2,0.3-2.4,0.7-3.5,1.1
		c-0.6,0.2-1.1,0.4-1.7,0.6l-0.8,0.3c-0.1,0-0.1,0.1-0.2,0.1c0.5-0.9,1-1.9,1.3-2.8c0.5-1.5,0.8-2.9,0.9-4.4c0.1-1.4,0-2.8-0.2-4.1
		c0,0,0,0,0-0.1v-0.1l0-0.2l0-0.5c0-0.3-0.1-0.6-0.1-0.9c-0.1-0.6-0.2-1.2-0.4-1.8c-0.3-1.1-0.7-2.2-1.3-3.1c-0.3-0.4-0.6-0.9-1-1.2
		c-0.4-0.3-0.9-0.6-1.4-0.6c-0.5,0-1,0.3-1.3,0.6c-0.3,0.3-0.5,0.6-0.7,0.9c-0.3,0.6-0.6,1.2-0.7,1.7c-0.2,0.5-0.3,1-0.4,1.3
		c-0.2,0.7-0.2,1.1-0.2,1.1s0.1-0.4,0.3-1.1c0.1-0.4,0.3-0.8,0.5-1.3c0.2-0.5,0.5-1.1,0.8-1.6c0.2-0.3,0.4-0.6,0.7-0.8
		c0.3-0.2,0.6-0.4,0.9-0.4c0.3,0,0.7,0.2,1,0.5c0.3,0.3,0.6,0.7,0.8,1.1c0.4,0.8,0.8,1.8,1,2.9c0.1,0.5,0.2,1.1,0.3,1.7
		c0,0.3,0,0.6,0.1,0.9l0,1c0.3,2.4,0.1,5.1-1,7.7c-0.5,1.3-1.3,2.6-2.2,3.8c-0.3,0.5-0.7,0.9-1.1,1.3c-0.1,0.2-0.2,0.3-0.4,0.5
		c-0.3,0.3-0.5,0.6-0.8,0.9c-0.2,0.3-0.5,0.5-0.8,0.8c-1.6,1.5-3.4,2.8-5.5,3.9c-0.9,0.5-1.9,0.9-3,1.3c-3.2,1.2-6.9,1.7-10.5,1.6
		c-0.9,0-1.8-0.1-2.8-0.2c-0.1,0-0.3,0-0.4,0l-0.3,0l-0.7-0.1c-0.4-0.1-0.9-0.1-1.3-0.2c-1.8-0.3-3.6-0.7-5.4-1.1
		c-1.8-0.3-3.6-0.6-5.4-0.7c-1.8-0.1-3.7-0.1-5.4,0.5c-0.9,0.3-1.7,0.7-2.5,1.2c-0.8,0.6-1.4,1.3-1.8,2c-0.5,0.8-0.8,1.6-1,2.4
		c-0.1,0.4-0.2,0.8-0.2,1.2c-0.1,0.4-0.1,0.8-0.1,1.2c-0.1,1.6,0.2,3.2,0.7,4.5c0.4,1.1,1,2.1,1.7,3c-0.1-0.1-0.1-0.2-0.2-0.2
		c-1.4-1.7-2.6-3.4-3.3-5c-0.8-1.7-1-3.3-0.8-4.7c0.3-1.4,1-2.3,1.5-2.9c0.6-0.6,0.9-0.9,0.9-0.9c0,0-0.4,0.2-1.1,0.7
		c-0.7,0.5-1.6,1.4-2.1,2.9c-0.3,0.7-0.4,1.6-0.3,2.5c0.1,0.9,0.3,1.9,0.6,2.8c0.7,1.9,1.9,3.8,3.4,5.6c1,1.1,2,2.1,3,3
		c0.1,0.1,0.2,0.3,0.3,0.5c0.2,0.3,0.5,0.8,0.9,1.2c-0.1,0-0.2-0.1-0.3-0.1c-1.9-1.1-3.7-2.6-5.3-4.5c-1-1.1-1.9-2.3-2.6-3.6
		c-0.8-1.3-1.5-2.7-1.9-4.2c-0.4-1.5-0.6-3.1-0.4-4.6c0.3-1.5,1-2.9,2.2-3.9c1.2-1,2.8-1.7,4.5-2.1c1.7-0.4,3.5-0.6,5.4-0.7
		c3.7-0.1,7.3,0.5,10.9,1.1c3.5,0.6,7.1,1.2,10.5,1.3c1.7,0,3.4-0.1,5-0.4c0.8-0.1,1.6-0.3,2.4-0.5c0.8-0.2,1.5-0.5,2.2-0.8
		c2.8-1.1,5.3-2.6,7.3-4.2c2-1.6,3.5-3.5,4.2-5.5c0.4-1,0.5-2,0.5-2.8c0-0.9-0.2-1.7-0.4-2.4c-0.5-1.4-1.1-2.3-1.6-2.9
		c-0.4-0.6-0.7-0.9-0.7-0.9c0,0,0.2,0.3,0.6,0.9c0.4,0.6,1,1.6,1.3,2.9c0.3,1.3,0.4,3.1-0.4,4.8c-0.8,1.8-2.3,3.4-4.3,4.9
		c-2,1.4-4.4,2.7-7.1,3.6c-0.7,0.2-1.4,0.5-2.1,0.6c-0.7,0.2-1.5,0.3-2.2,0.4c-1.5,0.2-3.1,0.3-4.7,0.2c-3.2-0.1-6.6-0.8-10.2-1.5
		c-3.6-0.7-7.4-1.4-11.4-1.3c-2,0.1-4,0.3-5.9,0.8c-1.9,0.5-3.8,1.3-5.4,2.7c-0.8,0.7-1.4,1.5-1.9,2.4c-0.5,0.9-0.8,1.9-0.9,2.9
		c-0.3,1.9,0,3.8,0.6,5.5c0.6,1.7,1.4,3.2,2.3,4.6c0.9,1.4,1.9,2.6,3,3.7c1.3,1.3,2.6,2.4,4,3.3l-0.2,0.1c-0.1,0-0.2,0.1-0.3,0.1
		c-0.2,0.1-0.3,0.2-0.4,0.3c-0.3,0.2-0.5,0.5-0.7,0.7c-0.4,0.5-0.6,1.1-0.8,1.7c-0.4,1.2-0.5,2.3-0.6,3.5c-0.1,2,0.1,3.9,0.3,5.8
		c-1.3,0.5-2.7,1-4.1,1.5c-7.6,3.1-15.8,7.5-24,13.7c-4.1,3.1-8.2,6.6-12.1,10.6c-3.9,4-7.7,8.5-11,13.7
		c-6.4,10.3-11.1,22.8-12.7,36.4c-0.8,6.8-0.9,13.9,0,21c0.9,7.1,2.8,14.3,6,21.2c3.2,6.8,7.8,13.2,13.6,18.4c1.5,1.3,3,2.5,4.6,3.7
		c0.8,0.6,1.6,1.1,2.5,1.7c0.8,0.5,1.7,1,2.6,1.5c3.5,1.9,7.2,3.4,11,4.6c6.7,2.1,13.6,3.1,20.4,2.9c6.8-0.2,13.6-1.6,19.7-4.4
		c6.1-2.8,11.5-7,15.4-12.1c2-2.6,3.7-5.3,5-8.2c0.7-1.4,1.3-2.9,1.8-4.4c0.1-0.4,0.3-0.7,0.4-1.1l0.1-0.4l0-0.1l0.1-0.3l0.7,0.8
		c0.8,1,1.7,1.9,2.6,2.8c1.8,1.8,3.6,3.5,5.6,5c2,1.5,4.1,2.8,6.3,3.9c2.2,1.1,4.6,1.8,7,2.3c2.4,0.4,4.8,0.5,7.2,0.3
		c2.4-0.2,4.7-0.7,6.8-1.5c2.2-0.7,4.3-1.7,6.2-2.7c0.5-0.2,1-0.5,1.5-0.8c0.5-0.3,1-0.6,1.4-0.9c0.9-0.6,1.8-1.3,2.7-2
		c3.4-2.8,6.1-6,8.4-9.4c2.3-3.4,4-6.9,5.2-10.6c1.2-3.6,1.8-7.4,1.6-11c-0.1-1.8-0.4-3.5-0.9-5.2c-0.3-1-0.4-1.2-0.6-1.7
		c-0.1-0.2-0.2-0.5-0.3-0.7l-0.2-0.3l-0.1-0.2l0-0.1l0,0c0,0,0,0,0,0c0.5,0.3,1,0.5,1.5,0.7c0.1,0.1,0.3,0.1,0.4,0.1
		c0.2,0,0.2,0.1,0.5,0.2c0.4,0.1,0.9,0.2,1.4,0.3c1.8,0.3,3.7,0,5.3-0.7c1.6-0.7,3-1.8,4-3c1.1-1.2,1.9-2.5,2.6-3.9
		c1.4-2.7,2.1-5.4,2.6-7.8c0.4-2.5,0.6-4.8,0.5-6.9c-0.2-4.1-1.1-7.2-2.1-9.1c-1-1.9-1.8-2.7-1.8-2.7c0,0,0.8,0.8,1.7,2.7
		c0.9,1.9,1.8,5,1.9,9.1c0,2-0.1,4.3-0.6,6.8c-0.5,2.4-1.3,5-2.7,7.6c-0.7,1.3-1.5,2.5-2.6,3.6c-1.1,1.1-2.3,2.1-3.8,2.7
		c-1.5,0.6-3.1,0.8-4.8,0.5c-0.4-0.1-0.8-0.2-1.2-0.3c-0.2,0-0.5-0.2-0.8-0.3c-0.3-0.1-0.6-0.2-0.9-0.4c-1.2-0.6-2.7-1.5-3.9-2.2
		c0,0,0,0,0,0l0.1,0.1l0.1,0.2l0.2,0.4l0.5,0.8c0.3,0.6,0.6,1.2,0.9,1.7c0.3,0.6,0.5,1.1,0.7,1.7c0.2,0.6,0.3,0.9,0.4,1.3
		c0.4,1.6,0.7,3.2,0.7,4.9c0.1,3.4-0.5,6.9-1.7,10.4c-1.2,3.5-3,6.9-5.2,10.1c-2.2,3.2-5,6.3-8.2,8.8c-0.8,0.6-1.6,1.2-2.5,1.8
		c-0.4,0.3-0.9,0.5-1.3,0.8c-0.4,0.2-0.9,0.5-1.4,0.7c-1.9,1-3.9,1.8-5.9,2.5c-4.1,1.3-8.5,1.7-12.9,0.9c-4.4-0.8-8.5-2.9-12.2-5.8
		c-1.9-1.4-3.6-3-5.3-4.8c-0.8-0.9-1.6-1.8-2.4-2.7l-0.7-0.8c-0.4-0.4-0.7-0.9-1.1-1.4l-2.2-2.8c-0.4,1.4-0.8,2.8-1.2,4.2
		c-0.1,0.4-0.2,0.7-0.3,1l-0.1,0.4l-0.1,0.3c-0.1,0.3-0.2,0.7-0.4,1c-0.5,1.4-1.1,2.8-1.7,4.1c-1.3,2.7-2.9,5.3-4.7,7.6
		c-3.7,4.7-8.7,8.6-14.4,11.2c-5.7,2.6-12,3.9-18.5,4c-6.5,0.2-13-0.8-19.4-2.8c-3.6-1.1-7.1-2.6-10.4-4.4c-0.8-0.4-1.6-0.9-2.4-1.4
		c-0.8-0.5-1.6-1-2.3-1.5c-1.5-1.1-3-2.2-4.3-3.5c-5.5-4.9-9.9-10.9-13-17.3c-3.1-6.5-5-13.4-5.9-20.2c-0.9-6.9-0.9-13.7-0.2-20.4
		c1.5-13.2,5.8-25.5,11.9-35.6c3.1-5,6.7-9.5,10.5-13.5c3.8-4,7.8-7.6,11.7-10.7c8-6.3,16.1-10.8,23.5-14c1.3-0.6,2.6-1.1,3.8-1.5
		c0.3-0.1,0.5-0.2,0.8-0.3l10.8-3.3c0.4,0.7,0.8,1.4,1.1,2c-2.4,0.5-4.9,1.1-7.5,2c-1.4,0.4-2.7,1-4.1,1.5c-0.2,0.1-0.4,0.2-0.7,0.3
		c-5,2.1-10.3,4.9-15.7,8.4c-7.1,4.7-14.3,10.8-20.9,18.3c-3.3,3.8-6.5,7.9-9.3,12.5c-1.4,2.3-2.7,4.7-3.9,7.2
		c-0.6,1.3-1.1,2.5-1.7,3.9c-0.5,1.3-1,2.7-1.4,4c-1.6,5.5-2.5,11.3-2.7,17.2c-0.2,5.9,0.2,12,1.4,18.1c1.2,6.1,3.1,12.2,6,17.9
		c1.5,2.9,3.2,5.7,5.3,8.2c2,2.6,4.4,5,7.1,7c3,2.2,6.3,4,9.8,5.1c3.5,1.1,7.2,1.7,10.8,1.7c3.6,0,7.2-0.6,10.6-1.7
		c3.4-1.2,6.5-3,9.2-5.3c1.2-1,2.2-2,3.2-3.2c0.5-0.5,0.9-1.1,1.4-1.7c0.8-1,1.5-2,2.1-3c0.2-0.4,0.4-0.7,0.7-1.1
		c0.2-0.4,0.4-0.8,0.6-1.2c0.4-0.8,0.6-1.6,0.9-2.4c0.5-1.6,0.9-3.2,1.4-4.6c0.5-1.5,1-2.8,1.8-3.7c0.9-1.1,2.1-2.1,3.2-2.8
		c0.6-0.4,1.2-0.7,1.7-0.8c0.1,0,0.2,0,0.3,0c0.1,0,0.1,0,0.1,0c0.1,0,0.1,0.1,0.1,0.1c0.1,0.1,0.1,0.3,0.2,0.6c0,0.3,0,0.6,0,0.9
		c0,0.2,0,0.3,0,0.5l0,0.2l0,0.3c0,0.2,0,0.3-0.1,0.5c-0.1,0.7-0.3,1.4-0.4,2.1l0.1,0l0.2,0l0.3,0l0.7,0c0.4,0,0.9,0.1,1.3,0.1
		c0.2,0,0.4,0,0.7,0l0.3,0l0.2,0c0.3,0,0.5-0.1,0.8-0.1c1.1-0.1,2.1-0.4,3-0.6c0.9-0.2,1.8-0.4,2.6-0.4c0.8,0,1.6,0.1,2.4,0.4
		c0.8,0.3,1.5,0.7,2.2,1.2c0.7,0.5,1.3,1,2,1.7c1.2,1.3,2.3,2.7,3.5,4.1c1.2,1.4,2.7,2.8,4.5,3.6l0.3,0.2l0.3,0.1l0.5,0.3
		c0.4,0.2,0.8,0.4,1.2,0.6c0.8,0.4,1.7,0.7,2.5,1c3.4,1.2,6.9,1.7,10.3,1.2c1.7-0.2,3.3-0.7,4.8-1.3c0.8-0.3,1.5-0.7,2.2-1.1
		c0.7-0.4,1.3-0.9,2-1.4c2.5-2,4.4-4.4,5.6-7.1c0.3-0.7,0.5-1.4,0.7-2.1c0-0.2,0.1-0.3,0.1-0.5c0-0.1,0-0.3,0-0.3c0-0.1,0-0.2,0-0.3
		c0-0.4-0.1-0.8-0.1-1.1c-0.4-1.5-1.3-2.7-2.2-3.6l-0.6-0.7l-0.3-0.3c-0.1-0.1-0.1-0.2-0.2-0.3c-0.1-0.2-0.2-0.4-0.2-0.6
		c0-0.2,0.2-0.4,0.4-0.5c0.1-0.1,0.2-0.1,0.3-0.2c0.1,0,0.2-0.1,0.3-0.1c0.3-0.1,0.5-0.2,0.8-0.3c0.6-0.2,1.1-0.3,1.7-0.4
		c0.3,0,0.6-0.1,0.8-0.1c0.3,0,0.5,0,0.8,0c0.5,0.1,1,0.2,1.5,0.5c1,0.4,1.9,1,2.9,1.4c1,0.4,2.1,0.6,3.2,0.4c1-0.2,1.9-0.6,2.8-1.1
		c0.4-0.2,0.8-0.5,1.1-0.8c0.4-0.3,0.7-0.6,1-0.9c0.6-0.6,1.2-1.2,1.6-1.9c0.9-1.3,1.4-2.7,1.7-3.9c0.3-1.3,0.5-2.4,0.5-3.4
		c0.1-1,0-1.8,0-2.5c-0.1-1.3-0.2-2-0.2-2c0,0,0.1,0.7,0.1,2c0,1.3,0,3.3-0.7,5.7c-0.4,1.2-0.9,2.5-1.8,3.8c-0.4,0.6-1,1.2-1.6,1.8
		c-0.3,0.3-0.6,0.5-1,0.8c-0.3,0.3-0.7,0.5-1.1,0.7c-0.8,0.4-1.6,0.8-2.6,0.9c-0.9,0.1-1.9,0-2.8-0.4c-0.9-0.4-1.8-1-2.9-1.5
		c-0.5-0.2-1.1-0.5-1.7-0.6c-0.3-0.1-0.6-0.1-1-0.1c-0.3,0-0.7,0.1-0.9,0.1c-0.6,0.1-1.2,0.2-1.8,0.4c-0.3,0.1-0.6,0.2-0.9,0.3
		c-0.1,0-0.3,0.1-0.5,0.2c0.3-0.3,0.8-0.6,1.3-0.7c1.1-0.4,2.5-0.5,4-0.4c0.4,0,0.8,0,1.2,0.1l0.6,0.1c0.2,0,0.4,0.1,0.7,0.1
		c0.9,0,1.9-0.1,2.9-0.3c1.9-0.4,3.7-1.3,5-2.4c0.7-0.6,1.2-1.3,1.5-2c0.4-0.7,0.5-1.4,0.6-2.1c0.1-1.3-0.3-2.3-0.6-3
		c-0.3-0.6-0.5-1-0.5-1c0,0,0.1,0.4,0.3,1c0.1,0.7,0.3,1.7,0,2.8c-0.1,0.6-0.4,1.1-0.7,1.7c-0.4,0.5-0.9,1-1.5,1.5
		c-1.2,0.9-2.8,1.5-4.5,1.9c-0.9,0.2-1.7,0.3-2.5,0.3c-0.1,0-0.4,0-0.6,0l-0.7,0c-0.4,0-0.9,0-1.3,0c-1.7,0.1-3.2,0.4-4.4,1.1
		c-0.6,0.3-1,0.7-1.4,1.1c-0.2,0.3-0.4,0.6-0.5,0.9c-0.2,0.2-0.3,0.4-0.4,0.7c-0.1,0.4,0,0.8,0.2,1.2c0.1,0.2,0.2,0.4,0.3,0.5
		l0.2,0.2l0.2,0.2l0.6,0.8c0.8,1,1.6,2,1.8,3.2c0.1,0.3,0.1,0.6,0.1,0.9c0,0.1,0,0.2,0,0.2c0,0.1,0,0.1,0,0.2c0,0.1-0.1,0.3-0.1,0.5
		c-0.2,0.6-0.4,1.3-0.7,1.9c-1.1,2.5-3,4.7-5.3,6.5c-0.6,0.4-1.2,0.9-1.8,1.2c-0.6,0.4-1.3,0.7-2,1c-1.4,0.6-2.9,1-4.4,1.1
		c-3.1,0.4-6.3-0.1-9.4-1.3c-0.8-0.3-1.5-0.6-2.3-1c-0.4-0.2-0.7-0.4-1.1-0.6l-0.6-0.4l-0.3-0.1l-0.3-0.1c-0.4-0.2-0.8-0.5-1.2-0.7
		c0.1,0.1,0.3,0.1,0.4,0.2c3.1,1.2,6.1,1.5,8.3,1.5c2.1,0,3.4-0.2,3.4-0.2c0,0-1.3-0.2-3.4-0.6c-2.1-0.4-4.9-1-7.8-2.1
		c-1.5-0.6-3-1.2-4.2-1.9c-0.9-1.1-1.8-2.4-2.9-3.5c-0.7-0.7-1.4-1.4-2.3-2c-0.8-0.6-1.7-1.1-2.7-1.5c-1-0.4-2.1-0.7-3.2-0.6
		c-1.1,0-2.2,0.2-3.1,0.4c-1,0.2-1.8,0.4-2.7,0.5c-0.2,0-0.4,0.1-0.7,0.1l-0.2,0h-0.1l-0.1,0c0,0-0.1,0-0.1,0c0-0.1,0-0.1,0-0.2l0,0
		v0l0-0.1c0-0.2,0-0.4,0.1-0.6c0-0.4,0-0.9,0-1.4c-0.1-0.5-0.2-1-0.5-1.6c-0.3-0.6-0.9-1.1-1.6-1.3c-0.3-0.1-0.7-0.2-1-0.1
		c-0.3,0-0.6,0-0.8,0.1c-1,0.2-1.8,0.7-2.5,1.1c-1.5,0.9-2.7,2-3.8,3.3c-0.1,0.2-0.3,0.3-0.4,0.5c-0.2,0.2-0.3,0.4-0.4,0.6
		c-0.2,0.4-0.5,0.8-0.6,1.2c-0.4,0.8-0.7,1.6-0.9,2.4c-0.5,1.6-0.9,3.1-1.4,4.6c-0.2,0.7-0.5,1.5-0.8,2.1c-0.2,0.3-0.3,0.7-0.5,1
		c-0.2,0.3-0.4,0.7-0.6,1c-1.3,2.1-2.9,4.1-4.8,5.9c-1.5,0.3-3,0.6-4.5,0.8c-2.4,0.3-5,0.4-7.6,0.3c-2.6-0.2-5.4-0.7-8-1.6
		c-2.7-0.9-5.3-2.3-7.7-4.1c-2.4-1.8-4.6-4-6.6-6.5c-3.9-5.1-7.2-11.1-9.5-17.7c-1.2-3.3-2.1-6.8-2.6-10.3c-0.3-1.8-0.5-3.6-0.6-5.4
		c0-0.9-0.1-1.8-0.1-2.7c0-0.9,0-1.8,0.1-2.8c0.3-7.4,2-14.5,4.8-21c2.8-6.4,6.5-12.2,10.6-17.2c1-1.2,2.1-2.4,3.2-3.6
		c0.5-0.6,1.1-1.1,1.6-1.7c0.6-0.5,1.1-1.1,1.7-1.6c2.3-2.1,4.6-4,6.8-5.8c4.5-3.6,9-6.7,13.2-9.3l3.1-1.8c0.1,0,0.2-0.1,0.3-0.1
		c3-1.6,5.8-3,8.5-4c1.4-0.6,2.8-1,4.1-1.4c0.2,0.6,0.5,1.1,0.7,1.7c-2.1,0.6-4.7,1.7-7.8,3.2c-0.9,0.4-1.8,0.9-2.7,1.4
		c-0.7,0.3-1.5,0.7-2.2,1.1c0,0-0.1,0-0.1,0.1c-0.2,0.1-0.4,0.2-0.6,0.3c-2,1.1-4.2,2.3-6.4,3.7c-2.2,1.4-4.4,3-6.6,4.7
		c-2.3,1.7-4.5,3.6-6.6,5.7c-4.3,4.2-7.9,8.7-10.7,13.1c-2.8,4.4-4.8,8.7-6.1,12.4l-0.9,2.6c-0.3,0.8-0.5,1.6-0.7,2.4
		c-0.4,1.5-0.7,2.8-0.9,3.9c-0.4,2.2-0.3,3.4-0.4,3.4c0,0,0.1-1.2,0.6-3.3c0.3-1.1,0.6-2.3,1.1-3.8c0.2-0.7,0.5-1.5,0.9-2.3l1-2.6
		c1.5-3.6,3.6-7.7,6.5-11.9c2.9-4.2,6.5-8.6,10.7-12.7c2.1-2.1,4.3-4,6.5-5.7c2.2-1.7,4.4-3.3,6.5-4.8c2.1-1.5,4.2-2.8,6.2-3.9
		c0.2-0.1,0.3-0.2,0.5-0.3c0,0,0,0,0,0c0.8-0.4,1.6-0.9,2.4-1.3l2.7-1.5c3-1.7,5.6-2.9,7.6-3.6c0.3,0.8,0.6,1.5,0.8,2.3
		c-2.7,0.9-5.7,2-8.8,3.3c-1.4,0.6-2.8,1.3-4.3,2c0,0,0,0,0,0c-2.8,1.4-5.6,3-8.5,4.9c-4.4,2.9-8.8,6.4-12.9,10.7
		c-4.1,4.3-7.8,9.4-10.8,15.2c-2.9,5.8-5,12.3-5.9,19.1c-0.5,3.4-0.6,6.8-0.5,10.2c0.1,3.4,0.5,6.7,1.4,9.9c0.9,3.2,2.2,6.2,4.1,8.9
		c1.9,2.6,4.3,4.9,6.9,6.4c2.7,1.6,5.6,2.5,8.4,3c0.5,0.1,1.1,0.1,1.6,0.2c2,1.3,4.1,2.2,6.1,2.7c2.6,0.6,5,0.6,6.8,0.4
		c1.8-0.2,3.2-0.6,4.2-0.9c0.9-0.3,1.4-0.5,1.4-0.5s-0.5,0.2-1.4,0.4c-0.9,0.2-2.4,0.5-4.2,0.6c-1.8,0.1-4.1-0.1-6.5-0.9
		c-1.2-0.4-2.4-0.9-3.6-1.6c-1.2-0.7-2.4-1.6-3.5-2.6c-0.1-0.1-0.1-0.1-0.2-0.2c-2.3-2.2-4.4-5.1-6-8.5c-1.6-3.4-2.9-7.3-3.6-11.5
		c-0.7-4.2-1-8.7-0.5-13.3c0.4-4.6,1.5-9.2,3.5-13.7c1.9-4.5,4.5-8.6,7.3-12.3c2.8-3.7,5.9-7,9-10c3.5-3.3,7.1-6.1,10.6-8.5
		c0.2-0.1,0.3-0.2,0.5-0.3c2.6-1.7,5.1-3.1,7.5-4.3c1.4-0.7,2.8-1.3,4.1-1.9c0.3,1.2,0.6,2.3,0.8,3.5c-2,0.6-4.2,1.4-6.6,2.5
		c-1.5,0.7-3.1,1.4-4.7,2.3c-0.2,0.1-0.4,0.2-0.6,0.4c-4,2.3-8.1,5.3-12,9.3c-2.8,2.9-5.4,6.2-7.6,10c-2.2,3.8-4,8-5.2,12.5
		c-1.2,4.6-1.5,9.1-1.3,13.5c0.2,4.4,1,8.5,2.2,12.4c1.2,3.8,2.9,7.3,4.9,10.3c2,3,4.5,5.4,7.1,7c0.4,0.2,0.7,0.4,1.1,0.6
		c1,0.5,2,0.9,2.9,1.3c1.3,0.4,2.5,0.7,3.7,0.8c2.4,0.3,4.5,0,6.1-0.3c1.6-0.3,2.9-0.7,3.7-1c0.8-0.3,1.2-0.5,1.2-0.5
		s-0.4,0.1-1.3,0.3c-0.8,0.2-2.1,0.5-3.7,0.7c-1.6,0.2-3.6,0.2-5.9-0.2c-0.7-0.1-1.3-0.3-2-0.5c2.3-0.9,4.4-2.1,6.3-3.4
		c3.7-2.6,6.4-5.8,8-9c1.7-3.2,2.2-6.3,2.3-8.8c0-2.5-0.4-4.4-0.7-5.7c-0.3-1.3-0.6-1.9-0.6-1.9c0,0,0.2,0.7,0.5,1.9
		c0.2,1.3,0.5,3.2,0.3,5.6c-0.2,2.4-0.9,5.4-2.7,8.3c-1.7,2.9-4.5,5.8-8.1,8.2c-2.3,1.5-5.1,2.8-8.1,3.6c-0.8-0.4-1.6-0.9-2.3-1.4
		c-2.3-1.6-4.5-4-6.2-6.8c-1.8-2.9-3.2-6.2-4.2-9.9c-1-3.7-1.6-7.6-1.7-11.7c-0.1-4.1,0.2-8.4,1.4-12.6c1.1-4.2,2.8-8.2,4.8-11.8
		c2-3.6,4.4-6.8,6.9-9.7c3.5-3.8,7.3-6.9,11-9.3c0,0,0,0,0,0.1c1.1,2,2.3,3.9,3.8,5.6c0.8,0.9,1.6,1.7,2.6,2.4
		c0.5,0.3,1.1,0.6,1.7,0.8c0.6,0.2,1.3,0.2,2.1,0l0.1,0c-0.6,1.6-1,3.4-1.2,5.3c-0.2,1.5-0.2,3.1-0.1,4.7c0.1,1.6,0.5,3.3,1.1,5
		c0.6,1.7,1.5,3.3,3,4.7c0.7,0.7,1.6,1.2,2.5,1.7c0.9,0.4,2,0.6,3,0.7c2.1,0.1,4.1-0.4,5.9-1.2c1.8-0.8,3.5-1.9,5.1-3.1
		c3.2-2.4,5.8-5.3,8.1-8c2.4-2.8,4.6-5.4,7-7.5c1.2-1.1,2.5-2,3.8-2.8c0.7-0.4,1.3-0.7,2-1.1c0.6-0.3,1.3-0.6,2-0.8
		c2.7-0.9,5.4-1.5,7.8-1.6c2.4-0.1,4.7,0.3,6.4,1.2c1.7,0.9,2.8,2.3,3.3,3.5c0.6,1.3,0.7,2.4,0.8,3.1c0.1,0.7,0.1,1.1,0.1,1.1
		s0-0.4,0-1.1c0-0.7-0.1-1.9-0.6-3.2c-0.2-0.7-0.6-1.4-1.2-2.1c-0.5-0.7-1.3-1.4-2.2-1.9c-1.8-1.1-4.2-1.6-6.7-1.7
		c-2.6,0-5.4,0.3-8.3,1.2c-0.7,0.2-1.5,0.5-2.2,0.8c-0.7,0.3-1.5,0.7-2.2,1.1c-1.4,0.8-2.8,1.7-4.2,2.8c-2.7,2.2-5,4.8-7.4,7.5
		c-2.4,2.7-4.9,5.4-7.8,7.6c-1.5,1.1-3,2.1-4.6,2.8c-1.6,0.7-3.2,1.2-4.8,1.1c-1.6,0-3-0.7-4.2-1.7c-1.1-1-2-2.4-2.5-3.8
		c-0.6-1.4-0.9-3-1.1-4.5c-0.2-1.5-0.2-3-0.1-4.4c0.2-2.6,0.7-5,1.5-7.1c0,0.2,0,0.3,0,0.5c-0.4,1.6-0.6,3.3-0.6,5.1
		c0,2.3,0.4,4.5,1,6.3c0.7,1.9,1.6,3.5,2.8,4.5c1.1,1.1,2.3,1.5,3.1,1.7c0.8,0.2,1.3,0.1,1.3,0.1c0,0-0.4-0.1-1.2-0.4
		c-0.7-0.3-1.7-0.9-2.6-2c-0.9-1.1-1.6-2.6-2.1-4.4c-0.5-1.8-0.7-3.8-0.7-6c0-4.3,0.9-8.2,2.2-10.6c0.3-0.5,0.6-0.9,0.9-1.3
		c0,0,0,0,0.1,0c-0.5,1.4-0.8,3.5-1.4,5c-0.8,1.9-1.4,4.1-1.5,6.8c0,1.3,0.1,2.7,0.5,4.1c0.4,1.4,1.2,2.8,2.3,4
		c0.3,0.3,0.6,0.6,0.8,0.8c0.3,0.3,0.6,0.5,0.9,0.8c0.7,0.5,1.4,1,2.2,1.3c0.8,0.3,1.8,0.5,2.7,0.5c0.9,0,1.9-0.2,2.7-0.6
		c1.7-0.7,3.2-1.8,4.6-3c1.3-1.2,2.6-2.6,3.8-3.9c1.2-1.4,2.4-2.8,3.6-4.2c0.3-0.3,0.6-0.7,0.9-1l0.5-0.5l0.2-0.2
		c0.1-0.1,0.2-0.2,0.3-0.3c0.7-0.7,1.3-1.3,2-1.9c2.8-2.4,6-4.3,9.2-5.3c0.3-0.1,0.7-0.2,1-0.3c2-0.6,4-0.8,6-0.9l0,0c0,0,0,0,0,0
		c0.9,0,1.9,0,2.8,0.1c0.4,0,0.8,0.1,1.2,0.1c0.4,0.1,0.8,0.1,1.2,0.2c0.8,0.1,1.5,0.3,2.2,0.5c0.1,0,0.2,0.1,0.3,0.1
		c1.3,0.4,2.6,0.9,3.7,1.5c2.5,1.4,4.3,3.4,5.6,5.4l0.6,0.8c0.2,0.2,0.3,0.5,0.5,0.7c0.3,0.5,0.6,1,0.8,1.5c0.5,1,0.9,2,1,2.9
		c0.1,0.5,0.1,0.9,0.1,1.3c0,0.4-0.2,0.8-0.4,1c-0.2,0.2-0.6,0.3-1,0.3c-0.4,0-0.7-0.1-1-0.2c-0.7-0.2-1.2-0.5-1.7-0.8
		c-0.5-0.3-0.9-0.5-1.2-0.7c-0.6-0.4-0.9-0.6-0.9-0.6c0,0,0.3,0.3,0.9,0.7c0.3,0.2,0.7,0.5,1.1,0.8c0.5,0.3,1,0.6,1.7,0.9
		c0.3,0.1,0.7,0.3,1.1,0.3c0.4,0,0.9,0,1.3-0.3c0.4-0.3,0.6-0.8,0.7-1.3c0.1-0.5,0.1-1,0-1.5c-0.1-1-0.4-2.1-0.9-3.2
		c-0.2-0.5-0.5-1.1-0.8-1.6c-0.1-0.3-0.3-0.5-0.5-0.8l-0.3-0.4l-0.1-0.2l-0.1-0.1c0,0,0,0,0-0.1c-0.6-1.1-1.4-2.3-2.4-3.3
		c-1-1.1-2.1-2.1-3.4-2.9c-0.5-0.3-1.1-0.6-1.7-0.9l0,0c1.1-0.3,2.3-0.7,3.4-1.1c9-3.2,17-7.8,23.5-12.9
		C206.9,94.9,209.8,92.2,212.2,89.4z M112.1,73.3c-0.6-0.2-1.2-0.6-1.9-1c-1.6-1-3.6-2.4-5.5-4.2c1,0.8,2.1,1.5,3.1,2.1
		c1.4,0.8,3.3,2.3,4.6,3.1C112.2,73.3,112.1,73.3,112.1,73.3z M115.1,73c0.1-0.1,0.3-0.1,0.4-0.1C115.4,73,115.2,73,115.1,73z
		 M103.2,65.1c-0.7-1-1.3-2.1-1.7-3.3c-0.4-1.2-0.6-2.6-0.4-3.9c0-0.3,0.1-0.7,0.2-1c0.1-0.4,0.1-0.7,0.2-1c0.2-0.7,0.5-1.3,0.8-1.9
		c0.7-1.2,1.9-2,3.3-2.3c1.4-0.4,3.1-0.4,4.7-0.3c1.7,0.1,3.4,0.4,5.1,0.8c1.7,0.4,3.5,0.8,5.4,1.2c0.5,0.1,0.9,0.2,1.4,0.2
		c0.2,0,0.5,0.1,0.7,0.1l0.4,0c0.1,0,0.2,0,0.3,0c0.9,0.1,2,0.2,2.9,0.2c3.4,0.1,6.8-0.3,9.8-1.3c-0.5,0.6-1,1.1-1.5,1.7
		c-1.3,1.6-2.6,3.3-3.8,4.9c-0.6,0.8-1.1,1.6-1.7,2.4l-0.4,0.6c-0.1,0.2-0.3,0.4-0.4,0.6c-0.2,0.4-0.5,0.7-0.8,1.1
		c-1.1,1.4-2.3,2.6-3.6,3.7c-1.3,1.1-2.6,2-3.9,2.8c-0.5,0.3-1,0.5-1.5,0.8c-0.4,0.2-0.8,0.4-1.2,0.6c-0.8,0.3-1.5,0.6-2.2,0.8
		c-0.7-0.2-1.8-0.4-3.2-1c-1.3-0.5-2.9-1.2-4.5-2.3C106.4,68.5,104.7,67.1,103.2,65.1z M103.9,69.6c-0.1-0.1-0.1-0.2-0.2-0.3
		c2,1.7,4.1,2.9,5.8,3.7c-1.1-0.3-2.2-0.7-3.3-1.2c-0.1-0.1-0.3-0.2-0.5-0.3c-0.2-0.1-0.3-0.2-0.5-0.3
		C104.7,70.5,104.2,70,103.9,69.6z M100.2,82.6c-0.2-1.8-0.2-3.7-0.1-5.4c0.1-1.1,0.3-2.2,0.6-3.1c0.1-0.3,0.3-0.7,0.4-1
		c-0.3,0.7-0.4,1.4-0.5,2c-0.2,1.5-0.2,2.7-0.2,3.8c0.1,2.1,0.5,3.2,0.5,3.2c0,0-0.2-1.1-0.2-3.1c0-1,0.1-2.3,0.4-3.7
		c0.2-0.7,0.4-1.4,0.7-2.1c0.2-0.5,0.6-0.9,1.1-1.2c-0.3,0.3-0.4,0.6-0.5,0.9c-0.3,0.8-0.4,1.6-0.4,2.3c-0.1,1.4,0,2.6,0,3.6
		c0.2,2,0.4,3,0.5,3c0,0-0.2-1-0.2-3c0-1,0-2.2,0.2-3.5c0.1-0.7,0.2-1.4,0.5-2.1c0.1-0.3,0.3-0.7,0.6-0.9c0.1-0.1,0.3-0.1,0.4-0.2
		c0.2,0.1,0.3,0.1,0.5,0.2c-0.2,0.1-0.3,0.2-0.4,0.3c-0.3,0.3-0.5,0.6-0.6,1c-0.3,0.7-0.4,1.3-0.4,1.9c-0.1,1.2-0.1,2.2,0,3.1
		c0.1,1.7,0.3,2.6,0.3,2.6c0,0-0.1-0.9,0-2.6c0-0.8,0.1-1.8,0.2-3c0.1-0.6,0.2-1.2,0.5-1.7c0.2-0.6,0.7-1.1,1.2-1.1
		c0.1,0.1,0.2,0.1,0.3,0.2c-0.4,0.4-0.6,0.8-0.8,1.2c-0.2,0.5-0.3,0.9-0.4,1.3c-0.2,0.9-0.2,1.6-0.1,2.2c0.1,1.2,0.3,1.8,0.3,1.8
		c0,0-0.1-0.7,0-1.8c0.1-0.6,0.1-1.3,0.4-2.1c0.1-0.4,0.3-0.8,0.5-1.2c0.2-0.4,0.5-0.7,0.8-1c0.1,0.1,0.1,0.1,0.2,0.2
		c-0.2,0.3-0.3,0.5-0.4,0.8c-0.1,0.3-0.2,0.7-0.3,1c-0.1,0.6-0.2,1.2-0.2,1.6c0,0.9,0.1,1.4,0.1,1.4c0,0,0-0.5,0.2-1.3
		c0.1-0.4,0.2-0.9,0.4-1.5c0.2-0.5,0.4-1,0.8-1.4c0.2,0.2,0.3,0.3,0.5,0.5c1.3,1.5,2.5,3.2,3.5,4.9C107.6,80.4,104,81.3,100.2,82.6z
		 M110.3,88.2c-2.7,0.9-5.5,2.1-8.5,3.6c-0.1,0.1-0.2,0.1-0.3,0.2c-1.1,0.6-2.3,1.2-3.5,1.8c-4.4,2.4-9,5.4-13.7,9
		c-2.4,1.8-4.8,3.7-7.1,5.7c-0.6,0.5-1.2,1-1.8,1.6c-0.6,0.6-1.2,1.1-1.8,1.7c-1.2,1.2-2.3,2.4-3.4,3.6c-4.4,5-8.4,11-11.4,17.7
		c-3,6.7-4.8,14.2-5.1,22c0,1-0.1,1.9-0.1,2.9c0,1,0,2,0.1,2.9c0.1,1.9,0.3,3.8,0.6,5.7c0.6,3.8,1.6,7.4,2.9,10.8
		c2.5,6.9,6.1,13.1,10.3,18.4c2.1,2.6,4.6,5,7.2,6.8c2.6,1.9,5.5,3.3,8.4,4.2c2.9,0.9,5.8,1.3,8.6,1.4c2.8,0.1,5.5-0.2,8-0.6
		c0.7-0.1,1.4-0.3,2.1-0.4c-2.2,1.7-4.7,3.1-7.4,4c-3,1-6.3,1.6-9.6,1.5c-3.3,0-6.6-0.6-9.8-1.6c-3.2-1-6.2-2.6-8.9-4.7
		c-4.9-3.7-8.7-8.7-11.5-14.2c-2.8-5.4-4.6-11.3-5.8-17.1c-1.2-5.8-1.6-11.7-1.5-17.5c0.2-5.7,0.9-11.3,2.4-16.6
		c0.4-1.3,0.8-2.6,1.3-3.8c0.5-1.3,1-2.5,1.5-3.7c1.1-2.4,2.3-4.8,3.7-7c2.7-4.5,5.7-8.6,8.8-12.4c6.3-7.5,13.3-13.6,20.1-18.5
		c5.1-3.6,10.2-6.4,15-8.6c0.2-0.1,0.4-0.2,0.6-0.3c1.5-0.6,2.9-1.2,4.3-1.7c2.6-1,5.2-1.7,7.6-2.3c0.7,1.3,1.3,2.7,1.9,4
		C113.2,87.3,111.8,87.7,110.3,88.2z M113.8,99.4c-2.5,1.1-5.1,2.4-7.8,3.9c-0.1,0.1-0.3,0.2-0.4,0.2c-3.8,2.3-7.7,5-11.6,8.4
		c-3.3,2.9-6.6,6.3-9.6,10.1c-3,3.8-5.7,8.1-7.8,12.9c-1,2.4-1.9,4.8-2.4,7.3c-0.6,2.5-0.9,4.9-1.1,7.4c-0.3,4.9,0,9.6,0.9,14
		c0.9,4.4,2.4,8.4,4.3,11.9c1.4,2.7,3.2,5,5,7c-1.7-0.5-3.3-1.2-4.8-2.2c-2.3-1.4-4.4-3.4-6-5.8c-1.6-2.4-2.8-5.1-3.5-8
		c-0.8-2.9-1.1-6-1.2-9.2c-0.1-3.2,0.1-6.4,0.5-9.7c0.9-6.5,2.8-12.6,5.5-18.2c2.7-5.5,6.2-10.5,10-14.7c3.8-4.2,8-7.8,12.1-10.8
		c2.6-1.9,5.3-3.5,7.8-5c0,0,0.1,0,0.2-0.1c1.4-0.8,2.8-1.6,4.2-2.2c3-1.5,5.9-2.7,8.5-3.7c0.2,0.5,0.4,1.1,0.5,1.6
		c-0.9,0.4-1.9,0.9-2.9,1.4l-2.7,1.3c-0.5,0.2-0.9,0.4-1.4,0.7c-0.5,0.2-1,0.5-1.5,0.7c-1.3,0.6-2.6,1.4-3.9,2.2
		c-0.1,0.1-0.2,0.1-0.3,0.2c-0.7,0.4-1.4,0.9-2.1,1.3c-2.1,1.4-4.3,2.9-6.5,4.6c-2.2,1.6-4.4,3.5-6.6,5.4c-4.4,3.9-8.1,8.1-11,12.3
		c-2.9,4.2-5,8.4-6.2,12c-0.3,0.9-0.6,1.8-0.8,2.6c-0.2,0.8-0.4,1.6-0.6,2.4c-0.3,1.5-0.3,2.8-0.3,3.9c0,2.1,0.1,3.3,0.1,3.3
		c0,0,0-1.2,0.2-3.3c0.1-1.1,0.2-2.4,0.6-3.8c0.2-0.7,0.4-1.5,0.7-2.3c0.3-0.8,0.6-1.7,0.9-2.5c1.4-3.5,3.6-7.5,6.5-11.5
		c3-4,6.7-8.1,11-11.9c2.2-1.9,4.3-3.7,6.5-5.4c2.2-1.7,4.3-3.3,6.3-4.7c0.6-0.4,1.2-0.8,1.8-1.2c0.1-0.1,0.2-0.1,0.3-0.2
		c1.3-0.8,2.6-1.6,3.9-2.3c0.5-0.3,1-0.5,1.4-0.8c0.5-0.2,1-0.5,1.4-0.8l2.6-1.4c1-0.5,1.9-1,2.8-1.5c0.2,0.8,0.5,1.6,0.7,2.4
		C116.8,98.1,115.3,98.7,113.8,99.4z M120.2,111.6c-0.1,1.1-0.2,2.2-0.5,3.1c-0.3,1-0.8,1.8-1.6,2.1c-0.3,0.1-0.8,0.1-1.2,0
		c-0.5-0.1-0.9-0.3-1.4-0.6c-0.9-0.6-1.7-1.3-2.4-2.1c-1.5-1.6-2.8-3.4-4-5.3c0,0,0-0.1,0-0.1c0.2-0.1,0.4-0.3,0.7-0.4
		c0.3,0.6,0.7,1.1,1.1,1.6c0.5,0.6,0.9,1,1.2,1.4c0.4,0.5,0.7,0.8,0.9,1c0.5,0.6,0.9,1.1,1.3,1.6c1.2,1.3,2.1,1.8,2.1,1.8
		c0,0-0.8-0.6-1.8-1.9c-0.5-0.7-1.1-1.6-1.8-2.6l-0.3-0.4c-0.1-0.1-0.2-0.3-0.3-0.4c-0.2-0.3-0.4-0.6-0.7-0.8c-0.4-0.5-0.9-1-1-1.6
		c0.2-0.1,0.5-0.3,0.7-0.4c0,0.1,0,0.2,0,0.3c0,0.2,0.1,0.4,0.2,0.5c0.1,0.3,0.3,0.6,0.5,0.9c0.3,0.5,0.7,1,1,1.4
		c0.7,0.9,1.3,1.5,1.8,2.1c1.1,1.1,1.7,1.7,1.7,1.7c0,0-0.5-0.6-1.5-1.8c-0.4-0.6-1-1.3-1.6-2.2c-0.3-0.4-0.6-0.9-0.9-1.5
		c-0.1-0.3-0.3-0.5-0.4-0.8c-0.1-0.3-0.2-0.6-0.1-0.7l-0.3-0.1c0.2-0.1,0.4-0.2,0.5-0.3c0.5,1.1,1.2,2.1,1.7,2.9
		c0.6,0.9,1.2,1.6,1.6,2.2c0.9,1.2,1.4,1.9,1.4,1.9s-0.4-0.7-1.1-2c-0.4-0.6-0.9-1.4-1.4-2.3c-0.5-0.9-1.1-1.9-1.5-3
		c0.1-0.1,0.3-0.1,0.4-0.2c0.5,0.9,1,1.8,1.4,2.5c0.5,0.8,1,1.5,1.4,2.1c0.9,1.1,1.6,1.5,1.6,1.5c0,0-0.6-0.5-1.3-1.6
		c-0.4-0.6-0.8-1.3-1.2-2.2c-0.4-0.8-0.8-1.7-1.2-2.7c0.2-0.1,0.4-0.2,0.6-0.3c0.4,1,0.9,1.6,1.3,2.1l0.6,0.9c0,0-0.1-0.3-0.4-1
		c-0.2-0.6-0.6-1.4-0.9-2.3c1.5-0.8,3-1.4,4.4-1.9c0.1,0.5,0.2,1.1,0.3,1.6C120.1,107.3,120.3,109.5,120.2,111.6z M127.3,108.7
		c-0.1,0.1-0.2,0.1-0.3,0.1C127.1,108.8,127.2,108.7,127.3,108.7z M148.3,116c-0.8,0.7-1.5,1.3-2.1,2c-0.1,0.1-0.2,0.2-0.2,0.2
		l-0.3,0.3c-0.2,0.2-0.4,0.4-0.5,0.5c-0.3,0.4-0.7,0.7-1,1.1c-1.2,1.4-2.4,2.9-3.5,4.3c-1.1,1.4-2.3,2.7-3.5,3.8
		c-1.2,1.1-2.5,2.1-3.9,2.7c-1.4,0.6-2.8,0.7-4.1,0.2c-0.6-0.2-1.3-0.6-1.8-1c-0.3-0.2-0.6-0.4-0.8-0.7c-0.3-0.2-0.5-0.5-0.8-0.7
		c-1-1-1.7-2.1-2.1-3.3c-0.4-1.2-0.7-2.5-0.7-3.7c-0.1-2.4,0.4-4.6,1-6.5c0.6-1.9,1.4-3.4,2.1-4.6c0.6-0.9,1.1-1.7,1.5-2.2
		c1.5-0.6,3.2-1.1,5.1-1.3c1.5-0.2,3-0.3,4.6-0.3c1.6,0,3.3,0.2,4.9,0.6c0.8,0.2,1.6,0.4,2.4,0.8c0.5,0.2,0.9,0.3,1.4,0.5l1.4,0.5
		c1.9,0.6,3.8,1.1,5.8,1.6c0.8,0.2,1.6,0.4,2.4,0.5C153,112.5,150.5,114.1,148.3,116z M164.4,108.9c-3.6-0.2-7.2-0.7-10.5-1.3
		c-1.9-0.4-3.8-0.8-5.7-1.3l-1.3-0.4l-0.7-0.2c0.4-0.6,0.8-1.3,1.1-2c0.2-0.5,0.4-1,0.6-1.5c2.9,0.5,6.1,1.1,9.4,1.7
		c2.5,0.4,5.2,0.8,7.9,1C165,106.3,164.7,107.6,164.4,108.9z M206.7,90.9c-1.6,1.4-3.2,2.7-5,4c-6.4,4.6-14.2,8.8-22.8,11.8
		c-1.1,0.4-2.2,0.7-3.2,1.1l-0.8,0.2c-0.2,0.1-0.5,0.1-0.7,0.2c-0.5,0.1-1,0.2-1.5,0.3c-1.8,0.3-3.7,0.4-5.6,0.4
		c0.4-1.3,0.7-2.6,0.9-3.9c0.1,0,0.2,0,0.4,0c1.9,0,3.9-0.2,5.9-0.5c0.5-0.1,1-0.2,1.5-0.3c0.5-0.1,1-0.3,1.5-0.4
		c1-0.3,1.9-0.6,2.9-0.9c3.8-1.4,7.4-3.1,10.6-5c3.3-1.9,6.3-4,9-6.2c3.2-2.6,5.9-5.4,8.1-8.2C207.5,85.8,207.3,88.4,206.7,90.9z"/>
	<radialGradient id="SVGID_2_" cx="162.9991" cy="73.6907" r="160.6127" gradientUnits="userSpaceOnUse">
		<stop  offset="0.2" style="stop-color:#FFFFFF"/>
		<stop  offset="0.7" style="stop-color:#FFFFFF;stop-opacity:0.6"/>
		<stop  offset="1" style="stop-color:#FFFFFF"/>
	</radialGradient>
	<path class="st1" d="M171.9,163.5c0.1-2,0-3.7-0.3-5.2c-0.3-1.5-0.7-2.8-1-3.8c-0.7-2-1.3-3.1-1.2-3.1c0,0,0.4,1.1,0.9,3.2
		c0.2,1,0.5,2.3,0.6,3.8c0.1,1.5,0.1,3.2-0.1,5c-0.3,1.8-0.8,3.8-1.8,5.7c-1,1.9-2.4,3.8-4.1,5.4c-3.5,3.3-8.5,5.7-14,6.8
		c-5.5,1.1-11,1-15.8-0.1c-2.4-0.6-4.6-1.4-6.5-2.4c-1.9-1-3.6-2.2-4.9-3.5c-2.7-2.6-4-5.4-4.7-7.4c-0.7-2-0.8-3.2-0.8-3.2
		c0,0,0,1.2,0.5,3.3c0.2,1.1,0.6,2.3,1.3,3.7c0.7,1.4,1.6,2.9,2.9,4.4c1.3,1.5,3,2.9,4.9,4.1c2,1.2,4.3,2.2,6.8,2.9
		c5,1.4,10.9,1.7,16.7,0.5c5.9-1.2,11.2-3.9,14.9-7.7c1.8-1.9,3.3-4,4.2-6.1C171.3,167.6,171.7,165.5,171.9,163.5z"/>
	<radialGradient id="SVGID_3_" cx="162.9991" cy="73.6907" r="160.6127" gradientUnits="userSpaceOnUse">
		<stop  offset="0.2" style="stop-color:#FFFFFF"/>
		<stop  offset="0.7" style="stop-color:#FFFFFF;stop-opacity:0.6"/>
		<stop  offset="1" style="stop-color:#FFFFFF"/>
	</radialGradient>
	<path class="st2" d="M204.1,162c1.2-1,2-2.1,2.7-3.2c1.2-2.2,1.5-4.3,1.5-5.6c0.1-1.4,0-2.1,0-2.1c0,0-0.1,0.7-0.4,2.1
		c-0.3,1.3-0.8,3.2-2.2,5.1c-0.7,0.9-1.5,1.8-2.6,2.6c-1.1,0.7-2.4,1.3-3.8,1.6c-1.4,0.3-3,0.4-4.6,0.2c-0.8-0.1-1.6-0.2-2.4-0.4
		l-0.6-0.2c-0.2-0.1-0.3-0.1-0.7-0.2c-0.4-0.1-0.7-0.2-1.1-0.4c-0.7-0.3-1.4-0.7-2.1-1.2c-0.7-0.5-1.4-1.1-2.3-1.6
		c-0.5-0.2-1-0.4-1.6-0.5c-0.6,0-1.2,0.1-1.7,0.3c-1,0.4-1.7,1.1-2.3,1.7c-0.3,0.3-0.6,0.6-0.8,0.9l-0.2,0.2l0,0.1c0,0,0,0,0,0
		c0,0,0,0.1-0.1,0.1c-0.1,0.2-0.3,0.3-0.4,0.5c-0.5,0.7-0.9,1.5-1.1,2.3c-0.4,1.6-0.2,2.9-0.2,4.1c0,1.2,0,2.2-0.4,3
		c-0.3,0.8-0.9,1.4-1.4,1.8c-0.5,0.4-1,0.7-1.3,0.8c-0.3,0.2-0.5,0.2-0.5,0.2s0.2,0,0.5-0.1c0.3-0.1,0.9-0.3,1.5-0.6
		c0.6-0.3,1.3-0.9,1.8-1.8c0.5-0.9,0.7-2.1,0.9-3.3c0.1-1.2,0.2-2.5,0.6-3.7c0.2-0.6,0.5-1.1,0.9-1.6c0.1-0.1,0.2-0.2,0.3-0.3
		l0.1-0.1l0.1-0.1l0.2-0.2c0.3-0.3,0.5-0.5,0.8-0.8c0.5-0.5,1.1-0.9,1.7-1.1c0.6-0.2,0.9-0.1,1.5,0.2c0.6,0.3,1.2,0.9,2,1.5
		c0.7,0.6,1.6,1.1,2.6,1.5c0.5,0.2,1,0.4,1.5,0.5c0.1,0,0.4,0.1,0.6,0.2c0.2,0.1,0.5,0.1,0.7,0.2c0.9,0.2,1.9,0.3,2.8,0.4
		c1.8,0.1,3.7-0.1,5.3-0.6C201.5,163.8,202.9,163,204.1,162z"/>
	<radialGradient id="SVGID_4_" cx="162.9991" cy="73.6907" r="160.6127" gradientUnits="userSpaceOnUse">
		<stop  offset="0.2" style="stop-color:#FFFFFF"/>
		<stop  offset="0.7" style="stop-color:#FFFFFF;stop-opacity:0.6"/>
		<stop  offset="1" style="stop-color:#FFFFFF"/>
	</radialGradient>
	<path class="st3" d="M166.4,190.1c-0.3,0.8-1,1.4-1.4,1.7c-0.5,0.3-0.8,0.3-0.8,0.4c0,0,0.3,0,0.9-0.1c0.6-0.2,1.4-0.6,2-1.5
		c0.2-0.2,0.3-0.5,0.4-0.8c0-0.2,0.1-0.3,0.1-0.5c0-0.2,0-0.3,0-0.5c0-0.7-0.2-1.4-0.6-2.1c-0.4-0.7-1-1.3-1.8-1.7
		c-0.8-0.4-1.7-0.6-2.6-0.4c-0.9,0.1-1.8,0.5-2.4,1.1c-0.6,0.6-1.1,1.3-1.3,2.1c-0.1,0.4-0.2,0.8-0.2,1.1c0,0.1,0,0.2,0,0.3
		c0,0.1,0,0.2,0,0.3c0,0.2,0.1,0.4,0.2,0.5c0.2,0.7,0.7,1.1,1.1,1.5c0.8,0.7,1.7,0.9,2.3,1c0.6,0,0.9,0,0.9,0c0,0-0.3,0-0.8-0.2
		c-0.5-0.2-1.2-0.6-1.8-1.3c-0.3-0.4-0.5-0.8-0.6-1.3c0-0.1,0-0.2,0-0.3c0-0.1,0-0.1,0-0.2c0-0.1,0-0.1,0-0.2c0-0.3,0.1-0.5,0.2-0.8
		c0.4-1,1.4-1.9,2.6-2.1c1.2-0.2,2.4,0.4,3.1,1.3c0.3,0.4,0.6,0.9,0.6,1.4c0,0.1,0,0.3,0.1,0.4c0,0.1,0,0.2,0,0.3
		C166.6,189.6,166.5,189.8,166.4,190.1z"/>
	<radialGradient id="SVGID_5_" cx="162.9991" cy="73.6907" r="160.6127" gradientUnits="userSpaceOnUse">
		<stop  offset="0.2" style="stop-color:#FFFFFF"/>
		<stop  offset="0.7" style="stop-color:#FFFFFF;stop-opacity:0.6"/>
		<stop  offset="1" style="stop-color:#FFFFFF"/>
	</radialGradient>
	<path class="st4" d="M88,194.6c-0.3,0.2-0.5,0.2-0.4,0.3c0,0,0.2,0,0.5,0c0.3-0.1,0.9-0.3,1.3-0.9c0.1-0.1,0.2-0.3,0.3-0.5
		c0-0.1,0.1-0.2,0.1-0.3c0-0.1,0-0.2,0-0.3c0-0.4-0.1-0.9-0.4-1.3c-0.2-0.4-0.6-0.8-1.1-1.1c-0.5-0.3-1.1-0.4-1.7-0.3
		c-0.6,0.1-1.2,0.4-1.6,0.7c-0.4,0.4-0.7,0.9-0.8,1.4c-0.1,0.2-0.1,0.5-0.1,0.7c0,0.1,0,0.1,0,0.2c0,0.1,0,0.1,0,0.2
		c0,0.1,0.1,0.2,0.1,0.4c0.2,0.4,0.5,0.7,0.7,0.9c0.6,0.4,1.1,0.5,1.5,0.5c0.4,0,0.5-0.1,0.5-0.1c0,0-0.2,0-0.5-0.2
		c-0.3-0.1-0.7-0.4-1-0.8c-0.1-0.2-0.2-0.5-0.3-0.7c0-0.1,0-0.1,0-0.2c0,0,0,0,0-0.1c0,0,0-0.1,0-0.1c0-0.1,0.1-0.3,0.1-0.4
		c0.2-0.5,0.7-0.9,1.3-1c0.6-0.1,1.2,0.2,1.5,0.6c0.2,0.2,0.3,0.5,0.4,0.7c0,0.1,0,0.1,0,0.2c0,0,0,0.1,0,0.2c0,0.1,0,0.2-0.1,0.3
		C88.6,194.1,88.2,194.4,88,194.6z"/>
	<radialGradient id="SVGID_6_" cx="162.9991" cy="73.6907" r="160.6127" gradientUnits="userSpaceOnUse">
		<stop  offset="0.2" style="stop-color:#FFFFFF"/>
		<stop  offset="0.7" style="stop-color:#FFFFFF;stop-opacity:0.6"/>
		<stop  offset="1" style="stop-color:#FFFFFF"/>
	</radialGradient>
	<path class="st5" d="M101.8,199.5c-0.5,1.1-1.4,1.8-2,2.2c-0.6,0.4-1.1,0.4-1.1,0.4c0,0,0.4,0,1.2-0.2c0.7-0.3,1.8-0.8,2.6-2.1
		c0.2-0.3,0.4-0.7,0.5-1.1c0-0.2,0.1-0.4,0.1-0.7c0-0.2,0-0.4,0-0.6c0-0.9-0.3-1.8-0.8-2.7c-0.5-0.9-1.3-1.6-2.3-2.1
		c-1-0.5-2.2-0.7-3.4-0.5c-1.2,0.2-2.3,0.7-3.1,1.4c-0.8,0.7-1.4,1.7-1.7,2.7c-0.1,0.5-0.2,1-0.2,1.4c0,0.1,0,0.2,0,0.3
		c0,0.1,0,0.3,0,0.4c0,0.2,0.1,0.5,0.2,0.7c0.3,0.9,0.8,1.5,1.4,2c1.1,1,2.3,1.3,3,1.4c0.8,0.1,1.2,0,1.2,0c0,0-0.4,0-1.1-0.2
		c-0.7-0.2-1.7-0.7-2.5-1.7c-0.4-0.5-0.8-1.1-0.9-1.7c0-0.2-0.1-0.3-0.1-0.5c0-0.1,0-0.2,0-0.2c0-0.1,0-0.2,0-0.3
		c0-0.4,0.1-0.7,0.3-1.1c0.3-0.7,0.8-1.4,1.4-1.9c0.6-0.5,1.4-0.9,2.3-1c0.9-0.1,1.8,0,2.5,0.4c0.8,0.3,1.4,0.9,1.9,1.5
		c0.5,0.6,0.8,1.3,0.9,2.1c0,0.2,0.1,0.3,0.1,0.5c0,0.2,0,0.3,0,0.5C102,199,101.9,199.3,101.8,199.5z"/>
	<radialGradient id="SVGID_7_" cx="162.9991" cy="73.6907" r="160.6127" gradientUnits="userSpaceOnUse">
		<stop  offset="0.2" style="stop-color:#FFFFFF"/>
		<stop  offset="0.7" style="stop-color:#FFFFFF;stop-opacity:0.6"/>
		<stop  offset="1" style="stop-color:#FFFFFF"/>
	</radialGradient>
	<path class="st6" d="M62.9,200.8c0,0.2,0.1,0.3,0.1,0.4c0.2,0.5,0.5,0.9,0.9,1.1c0.7,0.5,1.3,0.7,1.8,0.7c0.4,0,0.7-0.1,0.7-0.1
		c0,0-0.2,0-0.6-0.2c-0.4-0.2-0.9-0.5-1.3-1c-0.2-0.3-0.3-0.6-0.4-0.9c0-0.1,0-0.2,0-0.2c0,0,0-0.1,0-0.1c0,0,0-0.1,0-0.1
		c0-0.2,0.1-0.4,0.2-0.5c0.3-0.7,1-1.3,1.8-1.4c0.8-0.1,1.6,0.2,2.1,0.8c0.2,0.3,0.4,0.6,0.5,1c0,0.1,0,0.2,0,0.3c0,0.1,0,0.1,0,0.2
		c0,0.2,0,0.3-0.1,0.4c-0.2,0.6-0.7,1-1,1.2c-0.3,0.2-0.6,0.3-0.6,0.3c0,0,0.2,0,0.7-0.1c0.4-0.1,1.1-0.4,1.6-1.1
		c0.1-0.2,0.2-0.4,0.3-0.6c0-0.1,0.1-0.2,0.1-0.4c0-0.1,0-0.2,0-0.4c0-0.5-0.2-1.1-0.5-1.6c-0.3-0.5-0.8-1-1.4-1.3
		c-0.6-0.3-1.3-0.4-2-0.3c-0.7,0.1-1.4,0.4-1.9,0.9c-0.5,0.4-0.8,1-1,1.6c-0.1,0.3-0.1,0.6-0.1,0.9c0,0.1,0,0.1,0,0.2
		C62.9,200.6,62.9,200.7,62.9,200.8z"/>
	<radialGradient id="SVGID_8_" cx="162.9991" cy="73.6907" r="160.6127" gradientUnits="userSpaceOnUse">
		<stop  offset="0.2" style="stop-color:#FFFFFF"/>
		<stop  offset="0.7" style="stop-color:#FFFFFF;stop-opacity:0.6"/>
		<stop  offset="1" style="stop-color:#FFFFFF"/>
	</radialGradient>
	<path class="st7" d="M115.3,216.4c-0.6,1.3-1.6,2.1-2.3,2.5c-0.7,0.4-1.2,0.5-1.2,0.5c0,0,0.5,0,1.3-0.3c0.8-0.3,2-0.9,2.9-2.4
		c0.2-0.4,0.4-0.8,0.5-1.2c0.1-0.2,0.1-0.5,0.1-0.7c0-0.2,0-0.5,0-0.7c-0.1-1-0.4-2-1-3c-0.6-1-1.5-1.8-2.6-2.4
		c-1.1-0.6-2.4-0.8-3.8-0.6c-1.3,0.2-2.5,0.8-3.5,1.6c-0.9,0.8-1.6,1.9-1.9,3c-0.2,0.5-0.2,1.1-0.3,1.6c0,0.1,0,0.3,0,0.4
		c0,0.1,0,0.3,0,0.4c0,0.3,0.1,0.5,0.2,0.8c0.4,1,0.9,1.7,1.5,2.2c1.2,1.1,2.5,1.5,3.4,1.6c0.9,0.1,1.4,0,1.4,0c0,0-0.5,0-1.3-0.3
		c-0.8-0.2-1.9-0.8-2.9-1.9c-0.5-0.5-0.9-1.2-1.1-2c0-0.2-0.1-0.4-0.1-0.6c0-0.1,0-0.2,0-0.3c0-0.1,0-0.2,0-0.3
		c0-0.4,0.1-0.9,0.3-1.3c0.3-0.8,0.9-1.7,1.6-2.3c0.7-0.6,1.7-1.1,2.7-1.2c1-0.1,2,0,2.9,0.4c0.9,0.4,1.6,1,2.2,1.8
		c0.5,0.7,0.9,1.6,1,2.4c0,0.2,0,0.4,0.1,0.6c0,0.2,0,0.4,0,0.5C115.6,215.8,115.5,216.1,115.3,216.4z"/>
	<radialGradient id="SVGID_9_" cx="162.9991" cy="73.6907" r="160.6127" gradientUnits="userSpaceOnUse">
		<stop  offset="0.2" style="stop-color:#FFFFFF"/>
		<stop  offset="0.7" style="stop-color:#FFFFFF;stop-opacity:0.6"/>
		<stop  offset="1" style="stop-color:#FFFFFF"/>
	</radialGradient>
	<path class="st8" d="M194.2,189c-1.3,3-3.6,6.1-6.8,9c-3.2,2.8-7.3,5.3-11.8,7c-4.6,1.7-9.3,2.6-13.5,2.6c-4.3,0-8.1-0.8-11-2.2
		c-3-1.3-5-3-6.3-4.3c-1.3-1.3-1.8-2.2-1.9-2.2c0,0,0.5,0.9,1.7,2.3c1.2,1.4,3.1,3.3,6.1,4.9c3,1.6,6.9,2.7,11.3,2.8
		c4.4,0.1,9.3-0.7,14.1-2.5c4.8-1.8,9-4.5,12.2-7.5c3.2-3,5.4-6.5,6.6-9.6c1.2-3.1,1.3-5.9,1.3-7.7c0-0.9-0.2-1.6-0.2-2.1
		c0-0.5-0.3-0.7-0.3-0.7c0,0,0.2,0.2,0.2,0.7c0,0.5,0,1.2,0,2.1C195.9,183.3,195.5,186,194.2,189z"/>
	<radialGradient id="SVGID_10_" cx="162.9991" cy="73.6907" r="160.6127" gradientUnits="userSpaceOnUse">
		<stop  offset="0.2" style="stop-color:#FFFFFF"/>
		<stop  offset="0.7" style="stop-color:#FFFFFF;stop-opacity:0.6"/>
		<stop  offset="1" style="stop-color:#FFFFFF"/>
	</radialGradient>
	<path class="st9" d="M101.1,88.5c-0.2,0.1-0.3,0.2-0.5,0.2c-2.4,1-5,2.2-7.9,3.8c-5.4,2.9-11.5,6.8-17.5,12.2
		c-6,5.4-11.8,12.3-16.3,20.5c-1.1,2.1-2.1,4.1-3,6.2c-0.9,2.1-1.7,4.2-2.4,6.3c-1.4,4.2-2.2,8.4-2.7,12.4c-0.5,4-0.7,7.9-0.6,11.4
		c0,3.6,0.1,6.9,0.4,10c0.3,3,0.7,5.8,1.3,8.1c0.6,2.4,1.3,4.3,2,5.9c0.7,1.6,1.4,2.7,1.9,3.4c0.5,0.7,0.8,1.1,0.8,1.1
		c0,0-0.3-0.4-0.8-1.1c-0.5-0.8-1.1-1.9-1.8-3.5c-0.6-1.6-1.3-3.5-1.7-5.9c-0.5-2.4-0.8-5.1-1-8.1c-0.2-3-0.2-6.3-0.1-9.9
		c0.1-3.5,0.3-7.3,0.9-11.3c0.6-3.9,1.5-8,2.8-12.1c0.7-2,1.5-4.1,2.4-6.1c0.9-2.1,1.9-4.1,2.9-6.1c4.4-8.1,10-14.9,15.8-20.3
		c5.8-5.4,11.8-9.5,17-12.5c2.8-1.6,5.4-2.9,7.6-4c0.2-0.1,0.3-0.2,0.5-0.2c1.8-0.8,3.4-1.5,4.7-2c3.1-1.3,4.9-1.9,4.9-1.9
		c0,0-1.8,0.5-5,1.6C104.5,87.2,102.9,87.8,101.1,88.5z"/>
	<radialGradient id="SVGID_11_" cx="162.9991" cy="73.6907" r="160.6127" gradientUnits="userSpaceOnUse">
		<stop  offset="0.2" style="stop-color:#FFFFFF"/>
		<stop  offset="0.7" style="stop-color:#FFFFFF;stop-opacity:0.6"/>
		<stop  offset="1" style="stop-color:#FFFFFF"/>
	</radialGradient>
	<path class="st10" d="M84.3,226.8c-4.4-0.8-9.5-2.3-14.6-5.1c-5.2-2.7-10.3-6.8-14.7-11.9c-4.4-5.1-7.6-10.8-9.9-16.2
		c-1.1-2.7-2-5.3-2.8-7.9c-0.7-2.5-1.2-4.9-1.5-7.1c-0.5-4.4-0.6-8-0.7-10.5l-0.1-3.9l0,3.9c0,2.5,0,6.1,0.4,10.6
		c0.1,1.1,0.2,2.3,0.5,3.5c0.2,1.2,0.5,2.4,0.8,3.7c0.7,2.5,1.5,5.2,2.7,8c2.2,5.5,5.5,11.2,9.9,16.4c4.4,5.2,9.7,9.3,14.9,12
		c5.3,2.7,10.5,4.2,14.9,4.9c4.4,0.7,8,0.7,10.5,0.6c2.5-0.1,3.9-0.3,3.9-0.2c0,0-1.4,0.1-3.9,0.1C92.3,227.7,88.7,227.6,84.3,226.8
		z"/>
</g>
<path class="st11" d="M141.3,166.8c-1,0-2.5-0.4-3.9-2.1c-0.8-1-1.8-1.5-2.7-1.6c0,0-0.1,0-0.1,0c-1,0-2,0.6-3.1,1.7
	c-0.2,0.2-0.4,0.2-0.6,0.2c-0.2,0-0.4-0.1-0.5-0.2c-0.3-0.3-0.3-0.8-0.1-1.1c1.7-1.8,3.2-2.2,4.2-2.2l0.1,0c1,0,2.4,0.4,3.8,2.1
	c0.8,1,1.8,1.5,2.7,1.6c0,0,0,0,0,0c1.1,0,2.2-0.6,3.2-1.7c1.7-1.8,3.2-2.2,4.2-2.2l0.1,0c1,0,2.4,0.4,3.8,2.1
	c0.8,1,1.8,1.5,2.7,1.6c0,0,0,0,0,0c1.1,0,2.2-0.6,3.2-1.7c0.1-0.2,0.3-0.2,0.6-0.2c0.1,0,0.3,0,0.5,0.2c0.3,0.3,0.3,0.8,0.1,1.1
	c-1.7,1.8-3.2,2.2-4.3,2.2l0,0c-1.1,0-2.5-0.4-3.9-2.1c-0.8-1-1.8-1.5-2.7-1.6c0,0,0,0,0,0c-1.1,0-2.2,0.6-3.2,1.7
	C144,166.4,142.4,166.8,141.3,166.8L141.3,166.8z M141.3,154.8c-1,0-2.5-0.4-3.9-2.1c-0.8-1-1.8-1.5-2.7-1.6c-0.8,0-1.9,0.3-3.2,1.7
	c-0.2,0.2-0.4,0.2-0.6,0.2l0,0c-0.2,0-0.4-0.1-0.5-0.2c-0.3-0.3-0.3-0.8-0.1-1.1c1.7-1.8,3.2-2.2,4.2-2.2l0.1,0c1,0,2.4,0.4,3.8,2.1
	c0.8,1,1.8,1.5,2.7,1.6c0,0,0,0,0,0c1.1,0,2.2-0.6,3.2-1.7c1.7-1.8,3.2-2.2,4.2-2.2l0.1,0c1,0,2.4,0.4,3.8,2.1
	c0.8,1,1.8,1.5,2.7,1.6c0,0,0,0,0,0c1.1,0,2.2-0.6,3.2-1.7c0.2-0.2,0.4-0.2,0.6-0.2c0.2,0,0.4,0.1,0.5,0.2c0.3,0.3,0.3,0.8,0.1,1.1
	c-1.3,1.4-2.8,2.2-4.3,2.2c-1,0-2.5-0.4-3.9-2.1c-0.8-1-1.8-1.5-2.7-1.6c0,0,0,0,0,0c-1.1,0-2.2,0.6-3.2,1.7
	C144,154.4,142.4,154.8,141.3,154.8L141.3,154.8z"/>
</svg>
