<?xml version="1.0" encoding="utf-8"?>
<!-- Generator: Adobe Illustrator 21.1.0, SVG Export Plug-In . SVG Version: 6.00 Build 0)  -->
<svg version="1.1" id="Layer_5" xmlns="http://www.w3.org/2000/svg" xmlns:xlink="http://www.w3.org/1999/xlink" x="0px" y="0px"
	 viewBox="0 0 601 153.1" style="enable-background:new 0 0 601 153.1;" xml:space="preserve">
<style type="text/css">
	.st0{fill:url(#SVGID_1_);}
	.st1{fill:url(#SVGID_2_);}
	.st2{fill:url(#SVGID_3_);}
	.st3{fill:url(#SVGID_4_);}
	.st4{fill:url(#SVGID_5_);}
	.st5{fill:url(#SVGID_6_);}
	.st6{fill:url(#SVGID_7_);}
	.st7{fill:url(#SVGID_8_);}
	.st8{fill:url(#SVGID_9_);}
	.st9{fill:url(#SVGID_10_);}
	.st10{fill:url(#SVGID_11_);}
	.st11{fill:url(#SVGID_12_);}
	.st12{fill:url(#SVGID_13_);}
	.st13{fill:url(#SVGID_14_);}
	.st14{fill:url(#SVGID_15_);}
	.st15{fill:url(#SVGID_16_);}
	.st16{fill:url(#SVGID_17_);}
	.st17{fill:url(#SVGID_18_);}
	.st18{fill:url(#SVGID_19_);}
	.st19{fill:url(#SVGID_20_);}
</style>
<g>
	<g>
		<linearGradient id="SVGID_1_" gradientUnits="userSpaceOnUse" x1="213" y1="47.0193" x2="215.3334" y2="113.8398">
			<stop  offset="0" style="stop-color:#414042"/>
			<stop  offset="8.924593e-02" style="stop-color:#434344"/>
			<stop  offset="0.1376" style="stop-color:#4B4B4D"/>
			<stop  offset="0.1761" style="stop-color:#57575A"/>
			<stop  offset="0.2094" style="stop-color:#67686B"/>
			<stop  offset="0.2394" style="stop-color:#7A7C7F"/>
			<stop  offset="0.267" style="stop-color:#919396"/>
			<stop  offset="0.2923" style="stop-color:#ADAFB2"/>
			<stop  offset="0.303" style="stop-color:#BCBEC0"/>
			<stop  offset="0.3959" style="stop-color:#818385"/>
			<stop  offset="0.4723" style="stop-color:#555557"/>
			<stop  offset="0.5091" style="stop-color:#414042"/>
			<stop  offset="0.5311" style="stop-color:#67696B"/>
			<stop  offset="0.5626" style="stop-color:#929497"/>
			<stop  offset="0.5919" style="stop-color:#B5B7BA"/>
			<stop  offset="0.6178" style="stop-color:#D0D2D3"/>
			<stop  offset="0.6395" style="stop-color:#E0E1E3"/>
			<stop  offset="0.6544" style="stop-color:#E6E7E8"/>
			<stop  offset="0.6615" style="stop-color:#D1D2D4"/>
			<stop  offset="0.6767" style="stop-color:#9B9DA0"/>
			<stop  offset="0.6987" style="stop-color:#474749"/>
			<stop  offset="0.7052" style="stop-color:#000000"/>
			<stop  offset="0.8126" style="stop-color:#080808"/>
			<stop  offset="0.8581" style="stop-color:#202020"/>
			<stop  offset="0.8918" style="stop-color:#3B3A3C"/>
			<stop  offset="0.9198" style="stop-color:#4E4E50"/>
			<stop  offset="0.9442" style="stop-color:#626365"/>
			<stop  offset="0.9661" style="stop-color:#787A7C"/>
			<stop  offset="0.9857" style="stop-color:#909295"/>
			<stop  offset="1" style="stop-color:#A7A9AC"/>
		</linearGradient>
		<polygon class="st0" points="194.3,108.9 194.3,101.8 201.4,101.8 201.4,59.4 194.3,59.4 194.3,52.3 209.4,52.3 209.4,58.8 
			209.3,59.1 209.3,101.8 227.6,101.8 227.6,88.2 235.3,88.2 235.3,108.9 		"/>
		<linearGradient id="SVGID_2_" gradientUnits="userSpaceOnUse" x1="245.7327" y1="45.8747" x2="248.0661" y2="112.6948">
			<stop  offset="0" style="stop-color:#414042"/>
			<stop  offset="8.924593e-02" style="stop-color:#434344"/>
			<stop  offset="0.1376" style="stop-color:#4B4B4D"/>
			<stop  offset="0.1761" style="stop-color:#57575A"/>
			<stop  offset="0.2094" style="stop-color:#67686B"/>
			<stop  offset="0.2394" style="stop-color:#7A7C7F"/>
			<stop  offset="0.267" style="stop-color:#919396"/>
			<stop  offset="0.2923" style="stop-color:#ADAFB2"/>
			<stop  offset="0.303" style="stop-color:#BCBEC0"/>
			<stop  offset="0.3959" style="stop-color:#818385"/>
			<stop  offset="0.4723" style="stop-color:#555557"/>
			<stop  offset="0.5091" style="stop-color:#414042"/>
			<stop  offset="0.5311" style="stop-color:#67696B"/>
			<stop  offset="0.5626" style="stop-color:#929497"/>
			<stop  offset="0.5919" style="stop-color:#B5B7BA"/>
			<stop  offset="0.6178" style="stop-color:#D0D2D3"/>
			<stop  offset="0.6395" style="stop-color:#E0E1E3"/>
			<stop  offset="0.6544" style="stop-color:#E6E7E8"/>
			<stop  offset="0.6615" style="stop-color:#D1D2D4"/>
			<stop  offset="0.6767" style="stop-color:#9B9DA0"/>
			<stop  offset="0.6987" style="stop-color:#474749"/>
			<stop  offset="0.7052" style="stop-color:#000000"/>
			<stop  offset="0.8126" style="stop-color:#080808"/>
			<stop  offset="0.8581" style="stop-color:#202020"/>
			<stop  offset="0.8918" style="stop-color:#3B3A3C"/>
			<stop  offset="0.9198" style="stop-color:#4E4E50"/>
			<stop  offset="0.9442" style="stop-color:#626365"/>
			<stop  offset="0.9661" style="stop-color:#787A7C"/>
			<stop  offset="0.9857" style="stop-color:#909295"/>
			<stop  offset="1" style="stop-color:#A7A9AC"/>
		</linearGradient>
		<path class="st1" d="M237.2,108.9v-7.1h6.6V52.3h7.9v49.5h6.7v7.1H237.2z M243.7,51.9v-8.5h7.9v8.5H243.7z"/>
		<linearGradient id="SVGID_3_" gradientUnits="userSpaceOnUse" x1="277.7735" y1="44.7548" x2="280.1069" y2="111.5751">
			<stop  offset="0" style="stop-color:#414042"/>
			<stop  offset="8.924593e-02" style="stop-color:#434344"/>
			<stop  offset="0.1376" style="stop-color:#4B4B4D"/>
			<stop  offset="0.1761" style="stop-color:#57575A"/>
			<stop  offset="0.2094" style="stop-color:#67686B"/>
			<stop  offset="0.2394" style="stop-color:#7A7C7F"/>
			<stop  offset="0.267" style="stop-color:#919396"/>
			<stop  offset="0.2923" style="stop-color:#ADAFB2"/>
			<stop  offset="0.303" style="stop-color:#BCBEC0"/>
			<stop  offset="0.3959" style="stop-color:#818385"/>
			<stop  offset="0.4723" style="stop-color:#555557"/>
			<stop  offset="0.5091" style="stop-color:#414042"/>
			<stop  offset="0.5311" style="stop-color:#67696B"/>
			<stop  offset="0.5626" style="stop-color:#929497"/>
			<stop  offset="0.5919" style="stop-color:#B5B7BA"/>
			<stop  offset="0.6178" style="stop-color:#D0D2D3"/>
			<stop  offset="0.6395" style="stop-color:#E0E1E3"/>
			<stop  offset="0.6544" style="stop-color:#E6E7E8"/>
			<stop  offset="0.6615" style="stop-color:#D1D2D4"/>
			<stop  offset="0.6767" style="stop-color:#9B9DA0"/>
			<stop  offset="0.6987" style="stop-color:#474749"/>
			<stop  offset="0.7052" style="stop-color:#000000"/>
			<stop  offset="0.8126" style="stop-color:#080808"/>
			<stop  offset="0.8581" style="stop-color:#202020"/>
			<stop  offset="0.8918" style="stop-color:#3B3A3C"/>
			<stop  offset="0.9198" style="stop-color:#4E4E50"/>
			<stop  offset="0.9442" style="stop-color:#626365"/>
			<stop  offset="0.9661" style="stop-color:#787A7C"/>
			<stop  offset="0.9857" style="stop-color:#909295"/>
			<stop  offset="1" style="stop-color:#A7A9AC"/>
		</linearGradient>
		<path class="st2" d="M264.1,59.4h-6.8v-7.1h22.7c5.4,0,9.7,1.3,12.9,3.9c3.2,2.7,4.8,6.4,4.8,11.4c0,3.3-0.8,6.1-2.5,8.3
			c-0.8,1-1.7,2-2.9,2.8c2,1,3.6,2.3,4.8,3.8c2.2,2.5,3.2,5.6,3.2,9.4c0,5.5-1.8,9.7-5.6,12.7c-3.6,2.8-8.6,4.2-14.7,4.2l-16,0.1
			V59.4z M279.7,101.8c4.2,0,7.4-0.9,9.6-2.5c2.1-1.7,3.1-4,3.1-7c0-3.2-1-5.4-3.1-6.9c-1-0.7-2.3-1.3-3.9-1.8
			c-1.6-0.4-3.5-0.7-5.7-0.7H272v18.8H279.7z M279.1,75.9c3.3,0,6-0.8,7.9-2.4c1.9-1.5,2.8-3.4,2.8-6c0-2.5-0.8-4.5-2.5-5.9
			c-1.8-1.5-4.4-2.2-7.4-2.2H272v16.5H279.1z"/>
		<linearGradient id="SVGID_4_" gradientUnits="userSpaceOnUse" x1="323.5768" y1="43.1581" x2="325.9102" y2="109.9781">
			<stop  offset="0" style="stop-color:#414042"/>
			<stop  offset="8.924593e-02" style="stop-color:#434344"/>
			<stop  offset="0.1376" style="stop-color:#4B4B4D"/>
			<stop  offset="0.1761" style="stop-color:#57575A"/>
			<stop  offset="0.2094" style="stop-color:#67686B"/>
			<stop  offset="0.2394" style="stop-color:#7A7C7F"/>
			<stop  offset="0.267" style="stop-color:#919396"/>
			<stop  offset="0.2923" style="stop-color:#ADAFB2"/>
			<stop  offset="0.303" style="stop-color:#BCBEC0"/>
			<stop  offset="0.3959" style="stop-color:#818385"/>
			<stop  offset="0.4723" style="stop-color:#555557"/>
			<stop  offset="0.5091" style="stop-color:#414042"/>
			<stop  offset="0.5311" style="stop-color:#67696B"/>
			<stop  offset="0.5626" style="stop-color:#929497"/>
			<stop  offset="0.5919" style="stop-color:#B5B7BA"/>
			<stop  offset="0.6178" style="stop-color:#D0D2D3"/>
			<stop  offset="0.6395" style="stop-color:#E0E1E3"/>
			<stop  offset="0.6544" style="stop-color:#E6E7E8"/>
			<stop  offset="0.6615" style="stop-color:#D1D2D4"/>
			<stop  offset="0.6767" style="stop-color:#9B9DA0"/>
			<stop  offset="0.6987" style="stop-color:#474749"/>
			<stop  offset="0.7052" style="stop-color:#000000"/>
			<stop  offset="0.8126" style="stop-color:#080808"/>
			<stop  offset="0.8581" style="stop-color:#202020"/>
			<stop  offset="0.8918" style="stop-color:#3B3A3C"/>
			<stop  offset="0.9198" style="stop-color:#4E4E50"/>
			<stop  offset="0.9442" style="stop-color:#626365"/>
			<stop  offset="0.9661" style="stop-color:#787A7C"/>
			<stop  offset="0.9857" style="stop-color:#909295"/>
			<stop  offset="1" style="stop-color:#A7A9AC"/>
		</linearGradient>
		<path class="st3" d="M308.1,109V59.4h-7.8v-7.1h27.8c4.7,0,8.5,1.3,11.5,4c3.1,2.8,4.6,6.2,4.6,10.5c0,4-1.1,7.2-3.3,9.9
			c-1.9,2.1-4.6,3.7-8.1,4.8l9.2,20.4h7.4v7.1h-12.7l-11.9-26.5H316V109H308.1z M325.8,75.4c3.5,0,6.2-0.7,8-2.2
			c1.7-1.3,2.5-3.3,2.5-6c0-2.5-0.8-4.3-2.4-5.6c-1.6-1.5-3.8-2.2-6.7-2.2H316v16H325.8z"/>
		<linearGradient id="SVGID_5_" gradientUnits="userSpaceOnUse" x1="375.3921" y1="41.354" x2="377.7255" y2="108.1742">
			<stop  offset="0" style="stop-color:#414042"/>
			<stop  offset="8.924593e-02" style="stop-color:#434344"/>
			<stop  offset="0.1376" style="stop-color:#4B4B4D"/>
			<stop  offset="0.1761" style="stop-color:#57575A"/>
			<stop  offset="0.2094" style="stop-color:#67686B"/>
			<stop  offset="0.2394" style="stop-color:#7A7C7F"/>
			<stop  offset="0.267" style="stop-color:#919396"/>
			<stop  offset="0.2923" style="stop-color:#ADAFB2"/>
			<stop  offset="0.303" style="stop-color:#BCBEC0"/>
			<stop  offset="0.3959" style="stop-color:#818385"/>
			<stop  offset="0.4723" style="stop-color:#555557"/>
			<stop  offset="0.5091" style="stop-color:#414042"/>
			<stop  offset="0.5311" style="stop-color:#67696B"/>
			<stop  offset="0.5626" style="stop-color:#929497"/>
			<stop  offset="0.5919" style="stop-color:#B5B7BA"/>
			<stop  offset="0.6178" style="stop-color:#D0D2D3"/>
			<stop  offset="0.6395" style="stop-color:#E0E1E3"/>
			<stop  offset="0.6544" style="stop-color:#E6E7E8"/>
			<stop  offset="0.6615" style="stop-color:#D1D2D4"/>
			<stop  offset="0.6767" style="stop-color:#9B9DA0"/>
			<stop  offset="0.6987" style="stop-color:#474749"/>
			<stop  offset="0.7052" style="stop-color:#000000"/>
			<stop  offset="0.8126" style="stop-color:#080808"/>
			<stop  offset="0.8581" style="stop-color:#202020"/>
			<stop  offset="0.8918" style="stop-color:#3B3A3C"/>
			<stop  offset="0.9198" style="stop-color:#4E4E50"/>
			<stop  offset="0.9442" style="stop-color:#626365"/>
			<stop  offset="0.9661" style="stop-color:#787A7C"/>
			<stop  offset="0.9857" style="stop-color:#909295"/>
			<stop  offset="1" style="stop-color:#A7A9AC"/>
		</linearGradient>
		<path class="st4" d="M385.7,108.9v-7.1h5.9L387,88.7h-18.9l-5.1,15l0,5.1h-14.6v-7.1h7.2l15.5-44.7l1.5-4.7h18.1v7.1h-5.9
			l14.8,42.4h7.1v7.1H385.7z M384.6,81.7l-7-20.5l-7,20.5H384.6z"/>
	</g>
	<g>
		<linearGradient id="SVGID_6_" gradientUnits="userSpaceOnUse" x1="211.9967" y1="44.5182" x2="214.4011" y2="113.3717">
			<stop  offset="0" style="stop-color:#F1F2F2"/>
			<stop  offset="0.1266" style="stop-color:#D4D6D7"/>
			<stop  offset="0.2904" style="stop-color:#B3B5B8"/>
			<stop  offset="0.3758" style="stop-color:#A7A9AC"/>
			<stop  offset="0.4229" style="stop-color:#818386"/>
			<stop  offset="0.4693" style="stop-color:#616264"/>
			<stop  offset="0.5056" style="stop-color:#4A4A4C"/>
			<stop  offset="0.5273" style="stop-color:#414042"/>
			<stop  offset="0.5316" style="stop-color:#565759"/>
			<stop  offset="0.5396" style="stop-color:#747578"/>
			<stop  offset="0.5486" style="stop-color:#8C8E90"/>
			<stop  offset="0.5585" style="stop-color:#A0A3A5"/>
			<stop  offset="0.5697" style="stop-color:#B2B4B7"/>
			<stop  offset="0.5828" style="stop-color:#C0C2C4"/>
			<stop  offset="0.599" style="stop-color:#CACCCD"/>
			<stop  offset="0.6218" style="stop-color:#D0D1D3"/>
			<stop  offset="0.6848" style="stop-color:#D1D3D4"/>
			<stop  offset="0.7393" style="stop-color:#C4C6C8"/>
			<stop  offset="0.8453" style="stop-color:#A2A4A7"/>
			<stop  offset="0.9914" style="stop-color:#707274"/>
			<stop  offset="1" style="stop-color:#6D6E71"/>
		</linearGradient>
		<path class="st5" d="M194.3,106.7v-5h6.7c0.3,0,0.5-0.2,0.5-0.5V57.8c0-0.3-0.2-0.5-0.5-0.5h-6.7v-5h13.1l-0.1,48.9
			c0,0.3,0.2,0.5,0.5,0.5h19.3c0.3,0,0.5-0.2,0.5-0.5V88.1h5.7v18.6H194.3z"/>
		<linearGradient id="SVGID_7_" gradientUnits="userSpaceOnUse" x1="244.7295" y1="43.3709" x2="247.1339" y2="112.224">
			<stop  offset="0" style="stop-color:#F1F2F2"/>
			<stop  offset="0.1266" style="stop-color:#D4D6D7"/>
			<stop  offset="0.2904" style="stop-color:#B3B5B8"/>
			<stop  offset="0.3758" style="stop-color:#A7A9AC"/>
			<stop  offset="0.4229" style="stop-color:#818386"/>
			<stop  offset="0.4693" style="stop-color:#616264"/>
			<stop  offset="0.5056" style="stop-color:#4A4A4C"/>
			<stop  offset="0.5273" style="stop-color:#414042"/>
			<stop  offset="0.5316" style="stop-color:#565759"/>
			<stop  offset="0.5396" style="stop-color:#747578"/>
			<stop  offset="0.5486" style="stop-color:#8C8E90"/>
			<stop  offset="0.5585" style="stop-color:#A0A3A5"/>
			<stop  offset="0.5697" style="stop-color:#B2B4B7"/>
			<stop  offset="0.5828" style="stop-color:#C0C2C4"/>
			<stop  offset="0.599" style="stop-color:#CACCCD"/>
			<stop  offset="0.6218" style="stop-color:#D0D1D3"/>
			<stop  offset="0.6848" style="stop-color:#D1D3D4"/>
			<stop  offset="0.7393" style="stop-color:#C4C6C8"/>
			<stop  offset="0.8453" style="stop-color:#A2A4A7"/>
			<stop  offset="0.9914" style="stop-color:#707274"/>
			<stop  offset="1" style="stop-color:#6D6E71"/>
		</linearGradient>
		<path class="st6" d="M237.3,106.7v-5h6.1c0.3,0,0.5-0.2,0.5-0.5V52.4h5.8v48.9c0,0.3,0.2,0.5,0.5,0.5h6.2v5H237.3z M243.8,49.9
			v-6.5h5.8v6.5H243.8z"/>
		<linearGradient id="SVGID_8_" gradientUnits="userSpaceOnUse" x1="276.7854" y1="42.2494" x2="279.1898" y2="111.1024">
			<stop  offset="0" style="stop-color:#F1F2F2"/>
			<stop  offset="0.1266" style="stop-color:#D4D6D7"/>
			<stop  offset="0.2904" style="stop-color:#B3B5B8"/>
			<stop  offset="0.3758" style="stop-color:#A7A9AC"/>
			<stop  offset="0.4229" style="stop-color:#818386"/>
			<stop  offset="0.4693" style="stop-color:#616264"/>
			<stop  offset="0.5056" style="stop-color:#4A4A4C"/>
			<stop  offset="0.5273" style="stop-color:#414042"/>
			<stop  offset="0.5316" style="stop-color:#565759"/>
			<stop  offset="0.5396" style="stop-color:#747578"/>
			<stop  offset="0.5486" style="stop-color:#8C8E90"/>
			<stop  offset="0.5585" style="stop-color:#A0A3A5"/>
			<stop  offset="0.5697" style="stop-color:#B2B4B7"/>
			<stop  offset="0.5828" style="stop-color:#C0C2C4"/>
			<stop  offset="0.599" style="stop-color:#CACCCD"/>
			<stop  offset="0.6218" style="stop-color:#D0D1D3"/>
			<stop  offset="0.6848" style="stop-color:#D1D3D4"/>
			<stop  offset="0.7393" style="stop-color:#C4C6C8"/>
			<stop  offset="0.8453" style="stop-color:#A2A4A7"/>
			<stop  offset="0.9914" style="stop-color:#707274"/>
			<stop  offset="1" style="stop-color:#6D6E71"/>
		</linearGradient>
		<path class="st7" d="M264.2,57.8c0-0.3-0.2-0.5-0.5-0.5h-6.3v-5h21.7c5.2,0,9.3,1.2,12.2,3.7c3,2.5,4.4,5.9,4.4,10.6
			c0,3.1-0.8,5.7-2.3,7.6c-0.9,1.2-2,2.2-3.4,3.1c-0.2,0.1-0.2,0.3-0.2,0.5c0,0.2,0.1,0.4,0.3,0.4c2.2,0.9,4,2.3,5.3,3.9
			c2,2.4,3,5.2,3,8.7c0,5.2-1.7,9.1-5.2,11.8c-3.4,2.7-8.2,4-14.1,4l-14.9,0.1V57.8z M270.5,80.9c-0.3,0-0.5,0.2-0.5,0.5v19.9
			c0,0.3,0.2,0.5,0.5,0.5h8.2c4.4,0,7.9-0.9,10.3-2.8c2.4-1.9,3.6-4.5,3.6-7.8c0-3.5-1.2-6.1-3.5-7.7c-1.1-0.8-2.5-1.4-4.2-1.9
			c-1.7-0.5-3.7-0.7-6-0.7H270.5z M270.5,57.3c-0.3,0-0.5,0.2-0.5,0.5v17.5c0,0.3,0.2,0.5,0.5,0.5h7.6c3.5,0,6.4-0.9,8.6-2.6
			c2.1-1.6,3.1-3.9,3.1-6.8c0-2.8-1-5-2.9-6.7c-2.1-1.6-4.8-2.5-8.1-2.5H270.5z"/>
		<linearGradient id="SVGID_9_" gradientUnits="userSpaceOnUse" x1="322.572" y1="40.6527" x2="324.9764" y2="109.5061">
			<stop  offset="0" style="stop-color:#F1F2F2"/>
			<stop  offset="0.1266" style="stop-color:#D4D6D7"/>
			<stop  offset="0.2904" style="stop-color:#B3B5B8"/>
			<stop  offset="0.3758" style="stop-color:#A7A9AC"/>
			<stop  offset="0.4229" style="stop-color:#818386"/>
			<stop  offset="0.4693" style="stop-color:#616264"/>
			<stop  offset="0.5056" style="stop-color:#4A4A4C"/>
			<stop  offset="0.5273" style="stop-color:#414042"/>
			<stop  offset="0.5316" style="stop-color:#565759"/>
			<stop  offset="0.5396" style="stop-color:#747578"/>
			<stop  offset="0.5486" style="stop-color:#8C8E90"/>
			<stop  offset="0.5585" style="stop-color:#A0A3A5"/>
			<stop  offset="0.5697" style="stop-color:#B2B4B7"/>
			<stop  offset="0.5828" style="stop-color:#C0C2C4"/>
			<stop  offset="0.599" style="stop-color:#CACCCD"/>
			<stop  offset="0.6218" style="stop-color:#D0D1D3"/>
			<stop  offset="0.6848" style="stop-color:#D1D3D4"/>
			<stop  offset="0.7393" style="stop-color:#C4C6C8"/>
			<stop  offset="0.8453" style="stop-color:#A2A4A7"/>
			<stop  offset="0.9914" style="stop-color:#707274"/>
			<stop  offset="1" style="stop-color:#6D6E71"/>
		</linearGradient>
		<path class="st8" d="M308.2,106.8V57.8c0-0.3-0.2-0.5-0.5-0.5h-7.3v-5h26.7c4.4,0,8,1.2,10.8,3.8c2.9,2.6,4.3,5.7,4.3,9.7
			c0,3.8-1,6.8-3.1,9.2c-1.8,2.1-4.6,3.6-8.2,4.6l-0.3,0.7l9.6,21.2c0.1,0.2,0.3,0.3,0.5,0.3h6.7v5h-11l-11.8-26.1
			c-0.1-0.2-0.3-0.3-0.5-0.3h-9.7c-0.3,0-0.5,0.2-0.5,0.5v26H308.2z M314.5,57.3c-0.3,0-0.5,0.2-0.5,0.5v17c0,0.3,0.2,0.5,0.5,0.5
			h10.3c3.7,0,6.6-0.8,8.6-2.4c1.9-1.5,2.9-3.8,2.9-6.8c0-2.7-0.9-4.9-2.8-6.4c-1.7-1.6-4.2-2.5-7.4-2.5H314.5z"/>
		<linearGradient id="SVGID_10_" gradientUnits="userSpaceOnUse" x1="374.3885" y1="38.8399" x2="376.7929" y2="107.693">
			<stop  offset="0" style="stop-color:#F1F2F2"/>
			<stop  offset="0.1266" style="stop-color:#D4D6D7"/>
			<stop  offset="0.2904" style="stop-color:#B3B5B8"/>
			<stop  offset="0.3758" style="stop-color:#A7A9AC"/>
			<stop  offset="0.4229" style="stop-color:#818386"/>
			<stop  offset="0.4693" style="stop-color:#616264"/>
			<stop  offset="0.5056" style="stop-color:#4A4A4C"/>
			<stop  offset="0.5273" style="stop-color:#414042"/>
			<stop  offset="0.5316" style="stop-color:#565759"/>
			<stop  offset="0.5396" style="stop-color:#747578"/>
			<stop  offset="0.5486" style="stop-color:#8C8E90"/>
			<stop  offset="0.5585" style="stop-color:#A0A3A5"/>
			<stop  offset="0.5697" style="stop-color:#B2B4B7"/>
			<stop  offset="0.5828" style="stop-color:#C0C2C4"/>
			<stop  offset="0.599" style="stop-color:#CACCCD"/>
			<stop  offset="0.6218" style="stop-color:#D0D1D3"/>
			<stop  offset="0.6848" style="stop-color:#D1D3D4"/>
			<stop  offset="0.7393" style="stop-color:#C4C6C8"/>
			<stop  offset="0.8453" style="stop-color:#A2A4A7"/>
			<stop  offset="0.9914" style="stop-color:#707274"/>
			<stop  offset="1" style="stop-color:#6D6E71"/>
		</linearGradient>
		<path class="st9" d="M385.8,106.7v-5h5.6c0.2,0,0.3-0.1,0.4-0.2c0.1-0.1,0.1-0.3,0.1-0.5L386.9,87c-0.1-0.2-0.3-0.3-0.5-0.3h-19.6
			c-0.2,0-0.4,0.1-0.5,0.3l-5.2,15.3l0,4.4h-12.5v-5h6.6c0.2,0,0.4-0.1,0.5-0.3l15.6-45l1.3-4h16.3v5h-5.6c-0.2,0-0.3,0.1-0.4,0.2
			c-0.1,0.1-0.1,0.3-0.1,0.5l15.2,43.4c0.1,0.2,0.3,0.3,0.5,0.3h6.4v5H385.8z M376.7,58c-0.2,0-0.4,0.1-0.5,0.3L368.4,81
			c-0.1,0.2,0,0.3,0.1,0.5c0.1,0.1,0.2,0.2,0.4,0.2h15.5c0.2,0,0.3-0.1,0.4-0.2c0.1-0.1,0.1-0.3,0.1-0.5l-7.7-22.6
			C377.1,58.2,376.9,58,376.7,58L376.7,58z"/>
	</g>
	<g>
		<linearGradient id="SVGID_11_" gradientUnits="userSpaceOnUse" x1="213.0275" y1="46.0139" x2="214.3041" y2="109.6362">
			<stop  offset="0" style="stop-color:#FFFFFF"/>
			<stop  offset="1" style="stop-color:#D1D3D4"/>
		</linearGradient>
		<path class="st10" d="M196,105.8v-2.2h5.2c1.1,0,1.9-0.9,1.9-1.9V58.4c0-1.1-0.9-1.9-1.9-1.9H196v-2.1h10.3l-0.1,47.4
			c0,1.1,0.9,1.9,1.9,1.9h19.3c1.1,0,1.9-0.9,1.9-1.9V90.1h2.9v15.8H196z"/>
		<linearGradient id="SVGID_12_" gradientUnits="userSpaceOnUse" x1="245.8885" y1="45.3463" x2="247.1651" y2="108.9683">
			<stop  offset="0" style="stop-color:#FFFFFF"/>
			<stop  offset="1" style="stop-color:#D1D3D4"/>
		</linearGradient>
		<path class="st11" d="M238.9,105.8v-2.2h4.7c1.1,0,1.9-0.9,1.9-1.9V54.3h3v47.4c0,1.1,0.9,1.9,1.9,1.9h4.8v2.2H238.9z M245.5,49
			v-3.6h3V49H245.5z"/>
		<linearGradient id="SVGID_13_" gradientUnits="userSpaceOnUse" x1="277.5341" y1="44.7125" x2="278.8107" y2="108.3345">
			<stop  offset="0" style="stop-color:#FFFFFF"/>
			<stop  offset="1" style="stop-color:#D1D3D4"/>
		</linearGradient>
		<path class="st12" d="M265.8,58.4c0-1.1-0.9-1.9-1.9-1.9h-4.9v-2.1h20.3c4.8,0,8.6,1.1,11.3,3.4c2.6,2.2,3.9,5.3,3.9,9.5
			c0,2.8-0.7,5-2,6.8c-0.8,1.1-1.8,2-3,2.7c-0.6,0.4-0.9,1.1-0.9,1.8c0.1,0.7,0.5,1.3,1.2,1.6c2,0.8,3.6,2,4.7,3.5
			c1.8,2.2,2.7,4.7,2.7,7.8c0,4.7-1.5,8.2-4.6,10.7c-3.2,2.5-7.6,3.7-13.2,3.7l-13.5,0.1V58.4z M270.8,80c-1.1,0-1.9,0.9-1.9,1.9
			v19.9c0,1.1,0.9,1.9,1.9,1.9h8.2c4.7,0,8.5-1,11.1-3c2.7-2.2,4.1-5.2,4.1-8.9c0-4-1.4-6.9-4.1-8.9c-1.3-0.9-2.8-1.6-4.7-2.1
			c-1.8-0.5-3.9-0.7-6.3-0.7H270.8z M270.8,56.5c-1.1,0-1.9,0.9-1.9,1.9v17.5c0,1.1,0.9,1.9,1.9,1.9h7.6c3.9,0,7-1,9.5-2.9
			c2.4-1.9,3.7-4.6,3.7-7.9c0-3.2-1.1-5.8-3.4-7.8c-2.4-1.9-5.4-2.8-9-2.8H270.8z"/>
		<linearGradient id="SVGID_14_" gradientUnits="userSpaceOnUse" x1="323.4275" y1="43.7915" x2="324.7041" y2="107.4139">
			<stop  offset="0" style="stop-color:#FFFFFF"/>
			<stop  offset="1" style="stop-color:#D1D3D4"/>
		</linearGradient>
		<path class="st13" d="M309.8,105.9V58.4c0-1.1-0.9-1.9-1.9-1.9h-5.9v-2.1h25.3c4.1,0,7.3,1.1,9.9,3.4c2.6,2.3,3.8,5.1,3.8,8.6
			c0,3.4-0.9,6.1-2.7,8.3c-1.6,1.9-4.1,3.3-7.4,4.1c-0.5,0.1-1,0.5-1.2,1c-0.2,0.5-0.2,1.1,0,1.6l9.6,21.2c0.3,0.7,1,1.1,1.8,1.1
			h5.3v2.2h-8.7l-11.4-25.3c-0.3-0.7-1-1.1-1.8-1.1h-9.7c-1.1,0-1.9,0.9-1.9,1.9v24.6H309.8z M314.8,56.5c-1.1,0-1.9,0.9-1.9,1.9v17
			c0,1.1,0.9,1.9,1.9,1.9h10.3c4.1,0,7.3-0.9,9.5-2.7c2.3-1.8,3.5-4.4,3.5-7.9c0-3.2-1.1-5.7-3.3-7.5c-1.9-1.8-4.8-2.8-8.3-2.8
			H314.8z"/>
		<linearGradient id="SVGID_15_" gradientUnits="userSpaceOnUse" x1="375.6538" y1="42.7441" x2="376.9304" y2="106.3664">
			<stop  offset="0" style="stop-color:#FFFFFF"/>
			<stop  offset="1" style="stop-color:#D1D3D4"/>
		</linearGradient>
		<path class="st14" d="M387.4,105.8v-2.2h4.2c0.6,0,1.2-0.3,1.6-0.8c0.4-0.5,0.5-1.2,0.2-1.7L388.5,87c-0.3-0.8-1-1.3-1.8-1.3H367
			c-0.8,0-1.6,0.5-1.8,1.3l-5.2,15.3c-0.1,0.2-0.1,0.4-0.1,0.6v2.8h-9.7v-2.2h5.2c0.8,0,1.5-0.5,1.8-1.3l15.6-45l1-3.1h13.8v2.1
			h-4.2c-0.6,0-1.2,0.3-1.6,0.8c-0.4,0.5-0.5,1.2-0.2,1.8l15.2,43.4c0.3,0.8,1,1.3,1.8,1.3h5v2.2H387.4z M376.9,57.2
			c-0.8,0-1.6,0.5-1.8,1.3L367.3,81c-0.2,0.6-0.1,1.2,0.3,1.7c0.4,0.5,0.9,0.8,1.6,0.8h15.5c0.6,0,1.2-0.3,1.6-0.8
			c0.4-0.5,0.5-1.2,0.3-1.7l-7.7-22.6C378.5,57.7,377.8,57.2,376.9,57.2L376.9,57.2z"/>
	</g>
	<g>
		<linearGradient id="SVGID_16_" gradientUnits="userSpaceOnUse" x1="214.6654" y1="46.2171" x2="214.6654" y2="105.842">
			<stop  offset="0" style="stop-color:#FFFFFF"/>
			<stop  offset="0.4" style="stop-color:#F1F2F2"/>
			<stop  offset="0.4334" style="stop-color:#414042"/>
			<stop  offset="0.5082" style="stop-color:#606164"/>
			<stop  offset="0.5996" style="stop-color:#7C7E81"/>
			<stop  offset="0.6739" style="stop-color:#8D8F92"/>
			<stop  offset="0.7212" style="stop-color:#939598"/>
			<stop  offset="0.7259" style="stop-color:#97999C"/>
			<stop  offset="0.7588" style="stop-color:#B0B2B4"/>
			<stop  offset="0.7908" style="stop-color:#C2C4C6"/>
			<stop  offset="0.8212" style="stop-color:#CDCFD1"/>
			<stop  offset="0.8485" style="stop-color:#D1D3D4"/>
			<stop  offset="0.8897" style="stop-color:#DEDFE0"/>
			<stop  offset="0.953" style="stop-color:#ECEDED"/>
			<stop  offset="1" style="stop-color:#F1F2F2"/>
		</linearGradient>
		<path class="st15" d="M197,105.8v-1.2h4.8c1.3,0,2.4-1.1,2.4-2.4V58.8c0-1.3-1.1-2.4-2.4-2.4H197v-1.2h9.3l-0.1,47
			c0,1.3,1.1,2.4,2.4,2.4H228c1.3,0,2.4-1.1,2.4-2.4V90.9h1.9v14.8H197z"/>
		<linearGradient id="SVGID_17_" gradientUnits="userSpaceOnUse" x1="247.6764" y1="46.217" x2="247.6764" y2="105.8418">
			<stop  offset="0" style="stop-color:#FFFFFF"/>
			<stop  offset="0.4" style="stop-color:#F1F2F2"/>
			<stop  offset="0.4334" style="stop-color:#414042"/>
			<stop  offset="0.5082" style="stop-color:#606164"/>
			<stop  offset="0.5996" style="stop-color:#7C7E81"/>
			<stop  offset="0.6739" style="stop-color:#8D8F92"/>
			<stop  offset="0.7212" style="stop-color:#939598"/>
			<stop  offset="0.7259" style="stop-color:#97999C"/>
			<stop  offset="0.7588" style="stop-color:#B0B2B4"/>
			<stop  offset="0.7908" style="stop-color:#C2C4C6"/>
			<stop  offset="0.8212" style="stop-color:#CDCFD1"/>
			<stop  offset="0.8485" style="stop-color:#D1D3D4"/>
			<stop  offset="0.8897" style="stop-color:#DEDFE0"/>
			<stop  offset="0.953" style="stop-color:#ECEDED"/>
			<stop  offset="1" style="stop-color:#F1F2F2"/>
		</linearGradient>
		<path class="st16" d="M240,105.8v-1.2h4.2c1.3,0,2.4-1.1,2.4-2.4v-47h2.1v47c0,1.3,1.1,2.4,2.4,2.4h4.3v1.2H240z M246.5,48.9v-2.7
			h2.1v2.7H246.5z"/>
		<linearGradient id="SVGID_18_" gradientUnits="userSpaceOnUse" x1="278.7141" y1="46.217" x2="278.7141" y2="105.8422">
			<stop  offset="0" style="stop-color:#FFFFFF"/>
			<stop  offset="0.4" style="stop-color:#F1F2F2"/>
			<stop  offset="0.4334" style="stop-color:#414042"/>
			<stop  offset="0.5082" style="stop-color:#606164"/>
			<stop  offset="0.5996" style="stop-color:#7C7E81"/>
			<stop  offset="0.6739" style="stop-color:#8D8F92"/>
			<stop  offset="0.7212" style="stop-color:#939598"/>
			<stop  offset="0.7259" style="stop-color:#97999C"/>
			<stop  offset="0.7588" style="stop-color:#B0B2B4"/>
			<stop  offset="0.7908" style="stop-color:#C2C4C6"/>
			<stop  offset="0.8212" style="stop-color:#CDCFD1"/>
			<stop  offset="0.8485" style="stop-color:#D1D3D4"/>
			<stop  offset="0.8897" style="stop-color:#DEDFE0"/>
			<stop  offset="0.953" style="stop-color:#ECEDED"/>
			<stop  offset="1" style="stop-color:#F1F2F2"/>
		</linearGradient>
		<path class="st17" d="M266.9,58.8c0-1.3-1.1-2.4-2.4-2.4h-4.4v-1.2h19.8c4.7,0,8.4,1.1,11,3.3c2.5,2.1,3.7,5.1,3.7,9.2
			c0,2.7-0.6,4.8-1.9,6.5c-0.8,1-1.7,1.9-2.9,2.6c-0.8,0.5-1.2,1.3-1.1,2.2c0.1,0.9,0.6,1.7,1.4,2c1.9,0.8,3.4,1.9,4.5,3.3
			c1.8,2.1,2.6,4.5,2.6,7.6c0,4.6-1.5,8-4.5,10.4c-3.1,2.4-7.4,3.6-12.9,3.6l-13,0.1V58.8z M271.4,79.9c-1.3,0-2.4,1.1-2.4,2.4v19.9
			c0,1.3,1.1,2.4,2.4,2.4h8.2c4.8,0,8.7-1.1,11.4-3.1c2.9-2.2,4.3-5.4,4.3-9.3c0-4.1-1.4-7.2-4.3-9.3c-1.3-0.9-2.9-1.7-4.8-2.2
			c-1.8-0.5-4-0.7-6.5-0.7H271.4z M271.4,56.4c-1.3,0-2.4,1.1-2.4,2.4v17.5c0,1.3,1.1,2.4,2.4,2.4h7.6c4,0,7.2-1,9.7-3
			c2.6-2,3.9-4.8,3.9-8.3c0-3.4-1.2-6.1-3.6-8.1c-2.5-1.9-5.6-2.9-9.3-2.9H271.4z"/>
		<linearGradient id="SVGID_19_" gradientUnits="userSpaceOnUse" x1="324.7513" y1="46.217" x2="324.7513" y2="105.8422">
			<stop  offset="0" style="stop-color:#FFFFFF"/>
			<stop  offset="0.4" style="stop-color:#F1F2F2"/>
			<stop  offset="0.4334" style="stop-color:#414042"/>
			<stop  offset="0.5082" style="stop-color:#606164"/>
			<stop  offset="0.5996" style="stop-color:#7C7E81"/>
			<stop  offset="0.6739" style="stop-color:#8D8F92"/>
			<stop  offset="0.7212" style="stop-color:#939598"/>
			<stop  offset="0.7259" style="stop-color:#97999C"/>
			<stop  offset="0.7588" style="stop-color:#B0B2B4"/>
			<stop  offset="0.7908" style="stop-color:#C2C4C6"/>
			<stop  offset="0.8212" style="stop-color:#CDCFD1"/>
			<stop  offset="0.8485" style="stop-color:#D1D3D4"/>
			<stop  offset="0.8897" style="stop-color:#DEDFE0"/>
			<stop  offset="0.953" style="stop-color:#ECEDED"/>
			<stop  offset="1" style="stop-color:#F1F2F2"/>
		</linearGradient>
		<path class="st18" d="M310.9,105.8V58.8c0-1.3-1.1-2.4-2.4-2.4h-5.4v-1.2H328c4,0,7.1,1.1,9.5,3.3c2.4,2.2,3.6,4.9,3.6,8.3
			c0,3.3-0.9,5.9-2.6,8c-1.6,1.8-4,3.1-7.2,4c-0.7,0.2-1.2,0.7-1.5,1.3c-0.3,0.6-0.3,1.4,0,2l9.6,21.2c0.4,0.9,1.2,1.4,2.2,1.4h4.9
			v1.2h-7.9l-11.3-25c-0.4-0.9-1.2-1.4-2.2-1.4h-9.7c-1.3,0-2.4,1.1-2.4,2.4v24.1H310.9z M315.4,56.4c-1.3,0-2.4,1.1-2.4,2.4v17
			c0,1.3,1.1,2.4,2.4,2.4h10.3c4.2,0,7.5-0.9,9.8-2.8c2.4-1.9,3.6-4.7,3.6-8.3c0-3.3-1.2-6-3.4-7.8c-2-1.9-4.9-2.9-8.6-2.9H315.4z"
			/>
		<linearGradient id="SVGID_20_" gradientUnits="userSpaceOnUse" x1="377.4937" y1="46.2171" x2="377.4937" y2="105.842">
			<stop  offset="0" style="stop-color:#FFFFFF"/>
			<stop  offset="0.4" style="stop-color:#F1F2F2"/>
			<stop  offset="0.4334" style="stop-color:#414042"/>
			<stop  offset="0.5082" style="stop-color:#606164"/>
			<stop  offset="0.5996" style="stop-color:#7C7E81"/>
			<stop  offset="0.6739" style="stop-color:#8D8F92"/>
			<stop  offset="0.7212" style="stop-color:#939598"/>
			<stop  offset="0.7259" style="stop-color:#97999C"/>
			<stop  offset="0.7588" style="stop-color:#B0B2B4"/>
			<stop  offset="0.7908" style="stop-color:#C2C4C6"/>
			<stop  offset="0.8212" style="stop-color:#CDCFD1"/>
			<stop  offset="0.8485" style="stop-color:#D1D3D4"/>
			<stop  offset="0.8897" style="stop-color:#DEDFE0"/>
			<stop  offset="0.953" style="stop-color:#ECEDED"/>
			<stop  offset="1" style="stop-color:#F1F2F2"/>
		</linearGradient>
		<path class="st19" d="M388.5,105.8v-1.2h3.7c0.8,0,1.5-0.4,1.9-1c0.4-0.6,0.6-1.4,0.3-2.2l-4.9-14.1c-0.3-1-1.2-1.6-2.3-1.6h-19.6
			c-1,0-1.9,0.7-2.3,1.6l-5.2,15.3c-0.1,0.3-0.1,0.5-0.1,0.8v2.4h-8.8v-1.2h4.7c1,0,1.9-0.6,2.3-1.6l15.6-45l0.9-2.8h13v1.2H384
			c-0.8,0-1.5,0.4-1.9,1c-0.5,0.6-0.6,1.4-0.3,2.2l15.2,43.4c0.3,1,1.2,1.6,2.3,1.6h4.5v1.2H388.5z M377.5,57.1
			c-1,0-1.9,0.6-2.3,1.6l-7.8,22.6c-0.3,0.7-0.1,1.5,0.3,2.2c0.4,0.6,1.2,1,1.9,1h15.5c0.8,0,1.5-0.4,1.9-1c0.4-0.6,0.6-1.4,0.3-2.2
			l-7.7-22.6C379.5,57.7,378.6,57.1,377.5,57.1L377.5,57.1z"/>
	</g>
</g>
</svg>
