<?xml version="1.0" encoding="utf-8"?>
<!-- Generator: Adobe Illustrator 21.1.0, SVG Export Plug-In . SVG Version: 6.00 Build 0)  -->
<svg version="1.1" id="Layer_9" xmlns="http://www.w3.org/2000/svg" xmlns:xlink="http://www.w3.org/1999/xlink" x="0px" y="0px"
	 viewBox="0 0 601 153.1" style="enable-background:new 0 0 601 153.1;" xml:space="preserve">
<style type="text/css">
	.st0{fill:url(#SVGID_1_);}
	.st1{fill:url(#SVGID_2_);}
	.st2{fill:url(#SVGID_3_);}
	.st3{fill:url(#SVGID_4_);}
	.st4{fill:url(#SVGID_5_);}
	.st5{fill:url(#SVGID_6_);}
	.st6{fill:url(#SVGID_7_);}
	.st7{fill:url(#SVGID_8_);}
	.st8{fill:url(#SVGID_9_);}
	.st9{fill:url(#SVGID_10_);}
	.st10{fill:url(#SVGID_11_);}
	.st11{fill:url(#SVGID_12_);}
</style>
<g>
	<g>
		<linearGradient id="SVGID_1_" gradientUnits="userSpaceOnUse" x1="247.3219" y1="53.8863" x2="249.3341" y2="111.5084">
			<stop  offset="0" style="stop-color:#414042"/>
			<stop  offset="8.924593e-02" style="stop-color:#434344"/>
			<stop  offset="0.1376" style="stop-color:#4B4B4D"/>
			<stop  offset="0.1761" style="stop-color:#57575A"/>
			<stop  offset="0.2094" style="stop-color:#67686B"/>
			<stop  offset="0.2394" style="stop-color:#7A7C7F"/>
			<stop  offset="0.267" style="stop-color:#919396"/>
			<stop  offset="0.2923" style="stop-color:#ADAFB2"/>
			<stop  offset="0.303" style="stop-color:#BCBEC0"/>
			<stop  offset="0.3959" style="stop-color:#818385"/>
			<stop  offset="0.4723" style="stop-color:#555557"/>
			<stop  offset="0.5091" style="stop-color:#414042"/>
			<stop  offset="0.5311" style="stop-color:#67696B"/>
			<stop  offset="0.5626" style="stop-color:#929497"/>
			<stop  offset="0.5919" style="stop-color:#B5B7BA"/>
			<stop  offset="0.6178" style="stop-color:#D0D2D3"/>
			<stop  offset="0.6395" style="stop-color:#E0E1E3"/>
			<stop  offset="0.6544" style="stop-color:#E6E7E8"/>
			<stop  offset="0.6615" style="stop-color:#D1D2D4"/>
			<stop  offset="0.6767" style="stop-color:#9B9DA0"/>
			<stop  offset="0.6987" style="stop-color:#474749"/>
			<stop  offset="0.7052" style="stop-color:#000000"/>
			<stop  offset="0.8126" style="stop-color:#080808"/>
			<stop  offset="0.8581" style="stop-color:#202020"/>
			<stop  offset="0.8918" style="stop-color:#3B3A3C"/>
			<stop  offset="0.9198" style="stop-color:#4E4E50"/>
			<stop  offset="0.9442" style="stop-color:#626365"/>
			<stop  offset="0.9661" style="stop-color:#787A7C"/>
			<stop  offset="0.9857" style="stop-color:#909295"/>
			<stop  offset="1" style="stop-color:#A7A9AC"/>
		</linearGradient>
		<polygon class="st0" points="228.3,108.9 228.3,101.8 235.5,101.8 235.5,59.4 228.3,59.4 228.3,52.3 243.5,52.3 243.5,58.8 
			243.4,59.1 243.4,101.8 261.7,101.8 261.7,88.2 269.4,88.2 269.4,108.9 		"/>
		<linearGradient id="SVGID_2_" gradientUnits="userSpaceOnUse" x1="289.9387" y1="52.399" x2="291.9509" y2="110.021">
			<stop  offset="0" style="stop-color:#414042"/>
			<stop  offset="8.924593e-02" style="stop-color:#434344"/>
			<stop  offset="0.1376" style="stop-color:#4B4B4D"/>
			<stop  offset="0.1761" style="stop-color:#57575A"/>
			<stop  offset="0.2094" style="stop-color:#67686B"/>
			<stop  offset="0.2394" style="stop-color:#7A7C7F"/>
			<stop  offset="0.267" style="stop-color:#919396"/>
			<stop  offset="0.2923" style="stop-color:#ADAFB2"/>
			<stop  offset="0.303" style="stop-color:#BCBEC0"/>
			<stop  offset="0.3959" style="stop-color:#818385"/>
			<stop  offset="0.4723" style="stop-color:#555557"/>
			<stop  offset="0.5091" style="stop-color:#414042"/>
			<stop  offset="0.5311" style="stop-color:#67696B"/>
			<stop  offset="0.5626" style="stop-color:#929497"/>
			<stop  offset="0.5919" style="stop-color:#B5B7BA"/>
			<stop  offset="0.6178" style="stop-color:#D0D2D3"/>
			<stop  offset="0.6395" style="stop-color:#E0E1E3"/>
			<stop  offset="0.6544" style="stop-color:#E6E7E8"/>
			<stop  offset="0.6615" style="stop-color:#D1D2D4"/>
			<stop  offset="0.6767" style="stop-color:#9B9DA0"/>
			<stop  offset="0.6987" style="stop-color:#474749"/>
			<stop  offset="0.7052" style="stop-color:#000000"/>
			<stop  offset="0.8126" style="stop-color:#080808"/>
			<stop  offset="0.8581" style="stop-color:#202020"/>
			<stop  offset="0.8918" style="stop-color:#3B3A3C"/>
			<stop  offset="0.9198" style="stop-color:#4E4E50"/>
			<stop  offset="0.9442" style="stop-color:#626365"/>
			<stop  offset="0.9661" style="stop-color:#787A7C"/>
			<stop  offset="0.9857" style="stop-color:#909295"/>
			<stop  offset="1" style="stop-color:#A7A9AC"/>
		</linearGradient>
		<polygon class="st1" points="273.9,108.9 273.9,59.4 267.1,59.4 267.1,52.3 313,52.3 313,68.8 305.9,68.8 305.9,59.4 281.8,59.4 
			281.8,76.4 303.8,76.4 303.8,83.5 281.8,83.5 281.8,101.8 313.1,101.8 313.1,108.9 		"/>
		<linearGradient id="SVGID_3_" gradientUnits="userSpaceOnUse" x1="343.2329" y1="50.5432" x2="345.2451" y2="108.1654">
			<stop  offset="0" style="stop-color:#414042"/>
			<stop  offset="8.924593e-02" style="stop-color:#434344"/>
			<stop  offset="0.1376" style="stop-color:#4B4B4D"/>
			<stop  offset="0.1761" style="stop-color:#57575A"/>
			<stop  offset="0.2094" style="stop-color:#67686B"/>
			<stop  offset="0.2394" style="stop-color:#7A7C7F"/>
			<stop  offset="0.267" style="stop-color:#919396"/>
			<stop  offset="0.2923" style="stop-color:#ADAFB2"/>
			<stop  offset="0.303" style="stop-color:#BCBEC0"/>
			<stop  offset="0.3959" style="stop-color:#818385"/>
			<stop  offset="0.4723" style="stop-color:#555557"/>
			<stop  offset="0.5091" style="stop-color:#414042"/>
			<stop  offset="0.5311" style="stop-color:#67696B"/>
			<stop  offset="0.5626" style="stop-color:#929497"/>
			<stop  offset="0.5919" style="stop-color:#B5B7BA"/>
			<stop  offset="0.6178" style="stop-color:#D0D2D3"/>
			<stop  offset="0.6395" style="stop-color:#E0E1E3"/>
			<stop  offset="0.6544" style="stop-color:#E6E7E8"/>
			<stop  offset="0.6615" style="stop-color:#D1D2D4"/>
			<stop  offset="0.6767" style="stop-color:#9B9DA0"/>
			<stop  offset="0.6987" style="stop-color:#474749"/>
			<stop  offset="0.7052" style="stop-color:#000000"/>
			<stop  offset="0.8126" style="stop-color:#080808"/>
			<stop  offset="0.8581" style="stop-color:#202020"/>
			<stop  offset="0.8918" style="stop-color:#3B3A3C"/>
			<stop  offset="0.9198" style="stop-color:#4E4E50"/>
			<stop  offset="0.9442" style="stop-color:#626365"/>
			<stop  offset="0.9661" style="stop-color:#787A7C"/>
			<stop  offset="0.9857" style="stop-color:#909295"/>
			<stop  offset="1" style="stop-color:#A7A9AC"/>
		</linearGradient>
		<path class="st2" d="M344.3,109.7c-8.2,0-15-2.8-20.3-8.3c-5.4-5.5-8.1-12.5-8.1-20.8c0-8.3,2.7-15.3,8.1-20.8
			c5.3-5.5,12.2-8.3,20.3-8.3c8.2,0,15,2.8,20.3,8.3c5.4,5.5,8.1,12.5,8.1,20.8c0,8.3-2.7,15.3-8.1,20.8
			C359.3,106.9,352.4,109.7,344.3,109.7L344.3,109.7z M344.3,58.8c-5.9,0-10.9,2.1-14.6,6.1c-3.9,4.1-5.9,9.3-5.9,15.6
			c0,6.3,2,11.5,5.9,15.6c3.8,4.1,8.7,6.2,14.7,6.2c5.9,0,10.8-2,14.7-6.1c3.8-4.1,5.8-9.4,5.8-15.6c0-6.2-1.9-11.5-5.8-15.6
			C355.1,60.9,350.2,58.8,344.3,58.8L344.3,58.8z"/>
	</g>
	<g>
		<linearGradient id="SVGID_4_" gradientUnits="userSpaceOnUse" x1="246.3299" y1="51.7268" x2="248.3943" y2="110.8417">
			<stop  offset="0" style="stop-color:#F1F2F2"/>
			<stop  offset="0.1266" style="stop-color:#D4D6D7"/>
			<stop  offset="0.2904" style="stop-color:#B3B5B8"/>
			<stop  offset="0.3758" style="stop-color:#A7A9AC"/>
			<stop  offset="0.4229" style="stop-color:#818386"/>
			<stop  offset="0.4693" style="stop-color:#616264"/>
			<stop  offset="0.5056" style="stop-color:#4A4A4C"/>
			<stop  offset="0.5273" style="stop-color:#414042"/>
			<stop  offset="0.5316" style="stop-color:#565759"/>
			<stop  offset="0.5396" style="stop-color:#747578"/>
			<stop  offset="0.5486" style="stop-color:#8C8E90"/>
			<stop  offset="0.5585" style="stop-color:#A0A3A5"/>
			<stop  offset="0.5697" style="stop-color:#B2B4B7"/>
			<stop  offset="0.5828" style="stop-color:#C0C2C4"/>
			<stop  offset="0.599" style="stop-color:#CACCCD"/>
			<stop  offset="0.6218" style="stop-color:#D0D1D3"/>
			<stop  offset="0.6848" style="stop-color:#D1D3D4"/>
			<stop  offset="0.7393" style="stop-color:#C4C6C8"/>
			<stop  offset="0.8453" style="stop-color:#A2A4A7"/>
			<stop  offset="0.9914" style="stop-color:#707274"/>
			<stop  offset="1" style="stop-color:#6D6E71"/>
		</linearGradient>
		<path class="st3" d="M228.4,106.7v-5h6.7c0.3,0,0.5-0.2,0.5-0.5V57.8c0-0.3-0.2-0.5-0.5-0.5h-6.7v-5h13.1l-0.1,48.9
			c0,0.3,0.2,0.5,0.5,0.5h19.3c0.3,0,0.5-0.2,0.5-0.5V88.1h5.7v18.6H228.4z"/>
		<linearGradient id="SVGID_5_" gradientUnits="userSpaceOnUse" x1="288.9435" y1="50.2437" x2="291.0079" y2="109.3588">
			<stop  offset="0" style="stop-color:#F1F2F2"/>
			<stop  offset="0.1266" style="stop-color:#D4D6D7"/>
			<stop  offset="0.2904" style="stop-color:#B3B5B8"/>
			<stop  offset="0.3758" style="stop-color:#A7A9AC"/>
			<stop  offset="0.4229" style="stop-color:#818386"/>
			<stop  offset="0.4693" style="stop-color:#616264"/>
			<stop  offset="0.5056" style="stop-color:#4A4A4C"/>
			<stop  offset="0.5273" style="stop-color:#414042"/>
			<stop  offset="0.5316" style="stop-color:#565759"/>
			<stop  offset="0.5396" style="stop-color:#747578"/>
			<stop  offset="0.5486" style="stop-color:#8C8E90"/>
			<stop  offset="0.5585" style="stop-color:#A0A3A5"/>
			<stop  offset="0.5697" style="stop-color:#B2B4B7"/>
			<stop  offset="0.5828" style="stop-color:#C0C2C4"/>
			<stop  offset="0.599" style="stop-color:#CACCCD"/>
			<stop  offset="0.6218" style="stop-color:#D0D1D3"/>
			<stop  offset="0.6848" style="stop-color:#D1D3D4"/>
			<stop  offset="0.7393" style="stop-color:#C4C6C8"/>
			<stop  offset="0.8453" style="stop-color:#A2A4A7"/>
			<stop  offset="0.9914" style="stop-color:#707274"/>
			<stop  offset="1" style="stop-color:#6D6E71"/>
		</linearGradient>
		<path class="st4" d="M274,106.7V57.8c0-0.3-0.2-0.5-0.5-0.5h-6.3v-5H311v14.3h-5v-8.8c0-0.3-0.2-0.5-0.5-0.5h-25.2
			c-0.3,0-0.5,0.2-0.5,0.5v18.1c0,0.3,0.2,0.5,0.5,0.5h21.5v5h-21.5c-0.3,0-0.5,0.2-0.5,0.5v19.3c0,0.3,0.2,0.5,0.5,0.5h30.7v5H274z
			"/>
		<linearGradient id="SVGID_6_" gradientUnits="userSpaceOnUse" x1="342.239" y1="48.3793" x2="344.3034" y2="107.4953">
			<stop  offset="0" style="stop-color:#F1F2F2"/>
			<stop  offset="0.1266" style="stop-color:#D4D6D7"/>
			<stop  offset="0.2904" style="stop-color:#B3B5B8"/>
			<stop  offset="0.3758" style="stop-color:#A7A9AC"/>
			<stop  offset="0.4229" style="stop-color:#818386"/>
			<stop  offset="0.4693" style="stop-color:#616264"/>
			<stop  offset="0.5056" style="stop-color:#4A4A4C"/>
			<stop  offset="0.5273" style="stop-color:#414042"/>
			<stop  offset="0.5316" style="stop-color:#565759"/>
			<stop  offset="0.5396" style="stop-color:#747578"/>
			<stop  offset="0.5486" style="stop-color:#8C8E90"/>
			<stop  offset="0.5585" style="stop-color:#A0A3A5"/>
			<stop  offset="0.5697" style="stop-color:#B2B4B7"/>
			<stop  offset="0.5828" style="stop-color:#C0C2C4"/>
			<stop  offset="0.599" style="stop-color:#CACCCD"/>
			<stop  offset="0.6218" style="stop-color:#D0D1D3"/>
			<stop  offset="0.6848" style="stop-color:#D1D3D4"/>
			<stop  offset="0.7393" style="stop-color:#C4C6C8"/>
			<stop  offset="0.8453" style="stop-color:#A2A4A7"/>
			<stop  offset="0.9914" style="stop-color:#707274"/>
			<stop  offset="1" style="stop-color:#6D6E71"/>
		</linearGradient>
		<path class="st5" d="M343.3,107.5c-7.9,0-14.5-2.7-19.6-8c-5.2-5.3-7.8-12.1-7.8-20.1c0-8,2.6-14.7,7.8-20.1
			c5.1-5.3,11.7-8,19.6-8c7.9,0,14.5,2.7,19.6,8c5.2,5.3,7.8,12.1,7.8,20.1c0,8-2.6,14.7-7.8,20.1
			C357.8,104.8,351.2,107.5,343.3,107.5L343.3,107.5z M343.3,56.8c-6.2,0-11.4,2.2-15.4,6.5c-4.1,4.2-6.1,9.7-6.1,16.2
			c0,6.5,2.1,12,6.1,16.2c4,4.3,9.2,6.5,15.4,6.5c6.2,0,11.4-2.1,15.5-6.4c4-4.3,6.1-9.8,6.1-16.3c0-6.5-2-12-6.1-16.3
			C354.7,58.9,349.5,56.8,343.3,56.8L343.3,56.8z"/>
	</g>
	<g>
		<linearGradient id="SVGID_7_" gradientUnits="userSpaceOnUse" x1="247.2683" y1="53.9597" x2="248.3634" y2="108.5354">
			<stop  offset="0" style="stop-color:#FFFFFF"/>
			<stop  offset="1" style="stop-color:#D1D3D4"/>
		</linearGradient>
		<path class="st6" d="M230.1,105.8v-2.2h5.2c1.1,0,1.9-0.9,1.9-1.9V58.4c0-1.1-0.9-1.9-1.9-1.9h-5.2v-2.1h10.3l-0.1,47.5
			c0,1.1,0.9,1.9,1.9,1.9h19.3c1.1,0,1.9-0.9,1.9-1.9V90.1h2.9v15.8H230.1z"/>
		<linearGradient id="SVGID_8_" gradientUnits="userSpaceOnUse" x1="289.2852" y1="53.1177" x2="290.3803" y2="107.6935">
			<stop  offset="0" style="stop-color:#FFFFFF"/>
			<stop  offset="1" style="stop-color:#D1D3D4"/>
		</linearGradient>
		<path class="st7" d="M275.6,105.8V58.4c0-1.1-0.9-1.9-1.9-1.9h-4.9v-2.1h40.9v11.5h-2.2v-7.4c0-1.1-0.9-1.9-1.9-1.9h-25.2
			c-1.1,0-1.9,0.9-1.9,1.9v18.1c0,1.1,0.9,1.9,1.9,1.9h20v2.2h-20c-1.1,0-1.9,0.9-1.9,1.9v19.3c0,1.1,0.9,1.9,1.9,1.9h29.3v2.2
			H275.6z"/>
		<linearGradient id="SVGID_9_" gradientUnits="userSpaceOnUse" x1="342.9901" y1="52.0397" x2="344.0852" y2="106.6154">
			<stop  offset="0" style="stop-color:#FFFFFF"/>
			<stop  offset="1" style="stop-color:#D1D3D4"/>
		</linearGradient>
		<path class="st8" d="M343.6,106.6c-7.5,0-13.7-2.5-18.6-7.5c-4.9-5.1-7.4-11.5-7.4-19.1c0-7.6,2.5-14,7.4-19.1
			c4.8-5,11.1-7.5,18.6-7.5c7.5,0,13.7,2.5,18.6,7.5c4.9,5.1,7.4,11.5,7.4,19.1c0,7.6-2.5,14-7.4,19.1
			C357.3,104.1,351,106.6,343.6,106.6L343.6,106.6z M343.6,55.9c-6.7,0-12.2,2.3-16.4,6.9c-4.3,4.5-6.5,10.3-6.5,17.2
			c0,6.9,2.2,12.7,6.5,17.2c4.2,4.6,9.8,6.9,16.4,6.9c6.6,0,12.1-2.3,16.5-6.8c4.3-4.6,6.5-10.4,6.5-17.3c0-6.9-2.2-12.7-6.4-17.3
			C355.7,58.2,350.1,55.9,343.6,55.9L343.6,55.9z"/>
	</g>
	<g>
		<linearGradient id="SVGID_10_" gradientUnits="userSpaceOnUse" x1="248.7475" y1="54.3051" x2="248.7475" y2="106.5504">
			<stop  offset="0" style="stop-color:#FFFFFF"/>
			<stop  offset="0.4" style="stop-color:#F1F2F2"/>
			<stop  offset="0.4334" style="stop-color:#414042"/>
			<stop  offset="0.5082" style="stop-color:#606164"/>
			<stop  offset="0.5996" style="stop-color:#7C7E81"/>
			<stop  offset="0.6739" style="stop-color:#8D8F92"/>
			<stop  offset="0.7212" style="stop-color:#939598"/>
			<stop  offset="0.7259" style="stop-color:#97999C"/>
			<stop  offset="0.7588" style="stop-color:#B0B2B4"/>
			<stop  offset="0.7908" style="stop-color:#C2C4C6"/>
			<stop  offset="0.8212" style="stop-color:#CDCFD1"/>
			<stop  offset="0.8485" style="stop-color:#D1D3D4"/>
			<stop  offset="0.8897" style="stop-color:#DEDFE0"/>
			<stop  offset="0.953" style="stop-color:#ECEDED"/>
			<stop  offset="1" style="stop-color:#F1F2F2"/>
		</linearGradient>
		<path class="st9" d="M231.1,105.8v-1.2h4.8c1.3,0,2.4-1.1,2.4-2.4V58.8c0-1.3-1.1-2.4-2.4-2.4h-4.8v-1.2h9.3l-0.1,47
			c0,1.3,1.1,2.4,2.4,2.4h19.3c1.3,0,2.4-1.1,2.4-2.4V90.9h1.9v14.9H231.1z"/>
		<linearGradient id="SVGID_11_" gradientUnits="userSpaceOnUse" x1="289.9644" y1="54.3051" x2="289.9644" y2="106.5504">
			<stop  offset="0" style="stop-color:#FFFFFF"/>
			<stop  offset="0.4" style="stop-color:#F1F2F2"/>
			<stop  offset="0.4334" style="stop-color:#414042"/>
			<stop  offset="0.5082" style="stop-color:#606164"/>
			<stop  offset="0.5996" style="stop-color:#7C7E81"/>
			<stop  offset="0.6739" style="stop-color:#8D8F92"/>
			<stop  offset="0.7212" style="stop-color:#939598"/>
			<stop  offset="0.7259" style="stop-color:#97999C"/>
			<stop  offset="0.7588" style="stop-color:#B0B2B4"/>
			<stop  offset="0.7908" style="stop-color:#C2C4C6"/>
			<stop  offset="0.8212" style="stop-color:#CDCFD1"/>
			<stop  offset="0.8485" style="stop-color:#D1D3D4"/>
			<stop  offset="0.8897" style="stop-color:#DEDFE0"/>
			<stop  offset="0.953" style="stop-color:#ECEDED"/>
			<stop  offset="1" style="stop-color:#F1F2F2"/>
		</linearGradient>
		<path class="st10" d="M276.7,105.8v-47c0-1.3-1.1-2.4-2.4-2.4h-4.4v-1.2h40v10.6h-1.2v-7c0-1.3-1.1-2.4-2.4-2.4h-25.2
			c-1.3,0-2.4,1.1-2.4,2.4v18.1c0,1.3,1.1,2.4,2.4,2.4h19.6v1.2h-19.6c-1.3,0-2.4,1.1-2.4,2.4v19.3c0,1.3,1.1,2.4,2.4,2.4H310v1.2
			H276.7z"/>
		<linearGradient id="SVGID_12_" gradientUnits="userSpaceOnUse" x1="344.1476" y1="54.3051" x2="344.1476" y2="106.551">
			<stop  offset="0" style="stop-color:#FFFFFF"/>
			<stop  offset="0.4" style="stop-color:#F1F2F2"/>
			<stop  offset="0.4334" style="stop-color:#414042"/>
			<stop  offset="0.5082" style="stop-color:#606164"/>
			<stop  offset="0.5996" style="stop-color:#7C7E81"/>
			<stop  offset="0.6739" style="stop-color:#8D8F92"/>
			<stop  offset="0.7212" style="stop-color:#939598"/>
			<stop  offset="0.7259" style="stop-color:#97999C"/>
			<stop  offset="0.7588" style="stop-color:#B0B2B4"/>
			<stop  offset="0.7908" style="stop-color:#C2C4C6"/>
			<stop  offset="0.8212" style="stop-color:#CDCFD1"/>
			<stop  offset="0.8485" style="stop-color:#D1D3D4"/>
			<stop  offset="0.8897" style="stop-color:#DEDFE0"/>
			<stop  offset="0.953" style="stop-color:#ECEDED"/>
			<stop  offset="1" style="stop-color:#F1F2F2"/>
		</linearGradient>
		<path class="st11" d="M344.1,106.6c-7.3,0-13.5-2.5-18.2-7.4c-4.8-5-7.3-11.3-7.3-18.7c0-7.5,2.4-13.8,7.3-18.7
			c4.8-4.9,10.9-7.4,18.2-7.4c7.3,0,13.5,2.5,18.2,7.4c4.8,5,7.3,11.3,7.3,18.7c0,7.5-2.4,13.8-7.3,18.7
			C357.6,104.1,351.5,106.6,344.1,106.6L344.1,106.6z M344.1,55.8c-6.8,0-12.4,2.4-16.8,7.1c-4.4,4.6-6.6,10.5-6.6,17.5
			c0,7,2.2,13,6.7,17.5c4.3,4.7,10,7,16.8,7c6.7,0,12.4-2.3,16.8-7c4.4-4.7,6.6-10.6,6.6-17.6c0-7-2.2-12.9-6.6-17.6
			C356.5,58.2,350.9,55.8,344.1,55.8L344.1,55.8z"/>
	</g>
</g>
</svg>
