<?xml version="1.0" encoding="utf-8"?>
<!-- Generator: Adobe Illustrator 21.1.0, SVG Export Plug-In . SVG Version: 6.00 Build 0)  -->
<svg version="1.1" id="Layer_5" xmlns="http://www.w3.org/2000/svg" xmlns:xlink="http://www.w3.org/1999/xlink" x="0px" y="0px"
	 viewBox="0 0 255.1 255.1" style="enable-background:new 0 0 255.1 255.1;" xml:space="preserve">
<style type="text/css">
	.st0{fill:url(#SVGID_1_);}
	.st1{fill:url(#SVGID_2_);}
	.st2{fill:url(#SVGID_3_);}
	.st3{fill:url(#SVGID_4_);}
	.st4{fill:url(#SVGID_5_);}
	.st5{fill:url(#SVGID_6_);}
	.st6{fill:url(#SVGID_7_);}
	.st7{fill:url(#SVGID_8_);}
	.st8{fill:url(#SVGID_9_);}
	.st9{fill:url(#SVGID_10_);}
	.st10{fill:url(#SVGID_11_);}
	.st11{fill:url(#SVGID_12_);}
	.st12{fill:url(#SVGID_13_);}
	.st13{fill:url(#SVGID_14_);}
	.st14{fill:url(#SVGID_15_);}
	.st15{fill:url(#SVGID_16_);}
	.st16{fill:url(#SVGID_17_);}
	.st17{fill:url(#SVGID_18_);}
	.st18{fill:url(#SVGID_19_);}
	.st19{fill:url(#SVGID_20_);}
	.st20{fill:url(#SVGID_21_);}
	.st21{fill:url(#SVGID_22_);}
	.st22{fill:url(#SVGID_23_);}
	.st23{fill:url(#SVGID_24_);}
	.st24{fill:url(#SVGID_25_);}
	.st25{fill:url(#SVGID_26_);}
	.st26{fill:url(#SVGID_27_);}
	.st27{fill:url(#SVGID_28_);}
	.st28{fill:url(#SVGID_29_);}
	.st29{fill:url(#SVGID_30_);}
	.st30{fill:url(#SVGID_31_);}
	.st31{fill:url(#SVGID_32_);}
	.st32{fill:url(#SVGID_33_);}
	.st33{fill:url(#SVGID_34_);}
	.st34{fill:url(#SVGID_35_);}
	.st35{fill:url(#SVGID_36_);}
	.st36{fill:url(#SVGID_37_);}
	.st37{fill:url(#SVGID_38_);}
	.st38{fill:url(#SVGID_39_);}
	.st39{fill:url(#SVGID_40_);}
	.st40{fill:url(#SVGID_41_);}
	.st41{fill:url(#SVGID_42_);}
	.st42{fill:url(#SVGID_43_);}
	.st43{fill:url(#SVGID_44_);}
	.st44{fill:url(#SVGID_45_);}
	.st45{fill:url(#SVGID_46_);}
	.st46{fill:url(#SVGID_47_);}
	.st47{fill:url(#SVGID_48_);}
	.st48{fill:url(#SVGID_49_);}
	.st49{fill:#FFFFFF;}
</style>
<g>
	<radialGradient id="SVGID_1_" cx="130.9986" cy="137.524" r="98.2337" gradientUnits="userSpaceOnUse">
		<stop  offset="0.2" style="stop-color:#FFFFFF"/>
		<stop  offset="0.7" style="stop-color:#FFFFFF;stop-opacity:0.6"/>
		<stop  offset="1" style="stop-color:#FFFFFF"/>
	</radialGradient>
	<path class="st0" d="M104.1,171.3c0,0,0.1-0.7,0.4-1.8c0.2-1.1,0.7-2.6,1.1-4.3c0.9-3.3,1.4-6.2,1.4-6.2c0,0-0.4,0.6-1,1.6
		c-0.6,1-1.3,2.5-1.7,4.2c-0.5,1.7-0.5,3.4-0.4,4.6C103.9,170.6,104.1,171.3,104.1,171.3z"/>
	<radialGradient id="SVGID_2_" cx="130.9991" cy="137.524" r="98.2344" gradientUnits="userSpaceOnUse">
		<stop  offset="0.2" style="stop-color:#FFFFFF"/>
		<stop  offset="0.7" style="stop-color:#FFFFFF;stop-opacity:0.6"/>
		<stop  offset="1" style="stop-color:#FFFFFF"/>
	</radialGradient>
	<path class="st1" d="M106.8,170.1c0,0,0.3-0.7,0.6-1.9c0.3-1.2,0.6-2.9,0.9-4.7c0.3-1.5,0.5-2.8,0.7-3.9c0-0.1,0-0.1,0-0.2
		c0-0.2,0.1-0.3,0.1-0.5l0.4-2c0,0-0.5,0.6-1,1.7c-0.1,0.1-0.1,0.2-0.2,0.4c0,0,0,0.1-0.1,0.1c-0.5,1.1-1.1,2.5-1.3,4.1
		c-0.3,1.9-0.3,3.6-0.2,4.8C106.8,169.3,106.8,170.1,106.8,170.1z"/>
	<radialGradient id="SVGID_3_" cx="130.9991" cy="137.524" r="98.2344" gradientUnits="userSpaceOnUse">
		<stop  offset="0.2" style="stop-color:#FFFFFF"/>
		<stop  offset="0.7" style="stop-color:#FFFFFF;stop-opacity:0.6"/>
		<stop  offset="1" style="stop-color:#FFFFFF"/>
	</radialGradient>
	<path class="st2" d="M110.3,160.2c-0.1,0.3-0.1,0.6-0.2,0.9c-0.3,1.8-0.3,3.4-0.3,4.6c0.1,1.2,0.2,1.9,0.2,1.9c0,0,0.2-0.7,0.5-1.9
		c0.3-1.2,0.6-2.7,1-4.5c0-0.1,0.1-0.3,0.1-0.4c0-0.1,0-0.2,0.1-0.4c0.3-1.4,0.5-2.7,0.7-3.6c0.3-1.1,0.5-1.8,0.5-1.8
		c0,0-0.5,0.5-1.2,1.6c-0.5,0.8-1,2-1.3,3.3C110.3,160.1,110.3,160.2,110.3,160.2z"/>
	<radialGradient id="SVGID_4_" cx="130.9991" cy="137.524" r="98.2344" gradientUnits="userSpaceOnUse">
		<stop  offset="0.2" style="stop-color:#FFFFFF"/>
		<stop  offset="0.7" style="stop-color:#FFFFFF;stop-opacity:0.6"/>
		<stop  offset="1" style="stop-color:#FFFFFF"/>
	</radialGradient>
	<path class="st3" d="M95.1,158.2c1.1,0.4,2.8,0.7,4.6,0.7c1.8,0,3.4-0.3,4.5-0.6c1.1-0.3,1.8-0.6,1.8-0.6c0,0-2.9-0.2-6.4-0.2
		c-1.7,0-3.3,0-4.4,0c-1.1,0-1.9-0.1-1.9-0.1C93.4,157.4,94,157.8,95.1,158.2z"/>
	<radialGradient id="SVGID_5_" cx="130.9991" cy="137.524" r="98.2344" gradientUnits="userSpaceOnUse">
		<stop  offset="0.2" style="stop-color:#FFFFFF"/>
		<stop  offset="0.7" style="stop-color:#FFFFFF;stop-opacity:0.6"/>
		<stop  offset="1" style="stop-color:#FFFFFF"/>
	</radialGradient>
	<path class="st4" d="M95.2,155.1c0,0,0.7,0.3,1.9,0.6c1.2,0.3,2.8,0.8,4.8,1c1.7,0.1,3.2,0,4.4-0.3c0.1,0,0.1,0,0.1,0
		c0.1,0,0.2,0,0.4-0.1c1.2-0.3,1.9-0.6,1.9-0.6l-2-0.1c-0.1,0-0.3,0-0.4,0c-0.1,0-0.1,0-0.2,0c-1.1-0.1-2.5-0.2-4.1-0.3
		c-1.8-0.1-3.5-0.3-4.8-0.3C96,155,95.2,155.1,95.2,155.1z"/>
	<radialGradient id="SVGID_6_" cx="130.9991" cy="137.524" r="98.2344" gradientUnits="userSpaceOnUse">
		<stop  offset="0.2" style="stop-color:#FFFFFF"/>
		<stop  offset="0.7" style="stop-color:#FFFFFF;stop-opacity:0.6"/>
		<stop  offset="1" style="stop-color:#FFFFFF"/>
	</radialGradient>
	<path class="st5" d="M105.6,154.2c0.1,0,0.2,0,0.3,0c1.3,0,2.5-0.2,3.4-0.5c1.2-0.3,1.8-0.7,1.8-0.7c0,0-0.7,0.1-1.9,0
		c-1,0-2.2-0.1-3.6-0.2c-0.1,0-0.2,0-0.4,0c-0.2,0-0.3,0-0.5,0c-1.8-0.1-3.4-0.2-4.6-0.2c-1.2,0-1.9,0.1-1.9,0c0,0,0.7,0.3,1.8,0.6
		c1.1,0.3,2.7,0.7,4.6,0.9C105,154.2,105.3,154.2,105.6,154.2z"/>
	<radialGradient id="SVGID_7_" cx="130.9991" cy="137.524" r="98.2344" gradientUnits="userSpaceOnUse">
		<stop  offset="0.2" style="stop-color:#FFFFFF"/>
		<stop  offset="0.7" style="stop-color:#FFFFFF;stop-opacity:0.6"/>
		<stop  offset="1" style="stop-color:#FFFFFF"/>
	</radialGradient>
	<path class="st6" d="M128.2,209c-3.4-0.3-6.4-0.4-6.4-0.3c0,0,0.7,0.3,1.8,0.7c1.1,0.4,2.7,0.8,4.5,1c1.8,0.2,3.5,0,4.6-0.3
		c1.2-0.3,1.8-0.6,1.8-0.6s-0.7,0-1.9-0.1C131.5,209.3,129.9,209.2,128.2,209z"/>
	<radialGradient id="SVGID_8_" cx="130.9991" cy="137.524" r="98.2344" gradientUnits="userSpaceOnUse">
		<stop  offset="0.2" style="stop-color:#FFFFFF"/>
		<stop  offset="0.7" style="stop-color:#FFFFFF;stop-opacity:0.6"/>
		<stop  offset="1" style="stop-color:#FFFFFF"/>
	</radialGradient>
	<path class="st7" d="M126.1,208c1.9,0,3.6-0.3,4.8-0.6c1.2-0.2,2-0.4,2-0.5c0,0-0.8-0.1-2-0.2c-1.2-0.1-2.9-0.1-4.8-0.1
		c-1.8,0-3.5,0-4.7-0.1c-1.2,0-2-0.1-2-0.1c0,0,0.7,0.4,1.9,0.7C122.5,207.6,124.2,208,126.1,208z"/>
	<radialGradient id="SVGID_9_" cx="130.9991" cy="137.524" r="98.2344" gradientUnits="userSpaceOnUse">
		<stop  offset="0.2" style="stop-color:#FFFFFF"/>
		<stop  offset="0.7" style="stop-color:#FFFFFF;stop-opacity:0.6"/>
		<stop  offset="1" style="stop-color:#FFFFFF"/>
	</radialGradient>
	<path class="st8" d="M123.5,205.2c1.8,0,3.5-0.2,4.6-0.5c1.2-0.2,1.9-0.5,1.9-0.5c0,0-0.7-0.1-1.9-0.2c-1.2-0.1-2.8-0.2-4.6-0.2
		c-1.8,0-3.3-0.1-4.5-0.1c-1.2-0.1-1.9-0.2-1.9-0.2c0,0,0.6,0.4,1.7,0.9C120,204.8,121.7,205.2,123.5,205.2z"/>
	<radialGradient id="SVGID_10_" cx="130.9991" cy="137.524" r="98.2344" gradientUnits="userSpaceOnUse">
		<stop  offset="0.2" style="stop-color:#FFFFFF"/>
		<stop  offset="0.7" style="stop-color:#FFFFFF;stop-opacity:0.6"/>
		<stop  offset="1" style="stop-color:#FFFFFF"/>
	</radialGradient>
	<path class="st9" d="M120.9,202.8c1.8,0,3.4-0.3,4.5-0.6c1.1-0.3,1.8-0.6,1.8-0.6c0,0-0.7-0.1-1.9-0.1c-1.1-0.1-2.7-0.1-4.4-0.1
		c-1.7,0-3.2-0.1-4.3-0.2c-1.1-0.1-1.8-0.3-1.8-0.3c0,0,0.5,0.5,1.6,1C117.5,202.4,119.1,202.8,120.9,202.8z"/>
	<radialGradient id="SVGID_11_" cx="130.9991" cy="137.524" r="98.2344" gradientUnits="userSpaceOnUse">
		<stop  offset="0.2" style="stop-color:#FFFFFF"/>
		<stop  offset="0.7" style="stop-color:#FFFFFF;stop-opacity:0.6"/>
		<stop  offset="1" style="stop-color:#FFFFFF"/>
	</radialGradient>
	<path class="st10" d="M112.2,198.7c0.1,0.1,0.2,0.1,0.3,0.2c0.3,0.2,0.7,0.5,1.2,0.7c1.1,0.5,2.7,1,4.5,1.1
		c1.8,0.1,3.4-0.3,4.6-0.7c1.1-0.4,1.8-0.7,1.8-0.7c0,0-2.9,0.1-6.3,0.1c-1.7,0-3.2-0.2-4.3-0.3c-0.6-0.1-1-0.2-1.3-0.3
		C112.5,198.7,112.3,198.6,112.2,198.7L112.2,198.7L112.2,198.7C112.2,198.6,112.1,198.6,112.2,198.7z"/>
	<radialGradient id="SVGID_12_" cx="112.1984" cy="198.5786" r="7.216963e-03" gradientUnits="userSpaceOnUse">
		<stop  offset="0.2" style="stop-color:#FFFFFF"/>
		<stop  offset="0.7" style="stop-color:#FFFFFF;stop-opacity:0.6"/>
		<stop  offset="1" style="stop-color:#FFFFFF"/>
	</radialGradient>
	<path class="st11" d="M112.2,198.6C112.2,198.6,112.2,198.6,112.2,198.6L112.2,198.6L112.2,198.6
		C112.2,198.6,112.2,198.6,112.2,198.6z"/>
	<radialGradient id="SVGID_13_" cx="130.9991" cy="137.524" r="98.2344" gradientUnits="userSpaceOnUse">
		<stop  offset="0.2" style="stop-color:#FFFFFF"/>
		<stop  offset="0.7" style="stop-color:#FFFFFF;stop-opacity:0.6"/>
		<stop  offset="1" style="stop-color:#FFFFFF"/>
	</radialGradient>
	<path class="st12" d="M121.7,211.5c-0.5-1.1-0.9-1.7-0.9-1.7c0,0,0.3,2.9,0.9,6.3c0.3,1.7,0.6,3.2,0.7,4.4c0.2,1.1,0.2,1.9,0.2,1.9
		c0,0,0.3-0.7,0.5-1.9c0.2-1.2,0.3-2.8-0.1-4.6C122.8,214.1,122.2,212.5,121.7,211.5z"/>
	<radialGradient id="SVGID_14_" cx="130.9991" cy="137.524" r="98.2344" gradientUnits="userSpaceOnUse">
		<stop  offset="0.2" style="stop-color:#FFFFFF"/>
		<stop  offset="0.7" style="stop-color:#FFFFFF;stop-opacity:0.6"/>
		<stop  offset="1" style="stop-color:#FFFFFF"/>
	</radialGradient>
	<path class="st13" d="M119.3,209.3c-0.5-1.2-0.9-1.8-0.9-1.8s0.1,0.8,0.2,2c0.1,1.2,0.3,2.9,0.5,4.7c0.2,1.8,0.3,3.5,0.5,4.7
		c0.2,1.2,0.4,2,0.4,2s0.1-0.8,0.3-2c0.1-1.2,0.3-2.9,0.2-4.9C120.3,212.2,119.8,210.5,119.3,209.3z"/>
	<radialGradient id="SVGID_15_" cx="130.9991" cy="137.524" r="98.2344" gradientUnits="userSpaceOnUse">
		<stop  offset="0.2" style="stop-color:#FFFFFF"/>
		<stop  offset="0.7" style="stop-color:#FFFFFF;stop-opacity:0.6"/>
		<stop  offset="1" style="stop-color:#FFFFFF"/>
	</radialGradient>
	<path class="st14" d="M116.3,207.2c-0.5-1.1-1-1.7-1-1.7c0,0,0.2,0.7,0.4,1.9c0.2,1.2,0.3,2.7,0.5,4.5c0.2,1.8,0.4,3.4,0.6,4.5
		c0.2,1.2,0.4,1.9,0.4,1.9s0.2-0.7,0.3-1.9c0.2-1.2,0.3-2.8,0.1-4.6C117.4,209.9,116.9,208.3,116.3,207.2z"/>
	<radialGradient id="SVGID_16_" cx="130.9991" cy="137.524" r="98.2344" gradientUnits="userSpaceOnUse">
		<stop  offset="0.2" style="stop-color:#FFFFFF"/>
		<stop  offset="0.7" style="stop-color:#FFFFFF;stop-opacity:0.6"/>
		<stop  offset="1" style="stop-color:#FFFFFF"/>
	</radialGradient>
	<path class="st15" d="M113.7,204.9c-0.6-1.1-1.1-1.6-1.1-1.6c0,0,0.2,0.7,0.5,1.8c0.2,1.1,0.4,2.6,0.5,4.3c0.2,1.7,0.3,3.2,0.5,4.4
		c0.2,1.1,0.3,1.9,0.3,1.9s0.2-0.7,0.4-1.8c0.2-1.1,0.4-2.7,0.2-4.5C114.8,207.6,114.2,206,113.7,204.9z"/>
	<radialGradient id="SVGID_17_" cx="130.9991" cy="137.524" r="98.2344" gradientUnits="userSpaceOnUse">
		<stop  offset="0.2" style="stop-color:#FFFFFF"/>
		<stop  offset="0.7" style="stop-color:#FFFFFF;stop-opacity:0.6"/>
		<stop  offset="1" style="stop-color:#FFFFFF"/>
	</radialGradient>
	<path class="st16" d="M110,201.1c0,0.1,0.1,0.2,0.1,0.3c0.1,0.3,0.3,0.7,0.4,1.3c0.3,1.1,0.5,2.6,0.7,4.3c0.4,3.4,0.4,6.3,0.5,6.3
		c0,0,0.3-0.7,0.6-1.8c0.3-1.1,0.5-2.8,0.3-4.6c-0.2-1.8-0.8-3.4-1.4-4.4c-0.3-0.5-0.6-0.9-0.8-1.1
		C110.2,201.2,110.1,201.1,110,201.1C110,200.9,110,201,110,201.1C110,201,109.9,200.9,110,201.1z"/>
	<radialGradient id="SVGID_18_" cx="130.9991" cy="137.524" r="98.2344" gradientUnits="userSpaceOnUse">
		<stop  offset="0.2" style="stop-color:#FFFFFF"/>
		<stop  offset="0.7" style="stop-color:#FFFFFF;stop-opacity:0.6"/>
		<stop  offset="1" style="stop-color:#FFFFFF"/>
	</radialGradient>
	<path class="st17" d="M138,186.8c-3.2,1.3-5.8,2.6-5.8,2.6c0,0,0.7,0,1.9-0.2c1.2-0.2,2.8-0.5,4.4-1.2c1.7-0.7,3.1-1.6,3.9-2.4
		c0.9-0.8,1.3-1.4,1.3-1.4c0,0-0.7,0.3-1.7,0.8C141,185.6,139.6,186.1,138,186.8z"/>
	<radialGradient id="SVGID_19_" cx="130.9991" cy="137.524" r="98.2344" gradientUnits="userSpaceOnUse">
		<stop  offset="0.2" style="stop-color:#FFFFFF"/>
		<stop  offset="0.7" style="stop-color:#FFFFFF;stop-opacity:0.6"/>
		<stop  offset="1" style="stop-color:#FFFFFF"/>
	</radialGradient>
	<path class="st18" d="M130.8,187.6l-1.8,0.9c0,0,0.8,0,2-0.2c1.2-0.2,2.9-0.6,4.7-1.5c1.7-0.9,3.1-1.9,4-2.7c1-0.8,1.5-1.3,1.5-1.3
		s-0.7,0.2-1.9,0.7c-1.1,0.5-2.7,1.2-4.3,2.1C133.4,186.4,131.9,187.1,130.8,187.6z"/>
	<radialGradient id="SVGID_20_" cx="130.9991" cy="137.524" r="98.2344" gradientUnits="userSpaceOnUse">
		<stop  offset="0.2" style="stop-color:#FFFFFF"/>
		<stop  offset="0.7" style="stop-color:#FFFFFF;stop-opacity:0.6"/>
		<stop  offset="1" style="stop-color:#FFFFFF"/>
	</radialGradient>
	<path class="st19" d="M131.5,184.3c-1.6,0.8-3,1.5-4.1,1.9c-1.1,0.5-1.8,0.7-1.8,0.7c0,0,0.7,0.1,2,0c1.2-0.1,2.9-0.6,4.5-1.4
		c1.6-0.8,3-1.8,3.9-2.6c0.9-0.7,1.5-1.3,1.5-1.3s-0.7,0.2-1.8,0.7C134.5,182.9,133.1,183.5,131.5,184.3z"/>
	<radialGradient id="SVGID_21_" cx="130.9991" cy="137.524" r="98.2344" gradientUnits="userSpaceOnUse">
		<stop  offset="0.2" style="stop-color:#FFFFFF"/>
		<stop  offset="0.7" style="stop-color:#FFFFFF;stop-opacity:0.6"/>
		<stop  offset="1" style="stop-color:#FFFFFF"/>
	</radialGradient>
	<path class="st20" d="M128.1,183.4c-1.5,0.8-2.9,1.4-4,1.8c-1.1,0.4-1.8,0.5-1.8,0.6c0,0,0.7,0.2,1.9,0.1c1.2-0.1,2.8-0.4,4.4-1.2
		c1.6-0.8,2.9-1.8,3.8-2.5c0.9-0.8,1.3-1.3,1.4-1.3c0,0-0.7,0.3-1.7,0.7C131,181.9,129.6,182.6,128.1,183.4z"/>
	<radialGradient id="SVGID_22_" cx="130.9991" cy="137.524" r="98.2344" gradientUnits="userSpaceOnUse">
		<stop  offset="0.2" style="stop-color:#FFFFFF"/>
		<stop  offset="0.7" style="stop-color:#FFFFFF;stop-opacity:0.6"/>
		<stop  offset="1" style="stop-color:#FFFFFF"/>
	</radialGradient>
	<path class="st21" d="M120.7,184.3c-0.5,0.2-1,0.3-1.3,0.4c-0.2,0-0.3,0.1-0.4,0.1l-0.1,0c0,0,0,0,0,0s0,0,0,0l0,0c0,0-0.1,0,0,0
		c0.1,0,0.2,0.1,0.4,0.1c0.3,0.1,0.8,0.1,1.4,0.1c1.2,0,2.9-0.3,4.5-1.1c1.6-0.8,2.9-1.9,3.7-2.7c0.8-0.8,1.2-1.5,1.2-1.5
		c0,0-2.5,1.5-5.6,2.9C123.2,183.4,121.8,184,120.7,184.3z"/>
	<radialGradient id="SVGID_23_" cx="130.9991" cy="137.524" r="98.2344" gradientUnits="userSpaceOnUse">
		<stop  offset="0.2" style="stop-color:#FFFFFF"/>
		<stop  offset="0.7" style="stop-color:#FFFFFF;stop-opacity:0.6"/>
		<stop  offset="1" style="stop-color:#FFFFFF"/>
	</radialGradient>
	<path class="st22" d="M38.6,133C38.6,133,38.6,133,38.6,133c0.2,0.6,0.6,1.9,1.1,3.6c0.8,2.4,2.1,5.8,3.9,9.3
		c1.8,3.5,4,6.4,5.6,8.4c0.8,1,1.5,1.8,2,2.4c0.1,0.1,0.2,0.1,0.3,0.2c-0.2-0.2-0.4-0.5-0.6-0.8c0.7,1,1.4,1.4,1.3,1.4
		c0,0-0.4-0.6-0.8-1.7c-0.4-1-0.7-2.5-0.5-4c0.1-0.7,0.4-1.4,0.8-1.8c0.3-0.3,0.7-0.4,1-0.5c1.1,1,2,1.8,2.8,2.5
		c0.5,0.4,0.9,0.8,1.2,1c0.2,0.2,0.3,0.3,0.3,0.4c0,0,0,0,0,0c0,0-0.1-0.2-0.3-0.5c-0.2-0.3-0.6-0.7-1-1.2c-0.5-0.6-1.2-1.3-1.9-2
		c-0.3-0.3-0.6-0.6-1-1c-0.2-0.2-0.4-0.4-0.7-0.7c-1.4-1.4-2.8-2.7-3.7-3.6c-0.9-0.9-1.5-1.5-1.5-1.5s0.4,0.7,1.2,1.8
		c0.8,1.1,2,2.4,3.5,3.8c0.1,0.1,0.1,0.1,0.2,0.2c-0.3,0.1-0.6,0.2-0.9,0.4c-0.8,0.5-1.3,1.5-1.5,2.5c-0.2,1,0,1.9,0.2,2.7
		c0.3,0.8,0.6,1.4,1,1.9c-0.4-0.5-0.9-1.2-1.4-2c-1.5-2.1-3.4-5.1-5.3-8.5c-1.8-3.5-2.6-8.3-3.6-10.7c1.5,1.5,4.1,4.1,7.1,6.9
		c3.1,2.8,5.9,5.2,7.5,6.5c-0.4-0.4-0.8-0.8-1.3-1.3l-5.7-5.7c-2.9-2.7-5.5-4.9-7.2-6.3c2.6,0.7,7.1,1.1,10.5,2.6
		c3.6,1.5,6.7,3.2,8.9,4.5c0.8,0.5,1.5,0.9,2.1,1.3c-0.5-0.3-1.2-0.6-2-0.8c-0.8-0.2-1.7-0.3-2.7,0c-1,0.2-1.9,0.8-2.3,1.7
		c-0.2,0.3-0.2,0.6-0.3,0.9c-0.1-0.1-0.1-0.1-0.2-0.2c-1.5-1.3-3-2.4-4.1-3.1c-1.1-0.7-1.8-1.1-1.8-1.1c0,0,0.6,0.5,1.6,1.4
		c1,0.9,2.4,2.1,3.9,3.4c0.1,0.1,0.2,0.2,0.3,0.2c0,0,0,0,0,0c0.7,0.5,1.4,1,2,1.7c0.6,0.5,1.2,1,1.7,1.3c0.5,0.4,1,0.7,1.3,0.9
		c0.3,0.2,0.5,0.3,0.5,0.3c-0.1,0-0.1,0-0.2,0c-0.4,0.1-0.9,0.3-1.4,0.7c0,0,0,0-0.1-0.1c-0.4,0.4-0.7,0.7-1,1.1c0,0,0,0,0.1,0.1
		c-0.3,0.5-0.5,1.1-0.5,1.5c0,0.1,0,0.1,0,0.2c0.1,0.1,0.1,0.1,0.2,0.2c0-0.1,0.1-0.2,0.1-0.3c0.2-0.3,0.4-0.7,0.7-1.1
		c8.4,7.8,16.3,15.2,23.7,22l2.1,0.5l-0.5-1.5c-7.6-7-15.7-14.4-24.2-22.2c0.4-0.3,0.7-0.6,1.1-0.8c0.1-0.1,0.3-0.1,0.4-0.2
		c-0.1-0.1-0.1-0.1-0.1-0.2c0,0-0.1,0-0.1,0c0,0-0.2-0.1-0.4-0.4c-0.3-0.2-0.7-0.6-1.1-1.1c-0.7-0.7-1.6-1.6-2.7-2.6
		c0-0.4,0.1-0.8,0.4-1.1c0.4-0.4,1-0.8,1.7-1c1.5-0.4,3-0.1,4.1,0.1c1.1,0.3,1.7,0.6,1.7,0.6c0,0-0.4-0.6-1.5-1.2
		c0.9,0.6,1.4,0.9,1.4,0.9s-1.2-1-3.4-2.5c-2.1-1.5-5.2-3.3-8.8-4.9c-3.6-1.6-7.1-2.5-9.6-3.1C40.6,133.4,39.3,133.1,38.6,133
		C38.7,133,38.6,133,38.6,133L38.6,133C38.6,133,38.6,133,38.6,133C38.6,133,38.6,133,38.6,133C38.6,133,38.6,133,38.6,133z
		 M39,133.4c-0.2-0.1-0.3-0.2-0.4-0.3C38.9,133.1,39,133.2,39,133.4z"/>
	<radialGradient id="SVGID_24_" cx="130.9991" cy="137.524" r="98.2344" gradientUnits="userSpaceOnUse">
		<stop  offset="0.2" style="stop-color:#FFFFFF"/>
		<stop  offset="0.7" style="stop-color:#FFFFFF;stop-opacity:0.6"/>
		<stop  offset="1" style="stop-color:#FFFFFF"/>
	</radialGradient>
	<path class="st23" d="M79.5,174.6c-9.2-2.6-19-5.2-29.2-8c0.2-0.5,0.4-0.9,0.6-1.2c0.1-0.1,0.2-0.2,0.2-0.3c-0.1,0-0.2-0.1-0.2-0.1
		c0,0-0.1,0-0.1,0.1c0,0-0.2,0-0.6-0.1c-0.4-0.1-0.9-0.2-1.5-0.4c-0.9-0.3-2.2-0.7-3.6-1.1c-0.2-0.3-0.2-0.7-0.2-1.1
		c0.1-0.6,0.5-1.1,1.1-1.6c1.1-1,2.6-1.5,3.7-1.7c1.1-0.2,1.8-0.2,1.8-0.3c0,0-0.2-0.1-0.7-0.2c0,0,0,0,0,0
		c-0.3-0.1-0.7-0.2-1.2-0.2c0.4,0,0.7,0.1,1,0.1c-0.1,0-0.1-0.1-0.2-0.1c0,0-0.1,0-0.1-0.1c-0.7-0.1-1.8-0.3-3.1-0.5
		c-2.6-0.3-6.1-0.6-10.1-0.3c-3.9,0.3-7.5,1-10,1.6c-1.7,0.4-3,0.8-3.6,1c0,0,0,0,0,0c0,0,0,0,0,0c0,0,0,0,0,0c0,0,0,0,0,0
		c0,0,0,0,0,0c0,0,0,0,0.1,0c0.4,0.5,1.3,1.4,2.6,2.7c1.8,1.8,4.5,4.2,7.7,6.5c3.2,2.3,6.5,3.9,8.8,4.9c2.4,1,3.9,1.5,3.9,1.5
		c0,0-0.6-0.3-1.5-0.7c1.1,0.5,1.8,0.6,1.8,0.6c0,0-0.6-0.4-1.4-1.2c-0.8-0.8-1.8-1.9-2.3-3.4c-0.2-0.7-0.3-1.4-0.1-2
		c0.1-0.4,0.4-0.7,0.7-0.9c1.4,0.4,2.6,0.7,3.6,0.9c0.6,0.1,1.2,0.3,1.5,0.4c0.3,0.1,0.5,0.2,0.5,0.2c0,0.1,0.1,0.1,0.1,0.2
		c0.1,0,0.1,0,0.2,0.1c0-0.1,0-0.3,0-0.5c0-0.4,0-0.8,0.1-1.3c12.7,3.6,24.5,6.9,35.3,9.9l-0.6-2L79.5,174.6z M23.7,160.1
		c0.2,0,0.3,0,0.5,0.1C24,160.2,23.8,160.2,23.7,160.1z M49.6,166.5C49.6,166.5,49.6,166.5,49.6,166.5c-0.1,0.1-0.2,0.2-0.2,0.3
		c0,0,0,0.1,0,0.1c-0.1,0.2-0.1,0.4-0.2,0.6c0,0.1,0,0.3,0,0.4c0,0,0,0,0,0c-0.1,0.6,0,1.2,0.2,1.6c0,0.1,0,0.1,0.1,0.2
		c0,0-0.2-0.1-0.5-0.3c-0.3-0.2-0.8-0.4-1.4-0.6c-0.7-0.3-1.6-0.6-2.6-0.9c0.1,0,0.1,0,0.2,0c-0.5-0.1-1-0.2-1.5-0.4c0,0,0,0-0.1,0
		c-0.3-0.1-0.6-0.2-0.9-0.3c-1.9-0.6-3.6-1.1-4.9-1.5c-1.3-0.4-2-0.7-2-0.7s0.7,0.4,1.9,1c1.2,0.6,2.9,1.2,4.8,1.8
		c0.1,0,0.2,0,0.2,0.1c-0.2,0.2-0.5,0.4-0.6,0.7c-0.5,0.8-0.5,1.9-0.2,2.9c0.3,1,0.8,1.7,1.4,2.3c0.6,0.6,1.2,1,1.7,1.2
		c-0.6-0.3-1.3-0.6-2.2-1.1c-2.3-1.2-5.4-2.9-8.6-5.2c-3-2.1-5.8-5.8-7.7-7.6c2,0.7,5.3,1.7,9.1,2.8l7.9,1.8
		c0.7,0.2,1.3,0.3,1.8,0.4c-0.5-0.2-1.1-0.4-1.7-0.6l-7.7-2.5c-3.8-1.1-7.2-1.9-9.2-2.3c2.6-0.5,6.9-2.3,10.5-2.5
		c3.9-0.3,7.4-0.2,10,0c1,0.1,1.8,0.1,2.4,0.2c-0.6-0.1-1.3,0-2.1,0.2c-0.8,0.2-1.7,0.6-2.4,1.2c-0.7,0.7-1.3,1.6-1.3,2.6
		c0,0.3,0.1,0.6,0.2,0.9c-0.1,0-0.2-0.1-0.2-0.1c-2-0.5-3.8-0.8-5.1-0.9c-1.3-0.1-2.1-0.1-2.1-0.1s0.8,0.2,2.1,0.5
		c1.3,0.3,3,0.8,5,1.2c0.3,0.1,0.6,0.2,0.9,0.2c0.5,0.1,0.9,0.2,1.4,0.3c1,0.2,2,0.4,2.7,0.6c0.6,0.1,1.2,0.2,1.6,0.2
		c0.4,0,0.6,0,0.6,0c-0.1,0-0.1,0.1-0.2,0.1C50.3,165.5,49.9,165.9,49.6,166.5z"/>
	<radialGradient id="SVGID_25_" cx="130.9991" cy="137.524" r="98.2344" gradientUnits="userSpaceOnUse">
		<stop  offset="0.2" style="stop-color:#FFFFFF"/>
		<stop  offset="0.7" style="stop-color:#FFFFFF;stop-opacity:0.6"/>
		<stop  offset="1" style="stop-color:#FFFFFF"/>
	</radialGradient>
	<path class="st24" d="M135.7,191.6c0-0.3,0.1-0.5,0.2-0.8c-10.3-3.1-25.5-7.5-43.8-12.6l-3.2-0.9l1.7,4.9c14,12.8,25.4,23,33.2,30
		c0.2-0.2,0.4-0.4,0.6-0.6c-8-7.6-19.8-18.8-34.2-32.2C109.6,184.7,125.2,188.8,135.7,191.6z"/>
	<radialGradient id="SVGID_26_" cx="130.9991" cy="137.524" r="98.2344" gradientUnits="userSpaceOnUse">
		<stop  offset="0.2" style="stop-color:#FFFFFF"/>
		<stop  offset="0.7" style="stop-color:#FFFFFF;stop-opacity:0.6"/>
		<stop  offset="1" style="stop-color:#FFFFFF"/>
	</radialGradient>
	<path class="st25" d="M85.5,170.5c-3.2-9.3-6.6-19.1-10.3-29.4c0.5-0.1,0.9-0.2,1.3-0.2c0.5,0,0.8,0,0.8,0c0,0-0.2-0.1-0.5-0.3
		c0,0-0.1-0.2-0.2-0.5c-0.1-0.3-0.3-0.8-0.5-1.5c-0.3-1-0.7-2.2-1.1-3.5c0.2-0.3,0.5-0.6,0.8-0.8c0.5-0.2,1.2-0.2,2-0.1
		c1.5,0.4,2.7,1.3,3.5,2.1c0.8,0.8,1.2,1.4,1.3,1.4c0,0-0.1-0.7-0.7-1.8c0.2,0.3,0.2,0.4,0.3,0.5c-0.1-0.3-0.4-1.1-1.2-2.8
		c-1.2-2.3-3-5.4-5.5-8.5c-2.5-3.1-5.1-5.6-7-7.3c-1.3-1.2-2.3-2-2.8-2.4c0,0,0,0,0-0.1c0,0,0,0,0,0c0,0,0,0,0,0c0,0,0,0,0,0
		c0,0,0,0,0,0c0,0,0,0,0.1,0.1c-0.1,0.6-0.4,1.9-0.7,3.7c-0.4,2.5-0.9,6.1-1,10c-0.1,4,0.4,7.5,0.9,10.1c0.5,2.5,0.8,3.5,0.8,3.5
		c0,0,0,0-0.2-1.1c0.2,1.2,0.6,1.8,0.5,1.8c0,0,0-0.7,0.1-1.8c0.2-1.1,0.6-2.6,1.5-3.8c0.5-0.6,1-1,1.6-1.2c0.4-0.1,0.8-0.1,1.1,0.1
		c0.5,1.4,0.9,2.6,1.3,3.5c0.2,0.6,0.4,1.1,0.5,1.5c0.1,0.3,0.1,0.5,0.1,0.5c-0.2,0.3-0.2,0.6-0.2,0.6s0.2-0.2,0.6-0.5
		c0.3-0.2,0.7-0.4,1.1-0.7c3.5,10.3,6.8,20.1,9.9,29.1l4.6,13.1c6.3,18,11.5,32.4,15,42.2c0.2-0.1,0.5-0.2,0.8-0.3
		c-3.2-9.8-7.8-23.9-13.6-40.9L85.5,170.5z M74.8,140.4l-1.3,0.4c0,0.1-0.9,0.9-1.1,1.2c0,0.1-0.1,0.1-0.1,0.2c0,0,0-0.2,0-0.6
		c0-0.4-0.1-0.9-0.3-1.5c-0.2-0.8-0.4-1.7-0.7-2.7c-0.1-0.4-0.3-0.9-0.4-1.3c-0.1-0.3-0.2-0.6-0.3-0.9c-0.6-1.9-1.2-3.6-1.5-4.9
		c-0.4-1.3-0.6-2-0.6-2s0,0.8,0.3,2.1c0.2,1.3,0.6,3.1,1.2,5c0,0.1,0,0.2,0.1,0.2c-0.3-0.1-0.6-0.1-0.9-0.1c-1,0.1-1.9,0.7-2.5,1.5
		c-0.6,0.8-0.9,1.7-1.1,2.5c-0.1,0.8-0.1,1.5,0,2.1c-0.1-0.6-0.2-1.5-0.3-2.4c-0.3-2.5-0.6-6.1-0.6-10c0-3.9,1.5-8.6,1.7-11.1
		c0.6,2,1.6,5.5,3,9.5l3,7.5c0.3,0.7,0.5,1.2,0.7,1.7c-0.6-2-1.6-5.5-3-9.4c-1.4-4-2.7-7.4-3.5-9.3c0-0.1,0-0.1-0.1-0.2l0,0
		c1.8,1.9,6,4.7,8.5,7.7c2.4,3.1,4.4,6,5.7,8.2c0.5,0.8,0.9,1.5,1.2,2.1c-0.3-0.5-0.7-1.1-1.3-1.7c-0.6-0.5-1.4-1.1-2.4-1.3
		c-1-0.2-2-0.2-2.9,0.4c-0.3,0.2-0.5,0.4-0.7,0.6c0-0.1-0.1-0.1-0.1-0.2c-0.7-1.9-1.5-3.5-2.1-4.7c-0.6-1.2-1.1-1.8-1.1-1.8
		s0.3,0.7,0.8,2c0.5,1.2,1.1,2.9,1.8,4.8c0.1,0.3,0.2,0.6,0.3,0.9c0.2,0.5,0.3,0.9,0.5,1.3c0.4,1,0.8,1.9,1.1,2.6
		c0.3,0.6,0.5,1.1,0.7,1.4c0.2,0.3,0.3,0.5,0.3,0.5c-0.1,0-0.1,0-0.2-0.1c-0.4-0.1-1.6-0.2-1.6-0.2L74.8,140.4z"/>
	<radialGradient id="SVGID_27_" cx="130.9991" cy="137.524" r="98.2344" gradientUnits="userSpaceOnUse">
		<stop  offset="0.2" style="stop-color:#FFFFFF"/>
		<stop  offset="0.7" style="stop-color:#FFFFFF;stop-opacity:0.6"/>
		<stop  offset="1" style="stop-color:#FFFFFF"/>
	</radialGradient>
	<path class="st26" d="M82.1,136.5c0,0.1,0,0.1,0,0.1S82.3,136.7,82.1,136.5z"/>
	<radialGradient id="SVGID_28_" cx="130.9991" cy="137.524" r="98.2344" gradientUnits="userSpaceOnUse">
		<stop  offset="0.2" style="stop-color:#FFFFFF"/>
		<stop  offset="0.7" style="stop-color:#FFFFFF;stop-opacity:0.6"/>
		<stop  offset="1" style="stop-color:#FFFFFF"/>
	</radialGradient>
	<path class="st27" d="M136.5,195.2c-1.1-1.4-2.3-2.5-3.2-3.3c-0.9-0.7-1.5-1.1-1.5-1.1c0,0,1.6,2.5,3.6,5.2c1,1.4,2,2.6,2.6,3.6
		c0.7,0.9,1,1.6,1,1.6c0,0-0.1-0.7-0.4-1.9C138.3,198.1,137.6,196.6,136.5,195.2z"/>
	<radialGradient id="SVGID_29_" cx="130.9991" cy="137.524" r="98.2344" gradientUnits="userSpaceOnUse">
		<stop  offset="0.2" style="stop-color:#FFFFFF"/>
		<stop  offset="0.7" style="stop-color:#FFFFFF;stop-opacity:0.6"/>
		<stop  offset="1" style="stop-color:#FFFFFF"/>
	</radialGradient>
	<path class="st28" d="M133.4,194.8c-1-1.6-2.3-2.9-3.2-3.7c-1-0.8-1.6-1.2-1.6-1.2l1.1,1.7c0.7,1,1.6,2.4,2.6,4c1,1.6,1.9,3,2.6,4
		c0.7,1,1.3,1.6,1.3,1.6s-0.2-0.7-0.7-1.9C135.1,198,134.5,196.4,133.4,194.8z"/>
	<radialGradient id="SVGID_30_" cx="130.9991" cy="137.524" r="98.2344" gradientUnits="userSpaceOnUse">
		<stop  offset="0.2" style="stop-color:#FFFFFF"/>
		<stop  offset="0.7" style="stop-color:#FFFFFF;stop-opacity:0.6"/>
		<stop  offset="1" style="stop-color:#FFFFFF"/>
	</radialGradient>
	<path class="st29" d="M129.7,194c-1-1.5-2.2-2.8-3.2-3.5c-1-0.7-1.7-1-1.7-1c0,0,0.5,0.6,1.2,1.5c0.7,0.9,1.5,2.3,2.5,3.8
		c1,1.5,1.9,2.8,2.6,3.8c0.7,1,1.2,1.5,1.2,1.5s-0.2-0.7-0.6-1.8C131.4,197.1,130.7,195.6,129.7,194z"/>
	<radialGradient id="SVGID_31_" cx="130.9991" cy="137.524" r="98.2344" gradientUnits="userSpaceOnUse">
		<stop  offset="0.2" style="stop-color:#FFFFFF"/>
		<stop  offset="0.7" style="stop-color:#FFFFFF;stop-opacity:0.6"/>
		<stop  offset="1" style="stop-color:#FFFFFF"/>
	</radialGradient>
	<path class="st30" d="M127.6,197.5c0.6,0.9,1.1,1.5,1.1,1.5s-0.1-0.7-0.5-1.8c-0.4-1.1-0.9-2.6-1.9-4.1c-1-1.5-2.2-2.7-3.1-3.3
		c-1-0.7-1.7-0.9-1.7-0.9s0.5,0.5,1.2,1.4c0.7,0.9,1.5,2.1,2.5,3.6C126.1,195.3,127,196.6,127.6,197.5z"/>
	<radialGradient id="SVGID_32_" cx="130.9991" cy="137.524" r="98.2344" gradientUnits="userSpaceOnUse">
		<stop  offset="0.2" style="stop-color:#FFFFFF"/>
		<stop  offset="0.7" style="stop-color:#FFFFFF;stop-opacity:0.6"/>
		<stop  offset="1" style="stop-color:#FFFFFF"/>
	</radialGradient>
	<path class="st31" d="M118.2,188c0.1,0,0.2,0.1,0.3,0.2c0.2,0.2,0.6,0.6,0.9,1c0.7,0.8,1.7,2.1,2.6,3.5c1.9,2.8,3.3,5.4,3.3,5.4
		c0,0,0-0.7-0.3-1.9c-0.3-1.1-0.8-2.7-1.8-4.2c-1-1.5-2.3-2.7-3.3-3.3c-0.5-0.3-0.9-0.5-1.3-0.6C118.4,188,118.3,187.9,118.2,188
		C118.1,187.9,118.2,188,118.2,188C118.2,188,118.1,187.9,118.2,188z"/>
	<radialGradient id="SVGID_33_" cx="130.9991" cy="137.524" r="98.2344" gradientUnits="userSpaceOnUse">
		<stop  offset="0.2" style="stop-color:#FFFFFF"/>
		<stop  offset="0.7" style="stop-color:#FFFFFF;stop-opacity:0.6"/>
		<stop  offset="1" style="stop-color:#FFFFFF"/>
	</radialGradient>
	<path class="st32" d="M108.4,224.8c-2.9-1.9-5.4-3.3-5.4-3.3c0,0,0.4,0.6,1.2,1.5c0.8,0.9,2,2,3.5,3c1.5,1,3.1,1.6,4.2,1.9
		c1.2,0.3,1.9,0.3,1.9,0.3c0,0-0.7-0.4-1.6-1C111.1,226.6,109.8,225.7,108.4,224.8z"/>
	<radialGradient id="SVGID_34_" cx="130.9991" cy="137.524" r="98.2344" gradientUnits="userSpaceOnUse">
		<stop  offset="0.2" style="stop-color:#FFFFFF"/>
		<stop  offset="0.7" style="stop-color:#FFFFFF;stop-opacity:0.6"/>
		<stop  offset="1" style="stop-color:#FFFFFF"/>
	</radialGradient>
	<path class="st33" d="M107,222.9c1.7,0.9,3.3,1.4,4.5,1.8c1.2,0.4,1.9,0.5,1.9,0.5s-0.6-0.5-1.7-1.2c-1-0.7-2.5-1.5-4.1-2.4
		c-1.6-0.9-3-1.7-4.1-2.3l-1.7-1c0,0,0.4,0.6,1.3,1.5C104,220.8,105.3,222,107,222.9z"/>
	<radialGradient id="SVGID_35_" cx="130.9991" cy="137.524" r="98.2344" gradientUnits="userSpaceOnUse">
		<stop  offset="0.2" style="stop-color:#FFFFFF"/>
		<stop  offset="0.7" style="stop-color:#FFFFFF;stop-opacity:0.6"/>
		<stop  offset="1" style="stop-color:#FFFFFF"/>
	</radialGradient>
	<path class="st34" d="M106,219.2c1.6,0.9,3.2,1.4,4.3,1.8c1.1,0.3,1.9,0.5,1.9,0.5s-0.6-0.5-1.6-1.1c-1-0.7-2.4-1.5-3.9-2.3
		c-1.5-0.9-2.9-1.6-3.9-2.3c-1-0.6-1.6-1.1-1.6-1.1c0,0,0.3,0.7,1.1,1.6C103.2,217.2,104.4,218.3,106,219.2z"/>
	<radialGradient id="SVGID_36_" cx="130.9991" cy="137.524" r="98.2344" gradientUnits="userSpaceOnUse">
		<stop  offset="0.2" style="stop-color:#FFFFFF"/>
		<stop  offset="0.7" style="stop-color:#FFFFFF;stop-opacity:0.6"/>
		<stop  offset="1" style="stop-color:#FFFFFF"/>
	</radialGradient>
	<path class="st35" d="M105.6,214.7c-1.5-0.8-2.8-1.6-3.7-2.2c-0.9-0.6-1.5-1.1-1.5-1.1c0,0,0.2,0.7,1,1.6c0.7,0.9,2,2.1,3.5,2.9
		c1.6,0.9,3.1,1.4,4.2,1.7c1.1,0.3,1.8,0.4,1.8,0.4c0,0-0.6-0.4-1.6-1C108.4,216.3,107.1,215.5,105.6,214.7z"/>
	<radialGradient id="SVGID_37_" cx="130.9991" cy="137.524" r="98.2344" gradientUnits="userSpaceOnUse">
		<stop  offset="0.2" style="stop-color:#FFFFFF"/>
		<stop  offset="0.7" style="stop-color:#FFFFFF;stop-opacity:0.6"/>
		<stop  offset="1" style="stop-color:#FFFFFF"/>
	</radialGradient>
	<path class="st36" d="M99.2,208.1c0,0.1,0.1,0.2,0.1,0.4c0.1,0.3,0.4,0.7,0.7,1.2c0.7,1,1.9,2.2,3.5,3.1c1.6,0.9,3.2,1.3,4.3,1.5
		c1.2,0.2,1.9,0.2,1.9,0.2c0,0-2.6-1.3-5.5-2.9c-1.5-0.8-2.8-1.7-3.7-2.4c-0.4-0.3-0.8-0.6-1-0.9C99.4,208.2,99.3,208.1,99.2,208.1
		L99.2,208.1C99.3,208,99.2,208,99.2,208.1C99.2,208,99.3,208,99.2,208.1L99.2,208.1C99.3,208,99.2,208,99.2,208.1z"/>
	<radialGradient id="SVGID_38_" cx="130.9991" cy="137.524" r="98.2344" gradientUnits="userSpaceOnUse">
		<stop  offset="0.2" style="stop-color:#FFFFFF"/>
		<stop  offset="0.7" style="stop-color:#FFFFFF;stop-opacity:0.6"/>
		<stop  offset="1" style="stop-color:#FFFFFF"/>
	</radialGradient>
	<path class="st37" d="M99.3,227.9c-0.6,1.6-1,3.1-1.4,4.2c-0.4,1.1-0.7,1.7-0.7,1.7c0,0,0.6-0.5,1.3-1.4c0.7-0.9,1.6-2.4,2.1-4.1
		c0.6-1.7,0.8-3.3,0.9-4.5c0.1-1.2,0.1-1.9,0.1-1.9C101.5,222,100.4,224.7,99.3,227.9z"/>
	<radialGradient id="SVGID_39_" cx="130.9991" cy="137.524" r="98.2344" gradientUnits="userSpaceOnUse">
		<stop  offset="0.2" style="stop-color:#FFFFFF"/>
		<stop  offset="0.7" style="stop-color:#FFFFFF;stop-opacity:0.6"/>
		<stop  offset="1" style="stop-color:#FFFFFF"/>
	</radialGradient>
	<path class="st38" d="M100.4,220.8c0.1-1.3,0.1-2,0.1-2l-0.7,1.9c-0.5,1.1-1.1,2.7-1.8,4.4c-0.7,1.7-1.4,3.2-1.8,4.4
		c-0.4,1.2-0.6,1.9-0.6,1.9s0.5-0.6,1.2-1.6c0.7-1,1.7-2.4,2.4-4.2C99.9,223.8,100.3,222.1,100.4,220.8z"/>
	<radialGradient id="SVGID_40_" cx="130.9991" cy="137.524" r="98.2344" gradientUnits="userSpaceOnUse">
		<stop  offset="0.2" style="stop-color:#FFFFFF"/>
		<stop  offset="0.7" style="stop-color:#FFFFFF;stop-opacity:0.6"/>
		<stop  offset="1" style="stop-color:#FFFFFF"/>
	</radialGradient>
	<path class="st39" d="M98.8,217.5c0.1-1.2-0.1-2-0.1-2c0,0-0.2,0.7-0.6,1.8c-0.4,1.1-1,2.5-1.7,4.2c-0.7,1.6-1.3,3.1-1.6,4.3
		c-0.4,1.1-0.6,1.8-0.6,1.8s0.5-0.6,1.2-1.5c0.7-1,1.6-2.4,2.3-4C98.4,220.4,98.8,218.7,98.8,217.5z"/>
	<radialGradient id="SVGID_41_" cx="130.9991" cy="137.524" r="98.2344" gradientUnits="userSpaceOnUse">
		<stop  offset="0.2" style="stop-color:#FFFFFF"/>
		<stop  offset="0.7" style="stop-color:#FFFFFF;stop-opacity:0.6"/>
		<stop  offset="1" style="stop-color:#FFFFFF"/>
	</radialGradient>
	<path class="st40" d="M96.6,218.8c0.7-1.6,1-3.3,1-4.5c0-1.2-0.2-1.9-0.2-1.9c0,0-0.1,0.7-0.4,1.8c-0.3,1.1-0.9,2.5-1.6,4
		c-0.6,1.6-1.2,3-1.6,4.1c-0.4,1.1-0.6,1.8-0.6,1.8c0,0,0.5-0.5,1.2-1.4C95,221.8,95.9,220.4,96.6,218.8z"/>
	<radialGradient id="SVGID_42_" cx="130.9991" cy="137.524" r="98.2344" gradientUnits="userSpaceOnUse">
		<stop  offset="0.2" style="stop-color:#FFFFFF"/>
		<stop  offset="0.7" style="stop-color:#FFFFFF;stop-opacity:0.6"/>
		<stop  offset="1" style="stop-color:#FFFFFF"/>
	</radialGradient>
	<path class="st41" d="M95.7,215.5c0.7-1.7,0.9-3.4,0.8-4.6c0-0.6-0.1-1.1-0.2-1.4c0-0.2-0.1-0.3-0.1-0.4c0-0.1,0,0,0,0l0,0l0,0.1
		c0,0.1,0,0.2,0,0.4c0,0.3-0.1,0.8-0.3,1.3c-0.3,1.1-0.8,2.6-1.4,4.1c-1.3,3.1-2.6,5.7-2.6,5.7c0,0,0.6-0.5,1.4-1.3
		C94,218.5,95,217.1,95.7,215.5z"/>
	<radialGradient id="SVGID_43_" cx="130.9991" cy="137.524" r="98.2344" gradientUnits="userSpaceOnUse">
		<stop  offset="0.2" style="stop-color:#FFFFFF"/>
		<stop  offset="0.7" style="stop-color:#FFFFFF;stop-opacity:0.6"/>
		<stop  offset="1" style="stop-color:#FFFFFF"/>
	</radialGradient>
	<path class="st42" d="M136.8,72.1l0.3,0c0.5,0.1,1,0.3,1.7,0.7c1.6,0.8,3.6,2.5,5.4,4.6c1.8,2.1,3.1,4.4,3.7,6.1
		c0.2,0.7,0.4,1.3,0.4,1.8c0,0.1-0.1,0.2-0.1,0.2s0,0,0.1-0.1c0,0.2,0,0.4,0,0.5c-0.3,0.5-0.7,1-1,1.6c-0.8,1.6-1.5,3.7-1.7,5.9
		c-0.6,4.6,0.1,10.1,2.1,15.9c0.8,2.4,1.9,4.8,3.3,7.3c0.5,0.9,1,1.9,1.6,2.7l1.2-1c-0.3-0.5-0.6-1-0.9-1.5c-1.7-2.9-3-5.8-4-8.6
		c-1.9-5.6-2.7-10.9-2.2-15.2c0.2-2.1,0.7-4,1.4-5.5c0.7-1.5,1.6-2.7,2.5-3.5c0.5-0.5,1-0.9,1.4-1.2c0.2-0.1,0.4-0.1,0.7-0.1
		c-0.5,0.3-0.9,0.7-1.3,1c-1,1.1-1.8,2.3-2.3,3.5c-1,2.4-1.3,4.6-1.3,6.4c0,1.8,0.2,3.2,0.3,4.2c0.2,1,0.3,1.5,0.3,1.5s0-0.6,0-1.6
		c0-1,0.1-2.4,0.4-4.2c0.3-1.7,0.8-3.8,1.8-5.9c0.5-1,1.2-2,2-2.9c0.8-0.8,1.7-1.4,2.8-1.9c0,0,0.1,0,0.1,0c1,0.3,2.1,0.9,3.1,1.7
		c-0.5,0.2-1.2,0.7-1.9,1.3c-0.2,0.1-0.4,0.2-0.6,0.4c-0.9,0.7-1.9,1.7-2.8,3c-0.9,1.4-1.6,3.1-1.9,5.2c-0.3,2.1-0.2,4.4,0.3,6.8
		c0.5,2.4,1.4,4.9,2.6,7.3c1,2,2.3,4.1,3.8,6l1.2-1c-1.2-1.7-2.3-3.4-3.2-5.1c-0.2-0.4-0.4-0.8-0.6-1.1c-2.4-4.7-3.4-9.4-2.9-13.2
		c0.2-1.9,0.8-3.5,1.6-4.8c0.5-0.9,1.1-1.6,1.7-2.2c1.3-0.8,2-1.4,3.8-1.5c0.1,0,0.1,0,0.2,0c0.1,0.1,0.1,0.1,0.2,0.2l0.3-0.2
		c0.4-0.1,0.6-0.3,0.7-0.6l0,0c0,0,0,0,0,0c0.1-0.2,0.1-0.3,0.1-0.6c0-0.1,0-0.1,0-0.2c0.3-0.6,0.4-1.6,0.2-2.7
		c-0.1-1.2-0.5-2.6-1-4c-0.6-1.5-1.3-3-2.3-4.5c-1-1.5-2.1-2.8-3.3-3.9c-1.1-1.1-2.3-1.9-3.4-2.4c-2.1-1.1-3.5-1.3-3.5-1.3
		c0,0,1.4,0.5,3.2,1.9c0.9,0.7,1.9,1.6,2.9,2.7c1,1.1,2,2.4,2.9,3.8c0.9,1.4,1.7,2.9,2.3,4.2c0.6,1.3,1.1,2.6,1.4,3.7
		c0.2,0.8,0.3,1.4,0.3,1.9c0,0.4-0.1,0.7-0.4,0.9c-0.6-0.7-1.3-1.3-2-1.8c-0.9-0.6-1.9-1.1-2.9-1.3c-1-0.2-2-0.2-2.8,0
		c-0.9,0.2-1.6,0.5-2.2,0.9c-1.2,0.8-1.8,1.7-2.2,2.3c0,0.1-0.1,0.1-0.1,0.2c0-0.4,0-0.8-0.1-1.3c0-0.1-0.1-0.3-0.1-0.4l0.4,0.2
		c0.8-1.3,2.2-1.8,3.5-2c1.3-0.3,2.6-0.3,3.6-0.2c2.1,0.1,3.3,0.4,3.3,0.4c0,0-1.1-0.9-3.3-1.5c-1.1-0.3-2.5-0.5-4-0.2
		c-0.8,0.1-1.6,0.4-2.4,0.8c-0.5,0.3-1,0.8-1.4,1.3c-0.1-0.3-0.2-0.6-0.3-0.9c0.6-1,1.6-1.7,2.5-2.2c1-0.5,1.9-0.8,2.7-0.9
		c1.6-0.3,2.7-0.2,2.7-0.2c0,0-0.2-0.2-0.7-0.4c-0.5-0.2-1.2-0.4-2.2-0.5c-0.9,0-2.1,0.1-3.3,0.6c-0.6,0.3-1.2,0.7-1.7,1.2
		c-0.3,0.2-0.5,0.5-0.7,0.9c-0.1-0.2-0.3-0.5-0.4-0.8c1.2-2.1,3.2-3,4.7-3.5c0.8-0.3,1.5-0.4,2-0.5l0.7-0.2c0,0-0.3-0.1-0.8-0.2
		c-0.5-0.1-1.3-0.2-2.2-0.1c-0.9,0.1-2.1,0.3-3.3,1c-0.6,0.3-1.1,0.8-1.6,1.4c-0.2,0.2-0.3,0.5-0.5,0.7c-0.2-0.2-0.3-0.4-0.5-0.6
		c-0.2-0.2-0.4-0.4-0.6-0.6c0.8-0.9,1.5-1.7,2.2-2.3c0.8-0.7,1.6-1.2,2.4-1.5c0.7-0.3,1.4-0.5,1.8-0.5c0.5-0.1,0.7-0.1,0.7-0.1
		c0,0-0.3-0.1-0.8-0.3c-0.5-0.1-1.3-0.3-2.2-0.1c-1,0.1-2.1,0.6-3.1,1.4c-0.8,0.6-1.6,1.5-2.2,2.4c-0.3-0.3-0.6-0.5-0.9-0.8
		c1.3-2.1,2.8-3.6,4-4.6c1.3-1,2.2-1.4,2.2-1.4c0,0-0.3,0-0.8,0c-0.5,0-1.2,0.2-2.1,0.5c-0.8,0.4-1.8,1-2.7,1.8
		c-0.7,0.7-1.4,1.7-1.9,2.8c-0.3-0.2-0.6-0.4-0.9-0.5c0.9-2.3,1.9-4.1,2.8-5.2c1-1.2,2-1.6,2-1.6c0,0-0.3,0-0.8,0
		c-0.5,0.1-1.2,0.3-2,0.9c-0.8,0.5-1.5,1.4-2.1,2.4c-0.5,0.9-0.9,1.9-1.2,3c-0.1,0-0.1,0-0.2-0.1c-0.3-0.1-0.6-0.2-0.9-0.2
		c0.2-1.4,0.8-2.6,1.5-3.6c0.7-1.1,1.5-1.9,2.2-2.5c1.4-1.3,2.6-1.5,2.6-1.6c0,0-0.3-0.1-0.9,0c-0.6,0.1-1.5,0.2-2.4,0.8
		c-1,0.5-2,1.4-2.9,2.6c-0.4,0.6-0.8,1.3-1.1,2.1c-0.2,0.7-0.4,1.4-0.4,2.2c0,0,0,0,0,0c-0.5,0-0.8,0.1-0.8,0.1
		C135.9,71.9,136.3,71.9,136.8,72.1C136.8,72.1,136.8,72.1,136.8,72.1z M148.5,85.6c0-0.2,0.1-0.4,0.1-0.6c0.1-0.1,0.2-0.3,0.4-0.4
		c0.5-0.4,1.2-1,2.2-1.5c-0.3,0.2-0.6,0.4-0.9,0.7C149.7,84.3,149.1,84.9,148.5,85.6C148.5,85.7,148.5,85.7,148.5,85.6z"/>
	<radialGradient id="SVGID_44_" cx="130.9991" cy="137.524" r="98.2344" gradientUnits="userSpaceOnUse">
		<stop  offset="0.2" style="stop-color:#FFFFFF"/>
		<stop  offset="0.7" style="stop-color:#FFFFFF;stop-opacity:0.6"/>
		<stop  offset="1" style="stop-color:#FFFFFF"/>
	</radialGradient>
	<path class="st43" d="M181.2,111.4 M159.9,115.7c-19.4,15-42.5,33.3-53.2,41.8c0,0,0,0-0.1,0.1c-0.1,0.1-0.2,0.2-0.4,0.3
		c0,0-0.1,0-0.1,0s0,0,0.1,0c0,0,0.1,0.1,0.2,0.1c0.1,0.1,0.5,0.6,0.5,0.6c0,0,0,0,0,0c0.1-0.1,0.2-0.1,0.3-0.2c0,0,0,0,0.1-0.1
		c11.2-8.4,34.8-26.8,53.7-41.4L159.9,115.7"/>
	<radialGradient id="SVGID_45_" cx="130.9991" cy="137.524" r="98.2344" gradientUnits="userSpaceOnUse">
		<stop  offset="0.2" style="stop-color:#FFFFFF"/>
		<stop  offset="0.7" style="stop-color:#FFFFFF;stop-opacity:0.6"/>
		<stop  offset="1" style="stop-color:#FFFFFF"/>
	</radialGradient>
	<path class="st44" d="M151.8,91c0.5-1.4,1.1-2.5,1.7-3.4c0.6-0.9,1-1.5,1.4-1.9c0.3-0.4,0.5-0.6,0.5-0.6c0,0-0.2,0.2-0.6,0.6
		c-0.4,0.4-1,1-1.7,1.9c-0.7,0.9-1.4,2-2.1,3.4c-0.6,1.5-1.2,3.2-1.4,5.2c-0.2,2-0.2,4.2,0.3,6.6c0.4,2.3,1.3,4.8,2.4,7.2
		c1,2.1,2.3,4.3,3.8,6.3l1.2-1c-0.2-0.3-0.4-0.5-0.6-0.8c0-0.1-0.1-0.1-0.1-0.2c-0.1-0.1-0.2-0.2-0.3-0.4c-1.1-1.7-2.1-3.4-2.9-5.1
		c-1.1-2.3-1.9-4.6-2.4-6.8c-0.5-2.2-0.6-4.3-0.4-6.1C150.9,94,151.3,92.4,151.8,91z"/>
	<radialGradient id="SVGID_46_" cx="130.9991" cy="137.524" r="98.2344" gradientUnits="userSpaceOnUse">
		<stop  offset="0.2" style="stop-color:#FFFFFF"/>
		<stop  offset="0.7" style="stop-color:#FFFFFF;stop-opacity:0.6"/>
		<stop  offset="1" style="stop-color:#FFFFFF"/>
	</radialGradient>
	<path class="st45" d="M164.3,125.3c2.1,1.7,4.3,3.1,6.4,4c2.2,1,4.3,1.5,6.3,1.7c2,0.2,3.7,0.1,5.2-0.2c1.5-0.3,2.7-0.7,3.7-1.1
		c1-0.4,1.7-0.8,2.1-1.1c0.5-0.3,0.7-0.4,0.7-0.4c0,0-0.3,0.1-0.8,0.4c-0.5,0.2-1.3,0.6-2.3,0.9c-1,0.3-2.3,0.6-3.8,0.8
		c-1.5,0.1-3.3,0.1-5.1-0.3c-1.9-0.4-3.9-1.1-5.9-2.1c-2-1-4-2.4-5.9-4.1c-1.2-1-2.3-2.1-3.4-3.3c-0.3-0.3-0.5-0.6-0.7-0.8l-1.2,1
		C161,122.4,162.6,123.9,164.3,125.3z"/>
	<radialGradient id="SVGID_47_" cx="130.9991" cy="137.524" r="98.2344" gradientUnits="userSpaceOnUse">
		<stop  offset="0.2" style="stop-color:#FFFFFF"/>
		<stop  offset="0.7" style="stop-color:#FFFFFF;stop-opacity:0.6"/>
		<stop  offset="1" style="stop-color:#FFFFFF"/>
	</radialGradient>
	<path class="st46" d="M197,149.5c0.8,0.2,1.6,0.2,2.4,0.1c0.8-0.1,1.6-0.3,2.3-0.6c1.4-0.6,2.4-1.4,3.1-2.2
		c0.7-0.8,1.1-1.6,1.3-2.1c0.2-0.5,0.2-0.8,0.2-0.8c0,0-0.6,1.2-2.3,2.2c-0.8,0.5-1.8,1.1-3,1.5c-1.1,0.4-2.4,0.6-3.8,0.5
		c0-0.3,0-0.6,0-0.9c0-0.1,0-0.1,0-0.2c1.2,0,2.3-0.2,3.3-0.5c1.2-0.3,2.1-0.9,2.8-1.5c0.7-0.6,1.1-1.2,1.2-1.7
		c0.2-0.4,0.2-0.7,0.2-0.7c0,0-0.7,0.9-2.1,1.6c-1.3,0.6-3.3,1-5.7,1.4c-0.1-0.3-0.2-0.7-0.3-1c1.3-0.2,2.4-0.7,3.3-1.2
		c1.1-0.7,1.9-1.4,2.4-2.2c0.5-0.7,0.8-1.4,1-1.8c0.2-0.5,0.2-0.7,0.2-0.7c0,0-0.7,0.9-2,1.9c-1.3,1-3.1,2-5.3,2.7
		c-0.2-0.4-0.3-0.7-0.5-1.1c1.2-0.4,2.2-0.9,3-1.6c1-0.8,1.7-1.8,2.1-2.7c0.4-0.9,0.4-1.6,0.4-2.1c0-0.5-0.1-0.7-0.1-0.7
		c0,0-0.1,0.3-0.3,0.7c-0.2,0.4-0.5,1.1-1,1.7c-0.5,0.6-1.2,1.3-2.1,1.9c-0.8,0.5-1.7,1-2.7,1.5c-0.2-0.2-0.3-0.5-0.5-0.7
		c-0.1-0.2-0.3-0.4-0.5-0.6c0.3-0.1,0.6-0.2,0.9-0.3c0.7-0.3,1.3-0.8,1.8-1.2c1-1,1.5-2.1,1.7-2.9c0.3-0.9,0.4-1.6,0.4-2.1
		c0-0.5,0-0.8,0-0.8l-0.4,0.7c-0.2,0.4-0.6,1.1-1,1.8c-0.9,1.3-2.3,3-4.5,3.6c-0.2-0.2-0.4-0.4-0.6-0.6c0.4-0.1,0.8-0.3,1.1-0.5
		c0.6-0.4,1.2-0.9,1.6-1.4c0.8-1.1,1.2-2.2,1.4-3.1c0.2-0.9,0.1-1.7,0.1-2.2c-0.1-0.5-0.2-0.7-0.2-0.7c0,0-0.2,1.1-0.9,2.7
		c-0.4,0.8-0.9,1.6-1.6,2.4c-0.7,0.8-1.6,1.5-2.7,1.8c-0.3-0.2-0.5-0.4-0.8-0.5c0.7-0.3,1.2-0.7,1.7-1.1c0.7-0.7,1.1-1.4,1.4-2.2
		c0.6-1.5,0.7-2.8,0.7-3.9c0-1.1-0.2-2-0.3-2.5c-0.1-0.6-0.3-0.9-0.3-0.9c0,0,0,1.4-0.5,3.4c-0.2,1-0.6,2.2-1.1,3.4
		c-0.6,1.2-1.4,2.3-2.8,2.8l0.1,0.4c-0.1-0.1-0.3-0.1-0.4-0.2c-0.4-0.2-0.9-0.3-1.2-0.4c0.1,0,0.2,0,0.3-0.1
		c0.7-0.2,1.8-0.6,2.8-1.7c0.5-0.5,1-1.2,1.4-2c0.4-0.8,0.6-1.7,0.6-2.7c0-1.6-0.6-3.4-1.5-4.9c0.6-0.3,1.3-0.3,2-0.1
		c0.2,0.1,0.4,0.2,0.6,0.3c1,0.5,2.1,1.3,3.2,2.3c1.1,1,2.4,2.1,3.5,3.3c1.1,1.3,2.2,2.5,3,3.8c0.8,1.2,1.4,2.4,1.9,3.5
		c0.9,2.1,1,3.5,1,3.5c0,0,0.2-1.4-0.4-3.8c-0.3-1.1-0.8-2.5-1.5-3.8c-0.7-1.4-1.7-2.8-2.9-4.1c-1.2-1.3-2.5-2.4-3.8-3.3
		c-1.3-0.9-2.5-1.6-3.6-2c-1-0.4-1.9-0.5-2.6-0.4c-0.3,0-0.5,0-0.8,0c0,0-0.1-0.1-0.1-0.1l-0.4,0.3c-0.3,0.1-0.5,0.3-0.7,0.5l0,0
		l0,0c-0.1,0.1-0.2,0.3-0.3,0.4c-0.1,0.3-0.2,0.6-0.2,0.9l-1.6,2.3c-0.9,0.5-1.9,1-3.2,1.3c-1.5,0.4-3.3,0.5-5.2,0.2
		c-3.9-0.6-8.1-2.9-12-6.4c-0.2-0.2-0.4-0.3-0.5-0.5c-1.2-1.1-2.4-2.4-3.5-3.7l-1.2,1c1.5,1.8,3.1,3.4,4.7,4.7
		c2.1,1.8,4.3,3.2,6.5,4.2c2.2,1,4.4,1.6,6.4,1.8c2,0.1,3.9-0.2,5.4-0.7c1.1-0.4,2-0.9,2.8-1.5c0.1,0,0.1-0.1,0.2-0.1
		c1.1-0.2,2.2-1.3,2.6-2.5c0.6,1.3,0.9,2.5,0.9,3.7c-0.8,1-1.7,1.8-2.7,2.4c-1.1,0.6-2.2,1-3.4,1.2c-2.3,0.4-4.4,0.3-6.1,0.2
		c-1.7-0.2-3.1-0.4-4-0.6c-0.9-0.2-1.4-0.3-1.4-0.3s0.5,0.3,1.4,0.7c0.9,0.4,2.3,1,4.1,1.4c1.8,0.4,4,0.7,6.6,0.2
		c1.3-0.2,2.6-0.7,3.8-1.4c0.4-0.2,0.8-0.5,1.2-0.9c-0.1,0.2-0.2,0.5-0.4,0.7c-0.4,0.4-0.9,0.8-1.6,1.2c-1,0.6-2.5,1.2-4.2,1.5
		c-1.7,0.3-3.7,0.2-5.9-0.2c-4.3-0.8-9.3-2.9-14.2-6.2c-2.4-1.7-4.8-3.6-7-5.9l-1.2,1c0.3,0.3,0.6,0.6,0.9,0.9
		c2.3,2.2,4.6,4.1,7,5.6c5.2,3.3,10.4,5.2,14.9,5.7c2.2,0.2,4.3,0.1,6-0.4c0.5-0.1,0.9-0.3,1.4-0.5c0.1,0,0.3,0.1,0.5,0.2
		c-0.1,0-0.1,0.1-0.1,0.1s0.1,0,0.2,0c0.5,0.2,1,0.5,1.6,0.9c1.5,1,3.4,2.8,5,5.1c1.6,2.3,2.7,4.6,3.1,6.4c0.2,0.7,0.2,1.3,0.2,1.8
		l-0.1,0.3c0,0,0,0,0.1,0c0,0.6-0.1,0.9-0.1,0.9C196.8,150.3,196.9,150,197,149.5C197,149.5,197,149.5,197,149.5z M186.6,134.6
		c0.9-0.4,1.7-0.9,2.3-1.3c0.2-0.2,0.4-0.3,0.6-0.5c-0.7,0.8-1.4,1.3-1.9,1.6c-0.2,0.1-0.3,0.2-0.5,0.3
		C187,134.7,186.8,134.7,186.6,134.6z"/>
	<radialGradient id="SVGID_48_" cx="130.9991" cy="137.524" r="98.2344" gradientUnits="userSpaceOnUse">
		<stop  offset="0.2" style="stop-color:#FFFFFF"/>
		<stop  offset="0.7" style="stop-color:#FFFFFF;stop-opacity:0.6"/>
		<stop  offset="1" style="stop-color:#FFFFFF"/>
	</radialGradient>
	<path class="st47" d="M231.3,217c-0.1-0.3-0.3-0.5-0.3-0.5s0.1,0.2,0.1,0.4c-0.1-0.5-0.4-1-0.3-0.3c0,0,0,0.2-0.1,0.6
		c0,0.2-0.1,0.4-0.2,0.7c-0.1,0.3-0.2,0.5-0.4,0.7c-0.2,0.2-0.5,0.4-0.9,0.4c-0.4,0-0.8-0.1-1.2-0.3c-0.9-0.4-1.8-1-2.8-1.7
		c-0.5-0.4-1-0.8-1.5-1.3c-0.5-0.5-1-1-1.4-1.5c-0.4-0.5-0.8-1.2-1.2-1.9c-0.4-0.7-0.7-1.4-1.1-2.2c-0.8-1.5-1.6-3.1-2.7-4.7
		c-0.6-0.8-1.2-1.6-2.1-2.2c-0.5-0.3-1-0.6-1.6-0.7c-0.6-0.1-1.5,0.6-2.1,0.9c-0.3-0.4-0.7-0.8-1.1-1.3c-1.9-2.5-3.9-6.6-5.4-12
		c-0.4-1.4-0.7-2.8-0.9-4.3c-0.2-1.5-0.4-3.1-0.4-4.7c0-3.3,0.4-6.8,1-10.5c0.6-3.7,1.5-7.6,2.1-11.7c0.6-4.1,0.9-8.4,0.2-12.8
		c0.2-0.3,0.3-0.7,0.4-1c0.3-1.1,0.2-2.2,0-3.1c-0.2-0.8-0.5-1.4-0.8-1.8c-0.2-0.4-0.4-0.6-0.4-0.6s0.1,0.2,0.2,0.7
		c0.1,0.4,0.3,1.1,0.3,1.8c0,0.8-0.1,1.7-0.4,2.6c-0.4,0.9-1,1.8-1.9,2.5c-1.7,1.5-3.8,2.3-5.3,2.7c-1.5,0.4-2.6,0.3-2.6,0.3
		c0,0,0.7,0.3,1.9,0.4l0,0c1,2,1.3,4.3,1.3,6.5c0,2.2-0.3,4.4-0.5,6.6c-0.1,1.1-0.3,2.1-0.4,3.2c-0.1,1.1-0.2,2.1-0.2,3.2
		c-0.1,2.1-0.1,4.1,0,6.1c0.1,3.9,0.6,7.6,1.4,11c0.8,3.4,1.8,6.4,3.1,8.9c1.3,2.6,2.7,4.7,4.1,6.4c1.2,1.4,2.3,2.5,3.4,3.4l0,0
		c1,1.9,2.4,4.6,3.6,6.2c1,1.4,2.2,2.6,3.4,3.7c-15-7.6-28.8-14.9-41.2-21.5c-14.3-7.6-26.9-14.2-37.3-19.6
		c-9.8-5.1-17.8-9.2-23.4-12c0.1-0.9,0.4-3.2,0.9-5.8c0.3-1.7,0.7-3.1,1.1-4.2c0.2-0.5,0.4-1,0.5-1.3c0.1-0.2,0.1-0.3,0.2-0.3l0-0.1
		c0,0,0,0,0,0c0,0,0,0,0,0l0,0c0,0,0.1-0.1,0,0c-0.1,0.1-0.2,0.1-0.3,0.2c-0.2,0.2-0.6,0.6-0.9,1.1c-0.7,1-1.5,2.5-1.8,4.3
		c-0.4,1.8-0.3,3.4-0.1,4.6c0.1,0.6,0.2,1,0.3,1.4c-0.7-0.3-1.3-0.7-1.9-1c0.2-0.8,0.3-1.6,0.5-2.5c0.3-1.7,0.6-3.2,0.9-4.2
		c0.3-1.1,0.6-1.7,0.6-1.7c0,0-0.6,0.5-1.2,1.5c-0.7,1-1.3,2.5-1.6,4.3c-0.1,0.8-0.2,1.5-0.2,2.2c0,0.2,0,0.3,0,0.4
		c0,0.7,0,1.4,0.1,1.9c0.1,1.2,0.3,1.9,0.3,1.9s0.2-0.7,0.4-1.8c0.1-0.4,0.2-0.9,0.3-1.4c5.8,3.3,14.7,8.4,26.2,14.7
		c10.5,5.8,23,12.8,37.2,20.4c13.7,7.3,29.8,14.7,46.1,22.5c0.3,0.2,0.7,0.4,1.1,0.5c0.2,0.1,0.4,0.2,0.6,0.2l0,0c0,0,0,0,0,0
		c0.5,0.2,1,0.3,1.5,0.4c0.7,0.1,1.3,0.1,1.9,0c0.6-0.1,1.1-0.2,1.6-0.5c0.5-0.2,0.9-0.5,1.2-0.9c0.3-0.3,0.5-0.7,0.6-1.1
		C231.7,217.8,231.5,217.3,231.3,217z M231.2,217C231.2,217,231.2,217,231.2,217C231.2,217,231.2,217,231.2,217
		C231.2,217,231.2,217,231.2,217z M231.3,217.3C231.3,217.3,231.3,217.3,231.3,217.3C231.3,217.3,231.3,217.3,231.3,217.3z
		 M214.4,208c0,0.1,0,0.1-0.1,0.2c-0.4-0.2-0.8-0.5-1.3-0.9c-0.3-0.2-0.7-0.5-1.1-0.8c-0.1-0.1-0.3-0.3-0.5-0.4
		c-1.2-1-2.6-2.4-3.9-4.3c-1.3-1.8-2.6-4.1-3.7-6.7c-2.2-5.3-3.5-12.1-3.6-19.7c0-1.9,0-3.9,0.1-5.9c0.1-1,0.1-2,0.2-3l0.4-3.1
		c0.2-2.1,0.5-4.3,0.4-6.5c-0.1-2.1-0.4-4.2-1.3-6.2c0.7-0.1,1.4-0.2,2.2-0.5c1.1-0.4,2.2-0.9,3.2-1.8c0.2-0.2,0.3-0.3,0.5-0.4
		c0.3,3.9-0.1,7.7-0.7,11.4c-0.7,4.2-1.6,8.1-2.2,11.9c-0.6,3.8-0.9,7.5-0.7,10.8c0,0.8,0.1,1.7,0.2,2.5c0.1,0.8,0.2,1.6,0.4,2.4
		c0.3,1.5,0.8,2.9,1.2,4.2c1.8,5.3,4.1,9.2,6.1,11.4c0.8,0.9,1.5,1.5,2.2,1.9l0,0c1.1,0.7,1.7,1.5,1.9,2.4c0,0.2,0.1,0.4,0.1,0.6
		c0,0.1,0,0.2,0,0.3C214.4,207.9,214.5,207.9,214.4,208z M226.2,219.8c-1.1-0.4-2.3-1.1-3.5-2c-0.6-0.4-1.2-0.9-1.8-1.4l-0.9-0.8
		c-0.3-0.3-0.6-0.5-0.9-0.8c-1.2-1.1-2.4-2.4-3.5-3.9c-0.4-0.5-0.7-1-1-1.5c0.4-0.1,0.8-0.3,1-0.7c0,0,0,0,0,0s0,0,0,0
		c0.1-0.1,0.1-0.2,0.2-0.3c0-0.1,0.1-0.2,0.1-0.3c0-0.1,0.1-0.2,0.1-0.2c0-0.2,0.1-0.3,0.1-0.5c0-0.3,0-0.7-0.1-1
		c0-0.2-0.1-0.4-0.2-0.5c0.1,0.2,0.3,0.4,0.4,0.6c1,1.5,1.8,3.1,2.7,4.6c0.4,0.7,0.8,1.5,1.2,2.2c0.4,0.7,0.9,1.4,1.5,2
		c1.1,1.1,2.2,1.9,3.3,2.6c1.1,0.7,2.2,1.5,3.2,1.7c0.5,0.1,1.3,0.2,1.7,0C228.9,220.2,227.5,220.3,226.2,219.8z M230,219.7
		C230,219.7,230,219.7,230,219.7C230,219.7,230,219.7,230,219.7z M230.8,219.1c0,0,0.1-0.1,0.1-0.1C230.9,219,230.9,219,230.8,219.1
		z M231.1,218.6C231.1,218.6,231.2,218.6,231.1,218.6C231.2,218.6,231.2,218.6,231.1,218.6C231.2,218.6,231.1,218.6,231.1,218.6z
		 M231.3,218.2c0-0.3,0-0.7,0-0.8C231.3,217.6,231.3,217.9,231.3,218.2z"/>
	<radialGradient id="SVGID_49_" cx="130.9991" cy="137.524" r="98.2344" gradientUnits="userSpaceOnUse">
		<stop  offset="0.2" style="stop-color:#FFFFFF"/>
		<stop  offset="0.7" style="stop-color:#FFFFFF;stop-opacity:0.6"/>
		<stop  offset="1" style="stop-color:#FFFFFF"/>
	</radialGradient>
	<path class="st48" d="M75,28.3c3.9,19.4,8,38.2,11.9,53.9c3.9,15.7,7.5,29.5,10.4,40.9c3.1,12,5.7,21.2,7.3,27.4
		c-0.5,0-1,0-1.5-0.1c-1.2,0-1.9,0-1.9,0s0.7,0.3,1.7,0.7c0.5,0.2,1.2,0.4,1.9,0.5c0.1,0,0.3,0.1,0.4,0.1c0.7,0.1,1.4,0.2,2.1,0.3
		c1.8,0.1,3.4-0.1,4.6-0.5c1.1-0.4,1.7-0.8,1.7-0.8c0,0-0.7,0.1-1.8,0.2c-1.1,0-2.6,0-4.3-0.2c-0.9-0.1-1.7-0.1-2.5-0.2
		c-0.1-0.6-0.3-1.3-0.4-2c0.3,0.2,0.7,0.4,1.2,0.6c1.1,0.5,2.7,1,4.5,1.1c1.8,0.1,3.5-0.2,4.6-0.7c0.6-0.2,1-0.4,1.3-0.6
		c0.1-0.1,0.2-0.2,0.3-0.2c0.1-0.1,0-0.1,0-0.1l0,0l0,0l-0.1,0c-0.1,0-0.2,0-0.4,0.1c-0.3,0.1-0.8,0.1-1.3,0.2
		c-1.1,0.1-2.7,0.1-4.3,0c-2.6-0.1-4.9-0.4-5.8-0.5c-1.4-6.5-3.5-15.7-6.1-27c-2.7-11.7-6-25.6-9.7-41.2c-3.2-13.2-6.6-27.7-10-42.9
		c0.5,0.9,1.2,1.7,1.9,2.6c1,1.2,3.4,3.4,5,4.8c0.6,1.3,1.5,2.9,2.7,4.5c1.4,1.9,3.2,3.8,5.5,5.6c2.3,1.9,5,3.6,8.1,5.1
		c3.1,1.5,6.6,2.9,10.3,3.9c1.9,0.5,3.8,1,5.8,1.4c1,0.2,2,0.4,3.1,0.5c1,0.1,2.1,0.3,3.1,0.4c2.1,0.3,4.2,0.6,6.2,1.1
		c2,0.6,4,1.4,5.7,2.8l0,0c-0.2,1.2-0.1,2-0.1,2c0,0,0.2-1,0.9-2.4c0.7-1.4,2-3.2,3.9-4.5c0.9-0.6,1.9-1,2.9-1.2
		c1-0.1,1.9,0,2.6,0.2c0.7,0.2,1.3,0.5,1.7,0.7c0.4,0.2,0.6,0.4,0.6,0.4s-0.2-0.2-0.5-0.5c-0.3-0.3-0.8-0.8-1.6-1.2
		c-0.7-0.4-1.8-0.8-3-0.7c-0.4,0-0.7,0-1.1,0.1c-4.3-1.8-8.8-2.6-13-3c-4.3-0.4-8.3-0.5-12.1-0.8c-3.8-0.3-7.3-0.8-10.4-1.8
		c-1.6-0.5-3-1-4.4-1.6c-1.4-0.6-2.6-1.3-3.8-2c-4.7-2.8-8-5.7-9.8-8.1c-0.6-0.8-1.1-1.6-1.4-2.2l1.4,2.2c0.4-0.5,0.5-2.4,0.5-3
		c0-0.7-0.1-1.3-0.4-1.8c-0.5-1.1-1.1-1.9-1.7-2.6c-1.3-1.5-2.7-2.7-4-3.8c-0.6-0.6-1.3-1.1-1.8-1.7c-0.6-0.5-1.1-1.1-1.4-1.6
		c-0.8-1.2-1.4-2.4-1.9-3.5c-0.5-1.1-0.8-2.1-0.9-3c0-0.4,0-0.9,0.1-1.2c0.1-0.3,0.4-0.6,0.6-0.7c0.6-0.3,1.1-0.2,1.4-0.2
		c0.3,0,1.1,0.4,1.1,0.4s-0.1-0.2-0.4-0.5l0,0c0,0-0.1-0.1-0.2-0.2c0,0,0,0-0.1-0.1c0,0,0,0,0,0c-0.1,0-0.1-0.1-0.2-0.2
		c-0.3-0.2-0.8-0.6-1.6-0.6c-0.4,0-0.8,0.1-1.2,0.4c-0.4,0.2-0.8,0.6-1.1,1c-0.3,0.4-0.6,1-0.8,1.5c-0.1,0.3-0.2,0.6-0.2,0.9
		c-0.1,0.3-0.1,0.7-0.1,1c0,1,0.1,2.1,0.5,3.2L75,28.3z M83.8,40.9c0-0.1,0-0.2,0.1-0.2c0.1-0.1,0.2-0.2,0.3-0.2
		c0.1,0.3,0.2,0.7,0.3,1.1C84.2,41.4,84,41.2,83.8,40.9z M87.4,43.1c0.3,0.8,0.7,1.7,1.5,2.8c1.8,2.6,5.2,5.9,10,8.9
		c1.2,0.8,2.5,1.5,3.9,2.2c1.4,0.7,3,1.2,4.6,1.7c3.3,1,6.9,1.5,10.7,1.8c3.8,0.3,7.7,0.4,11.8,0.8c3.5,0.3,7.1,0.9,10.7,2.1
		c-0.2,0.1-0.4,0.2-0.5,0.3c-1.1,0.7-2,1.7-2.6,2.7c-0.5,0.7-0.8,1.4-1,2c-1.8-1.4-3.9-2.3-6-2.9c-2.3-0.6-4.5-0.9-6.7-1.2
		c-1.1-0.1-2.1-0.3-3.2-0.4c-1-0.2-2-0.4-3.1-0.6c-2-0.4-3.9-0.9-5.8-1.4c-3.7-1-7.1-2.3-10.1-3.8c-3-1.5-5.6-3.1-7.8-4.8
		c-2.2-1.7-4-3.5-5.3-5.2c-1.4-1.7-2.3-3.3-3-4.7c0-0.1-0.1-0.2-0.1-0.3c-0.2-0.4-0.4-0.9-0.5-1.2c-0.2-0.6-0.4-1.1-0.5-1.5
		c0.1,0,0.1,0,0.2,0c0.1,0,0.3,0,0.5,0.1c0.2,0.1,0.4,0.1,0.6,0.2C86.3,41.2,87,42,87.4,43.1L87.4,43.1z M79.5,21.8
		c-0.3-0.1-0.5-0.1-0.7-0.1c-0.1,0-0.2,0-0.4,0c0,0,0,0,0,0C78.9,21.6,79.2,21.7,79.5,21.8z M76.7,22.9c-0.2,0.4-0.2,1.2-0.1,1.7
		c0.3,1.5,0.6,2.3,1,3.5c0.2,0.6,0.5,1.3,0.8,1.9c0.3,0.6,0.6,1.3,1.1,2c0.5,0.7,1,1.3,1.6,1.9c0.6,0.6,1.2,1.1,1.8,1.7
		c1.2,1.2,2.5,2.3,3.7,3.7c0.1,0.1,0.2,0.3,0.3,0.4c-0.2-0.1-0.4-0.3-0.6-0.4c-0.3-0.1-0.7-0.2-1-0.3c-0.2,0-0.3,0-0.5,0
		c-0.2,0-0.4,0-0.6,0.1c0,0-0.1,0-0.1,0c0,0,0,0,0,0s0,0,0,0c-0.5,0.1-0.8,0.5-1,0.8c-0.5-0.5-0.9-1-1.3-1.5c-1.2-1.5-2.1-3-2.9-4.5
		c-0.5-1.1-1-2.1-1.5-3.1c-0.3-0.6-0.5-1.3-0.8-1.9c-0.4-1.1-0.7-2.2-0.7-3.2C75.9,24.7,76.2,23.6,76.7,22.9z"/>
</g>
<path class="st49" d="M162.8,115.3c-0.2,0-0.4-0.1-0.5-0.3c-0.1-0.2-0.2-0.4-0.2-0.6c0-0.2,0.1-0.4,0.3-0.5l8-6.2
	c0.3-0.2,0.5-0.6,0.5-1c0-0.4-0.2-0.8-0.6-1c-0.7-0.4-1.5-0.7-2.3-0.8c-0.5-0.1-1-0.1-1.5,0c-0.1,0-0.1,0-0.2,0
	c-0.3,0-0.6-0.3-0.7-0.6c0-0.2,0-0.4,0.1-0.6c0.1-0.2,0.3-0.3,0.5-0.3c0.6-0.1,1.2-0.1,1.9,0c1.4,0.2,2.8,0.8,4,1.8
	c0.2,0.2,0.4,0.2,0.6,0.3c0.3,0,0.6,0,0.9-0.2l7.5-5.8c0.4-0.3,0.5-0.8,0.4-1.3c-0.1-0.5-0.5-0.8-1-0.9l-9.5-1.2
	c-0.4-0.1-0.7-0.4-0.7-0.8c0.1-0.4,0.4-0.7,0.8-0.7l14.2,1.8c0.1,0,0.1,0,0.2,0l0.1,0.1l0.2,0.1c0,0,0.1,0.1,0.2,0.2
	c0,0,0,0.1,0,0.1c0,0,0,0.1,0,0.1c0,0.1,0,0.1,0,0.2c0,0-1.8,14.2-1.8,14.2c-0.1,0.4-0.4,0.7-0.8,0.7c-0.4-0.1-0.7-0.4-0.7-0.8
	l1.2-9.5c0.1-0.5-0.2-1-0.6-1.2c-0.1-0.1-0.3-0.1-0.4-0.1c-0.3,0-0.6,0-0.9,0.2l-7.5,5.8c-0.4,0.3-0.6,1-0.3,1.5
	c0.9,2,1,4.2,0.3,6.1c-0.1,0.3-0.5,0.5-0.8,0.5c-0.1,0-0.1,0-0.2-0.1c-0.2-0.1-0.3-0.2-0.4-0.4c-0.1-0.2-0.1-0.4,0-0.6
	c0.5-1.2,0.6-2.6,0.2-3.9c-0.1-0.4-0.4-0.7-0.8-0.8c-0.1,0-0.1,0-0.2,0c-0.3,0-0.6,0-0.9,0.2l-8,6.2
	C163.2,115.3,163,115.3,162.8,115.3L162.8,115.3z"/>
</svg>
