<?xml version="1.0" encoding="utf-8"?>
<!-- Generator: Adobe Illustrator 21.1.0, SVG Export Plug-In . SVG Version: 6.00 Build 0)  -->
<svg version="1.1" id="Layer_12" xmlns="http://www.w3.org/2000/svg" xmlns:xlink="http://www.w3.org/1999/xlink" x="0px" y="0px"
	 viewBox="0 0 255.1 255.1" style="enable-background:new 0 0 255.1 255.1;" xml:space="preserve">
<style type="text/css">
	.st0{fill:#FFFFFF;}
	.st1{fill:url(#SVGID_1_);}
	.st2{fill:url(#SVGID_2_);}
	.st3{fill:url(#SVGID_3_);}
	.st4{fill:url(#SVGID_4_);}
	.st5{fill:url(#SVGID_5_);}
	.st6{fill:url(#SVGID_6_);}
	.st7{fill:url(#SVGID_7_);}
	.st8{fill:url(#SVGID_8_);}
	.st9{fill:url(#SVGID_9_);}
	.st10{fill:url(#SVGID_10_);}
	.st11{fill:url(#SVGID_11_);}
	.st12{fill:url(#SVGID_12_);}
	.st13{fill:url(#SVGID_13_);}
	.st14{fill:url(#SVGID_14_);}
	.st15{fill:url(#SVGID_15_);}
	.st16{fill:url(#SVGID_16_);}
</style>
<path class="st0" d="M128.1,233.9c-7.2,0-13-5.8-13-12.9c0-3.9,1.7-7.5,4.8-10c0.5-0.4,0.7-1,0.6-1.6c-0.1-0.6-0.6-1.1-1.2-1.3
	c-5.4-1.7-9.7-4.8-12-8.7c-0.1-0.2-0.2-0.5-0.1-0.8c0.1-0.3,0.2-0.5,0.5-0.6c0.2-0.1,0.3-0.1,0.5-0.1c0.4,0,0.7,0.2,0.9,0.5
	c3.1,5.4,10.7,8.9,18.9,8.9c8.2,0,15.8-3.6,18.9-9c0.2-0.3,0.5-0.5,0.9-0.5c0.2,0,0.4,0,0.5,0.1c0.2,0.1,0.4,0.4,0.5,0.6
	c0.1,0.3,0,0.5-0.1,0.8c-2.3,3.9-6.5,7-12,8.7c-0.6,0.2-1,0.7-1.2,1.3c-0.1,0.6,0.1,1.2,0.6,1.6c3,2.5,4.8,6.1,4.8,10
	C141,228.1,135.2,233.9,128.1,233.9L128.1,233.9z M128.1,210.2c-6,0-10.8,4.8-10.8,10.8c0,5.9,4.9,10.8,10.8,10.8
	s10.8-4.8,10.8-10.8C138.9,215,134,210.2,128.1,210.2L128.1,210.2z"/>
<g>
	<radialGradient id="SVGID_1_" cx="128.9991" cy="126.3574" r="119.0821" gradientUnits="userSpaceOnUse">
		<stop  offset="0.2" style="stop-color:#FFFFFF"/>
		<stop  offset="0.7" style="stop-color:#FFFFFF;stop-opacity:0.6"/>
		<stop  offset="1" style="stop-color:#FFFFFF"/>
	</radialGradient>
	<path class="st1" d="M218.2,73.3c-0.3-1.3-0.8-2.6-1.3-3.9c-0.6-1.3-1.3-2.6-2.2-3.7c-1.7-2.3-3.8-4.1-6-5.7
		c-2.2-1.5-4.5-2.8-6.8-3.9c-2.3-1.1-4.6-2.1-6.8-3.1l-1.6-0.7l-0.8-0.4c-0.3-0.1-0.6-0.2-0.9-0.3c-1.1-0.4-2.2-0.8-3.3-1.2
		c-4.4-1.5-8.5-2.8-12.3-4.3c-3.8-1.5-7.1-3.1-9.9-5.1c-1.4-1-2.6-2.1-3.5-3.2c-1-1.2-1.7-2.4-2.3-3.6c-1.1-2.5-1.2-4.9-1.1-6.8
		c0.1-1.7,0.4-3.1,0.6-4.1c0.2-0.4,0.4-0.8,0.5-1.1c0.4-0.7,0.6-1.1,0.6-1.1c0,0-0.3,0.3-0.7,1c-0.1,0.1-0.2,0.2-0.2,0.4
		c0.2-0.7,0.3-1,0.3-1s-0.2,0.5-0.5,1.4c-0.4,0.6-0.8,1.4-1.3,2.4c-0.6,1.4-1.3,3.2-1.7,5.5c-0.1,0.4-0.1,0.8-0.2,1.3
		c-0.1,0-0.2,0.1-0.3,0.1l0.3,0.3c0,0.6-0.1,1.3-0.1,2c0,1.3,0.1,2.6,0.3,4c0.1,0.8,0.3,1.6,0.5,2.4c0,0,0,0.1-0.1,0.1l0.1,0
		c0.5,2.1,1.3,4.2,2.4,6.3c1.6,3,3.7,5.9,6.6,8.5c1.4,1.3,3,2.5,4.7,3.5c0.9,0.5,1.8,1,2.7,1.4c0.2,0.1,0.5,0.2,0.7,0.3
		c0.2,0.1,0.5,0.2,0.7,0.3c0.5,0.2,0.9,0.4,1.4,0.6c3.8,1.6,7.7,2.8,11.2,4.6c1.8,0.9,3.4,2,4.7,3.3c1.3,1.3,2.2,2.9,2.6,4.6
		c0.1,0.4,0.2,0.8,0.2,1.3c0.1,0.5,0.1,0.9,0.2,1.4c0.1,0.9,0.1,1.8,0,2.7c-0.1,1.7-0.6,3.4-1.4,4.8c-0.8,1.4-2,2.5-3.3,3.4
		c-1.3,0.9-2.8,1.5-4.3,2c-3,1-6,1.5-8.7,2.1c-2.7,0.5-5.2,1-7.3,1.6c-0.9,0.3-1.8,0.5-2.6,0.8c-0.3,0-0.6,0-0.9,0.1
		c-1.2,0.1-2.5,0.4-3.9,1c-1.3,0.6-2.4,1.5-3.1,2.7c-0.5-1.1-1.4-2.3-2.5-3.3c-1.5-1.3-3.5-2.3-5.7-3c-1.1-0.4-2.2-0.7-3.3-1
		c-0.6-0.2-1.1-0.3-1.7-0.5c-0.3-0.1-0.5-0.2-0.8-0.3l-0.4-0.1l-0.4-0.2c-2.4-1-5-1.7-7.7-2.2c-2.7-0.5-5.6-0.9-8.6-1
		c-0.7,0-1.5,0-2.2,0c-0.4,0-0.7,0-1.1,0.1c-0.4,0-0.7,0.1-1.1,0.1c-1.5,0.2-2.8,0.4-4.2,0.7c-2.7,0.5-5.3,1.2-7.7,1.8
		c-2.4,0.7-4.7,1.4-6.8,2.3c-0.5,0.2-1,0.4-1.5,0.7c-0.5,0.2-1,0.5-1.5,0.7c-0.9,0.5-1.8,1-2.6,1.5c-0.8,0.5-1.6,1.1-2.2,1.8
		c-0.6,0.7-1,1.5-1.3,2.2c-0.1,0.2-0.1,0.4-0.2,0.7c-0.1-0.3-0.2-0.5-0.3-0.8c-0.7-1.2-1.9-2.2-3.2-2.8c-1.3-0.6-2.7-0.9-3.9-1
		c-0.3,0-0.6,0-0.9-0.1c-0.8-0.3-1.6-0.6-2.6-0.8c-2.1-0.6-4.6-1.1-7.3-1.6c-2.7-0.5-5.7-1.1-8.7-2.1c-1.5-0.5-3-1.1-4.3-2
		c-1.4-0.9-2.5-2-3.3-3.4c-0.8-1.4-1.2-3-1.4-4.8c-0.1-0.9-0.1-1.8,0-2.7c0-0.5,0.1-0.9,0.2-1.4c0.1-0.5,0.1-0.9,0.3-1.3
		c0.4-1.7,1.3-3.2,2.6-4.6c1.3-1.3,2.9-2.4,4.7-3.3c3.6-1.9,7.5-3.1,11.2-4.6c0.5-0.2,1-0.4,1.4-0.6c0.2-0.1,0.4-0.2,0.7-0.3
		c0.2-0.1,0.5-0.2,0.7-0.3c0.9-0.4,1.8-0.9,2.7-1.4c1.7-1,3.3-2.2,4.7-3.5c2.8-2.6,5-5.5,6.6-8.5c1.1-2.1,1.9-4.2,2.4-6.3l0.1,0
		c0,0,0-0.1-0.1-0.1c0.2-0.8,0.4-1.6,0.5-2.4c0.2-1.4,0.3-2.8,0.3-4c0-0.7,0-1.3-0.1-2c0-0.1,0-0.3,0-0.4c0-0.4-0.1-0.9-0.2-1.3
		c-0.4-2.2-1-4-1.7-5.5c-0.6-1.4-1.3-2.5-1.7-3.1c-0.5-0.7-0.7-1-0.7-1s0.2,0.4,0.6,1.1c0.4,0.7,0.9,1.8,1.4,3.2
		c0.5,1.4,1,3.3,1.2,5.4c0,0.3,0,0.7,0.1,1c0,0.3,0,0.9,0.1,1.5l-0.1,0.1c0-0.5,0-1.1,0-1.6c-0.1,0-0.3,0.1-0.3,0.1
		c-0.4,0.2-1.3,0.4-1.3,0.4c0,0,0.9,0.1,1.1,0.3c0.1,0.1,0.2,0.3,0.2,0.4c0,0.1,0.2,0.5,0.3,0.9c0,0.1,0,0.1,0,0.2
		c-0.1,1.2-0.3,2.5-0.6,3.8c-0.1,0.4-0.2,0.8-0.3,1.2c-0.1-0.1-0.2-0.1-0.2-0.2c-0.6-0.3-1.1-0.5-1.5-0.6c-0.8-0.2-1.3-0.2-1.3-0.2
		c0,0,0.3,0.3,0.9,0.8c0.3,0.3,0.6,0.6,0.8,1c0.3,0.4,0.4,0.9,0.4,1.3l0.1,0c-0.6,1.6-1.3,3.2-2.2,4.8c-0.2,0.4-0.5,0.7-0.7,1.1
		c-0.4-0.5-0.8-0.9-1.2-1.3c-0.7-0.6-1.4-1.1-1.9-1.5c-1.1-0.7-1.8-0.9-1.8-0.9c0,0,0.5,0.5,1.3,1.5c0.4,0.5,0.9,1.1,1.3,1.8
		c0.4,0.6,0.8,1.4,1.1,2.2c-1.3,1.6-2.7,3.2-4.4,4.7c-0.1,0.1-0.2,0.2-0.3,0.2c0,0,0-0.1,0-0.1c-0.3-0.5-0.5-0.9-0.8-1.2
		c-0.6-0.7-1.1-1.2-1.6-1.6c-0.9-0.8-1.5-1.1-1.5-1.1c0,0,0.4,0.6,0.9,1.6c0.3,0.5,0.6,1.1,0.9,1.8c0.2,0.6,0.5,1.2,0.5,1.8
		c-0.8,0.6-1.6,1.1-2.5,1.6c-0.8,0.5-1.6,0.9-2.5,1.2c-0.2,0.1-0.4,0.2-0.6,0.3c-0.2,0.1-0.5,0.2-0.7,0.3c-0.4,0.2-0.7,0.3-1.1,0.4
		c-0.1-0.2-0.1-0.3-0.2-0.5c-0.3-0.7-0.7-1.2-1-1.7c-0.7-1-1.5-1.7-2.1-2.3c-1.2-1.2-2-1.7-2-1.7c0,0,0.6,0.7,1.4,2.1
		c0.4,0.7,0.9,1.6,1.4,2.6c0.2,0.5,0.5,1.1,0.6,1.6c0.1,0.2,0.1,0.4,0.1,0.6c-2.6,1-5.4,1.9-8.2,3.2c-0.5-1-1.1-1.8-1.6-2.5
		c-0.8-0.9-1.6-1.6-2.3-2.1c-1.4-1-2.3-1.2-2.3-1.2c0,0,0.8,0.5,1.8,1.7c0.5,0.6,1.1,1.4,1.6,2.4c0.4,0.8,0.8,1.6,1,2.6
		c-1.7,0.9-3.3,1.9-4.7,3.2c-0.3-0.4-0.6-0.6-0.9-0.8c-0.7-0.5-1.1-0.6-1.1-0.6c0,0,0.2,0.4,0.5,1c0.1,0.3,0.2,0.7,0.3,1.2
		c0,0.1,0,0.2,0,0.3c-1.4,1.6-2.4,3.5-2.9,5.5c-0.1,0.4-0.2,0.8-0.2,1.2c-0.3,0.1-0.6,0.2-0.8,0.3c-0.5,0.2-0.8,0.4-0.8,0.4
		s0.3,0.2,0.7,0.4c0.2,0.1,0.4,0.2,0.7,0.3c0,0.2,0,0.4,0,0.6c-0.1,1,0,2.1,0.1,3.1c0,0.4,0.1,0.7,0.1,1.1c-0.2,0.1-0.3,0.2-0.4,0.3
		c-0.3,0.3-0.4,0.6-0.4,0.6c0,0,0.3,0,0.6,0.1c0.1,0,0.3,0.1,0.4,0.2c0.3,1.3,0.8,2.5,1.5,3.6c0.9,1.5,2.2,2.7,3.6,3.6
		c-0.4,0.3-0.7,0.6-0.9,0.9c-0.6,0.6-0.8,1-0.8,1s0.4-0.2,1.1-0.4c0.6-0.2,1.3-0.3,2.2-0.6c1.3,0.7,2.7,1.1,4,1.5
		c0.5,0.1,0.9,0.2,1.3,0.3c-0.4,0.5-0.7,1-0.9,1.4c-0.4,0.7-0.5,1.2-0.5,1.2l1-0.6c0.7-0.4,1.6-1,2.7-1.4c1.9,0.3,3.6,0.6,5.3,0.8
		c0.1,0,0.1,0,0.2,0c-0.1,0.3-0.3,0.6-0.4,0.9c-0.2,0.6-0.4,1.2-0.5,1.6c-0.3,0.9-0.5,1.4-0.5,1.4c0,0,0.4-0.3,1.1-1
		c0.7-0.6,1.4-1.7,2.5-2.7c1.8,0.2,3.5,0.5,5,0.8c0.1,0,0.1,0,0.2,0c-1.6,0.2-2.5,0.6-2.5,0.6c0,0,1.1,0.1,2.8,0.4
		c0.4,0.1,0.8,0.2,1.2,0.3c0.1,0.8,0.1,1.6,0.1,2.3l0,2.1c0,1.2,0,1.8,0,1.8s0.3-0.6,0.7-1.6c0.2-0.5,0.5-1.2,0.7-2
		c0.2-0.6,0.4-1.2,0.5-2c1,0.3,1.9,0.6,2.9,1.1c1.1,0.5,2,1.1,2.6,1.8c0.3,0.4,0.6,0.8,0.7,1.3c-0.1,1.5-0.2,5.7-1,10.3
		c-0.2,1.5-0.5,2.8-0.9,4c-0.4,1.2-0.8,2.2-1.4,3c-0.5,0.8-1.1,1.4-1.5,1.7c-0.4,0.3-0.7,0.5-0.7,0.5c0,0,0.3,0,0.9-0.2
		c0.6-0.2,1.4-0.6,2.2-1.3c0.8-0.7,1.6-1.8,2.3-3.1c0.6-1.3,1.1-2.8,1.4-4.4c0.5-3.2,0.2-6.1-0.2-8.1c0,0,0-0.1,0-0.1
		c0-0.1,0-0.1,0-0.2c0.1-0.3,0.3-0.7,0.4-1.1c0.1-0.3,0.1-0.6,0.1-0.9c0.2-0.7,0.4-1.4,0.8-2.2c0.3-0.6,0.7-1.2,1.3-1.8
		c0.6-0.5,1.3-1,2.1-1.4c0.8-0.4,1.7-0.8,2.6-1.2c0.5-0.2,1-0.4,1.4-0.6c0.5-0.2,1-0.3,1.5-0.5c2.1-0.6,4.3-1.2,6.8-1.7
		c2.4-0.5,4.9-1,7.6-1.5c1.3-0.2,2.6-0.4,4-0.5c0.3,0,0.7-0.1,1-0.1c0.3,0,0.7,0,1,0c0.7,0,1.4,0,2.1,0c2.8,0.1,5.5,0.3,8.1,0.8
		c2.6,0.4,5.1,1,7.4,1.8l0.4,0.1c0.2,0.1,0.3,0.1,0.5,0.2c0.3,0.1,0.6,0.2,0.9,0.2c0.6,0.2,1.2,0.3,1.8,0.4c1.2,0.3,2.3,0.5,3.3,0.8
		c2.1,0.5,3.9,1.3,5.4,2.3c1.4,0.9,2.3,2.1,2.9,3.4c0,0.1,0.1,0.2,0.1,0.2c0.3,0.7,0.5,1.3,0.6,2c-0.1,0.4-0.2,0.9-0.3,1.4
		c0,0.1,0,0.1,0,0.2c-0.4,2-0.8,4.9-0.2,8.1c0.3,1.6,0.7,3.1,1.3,4.4c0.6,1.3,1.4,2.3,2.3,3.1c0.8,0.7,1.6,1.1,2.2,1.3
		c0.1,0,0.1,0,0.2,0.1c-0.5,0.5-1,1-1.3,1.6c-0.6,1-0.7,2-0.8,2.7c-0.1,0.8,0,1.4,0,1.8c0,0.4,0.1,0.6,0.1,0.6s0-0.2,0-0.6
		c0-0.4,0.1-1,0.3-1.7c0.2-0.7,0.5-1.6,1.1-2.4c0.6-0.8,1.5-1.5,2.7-2c1.2-0.5,2.6-0.7,4.1-0.8c1.5-0.1,3.2,0,4.9,0.1
		c3.5,0.3,7.4,0.8,11.5,1.2c4.1,0.4,8.1,0.6,11.8,0c1.8-0.3,3.6-0.8,5.1-1.5c0.6-0.3,1.2-0.7,1.7-1.1c-0.3,0.4-0.6,0.7-1,1.1
		c-2.3,2.2-4.9,3.6-6.9,4.5c-2,0.9-3.4,1.2-3.4,1.3c0,0,1.4,0.2,3.7-0.2c1.1-0.2,2.3-0.5,3.6-1c-0.4,0.4-0.8,0.8-1.2,1.3
		c-0.7,0.6-1.6,1.2-2.6,1.6c-1,0.5-2.1,0.8-3.4,1.1c-2.5,0.5-5.3,0.6-8.3,0.6c-0.7,0-1.4-0.1-2.1-0.1l-2.2-0.2
		c-1.4-0.1-2.8-0.3-4.2-0.3c-2.7-0.1-5.2,0.1-7.2,0.7c-1,0.3-1.9,0.8-2.5,1.3c-0.7,0.6-1,1.2-1.2,1.8c-0.2,0.6-0.2,1-0.2,1.3
		c0,0.3,0,0.5,0,0.5s0-0.2,0.1-0.4c0.1-0.3,0.2-0.7,0.5-1.2c0.3-0.5,0.7-1,1.3-1.3c0.3-0.2,0.8-0.4,1.3-0.5c0.2,0,0.5-0.1,0.8-0.1
		c0.6,0,1.3,0,2.2,0.1c0.8,0.1,1.7,0.3,2.7,0.6c1.8,0.5,3.5,1.1,4.9,1.3c-0.5,0.2-1,0.4-1.4,0.6c-0.8,0.2-1.5,0.3-2.1,0.3
		c-1.3,0-2.1-0.3-2.2-0.1c0,0.1,0.1,0.3,0.5,0.5c0.3,0.2,0.9,0.5,1.6,0.6c0.7,0.2,1.6,0.2,2.6,0c1-0.2,2-0.6,2.9-1.2
		c0.9-0.5,1.7-1.1,2.5-1.6c0.2-0.1,0.3-0.2,0.5-0.3c0.4,0,0.8,0.1,1.3,0.1c0.2,0,0.4,0,0.6,0c-0.1,0.1-0.1,0.2-0.2,0.3
		c-0.4,0.7-1,1.5-1.7,2.3c-0.7,0.8-1.7,1.5-2.8,2c-1.1,0.5-2.3,0.7-3.3,0.7c-1,0-2-0.3-2.8-0.5c-1.5-0.6-2.4-1.2-2.6-1
		c-0.1,0.1,0.1,0.3,0.4,0.7c0.4,0.4,0.9,0.8,1.7,1.3c0.8,0.4,1.9,0.8,3.1,0.9c1.2,0.1,2.7-0.1,4-0.7c1.3-0.6,2.4-1.5,3.2-2.4
		c0.8-0.9,1.3-1.9,1.7-2.8c0.1-0.3,0.2-0.5,0.3-0.8c2.5-0.1,4.9-0.3,7.1-1c1.2-0.4,2.4-0.8,3.4-1.4c-0.5,0.8-1.3,1.9-2.2,3.1
		c-1.1,1.4-2.5,3.1-4.2,4.7c-1.7,1.6-3.8,3.2-6.1,4.4c-2.3,1.3-4.8,2.1-7.1,2.6c-2.3,0.5-4.4,0.6-6.2,0.5c-1.8,0-3.3-0.2-4.3-0.4
		c-1-0.1-1.6-0.3-1.6-0.3c0,0,0.5,0.2,1.5,0.6c1,0.3,2.4,0.8,4.3,1.1c0.7,0.1,1.4,0.2,2.1,0.3c-0.1,0.6-0.2,1.6-0.3,2.1c0,0,0,0,0,0
		c-0.7-1.4-1.4-2.1-1.4-2.1c0,0,0.3,1,0.4,2.6c0.2,1.4,0.2,3.3,0,5.4c-0.8-1.4-1.7-2.6-2.6-3.6c-1-1.2-2-2.2-2.8-3l-1.6-1.7
		c0.1-0.7,0.1-1.4,0-2c-0.3-1.5-0.9-2.5-1.3-3.2c-0.4-0.7-0.7-1-0.7-1c0,0,0.1,0.4,0.4,1.2c0.2,0.7,0.5,1.9,0.5,3.2
		c0,0.2,0,0.4,0,0.7c0,0.1,0,0.3-0.1,0.4c-0.1,0.3-0.2,0.6-0.3,0.9c-0.3,0.6-0.7,1.2-1.4,1.7c-1.3,0.9-3.1,1.5-5.1,2
		c-2,0.5-4,0.8-5.8,1.2c-1.8,0.4-3.5,0.7-4.8,1.2c-0.7,0.2-1.3,0.5-1.9,0.8c1.4-1.6,2.9-3.5,4.5-5.7c0.2,0.3,0.5,0.5,0.7,0.7
		c0.2,0.3,0.5,0.5,0.8,0.8c0.6,0.5,1.3,0.8,2,1c1.3,0.4,2.5,0.4,3.4,0c0.9-0.4,1.4-1,1.6-1.4c0.1-0.2,0.2-0.3,0.2-0.4
		c0.2-0.2,0.3-0.5,0.5-0.7c0.1-0.2,0.2-0.3,0.2-0.5c0.1-0.3,0.2-0.5,0.3-0.8c0.2-0.6,0.4-1.2,0.5-1.8c0.4-1.9,0.3-3.7-0.4-4.9
		c-0.3-0.6-0.8-1.1-1.2-1.4c0,0-0.1,0-0.1,0c0.1,0,0.2-0.1,0.2-0.1c0.6-0.1,1.1-0.1,1.6,0.1c0.5,0.2,0.8,0.5,1.1,0.7
		c0.6,0.5,0.9,0.9,0.9,0.9c0,0-0.1-0.4-0.5-1.2c-0.2-0.4-0.5-0.8-1-1.2c-0.5-0.4-1.3-0.8-2.1-0.8c-0.9,0-1.8,0.2-2.7,0.6
		c-0.9,0.4-1.7,1-2.5,1.6c-1,0.8-2,1.8-2.9,2.9c0.4-0.6,0.9-1.2,1.3-1.7c1.2-1.5,2.4-2.8,3.7-3.8c1.3-1,2.6-1.6,3.8-1.7
		c1.2-0.1,2.1,0.3,2.8,0.7c0.6,0.4,0.9,0.6,0.9,0.6c0,0-0.2-0.3-0.8-0.8c-0.3-0.2-0.6-0.5-1.1-0.8c-0.5-0.2-1.1-0.4-1.8-0.5
		c-0.7-0.1-1.5,0-2.2,0.3c-0.8,0.2-1.5,0.6-2.3,1.1c-1.5,1-2.9,2.3-4.1,3.9c-2.5,3.1-4.1,6.3-5.2,8.7c-1,2.4-1.5,3.9-1.5,3.9
		s0.4-0.6,1-1.7c-0.7,1.2-1.3,2.4-1.8,3.4c-0.7,1.3-1.2,2.3-1.6,3c-0.4,0.7-0.7,1-0.7,1c0,0,0.4-0.2,1.1-0.7
		c0.6-0.5,1.5-1.3,2.4-2.4c0.7-0.3,1.7-0.5,3-0.7c1.4-0.2,3-0.3,4.9-0.4c1.8-0.2,3.9-0.4,6-0.9c1.1-0.2,2.1-0.6,3.1-1
		c1-0.4,1.9-1,2.7-1.7c0.7-0.7,1.2-1.5,1.5-2.4c0.3,0.5,0.7,1,1.1,1.5c0.7,1,1.5,2.1,2.4,3.3c0.8,1.2,1.6,2.6,2.2,4.2
		c0.6,1.5,0.8,3.3,0.6,5.1c-0.2,1.8-0.9,3.6-1.8,5.5c-0.5,1.1-1.1,2.2-1.7,3.4c-0.1,0-1.3,0.9-3.1,2.6c-0.9,0.9-1.9,2-2.9,3.3
		c-1,1.3-2,2.9-2.9,4.6c-1.7,3.5-2.6,6.8-3.3,9.2c0,0,0,0.1,0,0.1c-0.1-0.5-0.2-1.1-0.4-1.6c0-0.2-0.1-0.3-0.2-0.5
		c0.1-0.2,0.1-0.3,0.2-0.5c0.4-1.5,1-3.4,1.6-5.6c0.3-0.7,0.7-1.3,1.1-1.9c0.8-1.2,1.6-2.4,2.4-3.5c1.7-2.2,3.4-4.2,4.8-6.2
		c1.5-2,2.8-3.9,3.7-5.8c0.9-1.9,1.4-3.9,1.2-5.7c-0.2-1.8-0.9-3.2-1.7-4.2c-0.8-1-1.7-1.8-2.4-2.3c-1.4-1.1-2.3-1.5-2.3-1.5
		c0,0,0.8,0.5,2.2,1.7c0.7,0.6,1.5,1.4,2.2,2.5c0.7,1.1,1.4,2.5,1.4,4.2c0.1,1.7-0.5,3.5-1.4,5.3c-1,1.8-2.3,3.6-3.8,5.5
		c-1.5,1.9-3.2,3.8-5,6c-0.5,0.6-1,1.3-1.5,2c0.2-0.9,0.3-1.7,0.4-2.3c0.3-1.6,0.3-2.6,0.3-2.6s-0.6,0.8-1.4,2.3
		c-0.8,1.4-1.8,3.5-2.4,5.9c-0.5,1.8-0.6,3.5-0.7,4.9c-0.2-0.3-0.4-0.6-0.6-0.8c-0.3-0.4-0.7-0.8-1-1.2c0.1-0.2,0.1-0.4,0.2-0.6
		l1.4-4.1c0.5-1.6,1-3,1.5-4c0.5-1,0.9-1.7,0.9-1.7c0,0-0.7,0.2-1.7,1c-1,0.8-3.9,5.6-4.5,7.5c0,0.1-0.1,0.2-0.1,0.3
		c-1.8-1.1-3.8-1.6-5.7-1.8c-2.1-0.3-4.1-0.1-5.9,0.2c-1.8,0.3-3.5,0.8-4.9,1.4c-2.9,1.2-5,2.6-6.2,3.8c-1.3,1.1-1.8,1.9-1.8,1.9
		c0,0,0.7-0.7,2-1.6c1.4-1,3.5-2.2,6.4-3c1.4-0.4,3-0.8,4.7-0.9c1.7-0.2,3.6-0.2,5.5,0.2c1.9,0.3,3.8,1,5.4,2.1
		c1.6,1.1,2.8,2.8,3.5,4.8c0.3,1,0.5,2,0.5,3.1c0,0.5,0,1,0,1.6c0,0.5,0,1.1,0,1.6c-0.1,2.1-0.4,4.1-0.9,5.9
		c-1.3,5.2-9.5,12-10.4,13.1c0.9-0.6,6.8-4.5,11-10.4c0.1-0.2,0.3-0.4,0.5-0.6c0.3-0.5,0.5-0.9,0.7-1.5c0,0.3,0,0.5,0,0.7
		c0.6-1.1,1.3-2.3,2-3.4c0,0,0,0,0,0c0.5-1.4,1.2-2.8,1.8-4.2c1.2-2.7,2.8-5.9,4.7-9.5c1.9-3.5,4-7.4,6.1-11.5
		c1-2.1,2.1-4.1,2.9-6.2c0.9-2.1,1.6-4.3,1.7-6.5c0-0.7,0-1.4-0.1-2.1c0.3-1.1,0.6-2.4,0.7-3.7c0-0.6,0.1-1.2,0-1.8
		c0-0.3,0-0.6-0.1-0.8c0,0,0,0,0,0c0,0,0,0,0,0c0-0.1,0-0.2,0-0.3c-0.1-0.9-0.2-3.3-0.2-3.6c0.1-0.4,0.2-0.9,0.3-1.2
		c0.1-0.4,0.2-0.7,0.3-0.9c0.1-0.1,0.1-0.2,0.2-0.3c1,0,2,0,3.2-0.1c2.5-0.3,5.3-1.1,7.8-2.5c2.6-1.4,4.7-3.2,6.4-5.1
		c1.7-1.9,2.9-3.7,3.8-5.4c0.9-1.6,1.5-3,1.9-4c0-0.1,0-0.1,0.1-0.1c0.9-0.6,1.6-1.2,2.2-1.9c0.8-0.9,1.3-1.8,1.7-2.6
		c1.1-0.6,2.2-1.4,3.2-2.3c1.3-1.3,2.3-2.8,2.9-4.2c0.6-1.5,0.9-2.9,1-4c0.1-1.2,0-2.1-0.1-2.7c-0.1-0.6-0.2-1-0.2-1s-0.1,0.4-0.2,1
		c-0.1,0.6-0.3,1.5-0.6,2.5c-0.1,0.3-0.2,0.5-0.3,0.8c0-0.2,0.1-0.4,0.1-0.5c0.2-1.1,0.2-2,0.2-2.8c-0.1-1.5-0.2-2.3-0.2-2.3
		c0,0,0,0.8-0.1,2.3c-0.1,0.7-0.2,1.6-0.5,2.6c-0.3,1-0.8,2.1-1.6,3.1c-0.8,1-1.9,1.8-3.3,2.4c-1.4,0.6-2.9,0.9-4.7,1.1
		c-3.4,0.3-7.3,0-11.3-0.4c-0.3,0-0.7-0.1-1-0.1c1.1-0.2,2.3-0.4,3.6-0.7c2.7-0.7,5.7-1.9,8.8-3.6c3.1-1.7,6.3-4,9.2-7
		c2.9-3,5.7-6.7,7.5-11.1c0.2-0.6,0.4-1.1,0.6-1.7l0.3-0.8l0.3-0.9c0.3-1.2,0.6-2.4,0.9-3.6c0.5-2.4,0.8-5,0.7-7.6
		C219.2,78.6,218.9,76,218.2,73.3z M182.4,130.8c-0.2-0.1-0.5-0.2-0.8-0.3c-0.8-0.3-1.7-0.7-2.8-1.1c1.2,0.1,2.5,0.3,3.9,0.5
		c0.3,0.1,0.7,0.1,1,0.1C183.3,130.2,182.9,130.5,182.4,130.8z M153,142.9c1.1-1.4,2.1-2.8,3.1-3.9c2.1,0.4,3.6,3.7,2.4,5.6
		c1.2-1.1,2.1-6.7,0.5-8.2c0.1-0.1,0.2-0.1,0.4-0.2c0.1,0.1,0.2,0.1,0.3,0.2c0.4,0.3,0.7,0.8,0.9,1.4c0.4,1.2,0.4,2.8-0.2,4.5
		c-0.3,0.9-0.7,1.7-1.2,2.6c-0.4,0.6-0.9,1.2-1.6,1.6c-0.2,0.1-0.5,0.1-0.8,0.2c0,0-0.1,0-0.1,0c-0.5,0-1.1-0.1-1.6-0.4
		c-0.4-0.2-0.7-0.4-1.1-0.7c-0.4-0.3-0.7-0.7-0.9-1.2c0-0.1-0.1-0.2-0.1-0.3C153,143.7,153,143.3,153,142.9z M168.5,170.7
		c-2.1,4.1-4.1,8.1-5.7,11.8c-1.6,3.7-3.7,7.5-4.6,10.5c-0.2,0.6-0.4,1.2-0.5,1.8c0-0.4,0.1-0.9,0.1-1.3c0-0.6,0.1-1.1,0.1-1.7
		c0-0.5,0-1.1,0-1.7c0-0.1,0-0.1,0-0.2c0.3-0.4,0.5-0.9,0.9-1.5c1.2-2.2,2.6-5.3,4.3-8.6c1.6-3.3,3.3-6.2,4.7-8.2
		c1.2-1.9,2.1-3.1,2.2-3.3C169.4,168.9,168.9,169.8,168.5,170.7z M215.2,77.8c0.2-0.7,0.4-1.7,0.4-2.7c0.3,1.5,0.6,3,0.7,4.5
		c-0.3-0.3-0.6-0.5-0.9-0.7c-0.2-0.1-0.3-0.2-0.5-0.3C215,78.3,215.1,78.1,215.2,77.8z M158.8,39.4c-0.1-0.4-0.2-0.8-0.3-1.2
		c-0.3-1.3-0.5-2.6-0.6-3.8c0-0.3,0-0.5,0-0.8l0.2,0.2c0-0.2,0-0.4,0.1-0.5c0-0.2,0.1-0.3,0.2-0.4c0.2-0.3,0.4-0.4,0.4-0.4
		c0,0-0.1-0.2-0.5-0.3c-0.1,0-0.2-0.1-0.4-0.1c0-0.3,0-0.7,0.1-1c0.2-2.1,0.7-4,1.2-5.4c0.1-0.4,0.3-0.7,0.4-1
		c-0.2,0.8-0.4,1.8-0.6,2.9c-0.2,1.9-0.2,4.4,0.7,7.2c0.5,1.3,1.2,2.6,2.1,3.9c0,0-0.5,0-1.2,0.2c-0.4,0.1-0.9,0.2-1.5,0.6
		C159,39.3,158.9,39.3,158.8,39.4z M162.4,47.5c-0.2-0.4-0.5-0.7-0.7-1.1c-0.9-1.6-1.7-3.2-2.2-4.8l0.1,0c0-0.4,0.2-0.9,0.4-1.3
		c0.3-0.4,0.6-0.7,0.8-1c0.5-0.5,0.9-0.8,0.9-0.8c0,0,0.1,0.1,0.1,0.1c1,1.3,2.2,2.5,3.6,3.7c0.6,0.5,1.3,1,2,1.5
		c-0.1,0-0.8,0.3-1.8,0.9c-0.6,0.3-1.2,0.8-1.9,1.5C163.3,46.5,162.8,46.9,162.4,47.5z M188,117.4c-0.3-0.2-0.9-0.6-1.1-0.8
		c0.5,0.2,1.1,0.4,1.9,0.4c0.2,0,0.4,0,0.6,0C188.9,117.1,188.4,117.2,188,117.4z M198.9,112.7c-0.3,0.2-0.6,0.4-0.9,0.5
		c-0.2-0.5-0.5-1-0.7-1.5c0.4,0.2,0.8,0.3,1.3,0.3c0.4,0,0.9,0,1.3-0.1C199.6,112.2,199.2,112.4,198.9,112.7z M206.1,106.9
		c-0.1-0.4-0.2-0.8-0.3-1.2c0.5,0.1,1,0.1,1.5-0.1C206.9,106.1,206.5,106.5,206.1,106.9z M211.4,99.8c-0.7,0.9-1.6,2-2.6,3.2
		c-0.5,0.6-1,1.1-1.6,1.4c-0.5,0.4-1,0.5-1.5,0.6c0,0-0.1,0-0.2,0c0-0.1,0-0.1,0-0.2c-0.4-1.3-1-2.5-1.7-3.6
		c-1.3-2.1-2.7-3.6-3.9-4.8c-1.2-1.2-2.3-1.9-3-2.4c-0.7-0.5-1.1-0.7-1.1-0.7c0,0,0.4,0.3,1,0.9c0.6,0.6,1.6,1.5,2.6,2.8
		c1,1.3,2.2,2.9,3.1,5c0.9,1.9,1.5,4.1,1.5,6.5c-0.2,0.1-0.3,0.3-0.6,0.4c-0.8,0.5-1.9,1.1-3.1,1.5c-1.2,0.4-2.4,0.6-3.3,0.4
		c-0.1,0-0.2-0.1-0.4-0.1c-0.6-1.1-1.3-2.1-1.9-2.9c-1.2-1.7-2.2-3-3.1-4.1c-1.8-2.2-2.8-3.3-2.8-3.3c0,0,0.8,1.4,2.2,3.8
		c0.7,1.2,1.6,2.7,2.5,4.5c0.9,1.7,1.8,3.6,2.5,5.7c-0.7,0.4-1.4,0.7-2,1c-0.2,0-0.5,0-0.8,0c0.5-0.5,0.9-1,1.2-1.5
		c0.6-1,0.6-1.7,0.6-1.7c0,0-0.4,0.5-1.2,1.2c-0.8,0.7-1.9,1.4-3.3,1.9c-0.2,0.1-0.4,0.1-0.5,0.2c-0.1,0-0.2,0-0.3,0
		c-1.7,0-3.1,0-4.1-0.3c0,0,0,0,0,0c-0.3-0.5-0.6-0.9-0.9-1.4c-0.7-1.2-1.3-2.4-1.7-3.6c-0.9-2.3-1.5-4.4-2-6.1
		c-0.9-3.4-1.3-5.4-1.3-5.3c0,0,0.1,2,0.6,5.6c0.3,1.8,0.6,4,1.4,6.5c0.4,1.2,0.8,2.6,1.5,3.9c0.5,0.9,1,1.9,1.7,2.8
		c-0.1,0.3-0.2,0.3-0.3,0.5c-1-0.1-2.1-0.2-3.1-0.3c0,0,0.1-0.1,0.1-0.1c0.6-0.7,0.7-1.2,0.7-1.2c0,0-0.4,0.3-1.2,0.6
		c-0.7,0.3-1.6,0.5-2.6,0.5c-0.5,0-1,0-1.5-0.1c-0.2,0-0.3,0-0.4,0c-1.2-1.9-2.2-3.7-2.9-5.4c-0.9-1.8-1.5-3.5-2.1-4.8
		c-1.1-2.7-1.7-4.1-1.7-4.1c0,0,0.3,1.6,1,4.4c0.4,1.4,0.8,3.2,1.5,5.1c0.5,1.5,1.1,3.1,1.9,4.8c-0.9,0-1.9,0.1-2.8,0.2
		c-1.6,0.2-3.1,0.6-4.4,1.3c-0.5,0.3-0.9,0.6-1.3,0.9c-0.1-0.1-0.2-0.1-0.2-0.2c-0.4-0.4-1-0.9-1.5-1.7c-0.5-0.8-1-1.8-1.3-3
		c-0.4-1.2-0.7-2.6-0.9-4c-0.5-3.2-0.7-6.1-0.9-8.1c0-0.6,0-1.3-0.1-2.1c0,0,0-0.1,0-0.1c0.2-0.4,0.4-0.9,0.7-1.3
		c0.6-0.7,1.5-1.3,2.6-1.8c1-0.4,2-0.8,2.9-1.1c0.1,0.7,0.3,1.4,0.5,2c0.3,0.8,0.5,1.4,0.7,2c0.5,1.1,0.7,1.7,0.7,1.7
		c0,0,0-0.6,0-1.8l0-2.1c0-0.5,0-1.1,0-1.8c3-0.7,5.7-0.7,7.5-0.3c1,0.2,1.7,0.5,2.2,0.8c0.5,0.3,0.7,0.5,0.7,0.5
		c0,0-0.1-0.3-0.5-0.7c-0.4-0.4-1.1-0.9-2-1.3c-1.2-0.5-2.8-1-4.7-1.1c1.8-0.3,3.9-0.6,6.1-0.8c1.7-0.2,3.4-0.4,5.3-0.8
		c1.1,0.5,2,1,2.7,1.4l1.1,0.6c0,0-0.1-0.4-0.5-1.1c-0.2-0.4-0.5-0.9-0.9-1.4c0.4-0.1,0.9-0.2,1.3-0.3c1.3-0.4,2.7-0.8,4-1.5
		c0.9,0.2,1.6,0.4,2.2,0.6c0.7,0.2,1.2,0.4,1.2,0.4c0,0-0.2-0.4-0.7-1c-0.2-0.3-0.6-0.6-0.9-0.9c1.3-0.9,2.6-2.1,3.6-3.6
		c0.7-1.1,1.2-2.3,1.5-3.6c0.2-0.1,0.3-0.1,0.4-0.2c0.3-0.1,0.6-0.1,0.6-0.1c0,0-0.1-0.3-0.4-0.6c0,0-0.1-0.1-0.2-0.1
		c0.3,0.1,0.8,0.3,1.5,0.5c1.1,0.5,2.7,1.2,4.4,2.6c1.7,1.4,3.6,3.3,5.1,6.1c1.3,2.4,2.3,5.5,2.3,8.9
		C211.5,99.5,211.5,99.6,211.4,99.8z M214,94.9c-0.2,0.6-0.5,1.1-0.7,1.7c-0.2-0.8-0.4-1.6-0.6-2.3c0.3-0.1,0.6-0.4,0.9-0.6
		c0.5-0.4,0.9-1,1.4-1.7C214.7,93,214.4,94,214,94.9z M216.3,83.8c0,0.1,0,0.2-0.1,0.4c-0.2,1.2-0.7,2.9-1.4,4.6
		c-0.6,1.8-1.3,3.4-1.9,4.4c-0.2,0.3-0.3,0.5-0.5,0.7c-0.6-1.5-1.3-2.9-2.1-4.1c-1.8-2.8-4-4.7-5.9-5.9c-1.9-1.2-3.6-1.8-4.7-2.1
		c-0.8-0.2-1.3-0.3-1.5-0.4c-0.1-0.1-0.1-0.1-0.2-0.2c0.1-0.4,0.1-0.7,0.1-1.1c0.1-1,0.1-2.1,0.1-3.1c0-0.2,0-0.4-0.1-0.6
		c0.3-0.1,0.5-0.2,0.7-0.3c0.5-0.2,0.8-0.4,0.8-0.4s-0.3-0.2-0.8-0.4c-0.2-0.1-0.5-0.2-0.8-0.3c-0.1-0.4-0.1-0.8-0.2-1.2
		c-0.5-2-1.5-3.9-2.9-5.5c0,0,0,0,0,0c0-0.2,0-0.4,0.1-0.5c0.1-0.4,0.2-0.7,0.4-1c0.3-0.6,0.5-0.9,0.5-0.9c0,0-0.4,0.1-1,0.4
		c-0.3,0.2-0.7,0.4-1.1,0.8c0,0-0.1,0.1-0.1,0.1c-1.4-1.2-2.9-2.2-4.5-3.1c0,0,0,0,0,0c0.2-0.9,0.6-1.8,1-2.6c0.5-1,1.1-1.8,1.6-2.4
		c1-1.2,1.8-1.8,1.8-1.8c0,0-0.9,0.2-2.3,1.2c-0.7,0.5-1.5,1.1-2.3,2.1c-0.6,0.7-1.2,1.5-1.7,2.6c-2.8-1.3-5.6-2.2-8.2-3.2
		c0-0.2,0.1-0.4,0.1-0.5c0.1-0.6,0.4-1.1,0.6-1.6c0.5-1,1-1.9,1.4-2.6c0.9-1.4,1.4-2.1,1.4-2.1c0,0-0.8,0.5-2,1.6
		c-0.6,0.6-1.3,1.3-2.1,2.3c-0.4,0.5-0.7,1.1-1.1,1.7c-0.1,0.2-0.2,0.3-0.2,0.5c-0.4-0.1-0.7-0.3-1.1-0.4c-0.2-0.1-0.5-0.2-0.7-0.3
		c-0.2-0.1-0.4-0.2-0.6-0.3c-0.9-0.4-1.7-0.8-2.5-1.2c-0.8-0.5-1.7-1-2.4-1.6c0-0.6,0.2-1.2,0.5-1.8c0.3-0.7,0.6-1.3,0.9-1.8
		c0.6-1,1-1.6,1-1.6c0,0-0.6,0.3-1.5,1.1c-0.5,0.4-1,0.9-1.6,1.6c-0.3,0.3-0.6,0.7-0.8,1.2c0,0,0,0.1-0.1,0.1
		c-0.1-0.1-0.2-0.2-0.3-0.2c-1.7-1.4-3.2-3-4.4-4.7c0.3-0.8,0.7-1.5,1.1-2.2c0.5-0.7,0.9-1.4,1.3-1.9c0.8-1,1.3-1.4,1.3-1.5
		c2.4,1.6,5.1,3,8,4.3c3.8,1.7,7.9,3.1,12.2,4.7c1.1,0.4,2.1,0.8,3.2,1.3c0.3,0.1,0.5,0.2,0.8,0.3l0.8,0.4l1.6,0.8
		c2.2,1,4.4,2,6.6,3.1c2.2,1.1,4.3,2.4,6.4,3.8c0.1,0.1,0.2,0.1,0.2,0.2c-0.4,0-0.7,0-1,0c-2.1,0.1-3.8,0.5-5.1,0.9
		c-1.3,0.4-2.3,0.9-3,1.2c-0.6,0.3-1,0.5-1,0.5c0,0,0.4-0.1,1.1-0.4c0.7-0.2,1.7-0.5,3.1-0.7c1.4-0.2,3-0.4,4.9-0.2
		c1.3,0.1,2.8,0.5,4.1,1.1c0.7,0.7,1.4,1.5,2,2.3c0.2,0.2,0.3,0.5,0.5,0.7c0.4,1.2,0.8,2.7,1.1,4.4c0.4,2,0.6,3.7,0.6,5
		c0,0.2,0,0.3,0,0.5c-0.9-0.6-1.9-1-2.8-1.3c-2.5-0.9-4.7-1.1-6.5-1.4c-1.8-0.2-3.1-0.3-4-0.4l-1.4-0.1l1.4,0.4l4,1
		c1.7,0.4,3.8,1,6,2c1.1,0.5,2.2,1.2,3.2,2.1c0.8,0.7,1.5,1.5,2.1,2.5C216.4,83.1,216.4,83.4,216.3,83.8z"/>
	<radialGradient id="SVGID_2_" cx="128.9991" cy="126.3574" r="119.0821" gradientUnits="userSpaceOnUse">
		<stop  offset="0.2" style="stop-color:#FFFFFF"/>
		<stop  offset="0.7" style="stop-color:#FFFFFF;stop-opacity:0.6"/>
		<stop  offset="1" style="stop-color:#FFFFFF"/>
	</radialGradient>
	<path class="st2" d="M125.7,183.5c-1.3-1.1-3.3-2.6-6.2-3.8c-1.4-0.6-3.1-1.1-4.9-1.4c-1.8-0.3-3.8-0.4-5.9-0.2
		c-1.9,0.2-3.9,0.8-5.7,1.8c0-0.1,0-0.2-0.1-0.3c-0.6-1.8-3.5-6.7-4.5-7.5c-1-0.8-1.7-1-1.7-1c0,0,0.4,0.7,0.9,1.7
		c0.5,1,1,2.5,1.5,4l1.4,4.1c0.1,0.2,0.1,0.4,0.2,0.6c-0.4,0.4-0.7,0.8-1,1.2c-0.2,0.3-0.4,0.5-0.6,0.8c0-1.4-0.2-3.2-0.7-4.9
		c-0.6-2.4-1.6-4.5-2.4-5.9c-0.8-1.4-1.4-2.3-1.4-2.3s0.1,1,0.3,2.6c0.1,0.7,0.3,1.5,0.4,2.3c-0.5-0.7-1-1.3-1.5-2
		c-1.7-2.2-3.5-4.1-5-6c-1.5-1.9-2.9-3.7-3.8-5.5c-1-1.8-1.5-3.6-1.4-5.3c0-1.7,0.7-3.1,1.4-4.2c0.7-1.1,1.6-1.9,2.2-2.5
		c1.4-1.2,2.2-1.6,2.2-1.7c0,0-0.8,0.4-2.3,1.5c-0.7,0.5-1.6,1.3-2.4,2.3c-0.8,1-1.6,2.5-1.7,4.2c-0.2,1.8,0.3,3.7,1.2,5.7
		c0.9,1.9,2.2,3.8,3.7,5.8c1.5,2,3.2,4,4.8,6.2c0.8,1.1,1.7,2.2,2.4,3.5c0.4,0.6,0.7,1.3,1.1,1.9c0.6,2.2,1.2,4.1,1.6,5.6
		c0.1,0.2,0.1,0.3,0.2,0.5c-0.1,0.2-0.1,0.3-0.2,0.5c-0.2,0.5-0.3,1.1-0.4,1.6c0,0,0-0.1,0-0.1c-0.7-2.4-1.6-5.7-3.3-9.2
		c-0.9-1.7-1.9-3.3-2.9-4.6c-1-1.3-2-2.4-2.9-3.3c-1.8-1.7-3.1-2.6-3.1-2.6c-0.6-1.1-1.1-2.3-1.7-3.4c-0.9-1.9-1.6-3.7-1.8-5.5
		c-0.2-1.8,0-3.5,0.6-5.1c0.6-1.6,1.4-2.9,2.2-4.2c0.8-1.2,1.6-2.3,2.4-3.3c0.4-0.5,0.8-1,1.1-1.5c0.3,0.9,0.8,1.7,1.5,2.4
		c0.8,0.7,1.7,1.3,2.7,1.7c1,0.4,2,0.8,3.1,1c2.2,0.5,4.2,0.7,6,0.9c1.8,0.2,3.5,0.2,4.9,0.4c1.3,0.1,2.3,0.4,3,0.7
		c1,1.1,1.8,1.9,2.4,2.4c0.6,0.5,1.1,0.7,1.1,0.7c0,0-0.3-0.3-0.7-1c-0.4-0.7-1-1.7-1.6-3c-1.3-2.5-3.1-6.1-5.8-9.7
		c-1.3-1.8-2.8-3.4-4.3-4.7c-0.8-0.6-1.6-1.2-2.5-1.6c-0.9-0.4-1.8-0.7-2.7-0.6c-0.9,0-1.7,0.4-2.1,0.8c-0.5,0.4-0.8,0.9-1,1.2
		c-0.4,0.7-0.5,1.2-0.5,1.2c0,0,0.3-0.4,0.9-0.9c0.3-0.3,0.7-0.5,1.1-0.7c0.5-0.2,1-0.3,1.6-0.1c0.1,0,0.2,0,0.2,0.1
		c0,0-0.1,0-0.1,0c-0.5,0.3-0.9,0.7-1.2,1.4c-0.6,1.3-0.7,3-0.4,4.9c0.1,0.6,0.3,1.2,0.5,1.8c0.1,0.3,0.2,0.5,0.3,0.8
		c0.1,0.2,0.1,0.3,0.2,0.5c0.1,0.2,0.3,0.5,0.5,0.7c0,0.1,0.1,0.3,0.2,0.4c0.2,0.4,0.7,1,1.6,1.4c0.9,0.4,2.1,0.4,3.4,0
		c0.6-0.2,1.3-0.5,2-1c0.3-0.2,0.5-0.5,0.8-0.8c0.3-0.2,0.5-0.4,0.7-0.7c1.6,2.2,3.1,4.1,4.5,5.7c-0.5-0.3-1.2-0.5-1.9-0.8
		c-1.4-0.5-3-0.8-4.8-1.2c-1.8-0.4-3.8-0.7-5.8-1.2c-2-0.5-3.8-1-5.1-2c-0.6-0.5-1.1-1-1.4-1.7c-0.1-0.3-0.2-0.6-0.3-0.9
		c0-0.1-0.1-0.3-0.1-0.4c0-0.2,0-0.5,0-0.7c0-1.3,0.3-2.4,0.5-3.2c0.2-0.8,0.4-1.2,0.4-1.2c0,0-0.3,0.3-0.7,1
		c-0.4,0.7-1,1.7-1.3,3.2c-0.1,0.6-0.2,1.3,0,2l-1.6,1.7c-0.8,0.9-1.8,1.9-2.8,3c-0.9,1-1.8,2.2-2.6,3.6c-0.1-2.1-0.1-4,0-5.4
		c0.2-1.6,0.4-2.6,0.4-2.6c0,0-0.7,0.7-1.4,2.1c0,0,0,0,0,0c-0.2-0.5-0.2-1.5-0.3-2.1c0.8-0.1,1.5-0.2,2.1-0.3
		c1.9-0.3,3.3-0.8,4.3-1.1c1-0.4,1.5-0.6,1.5-0.6c0,0-0.6,0.1-1.6,0.3c-1,0.1-2.5,0.3-4.3,0.4c-1.8,0-3.9-0.1-6.2-0.5
		c-2.3-0.5-4.7-1.3-7.1-2.6c-2.4-1.3-4.4-2.8-6.1-4.4c-1.7-1.6-3.1-3.2-4.2-4.7c-0.9-1.2-1.7-2.3-2.2-3.1c1,0.6,2.2,1.1,3.4,1.4
		c2.2,0.6,4.6,0.9,7.1,1c0.1,0.2,0.1,0.5,0.3,0.8c0.3,0.9,0.9,1.8,1.7,2.8c0.8,0.9,1.9,1.8,3.2,2.4c1.3,0.6,2.7,0.8,4,0.7
		c1.3-0.1,2.3-0.5,3.1-0.9c0.8-0.4,1.4-0.9,1.7-1.3c0.3-0.4,0.5-0.6,0.4-0.7c-0.1-0.2-1,0.5-2.6,1c-0.8,0.3-1.7,0.5-2.8,0.5
		c-1,0-2.2-0.2-3.3-0.7c-1.1-0.5-2.1-1.2-2.8-2c-0.8-0.8-1.3-1.6-1.7-2.3c-0.1-0.1-0.1-0.2-0.2-0.3c0.2,0,0.4,0,0.6,0
		c0.4,0,0.9,0,1.3-0.1c0.2,0.1,0.3,0.2,0.5,0.3c0.7,0.5,1.5,1,2.5,1.6c0.9,0.5,1.9,1,2.9,1.2c1,0.2,1.9,0.2,2.6,0
		c0.7-0.2,1.3-0.4,1.6-0.6c0.3-0.2,0.5-0.4,0.5-0.5c-0.1-0.2-0.9,0-2.2,0.1c-0.6,0-1.4-0.1-2.1-0.3c-0.5-0.1-0.9-0.3-1.4-0.6
		c1.3-0.2,3-0.8,4.9-1.3c1-0.3,1.9-0.5,2.7-0.6c0.8-0.1,1.5-0.1,2.2-0.1c0.3,0,0.5,0,0.8,0.1c0.5,0.1,0.9,0.3,1.3,0.5
		c0.6,0.4,1.1,0.9,1.3,1.3c0.3,0.5,0.4,0.9,0.5,1.2c0.1,0.3,0.1,0.4,0.1,0.4s0-0.2,0-0.5c0-0.3,0-0.7-0.2-1.3
		c-0.2-0.6-0.6-1.2-1.2-1.8c-0.6-0.6-1.5-1-2.5-1.3c-2-0.6-4.5-0.8-7.2-0.7c-1.3,0-2.7,0.2-4.2,0.3l-2.2,0.2
		c-0.7,0.1-1.4,0.1-2.1,0.1c-3,0-5.8-0.1-8.3-0.6c-1.2-0.3-2.4-0.6-3.4-1.1c-1-0.5-1.9-1-2.6-1.6c-0.5-0.4-0.9-0.8-1.2-1.3
		c1.3,0.6,2.6,0.9,3.6,1c2.3,0.4,3.7,0.2,3.7,0.2c0,0-1.4-0.4-3.4-1.3c-2-0.9-4.6-2.3-6.9-4.5c-0.4-0.3-0.7-0.7-1-1.1
		c0.5,0.4,1.1,0.8,1.7,1.1c1.5,0.8,3.3,1.3,5.1,1.5c3.7,0.5,7.7,0.3,11.8,0c4.1-0.4,8-1,11.5-1.2c1.7-0.1,3.4-0.2,4.9-0.1
		c1.5,0.1,2.9,0.3,4.1,0.8c1.2,0.5,2.1,1.2,2.7,2c0.6,0.8,0.9,1.7,1.1,2.4c0.2,0.7,0.2,1.3,0.3,1.7c0,0.4,0,0.6,0,0.6s0-0.2,0.1-0.6
		c0-0.4,0.1-1,0-1.8c-0.1-0.8-0.3-1.7-0.8-2.7c-0.5-1-1.5-2-2.8-2.6c-1.3-0.7-2.8-1.1-4.4-1.3c-0.9-0.1-1.8-0.2-2.8-0.2
		c0.8-1.7,1.4-3.3,1.9-4.8c0.7-2,1.1-3.7,1.5-5.1c0.7-2.8,1-4.4,1-4.4c0,0-0.6,1.5-1.7,4.1c-0.6,1.3-1.2,3-2.1,4.8
		c-0.8,1.7-1.7,3.5-2.9,5.4c-0.1,0-0.3,0-0.4,0c-0.5,0-1,0-1.5,0.1c-1,0-2-0.2-2.6-0.5c-0.7-0.3-1.1-0.6-1.2-0.6
		c0,0,0.1,0.5,0.7,1.2c0,0,0.1,0.1,0.1,0.1c-1,0.1-2,0.2-3.1,0.3c-0.1-0.3-0.2-0.3-0.3-0.5c0.7-0.9,1.2-1.9,1.7-2.8
		c0.6-1.4,1.1-2.7,1.5-3.9c0.7-2.5,1.1-4.7,1.4-6.5c0.5-3.6,0.5-5.6,0.6-5.6c0,0-0.4,1.9-1.3,5.3c-0.5,1.7-1.1,3.8-2,6.1
		c-0.5,1.2-1,2.4-1.7,3.6c-0.3,0.5-0.6,0.9-0.9,1.4c0,0,0,0,0,0c-1,0.3-2.5,0.3-4.1,0.3c-0.1,0-0.2,0-0.3,0
		c-0.2-0.1-0.4-0.1-0.5-0.2c-1.4-0.5-2.5-1.3-3.3-1.9c-0.8-0.7-1.2-1.2-1.2-1.2c0,0,0.1,0.7,0.6,1.7c0.3,0.5,0.7,1,1.2,1.5
		c-0.3,0-0.5,0-0.8,0c-0.7-0.3-1.3-0.6-2-1c0.7-2.1,1.6-4,2.5-5.7c0.9-1.8,1.8-3.2,2.5-4.5c1.4-2.4,2.2-3.8,2.2-3.8
		c0,0-1,1.1-2.8,3.3c-0.9,1.1-2,2.5-3.1,4.1c-0.6,0.9-1.3,1.9-1.9,2.9c-0.1,0-0.2,0.1-0.4,0.1c-0.9,0.2-2,0-3.3-0.4
		c-1.3-0.4-2.4-1-3.1-1.5c-0.2-0.1-0.4-0.3-0.6-0.4c0-2.4,0.7-4.7,1.5-6.5c1-2.1,2.1-3.7,3.1-5c1-1.3,1.9-2.2,2.6-2.8
		c0.6-0.6,1-0.9,1-0.9c0,0-0.4,0.2-1.1,0.7c-0.7,0.5-1.8,1.2-3,2.4c-1.2,1.2-2.6,2.7-3.9,4.8c-0.6,1-1.2,2.2-1.7,3.6
		c0,0.1,0,0.1,0,0.2c-0.1,0-0.1,0-0.2,0c-0.5,0-1-0.2-1.5-0.6c-0.5-0.3-1-0.8-1.6-1.4c-1-1.1-1.9-2.3-2.6-3.2
		c-0.1-0.1-0.2-0.2-0.3-0.3c0.1-3.4,1-6.4,2.3-8.9c1.5-2.7,3.3-4.7,5.1-6.1c1.7-1.4,3.3-2.1,4.4-2.6c1.1-0.4,1.7-0.6,1.7-0.6
		c0,0-0.6,0.1-1.7,0.4c-1.1,0.3-2.8,0.9-4.7,2.1c-1.9,1.2-4.1,3.1-5.9,5.9c-0.8,1.2-1.5,2.6-2.1,4.1c-0.2-0.2-0.3-0.4-0.5-0.7
		c-0.6-1-1.3-2.6-1.9-4.4c-0.6-1.8-1.1-3.4-1.4-4.6c0-0.1,0-0.3-0.1-0.4c0-0.3,0-0.7,0-1c0.6-1,1.3-1.8,2.1-2.5
		c1-0.9,2.1-1.6,3.2-2.1c2.2-1,4.3-1.6,6-2l4-1l1.4-0.4L54,75c-0.9,0.1-2.3,0.2-4,0.4c-1.8,0.2-4,0.5-6.5,1.4
		c-0.9,0.3-1.9,0.8-2.8,1.3c0-0.2,0-0.3,0-0.5c0-1.3,0.2-3.1,0.6-5c0.3-1.7,0.7-3.2,1.1-4.4c0.2-0.2,0.3-0.5,0.5-0.7
		c0.6-0.8,1.3-1.6,2-2.3c1.3-0.7,2.8-1,4.1-1.1c1.9-0.2,3.5,0,4.9,0.2c1.4,0.2,2.4,0.5,3.1,0.7c0.7,0.2,1.1,0.4,1.1,0.4
		c0,0-0.3-0.2-1-0.5c-0.6-0.3-1.6-0.8-3-1.2c-1.3-0.4-3-0.9-5.1-0.9c-0.3,0-0.7,0-1,0c0.1-0.1,0.1-0.1,0.2-0.2
		c2-1.4,4.2-2.7,6.4-3.8c2.2-1.1,4.4-2.1,6.6-3.1l1.6-0.8l0.8-0.4c0.3-0.1,0.5-0.2,0.8-0.3c1.1-0.4,2.1-0.9,3.2-1.3
		c4.3-1.6,8.4-3.1,12.2-4.7c3.8-1.7,7.2-3.5,10-5.8c1.4-1.1,2.6-2.4,3.6-3.7c1-1.3,1.7-2.7,2.2-4c1-2.7,1-5.2,0.7-7.2
		c-0.2-2-0.7-3.4-1-4.4c-0.3-1-0.5-1.5-0.5-1.5s0.2,0.5,0.4,1.5c0.2,1,0.6,2.5,0.7,4.4c0.1,1.9-0.1,4.3-1.1,6.8
		c-0.5,1.2-1.3,2.5-2.3,3.6c-1,1.2-2.2,2.2-3.5,3.2c-2.7,2-6.1,3.6-9.9,5.1c-3.8,1.5-7.9,2.7-12.3,4.3c-1.1,0.4-2.2,0.8-3.3,1.2
		c-0.3,0.1-0.6,0.2-0.9,0.3l-0.8,0.4L60,53.1c-2.2,1-4.5,1.9-6.8,3.1c-2.3,1.1-4.6,2.4-6.8,3.9c-2.2,1.5-4.3,3.4-6,5.7
		c-0.9,1.1-1.6,2.4-2.2,3.7c-0.5,1.3-1,2.6-1.3,3.9c-0.7,2.6-1,5.3-1,7.9c0,2.6,0.3,5.2,0.7,7.6c0.3,1.2,0.5,2.4,0.9,3.6l0.3,0.9
		l0.3,0.8c0.2,0.6,0.4,1.1,0.6,1.7c1.8,4.4,4.6,8.1,7.5,11.1c2.9,3,6.1,5.3,9.2,7c3.1,1.7,6.1,2.9,8.8,3.6c1.3,0.3,2.5,0.6,3.6,0.7
		c-0.3,0-0.7,0.1-1,0.1c-4.1,0.4-7.9,0.7-11.3,0.4c-1.7-0.2-3.3-0.5-4.7-1.1c-1.4-0.6-2.5-1.4-3.3-2.4c-0.8-1-1.3-2.1-1.6-3.1
		c-0.3-1-0.4-1.9-0.5-2.6c-0.1-1.5-0.1-2.3-0.1-2.3c0,0-0.2,0.8-0.2,2.3c0,0.8,0,1.7,0.2,2.8c0,0.2,0.1,0.4,0.1,0.5
		c-0.1-0.3-0.2-0.6-0.3-0.8c-0.3-1-0.5-1.9-0.6-2.5c-0.1-0.6-0.2-1-0.2-1s-0.1,0.3-0.2,1c-0.1,0.6-0.2,1.6-0.1,2.7
		c0.1,1.2,0.3,2.6,1,4c0.6,1.5,1.6,2.9,2.9,4.2c1,1,2.1,1.8,3.2,2.3c0.4,0.8,0.9,1.7,1.7,2.6c0.6,0.7,1.4,1.3,2.2,1.9
		c0,0.1,0,0.1,0.1,0.1c0.4,1,1,2.3,1.9,4c0.9,1.6,2.2,3.5,3.8,5.4c1.7,1.9,3.8,3.7,6.4,5.1c2.6,1.4,5.3,2.2,7.8,2.5
		c1.1,0.1,2.2,0.2,3.2,0.1c0.1,0.1,0.1,0.2,0.2,0.3c0.1,0.3,0.1,0.6,0.3,0.9c0.1,0.4,0.2,0.8,0.3,1.2c0,0.3-0.1,2.7-0.2,3.6
		c0,0.1,0,0.2,0,0.3c0,0,0,0,0,0c0,0,0,0,0,0c0,0.3-0.1,0.6-0.1,0.8c0,0.6,0,1.2,0,1.8c0.1,1.4,0.4,2.6,0.7,3.7
		c-0.1,0.7-0.1,1.4-0.1,2.1c0.1,2.2,0.8,4.4,1.7,6.5c0.9,2.1,1.9,4.1,2.9,6.2c2.1,4.1,4.2,8,6.1,11.5c1.9,3.5,3.5,6.7,4.7,9.5
		c0.6,1.3,1.2,2.8,1.8,4.2c0,0,0,0,0,0c0.7,1.1,1.4,2.2,2,3.4c0-0.2,0-0.5,0-0.7c0.2,0.5,0.4,1,0.7,1.5c0.2,0.2,0.4,0.5,0.5,0.6
		c4.2,5.9,10.1,9.8,11,10.4c-0.9-1.1-9.1-7.9-10.4-13.1c-0.5-1.8-0.8-3.8-0.9-5.9c0-0.5,0-1.1,0-1.6c0-0.6,0-1.1,0-1.6
		c0.1-1,0.2-2.1,0.5-3.1c0.6-2,1.8-3.7,3.5-4.8c1.6-1.2,3.5-1.8,5.4-2.1c1.9-0.3,3.7-0.3,5.5-0.2c1.7,0.2,3.3,0.5,4.7,0.9
		c2.9,0.9,5,2,6.4,3c1.4,1,2,1.7,2,1.6C127.6,185.4,127,184.6,125.7,183.5z M102,144.1c0,0.1-0.1,0.2-0.1,0.3
		c-0.2,0.4-0.5,0.9-0.9,1.2c-0.3,0.3-0.7,0.5-1.1,0.7c-0.6,0.3-1.1,0.4-1.6,0.4c0,0-0.1,0-0.1,0c-0.3,0-0.5-0.1-0.8-0.2
		c-0.6-0.4-1.1-0.9-1.6-1.6c-0.5-0.8-0.9-1.7-1.2-2.6c-0.5-1.7-0.6-3.3-0.2-4.5c0.2-0.6,0.5-1.1,0.9-1.4c0.1-0.1,0.2-0.1,0.3-0.2
		c0.1,0.1,0.2,0.1,0.4,0.2c-1.5,1.5-0.7,7.2,0.5,8.2c-1.2-1.9,0.3-5.2,2.4-5.6c1,1.1,2,2.5,3.1,3.9
		C102.1,143.3,102.1,143.7,102,144.1z M72.4,129.8c1.4-0.2,2.7-0.4,3.9-0.5c-1.1,0.4-2.1,0.8-2.8,1.1c-0.3,0.1-0.6,0.2-0.8,0.3
		c-0.4-0.3-0.9-0.5-1.3-0.8C71.7,129.9,72.1,129.9,72.4,129.8z M39.5,75.1c0,1,0.2,2,0.4,2.7c0.1,0.3,0.2,0.5,0.3,0.7
		c-0.2,0.1-0.3,0.2-0.5,0.3c-0.3,0.2-0.6,0.5-0.9,0.7C38.9,78,39.2,76.5,39.5,75.1z M41.8,96.6c-0.3-0.6-0.5-1.1-0.7-1.7
		C40.7,94,40.4,93,40.1,92c0.4,0.7,0.9,1.2,1.4,1.7c0.3,0.3,0.6,0.5,0.9,0.6C42.2,95,42,95.8,41.8,96.6z M49.1,106.9
		c-0.4-0.4-0.8-0.9-1.3-1.3c0.5,0.2,1.1,0.2,1.5,0.1C49.2,106.1,49.1,106.5,49.1,106.9z M57.1,113.2c-0.3-0.2-0.6-0.3-0.9-0.5
		c-0.3-0.2-0.7-0.4-1-0.7c0.4,0.1,0.9,0.1,1.3,0.1c0.5,0,0.9-0.2,1.3-0.3C57.5,112.2,57.3,112.7,57.1,113.2z M67.2,117.4
		c-0.5-0.1-0.9-0.2-1.4-0.4c0.2,0,0.4,0,0.6,0c0.7,0,1.4-0.2,1.9-0.4C68.1,116.7,67.5,117.1,67.2,117.4z M97,192.9
		c-0.9-2.9-3-6.8-4.6-10.5c-1.6-3.7-3.6-7.7-5.7-11.8c-0.4-0.9-0.9-1.7-1.3-2.6c0.1,0.2,1,1.4,2.2,3.3c1.3,2.1,3,4.9,4.7,8.2
		c1.6,3.3,3.1,6.4,4.3,8.6c0.3,0.6,0.6,1.1,0.9,1.5c0,0.1,0,0.1,0,0.2c0,0.6,0,1.2,0,1.7c0,0.6,0,1.1,0.1,1.7c0,0.4,0.1,0.9,0.1,1.3
		C97.4,194.1,97.2,193.5,97,192.9z"/>
	<radialGradient id="SVGID_3_" cx="128.9991" cy="126.3574" r="119.0821" gradientUnits="userSpaceOnUse">
		<stop  offset="0.2" style="stop-color:#FFFFFF"/>
		<stop  offset="0.7" style="stop-color:#FFFFFF;stop-opacity:0.6"/>
		<stop  offset="1" style="stop-color:#FFFFFF"/>
	</radialGradient>
	<path class="st3" d="M149.5,154.9c0.9-0.7,1.9-1.3,2.8-1.6c0.9-0.3,1.7-0.5,2.2-0.6c0.5-0.1,0.9-0.1,0.9-0.1c0,0-0.3-0.1-0.9-0.2
		c-0.6-0.1-1.4-0.2-2.4-0.1c-1,0.1-2.3,0.4-3.6,1.1c-1.2,0.7-2.5,1.8-3.3,3.2c-0.9,1.4-1.3,3-1.4,4.4c-0.1,1.4,0.1,2.7,0.3,3.7
		c0.6,2,1.4,3,1.4,3c0,0-0.3-1.3-0.3-3.2c0-1.9,0.4-4.5,1.9-6.8C147.7,156.6,148.6,155.6,149.5,154.9z"/>
	<radialGradient id="SVGID_4_" cx="128.9991" cy="126.3574" r="119.0821" gradientUnits="userSpaceOnUse">
		<stop  offset="0.2" style="stop-color:#FFFFFF"/>
		<stop  offset="0.7" style="stop-color:#FFFFFF;stop-opacity:0.6"/>
		<stop  offset="1" style="stop-color:#FFFFFF"/>
	</radialGradient>
	<path class="st4" d="M169.3,124.5c1-0.5,2.1-0.8,3.2-0.9c1.1-0.1,2.2-0.1,3.2,0c2.1,0.1,4,0.5,5.7,0.8c1.8,0.3,3.4,0.7,4.8,0.9
		c1.5,0.2,2.8,0.4,3.9,0.4c1.1,0,2.1,0,2.9-0.2c1.6-0.3,2.2-0.8,2.2-0.8c0,0-0.7,0.5-2.2,0.7c-0.7,0.1-1.7,0.2-2.8,0.1
		c-1.1-0.1-2.4-0.2-3.9-0.5c-1.4-0.3-3-0.6-4.8-1c-1.7-0.4-3.7-0.8-5.8-1c-1.1-0.1-2.2-0.1-3.3,0c-1.1,0.1-2.3,0.4-3.5,0.9
		c-1.1,0.5-2.1,1.4-2.9,2.5c-0.6,0.9-1,1.8-1.3,2.8c-0.2-0.2-0.4-0.4-0.7-0.5c-1-0.7-2.4-1.3-3.9-1.4c-1.5-0.1-3.2,0.2-4.7,1
		c-0.8,0.4-1.5,0.9-2.2,1.5c-0.3,0.3-0.6,0.6-0.9,1c-0.3,0.3-0.6,0.6-0.8,1c-1.1,1.3-2.2,2.7-3.2,4.1c-2.2,2.9-4.1,5.6-6.1,7.9
		c-1,1.2-2,2.2-3,3.1c-1,0.9-2,1.5-3,1.9c-1,0.3-2,0.3-2.8,0c-0.8-0.3-1.4-0.8-1.9-1.2c-0.9-0.9-1.4-1.5-1.4-1.5
		c0,0,0.3,0.7,1.1,1.7c0.4,0.5,1,1.1,1.9,1.6c0.4,0.2,1,0.4,1.5,0.5c0.6,0.1,1.2,0.1,1.8-0.1c1.3-0.3,2.5-0.9,3.7-1.7
		c1.2-0.8,2.3-1.9,3.4-3c2.2-2.3,4.3-5,6.5-7.8c1.1-1.4,2.1-2.8,3.1-4.1l0.8-1c0.2-0.3,0.5-0.6,0.7-0.8c0.5-0.5,1.1-1,1.7-1.3
		c1.2-0.7,2.5-1.1,3.7-1.1c1.3,0,2.4,0.3,3.4,0.8c1,0.5,1.7,1.2,2.1,2c0.5,0.7,0.7,1.5,0.7,2.1c0.1,0.6,0,1.1-0.1,1.5
		c-0.1,0.3-0.1,0.5-0.1,0.5s0.1-0.2,0.2-0.5c0.1-0.3,0.3-0.8,0.3-1.5c0-0.3,0-0.7,0-1.1l0.2,0c0-1.2,0.2-2.3,0.7-3.3
		c0.5-1,1.2-1.8,2.1-2.3c0.1,0,0.2-0.1,0.2-0.1c1.3-0.5,2.5-0.7,3.5-0.9c0.2,0,0.3,0,0.5-0.1c0.5,0,1,0,1.5,0c1.9,0,3.7,0.2,5.3,0.4
		c1.6,0.2,3.1,0.4,4.5,0.5c2.7,0.3,4.9,0.2,6.3-0.2c1.4-0.3,2-0.8,2-0.8c0,0-0.6,0.4-2,0.7c-1.4,0.3-3.5,0.3-6.1,0
		c-1.3-0.2-2.8-0.4-4.4-0.6c-1.6-0.2-3.4-0.5-5.3-0.6c-1,0-2,0-3,0.1c-0.1,0-0.1,0-0.2,0c-1,0.1-2.1,0.2-3.3,0.6
		c-0.8,0.3-1.7,0.7-2.5,1.4c-0.4,0.4-0.8,0.9-1.1,1.4c0.3-0.8,0.6-1.5,1-2.1C167.4,125.9,168.3,125.1,169.3,124.5z M166.5,130.8
		c0,0.2-0.1,0.3-0.1,0.5c0,0,0,0,0,0c-0.1-0.2-0.2-0.4-0.3-0.6L166.5,130.8z"/>
	<radialGradient id="SVGID_5_" cx="128.9991" cy="126.3574" r="119.0821" gradientUnits="userSpaceOnUse">
		<stop  offset="0.2" style="stop-color:#FFFFFF"/>
		<stop  offset="0.7" style="stop-color:#FFFFFF;stop-opacity:0.6"/>
		<stop  offset="1" style="stop-color:#FFFFFF"/>
	</radialGradient>
	<path class="st5" d="M177.3,148.2c0-0.2,0-0.3,0-0.3c0,0,0,0-0.1,0.1C177.3,148.1,177.3,148.2,177.3,148.2z"/>
	<radialGradient id="SVGID_6_" cx="128.9991" cy="126.3574" r="119.0821" gradientUnits="userSpaceOnUse">
		<stop  offset="0.2" style="stop-color:#FFFFFF"/>
		<stop  offset="0.7" style="stop-color:#FFFFFF;stop-opacity:0.6"/>
		<stop  offset="1" style="stop-color:#FFFFFF"/>
	</radialGradient>
	<path class="st6" d="M175.8,139.3c-2.3-0.1-4.3-0.9-5.6-1.6c-1.3-0.8-2-1.5-2.2-1.4c-0.1,0.1,0,0.3,0.2,0.7c0.2,0.4,0.7,1,1.3,1.5
		c1.3,1.1,3.6,2.1,6.2,2.3c2.6,0.2,5-0.6,6.4-1.6c0.1,0,0.1-0.1,0.2-0.2c1.4-0.3,2.6-0.9,3.4-1.6c0.6-0.5,1-1,1.1-1.4
		c0.2-0.4,0.2-0.6,0.1-0.7c-0.2-0.1-0.7,0.5-1.9,1.2c-0.4,0.2-0.8,0.4-1.3,0.6c-0.2,0.1-0.5,0.2-0.7,0.2c-0.9,0.2-1.8,0.4-2.9,0.4
		c-2,0.1-3.8-0.3-5.1-0.8c-1.2-0.5-1.9-1-2.1-0.8c-0.1,0.1,0,0.3,0.3,0.6c0.3,0.3,0.7,0.7,1.4,1.1c0.9,0.6,2.2,1,3.7,1.2
		C177.5,139.3,176.7,139.4,175.8,139.3z"/>
	<radialGradient id="SVGID_7_" cx="128.9991" cy="126.3574" r="119.0821" gradientUnits="userSpaceOnUse">
		<stop  offset="0.2" style="stop-color:#FFFFFF"/>
		<stop  offset="0.7" style="stop-color:#FFFFFF;stop-opacity:0.6"/>
		<stop  offset="1" style="stop-color:#FFFFFF"/>
	</radialGradient>
	<path class="st7" d="M138.5,173.3c-1.4,0.5-2.7,1.2-3.7,1.9c-1,0.7-1.9,1.5-2.6,2.2c-1.3,1.3-2,2.3-2,2.3c0,0,0.9-0.7,2.5-1.7
		c1.5-1,3.7-2.4,6.3-3.2c1.3-0.4,2.5-0.6,3.7-0.6c1.2,0,2.2,0.2,3.1,0.5c0.9,0.3,1.5,0.6,2,0.9c0.5,0.2,0.7,0.4,0.7,0.4
		c0,0-0.2-0.2-0.6-0.6c-0.4-0.4-1-0.9-1.8-1.4c-0.8-0.5-2-0.9-3.3-1.1C141.4,172.7,140,172.9,138.5,173.3z"/>
	<radialGradient id="SVGID_8_" cx="128.9991" cy="126.3574" r="119.0821" gradientUnits="userSpaceOnUse">
		<stop  offset="0.2" style="stop-color:#FFFFFF"/>
		<stop  offset="0.7" style="stop-color:#FFFFFF;stop-opacity:0.6"/>
		<stop  offset="1" style="stop-color:#FFFFFF"/>
	</radialGradient>
	<path class="st8" d="M124.5,147.5c-0.5,0.4-1.1,0.9-1.9,1.2c-0.8,0.3-1.8,0.3-2.8,0c-1-0.3-2-1-3-1.9c-1-0.9-2-1.9-3-3.1
		c-2-2.3-3.9-5.1-6.1-7.9c-1.1-1.4-2.1-2.8-3.2-4.1c-0.3-0.3-0.6-0.7-0.8-1c-0.3-0.3-0.6-0.7-0.9-1c-0.6-0.6-1.4-1.1-2.1-1.5
		c-1.5-0.8-3.2-1.1-4.7-1c-1.5,0.1-2.9,0.6-3.9,1.4c-0.2,0.2-0.4,0.3-0.6,0.5c-0.3-1-0.7-1.9-1.3-2.7c-0.7-1.1-1.7-1.9-2.8-2.5
		c-1.1-0.6-2.3-0.8-3.4-0.9c-1.1-0.1-2.2-0.1-3.3,0c-2.1,0.2-4,0.6-5.8,1c-1.8,0.4-3.4,0.7-4.8,1c-1.5,0.3-2.8,0.5-3.9,0.5
		c-1.1,0.1-2.1,0-2.9-0.1c-1.5-0.3-2.2-0.8-2.2-0.7c0,0,0.7,0.5,2.2,0.8c0.8,0.2,1.7,0.2,2.8,0.2c1.1,0,2.4-0.2,3.9-0.4
		c1.5-0.2,3.1-0.6,4.8-0.9c1.8-0.3,3.7-0.7,5.8-0.9c1-0.1,2.1-0.1,3.2,0c1.1,0.1,2.2,0.4,3.2,0.9c1,0.5,1.9,1.3,2.6,2.3
		c0.6,0.9,1,1.9,1.3,3c-0.3,0.3-0.6,0.7-0.7,1.1c-0.2-0.5-0.4-1-0.7-1.5c0-0.1-0.1-0.2-0.1-0.3c-0.5-1.1-1.4-2-2.4-2.5
		c-1-0.6-2.1-0.8-3.1-0.9c-1-0.1-2-0.1-3-0.1c-1.9,0.1-3.7,0.3-5.4,0.6c-1.6,0.2-3.1,0.5-4.5,0.6c-2.7,0.3-4.8,0.3-6.2,0
		c-1.2-0.2-1.9-0.6-2-0.7c0.1,0.1,0.7,0.5,1.9,0.8c1.4,0.3,3.5,0.4,6.2,0.2c1.3-0.1,2.8-0.3,4.5-0.5c1.6-0.2,3.4-0.4,5.3-0.4
		c0.4,0,0.9,0,1.3,0c0.3,0.1,0.7,0.1,1.1,0.2c1,0.2,2.2,0.6,3.4,1.4c0.6,0.4,1.1,1,1.5,1.6c0.3,0.4,1,1.7,1.4,2.8c0,0.2,0,0.4,0,0.5
		l0.1,0c-0.1,0.4-0.1,0.8-0.1,1.1c0,0.7,0.2,1.2,0.3,1.5c0.1,0.3,0.2,0.5,0.2,0.5s0-0.2-0.1-0.5c-0.1-0.3-0.1-0.8,0-1.5
		c0-0.4,0.1-0.7,0.2-1.2h0c0,0,0-0.1,0-0.1c0.1-0.3,0.2-0.6,0.4-0.9c0.4-0.7,1.2-1.5,2.1-2c0.9-0.5,2.1-0.8,3.4-0.8
		c1.2,0,2.6,0.4,3.7,1.1c0.6,0.4,1.1,0.8,1.7,1.3c0.3,0.3,0.5,0.5,0.7,0.8l0.8,1c1,1.3,2.1,2.7,3.1,4.1c2.2,2.9,4.3,5.6,6.5,7.8
		c1.1,1.1,2.2,2.2,3.4,3c1.2,0.8,2.4,1.5,3.7,1.7c0.6,0.1,1.3,0.2,1.8,0.1c0.6-0.1,1.1-0.3,1.5-0.5c0.9-0.5,1.5-1.1,1.9-1.6
		c0.8-1.1,1.1-1.7,1.1-1.7C125.8,146,125.4,146.6,124.5,147.5z"/>
	<radialGradient id="SVGID_9_" cx="128.9991" cy="126.3574" r="119.0821" gradientUnits="userSpaceOnUse">
		<stop  offset="0.2" style="stop-color:#FFFFFF"/>
		<stop  offset="0.7" style="stop-color:#FFFFFF;stop-opacity:0.6"/>
		<stop  offset="1" style="stop-color:#FFFFFF"/>
	</radialGradient>
	<path class="st9" d="M62.5,126C62.5,126,62.5,125.9,62.5,126C62.5,125.9,62.5,126,62.5,126z"/>
	<radialGradient id="SVGID_10_" cx="128.9991" cy="126.3574" r="119.0821" gradientUnits="userSpaceOnUse">
		<stop  offset="0.2" style="stop-color:#FFFFFF"/>
		<stop  offset="0.7" style="stop-color:#FFFFFF;stop-opacity:0.6"/>
		<stop  offset="1" style="stop-color:#FFFFFF"/>
	</radialGradient>
	<path class="st10" d="M110.3,174.7c0.9-0.3,1.9-0.5,3.1-0.5c1.1,0,2.4,0.2,3.7,0.6c2.6,0.8,4.7,2.2,6.3,3.2c1.5,1,2.5,1.7,2.5,1.7
		c0,0-0.7-1-2-2.3c-0.7-0.7-1.5-1.4-2.6-2.2c-1-0.7-2.3-1.4-3.7-1.9c-1.4-0.5-2.9-0.6-4.2-0.4c-1.3,0.2-2.4,0.6-3.3,1.1
		c-0.8,0.5-1.4,1-1.8,1.4c-0.4,0.4-0.6,0.6-0.6,0.6c0,0,0.2-0.2,0.7-0.4C108.8,175.3,109.5,174.9,110.3,174.7z"/>
	<radialGradient id="SVGID_11_" cx="128.9991" cy="126.3574" r="119.0821" gradientUnits="userSpaceOnUse">
		<stop  offset="0.2" style="stop-color:#FFFFFF"/>
		<stop  offset="0.7" style="stop-color:#FFFFFF;stop-opacity:0.6"/>
		<stop  offset="1" style="stop-color:#FFFFFF"/>
	</radialGradient>
	<path class="st11" d="M122.8,154.4c-0.8,0.8-1.7,1.2-2.6,1.4c-0.8,0.2-1.6,0.1-2.1,0c-0.5-0.1-0.8-0.2-0.8-0.2c0,0,0.2,0.2,0.7,0.5
		c0.5,0.3,1.2,0.7,2.3,0.8c1.1,0.1,2.4-0.2,3.6-1c1.2-0.8,2.3-2,3-3.4c0.4-0.7,0.6-1.4,0.8-2.2c0.3,0.8,0.7,1.5,1.2,2.2
		c0.9,1.3,2,2.4,3.2,3.2c1.2,0.8,2.5,1.1,3.6,1.1c1.1,0,1.9-0.4,2.4-0.7c0.5-0.3,0.7-0.5,0.7-0.5c0,0-0.3,0.1-0.8,0.2
		c-0.5,0.1-1.3,0.2-2.1-0.1c-0.8-0.2-1.8-0.7-2.6-1.5c-0.9-0.8-1.7-1.7-2.5-2.9c-1.5-2.3-2.4-4.7-2.7-6.5c-0.3-1.8,0.2-3,0.2-3
		c0,0-0.2,0.2-0.5,0.7c-0.2,0.3-0.4,0.7-0.5,1.3c-0.3-0.6-0.6-1-0.8-1.3c-0.3-0.4-0.6-0.6-0.6-0.6c0,0,0.5,1.2,0.6,3
		c0.1,1.8-0.3,4.3-1.5,6.6C124.3,152.6,123.6,153.7,122.8,154.4z"/>
	<radialGradient id="SVGID_12_" cx="128.9991" cy="126.3574" r="119.0821" gradientUnits="userSpaceOnUse">
		<stop  offset="0.2" style="stop-color:#FFFFFF"/>
		<stop  offset="0.7" style="stop-color:#FFFFFF;stop-opacity:0.6"/>
		<stop  offset="1" style="stop-color:#FFFFFF"/>
	</radialGradient>
	<path class="st12" d="M111.2,165.8c-0.2,0.5-0.3,0.8-0.3,0.8s0.2-0.2,0.6-0.7c0.4-0.4,0.8-1.1,1.3-2.1c0.4-1,0.7-2.3,0.6-3.8
		c-0.1-1.5-0.7-3.1-1.8-4.4c-1.1-1.3-2.5-2.2-3.8-2.8c-1.3-0.6-2.6-0.8-3.6-0.8c-1-0.1-1.9,0.1-2.4,0.2c-0.6,0.1-0.9,0.2-0.9,0.2
		c0,0,1.3,0.1,3.1,0.7c1.8,0.6,4.2,1.8,5.9,3.9c0.8,1,1.4,2.2,1.7,3.3c0.3,1.1,0.3,2.2,0.2,3.2C111.6,164.5,111.4,165.3,111.2,165.8
		z"/>
	<radialGradient id="SVGID_13_" cx="128.9991" cy="126.3574" r="119.0821" gradientUnits="userSpaceOnUse">
		<stop  offset="0.2" style="stop-color:#FFFFFF"/>
		<stop  offset="0.7" style="stop-color:#FFFFFF;stop-opacity:0.6"/>
		<stop  offset="1" style="stop-color:#FFFFFF"/>
	</radialGradient>
	<path class="st13" d="M82.8,136.9c0.3-0.3,0.3-0.6,0.3-0.6c-0.2-0.2-0.8,0.4-2.1,0.8c-1.2,0.5-3,0.8-5.1,0.8c-1,0-2-0.2-2.9-0.4
		c-0.3-0.1-0.5-0.1-0.7-0.2c-0.5-0.2-1-0.4-1.3-0.6c-1.1-0.6-1.7-1.3-1.9-1.2c-0.1,0.1-0.1,0.3,0.1,0.7c0.2,0.4,0.6,0.9,1.2,1.4
		c0.7,0.6,1.9,1.2,3.2,1.5c0.1,0.1,0.1,0.1,0.2,0.2c1.2,1.1,3.2,2.1,5.6,2.3c1.2,0.1,2.4,0,3.4-0.4c1-0.3,1.9-0.8,2.5-1.3
		c0.6-0.5,1-1,1.2-1.4c0.2-0.4,0.3-0.6,0.2-0.7c-0.2-0.1-0.8,0.6-2,1.3c-0.6,0.3-1.4,0.7-2.2,0.9c-0.9,0.2-1.9,0.3-2.9,0.2
		c-1.1-0.1-2.2-0.4-3.1-0.7c2,0,3.8-0.6,5-1.3C82.1,137.6,82.5,137.2,82.8,136.9z"/>
	<radialGradient id="SVGID_14_" cx="128.9991" cy="126.3574" r="119.0821" gradientUnits="userSpaceOnUse">
		<stop  offset="0.2" style="stop-color:#FFFFFF"/>
		<stop  offset="0.7" style="stop-color:#FFFFFF;stop-opacity:0.6"/>
		<stop  offset="1" style="stop-color:#FFFFFF"/>
	</radialGradient>
	<path class="st14" d="M99.9,133.2c-0.8-0.5-1.5-0.9-2.3-1.1c-0.8-0.2-1.5-0.3-2.2-0.3c-0.7,0.1-1.3,0.3-1.8,0.5
		c-0.5,0.2-0.8,0.5-1.1,0.8c-0.6,0.5-0.8,0.8-0.8,0.8c0,0,0.3-0.3,0.9-0.6c0.6-0.3,1.6-0.8,2.8-0.7c1.2,0.1,2.5,0.7,3.8,1.7
		c1.3,1,2.5,2.3,3.7,3.8c2.4,3,4.3,5.9,5.7,8.1c1.4,2.2,2.1,3.5,2.2,3.5c0,0-0.5-1.5-1.5-3.9c-1.1-2.3-2.7-5.6-5.2-8.7
		C102.8,135.5,101.4,134.1,99.9,133.2z"/>
	<radialGradient id="SVGID_15_" cx="128.9991" cy="126.3574" r="119.0821" gradientUnits="userSpaceOnUse">
		<stop  offset="0.2" style="stop-color:#FFFFFF"/>
		<stop  offset="0.7" style="stop-color:#FFFFFF;stop-opacity:0.6"/>
		<stop  offset="1" style="stop-color:#FFFFFF"/>
	</radialGradient>
	<path class="st15" d="M152.5,198.2c0.4-0.8,0.3-0.8,0.5-1.6c0.1-0.4,0.1-0.9,0.1-1.5c0-0.5-0.1-1.2-0.6-1.9c-0.2-0.3-0.6-0.7-1-0.9
		c-0.4-0.2-0.9-0.3-1.3-0.3c-0.9,0-1.6,0.3-2.3,0.6c-1.3,0.7-2.2,1.6-2.9,2.5c-0.7,0.9-1.2,1.8-1.5,2.6c-0.6,1.6-0.7,2.6-0.7,2.6
		c3.3-6.3,6.4-6,7.1-6c0.5,0,0.7,0.2,0.9,0.3c0.2,0.1,0.5,0.4,0.7,0.8c0.2,0.4,0.4,0.8,0.4,1.2c0,2.5-1.4,4-1.4,4
		C150.4,200.6,151.8,199.5,152.5,198.2z"/>
	<radialGradient id="SVGID_16_" cx="128.9991" cy="126.3574" r="119.0821" gradientUnits="userSpaceOnUse">
		<stop  offset="0.2" style="stop-color:#FFFFFF"/>
		<stop  offset="0.7" style="stop-color:#FFFFFF;stop-opacity:0.6"/>
		<stop  offset="1" style="stop-color:#FFFFFF"/>
	</radialGradient>
	<path class="st16" d="M104.4,194.7c0.2-0.1,0.4-0.3,0.9-0.3c0.6,0,3.7-0.3,7.1,6c0,0-0.1-1-0.7-2.6c-0.3-0.8-0.8-1.7-1.5-2.6
		c-0.7-0.9-1.6-1.8-2.9-2.5c-0.6-0.3-1.4-0.6-2.3-0.6c-0.4,0-0.9,0.1-1.3,0.3c-0.4,0.2-0.8,0.5-1,0.9c-0.5,0.7-0.6,1.3-0.6,1.9
		c0,0.6,0,1,0.1,1.5c0.1,0.9,0.1,0.9,0.5,1.6c0.6,1.3,2,2.4,2,2.4c0,0-1.4-1.5-1.4-4c0-0.4,0.2-0.8,0.4-1.2
		C103.8,195.1,104.1,194.8,104.4,194.7z"/>
</g>
</svg>
