<?xml version="1.0" encoding="utf-8"?>
<!-- Generator: Adobe Illustrator 21.1.0, SVG Export Plug-In . SVG Version: 6.00 Build 0)  -->
<svg version="1.1" id="Layer_8" xmlns="http://www.w3.org/2000/svg" xmlns:xlink="http://www.w3.org/1999/xlink" x="0px" y="0px"
	 viewBox="0 0 255.1 255.1" style="enable-background:new 0 0 255.1 255.1;" xml:space="preserve">
<style type="text/css">
	.st0{fill:url(#SVGID_1_);}
	.st1{fill:url(#SVGID_2_);}
	.st2{fill:url(#SVGID_3_);}
	.st3{fill:url(#SVGID_4_);}
	.st4{fill:url(#SVGID_5_);}
	.st5{fill:url(#SVGID_6_);}
	.st6{fill:url(#SVGID_7_);}
	.st7{fill:url(#SVGID_8_);}
	.st8{fill:url(#SVGID_9_);}
	.st9{fill:url(#SVGID_10_);}
	.st10{fill:url(#SVGID_11_);}
	.st11{fill:url(#SVGID_12_);}
	.st12{fill:#FFFFFF;}
</style>
<g>
	<radialGradient id="SVGID_1_" cx="128.9991" cy="136.3574" r="116.1211" gradientUnits="userSpaceOnUse">
		<stop  offset="0.2" style="stop-color:#FFFFFF"/>
		<stop  offset="0.7" style="stop-color:#FFFFFF;stop-opacity:0.6"/>
		<stop  offset="1" style="stop-color:#FFFFFF"/>
	</radialGradient>
	<path class="st0" d="M142,103.3c2.2-1,4.4-1.8,6.4-2.3c1-0.3,2.1-0.5,3.1-0.7l1.5-0.3c0.5-0.1,0.9-0.2,1.4-0.2
		c1.9-0.3,3.6-0.4,5.1-0.4c1.6,0,2.9,0.3,4.1,0.6c1.2,0.3,2.1,0.8,2.9,1.2c1.5,0.8,2.2,1.4,2.3,1.4c0,0-0.7-0.8-2.2-1.9
		c-0.8-0.5-1.7-1.1-3-1.6c-1.2-0.5-2.8-0.9-4.4-1c-3.4-0.3-7.4,0.2-11.7,1.2c-2.2,0.5-12.8,2.8-12.1,7.8
		C137.6,105.6,139.8,104.3,142,103.3z"/>
	<radialGradient id="SVGID_2_" cx="128.9991" cy="136.3574" r="116.1211" gradientUnits="userSpaceOnUse">
		<stop  offset="0.2" style="stop-color:#FFFFFF"/>
		<stop  offset="0.7" style="stop-color:#FFFFFF;stop-opacity:0.6"/>
		<stop  offset="1" style="stop-color:#FFFFFF"/>
	</radialGradient>
	<path class="st1" d="M151.8,108.6c-1.7-0.1-3.6-0.1-5.6,0.4c-2,0.5-3.7,1.3-5.1,2.4c-1.4,1.1-2.3,2.4-2.9,3.5
		c-0.6,1.1-0.9,2.1-1.1,2.8c-0.2,0.7-0.2,1.1-0.2,1.1c0,0,0.2-0.4,0.5-1c0.3-0.6,0.8-1.5,1.6-2.4c0.7-0.9,1.8-2,3.1-2.8
		c1.3-0.8,2.9-1.5,4.7-1.9c3.5-0.8,7-0.6,9.4-0.4c2.5,0.3,4,0.7,4,0.7c0,0-1.4-0.8-3.8-1.5C155,109,153.5,108.7,151.8,108.6z"/>
	<radialGradient id="SVGID_3_" cx="128.9991" cy="136.3574" r="116.1211" gradientUnits="userSpaceOnUse">
		<stop  offset="0.2" style="stop-color:#FFFFFF"/>
		<stop  offset="0.7" style="stop-color:#FFFFFF;stop-opacity:0.6"/>
		<stop  offset="1" style="stop-color:#FFFFFF"/>
	</radialGradient>
	<path class="st2" d="M161.2,115.4c1-0.2,1.9-0.6,2.7-1c0.8-0.4,1.5-0.9,2-1.4c0.5-0.5,0.8-1,1-1.5c0.4-0.9,0.4-1.4,0.4-1.4
		c0,0-0.2,0.5-0.8,1.1c-0.6,0.7-1.7,1.3-3.2,1.6c-1.5,0.3-3.4,0.3-5.5,0.2c-2.1-0.1-4.5-0.2-7-0.2c-2.6,0-5.1,0.3-7.3,1
		c-1.1,0.4-2.2,0.8-3.1,1.4c-0.9,0.6-1.7,1.3-2.2,2.1c-1.1,1.6-1.3,3-1.3,4c0,1,0,1.5,0,1.5c0,0,0-0.1,0.1-0.4
		c0.2-0.1,0.4-0.3,0.9-0.4c0.7-0.2,1.7-0.4,2.9-0.4c1.2,0,2.7,0.2,4.4,0.4c0.9,0.1,1.7,0.2,2.7,0.3c0.9,0.1,2,0.1,3,0
		c2-0.2,3.9-0.7,5.6-1.5c1.6-0.8,2.9-1.8,3.7-2.9C160.7,116.9,161,116.1,161.2,115.4z M150.9,116.3
		C150.9,116.3,150.9,116.3,150.9,116.3c0,0.1-0.1,0.1-0.2,0.2c-0.3,0.2-0.5,0.3-0.8,0.4c-0.2,0.1-0.6,0.2-0.8,0.2
		c-0.5,0.1-1.1,0-1.6-0.3c-0.2-0.1-0.4-0.2-0.6-0.4C148.1,116.3,149.5,116.3,150.9,116.3z M155.8,119.4c-1.5,0.5-3.3,0.9-5.2,1.1
		c-0.9,0.1-1.8,0.1-2.7,0.1l-2.6,0c-1.7,0-3.3,0-4.6,0.2c-1.3,0.2-2.4,0.6-3,1c-0.4,0.2-0.6,0.4-0.7,0.6c0.1-0.2,0.2-0.5,0.3-0.9
		c0.4-0.8,1-2,2.1-2.9c1.1-0.9,2.7-1.6,4.7-1.9c0.1,0,0.3,0,0.4-0.1c0.1,0.8,0.5,1.6,1.1,2.4c0.4,0.5,1,0.9,1.6,1.2
		c0.7,0.3,1.4,0.4,2.2,0.3c0.8-0.1,1.5-0.4,2.1-0.8c0.6-0.4,1-0.9,1.4-1.4c0.4-0.7,0.6-1.4,0.7-2c1.5,0,3-0.1,4.3-0.3
		c0.9-0.1,1.9-0.2,2.7-0.4c-0.3,0.5-0.7,1.2-1.3,1.7C158.6,118.1,157.3,118.9,155.8,119.4z"/>
	<radialGradient id="SVGID_4_" cx="128.9991" cy="136.3574" r="116.1211" gradientUnits="userSpaceOnUse">
		<stop  offset="0.2" style="stop-color:#FFFFFF"/>
		<stop  offset="0.7" style="stop-color:#FFFFFF;stop-opacity:0.6"/>
		<stop  offset="1" style="stop-color:#FFFFFF"/>
	</radialGradient>
	<path class="st3" d="M130.7,149.1c0.6,0,1.2,0.1,1.5,0c0.2,0,0.3-0.2,0.4-0.3c0.1-0.1,0.3-0.3,0.5-0.4c0.5-0.2,1-0.1,1-0.1
		c0,0,0.1-0.1,0.1-0.3c0-0.2,0-0.6-0.1-1c-0.2-0.4-0.6-0.8-1.1-1.1c-0.5-0.2-1.2-0.3-1.7-0.1c-1.2,0.3-1.7,1.3-1.8,2.1
		c-0.1,0.8,0.2,1.3,0.2,1.2C129.6,149.2,130.1,149.1,130.7,149.1z"/>
	<radialGradient id="SVGID_5_" cx="128.9991" cy="136.3574" r="116.1211" gradientUnits="userSpaceOnUse">
		<stop  offset="0.2" style="stop-color:#FFFFFF"/>
		<stop  offset="0.7" style="stop-color:#FFFFFF;stop-opacity:0.6"/>
		<stop  offset="1" style="stop-color:#FFFFFF"/>
	</radialGradient>
	<path class="st4" d="M141.2,158.8c-0.8-0.2-1.6-0.5-2.5-0.9c-0.9-0.4-1.9-0.9-3.1-1.3c-0.6-0.2-1.4-0.4-2.2-0.4c-0.1,0-0.2,0-0.3,0
		c-0.1,0-0.1,0-0.2,0l-0.1,0l-0.5,0.1c-0.3,0.1-0.6,0.1-1,0.2c-0.7,0.2-1.4,0.4-2,0.6c-0.3,0.1-0.6,0.2-0.8,0.3
		c-0.2,0-0.3,0.1-0.6,0.1c-0.5,0-1.1,0-1.6-0.1c-0.5-0.1-1-0.2-1.6-0.4c-0.6-0.2-1.2-0.4-2-0.5c-0.4-0.1-0.8-0.1-1.2-0.1
		c-0.3,0-0.6,0-0.8,0.1c-0.2,0.1-0.4,0.1-0.6,0.2c-0.7,0.3-1.1,0.6-1.6,0.9c-0.5,0.3-0.9,0.5-1.3,0.7c-0.9,0.4-1.7,0.8-2.5,1
		c-1.6,0.4-3,0.2-3.9,0.1c-1-0.2-1.5-0.4-1.5-0.4c0,0,0.4,0.4,1.3,0.9c0.9,0.5,2.3,1.1,4.3,1.1c1,0,2-0.2,3.1-0.5
		c0.5-0.2,1.1-0.3,1.6-0.5c0.5-0.2,1.1-0.4,1.5-0.5c0.1,0,0.2,0,0.3-0.1c0.1,0,0.1,0,0.1,0c0.2,0,0.4,0.1,0.6,0.1
		c0.4,0.1,0.9,0.4,1.6,0.6c0.6,0.3,1.3,0.5,2.1,0.6c0.8,0.2,1.5,0.2,2.3,0.2c0.4,0,0.9-0.1,1.4-0.2c0.5-0.1,0.8-0.3,1.1-0.4
		c0.6-0.2,1.1-0.4,1.6-0.6c0.3-0.1,0.6-0.2,0.8-0.2l0.4-0.1l0.1,0c0,0,0,0,0,0c0,0,0.1,0,0.1,0c0.3-0.1,0.8,0,1.3,0
		c1,0.2,2.1,0.5,3.1,0.7c1.1,0.2,2.1,0.4,3.1,0.4c1,0,1.9-0.3,2.6-0.6c0.7-0.3,1.2-0.7,1.6-1c0.8-0.7,1.1-1.1,1.1-1.1
		c0,0-0.5,0.3-1.4,0.7C144.1,158.8,142.8,159.2,141.2,158.8z"/>
	<radialGradient id="SVGID_6_" cx="128.9991" cy="136.3574" r="116.1211" gradientUnits="userSpaceOnUse">
		<stop  offset="0.2" style="stop-color:#FFFFFF"/>
		<stop  offset="0.7" style="stop-color:#FFFFFF;stop-opacity:0.6"/>
		<stop  offset="1" style="stop-color:#FFFFFF"/>
	</radialGradient>
	<path class="st5" d="M139,165.4c-1.2,0.8-2.8,1.5-4.6,2c-0.9,0.2-1.9,0.4-2.9,0.6c-0.5,0.1-1,0.1-1.6,0.2c-0.3,0.1-0.5,0.1-0.8,0.1
		c-0.2,0-0.5,0.1-0.8,0.1c-4.2,0.4-8.2-0.5-10.8-1.8c-2.6-1.3-3.8-3-3.8-3c0,0,0.1,0.5,0.5,1.3c0.4,0.8,1.1,1.9,2.3,3.1
		c1.2,1.1,2.9,2.2,5,2.9c2.1,0.7,4.5,1.1,7.1,0.9c0.3,0,0.6-0.1,0.9-0.1c0.3,0,0.7-0.1,0.9-0.2c0.5-0.1,1.1-0.2,1.7-0.3
		c1.1-0.3,2.3-0.6,3.3-1.1c2-0.9,3.7-2.2,4.7-3.4c1.1-1.2,1.7-2.4,2.1-3.2c0.4-0.8,0.6-1.2,0.6-1.2s-0.3,0.3-1,0.9
		C141.1,163.8,140.2,164.6,139,165.4z"/>
	<radialGradient id="SVGID_7_" cx="128.9991" cy="136.3574" r="116.1211" gradientUnits="userSpaceOnUse">
		<stop  offset="0.2" style="stop-color:#FFFFFF"/>
		<stop  offset="0.7" style="stop-color:#FFFFFF;stop-opacity:0.6"/>
		<stop  offset="1" style="stop-color:#FFFFFF"/>
	</radialGradient>
	<path class="st6" d="M233.6,105.2c-0.4-3.8-1.5-7.5-2.9-10.9c-1.5-3.4-3.4-6.5-5.7-9.3c-4.5-5.6-10-9.9-15.7-13
		c-2.4-1.3-5-2.3-7.5-3c-0.3-1.7-0.7-3.7-1.4-5.9c-0.7-2.5-1.8-5.3-3.3-8.2c-1.5-2.9-3.5-6-6.1-8.9c-2.6-2.9-5.9-5.6-9.8-7.8
		c-3.9-2.2-8.3-3.8-13.1-4.6c-2.4-0.4-4.9-0.5-7.4-0.4c-1.3,0.1-2.6,0.3-3.8,0.5c-0.1,0-0.2,0-0.3,0.1c-0.2-0.1-0.3-0.3-0.5-0.4
		c-0.7-0.5-1.8-1-3.1-1.2c-1.3-0.2-2.9,0-4.4,0.5c-3.1,1-6.3,3.3-9.5,5.8c-1.6,1.2-3.3,2.6-5,3.7c-0.9,0.5-1.8,1-2.6,1.3
		c-1,0.3-2,0.4-2.8,0.3c-0.4,0-0.7-0.1-0.9-0.3c-0.2-0.1-0.3-0.3-0.4-0.5c-0.2-0.5-0.2-1.5,0-2.4l0.1-0.2c0-0.1,0.1-0.2,0.1-0.3
		c0.1-0.2,0.2-0.4,0.3-0.6c0.2-0.4,0.4-0.8,0.7-1.2c0.5-0.8,1.2-1.5,1.9-2.1c1.4-1.3,2.9-2.4,4.4-3.3c1.5-0.9,3-1.5,4.4-2
		c2.8-0.9,5.3-0.9,7-0.4c1.6,0.4,2.4,1.1,2.4,1c0,0-0.2-0.2-0.5-0.5c-0.4-0.3-0.9-0.7-1.7-1.1c-0.8-0.4-1.9-0.7-3.2-0.9
		c-1.3-0.2-2.8-0.1-4.4,0.1c-0.7,0.1-1.3,0.3-2,0.4c-0.9-0.1-2.1-0.2-3.6,0c-1.8,0.3-4,1-6.3,2.4c-2.2,1.4-4.5,3.5-6.2,6.5
		c-0.8,1.5-1.4,3.3-1.6,5.2c0,0.2,0,0.5,0,0.7c0,0.3,0,0.5,0,0.7c0,0.5,0.1,1,0.1,1.5c0.1,1,0.4,2,0.8,3c0.4,1,1,1.9,1.8,2.8
		c0.8,0.8,1.8,1.5,3,1.9c1.2,0.4,2.4,0.5,3.6,0.4c1.2-0.1,2.4-0.5,3.5-1c0.8-0.4,1.5-0.8,2.2-1.3c0,0,0.1,0,0.1-0.1
		c0.2-0.2,0.5-0.4,0.7-0.5c0.9-0.7,1.8-1.4,2.6-2.1l5.2-4.4c1.8-1.5,3.6-2.9,5.5-4.1c1.9-1.3,4-2.3,6.2-3.2c0.5-0.2,1.1-0.4,1.6-0.6
		c0.5-0.2,1-0.3,1.6-0.5c1.1-0.2,2.2-0.4,3.3-0.5c2.3-0.2,4.5-0.1,6.7,0.2c4.4,0.6,8.6,2,12.2,3.9c3.7,1.9,6.8,4.3,9.5,6.9
		c2.6,2.6,4.7,5.4,6.3,8.1c1.6,2.7,2.8,5.4,3.7,7.7c0.8,2,1.3,3.8,1.8,5.4c-0.3-0.1-0.6-0.2-0.9-0.2c-1.2-0.3-2.4-0.5-3.6-0.7
		c-0.4-1.3-0.8-2.8-1.5-4.4c-0.9-2.3-2.3-4.9-4.2-7.5c-1.9-2.6-4.4-5.1-7.5-7.4c-1.5-1.1-3.2-2.2-4.9-3.1c-1.8-1-3.7-1.8-5.6-2.7
		c-2-0.8-4.2-1.4-6.4-1.6c-2.3-0.3-4.6-0.2-6.9,0c-1.2,0.1-2.3,0.3-3.5,0.5c-0.6,0.1-1.2,0.2-1.7,0.3c-0.6,0.1-1.2,0.3-1.8,0.4
		c-2.4,0.7-4.6,1.9-6.6,3.4c-2,1.5-3.7,3.3-5.3,4.9c-1,1-1.9,1.9-2.9,2.7c-0.1,0.1-0.2,0.2-0.3,0.2c-0.6,0.5-1.3,1-2,1.5
		c-0.9,0.6-1.8,1.2-2.8,1.7c-1,0.5-1.9,1-2.9,1.3c-2,0.7-4,1-5.9,0.6c-1.9-0.4-3.5-1.5-4.7-3c-1.2-1.5-1.9-3.2-2.4-4.9
		c-0.9-3.5-0.9-7-0.3-10.1c0.6-3.1,1.7-5.7,3.1-7.7c1.4-2,3.2-3.3,4.9-4c1.6-0.7,3-0.7,4-0.7c0.9,0,1.4,0.1,1.4,0.1
		c0,0-0.5-0.1-1.4-0.2c-0.9,0-2.3,0-4.1,0.6c-1.7,0.6-3.6,1.8-5.2,3.9c-1.6,2-2.8,4.7-3.5,7.9c-0.7,3.1-0.9,6.8,0,10.5
		c0.5,1.8,1.2,3.8,2.5,5.5c0.6,0.8,1.4,1.6,2.3,2.2c0.9,0.6,2,1.1,3.1,1.4c2.2,0.5,4.6,0.2,6.8-0.5c1.1-0.4,2.1-0.8,3.2-1.4
		c1-0.5,2.1-1.1,3-1.8c1-0.7,1.9-1.4,2.8-2.2c0.1-0.1,0.2-0.2,0.4-0.3c0.7-0.7,1.5-1.4,2.2-2.1c1.7-1.7,3.3-3.4,5.2-4.8
		c1.8-1.4,3.9-2.5,6-3.2c0.6-0.2,1.1-0.3,1.6-0.4c0.6-0.1,1.1-0.2,1.7-0.3c1.1-0.2,2.3-0.4,3.4-0.5c2.2-0.2,4.4-0.3,6.5-0.1
		c2.1,0.2,4.2,0.7,6,1.4c1.9,0.8,3.8,1.6,5.5,2.5c1.7,0.9,3.4,1.9,4.9,2.9c3,2.1,5.5,4.5,7.5,7c2,2.5,2.6,4.5,3.7,6.8
		c0.6,1.4,0.9,3,1.2,4.4c-1.2-0.2-2.4-0.3-3.6-0.5c0,0,0,0,0,0c-0.5-1.9-1.3-4.3-2.8-6.7c-1.5-2.4-3.6-5-6.4-7.2
		c-0.4-0.3-0.7-0.6-1.1-0.8c-0.3-0.3-0.7-0.6-1.1-0.8c-0.8-0.5-1.6-1-2.6-1.4c-1.8-0.8-3.8-1.4-5.9-1.9c-2.1-0.4-4.3-0.7-6.5-0.7
		c-2.3,0-4.6,0.1-7,0.6c-1.2,0.3-2.4,0.6-3.5,1.1c-1.2,0.5-2.3,1.1-3.3,1.8c-2,1.3-3.9,2.9-5.8,4.6c-0.1,0.1-0.1,0.1-0.2,0.2
		c-0.1,0.1-0.3,0.3-0.4,0.4c-1.8,1.6-3.5,3.3-5.3,4.9c-2,1.7-4,3.4-6.2,4.8c-2.2,1.4-4.6,2.5-7.1,2.8c-0.6,0.1-1.2,0.1-1.9,0.2
		c-0.6,0-1.3,0-1.9,0c-1.3,0-2.5-0.1-3.7-0.4c-2.4-0.5-4.7-1.3-6.6-2.7c-1.9-1.4-3.3-3.2-4.3-5.2c-0.4-1-0.8-2.1-1-3.1
		c-0.2-1.1-0.3-2.2-0.4-3.3c-0.2-2.2-0.1-4.3,0.1-6.3c0.4-4.1,1.5-7.8,3.3-10.8c0.4-0.7,0.8-1.4,1.3-2c0.1-0.1,0.1-0.2,0.2-0.3
		c0.8-1.1,1.7-2.1,2.7-2.9c0.1,0,0.1-0.1,0.1-0.1c0.7-0.6,1.4-1.1,2.1-1.6c2.3-1.5,4.6-2.3,6.5-2.9c1.9-0.5,3.4-0.7,4.5-0.8
		c1-0.1,1.6-0.1,1.6-0.1c0,0-0.5,0-1.6,0.1c-1,0.1-2.6,0.2-4.5,0.6c-1.9,0.4-4.3,1.2-6.8,2.7c-0.9,0.5-1.8,1.2-2.6,1.9
		c-1.1-0.1-2.5-0.2-4.3,0c-0.5,0.1-1,0.1-1.6,0.3c-0.6-0.4-1.3-0.7-2-1c-2.4-1-5.5-1.9-9-2.2c-3.5-0.3-7.3-0.2-11.3,0.6
		c-4,0.8-7.6,2.1-10.7,3.7c-3.1,1.6-5.6,3.6-7.5,5.5c-1.8,1.9-2.9,3.8-3.5,5.1c-0.6,1.3-0.8,2.1-0.8,2.1c0,0,0.4-0.7,1.2-1.8
		c0.9-1.1,2.2-2.6,4.2-4.1c2-1.5,4.5-2.9,7.5-4.1c3-1.2,6.4-2.3,10.1-3c7.4-1.4,14.3-1.3,19.1-0.1c0.1,0,0.1,0,0.2,0
		c-1.1,0.4-2.2,0.9-3.3,1.6c-0.8,0.5-1.6,1.1-2.4,1.7c-1.7-0.3-4.1-0.5-6.9-0.3c-3.3,0.2-7.1,1-11.2,2.3c-2.1,0.7-4.2,1.5-6.3,2.5
		c-2.1,1-4.3,2.3-6.3,3.8c-4.1,3-7.3,6.6-9.7,10.3c-2.4,3.7-3.9,7.3-4.9,10.4c-0.5,1.6-0.8,3-1.1,4.2c-1,0.3-2.1,0.6-3.1,1
		c-2.8,1-5.6,2.4-8.3,4.1c-5.3,3.4-10.3,8.1-14,14c-1.9,2.9-3.4,6.1-4.6,9.6c-1.1,3.4-1.9,7.1-2,10.8c-0.1,3.7,0.4,7.4,1.3,10.9
		c1,3.5,2.5,6.8,4.3,9.7c1.8,3,4,5.6,6.3,8c2.3,2.4,4.8,4.5,7.3,6.3c1,0.8,2.1,1.5,3.2,2.3c0,0-0.1,0.1-0.1,0.1l-0.2,0.2l-0.1,0.1
		l-0.1,0.1l-0.3,0.5l-1.1,1.9c-0.8,1.3-1.6,2.7-2.3,4.3c-0.4,0.8-0.7,1.6-0.9,2.6c-0.1,0.5-0.2,0.9-0.3,1.4
		c-0.1,0.5-0.1,0.9-0.2,1.4c-0.4,3.6-0.1,7.2,0.7,10.2c0.8,3.1,2.2,5.6,3.6,7.5c1.4,1.9,2.7,3.2,3.7,4.1c1,0.8,1.6,1.2,1.6,1.2
		c0,0-0.4-0.5-1.2-1.6c-0.7-1-1.7-2.6-2.6-4.6c-0.9-2-1.8-4.5-2.2-7.3c-0.5-2.8-0.5-6-0.1-9.2c0-0.4,0.1-0.8,0.2-1.2
		c0.1-0.4,0.1-0.8,0.2-1.1c0.2-0.7,0.4-1.4,0.7-2.1c0.5-1.4,1.2-2.8,1.8-4.2c0.3-0.7,0.6-1.4,0.9-2.1c0.2-0.4,0.2-0.5,0.4-0.8
		c0,0,0,0,0-0.1c0.8,0.5,1.6,1,2.4,1.5c0.6,0.4,1.2,0.7,1.8,1.1c-0.7,0.9-1.4,1.8-2.1,2.9c-0.3,0.4-0.6,0.9-0.9,1.4
		c-0.3,0.5-0.5,1-0.8,1.5c-0.5,1-0.9,2.2-1.2,3.4c-0.6,2.4-0.9,5-0.6,7.6c0.1,1.3,0.4,2.6,0.7,4c0.1,0.3,0.2,0.7,0.3,1
		c0.1,0.3,0.2,0.7,0.4,1c0.2,0.6,0.5,1.3,0.8,1.9c1.1,2.6,2.7,4.9,4.5,6.8c1.8,1.9,4,3.4,6.1,4.6c1.1,0.6,2.1,1.1,3.1,1.6
		c1.1,0.5,2,0.9,3,1.3c1.9,0.9,3.6,1.8,5,2.9c1.4,1,2.6,2.1,3.5,3.2c0.9,1.1,1.4,2.2,1.7,3.1c0.3,0.9,0.4,1.7,0.4,2.2
		c0,0.5,0,0.8,0,0.8c0,0,0.1-0.3,0.1-0.8c0-0.5,0-1.3-0.2-2.3c-0.2-1-0.7-2.2-1.5-3.4c-0.8-1.2-2-2.4-3.4-3.6
		c-1.4-1.1-3.1-2.2-5-3.2c-0.9-0.5-2-1-2.9-1.4c-1-0.5-2-1-3-1.6c-2-1.2-3.9-2.7-5.6-4.5c-1.7-1.8-3.1-4-4.2-6.4
		c-0.3-0.6-0.5-1.2-0.7-1.8c-0.2-0.6-0.4-1.2-0.6-1.8c-0.3-1.2-0.6-2.5-0.8-3.7c-0.3-2.5-0.2-4.9,0.3-7.1c0.3-1.1,0.6-2.2,1-3.2
		c0.2-0.5,0.4-1,0.7-1.5c0.2-0.5,0.5-0.9,0.7-1.4c0.7-1.1,1.3-2.1,2-3c0.4,0.2,0.7,0.4,1.1,0.6l1.9,1c0.4,0.2,0.8,0.4,1.2,0.6
		c-0.9,1.3-1.8,2.8-2.4,4.6c-0.8,2.1-1.5,4.5-1.7,7.1c-0.2,2.6,0.2,5.3,1,8c0.4,1.3,1,2.7,1.6,4c0.7,1.3,1.5,2.6,2.5,3.7
		c1,1.2,2.1,2.2,3.3,3c1.2,0.9,2.4,1.6,3.7,2.2c2.5,1.3,4.9,2.3,7.1,3.5c2.2,1.2,4.1,2.5,5.7,4c1.6,1.5,2.8,3.1,3.5,4.8
		c0.7,1.7,0.8,3.4,0.4,4.8c-0.4,1.4-1.1,2.5-1.9,3.2c-0.7,0.7-1.4,1.2-1.9,1.5c-0.5,0.3-0.7,0.4-0.7,0.4s0.3-0.1,0.8-0.4
		c0.5-0.3,1.2-0.7,2-1.4c0.8-0.7,1.7-1.8,2.2-3.3c0.5-1.5,0.5-3.4-0.2-5.2c-0.6-1.9-1.9-3.7-3.5-5.4c-1.6-1.7-3.6-3.1-5.8-4.4
		c-2.2-1.3-4.6-2.4-7-3.7c-2.4-1.3-4.6-2.8-6.4-4.9c-0.9-1-1.7-2.2-2.3-3.4c-0.6-1.2-1.2-2.5-1.6-3.7c-0.8-2.5-1.2-5.1-1.1-7.5
		c0.1-2.4,0.6-4.7,1.3-6.8c0.6-1.7,1.4-3.2,2.2-4.6c0.9,0.5,1.9,0.9,2.8,1.3c-1.4,3.1-2.3,6.3-2.5,9.6c-0.4,7,3.1,13.7,8.1,17.6
		c1.2,1,2.5,1.9,3.8,2.7c0.6,0.4,1.3,0.8,1.9,1.2c0.6,0.4,1.3,0.8,1.9,1.2c1.3,0.7,2.6,1.4,3.8,2.1c1.2,0.7,2.3,1.5,3.3,2.4
		c1.9,1.8,3.2,4.1,4,6.5c0.8,2.3,1.2,4.8,0.9,7c-0.2,1.1-0.5,2.1-1.1,3.1c-0.5,0.9-1.2,1.7-2,2.3c-1.6,1.2-3.5,1.9-5.3,2.2
		c-3.6,0.5-6.9-0.3-9-1.6c-1.1-0.7-1.9-1.6-2.3-2.5c-0.4-0.9-0.6-1.8-0.5-2.4c0-0.7,0.2-1.2,0.2-1.5c0.1-0.3,0.2-0.5,0.2-0.5
		c0,0-0.1,0.2-0.2,0.5c-0.1,0.3-0.3,0.8-0.3,1.5c-0.1,0.7,0,1.6,0.5,2.5c0.4,0.9,1.2,1.9,2.3,2.6c1.1,0.8,2.5,1.4,4,1.7
		c1.6,0.4,3.3,0.5,5.2,0.3c1.9-0.2,3.9-0.9,5.6-2.2c0.9-0.7,1.7-1.5,2.3-2.5c0.6-1,1-2.1,1.2-3.3c0.4-2.4,0-5-0.8-7.4
		c-0.4-1.2-0.9-2.5-1.6-3.7c-0.7-1.2-1.5-2.3-2.6-3.3c-1-1-2.2-1.9-3.4-2.6c-1.2-0.8-2.5-1.4-3.7-2.2c-0.6-0.4-1.2-0.7-1.9-1.2
		c-0.6-0.4-1.2-0.8-1.9-1.2c-1.2-0.8-2.5-1.7-3.6-2.7c-2.3-1.9-4.3-4.3-5.6-7.2c-0.3-0.7-0.6-1.4-0.8-2.2c-0.3-0.8-0.5-1.5-0.6-2.3
		c-0.3-1.5-0.4-3.1-0.3-4.8c0.2-3.1,1-6.2,2.4-9c0.1-0.1,0.1-0.3,0.2-0.4c0.2-0.5,0.5-1,0.8-1.4c0.2-0.3,0.3-0.5,0.5-0.8l1.3-2.1
		l0.1-0.1c0.2-0.3,0.3-0.5,0.5-0.8c0.3-0.5,0.6-1,0.9-1.5c0.2-0.4,0.4-0.7,0.5-1.1c0.2-0.5,0.4-1,0.5-1.5c0-0.2,0.1-0.3,0.1-0.5
		c0.2-0.8,0.2-1.7,0-2.5c0-0.1,0-0.1,0-0.2c-0.1-0.5-0.3-1-0.5-1.5c-0.2-0.3-0.3-0.7-0.5-1c-0.5-0.8-1-1.6-1.6-2.3
		c-0.3-0.3-0.6-0.7-0.9-1c-0.3-0.3-0.6-0.6-0.9-0.9c-2.5-2.5-4.9-4.8-6.9-7.4c-2.1-2.6-3.7-5.4-4.7-8.3c-0.5-1.5-0.8-3-0.9-4.5
		c-0.1-1.5-0.1-3.1,0-4.6c0.2-3,0.8-5.9,1.9-8.5c1.1-2.6,2.7-4.9,4.5-6.9c0.9-1,1.9-1.9,2.8-2.8c1-0.8,2-1.6,3.1-2.3
		c2-1.5,4.1-2.7,6.1-3.9c2.4-1.4,4.8-2.7,6.9-3.9c1.8,0,3.6,0,5.3,0.1c-1.7,1.2-3.8,2.6-6.2,3.9c-1.5,0.9-3.2,1.8-4.9,2.9
		c-0.9,0.5-1.7,1.1-2.6,1.7c-0.9,0.6-1.8,1.2-2.7,1.9c-1.8,1.4-3.5,3.1-4.9,5.1c-1.5,2-2.7,4.3-3.5,6.9c-0.7,2.6-1,5.4-0.8,8.3
		c0.3,2.9,1.2,5.7,2.7,8.4c1.5,2.7,3.4,5.1,5.6,7.3c0.5,0.6,1.1,1.1,1.7,1.6l0.9,0.8c0.3,0.2,0.6,0.5,0.9,0.8c1.1,1,2.2,2.2,3.1,3.4
		c0.9,1.2,1.7,2.6,2.1,4c0.5,1.4,0.7,3,0.6,4.5c0,0.2,0,0.4-0.1,0.6c0,0.3-0.1,0.7-0.2,1c-0.1,0.7-0.3,1.3-0.5,1.9
		c-0.1,0.3-0.2,0.6-0.4,1c-0.1,0.3-0.2,0.5-0.4,0.8c-0.5,1-1.1,1.9-1.7,2.9c-0.1,0.2-0.2,0.4-0.4,0.6c-0.1,0.1-0.1,0.2-0.2,0.3
		c-0.6,0.9-1.3,1.8-1.9,2.7c-0.3,0.4-0.5,0.8-0.8,1.2c-0.1,0.1-0.2,0.3-0.3,0.4c-0.8,1.3-1.5,2.8-1.8,4.4c-0.4,1.7-0.4,3.6,0,5.2
		c0.3,1.7,0.8,3.3,1.6,4.8c1.5,3,3.6,5.5,5.9,7.6c1.1,1.1,2.3,2.1,3.5,3c0.6,0.5,1.2,0.9,1.8,1.4c0.6,0.4,1.2,0.9,1.8,1.3
		c2.3,1.9,4.8,3.4,6.9,5.1c2.1,1.7,3.9,3.7,4.9,6c1,2.3,1.1,4.8,0.8,7.1c-0.4,2.3-1.1,4.5-2.2,6.4c-2,3.9-5,6.8-8.1,8.2
		c-1.6,0.8-3.1,1.2-4.6,1.3c-1.5,0.1-2.9,0-4.1-0.3c-2.4-0.5-4.1-1.4-5.3-2.1c-1.1-0.7-1.7-1.1-1.7-1.1c0,0,0.5,0.4,1.6,1.1
		c1.1,0.7,2.8,1.7,5.3,2.3c1.2,0.3,2.6,0.5,4.2,0.4c1.5-0.1,3.2-0.5,4.8-1.2c3.3-1.5,6.4-4.4,8.6-8.3c1.1-2,2-4.2,2.4-6.7
		c0.2-1.2,0.3-2.5,0.2-3.8c0-0.7-0.1-1.3-0.3-2c-0.2-0.7-0.4-1.3-0.6-1.9c-0.5-1.3-1.3-2.5-2.1-3.6c-0.9-1.1-1.9-2.1-3-3
		c-2.1-1.8-4.6-3.4-6.8-5.3c-0.1-0.1-0.3-0.2-0.5-0.4l-0.5-0.3l-0.9-0.7c-0.6-0.4-1.2-0.9-1.8-1.4c-1.2-0.9-2.3-1.9-3.4-2.9
		c-2.2-2.1-4.2-4.4-5.5-7.2c-0.7-1.4-1.1-2.8-1.4-4.4c-0.3-1.5-0.3-3,0-4.5c0.3-1.4,1-2.7,1.8-4c0-0.1,0.1-0.2,0.1-0.2
		c0.3-0.4,0.6-0.9,0.9-1.4c0.6-0.9,1.3-1.8,1.9-2.7c0,0,0.1-0.1,0.1-0.1c0.2-0.2,0.3-0.5,0.5-0.7c0.6-0.9,1.2-1.9,1.7-2.9
		c0.1-0.3,0.3-0.6,0.4-0.9c0.1-0.2,0.2-0.5,0.3-0.7c0.2-0.6,0.4-1.2,0.6-1.8c0.1-0.3,0.1-0.6,0.2-0.9c0.1-0.5,0.2-1.1,0.2-1.7
		c0.1-1.8-0.2-3.5-0.7-5.1c-0.6-1.6-1.4-3.1-2.4-4.5c-1-1.3-2.1-2.5-3.3-3.6c-0.3-0.3-0.6-0.5-0.9-0.8l-0.9-0.7
		c-0.6-0.5-1.1-1-1.7-1.6c-2.1-2.1-4-4.4-5.4-6.9c-1.4-2.5-2.3-5.1-2.7-7.8c-0.3-2.7-0.1-5.3,0.6-7.8c0.7-2.5,1.8-4.7,3.1-6.6
		c1.4-1.9,3-3.6,4.7-5c1.7-1.4,3.4-2.6,5.1-3.7c1.7-1.1,3.3-2.1,4.8-3c2.5-1.5,4.6-3,6.4-4.4c1.2,0,2.3,0.1,3.4,0.1
		c-0.1,0.5-0.3,0.9-0.4,1.4c-0.9,0.9-2.1,2.2-3.7,3.7c-1.9,1.7-4.2,3.7-7.1,5.8c-0.7,0.5-1.5,1.1-2.2,1.6c-0.8,0.6-1.6,1.1-2.4,1.8
		c-1.6,1.3-3.2,2.9-4.5,4.9c-1.3,2-2.2,4.5-2.3,7.1c-0.1,1.3,0,2.7,0.3,4c0.1,0.3,0.1,0.7,0.2,1l0.3,1c0.2,0.7,0.4,1.3,0.7,2
		c1,2.6,2.5,5.1,4.2,7.4c1.7,2.4,3.5,4.7,5.1,7.1c0.8,1.2,1.6,2.5,2.3,3.7c0.7,1.3,1.2,2.6,1.5,4c0.3,1.4,0.5,2.8,0.4,4.2
		c-0.1,1.2-0.3,2.5-0.7,3.7c-0.1,0.2-0.1,0.4-0.2,0.7c0,0,0,0.1,0,0.1c-0.2,0.6-0.4,1.2-0.6,1.8c-0.2,0.5-0.4,1-0.6,1.6
		c-0.1,0.3-0.3,0.6-0.4,1c-0.3,0.7-0.6,1.4-1,2.1c-0.1,0.3-0.2,0.5-0.4,0.8c-0.3,0.6-0.5,1.1-0.7,1.7c-0.2,0.4-0.3,0.8-0.5,1.2
		c-0.2,0.5-0.4,1.1-0.6,1.6c-0.2,0.7-0.5,1.5-0.6,2.3c-0.4,1.8-0.6,3.7-0.4,5.7c0,0.2,0.1,0.5,0.1,0.7c0,0.3,0.1,0.6,0.2,0.8
		c0.2,0.5,0.3,1,0.6,1.5c0.4,0.9,1,1.8,1.6,2.5c1.2,1.5,2.6,2.7,4,3.7c2.8,2.1,5.7,3.8,8.5,5.5c2.8,1.7,5.4,3.4,7.8,5.3
		c1.2,0.9,2.3,1.9,3.3,3c0.5,0.6,1.1,1.2,1.6,1.8c0.4,0.5,0.8,1,1.2,1.6c0.6,0.9,1.2,1.8,1.7,2.8c0.8,1.5,1.4,3.1,1.8,4.7
		c0.7,2.6,0.9,5.2,0.5,7.7c-0.3,2.5-1.2,4.8-2.4,6.8c-1.2,2-2.8,3.7-4.5,5c-1.7,1.3-3.6,2.3-5.5,2.9c-1.9,0.7-3.7,1-5.5,1.3
		c-3.5,0.4-6.6,0.1-9.1-0.2c-2.5-0.4-4.4-0.9-5.7-1.2c-1.3-0.4-2-0.6-2-0.6c0,0,0.7,0.3,1.9,0.7c1.3,0.5,3.1,1.1,5.6,1.6
		c2.5,0.5,5.6,1,9.3,0.8c1.8-0.1,3.8-0.4,5.8-1c2-0.6,4.1-1.5,6-2.9c2-1.3,3.8-3.1,5.2-5.3c1.5-2.2,2.5-4.7,3-7.5
		c0.5-2.8,0.4-5.8-0.3-8.7c-0.7-2.9-1.9-5.8-3.6-8.4c-0.1-0.1-0.2-0.3-0.3-0.4l0-0.4c0.1-2.2,0.2-4.5,0.2-6.8
		c0-3.8-0.3-7.4-0.8-10.8c0.6,0.8,1.1,1.6,1.6,2.4c0.6,0.9,1.2,1.7,1.8,2.5c1.3,1.6,2.7,3,4.2,4.1c3,2.2,6.1,3.6,8.9,4.5
		c2.8,0.9,5.3,1.4,7.3,1.6c2,0.3,3.6,0.3,4.7,0.3c1.1,0,1.6,0,1.6,0s-0.3,0-1,0c1.2-0.1,2.9-0.2,5-0.7c2.3-0.5,5-1.3,8-2.7
		c3-1.4,6.3-3.2,9.6-5.8c1.8-1.4,3.6-3.1,5.3-4.9c-0.4,3-0.7,6.3-0.8,9.6c-0.1,2.3-0.1,4.6,0,6.8c0,0.3,0,0.5,0,0.8
		c0,0-0.1,0.1-0.1,0.1c-1.7,2.7-2.9,5.5-3.6,8.5c-0.7,2.9-0.7,5.9-0.2,8.7c0.5,2.8,1.6,5.4,3,7.5c1.5,2.2,3.3,3.9,5.3,5.2
		c2,1.3,4.1,2.2,6.1,2.8c2,0.6,4,0.9,5.8,0.9c3.7,0.2,6.8-0.3,9.3-0.9c2.5-0.6,4.4-1.2,5.6-1.7c1.2-0.5,1.9-0.8,1.9-0.7
		c0,0-0.7,0.2-1.9,0.6c-1.3,0.4-3.2,0.9-5.7,1.3c-2.5,0.4-5.6,0.7-9.1,0.3c-1.8-0.2-3.6-0.5-5.5-1.2c-1.9-0.6-3.8-1.6-5.5-2.9
		c-1.7-1.3-3.3-3-4.6-4.9c-1.2-2-2.1-4.3-2.4-6.8c-0.4-2.5-0.2-5.1,0.5-7.7c0.4-1.5,0.9-2.9,1.6-4.3c0.5-1.1,1.2-2.2,1.9-3.2
		c0.3-0.4,0.6-0.8,0.9-1.3c0.6-0.7,1.2-1.4,1.8-2.1c1-1.1,2.1-2.1,3.2-3c2.4-1.9,5-3.6,7.8-5.3c2.8-1.7,5.7-3.4,8.5-5.5
		c1.4-1.1,2.8-2.2,4-3.7c0.6-0.7,1.2-1.5,1.7-2.5c0.2-0.5,0.4-0.9,0.6-1.4c0.1-0.3,0.1-0.5,0.2-0.8c0.1-0.3,0.1-0.5,0.1-0.8
		c0.3-2,0.1-3.9-0.3-5.7c-0.2-0.7-0.4-1.4-0.6-2.1c0.4-0.2,0.8-0.4,1.2-0.5c0.8-0.4,1.7-0.8,2.5-1.2c0.7,1.2,1.3,2.4,1.6,3.7
		c0.3,1.5,0.3,3,0,4.5c-0.3,1.5-0.7,3-1.4,4.4c-1.3,2.8-3.3,5.1-5.5,7.2c-1.1,1-2.2,2-3.4,2.9c-0.6,0.5-1.2,0.9-1.8,1.4l-0.9,0.7
		l-0.4,0.3c-0.2,0.1-0.3,0.2-0.5,0.4c-2.2,1.8-4.6,3.4-6.8,5.3c-1.1,0.9-2.1,1.9-3,3c-0.9,1.1-1.6,2.3-2.1,3.6
		c-0.3,0.6-0.5,1.3-0.6,1.9c-0.2,0.7-0.3,1.3-0.3,2c-0.1,1.3,0,2.6,0.2,3.8c0.4,2.5,1.3,4.7,2.4,6.7c2.2,4,5.4,6.9,8.7,8.3
		c1.6,0.7,3.3,1.1,4.8,1.2c1.5,0.1,2.9-0.1,4.2-0.4c2.4-0.6,4.1-1.6,5.3-2.3c1.1-0.7,1.6-1.1,1.6-1.1c0,0-0.6,0.4-1.7,1.1
		c-1.1,0.6-2.9,1.6-5.3,2.1c-1.2,0.3-2.6,0.4-4.1,0.3c-1.5-0.1-3.1-0.5-4.6-1.3c-3.1-1.5-6.1-4.4-8.1-8.2c-1-1.9-1.8-4.1-2.2-6.4
		c-0.4-2.3-0.3-4.8,0.8-7.1c1-2.3,2.8-4.3,4.9-6c2.1-1.7,4.5-3.3,6.9-5.1c0.5-0.4,1.2-0.9,1.8-1.3c0.6-0.4,1.2-0.9,1.8-1.4
		c1.2-0.9,2.4-1.9,3.5-3c2.3-2.1,4.4-4.6,5.9-7.6c0.7-1.5,1.3-3.1,1.6-4.8c0.4-1.7,0.4-3.5,0-5.2c-0.3-1.4-0.9-2.8-1.7-4l2.8-1.3
		c0.5-0.2,1-0.5,1.5-0.7c1.4,3,2.2,6.2,2.3,9.3c0.1,1.6-0.1,3.2-0.5,4.8c-0.1,0.4-0.2,0.8-0.3,1.1c-0.1,0.4-0.2,0.8-0.4,1.1
		c-0.3,0.7-0.6,1.5-0.9,2.2c-1.3,2.8-3.4,5.2-5.8,7.1c-1.2,0.9-2.4,1.8-3.7,2.6l-0.9,0.6c-0.3,0.2-0.7,0.4-1,0.6
		c-0.6,0.4-1.2,0.8-1.9,1.1c-2.5,1.5-5.1,2.8-7.4,4.5c-1.1,0.8-2.2,1.8-3,2.9c-0.9,1.1-1.5,2.4-1.6,3.8c-0.2,2.6,0,5.2,0.7,7.5
		c0.7,2.3,2.1,4.3,3.8,5.7c1.7,1.4,3.6,2.2,5.5,2.6c3.7,0.7,7.2-0.2,9.3-1.8c1.1-0.8,1.8-1.8,2.1-2.8c0.4-1,0.4-1.8,0.3-2.5
		c-0.1-0.7-0.2-1.2-0.3-1.5c-0.1-0.3-0.2-0.5-0.2-0.5c0,0,0.1,0.2,0.2,0.5c0.1,0.3,0.2,0.9,0.3,1.5c0,0.7,0,1.6-0.4,2.5
		c-0.4,0.9-1.1,1.9-2.1,2.6c-2.1,1.5-5.4,2.3-9,1.5c-1.8-0.4-3.6-1.2-5.1-2.6c-1.5-1.3-2.7-3.2-3.4-5.4c-0.7-2.2-0.8-4.6-0.5-7.1
		c0.2-1.2,0.7-2.3,1.5-3.3c0.8-1,1.8-1.8,2.9-2.6c2.2-1.6,4.7-2.9,7.3-4.3c0.6-0.4,1.3-0.7,1.9-1.1c0.3-0.2,0.6-0.4,0.9-0.6l1-0.6
		c1.3-0.8,2.6-1.7,3.8-2.7c1.2-1,2.4-2.1,3.5-3.3c1.1-1.2,2-2.7,2.8-4.2c0.4-0.8,0.7-1.5,1-2.3c0.2-0.4,0.3-0.8,0.4-1.2
		c0.1-0.4,0.2-0.8,0.3-1.2c0.4-1.7,0.6-3.4,0.5-5.2c-0.1-3.4-1-6.9-2.5-10c0.9-0.5,1.8-0.9,2.8-1.4c0.8,1.3,1.5,2.7,2.1,4.3
		c0.7,2,1.3,4.3,1.4,6.6c0.1,2.4-0.2,4.9-0.9,7.4c-0.4,1.2-0.9,2.5-1.5,3.7c-0.1,0.3-0.3,0.6-0.5,0.9c-0.2,0.3-0.3,0.6-0.5,0.9
		c-0.4,0.6-0.7,1.1-1.2,1.7c-1.7,2.1-3.9,3.7-6.2,4.9c-2.3,1.3-4.7,2.3-6.8,3.6c-0.5,0.3-1.1,0.6-1.6,1c-0.3,0.2-0.5,0.3-0.8,0.5
		c-0.3,0.2-0.5,0.4-0.7,0.6c-0.9,0.8-1.7,1.7-2.4,2.6c-1.4,1.8-2.4,3.6-3.1,5.4c-0.7,1.8-1,3.6-0.8,5.1c0.2,1.5,0.8,2.8,1.5,3.6
		c0.7,0.8,1.4,1.2,1.9,1.5c0.5,0.3,0.8,0.4,0.8,0.4s-0.3-0.1-0.7-0.4c-0.5-0.3-1.1-0.8-1.7-1.6c-0.6-0.8-1.1-2-1.2-3.4
		c-0.1-1.4,0.3-3.1,1-4.7c0.7-1.7,1.8-3.4,3.2-5c0.7-0.8,1.5-1.6,2.3-2.3c0.2-0.2,0.4-0.3,0.7-0.5c0.2-0.1,0.5-0.3,0.7-0.5
		c0.5-0.3,1-0.6,1.5-0.9c2.1-1.2,4.5-2.2,6.9-3.4c1.2-0.6,2.4-1.4,3.6-2.2c1.2-0.9,2.2-1.9,3.2-3.1c0.5-0.6,0.9-1.2,1.3-1.8
		c0.2-0.3,0.4-0.6,0.5-1c0.2-0.3,0.3-0.6,0.5-1c0.6-1.3,1.1-2.6,1.5-3.9c0.8-2.7,1-5.4,0.8-7.9c-0.2-2.5-0.9-4.9-1.7-7
		c-0.7-1.6-1.5-3-2.3-4.3c0.2-0.1,0.5-0.3,0.7-0.4c1.1-0.6,2.3-1.2,3.5-1.9c0.7,1,1.4,2,2,3c0.3,0.4,0.5,0.9,0.7,1.4
		c0.2,0.5,0.4,1,0.7,1.5c0.4,1,0.8,2.1,1,3.2c0.5,2.2,0.7,4.6,0.3,7.1c-0.2,1.2-0.4,2.5-0.8,3.7c-0.2,0.6-0.3,1.2-0.6,1.8
		c-0.2,0.6-0.5,1.2-0.7,1.8c-1.1,2.4-2.5,4.6-4.1,6.4c-1.7,1.8-3.6,3.3-5.6,4.5c-1,0.6-2,1.1-3,1.6c-1,0.5-2,0.9-2.9,1.4
		c-1.9,1-3.6,2.1-5,3.2c-1.4,1.2-2.6,2.4-3.4,3.6c-0.8,1.2-1.3,2.4-1.5,3.4c-0.2,1-0.2,1.8-0.2,2.3c0,0.5,0.1,0.8,0.1,0.8
		c0,0,0-0.3,0-0.8c0-0.5,0.1-1.3,0.4-2.2c0.3-0.9,0.8-2,1.7-3.1c0.9-1.1,2-2.2,3.5-3.2c1.4-1,3.1-2,5-2.9c0.9-0.5,1.9-0.9,3-1.3
		c1-0.5,2.1-1,3.1-1.6c2.1-1.2,4.2-2.7,6.1-4.6c1.9-1.9,3.4-4.3,4.5-6.8c0.3-0.6,0.5-1.3,0.8-1.9c0.1-0.3,0.2-0.6,0.3-1
		c0.1-0.3,0.2-0.7,0.3-1c0.3-1.3,0.6-2.7,0.7-4c0.3-2.6,0.1-5.3-0.6-7.6c-0.3-1.2-0.7-2.3-1.2-3.4c-0.2-0.5-0.5-1-0.8-1.5
		c-0.3-0.5-0.6-1-0.9-1.4c-0.7-1.1-1.4-2-2.1-2.9c1.1-0.6,2.2-1.3,3.3-2c0.3-0.2,0.5-0.3,0.8-0.5c0.1,0.1,0.1,0.2,0.2,0.3l0,0.1
		c0,0,0,0,0,0l0.1,0.2l0.2,0.5l0.4,1c0.6,1.3,1.2,2.7,1.8,4c0.3,0.7,0.5,1.4,0.8,2.1c0.1,0.3,0.2,0.7,0.3,1c0,0.1,0.1,0.3,0.1,0.5
		l0.1,0.5c0.5,3,0.3,6,0,8.7c-0.3,2.7-0.9,5.1-1.5,7.2c-1.2,4.1-2.2,6.6-2.2,6.6c0,0,0.4-0.5,1.1-1.5c0.7-1,1.6-2.5,2.6-4.4
		c1-2,2-4.4,2.7-7.3c0.7-2.9,1-6.2,0.5-9.7c0-0.2-0.1-0.4-0.1-0.6c0-0.2-0.1-0.5-0.1-0.7c-0.1-0.5-0.2-0.9-0.4-1.3
		c-0.3-0.8-0.6-1.6-1-2.3c-0.7-1.5-1.5-2.8-2.2-4l-1.1-1.9c-0.1-0.1-0.2-0.3-0.3-0.4c0.3-0.2,0.6-0.4,0.9-0.6
		c1.3-0.9,2.6-1.8,3.9-2.8c2.5-2,5-4.3,7.3-6.8c2.3-2.6,4.3-5.4,6-8.6c1.7-3.2,2.9-6.7,3.6-10.3c0.4-1.8,0.6-3.7,0.6-5.6
		C233.9,109,233.8,107.1,233.6,105.2z M155,34.3c-0.7,0.2-1.2,0.4-1.8,0.7c-2.4,1-4.6,2.2-6.7,3.6c-2.1,1.4-4,2.9-5.8,4.4
		c-1.8,1.5-3.5,3.1-5.2,4.5c-0.8,0.7-1.7,1.4-2.5,2.1c-0.8,0.7-1.6,1.2-2.4,1.6c-1.7,0.9-3.5,1.2-5,0.7c-1.6-0.4-2.8-1.7-3.5-3.2
		c-0.4-0.7-0.6-1.6-0.8-2.4c-0.1-0.4-0.2-0.8-0.2-1.2c0-0.2,0-0.4-0.1-0.6c0-0.2,0-0.4,0-0.6c0-1.6,0.5-3.1,1.1-4.5
		c1.3-2.8,3.3-4.9,5.3-6.4c2-1.5,4-2.4,5.8-2.8c1.1-0.3,2.1-0.4,2.9-0.4c-0.8,0.2-1.6,0.5-2.4,0.9c-1.8,0.8-3.6,1.8-5.3,3.2
		c-0.9,0.7-1.7,1.5-2.4,2.4c-0.4,0.5-0.7,1-1.1,1.5c-0.2,0.3-0.3,0.6-0.4,0.9c-0.1,0.2-0.1,0.3-0.2,0.5c0,0.1-0.1,0.3-0.1,0.3
		l-0.1,0.2c-0.1,0.6-0.3,1.3-0.3,2c0,0.7,0,1.5,0.3,2.3c0.3,0.8,0.9,1.7,1.7,2.2c0.8,0.5,1.6,0.7,2.4,0.8c1.6,0.2,2.9-0.1,4.1-0.5
		c1.3-0.4,2.5-1.1,3.4-1.8c2-1.4,3.6-2.8,5.1-4.2c3-2.7,5.7-5.1,8.3-6.4c1.3-0.7,2.6-1,3.7-1c1.2,0,2.1,0.2,2.9,0.6
		c0.1,0,0.1,0.1,0.2,0.1C155.7,34.1,155.3,34.2,155,34.3z M101.1,36.3c0.1-0.1,0.1-0.1,0.2-0.2c0.5-0.4,0.9-0.8,1.4-1.1
		c1.4-1,2.7-1.7,4-2.1c0.6-0.2,1.2-0.4,1.8-0.6c0.3-0.1,0.6-0.1,0.9-0.2c1.6-0.3,2.9-0.3,3.9-0.3c-0.8,0.7-1.6,1.5-2.3,2.4
		c-0.1,0.1-0.2,0.3-0.3,0.4c-0.5,0.6-0.9,1.2-1.3,1.9c-1.9,3.1-3.2,6.9-3.7,11.1c-0.3,2.1-0.3,4.3-0.2,6.6c0.1,1.1,0.2,2.3,0.4,3.4
		c0.2,1.2,0.6,2.3,1,3.5c1,2.3,2.5,4.4,4.7,5.9c2.1,1.6,4.6,2.5,7.2,3.1c1.3,0.3,2.6,0.4,4,0.5c0.7,0,1.3,0,2,0
		c0.7,0,1.4-0.1,2.1-0.2c2.8-0.4,5.4-1.6,7.7-3c2.4-1.5,4.4-3.3,6.4-5c2-1.8,3.8-3.6,5.7-5.3c0.1-0.1,0.2-0.2,0.3-0.2
		c0.1-0.1,0.1-0.1,0.2-0.2c0,0,0,0,0,0c0.2-0.1,0.3-0.3,0.5-0.4c3.4-3.1,7-5.8,11.1-6.6c2.2-0.5,4.5-0.7,6.7-0.7
		c2.2,0,4.3,0.2,6.3,0.5c2,0.4,3.9,0.9,5.7,1.6c0.9,0.4,1.7,0.8,2.5,1.3c0.4,0.2,0.7,0.5,1.1,0.8c0.4,0.3,0.7,0.5,1.1,0.8
		c2.8,2.1,4.4,4.5,5.9,6.9c1.4,2.1,2.1,4.9,2,6.3c-1.3-0.2-2.6-0.3-3.9-0.4c-0.1-0.2-0.3-0.5-0.4-0.7c-0.9-2.1-3.1-4.4-5.5-6
		c-2.4-1.7-5.4-2.9-8.7-3.6c-1.7-0.3-3.4-0.6-5.3-0.6c-1.9,0-3.8,0.5-5.6,1.1c-1.8,0.7-3.6,1.6-5.3,2.6c-0.4,0.2-0.8,0.5-1.1,0.7
		c-0.2,0.1-0.3,0.2-0.5,0.3c-0.2,0.1-0.3,0.2-0.5,0.3c-0.5,0.3-1,0.6-1.4,1c0,0,0,0,0,0c-0.5,0.4-1,0.7-1.5,1.1
		c-1.7,1.2-3.3,2.6-4.9,3.9l-2.4,2.1l-1.2,1.1c-0.4,0.3-0.8,0.6-1.2,0.9c-1.7,1.1-3.6,2-5.6,2.8c-1.4,0.5-2.8,1-4.2,1.4
		c-0.1,0-0.1,0-0.2,0.1c-0.5,0.1-0.9,0.2-1.4,0.3c-3.9,0.9-7.8,1.1-11.4,0.5c-1.8-0.3-3.5-0.8-5-1.6c-1.5-0.7-2.9-1.7-4.1-2.8
		c-2.3-2.2-3.8-5-4.7-7.6c-0.2-0.7-0.4-1.3-0.6-2c0,0,0,0,0,0c-0.2-0.6-0.3-1.2-0.4-1.8c0,0,0,0,0,0c-0.1-0.5-0.2-1-0.3-1.5
		c0,0,0,0,0,0c-0.1-0.7-0.2-1.4-0.3-2.1c-0.2-2.2-0.3-4.2-0.3-5.8c0-3.2,0.2-4.9,0.2-4.9c0,0-0.3,1.7-0.5,4.9
		c-0.1,1.6-0.1,3.5,0,5.8c0,0.5,0.1,1.1,0.1,1.6c0,0,0,0.1,0,0.1c0,0.3,0.1,0.5,0.1,0.8c0,0,0,0,0,0c0.1,0.5,0.1,0.9,0.2,1.4
		c0,0,0,0,0,0.1c0.1,0.6,0.2,1.2,0.4,1.9c0,0,0,0,0,0c0.1,0.6,0.3,1.1,0.5,1.7c0.8,2.8,2.2,5.7,4.7,8.2c0.6,0.6,1.2,1.2,1.9,1.7
		c0,0,0,0,0,0c0.7,0.5,1.5,1,2.3,1.5c1.6,0.9,3.5,1.5,5.4,1.8c3.8,0.7,7.9,0.5,12-0.3c0.7-0.1,1.4-0.3,2-0.5c0.1,0,0.2-0.1,0.4-0.1
		c1.2-0.3,2.5-0.7,3.7-1.2c2-0.8,4-1.7,5.9-2.9c0.4-0.2,0.7-0.5,1.1-0.8c0,0,0,0,0.1,0c0.1-0.1,0.2-0.1,0.2-0.2L144,70l2.4-2.1
		c1.6-1.4,3.2-2.7,4.8-3.9c0.6-0.5,1.2-0.9,1.9-1.4c0,0,0.1-0.1,0.1-0.1c0.5-0.4,1.1-0.8,1.7-1.1c0.2-0.1,0.4-0.3,0.6-0.4
		c0,0,0.1-0.1,0.1-0.1c0.4-0.2,0.8-0.5,1.2-0.7c1.4-0.8,2.9-1.6,4.3-2.1c1.7-0.6,3.4-1.1,5.1-1.2c1.7,0,3.4,0.1,5,0.4
		c3.2,0.6,6.1,1.6,8.5,3.2c2.3,1.5,4,3.4,5,5.5c0.1,0.1,0.1,0.3,0.2,0.5c-0.5-0.1-1-0.1-1.5-0.2l-7.5-0.9c-0.9-0.1-1.7-0.2-2.5-0.3
		c-0.2-0.1-0.5-0.2-0.7-0.3c-0.5-0.2-0.9-0.3-1.3-0.5c-0.5-0.2-0.9-0.3-1.4-0.4c-1.9-0.5-3.9-0.7-6.1-0.6c-0.2,0-0.5,0-0.7,0.1
		c-0.6,0.1-1.3,0.2-1.9,0.3c-0.1,0-0.2,0.1-0.4,0.1c-0.4,0.1-0.8,0.2-1.2,0.4c-0.6,0.2-1.3,0.5-1.9,0.9c-0.1,0.1-0.3,0.2-0.4,0.3
		c0,0-0.1,0-0.1,0.1c-0.5,0.3-0.9,0.6-1.3,1l-1.4,1c-0.9,0.7-1.8,1.3-2.8,2c-1.9,1.3-3.9,2.6-5.9,3.9c-0.5,0.3-1,0.6-1.5,0.9
		c-0.1,0.1-0.2,0.1-0.3,0.2c-3,1.7-6.1,3.4-9.5,4.8c-0.3,0.1-0.5,0.2-0.8,0.3c-0.5,0.2-1,0.4-1.5,0.6c-4.9,1.8-10.2,2.9-15.6,2.6
		c-2.7-0.1-5.3-0.7-7.8-1.5c-1.2-0.4-2.4-0.9-3.6-1.5c-0.4-0.2-0.8-0.4-1.2-0.6c-0.2-0.1-0.4-0.2-0.6-0.4c-0.5-0.3-1-0.6-1.5-0.9
		c-1.8-1.2-3.4-2.7-4.7-4.4c-0.1-0.1-0.1-0.2-0.2-0.2c-0.1-0.2-0.2-0.3-0.4-0.5c-1.3-1.7-2.3-3.6-3.1-5.6c0-0.1-0.1-0.2-0.1-0.4
		c0-0.1-0.1-0.2-0.1-0.3c-0.1-0.3-0.2-0.7-0.4-1.1c-0.1-0.2-0.2-0.5-0.2-0.7c0-0.2-0.1-0.3-0.1-0.5c-0.1-0.2-0.1-0.5-0.2-0.7
		c-0.3-1.2-0.6-2.5-0.8-3.8c-0.2-1.5-0.2-3.1,0-4.6c0-0.2,0-0.4,0.1-0.6c0-0.3,0.1-0.7,0.2-1.1c0.4-2,0.9-4,1.6-5.8
		c0.1-0.3,0.2-0.6,0.3-0.9c0.6-1.6,1.4-3,2.1-4.4c0.2-0.4,0.5-0.8,0.7-1.2c0.1-0.2,0.2-0.3,0.3-0.5C98.4,38.9,99.7,37.4,101.1,36.3z
		 M89.4,59.9c0.2,1.3,0.4,2.6,0.6,4c-1.2,0.2-2.5,0.4-3.8,0.6c-3.6,0.5-7.8,0.9-12.5,1.3c-0.8,0.1-1.5,0.1-2.3,0.2
		c0.6-1,1.3-2,2.1-3c1.8-2.1,4.3-4.1,7.1-5.5c2.9-1.5,5.8-2.4,8.6-2.6c0.1,0,0.1,0,0.2,0c-0.1,0.4-0.1,0.9-0.1,1.3
		C89.2,57.4,89.2,58.7,89.4,59.9z M89.9,52.8c-0.1,0.5-0.2,1-0.3,1.4c-0.1,0-0.2,0-0.3,0c-2.9,0.1-6,1-9,2.5c-3,1.5-5.5,3.6-7.3,5.8
		c-0.9,1.2-1.7,2.4-2.3,3.5c-2,0.2-4.1,0.4-6.3,0.7c0.1-0.3,0.3-0.6,0.4-0.9c1.1-2.1,2.7-4.3,4.9-6.5c2.1-2.2,4.8-4.4,7.7-6.4
		c2.9-2,5.9-3.6,8.8-4.6c1.8-0.6,3.6-0.9,5.3-1C90.9,49.1,90.3,50.9,89.9,52.8z M85.8,47.1c-3.1,0.9-6.3,2.4-9.4,4.5
		c-3,2.1-5.7,4.4-7.8,6.8c-2.1,2.4-3.7,4.9-4.6,7.1c-0.2,0.5-0.3,0.9-0.5,1.3c-1.6,0.2-3.3,0.5-5,0.8c0.2-0.5,0.4-1,0.6-1.6
		c1.1-2.6,2.7-5.6,5-8.5c2.3-2.9,5.3-5.8,8.7-8.3C76.4,47,80,45,83.5,43.7c3.5-1.3,6.8-2.1,9.6-2.4c0.6-0.1,1.2-0.1,1.8-0.2
		c0,0.1-0.1,0.1-0.1,0.2c-1,1.5-2,3.2-2.8,5.1C90.1,46.3,88,46.5,85.8,47.1z M55.2,65.1c1.1-3,2.8-6.5,5.2-9.9
		c2.4-3.4,5.6-6.8,9.5-9.7c2-1.4,4-2.7,6-3.7c2-1,4.1-1.9,6.1-2.6c4-1.5,7.7-2.4,10.8-2.8c2.6-0.4,4.8-0.4,6.5-0.3
		c-1.4,1.2-2.7,2.7-3.9,4.3c-0.7,0-1.5,0-2.4,0c-2.9,0.1-6.3,0.7-10,1.9c-3.6,1.2-7.5,3.1-11.1,5.8c-3.6,2.6-6.6,5.7-8.9,8.8
		c-2.3,3.1-3.8,6.3-4.7,9.1c-0.2,0.7-0.4,1.4-0.6,2c-1.3,0.3-2.6,0.6-3.9,0.9C54.3,67.7,54.7,66.5,55.2,65.1z M60.2,151.3
		c-0.2,0.3-0.4,0.6-0.5,0.9c-0.9-0.4-1.8-0.9-2.6-1.3c-0.1-0.1-0.2-0.1-0.3-0.2c-0.1-0.1-0.2-0.1-0.4-0.2c-1.1-0.6-2.1-1.2-3.2-1.8
		c-0.3-0.2-0.6-0.4-0.9-0.6c-0.2-0.2-0.5-0.3-0.7-0.4c-0.7-0.4-1.3-0.8-2-1.3c-0.8-0.5-1.6-1-2.4-1.6c-0.6-0.4-1.1-0.8-1.7-1.2
		c-1.1-0.8-2.1-1.6-3.2-2.4c-4.7-3.7-9.3-8.2-12.6-13.8c-1.7-2.8-3-5.8-3.9-8.9c-0.9-3.2-1.3-6.5-1.2-9.9c0.2-6.8,2.5-13.2,5.9-18.7
		c3.4-5.5,7.9-10,12.9-13.3c2.5-1.7,5.1-3,7.7-4.1c0.6-0.2,1.1-0.4,1.7-0.6c0.1,0,0.2-0.1,0.3-0.1c1.4-0.5,2.8-0.9,4.1-1.2
		c0.2-0.1,0.4-0.1,0.5-0.1c0.4-0.1,0.8-0.2,1.2-0.3c1.4-0.3,2.7-0.6,4-0.8c0.2,0,0.4-0.1,0.5-0.1c2.2-0.4,4.3-0.7,6.4-1
		c0.2,0,0.4,0,0.5-0.1c1.2-0.2,2.3-0.3,3.4-0.5c4.6-0.6,8.8-1.2,12.5-1.9c1.3-0.3,2.6-0.6,3.8-0.9c0.2,0.7,0.3,1.3,0.5,2
		c0,0.2,0.1,0.3,0.1,0.5c0,0.1,0.1,0.2,0.1,0.3c-0.4,0.1-0.8,0.2-1.2,0.3c-0.3,0.1-0.7,0.2-1,0.3c-3.3,0.8-7.2,1.4-11.4,2
		c-2.4,0.3-5,0.7-7.7,1.1c-0.1,0-0.2,0-0.3,0.1c-1.9,0.3-3.9,0.7-5.9,1.2c-0.2,0-0.3,0.1-0.5,0.1c0,0-0.1,0-0.1,0
		c-1.9,0.5-3.7,1.1-5.6,1.8c0,0,0,0-0.1,0c-3,1.1-5.9,2.6-8.8,4.4c-4.9,3.1-9.5,7.3-13,12.6c-1.8,2.7-3.2,5.6-4.3,8.7
		c-1.1,3.1-1.7,6.4-1.8,9.8c-0.2,3.4,0.1,6.7,0.9,9.9c0.7,3.2,1.9,6.3,3.6,9c1.6,2.8,3.7,5.2,5.9,7.3c2.2,2.1,4.6,3.8,7.1,5.4
		c0.2,0.1,0.4,0.2,0.6,0.3c0.5,0.3,0.9,0.6,1.4,0.8c1.6,0.9,3.1,1.8,4.7,2.6c0.2,0.1,0.4,0.2,0.6,0.3c1.5,0.8,3,1.5,4.4,2.2
		c0.2,0.1,0.4,0.2,0.5,0.3c0.7,0.4,1.5,0.7,2.2,1.1c0.2,0.1,0.3,0.2,0.5,0.2L60.2,151.3z M62.1,148.4c-0.2-0.1-0.4-0.2-0.6-0.3
		c-0.7-0.4-1.4-0.7-2.2-1.1c-0.1-0.1-0.3-0.2-0.4-0.2c-1.5-0.8-3-1.5-4.5-2.3c-0.2-0.1-0.3-0.2-0.5-0.3c-1.6-0.8-3.1-1.7-4.7-2.7
		c-0.4-0.2-0.7-0.5-1.1-0.7c-0.3-0.2-0.5-0.3-0.7-0.5c-2.4-1.5-4.7-3.3-6.8-5.3c-2.1-2-4-4.3-5.5-6.9c-3.1-5.2-4.4-11.6-4.1-18
		c0.3-6.4,2.4-12.6,5.8-17.7c3.3-5.1,7.7-9.2,12.5-12.3c4.7-3.1,9.7-5.1,14.6-6.5c1.9-0.5,3.7-0.9,5.5-1.3c0.1,0,0.2,0,0.3-0.1
		c2.8-0.5,5.5-1,8-1.4c4.3-0.7,8.1-1.4,11.5-2.3c0.1,0,0.3-0.1,0.4-0.1c0.5-0.1,1-0.3,1.5-0.4c0.1,0,0.2-0.1,0.4-0.1
		c0,0.1,0,0.2,0.1,0.2v0c0.7,1.8,1.5,3.6,2.6,5.3c-1.1,0.1-2.2,0.2-3.4,0.2c-1,0-2,0.1-3,0.1c-0.4,0-0.9,0-1.3,0c-0.1,0-0.1,0-0.1,0
		c-0.1,0-0.3,0-0.4,0c-1.4,0.1-2.9,0.1-4.4,0.2c-3.5,0.2-7.3,0.7-11.3,1.7c-0.1,0-0.2,0.1-0.3,0.1c0,0,0,0,0,0
		c-3.9,1-7.9,2.7-11.6,5.4c-0.1,0.1-0.2,0.1-0.3,0.2c-2.2,0.8-4.5,1.8-6.5,3.1c-2.4,1.5-4.7,3.4-6.8,5.5c-4.2,4.2-7.6,9.7-9.3,15.9
		c-0.9,3.1-1.2,6.3-1.1,9.4c0.1,3.1,0.8,6.2,2,9c1.2,2.8,2.9,5.4,4.8,7.5c1,1.1,2,2.1,3.1,3c1.1,0.9,2.2,1.7,3.3,2.5
		c0.8,0.5,1.6,1.1,2.4,1.6c0.2,0.1,0.5,0.3,0.7,0.4c1.6,1,3.2,1.8,4.8,2.6c0.1,0.1,0.2,0.1,0.3,0.2c1.6,0.8,3.2,1.6,4.8,2.3
		c0.1,0,0.2,0.1,0.3,0.1c0,0,0,0,0,0l3,1.3C63.1,146.7,62.6,147.6,62.1,148.4z M63.4,140.7c0.3,0.5,0.5,1.1,0.6,1.6
		c0.1,0.5,0.1,0.9,0,1.4l-2.6-1.3c-0.1,0-0.2-0.1-0.3-0.1c0,0-0.1,0-0.1-0.1c-1.7-0.9-3.5-1.8-5.2-2.7c-0.1,0-0.1-0.1-0.2-0.1
		c-1.7-0.9-3.3-1.9-5-3c0-0.1,0-0.2,0-0.2s0,0,0,0.2c-0.6-0.4-1.2-0.9-1.9-1.3c-1-0.8-2-1.6-3-2.4c-1-0.8-1.9-1.8-2.7-2.7
		c-1.7-2-3.1-4.2-4.1-6.7c-1-2.5-1.6-5.2-1.7-7.9c-0.1-2.8,0.3-5.6,1-8.4c1.5-5.6,4.6-10.5,8.3-14.5c1-1.1,2.1-2.1,3.2-3
		c-0.6,0.8-1.2,1.7-1.7,2.6c-1.3,2.2-2.5,4.5-3.5,6.9c-0.5,1.2-1,2.4-1.4,3.7c-0.4,1.2-0.8,2.5-1.2,3.9c-1.3,5.2-1.2,10.8,0.6,15.7
		c0.9,2.4,2.2,4.6,3.7,6.5c0.2,0.2,0.4,0.5,0.6,0.7c0.2,0.2,0.4,0.5,0.6,0.7c0.4,0.5,0.8,0.9,1.2,1.3c0.9,0.9,1.7,1.6,2.7,2.4
		c3.7,2.9,7.7,4.8,11.3,6.6C62.9,140.4,63.2,140.6,63.4,140.7z M66.6,85c-2.1,1.1-4.2,2.4-6.3,3.8c-1.1,0.7-2.1,1.5-3.2,2.3
		c-1,0.9-2,1.8-3,2.8c-1.9,2-3.6,4.5-4.8,7.2c-1.2,2.8-1.9,5.8-2.1,9c-0.1,1.6-0.1,3.2,0,4.8c0.1,1.6,0.4,3.3,0.9,4.9
		c1,3.2,2.8,6.2,4.9,8.9c2.1,2.7,4.5,5.2,7,7.6c0.3,0.3,0.6,0.6,0.9,0.9c0.3,0.3,0.6,0.6,0.8,0.9c0.1,0.2,0.3,0.4,0.5,0.6
		c-3.3-1.7-6.7-3.6-9.9-6.1c-0.9-0.7-1.7-1.5-2.5-2.3c-0.4-0.4-0.8-0.8-1.1-1.3c-0.2-0.2-0.4-0.4-0.5-0.7c-0.2-0.2-0.4-0.5-0.6-0.7
		c-1.5-1.8-2.6-3.9-3.4-6.1c-1.6-4.5-1.7-9.7-0.5-14.7c0.3-1.3,0.7-2.5,1.1-3.7c0.4-1.2,0.9-2.4,1.4-3.6c1-2.3,2.1-4.6,3.3-6.7
		c1.5-2.5,3.2-4.8,5.2-6.7c1.6-0.9,3.3-1.7,5-2.2c4.3-1.4,8.7-1.9,12.9-2C70.7,82.9,68.7,83.9,66.6,85z M82,80.1c-0.1,0-0.2,0-0.3,0
		c-1.3-0.1-2.6-0.2-4-0.3c-0.3,0-0.7,0-1-0.1c-0.9,0-1.8-0.1-2.7-0.1c-3.7-0.1-7.8-0.1-12,0.8c2.7-1.5,5.4-2.6,8.2-3.4
		c3.9-1.1,7.6-1.6,11-2c1.2-0.1,2.3-0.2,3.4-0.3c0.2,0,0.4,0,0.5,0c0.2,0,0.5,0,0.7-0.1c0.5,0,0.9-0.1,1.4-0.1
		c1.2-0.1,2.3-0.2,3.3-0.2c1.3-0.1,2.5-0.2,3.6-0.4c0.1,0.2,0.2,0.3,0.3,0.5c1.5,2.1,3.3,4,5.5,5.6c-0.7,0.2-1.5,0.3-2.3,0.5
		c-3.1,0.5-6.6,0.4-10.6,0.1c-0.6,0-1.1-0.1-1.7-0.1c-0.5,0-1-0.1-1.5-0.1C83.2,80.2,82.6,80.1,82,80.1z M62.9,110.9
		c0,0.4,0,0.7,0,1c-0.3-1.1-0.4-2.2-0.4-3.3c0-2.3,0.7-4.5,1.8-6.3c1.1-1.9,2.5-3.4,4-4.8c0.7-0.6,1.5-1.2,2.3-1.9
		c0.8-0.6,1.5-1.2,2.2-1.8c2.8-2.3,5-4.5,6.8-6.3c1.4-1.4,2.4-2.7,3.2-3.6c-0.7,2.5-1.3,5.1-1.8,7.8c-0.5,0.7-1.2,1.7-2.3,2.7
		c-1.1,1.1-2.6,2.2-4.3,3.3c-1.7,1.2-3.7,2.4-5.7,4c-2,1.6-3.8,3.5-4.8,5.7C63.3,108.7,63,109.8,62.9,110.9z M70.9,124.3
		c0.4,1.2,1,2.3,1.5,3.4c-1.4-1.8-2.8-3.6-4.1-5.3c-1.3-1.7-2.4-3.4-3.4-5.2c-0.1-0.9-0.3-2.1-0.2-3.5c0.1-1.5,0.6-3.2,1.6-4.7
		c1-1.6,2.6-3,4.4-4.5c1.8-1.5,3.7-2.9,5.3-4.4c1.6-1.5,2.9-3,3.8-4.5c0.2-0.3,0.3-0.6,0.5-0.8c-0.3,1.7-0.5,3.4-0.7,5.1
		c-0.1,0.8-0.2,1.7-0.2,2.5c-0.4,0.6-0.9,1.3-1.5,2c-0.6,0.8-1.4,1.6-2.3,2.5c-0.8,0.9-1.8,1.9-2.7,3.1c-0.9,1.2-1.8,2.5-2.4,4.1
		c-0.6,1.6-0.9,3.4-0.8,5.2C69.9,121.1,70.4,122.8,70.9,124.3z M96.2,187.4c-0.9-0.9-1.9-1.8-2.9-2.7c-2.5-2.1-5.2-3.9-8-5.6
		c-2.7-1.8-5.6-3.5-8.1-5.4c-2.5-1.9-4.9-4.3-5.1-7c-0.2-1.5,0-3,0.3-4.5c0.1-0.5,0.3-1,0.4-1.5c2.9,1.5,5.4,3,7.5,4.6
		c2.9,2.2,5.1,4.5,6.5,6.7c1.4,2.2,2,4.1,2.3,5.5c0.3,1.3,0.3,2.1,0.3,2.1c0,0,0-0.7-0.2-2.1c-0.2-1.4-0.7-3.4-2-5.7
		c-1.3-2.3-3.4-4.9-6.3-7.2c-2.2-1.8-4.8-3.5-7.7-5.2c0.2-0.5,0.4-1,0.6-1.6c0.2-0.4,0.4-0.9,0.5-1.3c3.2,2,6,4.1,8.3,6.3
		c2.5,2.4,4.2,4.7,5.5,6.8c1.2,2.1,2,3.8,2.4,5c0.5,1.2,0.6,1.8,0.7,1.8c0,0-0.2-0.7-0.6-1.9c-0.4-1.2-1.1-3-2.3-5.1
		c-1.2-2.1-2.9-4.6-5.3-7c-2.2-2.3-5-4.5-8.3-6.6c0.4-0.8,0.7-1.7,1.1-2.5c0.1-0.1,0.1-0.3,0.2-0.4c1.7,1.2,3.2,2.5,4.6,3.7
		c2.3,2.1,4.2,4,5.8,5.7c3,3.3,4.6,5.2,4.6,5.2c0,0-1.4-2-4.2-5.5c-1.4-1.7-3.2-3.8-5.4-6.1c-1.4-1.4-3-2.9-4.7-4.3
		c0.3-0.7,0.6-1.5,0.8-2.2c1.1,0.6,2,1.2,3,1.7c2.3,1.5,4.1,3.1,5.4,4.5c1.3,1.4,2.2,2.6,2.8,3.4c0.6,0.8,0.9,1.3,0.9,1.3
		s-0.3-0.5-0.8-1.3c-0.6-0.9-1.4-2.1-2.7-3.6c-1.3-1.5-3-3.2-5.3-4.7c-0.9-0.7-2-1.3-3-1.9c0,0,0-0.1,0-0.1c0.5-1.6,0.8-3.4,0.9-5.1
		c0.1-1.8-0.1-3.5-0.6-5.2c0,0,0,0,0-0.1c0-1-0.1-2.1-0.3-3.5c-0.4-2.2-1.3-4.6-2.3-7.2c-0.5-1.3-1-2.6-1.4-4
		c-0.4-1.3-0.7-2.8-0.8-4.1c-0.1-1.4,0.1-2.7,0.5-4c0.4-1.3,1-2.5,1.7-3.6c1.3-2.2,2.8-4.1,3.8-6c-0.3,8.2,0.3,17,2.1,25.9
		c2.2,11.1,6,21.2,10.4,29.9c1.1,2.2,2.2,4.3,3.4,6.3c0.2,1.2,0.3,2.6,0.4,3.9c0.4,3.9,0.5,8.2,0.6,12.8
		C96.2,185.3,96.2,186.4,96.2,187.4z M158.3,168.6c-0.6,1-1.2,2-1.8,2.9c-2,2.8-4.3,5.2-6.6,7.2c-3.1,2.6-6.2,4.6-9.1,6.1
		c-2.9,1.5-5.5,2.4-7.8,3c-2.2,0.6-4,0.9-5.2,1c-0.2,0-0.3,0-0.5,0c-1.1-0.1-2.6-0.2-4.5-0.6c-2-0.4-4.4-1-7.1-2
		c-2.7-1-5.6-2.5-8.4-4.8c-1.4-1.1-2.7-2.5-3.8-4c-0.6-0.8-1.1-1.6-1.7-2.5c-0.6-0.9-1.1-1.8-1.7-2.7c-0.7-1.2-1.5-2.5-2.2-3.7
		c-1.3-2.4-2.7-4.9-3.9-7.5c-0.1-0.2-0.2-0.4-0.3-0.7c-3.6-7.5-6.7-16.1-8.9-25.3c0.4,1.1,0.8,2.3,1.4,3.6c0.8,1.9,1.8,3.9,2.9,5.9
		c0.5,1,1.1,2,1.5,3c0.2,0.5,0.4,1,0.6,1.5c0.1,0.5,0.3,1,0.5,1.5c0.7,1.9,1.4,3.6,1.9,5c0.3,0.7,0.6,1.4,0.8,1.9
		c0.2,0.4,0.3,0.8,0.5,1.1c0.4,0.9,0.7,1.5,0.7,1.5s-0.6-1.8-1.6-4.7c-0.5-1.4-1.1-3.2-1.7-5.1c-0.1-0.5-0.3-1-0.4-1.5
		c-0.1-0.5-0.3-1.1-0.6-1.6c-0.4-1-1-2.1-1.5-3.1c-1.1-2.1-2.2-4-3-5.8c-0.9-1.8-1.6-3.5-2.1-4.9c-0.5-1.5-0.9-2.7-1-3.5
		c-2.1-10.5-2.6-20.7-1.9-30c0.5-6.5,1.6-12.5,3-17.8c0.7,0,1.4,0,2.1,0c4,0.1,7.7-0.1,10.8-0.8c1.1-0.2,2.1-0.5,3.1-0.9
		c1,0.7,2.1,1.3,3.2,1.9c1.3,0.7,2.6,1.2,4,1.7c2.8,1,5.7,1.6,8.7,1.7c3,0.2,6-0.1,8.8-0.6c2.8-0.5,5.5-1.4,8.1-2.4
		c1-0.4,2-0.8,3-1.2c0.9,0.7,2,1.5,3.1,2.2c2.7,1.6,6.1,3,9.9,4c3.8,1,8.1,1.7,12.7,2.1c3.2,0.3,6.6,0.5,10,0.7
		c0.6,3.8,0.9,7.7,0.9,11.7c0.1,5.9-0.2,12-0.9,18.2c-0.3,3.1-0.7,6.2-1.2,9.2c-0.1,0.9-0.3,1.7-0.4,2.6c-0.1,0.4-0.3,0.8-0.4,1.2
		c-0.5,1.4-1.2,3.1-2.1,4.9c-0.9,1.8-2,3.8-3,5.8c-0.5,1-1.1,2.1-1.5,3.1c-0.2,0.5-0.4,1-0.6,1.6c-0.1,0.5-0.3,1-0.4,1.5
		c-0.6,1.9-1.2,3.7-1.7,5.1c-1,2.9-1.6,4.7-1.6,4.7c0,0,0.8-1.7,2-4.6c0.6-1.4,1.3-3.1,1.9-5c0.2-0.5,0.4-1,0.5-1.5
		c0.1-0.5,0.3-1,0.6-1.5c0.4-1,1-2,1.5-3c1.1-2.1,2.1-4.1,2.9-5.9c0.6-1.3,1.1-2.5,1.4-3.7c-0.2,1.2-0.4,2.4-0.7,3.5
		c-0.6,2.9-1.3,5.6-2.2,8.3c-0.9,2.7-1.9,5.2-3,7.7c-1.1,2.5-2.1,4.9-3.2,7.3l-0.8,1.7l-0.8,1.8
		C159.3,166.5,158.8,167.6,158.3,168.6z M229.9,115.9c-0.6,3.3-1.7,6.5-3.2,9.5c-3,5.9-7.5,10.7-12.3,14.7c-1.2,1-2.4,1.9-3.6,2.8
		c-0.4,0.3-0.7,0.5-1.1,0.8c-0.6,0.4-1.2,0.8-1.8,1.2c-0.3,0.2-0.6,0.4-0.9,0.6c-1.1,0.8-2.3,1.5-3.4,2.2c-0.2,0.1-0.5,0.3-0.7,0.4
		c-1.1,0.7-2.2,1.3-3.2,1.9c-0.3,0.2-0.6,0.3-0.9,0.5c-0.2,0.1-0.5,0.3-0.7,0.4c-0.9,0.5-1.7,1-2.6,1.4c-0.5,0.3-1,0.5-1.5,0.8
		c-0.5,0.3-1,0.5-1.5,0.8l-2.9,1.5l-0.5,0.3c-0.3,0.2-0.7,0.3-1,0.5c-0.8,0.4-1.5,0.8-2.3,1.2c-0.3,0.2-0.6,0.3-1,0.5
		c-1,0.5-2,1.1-3,1.6c-2.7,1.5-5.1,3-7.2,4.6c-3.1,2.3-5.3,4.9-6.7,7.2c-1.4,2.3-2,4.4-2.2,5.8c-0.2,1.4-0.2,2.1-0.2,2.1
		c0,0,0-0.7,0.4-2.1c0.3-1.4,1-3.4,2.5-5.6c1.5-2.2,3.8-4.5,6.9-6.6c2-1.4,4.4-2.8,7-4.1c0.1,0.5,0.2,0.9,0.3,1.4
		c0.3,1.5,0.5,3.1,0.2,4.5c-0.2,1.3-0.9,2.6-1.8,3.7c-1,1.2-2.2,2.2-3.5,3.2c-2.6,2-5.4,3.7-8.2,5.4c-2.8,1.8-5.5,3.6-8,5.7
		c-1.1,0.9-2.1,1.9-3,2.9c0-1.1,0-2.2,0.1-3.3c0.1-4.6,0.4-8.9,0.8-12.9c0.1-0.6,0.1-1.2,0.2-1.9c0.1-0.1,0.1-0.2,0.2-0.3
		c0.6-1.1,1.2-2.3,1.7-3.4l1.6-3.4c1.1-2.3,2.2-4.7,3.4-7.2c1.1-2.5,2.2-5.1,3.2-7.8c1-2.7,1.8-5.6,2.4-8.5c0.3-1.5,0.6-3,0.9-4.5
		c0.3-1.5,0.5-3,0.8-4.5c0.5-3,0.9-6.1,1.2-9.3c0.6-5.2,0.9-10.4,0.9-15.4c1,1.9,2.6,3.9,3.9,6.1c0.7,1.1,1.3,2.3,1.7,3.6
		c0.4,1.3,0.6,2.6,0.5,4c-0.1,1.4-0.4,2.8-0.8,4.1c-0.4,1.4-0.9,2.7-1.4,4c-1,2.6-1.9,5-2.3,7.2c-0.3,1.3-0.4,2.5-0.3,3.5
		c0,0.1,0,0.1-0.1,0.2c-0.4,1.7-0.6,3.5-0.5,5.2c0.1,1.6,0.4,3.1,0.8,4.6c-0.6,0.4-1.2,0.7-1.8,1.1c-2.6,1.7-4.6,3.6-6.1,5.3
		c-1.4,1.7-2.4,3.1-3,4.1c-0.6,1-0.9,1.5-0.9,1.5c0,0,0.3-0.5,1-1.4c0.7-0.9,1.8-2.2,3.3-3.7c1.6-1.5,3.6-3.1,6.3-4.6
		c0.5-0.3,1-0.6,1.5-0.8c0.9-0.5,1.8-1,2.8-1.5c0,0,0.1,0,0.1,0c0.6-0.4,1.3-0.8,1.9-1.2c0.1-0.1,0.2-0.2,0.4-0.2
		c0.4-0.3,0.7-0.5,1.1-0.8c0.4-0.3,0.8-0.5,1.2-0.8c1.3-0.8,2.6-1.5,4-2.2c0.6-0.3,1.3-0.6,1.9-1c1.7-0.8,3.5-1.7,5.3-2.6
		c2.1-1,4.2-2.2,6.3-3.6c2.1-1.4,4.2-3.2,5.9-5.3l0.3-0.4l0.3-0.4l0.3-0.4l0.3-0.4c0.4-0.6,0.9-1.1,1.2-1.7c0.8-1.2,1.5-2.5,2.1-3.8
		c1.2-2.7,1.9-5.6,2.1-8.6c0.4-6.1-1.5-12.6-5.8-17.5c-2.2-2.5-4.9-4.4-7.7-5.7c-2.3-1.1-4.7-1.8-7.1-2.4c-0.5-0.1-1-0.2-1.5-0.3
		c-0.3-0.1-0.7-0.1-1-0.2c-2.6-0.5-5.2-0.7-7.7-0.9c-0.4,0-0.9,0-1.3-0.1c-2.2-0.1-4.3-0.2-6.4-0.2c-0.3,0-0.6,0-0.9,0
		c-0.3,0-0.5,0-0.8,0c-0.5,0-0.9,0-1.4,0c-0.8,0-1.5,0-2.2,0c-3.2,0-6.3,0-9.2-0.2c-4.5-0.2-8.7-0.5-12.5-1.2
		c-3.7-0.7-7-1.8-9.7-3.1c-1-0.5-1.8-1-2.7-1.5c3.1-1.5,6-3.2,8.8-4.9c1.9,1.3,4.5,2.3,7.7,3c3.2,0.7,7,1,11.1,1.1
		c1.5,0,3.1,0.1,4.8,0.1c0.7,0,1.4,0,2.1,0c0.5,0,1,0,1.4,0c0.1,0,0.3,0,0.4,0c1.5,0,3.1,0,4.7,0c0,0,0,0,0,0c0.4,0,0.8,0,1.2,0
		c0.3,0,0.6,0,0.9,0c0.1,0,0.2,0,0.2,0c1.6,0,3.3,0,5,0.1c2.5,0.1,5.1,0.3,7.7,0.7c1.3,0.2,2.5,0.5,3.7,1c0.6,0.2,1.2,0.5,1.7,0.7
		c0.3,0.2,0.5,0.3,0.8,0.5c0.3,0.2,0.6,0.4,0.8,0.6c2.2,1.6,4.3,3.4,6.2,5.6c3.8,4.2,6.9,9.4,8.7,15c1.9,5.7,2.3,11.6,0.9,17
		c-0.7,2.7-1.9,5.1-3.4,7.3c-0.8,1.1-1.6,2.1-2.6,3c-0.9,0.9-2,1.8-3,2.6c-1,0.7-2,1.5-3,2.1c0,0,0,0-0.1,0c-1.6,1.1-3.3,2.1-5,3
		c-0.1,0-0.1,0.1-0.2,0.1c-1.6,0.9-3.2,1.7-4.7,2.5l-0.5,0.2l-0.1,0.1l-2.5,1.2l-0.4,0.2l-1.2,0.6c-0.1,0.1-0.3,0.1-0.4,0.2
		c-0.4,0.2-0.7,0.3-1.1,0.5c-1.4,0.6-2.6,1.3-3.8,2c-0.5,0.3-1,0.6-1.5,0.9c-0.1,0.1-0.3,0.2-0.4,0.3c-0.5,0.3-1,0.6-1.4,1
		c-1,0.7-1.9,1.4-2.7,2.1c-1.7,1.4-3.1,2.7-4.5,4c-2.3,2.3-4.1,4.5-5.6,6.2c-2.9,3.6-4.3,5.7-4.3,5.6c0,0,1.6-2,4.7-5.3
		c1.6-1.7,3.5-3.7,5.9-5.8c1.3-1.1,2.7-2.3,4.3-3.5c0.9-0.6,1.8-1.3,2.8-1.9c0.6-0.4,1.1-0.7,1.7-1.1c0.1,0,0.2-0.1,0.3-0.1
		c0.5-0.3,1-0.6,1.5-0.8c1.2-0.6,2.5-1.2,3.9-1.8c0.3-0.1,0.6-0.2,1-0.4c0.2-0.1,0.4-0.2,0.6-0.3l0.9-0.4l0.7-0.3
		c0.8-0.3,1.6-0.7,2.3-1c0.1,0,0.2-0.1,0.3-0.1c0.2-0.1,0.4-0.2,0.6-0.3c1.4-0.6,2.8-1.3,4.2-2c0.1-0.1,0.2-0.1,0.3-0.2
		c1.6-0.8,3.2-1.7,4.8-2.6c0.2-0.1,0.5-0.3,0.7-0.4c1.2-0.7,2.4-1.5,3.6-2.4c1.1-0.8,2.2-1.7,3.3-2.7c1.1-1,2.1-2.1,3-3.3
		c1.8-2.4,3.2-5.2,4.1-8.2c0.9-3,1.2-6.2,1-9.4c-0.2-3.2-0.8-6.4-1.8-9.5c-2-6.2-5.4-11.7-9.5-16.2c-2.1-2.2-4.4-4.2-6.8-5.9
		c-0.3-0.2-0.6-0.4-0.9-0.6c-0.3-0.2-0.7-0.4-1-0.6c-0.7-0.4-1.4-0.6-2.1-0.9c-1.4-0.5-2.8-0.8-4.2-1c-2.8-0.4-5.5-0.5-8.1-0.5
		c-1.7,0-3.3,0-4.9,0.1c-0.1,0-0.3,0-0.4,0c-0.7,0-1.5,0.1-2.2,0.1c-0.9,0-1.7,0.1-2.6,0.1c-0.3,0-0.6,0-0.9,0.1
		c-1.2,0.1-2.3,0.1-3.4,0.2c-0.1,0-0.1,0-0.2,0c0,0,0,0-0.1,0c-0.7,0-1.4,0.1-2.1,0.1c-1.4,0.1-2.8,0.1-4.1,0.1
		c-4.1,0.1-7.7,0-10.9-0.5c-3-0.4-5.5-1.2-7.3-2.2c0.2-0.1,0.4-0.2,0.6-0.4c2.1-1.4,4.1-2.8,5.9-4.2c0.9-0.7,1.9-1.4,2.7-2.1
		l1.3-1.1c0.4-0.3,0.9-0.7,1.2-1c0.3-0.2,0.7-0.5,1-0.7c0,0,0.1,0,0.1-0.1c0.2,0.3,0.9,0.7,3.4,1.5c0.2,0.1,0.4,0.1,0.5,0.2
		c0,0,0,0,0,0c0.7,0.2,1.4,0.5,2.2,0.7c0,0,0,0,0.1,0c3.3,1,7.2,1.7,11.5,2.5c0.3,0.1,0.6,0.1,0.9,0.2c0.4,0.1,0.8,0.1,1.2,0.2
		c2,0.4,4.1,0.7,6.3,1.2c0.1,0,0.1,0,0.2,0c1.7,0.4,3.4,0.8,5.1,1.3c4.8,1.4,9.7,3.5,14.3,6.5c4.6,3.1,8.9,7.1,12.1,12.1
		c3.2,5,5.3,11,5.6,17.3c0.3,6.3-1,12.5-4,17.6c-1.5,2.6-3.3,4.8-5.4,6.8c-2.1,2-4.3,3.7-6.7,5.3c-0.2,0.2-0.5,0.3-0.8,0.5
		c-0.3,0.2-0.7,0.4-1,0.7c-1.6,1-3.1,1.9-4.7,2.7c-0.1,0.1-0.3,0.2-0.4,0.3c-1.5,0.8-3,1.6-4.5,2.4c-0.1,0.1-0.3,0.1-0.4,0.2
		c-0.7,0.4-1.4,0.7-2.1,1.1c-0.2,0.1-0.4,0.2-0.6,0.3c-0.5,0.3-1,0.5-1.5,0.8c-1.6,0.8-3.1,1.6-4.5,2.4c-0.5,0.3-1,0.6-1.5,0.8
		c-0.8,0.4-1.5,0.9-2.2,1.3c-0.7,0.4-1.4,0.8-2,1.2c-0.3,0.2-0.6,0.4-0.8,0.6c-3.3,2.2-6.1,4.5-8.3,6.8c-2.4,2.5-4.1,5-5.3,7.2
		c-1.2,2.1-1.8,3.9-2.2,5.1c-0.4,1.2-0.5,1.9-0.5,1.9c0,0,0.2-0.6,0.7-1.8c0.5-1.2,1.2-2.9,2.5-4.9c1.3-2,3.1-4.4,5.6-6.7
		c2.2-2.1,5-4.1,8.3-6.1c0.4-0.2,0.7-0.4,1.1-0.6c0.6-0.4,1.2-0.7,1.9-1c0.8-0.5,1.7-0.9,2.6-1.4c0.5-0.3,1-0.5,1.5-0.8
		c1.5-0.7,3-1.5,4.6-2.2c0.5-0.2,1-0.5,1.5-0.7c0.2-0.1,0.3-0.1,0.5-0.2c0.7-0.4,1.5-0.7,2.3-1.1c0.2-0.1,0.4-0.2,0.6-0.3
		c1.5-0.7,2.9-1.4,4.4-2.2c0.2-0.1,0.4-0.2,0.6-0.3c1.5-0.8,3.1-1.6,4.7-2.5c0.5-0.3,1-0.6,1.6-0.9c0.1-0.1,0.3-0.2,0.4-0.3
		c2.5-1.6,4.9-3.3,7.2-5.4c2.3-2.1,4.4-4.6,6.1-7.4c1.7-2.8,2.9-6,3.7-9.2c0.8-3.3,1.1-6.7,0.9-10.1c-0.2-3.4-0.8-6.8-1.9-10
		c-1.1-3.2-2.6-6.2-4.4-8.9c-3.6-5.4-8.3-9.6-13.3-12.7c-3-1.9-6.2-3.4-9.4-4.6c0,0-0.1,0-0.1,0c-1.8-0.7-3.7-1.2-5.4-1.7
		c0,0,0,0-0.1,0c-0.1,0-0.2-0.1-0.3-0.1c-1.9-0.5-3.8-0.8-5.6-1.2c-0.1,0-0.2,0-0.3,0c-2.6-0.4-5-0.7-7.3-1c-0.3,0-0.5-0.1-0.8-0.1
		c-0.3,0-0.5-0.1-0.8-0.1c-4-0.5-7.6-1-10.7-1.7c-0.5-0.1-0.9-0.2-1.4-0.3c-0.8-0.2-2.9-1-4.2-1.4c0.2-0.1,0.4-0.2,0.6-0.2
		c0.5-0.2,1.1-0.3,1.7-0.4c0.3-0.1,0.7-0.1,1-0.2c0.6-0.1,1.2-0.1,1.8-0.1c2.3,0.6,4.8,1.1,7.5,1.6c0.8,0.1,1.6,0.3,2.4,0.4l0.8,0.1
		l6.7,1.1l2.5,0.4l0.4,0.1l5.2,0.8c0.2,0,0.5,0.1,0.7,0.1c0.1,0,0.1,0,0.2,0c1.6,0.3,3.3,0.6,5,0.9c0.1,0,0.2,0,0.2,0
		c0.8,0.2,1.6,0.4,2.3,0.6c0.8,0.2,1.5,0.4,2.3,0.7c0.1,0,0.2,0.1,0.4,0.1c1.9,0.7,3.8,1.5,5.6,2.5c5.3,3.1,10.5,7.3,14.5,12.5
		c2,2.6,3.8,5.5,5.1,8.7c1.3,3.1,2.3,6.5,2.7,10c0.2,1.7,0.3,3.5,0.2,5.2C230.4,112.5,230.2,114.2,229.9,115.9z M207.9,110.4
		c-0.2-3.2-0.9-6.2-2-9c-0.7-1.6-1.5-3-2.4-4.3c1.1,0.8,2.2,1.7,3.1,2.8c1.7,2,3,4.4,3.9,6.9c0.8,2.5,1.2,5.1,1.1,7.7
		c-0.1,2.6-0.7,5-1.6,7.3c-0.5,1.1-1,2.2-1.7,3.3c-0.3,0.5-0.7,1-1,1.5l-0.3,0.4l-0.3,0.4l-0.3,0.4L206,128
		c-2.9,3.8-6.9,6.4-10.8,8.6c-0.3,0.1-0.5,0.3-0.8,0.4c0.2-0.2,0.3-0.3,0.5-0.5c2.5-2.5,4.9-4.9,7-7.6c2.1-2.7,4-5.6,5-8.8
		c0.5-1.6,0.9-3.2,1-4.9C208,113.6,208,112,207.9,110.4z M204.7,101.9c1.1,2.6,1.7,5.6,1.8,8.6c0.1,1.5,0,3.1-0.1,4.6
		c-0.1,1.5-0.5,3-1,4.5c-1,3-2.7,5.7-4.8,8.3c-2.1,2.6-4.5,5-6.9,7.4c-0.3,0.3-0.6,0.6-0.9,1c-0.3,0.3-0.6,0.7-0.9,1
		c-0.4,0.6-0.9,1.1-1.3,1.8c-2.3,1.3-4.5,2.6-6.5,4c-0.1,0.1-0.3,0.2-0.4,0.3c-0.1-1.5,0.1-3.1,0.6-4.5c0.5-1.4,1.2-2.8,2.1-4
		c0.9-1.2,1.9-2.4,3.1-3.4c0.3-0.3,0.6-0.5,0.8-0.8l0.9-0.8c0.6-0.5,1.2-1.1,1.7-1.6c2.2-2.2,4.1-4.7,5.6-7.3
		c1.5-2.6,2.4-5.5,2.7-8.4c0.3-2.9,0-5.7-0.8-8.3c-0.7-2.6-2-4.9-3.5-6.9c-1.4-1.9-3.1-3.5-4.8-4.9c0.1,0,0.2,0,0.4,0.1
		c2.6,0.6,5.2,1.4,7.6,2.5c0.1,0.1,0.2,0.1,0.3,0.2C202.2,97.2,203.7,99.4,204.7,101.9z M196.2,98.1c1.4,1.9,2.5,4.2,3.1,6.6
		c0.7,2.4,0.9,5.1,0.6,7.8c-0.3,2.7-1.2,5.3-2.6,7.8c-1.4,2.5-3.3,4.8-5.4,6.9c-0.5,0.5-1.1,1.1-1.7,1.6l-0.9,0.7
		c-0.3,0.3-0.6,0.5-0.9,0.8c-1.2,1.1-2.3,2.3-3.3,3.6c-1,1.3-1.8,2.8-2.4,4.5c-0.6,1.6-0.8,3.4-0.7,5.1c0,0.4,0.1,0.7,0.1,1.1
		c-0.1,0.1-0.3,0.2-0.4,0.3c-0.5,0.4-1.1,0.8-1.6,1.2c-0.3-1-0.5-2-0.5-3c-0.1-1.4,0-2.9,0.3-4.2c0.3-1.4,0.9-2.7,1.5-4
		c0.2-0.3,0.3-0.6,0.5-1c0.2-0.3,0.4-0.6,0.6-0.9c0.4-0.6,0.8-1.2,1.2-1.9c1.6-2.4,3.5-4.7,5.1-7.1c1.7-2.4,3.2-4.8,4.2-7.4
		c0.3-0.6,0.5-1.3,0.7-2l0.3-1c0.1-0.3,0.2-0.7,0.3-1c0.3-1.4,0.4-2.7,0.3-4c-0.1-2.7-1-5.1-2.3-7.2c-1.3-2-2.9-3.7-4.5-5
		c-0.9-0.7-1.7-1.2-2.4-1.8c-0.8-0.6-1.5-1.1-2.3-1.7c-0.9-0.7-1.7-1.3-2.5-1.9c3.3,0.2,6.6,0.5,9.9,1.1c0.3,0.3,0.7,0.5,1,0.9
		C193.3,94.5,194.9,96.1,196.2,98.1z M184.5,114c-0.6-1.6-1.5-3-2.4-4.1c-0.9-1.2-1.8-2.1-2.7-3.1c-0.8-0.9-1.6-1.7-2.3-2.5
		c-0.5-0.6-1-1.3-1.4-1.9c0,0,0-0.1,0-0.2c-0.1-2.2-0.2-4.5-0.4-6.7c0.9,1.4,2.2,3,3.8,4.4c1.6,1.5,3.5,2.9,5.3,4.4
		c1.8,1.5,3.4,2.9,4.4,4.5c1,1.5,1.5,3.2,1.6,4.7c0.1,1.4,0,2.7-0.2,3.5c-0.9,1.8-2.1,3.5-3.5,5.3c-1.3,1.7-2.7,3.4-4,5.2
		c0.5-1,1.1-2.1,1.5-3.4c0.5-1.5,1-3.2,1.1-5C185.4,117.5,185.1,115.6,184.5,114z M182.5,93.9c0.7,0.6,1.4,1.2,2.2,1.8
		c0.7,0.6,1.6,1.2,2.3,1.9c1.5,1.3,2.9,2.9,3.9,4.8c1.1,1.9,1.7,4,1.7,6.3c0,1.1-0.1,2.2-0.4,3.2c0-0.3,0-0.7,0-1
		c-0.1-1.1-0.4-2.2-0.9-3.3c-1-2.2-2.8-4.1-4.8-5.7c-2-1.6-4-2.9-5.7-4c-1.7-1.2-3.2-2.3-4.3-3.3c-0.7-0.6-1.2-1.2-1.6-1.8
		c-0.1-0.7-0.2-1.3-0.3-1.9c0.8,0,1.5,0.1,2.3,0.1c0.8,0,1.5,0.1,2.3,0.1C180.2,91.9,181.3,92.9,182.5,93.9z"/>
	<radialGradient id="SVGID_8_" cx="128.9991" cy="136.3574" r="116.1211" gradientUnits="userSpaceOnUse">
		<stop  offset="0.2" style="stop-color:#FFFFFF"/>
		<stop  offset="0.7" style="stop-color:#FFFFFF;stop-opacity:0.6"/>
		<stop  offset="1" style="stop-color:#FFFFFF"/>
	</radialGradient>
	<path class="st7" d="M121.1,147.9c0.2,0.1,0.3,0.3,0.5,0.5c0.4,0.4,1,0.9,1.6,1c0.6,0.1,1.2-0.1,1.7-0.2c0.3-0.1,0.5-0.1,0.7-0.1
		c0.2,0,0.3,0,0.3,0s0.1-0.1,0.1-0.3c0-0.2,0-0.6-0.1-1c-0.3-0.8-1-1.5-2-1.8c-0.9-0.2-1.8,0.1-2.4,0.6c-0.3,0.2-0.6,0.5-0.6,0.7
		c-0.1,0.2-0.1,0.4-0.1,0.4C120.8,147.8,120.9,147.8,121.1,147.9z"/>
	<radialGradient id="SVGID_9_" cx="128.9991" cy="136.3574" r="116.1211" gradientUnits="userSpaceOnUse">
		<stop  offset="0.2" style="stop-color:#FFFFFF"/>
		<stop  offset="0.7" style="stop-color:#FFFFFF;stop-opacity:0.6"/>
		<stop  offset="1" style="stop-color:#FFFFFF"/>
	</radialGradient>
	<path class="st8" d="M96,99.3c3.1,0,6.9,0.7,11,1.8c2,0.6,4.1,1.4,6.2,2.4c2.1,1,4.2,2.3,6.3,3.6c0.6-4.6-10.3-7.5-12.4-8
		c-4.4-1-8.3-1.5-11.6-1c-1.6,0.2-3.1,0.7-4.2,1.2c-1.2,0.5-2.1,1.1-2.8,1.6c-1.4,1-2.1,1.7-2.1,1.7c0,0,0.8-0.5,2.4-1.4
		C90.4,100.3,92.8,99.4,96,99.3z"/>
	<radialGradient id="SVGID_10_" cx="128.9991" cy="136.3574" r="116.1211" gradientUnits="userSpaceOnUse">
		<stop  offset="0.2" style="stop-color:#FFFFFF"/>
		<stop  offset="0.7" style="stop-color:#FFFFFF;stop-opacity:0.6"/>
		<stop  offset="1" style="stop-color:#FFFFFF"/>
	</radialGradient>
	<path class="st9" d="M114,111.3c-1.4-1.1-3.1-2-5.1-2.4c-2-0.5-3.9-0.5-5.6-0.4c-1.7,0.1-3.2,0.5-4.4,0.8c-2.5,0.7-3.8,1.5-3.8,1.5
		c0,0,1.5-0.4,4-0.7c2.5-0.3,5.9-0.5,9.4,0.4c1.8,0.4,3.4,1.1,4.7,1.9c1.3,0.8,2.3,1.9,3.1,2.8c0.7,0.9,1.2,1.8,1.6,2.4
		c0.3,0.6,0.5,1,0.5,1c0,0-0.1-0.4-0.2-1.1c-0.2-0.7-0.5-1.7-1.1-2.8C116.3,113.7,115.3,112.4,114,111.3z"/>
	<radialGradient id="SVGID_11_" cx="128.9991" cy="136.3574" r="116.1211" gradientUnits="userSpaceOnUse">
		<stop  offset="0.2" style="stop-color:#FFFFFF"/>
		<stop  offset="0.7" style="stop-color:#FFFFFF;stop-opacity:0.6"/>
		<stop  offset="1" style="stop-color:#FFFFFF"/>
	</radialGradient>
	<path class="st10" d="M114.4,121.6c1.2,0,2.3,0.1,2.9,0.4c0.4,0.2,0.7,0.3,0.9,0.4c0.1,0.2,0.1,0.4,0.1,0.4c0,0,0.1-0.5,0-1.5
		c-0.1-0.9-0.3-2.4-1.3-4c-0.5-0.8-1.3-1.5-2.2-2.1c-0.9-0.6-2-1.1-3.1-1.4c-2.3-0.7-4.8-0.9-7.3-1c-2.6,0-4.9,0.1-7,0.2
		c-2.1,0.1-4,0.1-5.5-0.2c-1.5-0.3-2.6-0.9-3.2-1.6c-0.6-0.6-0.8-1.1-0.8-1.1c0,0,0,0.5,0.4,1.4c0.2,0.4,0.5,1,1,1.5
		c0.5,0.5,1.2,1,2,1.4c0.8,0.4,1.7,0.7,2.7,1c0.1,0.7,0.4,1.5,1.1,2.4c0.8,1.1,2.1,2.2,3.7,2.9c1.6,0.8,3.5,1.3,5.5,1.5
		c1,0.1,2,0.1,3,0c0.9-0.1,1.8-0.2,2.7-0.3C111.6,121.8,113.1,121.6,114.4,121.6z M108.4,116.4c-0.2,0.1-0.4,0.3-0.6,0.4
		c-0.6,0.3-1.1,0.4-1.6,0.3c-0.2,0-0.6-0.1-0.8-0.2c-0.3-0.1-0.5-0.2-0.8-0.4c-0.1-0.1-0.1-0.1-0.2-0.2
		C105.8,116.3,107.1,116.3,108.4,116.4z M107.2,120.6c-0.9,0-1.8,0-2.7-0.1c-1.9-0.2-3.6-0.5-5.2-1.1c-1.5-0.5-2.8-1.3-3.6-2.2
		c-0.6-0.6-1-1.2-1.3-1.7c0.9,0.2,1.8,0.3,2.7,0.4c1.4,0.2,2.9,0.2,4.5,0.3c0.1,0.6,0.3,1.3,0.7,2c0.3,0.5,0.8,1,1.4,1.4
		c0.6,0.4,1.3,0.7,2.1,0.8c0.8,0.1,1.6-0.1,2.2-0.3c0.7-0.3,1.2-0.7,1.6-1.2c0.7-0.7,1-1.6,1.1-2.3c0.1,0,0.2,0,0.2,0
		c2,0.3,3.6,0.9,4.7,1.9c1.1,0.9,1.7,2.1,2.1,2.9c0.2,0.4,0.3,0.7,0.3,0.9c-0.1-0.2-0.3-0.4-0.7-0.6c-0.6-0.4-1.7-0.8-3-1
		c-1.3-0.2-2.9-0.2-4.6-0.2L107.2,120.6z"/>
	<radialGradient id="SVGID_12_" cx="128.9991" cy="136.3574" r="116.1211" gradientUnits="userSpaceOnUse">
		<stop  offset="0.2" style="stop-color:#FFFFFF"/>
		<stop  offset="0.7" style="stop-color:#FFFFFF;stop-opacity:0.6"/>
		<stop  offset="1" style="stop-color:#FFFFFF"/>
	</radialGradient>
	<path class="st11" d="M180.6,81.6l0.1,0c0,0,0,0,0,0C180.7,81.6,180.7,81.6,180.6,81.6C180.6,81.6,180.6,81.6,180.6,81.6z"/>
</g>
<path class="st12" d="M138,228.8c-0.1,0-0.2,0-0.3-0.1c-1.2-0.5-2.2-1.3-3-2.1c-0.2-0.2-0.5-0.4-0.9-0.4c-0.2,0-0.3,0-0.5,0.1
	c-2.2,0.9-4.6,1.4-7.3,1.4c-0.3,0-0.5,0-0.8,0c-0.4,0-0.7-0.4-0.7-0.8c0-0.4,0.3-0.8,0.7-0.8c0.3,0,0.6,0,0.8,0c2.2,0,4.2-0.3,5.9-1
	c0.3-0.1,0.5-0.3,0.7-0.6c0.1-0.3,0.1-0.6,0-0.9c-0.2-0.6-0.3-1-0.3-1c0,0,0-0.1,0-0.1v-14.9c0-3.5-2-4.4-2.9-4.7
	c-0.1,0-0.2,0-0.3,0c-0.3,0-0.5,0.1-0.7,0.3l-2,1.6c-0.3,0.3-0.5,0.7-0.4,1.2c0.1,0.6,0.2,1.1,0.2,1.7v13.7c0,0.4-0.3,0.8-0.7,0.8
	c-0.4,0-0.7-0.4-0.7-0.8v-13.7c0-3.5-2-4.4-2.9-4.7c-0.1,0-0.2,0-0.3,0c-0.3,0-0.5,0.1-0.7,0.3l-1.8,1.4c-0.4,0.3-0.5,0.7-0.4,1.2
	c0.1,0.6,0.2,1.2,0.2,1.8v13.7c0,0.4-0.3,0.8-0.7,0.8c-0.4,0-0.7-0.4-0.7-0.8v-13.7c0-3.4-1.9-4.7-3.8-4.8c-0.4,0-0.7-0.4-0.7-0.8
	c0-0.4,0.3-0.8,0.7-0.8c0.7,0,2.3,0.3,3.5,1.6c0.2,0.2,0.5,0.4,0.9,0.4c0.3,0,0.5-0.1,0.7-0.3l1.9-1.5c0.1-0.1,0.3-0.2,0.4-0.2
	c0.7,0,2.4,0.3,3.6,1.7c0.2,0.3,0.6,0.4,0.9,0.4c0.3,0,0.5-0.1,0.7-0.3l2.1-1.6c0.1-0.1,0.3-0.2,0.4-0.2c1.2,0,4.4,0.9,5.1,4.8
	c0.1,0.4,0.4,0.8,0.7,0.9c0.1,0.1,0.3,0.1,0.4,0.1c0.3,0,0.5-0.1,0.7-0.3c0.7-0.5,1.4-0.9,2.1-1c0.1,0,0.3,0,0.5,0
	c0.9,0,1.8,0.4,2.5,1.2c2,2.1,2.2,7.2,0.3,11.5c-1,2.4-2.5,4.4-4.4,5.9c-0.3,0.2-0.5,0.6-0.5,1c0,0.4,0.2,0.7,0.5,0.9
	c0.5,0.4,1,0.7,1.6,1c0.4,0.2,0.5,0.7,0.4,1.1C138.5,228.6,138.2,228.8,138,228.8L138,228.8z M138.2,207.4c-0.1,0-0.2,0-0.3,0
	c-1.8,0.3-3.7,3.3-3.9,3.7c-0.1,0.2-0.2,0.4-0.2,0.6v10.4c0,0.5,0.3,0.9,0.7,1.1c0.2,0.1,0.3,0.1,0.5,0.1c0.3,0,0.5-0.1,0.8-0.3
	c2.1-1.7,3.3-3.8,3.9-5.2c1.8-4.3,1.1-8.5,0-9.7C139.2,207.7,138.7,207.4,138.2,207.4L138.2,207.4z"/>
</svg>
