<?xml version="1.0" encoding="utf-8"?>
<!-- Generator: Adobe Illustrator 21.1.0, SVG Export Plug-In . SVG Version: 6.00 Build 0)  -->
<svg version="1.1" id="Layer_9" xmlns="http://www.w3.org/2000/svg" xmlns:xlink="http://www.w3.org/1999/xlink" x="0px" y="0px"
	 viewBox="0 0 255.1 255.1" style="enable-background:new 0 0 255.1 255.1;" xml:space="preserve">
<style type="text/css">
	.st0{fill:url(#SVGID_1_);}
	.st1{fill:url(#SVGID_2_);}
	.st2{fill:url(#SVGID_3_);}
	.st3{fill:url(#SVGID_4_);}
	.st4{fill:url(#SVGID_5_);}
	.st5{fill:url(#SVGID_6_);}
	.st6{fill:url(#SVGID_7_);}
	.st7{fill:url(#SVGID_8_);}
	.st8{fill:url(#SVGID_9_);}
	.st9{fill:url(#SVGID_10_);}
	.st10{fill:url(#SVGID_11_);}
	.st11{fill:url(#SVGID_12_);}
	.st12{fill:url(#SVGID_13_);}
	.st13{fill:url(#SVGID_14_);}
	.st14{fill:url(#SVGID_15_);}
	.st15{fill:url(#SVGID_16_);}
	.st16{fill:url(#SVGID_17_);}
	.st17{fill:url(#SVGID_18_);}
	.st18{fill:url(#SVGID_19_);}
	.st19{fill:url(#SVGID_20_);}
	.st20{fill:url(#SVGID_21_);}
	.st21{fill:url(#SVGID_22_);}
	.st22{fill:url(#SVGID_23_);}
	.st23{fill:url(#SVGID_24_);}
	.st24{fill:url(#SVGID_25_);}
	.st25{fill:url(#SVGID_26_);}
	.st26{fill:url(#SVGID_27_);}
	.st27{fill:url(#SVGID_28_);}
	.st28{fill:url(#SVGID_29_);}
	.st29{fill:url(#SVGID_30_);}
	.st30{fill:url(#SVGID_31_);}
	.st31{fill:url(#SVGID_32_);}
	.st32{fill:url(#SVGID_33_);}
	.st33{fill:url(#SVGID_34_);}
	.st34{fill:url(#SVGID_35_);}
	.st35{fill:url(#SVGID_36_);}
	.st36{fill:url(#SVGID_37_);}
	.st37{fill:url(#SVGID_38_);}
	.st38{fill:url(#SVGID_39_);}
	.st39{fill:url(#SVGID_40_);}
	.st40{fill:url(#SVGID_41_);}
	.st41{fill:url(#SVGID_42_);}
	.st42{fill:url(#SVGID_43_);}
	.st43{fill:url(#SVGID_44_);}
	.st44{fill:url(#SVGID_45_);}
	.st45{fill:url(#SVGID_46_);}
	.st46{fill:url(#SVGID_47_);}
	.st47{fill:url(#SVGID_48_);}
	.st48{fill:url(#SVGID_49_);}
	.st49{fill:url(#SVGID_50_);}
	.st50{fill:url(#SVGID_51_);}
	.st51{fill:url(#SVGID_52_);}
	.st52{fill:url(#SVGID_53_);}
	.st53{fill:url(#SVGID_54_);}
	.st54{fill:#FFFFFF;}
</style>
<g>
	<radialGradient id="SVGID_1_" cx="125.2491" cy="129.774" r="131.4425" gradientUnits="userSpaceOnUse">
		<stop  offset="0" style="stop-color:#FFFFFF"/>
		<stop  offset="0.6649" style="stop-color:#FFFFFF;stop-opacity:0.6"/>
		<stop  offset="0.8595" style="stop-color:#FFFFFF"/>
	</radialGradient>
	<path class="st0" d="M146.2,154.9c0,0,0.2-0.1,0.4-0.4c0.2-0.3,0.5-0.8,0.7-1.4c0.5-1.3,0.7-3.4,0.7-5.9c-0.1-5-4.6-21.8-4.8-22.2
		c-0.8-0.3-2.5-1.8-3.2-5.1c0,1-1.2,0.8,0.2,5.7l0.2,0.5c0.1,0.2,0.1,0.4,0.2,0.6c0.3,0.8,0.6,1.7,0.9,2.6c2.3,7,4.2,13.4,5,18.1
		c0.4,2.4,0.6,4.3,0.4,5.6C146.7,154.3,146.2,155,146.2,154.9z"/>
	<radialGradient id="SVGID_2_" cx="125.2491" cy="129.774" r="131.4425" gradientUnits="userSpaceOnUse">
		<stop  offset="0" style="stop-color:#FFFFFF"/>
		<stop  offset="0.6649" style="stop-color:#FFFFFF;stop-opacity:0.6"/>
		<stop  offset="0.8595" style="stop-color:#FFFFFF"/>
	</radialGradient>
	<path class="st1" d="M169.4,106c1.2-0.7,2.1-1.7,2.8-2.6c0.7-1,1-2,1.2-2.9c0.2-0.9,0.2-1.7,0.2-2.3c-0.1-1.2-0.2-1.9-0.2-1.9
		c0,0,0,0.7-0.3,1.8c-0.2,1.1-0.7,2.8-2.1,4.2c-0.7,0.7-1.5,1.3-2.6,1.7c-1,0.5-2.2,0.8-3.5,1c-1.3,0.2-2.7,0.3-4.2,0.3l-1.1,0h-0.2
		l-0.2,0l-0.6-0.1c-0.8-0.1-1.7-0.1-2.5-0.1c-0.9,0-1.8,0.1-2.7,0.3c-0.9,0.2-1.8,0.6-2.6,1.1c-1.6,1-2.7,2.3-3.5,3.5l-0.1,0.1
		l-0.1,0.1l-0.2,0.2c-0.1,0.2-0.2,0.3-0.3,0.5c-0.2,0.3-0.4,0.6-0.5,0.9l-0.9,1.7c-0.2,0.3-0.4,0.6-0.5,0.9
		c-0.4,0.6-0.8,1.2-1.2,1.7l0.1-0.1c-0.4,0.7-0.7,1.5-0.8,1.6c0,0-0.3,0.9-0.3,1c-0.1,0.9-0.1,1.7,0,2.3c0.2,0.7,0.5,1.3,1,1.8
		c0.5,0.5,1.2,0.8,1.9,0.8c0.3,0,0.6-0.1,0.8-0.2c0.2-0.1,0.3-0.2,0.4-0.4c0.1-0.1,0.3-0.3,0.4-0.5c0.2-0.2,0.4-0.5,0.7-1
		c0.1-0.1,0.1-0.3,0.2-0.4l0.1-0.2l0-0.1c0,0,0,0,0,0l0-0.1l0-0.1l0-0.1c0.1,0.2,0.1,0.1,0,0c0,0,0,0,0.1,0c0.2,0,0.6,0.3,1.3,0.5
		c0.3,0.1,0.8,0.2,1.1,0.1l0.7-0.1c0.9-0.1,1.8-0.2,2.6-0.3c1.7-0.2,3.4-0.5,4.8-1.3c0.7-0.4,1.3-0.9,1.8-1.4c0.5-0.5,0.8-1,1.1-1.6
		c0.6-1,0.9-1.9,1.2-2.7c0.5-1.5,0.6-2.3,0.7-2.3c0,0-0.4,0.8-1.3,2.2c-0.4,0.7-1,1.5-1.7,2.3c-0.7,0.8-1.7,1.5-2.9,1.9
		c-1.2,0.4-2.7,0.5-4.4,0.5c-0.8,0-1.7,0.1-2.7,0.1l-0.2,0h-0.1c0,0-0.1,0-0.1,0c-0.1,0-0.2-0.1-0.4-0.1c-0.2-0.1-0.4-0.2-0.7-0.3
		c-0.3-0.1-0.7-0.3-1.1-0.3c-0.2,0-0.4,0-0.7,0l-0.2,0l-0.1,0c-0.1,0-0.2,0.1-0.3,0.1c0,0-0.1,0-0.1,0.1l-0.1,0
		c-0.1,0-0.1,0.1-0.1,0.2c-0.1,0.1-0.1,0.3-0.2,0.5c0,0.1-0.1,0.1-0.1,0.2c-0.1,0.1-0.2,0.1-0.2,0.1c-0.2,0-0.3-0.1-0.4-0.3
		c-0.2-0.3-0.2-0.7-0.1-1c0-0.1,0-0.2,0.1-0.3c0-0.1,0-0.1,0.1-0.4c0.2-0.4,0.4-0.9,0.6-1.2l-0.1-0.1c0.1-0.1,0.2-0.2,0.3-0.3
		c0.4,0.4,1,0.9,1.9,1.4c1,0.5,2.4,0.9,3.9,0.9c1.5,0,3.2-0.3,4.8-1c1.6-0.7,3-1.8,3.9-3c1-1.2,1.5-2.5,1.7-3.6
		c0.2-0.8,0.2-1.4,0.1-2c0.9-0.1,1.8-0.3,2.6-0.5C166.9,107.3,168.2,106.8,169.4,106z M148.7,115.5c-0.8-0.1-1.4-0.2-2-0.4
		c0.1-0.1,0.1-0.1,0.2-0.2c0.4-0.5,0.8-1,1.2-1.6c0.2-0.3,0.4-0.5,0.6-0.8l0.2-0.3c0,0.3,0.1,0.7,0.3,1.1c0.2,0.4,0.5,0.8,0.9,1.2
		c0.4,0.3,0.9,0.6,1.4,0.8C150.5,115.5,149.5,115.5,148.7,115.5z M157.3,109.6c-0.1,0.6-0.4,1.3-0.9,1.9c-0.5,0.6-1.2,1.1-2,1.4
		c-0.8,0.4-1.7,0.5-2.4,0.5c-0.8,0-1.4-0.3-1.8-0.7c-0.4-0.3-0.6-0.7-0.8-1c0.8-1,1.7-1.8,2.8-2.4c1.1-0.6,2.4-0.8,3.8-0.9
		c0.4,0,0.9,0,1.3,0C157.4,108.7,157.4,109.1,157.3,109.6z M161.2,109.6c-0.5,0.8-1.2,1.6-2.2,2.4c-0.3,0.3-0.7,0.5-1,0.7
		c0.1-0.1,0.1-0.2,0.1-0.2c0.5-1.1,0.5-2.2,0.3-3c-0.1-0.4-0.3-0.8-0.4-1.1c0.1,0,0.2,0,0.3,0l0.6,0l0.3,0l0.3,0
		c0.4,0,0.8,0,1.2-0.1c0.4,0,0.8-0.1,1.1-0.1C161.7,108.7,161.5,109.1,161.2,109.6z"/>
	<radialGradient id="SVGID_3_" cx="125.2491" cy="129.774" r="131.4425" gradientUnits="userSpaceOnUse">
		<stop  offset="0" style="stop-color:#FFFFFF"/>
		<stop  offset="0.6649" style="stop-color:#FFFFFF;stop-opacity:0.6"/>
		<stop  offset="0.8595" style="stop-color:#FFFFFF"/>
	</radialGradient>
	<path class="st2" d="M154.8,96c-2,0.4-4.1,1.1-6.2,2.3c-2,1.2-3.8,2.8-5,4.4c-1.2,1.6-2,3.4-2.4,4.8c-0.4,1.5-0.5,2.7-0.6,3.5
		c0,0.8,0,1.3,0,1.3s0.1-0.5,0.3-1.2c0.2-0.8,0.6-1.9,1.3-3.2c0.7-1.3,1.6-2.7,2.8-4c1.3-1.3,2.8-2.6,4.7-3.7
		c3.6-2.2,7.5-3.2,10.3-3.6c2.9-0.4,4.7-0.3,4.7-0.3c0,0-1.7-0.7-4.8-0.8C158.6,95.5,156.7,95.6,154.8,96z"/>
	<radialGradient id="SVGID_4_" cx="125.2491" cy="129.774" r="131.4425" gradientUnits="userSpaceOnUse">
		<stop  offset="0" style="stop-color:#FFFFFF"/>
		<stop  offset="0.6649" style="stop-color:#FFFFFF;stop-opacity:0.6"/>
		<stop  offset="0.8595" style="stop-color:#FFFFFF"/>
	</radialGradient>
	<path class="st3" d="M140,158.6c0.3,0,0.4,0.2,0.4,0.2c0,0,0-0.2-0.2-0.5c-0.2-0.3-0.7-0.6-1.3-0.7c-1.2-0.2-2.8,0.1-4.2,1.2
		c-0.7,0.6-1.2,1.2-1.6,2c-0.3,0.7-0.4,1.5-0.4,2c0,0.6,0.2,1,0.4,1.3c0.1,0.3,0.3,0.4,0.3,0.4c0,0,0.1-0.7,0.5-1.5
		c0.4-0.8,1.2-1.6,2.3-2.4c0.5-0.4,1-0.8,1.5-1.1c-0.1,0.1-0.2,0.2-0.4,0.4c-0.6,0.6-1.3,1.4-1.9,2.3c-0.7,0.9-1.3,2-1.8,3.1
		c-0.6,1.1-1,2.1-1.5,2.9c-0.5,0.8-1,1.6-1.5,2.2c-1,1.2-2,1.8-2,1.8c0,0,0.3,0,0.8,0c0.5,0,1.2-0.2,2.1-0.5
		c0.9-0.3,1.8-0.9,2.7-1.8c0.9-0.8,1.6-2,2.2-3.1c0.6-1.2,1-2.3,1.4-3.3c0.3-1,0.7-1.9,0.9-2.7l0.7-2.1
		C139.5,158.5,139.8,158.5,140,158.6z"/>
	<radialGradient id="SVGID_5_" cx="125.2491" cy="129.774" r="131.4425" gradientUnits="userSpaceOnUse">
		<stop  offset="0" style="stop-color:#FFFFFF"/>
		<stop  offset="0.6649" style="stop-color:#FFFFFF;stop-opacity:0.6"/>
		<stop  offset="0.8595" style="stop-color:#FFFFFF"/>
	</radialGradient>
	<path class="st4" d="M141.9,153.7c0.2,0.5,0.3,1.2,0.3,1.8c0,1.3-0.2,2.3-0.3,3l-0.2,1.1c0,0,0.2-0.4,0.5-1c0.3-0.7,0.8-1.7,1.1-3
		c0.1-0.7,0.3-1.5,0-2.4c-0.1-0.5-0.3-1-0.7-1.4c-0.3-0.4-0.8-0.8-1.2-1c-0.9-0.5-1.8-0.9-2.8-1.1c-0.9-0.3-1.9-0.5-2.9-0.7
		l-1.4-0.3c-0.2-0.1-0.5-0.1-0.7-0.2c-0.3,0-0.5-0.1-0.7-0.1c-1-0.1-1.9-0.2-2.8-0.2c-1,0-2,0-2.9,0.1c-1,0-2.2,0-3.4,0
		c-0.9,0.1-1.8,0.2-2.8,0.4c-0.9,0.2-1.9,0.4-2.9,0.6c-1,0.3-1.9,0.5-2.9,0.9c-0.5,0.2-0.9,0.5-1.4,0.8c-0.4,0.3-0.9,0.7-1.2,1.2
		c-0.3,0.5-0.5,1-0.6,1.5c-0.1,0.5-0.1,1-0.1,1.4c0.1,0.9,0.3,1.6,0.5,2.2c0.5,1.3,1,2.2,1.3,2.9c0.4,0.6,0.6,1,0.6,1l-0.2-1.1
		c-0.1-0.7-0.4-1.8-0.5-3c-0.1-0.6-0.1-1.3-0.1-2c0.1-0.7,0.3-1.3,0.7-1.7c0.4-0.4,1.1-0.8,1.8-1.1c0.8-0.3,1.7-0.5,2.6-0.8
		c0.9-0.2,1.9-0.5,2.8-0.7c0.8-0.2,1.7-0.4,2.5-0.6c1-0.2,2-0.4,2.8-0.5c0.9,0.1,2,0.2,3.1,0.4c0.8,0.1,1.7,0.3,2.6,0.5l0.7,0.1
		c0.2,0.1,0.4,0.1,0.7,0.2c0.5,0.1,1,0.2,1.5,0.4c1,0.2,1.9,0.4,2.8,0.6c0.9,0.2,1.7,0.4,2.4,0.7
		C141.3,152.8,141.7,153.2,141.9,153.7z"/>
	<radialGradient id="SVGID_6_" cx="125.2491" cy="129.774" r="131.4425" gradientUnits="userSpaceOnUse">
		<stop  offset="0" style="stop-color:#FFFFFF"/>
		<stop  offset="0.6649" style="stop-color:#FFFFFF;stop-opacity:0.6"/>
		<stop  offset="0.8595" style="stop-color:#FFFFFF"/>
	</radialGradient>
	<path class="st5" d="M134.5,175c0,0,0.2,0.4,0.7,1c0.5,0.6,1.4,1.4,2.6,2.2c1.3,0.8,2.9,1.4,4.9,1.6c1.9,0.3,4.1,0.1,6.3-0.4
		c0.3-0.1,0.5-0.1,0.8-0.2c0.3-0.1,0.5-0.1,0.8-0.2c0.5-0.2,1-0.4,1.6-0.6c1-0.5,1.9-1.1,2.7-1.8c0.7-0.7,1.3-1.5,1.7-2.2
		c0.4-0.7,0.8-1.5,1-2.1c0.5-1.3,0.9-2.4,1.1-3.1l0.4-1.2c0,0-0.3,0.4-0.7,1c-0.4,0.6-1,1.6-1.8,2.8c-0.8,1.1-1.7,2.4-3,3.4
		c-0.6,0.5-1.4,0.9-2.2,1.2c-0.4,0.2-0.9,0.3-1.3,0.4c-0.2,0.1-0.5,0.1-0.7,0.2c-0.2,0.1-0.5,0.1-0.8,0.2c-2,0.5-3.8,0.7-5.6,0.7
		c-1.7,0-3.3-0.3-4.5-0.7c-1.3-0.4-2.2-1-2.9-1.4C134.9,175.3,134.5,175,134.5,175z"/>
	<radialGradient id="SVGID_7_" cx="125.2491" cy="129.774" r="131.4425" gradientUnits="userSpaceOnUse">
		<stop  offset="0" style="stop-color:#FFFFFF"/>
		<stop  offset="0.6649" style="stop-color:#FFFFFF;stop-opacity:0.6"/>
		<stop  offset="0.8595" style="stop-color:#FFFFFF"/>
	</radialGradient>
	<path class="st6" d="M147.8,159.4c1.3-0.6,2.7-1,4.4-1.3c1.6-0.3,3.3-0.4,4.9-0.8c0.8-0.2,1.6-0.4,2.2-0.8c0.7-0.4,1.2-0.8,1.7-1.3
		c0.8-1,1.2-1.9,1.3-2.5c0.2-0.6,0.2-1,0.2-1s-0.2,0.3-0.6,0.8c-0.4,0.5-0.9,1.3-1.8,1.8c-0.9,0.6-2,0.9-3.4,1
		c-1.4,0.1-3.1,0.1-4.9,0.4c-1.8,0.3-3.6,1-4.9,1.9c-1.4,0.9-2.4,2-3.1,2.9c-0.7,0.9-1.2,1.8-1.5,2.4c-0.3,0.6-0.4,0.9-0.4,0.9
		c0,0,1-1.1,2.8-2.4C145.5,160.7,146.6,160,147.8,159.4z"/>
	<radialGradient id="SVGID_8_" cx="125.2491" cy="129.774" r="131.4425" gradientUnits="userSpaceOnUse">
		<stop  offset="0" style="stop-color:#FFFFFF"/>
		<stop  offset="0.6649" style="stop-color:#FFFFFF;stop-opacity:0.6"/>
		<stop  offset="0.8595" style="stop-color:#FFFFFF"/>
	</radialGradient>
	<path class="st7" d="M169.8,89c-0.2-0.6-0.5-1.2-0.7-1.8c0.2-0.2,0.3-0.4,0.4-0.6c0.2-0.5,0.2-1,0.3-1.5l0.1-0.9
		c0,0-0.4-0.1-0.9,0.1c-0.3,0.1-0.7,0.3-1,0.6c0.1-0.2,0.3-0.7,0.5-1.1c0.4-0.8,1-1.8,1.6-2.8c0.6-1.1,1.1-2.1,1.6-2.8
		c0.5-0.8,0.9-1.2,0.9-1.3c0,0-0.6,0-1.6,0.4c-0.9,0.4-2.1,1.2-2.9,2.6c-0.8,1.3-0.9,2.8-0.7,3.8c0,0.3,0.1,0.5,0.2,0.7
		c-0.8-1.1-1.4-1.7-1.4-1.7s0.1,0.9,0.3,2.2c0.2,1.3,0.6,3.1,1.3,5c1.3,3.8,3.3,6.6,3.4,6.6C170.9,96.4,171.1,92.9,169.8,89z"/>
	<radialGradient id="SVGID_9_" cx="125.2491" cy="129.774" r="131.4425" gradientUnits="userSpaceOnUse">
		<stop  offset="0" style="stop-color:#FFFFFF"/>
		<stop  offset="0.6649" style="stop-color:#FFFFFF;stop-opacity:0.6"/>
		<stop  offset="0.8595" style="stop-color:#FFFFFF"/>
	</radialGradient>
	<path class="st8" d="M167.5,54.8c-1.2,0.1-2.6,0.4-4.1,1.1c-1.5,0.6-3,1.6-4.3,2.9c-1.3,1.3-2.3,2.7-3.1,4.1
		c-0.8,1.3-1.3,2.6-1.7,3.7c-0.6,1.7-1,2.9-1.1,3.4c-0.7-0.7-1.6-1.5-2.9-2.3c-1.6-0.9-3.9-1.6-6.4-1.8c-2.5-0.1-5.3,0.3-8,1.5
		c-2.7,1.2-5,3.1-6.3,5.4c-0.6,1.2-1,2.4-1.1,3.6c0,0.2,0,0.3,0,0.5c-0.5-0.9-0.9-1.8-1.2-2.6c-0.3-0.8-0.5-1.5-0.5-2.2
		c0-0.7,0.1-1.3,0.4-1.8c0.3-0.5,0.7-1,1.1-1.3c0.4-0.3,0.8-0.6,1.1-0.8c0.6-0.4,1-0.6,1-0.6c0,0-0.4,0.1-1.2,0.3
		c-0.4,0.1-0.8,0.3-1.4,0.5c-0.5,0.3-1.1,0.6-1.6,1.2c-0.5,0.6-1,1.4-1.1,2.4c0,0.2,0,0.4,0,0.6c-1.3-2.2-3.5-4-6.1-5.2
		c-2.7-1.2-5.5-1.6-8-1.5c-2.5,0.1-4.7,0.8-6.4,1.8c-1.3,0.7-2.3,1.6-2.9,2.3c-0.1-0.5-0.5-1.7-1.1-3.4c-0.4-1.1-1-2.3-1.7-3.7
		c-0.8-1.3-1.7-2.8-3.1-4.1c-1.3-1.3-2.8-2.3-4.3-2.9c-1.5-0.7-2.9-1-4.1-1.1c-2.4-0.3-3.8,0-3.8,0c0,0,1.4,0.5,3.4,1.5
		c1,0.5,2.1,1.1,3.2,1.9c1.1,0.8,2.3,1.7,3.4,2.9c2.2,2.2,4.1,4.6,5.6,6.4c1.2,1.4,2,2.3,2.3,2.6c-0.1,0.1-0.3,0.3-0.4,0.4
		c-0.7,0.8-0.9,1.3-0.9,1.3s0.4-0.4,1.2-1c0.8-0.6,2-1.4,3.6-2c1.6-0.6,3.7-0.9,5.9-0.9c2.2,0.1,4.7,0.6,7.1,1.7
		c2.3,1,4.3,2.5,5.5,4.3c0.6,0.9,1,1.8,1.2,2.8c0.2,0.9,0.2,1.9,0.1,2.7c-0.2,1.7-0.9,3-1.4,3.9c-0.5,0.9-0.8,1.3-0.8,1.3
		c0,0,0.4-0.4,1.1-1.1c0.7-0.8,1.6-2,2.2-3.8c0.2-0.6,0.3-1.2,0.4-1.9c0.4,1,0.9,1.9,1.4,2.9c0.9,1.7,4.7,5.2,5.5,6.8
		c-0.7-1.9-2.4-5.9-3.2-7.5c0-0.2-0.1-0.4-0.1-0.6c-0.1-0.8-0.1-1.8,0.1-2.7c0.2-0.9,0.6-1.9,1.2-2.8c0.8-1.2,1.9-2.2,3.3-3.1
		c0.7-0.4,1.4-0.9,2.2-1.2c0.2-0.1,0.4-0.2,0.6-0.2c2.2-0.9,4.4-1.3,6.5-1.4c2.3-0.1,4.3,0.3,5.9,0.9c1.6,0.6,2.9,1.4,3.6,2
		c0.8,0.6,1.2,1,1.2,1s-0.3-0.5-0.9-1.3c-0.1-0.1-0.2-0.3-0.4-0.4c0.3-0.3,1.2-1.3,2.4-2.6c1.5-1.7,3.4-4.1,5.6-6.4
		c1.1-1.1,2.3-2.1,3.4-2.9c1.1-0.8,2.2-1.4,3.2-1.9c2-1,3.3-1.5,3.3-1.5C171.2,54.8,169.8,54.5,167.5,54.8z"/>
	<radialGradient id="SVGID_10_" cx="125.2491" cy="129.774" r="131.4425" gradientUnits="userSpaceOnUse">
		<stop  offset="0" style="stop-color:#FFFFFF"/>
		<stop  offset="0.6649" style="stop-color:#FFFFFF;stop-opacity:0.6"/>
		<stop  offset="0.8595" style="stop-color:#FFFFFF"/>
	</radialGradient>
	<path class="st9" d="M133.4,87.4c0.1,0.1,0.1,0.3,0.1,0.4C133.5,87.7,133.4,87.5,133.4,87.4z"/>
	<radialGradient id="SVGID_11_" cx="125.2491" cy="129.774" r="131.4425" gradientUnits="userSpaceOnUse">
		<stop  offset="0" style="stop-color:#FFFFFF"/>
		<stop  offset="0.6649" style="stop-color:#FFFFFF;stop-opacity:0.6"/>
		<stop  offset="0.8595" style="stop-color:#FFFFFF"/>
	</radialGradient>
	<path class="st10" d="M177.6,76.1c0.5-1.4,0.8-2.9,0.9-4.5c0.1-1.6-0.2-3.4-1.1-5.1c-0.4-0.8-1-1.5-1.7-2.1c-0.3-0.3-0.7-0.6-1-0.8
		c-0.2-0.1-0.4-0.3-0.6-0.4c-0.2-0.1-0.4-0.2-0.7-0.3c-0.9-0.3-1.8-0.3-2.6-0.2c-0.8,0.1-1.6,0.3-2.3,0.6c-1.4,0.6-2.6,1.3-3.6,2.1
		c-1,0.8-1.9,1.6-2.6,2.4c-1.5,1.6-2.4,3.1-2.9,4.1c-0.5,1.1-0.6,1.7-0.6,1.7c0,0,0.3-0.6,1-1.5c0.7-0.9,1.8-2.2,3.4-3.5
		c0.8-0.7,1.7-1.3,2.7-1.9c1-0.6,2.1-1.2,3.3-1.6c1.2-0.4,2.5-0.5,3.6-0.1c0.1,0.1,0.3,0.1,0.4,0.2c0.1,0.1,0.2,0.1,0.3,0.2
		c0.3,0.2,0.5,0.4,0.8,0.6c0.5,0.5,0.9,1,1.2,1.6c0.7,1.2,0.9,2.5,0.9,3.9c0,1.4-0.2,2.7-0.5,4c-0.7,2.6-1.6,4.8-2.5,6.7
		c-1.8,3.7-3.4,5.8-3.4,5.8c0,0,2-1.7,4.4-5.2C175.4,81.1,176.7,78.9,177.6,76.1z"/>
	<radialGradient id="SVGID_12_" cx="125.2491" cy="129.774" r="131.4425" gradientUnits="userSpaceOnUse">
		<stop  offset="0" style="stop-color:#FFFFFF"/>
		<stop  offset="0.6649" style="stop-color:#FFFFFF;stop-opacity:0.6"/>
		<stop  offset="0.8595" style="stop-color:#FFFFFF"/>
	</radialGradient>
	<path class="st11" d="M167.2,68.9c0,0-0.7,0.1-1.7,0.4c-1,0.4-2.3,1.1-3.4,2.3c-1.1,1.2-1.6,2.7-1.7,3.8c-0.1,1.1,0.1,1.8,0.1,1.8
		c0,0,0.4-0.6,1-1.3c0.6-0.8,1.5-1.7,2.4-2.7c0,0,0.1-0.1,0.1-0.1c-0.6,1-1,2-1.2,2.8c-0.3,1.2-0.3,2-0.3,2c0,0,0.5-0.6,1.3-1.5
		c0.3-0.4,0.8-0.8,1.2-1.3c-0.4,0.7-0.5,1.5-0.6,2c-0.1,1.1,0.1,1.7,0.1,1.7c0,0,0.4-0.6,1-1.3c0.6-0.7,1.4-1.6,2.3-2.5
		c0.9-0.9,1.8-1.6,2.6-2.2c0.8-0.5,1.4-0.8,1.4-0.8c0,0-0.6-0.3-1.7-0.4c-0.6,0-1.2,0.1-1.9,0.4c-0.2,0.1-0.3,0.1-0.5,0.2
		c0.8-0.7,1.6-1.4,2.2-1.9c0.9-0.7,1.6-1.2,1.5-1.2c0,0-0.8-0.1-2,0.1c-1.2,0.2-2.9,0.8-4.3,2.1c0.3-0.4,0.7-0.8,0.9-1.2
		C166.8,69.5,167.2,68.9,167.2,68.9z"/>
	<radialGradient id="SVGID_13_" cx="125.2491" cy="129.774" r="131.4425" gradientUnits="userSpaceOnUse">
		<stop  offset="0" style="stop-color:#FFFFFF"/>
		<stop  offset="0.6649" style="stop-color:#FFFFFF;stop-opacity:0.6"/>
		<stop  offset="0.8595" style="stop-color:#FFFFFF"/>
	</radialGradient>
	<path class="st12" d="M165.6,80.5c-0.1,1.1,0.1,1.8,0.1,1.8c0,0,0.4-0.6,1-1.4c0.6-0.8,1.5-1.7,2.4-2.8c0.9-1.1,1.8-2.1,2.4-2.9
		c0.7-0.8,1.1-1.3,1.1-1.3c0,0-0.7,0-1.8,0.3c-1,0.3-2.4,1.1-3.5,2.3C166.3,77.9,165.7,79.4,165.6,80.5z"/>
	<radialGradient id="SVGID_14_" cx="125.2491" cy="129.774" r="131.4425" gradientUnits="userSpaceOnUse">
		<stop  offset="0" style="stop-color:#FFFFFF"/>
		<stop  offset="0.6649" style="stop-color:#FFFFFF;stop-opacity:0.6"/>
		<stop  offset="0.8595" style="stop-color:#FFFFFF"/>
	</radialGradient>
	<path class="st13" d="M187.7,38.6c-0.5,0.9-1.1,1.9-2.1,2.8c-0.9,0.9-2.1,1.7-3.5,2.4c-1.4,0.7-3,1.2-4.7,1.6
		c-3.4,0.8-7.3,1.1-11.5,1.4c-4.2,0.2-8.2,0.8-11.8,1.9c-0.9,0.3-1.7,0.6-2.6,0.9l-0.6,0.3c-0.2,0.1-0.4,0.2-0.6,0.3
		c-0.4,0.2-0.8,0.5-1.1,0.7c-1.4,0.9-2.5,1.9-3.5,2.9c-2,1.9-3.4,3.8-3.8,5.4c-0.2,0.8-0.2,1.4-0.1,1.8c0.1,0.4,0.2,0.6,0.2,0.6
		c0,0-0.1-0.2-0.1-0.6c0-0.4,0.1-1,0.4-1.6c0.6-1.4,2.1-3,4.2-4.6c1.1-0.8,2.3-1.7,3.6-2.4c0.3-0.2,0.7-0.4,1-0.5
		c0.2-0.1,0.3-0.2,0.5-0.2l0.6-0.2c0.8-0.3,1.6-0.5,2.5-0.7c2-0.5,4.1-0.8,6.3-1c-2.8,0.7-5.3,1.6-7.3,2.8c-1.1,0.7-2,1.4-2.6,2.2
		c-0.7,0.8-1.1,1.6-1.3,2.3c-0.2,0.7-0.3,1.2-0.3,1.6c0,0.4,0,0.6,0,0.6c0,0,0-0.2,0.1-0.5c0.1-0.4,0.2-0.9,0.5-1.5
		c0.3-0.6,0.8-1.3,1.5-1.9c0.7-0.6,1.6-1.2,2.7-1.7c2.2-1,4.9-1.7,8.1-2.2c3.2-0.5,6.7-0.7,10.4-0.9c3.8-0.2,7.5-0.9,10.6-2.4
		c1.5-0.7,2.9-1.6,4-2.7c1.1-1,2-2.1,2.7-3.2c1.4-2.2,1.9-4.2,2.2-5.5c0.3-1.4,0.3-2.1,0.3-2.1c0,0-0.2,0.7-0.7,2
		c-0.5,1.3-1.3,3.1-2.8,4.9c-1.5,1.8-3.7,3.6-6.6,4.8c-1.6,0.6-3.4,1.1-5.2,1.4c0.2-0.1,0.4-0.1,0.5-0.2c1.8-0.5,3.5-1.2,4.9-2.1
		c1.4-0.8,2.7-1.9,3.6-3c0.9-1.1,1.5-2.3,1.9-3.4c0.4-1.1,0.5-2,0.6-2.8c0.1-1.5,0-2.4,0-2.4c0,0,0,0.9-0.4,2.3
		C188.5,36.8,188.2,37.7,187.7,38.6z"/>
	<radialGradient id="SVGID_15_" cx="125.2491" cy="129.774" r="131.4425" gradientUnits="userSpaceOnUse">
		<stop  offset="0" style="stop-color:#FFFFFF"/>
		<stop  offset="0.6649" style="stop-color:#FFFFFF;stop-opacity:0.6"/>
		<stop  offset="0.8595" style="stop-color:#FFFFFF"/>
	</radialGradient>
	<path class="st14" d="M181.2,104c2.3,0.2,4.9,0.9,7.6,2.1c1.4,0.6,2.7,1.3,4.1,2.2c0.7,0.4,1.4,0.9,2.1,1.4c0.3,0.2,0.7,0.5,1,0.8
		l1,0.8c2.8,2.2,5.8,4.1,8.7,5.4c1.5,0.6,3,1.1,4.5,1.2c1.5,0.1,2.9,0,4.1-0.6c1.2-0.5,2-1.3,2.6-2.1c0.6-0.8,0.9-1.5,1.2-2.1
		c0.5-1.2,0.6-2,0.6-2c0,0-0.3,0.7-0.9,1.8c-0.3,0.6-0.8,1.2-1.4,1.8c-0.6,0.6-1.5,1.2-2.5,1.5c-1,0.3-2.2,0.3-3.5,0.1
		c-1.2-0.2-2.5-0.8-3.9-1.4c-2.7-1.3-5.4-3.3-8.1-5.4l-1.1-0.8c-0.4-0.3-0.7-0.5-1.1-0.8c-0.7-0.5-1.5-1-2.2-1.4
		c-1.5-0.9-3-1.6-4.5-2.1c-3-1.1-5.9-1.5-8.3-1.4c-2.4,0.1-4.3,0.7-5.5,1.2c-1.2,0.5-1.8,0.9-1.8,0.9c0,0,0.7-0.3,1.9-0.6
		C177.1,104.1,178.9,103.9,181.2,104z"/>
	<radialGradient id="SVGID_16_" cx="125.2491" cy="129.774" r="131.4425" gradientUnits="userSpaceOnUse">
		<stop  offset="0" style="stop-color:#FFFFFF"/>
		<stop  offset="0.6649" style="stop-color:#FFFFFF;stop-opacity:0.6"/>
		<stop  offset="0.8595" style="stop-color:#FFFFFF"/>
	</radialGradient>
	<path class="st15" d="M185.4,199.1c-0.8,1.6-1.6,2.9-2.2,3.7c-0.6,0.8-0.9,1.3-0.9,1.3s0.4-0.4,1.2-1.1c0.7-0.7,1.8-1.8,2.9-3.3
		c1.1-1.5,2.3-3.5,3-6c0.7-2.4,1-5.4,0.4-8.3c-0.6-2.9-1.9-5.5-3.4-7.5c-1.5-2.1-3.1-3.6-4.5-4.9c-1.4-1.2-2.7-2.1-3.5-2.7
		c-0.9-0.6-1.4-0.8-1.4-0.8l1.1,1.1c0.7,0.7,1.7,1.8,2.9,3.2c1.2,1.4,2.5,3.1,3.7,5.1c1.2,2,2.2,4.4,2.7,6.9c0.5,2.6,0.5,5.1,0,7.3
		C187,195.5,186.2,197.5,185.4,199.1z"/>
	<radialGradient id="SVGID_17_" cx="125.2491" cy="129.774" r="131.4425" gradientUnits="userSpaceOnUse">
		<stop  offset="0" style="stop-color:#FFFFFF"/>
		<stop  offset="0.6649" style="stop-color:#FFFFFF;stop-opacity:0.6"/>
		<stop  offset="0.8595" style="stop-color:#FFFFFF"/>
	</radialGradient>
	<path class="st16" d="M165.5,141.8c0,0-0.4,0.8-0.8,2.4c-0.4,1.6-0.8,4-0.6,6.9c0.2,3,1.2,6.5,3,10c1.7,3.5,4.3,7.1,7.3,10.4
		c0.8,0.8,1.5,1.6,2.3,2.4c0.4,0.4,0.8,0.8,1.2,1.1c0.2,0.2,0.4,0.3,0.5,0.5c0.2,0.2,0.3,0.4,0.5,0.5c1.3,1.5,2.5,3,3.3,4.7
		c0.8,1.6,1.3,3.3,1.5,4.9c0.2,1.6,0.2,3.1-0.1,4.5c-0.5,2.8-1.6,4.9-2.5,6.2c-0.8,1.4-1.4,2.1-1.4,2.1c0,0,0.7-0.6,1.7-1.8
		c1-1.3,2.4-3.3,3.3-6.2c0.4-1.4,0.6-3.1,0.6-4.9c-0.1-1.8-0.6-3.7-1.3-5.6c-0.8-1.9-2-3.7-3.4-5.3c-0.2-0.2-0.4-0.4-0.6-0.6
		c-0.2-0.2-0.4-0.4-0.6-0.6l-1.1-1.1c-0.7-0.8-1.5-1.5-2.2-2.3c-2.9-3.2-5.5-6.5-7.3-9.7c-1.9-3.2-3-6.4-3.5-9.2
		c-0.5-2.8-0.4-5.1-0.2-6.7C165.2,142.7,165.5,141.8,165.5,141.8z"/>
	<radialGradient id="SVGID_18_" cx="125.2491" cy="129.774" r="131.4425" gradientUnits="userSpaceOnUse">
		<stop  offset="0" style="stop-color:#FFFFFF"/>
		<stop  offset="0.6649" style="stop-color:#FFFFFF;stop-opacity:0.6"/>
		<stop  offset="0.8595" style="stop-color:#FFFFFF"/>
	</radialGradient>
	<path class="st17" d="M156.1,216.9c0,0,1-0.1,2.8-0.7c1.8-0.5,4.4-1.5,7.3-3.2c2.9-1.7,6.1-4.3,8.9-8c1.4-1.8,2.6-3.9,3.6-6.2
		c1-2.3,1.7-4.8,2-7.4c0.3-2.6,0.2-5.2-0.2-7.7c-0.4-2.5-1.2-4.9-2.6-6.8c-1.3-2-3-3.4-4.7-4.6c-0.4-0.3-0.8-0.6-1.2-0.8
		c-0.4-0.3-0.8-0.5-1.2-0.7c-0.8-0.4-1.5-0.9-2.2-1.4c-1.3-0.9-2.3-2-2.8-3.1c-0.5-1.1-0.6-2.3-0.6-3.2c0-0.9,0.1-1.6,0.1-2.1
		l0.1-0.7c0,0-0.1,0.2-0.2,0.7c-0.1,0.5-0.3,1.2-0.4,2.1c-0.1,0.9-0.1,2.1,0.3,3.5c0.2,0.7,0.6,1.3,1,2c0.5,0.6,1.1,1.2,1.7,1.8
		c0.6,0.6,1.4,1.1,2.1,1.6c0.4,0.3,0.7,0.5,1.1,0.8c0.4,0.3,0.7,0.6,1.1,0.9c1.5,1.2,2.9,2.6,4,4.3c1.1,1.8,1.7,3.8,2,6.1
		c0.3,2.3,0.4,4.7,0.1,7.1c-0.6,4.8-2.5,9.2-4.9,12.7c-2.4,3.5-5.3,6.2-7.9,8.1c-2.6,1.9-5.1,3.1-6.8,3.8
		C157.1,216.6,156.1,216.9,156.1,216.9z"/>
	<radialGradient id="SVGID_19_" cx="125.2491" cy="129.774" r="131.4425" gradientUnits="userSpaceOnUse">
		<stop  offset="0" style="stop-color:#FFFFFF"/>
		<stop  offset="0.6649" style="stop-color:#FFFFFF;stop-opacity:0.6"/>
		<stop  offset="0.8595" style="stop-color:#FFFFFF"/>
	</radialGradient>
	<path class="st18" d="M145.9,201.7c-0.1-1.5-0.3-2.9-0.8-4.3c-0.5-1.3-1.1-2.5-1.7-3.6c-1.3-2.2-2.8-3.9-4.3-5.1
		c-0.8-0.6-1.5-1-2.3-1.2c-0.6-0.2-1.1-0.3-1.6-0.3c1.2-0.5,2.3-1,3.2-1.5c0.1-0.1,0.2-0.1,0.4-0.2l0.8,0.7c0.6,0.6,1.5,1.5,2.5,2.7
		c2,2.3,4.5,5.9,5.7,10.3c0.6,2.2,0.8,4.4,0.8,6.3c0,2-0.3,3.8-0.6,5.3c-0.6,3.1-1.3,4.9-1.3,4.9c0,0,1.2-1.6,2.4-4.6
		c0.6-1.5,1.2-3.4,1.4-5.5c0.3-2.2,0.2-4.6-0.5-7.1c-0.7-2.5-1.8-4.6-3.1-6.4c-1.3-1.7-2.7-3.1-4-4.1c-1.3-1-2.4-1.7-3.1-2.2
		c-0.4-0.2-0.7-0.4-0.9-0.5c1-0.6,1.8-1.2,2.3-1.6c0.1,0,0.2,0,0.3,0c0.7-0.1,1.3-0.4,1.9-0.6c1.6,0.1,3.4,0,5.1-0.3
		c0.4-0.1,0.9-0.2,1.4-0.3c0.2-0.1,0.5-0.1,0.7-0.2l0.6-0.2c0.9-0.3,1.8-0.7,2.6-1.2c1.7-1,3.2-2.1,4.5-3.4c1.3-1.3,2.4-2.6,3.2-4.1
		c0.8-1.5,1.4-3,1.5-4.6c0-0.2,0-0.4,0-0.6c0-0.2,0-0.4,0-0.6c0-0.4-0.1-0.7-0.1-1.1c-0.1-0.7-0.3-1.3-0.5-1.9
		c-0.4-1.2-0.9-2.1-1.1-3c0-0.2-0.1-0.4-0.1-0.6c0.8-2.5,1-4,1-4c0,0-0.2,0.4-0.6,1.1c0.2-0.5,0.3-0.8,0.3-0.8c0,0-0.4,0.6-1,1.9
		c-0.1,0.1-0.1,0.3-0.2,0.5c-0.2,0.5-0.5,1-0.9,1.5c-0.7,1.3-1.7,2.7-2.8,4.2c-1.1,1.5-2.5,3.1-4.1,4.4c-1.6,1.3-3.4,2.3-5.1,2.7
		c-1.7,0.5-3.4,0.6-4.8,0.4c-1.4-0.1-2.6-0.4-3.4-0.6c-0.8-0.2-1.2-0.3-1.2-0.3c0,0,0.4,0.3,1.1,0.7c0.7,0.4,1.8,1,3.3,1.4
		c1.5,0.4,3.3,0.7,5.4,0.3c2.1-0.3,4.3-1.3,6.1-2.9c1.9-1.5,3.2-3.4,4.2-5.1c0.8-1.4,1.4-2.8,1.9-4c0.2,0.8,0.4,1.6,0.6,2.4
		c0.1,0.6,0.2,1.1,0.2,1.7c0,0.3,0,0.6,0,0.9c0,0.2,0,0.3,0,0.5c0,0.2,0,0.3-0.1,0.4c-0.2,1.3-0.8,2.5-1.6,3.8
		c-1.6,2.5-4.1,4.8-7.1,6.5c-0.7,0.4-1.5,0.8-2.3,1.1l-0.6,0.2c-0.2,0.1-0.4,0.1-0.6,0.2c-0.4,0.1-0.8,0.2-1.2,0.3
		c-0.6,0.1-1.1,0.2-1.7,0.3c-0.2,0-0.4,0.1-0.6,0.1c-0.8,0.1-1.6,0.1-2.4,0.2c-3.1,0-5.8-0.4-8-1.2c-1.1-0.4-2-0.8-2.7-1.4
		c-0.7-0.5-1.2-1.2-1.4-1.8c-0.2-0.6-0.1-1.1,0-1.5c0.1-0.3,0.2-0.5,0.2-0.5s-0.1,0.1-0.3,0.5c-0.1,0.3-0.3,0.9-0.2,1.6
		c0.1,0.7,0.5,1.5,1.2,2.2c0.4,0.4,0.9,0.8,1.4,1.1c-0.6-0.2-1.3-0.5-1.9-0.7c-0.7-0.2-1.4-0.4-2.1-0.6c-0.2,0-0.4-0.1-0.6-0.1
		c-0.1,0-0.1,0-0.2,0l-0.2,0c-0.1,0-0.2,0-0.4,0c-0.5,0-0.9,0-1.3,0.1c-1.6,0.2-3,0.7-4.3,1.2c-1.3,0.5-2.5,1-3.6,1.5
		c-2.3,0.9-4.3,1.7-6,2.1c-0.9,0.2-1.6,0.2-2.3,0.1c-0.7-0.1-1.2-0.4-1.5-0.7c-0.1,0-0.1-0.1-0.1-0.1c0.4,0,0.8,0,1.2,0
		c1.6,0,3.1-0.2,4.5-0.5c1.4-0.4,2.6-0.9,3.6-1.4c2.1-1.2,3.4-2.5,4.3-3.5c0.9-1,1.2-1.6,1.2-1.6c0,0-0.5,0.5-1.5,1.3
		c-1,0.8-2.5,1.9-4.5,2.7c-2,0.8-4.7,1.3-7.5,1.1c-1.4-0.1-2.9-0.4-4.5-0.8c-0.8-0.2-1.5-0.5-2.3-0.8c-0.2-0.1-0.4-0.1-0.6-0.2
		l-0.6-0.2c-0.4-0.1-0.8-0.3-1.2-0.4c-1.5-0.6-2.9-1.4-3.8-2.4c-0.9-1-1.5-2.4-1.8-3.7c-0.1-0.3-0.1-0.7-0.2-1c0-0.3-0.1-0.7-0.1-1
		c0-0.7-0.1-1.4-0.1-2c0-1.2,0-2.4-0.1-3.5c0.3,0.6,0.6,1.2,0.9,1.7c1,1.7,2.4,3.6,4.2,5.1c1.8,1.5,4,2.5,6.1,2.9
		c2.1,0.3,4,0.1,5.4-0.3c1.5-0.4,2.6-1,3.3-1.4c0.7-0.4,1.1-0.7,1.1-0.7c0,0-0.4,0.1-1.2,0.3c-0.8,0.2-1.9,0.5-3.4,0.6
		c-1.4,0.1-3.1,0.1-4.8-0.4c-1.7-0.5-3.5-1.4-5.1-2.7c-1.6-1.3-2.9-2.9-4.1-4.4c-1.1-1.5-2-3-2.8-4.2c-0.2-0.4-0.4-0.7-0.6-1
		c-0.2-0.4-0.3-0.7-0.4-1.1c-0.5-1.2-1-1.7-1-1.8c0,0,0.1,0.3,0.3,0.8c-0.4-0.7-0.6-1.1-0.6-1.1c0,0,0.3,1.8,1.2,4.7
		c0,0.1,0.1,0.2,0.1,0.4c0,0.7,0,1.5,0,2.4c-0.1,1.1-0.2,2.3-0.4,3.7c-0.1,0.7-0.1,1.4-0.1,2.1c0,0.4,0,0.7,0,1.2
		c0,0.4,0.1,0.8,0.1,1.2c0.1,0.8,0.3,1.6,0.6,2.5c0.2,0.6,0.6,1.2,0.9,1.8c-4-1.4-8.2,0.6-9.9,2c-2.1,1.6-3.4,3.5-4.1,5.2
		c-0.7,1.7-0.9,3.1-1,4.1c-0.1,1,0,1.5,0,1.5c0,0,0.2-0.5,0.6-1.4c0.4-0.9,1.1-2.1,2.1-3.4c1-1.3,2.4-2.7,4.2-3.9
		c1.8-1.2,4-2.2,6.5-3l2.5,0c0.5,0.6,1.1,1,1.7,1.4c0.8,0.5,1.6,0.9,2.5,1.3c0.4,0.2,0.9,0.3,1.3,0.5l0.6,0.2
		c0.2,0.1,0.4,0.1,0.6,0.2c0.8,0.3,1.7,0.5,2.5,0.7c1.1,0.3,2.2,0.4,3.2,0.5c0.1,0.2,0.2,0.3,0.3,0.5c0.3,0.5,0.8,1,1.6,1.3
		c0.8,0.3,1.7,0.5,2.7,0.5c1,0,2.1-0.1,3.2-0.3c0.1,0.1,0.2,0.2,0.4,0.3c0.5,0.5,1.4,1.1,2.6,1.6c0.2,0.1,0.4,0.2,0.6,0.3
		c-0.5,0-1.1,0.1-1.8,0.3c-0.7,0.3-1.5,0.7-2.3,1.2c-1.5,1.2-3,2.9-4.3,5.1c-0.6,1.1-1.2,2.3-1.7,3.6c-0.5,1.4-0.7,2.8-0.8,4.3
		c-0.2,2.9,0.3,5.6,0.9,8c0.6,2.4,1.5,4.4,2.4,6.1c1.7,3.3,3.5,4.9,3.4,4.9c0,0-1.2-1.9-2.4-5.3c-0.6-1.7-1.1-3.7-1.5-6.1
		c-0.4-2.3-0.7-4.9-0.5-7.5c0.1-1.3,0.3-2.6,0.6-3.7c0.4-1.2,0.8-2.3,1.3-3.4c1-2.1,2.1-3.9,3.3-5.1c0.6-0.6,1.2-1.1,1.8-1.5
		c0.6-0.3,1.2-0.5,1.6-0.6c0.2,0,0.4-0.1,0.5-0.1c0.9,0.3,1.9,0.6,2.9,0.8c1.7,0.3,3.6,0.5,5.5,0.3c2-0.2,3.8-0.6,5.4-1.1
		c0,0,0,0,0,0c0.1,0,0.3,0,0.5,0.1c0.5,0.1,1,0.3,1.6,0.6c0.6,0.3,1.2,0.8,1.8,1.5c1.2,1.2,2.4,3,3.3,5.1c0.5,1,0.9,2.2,1.3,3.4
		c0.3,1.1,0.5,2.4,0.6,3.7c0.2,2.6-0.1,5.2-0.5,7.5c-0.4,2.3-1,4.4-1.5,6.1c-1.1,3.4-2.4,5.3-2.4,5.3c0,0,1.7-1.5,3.5-4.9
		c0.9-1.7,1.7-3.7,2.4-6.1C145.7,207.3,146.1,204.6,145.9,201.7z M128.8,185.6c-3.5,0.3-6.8,0.2-9.1-0.1c-1.2-0.1-2.1-0.4-2.8-0.6
		c0,0,0,0-0.1,0c1-0.2,2-0.5,3-0.8c1.2-0.3,2.5-0.7,3.7-1.1c1.3-0.4,2.6-0.8,3.8-1c0.3,0,0.6-0.1,0.8-0.1c0.1,0,0.1,0,0.2,0h0
		c0,0,0.1,0,0.1,0l0.4,0.1c0.6,0.1,1.3,0.3,1.9,0.4c1.3,0.3,2.5,0.7,3.8,1c1.2,0.3,2.5,0.5,3.6,0.5c0.2,0,0.4,0,0.6,0
		c-0.3,0.1-0.6,0.1-0.9,0.2C135.5,184.7,132.3,185.3,128.8,185.6z"/>
	<radialGradient id="SVGID_20_" cx="125.2491" cy="129.774" r="131.4425" gradientUnits="userSpaceOnUse">
		<stop  offset="0" style="stop-color:#FFFFFF"/>
		<stop  offset="0.6649" style="stop-color:#FFFFFF;stop-opacity:0.6"/>
		<stop  offset="0.8595" style="stop-color:#FFFFFF"/>
	</radialGradient>
	<path class="st19" d="M139.7,200.9c-0.1-2.1-0.5-4.1-1.2-5.9c-0.7-1.7-1.8-3.2-3-4c-1.2-0.8-2.3-1.1-3.1-1.2c-0.8-0.1-1.2,0-1.2,0
		c0,0,0.4,0.1,1.1,0.4c0.7,0.3,1.6,0.8,2.4,1.7c0.8,0.9,1.5,2.2,1.9,3.8c0.4,1.6,0.6,3.4,0.7,5.3c0.2,3.9-0.1,7.5-0.2,10.1
		c-0.2,2.6-0.3,4.3-0.3,4.3c0,0,0.7-1.5,1.5-4.1c0.4-1.3,0.8-2.8,1-4.6C139.7,205,139.8,203,139.7,200.9z"/>
	<radialGradient id="SVGID_21_" cx="125.2491" cy="129.774" r="131.4425" gradientUnits="userSpaceOnUse">
		<stop  offset="0" style="stop-color:#FFFFFF"/>
		<stop  offset="0.6649" style="stop-color:#FFFFFF;stop-opacity:0.6"/>
		<stop  offset="0.8595" style="stop-color:#FFFFFF"/>
	</radialGradient>
	<path class="st20" d="M132.1,195.1c-0.7-1.1-1.4-1.8-1.9-2.3c-0.5-0.5-0.9-0.7-0.9-0.7c0,0,1,1.2,1.8,3.4c0.4,1.1,0.7,2.5,0.8,4
		c0.2,1.5,0.2,3.2,0.1,5c-0.1,3.6-0.5,6.9-0.8,9.3l-0.5,3.9c0,0,0.7-1.3,1.6-3.7c0.9-2.3,1.9-5.6,2-9.5c0.1-1.9-0.1-3.8-0.5-5.4
		C133.4,197.5,132.8,196.1,132.1,195.1z"/>
	<radialGradient id="SVGID_22_" cx="125.2491" cy="129.774" r="131.4425" gradientUnits="userSpaceOnUse">
		<stop  offset="0" style="stop-color:#FFFFFF"/>
		<stop  offset="0.6649" style="stop-color:#FFFFFF;stop-opacity:0.6"/>
		<stop  offset="0.8595" style="stop-color:#FFFFFF"/>
	</radialGradient>
	<path class="st21" d="M127.5,194.4c0,0-0.3,1.4-0.5,3.6c-0.3,2.2-0.6,5.3-0.6,8.7c0,6.8,1.4,12.3,1.4,12.3c0,0,0.9-5.5,0.9-12.3
		c0-3.4-0.3-6.5-0.6-8.7C127.8,195.8,127.5,194.4,127.5,194.4z"/>
	<radialGradient id="SVGID_23_" cx="125.2491" cy="129.774" r="131.4425" gradientUnits="userSpaceOnUse">
		<stop  offset="0" style="stop-color:#FFFFFF"/>
		<stop  offset="0.6649" style="stop-color:#FFFFFF;stop-opacity:0.6"/>
		<stop  offset="0.8595" style="stop-color:#FFFFFF"/>
	</radialGradient>
	<path class="st22" d="M158.1,214.1c1-1.3,1.8-2.7,2.5-4.2c0.6-1.5,1-3,1.2-4.4c0.4-2.9-0.1-5.5-0.6-7.5c-0.6-2.1-1.3-3.6-1.8-4.7
		c-0.5-1.1-0.9-1.6-0.9-1.6s0.2,0.6,0.5,1.7c0.3,1.1,0.7,2.8,1,4.8c0.3,2,0.4,4.4-0.2,7c-0.5,2.5-1.7,5.1-3.6,7.5
		c-1.8,2.4-4,4.4-6,6.4c-2,1.9-3.8,3.7-5,5.4c-1.3,1.7-2,3.4-2.2,4.5c-0.3,1.2-0.2,1.8-0.3,1.8c0,0,0.1-0.6,0.6-1.7
		c0.5-1,1.4-2.4,2.8-3.9c1.4-1.5,3.3-3,5.4-4.7C153.6,218.7,156,216.7,158.1,214.1z"/>
	<radialGradient id="SVGID_24_" cx="125.2491" cy="129.774" r="131.4425" gradientUnits="userSpaceOnUse">
		<stop  offset="0" style="stop-color:#FFFFFF"/>
		<stop  offset="0.6649" style="stop-color:#FFFFFF;stop-opacity:0.6"/>
		<stop  offset="0.8595" style="stop-color:#FFFFFF"/>
	</radialGradient>
	<path class="st23" d="M231.9,113.4C231.9,113.4,231.9,113.4,231.9,113.4C231.8,113.4,231.8,113.4,231.9,113.4c-0.8,0-1.6,0-2.1-0.1
		c-1.1-0.1-2.3-0.5-3.6-1.2c-1.3-0.8-2.7-1.8-4.1-3.2c-1.5-1.3-3-2.9-4.8-4.4c-0.2-0.2-0.5-0.4-0.7-0.6l-0.2-0.1
		c0,0-0.1-0.1-0.1-0.1l-0.3-0.3c-0.5-0.4-1-0.8-1.5-1.2c-1-0.8-2.2-1.5-3.3-2.2c-1.4-0.8-2.9-1.6-4.5-2.2c1.9-0.8,3.6-1.9,5.1-3.2
		c1.7-1.4,3.1-3,4.4-4.6c0.6-0.8,1.2-1.6,1.8-2.4c0.6-0.8,1.1-1.7,1.5-2.6c1.7-3.6,2.5-7.2,2.8-10.5c0.3-3.4,0-6.5-0.6-9.2
		c-0.6-2.7-1.6-5.1-2.7-6.9c-1.1-1.9-2.4-3.2-3.5-4.2c-1.1-1-2.1-1.6-2.8-1.9c-0.7-0.4-1-0.5-1-0.5s0.4,0.2,1,0.7
		c0.6,0.5,1.6,1.2,2.6,2.4c1,1.1,2.1,2.7,3,4.6c0.9,1.9,1.6,4.3,1.9,7c0.3,2.7,0.3,5.6-0.2,8.8c-0.5,3.1-1.4,6.4-3.1,9.5
		c-0.4,0.8-0.9,1.5-1.4,2.2c-0.5,0.7-1.1,1.5-1.7,2.2c-1.2,1.4-2.5,2.8-4,4c-1.5,1.2-3.1,2.3-4.9,2.9c-0.9,0.3-1.8,0.5-2.8,0.6
		c-2.6-0.5-5.3-0.6-8,0l-0.7-0.1c-0.2,0-0.4,0-0.6-0.1l-0.6-0.1l-1.3-0.2c-1.8-0.3-3.8-0.6-6-0.7c-1.1,0-2.2,0-3.4,0.3
		c-0.4,0.1-0.8,0.2-1.2,0.4c0.4-0.4,0.8-0.8,1.2-1.1c1-0.7,2.1-1.2,3.3-1.5c2.4-0.6,4.9-0.5,7.3-0.4c2.4,0.1,4.7,0.2,6.9,0.2
		c2.2,0,4.2-0.2,6-0.6c1.8-0.4,3.4-1.1,4.6-2c1.2-0.8,2-1.8,2.6-2.5c0.6-0.8,0.9-1.5,1.1-1.9c0.2-0.5,0.3-0.7,0.3-0.7
		c0,0-0.2,0.2-0.5,0.7c-0.3,0.4-0.8,1-1.5,1.7c-0.7,0.7-1.7,1.4-2.9,2c-1.2,0.6-2.7,1-4.4,1.1c-1.7,0.2-3.6,0.1-5.7,0
		c-2.1-0.1-4.3-0.4-6.8-0.6c-1.2-0.1-2.5-0.1-3.8,0c-1.3,0.1-2.7,0.2-4.1,0.6c-1.2,0.3-2.3,0.9-3.4,1.6c0.4-0.4,1-0.9,1.6-1.2
		c2-1.3,4.8-2,8-2.4c1.6-0.2,3.3-0.3,5.1-0.5c0.9-0.1,1.8-0.2,2.8-0.3l0.7-0.1l0.7-0.1c0.5-0.1,1-0.2,1.5-0.3
		c3.9-0.9,7.4-2.7,10-4.9c1.3-1.1,2.4-2.4,3.2-3.7c0.8-1.3,1.4-2.6,1.8-3.9c0.7-2.5,0.6-4.6,0.4-6c-0.2-1.4-0.5-2.1-0.5-2.1
		c0,0,0.1,0.8,0.1,2.2c0,1.4-0.2,3.4-1.1,5.6c-0.9,2.2-2.7,4.6-5.2,6.4c-2.5,1.9-5.7,3.4-9.2,4.2c-0.5,0.1-0.9,0.2-1.3,0.2l-0.7,0.1
		l-0.7,0.1c-0.9,0.1-1.8,0.2-2.7,0.4c-1.8,0.2-3.5,0.5-5.2,0.8c-1.6,0.3-3.2,0.8-4.7,1.3c-1.4,0.6-2.7,1.3-3.7,2.1
		c-1,0.8-1.8,1.8-2.3,2.6c-0.2,0.4-0.4,0.8-0.6,1.2c-0.3-0.5-0.6-1-0.9-1.3c-0.2-0.3-0.4-0.5-0.6-0.7c0.7-0.6,1.5-1.2,2.3-2.1
		c1.4-1.5,2.7-3.6,3.9-6c0.2-0.2,0.4-0.3,0.6-0.5c1.1-0.7,2.6-1.2,4.4-1.3c1.8-0.1,3.8-0.1,6,0c2.2,0,4.3,0,6.3-0.3
		c2-0.3,3.7-0.9,5-1.7c1.3-0.8,2.1-1.8,2.6-2.4c0.5-0.7,0.6-1.1,0.6-1.1c0,0-0.3,0.4-0.9,0.9c-0.6,0.5-1.5,1.2-2.8,1.6
		c-1.3,0.5-2.9,0.7-4.7,0.8c-1.8,0.1-3.8-0.1-6.1-0.1c-2.2-0.1-4.4,0-6.3,0.4c-1,0.2-1.9,0.5-2.8,0.9c-0.3,0.2-0.7,0.4-1,0.6
		c0.5-1.4,1-2.8,1.4-4.3c0.6-0.4,1.4-0.8,2.6-0.9c1.2-0.2,2.7,0,4.4,0.4c1.7,0.3,3.6,0.8,5.7,1.1c2.1,0.3,4.2,0.3,6.1-0.1
		c0.9-0.2,1.8-0.6,2.6-1c0.7-0.5,1.4-1,1.8-1.5c1-1.1,1.4-2.1,1.7-2.8c0.3-0.7,0.4-1.1,0.4-1.1c0,0-0.2,0.3-0.7,0.9
		c-0.5,0.6-1.2,1.4-2.2,2.2c-1,0.7-2.4,1.3-4,1.5c-1.6,0.2-3.4,0-5.4-0.3c-2-0.3-3.9-0.6-5.7-0.7c-1.8-0.1-3.6,0-4.9,0.4
		c-0.7,0.2-1.3,0.6-1.7,0.9c-0.1,0.1-0.2,0.2-0.3,0.3c0.2-1.1,0.4-2.1,0.6-3.2c0,0,0,0,0-0.1c0,0,0,0,0-0.1c0.1-0.1,0.1-0.1,0.2-0.2
		c0.2-0.2,0.5-0.4,0.8-0.5c0.4-0.2,1-0.4,1.6-0.5c1.2-0.2,2.8,0,4.5,0.4c1.7,0.3,3.6,0.8,5.8,1c2.1,0.2,4.3,0.2,6.2-0.5
		c1-0.4,1.8-0.9,2.4-1.5c0.6-0.6,1.1-1.3,1.4-2c0.6-1.3,0.8-2.5,0.8-3.2c0.1-0.8,0.1-1.2,0.1-1.2s-0.1,0.4-0.4,1.1
		c-0.3,0.7-0.7,1.7-1.5,2.7c-0.8,1-1.9,1.9-3.4,2.3c-1.5,0.4-3.4,0.3-5.4,0.1c-2-0.2-3.9-0.6-5.8-0.7c-1.8-0.1-3.6-0.1-5,0.5
		c-0.7,0.3-1.3,0.6-1.7,1c-0.1,0.1-0.1,0.1-0.1,0.1c0.2-0.8,0.5-1.9,1.2-3c0.7-1.2,2-2.2,3.7-2.9c1.1-0.5,2.4-0.9,3.8-1.3
		c0.4,0,0.9,0.1,1.3,0.2c1,0.2,2,0.5,3.1,0.6c1.1,0.2,2.2,0.3,3.4,0.1c1.1-0.2,2.1-0.5,3-0.9c0.9-0.4,1.7-0.8,2.5-1.4
		c1.5-1,2.7-2.2,3.6-3.4c0.9-1.2,1.5-2.6,1.6-3.8c0.1-1.2-0.2-2.2-0.5-2.9c-0.4-0.7-0.8-1.2-1-1.5c-0.3-0.3-0.4-0.4-0.4-0.4
		s0.1,0.2,0.3,0.6c0.2,0.4,0.5,0.9,0.6,1.7c0.2,0.7,0.2,1.7-0.1,2.6c-0.3,1-1,2-2,2.9c-1,0.9-2.2,1.8-3.6,2.5
		c-1.4,0.7-3,1.3-4.6,1.4c-1,0-2-0.1-3.2-0.4c0.6-0.4,1.2-0.9,1.6-1.3c1.4-1.4,2.3-3.1,2.9-4.8c0.6-1.7,1-3.3,1.2-5
		c0.2-1.6,0.3-3.2,0.2-4.8c0-0.7-0.1-1.6-0.2-2.3c-0.1-0.8-0.3-1.5-0.5-2.2c-0.4-1.4-1-2.7-1.6-3.9c-1.3-2.4-2.9-4.3-4.5-5.8
		c-1.6-1.5-3.3-2.7-4.8-3.4c-1.5-0.8-2.9-1.2-4.1-1.5c-1.2-0.2-2.1-0.3-2.7-0.3c-0.6,0-0.9,0.1-0.9,0c0,0,0.3,0,1,0.1
		c0.6,0.1,1.5,0.3,2.7,0.7c1.1,0.4,2.4,1.1,3.8,2.1c1.4,1,2.8,2.3,4.2,3.9c0.4,0.5,0.9,1.1,1.3,1.7c-0.1,0.3-0.2,0.7-0.4,1.3
		c-0.4,1.3-1.3,3-2.7,4.9c-1.5,1.8-3.6,3.6-6.4,5c-2.7,1.4-6,2.3-9.5,2.6l-5.4,0.5c-1.7,0.1-3.4,0.4-5,0.6c-3.2,0.5-6.1,1.3-8.3,2.5
		c-1.1,0.6-2.1,1.3-2.8,2c-0.7,0.7-1.1,1.5-1.4,2.1c-0.3,0.7-0.3,1.2-0.4,1.5c0,0.4,0,0.5,0,0.5c0,0,0-0.2,0.1-0.5
		c0.1-0.3,0.3-0.8,0.6-1.4c0.3-0.6,0.9-1.2,1.6-1.8c0.7-0.6,1.7-1.1,2.8-1.5c2.2-0.8,5-1.3,8.1-1.6c1.6-0.2,3.2-0.3,5-0.4l2.7-0.1
		l1.4-0.1l0.7-0.1l0.7,0c3.9-0.3,7.4-1.5,10.3-3.2c2.9-1.7,5-3.9,6.4-6.1c1.3-2.1,1.9-4.1,2.1-5.4c0.1-0.5,0.1-0.8,0.2-1.2
		c0.8,1.1,1.5,2.3,2.1,3.7l-0.3,1.3c-0.2,0.9-0.5,2.2-1.1,3.8c-0.5,1.5-1.2,3.3-2.3,5.1c-1.1,1.8-2.5,3.6-4.2,5.3
		c-1.7,1.7-3.6,3.2-5.2,4.8c-0.8,0.8-1.5,1.7-2,2.6c0,0,0,0,0,0c0,0,0-0.1,0-0.1c-0.4-1.6-0.9-3-1.6-4.3c-0.7-1.3-1.6-2.4-2.5-3.2
		c-0.9-0.8-1.9-1.4-2.8-1.7c-0.9-0.3-1.7-0.4-2.4-0.5c-1.3-0.1-2,0.1-2,0.1c0,0,0.7,0,2,0.3c1.2,0.3,3,1,4.5,2.6
		c0.7,0.8,1.4,1.8,1.9,3c0.5,1.2,0.9,2.5,1.1,4c0.5,2.9,0.4,6.2,0,9.6c-0.9,6.9-3.1,12.9-5.7,16.6c-0.6,0.9-1.3,1.7-1.9,2.3
		c-0.1-0.1-0.1-0.1-0.1-0.1s0,0.1,0,0.2c-0.6,0.6-1.2,1.1-1.7,1.4c-1.1,0.7-1.8,0.9-1.8,0.9c0,0,0.7-0.1,2-0.6
		c0.5-0.2,1-0.5,1.6-0.9c0,0.2,0,0.4,0.1,0.7c0.1,1.1,0.3,2.4,0.6,3.9c0.3,1.5,0.6,2.8,0.9,3.8c0.2,1,0.4,1.7,0.4,1.7
		c0,0,0.4-0.6,0.7-1.7c0.2-0.5,0.3-1.1,0.4-1.8c0.2,0,0.3,0,0.5,0c1,0.1,2.5,0.4,4.2,0.9c1.7,0.5,3.7,1.3,5.8,2.5
		c1,0.6,2.1,1.3,3.1,2c1,0.8,2.1,1.6,3.2,2.5c2.2,1.7,4.4,3.5,6.7,4.6c1.2,0.6,2.4,1,3.5,1.2c1.2,0.2,2.3,0.2,3.3-0.1
		c1-0.2,1.8-0.6,2.5-1c0.7-0.4,1.2-0.8,1.6-1.1c0.8-0.7,1.2-1.1,1.2-1.1c0,0-0.5,0.3-1.4,0.8c-0.9,0.5-2.3,1.1-4,1.2
		c-0.9,0-1.8-0.1-2.8-0.4c-1-0.3-2-0.8-2.9-1.4c-2-1.2-4-2.9-6.2-4.7c-1.1-0.9-2.2-1.7-3.4-2.5c-1.2-0.8-2.3-1.4-3.5-2
		c-2.3-1.1-4.6-1.7-6.5-1.9c-1.9-0.2-3.4-0.2-4.5-0.1c0,0-0.1,0-0.1,0c0.6-0.5,1.4-0.8,2.3-0.9c0.9-0.1,2-0.1,2.9-0.1
		c2,0.1,3.9,0.4,5.8,0.7c0.5,0.1,1,0.1,1.4,0.1c0.2,0,0.5,0,0.7,0l0.7,0c0.9,0,1.8,0,2.6,0c1.2,0,2.3-0.1,3.4-0.3
		c1.1,0.2,2.2,0.4,3.3,0.7c2.7,0.8,5.2,1.9,7.5,3.2c1.1,0.6,2.2,1.3,3.2,2l0.8,0.5l0.7,0.5l0.4,0.2l0.3,0.3c0.2,0.2,0.5,0.3,0.7,0.5
		c1.8,1.4,3.5,2.8,5.1,4c1.6,1.2,3.2,2.1,4.7,2.7c1.5,0.6,2.9,0.8,4,0.6c0.1,0,0.3,0,0.4-0.1c-0.3,0.1-0.5,0.2-0.8,0.4
		c-0.8,0.5-1.6,1.1-2.4,1.8c-0.8,0.8-1.6,1.6-2.5,2.6c-0.8,0.9-1.7,1.9-2.7,2.8c-1,0.9-2,1.6-3.2,2c-1.2,0.3-2.5,0.2-4-0.3l0,0.1
		c-0.8-0.3-1.6-0.6-2.5-1c0.9-0.3,1.6-0.7,2.3-1.2c1-0.8,1.7-1.6,2.2-2.4c0.5-0.8,0.9-1.5,1.1-2.1c0.5-1.2,0.6-1.9,0.6-1.9
		c0,0-0.3,0.6-1,1.7c-0.3,0.5-0.8,1.2-1.4,1.8c-0.6,0.7-1.3,1.4-2.2,1.9c-0.9,0.5-2,0.9-3.2,0.9c-0.5,0-1,0-1.5-0.1
		c-0.7-0.3-2.8-0.8-3.6-1.1c-2.3-1-4.7-2.6-7-4.3l-0.5-0.4c-0.1-0.1-0.3-0.2-0.5-0.4c-0.3-0.3-0.7-0.6-1-0.8c-0.7-0.5-1.4-1-2.1-1.5
		c-1.4-0.9-2.9-1.7-4.3-2.4c-2.9-1.3-5.8-1.8-8.1-1.8c-2.4,0-4.2,0.6-5.4,1.1c-0.9,0.4-1.5,0.7-1.7,0.8c-0.6-0.8-1-1.2-1-1.2
		c0,0,0.3,0.6,0.8,1.8c0.5,1.1,1,2.9,1.3,5c0.3,2.1,0.2,4.7-0.7,7.2c-0.3,0.9-0.8,1.8-1.3,2.7h0c0,0,0,0,0,0
		c-0.2,0.3-0.4,0.6-0.6,0.9c-0.4,0.6-0.9,1.1-1.4,1.7c-0.3,0.3-0.5,0.5-0.8,0.8l-1,0.8c-2.6,2.3-4.9,4.8-6.5,7.5
		c-1.6,2.7-2.4,5.5-2.6,7.8c-0.2,2.3,0.1,4.2,0.4,5.4c0.3,1.2,0.5,1.9,0.5,1.9c0,0-0.1-0.7-0.1-1.9c0-1.2,0.1-3,0.6-5.1
		c0.5-2.1,1.6-4.4,3.2-6.6c0.7-1,1.5-1.9,2.4-2.8c0,1.5,0.2,3.5,1.1,5.7c0.3,0.8,0.7,1.7,1.3,2.5c-0.1,0.5-0.1,1.2,0.2,2
		c0.4,1.7,1.6,4,3.6,6.5c1,1.2,2.1,2.5,3.6,3.7c0.2,0.1,0.4,0.3,0.6,0.4l0.6,0.4c0.4,0.3,0.9,0.5,1.3,0.7c0.9,0.5,1.9,0.8,2.8,1.2
		c1.9,0.7,3.9,1.3,5.5,2.5c1.7,1.2,3.3,2.7,4.7,4.5c2.5,3.3,3.9,7,4.7,10.6c-0.2,0.8-0.2,1.7,0,2.4c0.1,0.7,0.4,1.3,0.6,1.8
		c0.2,2.6,0.1,5.1-0.1,7.3c-0.3,2.9-0.9,5.2-1.4,6.9c-0.2-0.9-0.6-1.7-1.1-2.5c-0.6-0.9-1.1-1.7-1.6-2.4c-0.3-0.5-0.6-1-0.9-1.4
		c-0.3-0.8-0.5-1.3-0.7-1.4c-0.3-0.6-0.5-1-0.7-1c-0.2,0-0.3,0.2-0.4,0.6c-0.1,0.4-0.2,1,0,1.8c0.1,0.8,0.4,1.6,0.8,2.5c0,0,0,0,0,0
		c0,0.1,0,0.2,0,0.3c0.1,1.3,0.1,2.8,0,4.5c-0.1,1.7-0.2,3.5-0.7,5.3c-0.2,0.8-0.6,1.5-1.1,2.3c-0.5,0.8-1,1.5-1.4,2.2
		c-1,1.5-1.8,2.9-2.2,4.3c-0.2,0.7-0.2,1.4-0.2,2c0,0.6,0.2,1.1,0.4,1.4c0.1,0.2,0.2,0.3,0.3,0.4l-0.5-0.4c-0.7-0.5-1.7-1.3-2.8-2.3
		c-1.1-1-2.3-2.3-3.2-3.8c-0.5-0.9-0.9-1.9-1.1-3c0-0.4,0-0.8,0-1.3c0.1-0.1,0.1-0.3,0.2-0.4c0.4-0.8,1-1.6,1.6-2.4
		c0.6-0.9,1.2-1.8,1.7-2.6c0.5-0.9,0.8-1.7,1-2.5c0.2-0.8,0.2-1.4,0.2-1.9c-0.1-0.4-0.2-0.7-0.4-0.7c-0.3,0-0.7,0.8-1.4,1.9
		c-0.3,0.6-0.8,1.2-1.3,2c-0.5,0.7-1.2,1.5-1.8,2.5c-0.6,0.8-1.1,1.7-1.4,2.5l-0.7-0.2c-0.4,1.3-0.5,2.7-0.3,4
		c-0.1,0.6-0.3,1.1-0.5,1.6c-0.5,1.4-1.4,2.6-2.5,3.7c-1.1,1-2.3,1.9-3.6,2.6c-1.3,0.7-2.6,1.4-3.9,2c-2.6,1.2-5.2,2.1-7.6,3.1
		c-2.4,1-4.6,2-6.4,3.2c-1.9,1.2-3.4,2.5-4.5,3.8c-1.1,1.4-1.6,2.8-1.9,3.9c-0.3,1.2-0.3,2.1-0.3,2.7c0,0.6,0.1,0.9,0.1,0.9
		c0,0,0-0.3,0.1-1c0.1-0.6,0.3-1.5,0.7-2.6c0.4-1.1,1.2-2.3,2.4-3.4c1.2-1.1,2.8-2.2,4.7-3c1.9-0.9,4.1-1.7,6.5-2.6
		c2.4-0.8,5-1.7,7.8-2.9c1.4-0.6,2.8-1.3,4.1-2.1c1.4-0.8,2.7-1.9,3.9-3.1c0.9-0.9,1.6-2,2.2-3.2c0,0,0,0,0,0.1
		c1.4,2,3.1,3.1,4.5,3.8c1.4,0.7,2.6,1.1,3.5,1.3c0.6,0.1,0.9,0.2,1.1,0.2c0.1,0,0.1,0,0.1,0c0,0,0,0,0,0c0,0,0,0,0,0
		c0.3-0.2-0.5-1.7,0.4-3.8c0.5-1.1,1.3-2.2,2.4-3.6c0.5-0.7,1.1-1.4,1.6-2.2c0.5-0.8,1.1-1.8,1.4-2.9c0.5-2.1,0.6-4.1,0.6-5.9
		c0-0.4,0-0.7,0-1c0.2,0.4,0.4,0.8,0.5,1.2c0.3,0.7,0.4,1.4,0.4,2c0.1,1.2,0,2.1,0.3,2.2c0.1,0.1,0.4-0.1,0.6-0.4
		c0.2-0.3,0.5-0.9,0.7-1.6c0.2-0.7,0.2-1.6,0-2.6c0.1-0.1,0.1-0.2,0.1-0.3c0.7-1.6,1.6-4,2.2-7c0.3-1.5,0.5-3.2,0.6-4.9
		c0.3,0.4,0.6,0.7,1,1.1c0.8,0.9,1.5,1.6,2.1,2.4c0.6,0.7,1,1.4,1.2,2.1c0.5,1.4,0.2,2.7,0,3.5c0,0.1-0.1,0.2-0.1,0.2
		c-0.5,0.7-0.7,1.1-0.7,1.1c0,0,0.2-0.2,0.5-0.5c-0.1,0.3-0.2,0.5-0.2,0.5c0,0,0.4-0.3,1.1-1.1c0.3-0.4,0.6-0.9,0.8-1.5
		c0.1-0.1,0.2-0.2,0.3-0.3c1.4-2,3.2-5.2,4.7-9.5c0.7-2.2,1.3-4.6,1.7-7.2c0.3-2.5,0.5-5.2,0.3-8.1c0.1,0.1,0.2,0.2,0.2,0.3
		c1.2,1.5,2.7,2.8,4.2,3.5c1.6,0.7,3.2,0.8,4.4,0.6c1.3-0.2,2.3-0.6,3-1c0.8-0.5,1.4-0.8,1.7-1.1c0.7-0.2,1.1-0.4,1.4-0.6
		c0.4-0.2,0.7-0.4,0.7-0.4s-0.3,0.1-0.8,0.3c-0.5,0.1-1.3,0.3-2.2,0.2c-0.5-0.1-1-0.2-1.4-0.5c-0.5-0.3-0.9-0.7-1.2-1.3
		c-0.7-1.1-1.1-2.6-1.4-4.4c-0.3-1.7-0.3-3.7-0.3-5.8c0-1,0.1-2.2,0-3.4c-0.1-1.2-0.2-2.4-0.4-3.7c-0.3-1.6-0.7-3.3-1.5-4.9
		c1.1,0,2.1-0.3,3-0.7c1-0.4,1.8-1,2.5-1.6c1.4-1.2,2.5-2.6,3.3-3.9c0.8-1.3,1.4-2.6,1.9-3.8c0.9-2.4,1.2-4.4,1.1-5.8
		c0-0.5-0.1-1-0.1-1.3c0.1-0.1,0.1-0.1,0.1-0.1s-0.1,0-0.1,0c-0.1,0-0.1,0-0.2,0.1c-0.7,0.2-2.4,0.6-4.8,0.7c-1.6,0-3.4,0-5.3-0.5
		c-0.7-0.2-1.4-0.4-2.1-0.8c0.3,0,0.6-0.1,0.9-0.2c1-0.3,1.8-0.7,2.5-1.2c0.7-0.5,1.3-1.1,1.9-1.6c1.1-1.1,1.9-2.3,2.6-3.3
		c0.7-1,1.4-2,2-2.8c1.2-1.6,2.4-2.6,3.4-3.2c0.2-0.1,0.4-0.2,0.6-0.3c0.4-0.2,0.8-0.3,1-0.4c0,0,0.1,0,0.1,0
		C233.6,113.4,233,113.2,231.9,113.4z M186.9,63.7c0.5-0.7,1.2-1.4,2-2.1c1.6-1.4,3.6-2.7,5.5-4.6c1.9-1.9,3.3-4,4.3-6.1
		c1-2.1,1.4-4.1,1.7-5.8c0.2-1.7,0.3-3,0.3-4c0-0.6,0-1,0-1.2c0,0.1,0,0.1,0.1,0.2c0.5,1.1,0.9,2.3,1.2,3.6c0.1,0.6,0.2,1.3,0.3,1.9
		c0,0.3,0,0.6,0.1,1c0,0.3,0,0.7,0,1c0,2.8-0.4,5.8-1.4,8.5c-0.5,1.4-1.2,2.7-2.2,3.7c-1,1-3.4,2.1-4.9,2.4l1.2-0.1l0,0
		c-1.9,0.3-3.6,0.8-5.1,1.7c-0.1,0.1-0.2,0.1-0.3,0.2c-0.9,0.5-1.7,1.2-2.3,1.9c-0.4,0.5-0.8,1.1-1,1.7c0-0.8-0.1-1.6-0.2-2.4
		C186.2,64.8,186.5,64.3,186.9,63.7z M179.1,99.1c0-0.1,0-0.1,0-0.2l0.2,0.2C179.2,99.1,179.1,99.1,179.1,99.1z M206.9,120.3
		c0,0-0.1,0-0.1,0c-0.4-0.1-0.8-0.3-1.2-0.5L206.9,120.3z M185.2,141c1,1.3,2.9,2.8,5.5,4.2c1.3,0.7,2.7,1.4,4.3,2.1
		c1.5,0.7,3.2,1.4,4.9,2.2c1.6,0.8,3.3,1.6,4.7,2.7c1,1.1,1.9,2.3,2.6,3.6c0.2,0.3,0.4,0.7,0.5,1c0,0,0,0.1,0,0.1h0
		c0.1,0.3,0.3,0.6,0.4,0.8c1.2,2.8,1.8,5.8,2.1,8.6c0.3,2.9,0.2,5.6,0,8.1c-0.2,2.5-0.7,4.8-1.2,6.9c-0.8,3.2-1.7,5.8-2.6,7.7
		c0-0.3,0-0.5-0.1-0.8c-0.1-1-0.6-2.1-1.2-3c-0.6-1-1.3-1.9-2-2.8c-0.7-0.9-1.5-1.8-2.1-2.7c-0.3-0.5-0.7-1.5-1-2.4c0,0,0-0.1,0-0.1
		c0-0.2,0-0.3-0.1-0.5c-0.1-0.4-0.1-0.9-0.2-1.3l0-0.1c-0.3-1.5-0.7-3-1.2-4.6c-0.8-2.2-1.9-4.3-3.4-6.3c-1.5-2-3.3-3.6-5.3-4.9
		c-0.5-0.3-1-0.6-1.6-0.9c-0.5-0.3-1.1-0.5-1.6-0.7c-1.1-0.4-2.1-0.7-3-0.9c-1-0.3-1.9-0.6-2.7-0.9c-0.4-0.2-0.8-0.4-1.2-0.6
		l-0.6-0.3c-0.2-0.1-0.4-0.2-0.5-0.4c-1.4-1-2.6-2.1-3.7-3.2c-2.1-2.2-3.5-4.2-4.1-5.8c-0.3-0.7-0.4-1.3-0.4-1.7
		c0.3,0.5,0.6,1,1,1.4c1,1.4,2.3,2.6,3.8,3.9c2.9,2.4,6.5,4.5,10.2,6.6c3.7,2.1,7.1,4.2,9.7,6.6c1.3,1.2,2.4,2.5,3.3,3.8
		c0.9,1.3,1.5,2.6,2,3.9c0.9,2.6,1.1,4.8,1.2,6.4c0.1,1.5,0,2.4,0,2.4c0,0,0.2-0.9,0.3-2.4c0.1-1.6,0.2-3.9-0.5-6.7
		c-0.3-1.4-0.9-2.9-1.7-4.4c-0.8-1.5-2-3-3.3-4.3c-2.7-2.8-6.2-5.1-9.9-7.2c-3.7-2.1-7.3-4-10.2-6.1c-1.4-1-2.7-2.2-3.8-3.3
		c-1.1-1.2-1.9-2.4-2.5-3.6c-1.1-2.2-1.6-4.2-1.8-5.7c0.9-0.9,1.9-1.8,2.9-2.7c0,0.1-0.1,0.2-0.1,0.4c-0.1,0.7-0.2,1.7,0,2.7
		c0.2,1,0.6,2.2,1.2,3.4c1.2,2.4,3.2,4.9,5.9,7.2c1.3,1.2,2.8,2.3,4.4,3.3c0.4,0.2,0.9,0.5,1.3,0.7c0.5,0.2,0.9,0.4,1.5,0.6l2.8,0.9
		c3.7,1.2,7.1,2.6,9.7,4.5c1.3,1,2.4,2,3.3,3.2c0.9,1.1,1.5,2.3,2.1,3.5c1,2.3,1.4,4.4,1.7,5.8c0.2,1.4,0.3,2.2,0.3,2.2
		s0.1-0.8,0.1-2.2c0-1.4-0.1-3.6-0.9-6.1c-0.4-1.3-1-2.6-1.8-4c-0.9-1.3-2-2.6-3.4-3.8c-1.4-1.1-3-2.1-4.7-3
		c-1.7-0.8-3.6-1.5-5.5-2.2c-0.9-0.3-1.9-0.6-2.8-0.9c-0.4-0.1-0.8-0.3-1.2-0.5c-0.4-0.2-0.8-0.4-1.2-0.6c-1.5-0.9-3-1.8-4.3-2.8
		c-2.6-2-4.7-4.2-6.1-6.3c-0.7-1-1.2-2-1.5-3c-0.3-0.9-0.4-1.8-0.4-2.5c0-0.2,0-0.5,0.1-0.7c0.1-0.1,0.2-0.2,0.3-0.3l1-0.8
		c0.3-0.3,0.7-0.6,1-1c0.1-0.2,0.3-0.3,0.4-0.5c0,0.4,0.1,1.1,0.2,2c0.3,1.6,0.7,3.9,1.9,6.6c0.6,1.3,1.5,2.7,2.6,4
		c1.2,1.3,2.6,2.5,4.3,3.6c3.3,2.1,7.2,3.6,11.1,5.4l1.5,0.6c0.5,0.2,0.9,0.4,1.3,0.7c0.9,0.5,1.7,1,2.4,1.6c1.5,1.2,2.8,2.6,3.9,4
		c2.1,2.9,3.4,6,4.2,8.7c0.8,2.7,1,5,1.1,6.6c0.1,1.6,0.1,2.5,0.1,2.5c0,0,0.2-0.9,0.3-2.5c0.1-1.6,0.2-3.9-0.3-6.8
		c-0.5-2.9-1.5-6.3-3.7-9.6c-1.1-1.6-2.4-3.2-4.1-4.6c-0.8-0.7-1.7-1.3-2.7-1.9c-0.5-0.3-1-0.6-1.5-0.8l-1.5-0.7
		c-4-1.8-7.9-3.1-11-4.9c-1.6-0.9-3-1.9-4.1-3c-1.2-1.1-2.1-2.3-2.8-3.5c-1.4-2.4-2.1-4.6-2.6-6.1c-0.3-0.9-0.4-1.6-0.5-2
		c0-0.1,0.1-0.1,0.1-0.2c0.4,1,1,1.9,1.6,2.7c1.5,1.8,3.4,2.9,5.1,3.8c1.8,0.8,3.4,1.4,5,1.9c1.6,0.5,3,0.8,4.3,1.2
		c2.6,0.6,4.6,1.2,5.9,1.7c1.3,0.5,2,1,2,0.9c0,0-0.6-0.7-1.8-1.5c-1.3-0.9-3.3-1.9-5.9-3l-4.1-1.7c-1.5-0.6-3-1.3-4.5-2.1
		c-1.5-0.8-3-1.8-4.1-3.1c-0.8-1-1.4-2.1-1.8-3.4c0.5-0.9,0.8-1.8,1.1-2.7c0.1,0.2,0.2,0.4,0.4,0.7c0.4,0.6,1,1.3,1.8,1.9
		c0.8,0.6,1.8,1.2,3,1.7c2.4,1,5.3,1.7,8.5,2.4c1.6,0.3,3.3,0.7,4.8,1.3c0.4,0.2,0.8,0.3,1.1,0.5c0.4,0.2,0.8,0.4,1.1,0.6
		c0.8,0.4,1.5,0.9,2.2,1.5c2.8,2.2,4.9,5,6.3,7.8c1.4,2.8,2.3,5.6,2.8,8c0.6,2.4,0.9,4.4,1,5.7c0,0.2,0.1,0.4,0.1,0.6
		c-0.5-1-1-2-1.6-3.1c-0.1-0.3-0.3-0.6-0.5-0.9c-0.1-0.2-0.2-0.3-0.4-0.5c-0.4-0.6-0.8-1.3-1.4-1.9c-0.4-0.5-0.9-1-1.6-1.4
		c-0.5-0.3-1.1-0.6-1.7-0.7c0,0-0.1,0-0.1-0.1c-0.1,0-0.1-0.1-0.2-0.1l0,0c-0.9-0.5-1.9-0.9-2.8-1.3c-1.8-0.8-3.6-1.4-5.2-1.9
		c-1.6-0.5-3-1-4.3-1.5c-2.6-1-4.5-2-5.6-3c-1.2-0.9-1.7-1.6-1.7-1.6C183.8,138.9,184.1,139.7,185.2,141z M220.1,162.5
		c0.5,1.8,1.2,3.4,2.3,4.5c0.5,0.6,1.1,1,1.8,1.2c0.6,0.2,1.2,0.3,1.7,0.2c0,0,0.1,0,0.1,0c-0.4,0.1-0.9,0.3-1.5,0.5
		c-0.8,0.2-1.8,0.4-3,0.4c-1.2,0-2.4-0.4-3.5-1.2c-1.2-0.8-2.2-2-3.2-3.5c-1-1.5-1.8-3.2-2.7-5c-0.4-0.7-0.7-1.5-1.1-2.2
		c0-0.3,0-0.7,0.1-1.1c0-1.4,0.1-3.4-0.2-5.9c-0.3-2.5-0.9-5.5-2.2-8.6c-0.7-1.6-1.5-3.2-2.6-4.7c-1.1-1.5-2.4-3-4.1-4.2
		c-0.8-0.6-1.6-1.1-2.5-1.6c-0.4-0.2-0.9-0.5-1.3-0.6c-0.4-0.2-0.9-0.4-1.4-0.5c-1.8-0.6-3.6-0.8-5.2-1.1c-3.3-0.5-6.1-0.8-8.5-1.5
		c-1.2-0.3-2.2-0.8-3-1.2c-0.8-0.5-1.4-1-1.9-1.5c-0.3-0.3-0.4-0.6-0.6-0.8c0-0.1,0.1-0.2,0.1-0.4c0.1-0.5,0.2-1,0.3-1.5
		c0.5,0.6,1.1,1.2,1.7,1.8c0.7,0.6,1.5,1.1,2.3,1.5c0.8,0.4,1.7,0.6,2.5,0.8c1.7,0.3,3.2,0.3,4.7,0.3c1.4,0,2.8,0.1,4,0.2
		c0.3,0,0.6,0.1,0.9,0.1c0.3,0.1,0.6,0.1,0.9,0.2c0.6,0.1,1.1,0.4,1.6,0.6c1,0.5,2,1.1,2.9,1.8c1.8,1.4,3.4,2.9,4.9,4.2
		c1.5,1.3,2.9,2.5,4.2,3.4c0.6,0.4,1.1,0.7,1.6,1c0.2,0.1,0.4,0.2,0.6,0.3c1.1,0.8,2.1,1.7,2.7,2.2c0.3,0.3,0.6,0.5,1,0.9
		c0.3,0.4,0.6,0.7,0.9,1.1c0.2,0.3,0.4,0.5,0.6,0.8c1.3,2.1,2,4.5,2.4,6.8c0.2,1.1,0.4,2.3,0.4,3.4c0,0.5,0.1,1.1,0.1,1.6
		c0,0.6,0,1.1,0.1,1.7C219.2,158.7,219.5,160.7,220.1,162.5z M220.5,129.7c2.4,0.4,4.5,0.1,6.2-0.4c1.6-0.5,2.8-1.1,3.5-1.6
		c0.3-0.2,0.5-0.4,0.7-0.5c0,0.3-0.1,0.7-0.2,1.1c-0.3,1.3-1,3.2-2.3,5.3c-0.6,1-1.4,2.1-2.2,3.2c-0.9,1.1-1.9,2.2-3.1,3.1
		c-1.2,0.9-2.6,1.6-3.9,1.5c-0.5,0-1-0.2-1.5-0.5c-0.6-0.7-1.2-1.4-1.9-2c0,0,0-0.1-0.1-0.1l0,0c-0.2-0.2-0.5-0.4-0.8-0.6
		c-1.3-0.9-3.8-1.8-5.4-2c-0.1-0.1-0.3-0.2-0.4-0.4c-1.2-1-2.4-2.4-3.7-3.9c-1.4-1.5-2.9-3.2-4.8-4.8c-1-0.8-2.1-1.5-3.4-2.1
		c-0.6-0.3-1.3-0.5-2.1-0.7c-0.7-0.2-1.4-0.3-2.1-0.4c-1.4-0.2-2.9-0.2-4.3-0.3c-1.4,0-2.8,0-4.1-0.3c-1.3-0.2-2.4-0.8-3.5-1.6
		c-1-0.9-2-2-2.8-3.2l-0.2,0.2c-0.1-1.2-0.3-2.4-0.6-3.3c-0.1-0.4-0.3-0.8-0.4-1.2c0.3-0.2,0.8-0.4,1.3-0.6c0.7-0.3,1.7-0.4,2.8-0.4
		c1.1,0,2.3,0.2,3.6,0.6c5.3,1.6,11.5,6.5,18.1,12c3.2,2.9,6.1,5.8,9.4,8c1.6,1.1,3.3,2,5,2.4c1.7,0.5,3.5,0.5,4.9,0.1
		c1.5-0.4,2.7-1,3.6-1.7c0.9-0.7,1.6-1.4,2.2-2c1.1-1.2,1.6-1.9,1.6-1.9c0,0-0.6,0.7-1.8,1.6c-0.6,0.5-1.4,1.1-2.4,1.6
		c-1,0.5-2.1,1-3.4,1.2c-1.3,0.2-2.8,0.1-4.2-0.5c-1.5-0.5-2.9-1.4-4.4-2.5c-2.9-2.2-5.7-5.2-9-8.1c-0.8-0.7-1.7-1.4-2.5-2.1
		c-0.8-0.6-1.7-1.3-2.5-1.9c-1.7-1.2-3.3-2.3-4.9-3.3c-3.3-2-6.5-3.5-9.4-4c-1.4-0.3-2.8-0.4-3.9-0.2c-1.2,0.1-2.1,0.5-2.9,0.8
		c-0.5,0.3-1,0.6-1.2,0.8c-0.6-1.5-1.3-2.7-1.9-3.5c-0.1-0.1-0.1-0.2-0.2-0.3c0.2-0.1,0.9-0.3,1.8-0.5c1.2-0.3,3.1-0.5,5.3-0.2
		c2.2,0.2,4.8,1,7.3,2.4c1.3,0.7,2.6,1.5,3.9,2.4c0.6,0.5,1.3,1,1.9,1.5c0.3,0.3,0.6,0.5,1,0.8c0.2,0.1,0.3,0.3,0.6,0.4l0.5,0.4
		c2.9,2.1,5.8,3.9,8.9,4.8c1.6,1.1,3.2,1.9,4.7,2.4c1.1,0.4,2.2,0.6,3.2,0.7l0,0.1c0.1,0.1,0.2,0.1,0.4,0.2c0.6,1.1,1.5,2.1,2.5,2.8
		C218,129,219.3,129.4,220.5,129.7z"/>
	<radialGradient id="SVGID_25_" cx="125.2491" cy="129.774" r="131.4425" gradientUnits="userSpaceOnUse">
		<stop  offset="0" style="stop-color:#FFFFFF"/>
		<stop  offset="0.6649" style="stop-color:#FFFFFF;stop-opacity:0.6"/>
		<stop  offset="0.8595" style="stop-color:#FFFFFF"/>
	</radialGradient>
	<path class="st24" d="M233.6,113.3C234.2,113.1,233.6,113.3,233.6,113.3L233.6,113.3z"/>
	<radialGradient id="SVGID_26_" cx="125.2491" cy="129.774" r="131.4425" gradientUnits="userSpaceOnUse">
		<stop  offset="0" style="stop-color:#FFFFFF"/>
		<stop  offset="0.6649" style="stop-color:#FFFFFF;stop-opacity:0.6"/>
		<stop  offset="0.8595" style="stop-color:#FFFFFF"/>
	</radialGradient>
	<path class="st25" d="M143,29.9c0.3,0.7,0.5,1.4,0.8,2.2c0.4,1.4,0.8,2.9,0.9,4.5c0.1,1.4,0.1,2.9-0.2,4.4
		c-0.3,1.4-0.8,2.8-1.6,4.1c-0.3,0.1-0.7,0.3-1,0.4c-0.6,0.3-1.2,0.5-1.8,0.8c-0.7,0.4-1.4,0.8-2.1,1.2c-0.3,0.2-0.5,0.3-0.8,0.5
		c-1.4,1-2.6,2-3.6,3.2c-1,1.2-1.8,2.4-2.2,3.6c-0.5,1.2-0.7,2.4-0.7,3.4c0,1,0.2,1.9,0.4,2.6c0.4,1.3,0.8,2,0.8,2
		c0,0-0.3-0.7-0.5-2.1c-0.1-0.7-0.1-1.5,0-2.4c0.1-0.9,0.4-2,1-3c1.1-2.1,3.2-4,5.9-5.6c1.3-0.8,2.8-1.5,4.4-2.1
		c0.8-0.3,1.6-0.6,2.4-0.8c0.8-0.2,1.7-0.4,2.6-0.6c3.6-0.6,7.2-0.9,10.5-1.8c1.6-0.4,3.1-0.9,4.5-1.6c1.4-0.7,2.5-1.6,3.4-2.5
		c0.9-1,1.5-2,1.9-2.9c0.4-0.9,0.6-1.8,0.7-2.5c0.2-1.4,0.2-2.2,0.2-2.1c0,0-0.1,0.8-0.5,2.1c-0.4,1.3-1.3,3.1-3.1,4.6
		c-0.9,0.7-2,1.4-3.3,1.9c-1.3,0.5-2.7,0.9-4.3,1.2c-1.5,0.3-3.2,0.5-5,0.7c-1.7,0.2-3.6,0.4-5.5,0.7c-0.4,0.1-0.7,0.1-1.1,0.2
		c0.4-0.9,0.8-1.9,1-2.8c0.4-1.9,0.3-3.8,0.1-5.4c-0.3-1.8-0.8-3.4-1.5-4.8c0.9-0.4,1.7-0.7,2.5-1.1c1.4-0.6,2.6-1.2,3.6-2
		c1-0.7,1.7-1.6,2-2.4c0.1-0.2,0.1-0.3,0.2-0.5c0.3,0.9,0.8,2.4,1.2,4.2c0.2,0.8,0.4,1.7,0.5,2.7c0.1,1,0.2,2,0.1,3
		c-0.1,1-0.3,2-0.8,2.8c-0.5,0.8-0.8,3.6-1.9,3.9c0.8-0.1,1.7-0.4,2.4-0.8c0.2-0.1,0.3-0.2,0.5-0.3c1.4,0,2.7-0.2,3.9-0.7
		c1.5-0.6,2.9-1.4,3.9-2.4c2.2-2,3.3-4.4,3.6-6.4c0.3-2.1-0.1-3.7-0.4-4.7c-0.2-0.6-0.5-1-0.6-1.2c0.2,0.2,0.4,0.4,0.6,0.6
		c0.8,0.8,1.7,2.2,2.6,3.9c0.8,1.8,1.6,4.1,1.8,6.5c0.1,1.2-0.1,2.5-0.6,3.6c-0.5,1.1-1.4,2-2.6,2.6l-5.5,2.9
		c0.5-0.2,7.4-1.2,7.9-1.4c0.6,0.2,1.2,0.4,1.8,0.5c1.1,0.2,2.2,0.2,3.2,0c2.1-0.3,3.8-1.2,5.3-2.2c2.9-2.1,4.7-4.8,5.6-7.2
		c0.4-1.2,0.6-2.4,0.6-3.4c0-1-0.3-1.9-0.6-2.5c-0.3-0.6-0.6-1-0.9-1.3c-0.2-0.2-0.4-0.3-0.4-0.3s0.1,0.2,0.3,0.5
		c0.1,0.3,0.3,0.8,0.4,1.4c0.1,0.6,0.1,1.4-0.1,2.3c-0.2,0.9-0.6,1.8-1.1,2.8c-1.1,2-3.1,4-5.6,5.6c-1.3,0.8-2.7,1.4-4.2,1.7
		c-0.7,0.1-1.5,0.2-2.2,0.1c0.2-0.4,0.5-0.7,0.6-1.1c0.8-1.7,0.8-3.5,0.7-5c-0.2-1.5-0.6-2.9-1.2-4.1c-0.5-1.2-1.2-2.2-1.8-3.1
		c-1.3-1.7-2.7-2.8-3.7-3.3c-1-0.5-1.6-0.6-1.6-0.6c0,0,0.2,0.1,0.6,0.4c0,0.2,0.1,0.8,0.1,1.5c0,1.1-0.1,2.6-0.8,4.2
		c-0.7,1.6-1.9,3.4-3.8,4.8c-0.9,0.7-2,1.4-3.1,1.8c-0.3,0.1-0.5,0.2-0.8,0.3c0.1-0.3,0.2-0.6,0.3-0.9c0.2-0.7,0.2-1.4,0.2-2.1
		c0-1.3-0.3-2.5-0.6-3.5c-0.3-1-0.7-2-1.1-2.7c-0.8-1.6-1.6-2.7-2.2-3.4c-0.2-0.2-0.3-0.4-0.4-0.5c-0.1-0.1-0.2-0.2-0.3-0.3
		c0,0.1-0.1,0.1-0.1,0.2c-0.1,0.3-0.3,0.6-0.5,0.9c-0.5,0.6-1.2,1.2-2.3,1.7c-1,0.5-2.3,0.9-3.7,1.3c-0.8,0.2-1.6,0.4-2.5,0.7
		c-0.3-0.4-0.5-0.9-0.7-1.2c-1.3-2-2.5-3.3-3.5-4.2c-0.9-0.8-1.5-1.2-1.5-1.2c0,0,1.8,2.3,3.5,6.5C142.8,29.3,142.9,29.6,143,29.9z"
		/>
	<radialGradient id="SVGID_27_" cx="125.2491" cy="129.774" r="131.4425" gradientUnits="userSpaceOnUse">
		<stop  offset="0" style="stop-color:#FFFFFF"/>
		<stop  offset="0.6649" style="stop-color:#FFFFFF;stop-opacity:0.6"/>
		<stop  offset="0.8595" style="stop-color:#FFFFFF"/>
	</radialGradient>
	<path class="st26" d="M161.8,176.6c-1.2,0.2-3.8,2-3.8,2c4.9-1.8,8.2,1.3,10,2.6c1.8,1.2,3.2,2.6,4.1,3.9c1,1.3,1.6,2.5,2,3.3
		c0.4,0.8,0.6,1.3,0.6,1.3c0,0,0.1-0.6,0-1.5c-0.1-1-0.3-2.5-1.1-4.2c-0.8-1.7-2.2-3.6-4.2-5.1C167.4,177.3,164.7,176.2,161.8,176.6
		z"/>
	<radialGradient id="SVGID_28_" cx="125.2491" cy="129.774" r="131.4425" gradientUnits="userSpaceOnUse">
		<stop  offset="0" style="stop-color:#FFFFFF"/>
		<stop  offset="0.6649" style="stop-color:#FFFFFF;stop-opacity:0.6"/>
		<stop  offset="0.8595" style="stop-color:#FFFFFF"/>
	</radialGradient>
	<path class="st27" d="M168.3,201.3c0,0,0.5-0.6,1-1.8c0.5-1.2,1.1-3.2,1-5.6c-0.1-2.4-0.8-5.4-2.8-8.2c-1-1.4-2.3-2.7-4-3.6
		c-0.9-0.5-1.8-0.8-2.8-1c-1-0.2-5,0-6.6,2.1l3.8,0.2c1.7-0.1,3.2,0.4,4.5,1.2c1.3,0.8,2.3,1.9,3.2,3c1.7,2.3,2.6,4.8,3,6.9
		c0.4,2.1,0.3,3.9,0.2,5.1C168.6,200.6,168.3,201.3,168.3,201.3z"/>
	<radialGradient id="SVGID_29_" cx="125.2491" cy="129.774" r="131.4425" gradientUnits="userSpaceOnUse">
		<stop  offset="0" style="stop-color:#FFFFFF"/>
		<stop  offset="0.6649" style="stop-color:#FFFFFF;stop-opacity:0.6"/>
		<stop  offset="0.8595" style="stop-color:#FFFFFF"/>
	</radialGradient>
	<path class="st28" d="M150.7,186.3l4-0.2c2.1-0.5,3.9,0.3,5.4,1.3c1.5,1.1,2.7,2.4,3.6,3.5c1.8,2.3,2.5,4,2.6,4c0,0,0-0.5-0.1-1.4
		c-0.1-0.9-0.4-2.2-1-3.7c-0.7-1.5-1.8-3.3-3.6-4.7c-0.9-0.7-2.1-1.3-3.4-1.6C156.8,183.2,152.3,183.7,150.7,186.3z"/>
	<radialGradient id="SVGID_30_" cx="125.2491" cy="129.774" r="131.4425" gradientUnits="userSpaceOnUse">
		<stop  offset="0" style="stop-color:#FFFFFF"/>
		<stop  offset="0.6649" style="stop-color:#FFFFFF;stop-opacity:0.6"/>
		<stop  offset="0.8595" style="stop-color:#FFFFFF"/>
	</radialGradient>
	<path class="st29" d="M106.3,98.3c-2-1.2-4.2-1.9-6.2-2.3c-2-0.4-3.8-0.5-5.3-0.4c-3,0.2-4.8,0.9-4.8,0.8c0,0,1.9-0.1,4.7,0.3
		c2.9,0.4,6.7,1.5,10.3,3.6c1.8,1.1,3.4,2.3,4.7,3.7c1.3,1.3,2.2,2.7,2.8,4c0.7,1.2,1,2.4,1.3,3.2c0.2,0.8,0.3,1.2,0.4,1.2
		c0,0,0-0.5,0-1.3c0-0.8-0.1-2.1-0.6-3.5c-0.4-1.5-1.2-3.2-2.4-4.8C110.1,101.1,108.4,99.5,106.3,98.3z"/>
	<radialGradient id="SVGID_31_" cx="125.2491" cy="129.774" r="131.4425" gradientUnits="userSpaceOnUse">
		<stop  offset="0" style="stop-color:#FFFFFF"/>
		<stop  offset="0.6649" style="stop-color:#FFFFFF;stop-opacity:0.6"/>
		<stop  offset="0.8595" style="stop-color:#FFFFFF"/>
	</radialGradient>
	<path class="st30" d="M124.8,172.1c1,0.3,1.8,0.3,2.3,0.3c0.5-0.1,0.8-0.2,0.8-0.2c0,0-1.2-0.3-2.3-1.4c-0.6-0.6-1.1-1.3-1.6-2.2
		c-0.5-0.9-1.1-2-1.7-3.2c-0.2-0.3-0.4-0.7-0.6-1c-0.1-0.2-0.2-0.4-0.3-0.6c-0.3-0.5-0.6-1-0.9-1.5c-0.7-1.1-1.5-2-2.3-2.7
		c-0.1-0.1-0.3-0.2-0.4-0.4c0.2,0.1,0.4,0.1,0.6,0.3c0.8,0.7,1.5,1.6,2.3,2.7c0.2,0.3,0.4,0.5,0.6,0.8c0.2,0.3,0.3,0.5,0.4,0.7
		c0.1,0.2,0.2,0.4,0.3,0.6c0.1-0.1,0.1-0.1,0.1-0.2c0.1-0.3,0.3-0.7,0.3-1.3c0-0.6-0.1-1.3-0.5-2c-0.4-0.7-0.9-1.3-1.6-1.9
		c-1.3-1.1-2.8-1.4-3.9-1.5c-0.5,0-1,0-1.3,0.1c-0.2,0-0.3,0.1-0.3,0.2c-0.1,0.1,0,0.2,0,0.1c0,0,0,0,0.1,0c0.1,0,0.2,0,0.3,0.1
		c0.1,0,0.3,0.2,0.6,0.4c-0.1,0-0.2,0-0.2,0c0,0,0.1,0.1,0.2,0.2c0.1,0.1,0.2,0.2,0.3,0.4c0.3,0.4,0.6,1,1,1.8
		c0.7,1.6,1.3,3.8,2.6,6.3c0.7,1.2,1.4,2.4,2.3,3.3C122.7,171,123.8,171.7,124.8,172.1z"/>
	<radialGradient id="SVGID_32_" cx="125.2491" cy="129.774" r="131.4425" gradientUnits="userSpaceOnUse">
		<stop  offset="0" style="stop-color:#FFFFFF"/>
		<stop  offset="0.6649" style="stop-color:#FFFFFF;stop-opacity:0.6"/>
		<stop  offset="0.8595" style="stop-color:#FFFFFF"/>
	</radialGradient>
	<path class="st31" d="M116.5,177.2c-1.3,0.4-2.8,0.7-4.5,0.7c-1.7,0-3.6-0.2-5.6-0.7c-0.2-0.1-0.5-0.1-0.8-0.2
		c-0.2-0.1-0.5-0.1-0.7-0.2c-0.5-0.1-0.9-0.3-1.3-0.4c-0.8-0.3-1.6-0.7-2.2-1.2c-1.3-1-2.2-2.3-3-3.4c-0.8-1.1-1.4-2.1-1.8-2.8
		c-0.4-0.7-0.7-1-0.7-1l0.4,1.2c0.2,0.7,0.6,1.8,1.1,3.1c0.3,0.7,0.6,1.4,1,2.1c0.4,0.7,1,1.5,1.7,2.2c0.7,0.7,1.6,1.3,2.6,1.8
		c0.5,0.2,1,0.4,1.5,0.6c0.3,0.1,0.5,0.2,0.8,0.2c0.3,0.1,0.5,0.1,0.8,0.2c2.2,0.5,4.3,0.6,6.3,0.4c1.9-0.2,3.6-0.9,4.9-1.6
		c1.3-0.8,2.1-1.6,2.6-2.2c0.5-0.6,0.7-1,0.7-1c0,0-0.3,0.3-1,0.7C118.8,176.2,117.8,176.7,116.5,177.2z"/>
	<radialGradient id="SVGID_33_" cx="125.2491" cy="129.774" r="131.4425" gradientUnits="userSpaceOnUse">
		<stop  offset="0" style="stop-color:#FFFFFF"/>
		<stop  offset="0.6649" style="stop-color:#FFFFFF;stop-opacity:0.6"/>
		<stop  offset="0.8595" style="stop-color:#FFFFFF"/>
	</radialGradient>
	<path class="st32" d="M92.4,151.7c0,0,0,0.4,0.2,1c0.2,0.6,0.5,1.5,1.2,2.5c0.7,1,1.9,2,3.4,2.6c1.5,0.7,3.2,1,4.8,1.4
		c1.7,0.3,3.2,0.6,4.6,1.1c1.3,0.4,2.5,0.9,3.5,1.5c0.9,0.5,1.7,1.1,2.2,1.5c0.5,0.4,0.8,0.6,0.8,0.6s-0.2-0.3-0.5-0.9
		c-0.3-0.5-0.9-1.3-1.8-2.1c-0.8-0.8-2-1.7-3.5-2.4c-1.4-0.7-3.1-1.2-4.8-1.5c-1.7-0.3-3.3-0.6-4.6-0.9c-1.3-0.4-2.4-0.9-3.2-1.6
		c-0.8-0.7-1.4-1.4-1.7-1.9C92.6,152,92.4,151.7,92.4,151.7z"/>
	<radialGradient id="SVGID_34_" cx="125.2491" cy="129.774" r="131.4425" gradientUnits="userSpaceOnUse">
		<stop  offset="0" style="stop-color:#FFFFFF"/>
		<stop  offset="0.6649" style="stop-color:#FFFFFF;stop-opacity:0.6"/>
		<stop  offset="0.8595" style="stop-color:#FFFFFF"/>
	</radialGradient>
	<path class="st33" d="M87.3,89.8c0.7-1.9,1-3.7,1.3-5c0.2-1.3,0.3-2.2,0.3-2.2c0,0-0.6,0.6-1.4,1.7c0.1-0.2,0.1-0.4,0.2-0.7
		c0.2-1,0-2.5-0.7-3.8c-0.7-1.3-1.9-2.2-2.9-2.6c-0.9-0.4-1.6-0.3-1.6-0.4c0,0,0.4,0.5,0.9,1.3c0.5,0.8,1,1.8,1.6,2.8
		c0.6,1.1,1.2,2,1.6,2.8c0.2,0.5,0.4,0.9,0.5,1.1c-0.3-0.3-0.7-0.5-1-0.6c-0.5-0.2-0.9-0.1-0.9-0.1l0.1,0.9c0,0.5,0,1,0.3,1.5
		c0.1,0.2,0.3,0.4,0.4,0.6c-0.3,0.6-0.5,1.2-0.7,1.8c-1.4,3.9-1.1,7.4-1.2,7.3C84,96.4,86,93.6,87.3,89.8z"/>
	<radialGradient id="SVGID_35_" cx="125.2491" cy="129.774" r="131.4425" gradientUnits="userSpaceOnUse">
		<stop  offset="0" style="stop-color:#FFFFFF"/>
		<stop  offset="0.6649" style="stop-color:#FFFFFF;stop-opacity:0.6"/>
		<stop  offset="0.8595" style="stop-color:#FFFFFF"/>
	</radialGradient>
	<path class="st34" d="M92.7,67.8c-0.7-0.8-1.6-1.6-2.6-2.4c-1-0.8-2.2-1.5-3.6-2.1c-0.7-0.3-1.5-0.5-2.3-0.6
		c-0.8-0.1-1.7-0.1-2.6,0.2c-0.2,0.1-0.4,0.2-0.7,0.3c-0.2,0.1-0.5,0.2-0.6,0.4c-0.4,0.2-0.7,0.5-1,0.8c-0.7,0.6-1.3,1.3-1.7,2.1
		c-0.9,1.6-1.1,3.4-1.1,5.1c0.1,1.6,0.4,3.1,0.9,4.5c0.9,2.7,2.2,5,3.4,6.7c2.4,3.5,4.4,5.2,4.4,5.2c0,0-1.6-2.1-3.4-5.8
		c-0.9-1.9-1.9-4.1-2.5-6.7c-0.3-1.3-0.5-2.6-0.5-4c0-1.4,0.2-2.8,0.9-3.9c0.3-0.6,0.7-1.1,1.2-1.6c0.2-0.2,0.5-0.5,0.8-0.6
		c0.1-0.1,0.2-0.1,0.3-0.2c0.1-0.1,0.2-0.1,0.4-0.2c1.1-0.4,2.4-0.2,3.6,0.1c1.2,0.4,2.3,1,3.3,1.6c1,0.6,1.9,1.3,2.7,1.9
		c1.6,1.3,2.7,2.5,3.4,3.5c0.7,0.9,0.9,1.5,1,1.5c0,0-0.1-0.6-0.6-1.7C95,70.9,94.1,69.4,92.7,67.8z"/>
	<radialGradient id="SVGID_36_" cx="125.2491" cy="129.774" r="131.4425" gradientUnits="userSpaceOnUse">
		<stop  offset="0" style="stop-color:#FFFFFF"/>
		<stop  offset="0.6649" style="stop-color:#FFFFFF;stop-opacity:0.6"/>
		<stop  offset="0.8595" style="stop-color:#FFFFFF"/>
	</radialGradient>
	<path class="st35" d="M90.4,78.8c0,0,0.2-0.6,0.1-1.7c0-0.6-0.2-1.3-0.6-2c0.4,0.5,0.8,0.9,1.2,1.3c0.8,0.9,1.3,1.5,1.3,1.5
		c0,0,0-0.8-0.3-2C92,75,91.6,74,91,73.1c0,0,0.1,0.1,0.1,0.1c0.9,1,1.8,1.9,2.4,2.7c0.6,0.8,1,1.3,1,1.3c0,0,0.2-0.7,0.1-1.8
		c-0.1-1.1-0.7-2.6-1.7-3.8c-1.1-1.2-2.4-1.9-3.4-2.3c-1-0.4-1.7-0.4-1.7-0.4s0.4,0.6,1,1.4c0.3,0.4,0.6,0.8,0.9,1.2
		c-1.4-1.3-3.1-1.9-4.3-2.1c-1.2-0.2-2-0.1-2-0.1c0,0,0.6,0.5,1.6,1.2c0.6,0.5,1.4,1.1,2.2,1.9c-0.2-0.1-0.3-0.1-0.5-0.2
		c-0.7-0.3-1.3-0.4-1.9-0.4c-1.1,0-1.7,0.4-1.7,0.4c0,0,0.6,0.3,1.4,0.8c0.8,0.5,1.7,1.3,2.6,2.2c0.9,0.9,1.7,1.8,2.3,2.5
		C90,78.2,90.4,78.8,90.4,78.8z"/>
	<radialGradient id="SVGID_37_" cx="125.2491" cy="129.774" r="131.4425" gradientUnits="userSpaceOnUse">
		<stop  offset="0" style="stop-color:#FFFFFF"/>
		<stop  offset="0.6649" style="stop-color:#FFFFFF;stop-opacity:0.6"/>
		<stop  offset="0.8595" style="stop-color:#FFFFFF"/>
	</radialGradient>
	<path class="st36" d="M84,74.3C82.9,74,82.2,74,82.2,74s0.5,0.5,1.1,1.3c0.7,0.8,1.5,1.8,2.4,2.9c0.9,1.1,1.8,2,2.4,2.8
		c0.6,0.8,1,1.4,1,1.4c0,0,0.2-0.7,0.1-1.8c-0.1-1.1-0.7-2.6-1.8-3.9C86.4,75.4,85,74.6,84,74.3z"/>
	<radialGradient id="SVGID_38_" cx="125.2491" cy="129.774" r="131.4425" gradientUnits="userSpaceOnUse">
		<stop  offset="0" style="stop-color:#FFFFFF"/>
		<stop  offset="0.6649" style="stop-color:#FFFFFF;stop-opacity:0.6"/>
		<stop  offset="0.8595" style="stop-color:#FFFFFF"/>
	</radialGradient>
	<path class="st37" d="M123,62.8c0,0,0.4-0.6,0.8-2c0.2-0.7,0.4-1.5,0.4-2.6c0-1-0.2-2.2-0.7-3.4c-0.5-1.2-1.2-2.4-2.2-3.6
		c-1-1.1-2.2-2.2-3.6-3.2c-1.4-1-3-1.8-4.6-2.5c-0.9-0.4-1.7-0.7-2.6-1c-0.9-0.3-1.9-0.5-2.8-0.7c-1.9-0.3-3.7-0.5-5.5-0.7
		c-1.8-0.2-3.4-0.4-5-0.7c-1.5-0.3-3-0.7-4.3-1.2c-1.3-0.5-2.4-1.2-3.3-1.9c-1.8-1.5-2.6-3.4-3.1-4.6c-0.4-1.3-0.5-2.1-0.5-2.1
		c0,0,0,0.8,0.2,2.1c0.1,0.7,0.3,1.5,0.7,2.5c0.4,0.9,1,2,1.9,2.9c0.9,1,2,1.8,3.4,2.5c1.3,0.7,2.9,1.2,4.5,1.6
		c3.2,0.9,6.9,1.2,10.5,1.8c0.9,0.2,1.7,0.3,2.6,0.6c0.8,0.2,1.7,0.5,2.5,0.8c1.6,0.6,3.1,1.3,4.4,2.1c2.7,1.6,4.8,3.6,5.9,5.6
		c0.6,1,0.9,2,1,3c0.1,0.9,0.1,1.8,0,2.4C123.3,62.1,123,62.8,123,62.8z"/>
	<radialGradient id="SVGID_39_" cx="125.2491" cy="129.774" r="131.4425" gradientUnits="userSpaceOnUse">
		<stop  offset="0" style="stop-color:#FFFFFF"/>
		<stop  offset="0.6649" style="stop-color:#FFFFFF;stop-opacity:0.6"/>
		<stop  offset="0.8595" style="stop-color:#FFFFFF"/>
	</radialGradient>
	<path class="st38" d="M65.5,41.3c-1.5-1.9-2.3-3.7-2.8-4.9c-0.5-1.3-0.7-2-0.7-2s0,0.8,0.3,2.1c0.3,1.4,0.8,3.3,2.2,5.5
		c0.7,1.1,1.6,2.2,2.7,3.2c1.1,1,2.5,1.9,4,2.7c3.1,1.5,6.8,2.2,10.6,2.4c3.7,0.2,7.2,0.4,10.4,0.9c3.2,0.5,5.9,1.2,8.1,2.2
		c1.1,0.5,2,1.1,2.7,1.7c0.7,0.6,1.2,1.3,1.5,1.9c0.3,0.6,0.5,1.1,0.5,1.5c0.1,0.3,0.1,0.5,0.1,0.5c0,0,0-0.2,0-0.6
		c0-0.4-0.1-0.9-0.3-1.6c-0.2-0.7-0.6-1.5-1.3-2.3c-0.7-0.8-1.6-1.5-2.6-2.2c-1.9-1.2-4.4-2.1-7.3-2.8c2.3,0.2,4.4,0.6,6.3,1
		c0.9,0.2,1.7,0.4,2.5,0.7l0.6,0.2c0.2,0.1,0.3,0.1,0.5,0.2c0.3,0.2,0.7,0.3,1,0.5c1.3,0.8,2.6,1.6,3.6,2.4c2.1,1.7,3.6,3.3,4.2,4.6
		c0.3,0.7,0.4,1.3,0.4,1.6c0,0.4-0.1,0.6-0.1,0.6c0,0,0.1-0.2,0.2-0.6c0.1-0.4,0.1-1-0.1-1.8c-0.5-1.5-1.8-3.4-3.8-5.4
		c-1-1-2.2-2-3.5-2.9c-0.3-0.2-0.7-0.5-1.1-0.7c-0.2-0.1-0.4-0.2-0.6-0.3l-0.6-0.3c-0.8-0.3-1.7-0.7-2.6-0.9
		c-3.6-1.1-7.6-1.6-11.8-1.9c-4.1-0.3-8-0.6-11.5-1.4c-1.7-0.4-3.3-0.9-4.7-1.6c-1.4-0.7-2.6-1.5-3.5-2.4c-0.9-0.9-1.6-1.9-2.1-2.8
		c-0.5-0.9-0.7-1.8-0.9-2.6c-0.3-1.5-0.4-2.3-0.4-2.3c0,0-0.1,0.8,0,2.4c0.1,0.8,0.2,1.7,0.6,2.8c0.4,1.1,1,2.2,1.9,3.4
		c0.9,1.1,2.1,2.2,3.6,3c1.4,0.9,3.1,1.5,4.9,2.1c0.2,0.1,0.4,0.1,0.5,0.2c-1.9-0.3-3.7-0.8-5.2-1.4C69.3,45,67,43.2,65.5,41.3z"/>
	<radialGradient id="SVGID_40_" cx="125.2491" cy="129.774" r="131.4425" gradientUnits="userSpaceOnUse">
		<stop  offset="0" style="stop-color:#FFFFFF"/>
		<stop  offset="0.6649" style="stop-color:#FFFFFF;stop-opacity:0.6"/>
		<stop  offset="0.8595" style="stop-color:#FFFFFF"/>
	</radialGradient>
	<path class="st39" d="M73.7,102.9c-2.4-0.1-5.3,0.3-8.3,1.4c-1.5,0.6-3,1.3-4.5,2.1c-0.8,0.4-1.5,0.9-2.2,1.4
		c-0.4,0.3-0.7,0.5-1.1,0.8l-1.1,0.8c-2.8,2.2-5.5,4.1-8.1,5.4c-1.3,0.7-2.6,1.2-3.9,1.4c-1.3,0.3-2.4,0.2-3.4-0.1
		c-1-0.3-1.8-0.9-2.5-1.5c-0.6-0.6-1.1-1.3-1.4-1.8c-0.7-1.1-0.9-1.8-0.9-1.8c0,0,0.1,0.7,0.6,2c0.3,0.6,0.6,1.4,1.2,2.1
		c0.6,0.8,1.4,1.6,2.6,2.1c1.2,0.5,2.6,0.7,4.1,0.6c1.5-0.2,3-0.6,4.5-1.2c3-1.2,5.9-3.2,8.7-5.4l1-0.8c0.3-0.3,0.7-0.5,1-0.8
		c0.7-0.5,1.4-0.9,2.1-1.4c1.4-0.9,2.8-1.6,4.1-2.2c2.7-1.2,5.4-1.9,7.6-2.1c2.3-0.2,4.1,0.1,5.4,0.4c1.3,0.3,1.9,0.6,1.9,0.6
		c0,0-0.6-0.4-1.8-0.9C78,103.6,76.1,103,73.7,102.9z"/>
	<radialGradient id="SVGID_41_" cx="125.2491" cy="129.774" r="131.4425" gradientUnits="userSpaceOnUse">
		<stop  offset="0" style="stop-color:#FFFFFF"/>
		<stop  offset="0.6649" style="stop-color:#FFFFFF;stop-opacity:0.6"/>
		<stop  offset="0.8595" style="stop-color:#FFFFFF"/>
	</radialGradient>
	<path class="st40" d="M75.6,173c0.9-0.8,1.8-1.6,2.8-2.4c1-0.8,2-1.7,2.8-2.7c1.6-1.9,2.9-3.9,3.9-5.9c2.1-4,3.2-7.8,3.9-11.1
		c0.7-3.3,0.8-6,0.6-7.9c-0.1-1.9-0.4-2.9-0.4-2.9c0,0,0.1,1,0,2.9c-0.1,1.8-0.5,4.5-1.4,7.6c-0.9,3.1-2.4,6.8-4.5,10.5
		c-1.1,1.9-2.3,3.7-3.9,5.4c-0.8,0.8-1.6,1.6-2.5,2.3c-1,0.8-2,1.6-2.9,2.5c-1.9,1.7-3.6,3.7-5,5.7c-1.4,2-2.5,4.2-3.1,6.4
		c-0.7,2.2-0.9,4.4-0.7,6.5c0.1,2,0.6,3.9,1.3,5.5c1.3,3.2,3,5.3,4.2,6.7c1.2,1.4,2,2.1,2,2.1s-0.7-0.8-1.7-2.3
		c-1-1.5-2.4-3.8-3.4-6.9c-0.5-1.5-0.8-3.3-0.8-5.1c0-1.9,0.3-3.8,1-5.8C69.1,180.1,72,176.3,75.6,173z"/>
	<radialGradient id="SVGID_42_" cx="125.2491" cy="129.774" r="131.4425" gradientUnits="userSpaceOnUse">
		<stop  offset="0" style="stop-color:#FFFFFF"/>
		<stop  offset="0.6649" style="stop-color:#FFFFFF;stop-opacity:0.6"/>
		<stop  offset="0.8595" style="stop-color:#FFFFFF"/>
	</radialGradient>
	<path class="st41" d="M112.8,188.9c1-1.2,1.9-2.1,2.5-2.7l1-1c0,0-0.4,0.2-1.2,0.7c-0.8,0.5-1.9,1.2-3.1,2.2c-1.3,1-2.7,2.4-4,4.1
		c-1.3,1.7-2.5,3.9-3.1,6.4c-0.7,2.5-0.8,4.9-0.5,7.1c0.2,2.2,0.8,4,1.4,5.5c1.2,3,2.4,4.6,2.4,4.6c0,0-0.7-1.9-1.3-4.9
		c-0.3-1.5-0.5-3.3-0.6-5.3c0-2,0.2-4.2,0.8-6.3C108.3,194.8,110.8,191.2,112.8,188.9z"/>
	<radialGradient id="SVGID_43_" cx="125.2491" cy="129.774" r="131.4425" gradientUnits="userSpaceOnUse">
		<stop  offset="0" style="stop-color:#FFFFFF"/>
		<stop  offset="0.6649" style="stop-color:#FFFFFF;stop-opacity:0.6"/>
		<stop  offset="0.8595" style="stop-color:#FFFFFF"/>
	</radialGradient>
	<path class="st42" d="M123.6,189.8c0,0-0.4,0-1.2,0c-0.8,0.1-1.9,0.4-3.1,1.2c-1.2,0.8-2.3,2.3-3,4c-0.7,1.7-1.1,3.8-1.2,5.9
		c-0.1,2.1,0.1,4.1,0.4,5.8c0.3,1.8,0.7,3.3,1.1,4.6c0.8,2.6,1.5,4.1,1.5,4.1s-0.2-1.6-0.3-4.3c-0.2-2.6-0.4-6.2-0.2-10.1
		c0.1-1.9,0.3-3.8,0.7-5.3c0.4-1.6,1.1-2.9,1.9-3.8c0.8-0.9,1.7-1.4,2.4-1.7C123.2,190,123.6,189.8,123.6,189.8z"/>
	<radialGradient id="SVGID_44_" cx="125.2491" cy="129.774" r="131.4425" gradientUnits="userSpaceOnUse">
		<stop  offset="0" style="stop-color:#FFFFFF"/>
		<stop  offset="0.6649" style="stop-color:#FFFFFF;stop-opacity:0.6"/>
		<stop  offset="0.8595" style="stop-color:#FFFFFF"/>
	</radialGradient>
	<path class="st43" d="M123.9,195.6c0.8-2.2,1.8-3.4,1.8-3.4c0,0-0.3,0.2-0.9,0.7c-0.5,0.4-1.2,1.2-1.9,2.3
		c-0.7,1.1-1.3,2.5-1.7,4.1c-0.4,1.6-0.6,3.5-0.5,5.4c0.1,3.8,1.1,7.2,2,9.5c0.9,2.3,1.6,3.7,1.6,3.7l-0.5-3.9
		c-0.3-2.4-0.7-5.7-0.8-9.3c-0.1-1.8,0-3.5,0.1-5C123.2,198,123.5,196.7,123.9,195.6z"/>
	<radialGradient id="SVGID_45_" cx="125.2491" cy="129.774" r="131.4425" gradientUnits="userSpaceOnUse">
		<stop  offset="0" style="stop-color:#FFFFFF"/>
		<stop  offset="0.6649" style="stop-color:#FFFFFF;stop-opacity:0.6"/>
		<stop  offset="0.8595" style="stop-color:#FFFFFF"/>
	</radialGradient>
	<path class="st44" d="M109.9,223.4c-1-1.8-2.6-3.7-4.4-5.7c-1.8-2-3.9-4-5.7-6.3c-1.9-2.3-3.4-4.6-4.2-7c-0.8-2.4-0.9-4.7-0.7-6.6
		c0.2-1.9,0.7-3.5,1-4.6c0.4-1.1,0.6-1.6,0.6-1.6s-0.4,0.5-0.9,1.5c-0.5,1-1.3,2.5-1.8,4.5c-0.5,2-0.7,4.6,0,7.3
		c0.7,2.8,2.2,5.5,4.3,7.9c2,2.4,4.2,4.4,6.2,6.2c1.9,1.8,3.6,3.4,4.9,4.9c1.2,1.5,1.9,3,2.1,4.1c0.2,1.1,0.2,1.7,0.2,1.7
		c0,0,0.2-0.6,0.2-1.8c0-0.6-0.1-1.3-0.4-2.1C110.8,225.2,110.5,224.3,109.9,223.4z"/>
	<radialGradient id="SVGID_46_" cx="125.2491" cy="129.774" r="131.4425" gradientUnits="userSpaceOnUse">
		<stop  offset="0" style="stop-color:#FFFFFF"/>
		<stop  offset="0.6649" style="stop-color:#FFFFFF;stop-opacity:0.6"/>
		<stop  offset="0.8595" style="stop-color:#FFFFFF"/>
	</radialGradient>
	<path class="st45" d="M105.8,223.2c-1.2-1.3-2.8-2.5-4.8-3.6c-1.9-1-4.2-1.9-6.5-2.7c-2.4-0.8-4.9-1.6-7.5-2.6
		c-1.3-0.5-2.6-1.1-3.8-1.7c-1.2-0.7-2.4-1.5-3.4-2.4c-1-1-1.8-2.1-2.2-3.4c-0.1-0.2-0.1-0.4-0.2-0.6c0.2-0.3,0.4-0.6,0.5-0.9
		c0.2-0.5,0.3-1,0.2-1.6c0-0.6-0.2-1.2-0.4-1.7c0,0,0,0,0,0c0.7,1.2,1.4,2.3,2.2,3.3c2.7,3.6,6,6.2,8.9,8c2.9,1.8,5.5,2.7,7.3,3.2
		c1.8,0.5,2.8,0.7,2.8,0.7c0,0-1-0.3-2.7-1c-1.7-0.7-4.1-1.9-6.8-3.8c-2.6-1.9-5.5-4.6-7.9-8.1c-2.4-3.5-4.3-7.9-4.9-12.7
		c-0.3-2.4-0.2-4.8,0.1-7.1c0.3-2.3,1-4.4,2-6.1c1.1-1.7,2.5-3.2,4-4.3c0.4-0.3,0.7-0.6,1.1-0.9c0.4-0.3,0.7-0.5,1.1-0.8
		c0.8-0.5,1.5-1,2.1-1.6c0.7-0.6,1.2-1.2,1.7-1.8c0.5-0.6,0.8-1.3,1-2c0.4-1.3,0.4-2.5,0.3-3.5c-0.1-0.9-0.3-1.6-0.4-2.1
		c-0.1-0.5-0.2-0.7-0.2-0.7l0.1,0.7c0.1,0.5,0.1,1.2,0.1,2.1c0,0.9-0.1,2-0.6,3.2c-0.5,1.1-1.5,2.2-2.8,3.1
		c-0.6,0.5-1.4,0.9-2.1,1.4c-0.4,0.2-0.8,0.5-1.2,0.7c-0.4,0.2-0.8,0.5-1.2,0.8c-1.6,1.1-3.4,2.6-4.7,4.6c-1.3,2-2.2,4.4-2.6,6.8
		c-0.4,2.5-0.5,5.1-0.2,7.7c0.3,2.6,1,5.2,2,7.4c0.2,0.6,0.5,1.1,0.8,1.7c-0.4-0.6-0.9-1.2-1.4-1.8c-0.8-0.9-1.6-1.7-2.2-2.4
		c-0.7-0.7-1.2-1.3-1.7-1.9c-0.9-1.1-1.2-2-1.5-1.9c-0.2,0-0.3,0.3-0.3,0.8c0,0.5,0.1,1.2,0.4,2c0.3,0.8,0.8,1.6,1.5,2.5
		c0.6,0.8,1.4,1.7,2.1,2.6c0.4,0.5,0.8,0.9,1.1,1.3l-0.4,0.1c0,0.1,0,0.2,0,0.3h0c-0.1,0.8-0.1,1.5,0,2.3c-0.5,3.1-2.7,5.3-4.4,6.9
		c-1.1,1-2,1.7-2.7,2.2l-1,0.8c0,0,0.1-0.2,0.3-0.5c0.2-0.3,0.5-0.9,0.6-1.6c0.1-0.8,0.1-1.8-0.3-2.8c-0.3-1-0.9-2.2-1.6-3.3
		c-0.7-1.1-1.4-2.3-2-3.6c-0.1-0.3-0.3-0.6-0.4-0.9c-0.1-0.2-0.1-0.3-0.1-0.5l-0.1-0.5c-0.1-0.8-0.2-1.5-0.3-2.4
		c-0.1-2-0.1-4.2,0.1-6.5c1.1-2.6,1.7-5.3,2.3-7.7c0.6-2.5,1.1-4.9,1.9-6.9c0.2-0.5,0.4-1,0.7-1.5c0.1-0.2,0.2-0.5,0.4-0.7l0.4-0.7
		c0.5-0.9,1.1-1.7,1.6-2.5c1.2-1.6,2.4-2.9,3.5-4.2c1.1-1.3,2.1-2.4,2.9-3.5c0.8-1.1,1.4-2,1.9-2.8c0.9-1.6,1.2-2.6,1.2-2.5
		c0,0-0.6,0.9-1.8,2.3c-0.6,0.7-1.4,1.5-2.4,2.5c-1,0.9-2.1,2-3.4,3.1c-1.3,1.2-2.7,2.5-4.1,4.1c-0.3,0.4-0.7,0.8-1,1.3
		c-0.2,0.2-0.3,0.5-0.5,0.7c-0.2,0.2-0.3,0.5-0.4,0.7c-0.6,1-1.2,2.1-1.7,3.2c-0.9,2.3-1.5,4.7-2,7.2c-0.2,0.8-0.3,1.6-0.5,2.4h-0.3
		c0,0.3-0.1,0.6-0.2,0.8L61,187c-0.2,0.8-0.4,1.6-0.5,2.4c-0.3,0.6-0.7,1.2-1,1.8c-0.5,0.8-0.9,1.6-1.2,2.4
		c-0.2,0.5-0.4,1.1-0.5,1.6c-0.5-1.7-1.1-4.1-1.4-7.1c-0.3-3-0.4-6.7,0.3-10.5c0.7-3.9,2.2-8,4.9-11.6c1.3-1.8,2.9-3.3,4.7-4.5
		c1.6-1.2,3.6-1.8,5.5-2.5c1-0.4,1.9-0.7,2.8-1.2c0.5-0.2,0.9-0.5,1.3-0.7l0.6-0.4c0.2-0.1,0.4-0.3,0.6-0.4c1.5-1.2,2.6-2.5,3.6-3.7
		c1.9-2.5,3.1-4.8,3.6-6.5c0.2-0.8,0.2-1.5,0.2-2c0.5-0.8,0.9-1.7,1.2-2.5c0.9-2.2,1.1-4.2,1.1-5.7c0.9,0.9,1.7,1.9,2.4,2.8
		c1.7,2.2,2.7,4.5,3.2,6.6c0.5,2.1,0.6,3.9,0.6,5.1c0,1.2-0.1,1.9-0.1,1.9s0.3-0.6,0.5-1.9c0.3-1.2,0.6-3.1,0.4-5.4
		c-0.2-2.3-1-5.1-2.6-7.8c-1.6-2.7-3.9-5.2-6.5-7.5l-1-0.8c-0.3-0.2-0.6-0.5-0.8-0.8c-0.5-0.5-1-1.1-1.4-1.7
		c-0.2-0.3-0.4-0.6-0.6-0.9c0,0,0,0,0,0h0c-0.5-0.9-1-1.8-1.3-2.7c-0.9-2.5-1-5.1-0.7-7.2c0.3-2.1,0.8-3.8,1.3-5
		c0.5-1.2,0.8-1.8,0.8-1.8s-0.4,0.4-1,1.2c-0.2-0.1-0.8-0.4-1.7-0.8c-1.2-0.5-3.1-1-5.4-1.1c-2.4,0-5.2,0.5-8.1,1.8
		c-1.4,0.6-2.9,1.4-4.3,2.4c-0.7,0.5-1.4,1-2.1,1.5c-0.4,0.3-0.7,0.5-1,0.8c-0.2,0.1-0.3,0.3-0.5,0.4l-0.5,0.4
		c-2.8,2-5.5,3.8-8.2,4.8c0,0-0.1,0-0.1,0c-0.8,0.3-1.5,0.5-2.3,0.6c-0.5,0.1-1,0.1-1.5,0.1c-1.2,0-2.3-0.4-3.2-0.9
		c-0.9-0.5-1.7-1.2-2.2-1.9c-0.6-0.7-1-1.3-1.4-1.8c-0.7-1.1-1-1.7-1-1.7c0,0,0.2,0.7,0.6,1.9c0.3,0.6,0.6,1.3,1.1,2.1
		c0.5,0.8,1.2,1.7,2.2,2.4c0.6,0.5,1.4,0.9,2.3,1.2c-0.9,0.4-1.8,0.7-2.5,1l0-0.1c-1.5,0.5-2.9,0.7-4.1,0.3
		c-1.2-0.4-2.3-1.2-3.2-2.1c-1-0.9-1.8-1.9-2.7-2.9c-0.8-0.9-1.7-1.8-2.5-2.5c-0.8-0.7-1.6-1.3-2.4-1.7c-0.2-0.1-0.4-0.2-0.6-0.3
		c0.2,0,0.4,0.1,0.6,0.1c1.2,0.1,2.6-0.1,4.1-0.8c1.5-0.6,3.1-1.6,4.7-2.8c1.6-1.2,3.3-2.6,5.1-4c0.2-0.2,0.5-0.3,0.7-0.5l0.2-0.1
		c0.1-0.1,0.2-0.1,0.2-0.2l0.4-0.3c0.5-0.4,1-0.7,1.5-1c1-0.7,2.1-1.3,3.2-1.9c2.3-1.2,4.7-2.3,7.4-3c1-0.3,2-0.5,3-0.6
		c1.2,0.2,2.4,0.3,3.8,0.3c0.9,0,1.7,0,2.6,0c0.2,0,0.4,0,0.7,0l0.7,0c0.5-0.1,0.9-0.1,1.4-0.2c1.9-0.2,3.8-0.5,5.7-0.6
		c1-0.1,1.9-0.1,2.8,0.1c0.9,0.1,1.7,0.4,2.2,0.9c-0.1,0-0.1,0-0.2,0c-1.1-0.1-2.6-0.2-4.5,0.1c-1.9,0.2-4.1,0.8-6.4,1.9
		c-1.2,0.5-2.3,1.2-3.5,2c-1.2,0.8-2.3,1.6-3.4,2.5c-2.2,1.8-4.2,3.5-6.2,4.7c-1,0.6-2,1.1-2.9,1.4c-1,0.3-1.9,0.4-2.8,0.4
		c-1.7-0.1-3.1-0.8-4-1.2c-0.9-0.5-1.4-0.8-1.4-0.8c0,0,0.4,0.4,1.2,1.1c0.4,0.3,0.9,0.7,1.6,1.1c0.7,0.4,1.5,0.7,2.5,1
		c1,0.2,2.1,0.2,3.3,0.1c1.2-0.2,2.4-0.6,3.5-1.2c2.3-1.1,4.5-2.8,6.7-4.6c1.1-0.9,2.2-1.7,3.2-2.5c1-0.8,2.1-1.4,3.1-2
		c2.1-1.2,4-2,5.8-2.5c1.7-0.5,3.2-0.7,4.2-0.9c0.2,0,0.3,0,0.5,0c0.1,0.7,0.2,1.3,0.4,1.8c0.3,1.1,0.7,1.7,0.7,1.7s0.2-0.7,0.4-1.7
		c0.2-1,0.6-2.4,0.9-3.8c0.3-1.5,0.5-2.8,0.6-3.9c0-0.2,0-0.4,0.1-0.6c0.6,0.4,1.1,0.6,1.6,0.8c1.2,0.5,2,0.5,2,0.5
		c0,0-0.7-0.2-1.7-1c-0.5-0.4-1.1-0.9-1.7-1.5c0,0,0-0.1,0-0.1s0,0,0,0c-0.6-0.6-1.2-1.4-1.8-2.3c-2.5-3.7-4.6-9.7-5.5-16.5
		c-0.4-3.4-0.5-6.7,0-9.5c0.4-2.9,1.4-5.3,2.8-7c1.4-1.6,3.1-2.4,4.4-2.7c1.2-0.3,2-0.3,2-0.3c0,0-0.7-0.2-2.1-0.1
		c-0.7,0-1.5,0.1-2.4,0.4c-0.9,0.3-2,0.8-2.9,1.6c-1,0.8-1.9,1.9-2.6,3.2c-0.7,1.2-1.2,2.6-1.6,4.2c-0.5-0.8-1.1-1.6-1.8-2.3
		c-1.6-1.6-3.5-3.1-5.2-4.8c-1.7-1.7-3.1-3.5-4.2-5.3c-1.1-1.8-1.8-3.6-2.3-5.1c-0.5-1.6-0.8-2.9-1.1-3.8L54.3,40
		c0-0.1,0.1-0.2,0.1-0.3c0.6-1.2,1.2-2.3,1.9-3.4c0,0.3,0.1,0.7,0.2,1.1c0.2,1.3,0.8,3.3,2.1,5.4c1.3,2.1,3.5,4.4,6.4,6.1
		c2.9,1.7,6.5,2.9,10.3,3.2l0.7,0l0.7,0.1l1.4,0.1l2.6,0.1c1.7,0.1,3.4,0.2,5,0.4c3.1,0.3,5.9,0.8,8.1,1.6c1.1,0.4,2,0.9,2.7,1.5
		c0.7,0.6,1.2,1.2,1.6,1.8c0.3,0.6,0.5,1.1,0.6,1.4c0.1,0.3,0.1,0.5,0.1,0.5s0-0.2,0-0.5c0-0.4-0.1-0.9-0.4-1.5
		c-0.3-0.6-0.7-1.4-1.4-2.1c-0.7-0.7-1.6-1.4-2.7-2c-2.2-1.2-5.1-2-8.3-2.5c-1.6-0.3-3.3-0.5-5.1-0.6l-5.4-0.5
		c-3.5-0.2-6.8-1.2-9.5-2.6c-2.7-1.4-4.9-3.2-6.4-5c-1.5-1.8-2.3-3.6-2.7-4.9c-0.2-0.5-0.3-0.9-0.4-1.2c0.5-0.7,1.1-1.4,1.6-2.1
		c2.7-3.1,5.7-4.8,7.8-5.6c1.1-0.4,1.9-0.6,2.5-0.7c0.6-0.1,0.9-0.1,0.9-0.1c0,0-0.3,0-1,0c-0.6,0-1.6,0-2.8,0.3
		c-1.2,0.3-2.7,0.8-4.3,1.6c-1.6,0.9-3.3,2.1-4.9,3.7c-1.6,1.6-3.2,3.6-4.4,6c-0.6,1.2-1.1,2.5-1.5,4c-0.2,0.7-0.3,1.5-0.4,2.2
		c0,0.4-0.1,0.8-0.1,1.2c0,0.4,0,0.8,0,1.1c0,1.5,0.1,3.1,0.3,4.7c0.2,1.6,0.6,3.2,1.3,4.8c0.6,1.6,1.6,3.2,2.9,4.5
		c0.4,0.4,0.9,0.8,1.5,1.2C55.6,62.9,55.3,63,55,63c-0.9,0.1-1.8,0.2-2.6,0.2c-1.6-0.2-3.2-0.8-4.6-1.6c-1.4-0.8-2.6-1.6-3.5-2.5
		c-0.9-0.9-1.5-1.9-1.8-2.9c-0.3-0.9-0.2-1.8-0.1-2.5c0.2-0.7,0.4-1.2,0.6-1.6c0.2-0.3,0.3-0.5,0.3-0.5s-0.2,0.1-0.5,0.4
		c-0.3,0.3-0.7,0.8-1.1,1.5c-0.4,0.8-0.6,1.8-0.4,3.1c0.2,1.3,0.8,2.6,1.8,3.8c1,1.2,2.2,2.4,3.8,3.3c0.8,0.5,1.6,0.9,2.5,1.3
		c0.5,0.2,1,0.3,1.5,0.5c0.5,0.1,1,0.2,1.6,0.3c2.3,0.2,4.3-0.5,6.3-0.8c0.3-0.1,0.7-0.1,1-0.2c1.5,0.4,2.8,0.9,4,1.4
		c1.7,0.8,2.9,1.8,3.6,3c0.6,1,0.9,1.9,1.1,2.7c0,0,0,0,0,0.1c0,0,0-0.1-0.1-0.1c-0.4-0.4-1-0.8-1.7-1c-1.4-0.5-3.2-0.6-5-0.5
		c-1.8,0.1-3.8,0.4-5.8,0.7c-2,0.2-3.8,0.3-5.4-0.1c-1.5-0.4-2.7-1.2-3.4-2.3c-0.8-1-1.2-2-1.5-2.7c-0.3-0.7-0.4-1.1-0.4-1.1
		c0,0,0,0.4,0.1,1.2c0.1,0.8,0.2,1.9,0.9,3.2c0.3,0.7,0.8,1.4,1.4,2c0.6,0.6,1.5,1.2,2.4,1.5c1.9,0.7,4.1,0.7,6.2,0.5
		c2.1-0.2,4-0.7,5.8-1c1.7-0.3,3.2-0.5,4.5-0.4c0.6,0.1,1.1,0.3,1.6,0.5c0.2,0.1,0.4,0.3,0.6,0.4c0,0,0,0.1,0,0.1
		c0.1,1.1,0.3,2.1,0.5,3.2c-0.4-0.3-1-0.6-1.6-0.8c-1.4-0.5-3.1-0.6-5-0.4c-1.8,0.1-3.8,0.5-5.7,0.7c-2,0.3-3.8,0.4-5.4,0.3
		c-1.6-0.2-3-0.7-4-1.5c-1-0.7-1.7-1.6-2.2-2.2c-0.5-0.6-0.7-1-0.7-0.9c0,0,0.1,0.4,0.4,1.1c0.3,0.7,0.8,1.8,1.7,2.8
		c0.5,0.5,1.1,1.1,1.8,1.5c0.7,0.4,1.6,0.8,2.6,1c1.9,0.5,4,0.4,6.1,0.1c2.1-0.3,4-0.8,5.7-1.1c1.7-0.3,3.2-0.5,4.4-0.4
		c0.8,0.1,1.5,0.3,2.1,0.6c0.4,1.5,0.8,3,1.4,4.3c-0.2-0.1-0.3-0.2-0.5-0.3c-0.8-0.4-1.8-0.7-2.8-0.9c-2-0.4-4.1-0.4-6.3-0.4
		c-2.2,0-4.2,0.2-6.1,0.1c-1.8-0.1-3.4-0.3-4.7-0.8c-1.3-0.4-2.2-1.1-2.8-1.6c-0.6-0.5-0.9-0.9-0.9-0.9c0,0,0.2,0.4,0.6,1.1
		c0.5,0.7,1.3,1.6,2.6,2.4c1.3,0.8,3.1,1.4,5,1.7c2,0.3,4.1,0.3,6.3,0.3c2.2-0.1,4.2-0.1,6,0c1.8,0.1,3.3,0.6,4.4,1.3
		c0,0,0.1,0,0.1,0.1c1.2,2.6,2.7,4.9,4.3,6.5c0.8,0.8,1.6,1.5,2.3,2.1c-0.1,0.2-0.3,0.4-0.5,0.6c-0.3,0.4-0.6,0.8-0.9,1.3
		c-0.1-0.4-0.3-0.8-0.6-1.2c-0.5-0.9-1.3-1.8-2.3-2.6c-1-0.8-2.3-1.5-3.7-2.1c-1.4-0.6-3-1-4.7-1.3c-1.7-0.3-3.4-0.6-5.2-0.8
		c-0.9-0.1-1.8-0.2-2.7-0.4l-0.7-0.1l-0.7-0.1c-0.5-0.1-0.9-0.1-1.3-0.2c-3.5-0.8-6.7-2.3-9.2-4.2c-2.5-1.9-4.2-4.2-5.2-6.4
		c-0.9-2.2-1.1-4.2-1.1-5.6c0-1.4,0.1-2.2,0.1-2.2c0,0-0.3,0.7-0.5,2.1c-0.2,1.4-0.3,3.5,0.4,6c0.4,1.2,0.9,2.6,1.8,3.9
		c0.8,1.3,1.9,2.6,3.2,3.7c2.6,2.3,6.1,4.1,10,4.9c0.5,0.1,1,0.2,1.5,0.3l0.7,0.1l0.7,0.1c0.9,0.1,1.9,0.2,2.8,0.3
		c1.8,0.2,3.5,0.3,5.1,0.5c3.2,0.4,6,1.1,8,2.4c0.6,0.4,1.1,0.8,1.6,1.2c-1.1-0.8-2.4-1.4-3.7-1.7c-1.5-0.4-2.9-0.5-4.2-0.6
		c-1.4,0-2.7,0-3.9,0.1c-2.5,0.2-4.7,0.4-6.8,0.6c-2.1,0.1-3.9,0.2-5.6-0.1c-1.7-0.2-3.1-0.6-4.3-1.2c-1.2-0.6-2.1-1.3-2.8-1.9
		c-1.3-1.3-1.9-2.2-1.9-2.2c0,0,0.1,0.3,0.3,0.7c0.2,0.5,0.6,1.2,1.2,2c0.6,0.8,1.5,1.8,2.8,2.6c1.3,0.8,2.9,1.5,4.7,1.9
		c1.9,0.4,3.9,0.5,6.1,0.5c2.2,0,4.5-0.1,6.8-0.2c2.3-0.1,4.8-0.1,7.1,0.5c1.1,0.3,2.2,0.8,3.1,1.5c0.4,0.3,0.7,0.6,1.1,1
		c-0.5-0.2-0.9-0.3-1.4-0.4c-1.2-0.2-2.4-0.3-3.5-0.2c-2.2,0.1-4.2,0.4-6.1,0.7c-0.5,0.1-0.9,0.1-1.3,0.2c-0.2,0-0.4,0-0.6,0.1
		l-0.7,0.1c-0.1,0-0.1,0-0.2,0c-0.8,0.1-1.6,0.1-2.3,0.2c-0.8,0.1-1.6,0.1-2.3,0.1c-1.3-0.1-2.8-0.3-3.4-0.3
		c-1.1-0.1-2.1-0.3-3.1-0.7c-1.9-0.7-3.5-1.8-5-3.1c-1.5-1.3-2.8-2.8-4-4.3c-0.6-0.7-1.2-1.5-1.7-2.3c-0.5-0.7-1-1.5-1.4-2.3
		c-1.6-3.2-2.5-6.5-2.9-9.6c-0.4-3.1-0.4-6,0-8.6c0.4-2.6,1.1-4.9,2-6.7c0.9-1.9,2-3.3,2.9-4.3c1-1.1,1.9-1.8,2.4-2.2
		c0.6-0.5,0.9-0.7,0.9-0.7c0,0-0.4,0.2-1.1,0.6c-0.7,0.4-1.7,1-2.9,2.1c-1.2,1-2.5,2.5-3.6,4.5c-1.1,2-2.1,4.4-2.6,7.2
		c-0.5,2.8-0.7,6-0.3,9.4c0.4,3.4,1.3,7,3.1,10.4c0.5,0.9,1,1.7,1.6,2.5c0.6,0.8,1.2,1.6,1.8,2.4c1.3,1.5,2.7,3.1,4.4,4.4
		c1.4,1.1,2.9,2.1,4.6,2.8c-1.8,0.7-3.5,1.6-5,2.5c-1.2,0.7-2.3,1.5-3.3,2.3l-0.8,0.6l-0.7,0.6l-0.4,0.3l-0.4,0.3
		c-0.2,0.2-0.5,0.4-0.7,0.6c-1.8,1.6-3.3,3.1-4.7,4.4c-1.4,1.3-2.8,2.3-4,3c-1.3,0.7-2.5,1.1-3.5,1.1c-0.5,0-1.1,0.1-1.6,0.1
		c-0.1,0-0.1,0-0.2,0c0,0,0,0,0,0c-1-0.2-1.6-0.1-1.7-0.1c-0.1,0,0,0,0,0c0,0,0,0,0.1,0c0.2,0.1,0.9,0.3,1.4,0.6
		c0.1,0,0.1,0.1,0.2,0.1c0.5,0.3,1.1,0.7,1.7,1.2c0.6,0.6,1.2,1.3,1.8,2.1c0.6,0.8,1.3,1.8,2,2.8c0.7,1,1.5,2.2,2.6,3.3
		c0.6,0.6,1.2,1.1,1.9,1.6c0.7,0.5,1.6,0.9,2.5,1.1c0.2,0.1,0.4,0.1,0.7,0.1c-0.7,0.4-1.5,0.7-2.3,0.9c-1.9,0.5-3.8,0.5-5.3,0.4
		c-2.3-0.1-3.9-0.5-4.6-0.6c-0.1,0-0.2,0-0.2-0.1c-0.1,0-0.1,0-0.1,0s0,0,0.1,0.1c-0.1,0.4-0.1,0.8-0.1,1.4c0,1.4,0.3,3.6,1.2,6
		c0.5,1.2,1.1,2.5,2,3.8c0.9,1.3,1.9,2.6,3.4,3.8c0.7,0.6,1.5,1.1,2.5,1.5c0.8,0.3,1.7,0.5,2.6,0.5c-0.8,1.8-1.3,3.7-1.6,5.4
		c-0.2,1.3-0.3,2.5-0.3,3.7c0,0.6,0,1.2,0,1.8c0,0.5,0,1.1,0,1.6c0,2.1-0.1,4-0.4,5.7c-0.3,1.7-0.8,3.1-1.5,4.1
		c-0.3,0.5-0.8,0.9-1.2,1.2c-0.4,0.3-0.9,0.4-1.4,0.4c-0.9,0.1-1.6-0.1-2.1-0.2c-0.5-0.1-0.7-0.2-0.7-0.2s0.2,0.2,0.7,0.4
		c0.3,0.2,0.8,0.4,1.4,0.5c0,0,0.1,0.1,0.2,0.1c0.4,0.3,0.9,0.7,1.7,1.1c0.8,0.4,1.8,0.8,3.2,1c1.3,0.2,3,0,4.5-0.8
		c1.5-0.8,2.9-2.1,4.1-3.6c0,0,0,0.1,0,0.1c-0.2,3.1,0,6,0.4,8.7c0.4,2.6,1,5,1.7,7.1c1.3,3.9,2.9,6.8,4.3,8.7
		c0.1,0.3,0.2,0.7,0.3,0.9c0.4,0.9,0.9,1.5,1.3,1.9c0.4,0.4,0.7,0.5,0.8,0.4c0.1,0,0.1-0.1,0.1-0.2c0.1,0.1,0.2,0.2,0.2,0.2
		s-0.1-0.1-0.2-0.3c0-0.1-0.1-0.3-0.1-0.6c-0.1-0.5-0.4-1.1-0.5-1.9c-0.1-0.8-0.1-1.6,0.3-2.5c0.3-0.9,1-1.8,1.8-2.9
		c0.8-0.9,1.5-1.9,2.2-2.8c0.1,1.9,0.3,3.7,0.7,5.3c0.6,3.1,1.5,5.4,2.2,7c0.1,0.2,0.2,0.4,0.2,0.5c0,0.1,0,0.1,0,0.1
		c-0.1,1.5,0.3,2.7,0.7,3.3c0.3,0.7,0.6,1,0.6,1c0,0,0-0.4,0-1.2c0-0.7,0.1-1.8,0.6-2.9c0.1-0.3,0.2-0.5,0.4-0.8
		c0,1.2,0,2.4,0.2,3.6c0.1,0.9,0.3,1.8,0.5,2.7c0.2,0.9,0.7,1.8,1.1,2.4c0.9,1.4,1.8,2.4,2.6,3.4c0.8,1,1.4,1.8,1.9,2.7
		c0.4,0.8,0.6,1.6,0.7,2.2c0,0.6-0.1,1.1-0.2,1.5c-0.1,0.3-0.2,0.5-0.2,0.5l0,0l0,0c0,0,0,0,0,0c0,0,0,0,0,0c0,0,0.5-0.1,1.3-0.3
		c0.9-0.2,2.1-0.6,3.6-1.4c1.4-0.8,3.1-1.9,4.4-3.8c0.6,1.3,1.5,2.4,2.5,3.4c1.3,1.2,2.7,2.1,4.1,2.9c1.4,0.7,2.8,1.3,4.2,1.8
		c2.8,1,5.4,1.7,7.8,2.3c2.4,0.7,4.5,1.4,6.4,2.2c1.8,0.8,3.4,1.7,4.5,2.8c1.1,1.1,1.8,2.2,2.2,3.2c0.4,1,0.5,1.9,0.6,2.4
		c0.1,0.6,0.1,0.9,0.1,0.9s0-0.3,0.1-0.9c0-0.6,0-1.6-0.3-2.7C107.6,225.9,107,224.5,105.8,223.2z M68.4,67.1
		c-0.2-0.4-0.5-0.9-0.9-1.3c-0.6-0.6-1.3-1.2-2-1.7c-0.5-0.5-1-0.9-1.7-1.2c-0.6-0.3-1.3-0.5-2-0.6c-0.4-0.1-0.8-0.1-1.1-0.1
		c-1.5-0.4-3.6-1.5-4.5-2.5c-1-1.1-1.7-2.5-2.2-3.9c-1-2.9-1.3-5.9-1.3-8.7c0-0.7,0-1.4,0.1-2c0.1-0.7,0.2-1.3,0.4-1.9
		c0.3-1.1,0.7-2.1,1.1-3.1c0,0.2,0,0.6,0,1.2c0,0.9,0,2.3,0.3,4c0.2,1.7,0.7,3.7,1.7,5.8c0.9,2.1,2.4,4.2,4.3,6.1
		c1.9,1.9,3.9,3.2,5.5,4.6c0.8,0.7,1.5,1.3,2,2.1c0.3,0.3,0.5,0.7,0.7,1C68.5,65.5,68.5,66.3,68.4,67.1z M75.8,98.9
		c0,0.1,0,0.1,0,0.2c-0.1,0-0.1,0-0.2,0L75.8,98.9z M31.6,139.6c-1.2-1-2.2-2.1-3.1-3.2c-0.9-1.1-1.6-2.2-2.2-3.2
		c-1.2-2.1-1.8-3.8-2.1-5.1c-0.1-0.4-0.2-0.7-0.2-1c0.2,0.1,0.4,0.3,0.8,0.5c0.8,0.5,2,1.2,3.7,1.7c1.7,0.5,3.8,0.8,6.2,0.3
		c1.2-0.3,2.5-0.7,3.6-1.5c0.9-0.7,1.8-1.6,2.3-2.7c0.1-0.1,0.2-0.1,0.4-0.2l0-0.1c1-0.1,2.2-0.3,3.3-0.7c1.5-0.5,3-1.3,4.5-2.3
		c3.1-0.9,6.1-2.7,9-4.8l0.5-0.4c0.2-0.2,0.4-0.3,0.6-0.4c0.3-0.3,0.6-0.5,1-0.8c0.6-0.5,1.3-1,1.9-1.5c1.3-0.9,2.6-1.8,3.9-2.4
		c2.6-1.4,5.1-2.2,7.3-2.4c2.2-0.3,4,0,5.3,0.2c1,0.2,1.6,0.4,1.8,0.5c-0.1,0.1-0.1,0.2-0.2,0.3c-0.6,0.8-1.3,2-1.9,3.5
		c-0.3-0.2-0.7-0.5-1.3-0.8c-0.7-0.4-1.7-0.7-2.9-0.8c-1.2-0.1-2.5-0.1-4,0.2c-2.9,0.6-6.1,2.1-9.3,4c-1.6,1-3.3,2.1-4.9,3.3
		c-0.8,0.6-1.7,1.2-2.5,1.9c-0.9,0.7-1.7,1.4-2.5,2.1c-3.3,2.9-6.1,5.9-9,8.1c-1.4,1.1-2.9,2-4.4,2.5c-1.5,0.5-2.9,0.7-4.2,0.5
		c-1.3-0.2-2.5-0.7-3.4-1.2c-1-0.5-1.7-1.1-2.4-1.6c-1.2-1-1.8-1.6-1.8-1.6c0,0,0.5,0.7,1.6,1.9c0.6,0.6,1.3,1.3,2.2,2
		c0.9,0.7,2.1,1.4,3.6,1.7c1.5,0.4,3.2,0.4,4.9-0.1c1.7-0.5,3.4-1.4,5-2.4c3.2-2.2,6.2-5.2,9.4-8c6.5-5.4,12.8-10.3,18.1-12
		c1.3-0.4,2.5-0.6,3.6-0.6c1.1,0,2,0.2,2.8,0.4c0.6,0.2,1,0.4,1.3,0.6c-0.1,0.4-0.3,0.8-0.4,1.2c-0.2,0.7-0.4,1.5-0.5,2.4
		c-0.7,1.8-2.4,3.4-3.4,4.2c-1.1,0.9-2.3,1.4-3.6,1.6c-1.3,0.2-2.8,0.2-4.2,0.2c-1.5,0-3,0.1-4.4,0.3c-0.3,0.1-0.7,0.1-1.1,0.2
		c-0.3,0.1-0.7,0.2-1.1,0.3c-0.7,0.2-1.4,0.5-2,0.8c-1.2,0.6-2.3,1.4-3.3,2.2c-1.9,1.6-3.4,3.3-4.7,4.7c-1.3,1.5-2.5,2.7-3.6,3.7
		c-1.6,0.2-4.4,1.4-5.7,2.3c-0.2,0.1-0.4,0.3-0.6,0.4l0,0c0,0-0.1,0.1-0.1,0.1c-0.7,0.6-1.3,1.2-1.9,2c-0.5,0.3-1.1,0.5-1.7,0.5
		C34.3,141.3,32.8,140.6,31.6,139.6z M43.9,156.2c0,0.4,0,0.8,0,1.1c-0.4,0.9-0.8,1.8-1.2,2.6c-0.9,1.9-1.8,3.6-2.8,5
		c-1,1.4-2,2.6-3.2,3.3c-1.1,0.7-2.4,1-3.5,1c-1.1,0-2.1-0.2-2.9-0.4c-0.6-0.2-1-0.3-1.4-0.5c0.1,0,0.2,0,0.3,0
		c0.5,0,1.2-0.1,1.8-0.3c0.6-0.3,1.2-0.8,1.7-1.4c1-1.2,1.7-2.9,2.2-4.7c0.5-1.8,0.8-3.9,0.9-6.1c0.1-1.1,0.1-2.2,0.2-3.3
		c0.1-1.1,0.3-2.2,0.5-3.3c0.5-2.2,1.2-4.6,2.5-6.6c0.1-0.2,0.3-0.4,0.5-0.6c0.3-0.3,0.6-0.6,0.8-1c0.3-0.4,0.7-0.7,1.1-1
		c1-0.7,2.3-2.2,3.5-2.4l-0.4,0c0.6-0.3,1.3-0.7,1.9-1.2c1.3-0.9,2.8-2.2,4.3-3.5c1.5-1.4,3.1-2.9,5-4.2c0.9-0.6,1.9-1.2,3-1.6
		c0.5-0.2,1.1-0.4,1.6-0.5c0.6-0.1,1.2-0.2,1.8-0.3c1.3-0.1,2.6-0.2,4-0.2c1.4,0,2.9,0,4.6-0.4c0.8-0.2,1.6-0.5,2.4-0.9
		c0.8-0.4,1.5-0.9,2.1-1.5c0.5-0.5,1-1,1.5-1.6c0.1,0.5,0.2,1,0.3,1.5c0,0.1,0.1,0.2,0.1,0.4c-0.2,0.2-0.3,0.5-0.6,0.8
		c-0.5,0.5-1.1,1-1.9,1.5c-0.8,0.5-1.8,0.9-3,1.2c-2.3,0.7-5.2,1.1-8.4,1.5c-1.6,0.3-3.4,0.5-5.2,1.1c-0.5,0.1-0.9,0.3-1.4,0.5
		c-0.4,0.2-0.9,0.4-1.3,0.6c-0.8,0.5-1.7,1-2.5,1.6c-1.6,1.2-3,2.7-4,4.2c-1.1,1.5-2,3.1-2.6,4.7c-1.3,3.1-1.9,6.1-2.2,8.6
		C43.8,152.8,43.8,154.9,43.9,156.2z M54.7,177.3c-0.1,0.7-0.1,1.4-0.2,2c-0.4,0.6-0.9,1.3-1.6,2.1c-0.7,0.9-1.6,1.8-2.5,2.9
		c-0.9,1.1-1.7,2.3-2,3.7c-0.1,0.3-0.1,0.6-0.2,0.9c-0.9-2-1.9-4.7-2.6-8c-0.5-2.1-0.9-4.5-1.1-7c-0.2-2.5-0.2-5.3,0.1-8.1
		c0.3-2.7,0.9-5.4,2.1-8.1c0.1-0.3,0.2-0.5,0.4-0.8h0c0-0.1,0-0.1,0.1-0.2c0.2-0.3,0.3-0.6,0.5-1c0.7-1.3,1.6-2.5,2.6-3.6
		c0,0,0.1,0,0.1,0c1.5-1.2,3.3-2.1,5-2.9c1.7-0.8,3.4-1.5,4.9-2.2c1.5-0.7,3-1.4,4.2-2.1c2.5-1.4,4.3-2.9,5.3-4.1c1-1.2,1.3-2,1.3-2
		c0,0-0.6,0.7-1.8,1.6c-1.2,1-3.2,2-5.9,3c-1.3,0.5-2.8,1-4.4,1.5c-1.6,0.5-3.3,1.1-5.1,1.9c-0.8,0.3-1.6,0.7-2.4,1.2l0,0
		c-0.1,0.1-0.2,0.1-0.3,0.2c-0.7,0.1-1.3,0.4-1.8,0.8c-0.6,0.5-1.2,1-1.6,1.5c-0.5,0.6-0.9,1.1-1.2,1.7c-0.2,0.2-0.3,0.4-0.4,0.7
		c-0.1,0.2-0.2,0.4-0.3,0.6c0,0.1-0.1,0.1-0.1,0.2c-0.5,1-1,2-1.5,3c0-0.2,0.1-0.4,0.1-0.6c0.2-1.4,0.5-3.4,1-5.7
		c0.6-2.4,1.4-5.2,2.8-8c1.4-2.8,3.5-5.7,6.3-7.8c0.7-0.5,1.4-1,2.2-1.5c0.4-0.2,0.8-0.4,1.2-0.6c0.4-0.2,0.7-0.3,1.1-0.5
		c1.6-0.6,3.2-0.9,4.8-1.3c3.2-0.7,6.1-1.3,8.5-2.4c1.2-0.5,2.2-1.1,3-1.7c0.8-0.6,1.4-1.3,1.8-1.9c0.2-0.2,0.3-0.5,0.4-0.7
		c0.3,0.9,0.6,1.8,1.1,2.7c-0.4,1.4-1,2.6-1.9,3.6c-1.2,1.3-2.7,2.3-4.3,3.1c-1.5,0.8-3.1,1.5-4.6,2.1c-1.5,0.6-2.9,1.1-4.1,1.7
		c-2.5,1-4.4,2-5.6,2.9c-1.2,0.9-1.7,1.5-1.7,1.5c0,0,0.7-0.4,2.1-1c1.4-0.5,3.5-1.1,6.1-1.8c1.3-0.3,2.8-0.7,4.4-1.2
		c1.6-0.5,3.3-1.1,5-1.9c1.7-0.9,3.5-2,4.9-3.8c0.6-0.7,1.1-1.6,1.4-2.5c0,0.1,0.1,0.1,0.1,0.2c-0.1,0.4-0.3,1.1-0.5,2
		c-0.4,1.5-1.2,3.7-2.6,6.1c-0.7,1.2-1.6,2.4-2.8,3.5c-1.1,1.1-2.5,2.1-4.1,3c-3.2,1.8-7,3.1-11,4.9l-1.5,0.7
		c-0.5,0.2-1,0.5-1.5,0.8c-1,0.6-1.9,1.2-2.7,1.9c-1.7,1.4-3,3-4.1,4.6c-2.2,3.3-3.2,6.7-3.7,9.6c-0.5,2.9-0.5,5.2-0.3,6.8
		c0.1,1.6,0.3,2.5,0.3,2.5c0,0,0-0.9,0.1-2.5c0.1-1.6,0.4-3.9,1.1-6.6c0.8-2.7,2-5.8,4.2-8.7c1.1-1.4,2.4-2.8,3.9-4
		c0.8-0.6,1.6-1.1,2.5-1.6c0.4-0.2,0.9-0.5,1.3-0.7l1.5-0.6c3.9-1.7,7.8-3.2,11.1-5.4c1.6-1,3.1-2.3,4.2-3.6c1.2-1.3,2-2.7,2.7-4
		c1.2-2.7,1.7-5,1.9-6.6c0.1-0.9,0.2-1.6,0.2-2c0.1,0.2,0.3,0.3,0.5,0.5c0.3,0.3,0.6,0.6,1,1l1,0.8c0.1,0.1,0.2,0.2,0.3,0.3
		c0,0.2,0,0.4,0.1,0.7c0,0.7-0.1,1.6-0.4,2.5c-0.3,0.9-0.8,2-1.5,3c-1.4,2.1-3.5,4.2-6.1,6.3c-1.3,1-2.8,2-4.3,2.8
		c-0.4,0.2-0.8,0.4-1.2,0.6c-0.4,0.2-0.8,0.4-1.2,0.5c-0.9,0.3-1.9,0.6-2.8,0.9c-1.9,0.6-3.7,1.3-5.4,2.2c-1.7,0.8-3.3,1.8-4.7,3
		c-1.4,1.1-2.5,2.4-3.4,3.8c-0.9,1.3-1.4,2.7-1.8,4c-0.8,2.5-0.9,4.7-0.9,6.1c0,1.5,0.1,2.2,0.1,2.2c0,0,0.1-0.8,0.3-2.2
		c0.2-1.4,0.6-3.5,1.6-5.8c0.5-1.1,1.2-2.3,2.1-3.5c0.9-1.1,2-2.2,3.3-3.2c2.6-1.9,6-3.3,9.7-4.5l2.8-0.9c0.5-0.2,1-0.4,1.4-0.6
		c0.4-0.2,0.9-0.5,1.3-0.7c1.7-1,3.1-2.1,4.4-3.3c2.6-2.3,4.6-4.8,5.9-7.2c0.6-1.2,1-2.4,1.2-3.4c0.2-1,0.2-2,0-2.7
		c0-0.1,0-0.2-0.1-0.4c1,0.9,2,1.8,2.9,2.7c-0.2,1.5-0.6,3.5-1.8,5.7c-0.6,1.2-1.5,2.4-2.5,3.6c-1.1,1.2-2.3,2.3-3.8,3.3
		c-2.9,2.1-6.5,4-10.2,6.1c-3.7,2.1-7.2,4.4-9.9,7.2c-1.3,1.4-2.5,2.8-3.3,4.3c-0.8,1.5-1.4,3-1.8,4.4c-0.7,2.8-0.6,5.1-0.5,6.7
		c0.1,1.6,0.3,2.4,0.3,2.4c0,0,0-0.9,0-2.4c0.1-1.5,0.3-3.8,1.2-6.4c0.5-1.3,1.1-2.6,2-3.9c0.9-1.3,2-2.6,3.3-3.8
		c2.6-2.4,6-4.5,9.7-6.6c3.7-2.1,7.2-4.2,10.2-6.6c1.5-1.2,2.8-2.5,3.8-3.9c0.4-0.5,0.7-1,1-1.4c0,0.4-0.1,1-0.4,1.7
		c-0.6,1.6-2,3.6-4.1,5.8c-1.1,1.1-2.3,2.2-3.7,3.2c-0.2,0.1-0.4,0.2-0.5,0.4l-0.6,0.3c-0.4,0.2-0.8,0.4-1.2,0.6
		c-0.8,0.4-1.7,0.6-2.7,0.9c-1,0.3-2,0.6-3,0.9c-0.5,0.2-1,0.4-1.6,0.7c-0.5,0.3-1.1,0.6-1.5,0.9c-2,1.3-3.8,2.9-5.3,4.9
		c-1.5,2-2.6,4.1-3.4,6.3C55.4,173,55,175.2,54.7,177.3z"/>
	<radialGradient id="SVGID_47_" cx="125.2491" cy="129.774" r="131.4425" gradientUnits="userSpaceOnUse">
		<stop  offset="0" style="stop-color:#FFFFFF"/>
		<stop  offset="0.6649" style="stop-color:#FFFFFF;stop-opacity:0.6"/>
		<stop  offset="0.8595" style="stop-color:#FFFFFF"/>
	</radialGradient>
	<path class="st46" d="M68,29.4c-0.3,0.7-0.5,1.5-0.5,2.6c0,1,0.2,2.2,0.7,3.5c0.9,2.4,2.8,5.1,5.8,7.1c1.5,1,3.2,1.8,5.3,2.1
		c1,0.1,2.1,0.1,3.1-0.1c0.6-0.1,1.1-0.3,1.7-0.5c0.5,0.3,1,0.5,1.5,0.7l5.6,0.9c-1.3-0.6-6.7-3.9-7.4-5.8c-0.5-1.2-0.6-2.5-0.5-3.7
		c0.2-2.5,1-4.8,1.9-6.5c0.8-1.8,1.8-3,2.5-3.8c0.2-0.2,0.4-0.4,0.5-0.5c-0.1,0.1-0.2,0.3-0.3,0.5c-0.3,0.5-0.6,1.3-0.8,2.3
		c-0.2,1-0.2,2.3,0.1,3.7c0.3,1.4,1,2.8,2.1,4.1c1,1.3,2.3,2.2,3.6,2.8c1.3,0.6,2.5,0.9,3.5,1c0.9,0.1,1.6,0,2.1,0
		c0.1,0.1,0.2,0.1,0.3,0.2c0.8,0.6,1.6,0.7,2.1,0.8c0.5,0.1,0.8,0,0.8,0c0,0-0.2-0.1-0.7-0.4c-0.4-0.3-1-0.7-1.5-1.3
		c-0.5-0.6-0.8-1.5-0.9-2.4c-0.1-1-0.1-2.1,0.1-3.4c0.5-3.3,1.4-6.3,1.9-7.9c0,0.1,0.1,0.3,0.2,0.4c0.2,0.5,0.6,1.1,1.1,1.6
		c1,1.1,2.6,1.9,4.2,2.6c1.2,0.5,2.6,1,3.9,1.6c-0.5,2.5-0.3,4.9,0,6.6c0.3,1.8,0.7,2.9,0.7,2.9l1.5-8.3c0.1-0.4,0.2-0.8,0.3-1.2
		c0.1-0.4,0.2-0.8,0.3-1.2c0.5-2.1,1.1-3.9,1.7-5.2c0.7-1.6,1.3-2.6,1.3-2.6c0,0-1,0.5-2.3,2c-0.6,0.7-1.3,1.6-1.9,2.7
		c-0.3,0.7-0.6,1.4-0.9,2.2c-0.4-0.1-0.7-0.3-1.1-0.4c-0.9-0.3-1.8-0.6-2.7-0.8c-1.7-0.5-3.1-1-4.1-1.7c-0.9-0.6-1.5-1.3-1.8-2
		c0-0.1-0.1-0.1-0.1-0.2c-0.1,0.1-0.2,0.2-0.3,0.3c-0.3,0.4-0.8,0.9-1.3,1.6c-1,1.5-2.3,3.8-2.7,6.6c-0.2,1.4-0.1,2.9,0.3,4.1
		c0.2,0.8,0.6,1.5,1.1,2c-0.4-0.1-0.8-0.3-1.2-0.4c-1.7-0.7-3.8-2.1-5.6-4.2c-0.9-1-1.5-2.1-2-3.2c-0.5-1.1-0.7-2.1-0.8-3.1
		c-0.1-0.9-0.4-2.6,0-3c0.4-0.3,0.6-0.4,0.6-0.4c0,0-0.7,0.1-1.7,0.7c-1.1,0.6-2.5,1.7-3.8,3.5c-0.6,0.9-1.3,1.9-1.8,3.1
		c-0.5,1.2-0.9,2.6-1.1,4.1c-0.1,1.5,0,3.3,0.8,5c0.2,0.3,0.3,0.6,0.5,0.9c-0.8,0.1-1.7,0-2.5-0.1c-1.6-0.3-3-1-4.3-1.8
		c-2.5-1.6-4.4-3.8-5.5-5.7c-0.5-1-0.9-1.9-1-2.7c-0.2-0.9-0.2-1.6-0.1-2.2c0.1-0.6,0.3-1.1,0.5-1.4c0.1-0.3,0.2-0.4,0.2-0.4
		c0,0-0.2,0.1-0.4,0.4C68.7,28.3,68.3,28.7,68,29.4z"/>
	<radialGradient id="SVGID_48_" cx="125.2491" cy="129.774" r="131.4425" gradientUnits="userSpaceOnUse">
		<stop  offset="0" style="stop-color:#FFFFFF"/>
		<stop  offset="0.6649" style="stop-color:#FFFFFF;stop-opacity:0.6"/>
		<stop  offset="0.8595" style="stop-color:#FFFFFF"/>
	</radialGradient>
	<path class="st47" d="M88.3,25.2C88.3,25.4,89.5,24.4,88.3,25.2L88.3,25.2z"/>
	<radialGradient id="SVGID_49_" cx="125.2491" cy="129.774" r="131.4425" gradientUnits="userSpaceOnUse">
		<stop  offset="0" style="stop-color:#FFFFFF"/>
		<stop  offset="0.6649" style="stop-color:#FFFFFF;stop-opacity:0.6"/>
		<stop  offset="0.8595" style="stop-color:#FFFFFF"/>
	</radialGradient>
	<path class="st48" d="M115.7,26.7c0.3,1.4,1.1,3,2.1,4.6c0.5,0.8,1.1,1.6,1.7,2.3c0.6,0.8,1.2,1.6,1.6,2.4c1,1.8,2.1,3.5,3,5
		c0.9,1.5,1.5,2.9,1.9,4.2c0.8,2.5,0.4,4.3,0.4,4.3c0,0,0.2-0.4,0.4-1.1c0.1-0.4,0.3-1,0.3-1.7c0,0.3,0.1,0.5,0.2,0.7
		c0.2,0.8,0.4,1.1,0.4,1.1c0,0-0.1-0.4-0.1-1.2c0-0.7,0.2-1.8,0.6-3c0.5-1.2,1.3-2.4,2.3-3.8l1.6-2.2c0.3-0.4,0.6-0.8,0.8-1.2
		c0.1-0.2,0.3-0.4,0.4-0.7l0.4-0.6c0.5-0.8,1.1-1.6,1.6-2.3c0.6-0.8,1.1-1.5,1.6-2.3c1-1.5,1.7-3.1,2-4.5c0.2-0.7,0.2-1.4,0.1-2
		c-0.1-0.6-0.2-1-0.4-1.4c-0.3-0.7-0.7-1-0.6-1c0,0,0.2,0.4,0.3,1.1c0.1,0.7,0,1.8-0.5,2.9c-0.5,1.1-1.4,2.4-2.5,3.7l-1.8,2.1
		c-0.6,0.7-1.3,1.5-1.9,2.5l-0.8,1.3l-0.7,1.2c-0.5,0.8-1,1.6-1.4,2.4c-0.9,1.6-1.5,3.2-1.8,4.6c0,0.2-0.1,0.5-0.1,0.7
		c-0.2-1.4-0.6-3-1.3-4.6c-0.7-1.7-1.7-3.5-2.7-5.3c-0.6-1-1.2-1.8-1.9-2.6l-1.8-2.1c-1.1-1.3-2.1-2.6-2.6-3.8
		c-0.6-1.1-0.7-2.2-0.5-2.9c0.1-0.7,0.3-1.1,0.3-1.1c0,0-0.3,0.3-0.6,1c-0.2,0.4-0.3,0.9-0.4,1.4C115.5,25.3,115.6,25.9,115.7,26.7z
		"/>
	<radialGradient id="SVGID_50_" cx="125.2491" cy="129.774" r="131.4425" gradientUnits="userSpaceOnUse">
		<stop  offset="0" style="stop-color:#FFFFFF"/>
		<stop  offset="0.6649" style="stop-color:#FFFFFF;stop-opacity:0.6"/>
		<stop  offset="0.8595" style="stop-color:#FFFFFF"/>
	</radialGradient>
	<path class="st49" d="M94,181c-1,0.2-2,0.6-2.9,1.1c-1.7,1-3,2.4-4,3.8c-1.9,2.9-2.5,5.9-2.6,8.3c-0.1,2.4,0.5,4.3,1,5.4
		c0.5,1.1,1,1.7,1,1.7c0,0-0.3-0.7-0.4-1.9c-0.2-1.2-0.2-3.1,0.3-5.2c0.5-2.1,1.4-4.6,3.1-6.9c0.8-1.1,1.9-2.1,3.2-2.9
		c1.2-0.7,2.7-1.2,4.3-1.1l4.5,0C98.8,181,95,180.8,94,181z"/>
	<radialGradient id="SVGID_51_" cx="125.2491" cy="129.774" r="131.4425" gradientUnits="userSpaceOnUse">
		<stop  offset="0" style="stop-color:#FFFFFF"/>
		<stop  offset="0.6649" style="stop-color:#FFFFFF;stop-opacity:0.6"/>
		<stop  offset="0.8595" style="stop-color:#FFFFFF"/>
	</radialGradient>
	<path class="st50" d="M93.2,185.2c-1.9,1.5-2.9,3.2-3.5,4.7c-0.6,1.5-0.9,2.7-1,3.6c-0.1,0.9,0,1.3,0,1.3c0,0,0.8-1.8,2.7-4.2
		c0.9-1.1,2.1-2.4,3.6-3.5c1.5-1,3.3-1.7,5.3-1.2l4,0.4c-1.9-1.9-6.2-3.3-7.6-3C95.2,183.8,94.1,184.5,93.2,185.2z"/>
	<radialGradient id="SVGID_52_" cx="125.2491" cy="129.774" r="131.4425" gradientUnits="userSpaceOnUse">
		<stop  offset="0" style="stop-color:#FFFFFF"/>
		<stop  offset="0.6649" style="stop-color:#FFFFFF;stop-opacity:0.6"/>
		<stop  offset="0.8595" style="stop-color:#FFFFFF"/>
	</radialGradient>
	<path class="st51" d="M108.9,119.2c-0.2,0-0.2-0.3-0.3-0.4c-0.1-0.2-0.1-0.3-0.2-0.5c0,0,0-0.1-0.1-0.1c-0.2-0.1-0.4-0.2-0.5-0.2
		l-0.1,0l-0.2,0c-0.4-0.1-0.9,0-1.3,0.1c-0.4,0.1-0.7,0.3-0.9,0.4c-0.2,0.1-0.4,0.2-0.5,0.2c-0.1,0-0.1,0-0.1,0c0,0-0.1,0-0.1,0
		l-0.7,0l-2.7-0.1c-1.7-0.1-3.1-0.2-4.3-0.6c-1.1-0.4-2-1.2-2.7-2c-0.7-0.8-1.2-1.6-1.6-2.2c-0.8-1.3-1.2-2-1.2-2
		c0,0,0.2,0.9,0.7,2.4c0.3,0.8,0.7,1.7,1.3,2.8c0.3,0.5,0.7,1.1,1.2,1.6c0.5,0.5,1.2,1,1.9,1.3c1.5,0.7,3.2,1,4.9,1.2l2.6,0.3l0.2,0
		c0.1,0,0.2,0,0.3,0c0.2,0,0.4,0,0.6,0c0.4-0.1,0.7-0.2,1-0.3c0.3-0.1,0.5-0.2,0.6-0.3c0.1,0,0.2-0.1,0.2-0.1l0,0.1l0,0.1
		c0,0.1,0,0,0,0.1l0,0.1l0.1,0.2c0.1,0.1,0.1,0.3,0.2,0.4c0.1,0.2,0.3,0.4,0.4,0.6c0.2,0.3,0.4,0.5,0.5,0.6c0.1,0.1,0.3,0.3,0.4,0.4
		c0.1,0.1,0.3,0.2,0.5,0.3c0.2,0.1,0.6,0.1,0.9,0c0.6-0.2,1.3-0.5,1.7-1c0.4-0.5,0.7-1.1,0.8-1.8c0.1-0.6,0.1-1.4-0.1-2.2
		c0.3,0.1,0.7,0.2,1.1,0.2c0.3,0,0.6,0,0.9-0.1c-0.1,0.2-0.1,0.3-0.2,0.5c-0.6,1.5-1.2,3-1.8,4.6l-0.5,1.2c-0.2,0.5-0.3,0.9-0.5,1.3
		c-0.3,0.9-0.6,1.7-0.9,2.6c-2.3,7.2-3.3,14.1-3,19.1c0.1,2.5,0.6,4.5,1.1,5.8c0.5,1.3,1,1.9,1,1.9c0,0-0.3-0.7-0.5-2
		c-0.2-1.3-0.2-3.3,0-5.6c0.5-4.7,2.2-11.2,4.4-18.2c0.3-0.9,0.6-1.7,0.9-2.6c0.1-0.4,0.3-0.8,0.4-1.2l0.5-1.2
		c0.6-1.7,1.1-3.3,1.6-4.9c1.2-3.9-0.1-8.8-0.1-8.8c0.3,2-1,4.2-1.9,6.6c-0.3,0.1-0.7,0.1-1.1,0c-0.6-0.1-1.2-0.5-1.7-1.1
		c-0.1-0.1-0.2-0.2-0.3-0.3c-0.4-0.5-0.9-1.1-1.3-1.8c-0.2-0.3-0.4-0.6-0.5-0.9l-0.9-1.7c-0.2-0.3-0.3-0.6-0.5-0.9
		c-0.1-0.2-0.2-0.3-0.3-0.5l-0.2-0.2l-0.1-0.1l-0.1-0.1c-0.8-1.2-1.9-2.6-3.5-3.5c-0.8-0.5-1.7-0.8-2.6-1.1
		c-0.9-0.2-1.8-0.3-2.7-0.3c-0.9,0-1.7,0-2.5,0.1l-0.6,0.1l-0.2,0h-0.2l-1.1,0c-1.5,0-2.9-0.1-4.2-0.3c-1.3-0.2-2.5-0.5-3.5-1
		c-1-0.4-1.9-1-2.6-1.7c-1.3-1.4-1.9-3.1-2.1-4.2c-0.2-1.2-0.2-1.8-0.2-1.8c0,0-0.2,0.7-0.2,1.9c0,0.6,0,1.4,0.2,2.3
		c0.2,0.9,0.5,1.9,1.2,2.9c0.6,1,1.6,1.9,2.8,2.6c1.2,0.7,2.5,1.3,4,1.7c0.8,0.2,1.7,0.4,2.6,0.5c0,0.5,0,1.2,0.1,2
		c0.2,1.1,0.8,2.4,1.8,3.6c1,1.2,2.3,2.3,3.9,3c1.6,0.7,3.3,1,4.8,1c1.5,0,2.9-0.4,3.9-0.9c0.9-0.4,1.5-0.9,1.9-1.3
		c0.2,0.4,0.5,0.8,0.6,0.9c0.1,0.2,0.2,0.4,0.3,0.7c0.1,0.1,0.1,0.2,0.1,0.2l0,0.2c0,0.1,0,0.2,0.1,0.3c0.1,0.4,0.1,0.8-0.2,1.1
		C109.3,119.2,109.1,119.3,108.9,119.2z M95.9,112c-0.9-0.8-1.7-1.6-2.2-2.4c-0.3-0.5-0.5-0.9-0.7-1.3c0.4,0,0.7,0.1,1.1,0.1
		c0.4,0,0.8,0,1.2,0.1l0.3,0l0.3,0l0.6,0c0.1,0,0.2,0,0.3,0c-0.2,0.3-0.3,0.7-0.4,1.1c-0.2,0.8-0.2,1.9,0.3,3c0,0.1,0.1,0.2,0.1,0.2
		C96.5,112.5,96.2,112.3,95.9,112z M100.4,112.9c-0.8-0.3-1.5-0.9-2-1.4c-0.5-0.6-0.8-1.3-0.9-1.9c-0.1-0.4-0.1-0.8-0.1-1.2
		c0.4,0,0.9,0,1.3,0c1.5,0,2.8,0.3,3.9,0.9c1.1,0.6,2,1.4,2.8,2.4c-0.2,0.3-0.4,0.7-0.8,1c-0.5,0.4-1.1,0.7-1.8,0.7
		C102.1,113.5,101.3,113.3,100.4,112.9z M106.2,115.5c-0.8,0.1-1.8,0-2.8-0.1c0.5-0.2,1-0.4,1.4-0.8c0.4-0.4,0.7-0.8,0.9-1.2
		c0.2-0.4,0.3-0.8,0.3-1.1l0.2,0.3c0.2,0.3,0.4,0.5,0.6,0.8c0.4,0.5,0.8,1.1,1.2,1.6c0,0.1,0.1,0.1,0.2,0.2
		C107.6,115.3,107,115.4,106.2,115.5z"/>
	<radialGradient id="SVGID_53_" cx="125.2491" cy="129.774" r="131.4425" gradientUnits="userSpaceOnUse">
		<stop  offset="0" style="stop-color:#FFFFFF"/>
		<stop  offset="0.6649" style="stop-color:#FFFFFF;stop-opacity:0.6"/>
		<stop  offset="0.8595" style="stop-color:#FFFFFF"/>
	</radialGradient>
	<path class="st52" d="M134.5,71.9c-0.8,1.5-1.2,3.2-1.5,4.9c0,0.1,0.1,0.3,0.1,0.4c0.3,1.6,0.7,3.2,1,4.6c0.3,1.4,0.5,2.6,0.5,3.7
		c0.1,2.1-0.2,3.4-0.2,3.4c0,0,0.2-0.3,0.5-0.8c0.3-0.5,0.6-1.3,0.9-2.4c0.2-1.1,0.4-2.4,0.3-3.8c-0.1-1.2-0.2-2.4-0.5-3.7
		c0,0,0-0.1,0-0.1c0.1-1,0.3-2.1,0.9-3.1c0.6-1,1.7-1.9,3.1-2.4c1.4-0.5,3-0.7,4.6-0.8c1.5,0,3,0.2,4.2,0.4c2.4,0.4,4,0.9,4,0.9
		c0,0-0.3-0.2-0.9-0.6c-0.6-0.3-1.6-0.8-2.8-1.3c-1.2-0.5-2.8-0.9-4.6-1.1c-1.8-0.2-3.8-0.1-5.6,0.6c-0.9,0.3-1.7,0.8-2.4,1.4
		c-0.6,0.5-1,1.1-1.2,1.7c-0.1-0.4-0.1-0.8-0.1-1.2c0-0.4,0-0.8,0-1.1C134.6,71.7,134.5,71.8,134.5,71.9z"/>
	<radialGradient id="SVGID_54_" cx="125.2491" cy="129.774" r="131.4425" gradientUnits="userSpaceOnUse">
		<stop  offset="0" style="stop-color:#FFFFFF"/>
		<stop  offset="0.6649" style="stop-color:#FFFFFF;stop-opacity:0.6"/>
		<stop  offset="0.8595" style="stop-color:#FFFFFF"/>
	</radialGradient>
	<path class="st53" d="M121.8,82.5c-0.1,0.5-0.2,0.8-0.2,0.8s0.2-0.2,0.6-0.6c0.3-0.4,0.8-1,1.2-1.9c0.4-0.9,0.7-2.1,0.6-3.5
		c-0.1-1.4-0.6-2.9-1.6-4.1c-1-1.3-2.2-2.1-3.5-2.6c-1.2-0.5-2.4-0.7-3.4-0.7c-1,0-1.7,0.2-2.3,0.3c-0.5,0.2-0.8,0.3-0.8,0.3
		c0,0,1.2,0,2.8,0.5c1.7,0.5,3.7,1.7,5.2,3.6c0.7,0.9,1.2,2,1.5,3c0.3,1,0.3,2,0.2,2.9C122.1,81.3,121.9,82,121.8,82.5z"/>
</g>
<path class="st54" d="M132.9,121c-2,0-3.8-1.1-4.7-2.9c-1.1-2.1-0.7-4.6,0.9-6.3l0.2-0.2c3.6-3.7,6.2-6.4,7.4-11.4
	c0.6-2.6-0.6-5.3-2.9-6.6c-0.9-0.5-1.8-0.7-2.8-0.7c-1.6,0-3.1,0.7-4.2,1.8c-1.1,1.1-1.6,2.6-1.6,4.2c0,0.8,0.2,1.7,0.6,2.4
	c0,0,0,0,0,0c0,0,0,0,0,0.1c0,0.1,0.1,0.2,0.2,0.3c0.9,1,1.4,2.3,1.4,3.6c0,3-2.4,5.4-5.3,5.4c-2.9,0-5.3-2.4-5.3-5.4
	c0-3,2.4-5.4,5.3-5.4c0.1,0,0.3,0,0.4,0c0,0,0.1,0,0.1,0c0.3,0,0.6-0.1,0.8-0.3c0.2-0.2,0.4-0.5,0.4-0.9c0-1.9,0.7-3.7,2-5
	c1.4-1.4,3.3-2.2,5.3-2.2c1.2,0,2.5,0.3,3.5,0.9c2.9,1.6,4.4,5,3.6,8.3c-1.3,5.5-4.1,8.3-7.8,12.1l-0.2,0.2
	c-1.2,1.2-1.4,3.1-0.7,4.5c0.7,1.3,2,2.1,3.4,2.1c0.2,0,0.5,0,0.7-0.1c1.6-0.3,2.9-1.7,3.1-3.4c0-0.4,0.4-0.7,0.7-0.7
	c0.5,0.1,0.8,0.4,0.7,0.8c-0.3,2.4-2,4.2-4.3,4.7C133.5,121,133.2,121,132.9,121L132.9,121z M122.1,101.3c-2.1,0-3.9,1.8-3.9,3.9
	c0,2.2,1.7,3.9,3.9,3.9c2.1,0,3.9-1.8,3.9-3.9C126,103.1,124.2,101.3,122.1,101.3L122.1,101.3z"/>
</svg>
