<?xml version="1.0" encoding="utf-8"?>
<!-- Generator: Adobe Illustrator 21.1.0, SVG Export Plug-In . SVG Version: 6.00 Build 0)  -->
<svg version="1.1" id="Layer_8" xmlns="http://www.w3.org/2000/svg" xmlns:xlink="http://www.w3.org/1999/xlink" x="0px" y="0px"
	 viewBox="0 0 601 153.1" style="enable-background:new 0 0 601 153.1;" xml:space="preserve">
<style type="text/css">
	.st0{fill:url(#SVGID_1_);}
	.st1{fill:url(#SVGID_2_);}
	.st2{fill:url(#SVGID_3_);}
	.st3{fill:url(#SVGID_4_);}
	.st4{fill:url(#SVGID_5_);}
	.st5{fill:url(#SVGID_6_);}
	.st6{fill:url(#SVGID_7_);}
	.st7{fill:url(#SVGID_8_);}
	.st8{fill:url(#SVGID_9_);}
	.st9{fill:url(#SVGID_10_);}
	.st10{fill:url(#SVGID_11_);}
	.st11{fill:url(#SVGID_12_);}
	.st12{fill:url(#SVGID_13_);}
	.st13{fill:url(#SVGID_14_);}
	.st14{fill:url(#SVGID_15_);}
	.st15{fill:url(#SVGID_16_);}
	.st16{fill:url(#SVGID_17_);}
	.st17{fill:url(#SVGID_18_);}
	.st18{fill:url(#SVGID_19_);}
	.st19{fill:url(#SVGID_20_);}
</style>
<g>
	<g>
		<linearGradient id="SVGID_1_" gradientUnits="userSpaceOnUse" x1="221.4797" y1="48.7822" x2="223.7491" y2="113.7712">
			<stop  offset="0" style="stop-color:#414042"/>
			<stop  offset="8.924593e-02" style="stop-color:#434344"/>
			<stop  offset="0.1376" style="stop-color:#4B4B4D"/>
			<stop  offset="0.1761" style="stop-color:#57575A"/>
			<stop  offset="0.2094" style="stop-color:#67686B"/>
			<stop  offset="0.2394" style="stop-color:#7A7C7F"/>
			<stop  offset="0.267" style="stop-color:#919396"/>
			<stop  offset="0.2923" style="stop-color:#ADAFB2"/>
			<stop  offset="0.303" style="stop-color:#BCBEC0"/>
			<stop  offset="0.3959" style="stop-color:#818385"/>
			<stop  offset="0.4723" style="stop-color:#555557"/>
			<stop  offset="0.5091" style="stop-color:#414042"/>
			<stop  offset="0.5311" style="stop-color:#67696B"/>
			<stop  offset="0.5626" style="stop-color:#929497"/>
			<stop  offset="0.5919" style="stop-color:#B5B7BA"/>
			<stop  offset="0.6178" style="stop-color:#D0D2D3"/>
			<stop  offset="0.6395" style="stop-color:#E0E1E3"/>
			<stop  offset="0.6544" style="stop-color:#E6E7E8"/>
			<stop  offset="0.6615" style="stop-color:#D1D2D4"/>
			<stop  offset="0.6767" style="stop-color:#9B9DA0"/>
			<stop  offset="0.6987" style="stop-color:#474749"/>
			<stop  offset="0.7052" style="stop-color:#000000"/>
			<stop  offset="0.8126" style="stop-color:#080808"/>
			<stop  offset="0.8581" style="stop-color:#202020"/>
			<stop  offset="0.8918" style="stop-color:#3B3A3C"/>
			<stop  offset="0.9198" style="stop-color:#4E4E50"/>
			<stop  offset="0.9442" style="stop-color:#626365"/>
			<stop  offset="0.9661" style="stop-color:#787A7C"/>
			<stop  offset="0.9857" style="stop-color:#909295"/>
			<stop  offset="1" style="stop-color:#A7A9AC"/>
		</linearGradient>
		<path class="st0" d="M231.5,108.9v-7.1h5.9l-4.5-13.1H214l-5.1,15l0,5.1h-14.6v-7.1h7.2L217,57.1l1.5-4.7h18.1v7.1h-5.9l14.8,42.4
			h7.1v7.1H231.5z M230.5,81.7l-7-20.5l-7,20.5H230.5z"/>
		<linearGradient id="SVGID_2_" gradientUnits="userSpaceOnUse" x1="271.4211" y1="47.0386" x2="273.6906" y2="112.0274">
			<stop  offset="0" style="stop-color:#414042"/>
			<stop  offset="8.924593e-02" style="stop-color:#434344"/>
			<stop  offset="0.1376" style="stop-color:#4B4B4D"/>
			<stop  offset="0.1761" style="stop-color:#57575A"/>
			<stop  offset="0.2094" style="stop-color:#67686B"/>
			<stop  offset="0.2394" style="stop-color:#7A7C7F"/>
			<stop  offset="0.267" style="stop-color:#919396"/>
			<stop  offset="0.2923" style="stop-color:#ADAFB2"/>
			<stop  offset="0.303" style="stop-color:#BCBEC0"/>
			<stop  offset="0.3959" style="stop-color:#818385"/>
			<stop  offset="0.4723" style="stop-color:#555557"/>
			<stop  offset="0.5091" style="stop-color:#414042"/>
			<stop  offset="0.5311" style="stop-color:#67696B"/>
			<stop  offset="0.5626" style="stop-color:#929497"/>
			<stop  offset="0.5919" style="stop-color:#B5B7BA"/>
			<stop  offset="0.6178" style="stop-color:#D0D2D3"/>
			<stop  offset="0.6395" style="stop-color:#E0E1E3"/>
			<stop  offset="0.6544" style="stop-color:#E6E7E8"/>
			<stop  offset="0.6615" style="stop-color:#D1D2D4"/>
			<stop  offset="0.6767" style="stop-color:#9B9DA0"/>
			<stop  offset="0.6987" style="stop-color:#474749"/>
			<stop  offset="0.7052" style="stop-color:#000000"/>
			<stop  offset="0.8126" style="stop-color:#080808"/>
			<stop  offset="0.8581" style="stop-color:#202020"/>
			<stop  offset="0.8918" style="stop-color:#3B3A3C"/>
			<stop  offset="0.9198" style="stop-color:#4E4E50"/>
			<stop  offset="0.9442" style="stop-color:#626365"/>
			<stop  offset="0.9661" style="stop-color:#787A7C"/>
			<stop  offset="0.9857" style="stop-color:#909295"/>
			<stop  offset="1" style="stop-color:#A7A9AC"/>
		</linearGradient>
		<path class="st1" d="M255.8,109V59.4H248v-7.1h27.8c4.7,0,8.5,1.3,11.5,4c3.1,2.7,4.6,6.3,4.6,10.5c0,4-1.1,7.2-3.3,9.9
			c-1.9,2.2-4.6,3.7-8.1,4.8l9.2,20.4h7.4v7.1h-12.7l-11.9-26.5h-8.8V109H255.8z M273.5,75.4c3.5,0,6.2-0.7,8-2.1
			c1.7-1.3,2.5-3.3,2.5-6c0-2.5-0.8-4.3-2.4-5.6c-1.6-1.5-3.8-2.2-6.8-2.2h-11.2v16H273.5z"/>
		<linearGradient id="SVGID_3_" gradientUnits="userSpaceOnUse" x1="306.5487" y1="45.8129" x2="308.8182" y2="110.8019">
			<stop  offset="0" style="stop-color:#414042"/>
			<stop  offset="8.924593e-02" style="stop-color:#434344"/>
			<stop  offset="0.1376" style="stop-color:#4B4B4D"/>
			<stop  offset="0.1761" style="stop-color:#57575A"/>
			<stop  offset="0.2094" style="stop-color:#67686B"/>
			<stop  offset="0.2394" style="stop-color:#7A7C7F"/>
			<stop  offset="0.267" style="stop-color:#919396"/>
			<stop  offset="0.2923" style="stop-color:#ADAFB2"/>
			<stop  offset="0.303" style="stop-color:#BCBEC0"/>
			<stop  offset="0.3959" style="stop-color:#818385"/>
			<stop  offset="0.4723" style="stop-color:#555557"/>
			<stop  offset="0.5091" style="stop-color:#414042"/>
			<stop  offset="0.5311" style="stop-color:#67696B"/>
			<stop  offset="0.5626" style="stop-color:#929497"/>
			<stop  offset="0.5919" style="stop-color:#B5B7BA"/>
			<stop  offset="0.6178" style="stop-color:#D0D2D3"/>
			<stop  offset="0.6395" style="stop-color:#E0E1E3"/>
			<stop  offset="0.6544" style="stop-color:#E6E7E8"/>
			<stop  offset="0.6615" style="stop-color:#D1D2D4"/>
			<stop  offset="0.6767" style="stop-color:#9B9DA0"/>
			<stop  offset="0.6987" style="stop-color:#474749"/>
			<stop  offset="0.7052" style="stop-color:#000000"/>
			<stop  offset="0.8126" style="stop-color:#080808"/>
			<stop  offset="0.8581" style="stop-color:#202020"/>
			<stop  offset="0.8918" style="stop-color:#3B3A3C"/>
			<stop  offset="0.9198" style="stop-color:#4E4E50"/>
			<stop  offset="0.9442" style="stop-color:#626365"/>
			<stop  offset="0.9661" style="stop-color:#787A7C"/>
			<stop  offset="0.9857" style="stop-color:#909295"/>
			<stop  offset="1" style="stop-color:#A7A9AC"/>
		</linearGradient>
		<path class="st2" d="M298,108.9v-7.1h6.6V52.4h7.9v49.5h6.7v7.1H298z M304.6,51.9v-8.5h7.9v8.5H304.6z"/>
		<linearGradient id="SVGID_4_" gradientUnits="userSpaceOnUse" x1="340.6107" y1="44.6233" x2="342.8801" y2="109.6123">
			<stop  offset="0" style="stop-color:#414042"/>
			<stop  offset="8.924593e-02" style="stop-color:#434344"/>
			<stop  offset="0.1376" style="stop-color:#4B4B4D"/>
			<stop  offset="0.1761" style="stop-color:#57575A"/>
			<stop  offset="0.2094" style="stop-color:#67686B"/>
			<stop  offset="0.2394" style="stop-color:#7A7C7F"/>
			<stop  offset="0.267" style="stop-color:#919396"/>
			<stop  offset="0.2923" style="stop-color:#ADAFB2"/>
			<stop  offset="0.303" style="stop-color:#BCBEC0"/>
			<stop  offset="0.3959" style="stop-color:#818385"/>
			<stop  offset="0.4723" style="stop-color:#555557"/>
			<stop  offset="0.5091" style="stop-color:#414042"/>
			<stop  offset="0.5311" style="stop-color:#67696B"/>
			<stop  offset="0.5626" style="stop-color:#929497"/>
			<stop  offset="0.5919" style="stop-color:#B5B7BA"/>
			<stop  offset="0.6178" style="stop-color:#D0D2D3"/>
			<stop  offset="0.6395" style="stop-color:#E0E1E3"/>
			<stop  offset="0.6544" style="stop-color:#E6E7E8"/>
			<stop  offset="0.6615" style="stop-color:#D1D2D4"/>
			<stop  offset="0.6767" style="stop-color:#9B9DA0"/>
			<stop  offset="0.6987" style="stop-color:#474749"/>
			<stop  offset="0.7052" style="stop-color:#000000"/>
			<stop  offset="0.8126" style="stop-color:#080808"/>
			<stop  offset="0.8581" style="stop-color:#202020"/>
			<stop  offset="0.8918" style="stop-color:#3B3A3C"/>
			<stop  offset="0.9198" style="stop-color:#4E4E50"/>
			<stop  offset="0.9442" style="stop-color:#626365"/>
			<stop  offset="0.9661" style="stop-color:#787A7C"/>
			<stop  offset="0.9857" style="stop-color:#909295"/>
			<stop  offset="1" style="stop-color:#A7A9AC"/>
		</linearGradient>
		<polygon class="st3" points="324.9,108.9 324.9,59.4 318.1,59.4 318.1,52.4 363.9,52.4 363.9,68.8 356.9,68.8 356.9,59.4 
			332.8,59.4 332.8,76.5 354.7,76.5 354.7,83.5 332.8,83.5 332.8,101.8 364,101.8 364,108.9 		"/>
		<linearGradient id="SVGID_5_" gradientUnits="userSpaceOnUse" x1="385.2162" y1="43.066" x2="387.4857" y2="108.0548">
			<stop  offset="0" style="stop-color:#414042"/>
			<stop  offset="8.924593e-02" style="stop-color:#434344"/>
			<stop  offset="0.1376" style="stop-color:#4B4B4D"/>
			<stop  offset="0.1761" style="stop-color:#57575A"/>
			<stop  offset="0.2094" style="stop-color:#67686B"/>
			<stop  offset="0.2394" style="stop-color:#7A7C7F"/>
			<stop  offset="0.267" style="stop-color:#919396"/>
			<stop  offset="0.2923" style="stop-color:#ADAFB2"/>
			<stop  offset="0.303" style="stop-color:#BCBEC0"/>
			<stop  offset="0.3959" style="stop-color:#818385"/>
			<stop  offset="0.4723" style="stop-color:#555557"/>
			<stop  offset="0.5091" style="stop-color:#414042"/>
			<stop  offset="0.5311" style="stop-color:#67696B"/>
			<stop  offset="0.5626" style="stop-color:#929497"/>
			<stop  offset="0.5919" style="stop-color:#B5B7BA"/>
			<stop  offset="0.6178" style="stop-color:#D0D2D3"/>
			<stop  offset="0.6395" style="stop-color:#E0E1E3"/>
			<stop  offset="0.6544" style="stop-color:#E6E7E8"/>
			<stop  offset="0.6615" style="stop-color:#D1D2D4"/>
			<stop  offset="0.6767" style="stop-color:#9B9DA0"/>
			<stop  offset="0.6987" style="stop-color:#474749"/>
			<stop  offset="0.7052" style="stop-color:#000000"/>
			<stop  offset="0.8126" style="stop-color:#080808"/>
			<stop  offset="0.8581" style="stop-color:#202020"/>
			<stop  offset="0.8918" style="stop-color:#3B3A3C"/>
			<stop  offset="0.9198" style="stop-color:#4E4E50"/>
			<stop  offset="0.9442" style="stop-color:#626365"/>
			<stop  offset="0.9661" style="stop-color:#787A7C"/>
			<stop  offset="0.9857" style="stop-color:#909295"/>
			<stop  offset="1" style="stop-color:#A7A9AC"/>
		</linearGradient>
		<path class="st4" d="M388,109.7c-3.2,0-6.3-0.7-9.2-2.2c-1.4-0.7-2.7-1.6-3.9-2.6v4h-7.1V87.2h7.1v3.7c0,3,1.3,5.6,3.8,8
			c2.6,2.3,5.8,3.5,9.4,3.5c3.1,0,5.7-0.9,7.8-2.8c2-1.7,3-4,3-6.8c0-2.4-0.9-4.3-2.7-5.6c-1-0.8-2.4-1.5-4.2-2.2
			c-1.8-0.7-4.1-1.4-6.9-2.1c-2.8-0.7-5.4-1.6-7.5-2.5c-2.2-1-4-2.1-5.4-3.4c-2.9-2.6-4.4-6.1-4.4-10.8c0-4.1,1.7-7.6,5.1-10.5
			c3.4-2.8,7.3-4.2,12.1-4.2c1.4,0,2.8,0.1,4.2,0.3c1.5,0.2,2.9,0.6,4.3,1.2c1.3,0.6,2.4,1.2,3.4,1.7c1,0.6,2.1,1.5,3.2,2.6
			c0.6,0.7,1.1,1.3,1.5,1.8c0.4,0.5,0.8,1.3,1.2,2.1c0.3,0.6,0.6,1.5,0.7,2.5c0.2,0.9,0.3,1.9,0.4,2.7c0.1,0.5,0.1,1.1,0.2,1.8
			l0.1,2h-7.7v-2.8c0-0.3-0.1-0.8-0.1-1.4c-0.1-0.6-0.3-1.2-0.5-1.8c-0.2-0.6-0.5-1.3-0.9-1.8c-0.4-0.6-0.8-1.1-1.3-1.5
			c-1.1-0.8-2.4-1.4-3.8-1.6c-1.5-0.3-3.1-0.4-5-0.4c-2.8,0-5.1,0.7-6.8,2.2c-1.7,1.4-2.5,3.1-2.5,5.3c0,2.4,0.9,4.2,2.7,5.4
			c1,0.7,2.3,1.4,3.8,1.9c1.4,0.6,3.1,1.1,5,1.5c3.6,0.9,6.8,1.9,9.3,3c2.6,1.1,4.6,2.4,6.1,3.7c3,2.8,4.5,6.5,4.5,11.3
			c0,4.8-1.8,8.6-5.6,11.8C397.6,108.1,393.2,109.7,388,109.7L388,109.7z"/>
	</g>
	<g>
		<linearGradient id="SVGID_6_" gradientUnits="userSpaceOnUse" x1="220.4789" y1="46.3561" x2="222.8159" y2="113.2809">
			<stop  offset="0" style="stop-color:#F1F2F2"/>
			<stop  offset="0.1266" style="stop-color:#D4D6D7"/>
			<stop  offset="0.2904" style="stop-color:#B3B5B8"/>
			<stop  offset="0.3758" style="stop-color:#A7A9AC"/>
			<stop  offset="0.4229" style="stop-color:#818386"/>
			<stop  offset="0.4693" style="stop-color:#616264"/>
			<stop  offset="0.5056" style="stop-color:#4A4A4C"/>
			<stop  offset="0.5273" style="stop-color:#414042"/>
			<stop  offset="0.5316" style="stop-color:#565759"/>
			<stop  offset="0.5396" style="stop-color:#747578"/>
			<stop  offset="0.5486" style="stop-color:#8C8E90"/>
			<stop  offset="0.5585" style="stop-color:#A0A3A5"/>
			<stop  offset="0.5697" style="stop-color:#B2B4B7"/>
			<stop  offset="0.5828" style="stop-color:#C0C2C4"/>
			<stop  offset="0.599" style="stop-color:#CACCCD"/>
			<stop  offset="0.6218" style="stop-color:#D0D1D3"/>
			<stop  offset="0.6848" style="stop-color:#D1D3D4"/>
			<stop  offset="0.7393" style="stop-color:#C4C6C8"/>
			<stop  offset="0.8453" style="stop-color:#A2A4A7"/>
			<stop  offset="0.9914" style="stop-color:#707274"/>
			<stop  offset="1" style="stop-color:#6D6E71"/>
		</linearGradient>
		<path class="st5" d="M231.6,106.8v-5h5.6c0.2,0,0.3-0.1,0.4-0.2c0.1-0.1,0.1-0.3,0.1-0.5L232.8,87c-0.1-0.2-0.3-0.3-0.5-0.3h-19.6
			c-0.2,0-0.4,0.1-0.5,0.3l-5.2,15.3l0,4.4h-12.5v-5h6.6c0.2,0,0.4-0.1,0.5-0.3l15.6-45l1.3-4h16.3v5H229c-0.2,0-0.3,0.1-0.4,0.2
			c-0.1,0.1-0.1,0.3-0.1,0.5l15.2,43.4c0.1,0.2,0.3,0.3,0.5,0.3h6.4v5H231.6z M222.5,58.1c-0.2,0-0.4,0.1-0.5,0.3L214.3,81
			c-0.1,0.2,0,0.3,0.1,0.5c0.1,0.1,0.3,0.2,0.4,0.2h15.5c0.2,0,0.3-0.1,0.4-0.2c0.1-0.1,0.1-0.3,0.1-0.5L223,58.4
			C222.9,58.2,222.8,58.1,222.5,58.1L222.5,58.1z"/>
		<linearGradient id="SVGID_7_" gradientUnits="userSpaceOnUse" x1="270.4186" y1="44.6128" x2="272.7557" y2="111.538">
			<stop  offset="0" style="stop-color:#F1F2F2"/>
			<stop  offset="0.1266" style="stop-color:#D4D6D7"/>
			<stop  offset="0.2904" style="stop-color:#B3B5B8"/>
			<stop  offset="0.3758" style="stop-color:#A7A9AC"/>
			<stop  offset="0.4229" style="stop-color:#818386"/>
			<stop  offset="0.4693" style="stop-color:#616264"/>
			<stop  offset="0.5056" style="stop-color:#4A4A4C"/>
			<stop  offset="0.5273" style="stop-color:#414042"/>
			<stop  offset="0.5316" style="stop-color:#565759"/>
			<stop  offset="0.5396" style="stop-color:#747578"/>
			<stop  offset="0.5486" style="stop-color:#8C8E90"/>
			<stop  offset="0.5585" style="stop-color:#A0A3A5"/>
			<stop  offset="0.5697" style="stop-color:#B2B4B7"/>
			<stop  offset="0.5828" style="stop-color:#C0C2C4"/>
			<stop  offset="0.599" style="stop-color:#CACCCD"/>
			<stop  offset="0.6218" style="stop-color:#D0D1D3"/>
			<stop  offset="0.6848" style="stop-color:#D1D3D4"/>
			<stop  offset="0.7393" style="stop-color:#C4C6C8"/>
			<stop  offset="0.8453" style="stop-color:#A2A4A7"/>
			<stop  offset="0.9914" style="stop-color:#707274"/>
			<stop  offset="1" style="stop-color:#6D6E71"/>
		</linearGradient>
		<path class="st6" d="M255.9,106.8v-49c0-0.3-0.2-0.5-0.5-0.5h-7.3v-5h26.8c4.4,0,8,1.2,10.8,3.8c2.9,2.6,4.3,5.7,4.3,9.7
			c0,3.8-1,6.8-3.1,9.2c-1.8,2.1-4.6,3.6-8.2,4.6l-0.3,0.7l9.6,21.2c0.1,0.2,0.3,0.3,0.5,0.3h6.7v5h-11l-11.8-26.1
			c-0.1-0.2-0.3-0.3-0.5-0.3h-9.7c-0.3,0-0.5,0.2-0.5,0.5v26H255.9z M262.3,57.4c-0.3,0-0.5,0.2-0.5,0.5v17c0,0.3,0.2,0.5,0.5,0.5
			h10.3c3.7,0,6.6-0.8,8.6-2.4c1.9-1.5,2.9-3.8,2.9-6.8c0-2.7-0.9-4.9-2.8-6.4c-1.7-1.6-4.2-2.5-7.4-2.5H262.3z"/>
		<linearGradient id="SVGID_8_" gradientUnits="userSpaceOnUse" x1="305.5478" y1="43.3846" x2="307.8849" y2="110.3099">
			<stop  offset="0" style="stop-color:#F1F2F2"/>
			<stop  offset="0.1266" style="stop-color:#D4D6D7"/>
			<stop  offset="0.2904" style="stop-color:#B3B5B8"/>
			<stop  offset="0.3758" style="stop-color:#A7A9AC"/>
			<stop  offset="0.4229" style="stop-color:#818386"/>
			<stop  offset="0.4693" style="stop-color:#616264"/>
			<stop  offset="0.5056" style="stop-color:#4A4A4C"/>
			<stop  offset="0.5273" style="stop-color:#414042"/>
			<stop  offset="0.5316" style="stop-color:#565759"/>
			<stop  offset="0.5396" style="stop-color:#747578"/>
			<stop  offset="0.5486" style="stop-color:#8C8E90"/>
			<stop  offset="0.5585" style="stop-color:#A0A3A5"/>
			<stop  offset="0.5697" style="stop-color:#B2B4B7"/>
			<stop  offset="0.5828" style="stop-color:#C0C2C4"/>
			<stop  offset="0.599" style="stop-color:#CACCCD"/>
			<stop  offset="0.6218" style="stop-color:#D0D1D3"/>
			<stop  offset="0.6848" style="stop-color:#D1D3D4"/>
			<stop  offset="0.7393" style="stop-color:#C4C6C8"/>
			<stop  offset="0.8453" style="stop-color:#A2A4A7"/>
			<stop  offset="0.9914" style="stop-color:#707274"/>
			<stop  offset="1" style="stop-color:#6D6E71"/>
		</linearGradient>
		<path class="st7" d="M298.1,106.8v-5h6.1c0.3,0,0.5-0.2,0.5-0.5V52.4h5.8v48.9c0,0.3,0.2,0.5,0.5,0.5h6.2v5H298.1z M304.6,49.9
			v-6.5h5.8v6.5H304.6z"/>
		<linearGradient id="SVGID_9_" gradientUnits="userSpaceOnUse" x1="339.6069" y1="42.1974" x2="341.944" y2="109.1224">
			<stop  offset="0" style="stop-color:#F1F2F2"/>
			<stop  offset="0.1266" style="stop-color:#D4D6D7"/>
			<stop  offset="0.2904" style="stop-color:#B3B5B8"/>
			<stop  offset="0.3758" style="stop-color:#A7A9AC"/>
			<stop  offset="0.4229" style="stop-color:#818386"/>
			<stop  offset="0.4693" style="stop-color:#616264"/>
			<stop  offset="0.5056" style="stop-color:#4A4A4C"/>
			<stop  offset="0.5273" style="stop-color:#414042"/>
			<stop  offset="0.5316" style="stop-color:#565759"/>
			<stop  offset="0.5396" style="stop-color:#747578"/>
			<stop  offset="0.5486" style="stop-color:#8C8E90"/>
			<stop  offset="0.5585" style="stop-color:#A0A3A5"/>
			<stop  offset="0.5697" style="stop-color:#B2B4B7"/>
			<stop  offset="0.5828" style="stop-color:#C0C2C4"/>
			<stop  offset="0.599" style="stop-color:#CACCCD"/>
			<stop  offset="0.6218" style="stop-color:#D0D1D3"/>
			<stop  offset="0.6848" style="stop-color:#D1D3D4"/>
			<stop  offset="0.7393" style="stop-color:#C4C6C8"/>
			<stop  offset="0.8453" style="stop-color:#A2A4A7"/>
			<stop  offset="0.9914" style="stop-color:#707274"/>
			<stop  offset="1" style="stop-color:#6D6E71"/>
		</linearGradient>
		<path class="st8" d="M324.9,106.8V57.9c0-0.3-0.2-0.5-0.5-0.5h-6.3v-5h43.8v14.3h-5v-8.8c0-0.3-0.2-0.5-0.5-0.5h-25.2
			c-0.3,0-0.5,0.2-0.5,0.5v18.1c0,0.3,0.2,0.5,0.5,0.5h21.5v5h-21.5c-0.3,0-0.5,0.2-0.5,0.5v19.3c0,0.3,0.2,0.5,0.5,0.5H362v5H324.9
			z"/>
		<linearGradient id="SVGID_10_" gradientUnits="userSpaceOnUse" x1="384.2329" y1="40.6376" x2="386.5699" y2="107.5627">
			<stop  offset="0" style="stop-color:#F1F2F2"/>
			<stop  offset="0.1266" style="stop-color:#D4D6D7"/>
			<stop  offset="0.2904" style="stop-color:#B3B5B8"/>
			<stop  offset="0.3758" style="stop-color:#A7A9AC"/>
			<stop  offset="0.4229" style="stop-color:#818386"/>
			<stop  offset="0.4693" style="stop-color:#616264"/>
			<stop  offset="0.5056" style="stop-color:#4A4A4C"/>
			<stop  offset="0.5273" style="stop-color:#414042"/>
			<stop  offset="0.5316" style="stop-color:#565759"/>
			<stop  offset="0.5396" style="stop-color:#747578"/>
			<stop  offset="0.5486" style="stop-color:#8C8E90"/>
			<stop  offset="0.5585" style="stop-color:#A0A3A5"/>
			<stop  offset="0.5697" style="stop-color:#B2B4B7"/>
			<stop  offset="0.5828" style="stop-color:#C0C2C4"/>
			<stop  offset="0.599" style="stop-color:#CACCCD"/>
			<stop  offset="0.6218" style="stop-color:#D0D1D3"/>
			<stop  offset="0.6848" style="stop-color:#D1D3D4"/>
			<stop  offset="0.7393" style="stop-color:#C4C6C8"/>
			<stop  offset="0.8453" style="stop-color:#A2A4A7"/>
			<stop  offset="0.9914" style="stop-color:#707274"/>
			<stop  offset="1" style="stop-color:#6D6E71"/>
		</linearGradient>
		<path class="st9" d="M387,107.5c-3,0-6-0.7-8.7-2.1c-1.7-0.8-3.2-1.9-4.5-3.3l-0.9-0.9l0.3,0.8c-0.2,0.1-0.3,0.3-0.3,0.5v4.2h-5.1
			V87.1h5.1v2.6c0,3.2,1.4,6.2,4.1,8.7c2.8,2.5,6.2,3.8,10.1,3.8c3.3,0,6.2-1,8.4-3c2.2-1.9,3.4-4.4,3.4-7.5c0-2.8-1-4.9-3.1-6.4
			c-1.1-0.8-2.5-1.6-4.4-2.3c-1.8-0.7-4.2-1.4-7-2.1c-2.8-0.7-5.2-1.5-7.3-2.5c-2.1-0.9-3.8-2-5.1-3.2c-2.7-2.4-4-5.7-4-10
			c0-3.8,1.5-7,4.7-9.7c3.2-2.6,6.9-3.9,11.4-3.9c1.3,0,2.7,0.1,4.1,0.3c1.4,0.2,2.7,0.5,4,1.1c1.2,0.6,2.3,1.1,3.3,1.7
			c0.9,0.5,1.9,1.3,2.9,2.4c0.5,0.6,1,1.2,1.4,1.7c0.4,0.5,0.7,1.1,1.1,1.9c0.3,0.6,0.5,1.3,0.7,2.2c0.2,0.9,0.3,1.8,0.4,2.7
			c0.1,0.5,0.1,1.1,0.2,1.7l0.1,0.9h-5.6v-1.8c0-0.4-0.1-0.9-0.2-1.5c-0.1-0.6-0.3-1.3-0.5-2c-0.2-0.7-0.6-1.4-1-2.1
			c-0.4-0.7-0.9-1.3-1.5-1.8c-1.3-0.9-2.7-1.5-4.2-1.8c-1.5-0.3-3.3-0.4-5.2-0.4c-3,0-5.5,0.8-7.5,2.5c-1.9,1.6-2.9,3.6-2.9,6.1
			c0,2.7,1,4.8,3.1,6.3c1.1,0.7,2.5,1.4,4,2c1.5,0.6,3.2,1.1,5.2,1.5c3.6,0.9,6.6,1.9,9.1,2.9c2.5,1.1,4.4,2.2,5.8,3.5
			c2.8,2.6,4.1,6.1,4.1,10.5c0,4.5-1.7,8.1-5.2,11C396.2,106,392,107.5,387,107.5L387,107.5z"/>
	</g>
	<g>
		<linearGradient id="SVGID_11_" gradientUnits="userSpaceOnUse" x1="221.5687" y1="47.0682" x2="222.8305" y2="109.9497">
			<stop  offset="0" style="stop-color:#FFFFFF"/>
			<stop  offset="1" style="stop-color:#D1D3D4"/>
		</linearGradient>
		<path class="st10" d="M233.3,105.9v-2.2h4.2c0.6,0,1.2-0.3,1.6-0.8c0.4-0.5,0.5-1.2,0.3-1.7l-4.9-14.1c-0.3-0.8-1-1.3-1.8-1.3
			h-19.6c-0.8,0-1.6,0.5-1.8,1.3l-5.2,15.3c-0.1,0.2-0.1,0.4-0.1,0.6v2.8H196v-2.2h5.2c0.8,0,1.6-0.5,1.8-1.3l15.6-45l1-3.1h13.8
			v2.2h-4.2c-0.6,0-1.2,0.3-1.6,0.8c-0.4,0.5-0.4,1.2-0.2,1.7l15.2,43.4c0.3,0.8,1,1.3,1.8,1.3h5v2.2H233.3z M222.8,57.2
			c-0.8,0-1.6,0.5-1.8,1.3l-7.8,22.6c-0.2,0.6-0.1,1.2,0.3,1.7c0.4,0.5,0.9,0.8,1.6,0.8h15.5c0.6,0,1.2-0.3,1.6-0.8
			c0.4-0.5,0.5-1.1,0.3-1.7l-7.7-22.6C224.3,57.7,223.6,57.2,222.8,57.2L222.8,57.2z"/>
		<linearGradient id="SVGID_12_" gradientUnits="userSpaceOnUse" x1="271.1826" y1="46.0728" x2="272.4443" y2="108.9542">
			<stop  offset="0" style="stop-color:#FFFFFF"/>
			<stop  offset="1" style="stop-color:#D1D3D4"/>
		</linearGradient>
		<path class="st11" d="M257.5,105.9V58.4c0-1.1-0.9-1.9-1.9-1.9h-5.9v-2.2h25.3c4.1,0,7.3,1.1,9.9,3.4c2.6,2.3,3.8,5.1,3.8,8.6
			c0,3.4-0.9,6.1-2.7,8.3c-1.6,1.9-4.2,3.3-7.4,4.1c-0.5,0.1-1,0.5-1.2,1c-0.2,0.5-0.2,1.1,0,1.6l9.6,21.2c0.3,0.7,1,1.1,1.8,1.1
			h5.3v2.2h-8.7l-11.4-25.3c-0.3-0.7-1-1.1-1.8-1.1h-9.7c-1.1,0-1.9,0.9-1.9,1.9v24.6H257.5z M262.5,56.5c-1.1,0-1.9,0.9-1.9,1.9v17
			c0,1.1,0.9,1.9,1.9,1.9h10.3c4.1,0,7.3-0.9,9.5-2.7c2.3-1.8,3.5-4.4,3.5-7.9c0-3.2-1.1-5.7-3.3-7.5c-2-1.8-4.8-2.8-8.3-2.8H262.5z
			"/>
		<linearGradient id="SVGID_13_" gradientUnits="userSpaceOnUse" x1="306.7071" y1="45.3566" x2="307.9688" y2="108.2378">
			<stop  offset="0" style="stop-color:#FFFFFF"/>
			<stop  offset="1" style="stop-color:#D1D3D4"/>
		</linearGradient>
		<path class="st12" d="M299.7,105.9v-2.2h4.7c1.1,0,1.9-0.9,1.9-1.9V54.3h3v47.5c0,1.1,0.9,1.9,1.9,1.9h4.8v2.2H299.7z M306.3,49
			v-3.6h3V49H306.3z"/>
		<linearGradient id="SVGID_14_" gradientUnits="userSpaceOnUse" x1="340.0606" y1="44.6905" x2="341.3224" y2="107.572">
			<stop  offset="0" style="stop-color:#FFFFFF"/>
			<stop  offset="1" style="stop-color:#D1D3D4"/>
		</linearGradient>
		<path class="st13" d="M326.6,105.9V58.4c0-1.1-0.9-1.9-1.9-1.9h-4.9v-2.2h40.9v11.5h-2.2v-7.4c0-1.1-0.9-1.9-1.9-1.9h-25.2
			c-1.1,0-1.9,0.9-1.9,1.9v18.1c0,1.1,0.9,1.9,1.9,1.9h20v2.2h-20c-1.1,0-1.9,0.9-1.9,1.9v19.3c0,1.1,0.9,1.9,1.9,1.9h29.3v2.2
			H326.6z"/>
		<linearGradient id="SVGID_15_" gradientUnits="userSpaceOnUse" x1="385.3945" y1="43.7843" x2="386.6562" y2="106.6655">
			<stop  offset="0" style="stop-color:#FFFFFF"/>
			<stop  offset="1" style="stop-color:#D1D3D4"/>
		</linearGradient>
		<path class="st14" d="M387.2,106.6c-2.8,0-5.5-0.6-8.1-1.9c-1.5-0.7-2.9-1.7-4.2-3c-0.4-0.4-0.9-0.6-1.4-0.6c-0.3,0-0.5,0-0.7,0.1
			c-0.7,0.3-1.2,1-1.2,1.8v2.8h-2.2V89.1h2.2v1.2c0,3.7,1.5,6.9,4.6,9.8c3.1,2.8,6.8,4.2,11,4.2c3.7,0,6.8-1.1,9.4-3.4
			c2.6-2.2,3.8-5.1,3.8-8.6c0-3.2-1.2-5.8-3.7-7.6c-1.2-0.9-2.7-1.7-4.7-2.5c-1.9-0.8-4.3-1.5-7.2-2.2c-2.7-0.7-5.1-1.5-7.1-2.4
			c-1.9-0.8-3.5-1.8-4.7-2.9c-2.4-2.1-3.6-5.1-3.6-8.9c0-3.4,1.4-6.2,4.2-8.7c2.9-2.4,6.3-3.6,10.5-3.6c1.3,0,2.6,0.1,3.9,0.3
			c1.2,0.2,2.4,0.5,3.6,1c1.1,0.5,2.2,1.1,3.1,1.6c0.8,0.5,1.7,1.2,2.6,2.2c0.5,0.6,0.9,1.1,1.3,1.6c0.3,0.4,0.6,1,0.9,1.6
			c0.3,0.5,0.4,1.1,0.6,1.9c0.1,0.9,0.3,1.8,0.4,2.6c0,0.3,0.1,0.6,0.1,1h-2.7v-0.3c0-0.4-0.1-1-0.2-1.8c-0.1-0.7-0.3-1.4-0.6-2.2
			c-0.3-0.8-0.7-1.6-1.1-2.3c-0.5-0.8-1.1-1.5-1.9-2.1c-1.5-1.1-3.1-1.8-4.9-2.1c-1.6-0.3-3.4-0.4-5.4-0.4c-3.4,0-6.2,0.9-8.4,2.8
			c-2.3,1.9-3.4,4.3-3.4,7.2c0,3.2,1.2,5.7,3.7,7.4c1.2,0.8,2.7,1.6,4.2,2.2c1.6,0.6,3.4,1.2,5.4,1.6c3.4,0.8,6.4,1.8,8.8,2.8
			c2.3,1,4.1,2.1,5.4,3.2c2.5,2.3,3.7,5.4,3.7,9.5c0,4-1.5,7.3-4.7,9.9C395.7,105.3,391.8,106.6,387.2,106.6L387.2,106.6z"/>
	</g>
	<g>
		<linearGradient id="SVGID_16_" gradientUnits="userSpaceOnUse" x1="223.3228" y1="46.2291" x2="223.3228" y2="106.5766">
			<stop  offset="0" style="stop-color:#FFFFFF"/>
			<stop  offset="0.4" style="stop-color:#F1F2F2"/>
			<stop  offset="0.4334" style="stop-color:#414042"/>
			<stop  offset="0.5082" style="stop-color:#606164"/>
			<stop  offset="0.5996" style="stop-color:#7C7E81"/>
			<stop  offset="0.6739" style="stop-color:#8D8F92"/>
			<stop  offset="0.7212" style="stop-color:#939598"/>
			<stop  offset="0.7259" style="stop-color:#97999C"/>
			<stop  offset="0.7588" style="stop-color:#B0B2B4"/>
			<stop  offset="0.7908" style="stop-color:#C2C4C6"/>
			<stop  offset="0.8212" style="stop-color:#CDCFD1"/>
			<stop  offset="0.8485" style="stop-color:#D1D3D4"/>
			<stop  offset="0.8897" style="stop-color:#DEDFE0"/>
			<stop  offset="0.953" style="stop-color:#ECEDED"/>
			<stop  offset="1" style="stop-color:#F1F2F2"/>
		</linearGradient>
		<path class="st15" d="M234.3,105.8v-1.2h3.7c0.8,0,1.5-0.4,1.9-1c0.4-0.6,0.6-1.4,0.3-2.2l-4.9-14.1c-0.3-1-1.2-1.6-2.3-1.6h-19.6
			c-1,0-1.9,0.7-2.3,1.6l-5.2,15.3c-0.1,0.3-0.1,0.5-0.1,0.8v2.4h-8.8v-1.2h4.7c1,0,1.9-0.6,2.3-1.6l15.6-45l0.9-2.8h13v1.2h-3.7
			c-0.8,0-1.5,0.4-1.9,1c-0.4,0.6-0.6,1.4-0.3,2.2l15.2,43.4c0.3,1,1.2,1.6,2.3,1.6h4.5v1.2H234.3z M223.4,57.1
			c-1,0-1.9,0.6-2.3,1.6l-7.8,22.6c-0.2,0.7-0.1,1.5,0.3,2.2c0.5,0.6,1.2,1,1.9,1h15.5c0.8,0,1.5-0.4,1.9-1c0.4-0.6,0.6-1.4,0.3-2.2
			l-7.7-22.6C225.3,57.8,224.4,57.1,223.4,57.1L223.4,57.1z"/>
		<linearGradient id="SVGID_17_" gradientUnits="userSpaceOnUse" x1="272.4611" y1="46.229" x2="272.4611" y2="106.5767">
			<stop  offset="0" style="stop-color:#FFFFFF"/>
			<stop  offset="0.4" style="stop-color:#F1F2F2"/>
			<stop  offset="0.4334" style="stop-color:#414042"/>
			<stop  offset="0.5082" style="stop-color:#606164"/>
			<stop  offset="0.5996" style="stop-color:#7C7E81"/>
			<stop  offset="0.6739" style="stop-color:#8D8F92"/>
			<stop  offset="0.7212" style="stop-color:#939598"/>
			<stop  offset="0.7259" style="stop-color:#97999C"/>
			<stop  offset="0.7588" style="stop-color:#B0B2B4"/>
			<stop  offset="0.7908" style="stop-color:#C2C4C6"/>
			<stop  offset="0.8212" style="stop-color:#CDCFD1"/>
			<stop  offset="0.8485" style="stop-color:#D1D3D4"/>
			<stop  offset="0.8897" style="stop-color:#DEDFE0"/>
			<stop  offset="0.953" style="stop-color:#ECEDED"/>
			<stop  offset="1" style="stop-color:#F1F2F2"/>
		</linearGradient>
		<path class="st16" d="M258.6,105.9V58.8c0-1.3-1.1-2.4-2.4-2.4h-5.4v-1.2h24.9c3.9,0,7.1,1.1,9.6,3.3c2.4,2.2,3.6,4.9,3.6,8.3
			c0,3.3-0.9,5.9-2.6,8c-1.6,1.8-4,3.1-7.2,4c-0.7,0.2-1.2,0.6-1.5,1.3c-0.3,0.6-0.3,1.4,0,2l9.6,21.2c0.4,0.9,1.2,1.4,2.2,1.4h4.9
			v1.2h-7.9l-11.3-25c-0.4-0.9-1.2-1.4-2.2-1.4h-9.7c-1.3,0-2.4,1.1-2.4,2.4v24.1H258.6z M263.1,56.4c-1.3,0-2.4,1.1-2.4,2.4v17
			c0,1.3,1.1,2.4,2.4,2.4h10.3c4.2,0,7.5-0.9,9.8-2.8c2.4-1.9,3.6-4.6,3.6-8.3c0-3.3-1.2-6-3.4-7.8c-2-1.9-4.9-2.9-8.6-2.9H263.1z"
			/>
		<linearGradient id="SVGID_18_" gradientUnits="userSpaceOnUse" x1="308.4961" y1="46.2294" x2="308.4961" y2="106.5767">
			<stop  offset="0" style="stop-color:#FFFFFF"/>
			<stop  offset="0.4" style="stop-color:#F1F2F2"/>
			<stop  offset="0.4334" style="stop-color:#414042"/>
			<stop  offset="0.5082" style="stop-color:#606164"/>
			<stop  offset="0.5996" style="stop-color:#7C7E81"/>
			<stop  offset="0.6739" style="stop-color:#8D8F92"/>
			<stop  offset="0.7212" style="stop-color:#939598"/>
			<stop  offset="0.7259" style="stop-color:#97999C"/>
			<stop  offset="0.7588" style="stop-color:#B0B2B4"/>
			<stop  offset="0.7908" style="stop-color:#C2C4C6"/>
			<stop  offset="0.8212" style="stop-color:#CDCFD1"/>
			<stop  offset="0.8485" style="stop-color:#D1D3D4"/>
			<stop  offset="0.8897" style="stop-color:#DEDFE0"/>
			<stop  offset="0.953" style="stop-color:#ECEDED"/>
			<stop  offset="1" style="stop-color:#F1F2F2"/>
		</linearGradient>
		<path class="st17" d="M300.8,105.8v-1.2h4.2c1.3,0,2.4-1.1,2.4-2.4v-47h2.1v47c0,1.3,1.1,2.4,2.4,2.4h4.3v1.2H300.8z M307.3,48.9
			v-2.7h2.1v2.7H307.3z"/>
		<linearGradient id="SVGID_19_" gradientUnits="userSpaceOnUse" x1="340.9094" y1="46.2291" x2="340.9094" y2="106.5766">
			<stop  offset="0" style="stop-color:#FFFFFF"/>
			<stop  offset="0.4" style="stop-color:#F1F2F2"/>
			<stop  offset="0.4334" style="stop-color:#414042"/>
			<stop  offset="0.5082" style="stop-color:#606164"/>
			<stop  offset="0.5996" style="stop-color:#7C7E81"/>
			<stop  offset="0.6739" style="stop-color:#8D8F92"/>
			<stop  offset="0.7212" style="stop-color:#939598"/>
			<stop  offset="0.7259" style="stop-color:#97999C"/>
			<stop  offset="0.7588" style="stop-color:#B0B2B4"/>
			<stop  offset="0.7908" style="stop-color:#C2C4C6"/>
			<stop  offset="0.8212" style="stop-color:#CDCFD1"/>
			<stop  offset="0.8485" style="stop-color:#D1D3D4"/>
			<stop  offset="0.8897" style="stop-color:#DEDFE0"/>
			<stop  offset="0.953" style="stop-color:#ECEDED"/>
			<stop  offset="1" style="stop-color:#F1F2F2"/>
		</linearGradient>
		<path class="st18" d="M327.6,105.8v-47c0-1.3-1.1-2.4-2.4-2.4h-4.4v-1.2h40v10.6h-1.2v-7c0-1.3-1.1-2.4-2.4-2.4h-25.2
			c-1.3,0-2.4,1.1-2.4,2.4v18.1c0,1.3,1.1,2.4,2.4,2.4h19.6v1.2h-19.6c-1.3,0-2.4,1.1-2.4,2.4v19.3c0,1.3,1.1,2.4,2.4,2.4H361v1.2
			H327.6z"/>
		<linearGradient id="SVGID_20_" gradientUnits="userSpaceOnUse" x1="387.102" y1="46.2291" x2="387.102" y2="106.5767">
			<stop  offset="0" style="stop-color:#FFFFFF"/>
			<stop  offset="0.4" style="stop-color:#F1F2F2"/>
			<stop  offset="0.4334" style="stop-color:#414042"/>
			<stop  offset="0.5082" style="stop-color:#606164"/>
			<stop  offset="0.5996" style="stop-color:#7C7E81"/>
			<stop  offset="0.6739" style="stop-color:#8D8F92"/>
			<stop  offset="0.7212" style="stop-color:#939598"/>
			<stop  offset="0.7259" style="stop-color:#97999C"/>
			<stop  offset="0.7588" style="stop-color:#B0B2B4"/>
			<stop  offset="0.7908" style="stop-color:#C2C4C6"/>
			<stop  offset="0.8212" style="stop-color:#CDCFD1"/>
			<stop  offset="0.8485" style="stop-color:#D1D3D4"/>
			<stop  offset="0.8897" style="stop-color:#DEDFE0"/>
			<stop  offset="0.953" style="stop-color:#ECEDED"/>
			<stop  offset="1" style="stop-color:#F1F2F2"/>
		</linearGradient>
		<path class="st19" d="M387.8,106.6c-2.7,0-5.4-0.6-7.9-1.9c-1.5-0.7-2.8-1.7-4-2.9c-0.4-0.4-1.1-0.7-1.7-0.7
			c-0.3,0-0.6,0.1-0.9,0.2c-0.9,0.4-1.5,1.2-1.5,2.2v2.3h-1.3V89.9h1.3v0.7c0,3.8,1.6,7.2,4.7,10.1c3.2,2.9,7,4.3,11.4,4.3
			c3.8,0,7.1-1.2,9.7-3.5c2.7-2.3,4-5.3,4-9c0-3.4-1.3-6.1-3.9-7.9c-1.2-0.9-2.8-1.7-4.8-2.5c-1.9-0.8-4.4-1.5-7.3-2.2
			c-2.6-0.7-5-1.5-7-2.4c-1.9-0.8-3.4-1.8-4.6-2.8c-2.3-2.1-3.4-4.9-3.4-8.6c0-3.2,1.3-6,4.1-8.3c2.8-2.3,6.1-3.5,10.2-3.5
			c1.3,0,2.5,0.1,3.8,0.2c1.2,0.2,2.4,0.5,3.5,1c1.1,0.5,2.2,1,3.1,1.6c0.8,0.5,1.6,1.1,2.5,2.1c0.4,0.5,0.9,1.1,1.3,1.6
			c0.3,0.4,0.6,0.9,0.9,1.5c0.2,0.5,0.4,1.1,0.5,1.8c0.1,0.9,0.3,1.8,0.4,2.6c0,0.1,0,0.3,0.1,0.5h-1.7c0-0.4-0.1-1-0.2-1.7
			c-0.1-0.7-0.3-1.5-0.6-2.3c-0.3-0.9-0.7-1.7-1.2-2.4c-0.5-0.8-1.2-1.6-2-2.2c-1.6-1.2-3.3-1.9-5.1-2.2c-1.6-0.3-3.5-0.4-5.5-0.4
			c-3.5,0-6.4,1-8.7,2.9c-2.4,2-3.6,4.5-3.6,7.5c0,3.4,1.3,6,3.9,7.8c1.3,0.8,2.7,1.6,4.3,2.2c1.6,0.6,3.4,1.2,5.5,1.6
			c3.4,0.8,6.4,1.8,8.8,2.8c2.3,1,4.1,2,5.2,3.1c2.4,2.2,3.5,5.2,3.5,9.2c0,3.9-1.5,7-4.5,9.5C396.1,105.2,392.3,106.6,387.8,106.6
			L387.8,106.6z"/>
	</g>
</g>
</svg>
