<?xml version="1.0" encoding="utf-8"?>
<!-- Generator: Adobe Illustrator 21.1.0, SVG Export Plug-In . SVG Version: 6.00 Build 0)  -->
<svg version="1.1" id="Layer_2" xmlns="http://www.w3.org/2000/svg" xmlns:xlink="http://www.w3.org/1999/xlink" x="0px" y="0px"
	 viewBox="0 0 601 153.1" style="enable-background:new 0 0 601 153.1;" xml:space="preserve">
<style type="text/css">
	.st0{fill:url(#SVGID_1_);}
	.st1{fill:url(#SVGID_2_);}
	.st2{fill:url(#SVGID_3_);}
	.st3{fill:url(#SVGID_4_);}
	.st4{fill:url(#SVGID_5_);}
	.st5{fill:url(#SVGID_6_);}
	.st6{fill:url(#SVGID_7_);}
	.st7{fill:url(#SVGID_8_);}
	.st8{fill:url(#SVGID_9_);}
	.st9{fill:url(#SVGID_10_);}
	.st10{fill:url(#SVGID_11_);}
	.st11{fill:url(#SVGID_12_);}
	.st12{fill:url(#SVGID_13_);}
	.st13{fill:url(#SVGID_14_);}
	.st14{fill:url(#SVGID_15_);}
	.st15{fill:url(#SVGID_16_);}
	.st16{fill:url(#SVGID_17_);}
	.st17{fill:url(#SVGID_18_);}
	.st18{fill:url(#SVGID_19_);}
	.st19{fill:url(#SVGID_20_);}
</style>
<g>
	<g>
		<linearGradient id="SVGID_1_" gradientUnits="userSpaceOnUse" x1="209.0751" y1="47.0145" x2="211.4208" y2="114.1863">
			<stop  offset="0" style="stop-color:#414042"/>
			<stop  offset="8.924593e-02" style="stop-color:#434344"/>
			<stop  offset="0.1376" style="stop-color:#4B4B4D"/>
			<stop  offset="0.1761" style="stop-color:#57575A"/>
			<stop  offset="0.2094" style="stop-color:#67686B"/>
			<stop  offset="0.2394" style="stop-color:#7A7C7F"/>
			<stop  offset="0.267" style="stop-color:#919396"/>
			<stop  offset="0.2923" style="stop-color:#ADAFB2"/>
			<stop  offset="0.303" style="stop-color:#BCBEC0"/>
			<stop  offset="0.3959" style="stop-color:#818385"/>
			<stop  offset="0.4723" style="stop-color:#555557"/>
			<stop  offset="0.5091" style="stop-color:#414042"/>
			<stop  offset="0.5311" style="stop-color:#67696B"/>
			<stop  offset="0.5626" style="stop-color:#929497"/>
			<stop  offset="0.5919" style="stop-color:#B5B7BA"/>
			<stop  offset="0.6178" style="stop-color:#D0D2D3"/>
			<stop  offset="0.6395" style="stop-color:#E0E1E3"/>
			<stop  offset="0.6544" style="stop-color:#E6E7E8"/>
			<stop  offset="0.6615" style="stop-color:#D1D2D4"/>
			<stop  offset="0.6767" style="stop-color:#9B9DA0"/>
			<stop  offset="0.6987" style="stop-color:#474749"/>
			<stop  offset="0.7052" style="stop-color:#000000"/>
			<stop  offset="0.8126" style="stop-color:#080808"/>
			<stop  offset="0.8581" style="stop-color:#202020"/>
			<stop  offset="0.8918" style="stop-color:#3B3A3C"/>
			<stop  offset="0.9198" style="stop-color:#4E4E50"/>
			<stop  offset="0.9442" style="stop-color:#626365"/>
			<stop  offset="0.9661" style="stop-color:#787A7C"/>
			<stop  offset="0.9857" style="stop-color:#909295"/>
			<stop  offset="1" style="stop-color:#A7A9AC"/>
		</linearGradient>
		<polygon class="st0" points="206.6,109.3 187.7,59.3 180.3,59.3 180.3,52.3 193.5,52.3 195,56.9 210,96.1 223.5,59.3 217.8,59.3 
			217.8,52.3 238.5,52.3 238.5,59.3 231.1,59.3 212.8,109.3 		"/>
		<linearGradient id="SVGID_2_" gradientUnits="userSpaceOnUse" x1="244.2072" y1="45.7888" x2="246.5529" y2="112.9611">
			<stop  offset="0" style="stop-color:#414042"/>
			<stop  offset="8.924593e-02" style="stop-color:#434344"/>
			<stop  offset="0.1376" style="stop-color:#4B4B4D"/>
			<stop  offset="0.1761" style="stop-color:#57575A"/>
			<stop  offset="0.2094" style="stop-color:#67686B"/>
			<stop  offset="0.2394" style="stop-color:#7A7C7F"/>
			<stop  offset="0.267" style="stop-color:#919396"/>
			<stop  offset="0.2923" style="stop-color:#ADAFB2"/>
			<stop  offset="0.303" style="stop-color:#BCBEC0"/>
			<stop  offset="0.3959" style="stop-color:#818385"/>
			<stop  offset="0.4723" style="stop-color:#555557"/>
			<stop  offset="0.5091" style="stop-color:#414042"/>
			<stop  offset="0.5311" style="stop-color:#67696B"/>
			<stop  offset="0.5626" style="stop-color:#929497"/>
			<stop  offset="0.5919" style="stop-color:#B5B7BA"/>
			<stop  offset="0.6178" style="stop-color:#D0D2D3"/>
			<stop  offset="0.6395" style="stop-color:#E0E1E3"/>
			<stop  offset="0.6544" style="stop-color:#E6E7E8"/>
			<stop  offset="0.6615" style="stop-color:#D1D2D4"/>
			<stop  offset="0.6767" style="stop-color:#9B9DA0"/>
			<stop  offset="0.6987" style="stop-color:#474749"/>
			<stop  offset="0.7052" style="stop-color:#000000"/>
			<stop  offset="0.8126" style="stop-color:#080808"/>
			<stop  offset="0.8581" style="stop-color:#202020"/>
			<stop  offset="0.8918" style="stop-color:#3B3A3C"/>
			<stop  offset="0.9198" style="stop-color:#4E4E50"/>
			<stop  offset="0.9442" style="stop-color:#626365"/>
			<stop  offset="0.9661" style="stop-color:#787A7C"/>
			<stop  offset="0.9857" style="stop-color:#909295"/>
			<stop  offset="1" style="stop-color:#A7A9AC"/>
		</linearGradient>
		<path class="st1" d="M235.7,108.8v-7.1h6.6V52.3h7.9v49.5h6.7v7.1H235.7z M242.2,51.8v-8.5h7.9v8.5H242.2z"/>
		<linearGradient id="SVGID_3_" gradientUnits="userSpaceOnUse" x1="278.2753" y1="44.6057" x2="280.621" y2="111.778">
			<stop  offset="0" style="stop-color:#414042"/>
			<stop  offset="8.924593e-02" style="stop-color:#434344"/>
			<stop  offset="0.1376" style="stop-color:#4B4B4D"/>
			<stop  offset="0.1761" style="stop-color:#57575A"/>
			<stop  offset="0.2094" style="stop-color:#67686B"/>
			<stop  offset="0.2394" style="stop-color:#7A7C7F"/>
			<stop  offset="0.267" style="stop-color:#919396"/>
			<stop  offset="0.2923" style="stop-color:#ADAFB2"/>
			<stop  offset="0.303" style="stop-color:#BCBEC0"/>
			<stop  offset="0.3959" style="stop-color:#818385"/>
			<stop  offset="0.4723" style="stop-color:#555557"/>
			<stop  offset="0.5091" style="stop-color:#414042"/>
			<stop  offset="0.5311" style="stop-color:#67696B"/>
			<stop  offset="0.5626" style="stop-color:#929497"/>
			<stop  offset="0.5919" style="stop-color:#B5B7BA"/>
			<stop  offset="0.6178" style="stop-color:#D0D2D3"/>
			<stop  offset="0.6395" style="stop-color:#E0E1E3"/>
			<stop  offset="0.6544" style="stop-color:#E6E7E8"/>
			<stop  offset="0.6615" style="stop-color:#D1D2D4"/>
			<stop  offset="0.6767" style="stop-color:#9B9DA0"/>
			<stop  offset="0.6987" style="stop-color:#474749"/>
			<stop  offset="0.7052" style="stop-color:#000000"/>
			<stop  offset="0.8126" style="stop-color:#080808"/>
			<stop  offset="0.8581" style="stop-color:#202020"/>
			<stop  offset="0.8918" style="stop-color:#3B3A3C"/>
			<stop  offset="0.9198" style="stop-color:#4E4E50"/>
			<stop  offset="0.9442" style="stop-color:#626365"/>
			<stop  offset="0.9661" style="stop-color:#787A7C"/>
			<stop  offset="0.9857" style="stop-color:#909295"/>
			<stop  offset="1" style="stop-color:#A7A9AC"/>
		</linearGradient>
		<path class="st2" d="M262.8,108.9V59.3H255v-7.1h27.8c4.7,0,8.5,1.3,11.5,4c3.1,2.7,4.6,6.3,4.6,10.5c0,4-1.1,7.2-3.3,9.9
			c-1.9,2.1-4.6,3.7-8.1,4.8l9.2,20.4h7.4v7.1h-12.7l-11.9-26.5h-8.8v26.5H262.8z M280.4,75.3c3.5,0,6.2-0.7,8-2.1
			c1.7-1.3,2.5-3.3,2.5-6c0-2.5-0.8-4.3-2.4-5.6c-1.6-1.5-3.8-2.2-6.8-2.2h-11.2v16H280.4z"/>
		<linearGradient id="SVGID_4_" gradientUnits="userSpaceOnUse" x1="329.906" y1="42.7971" x2="332.2517" y2="109.9698">
			<stop  offset="0" style="stop-color:#414042"/>
			<stop  offset="8.924593e-02" style="stop-color:#434344"/>
			<stop  offset="0.1376" style="stop-color:#4B4B4D"/>
			<stop  offset="0.1761" style="stop-color:#57575A"/>
			<stop  offset="0.2094" style="stop-color:#67686B"/>
			<stop  offset="0.2394" style="stop-color:#7A7C7F"/>
			<stop  offset="0.267" style="stop-color:#919396"/>
			<stop  offset="0.2923" style="stop-color:#ADAFB2"/>
			<stop  offset="0.303" style="stop-color:#BCBEC0"/>
			<stop  offset="0.3959" style="stop-color:#818385"/>
			<stop  offset="0.4723" style="stop-color:#555557"/>
			<stop  offset="0.5091" style="stop-color:#414042"/>
			<stop  offset="0.5311" style="stop-color:#67696B"/>
			<stop  offset="0.5626" style="stop-color:#929497"/>
			<stop  offset="0.5919" style="stop-color:#B5B7BA"/>
			<stop  offset="0.6178" style="stop-color:#D0D2D3"/>
			<stop  offset="0.6395" style="stop-color:#E0E1E3"/>
			<stop  offset="0.6544" style="stop-color:#E6E7E8"/>
			<stop  offset="0.6615" style="stop-color:#D1D2D4"/>
			<stop  offset="0.6767" style="stop-color:#9B9DA0"/>
			<stop  offset="0.6987" style="stop-color:#474749"/>
			<stop  offset="0.7052" style="stop-color:#000000"/>
			<stop  offset="0.8126" style="stop-color:#080808"/>
			<stop  offset="0.8581" style="stop-color:#202020"/>
			<stop  offset="0.8918" style="stop-color:#3B3A3C"/>
			<stop  offset="0.9198" style="stop-color:#4E4E50"/>
			<stop  offset="0.9442" style="stop-color:#626365"/>
			<stop  offset="0.9661" style="stop-color:#787A7C"/>
			<stop  offset="0.9857" style="stop-color:#909295"/>
			<stop  offset="1" style="stop-color:#A7A9AC"/>
		</linearGradient>
		<path class="st3" d="M331.9,109.6c-8.5,0-15.6-2.8-21-8.2c-2.8-2.7-4.9-5.8-6.2-9.3c-1.3-3.5-2-7.4-2-11.6
			c0-8.3,2.7-15.3,8.1-20.8c5.3-5.5,12.1-8.3,20.2-8.3c4.3,0,8.5,1,12.5,2.9c2.4,1.2,4.4,2.6,6.2,4.2v-2.3h7.1v17h-6.6l-0.4-1.3
			c-0.7-2.2-1.6-4-2.7-5.5c-1.2-1.6-2.7-3-4.5-4.2c-3.6-2.3-7.5-3.4-11.5-3.4c-5.9,0-10.8,2-14.7,6c-3.8,4-5.8,9.3-5.8,15.7
			c0,6.3,2,11.5,6,15.6c3.9,4,9.1,6.1,15.4,6.1c5,0,9.5-1.4,13.2-4.2c3.1-2.3,5.2-5.6,6.1-9.6h-21.5v-7.1h29.9l-0.1,1.9
			c-0.2,4-0.8,7.6-2,10.5c-1.3,3.3-3.3,6.2-5.9,8.6C346.7,107.2,340,109.6,331.9,109.6L331.9,109.6z"/>
		<linearGradient id="SVGID_5_" gradientUnits="userSpaceOnUse" x1="390.9195" y1="40.6665" x2="393.2652" y2="107.8392">
			<stop  offset="0" style="stop-color:#414042"/>
			<stop  offset="8.924593e-02" style="stop-color:#434344"/>
			<stop  offset="0.1376" style="stop-color:#4B4B4D"/>
			<stop  offset="0.1761" style="stop-color:#57575A"/>
			<stop  offset="0.2094" style="stop-color:#67686B"/>
			<stop  offset="0.2394" style="stop-color:#7A7C7F"/>
			<stop  offset="0.267" style="stop-color:#919396"/>
			<stop  offset="0.2923" style="stop-color:#ADAFB2"/>
			<stop  offset="0.303" style="stop-color:#BCBEC0"/>
			<stop  offset="0.3959" style="stop-color:#818385"/>
			<stop  offset="0.4723" style="stop-color:#555557"/>
			<stop  offset="0.5091" style="stop-color:#414042"/>
			<stop  offset="0.5311" style="stop-color:#67696B"/>
			<stop  offset="0.5626" style="stop-color:#929497"/>
			<stop  offset="0.5919" style="stop-color:#B5B7BA"/>
			<stop  offset="0.6178" style="stop-color:#D0D2D3"/>
			<stop  offset="0.6395" style="stop-color:#E0E1E3"/>
			<stop  offset="0.6544" style="stop-color:#E6E7E8"/>
			<stop  offset="0.6615" style="stop-color:#D1D2D4"/>
			<stop  offset="0.6767" style="stop-color:#9B9DA0"/>
			<stop  offset="0.6987" style="stop-color:#474749"/>
			<stop  offset="0.7052" style="stop-color:#000000"/>
			<stop  offset="0.8126" style="stop-color:#080808"/>
			<stop  offset="0.8581" style="stop-color:#202020"/>
			<stop  offset="0.8918" style="stop-color:#3B3A3C"/>
			<stop  offset="0.9198" style="stop-color:#4E4E50"/>
			<stop  offset="0.9442" style="stop-color:#626365"/>
			<stop  offset="0.9661" style="stop-color:#787A7C"/>
			<stop  offset="0.9857" style="stop-color:#909295"/>
			<stop  offset="1" style="stop-color:#A7A9AC"/>
		</linearGradient>
		<path class="st4" d="M392.3,109.6c-8.2,0-15-2.8-20.3-8.3c-5.4-5.5-8.1-12.5-8.1-20.8c0-8.3,2.7-15.3,8.1-20.8
			c5.3-5.5,12.2-8.3,20.3-8.3c8.2,0,15,2.8,20.3,8.3c5.4,5.5,8.1,12.5,8.1,20.8c0,8.3-2.7,15.3-8.1,20.8
			C407.3,106.8,400.5,109.6,392.3,109.6L392.3,109.6z M392.3,58.8c-5.9,0-10.9,2.1-14.6,6.1c-3.9,4.1-5.9,9.3-5.9,15.6
			c0,6.3,2,11.5,5.9,15.6c3.8,4.1,8.7,6.2,14.7,6.2c5.9,0,10.8-2,14.7-6.1c3.8-4.1,5.8-9.4,5.8-15.6c0-6.2-1.9-11.5-5.8-15.6
			C403.2,60.8,398.2,58.8,392.3,58.8L392.3,58.8z"/>
	</g>
	<g>
		<linearGradient id="SVGID_6_" gradientUnits="userSpaceOnUse" x1="208.0683" y1="44.5043" x2="210.4866" y2="113.7563">
			<stop  offset="0" style="stop-color:#F1F2F2"/>
			<stop  offset="0.1266" style="stop-color:#D4D6D7"/>
			<stop  offset="0.2904" style="stop-color:#B3B5B8"/>
			<stop  offset="0.3758" style="stop-color:#A7A9AC"/>
			<stop  offset="0.4229" style="stop-color:#818386"/>
			<stop  offset="0.4693" style="stop-color:#616264"/>
			<stop  offset="0.5056" style="stop-color:#4A4A4C"/>
			<stop  offset="0.5273" style="stop-color:#414042"/>
			<stop  offset="0.5316" style="stop-color:#565759"/>
			<stop  offset="0.5396" style="stop-color:#747578"/>
			<stop  offset="0.5486" style="stop-color:#8C8E90"/>
			<stop  offset="0.5585" style="stop-color:#A0A3A5"/>
			<stop  offset="0.5697" style="stop-color:#B2B4B7"/>
			<stop  offset="0.5828" style="stop-color:#C0C2C4"/>
			<stop  offset="0.599" style="stop-color:#CACCCD"/>
			<stop  offset="0.6218" style="stop-color:#D0D1D3"/>
			<stop  offset="0.6848" style="stop-color:#D1D3D4"/>
			<stop  offset="0.7393" style="stop-color:#C4C6C8"/>
			<stop  offset="0.8453" style="stop-color:#A2A4A7"/>
			<stop  offset="0.9914" style="stop-color:#707274"/>
			<stop  offset="1" style="stop-color:#6D6E71"/>
		</linearGradient>
		<path class="st5" d="M206.4,107.2l-18.8-49.6c-0.1-0.2-0.3-0.3-0.5-0.3h-6.7v-5h11.4l1.3,3.9l15.5,40.5c0.1,0.2,0.3,0.3,0.5,0.3
			c0.2,0,0.4-0.1,0.5-0.3l14.3-38.8c0.1-0.2,0-0.3-0.1-0.5c-0.1-0.1-0.2-0.2-0.4-0.2h-5.4v-5h18.5v5h-6.7c-0.2,0-0.4,0.1-0.5,0.3
			l-18.2,49.6H206.4z"/>
		<linearGradient id="SVGID_7_" gradientUnits="userSpaceOnUse" x1="243.2037" y1="43.2764" x2="245.622" y2="112.5282">
			<stop  offset="0" style="stop-color:#F1F2F2"/>
			<stop  offset="0.1266" style="stop-color:#D4D6D7"/>
			<stop  offset="0.2904" style="stop-color:#B3B5B8"/>
			<stop  offset="0.3758" style="stop-color:#A7A9AC"/>
			<stop  offset="0.4229" style="stop-color:#818386"/>
			<stop  offset="0.4693" style="stop-color:#616264"/>
			<stop  offset="0.5056" style="stop-color:#4A4A4C"/>
			<stop  offset="0.5273" style="stop-color:#414042"/>
			<stop  offset="0.5316" style="stop-color:#565759"/>
			<stop  offset="0.5396" style="stop-color:#747578"/>
			<stop  offset="0.5486" style="stop-color:#8C8E90"/>
			<stop  offset="0.5585" style="stop-color:#A0A3A5"/>
			<stop  offset="0.5697" style="stop-color:#B2B4B7"/>
			<stop  offset="0.5828" style="stop-color:#C0C2C4"/>
			<stop  offset="0.599" style="stop-color:#CACCCD"/>
			<stop  offset="0.6218" style="stop-color:#D0D1D3"/>
			<stop  offset="0.6848" style="stop-color:#D1D3D4"/>
			<stop  offset="0.7393" style="stop-color:#C4C6C8"/>
			<stop  offset="0.8453" style="stop-color:#A2A4A7"/>
			<stop  offset="0.9914" style="stop-color:#707274"/>
			<stop  offset="1" style="stop-color:#6D6E71"/>
		</linearGradient>
		<path class="st6" d="M235.7,106.6v-5h6.1c0.3,0,0.5-0.2,0.5-0.5V52.3h5.8v48.9c0,0.3,0.2,0.5,0.5,0.5h6.2v5H235.7z M242.3,49.8
			v-6.5h5.8v6.5H242.3z"/>
		<linearGradient id="SVGID_8_" gradientUnits="userSpaceOnUse" x1="277.2695" y1="42.0868" x2="279.6878" y2="111.3389">
			<stop  offset="0" style="stop-color:#F1F2F2"/>
			<stop  offset="0.1266" style="stop-color:#D4D6D7"/>
			<stop  offset="0.2904" style="stop-color:#B3B5B8"/>
			<stop  offset="0.3758" style="stop-color:#A7A9AC"/>
			<stop  offset="0.4229" style="stop-color:#818386"/>
			<stop  offset="0.4693" style="stop-color:#616264"/>
			<stop  offset="0.5056" style="stop-color:#4A4A4C"/>
			<stop  offset="0.5273" style="stop-color:#414042"/>
			<stop  offset="0.5316" style="stop-color:#565759"/>
			<stop  offset="0.5396" style="stop-color:#747578"/>
			<stop  offset="0.5486" style="stop-color:#8C8E90"/>
			<stop  offset="0.5585" style="stop-color:#A0A3A5"/>
			<stop  offset="0.5697" style="stop-color:#B2B4B7"/>
			<stop  offset="0.5828" style="stop-color:#C0C2C4"/>
			<stop  offset="0.599" style="stop-color:#CACCCD"/>
			<stop  offset="0.6218" style="stop-color:#D0D1D3"/>
			<stop  offset="0.6848" style="stop-color:#D1D3D4"/>
			<stop  offset="0.7393" style="stop-color:#C4C6C8"/>
			<stop  offset="0.8453" style="stop-color:#A2A4A7"/>
			<stop  offset="0.9914" style="stop-color:#707274"/>
			<stop  offset="1" style="stop-color:#6D6E71"/>
		</linearGradient>
		<path class="st7" d="M262.8,106.7v-49c0-0.3-0.2-0.5-0.5-0.5H255v-5h26.8c4.4,0,8,1.2,10.8,3.8c2.9,2.6,4.3,5.7,4.3,9.7
			c0,3.8-1,6.8-3.1,9.2c-1.8,2.1-4.6,3.6-8.2,4.6l-0.3,0.7l9.6,21.2c0.1,0.2,0.3,0.3,0.5,0.3h6.7v5h-11l-11.8-26.1
			c-0.1-0.2-0.3-0.3-0.5-0.3h-9.7c-0.3,0-0.5,0.2-0.5,0.5v26H262.8z M269.2,57.3c-0.3,0-0.5,0.2-0.5,0.5v17c0,0.3,0.2,0.5,0.5,0.5
			h10.3c3.7,0,6.6-0.8,8.6-2.4c1.9-1.5,2.9-3.8,2.9-6.8c0-2.7-0.9-4.9-2.8-6.4c-1.7-1.6-4.2-2.5-7.4-2.5H269.2z"/>
		<linearGradient id="SVGID_9_" gradientUnits="userSpaceOnUse" x1="328.8631" y1="40.2869" x2="331.2815" y2="109.5388">
			<stop  offset="0" style="stop-color:#F1F2F2"/>
			<stop  offset="0.1266" style="stop-color:#D4D6D7"/>
			<stop  offset="0.2904" style="stop-color:#B3B5B8"/>
			<stop  offset="0.3758" style="stop-color:#A7A9AC"/>
			<stop  offset="0.4229" style="stop-color:#818386"/>
			<stop  offset="0.4693" style="stop-color:#616264"/>
			<stop  offset="0.5056" style="stop-color:#4A4A4C"/>
			<stop  offset="0.5273" style="stop-color:#414042"/>
			<stop  offset="0.5316" style="stop-color:#565759"/>
			<stop  offset="0.5396" style="stop-color:#747578"/>
			<stop  offset="0.5486" style="stop-color:#8C8E90"/>
			<stop  offset="0.5585" style="stop-color:#A0A3A5"/>
			<stop  offset="0.5697" style="stop-color:#B2B4B7"/>
			<stop  offset="0.5828" style="stop-color:#C0C2C4"/>
			<stop  offset="0.599" style="stop-color:#CACCCD"/>
			<stop  offset="0.6218" style="stop-color:#D0D1D3"/>
			<stop  offset="0.6848" style="stop-color:#D1D3D4"/>
			<stop  offset="0.7393" style="stop-color:#C4C6C8"/>
			<stop  offset="0.8453" style="stop-color:#A2A4A7"/>
			<stop  offset="0.9914" style="stop-color:#707274"/>
			<stop  offset="1" style="stop-color:#6D6E71"/>
		</linearGradient>
		<path class="st8" d="M331,107.4c-8.2,0-15.1-2.7-20.3-7.9c-2.7-2.6-4.7-5.6-6-8.9c-1.3-3.4-2-7.1-2-11.2c0-8,2.6-14.7,7.8-20.1
			c5.1-5.3,11.7-8,19.4-8c4.2,0,8.2,0.9,12,2.8c2.6,1.3,4.9,3,6.9,4.9l0.9,0.9l-0.3-0.8c0.2-0.1,0.3-0.3,0.3-0.5v-2.5h5V71h-4.8
			l-0.2-0.6c-0.8-2.3-1.7-4.2-2.8-5.7c-1.3-1.7-2.9-3.2-4.7-4.4c-3.8-2.4-7.8-3.6-12.1-3.6c-6.2,0-11.4,2.1-15.4,6.3
			c-4,4.2-6.1,9.7-6.1,16.4c0,6.5,2.1,12,6.3,16.3c4.1,4.2,9.6,6.4,16.2,6.4c5.2,0,9.9-1.5,13.9-4.4c3.5-2.6,5.8-6.3,6.7-10.8
			l-0.1-0.4L330,86.3v-5h27.8l0,0.9c-0.2,3.9-0.8,7.3-1.9,10.1c-1.2,3.1-3.1,5.9-5.7,8.2C345.2,105.1,338.8,107.4,331,107.4
			L331,107.4z"/>
		<linearGradient id="SVGID_10_" gradientUnits="userSpaceOnUse" x1="389.914" y1="38.1563" x2="392.3324" y2="107.4085">
			<stop  offset="0" style="stop-color:#F1F2F2"/>
			<stop  offset="0.1266" style="stop-color:#D4D6D7"/>
			<stop  offset="0.2904" style="stop-color:#B3B5B8"/>
			<stop  offset="0.3758" style="stop-color:#A7A9AC"/>
			<stop  offset="0.4229" style="stop-color:#818386"/>
			<stop  offset="0.4693" style="stop-color:#616264"/>
			<stop  offset="0.5056" style="stop-color:#4A4A4C"/>
			<stop  offset="0.5273" style="stop-color:#414042"/>
			<stop  offset="0.5316" style="stop-color:#565759"/>
			<stop  offset="0.5396" style="stop-color:#747578"/>
			<stop  offset="0.5486" style="stop-color:#8C8E90"/>
			<stop  offset="0.5585" style="stop-color:#A0A3A5"/>
			<stop  offset="0.5697" style="stop-color:#B2B4B7"/>
			<stop  offset="0.5828" style="stop-color:#C0C2C4"/>
			<stop  offset="0.599" style="stop-color:#CACCCD"/>
			<stop  offset="0.6218" style="stop-color:#D0D1D3"/>
			<stop  offset="0.6848" style="stop-color:#D1D3D4"/>
			<stop  offset="0.7393" style="stop-color:#C4C6C8"/>
			<stop  offset="0.8453" style="stop-color:#A2A4A7"/>
			<stop  offset="0.9914" style="stop-color:#707274"/>
			<stop  offset="1" style="stop-color:#6D6E71"/>
		</linearGradient>
		<path class="st9" d="M391.4,107.4c-7.9,0-14.5-2.7-19.6-8c-5.2-5.3-7.8-12.1-7.8-20.1c0-8,2.6-14.7,7.8-20.1
			c5.1-5.3,11.7-8,19.6-8c7.9,0,14.5,2.7,19.6,8c5.2,5.3,7.8,12.1,7.8,20.1c0,8-2.6,14.7-7.8,20.1
			C405.8,104.7,399.2,107.4,391.4,107.4L391.4,107.4z M391.4,56.7c-6.2,0-11.4,2.2-15.4,6.5c-4.1,4.2-6.1,9.7-6.1,16.2
			c0,6.5,2.1,12,6.1,16.2c4,4.3,9.2,6.5,15.4,6.5c6.2,0,11.4-2.1,15.5-6.4c4-4.3,6.1-9.8,6.1-16.3c0-6.5-2-12-6.1-16.3
			C402.8,58.9,397.5,56.7,391.4,56.7L391.4,56.7z"/>
	</g>
	<g>
		<linearGradient id="SVGID_11_" gradientUnits="userSpaceOnUse" x1="208.4656" y1="45.9796" x2="209.7542" y2="110.1976">
			<stop  offset="0" style="stop-color:#FFFFFF"/>
			<stop  offset="1" style="stop-color:#D1D3D4"/>
		</linearGradient>
		<path class="st10" d="M207.6,106.3l-18.5-48.7c-0.3-0.7-1-1.2-1.8-1.2H182v-2.1h9l1,3l15.5,40.6c0.3,0.7,1,1.2,1.8,1.2
			c0.8,0,1.5-0.5,1.8-1.3L225.4,59c0.2-0.6,0.1-1.2-0.2-1.8c-0.4-0.5-1-0.8-1.6-0.8h-4v-2.1h15.7v2.1H230c-0.8,0-1.5,0.5-1.8,1.3
			l-17.8,48.7H207.6z"/>
		<linearGradient id="SVGID_12_" gradientUnits="userSpaceOnUse" x1="244.363" y1="45.2523" x2="245.6516" y2="109.471">
			<stop  offset="0" style="stop-color:#FFFFFF"/>
			<stop  offset="1" style="stop-color:#D1D3D4"/>
		</linearGradient>
		<path class="st11" d="M237.4,105.8v-2.2h4.7c1.1,0,1.9-0.9,1.9-1.9V54.2h3v47.5c0,1.1,0.9,1.9,1.9,1.9h4.8v2.2H237.4z M243.9,48.9
			v-3.6h3v3.6H243.9z"/>
		<linearGradient id="SVGID_13_" gradientUnits="userSpaceOnUse" x1="278.0902" y1="44.5766" x2="279.3788" y2="108.7946">
			<stop  offset="0" style="stop-color:#FFFFFF"/>
			<stop  offset="1" style="stop-color:#D1D3D4"/>
		</linearGradient>
		<path class="st12" d="M264.5,105.8V58.3c0-1.1-0.9-1.9-1.9-1.9h-5.9v-2.1H282c4.1,0,7.3,1.1,9.9,3.4c2.6,2.3,3.8,5.1,3.8,8.6
			c0,3.4-0.9,6.1-2.7,8.3c-1.6,1.9-4.1,3.3-7.5,4.1c-0.5,0.1-1,0.5-1.2,1c-0.2,0.5-0.2,1.1,0,1.6l9.6,21.2c0.3,0.7,1,1.1,1.8,1.1
			h5.3v2.2h-8.7l-11.4-25.3c-0.3-0.7-1-1.1-1.8-1.1h-9.7c-1.1,0-1.9,0.9-1.9,1.9v24.6H264.5z M269.4,56.4c-1.1,0-1.9,0.9-1.9,1.9v17
			c0,1.1,0.9,1.9,1.9,1.9h10.3c4.1,0,7.3-0.9,9.5-2.7c2.3-1.8,3.5-4.4,3.5-7.9c0-3.2-1.1-5.7-3.3-7.5c-1.9-1.8-4.8-2.8-8.3-2.8
			H269.4z"/>
		<linearGradient id="SVGID_14_" gradientUnits="userSpaceOnUse" x1="329.7008" y1="43.5405" x2="330.9893" y2="107.759">
			<stop  offset="0" style="stop-color:#FFFFFF"/>
			<stop  offset="1" style="stop-color:#D1D3D4"/>
		</linearGradient>
		<path class="st13" d="M331.2,106.5c-7.9,0-14.3-2.5-19.3-7.5c-2.6-2.5-4.5-5.3-5.7-8.4c-1.2-3.2-1.9-6.8-1.9-10.7
			c0-7.6,2.5-14,7.4-19.1c4.8-5,11-7.5,18.4-7.5c3.9,0,7.8,0.9,11.4,2.6c2.5,1.2,4.7,2.8,6.5,4.6c0.4,0.4,0.9,0.6,1.4,0.6
			c0.3,0,0.5,0,0.7-0.1c0.7-0.3,1.2-1,1.2-1.8v-1.1h2.2v12h-2.4c-0.8-2.2-1.8-4.2-2.9-5.7c-1.4-1.9-3.1-3.5-5.1-4.8
			c-4-2.5-8.3-3.8-12.9-3.8c-6.6,0-12.1,2.3-16.4,6.7c-4.3,4.4-6.5,10.3-6.5,17.4c0,6.9,2.3,12.8,6.7,17.3
			c4.4,4.5,10.2,6.8,17.2,6.8c5.5,0,10.5-1.6,14.7-4.7c3.8-2.8,6.2-6.8,7.2-11.7c0.1-0.6,0-1.1-0.4-1.6c-0.4-0.4-0.9-0.7-1.5-0.7
			h-19.7v-2.2h24.9c-0.2,3.5-0.8,6.5-1.8,9.1c-1.2,2.9-2.9,5.5-5.3,7.7C344.8,104.3,338.6,106.5,331.2,106.5L331.2,106.5z"/>
		<linearGradient id="SVGID_15_" gradientUnits="userSpaceOnUse" x1="390.8257" y1="42.3148" x2="392.1143" y2="106.5335">
			<stop  offset="0" style="stop-color:#FFFFFF"/>
			<stop  offset="1" style="stop-color:#D1D3D4"/>
		</linearGradient>
		<path class="st14" d="M391.6,106.5c-7.5,0-13.7-2.5-18.6-7.5c-4.9-5.1-7.4-11.5-7.4-19.1c0-7.6,2.5-14,7.4-19.1
			c4.8-5,11.1-7.5,18.6-7.5c7.5,0,13.7,2.5,18.6,7.5c4.9,5.1,7.4,11.5,7.4,19.1c0,7.6-2.5,14-7.4,19.1
			C405.3,104,399.1,106.5,391.6,106.5L391.6,106.5z M391.6,55.8c-6.7,0-12.2,2.3-16.4,6.9c-4.3,4.5-6.5,10.3-6.5,17.2
			c0,6.9,2.2,12.7,6.5,17.2c4.2,4.6,9.8,6.9,16.4,6.9c6.6,0,12.1-2.3,16.5-6.8c4.3-4.6,6.5-10.4,6.5-17.3c0-6.9-2.2-12.7-6.4-17.3
			C403.7,58.1,398.2,55.8,391.6,55.8L391.6,55.8z"/>
	</g>
	<g>
		<linearGradient id="SVGID_16_" gradientUnits="userSpaceOnUse" x1="209.2484" y1="46.1233" x2="209.2484" y2="106.4659">
			<stop  offset="0" style="stop-color:#FFFFFF"/>
			<stop  offset="0.4" style="stop-color:#F1F2F2"/>
			<stop  offset="0.4334" style="stop-color:#414042"/>
			<stop  offset="0.5082" style="stop-color:#606164"/>
			<stop  offset="0.5996" style="stop-color:#7C7E81"/>
			<stop  offset="0.6739" style="stop-color:#8D8F92"/>
			<stop  offset="0.7212" style="stop-color:#939598"/>
			<stop  offset="0.7259" style="stop-color:#97999C"/>
			<stop  offset="0.7588" style="stop-color:#B0B2B4"/>
			<stop  offset="0.7908" style="stop-color:#C2C4C6"/>
			<stop  offset="0.8212" style="stop-color:#CDCFD1"/>
			<stop  offset="0.8485" style="stop-color:#D1D3D4"/>
			<stop  offset="0.8897" style="stop-color:#DEDFE0"/>
			<stop  offset="0.953" style="stop-color:#ECEDED"/>
			<stop  offset="1" style="stop-color:#F1F2F2"/>
		</linearGradient>
		<path class="st15" d="M208.5,106.2l-18.3-48.4c-0.4-0.9-1.2-1.5-2.2-1.5h-4.9v-1.2h8.2l0.9,2.6l15.5,40.6c0.4,0.9,1.2,1.5,2.2,1.5
			c1,0,1.9-0.6,2.2-1.6l14.3-38.8c0.3-0.7,0.2-1.5-0.3-2.2c-0.5-0.6-1.2-1-2-1h-3.5v-1.2h14.8v1.2h-4.9c-1,0-1.9,0.6-2.2,1.6
			l-17.7,48.4H208.5z"/>
		<linearGradient id="SVGID_17_" gradientUnits="userSpaceOnUse" x1="246.1514" y1="46.1229" x2="246.1514" y2="106.4665">
			<stop  offset="0" style="stop-color:#FFFFFF"/>
			<stop  offset="0.4" style="stop-color:#F1F2F2"/>
			<stop  offset="0.4334" style="stop-color:#414042"/>
			<stop  offset="0.5082" style="stop-color:#606164"/>
			<stop  offset="0.5996" style="stop-color:#7C7E81"/>
			<stop  offset="0.6739" style="stop-color:#8D8F92"/>
			<stop  offset="0.7212" style="stop-color:#939598"/>
			<stop  offset="0.7259" style="stop-color:#97999C"/>
			<stop  offset="0.7588" style="stop-color:#B0B2B4"/>
			<stop  offset="0.7908" style="stop-color:#C2C4C6"/>
			<stop  offset="0.8212" style="stop-color:#CDCFD1"/>
			<stop  offset="0.8485" style="stop-color:#D1D3D4"/>
			<stop  offset="0.8897" style="stop-color:#DEDFE0"/>
			<stop  offset="0.953" style="stop-color:#ECEDED"/>
			<stop  offset="1" style="stop-color:#F1F2F2"/>
		</linearGradient>
		<path class="st16" d="M238.5,105.7v-1.2h4.2c1.3,0,2.4-1.1,2.4-2.4v-47h2.1v47c0,1.3,1.1,2.4,2.4,2.4h4.3v1.2H238.5z M245,48.8
			v-2.7h2.1v2.7H245z"/>
		<linearGradient id="SVGID_18_" gradientUnits="userSpaceOnUse" x1="279.3966" y1="46.1232" x2="279.3966" y2="106.4662">
			<stop  offset="0" style="stop-color:#FFFFFF"/>
			<stop  offset="0.4" style="stop-color:#F1F2F2"/>
			<stop  offset="0.4334" style="stop-color:#414042"/>
			<stop  offset="0.5082" style="stop-color:#606164"/>
			<stop  offset="0.5996" style="stop-color:#7C7E81"/>
			<stop  offset="0.6739" style="stop-color:#8D8F92"/>
			<stop  offset="0.7212" style="stop-color:#939598"/>
			<stop  offset="0.7259" style="stop-color:#97999C"/>
			<stop  offset="0.7588" style="stop-color:#B0B2B4"/>
			<stop  offset="0.7908" style="stop-color:#C2C4C6"/>
			<stop  offset="0.8212" style="stop-color:#CDCFD1"/>
			<stop  offset="0.8485" style="stop-color:#D1D3D4"/>
			<stop  offset="0.8897" style="stop-color:#DEDFE0"/>
			<stop  offset="0.953" style="stop-color:#ECEDED"/>
			<stop  offset="1" style="stop-color:#F1F2F2"/>
		</linearGradient>
		<path class="st17" d="M265.5,105.8V58.7c0-1.3-1.1-2.4-2.4-2.4h-5.4v-1.2h24.9c4,0,7.1,1.1,9.6,3.3c2.4,2.2,3.6,4.9,3.6,8.3
			c0,3.3-0.9,5.9-2.6,8c-1.6,1.8-4,3.1-7.2,4c-0.7,0.2-1.2,0.7-1.5,1.3c-0.3,0.6-0.3,1.4,0,2l9.6,21.2c0.4,0.9,1.2,1.4,2.2,1.4h4.9
			v1.2h-7.9l-11.3-25c-0.4-0.9-1.2-1.4-2.2-1.4H270c-1.3,0-2.4,1.1-2.4,2.4v24.1H265.5z M270,56.3c-1.3,0-2.4,1.1-2.4,2.4v17
			c0,1.3,1.1,2.4,2.4,2.4h10.3c4.2,0,7.5-0.9,9.8-2.8c2.4-1.9,3.6-4.7,3.6-8.3c0-3.3-1.2-6-3.4-7.8c-2-1.9-4.9-2.9-8.6-2.9H270z"/>
		<linearGradient id="SVGID_19_" gradientUnits="userSpaceOnUse" x1="331.0503" y1="46.1233" x2="331.0503" y2="106.4661">
			<stop  offset="0" style="stop-color:#FFFFFF"/>
			<stop  offset="0.4" style="stop-color:#F1F2F2"/>
			<stop  offset="0.4334" style="stop-color:#414042"/>
			<stop  offset="0.5082" style="stop-color:#606164"/>
			<stop  offset="0.5996" style="stop-color:#7C7E81"/>
			<stop  offset="0.6739" style="stop-color:#8D8F92"/>
			<stop  offset="0.7212" style="stop-color:#939598"/>
			<stop  offset="0.7259" style="stop-color:#97999C"/>
			<stop  offset="0.7588" style="stop-color:#B0B2B4"/>
			<stop  offset="0.7908" style="stop-color:#C2C4C6"/>
			<stop  offset="0.8212" style="stop-color:#CDCFD1"/>
			<stop  offset="0.8485" style="stop-color:#D1D3D4"/>
			<stop  offset="0.8897" style="stop-color:#DEDFE0"/>
			<stop  offset="0.953" style="stop-color:#ECEDED"/>
			<stop  offset="1" style="stop-color:#F1F2F2"/>
		</linearGradient>
		<path class="st18" d="M331.8,106.5c-7.7,0-14.1-2.5-19-7.3c-2.5-2.4-4.4-5.2-5.6-8.3c-1.2-3.1-1.8-6.7-1.8-10.5
			c0-7.5,2.4-13.8,7.3-18.7c4.8-4.9,10.8-7.4,18.1-7.4c3.9,0,7.6,0.9,11.2,2.6c2.4,1.2,4.6,2.7,6.4,4.5c0.4,0.4,1.1,0.7,1.7,0.7
			c0.3,0,0.6-0.1,0.9-0.2c0.9-0.4,1.5-1.2,1.5-2.2V59h1.2v11.1h-1.6c-0.8-2.2-1.7-4-2.9-5.5c-1.4-1.9-3.2-3.6-5.2-4.9
			c-4.1-2.6-8.5-3.9-13.2-3.9c-6.7,0-12.4,2.3-16.8,6.9c-4.4,4.5-6.6,10.5-6.6,17.7c0,7.1,2.3,13,6.8,17.6c4.5,4.6,10.4,7,17.5,7
			c5.6,0,10.7-1.6,15-4.7c3.9-2.9,6.4-6.9,7.4-12c0.1-0.7,0-1.4-0.5-2c-0.4-0.5-1.1-0.9-1.8-0.9h-19.2v-1.2h24
			c-0.2,3.2-0.8,6.1-1.7,8.4c-1.1,2.9-2.9,5.4-5.2,7.5C345.1,104.3,339.1,106.5,331.8,106.5L331.8,106.5z"/>
		<linearGradient id="SVGID_20_" gradientUnits="userSpaceOnUse" x1="392.1767" y1="46.1233" x2="392.1767" y2="106.4661">
			<stop  offset="0" style="stop-color:#FFFFFF"/>
			<stop  offset="0.4" style="stop-color:#F1F2F2"/>
			<stop  offset="0.4334" style="stop-color:#414042"/>
			<stop  offset="0.5082" style="stop-color:#606164"/>
			<stop  offset="0.5996" style="stop-color:#7C7E81"/>
			<stop  offset="0.6739" style="stop-color:#8D8F92"/>
			<stop  offset="0.7212" style="stop-color:#939598"/>
			<stop  offset="0.7259" style="stop-color:#97999C"/>
			<stop  offset="0.7588" style="stop-color:#B0B2B4"/>
			<stop  offset="0.7908" style="stop-color:#C2C4C6"/>
			<stop  offset="0.8212" style="stop-color:#CDCFD1"/>
			<stop  offset="0.8485" style="stop-color:#D1D3D4"/>
			<stop  offset="0.8897" style="stop-color:#DEDFE0"/>
			<stop  offset="0.953" style="stop-color:#ECEDED"/>
			<stop  offset="1" style="stop-color:#F1F2F2"/>
		</linearGradient>
		<path class="st19" d="M392.2,106.5c-7.4,0-13.5-2.5-18.2-7.4c-4.8-5-7.3-11.3-7.3-18.7c0-7.5,2.4-13.8,7.3-18.7
			c4.8-4.9,10.9-7.4,18.2-7.4c7.3,0,13.5,2.5,18.2,7.4c4.8,5,7.3,11.3,7.3,18.7c0,7.5-2.4,13.8-7.3,18.7
			C405.7,104,399.5,106.5,392.2,106.5L392.2,106.5z M392.2,55.8c-6.8,0-12.4,2.4-16.8,7.1c-4.4,4.6-6.6,10.5-6.6,17.5
			c0,7,2.2,13,6.7,17.5c4.3,4.7,10,7,16.8,7c6.7,0,12.4-2.3,16.8-7c4.4-4.7,6.6-10.6,6.6-17.6c0-7-2.2-12.9-6.6-17.6
			C404.6,58.1,398.9,55.8,392.2,55.8L392.2,55.8z"/>
	</g>
</g>
</svg>
