<?xml version="1.0" encoding="utf-8"?>
<!-- Generator: Adobe Illustrator 21.1.0, SVG Export Plug-In . SVG Version: 6.00 Build 0)  -->
<svg version="1.1" id="Layer_7" xmlns="http://www.w3.org/2000/svg" xmlns:xlink="http://www.w3.org/1999/xlink" x="0px" y="0px"
	 viewBox="0 0 255.1 255.1" style="enable-background:new 0 0 255.1 255.1;" xml:space="preserve">
<style type="text/css">
	.st0{fill:url(#SVGID_1_);}
	.st1{fill:url(#SVGID_2_);}
	.st2{fill:url(#SVGID_3_);}
	.st3{fill:url(#SVGID_4_);}
	.st4{fill:url(#SVGID_5_);}
	.st5{fill:url(#SVGID_6_);}
	.st6{fill:url(#SVGID_7_);}
	.st7{fill:url(#SVGID_8_);}
	.st8{fill:#FFFFFF;}
</style>
<g>
	<radialGradient id="SVGID_1_" cx="128.3324" cy="111.3574" r="105.3908" gradientUnits="userSpaceOnUse">
		<stop  offset="0.2" style="stop-color:#FFFFFF"/>
		<stop  offset="0.7" style="stop-color:#FFFFFF;stop-opacity:0.6"/>
		<stop  offset="1" style="stop-color:#FFFFFF"/>
	</radialGradient>
	<path class="st0" d="M233.7,139.6c-0.1-0.3-0.3-0.5-0.5-0.7c-0.4-0.4-0.8-0.7-1.2-1c-0.2-0.1-0.4-0.3-0.7-0.4l0.2,0.1
		c-3.9-7.1-7.7-13.7-11.1-19.5c-3.3-5.8-6.3-10.8-8.7-15c-4.9-8.3-7.9-13.1-7.9-13.1s2.6,5.4,7.2,14.2c2.3,4.4,5.1,9.6,8.3,15.3
		c3,5.3,6.4,11.1,10,17.2c-1.2-0.4-2.4-0.7-3.6-1c-1.6-0.4-3.2-0.6-4.7-0.9c-3-0.4-5.8-0.7-8.2-0.8c-2.4-0.2-4.5-0.2-6.2-0.2
		c-2.1,0-3.6,0-4.5,0c0.2-27.4-0.8-45.5-0.8-45.5s-1,19.3-0.8,45.5c-0.9,0-2.4,0-4.5,0c-1.7,0-3.8,0.1-6.2,0.2
		c-2.4,0.1-5.2,0.4-8.2,0.8c-1.5,0.2-3.1,0.5-4.7,0.9c-1.2,0.3-2.4,0.6-3.7,1c3.8-6.4,7.3-12.4,10.3-17.8c3.3-5.8,6-11,8.3-15.3
		c4.5-8.6,6.9-13.6,6.9-13.6c0,0-3.2,5.1-8.2,13.6c-2.5,4.3-5.5,9.4-8.8,15.1c-3.2,5.6-7.2,12.3-10.8,19c-0.1,0.1-0.2,0.1-0.4,0.2
		c-0.4,0.3-0.8,0.6-1.2,1c-0.2,0.2-0.3,0.4-0.5,0.7c-0.1,0.3-0.2,0.6-0.1,0.9c0,0.1,0,0.2,0.1,0.3c0-0.1-0.1-0.1-0.1-0.1
		c0.1,0.5,0.7,2.2,0.9,3c0,0.1,0,0.1,0,0.2c0.2,0.7,0.4,1.4,0.7,2.2c0.2,0.5,0.4,1,0.7,1.5c0.3,0.7,0.7,1.3,1.2,2
		c0.5,0.7,1,1.5,1.6,2.3c0,0,0,0.1,0.1,0.1c0.1,0.2,0.3,0.4,0.4,0.5c0.5,0.6,1.1,1.3,1.7,1.9c0.4,0.4,0.9,0.9,1.3,1.3
		c0.6,0.5,1.2,1.1,1.9,1.6c0.1,0.1,0.2,0.2,0.3,0.2c1.5,1.2,3.2,2.3,5.1,3.3c2.3,1.3,4.9,2.3,7.7,3.1c2.8,0.8,5.8,1.2,8.8,1.2
		c3.1,0,6-0.4,8.8-1.2c2.8-0.8,5.4-1.8,7.7-3.1c2.9-1.6,5.4-3.5,7.5-5.4c0.1-0.1,0.3-0.2,0.4-0.4c1.1-1,2-2.1,2.9-3.1
		c0.8-1,1.5-2,2-2.9c0.3-0.5,0.5-0.9,0.8-1.4c0.5-0.9,0.8-1.7,1.1-2.5c0.1-0.4,0.3-0.8,0.4-1.1c0-0.1,0.1-0.3,0.1-0.4
		c0.2-0.8,0.6-2,0.7-2.6c0,0,0,0,0,0c0.1-0.2,0.1-0.3,0.1-0.5C233.9,140.2,233.8,139.9,233.7,139.6z M170.2,139.5
		c0.5-0.6,1.3-1,2-1.4c0,0,0,0,0,0c0,0,0.1,0,0.1-0.1c1.5-0.7,3.1-1.2,4.7-1.5c1.6-0.4,3.2-0.7,4.6-1c3-0.5,5.7-0.8,8.1-1.1
		c2.4-0.2,4.5-0.4,6.2-0.5c2.1-0.1,3.6-0.2,4.5-0.2c0,3.5,0.1,7,0.1,10.7h1.4c0.1-3.7,0.1-7.3,0.1-10.7c0.9,0,2.4,0.1,4.5,0.2
		c1.7,0.1,3.8,0.2,6.2,0.5c2.4,0.2,5.1,0.6,8.1,1.1c1.5,0.3,3,0.6,4.7,1c1.5,0.4,3.1,0.8,4.6,1.5c0.1,0,0.1,0.1,0.2,0.1c0,0,0,0,0,0
		c0.8,0.4,1.6,0.8,2.1,1.4c0.2,0.3,0.4,0.6,0.3,0.9c0,0.3-0.2,0.6-0.5,0.9c-0.2,0.2-0.4,0.3-0.6,0.4c-0.1-0.3-0.3-0.6-0.4-0.8
		c-0.4-0.5-0.9-0.9-1.4-1.2c-1-0.6-2-0.9-3-1.3c-2-0.6-3.9-1-5.7-1.3c-3.6-0.6-6.7-0.9-9.2-1.1c-5.1-0.4-7.9-0.3-7.9-0.3
		c0,0,2.8,0.1,7.8,0.8c2.5,0.3,5.6,0.8,9.1,1.5c1.8,0.4,3.6,0.8,5.6,1.5c1,0.3,1.9,0.7,2.8,1.2c0.4,0.3,0.8,0.6,1.1,0.9
		c0.2,0.2,0.3,0.5,0.2,0.7c-0.2,0.1-0.3,0.2-0.5,0.2c-0.9,0.4-1.8,0.7-2.8,0.9c-3.8,1-8,1.6-12.3,2c-4.3,0.4-8.9,0.6-13.5,0.6
		c-4.6,0-9.2-0.2-13.5-0.6c-4.3-0.4-8.5-1-12.3-2c-1-0.3-1.9-0.6-2.8-0.9c-0.1,0-0.2-0.1-0.3-0.1c0-0.1,0.1-0.1,0.1-0.2
		c0.1-0.1,0.3-0.3,0.5-0.4c0.4-0.3,0.8-0.6,1.2-0.8c0.9-0.5,1.8-0.8,2.7-1.2c1.8-0.7,3.6-1.2,5.3-1.6c3.4-0.9,6.3-1.4,8.8-1.8
		c2.4-0.4,4.4-0.5,5.7-0.6c1.3,0,2,0.1,2,0.1c0,0-0.7-0.2-1.9-0.2c-1.3-0.1-3.2,0-5.6,0.2c-2.5,0.2-5.5,0.6-8.9,1.4
		c-1.7,0.4-3.6,0.8-5.5,1.4c-1,0.3-2,0.7-3,1.2c-0.5,0.2-1,0.5-1.5,0.9c-0.2,0.2-0.5,0.4-0.7,0.7c-0.1,0.1-0.2,0.3-0.3,0.4
		c-0.3-0.2-0.6-0.4-0.8-0.6c-0.3-0.3-0.5-0.6-0.5-0.9C169.8,140.1,169.9,139.8,170.2,139.5z M222.2,156.8l1.3-1c0,0,0,0,0,0
		C223.1,156.2,222.7,156.5,222.2,156.8z M228.1,151.5c-0.1,0.1-0.2,0.2-0.3,0.3l1.1-1.3C228.6,150.9,228.4,151.2,228.1,151.5z
		 M232.6,143.4c-1.4,1.2-3.4,2.5-4.9,3.1c-1.6,0.7-3.3,1.2-4.8,1.5c-3.1,0.7-5.9,1-8.2,1.1c-2.3,0.2-4.1,0.2-5.3,0.3l-1.9,0.1
		l1.8,0.1c1.2,0,2.9,0.1,5.2,0.1c2.3,0,5.1-0.1,8.3-0.7c1.6-0.3,3.4-0.7,5.1-1.4c1.3-0.5,2.7-1.1,4-2c-0.3,0.5-0.5,1.1-0.9,1.7l0,0
		c-3,1.9-6.1,2.7-8.9,3.2c-2.8,0.5-5.3,0.6-7.3,0.6l-4.7,0.1l-1.6,0.1l1.6,0.1c1.1,0,2.6,0.1,4.6,0.2c2,0.1,4.5,0.1,7.4-0.2
		c1.5-0.2,3-0.4,4.6-0.9c0.9-0.3,1.9-0.6,2.8-1c-0.2,0.3-0.5,0.7-0.8,1c-2.5,1.1-6.4,2.3-8.5,2.7c-2.2,0.4-4.1,0.6-5.6,0.8
		c-3.1,0.3-4.9,0.3-4.9,0.3c0,0,1.7,0.1,4.8,0.1c1.6,0,3.5-0.1,5.7-0.3c2-0.3,4.3-0.7,6.6-1.6c-0.5,0.5-1,1-1.6,1.5
		c0,0-0.1,0-0.1,0.1c-2.5,0.9-4.1,1-5.7,1.4c-1.7,0.5-3.1,0.8-4.4,1c-2.4,0.5-3.8,0.5-3.8,0.5c0,0,1.3,0.2,3.8,0
		c1.2-0.1,2.7-0.3,4.5-0.6c0.4-0.1,1.2-0.2,2.1-0.4c0,0,0,0,0,0c0,0,0.1,0,0.1,0v0c0.4-0.1,0.9-0.2,1.2-0.2c-0.5,0.3-1,0.6-1.1,0.6
		c-2.9,1.1-5.5,1.6-7.1,2c-1.7,0.5-2.7,0.6-2.7,0.6c0,0,1,0,2.7-0.2c1.4-0.2,3.3-0.5,5.6-1.1c-1,0.7-2.1,1.3-3.3,1.9
		c-4.5,2.3-10.1,3.9-16,3.9c-5.9,0-11.4-1.6-16-3.9c-1-0.5-1.9-1-2.7-1.6c1.6,0.4,3,0.6,4.1,0.7c1.8,0.2,2.8,0.2,2.8,0.2
		c0,0-1-0.2-2.6-0.6c-1.7-0.5-6.1-1.5-7-2.4c0,0-0.1,0.2-0.1,0.1c-0.1-0.1-0.2-0.2-0.3-0.2c0.1,0,0.2,0,0.4,0.1c0,0,0.1,0,0.1,0
		c0.7,0.1,1.3,0.3,2,0.4c1.7,0.3,3.2,0.5,4.5,0.6c2.5,0.2,3.9,0,3.9,0c0,0-1.4,0-3.8-0.5c-1.2-0.2-2.7-0.5-4.3-1
		c-1.4-0.4-3-0.8-4.7-1.3c-0.5-0.4-0.9-0.9-1.4-1.3c1.9,0.6,3.7,0.9,5.3,1.1c2.2,0.3,4.2,0.3,5.7,0.4c3.2,0,4.9-0.1,4.9-0.1
		c0,0-1.7-0.1-4.8-0.3c-1.5-0.1-3.4-0.4-5.6-0.8c-2-0.4-4.8-1-7.2-2.1c-0.3-0.4-0.7-0.8-1-1.2c0.5,0.2,1,0.4,1.5,0.5
		c1.6,0.5,3.2,0.7,4.6,0.9c2.9,0.3,5.4,0.3,7.4,0.2c2-0.1,3.6-0.2,4.7-0.2l1.6-0.1l-1.6-0.1l-4.6-0.1c-2-0.1-4.5-0.2-7.3-0.6
		c-2.4-0.4-5.1-1.1-7.7-2.4c-0.4-0.6-0.7-1.1-0.9-1.6c0.9,0.5,1.8,0.9,2.7,1.2c1.8,0.7,3.5,1.1,5.1,1.4c3.2,0.6,6.1,0.7,8.4,0.7
		c2.3,0,4.1,0,5.3-0.1l1.9-0.1l-1.8-0.1c-1.2,0-2.9-0.1-5.2-0.3c-2.3-0.2-5-0.4-8.2-1.1c-1.6-0.4-3.2-0.8-4.9-1.5
		c-1.4-0.6-2.8-1.4-4.1-2.4c-0.1-0.2-0.1-0.4-0.2-0.5c-0.2-0.7-0.3-1.3-0.4-1.8c0,0.1,0.1,0.1,0.2,0.2c0.8,0.7,1.7,1.2,2.6,1.6
		c0.9,0.4,1.9,0.7,2.9,1c3.9,1.1,8.2,1.7,12.5,2.2c4.4,0.4,8.9,0.7,13.6,0.7c4.7,0,9.2-0.2,13.6-0.6c4.4-0.4,8.6-1.1,12.5-2.2
		c1-0.3,1.9-0.6,2.9-1c0.4-0.2,0.8-0.4,1.2-0.6c0.1,0,0.1-0.1,0.2-0.1c0.5-0.3,0.9-0.6,1.3-0.9c0,0,0.1-0.1,0.1-0.1
		C233,142.4,232.7,143,232.6,143.4z"/>
	<radialGradient id="SVGID_2_" cx="128.3324" cy="111.3574" r="105.3908" gradientUnits="userSpaceOnUse">
		<stop  offset="0.2" style="stop-color:#FFFFFF"/>
		<stop  offset="0.7" style="stop-color:#FFFFFF;stop-opacity:0.6"/>
		<stop  offset="1" style="stop-color:#FFFFFF"/>
	</radialGradient>
	<path class="st1" d="M167.5,187.5C167.5,187.5,167.5,187.4,167.5,187.5c0-0.1-8.1-7.5-8.1-7.5c0,0,0,0,0,0.1
		c-0.3-0.3-0.6-0.5-1-0.7c-0.4-0.3-0.8-0.5-1.3-0.7c-1.7-0.7-3.4-1.2-5-1.6c-1.6-0.4-3.2-0.6-4.7-0.9c-2.7-0.4-5.3-0.6-7.5-0.8
		c-0.1-0.2-0.2-0.4-0.3-0.6c-0.8-1.5-1.5-3-2.2-4.5c0-0.1-0.1-0.2-0.1-0.3c-0.2-0.5-0.4-1.1-0.6-1.6c-0.2-0.5-0.3-0.9-0.5-1.4
		c-0.2-0.6-0.4-1.2-0.6-1.8c-1-3.3-1.8-6.6-2.5-9.8c-0.7-3.2-1.2-6.4-1.7-9.4c-1-6.1-1.7-11.9-2.2-17.3c-0.3-2.5-0.5-4.9-0.7-7.3
		c0-3.4,0-6.7,0-9.9c-0.1,0.1-0.2,0.1-0.4,0.1c0,0-0.1,0-0.1,0l-0.2,0c-0.1,0-0.2,0-0.3,0l-0.2,0c-0.3,0-0.5-0.1-0.7-0.3
		c0,3.3,0,6.7,0,10.2c-0.2,2.3-0.4,4.7-0.7,7.3c-0.6,5.4-1.2,11.2-2.2,17.3c-0.5,3.1-1,6.2-1.7,9.4c-0.7,3.2-1.5,6.5-2.5,9.8
		c-0.2,0.6-0.4,1.2-0.6,1.8c-0.2,0.5-0.3,0.9-0.5,1.4c-0.2,0.5-0.4,1.1-0.6,1.6c0,0.1-0.1,0.2-0.1,0.3c-0.6,1.5-1.3,3.1-2.2,4.5
		c-0.1,0.2-0.2,0.4-0.4,0.6c-2.2,0.2-4.8,0.4-7.5,0.8c-1.5,0.2-3.1,0.5-4.7,0.9c-1.6,0.4-3.3,0.8-5,1.6c-0.4,0.2-0.8,0.4-1.3,0.7
		c-0.3,0.2-0.7,0.4-1,0.7c0-0.1,0-0.1,0-0.1c0,0-8,7.4-8,7.4c0,0,0,0.1,0,0.1l-0.3,0.3c-0.1,0.3-0.1,0.4,0,0.8
		c0.1,0.8,0.6,1.4,1,1.8c1,0.9,2.1,1.5,3.3,2c1.2,0.5,2.4,0.9,3.6,1.2c2.5,0.7,5,1.2,7.6,1.7c2.6,0.4,5.3,0.8,8,1.1
		c5.2,0.5,10.7,0.8,16.2,0.8c0,0,0,0,0.1,0c0,0,0.1,0,0.1,0c0.1,0,0.2,0,0.3,0c0.1,0,0.2,0,0.3,0c0,0,0.1,0,0.1,0c0,0,0,0,0.1,0
		c5.6,0,11-0.3,16.2-0.8c2.7-0.3,5.4-0.6,8.1-1.1c2.6-0.4,5.2-1,7.6-1.7c1.2-0.4,2.4-0.8,3.6-1.2c1.2-0.5,2.3-1.1,3.3-2
		c0.5-0.5,0.9-1.1,1-1.8c0-0.4,0.1-0.4,0-0.8L167.5,187.5z M131.8,157c0.7,3.1,1.5,6.2,2.5,9.4c-1-0.1-2,0-3.1,0.5
		c-0.5,0.2-0.9,0.5-1.3,0.8c0.6-1.4,1-2.8,1.3-4.2C131.6,161.2,131.8,159,131.8,157z M128.6,138.7c0.2,1.6,0.4,3.5,0.7,5.7
		c0.4,3.4,0.9,7.5,0.9,12c0,2.2-0.2,4.6-0.7,7c-0.2,1.2-0.6,2.4-1,3.5C128.6,157.1,128.6,147.6,128.6,138.7z M128.5,175.3
		C128.5,175.3,128.5,175.3,128.5,175.3C128.5,175.3,128.5,175.2,128.5,175.3C128.5,175.2,128.5,175.2,128.5,175.3c0-1,0-1.9,0-2.8
		c0.3-1,0.7-1.9,1.3-2.6c0.2-0.2,0.3-0.4,0.5-0.6c0.1-0.1,0.2-0.2,0.3-0.2l0.1-0.1l0.1-0.1l0,0c0,0,0.1-0.1,0.1-0.1
		c0.4-0.3,0.8-0.6,1.2-0.8c0.8-0.4,1.7-0.6,2.5-0.6c0.1,0,0.1,0,0.2,0c0.8,2.4,1.8,4.8,3,7.2c-0.4-0.2-0.9-0.3-1.4-0.4
		c-1.2-0.2-2.5-0.1-3.8,0.2c-0.6,0.2-1.2,0.4-1.8,0.7c-0.2,0-0.3,0-0.5,0c0.2,0,0.3,0,0.5,0c-0.1,0-0.1,0.1-0.2,0.1c0,0-0.1,0-0.1,0
		c-0.6,0.3-1.1,0.7-1.6,1.2c-0.1,0.1-0.2,0.2-0.3,0.3C128.5,176.4,128.5,175.8,128.5,175.3z M125.9,144.5c0.3-2.2,0.5-4.1,0.7-5.7
		c0,8.9,0,18.3,0.1,28.2c-0.4-1.2-0.8-2.4-1-3.5c-0.5-2.4-0.7-4.7-0.7-7C124.9,151.9,125.4,147.8,125.9,144.5z M123.3,157
		c0,2,0.2,4.2,0.6,6.4c0.3,1.4,0.7,2.8,1.3,4.2c-0.4-0.3-0.9-0.6-1.3-0.8c-1-0.4-2.1-0.6-3.1-0.5C121.8,163.2,122.6,160.1,123.3,157
		z M120.5,167.5c0.1,0,0.1,0,0.2,0c0.8,0,1.6,0.2,2.5,0.6c0.4,0.2,0.8,0.5,1.2,0.8c0,0,0.1,0.1,0.1,0.1l0,0l0.1,0.1l0.1,0.1
		c0.1,0.1,0.2,0.2,0.3,0.2c0.2,0.2,0.3,0.4,0.5,0.6c0.5,0.7,0.9,1.6,1.3,2.6c0,0.9,0,1.8,0,2.7c0,0,0,0,0,0c0,0,0,0,0,0c0,0,0,0,0,0
		c0,0.5,0,1.1,0,1.6c-0.1-0.1-0.2-0.2-0.3-0.3c-0.5-0.5-1.1-0.9-1.6-1.2c0,0-0.1,0-0.1,0c-0.1,0-0.1-0.1-0.2-0.1c0.2,0,0.3,0,0.5,0
		c-0.2,0-0.3,0-0.5,0c-0.6-0.3-1.2-0.5-1.8-0.7c-1.3-0.4-2.6-0.4-3.8-0.2c-0.5,0.1-1,0.2-1.4,0.4
		C118.7,172.3,119.6,169.9,120.5,167.5z M96.2,180.9c0.5-0.6,1.3-1,2.1-1.4c1.6-0.7,3.2-1.2,4.8-1.6c1.6-0.4,3.2-0.7,4.7-1
		c2.6-0.4,4.9-0.7,7.1-1c0,0-0.1,0.1-0.1,0.1c-0.1,0.1-0.2,0.3-0.3,0.4c-0.2,0.2-0.4,0.5-0.6,0.7c-0.1,0.1-0.1,0.2-0.1,0.2
		c-0.4,0.5-0.9,1.1-1.4,1.5c-0.8,0.7-1.7,1.3-2.7,1.7c0,0-0.1,0-0.1,0c-0.6,0.2-1.2,0.3-1.8,0.3c0.4,0.3,1.3,0.4,4.5,0c0,0,0,0,0,0
		c0.2-0.1,0.3-0.2,0.5-0.3c0,0,0,0,0,0l0,0c0.1-0.1,0.1-0.1,0.2-0.2c0,0,0,0,0,0c0,0,0.1-0.1,0.1-0.1c1.4-1.2,2.5-2.6,3.4-4
		c0.5-0.2,0.9-0.4,1.5-0.5c0.7-0.1,1.5-0.1,2.1-0.2c0.6,0,1.2,0.1,1.9,0.3c1.1,0.3,2.2,0.9,3.2,1.7l1.6,1.8c0,0.2,0,0.4,0,0.6v0
		c0,0,0,0,0,0c0.1,0,0.3,0,0.4,0c0.1,0,0.2,0,0.3,0c0.1,0,0.2,0,0.2,0c0.1,0,0.1,0,0.2,0c0.1,0,0.2,0,0.3,0c0.1,0,0.3,0,0.4,0
		c0,0,0,0,0,0v0c0-0.2,0-0.4,0-0.6l1.6-1.8c1-0.8,2.1-1.4,3.2-1.7c0.6-0.2,1.3-0.3,1.9-0.3c0.7,0.1,1.4,0.1,2.1,0.2
		c0.5,0.1,1,0.3,1.5,0.5c0.9,1.5,2,2.9,3.4,4c0,0,0.1,0.1,0.1,0.1c0,0,0,0,0,0c0.1,0.1,0.2,0.1,0.2,0.2l0,0c0,0,0,0,0,0
		c0.2,0.1,0.3,0.2,0.5,0.3c0,0,0,0,0,0c3.2,0.4,4,0.4,4.5,0c-0.6,0-1.2-0.1-1.8-0.3c0,0-0.1,0-0.1,0c-1-0.3-1.9-0.9-2.7-1.7
		c-0.5-0.5-1-1-1.4-1.5c-0.1-0.1-0.1-0.2-0.1-0.2c-0.2-0.2-0.4-0.5-0.6-0.7c-0.1-0.1-0.2-0.3-0.3-0.4c0-0.1-0.1-0.1-0.1-0.1
		c2.1,0.2,4.5,0.5,7.1,1c1.5,0.3,3.1,0.6,4.7,1c1.6,0.4,3.2,0.9,4.8,1.6c0.8,0.4,1.5,0.8,2.1,1.4c0,0,0,0,0,0c0.2,1-1.8,2.3-2,2.2
		l0,0c-0.5,0.3-1.1,0.6-1.7,0.8c-0.9,0.4-1.8,0.6-2.8,0.9c-3.8,1-8,1.6-12.3,2c-4,0.4-8.2,0.5-12.5,0.6c-4.3,0-8.4-0.2-12.5-0.6
		c-4.3-0.4-8.5-1-12.4-2c-0.9-0.3-1.9-0.6-2.8-0.9c-0.6-0.2-1.2-0.5-1.7-0.8l0,0C98,183.3,96.1,182,96.2,180.9
		C96.2,181,96.2,180.9,96.2,180.9z M88.7,188.8L88.7,188.8C88.7,188.9,88.7,188.9,88.7,188.8z M162.8,190.9
		c-1.1,0.5-2.1,0.9-3.3,1.2c-2.4,0.7-4.9,1.5-7.5,1.9c-2.6,0.4-5.3,0.7-8,1c-5.3,0.5-10.8,0.7-16.4,0.7c-5.6,0-11.1-0.2-16.4-0.7
		c-2.7-0.3-5.4-0.6-8-1c-2.6-0.4-5.1-1.2-7.5-1.9c-1.2-0.3-2.2-0.8-3.3-1.2c-1-0.4-2.6-1.3-3.4-2.3c1.1-1.2,5.1-5.2,5.1-5.2
		c0.3-0.3,0.5-0.6,0.8-0.8c0,0,0.1-0.1,0.1-0.2c0.1,0.2,0.2,0.4,0.3,0.6c0,0,0,0,0,0c0.1,0.1,0.2,0.3,0.3,0.4
		c0.1,0.1,0.2,0.2,0.3,0.3c0,0,0,0,0,0c0.7,0.6,1.5,0.9,2.3,1.3c0.9,0.4,1.9,0.7,2.9,1c3.9,1.1,8.2,1.7,12.5,2.2
		c4.4,0.4,8.9,0.6,13.6,0.6c0.1,0,0.1,0,0.2,0c0.1,0,0.1,0,0.2,0c4.7,0,9.2-0.2,13.6-0.6c4.4-0.4,8.6-1.1,12.5-2.2
		c1-0.3,1.9-0.6,2.9-1c0.8-0.4,1.6-0.7,2.3-1.3c0,0,0,0,0,0c0.1-0.1,0.2-0.2,0.3-0.3c0.1-0.1,0.2-0.2,0.3-0.4c0,0,0,0,0,0
		c0.1-0.2,0.3-0.4,0.3-0.6c0,0.1,0.1,0.1,0.1,0.2c0.2,0.3,0.5,0.5,0.8,0.8c0,0,4,4,5.1,5.2C165.3,189.6,163.8,190.5,162.8,190.9z
		 M166.4,188.9L166.4,188.9C166.4,188.9,166.4,188.9,166.4,188.9z"/>
	<radialGradient id="SVGID_3_" cx="128.3324" cy="111.3574" r="105.3908" gradientUnits="userSpaceOnUse">
		<stop  offset="0.2" style="stop-color:#FFFFFF"/>
		<stop  offset="0.7" style="stop-color:#FFFFFF;stop-opacity:0.6"/>
		<stop  offset="1" style="stop-color:#FFFFFF"/>
	</radialGradient>
	<path class="st2" d="M48.7,83.1c0.7,0.8,1.6,1.4,2.7,1.9c1.1,0.5,2.3,0.8,3.5,1c1.2,0.2,2.5,0.3,3.7,0.4c2.5,0.1,5.1,0.1,7.8-0.1
		c5.4-0.3,11.1-1,17.1-1.8c6-0.8,12.4-1.6,19.2-2.1c2.5-0.2,5-0.3,7.6-0.2c-0.1-0.6,0.1-1.2,0.3-1.7c-0.5-0.2-1.1-0.4-1.6-0.7
		c-1.3-0.7-2.6-1.5-3.6-2.3c-2.1-1.7-3.6-3.5-4.3-5.1c-0.4-0.8-0.5-1.6-0.5-2.2c0-0.6,0.1-1.2,0.3-1.6c1.1-0.4,2.3-0.8,3.5-1.2
		c-0.3,0.5-0.6,1-0.7,1.6c-0.3,1-0.2,2,0.2,3c0.3,0.9,0.8,1.8,1.4,2.5c0.6,0.7,1.3,1.3,1.9,1.8c1.3,1,2.6,1.5,3.5,1.8
		c0.9,0.3,1.4,0.4,1.4,0.4c0,0-0.4-0.2-1.2-0.6c-0.7-0.4-1.8-1.1-2.9-2c-1.1-1-2.2-2.3-2.8-3.9c-0.3-0.8-0.4-1.7-0.2-2.5
		c0.2-0.9,0.6-1.8,1.3-2.6l0,0c0.1,0,0.1,0,0.2-0.1l0.6-0.2c0.1,0,0.3-0.1,0.3-0.1l0,0.4l0,0.4l0,0.6c0,0.8,0,1.6,0.1,2.4
		c0.1,0.8,0.4,1.6,0.8,2.4c0.4,0.8,1.1,1.6,1.9,2.2c0.1,0.1,0.2,0.1,0.3,0.2c-0.1-0.5,0-1,0.1-1.5c-0.4-0.4-0.7-0.8-1-1.3
		c-0.4-0.7-0.6-1.4-0.7-2.1c-0.1-0.7-0.1-1.5-0.1-2.2l0-0.6l0.1-0.7c0.1-0.6,0.2-1.3,0.3-1.9c-0.1,0-0.3,0-0.4,0.1l-0.4,0.1
		l-0.9,0.2c-0.3,0.1-0.6,0.1-0.9,0.2l-0.6,0.2c-0.7,0.2-1.4,0.4-2,0.6c-1.3,0.4-2.6,0.8-3.9,1.3c-2.5,1-4.8,2-7.1,3.1
		c-4.5,2.2-8.5,4.5-12.3,6.7c-0.5,0.3-1,0.5-1.4,0.8l-1.5,0.7c-1,0.5-1.9,0.9-2.9,1.4c-1.9,0.9-3.8,1.7-5.7,2.3
		c-1.9,0.6-3.8,1.1-5.6,1.4c-1.9,0.3-3.7,0.4-5.5,0.3c-1.7-0.1-3.4-0.5-4.8-1.1c-0.7-0.3-1.3-0.7-1.8-1.1c-0.5-0.4-0.7-1-0.8-1.5
		c-0.1-0.5,0.1-1,0.3-1.5c0.2-0.5,0.5-0.9,0.9-1.1c0.4-0.3,0.9-0.4,1.4-0.5c0.5,0,1,0.1,1.5,0.2c0.9,0.3,1.5,0.9,1.8,1.4
		c0.1,0.3,0.1,0.5,0.1,0.8c-0.1,0.2-0.2,0.3-0.3,0.4c0,0-0.1,0.1-0.1,0.1l0.2,0c0.1,0,0.1-0.1,0.2-0.1c0.2-0.1,0.5-0.3,0.7-0.5
		c0.2-0.2,0.4-0.6,0.5-0.9c0.3-1.1-0.4-2.2-0.9-2.6c-1.3-1.1-2.7-1.3-4.2-1.5c-0.8-0.1-1.7,0.2-2.5,0.4c-0.8,0.2-1.5,0.7-2,1.3
		c-0.5,0.6-0.7,1.3-0.9,2.1c-0.1,0.7-0.1,1.5,0,2.3C47.7,81.4,48,82.3,48.7,83.1z M95.6,80.6c-0.2,0.4-0.5,0.7-1,0.9
		c-0.5,0.2-2.1,0.7-2.7,0.8l0,0c-2.6,0.3-5.1,0.6-7.5,1c-3.1,0.4-6.1,0.8-9.1,1.2c0.7-0.2,1.4-0.5,2.1-0.7c2.2-0.8,4.6-1.9,6.9-3.2
		c0.6-0.3,1.2-0.7,1.8-1l0.9-0.5c0.3-0.2,0.6-0.4,0.9-0.6c1.2-0.8,2.4-1.6,3.7-2.3c0.3-0.1,0.5-0.3,0.8-0.4c0.4,0.2,0.8,0.4,1.1,0.6
		c0.7,0.5,1.3,1.2,1.7,2C95.8,78.9,96,79.8,95.6,80.6z M103.3,77.1c0,0,0-0.1,0-0.1c0.3,0.3,0.6,0.6,1,0.9c1.1,0.9,2.4,1.8,3.9,2.6
		c0.3,0.2,0.6,0.3,1,0.5c-2,0-3.9,0.1-5.8,0.2c-0.7,0-1.4,0.1-2.1,0.1c0.7-0.5,1.2-1.1,1.6-1.8C103.3,78.8,103.4,77.9,103.3,77.1z
		 M101.8,76.9c0.2,0.7,0.1,1.4-0.2,2c-0.3,0.6-0.7,1.3-1.4,1.7c-0.7,0.5-2.3,1-3.2,1.1l0.9-0.1c-0.5,0-1,0.1-1.4,0.1
		c0.2-0.2,0.3-0.3,0.4-0.5c0.3-0.5,0.4-1.1,0.4-1.7c0-0.6-0.2-1.1-0.4-1.6c-0.5-1-1.3-1.8-2.2-2.4c-0.3-0.2-0.7-0.4-1-0.6
		c0.8-0.3,1.6-0.6,2.5-0.8c0.8-0.2,1.6-0.2,2.4,0c0.4,0.1,0.8,0.2,1.1,0.3c0.2,0.1,0.4,0.2,0.5,0.3c0.2,0.1,0.3,0.2,0.5,0.3
		C101.3,75.6,101.7,76.2,101.8,76.9z M93.7,71.7c2.2-1.1,4.4-2.1,6.8-3c-0.2,0.3-0.3,0.7-0.4,1.2c-0.1,0.7-0.1,1.5,0.1,2.4
		c0.1,0.5,0.3,1,0.6,1.6c0,0,0,0,0,0c-0.4-0.2-0.9-0.4-1.4-0.6c-1-0.3-2.1-0.3-3.1-0.2c-1,0.1-1.8,0.4-2.7,0.7
		c-0.6,0.2-1.2,0.5-1.8,0.8c0,0-0.1,0-0.1,0c-1-0.2-1.8-0.1-2.5,0c-0.3,0.1-0.9,0.2-1.5,0.2C89.7,73.7,91.6,72.7,93.7,71.7z
		 M48.7,77c0.3-0.6,1.8-2.1,4-1.9c1.5,0.1,2.4,0.5,3.5,1.1c1,0.6,1.3,1.4,1.3,2.1c0,0.1,0,0.3-0.1,0.4c-0.1-0.5-0.3-1.1-1.4-1.5
		c-3.3-1.3-4.7,0.7-5,1.1c-0.3,0.5-0.5,0.9-0.5,1.5c-0.1,0.6,0.1,1.2,0.5,1.7c0.4,0.6,1,1,1.7,1.4c1.4,0.8,3.1,1.2,4.9,1.5
		c0.5,0.1,0.9,0.1,1.4,0.1c0.2,0,0.5,0,0.7,0c0.2,0,0.5,0,0.7,0c1,0,1.9,0,2.9-0.2c2-0.2,3.9-0.6,5.9-1.2c2-0.6,3.9-1.3,5.9-2.2
		c1-0.4,2-0.9,3-1.3l1.5-0.7l0.8-0.4c0.3-0.1,0.5-0.3,0.8-0.4c1.2-0.7,2.5-1.3,3.7-2c0,0,2-0.9,2.9-1.1c0.4-0.1,1-0.2,1.6-0.3
		c0.5,0,1,0,1.6,0.1c-1.2,0.7-2.2,1.4-3.2,2.1c-0.6,0.4-1.1,0.8-1.7,1.1c-0.6,0.4-1.1,0.7-1.7,1.1c-2.3,1.4-4.5,2.5-6.6,3.5
		c-2.1,0.9-4.2,1.6-6.1,2.1c0,0-0.1,0-0.1,0c-1.3,0.1-2.6,0.3-3.9,0.4c-2.7,0.2-5.2,0.4-7.7,0.3c-2.5,0-4.9-0.2-7-0.9
		c-1-0.3-2-0.8-2.7-1.3c-0.7-0.6-1.3-1.3-1.5-2c-0.3-0.7-0.4-1.5-0.3-2.2C48.2,78.3,48.4,77.6,48.7,77z"/>
	<radialGradient id="SVGID_4_" cx="128.3324" cy="111.3574" r="105.3908" gradientUnits="userSpaceOnUse">
		<stop  offset="0.2" style="stop-color:#FFFFFF"/>
		<stop  offset="0.7" style="stop-color:#FFFFFF;stop-opacity:0.6"/>
		<stop  offset="1" style="stop-color:#FFFFFF"/>
	</radialGradient>
	<path class="st3" d="M147.6,76c0.7-0.5,1.3-1.1,1.9-1.8c0.6-0.7,1.1-1.5,1.4-2.5c0.3-0.9,0.4-2,0.2-3c-0.1-0.6-0.4-1.1-0.7-1.6
		c1.2,0.4,2.4,0.8,3.5,1.2c0.2,0.4,0.3,1,0.3,1.6c0,0.7-0.2,1.4-0.5,2.2c-0.7,1.6-2.2,3.4-4.3,5.1c-1,0.8-2.3,1.6-3.6,2.3
		c-0.5,0.3-1,0.5-1.6,0.7c0.3,0.5,0.4,1.1,0.3,1.7c2.6,0,5.1,0.1,7.6,0.2c6.8,0.5,13.2,1.4,19.2,2.1c6,0.8,11.7,1.5,17.1,1.8
		c2.7,0.2,5.3,0.2,7.8,0.1c1.3-0.1,2.5-0.2,3.7-0.4c1.2-0.2,2.4-0.5,3.5-1c1.1-0.5,2-1.1,2.7-1.9c0.7-0.8,1-1.6,1.2-2.5
		c0.1-0.8,0.1-1.6,0-2.3c-0.1-0.7-0.4-1.5-0.9-2.1c-0.5-0.6-1.2-1.1-2-1.3c-0.8-0.2-1.7-0.5-2.5-0.4c-1.6,0.2-3,0.5-4.2,1.5
		c-0.4,0.4-1.2,1.5-0.9,2.6c0.1,0.4,0.3,0.7,0.5,0.9c0.2,0.2,0.5,0.4,0.7,0.5c0.1,0,0.1,0.1,0.2,0.1l0.2,0c0,0-0.1-0.1-0.1-0.1
		c-0.1-0.1-0.3-0.3-0.3-0.4c-0.1-0.2-0.1-0.5,0.1-0.8c0.2-0.5,0.9-1.1,1.8-1.4c0.4-0.2,0.9-0.3,1.5-0.2c0.5,0,1,0.2,1.4,0.5
		c0.4,0.3,0.7,0.7,0.9,1.1c0.2,0.5,0.3,1,0.3,1.5c-0.1,0.5-0.3,1-0.8,1.5c-0.5,0.4-1.1,0.8-1.8,1.1c-1.4,0.6-3.1,1-4.8,1.1
		c-1.8,0.1-3.6,0-5.5-0.3c-1.9-0.3-3.8-0.8-5.6-1.4c-1.9-0.6-3.8-1.4-5.7-2.3c-1-0.4-1.9-0.9-2.9-1.4l-1.5-0.7
		c-0.5-0.2-0.9-0.5-1.4-0.8c-3.8-2.2-7.8-4.5-12.3-6.7c-2.2-1.1-4.6-2.1-7.1-3.1c-1.2-0.5-2.5-0.9-3.9-1.3c-0.7-0.2-1.3-0.4-2-0.6
		l-0.6-0.2c-0.3-0.1-0.6-0.1-0.9-0.2l-0.9-0.2l-0.4-0.1c-0.1,0-0.3-0.1-0.4-0.1c0.1,0.6,0.2,1.3,0.3,1.9l0.1,0.7l0,0.6
		c0.1,0.7,0,1.5-0.1,2.2c-0.1,0.7-0.3,1.5-0.7,2.1c-0.2,0.5-0.6,0.9-1,1.3c0.2,0.5,0.2,1,0.1,1.5c0.1-0.1,0.2-0.1,0.3-0.2
		c0.8-0.6,1.5-1.4,1.9-2.2c0.4-0.8,0.7-1.6,0.8-2.4c0.1-0.8,0.1-1.6,0.1-2.4l0-0.6l0-0.4l0-0.4c0.1,0,0.2,0,0.3,0.1l0.6,0.2
		c0.1,0,0.1,0,0.2,0.1l0,0c0.7,0.8,1.1,1.7,1.3,2.6c0.2,0.9,0.1,1.7-0.2,2.5c-0.5,1.6-1.7,2.9-2.8,3.9c-1.1,1-2.1,1.6-2.9,2
		c-0.8,0.4-1.2,0.6-1.2,0.6c0,0,0.5-0.1,1.4-0.4C145,77.6,146.3,77,147.6,76z M151.6,81.2c-1.9-0.1-3.8-0.2-5.8-0.2
		c0.3-0.1,0.7-0.3,1-0.5c1.5-0.8,2.8-1.7,3.9-2.6c0.4-0.3,0.7-0.6,1-0.9c0,0,0,0.1,0,0.1c-0.1,0.8,0,1.7,0.4,2.4
		c0.3,0.7,0.9,1.3,1.6,1.8C152.9,81.3,152.3,81.2,151.6,81.2z M158,81.2c0.1,0.2,0.3,0.4,0.4,0.5c-0.5,0-1-0.1-1.4-0.1l0.9,0.1
		c-0.9-0.1-2.6-0.6-3.2-1.1c-0.7-0.5-1.1-1.1-1.4-1.7c-0.3-0.7-0.3-1.4-0.2-2c0.2-0.7,0.6-1.3,1.1-1.7c0.1-0.1,0.3-0.2,0.5-0.3
		c0.2-0.1,0.4-0.2,0.5-0.3c0.4-0.2,0.8-0.3,1.1-0.3c0.8-0.1,1.6-0.1,2.4,0c0.9,0.2,1.7,0.5,2.5,0.8c-0.4,0.2-0.7,0.4-1,0.6
		c-0.9,0.6-1.7,1.4-2.2,2.4c-0.2,0.5-0.4,1-0.4,1.6C157.6,80.1,157.7,80.7,158,81.2z M170.5,83.2c-2.4-0.3-5-0.7-7.5-1l0,0
		c-0.6-0.1-2.2-0.5-2.7-0.8c-0.5-0.2-0.8-0.5-1-0.9c-0.4-0.7-0.2-1.7,0.2-2.4c0.4-0.8,1-1.5,1.7-2c0.4-0.3,0.7-0.5,1.1-0.6
		c0.3,0.1,0.5,0.3,0.8,0.4c1.3,0.7,2.5,1.6,3.7,2.3c0.3,0.2,0.6,0.4,0.9,0.6l0.9,0.5c0.6,0.4,1.2,0.7,1.8,1c2.4,1.3,4.7,2.4,6.9,3.2
		c0.7,0.3,1.4,0.5,2.1,0.7C176.6,84,173.6,83.6,170.5,83.2z M170.1,76.3c1.2,0.7,2.5,1.4,3.7,2c0.3,0.1,0.5,0.3,0.8,0.4l0.8,0.4
		l1.5,0.7c1,0.5,2,0.9,3,1.3c2,0.9,3.9,1.6,5.9,2.2c2,0.6,3.9,1,5.9,1.2c1,0.1,2,0.2,2.9,0.2c0.2,0,0.5,0,0.7,0c0.2,0,0.5,0,0.7,0
		c0.5,0,0.9-0.1,1.4-0.1c1.8-0.3,3.5-0.7,4.9-1.5c0.7-0.4,1.3-0.9,1.7-1.4c0.4-0.6,0.6-1.2,0.5-1.7c-0.1-0.6-0.3-1.1-0.5-1.5
		c-0.3-0.4-1.6-2.4-5-1.1c-1.1,0.4-1.3,1-1.4,1.5c0-0.1-0.1-0.2-0.1-0.4c0-0.7,0.3-1.5,1.3-2.1c1-0.6,2-1,3.5-1.1
		c2.2-0.2,3.7,1.3,4,1.9c0.3,0.6,0.4,1.3,0.4,2c0,0.7-0.1,1.5-0.3,2.2c-0.3,0.7-0.8,1.5-1.5,2c-0.7,0.6-1.7,1-2.7,1.3
		c-2.1,0.6-4.5,0.8-7,0.9c-2.5,0-5.1-0.1-7.7-0.3c-1.3-0.1-2.6-0.2-3.9-0.4c0,0-0.1,0-0.1,0c-1.9-0.5-3.9-1.1-6.1-2.1
		c-2.1-0.9-4.4-2.1-6.6-3.5c-0.6-0.3-1.1-0.7-1.7-1.1c-0.6-0.4-1.1-0.7-1.7-1.1c-1-0.7-2-1.4-3.2-2.1c0.6-0.1,1.1-0.1,1.6-0.1
		c0.6,0,1.2,0.1,1.6,0.3C168.1,75.4,170,76.3,170.1,76.3z M161.3,71.7c2,1,4,2,5.8,3c-0.6-0.1-1.1-0.2-1.5-0.2
		c-0.7-0.1-1.6-0.2-2.5,0c0,0-0.1,0-0.1,0c-0.6-0.3-1.1-0.6-1.8-0.8c-0.8-0.3-1.7-0.6-2.7-0.7c-1-0.1-2-0.1-3.1,0.2
		c-0.5,0.1-1,0.3-1.4,0.6c0,0,0,0,0,0c0.3-0.5,0.5-1.1,0.6-1.6c0.2-0.9,0.3-1.7,0.1-2.4c-0.1-0.5-0.2-0.9-0.4-1.2
		C156.8,69.6,159.1,70.6,161.3,71.7z"/>
	<radialGradient id="SVGID_5_" cx="128.3324" cy="111.3574" r="105.3908" gradientUnits="userSpaceOnUse">
		<stop  offset="0.2" style="stop-color:#FFFFFF"/>
		<stop  offset="0.7" style="stop-color:#FFFFFF;stop-opacity:0.6"/>
		<stop  offset="1" style="stop-color:#FFFFFF"/>
	</radialGradient>
	<path class="st4" d="M203.1,79.2C203.1,79.2,203.1,79.2,203.1,79.2c0,0.1,0,0.1,0.1,0.2C203.2,79.3,203.2,79.3,203.1,79.2z"/>
	<radialGradient id="SVGID_6_" cx="128.3324" cy="111.3574" r="105.3908" gradientUnits="userSpaceOnUse">
		<stop  offset="0.2" style="stop-color:#FFFFFF"/>
		<stop  offset="0.7" style="stop-color:#FFFFFF;stop-opacity:0.6"/>
		<stop  offset="1" style="stop-color:#FFFFFF"/>
	</radialGradient>
	<path class="st5" d="M86.3,140.5c0-0.3,0-0.7-0.1-0.9c-0.1-0.3-0.3-0.5-0.5-0.7c-0.4-0.4-0.8-0.7-1.2-1c-0.1-0.1-0.2-0.1-0.3-0.2
		c-3.7-6.6-7.6-13.4-10.8-19c-3.3-5.7-6.3-10.8-8.8-15.1c-5-8.5-8.2-13.7-8.2-13.6c0,0,2.4,5.1,6.9,13.6c2.2,4.3,5,9.4,8.3,15.3
		c3,5.4,6.5,11.4,10.3,17.8c-1.2-0.4-2.5-0.8-3.7-1c-1.6-0.4-3.2-0.6-4.7-0.9c-3-0.4-5.8-0.7-8.2-0.8c-2.4-0.2-4.5-0.2-6.2-0.2
		c-2.1,0-3.6,0-4.5,0c0.2-26.2-0.8-45.5-0.8-45.5s-0.9,18.1-0.8,45.5c-0.9,0-2.4,0-4.5,0c-1.7,0-3.8,0.1-6.2,0.2
		c-2.4,0.1-5.2,0.4-8.2,0.8c-1.5,0.2-3.1,0.5-4.7,0.9c-1.2,0.3-2.4,0.6-3.6,1c3.6-6.1,7-11.9,10-17.2c3.2-5.7,6-11,8.3-15.3
		c4.6-8.7,7.2-14.2,7.2-14.2c0,0-3,4.8-7.9,13.1c-2.4,4.2-5.4,9.2-8.7,15c-3.3,5.8-7.1,12.4-11.1,19.5l0.1-0.1
		c-0.2,0.1-0.5,0.2-0.7,0.4c-0.4,0.3-0.8,0.5-1.2,1c-0.2,0.2-0.3,0.4-0.5,0.7c-0.1,0.3-0.2,0.6-0.1,0.9c0,0.2,0.1,0.4,0.1,0.5
		c0,0,0,0,0,0c0.1,0.6,0.6,1.8,0.7,2.6c0,0.1,0.1,0.3,0.1,0.4c0.1,0.4,0.2,0.7,0.4,1.1c0.3,0.8,0.6,1.6,1.1,2.5
		c0.2,0.4,0.5,0.9,0.8,1.4c0.6,0.9,1.2,1.9,2,2.9c0.8,1,1.8,2.1,2.9,3.1c0.1,0.1,0.2,0.2,0.4,0.4c2.1,1.9,4.6,3.8,7.5,5.4
		c2.3,1.3,4.9,2.3,7.7,3.1c2.8,0.8,5.8,1.2,8.8,1.2c3.1,0,6.1-0.4,8.8-1.2c2.8-0.8,5.4-1.8,7.7-3.1c1.9-1,3.6-2.2,5.1-3.3
		c0.1-0.1,0.2-0.2,0.3-0.2c0.7-0.5,1.3-1.1,1.9-1.6c0.5-0.4,0.9-0.8,1.3-1.3c0.6-0.6,1.2-1.3,1.7-1.9c0.2-0.2,0.3-0.4,0.4-0.5
		c0,0,0-0.1,0.1-0.1c0.6-0.8,1.2-1.5,1.6-2.3c0.4-0.7,0.8-1.4,1.2-2c0.3-0.5,0.5-1.1,0.7-1.5c0.3-0.8,0.6-1.5,0.7-2.2
		c0-0.1,0-0.1,0-0.2c0.2-0.8,0.9-2.5,0.9-3c0,0,0,0.1-0.1,0.1C86.3,140.7,86.3,140.6,86.3,140.5z M22.6,139.5c0.5-0.6,1.3-1,2.1-1.4
		c0,0,0,0,0,0c0.1,0,0.1-0.1,0.2-0.1c1.5-0.7,3.1-1.1,4.6-1.5c1.6-0.4,3.2-0.7,4.7-1c3-0.5,5.7-0.8,8.1-1.1c2.4-0.2,4.5-0.4,6.2-0.5
		c2.1-0.1,3.6-0.2,4.5-0.2c0,3.4,0.1,7,0.1,10.7h1.4c0.1-3.7,0.1-7.2,0.1-10.7c0.9,0,2.4,0.1,4.5,0.2c1.7,0.1,3.8,0.2,6.2,0.5
		c2.4,0.2,5.1,0.6,8.1,1.1c1.5,0.3,3.1,0.6,4.7,1c1.5,0.4,3.1,0.9,4.7,1.5c0.1,0,0.1,0,0.2,0.1c0,0,0,0,0,0c0.8,0.4,1.5,0.8,2,1.4
		c0.2,0.3,0.4,0.6,0.3,0.9c0,0.3-0.2,0.6-0.5,0.9c-0.2,0.2-0.5,0.4-0.8,0.6c-0.1-0.2-0.2-0.3-0.3-0.4c-0.2-0.3-0.5-0.5-0.7-0.7
		c-0.5-0.4-1-0.6-1.5-0.9c-1-0.5-2-0.8-3-1.2c-1.9-0.6-3.8-1.1-5.5-1.4c-3.5-0.7-6.5-1.2-8.9-1.4c-2.5-0.2-4.4-0.3-5.6-0.2
		c-1.3,0.1-1.9,0.2-1.9,0.2c0,0,0.7-0.1,2-0.1c1.3,0,3.2,0.2,5.7,0.6c2.4,0.4,5.4,0.9,8.8,1.8c1.7,0.4,3.5,1,5.3,1.6
		c0.9,0.3,1.8,0.7,2.7,1.2c0.4,0.2,0.9,0.5,1.2,0.8c0.2,0.1,0.3,0.3,0.5,0.4c0.1,0.1,0.1,0.1,0.1,0.2c-0.1,0-0.2,0.1-0.3,0.1
		c-0.9,0.4-1.8,0.7-2.8,0.9c-3.8,1-8,1.6-12.4,2c-4.3,0.4-8.9,0.6-13.5,0.6c-4.6,0-9.1-0.2-13.5-0.6c-4.3-0.4-8.5-1-12.3-2
		c-1-0.3-1.9-0.6-2.8-0.9c-0.2-0.1-0.3-0.1-0.5-0.2c0-0.2,0.1-0.4,0.2-0.7c0.3-0.3,0.7-0.6,1.1-0.9c0.9-0.5,1.8-0.9,2.8-1.2
		c1.9-0.7,3.8-1.1,5.5-1.5c3.5-0.7,6.6-1.2,9.1-1.5c5-0.6,7.8-0.8,7.8-0.8c0,0-2.9-0.1-8,0.3c-2.5,0.2-5.7,0.5-9.2,1.1
		c-1.8,0.3-3.7,0.7-5.7,1.3c-1,0.3-2,0.7-3,1.3c-0.5,0.3-1,0.6-1.4,1.2c-0.2,0.2-0.3,0.5-0.4,0.8c-0.2-0.1-0.4-0.3-0.6-0.4
		c-0.3-0.3-0.5-0.6-0.5-0.9C22.3,140.1,22.4,139.8,22.6,139.5z M27.1,151.5c-0.3-0.3-0.6-0.7-0.8-1l1.1,1.3
		C27.2,151.7,27.2,151.6,27.1,151.5z M31.6,155.8C31.6,155.8,31.6,155.8,31.6,155.8l1.3,1C32.4,156.5,32,156.2,31.6,155.8z
		 M85.2,143.7c-0.1,0.2-0.1,0.3-0.2,0.5c-1.3,1-2.7,1.8-4.1,2.4c-1.7,0.7-3.3,1.2-4.9,1.5c-3.1,0.7-5.9,0.9-8.2,1.1
		c-2.3,0.2-4,0.2-5.2,0.3l-1.8,0.1l1.9,0.1c1.2,0,3,0.1,5.3,0.1c2.3,0,5.1-0.1,8.4-0.7c1.6-0.3,3.3-0.7,5.1-1.4
		c0.9-0.3,1.8-0.7,2.6-1.2c-0.3,0.5-0.6,1.1-0.9,1.6c-2.6,1.4-5.3,2.1-7.7,2.4c-2.8,0.4-5.3,0.5-7.3,0.6l-4.6,0.1l-1.6,0.1l1.6,0.1
		c1.1,0,2.7,0.1,4.7,0.2c2,0.1,4.5,0.1,7.4-0.2c1.5-0.2,3-0.4,4.6-0.9c0.5-0.1,1-0.3,1.5-0.5c-0.3,0.4-0.6,0.8-1,1.2
		c-2.4,1.1-5.1,1.7-7.2,2.1c-2.2,0.4-4.1,0.6-5.6,0.8c-3.1,0.3-4.8,0.3-4.8,0.3c0,0,1.7,0.1,4.9,0.1c1.6,0,3.5-0.1,5.7-0.4
		c1.6-0.2,3.4-0.5,5.3-1.1c-0.4,0.4-0.9,0.9-1.4,1.3c-1.7,0.5-3.3,0.9-4.7,1.3c-1.7,0.4-3.2,0.8-4.4,1c-2.4,0.4-3.8,0.5-3.8,0.5
		c0,0,1.4,0.2,3.9,0c1.2-0.1,2.8-0.3,4.5-0.6c0.6-0.1,1.3-0.2,2-0.4c0,0,0.1,0,0.1,0c0.1,0,0.2,0,0.4-0.1c-0.1,0.1-0.2,0.2-0.3,0.2
		c0,0-0.1-0.2-0.1-0.1c-0.8,0.9-5.3,1.9-7,2.4c-1.7,0.5-2.6,0.6-2.6,0.6c0,0,1,0,2.8-0.2c1.1-0.1,2.5-0.4,4.1-0.7
		c-0.9,0.5-1.8,1.1-2.7,1.6c-4.5,2.3-10.1,3.9-16,3.9c-5.9,0-11.4-1.6-16-3.9c-1.2-0.6-2.3-1.2-3.3-1.9c2.3,0.6,4.2,0.9,5.6,1.1
		c1.8,0.2,2.7,0.2,2.7,0.2c0,0-1-0.2-2.7-0.6c-1.7-0.5-4.3-0.9-7.1-2c0,0-0.6-0.3-1.1-0.6c0.3,0.1,0.7,0.1,1.2,0.2l0,0
		c0,0,0.1,0,0.1,0c0,0,0,0,0,0c0.8,0.2,1.7,0.3,2.1,0.4c1.7,0.3,3.3,0.5,4.5,0.6c2.5,0.2,3.8,0,3.8,0c0,0-1.4,0-3.8-0.5
		c-1.2-0.2-2.7-0.5-4.4-1c-1.6-0.4-3.1-0.5-5.7-1.4c0,0-0.1-0.1-0.1-0.1c-0.6-0.5-1.1-1-1.6-1.5c2.4,0.9,4.6,1.3,6.6,1.6
		c2.2,0.3,4.2,0.3,5.7,0.3c3.1,0,4.8-0.1,4.8-0.1c0,0-1.8-0.1-4.9-0.3c-1.6-0.1-3.5-0.4-5.6-0.8c-2.2-0.4-6.1-1.6-8.5-2.7
		c-0.3-0.3-0.5-0.7-0.8-1c0.9,0.4,1.9,0.7,2.8,1c1.6,0.5,3.2,0.7,4.6,0.9c2.9,0.3,5.4,0.2,7.4,0.2c2-0.1,3.6-0.2,4.6-0.2l1.6-0.1
		l-1.6-0.1l-4.7-0.1c-2-0.1-4.5-0.2-7.3-0.6c-2.8-0.5-6-1.3-8.9-3.2v0c-0.3-0.6-0.6-1.1-0.9-1.7c1.3,0.9,2.6,1.5,4,2
		c1.8,0.7,3.5,1.1,5.1,1.4c3.3,0.6,6.1,0.7,8.3,0.7c2.3,0,4,0,5.2-0.1l1.8-0.1l-1.9-0.1c-1.2-0.1-3-0.1-5.3-0.3
		c-2.3-0.2-5.1-0.4-8.2-1.1c-1.6-0.4-3.2-0.8-4.8-1.5c-1.5-0.6-3.5-1.9-4.9-3.1c-0.2-0.5-0.4-1-0.5-1.4c0,0,0.1,0.1,0.1,0.1
		c0.4,0.4,0.8,0.7,1.3,0.9c0.1,0,0.1,0.1,0.2,0.1c0.4,0.2,0.8,0.4,1.2,0.6c0.9,0.4,1.9,0.7,2.9,1c3.9,1.1,8.2,1.7,12.5,2.2
		c4.4,0.4,8.9,0.6,13.6,0.6c4.7,0,9.2-0.2,13.6-0.7c4.4-0.4,8.6-1.1,12.5-2.2c1-0.3,1.9-0.6,2.9-1c0.9-0.4,1.8-0.9,2.6-1.6
		c0.1-0.1,0.1-0.1,0.2-0.2C85.5,142.4,85.4,143,85.2,143.7z"/>
	<radialGradient id="SVGID_7_" cx="128.3324" cy="111.3574" r="105.3908" gradientUnits="userSpaceOnUse">
		<stop  offset="0.2" style="stop-color:#FFFFFF"/>
		<stop  offset="0.7" style="stop-color:#FFFFFF;stop-opacity:0.6"/>
		<stop  offset="1" style="stop-color:#FFFFFF"/>
	</radialGradient>
	<path class="st6" d="M52,79.2C52,79.2,52,79.2,52,79.2c-0.1,0.1-0.1,0.2-0.1,0.2C51.9,79.3,52,79.2,52,79.2z"/>
	<radialGradient id="SVGID_8_" cx="128.3324" cy="111.3574" r="105.3908" gradientUnits="userSpaceOnUse">
		<stop  offset="0.2" style="stop-color:#FFFFFF"/>
		<stop  offset="0.7" style="stop-color:#FFFFFF;stop-opacity:0.6"/>
		<stop  offset="1" style="stop-color:#FFFFFF"/>
	</radialGradient>
	<path class="st7" d="M123.6,98.9c1.8,3,2.7,6,3.2,8.5c0.2,1.3,0.4,2.4,0.5,3.4c0.1,0,0.1,0,0.2,0c0.1,0,0.2,0,0.2,0
		c0.1,0,0.2,0,0.3,0c0.1,0,0.1,0,0.2,0c0.1-1.1,0.3-2.4,0.5-3.7c0.5-2.6,1.5-5.6,3.3-8.5c0.9-1.4,1.7-3.2,3.1-4.3
		c1.4-1.2,3.4-3.1,5.3-3.3c-1.2,0.1-2.3,0.4-3.4,0.8c-1,0.5-2,1.1-2.8,1.7c-0.3,0.2-0.6,0.5-0.8,0.8c0-0.2,0-0.4,0-0.6l0-0.2l0-0.3
		c0-0.2-0.1-0.4-0.1-0.5c-0.1-0.4-0.3-0.7-0.4-1c-0.4-0.6-0.9-1.2-1.4-1.6c-0.2-0.2-0.4-0.3-0.7-0.4c0.1-1.3,0.1-1.9,0.1-4.1l-1.5,0
		c0,1.8,0.1,2.4,0.1,3.7c-0.7-0.2-1.4-0.2-2.1,0c0.8,0.1,1.5,0.3,2.1,0.7c0.4,0.2,0.8,0.5,1.1,0.9c0,0,0.1,0.1,0.1,0.1
		c0.4,0.4,0.7,1,0.9,1.5c0.1,0.3,0.2,0.5,0.2,0.8c0,0.1,0,0.3,0.1,0.4l0,0.2l0,0.2c0,0.5-0.1,1.1-0.3,1.6c-0.2,0.5-0.5,1-0.9,1.4
		c-0.2,0.2-0.4,0.3-0.6,0.5c-0.1,0.1-0.2,0.1-0.3,0.2c-0.2,0.1-0.3,0.2-0.5,0.3c-0.2,0.1-0.5,0.2-0.8,0.3c-0.1,0-0.3,0.1-0.4,0.1
		l-0.2,0l-0.2,0c-1,0.1-2.1-0.3-3-1c-0.8-0.7-1.4-1.7-1.5-2.9c-0.1-1.1,0.2-2.3,0.9-3.3c0.3-0.4,0.6-0.7,1-1
		c0.3-0.2,0.6-0.4,0.9-0.6c0.4-0.2,0.8-0.3,1.2-0.4c-0.4,0-0.8,0-1.2,0c0.1-1.1,0.1-1.8,0.2-3.7l-1.3,0c0.1,2.1,0.1,2.8,0.2,4
		c-0.6,0.2-1.2,0.6-1.7,1c-1,1-1.6,2.3-1.6,3.8c-0.3-0.3-0.6-0.6-0.9-0.8c-1.6-1.3-3.7-2.3-5.9-2.4c2,0.2,4,2.5,5.4,3.7
		C121.9,95.9,122.7,97.4,123.6,98.9z M126.8,99.9c0.2,0,0.4,0,0.6,0.1l0.3,0l0.3,0l0.2,0l0.3,0c0.2,0,0.4-0.1,0.6-0.1
		c0.2,0,0.3-0.1,0.5-0.2c-1.1,2.3-1.7,4.6-2,6.5c-0.3-2-0.9-4.2-1.9-6.5C126.1,99.8,126.5,99.8,126.8,99.9z"/>
</g>
<path class="st8" d="M113.6,82.5c-0.4,0-0.8-0.3-0.8-0.8c0-0.4,0.3-0.8,0.8-0.8h28.1c0.4,0,0.8,0.3,0.8,0.8c0,0.4-0.3,0.8-0.8,0.8
	H113.6z M113.6,75.5c-0.4,0-0.8-0.3-0.8-0.8c0-0.4,0.3-0.8,0.8-0.8h6.1c0.5,0,0.9-0.3,1.1-0.7c0.2-0.4,0.1-0.9-0.2-1.3
	c-1.4-1.7-2.2-3.8-2.2-5.9c0-5.1,4.1-9.2,9.2-9.2c5.1,0,9.2,4.1,9.2,9.2c0,2.2-0.8,4.3-2.2,5.9c-0.3,0.4-0.4,0.9-0.2,1.3
	c0.2,0.4,0.6,0.7,1.1,0.7h6.1c0.4,0,0.8,0.3,0.8,0.8c0,0.4-0.3,0.8-0.8,0.8H113.6z M127.6,58.4c-4.2,0-7.7,3.4-7.7,7.7
	c0,4.2,3.5,7.7,7.7,7.7c4.2,0,7.7-3.4,7.7-7.7C135.3,61.9,131.8,58.4,127.6,58.4L127.6,58.4z"/>
</svg>
