<?xml version="1.0" encoding="utf-8"?>
<!-- Generator: Adobe Illustrator 21.1.0, SVG Export Plug-In . SVG Version: 6.00 Build 0)  -->
<svg version="1.1" id="Layer_6" xmlns="http://www.w3.org/2000/svg" xmlns:xlink="http://www.w3.org/1999/xlink" x="0px" y="0px"
	 viewBox="0 0 255.1 255.1" style="enable-background:new 0 0 255.1 255.1;" xml:space="preserve">
<style type="text/css">
	.st0{fill:url(#SVGID_1_);}
	.st1{fill:url(#SVGID_2_);}
	.st2{fill:url(#SVGID_3_);}
	.st3{fill:url(#SVGID_4_);}
	.st4{fill:url(#SVGID_5_);}
	.st5{fill:url(#SVGID_6_);}
	.st6{fill:url(#SVGID_7_);}
	.st7{fill:url(#SVGID_8_);}
	.st8{fill:url(#SVGID_9_);}
	.st9{fill:#FFFFFF;}
</style>
<g>
	<radialGradient id="SVGID_1_" cx="127.9991" cy="138.024" r="86.209" gradientUnits="userSpaceOnUse">
		<stop  offset="0.2" style="stop-color:#FFFFFF"/>
		<stop  offset="0.7" style="stop-color:#FFFFFF;stop-opacity:0.6"/>
		<stop  offset="1" style="stop-color:#FFFFFF"/>
	</radialGradient>
	<path class="st0" d="M216.8,172.1c-0.2,0.1-0.5,0.1-0.8,0.2c0.9-0.2,1.4-0.5,1.4-0.4c0,0-0.9,0.2-2.4,0.3c-0.3,0-0.6,0-0.9,0
		c-1.5-0.3-3.3-1.1-5.4-2.3c-2.5-1.4-5.4-3.4-8.3-6c-1.4-1.3-2.9-2.7-4.1-4.4c-0.6-0.8-1.2-1.7-1.6-2.6c-0.2-0.5-0.5-1.1-0.8-1.7
		c0-0.1,0-0.2,0-0.3c0-0.2,0-0.6-0.1-1c-0.1-0.2-0.1-0.4-0.2-0.6c-0.4-0.6-1.1-1.2-2-1.7c-0.9-0.4-2-0.8-3.2-1
		c-2.5-0.5-5.4-0.6-8.7-0.5c-1.6,0-3.3,0.1-5.1,0.1c-0.9,0-1.8,0-2.7,0c-0.9,0-3-0.1-3.8-0.3c-0.6-0.2-1.2-0.2-1.9-0.1
		c-0.5,0-0.9,0.2-1.3,0.4c-0.4,0.2-0.7,0.5-1.1,0.7c-0.7,0.5-1.3,1.2-1.9,1.8c-0.3,0.3-0.6,0.6-0.9,0.9c-0.2,0.1-0.3,0.2-0.5,0.4
		l-0.6,0.4c-0.8,0.5-1.6,1-2.4,1.5c-1.7,0.9-3.7,1.7-5.8,2c-1.9,0.3-3.9,0.3-5.9,0.1c0.6-0.8,1-1.7,1.2-2.7c0.2-0.9,0.2-1.8,0.2-2.7
		c0.2-0.8,0.7-2.2,0.8-2.6c2-0.1,3.9-0.4,5.7-0.8c2-0.5,3.9-1.2,5.5-2.2c0.2-0.1,0.4-0.2,0.6-0.3l0.2-0.1c0.1,0,0.2-0.1,0.2-0.1
		c0.1-0.1,0.2-0.2,0.3-0.2c0.4-0.3,0.7-0.6,1-0.9c0.6-0.6,1.1-1.3,1.6-1.9c1-1.2,1.9-2.4,2.6-3.6c0.2-0.4,0.5-0.8,0.7-1.2l0,0.1
		c1.6-0.2,3.3,0,4.9,0.1c1.6,0.1,3.1,0.3,4.6,0.4c2.9,0.2,5.5,0.2,7.7-0.2c1-0.2,1.9-0.5,2.7-0.9c0.5,1,1,1.9,1.6,2.7
		c0.7,1,1.4,1.8,2.2,2.7c1.5,1.7,3.1,3.1,4.7,4.3c3.2,2.4,6.4,4,9.2,4.7c1.4,0.4,2.7,0.5,3.9,0.5c1.1,0,2.1-0.2,2.8-0.5
		c0.7-0.3,1.3-0.6,1.6-0.8c0.3-0.2,0.5-0.3,0.5-0.3c0,0-0.2,0.1-0.6,0.2c-0.4,0.1-1,0.3-1.7,0.3c-0.8,0-1.7-0.1-2.7-0.4
		c-1-0.3-2.1-0.8-3.3-1.5c-2.3-1.4-4.9-3.4-7.4-6c-1.3-1.3-2.5-2.7-3.8-4.3c-0.6-0.8-1.2-1.6-1.8-2.4c-0.6-0.9-1.1-1.7-1.6-2.7
		l-0.1,0c-0.1-0.3-0.2-0.8-0.5-1.3c-0.4-0.6-1-1.1-1.9-1.5c-0.9-0.4-2-0.6-3.1-0.7c-2.4-0.1-5.1,0.2-8.1,0.8
		c-1.5,0.3-3.1,0.6-4.7,0.8c-0.8,0.1-1.6,0.2-2.4,0.2c-0.4,0-0.9,0-1.3,0c-1-0.7-2.8,0-2.7,1.4c0,0,0,0,0,0c-0.2,0-0.4,0.1-0.6,0.1
		c-0.4,0.1-0.5,0.2-0.5,0.2c0,0,0.2,0,0.6-0.1c0.2,0,0.4,0,0.7,0c0.3,0,0.6,0,0.9,0.1c0.2,0.1,0.4,0.3,0.6,0.4l-0.2-0.3
		c0.2,0.1,0.3,0.3,0.3,0.6c0.1,0.3-0.1,0.8-0.2,1.3c-0.4,0.9-1,1.9-1.8,3c-0.8,1-1.7,2.2-2.8,3.3c-0.5,0.6-1.1,1.1-1.7,1.7
		c-0.3,0.3-0.6,0.6-0.9,0.8c0,0,0,0-0.1,0l-0.1,0.1l-0.3,0.2l-0.6,0.3c-1.5,0.8-3.2,1.4-5.1,1.9c-1.4,0.4-3,0.7-4.5,0.9
		c0.2-0.7,0.4-1.3,0.5-2c0.3,0,0.7,0,1.2,0c1.1,0,2.8-0.1,4.5-0.7c0.9-0.3,1.6-0.7,2.3-1.1c0.7-0.4,1.2-0.9,1.6-1.4
		c0.8-0.9,1.1-1.6,1.1-1.6c0,0-0.6,0.5-1.5,1c-1,0.6-2.3,1.2-3.8,1.7c-1.6,0.5-3.1,0.9-4.1,1.3c-0.4,0.1-0.8,0.3-1,0.4
		c0-0.3,0-0.6,0-0.9c2.5-0.3,4.8-1.2,6.6-2.2c2.1-1.2,3.7-2.6,4.9-3.9c1.2-1.3,1.9-2.5,2.3-3.3c0.4-0.8,0.6-1.3,0.6-1.3
		c0,0-0.3,0.4-1,1.1c-0.6,0.7-1.6,1.7-2.9,2.8c-1.3,1.1-2.9,2.2-4.9,3.3c-1.7,0.9-3.6,1.6-5.8,2.1c-0.1-0.6-0.3-1.2-0.5-1.8
		c0.1-0.8,0.2-1.6,0.2-2.3c1.8-0.6,3.5-1.4,5-2.4c1.7-1.2,3.2-2.6,4.4-4c0.3-0.3,0.6-0.7,0.9-1l0.2-0.3c0,0,0.1-0.1,0.1-0.2l0.1-0.1
		l0.4-0.5c0.5-0.7,1-1.3,1.5-2c0.7-1,1.3-2.1,1.7-3.2c0.7-0.3,1.2-0.5,1.8-1.1c0.2-0.2,0.4-0.4,0.6-0.6c0.5-0.2,1.1-0.3,1.6-0.4
		c0.9-0.1,1.8-0.2,2.8-0.2c1.9-0.1,3.8,0,5.6,0c1.9,0,3.7-0.1,5.5-0.6c0.9-0.2,1.8-0.6,2.6-1.1c0.3-0.2,0.5-0.4,0.7-0.6
		c5.6,7.2,12,12,17.1,14.1c2.7,1.1,4.9,1.6,6.5,1.7c0.4,0,0.8,0,1.1,0c0.8,0.2,1.3,0.3,1.3,0.3c0,0-0.3-0.1-0.8-0.3
		c0.5,0,0.8,0,0.8,0c0,0-0.5,0-1.3-0.2c-0.3-0.1-0.7-0.3-1.1-0.5c-1.5-0.7-3.6-1.9-6-3.7c-2.4-1.8-5.1-4.1-7.8-7
		c-1.4-1.4-2.8-3-4.2-4.7c-1.1-1.3-2.1-2.6-3.1-4c0.1-0.4,0.1-0.7,0.1-1.1c0-0.5-0.2-1.1-0.5-1.5c-0.4-0.5-0.9-0.7-1.4-0.8
		c-0.5-0.1-0.9-0.1-1.3-0.1c-0.8,0-1.6,0.2-2.3,0.4c-1.4,0.4-2.7,0.9-4,1.4c-1.2,0.5-2.4,1-3.4,1.5c-2.2,1-4.1,1.9-5.8,2.5
		c-1.7,0.7-3.2,1.2-4.4,1.5c-0.4,0.1-0.7,0.2-1,0.3c-0.2-0.4-0.5-0.7-0.8-0.9c-0.4-0.3-0.9-0.4-1.3-0.3c-0.4,0-0.7,0.2-1,0.3
		c-0.2,0.1-0.4,0.3-0.6,0.4c-0.3,0.2-0.4,0.4-0.4,0.4c0,0,0.2-0.1,0.5-0.3c0.2-0.1,0.4-0.2,0.7-0.3c0.3-0.1,0.6-0.1,0.9-0.1
		c0.3,0,0.7,0.2,0.9,0.5c0.1,0.1,0.2,0.3,0.4,0.5c0,0.1,0.1,0.1,0.1,0.2c0.1,0.1,0.1,0.3,0.2,0.5c0.1,0.2,0.2,0.5,0.2,0.8l0,0.2
		c0,0.1,0,0.1,0,0.2c0,0.1,0,0.3,0,0.4c0,0.5-0.1,1.1-0.3,1.7c-0.4,1.2-1.2,2.3-2.2,3.5c-0.5,0.6-1,1.2-1.6,1.9l-0.2,0.3
		c0,0-0.1,0.1-0.1,0.1l-0.1,0.1l-0.4,0.5c-0.3,0.3-0.6,0.6-0.9,1c-1.2,1.3-2.5,2.5-4.1,3.6c-1.2,0.8-2.5,1.5-3.9,2.1
		c-0.1-0.7-0.2-1.3-0.3-2c0.4-0.1,0.9-0.3,1.6-0.6c0.7-0.3,1.4-0.7,2.2-1.3c0.8-0.6,1.5-1.3,2.3-2.1c1.4-1.7,2.3-3.4,3.1-4.6
		c0.7-1.2,1.1-2,1.1-2s-0.7,0.5-1.7,1.6c-1,1-2.2,2.5-3.6,4.1c-1.3,1.6-2.6,2.9-3.7,3.7c-0.5,0.4-0.9,0.8-1.3,1
		c-0.1-0.3-0.1-0.5-0.2-0.8c0,0,0-0.1,0-0.2c0.9-0.4,1.7-0.9,2.4-1.5c1.1-0.9,2-1.9,2.8-2.8c1.5-2,2.5-3.9,3.1-5.6
		c0.6-1.7,0.9-3.1,1-4c0.1-1,0.1-1.5,0.1-1.5c0,0-0.5,2.2-2.2,5.2c-0.8,1.5-1.9,3.3-3.4,5c-0.7,0.9-1.6,1.7-2.5,2.5
		c-0.5,0.4-1.1,0.8-1.7,1.2c0,0,0,0,0,0c0.1-0.6,0.2-1.2,0.3-1.8l0.2,0.1c1.2-1.3,2.1-2.8,2.8-4.2c0.7-1.5,1.2-2.9,1.5-4.3
		c0.7-2.8,0.8-5.3,0.7-7.3c0-0.5,0-0.9-0.1-1.3c0.1-1.5,0.5-2.8,1.3-3.9c0.9-1.3,2.3-2.1,3.8-2.7c0.7-0.3,1.5-0.6,2.3-0.8l1.1-0.4
		l0.6-0.2l0.3-0.1l0.3-0.1c1.5-0.5,3-0.9,4.5-1.5c0.7-0.3,1.4-0.6,2.1-1.1c0.4-0.2,0.7-0.5,1-0.8c3.9,2.9,8.1,4.8,11.8,6.1
		c3.8,1.4,7.3,2.3,10.1,2.9c2.8,0.7,5.1,1.1,6.7,1.4l2.4,0.5c0,0-0.9-0.3-2.4-0.9c-1.2-0.4-2.8-0.9-4.7-1.6
		c-1.3-0.6-3.1-1.4-5.1-2.6c-2.4-1.3-5.2-2.9-8.2-4.8c-3-1.8-6.8-3.9-10.2-6.2c-0.1-0.1-0.2-0.1-0.2-0.1c0,0,0,0,0,0
		c-0.2-0.1-0.4-0.2-0.6-0.2c-0.8-0.2-1.5-0.1-2.2,0.1c-0.7,0.1-1.3,0.3-1.9,0.5c-1.2,0.4-2.2,0.8-3.3,1.2c-2,0.9-3.8,1.7-5.3,2.5
		c-1.5,0.8-2.8,1.4-3.9,1.9c-1.1,0.5-1.9,0.9-2.4,1.1c-0.6,0.2-0.9,0.3-0.9,0.3c0,0-1.9,1-1.3,0.8c-0.3,0.1-0.6,0.3-0.8,0.5
		c-0.1,0.1-0.2,0.2-0.3,0.3c-0.1,0.1-0.2,0.3-0.3,0.5c-0.2,0.4-0.2,0.7-0.2,1.1c0,0.7,0.2,1.4,0.3,2c0.2,0.6,0.4,1.3,0.5,1.9
		c0,0.1,0.1,0.3,0.1,0.4c0,0.1,0,0.1,0,0.2v0.1c0,0,0,0.2,0,0.2c0,0.3,0,0.7,0,1c0,1.4-0.2,2.8-0.5,4.3c-0.2,0.8-0.3,1.6-0.5,2.4
		c-0.3-0.8-0.8-1.5-1.2-2.2c0-1.9-0.2-3.8-0.6-5.5c-0.5-2.1-1.3-4.1-2.2-5.9c-0.3-0.6-0.6-1.1-0.9-1.6c0.1-0.2,0.1-0.6,0.2-1
		c0.2-1,0.2-2.3-0.2-3.8c-0.4-1.5-1.2-2.7-2-3.3c0,0,0,0-0.1-0.1c0.2-0.3,0.4-0.6,0.6-0.9c0.4-0.7,0.7-1.6,0.6-2.5
		c-0.1-0.9-0.6-1.7-1.2-2.3c-0.6-0.6-1.2-1-1.8-1.3c-0.6-0.4-1.3-0.6-1.9-0.9c-1.3-0.4-2.6-0.7-3.9-0.8c-0.8-0.1-1.7-0.2-2.5-0.3
		c0.1-0.4,0.1-0.7,0-1.1c0-0.7-0.2-1.3-0.5-1.9c-0.5-1.2-1.3-2.2-2.2-3c-1.7-1.6-3.5-2.7-5.3-3.7c-0.6-0.3-1.2-0.7-1.8-1
		c-0.3-0.5-0.8-1.2-1.1-1.7c0-1.2-0.3-2.8-0.7-3.9c-0.4-1-0.9-2-1.5-2.8c-1.2-1.7-2.6-3-3.8-4.2c0.6-2.2,1.2-5.4,1.2-7.4
		c0-1.7-0.2-3.4-0.5-4.9c0.3-0.6,0.7-1.4,1-2.2c0.2-0.5,0.4-0.9,0.5-1.4c0.4-1.2,0.8-2.4,0.9-3.4c0.3-2,0.5-3.9,0.6-5.6
		c0-0.2,0-0.3,0-0.5l0.1,0.1c0.3-0.2,0.6-0.5,0.8-0.7c0.2,0,0.4,0,0.6,0c0.6-0.1,1.1-0.3,1.5-0.6c0.9-0.5,1.6-1.3,2.2-2
		c0.1-0.1,0.1-0.1,0.1-0.2c2,0,4.4-0.1,6.2-0.6c0.5-0.1,1.1-0.3,1.6-0.5l0,0.1c0.2,0,0.5-0.1,0.7-0.1c0.4,0.4,1,0.8,1.5,1
		c0.6,0.2,1.1,0.4,1.7,0.4c1.1,0.2,2.2,0.2,3.2,0.1c1.7-0.1,3.3-0.3,4.9-0.5c0.3,1,0.9,1.8,1.5,2.4c0.7,0.7,1.4,1.2,2.2,1.6
		c0.7,0.4,1.5,0.8,2.2,1.1c-0.2,0.8-0.4,1.6-0.3,2.4c0.1,0.9,0.3,1.7,0.6,2.5c0.1,0.2,0.1,0.3,0.2,0.5c0,0.2,0.1,0.4,0.1,0.6
		c0.1,0.3,0.2,1,0.4,1.4c-0.4,0.4-0.8,0.8-1.2,1.2c-0.6,0.9-1,1.9-1.1,2.9c-0.1,1,0,1.9,0.1,2.8c0,0.1,0,0.1,0,0.2
		c0,0-0.1-0.1-0.1-0.1c-0.1-0.1-0.3-0.2-0.5-0.3c-0.3-0.2-0.7-0.3-1.1-0.2c-0.4,0-0.7,0.2-1,0.5c-0.1,0.1-0.2,0.3-0.4,0.4
		c-0.1,0.1-0.1,0.2-0.1,0.2l-0.1,0.1l0,0.1c-0.1,0.3-0.2,0.5-0.3,0.8c-0.1,0.5-0.2,1-0.3,1.4c-0.1,1-0.2,2-0.3,3
		c-0.6-0.3-1.7,0.6-2.2,1.1c-0.5,0.5-0.9,1.2-1.2,1.8c0-1-0.2-2.1-0.5-3.1c-0.4-1.3-1.2-2.6-2.3-3.5c-1.1-0.9-2.3-1.4-3.6-1.5
		c-1.2-0.1-2.4,0.1-3.4,0.5c-0.2,0.1-0.5,0.2-0.7,0.3c-0.1-0.1-0.1-0.2-0.2-0.2c-0.3-0.3-0.5-0.7-0.8-1c-0.6-0.7-1.1-1.4-1.5-2.2
		c-0.7-1.6-0.5-3.8,0.8-5.3c0.7-0.7,1.6-1.3,2.5-1.6c0.9-0.4,1.9-0.6,2.9-0.7c1.9-0.2,3.7,0.1,5.1,0.4c1.4,0.4,2.6,0.8,3.3,1.2
		c0.8,0.4,1.2,0.6,1.2,0.6c0,0-0.6-0.6-1.8-1.4c-1.2-0.9-3-2.1-5.6-3c-1.3-0.4-2.8-0.8-4.4-0.8c-1.6,0-3.4,0.2-5.1,1
		c-1.7,0.7-3.3,1.9-4.6,3.5c-1.3,1.5-2.3,3.5-2.7,5.6c-0.2,1.1-0.3,2.1-0.2,3.2c0.1,1.1,0.3,2.1,0.7,3c0.8,1.9,1.9,3.4,3,4.8
		c2.4,2.7,5.2,4.6,7.8,5.3c1.2,0.3,2.4,0.4,3.5,0.3c0.2,0.2,0.5,0.5,0.8,0.8c0.5,0.4,1.3,0.8,2.4,0.9c0.6,0,1.3,0,1.9-0.2
		c0.1,0,0.3,0.1,0.4,0.1c0.6,0.1,1.3,0.1,2.1-0.1c0.8-0.2,1.7-0.5,2.6-1.1c0.3-0.2,0.6-0.4,0.9-0.6c0.2,0,0.4,0.1,0.6,0.1
		c0.2,0,0.4,0,0.6,0.1c0.3,0,0.6,0,0.9,0c0.3,0,0.6,0,1,0c0.9-0.1,2-0.4,3-1c0.5-0.3,0.9-0.8,1.2-1.3c0.3-0.5,0.5-1,0.6-1.5
		c0.2-1,0.1-1.8-0.1-2.5c-0.1-0.3-0.1-0.5-0.2-0.7c0.2-0.4,0.4-0.9,0.6-1.4c0.1-0.2,0.2-0.4,0.3-0.5c0.3,0,0.9-0.1,1.5-0.3
		c0.6-0.2,1.4-0.7,2.1-1.4c0.7-0.7,1.3-1.7,1.8-2.9c0.5-1.2,0.8-2.5,0.8-4c0-0.2,0-0.4,0-0.6c0-0.2,0-0.4,0-0.6c0-0.1,0-0.2,0-0.4
		c0.1,0,0.2,0,0.3-0.1c0,0,0,0,0,0c0,0,0,0,0,0c0.6-0.2,1-0.6,1.3-1.1c0.3-0.3,0.6-0.8,0.8-1.3c0.2-0.6,0.2-1.2,0.2-1.7
		c0.1-0.9,0.1-1.8-0.1-2.7c-0.2-1.5-0.9-2.8-1.7-3.9c-0.6-0.7-1.2-1.3-1.8-1.8c0-0.2,0-0.4,0-0.7c0-0.8-0.3-1.8-0.9-2.8
		c-0.6-1-1.4-1.6-1.9-2.1c-0.1-0.1-0.2-0.2-0.3-0.2c-0.2-0.4-0.4-0.7-0.7-1c-0.4-0.4-0.8-0.8-1.4-1c-0.3-0.1-1-0.4-1.5-0.5
		c-0.1-0.1-0.2-0.1-0.3-0.1c-0.2-0.4-0.5-0.8-1-1.3c-0.7-0.8-1.9-1.8-3.4-2.5c0-0.1-0.1-0.2-0.1-0.2c0,0,0-0.2-0.2-0.6
		c-0.1-0.4-0.3-0.9-0.7-1.6c-0.4-0.7-0.9-1.5-2-2.1c-0.5-0.3-1.1-0.5-1.8-0.5c-0.7,0-1.4,0.1-2.1,0.2c-1.1,0.3-2.2,0.8-3.3,1.5
		c-0.3-0.1-0.8-0.2-1.9-0.3c-0.3-0.1-0.9-0.4-2-0.6c-1.4-0.3-3.7-0.4-6.3,0.3c-1.3,0.3-2.7,0.9-4,1.8c0,0-0.1,0-0.1-0.1
		c0,0-0.2-0.1-0.5-0.2c-0.3-0.1-0.8-0.2-1.4-0.1c-0.6,0-1.4,0.2-2.1,0.6c-0.7,0.4-1.5,0.9-2.2,1.5c-0.5,0.4-0.9,0.9-1.2,1.3
		c-0.8,0.2-2.6,0.8-3,1c-0.6,0.3-1.5,0.8-2.3,1.8c-0.8,1-1.4,2.4-1.6,4.1c-0.2,1.3-0.1,2.7,0.1,4.1c-0.2,0.2-0.3,0.4-0.5,0.6
		c-0.5,0.6-1,1.3-1.6,2.2c-0.5,0.9-1.1,2-1.4,3.4c-0.3,1.3-0.4,2.9-0.1,4.6c0.1,0.7,0.3,1.5,0.6,2.2c-0.2,0.4-0.6,1-1.1,2
		c-0.4,0.8-0.8,1.8-1.1,3c-0.3,1.2-0.5,2.6-0.4,4.3c0.1,1.6,0.6,3.3,1.4,5c0.2,0.4,0.4,0.9,0.6,1.3c0.2,0.4,0.5,0.9,0.8,1.3
		c0.6,0.9,1.3,1.7,2.2,2.3c0.1,0.1,0.3,0.2,0.4,0.3c0.1,0.1,0.1,0.2,0.2,0.3c0.2,0.4,0.5,0.7,0.9,1.1c0,0.4,0,0.9,0.1,1.5
		c0.2,1.5,0.7,3.8,2,6.4c0.7,1.3,1.5,2.6,2.7,3.9c0.6,0.6,1.2,1.3,2,1.8c0.2,0.1,0.4,0.3,0.6,0.4l0.3,0.2c0.1,0.1,0.2,0.1,0.4,0.2
		c0.5,0.3,1,0.4,1.5,0.5c1.2,0.2,2.3,0.3,3.5,0.4c0,0.1,0,0.3-0.1,0.4c-0.1,0.6-0.1,1.3,0.1,1.9l0.1,0.2l0.1,0.2
		c0,0.1,0.1,0.2,0.1,0.3c0.1,0.2,0.2,0.4,0.3,0.6c0.2,0.4,0.5,0.7,0.8,1.1c0.1,0.3,0.3,0.5,0.4,0.8c-0.8,0.6-1.9,1.4-3,2.5
		c-0.6,0.6-1.1,1.2-1.4,1.9c-0.3,0.7-0.5,1.3-0.6,1.9c-0.1,0.9,0,1.4,0.1,1.7c-2,1.7-3.9,4-5.3,6.8c-0.9,1.8-1.6,3.7-2.1,5.9
		c-0.4,1.9-0.6,3.9-0.5,5.9c-0.3,0.5-0.6,1.1-0.9,1.7c-0.2-0.9-0.4-1.8-0.6-2.6c-0.3-1.6-0.5-3-0.5-4.4c0-0.2,0-0.3,0-0.5
		c0-0.1,0-0.4,0-0.5c0-0.3,0.1-0.6,0.1-0.9c0.2-0.6,0.3-1.3,0.5-1.9c0.2-0.6,0.3-1.3,0.2-2.1c0-0.4-0.2-0.8-0.4-1.1
		c-0.1-0.1-0.1-0.2-0.2-0.2l-0.2-0.2c-0.1-0.1-0.2-0.2-0.4-0.3c-0.3-0.2-0.6-0.4-0.9-0.4c-0.1,0-0.2,0-0.3,0
		c-0.6-0.4-1.3-0.8-1.6-0.9c-0.6-0.2-1.5-0.6-2.6-1.1l-4-2c-1.6-0.8-3.4-1.6-5.5-2.5c-1-0.4-2.1-0.8-3.4-1.2
		c-0.6-0.2-1.2-0.3-1.9-0.4c-0.3,0-0.7-0.1-1.1,0c-0.3,0-0.7,0.1-1,0.3l0.4-0.3c-0.2,0.1-0.3,0.2-0.5,0.3c-0.1,0-0.1,0.1-0.2,0.1
		c0,0-0.1,0.1-0.1,0.1c-3.5,2.3-7.6,4.6-10.5,6.4c-3.1,1.9-5.9,3.5-8.2,4.7c-1.9,1-3.6,1.8-4.8,2.4c-2,0.7-3.7,1.2-4.9,1.6
		c-1.5,0.5-2.3,0.8-2.3,0.8l2.5-0.5c1.6-0.3,4-0.8,6.9-1.5c2.9-0.7,6.4-1.6,10.2-3c3.7-1.4,7.7-3.2,11.4-6c0.5,0.5,1.1,0.8,1.7,1.1
		c0.7,0.4,1.4,0.7,2.1,0.9c0.7,0.3,1.4,0.5,2.2,0.7c0.7,0.2,1.5,0.4,2.2,0.7l1.2,0.4c0.4,0.1,0.7,0.2,1.1,0.4
		c0.7,0.2,1.5,0.5,2.2,0.8c1.4,0.6,2.7,1.5,3.5,2.7c0.7,1.1,1.1,2.4,1.2,3.8c0,0.5-0.1,1-0.1,1.5c-0.1,2.1,0.1,4.6,0.8,7.3
		c0.4,1.4,0.8,2.8,1.5,4.2c0.7,1.4,1.6,2.8,2.7,4l0.2-0.1c0.1,0.6,0.2,1.2,0.3,1.8c0,0,0,0,0,0c-0.7-0.4-1.3-0.8-1.9-1.3
		c-1-0.8-1.8-1.7-2.6-2.6c-1.5-1.8-2.6-3.5-3.4-5c-1.6-3-2-5-2.1-5c0,0,0,0.5,0.1,1.5c0.1,1,0.4,2.4,1,4.1c0.6,1.7,1.6,3.7,3.2,5.6
		c0.8,1,1.7,1.9,2.8,2.8c0.7,0.5,1.4,1,2.2,1.3c0,0.1-0.1,0.3-0.1,0.4c-0.2,0.9-0.4,1.8-0.5,2.7c-1.5-0.6-2.9-1.3-4.1-2.2
		c-1.6-1.1-2.9-2.5-4.1-3.8l-0.9-1l-0.2-0.2c0-0.1,0-0.1-0.1-0.1l-0.1-0.1l-0.4-0.5c-0.5-0.7-1.1-1.3-1.5-1.9
		c-0.9-1.2-1.7-2.4-2.1-3.5c-0.2-0.6-0.2-1.1-0.2-1.7c0-0.1,0-0.1,0-0.2c0,0,0,0,0-0.1l0-0.1c0-0.1,0.1-0.3,0.1-0.4
		c0.1-0.3,0.2-0.5,0.2-0.7c0-0.1,0.1-0.2,0.1-0.3c0-0.1,0.1-0.1,0.1-0.2c0.1-0.2,0.3-0.4,0.5-0.6c0.3-0.2,0.6-0.4,0.9-0.4
		c0.6,0,1.2,0.2,1.5,0.4c0.3,0.2,0.5,0.3,0.5,0.3s-0.1-0.1-0.5-0.4c-0.2-0.1-0.4-0.3-0.6-0.4c-0.3-0.1-0.6-0.3-1-0.3
		c-0.4,0-0.9,0.1-1.3,0.4c-0.3,0.2-0.5,0.5-0.7,0.8c-0.4-0.1-0.8-0.2-1.3-0.3c-1.3-0.4-2.8-0.9-4.6-1.6c-1.8-0.7-3.7-1.6-6-2.6
		c-1.1-0.5-2.3-1-3.5-1.5c-1.3-0.5-2.6-1-4.1-1.3c-0.7-0.1-1.5-0.3-2.4-0.2c-0.4,0.1-0.9,0.2-1.4,0.5c-0.5,0.3-0.8,0.9-0.9,1.4
		c-0.1,0.5-0.1,1,0,1.4c0,0.1,0,0.2,0.1,0.2c-1.1,1.5-2.2,2.9-3.3,4.2c-1.5,1.7-2.9,3.3-4.3,4.7c-2.8,2.9-5.5,5.2-7.8,6.9
		c-3,2.2-5.4,3.4-6.8,3.9c-0.8,0.1-1.3,0.1-1.3,0.2c0,0,0.3,0,0.8,0c-0.5,0.2-0.8,0.3-0.8,0.3c0,0,0.5-0.1,1.3-0.3
		c0.3,0,0.7,0,1.2-0.1c1.6-0.1,4-0.6,6.7-1.8c5.2-2.3,11.4-7.1,16.7-13.9c0.4,0.4,0.9,0.7,1.4,0.9c0.8,0.4,1.7,0.7,2.6,0.9
		c1.8,0.4,3.6,0.5,5.4,0.5c1.8,0,3.6,0,5.4,0c0.9,0,1.8,0.1,2.7,0.2c0.4,0.1,0.9,0.2,1.3,0.3c0.1,0.3,0.3,1,0.9,1.4
		c0.4,0.3,0.9,0.4,1.3,0.4c0.2,0.1,0.3,0.2,0.5,0.2c0.4,1.2,1.1,2.3,1.9,3.4c0.5,0.7,1,1.3,1.5,2l0.2,0.3c0,0,0.1,0.1,0.1,0.2
		l0.1,0.1l0.4,0.5c0.3,0.3,0.6,0.7,0.9,1c1.2,1.4,2.6,2.7,4.3,3.9c1.4,1,3,1.7,4.7,2.3c0,0.8,0.1,1.5,0.2,2.3
		c-0.2,0.6-0.4,1.2-0.6,1.8c-2.3-0.5-4.3-1.3-6-2.2c-2-1-3.6-2.2-4.9-3.3c-1.3-1.1-2.2-2-2.8-2.7c-0.6-0.7-0.9-1.1-0.9-1.1
		c0,0,0.2,0.5,0.6,1.4c0.5,0.9,1.2,2.1,2.4,3.4c1.2,1.3,2.8,2.7,4.9,3.9c1.8,1,4,1.8,6.4,2.1c0,0,0,0,0,0c0,0.5,0,1.1,0.1,1.6
		c-0.4,0-0.8,0-1.3-0.2c-1.3-0.3-3.1-1.2-4.9-2.2c-1.9-1-3.6-1.9-4.9-2.6c-1.3-0.7-2.1-1-2.1-1s0.6,0.7,1.7,1.6
		c1.1,1,2.7,2.2,4.6,3.2c2,1,4,1.6,5.5,1.6c0.6,0,1.1-0.1,1.5-0.2c0.1,0.5,0.2,0.9,0.4,1.4c-1.7-0.2-3.3-0.5-4.8-0.9
		c-1.9-0.5-3.6-1.2-5.2-2l-0.6-0.3l-0.1-0.1c0,0,0,0-0.1,0c-0.1-0.1-0.1-0.1-0.2-0.2c-0.3-0.3-0.6-0.5-0.9-0.8
		c-0.6-0.6-1.1-1.2-1.7-1.7c-1-1.1-2-2.2-2.7-3.3c-0.8-1-1.4-2-1.7-2.9c-0.1-0.2-0.1-0.4-0.2-0.6c0-0.2,0-0.4,0-0.5
		c0.1-0.3,0.4-0.5,0.7-0.6c0.6-0.2,1.2-0.1,1.6-0.1c0.4,0,0.6,0.1,0.6,0.1c0,0-0.2-0.1-0.6-0.2c-0.2,0-0.4-0.1-0.7-0.1l-1.5-1.6
		c-0.7,0.2-1.6,0.3-2.4,0.3c-0.8,0-1.7-0.1-2.5-0.3c-1.7-0.2-3.3-0.5-4.8-0.8c-3-0.5-5.8-0.9-8.1-0.7c-1.2,0.1-2.2,0.3-3,0.7
		c-0.8,0.4-1.4,1-1.8,1.5c-0.3,0.5-0.4,0.9-0.5,1.2l-0.1,0c-0.4,1-1,1.9-1.6,2.8c-0.6,0.9-1.2,1.7-1.9,2.5c-1.3,1.6-2.6,3.1-3.9,4.4
		c-2.6,2.6-5.1,4.6-7.5,5.9c-1.2,0.6-2.3,1.1-3.2,1.4c-1,0.3-1.9,0.3-2.6,0.3c-0.7,0-1.3-0.2-1.6-0.3c-0.4-0.1-0.5-0.2-0.5-0.2
		c0,0,0.2,0.1,0.5,0.4c0.4,0.2,0.9,0.5,1.7,0.8c0.8,0.3,1.8,0.5,3,0.5c1.2,0,2.5-0.2,4-0.6c2.9-0.8,6.1-2.4,9.2-4.9
		c1.6-1.2,3.1-2.6,4.5-4.2c1.3-1.5,2.6-3.2,3.6-5.2c0,0,0.1,0,0.1,0.1c0.8,0.4,1.8,0.7,2.8,0.9c2.2,0.4,4.8,0.4,7.7,0.2
		c1.4-0.1,2.9-0.3,4.5-0.4c1.5-0.1,3.1-0.3,4.7-0.1l0-0.1c0.3,0.5,0.6,1,0.9,1.6c0.7,1.2,1.6,2.4,2.6,3.6c0.5,0.6,1.1,1.2,1.7,1.9
		c0.3,0.3,0.6,0.6,1,0.9c0.1,0.1,0.2,0.1,0.2,0.1l0.1,0.1l0.3,0.2c0.2,0.1,0.4,0.2,0.6,0.3c1.6,0.9,3.5,1.6,5.4,2
		c1.8,0.4,3.6,0.7,5.5,0.8c0.1,0.5,0.5,2.7,0.7,3.5c0,0.9,0.1,1.8,0.5,2.7c0.2,0.6,0.5,1.2,0.9,1.8c-2.1,0.3-4.2,0.3-6.1-0.1
		c-2.1-0.4-4.1-1.2-5.8-2.1c-0.9-0.5-1.6-1-2.4-1.5l-0.6-0.4c-0.1-0.1-0.2-0.1-0.2-0.2c-0.1-0.1-0.2-0.1-0.2-0.2
		c-0.3-0.3-0.6-0.6-0.9-0.9c-0.6-0.6-1.2-1.2-1.9-1.7c-0.3-0.3-0.7-0.5-1-0.7c-0.4-0.2-0.8-0.4-1.3-0.4c-0.5-0.1-0.9-0.1-1.4,0
		c0,0,0,0,0,0c0,0-0.1,0-0.1,0c-1,0.2-3.4,0.3-4.3,0.4c-0.9,0-1.9,0-2.8,0c-1.8,0-3.6-0.1-5.2-0.1c-3.3,0-6.2,0.1-8.6,0.6
		c-1.2,0.2-2.3,0.6-3.1,1c-0.9,0.5-1.5,1.1-1.8,1.7c-0.1,0.2-0.2,0.3-0.2,0.5c-0.1,0.3-0.1,0.5-0.1,0.7l0,0c-0.1,0.2-0.1,0.2,0,0.2
		c0,0,0,0.1,0,0.1c0,0.3,0.1,0.5,0.1,0.5c0,0,0-0.2,0-0.5c0.2,0.9-0.5,1.1-0.9,2.1c-0.4,1-1.1,1.9-1.7,2.7c-1.3,1.7-2.8,3.2-4.2,4.4
		c-2.9,2.6-5.8,4.5-8.3,5.9c-1.9,1.1-3.7,1.8-5.1,2.1c-0.4,0-0.7,0-1,0c-1.5-0.1-2.3-0.3-2.3-0.3c0,0,0.4,0.2,1.3,0.4
		c-0.3,0-0.6-0.1-0.8-0.2c-0.4-0.1-0.5-0.3-0.5-0.3c0,0,0.2,0.2,0.5,0.4c0.4,0.2,1,0.4,1.9,0.4c0.3,0,0.6,0,1,0
		c1.5,0.1,3.6,0,5.9-0.7c2.8-0.8,6.1-2.3,9.3-4.5c1.6-1.1,3.2-2.4,4.8-3.8c1.5-1.4,2.9-2.8,4.2-4.5c1,0.4,2.2,0.8,3.6,0.9
		c2.3,0.2,5-0.1,7.9-1c2.8-0.9,5.6-2.2,8.5-4c0.1,0.2,0.2,0.3,0.3,0.3c0,0.1,0,0.1,0.1,0.1l-0.6-1.7c0-0.1,0-0.2,0-0.3
		c0-0.6,0.2-1.5,0.9-2.1c0,0,0,0,0,0c0.1,0,0.1,0,0.2-0.1l0-0.1c0.3-0.2,0.6-0.4,1-0.5c0.5-0.1,1-0.1,1.5,0.1h0l0.1,0
		c0.2,0,0.5,0.1,0.8,0.3c0.3,0.2,0.5,0.4,0.8,0.7c0.6,0.5,1.1,1.2,1.7,1.8c0.3,0.3,0.6,0.7,1,1c0.2,0.2,0.4,0.4,0.6,0.5
		c0.2,0.1,0.4,0.3,0.6,0.5c0.8,0.6,1.6,1.2,2.5,1.7c1.6,0.9,3.5,1.7,5.5,2.1c-0.9,0.1-1.8,0.2-2.7,0.2c-1.4,0.1-2.8,0-4-0.3
		c-1.2-0.2-2.3-0.6-3.2-1c-1.8-0.8-2.8-1.5-2.8-1.5c0,0,0.8,1,2.4,2.1c0.8,0.6,1.9,1.2,3.2,1.5c1.3,0.4,2.8,0.6,4.4,0.5
		c1.6-0.1,3-0.3,4.3-0.6c1-0.2,1.9-0.5,2.7-0.7c0.7,0,1.3-0.1,2-0.2c-0.1,0.1-0.1,0.2-0.2,0.4c-0.1,0.3-0.2,0.6-0.2,1l-0.3-0.4
		c-1.3,0.9-2.9,1.4-4.4,1.6c-1.5,0.2-3,0.2-4.4,0c-2.8-0.3-5.3-1.1-7.2-1.8c-1.9-0.8-3.4-1.6-4.3-2.3c-0.9-0.7-1.4-1.1-1.4-1.1
		c0,0,0.4,0.6,1.2,1.5c0.9,0.9,2.3,2,4.3,3.1c2,1,4.5,2,7.5,2.4c1.5,0.2,3.1,0.2,4.8-0.1c1.5-0.3,3.1-0.8,4.4-1.8
		c0.1,0.2,0.1,0.4,0.2,0.5c0.3,0.7,0.9,1.2,1.5,1.7c-1.6,1.2-3.3,2-5.1,2.6c-2,0.6-4,0.8-5.9,0.7c-0.5,0-0.9,0-1.4-0.1
		c-0.2,0-0.4-0.1-0.7-0.1l-0.3-0.1c-0.1,0-0.2,0-0.3-0.1c-0.8-0.2-1.6-0.6-2.4-0.9c-0.8-0.3-1.6-0.7-2.4-0.9
		c-0.4-0.1-0.8-0.2-1.2-0.2c-0.4,0-0.9,0-1.3,0.1c-0.8,0.3-1.4,0.8-1.8,1.4c-0.2,0.3-0.4,0.6-0.5,0.9c-0.6-0.3-1.3-0.4-2-0.5
		c-1.8-0.2-3.5,0.1-5,0.6c-1.5,0.5-2.9,1.1-4.2,1.7c-2.6,1.3-4.8,2.9-6.8,4.6c-1.9,1.6-3.5,3.3-4.8,5c-1.3,1.7-2.3,3.3-2.8,4.9
		c-0.1,0.4-0.2,0.8-0.3,1.2c-0.1,0.1-0.2,0.1-0.3,0.2c-0.8,0.6-1.5,1.4-2.1,2.2c0,0,0,0,0-0.1l-0.3,0.4c-0.2,0.2-0.3,0.5-0.5,0.7
		c-0.1,0.1-0.1,0.2-0.2,0.3c-1.1,1.6-2.3,3.4-2.7,5.1c-0.5,2.3-0.5,4.6-0.3,6.7c0.5,4.4,1.9,8.3,3.8,11.7c1.9,3.4,4.2,6.2,6.7,8.5
		c2.5,2.3,5.1,4,7.6,5.2c2.5,1.2,5,1.8,7.1,2.1c2.2,0.3,4,0.1,5.5-0.1c0.9-0.1,1.6-0.3,2.2-0.5c0.7-0.1,1.3-0.3,1.6-0.5
		c0.3-0.1,0.4-0.2,0.5-0.3c0,0,0,0,0,0s0,0,0,0c0,0,0,0,0,0s0,0-0.1,0c-0.1,0-0.5,0.1-1.1,0.3c-0.4,0.1-0.9,0.2-1.5,0.2
		c-1.4,0-3.3-0.4-5.3-1.4c-2.3-1.1-4.8-2.9-7-5.5c-1.1-1.3-2.1-2.7-2.9-4.4c-0.8-1.6-1.3-3.4-1.5-5.3c-0.2-1.9,0-3.8,0.5-5.5
		c0.5-1.7,1.5-3.1,2.9-3.7c0,0,0,0,0,0c1.4,0.3,2.8,0.9,4,1.7c0.4,0.3,0.7,0.5,1,0.9c0.2,0.2,0.3,0.3,0.5,0.5
		c0.1,0.1,0.2,0.2,0.3,0.3l0.2,0.3c0.7,0.7,1.3,1.5,1.9,2.2c4.9,6.3,8.2,13,8.8,18.3c0.3,2.6-0.1,4.7-0.6,6.1c-0.5,1.3-0.9,1.9-1,2
		c0,0,0,0,0,0c0,0,0,0,0,0c0,0,0,0,0,0c0,0,0,0,0,0c0,0,0,0,0,0c0.1-0.1,0.6-0.8,1.2-1.9c0.3-0.7,0.6-1.6,0.9-2.6
		c0.2-1.1,0.3-2.3,0.3-3.6c-0.1-2.7-0.9-5.9-2.4-9.2c-1.4-3.3-3.4-6.7-6-9.9c-0.6-0.8-1.3-1.6-2-2.3l-0.5-0.5
		c-0.2-0.2-0.4-0.4-0.6-0.5c-0.4-0.3-0.8-0.7-1.2-1c-0.6-0.4-1.1-0.7-1.7-1c0.5,0.1,0.9,0.2,1.3,0.3c1.4,0.5,2.6,1.2,3.6,2
		c2,1.6,3.3,3.3,4.1,4.5c0.8,1.2,1.2,1.9,1.2,1.9c0,0-0.3-0.8-1-2c-0.7-1.3-1.9-3.1-3.9-4.9c-1-0.9-2.2-1.8-3.7-2.3
		c-0.8-0.3-1.6-0.5-2.5-0.6c-0.7,0-1.5,0-2.3,0.3c-0.2,0-0.4-0.1-0.6-0.1c-1.8-0.3-3.5-0.3-5-0.4c-1.5-0.1-3-0.2-4.2-0.6
		c-1.2-0.4-2.2-1.1-2.9-1.8c-0.7-0.8-1.1-1.6-1.4-2.3c-0.6-1.4-0.7-2.2-0.7-2.2c0,0,0.1,0.8,0.5,2.3c0.2,0.7,0.6,1.6,1.2,2.5
		c0.7,0.9,1.7,1.7,3,2.2c1.3,0.5,2.8,0.8,4.3,1c1.3,0.1,2.6,0.3,3.9,0.5c-0.4,0.3-0.7,0.7-1,1c-0.6,0.8-1.1,1.7-1.4,2.6
		c-0.6,1.9-0.8,3.9-0.6,6c0.2,2.1,0.8,4.1,1.7,5.8c0.9,1.7,2,3.3,3.2,4.6c2.4,2.6,5.2,4.3,7.7,5.3c1.2,0.5,2.3,0.8,3.4,0.9
		c-1.5,0-3.2-0.1-5.2-0.5c-2.1-0.5-4.4-1.4-6.7-2.7c-2.3-1.3-4.6-3.2-6.8-5.5c-2.2-2.3-4.2-5.1-5.8-8.2c-1.6-3.2-2.8-6.8-3.2-10.6
		c-0.2-1.9-0.1-3.9,0.2-5.8c0.1-0.3,0.1-0.7,0.2-1l0.2,0.1c0,0,0-0.1,0-0.1c-0.3,1.4-0.4,3.1-0.3,4.9c0.1,2.3,0.6,4.7,1.4,7.2
		c1.6,4.9,4.2,9,6.3,11.6c2.1,2.7,3.8,3.9,3.8,3.9c0,0-1.5-1.5-3.2-4.3c-1.8-2.8-3.9-6.9-5.5-11.7c-0.8-2.4-1.3-4.7-1.6-6.9
		c-0.3-2.1-0.2-4.1,0-5.7c0.1-0.5,0.2-1,0.3-1.4c0.6-1,1.3-1.9,2-2.6c0.2-0.2,0.3-0.3,0.5-0.5c0.3-0.3,0.6-0.5,0.9-0.7
		c1-0.7,2.1-1.2,3.2-1.4c1.1-0.2,2.3-0.1,3.5,0.1c1.4,0.3,2.8,0.9,4.1,1.6c0.6,0.3,1.3,0.7,1.9,1.1c0.2,0.1,0.3,0.2,0.5,0.3
		c2,1.4,3.7,3,5.4,4.6c1.6,1.6,3.1,3.3,4.5,5c0.7,0.8,1.3,1.7,1.9,2.5c0.1,0.2,0.3,0.4,0.4,0.6l0.4,0.7c0.3,0.4,0.5,0.9,0.7,1.3
		c1.9,3.5,3.1,7.1,3.8,10.3c0.8,3.3,1,6.3,0.8,8.9c-0.2,2.6-0.8,4.8-1.6,6.4c-0.8,1.6-1.7,2.8-2.3,3.5c-0.5,0.6-0.9,0.9-1,1
		c0.1-0.1,0.5-0.4,1.2-1c0.8-0.7,1.8-1.8,2.8-3.6c1-1.7,1.8-4.1,2.1-6.9c0.3-2.8,0.2-6.1-0.5-9.6c-0.7-3.5-1.9-7.3-3.9-11.1
		c-0.2-0.5-0.5-0.9-0.8-1.4c-0.1-0.2-0.3-0.5-0.5-0.7l-0.5-0.7c-0.6-0.9-1.3-1.8-2-2.7c-1.4-1.8-2.9-3.5-4.6-5.2
		c-1.5-1.5-3.1-2.9-5-4.2c1-1,2-2,3-3.1c1.4-1.5,2.8-3,4.5-4.3c1.5-1.2,5.3-2.8,7.5-3.2c0.6,0.3,1.4,0.5,2.2,0.6
		c1.1,0.1,2.5,0,3.8-0.4c2.8-0.7,5.8-2.4,8.9-4.3c1.6-0.9,3.2-1.9,5-2.8c0.9-0.4,1.8-0.9,2.7-1.2c0.8-0.3,1.7-0.4,2.5-0.5
		c0.5,0.2,0.9,0.4,1.4,0.6c-0.2,0-0.3,0-0.5,0c-1.1,0-2.3,0.3-3.3,1c-1,0.6-1.7,1.5-2.1,2.4c-0.4,0.8-0.8,1.9-0.7,2.9
		c0,1,0.4,1.9,1,2.6c0.5,0.7,1.2,1.2,1.8,1.6c1.3,0.8,2.5,1.1,3.6,1.4c1.1,0.2,2,0.3,2.8,0.3c0.3,0,0.6,0,0.9,0c0.2,0,0.5,0,0.7,0
		c1.3,0,2-0.1,2-0.1c0,0-0.8-0.1-2.1-0.2c-0.7-0.1-1.5-0.2-2.4-0.5c-0.9-0.2-2-0.6-3-1.1c-1-0.5-2-1.4-2.1-2.5
		c-0.2-1.1,0.5-2.4,1.6-3.3c1.1-0.9,2.7-1.3,4.1-0.9c0.7,0.2,1.4,0.6,2,1.1c0.6,0.5,1,1.1,1.5,1.8l-0.1,0.2c0.4,0.2,0.9,0.4,1.5,0.2
		c0.3-0.1,0.6-0.3,0.8-0.6c0.1-0.2,0.1-0.3,0.2-0.4c0.3-0.5,0.8-1,0.3-2.2c-0.1-0.4-0.4-0.7-0.6-1l1.2,0.2c0,0,0,0,0,0l0.1,0l0.1,0
		c0,0,0,0,0,0l1.2-0.2c-0.2,0.3-0.5,0.6-0.7,1c-0.3,1.1,0.1,1.6,0.3,1.9c0,0,0,0,0,0c0,0.2,0,0.5,0.2,0.8c0.2,0.3,0.5,0.5,0.8,0.5
		c0.6,0.1,1,0,1.4-0.2l-0.1-0.2c0.5-0.7,1-1.4,1.6-1.9c0.6-0.6,1.4-1,2.1-1.1c1.5-0.3,3.1,0.2,4.1,1.2c0.5,0.5,0.9,1,1.2,1.6
		c0.2,0.6,0.3,1.2,0.1,1.7c-0.2,0.5-0.5,1-0.9,1.4c-0.4,0.4-0.9,0.7-1.4,1c-1,0.5-2,0.8-2.9,1c-0.9,0.2-1.7,0.3-2.3,0.4
		c-1.3,0.2-2,0.2-2,0.2c0,0,0.7,0.1,2.1,0.1c0.2,0,0.3,0,0.5,0c0.3,0,0.7,0,1.1,0c0.8,0,1.8-0.1,2.9-0.4c1.1-0.3,2.4-0.7,3.7-1.5
		c0.6-0.4,1.3-1,1.8-1.7c0.5-0.8,0.8-1.8,0.7-2.7c-0.1-1-0.5-1.9-0.9-2.8c-0.5-0.9-1.3-1.7-2.3-2.3c-1-0.5-2.1-0.7-3.2-0.7
		c0,0,0,0-0.1,0c0.1,0,0.1,0,0.2-0.1c0.4-0.2,0.8-0.3,1.2-0.5c0.9,0,1.8,0.2,2.6,0.5c1,0.3,1.9,0.8,2.8,1.2c1.8,0.9,3.5,2,5.1,2.9
		c3.2,1.9,6.2,3.5,8.9,4.2c1.4,0.3,2.7,0.4,3.8,0.2c1.1-0.2,2-0.6,2.6-1c2.2,0.3,5.4,2.3,7.1,3.7c1.7,1.4,3.1,3,4.5,4.4
		c0.9,1,1.8,1.9,2.7,2.8c0,0,0,0,0,0c-2.1,1.5-4,3.2-5.7,4.9c-1.7,1.7-3.2,3.5-4.6,5.3c-0.7,0.9-1.3,1.8-1.9,2.7
		c-0.2,0.3-0.3,0.5-0.4,0.7l-0.4,0.7c-0.3,0.5-0.5,1-0.7,1.4c-1.8,3.8-2.9,7.6-3.6,11c-0.6,3.5-0.7,6.6-0.3,9.3
		c0.4,2.7,1.2,4.9,2.2,6.6c0.9,1.6,2,2.7,2.7,3.3c0.7,0.6,1.1,0.9,1.1,0.9c0,0-0.4-0.3-1.1-1.1c-0.7-0.8-1.6-1.9-2.4-3.7
		c-0.8-1.7-1.4-4-1.5-6.7c-0.1-2.7,0.2-5.8,1.1-9.1c0.9-3.3,2.2-6.9,4.1-10.4c0.2-0.4,0.5-0.9,0.8-1.3c0.1-0.2,0.3-0.4,0.4-0.6
		l0.5-0.6c0.6-0.8,1.3-1.7,2-2.5c1.4-1.7,2.9-3.3,4.5-4.9c1.6-1.5,3.3-3,5.2-4.2c0.1,0,0.1-0.1,0.2-0.1c0.5-0.4,1.1-0.7,1.7-1
		c1.5-0.8,3.1-1.5,4.7-1.8c1.1-0.2,2.3-0.2,3.3,0.1c1.1,0.3,2.1,0.8,3.1,1.5c0.2,0.2,0.4,0.3,0.6,0.5c0.2,0.1,0.3,0.3,0.5,0.5
		c0.6,0.6,1.1,1.3,1.6,2c0.2,0.5,0.4,1,0.5,1.6c0.3,1.5,0.4,3.3,0.2,5.3c-0.1,1-0.2,2.1-0.4,3.1c-0.1,0.3-0.1,0.5-0.2,0.8l-0.1,0.4
		c0,0.1-0.1,0.3-0.1,0.4c-0.1,0.6-0.3,1.1-0.4,1.7c-0.6,2.2-1.6,4.2-2.8,5.8c-1.1,1.7-2.3,3.1-3.3,4.3c-2,2.4-3,4.1-3,4.1
		c0,0,1.3-1.4,3.5-3.6c1.1-1.1,2.4-2.4,3.7-4.1c1.3-1.7,2.5-3.8,3.2-6.1c0.2-0.6,0.3-1.2,0.4-1.8c0-0.1,0.1-0.3,0.1-0.4l0.1-0.4
		c0.1-0.3,0.1-0.6,0.2-0.9c0.2-1.2,0.3-2.3,0.3-3.3c0-1.6-0.1-3-0.4-4.3c0,0.1,0.1,0.2,0.1,0.3l0.2-0.1c0.1,0.4,0.2,0.9,0.3,1.3
		c0.4,2,0.4,4,0.1,6c-0.5,3.9-1.8,7.6-3.5,10.7c-1.7,3.2-3.8,5.9-6,8.1c-2.2,2.2-4.6,4-6.9,5.2c-2.3,1.3-4.5,2-6.5,2.5
		c-1.7,0.4-3.3,0.5-4.6,0.4c1-0.2,2.1-0.4,3.2-0.9c2.5-1,5.2-2.7,7.7-5.3c1.2-1.3,2.3-2.8,3.2-4.6c0.9-1.7,1.5-3.7,1.7-5.8
		c0.2-2.1,0-4.1-0.6-6c-0.3-0.9-0.8-1.9-1.4-2.6c-0.3-0.4-0.7-0.7-1-1c1.3-0.2,2.7-0.3,3.9-0.5c1.6-0.2,3.1-0.4,4.3-1
		c1.3-0.5,2.3-1.3,3-2.2c0.7-0.9,1-1.8,1.2-2.5c0.4-1.4,0.5-2.3,0.5-2.3c0,0-0.1,0.8-0.7,2.2c-0.3,0.7-0.7,1.5-1.4,2.3
		c-0.7,0.8-1.6,1.4-2.9,1.8c-1.2,0.4-2.6,0.6-4.2,0.6c-1.5,0.1-3.2,0.1-5,0.4c-0.2,0-0.4,0.1-0.6,0.1c-0.8-0.2-1.5-0.3-2.3-0.3
		c-0.9,0.1-1.7,0.3-2.5,0.6c-1.5,0.6-2.7,1.5-3.7,2.3c-2,1.8-3.2,3.6-3.9,4.9c-0.7,1.3-1,2.1-1,2c0,0,0.4-0.7,1.2-1.9
		c0.8-1.2,2.1-2.9,4.1-4.5c1-0.8,2.2-1.5,3.6-2c0.4-0.1,0.9-0.2,1.3-0.3c-0.6,0.3-1.2,0.6-1.7,1c-0.4,0.3-0.8,0.6-1.2,1
		c-0.2,0.2-0.4,0.4-0.6,0.5l-0.5,0.5c-0.7,0.7-1.4,1.5-2,2.3c-2.5,3.2-4.5,6.6-6,9.9c-1.4,3.3-2.3,6.5-2.4,9.2
		c-0.1,1.4,0,2.6,0.3,3.6c0.2,1.1,0.5,1.9,0.9,2.6c0.7,1.4,1.2,2,1.2,2c0,0-0.5-0.7-1-2.1c-0.5-1.4-0.9-3.5-0.6-6.1
		c0.6-5.2,3.9-11.9,8.7-18.3c0.6-0.8,1.3-1.5,1.9-2.2l0.2-0.3c0.1-0.1,0.2-0.2,0.3-0.3c0.2-0.2,0.3-0.3,0.5-0.5
		c0.3-0.3,0.7-0.6,1-0.9c1.2-0.9,2.6-1.4,4-1.7c0,0,0,0,0,0c1.4,0.6,2.4,2.1,2.9,3.7c0.5,1.7,0.7,3.6,0.5,5.5
		c-0.2,1.9-0.7,3.7-1.5,5.3c-0.8,1.6-1.8,3.1-2.9,4.4c-2.2,2.5-4.7,4.4-7,5.5c-2,1-3.8,1.4-5.2,1.4c-0.7-0.1-1.3-0.2-1.7-0.3
		c-0.7-0.2-1.1-0.3-1.1-0.3c0,0,0.3,0.1,0.9,0.3c-0.6-0.2-0.9-0.3-0.9-0.3c0,0,0.2,0.1,0.5,0.3c0.3,0.2,0.9,0.4,1.6,0.5
		c0,0,0.1,0,0.1,0c0.6,0.2,1.4,0.4,2.3,0.5c1.5,0.2,3.5,0.3,5.7,0c2.2-0.3,4.7-1,7.3-2.3c5.1-2.5,10.4-7.3,14-14
		c1.8-3.4,3.1-7.3,3.5-11.5c0.2-2.1,0.1-4.3-0.4-6.5c-0.2-0.7-0.6-1.5-1.3-2.3c-0.5-1-1-2-1.7-3c-0.1-0.2-0.2-0.3-0.4-0.5
		c-0.8-1-1.6-2-2.7-2.8c-0.1-0.5-0.2-1-0.4-1.5c-0.6-1.6-1.7-3.3-3-5c-1.3-1.7-3-3.4-5-5c-2-1.6-4.2-3.2-6.8-4.4
		c-1.3-0.6-2.7-1.2-4.2-1.6c-1.5-0.4-3.2-0.6-5-0.4c-0.5,0.1-1,0.2-1.5,0.4c-0.1-0.4-0.4-0.8-0.7-1.2c-0.2-0.3-0.5-0.6-0.9-0.8
		c-0.3-0.2-0.7-0.4-1.2-0.5c-0.9-0.1-1.7,0.1-2.5,0.3c-0.8,0.3-1.6,0.6-2.4,0.9c-0.8,0.3-1.6,0.7-2.3,0.8c-0.9,0.1-1.8,0.2-2.7,0.2
		c-1.9,0-3.8-0.2-5.8-0.8c-1.7-0.5-3.3-1.3-4.8-2.5c0.7-0.6,1.3-1.2,1.6-2c0-0.1,0.1-0.2,0.1-0.3c1.4,1,3.1,1.6,4.6,1.8
		c1.7,0.3,3.4,0.2,4.9,0c3-0.4,5.5-1.4,7.5-2.4c1.9-1,3.3-2.2,4.1-3c0.8-0.8,1.1-1.4,1.1-1.4c0,0-0.5,0.5-1.5,1.2
		c-1,0.7-2.5,1.5-4.5,2.3c-2,0.8-4.5,1.5-7.3,1.7c-1.4,0.1-2.9,0.1-4.3-0.1c-1.3-0.2-3.3-0.9-4.6-1.7c0-0.2-0.1-0.4-0.2-0.5
		c0-0.1-0.1-0.2-0.1-0.3c1.9,0.3,3.8,0.3,5.6-0.1c2.4-0.4,4.5-1.3,6.3-2.3c0.9-0.5,1.7-1.1,2.5-1.7l0.6-0.4c0.1-0.1,0.2-0.2,0.3-0.2
		c0.1-0.1,0.2-0.2,0.3-0.3c0.3-0.3,0.6-0.7,0.9-1c0.6-0.6,1.1-1.3,1.6-1.8c0.3-0.2,0.5-0.5,0.8-0.7c0.3-0.2,0.5-0.3,0.7-0.3l0.1,0h0
		c1-0.3,1.9-0.1,2.6,0.4l0,0.1c0.1,0,0.1,0,0.2,0c0,0,0,0,0.1,0.1c0.3,0.3,0.5,0.6,0.7,1c0,0.1,0.1,0.2,0.1,0.2
		c0.1,0.3,0.1,0.6,0.1,0.9c0,0.1,0,0.2,0,0.3c0,0.5-0.2,0.9-0.3,1.2c-0.1,0.3-0.3,0.5-0.2,0.5c0,0,0.1-0.1,0.3-0.4
		c3,1.9,6,3.2,8.8,4.1c2.9,0.9,5.7,1.2,7.9,0.9c1.1-0.1,2.1-0.4,2.9-0.7c0.2-0.1,0.3-0.1,0.4-0.2c1.4,1.8,2.9,3.3,4.4,4.7
		c1.6,1.5,3.3,2.8,4.9,3.9c3.3,2.2,6.5,3.7,9.3,4.4c2.2,0.6,4.1,0.7,5.6,0.6c0.4,0,0.8,0,1.1,0C215.9,172.6,216.5,172.4,216.8,172.1
		c0.4-0.1,0.6-0.3,0.6-0.3C217.4,171.9,217.2,172,216.8,172.1z M190.1,138.1c0.6,1,1.2,1.8,1.9,2.7c1.3,1.7,2.7,3.2,4,4.5
		c2.7,2.7,5.5,4.6,8.1,5.7c1.1,0.5,2.2,0.8,3.2,1c-1.1-0.1-2.3-0.4-3.5-0.9c-2.6-1-5.6-2.7-8.5-5.1c-1.5-1.2-2.9-2.5-4.3-4.1
		c-1.3-1.4-2.6-3-3.6-4.8c0.2-0.2,0.4-0.4,0.6-0.5c0.4-0.4,0.6-0.7,0.8-0.9C189.2,136.7,189.6,137.4,190.1,138.1z M166.5,134.3
		c0,0,0.1,0,0.1,0c-0.1-0.1-0.1-0.2-0.1-0.3c0.9,0.3,1.7,0.3,2.5,0.3c1,0,1.9-0.1,2.7-0.2c1.7-0.2,3.4-0.5,4.9-0.8
		c3-0.6,5.6-1.2,7.8-1.2c1.1,0,2,0.1,2.8,0.3c0.8,0.2,1.4,0.6,1.7,1.1c0.4,0.4,0.5,0.8,0.7,1.1l-1.1,0.5c0,0.1,0,0.1,0.1,0.2
		c-0.4,0-1,0.1-1.8,0.2c-1.5,0.1-3.5,0.4-5.6,0.6c-2.2,0.2-4.1,0.3-5.6,0.2c-1.5-0.1-2.4-0.2-2.4-0.2c0,0,0.8,0.4,2.3,0.9
		c1.4,0.4,3.5,0.7,5.8,0.5c2.3-0.2,4.3-0.8,5.7-1.3c0.8-0.3,1.4-0.5,1.7-0.7c0,0.1,0.1,0.2,0.1,0.3c-0.2,0.2-0.6,0.5-1.1,0.8
		c-1,0.6-2.6,1.2-4.6,1.4c-2.1,0.2-4.6-0.1-7.4-0.4c-1.4-0.2-2.9-0.3-4.5-0.4c-1.3-0.1-2.8-0.1-4.2,0c0.1-0.2,0.1-0.4,0.2-0.7
		c0.1-0.3,0.1-0.5,0.1-0.8c0-0.3-0.1-0.6-0.2-0.8C166.9,134.6,166.7,134.4,166.5,134.3z M185.1,119.8c0.2-0.3,0.3-0.6,0.5-0.9
		c0.8,1.2,1.7,2.4,2.6,3.5c1.5,1.8,2.9,3.4,4.4,4.8c2.9,2.9,5.8,5.1,8.4,6.7c1.7,1.1,3.3,1.8,4.6,2.3c-1.3-0.4-2.9-1.1-4.6-2
		c-4.8-2.6-10.7-7.6-16.2-14C185,120,185.1,119.9,185.1,119.8z M163.4,121c1.3-0.3,2.9-0.7,4.8-1.3c1.8-0.6,3.9-1.4,6.2-2.3
		c1.1-0.4,2.3-0.9,3.5-1.3c1.2-0.4,2.5-0.8,3.9-1.1c0.7-0.1,1.3-0.2,1.9-0.1c0.3,0,0.5,0.1,0.7,0.3c0.2,0.1,0.2,0.3,0.3,0.5
		c0,0.1,0,0.2,0,0.3l-0.2,1.2c0,0.1-0.1,0.2-0.1,0.4c-0.1,0.2-0.1,0.3-0.2,0.5c-0.1,0.2-0.1,0.3-0.2,0.5c-0.2,0.3-0.4,0.6-0.6,0.8
		c-0.9,1.1-2.3,1.7-3.9,2c-1.6,0.3-3.3,0.4-5,0.5c-1.8,0-3.6,0-5.4,0.1c-0.5,0-1.1,0.1-1.7,0.1c0.8-0.3,1.6-0.7,2.4-1
		c2.1-0.8,4-1.4,5.4-1.8c1.4-0.4,2.3-0.6,2.3-0.6c0,0-0.9-0.1-2.4-0.1c-1.5,0.1-3.6,0.3-5.8,1.2c-2.1,0.8-3.8,2-4.9,3
		c-0.5,0.1-1,0.3-1.4,0.5c0-0.1,0-0.3-0.1-0.4c0-0.1,0-0.2,0-0.2c0-0.1,0-0.1,0-0.1l0-0.1c-0.1-0.1-0.1-0.3-0.2-0.4
		c-0.1-0.3-0.2-0.5-0.4-0.8c0,0,0,0,0-0.1C162.6,121.1,163,121.1,163.4,121z M171.2,101c0-0.2,0-0.5,0-0.7c3,2.2,5.9,4.1,8.7,5.7
		c1.8,1.1,3.5,2,5.1,2.7c-1-0.4-2-0.7-3-1.1c-3.5-1.4-7.4-3.1-11.1-5.5C171,101.7,171.1,101.4,171.2,101z M151.7,116.2
		c-0.2,2-0.5,4.4-1.3,6.9c-0.6,2-1.4,4.1-2.6,6.1c0-0.6,0-1.1,0-1.7c0.1-0.2,0.1-0.3,0.2-0.5c0.5-1.1,1.1-2.7,1.7-4.4
		c0.6-1.7,1-3.4,1.2-4.6c0.1-0.6,0.2-1,0.2-1.4l0.1,0.4c0,0,0-0.3,0.1-0.9c0-0.2,0-0.5,0.1-0.8h0.4
		C151.7,115.7,151.7,115.9,151.7,116.2z M151.5,112.5c0.1-0.4,0.1-0.8,0.2-1.3c0,0.1,0,0.2,0,0.4
		C151.7,111.9,151.6,112.2,151.5,112.5z M157.3,102.5c1.6-0.7,3.5-1.4,5.6-2.1c1-0.4,2.1-0.7,3.3-1c0.6-0.1,1.2-0.2,1.7-0.3
		c0.3,0,0.6,0,0.8,0c0.3,0,0.5,0.1,0.6,0.2c0.1,0,0.1,0.1,0.1,0.1c0,0,0.1,0.2,0.1,0.2c0,0.1,0.1,0.1,0.1,0.2
		c0.1,0.2,0.2,0.5,0.1,0.7c0,0.4-0.2,0.9-0.6,1.3c-0.4,0.4-1,0.8-1.6,1.1c-0.6,0.3-1.2,0.6-1.9,0.8c-0.7,0.2-1.4,0.5-2.1,0.7
		c-0.7,0.2-1.5,0.4-2.2,0.7l-1.1,0.3c-0.4,0.1-0.8,0.2-1.2,0.4c-0.8,0.3-1.5,0.6-2.3,0.9c-0.8,0.4-1.5,0.8-2.3,1.3
		c-0.7,0.6-1.4,1.2-1.9,2c-0.2,0.3-0.3,0.6-0.5,0.9c0-0.1-0.1-0.2-0.1-0.3c0-0.1,0.1-0.2,0.1-0.3c0.2-0.6,0.5-1.1,1-1.7
		c0.2-0.3,0.4-0.5,0.7-0.8c0.3-0.2,0.5-0.5,0.8-0.7c1.1-0.9,2.4-1.7,3.6-2.3l3.2-1.7c1.8-1,2.9-1.8,2.9-1.8c0,0-1.2,0.5-3.2,1.1
		c-1,0.3-2.2,0.7-3.4,1.3c-1.3,0.5-2.7,1.2-4,2.3c-0.3,0.3-0.6,0.6-0.9,0.9c-0.3,0.3-0.6,0.6-0.8,0.9c-0.2,0.2-0.3,0.5-0.4,0.7
		c-0.2-0.5-0.5-1.2-1-1.8c-0.3-0.4-0.7-0.8-1.4-0.9C150.3,105.5,155.7,103.2,157.3,102.5z M147.3,123.8c0.4-1.7,0.9-3.3,1.2-5
		c0.4-1.6,0.6-3.3,0.5-4.8c0-0.2,0-0.4,0-0.6c0-0.2,0-0.3,0-0.6c0-0.4-0.1-0.8-0.2-1.2c-0.2-0.7-0.5-1.3-0.6-1.9
		c-0.2-0.6-0.3-1.1-0.3-1.6c0-0.2,0-0.4,0.1-0.5c0,0,0-0.1,0.1-0.1l0.1-0.1c0.1-0.1,0.2-0.2,0.2-0.2c0.3-0.3,0.6-0.4,0.9-0.4
		c0.3,0.1,0.7,0.3,0.9,0.5c0.5,0.5,0.9,1.1,1.2,1.6c-0.1,0.3-0.3,0.6-0.4,1c-0.4,1.4-0.3,2.7-0.2,3.8c0.1,1,0.2,1.9,0.3,2.5l0,0
		c-0.2,0.3-0.5,0.8-0.8,1.6c-0.6,1.1-1.3,2.6-1.9,4.4c-0.3,1-0.6,2-0.8,2.9C147.5,124.7,147.4,124.2,147.3,123.8L147.3,123.8z
		 M147.1,151.4l0,0.4c0-0.1,0-0.2-0.1-0.3C147.1,151.5,147.1,151.5,147.1,151.4z M72.8,107.7c-0.9,0.4-1.8,0.7-2.7,1
		c1.7-0.8,3.6-1.8,5.5-2.9c2.7-1.6,5.5-3.4,8.3-5.5c0,0.1,0,0.1,0,0.2c0,0.5,0.1,0.9,0.3,1.3c0,0.1,0.1,0.1,0.1,0.2
		C80.4,104.6,76.4,106.3,72.8,107.7z M103.1,111c-0.2-0.4-0.4-0.8-0.6-1.2c-0.6-0.8-1.3-1.5-2-2c-0.8-0.5-1.6-1-2.4-1.3
		c-0.8-0.4-1.6-0.6-2.4-0.9l-1.2-0.4l-0.6-0.2l-0.3-0.1l-0.3-0.1c-1.5-0.5-3-0.9-4.3-1.4c-0.7-0.3-1.3-0.6-1.9-0.9
		c-0.6-0.3-1.1-0.7-1.4-1.2c-0.3-0.4-0.4-0.8-0.2-1.3c0-0.1,0.1-0.2,0.1-0.4l0.1-0.2c0-0.1,0,0,0,0c0,0,0,0,0,0
		c0.1-0.1,0.2-0.2,0.4-0.2c0.4-0.1,1.1-0.1,1.6,0c0.6,0.1,1.2,0.2,1.7,0.4c1.1,0.3,2.2,0.7,3.2,1c2,0.7,3.8,1.5,5.4,2.1
		c1.6,0.6,2.9,1.2,4,1.6c0.8,0.3,2.4,1.2,3.4,1.7c-0.6,0.2-0.9,0.6-1.2,0.9c-0.2,0.3-0.4,0.5-0.5,0.8c-0.1-0.1-0.2-0.3-0.4-0.4
		c-0.6-0.7-1.6-1.6-2.7-2.4c-2.4-1.5-4.7-1.9-4.7-1.9c0,0,1.6,1.7,3.9,3.1c1.2,0.7,2.3,1.3,3.1,1.7c0.2,0.1,0.4,0.2,0.6,0.3
		c-0.1,0.3-0.2,0.5-0.3,0.8c-0.3,1.1-0.3,1.8-0.3,1.8c0,0,0.1-0.2,0.2-0.6C103.3,110.2,103.2,110.6,103.1,111z M107.5,125.7
		c-0.2-0.3-0.3-0.6-0.5-0.9c-0.6-1.4-1-3.5-1.4-5.8c-0.4-2.3-0.7-4.5-0.9-6.1c-0.2-1.6-0.2-2.6-0.2-2.6c0,0-0.3,1-0.5,2.6
		c-0.2,1.6-0.2,3.9,0.2,6.3c0.4,2.4,1.2,4.6,2.2,6c0.3,0.5,0.7,0.9,1,1.1c-0.1,1-0.1,2-0.1,3c-0.5-0.8-0.9-1.6-1.2-2.4
		c-0.6-1.4-1.1-2.7-1.4-4c-0.7-2.6-1.1-4.9-1.2-6.9c0-0.2,0-0.4,0-0.6h0.5c0-1-0.1-1.9-0.3-2.9c-0.1-0.3-0.2-0.6-0.3-0.8
		c0-1.1,0.1-1.7,0.1-1.9c0.1-0.2,0.2-0.5,0.4-0.8c0.1-0.2,0.2-0.4,0.4-0.6c0.2,0.1,0.3,0.1,0.3,0.1s-0.1-0.1-0.2-0.3
		c0.2-0.3,0.5-0.6,0.8-0.9c0.3-0.3,0.6-0.5,1-0.4c0.3,0,0.6,0.2,0.9,0.5c0.1,0.1,0.2,0.2,0.2,0.3c0,0.1,0.1,0.1,0.1,0.2
		c0.1,0.2,0.1,0.4,0,0.6c0,0.5-0.2,1-0.4,1.6c-0.2,0.6-0.4,1.2-0.6,1.9c0,0.2-0.1,0.4-0.1,0.6c0,0.1,0,0.2,0,0.3l0,0.2
		c0,0.1,0,0,0,0.1c0,0.4-0.1,0.8-0.1,1.1c0,1.5,0.2,3.1,0.6,4.7c0.4,1.6,0.8,3.1,1.2,4.8h0C107.7,124.4,107.6,125.1,107.5,125.7z
		 M53.7,134.3c-1.6,0.9-3.1,1.4-4.3,1.8c1.4-0.6,3.1-1.4,5-2.5c2.6-1.6,5.5-3.9,8.4-6.8c1.4-1.4,2.9-3,4.3-4.8
		c0.8-1,1.7-2.1,2.4-3.2c0.1,0.1,0.1,0.3,0.2,0.4c0.2,0.3,0.3,0.6,0.5,0.9C64.4,127,58.4,131.8,53.7,134.3z M92.7,121.5
		c-0.1,0.2-0.3,0.5-0.4,0.8l-0.1,0.2c0,0.1-0.1,0.2-0.1,0.3c0,0.2-0.1,0.3-0.1,0.5c0,0.1,0,0.2,0,0.4c-0.3-0.2-0.6-0.5-0.9-0.7
		c-1.4-1-3.5-2.1-6-2.8c-2.5-0.7-4.8-0.9-6.5-0.9c-1.7,0-2.7,0.1-2.7,0.1s1,0.3,2.6,0.7c1.6,0.4,3.8,0.9,6.2,1.6
		c0.6,0.2,1.2,0.3,1.8,0.5c-0.3,0-0.6,0-0.9-0.1c-1.9-0.1-3.8-0.1-5.6-0.1c-1.8-0.1-3.5-0.2-5.1-0.6c-1.6-0.4-2.9-1.2-3.7-2.4
		c-0.2-0.3-0.4-0.6-0.5-0.9c-0.1-0.3-0.2-0.5-0.3-0.8c0-0.1-0.1-0.2-0.1-0.2c-0.1-0.3-0.1-0.6-0.1-0.9c0-0.3,0.1-0.5,0.2-0.7
		c0.2-0.3,0.8-0.5,1.4-0.4c0.6,0,1.3,0.1,2,0.3c1.3,0.3,2.6,0.7,3.8,1.2c1.2,0.5,2.4,0.9,3.5,1.3c2.2,0.9,4.2,1.6,6,2.2
		c1.8,0.6,3.3,1,4.6,1.2c0.4,0.1,0.7,0.1,1,0.2C92.8,121.3,92.8,121.4,92.7,121.5z M64,142.3c-1.5,1.6-3,2.9-4.5,4.1
		c-3,2.4-5.9,4.1-8.5,5c-1.1,0.4-2.2,0.6-3.1,0.8c1.1-0.2,2.2-0.6,3.4-1.1c2.6-1.2,5.4-3.2,8.1-5.9c1.3-1.3,2.7-2.8,3.9-4.5
		c0.6-0.8,1.2-1.7,1.8-2.6c0.4-0.7,0.8-1.4,1.2-2.2c0.2,0.3,0.5,0.6,0.9,1c0.2,0.1,0.3,0.3,0.5,0.4C66.7,139.2,65.3,140.8,64,142.3z
		 M88,135.1c-0.2,0.6-0.1,1.1,0.1,1.6c0,0.1,0.1,0.3,0.1,0.4c-1.6-0.2-3.1-0.1-4.5,0c-1.6,0.1-3.2,0.3-4.6,0.5
		c-2.9,0.3-5.3,0.5-7.3,0.3c-1-0.1-1.9-0.3-2.6-0.5c-0.8-0.2-1.4-0.6-1.8-0.9c-0.4-0.3-0.8-0.6-1-0.7c0-0.1,0.1-0.1,0,0l-0.8-1.1
		c0.1-0.3,0.3-0.7,0.7-1.2c0.4-0.4,1-0.8,1.9-1.1c0.8-0.2,1.8-0.3,2.9-0.2c2.2,0.1,4.8,0.7,7.8,1.3c1.5,0.3,3.1,0.6,4.8,0.8
		c0.8,0.1,1.7,0.2,2.6,0.2c0.5,0,1.4,0.1,2.2,0C88.3,134.6,88.1,134.8,88,135.1z M108,152.1l0-0.6c0,0,0,0.1,0.1,0.1
		C108.1,151.7,108,151.9,108,152.1z M85.6,155.2c0-0.1-0.1-0.2-0.1-0.3C85.5,154.9,85.5,155.1,85.6,155.2z M84.8,153.5
		c0,0.1,0,0.1,0,0.1c-6.2,3.3-11.9,5.2-16,5.2c-1.4,0-2.6-0.2-3.5-0.5l-0.7-0.5c-0.1,0.1-0.1,0.1-0.2,0.2c-0.1,0-0.2-0.1-0.3-0.1
		c-1-0.5-1.5-0.9-1.5-0.9c0,0,0.4,0.6,1.4,1.3c0,0,0.1,0,0.1,0.1c-1.4,1.5-2.8,2.9-4.2,4.2c-1.6,1.4-3.2,2.7-4.8,3.8
		c-2.4,1.7-4.7,3-6.8,3.9c2.4-1.2,5-2.9,7.6-5.1c1.5-1.3,3-2.8,4.4-4.6c0.6-0.9,1.3-1.9,1.7-3c0.2-0.6,0.4-1.2,0.5-1.8
		c0.1-0.6,0-1.8-0.1-2.5c0.4-0.3,0.9-0.6,1.6-0.8c0.9-0.3,1.9-0.5,3.1-0.6c2.4-0.2,5.2-0.1,8.5,0c1.6,0.1,3.3,0.1,5.1,0.1
		c0.9,0,1.8,0,2.8-0.1c0.6,0,1.2-0.1,1.8-0.2C84.7,152.3,84.7,153,84.8,153.5z M141.3,109.2c-0.7-1.1-1.6-2.2-2.7-3.2
		c-1.3-1.2-2.6-2.1-3.9-2.9c-0.3-0.2-0.7-0.4-1-0.6c0.6-0.5,1.3-0.9,1.9-1.4c2,1.8,3.9,4.3,5.4,7.4
		C141.1,108.8,141.2,109,141.3,109.2z M140,101.5c0.4,1.3,0.7,2.5,0.9,3.4c0,0.1,0,0.2,0.1,0.2c-1.3-2-2.8-3.5-4.4-4.7
		c0.1-0.1,0.2-0.2,0.3-0.3c0.6-0.5,1.1-1,1.7-1.5c0.1-0.1,0.2-0.2,0.3-0.4C139.3,99.1,139.6,100.2,140,101.5z M135.3,91.6
		c0.6,0.2,1.1,0.5,1.6,0.8c0.5,0.3,1,0.7,1.4,1.1c0.4,0.4,0.6,0.8,0.6,1.3c0,0.5-0.1,1-0.4,1.5c-0.6,1-1.6,2-2.6,2.9
		c-0.2,0.2-0.4,0.3-0.5,0.5c-0.1-0.1-0.2-0.1-0.3-0.2c0.1,0,0.2,0.1,0.2,0.1c0,0-0.7-0.6-1.8-1.5c-1.1-0.9-2.7-2.2-4.3-3.7
		c-1.6-1.4-2.9-2.8-3.5-4.1c0-0.1-0.1-0.2-0.1-0.2c0.9,0.2,1.8,0.4,2.7,0.5C130.5,90.6,133,90.8,135.3,91.6z M126,88
		c0.3,0.1,0.6,0.2,0.9,0.4c-0.6-0.1-1.2-0.2-1.7-0.4c0,0-0.1,0-0.1,0c0,0-0.1,0-0.1,0c-0.3-0.1-0.5-0.1-0.8-0.2l-0.4-0.1l-0.2-0.1
		l-0.1-0.1c0.6,0.1,1.1,0.1,1.7,0.3c0,0,0,0,0,0s0,0,0,0C125.5,87.9,125.8,87.9,126,88z M121,80.7c1.6,1,3.3,2.1,4.8,3.5
		c0.7,0.7,1.3,1.5,1.7,2.3c0.1,0.2,0.2,0.5,0.2,0.7c-0.4-0.3-0.9-0.5-1.3-0.7c-0.4-0.1-0.7-0.2-1.1-0.3c-0.3-0.1-1.3-0.5-2.6-1.1
		c-1.7-0.7-3.9-1.8-6-3.5c-1.1-0.8-2-1.7-2.8-2.5c-0.8-0.9-1.4-1.7-1.8-2.5c-0.4-0.7-0.7-1.3-0.9-1.8c0.3,0.2,0.6,0.4,1,0.7
		C114.6,77.1,117.7,78.7,121,80.7z M112.4,74.3c-1.9-1-3.3-2-4.4-2.9c0.4,0.2,0.7,0.4,1.1,0.6c1,0.5,2,0.9,3,1.4
		c1,0.5,2,0.9,2.9,1.5c0.7,0.5,1.3,1,1.9,1.7C115.3,75.8,113.8,75,112.4,74.3z M112.5,51c-0.1-0.3-0.2-0.6-0.3-0.9
		c0.2,0.2,0.3,0.4,0.4,0.5C112.6,50.7,112.6,50.8,112.5,51z M117.4,34.3c-0.2,1.3-0.4,2.7-1.1,3.7c0,0,0,0,0,0
		c0-0.8,0.1-1.5,0.2-2.3c0.2-1.5,0.4-2.8,0.7-4c0.2-1,0.6-1.8,0.9-2.5C117.7,30.9,117.6,32.6,117.4,34.3z M120.4,50
		C120.4,50,120.4,50,120.4,50c0.3-0.4,0.5-0.8,0.7-1.1c1.1-1.4,2.5-2.5,4-3.2c1.5-0.7,3.1-1,4.6-1.1c1.5,0,2.9,0.2,4.2,0.5
		c1.6,0.4,2.9,1,4,1.5c-0.2-0.1-0.4-0.2-0.7-0.3c-1.4-0.5-3.3-1-5.4-1c-1,0-2.2,0.2-3.3,0.6c-1.1,0.4-2.2,1-3.1,2
		c-0.9,1-1.4,2.2-1.5,3.4c-0.1,1.2,0.1,2.4,0.6,3.4c0.5,1,1.2,1.7,1.8,2.4l0.9,0.9c0,0,0.1,0.1,0.1,0.1c-0.4,0.3-0.7,0.6-1,0.9
		c-0.6,0.6-1.1,1.3-1.3,2c0,0,0,0,0,0c0,0,0,0.1,0,0.1c-0.2,0.5-0.3,1-0.4,1.4c-1.1-1.4-2.4-3.2-3.4-5.3c-0.6-1.3-1-2.7-1.1-3.9
		C120,52.1,120.1,51,120.4,50z M125.3,62.9c0,0.2,0.1,0.4,0.1,0.6c-0.2-0.2-0.4-0.4-0.6-0.6c0.1-0.4,0.2-0.8,0.5-1.3
		C125.3,62,125.3,62.4,125.3,62.9z M129.8,68.7c-1.7-0.2-3-0.6-3.8-1c-0.1,0-0.1,0-0.2-0.1c-1.4-1-2.8-2.3-4-3.8
		c-1.1-1.3-2-2.8-2.7-4.5c0,0,0-0.1,0-0.1c0.8,1.6,1.9,3.5,3.7,5.2c1.1,1.1,2.4,1.9,3.6,2.4c1.2,0.5,2.5,0.8,3.5,0.8
		c1,0,1.8-0.2,2.3-0.4c0.5-0.2,0.8-0.3,0.8-0.3c0,0-0.3,0.1-0.8,0.1c-0.1,0-0.2,0-0.3,0c1.1-0.2,1.9-0.7,2.4-1.2
		c0.5-0.5,0.6-0.8,0.6-0.8c0,0-0.2,0.3-0.8,0.6c-0.5,0.3-1.4,0.7-2.5,0.7c-1.1,0-2.4-0.3-3.4-1.1c-0.5-0.4-1-0.9-1.3-1.5
		c-0.1-0.3-0.2-0.6-0.2-1c0-0.3,0-0.7,0.1-1.1c0.1-0.4,0.2-0.7,0.3-1c0.2-0.3,0.4-0.6,0.6-0.8c0.3-0.3,0.7-0.5,1-0.6
		c0.2-0.1,0.5-0.2,0.8-0.2c1.3-0.2,2.6,0,3.7,0.4c1,0.4,1.7,0.9,2.2,1.4c0.4,0.4,0.6,0.8,0.6,0.8c0,0-0.1-0.3-0.4-0.9
		c-0.3-0.6-1-1.3-2-1.9c-0.4-0.2-0.9-0.5-1.5-0.7c0,0,0.1,0,0.1,0c1,0.2,2,0.6,2.8,1.3c0.8,0.7,1.4,1.7,1.8,2.8
		c0.4,1.2,0.6,2.3,0.3,3.4c-0.2,1-0.8,1.8-1.7,2.3c-0.9,0.5-1.9,0.7-2.8,0.8C131.6,68.9,130.7,68.8,129.8,68.7z M135.2,71.3
		c-0.4,0-0.8-0.1-1.1-0.1c-0.5-0.2-1.1-0.5-1.2-1c0.5-0.1,1-0.3,1.4-0.5c0.5-0.1,1.1-0.3,1.6-0.5c0.6-0.3,1.1-0.7,1.6-1.2
		c0.2-0.2,0.4-0.5,0.5-0.8c0.8-0.4,1.5-1.2,1.9-1.9c0.3-0.5,1.2-2.1,2-2.3c0,0.5,0,1-0.1,1.4c0,0.4-0.1,0.8-0.1,1.1
		c0,0.2,0,0.3-0.1,0.4c-0.1,0.1-0.1,0.3-0.2,0.5c-0.3,0.6-0.6,1.2-1,1.7c-0.8,1-1.7,1.9-2.6,2.4C137,71,136,71.3,135.2,71.3z
		 M141.8,69.7c-0.1,0-0.1,0-0.1,0C141.7,69.7,141.7,69.7,141.8,69.7c-0.1,0.1-0.2,0.2-0.3,0.3c-1.1,0.9-2.3,1.3-3.2,1.5
		c0.1-0.1,0.3-0.1,0.4-0.2c1.1-0.6,2.2-1.5,3.2-2.7c0.5-0.6,0.9-1.3,1.2-2c0-0.1,0.1-0.2,0.1-0.3c0.1-0.2,0.1-0.3,0.1-0.4
		c0-0.2,0.1-0.4,0.1-0.6c0-0.4,0.1-0.8,0.1-1.2c0.1-1.6,0.2-3.3,0.4-4.9c0.1-0.4,0.1-0.8,0.2-1.2c0-0.1,0.1-0.2,0.1-0.3l0-0.1l0-0.1
		c0-0.1,0.1-0.1,0.1-0.2c0.1-0.1,0.3-0.1,0.5,0c0.7,1.1,0.9,2.4,0.9,3.7c0,1.3-0.3,2.6-0.7,3.8C144.4,66.9,143.1,68.6,141.8,69.7z
		 M147.4,68.5c-0.4,0.2-0.9,0.4-1.4,0.5c-0.8,0.2-1.5,0.3-2.1,0.4c1.1-1.1,2.2-2.6,2.8-4.5c0.4-1,0.6-2.1,0.7-3.3
		c0.1,0.3,0.2,0.7,0.3,1c0.4,1.3,0.6,2.5,0.5,3.5C148.3,67.2,147.9,68,147.4,68.5z M150.2,61.6c-0.3,0.9-0.5,1.7-0.5,2.5
		c0,0.7,0,1.4,0.2,1.9c0,0,0,0.1,0,0.1c0,0,0,0.1,0,0.1c-0.1,0.4-0.4,0.8-0.7,1.1c0.1-0.4,0.2-0.8,0.3-1.3c0.1-1.3-0.1-2.6-0.3-4
		c-0.3-1.4-0.7-2.8-1-4.3c-0.3-1.5-0.6-3.1-0.4-4.6c0.1-0.7,0.3-1.5,0.7-2.1c0.2-0.3,0.5-0.6,0.8-0.9c0.5,0.7,0.9,1.4,1.3,2.1
		c0.6,1.1,1,2.3,1.1,3.4C151.7,57.9,150.7,59.8,150.2,61.6z M152,61L152,61C152,61,152,61,152,61C152,61,152,61,152,61z M155.8,56.6
		c-0.3,1-0.8,1.9-1.3,2.6c-0.2,0.3-0.5,0.6-0.8,0.8c0.2-0.2,0.3-0.4,0.5-0.6c-0.5,0.6-1.5,1.4-2.4,1.2c0,0,0,0,0-0.1
		c0.2-0.2,0.5-0.4,0.9-0.7c0.4-0.4,0.9-0.9,1.3-1.7c0.2-0.4,0.4-0.8,0.4-1.3c0.1-0.5,0.1-1,0-1.6c-0.2-1.1-0.7-2.2-1.4-3.2
		c-0.6-1-1.4-2.1-2.2-3.1c-0.8-1.1-1.5-2.2-2.1-3.4c-0.5-1.1-0.7-2.3-0.5-3.5c0,0,0.1,0,0.1,0.1c1.3,1.1,2.6,2.1,3.8,3.1
		c1.3,1.1,2.4,2.3,3,3.6c0.3,0.6,0.6,1.3,0.7,2c0.1,0.3,0.1,0.7,0.2,1c0,0.2,0,0.3,0,0.5c0,0.2,0,0.3,0,0.5
		C156.3,54.3,156.1,55.5,155.8,56.6z M153.1,55.3c0-0.1,0-0.3,0-0.4c0.2,0.3,0.3,0.7,0.4,1c0.2,0.8,0.1,1.6-0.1,2.3
		c-0.2,0.7-0.6,1.2-0.9,1.6c-0.1,0.1-0.2,0.2-0.3,0.3c0.2-0.3,0.3-0.7,0.5-1.1c0.2-0.5,0.4-1.1,0.5-1.8
		C153.1,56.6,153.2,56,153.1,55.3z M157.4,49.6c-0.2-0.6-0.4-1.1-0.7-1.6c-0.7-1.4-1.8-2.6-3.1-3.7c0.9,0.4,1.6,0.8,2.3,1.3
		c0.8,0.6,1.4,1.2,1.7,1.9c0.3,0.6,0.4,1.2,0.5,1.8C157.9,49.3,157.6,49.5,157.4,49.6z M154.7,35.9c0.5,0.8,1,1.6,1.4,2.2
		c0,0,0,0,0,0c-0.1-0.1-0.2-0.1-0.3-0.2c-1-0.6-1.9-1-2.7-1.3c-1.7-0.6-3.1-0.8-4.1-1c-1-0.1-1.5-0.1-1.5-0.1c0,0,0.5,0.2,1.5,0.5
		c0.9,0.3,2.3,0.9,3.8,1.7c1.5,0.8,3.3,2,4.5,3.8c0.6,0.9,1.1,1.9,1.3,3.1c0.2,0.9,0.2,1.9,0,3l-0.3,0.2c0-0.3-0.1-0.5-0.2-0.8
		c-0.3-0.9-1-1.7-1.9-2.5c-1.8-1.5-4.2-2.5-6.9-3.7c-1.3-0.6-2.7-1.1-4-1.9c-1.2-0.7-2.3-1.5-2.9-2.7c3.2-0.5,6-1,8.3-1
		c1.2,0,2.3,0.1,3.2,0.4C154.3,35.7,154.5,35.8,154.7,35.9z M149.9,31c0.4,0.3,0.9,0.5,1.4,0.7c0.4,0.2,0.8,0.5,1.1,0.7
		c0.3,0.2,0.6,0.5,0.8,0.7c0,0.1,0.1,0.2,0.1,0.4c0.2,0.4,0.4,0.9,0.7,1.4c-1-0.4-2.2-0.6-3.5-0.7c-2.7-0.2-5.8,0.2-9.3,0.7
		c-1.7,0.2-3.5,0.5-5.4,0.6c-0.9,0.1-1.9,0.1-2.8,0c-0.4,0-0.7-0.1-1-0.2c0.9-0.2,1.9-0.4,2.7-0.7c1.8-0.5,3.4-1.1,4.9-1.8
		c0.8-0.3,1.5-0.7,2.2-1l0.5-0.2c0.2-0.1,0.3-0.1,0.5-0.2c0.3-0.1,0.6-0.3,0.9-0.3c1.3-0.4,2.5-0.5,3.6-0.4
		C148.4,30.6,149.2,30.8,149.9,31z M148.3,29.3c0.2,0.1,0.4,0.3,0.6,0.4c-0.5-0.2-1-0.3-1.5-0.4c-1.3-0.2-2.7-0.2-4.2,0.3
		c-0.4,0.1-0.7,0.2-1.1,0.4l-1,0.4l-2.2,0.9c-1.5,0.6-3,1.2-4.7,1.7c-0.5,0.1-1,0.3-1.5,0.4c0.2-0.2,0.5-0.4,0.7-0.7
		c0.3-0.3,0.6-0.6,0.8-0.9c0.5-0.6,1-1.1,1.4-1.7c0.9-1.1,1.7-2,2.6-2.6c0.4-0.3,0.8-0.5,1.2-0.7c0.4-0.1,0.8-0.1,1.3-0.2
		c0.8,0,1.8,0.1,2.8,0.4C145.5,27.6,147.2,28.5,148.3,29.3z M135.6,24.5c1.2-0.9,2.5-1.6,3.6-2c1.2-0.4,2.3-0.4,3.1,0
		c0.7,0.3,1.5,2.3,2,3.3c-0.1-0.1-0.3-0.1-0.4-0.2c-1.1-0.3-2.2-0.4-3.3-0.2c-0.6,0.1-1.2,0.3-1.7,0.5c-0.5,0.2-1.1,0.4-1.6,0.8
		c-1.1,0.7-2.1,1.6-3.1,2.7l-1.5,1.6l-0.4,0.4c-0.1,0.1-0.3,0.2-0.4,0.3c-0.3,0.2-0.6,0.5-0.9,0.7c-1.2,0.9-2.6,1.6-4.2,2.1
		c-0.8,0.2-1.7,0.4-2.6,0.5c0.4-0.3,0.7-0.7,1.1-1c0.8-0.8,1.5-1.5,2.2-2.2c1.4-1.4,2.8-2.8,4.1-4C133.1,26.5,134.4,25.4,135.6,24.5
		z M134.3,23.7c-1.3,0.9-2.6,1.9-3.9,3.1c-1.4,1.2-2.7,2.6-4.1,4l-2.1,2.2c-0.3,0.4-0.7,0.7-1.1,1.1c0,0-0.1,0.1-0.1,0.1
		c0.3-0.6,0.6-1.1,0.8-1.6c1.4-2.8,2.6-5.2,4-6.8c0.7-0.8,1.4-1.4,2.2-1.8C130.7,23.5,133.3,23.4,134.3,23.7z M120.7,26.7l0.1-0.2
		l0.1-0.2c0.1-0.1,0.2-0.3,0.4-0.4c0.3-0.2,0.5-0.5,0.8-0.7c1.1-0.9,2.4-1.4,3.6-1.8c2.4-0.8,4.4-0.9,5.7-0.9c0.7,0,1.2,0.1,1.6,0.2
		c-0.3,0-0.7,0-1.2,0c-0.7,0-1.5,0.2-2.3,0.6c-0.9,0.4-1.8,1-2.7,1.9c-1.7,1.7-3.2,4.2-4.6,6.9c-0.7,1.3-1.5,2.8-2.4,4
		c-0.5,0.6-1,1.2-1.6,1.6c0,0,0,0,0,0c0-0.1,0.1-0.1,0.1-0.2c0.4-1.1,0.6-2.1,0.7-3.1c0.3-2,0.4-3.9,0.8-5.5
		C120.1,28,120.3,27.3,120.7,26.7z M114.2,28.6c0.7-0.6,1.4-1,1.9-1.3c1.2-0.7,1.9-1,1.9-1c0,0-0.8,0.2-2.2,0.7c0,0-0.1,0-0.1,0
		c0,0,0.1-0.1,0.1-0.1c1.1-1.1,2.7-2.4,4.7-2.3c-0.2,0.2-0.3,0.3-0.5,0.5c-0.1,0.1-0.2,0.2-0.2,0.2c-0.1,0.1-0.2,0.2-0.2,0.3
		c-0.2,0.2-0.3,0.4-0.4,0.6c-0.1,0.3-0.3,0.5-0.4,0.8c-0.4,0.4-0.8,0.9-1.2,1.5c-0.6,0.9-1.2,2-1.6,3.2c-0.5,1.3-0.8,2.7-1,4.3
		c-0.2,1.5-0.4,3.2-0.5,4.9c-0.1,0.8-0.1,1.5-0.2,2.3c-0.3-1.2-0.7-2.3-1.1-3.3c-0.6-1.7-1.1-3.3-1.4-4.7c-0.3-1.5-0.2-2.8,0.3-3.9
		c0.1-0.3,0.3-0.7,0.5-1C113,29.9,113.5,29.3,114.2,28.6z M107.9,34.2c0.1-1.5,0.4-2.8,1-3.8c0.5-0.9,2.9-2.1,4.2-2.4
		c-0.2,0.3-0.4,0.6-0.5,0.9c-0.6,0.6-1.3,1.3-1.7,2.3c-0.6,1.3-0.7,3-0.5,4.6c0.2,1.6,0.7,3.3,1.3,5c0.5,1.7,1.1,3.4,1.4,5.2
		c0.1,0.9,0.2,1.8,0.1,2.7c-0.1,0.6-0.2,1.1-0.4,1.7c-0.3-0.6-0.8-1.4-1.3-2.6c-0.1-0.2-0.1-0.3-0.2-0.5c-0.6-1.5-1.1-2.8-1.6-4
		c0-0.1-0.1-0.2-0.1-0.3c-0.4-1.2-0.8-2.6-1.1-4C108,37.4,107.8,35.7,107.9,34.2z M104.5,44.3c0.2-1.2,0.6-2.3,1-3.2
		c0.4-0.9,0.8-1.6,1.2-2.2c0.1-0.1,0.1-0.2,0.2-0.3c0,0.3,0.1,0.5,0.2,0.8c0.5,2.1,1.2,4,2,5.6c0.7,2.4,1.7,5,2.3,8
		c0.4,1.7,0.6,3.5,0.6,5.4c0,1.3-0.1,2.7-0.3,4c-1.7-3.8-3.9-6.9-5.4-9.7c-0.8-1.5-1.4-3-1.7-4.4C104.2,46.9,104.3,45.5,104.5,44.3z
		 M111,64.2c-0.8-0.7-1.5-1.3-2.2-2c-1.1-1-2.1-2-2.8-3c-0.7-1-1.3-1.9-1.6-2.8c-0.3-0.9-0.5-1.7-0.5-2.4c0-0.4,0.3-1,0.5-1.5
		c0.2,0.4,0.4,0.8,0.6,1.2C106.4,56.7,109.2,60.8,111,64.2z M106.4,66.1c-1.5-2.2-2.6-4.3-3.3-5.9c-0.4-1.1-0.8-2.9-0.6-4.6
		c0.2-0.9,0.4-1.8,0.6-2.4c0.2-0.6,0.6-1,0.9-1.4c0,0.1,0,0.1,0.1,0.2c-0.1,0.2-0.2,0.5-0.3,0.7c-0.1,0.4-0.3,0.9-0.3,1.6
		c-0.1,0.7,0,1.7,0.2,2.7c0.3,1,0.8,2.2,1.5,3.3c1.5,2.3,3.8,4.4,6.3,6.8c1.2,1.2,2.5,2.5,3.5,3.9c0.7,1,1.4,2.2,1.7,3.5
		c-0.3-0.3-0.6-0.5-0.9-0.8c-1-0.8-2.2-1.3-3.2-1.8c-0.7-0.3-1.4-0.6-2-0.9C109.3,69.7,107.8,68.1,106.4,66.1z M120,85.6
		c-1-0.1-1.9-0.1-2.7-0.3c-0.2,0-0.4-0.1-0.6-0.2l-0.1-0.1l-0.1,0l-0.2-0.2c-0.4-0.2-0.7-0.5-1-0.7c-0.7-0.5-1.3-1.1-1.8-1.6
		c-1.1-1.1-2-2.3-2.7-3.5c-1.4-2.3-2.1-4.3-2.5-5.7c-0.1-0.4-0.2-0.8-0.2-1.1c0.7,0.8,1.7,1.6,2.9,2.4c0.1,0.5,0.2,1.3,0.5,2.3
		c0.3,0.9,0.8,1.9,1.5,3c0.7,1,1.7,2.1,2.9,2.9c2.3,1.8,4.9,2.6,6.7,3c0,0,0.1,0,0.1,0C121.7,85.7,120.8,85.7,120,85.6z M122.4,90.3
		c-0.1-0.2-0.1-0.3-0.2-0.5c-0.1-0.2-0.1-0.4-0.1-0.4c0-0.2,0-0.4,0-0.5c0-0.1,0-0.2,0-0.3l0-0.1c0,0,0.1,0,0.1,0.1
		c0.2,0.1,0.4,0.3,0.6,0.4c0.5,0.2,1.1,0.4,1.7,0.6c0.1,0,0.1,0,0.2,0.1c0,0.2,0,0.4,0.1,0.6c0.1,0.8,0.5,1.7,1.1,2.5
		c0.3,0.5,0.8,1,1.2,1.5c-0.3-0.1-0.5-0.3-0.8-0.5c-0.9-0.5-1.8-1.1-2.5-1.8c0,0-0.1-0.1-0.1-0.1c-0.1-0.1-0.2-0.2-0.3-0.3
		c-0.2-0.3-0.5-0.7-0.7-0.9C122.6,90.6,122.5,90.5,122.4,90.3z M118.2,99.3c0.2-0.4,0.5-0.9,0.9-1.4c0.4-0.5,0.9-1,1.4-1.5
		c0.9-0.9,1.8-1.9,2.4-2.7c0.2,0.5,0.4,0.9,0.5,1.3c0.1,0.5,0.2,0.9,0.2,1.4c0,0.3-0.1,0.6-0.1,0.9c-1.3,0.5-2.9,1.3-4.5,2.5
		c-0.4,0.3-0.9,0.7-1.4,1C117.7,100.5,117.9,100,118.2,99.3z M110.9,122.4c0.6-1.6,1.4-3,2.4-4.1c1-1.1,2.1-2,3.1-2.6
		c2.2-1.2,4.3-1.6,5.7-1.7c1.4-0.1,2.2-0.1,2.2-0.1c0,0-0.8-0.3-2.4-0.4c-0.8-0.1-1.7-0.1-2.9,0c-1.1,0.1-2.4,0.4-3.8,1
		c-1.1,0.5-2.2,1.2-3.3,2.1c0.1-0.9,0.3-1.8,0.5-2.6c0.5-2,1.2-3.8,2-5.4c1.6-3.3,3.7-5.8,5.7-7.6c2-1.8,3.8-3,5.1-3.7
		c1.3-0.7,2.1-0.8,2.1-0.8c0,0-0.9-0.1-2.5,0.3c-0.4,0.1-0.7,0.2-1.1,0.4c0.1-0.1,0.2-0.3,0.3-0.5c0.2-0.4,0.4-1,0.3-1.7
		c0-0.3-0.1-0.5-0.1-0.8c0.5,0.3,1,0.5,1.4,0.8c1.3,0.6,2.5,1.1,3.5,1.6c0.1,0.1,0.2,0.1,0.4,0.2c0.1,0.1,0.2,0.2,0.4,0.2
		c-0.1,0-0.3-0.1-0.4-0.1c-1.5-0.4-2.3-0.4-2.3-0.4c0,0,0.9,0.1,2.3,0.8c0.9,0.4,1.9,1,3.1,1.8c0.2,0.3,0.3,0.6,0.3,0.9
		c-0.1,0.2-0.1,0.4-0.1,0.6c0,0.1,0,0.2,0.1,0.3c0,0,0,0,0,0.1c-0.2,0.1-0.5,0.1-0.9,0.1c-0.7,0-1.5,0-2.1,0c-0.2,0-0.4,0-0.5,0
		c-1.1-0.4-1.8-0.5-1.8-0.5l2.9,2c1.8,1.2,4.1,3,6.4,5.1c2.3,2.2,4,4.5,5.1,6.3c0.4,0.6,0.7,1.1,0.9,1.6c0.1,0.5,0.2,0.9,0.2,1.4
		c0,0,0,0-0.1-0.1c-1.3-1.2-2.7-2.1-4-2.6c-1.3-0.5-2.6-0.8-3.7-0.8c-1.1-0.1-2,0-2.8,0.1c-1.5,0.2-2.2,0.4-2.2,0.4
		c0,0,0.9,0,2.4,0.1c1.5,0.2,3.7,0.6,5.9,1.9c1.1,0.7,2.2,1.6,3.1,2.7c0.9,1.2,1.7,2.6,2.3,4.2c0.7,2.1,1.1,4.5,1,7.1
		c-0.1-0.2-0.3-0.4-0.4-0.6c-1.2-1.7-2.7-3-4.3-3.9c-1.6-0.9-3.2-1.4-4.7-1.6c-1.5-0.1-2.8,0.1-3.9,0.4c-1.1,0.4-1.9,0.8-2.6,1.2
		c-1.1,0.7-1.7,1.3-1.8,1.4c-0.2-0.2-0.8-0.7-1.9-1.5c-0.7-0.4-1.6-0.9-2.7-1.2c-1.1-0.3-2.5-0.5-4.1-0.3c-1.5,0.2-3.2,0.8-4.7,1.8
		c-1.5,1-3,2.4-4.1,4c-0.1,0.1-0.1,0.1-0.1,0.2C109.7,127.1,110.1,124.5,110.9,122.4z M108.7,144.5c0.2-1.5,1-2.9,2.1-3.9
		c1.2-1.1,2.7-1.9,4.1-2.4c1.4-0.5,2.9-0.8,4.2-0.9c2.6-0.2,4.7,0.2,6.1,0.7c1.4,0.5,2.1,0.9,2.1,0.9c0,0-0.6-0.6-2-1.4
		c-1.4-0.8-3.6-1.7-6.6-1.8c-1.5-0.1-3.1,0.1-4.8,0.6c-1.6,0.5-3.3,1.3-4.8,2.6c0.1-1.1,0.4-2.1,0.7-3.1c0.6-1.9,1.5-3.6,2.5-5.1
		c1-1.5,2.2-2.7,3.4-3.6c1.2-0.9,2.5-1.4,3.8-1.7c1.2-0.3,2.4-0.3,3.5-0.1c1,0.1,1.9,0.4,2.6,0.6c1.2,0.4,1.8,0.8,2,0.9c0,0,0,0,0,0
		c0,0,0,0,0,0c0,0,0.1,0,0.1,0s0,0,0,0c0.2-0.1,0.9-0.5,2.2-1c0.7-0.3,1.6-0.5,2.7-0.6c1.1-0.1,2.3-0.1,3.5,0.3
		c1.3,0.3,2.6,1,3.8,1.9c1.2,0.9,2.4,2.2,3.3,3.6c1,1.5,1.8,3.2,2.3,5c0.3,0.9,0.5,1.9,0.6,2.8c0,0,0,0-0.1-0.1
		c-1.6-1.4-3.5-2.2-5.2-2.7c-1.7-0.4-3.3-0.5-4.8-0.5c-2.9,0.2-5,1.1-6.3,1.8c-1.3,0.8-1.9,1.4-1.9,1.4c0,0,0.8-0.4,2.2-0.9
		c1.5-0.5,3.7-0.9,6.3-0.6c1.3,0.1,2.8,0.4,4.2,1c1.4,0.6,2.9,1.4,4,2.5c1,1,1.6,2.2,1.8,3.6c-0.3-0.3-0.7-0.6-1.1-0.9
		c-0.8-0.5-1.7-0.7-2.5-0.9c-1.6-0.3-3.1-0.1-4.4,0.2c-1.3,0.3-2.4,0.7-3.4,1.2c-2,1-3.2,2.2-4,3.1c-0.7,0.9-1,1.5-1,1.5
		c0,0,0.5-0.5,1.4-1.1c1-0.6,2.4-1.4,4.4-2c1-0.3,2-0.5,3.2-0.6c1.1-0.1,2.4-0.1,3.5,0.2c1.2,0.3,2.1,0.9,2.6,1.9
		c0.1,0.3,0.2,0.6,0.3,0.9c-0.3-0.4-0.7-0.7-1.2-1c-0.9-0.5-1.9-0.7-2.8-0.8c-1.8-0.1-3.5,0.4-5,0.9c-0.7,0.3-1.5,0.6-2.1,0.9
		c-0.7,0.3-1.3,0.7-1.9,1.1c-2.4,1.7-3.9,3.9-4.9,5.8c0,0,0,0.1-0.1,0.1c-0.1-0.2-0.2-0.4-0.3-0.6c-1.1-2-2.8-4.2-5.3-5.8
		c-0.3-0.2-0.7-0.4-1-0.6c-0.3-0.2-0.7-0.3-1-0.5c-0.7-0.3-1.4-0.6-2.2-0.9c-0.8-0.3-1.6-0.5-2.4-0.6c-0.9-0.1-1.8-0.2-2.7,0
		c-0.9,0.2-1.9,0.6-2.7,1.3c-0.1,0.1-0.2,0.2-0.4,0.4c0.1-0.4,0.2-0.7,0.4-1c0.5-1,1.6-1.5,2.8-1.8c1.2-0.3,2.4-0.2,3.6-0.1
		c1.1,0.1,2.2,0.4,3.2,0.7c1.9,0.6,3.3,1.3,4.2,1.9c0.9,0.6,1.3,1.1,1.3,1.1c0,0-0.2-0.6-1-1.6c-0.8-0.9-2.1-2.1-4.2-3.1
		c-1-0.5-2.2-0.9-3.5-1.2c-1.3-0.3-2.8-0.4-4.4-0.1c-0.8,0.2-1.6,0.5-2.4,1C109.2,144,109,144.3,108.7,144.5z M85.8,175.7
		c-1.2,0.6-2.3,1.3-3.2,2c-1.9,1.5-3.4,3.2-4.8,4.7c-1,1.1-1.9,2.2-2.8,3.2c-0.7-0.4-1.4-0.8-2.2-1.2c-0.1-0.1-0.3-0.1-0.4-0.2
		c0.9-0.1,2-0.4,3.1-1c1.1-0.7,2.1-1.8,3-3c0.9-1.2,1.6-2.3,2.4-3.2c0.7-0.9,1.5-1.7,2.2-2.3c0.7-0.5,1.4-0.9,1.9-1
		c0.5-0.2,0.8-0.3,0.8-0.3c0,0-0.3,0-0.8,0c-0.5,0.1-1.3,0.2-2.2,0.6c-0.9,0.4-1.9,1.1-2.8,2.1c-0.9,0.9-1.8,2.1-2.6,3.2
		c-0.9,1.1-1.7,2.2-2.6,2.9c-0.9,0.7-1.9,1.2-2.7,1.3c-0.4,0.1-0.8,0.1-1.1,0.1c-0.6-0.2-1.3-0.4-2-0.5c-1.4-0.2-2.9-0.2-4.3,0.2
		c-0.8,0.2-1.6,0.5-2.3,0.9c0,0,0-0.1,0.1-0.1c0.7-1.4,1.9-2.9,3.3-4.3c1.4-1.5,3.1-2.9,5-4.4c1.9-1.4,4.1-2.8,6.6-3.9
		c1.2-0.6,2.5-1.1,3.8-1.4c1.3-0.3,2.7-0.5,3.9-0.4c0.6,0.1,1.2,0.3,1.7,0.6c0.2,0.1,0.4,0.3,0.6,0.4c0.3,0.2,0.5,0.5,0.7,0.8
		c0.5,0.9,0.8,2,0.9,3.1C87.7,174.9,86.7,175.3,85.8,175.7z M113.9,166.9c-1.1,0.3-2.1,0.8-3.1,1.2c-1.9,1-3.6,2-5.2,3
		c-3.2,2-5.9,3.7-8.4,4.5c-1.2,0.4-2.4,0.6-3.4,0.6c-1,0-1.9-0.3-2.5-0.6c-0.2-0.1-0.3-0.2-0.5-0.2c0-0.5,0-1.1-0.1-1.6
		c0.1,0.1,0.2,0.2,0.3,0.2c0.5,0.4,1.1,0.7,1.9,0.9c0.8,0.2,1.7,0.2,2.5,0c0.9-0.2,1.6-0.5,2.3-0.8c0.6-0.3,1.2-0.7,1.7-1
		c0.9-0.6,1.5-1,1.5-1c0,0-0.7,0.1-1.8,0.3c-1.1,0.2-2.5,0.7-3.9,1c-0.7,0.2-1.4,0.2-2.1,0.2c-0.6,0-1.2-0.2-1.7-0.3
		c-0.3-0.1-0.5-0.2-0.7-0.3c0,0,0-0.1,0-0.1c-0.2-0.9-0.5-1.9-1-2.7c-0.5-0.9-1.3-1.6-2.2-2.1c0,0,0,0-0.1,0c0.2-0.3,0.4-0.7,0.6-1
		c0.2-0.2,0.4-0.4,0.7-0.5c0.3-0.1,0.6-0.2,0.8-0.3c0.6,0,1.2,0.2,1.9,0.5c0.7,0.3,1.4,0.7,2.2,1c0.4,0.2,0.8,0.4,1.2,0.6
		c0.4,0.2,0.9,0.4,1.4,0.5c0.9,0.2,1.9,0.3,2.9,0.3c2,0.1,4.2-0.2,6.3-0.9c2-0.7,3.9-1.7,5.6-3.2c0.9,0.6,2,1.1,3.1,1.6
		C114.2,166.8,114.1,166.8,113.9,166.9z M117.9,170.4c-1,0.3-1.8,0.8-2.5,1.5c-0.7,0.6-1.2,1.4-1.5,2.3c-0.2,0.6-0.3,1.3-0.2,1.9
		c-0.2-0.5-0.3-1.1-0.3-1.7c0.1-0.7,0.4-1.4,0.8-2.1c0.4-0.7,1-1.2,1.7-1.6c0.9-0.4,1.9-0.6,3-0.5
		C118.5,170.2,118.2,170.3,117.9,170.4z M125.5,173.9C125.5,173.9,125.5,173.9,125.5,173.9c-0.1,0-0.1,0-0.1,0l0-0.1c0,0,0,0,0,0
		c0,0,0,0,0,0c0,0,0,0,0,0c-0.1-0.2-0.3-0.4-0.4-0.6C125.1,173.4,125.3,173.6,125.5,173.9C125.5,173.9,125.5,173.9,125.5,173.9z
		 M126.3,171.1c-0.1-0.1-0.2-0.3-0.3-0.4c-0.7-0.8-1.5-1.3-2.4-1.8c-1.6-0.9-3.2-1.6-4.8-2.1c-3-1.1-5.7-1.9-7.7-3
		c-1-0.5-1.8-1.1-2.2-1.8c-0.4-0.7-0.4-1.4-0.3-2c0-0.2,0.1-0.3,0.1-0.4c0.5-0.1,0.9-0.2,1.4-0.3l0,0c0.6,0.7,1.3,1.3,2.1,1.8
		c1.7,1.2,3.6,2.1,5.6,2.9c1.9,0.8,3.9,1.6,5.7,2.7c0.9,0.5,1.7,1.2,2.2,1.9C126.3,169.3,126.5,170.2,126.3,171.1z M120.9,163.4
		L120.9,163.4c0.1,0,0.1,0,0.1,0c0,0,0,0,0,0.1C120.9,163.5,120.9,163.5,120.9,163.4z M128.1,167.7c-0.2,0.3-0.4,0.7-0.5,1.1
		c-0.2-0.5-0.4-0.9-0.6-1.3c-0.8-1.1-1.8-1.8-2.8-2.4c-0.2-0.1-0.3-0.2-0.5-0.3c-0.2-0.5-0.5-0.9-0.8-1.2c-0.4-0.4-0.7-0.7-1.1-0.9
		c-0.3-0.2-0.6-0.3-0.8-0.4c-0.3-0.5-0.5-0.9-0.8-1.5c-0.3-0.7-0.6-1.5-0.9-2.3c-0.6-1.5-1.1-3-1.9-4.4c-0.4-0.7-0.9-1.3-1.5-1.9
		c-0.3-0.3-0.6-0.5-1-0.7c-0.4-0.2-0.7-0.3-1-0.4c-0.7-0.2-1.4-0.3-2.2-0.1c-0.4,0.1-0.8,0.3-1,0.6c-0.3,0.3-0.5,0.6-0.6,0.9
		c-0.2,0.6-0.2,1.2-0.1,1.7c0.1,0.5,0.2,1,0.4,1.4c0.3,0.8,0.7,1.4,1,1.9c0.7,1,1.2,1.3,1.2,1.3c0,0-0.5-0.5-0.9-1.6
		c-0.2-0.5-0.5-1.2-0.6-2c-0.1-0.4-0.1-0.8-0.1-1.3c0-0.4,0.1-0.9,0.3-1.2c0.2-0.3,0.5-0.5,0.9-0.5c0.4,0,1,0.1,1.5,0.4
		c0.1,0.1,0.3,0.1,0.4,0.2c0.1,0,0.1,0.1,0.2,0.1c0.1,0,0.1,0.1,0.2,0.1c0.2,0.2,0.4,0.3,0.6,0.6c0.4,0.4,0.7,1,1,1.6
		c0.6,1.2,1.1,2.6,1.7,4.1c0.3,0.7,0.6,1.5,1,2.3c0.2,0.4,0.5,0.9,0.8,1.3c-0.5-0.2-1.1-0.5-1.6-0.7c-1.9-0.9-3.8-1.8-5.3-3
		c-1.5-1.2-2.7-2.6-3.1-4.3c-0.2-0.8-0.2-1.7-0.1-2.6c0-0.4,0.1-0.8,0.2-1.3c0-0.1,0-0.2,0.1-0.2l0.2-0.1c0-0.1-0.1-0.2-0.1-0.3
		c0.1-0.2,0.1-0.3,0.2-0.5c0.3-0.7,0.8-1.3,1.4-1.7c0.6-0.4,1.3-0.6,2.1-0.6c1.5-0.1,3.1,0.2,4.5,0.7c0.7,0.2,1.4,0.5,2,0.8
		c0.7,0.3,1.3,0.6,1.8,1c2.3,1.4,3.8,3.4,4.9,5.2c0.1,0.2,0.2,0.4,0.3,0.5c0.1,0.3,0.2,0.5,0.4,0.7c0.1-0.2,0.2-0.5,0.4-0.7
		c0.2-0.3,0.4-0.6,0.6-1c1.2-1.9,2.9-3.8,5.3-5.2c0.3-0.2,0.6-0.3,0.9-0.5c0.3-0.2,0.7-0.3,1-0.4c0.7-0.3,1.4-0.5,2.1-0.7
		c1.4-0.4,3-0.7,4.5-0.4c0.7,0.1,1.4,0.5,1.9,1c0.5,0.5,0.8,1.1,1,1.8c0,0.1-0.1,0.2-0.1,0.3l0.2,0.1c0.4,1.6,0.5,3.2-0.1,4.7
		c-0.6,1.6-1.8,2.9-3.4,4c-1.6,1.1-3.4,1.9-5.3,2.8c-0.4,0.2-0.7,0.3-1.1,0.5c0.3-0.5,0.6-0.9,0.8-1.4c0.4-0.8,0.7-1.6,1-2.4
		c0.6-1.5,1.1-3,1.8-4.2c0.3-0.6,0.7-1.1,1.1-1.5c0.2-0.2,0.4-0.4,0.6-0.5c0.2-0.1,0.5-0.2,0.8-0.3c0.5-0.2,1.1-0.3,1.5-0.2
		c0.4,0.1,0.6,0.3,0.8,0.6c0.2,0.4,0.2,0.8,0.2,1.2c0,0.4-0.1,0.9-0.1,1.3c-0.2,0.8-0.4,1.4-0.6,1.9c-0.5,1-0.9,1.5-0.9,1.5
		c0,0,0.6-0.4,1.3-1.4c0.3-0.5,0.7-1.2,1-2c0.1-0.4,0.3-0.9,0.3-1.4c0-0.5,0-1.1-0.3-1.8c-0.1-0.3-0.4-0.6-0.7-0.8
		c-0.3-0.2-0.7-0.3-1.1-0.4c-0.7-0.1-1.4,0.1-2.1,0.3c-0.2,0.1-0.3,0.1-0.5,0.2c-0.1,0-0.2,0.1-0.3,0.1c-0.1,0.1-0.2,0.1-0.3,0.1
		c-0.3,0.2-0.7,0.5-0.9,0.7c-0.6,0.6-1,1.2-1.4,1.9c-0.7,1.4-1.3,2.8-1.8,4.3c-0.3,0.7-0.6,1.5-0.9,2.2c-0.2,0.5-0.4,0.9-0.7,1.4
		c-0.2,0.1-0.5,0.2-0.8,0.4c-0.3,0.2-0.7,0.5-1.1,0.9c-0.3,0.3-0.5,0.7-0.7,1.2c-0.3,0.1-0.5,0.3-0.8,0.4
		C129.8,165.9,128.8,166.6,128.1,167.7z M134.3,163.4c0,0-0.1,0-0.1,0.1C134.2,163.5,134.2,163.4,134.3,163.4
		C134.2,163.4,134.2,163.4,134.3,163.4L134.3,163.4z M129.8,173.7C129.8,173.7,129.8,173.7,129.8,173.7
		C129.8,173.7,129.8,173.8,129.8,173.7L129.8,173.7c-0.1,0.1-0.1,0.1-0.1,0.1c0,0,0,0,0,0c0,0,0,0-0.1,0c0.2-0.3,0.4-0.5,0.6-0.7
		C130.1,173.3,129.9,173.5,129.8,173.7z M139.5,170.8c0.7,0.4,1.2,1,1.6,1.7c0.4,0.7,0.7,1.4,0.7,2.1c0,0.5-0.1,0.9-0.3,1.4
		c0.1-0.8,0-1.6-0.4-2.3c-0.4-0.8-1-1.6-1.7-2.2c-0.7-0.6-1.6-1-2.6-1.3c-0.2,0-0.4-0.1-0.6-0.1
		C137.5,170.1,138.6,170.2,139.5,170.8z M168,170.8c0.2-0.2,0.4-0.3,0.6-0.4c0.6-0.4,1.3-0.6,2-0.7c1.3-0.1,2.7,0.1,4.1,0.5
		c1.3,0.4,2.6,0.9,3.9,1.5c2.4,1.2,4.6,2.6,6.5,4c1.9,1.4,3.6,2.9,4.9,4.4c1.3,1.4,2.3,2.8,3,4.1c-0.9-0.5-1.8-0.8-2.8-1
		c-1.5-0.3-3.1-0.2-4.5,0.1c-0.9,0.2-1.7,0.5-2.6,0.8c-0.4-0.1-0.9-0.3-1.4-0.6c-0.7-0.4-1.5-1-2.2-1.7c-0.8-0.7-1.6-1.6-2.5-2.5
		c-1.8-1.8-3.5-3.4-5-4.3c-1.4-0.9-2.5-1.2-2.5-1.2c0,0,0.9,0.6,2,1.8c1.2,1.2,2.6,2.9,4.4,4.8c0.9,0.9,1.8,1.7,2.8,2.4
		c0.9,0.7,1.9,1.1,2.7,1.4c0.4,0.1,0.7,0.2,1,0.2c-0.2,0.1-0.5,0.2-0.7,0.3c-0.5,0.3-1,0.5-1.5,0.8c-1-1.1-2-2.3-3.1-3.5
		c-1.4-1.5-2.9-3.1-4.7-4.6c-0.9-0.7-2-1.4-3.1-1.9c-0.9-0.4-1.8-0.7-2.7-0.8c0.1-1.3,0.4-2.4,1-3.3
		C167.6,171.2,167.8,171,168,170.8z M149.7,168.4c2.2,0.7,4.4,0.9,6.5,0.8c0.5,0,1-0.1,1.5-0.2c0.2,0,0.5-0.1,0.7-0.1l0.4-0.1
		c0.1,0,0.3-0.1,0.4-0.1c1-0.3,1.8-0.7,2.6-1.1c0.8-0.4,1.5-0.7,2.2-1c0.7-0.3,1.4-0.4,1.8-0.3c0.6,0.2,1,0.5,1.4,0.9
		c0.2,0.2,0.3,0.5,0.5,0.8c-0.1,0.1-0.3,0.1-0.4,0.2c-0.8,0.5-1.5,1.3-1.9,2.1c-0.2,0.4-0.4,0.9-0.6,1.3c-1,0.5-2.4,1-4,1.1
		c-1.8,0.1-3.4-0.1-4.7-0.3c-1.2-0.2-2-0.3-2-0.3c0,0,0.7,0.4,1.8,1c0.6,0.3,1.3,0.5,2.2,0.8c0.8,0.2,1.8,0.3,2.9,0.3
		c1-0.1,2-0.4,2.8-0.8c0.3-0.2,0.5-0.3,0.8-0.5c0,0,0,0,0,0c-0.1,0.8-0.2,1.5-0.2,2.3c-0.2,0.1-0.4,0.2-0.6,0.3
		c-0.7,0.3-1.6,0.5-2.6,0.5c-1,0-2.2-0.2-3.5-0.7c-2.5-0.9-5.3-2.7-8.4-4.6c-1.6-1-3.2-2-5.1-2.9c-0.9-0.5-1.9-0.9-3-1.2
		c-0.1,0-0.2,0-0.3-0.1c1.1-0.5,2.2-1,3.1-1.6C145.6,166.7,147.7,167.8,149.7,168.4z M146,162.2c-0.5,0.7-1.3,1.3-2.3,1.8
		c-2,1-4.7,1.9-7.7,3c-1.5,0.6-3.1,1.2-4.6,2.1c-0.8,0.5-1.6,1-2.2,1.8c-0.1,0.1-0.1,0.2-0.2,0.3c-0.2-1,0-1.9,0.6-2.7
		c0.6-0.8,1.5-1.4,2.4-2c1.9-1.1,3.9-1.9,5.9-2.8c2-0.9,3.9-1.8,5.7-3.1c0.5-0.4,1-0.8,1.5-1.3v0c0.5,0.1,0.9,0.2,1.4,0.3
		c0.1,0.2,0.1,0.3,0.2,0.5C146.5,160.7,146.5,161.5,146,162.2z M193.8,154.9L193.8,154.9c-0.1-0.3-0.2-0.6-0.3-0.8
		C193.7,154.4,193.8,154.7,193.8,154.9z M170.3,153.6c0-0.1,0-0.1,0-0.2c0-0.1,0-0.3,0-0.4c0.4,0.3,0.9,0.7,1.5,1.1
		c0.7,0.5,1.7,1.1,2.8,1.6C173.2,155.1,171.8,154.4,170.3,153.6z M199.7,166.1c-2.9-2.1-5.9-4.6-8.7-7.7c0.1,0,0.1-0.1,0.2-0.1
		c1-0.7,1.3-1.2,1.3-1.2c0,0-0.5,0.5-1.6,1c-0.1,0-0.1,0.1-0.2,0.1c-0.3,0.1-0.6,0.2-0.9,0.3c-1,0.3-2.3,0.5-3.8,0.5
		c-2.8-0.1-6.4-1-10.2-2.5c0.9,0.3,1.8,0.6,2.8,0.9c1.4,0.3,2.9,0.5,4.2,0.4c1.3-0.1,2.5-0.3,3.4-0.7c0.9-0.4,1.6-0.8,2-1.2
		c0.4-0.4,0.6-0.6,0.6-0.6c0,0-1,0.8-2.8,1.1c-1.8,0.4-4.3,0.2-7-0.4c-2.7-0.6-5.1-1.5-6.9-2.2c-0.8-0.3-1.4-0.6-1.8-0.9
		c0-0.4-0.1-0.7-0.3-1.1c0.7,0.1,1.3,0.2,2,0.2c1,0.1,1.9,0.1,2.9,0.1c1.8,0,3.6-0.1,5.2-0.1c3.3-0.1,6.1-0.2,8.4,0
		c1.1,0.1,2.2,0.3,3,0.6c0.8,0.3,1.4,0.7,1.8,1.2c0,0.1,0.1,0.1,0.1,0.2l-0.5-0.1c-0.2,0.7-0.2,1.4-0.1,2.1c0.1,0.7,0.3,1.3,0.5,1.9
		c0.5,1.2,1.1,2.2,1.8,3.1c1.4,1.8,2.9,3.4,4.5,4.7c2.5,2.1,5,3.7,7.2,4.8C204.6,169.3,202.2,167.9,199.7,166.1z"/>
	<radialGradient id="SVGID_2_" cx="88.5708" cy="233.8182" r="2.293899e-04" gradientUnits="userSpaceOnUse">
		<stop  offset="0.2" style="stop-color:#FFFFFF"/>
		<stop  offset="0.7" style="stop-color:#FFFFFF;stop-opacity:0.6"/>
		<stop  offset="1" style="stop-color:#FFFFFF"/>
	</radialGradient>
	<polygon class="st1" points="88.6,233.8 88.6,233.8 88.6,233.8 	"/>
	<radialGradient id="SVGID_3_" cx="127.9991" cy="138.024" r="86.209" gradientUnits="userSpaceOnUse">
		<stop  offset="0.2" style="stop-color:#FFFFFF"/>
		<stop  offset="0.7" style="stop-color:#FFFFFF;stop-opacity:0.6"/>
		<stop  offset="1" style="stop-color:#FFFFFF"/>
	</radialGradient>
	<path class="st2" d="M169.8,98C169.8,98,169.9,98,169.8,98C169.9,98,169.9,98,169.8,98L169.8,98z"/>
	<radialGradient id="SVGID_4_" cx="127.9991" cy="138.024" r="86.209" gradientUnits="userSpaceOnUse">
		<stop  offset="0.2" style="stop-color:#FFFFFF"/>
		<stop  offset="0.7" style="stop-color:#FFFFFF;stop-opacity:0.6"/>
		<stop  offset="1" style="stop-color:#FFFFFF"/>
	</radialGradient>
	<path class="st3" d="M166.2,214.2c0.5-1.3,1-2.1,0.9-2.1c0,0-0.7,0.6-1.6,1.7c-0.9,1.1-1.9,2.9-2.4,5.1c-0.5,2.2-0.4,4.2-0.3,5.6
		c0.1,1.4,0.3,2.3,0.3,2.3c0,0,0.2-0.9,0.4-2.3c0.2-1.4,0.5-3.3,1-5.3C165,217.3,165.6,215.5,166.2,214.2z"/>
	<radialGradient id="SVGID_5_" cx="127.9991" cy="138.024" r="86.209" gradientUnits="userSpaceOnUse">
		<stop  offset="0.2" style="stop-color:#FFFFFF"/>
		<stop  offset="0.7" style="stop-color:#FFFFFF;stop-opacity:0.6"/>
		<stop  offset="1" style="stop-color:#FFFFFF"/>
	</radialGradient>
	<path class="st4" d="M91.9,223.2c0,0,0-0.8-0.1-2.1c-0.1-1.3-0.4-3.1-1-5c-0.6-1.9-1.6-3.5-2.5-4.5c-0.9-1-1.6-1.4-1.6-1.4
		c0,0,0.5,0.7,1,1.8c0.6,1.2,1.1,2.8,1.7,4.6c0.6,1.8,1.2,3.5,1.7,4.7C91.6,222.4,91.9,223.2,91.9,223.2z"/>
	<radialGradient id="SVGID_6_" cx="127.9991" cy="138.024" r="86.209" gradientUnits="userSpaceOnUse">
		<stop  offset="0.2" style="stop-color:#FFFFFF"/>
		<stop  offset="0.7" style="stop-color:#FFFFFF;stop-opacity:0.6"/>
		<stop  offset="1" style="stop-color:#FFFFFF"/>
	</radialGradient>
	<path class="st5" d="M157.9,159.4c-5.7,1.3-10.7,0.6-10.7,0.6c0,0,1.1,0.5,3.1,0.9c2,0.4,4.8,0.6,7.9-0.1c1.5-0.3,2.9-0.9,4.1-1.5
		c1.2-0.6,2.2-1.4,2.9-2c1.5-1.4,2.1-2.5,2.1-2.5c0,0-0.9,0.9-2.6,1.9C163.2,157.7,160.7,158.8,157.9,159.4z"/>
	<radialGradient id="SVGID_7_" cx="127.9991" cy="138.024" r="86.209" gradientUnits="userSpaceOnUse">
		<stop  offset="0.2" style="stop-color:#FFFFFF"/>
		<stop  offset="0.7" style="stop-color:#FFFFFF;stop-opacity:0.6"/>
		<stop  offset="1" style="stop-color:#FFFFFF"/>
	</radialGradient>
	<path class="st6" d="M74.7,156.6c-1,0.1-2.1,0.2-3.2,0.2c-2.3,0-4.5-0.2-6-0.3c-1.6-0.1-2.6-0.1-2.6-0.1c0,0,0.9,0.4,2.4,0.8
		c1.5,0.4,3.7,1,6.2,1c1.2,0,2.4-0.2,3.5-0.4c1-0.3,1.9-0.7,2.7-1.1c1.4-0.8,2-1.6,2-1.6c0,0-0.9,0.5-2.3,0.9
		C76.6,156.3,75.7,156.5,74.7,156.6z"/>
	<radialGradient id="SVGID_8_" cx="127.9991" cy="138.024" r="86.209" gradientUnits="userSpaceOnUse">
		<stop  offset="0.2" style="stop-color:#FFFFFF"/>
		<stop  offset="0.7" style="stop-color:#FFFFFF;stop-opacity:0.6"/>
		<stop  offset="1" style="stop-color:#FFFFFF"/>
	</radialGradient>
	<path class="st7" d="M77.5,135.6c-1.1-0.2-2.6-0.6-4.4-0.8c-1.7-0.3-3.4-0.3-4.6,0c-0.6,0.2-1,0.4-1.3,0.6
		c-0.3,0.2-0.4,0.3-0.4,0.3c0,0,0.7-0.3,1.8-0.2c1.1,0,2.6,0.4,4.3,0.7c1.7,0.3,3.4,0.3,4.6,0.1c1.2-0.2,1.8-0.6,1.8-0.6
		C79.4,135.7,78.6,135.8,77.5,135.6z"/>
	<radialGradient id="SVGID_9_" cx="127.9991" cy="138.024" r="86.209" gradientUnits="userSpaceOnUse">
		<stop  offset="0.2" style="stop-color:#FFFFFF"/>
		<stop  offset="0.7" style="stop-color:#FFFFFF;stop-opacity:0.6"/>
		<stop  offset="1" style="stop-color:#FFFFFF"/>
	</radialGradient>
	<path class="st8" d="M97.7,128.7c0.2,0.7,0.5,1.4,1,2.2c0.5,0.8,1.1,1.6,1.9,2.3c1.5,1.4,3.2,2.3,4.4,2.9c1.2,0.6,2,0.9,2,0.9
		s-0.6-0.6-1.6-1.5c-1-0.9-2.4-2-3.8-3.4c-1.4-1.3-2.5-2.6-3.2-3.7c-0.6-1.1-0.9-1.9-0.9-1.9C97.5,126.5,97.3,127.4,97.7,128.7z"/>
</g>
<path class="st9" d="M117,215.2c-0.4,0-0.8-0.3-0.8-0.7v-17c0-3.6-2.3-4.6-3.7-4.6c-0.4,0-0.8-0.3-0.8-0.7c0-0.4,0.3-0.7,0.8-0.7
	c0.7,0,2.3,0.3,3.5,1.5c0.2,0.2,0.5,0.3,0.8,0.3c0.3,0,0.5-0.1,0.7-0.2l1.8-1.4c0.1-0.1,0.3-0.2,0.5-0.2c0.7,0,2.4,0.3,3.6,1.5
	c0.2,0.2,0.5,0.3,0.8,0.3c0.3,0,0.5-0.1,0.7-0.2l2-1.5c0.1-0.1,0.3-0.2,0.5-0.2c0.1,0,5.2,0.1,5.2,5.9v12.9c0,1.2,0.6,2.2,1.7,2.8
	c0.5,0.3,1,0.4,1.6,0.4c0.6,0,1.1-0.1,1.6-0.4c1-0.6,1.6-2.2,1.6-3.4c0-0.4-0.2-0.8-0.6-1c-0.2-0.1-0.4-0.2-0.6-0.2
	c-0.2,0-0.4,0-0.6,0.1c-0.1,0.1-0.3,0.1-0.4,0.1c-0.2,0-0.4-0.1-0.5-0.2c-0.1-0.1-0.2-0.3-0.2-0.5c0-0.2,0.1-0.3,0.2-0.5l2.8-2.7
	c0.1-0.1,0.4-0.2,0.6-0.2c0.2,0,0.4,0.1,0.5,0.2l2.7,2.8c0.1,0.1,0.2,0.3,0.2,0.5c0,0.2-0.1,0.3-0.2,0.5c-0.1,0.1-0.3,0.2-0.5,0.2
	c-0.1,0-0.2,0-0.3-0.1c-0.1,0-0.3-0.1-0.4-0.1c-0.2,0-0.5,0.1-0.7,0.2c-0.3,0.2-0.5,0.6-0.5,0.9c-0.1,1.5-0.8,3.5-2.3,4.3
	c-0.7,0.4-1.6,0.6-2.4,0.6c-0.8,0-1.7-0.2-2.4-0.6c-1.5-0.8-2.4-2.3-2.4-4v-12.9c0-3.3-2-4.2-2.8-4.4c-0.1,0-0.2,0-0.3,0
	c-0.3,0-0.5,0.1-0.7,0.2l-2,1.5c-0.4,0.3-0.5,0.7-0.5,1.2c0.1,0.5,0.1,1,0.1,1.6v14.5c0,0.4-0.3,0.7-0.8,0.7c-0.4,0-0.8-0.3-0.8-0.7
	v-14.5c0-3.3-2-4.2-2.8-4.4c-0.1,0-0.2,0-0.3,0c-0.3,0-0.5,0.1-0.7,0.2l-1.8,1.3c-0.4,0.3-0.6,0.8-0.5,1.2c0.1,0.5,0.2,1.1,0.2,1.7
	v17C117.7,214.9,117.4,215.2,117,215.2L117,215.2z"/>
</svg>
